<?xml version="1.0" encoding="utf-8" ?>
<svg baseProfile="full" height="300mm" version="1.1" viewBox="0,0,200,300" width="200mm" xmlns="http://www.w3.org/2000/svg" xmlns:ev="http://www.w3.org/2001/xml-events" xmlns:xlink="http://www.w3.org/1999/xlink"><defs /><rect fill="#222222" height="300" width="200" x="0" y="0" /><text fill="#FFFFFF" style="font-size:12px; font-family:Arial; font-weight:bold;" x="10" y="20">Over 3km Runs</text><text fill="#FFFFFF" style="font-size:4px; font-family:Arial" x="10" y="280">Runner</text><text fill="#FFFFFF" style="font-size:9px; font-family:Arial" x="10" y="290">tang-hi</text><text fill="#FFFFFF" style="font-size:4px; font-family:Arial" x="65" y="280">SPECIAL TRACKS</text><rect fill="yellow" height="2.6" width="2.6" x="65" y="283" /><text fill="#FFFFFF" style="font-size:3px; font-family:Arial" x="70" y="285.5">Over 20.0 km</text><rect fill="red" height="2.6" width="2.6" x="65" y="287" /><text fill="#FFFFFF" style="font-size:3px; font-family:Arial" x="70" y="289.5">Over 40.0 km</text><text fill="#FFFFFF" style="font-size:4px; font-family:Arial" x="120" y="280">STATISTICS</text><text fill="#FFFFFF" style="font-size:3px; font-family:Arial" x="120" y="285">Number: 62</text><text fill="#FFFFFF" style="font-size:3px; font-family:Arial" x="120" y="290">Weekly: 3.6</text><text fill="#FFFFFF" style="font-size:3px; font-family:Arial" x="141" y="285">Total: 328.7 km</text><text fill="#FFFFFF" style="font-size:3px; font-family:Arial" x="141" y="290">Avg: 5.3 km</text><text fill="#FFFFFF" style="font-size:3px; font-family:Arial" x="167" y="285">Min: 3.2 km</text><text fill="#FFFFFF" style="font-size:3px; font-family:Arial" x="167" y="290">Max: 11.5 km</text><polyline fill="none" points="22.38935526792193,54.418161962152226 22.704212299082428,54.42857142857247 23.711754799063783,47.42276132614643 23.85568944190163,45.08044452485046 23.26195904018823,40.8953718057237 23.01007341517834,37.73042711461312 22.857142857159488,37.032876806129934 22.398351183044724,36.31449913333199 22.46132258931175,36.147918083530385 22.92911017854931,36.22079732615384 22.704212299082428,34.107278227726056 22.29040020093089,33.680404542530596 22.3173879464739,32.420596216164995 21.858596272359136,31.285714285717404 22.326383861654904,32.47265471852734 22.272408370568883,33.628346654280904 22.704212299082428,34.13851281774987 22.9111183481873,36.199974690709496 22.46132258931175,36.158329407073325 22.398351183044724,36.29367651692883 22.776179620530456,36.88711942501686 23.019069330359343,37.88659444310906 23.279950870550238,41.16605332397012 23.85568944190163,44.934698597986426 23.747738459787797,47.14168613839138 22.830155111616477,53.439667397076846" stroke="#4DD2FF" stroke-linecap="round" stroke-linejoin="round" stroke-width="0.5"><title>2025-08-28 5.0km</title><desc>1756381580000</desc></polyline><polyline fill="none" points="49.35446350989514,31.285714285717404 49.545043442049064,32.273284328810405 49.51189910605899,33.174552823424165 48.99816189770354,36.39603792142589 48.81586804956896,36.73160296167043 48.79100979754003,37.78622817771247 48.06183440508903,42.081307328779076 48.119836993166246,42.62776543759537 47.56466936477227,46.24197889013885 47.52323894476285,47.7087156992784 47.655816288810456,47.86209862463875 47.60609978478169,48.485214196341985 48.23584216917516,53.920524868764915 48.93187322563608,54.42857142857247 48.708148957492085,54.22727028844383 47.93754314497346,47.88127147278283 47.90439880901249,46.64461479320744 48.476138605357846,42.608591522417555 48.617002033483004,42.407265177920635 48.74957937753061,40.71994179090689 49.32960525792441,37.402729462701245 49.288174837856786,36.952116481304984 49.44561043396243,36.741190516717324 49.379321761924075,36.45356344164611 49.61961819807766,34.8044846235498" stroke="#4DD2FF" stroke-linecap="round" stroke-linejoin="round" stroke-width="0.5"><title>2025-08-26 5.0km</title><desc>1756206850000</desc></polyline><polyline fill="none" points="75.01376339120907,31.285714285717404 75.03040451358538,32.07520600682619 75.16353349291603,32.1040897255516 75.08864844206255,33.08613092351152 74.62269701453624,36.28250827113516 74.46460635162657,36.63872437072132 74.27323344390607,38.80487452735542 73.69911472071544,42.06844727585849 73.60758854745654,43.57985735010152 73.18323992600199,46.41970281757676 73.25812497685547,48.56637699787825 73.89880818966776,54.29381240843213 73.92376987330499,54.42857142857247 74.42300354561303,54.3708175862339 74.06521941378014,50.63599442232953 73.62422966989106,48.09469042576529 73.58262686384842,46.80476005990204 74.1151427810255,42.86747598651709 74.306515688746,42.31874615071138 74.94719890152919,37.07195836297615 75.1385718092788,36.68686157875345 75.07200731962803,36.37878302469471 75.38818864544737,33.98151255738776" stroke="#4DD2FF" stroke-linecap="round" stroke-linejoin="round" stroke-width="0.5"><title>2025-08-24 5.0km</title><desc>1756042259000</desc></polyline><polyline fill="none" points="99.70496459380956,54.42857142857247 99.96312057424802,54.055167945683934 100.85744664928643,47.963169256159745 101.02340406528674,45.2851385282047 100.53475167375291,42.20158425628324 100.04609928221907,37.49605520728073 99.51134760852437,36.40767150557076 99.6404255987145,36.258284626266686 100.03687942581018,36.300966613489436 99.83404258399969,34.20952882358688 99.39148947474314,33.70800438157312 99.46524832624709,32.63025225736783 98.96737607830437,31.285714285710128 99.43758875696221,32.42750557112595 99.40992918756092,33.71867513932375 99.85248229693389,34.24154094061669 100.06453899515327,36.31163710755936 99.95390071783913,36.41834198879951 99.56666674715234,36.27962562203902 99.56666674715234,36.429012470944144 99.92624114849605,37.07990983068885 100.12907799024833,37.86951760172815 100.3687942578108,40.77180862773821 101.03262392175384,45.3918342863617 100.88510621862952,47.824468147147854 99.87092200980987,54.343222178154974" stroke="#4DD2FF" stroke-linecap="round" stroke-linejoin="round" stroke-width="0.5"><title>2025-08-23 5.0km</title><desc>1755956696000</desc></polyline><polyline fill="none" points="126.53131865471369,31.285714285717404 126.53969847969711,31.925684388319496 126.64863620512187,32.042042127708555 126.60673708000104,33.01168443844654 126.10394757817267,36.133865745221556 125.91959142748965,36.53140323948173 125.49222035097773,40.516382729736506 125.27434490021551,41.83497677977721 125.13188787468243,41.97071336853696 125.19892647498637,42.44578990940499 124.59557907280396,47.01222138530284 125.36652297555702,54.27346412258339 125.3916624506237,54.38979462568386 125.8441730022605,54.42857142857247 125.01457032427425,46.818322153667395 126.2631642537599,37.74339757569396 126.42238092931802,36.75441135273286 126.57321777986363,36.570187296580116 126.5061791796179,36.20173811754648 126.83299235577579,33.68073188862036" stroke="#4DD2FF" stroke-linecap="round" stroke-linejoin="round" stroke-width="0.5"><title>2025-08-21 5.0km</title><desc>1755781186000</desc></polyline><polyline fill="none" points="152.07368350063916,31.285714285717404 152.09865558089223,33.07724825726473 151.59921397667495,36.294218900548 151.42440941516543,36.63132028385735 151.34949317455175,37.19957418822014 151.44105746864807,37.478884180840396 150.66692298217095,42.04404122442065 150.71686714258976,42.52558505949128 150.16748137795366,46.47415227242891 150.20077748488984,48.140205703479296 150.8999957307824,54.42857142857247 151.38278928148793,54.34190459638921 151.04982821203885,50.69219611683366 150.61697882172302,48.09205428093992 150.59200674152817,46.25265163514268 151.13306847939384,42.573739308492804 151.27457693390897,42.36186042994814 151.84893477876903,37.57519778062124 152.12362766108708,36.65058318384399 152.1319516878284,35.59111787244183 152.68966147917672,32.04663876489212" stroke="#4DD2FF" stroke-linecap="round" stroke-linejoin="round" stroke-width="0.5"><title>2025-08-19 5.3km</title><desc>1755607955000</desc></polyline><polyline fill="none" points="176.89209940488217,54.314580079648294 177.29510291235056,54.42857142857247 177.29510291235056,53.66171808146464 177.4473486818606,53.31974108105351 177.635416985373,50.956959562980046 178.18171062879264,47.381593955200515 178.1279768277891,45.03940243340185 177.51899374986533,41.11144719742879 177.24136911140522,37.87776624570688 177.071212074894,37.02787153660029 176.63238603348145,36.29198136917694 176.73089800192975,36.11578152667062 177.1607684098999,36.20906383417605 176.9727001063875,34.27084723731241 176.50700716447318,33.63858679205441 176.54282969841734,32.41551447088568 176.1040036569466,31.285714285717404 176.5786522324779,32.4673398670202 176.52491843141615,33.62822183404933 176.94583320588572,34.084278989255836 177.1607684098999,36.19869913755247 176.71298673492856,36.13651093572116 176.6682085674256,36.271251991747704 177.18763531040167,37.46318434600835 177.4563043153612,40.58287174732686 178.1190211942885,45.163767937636294 178.11006556078792,46.23123227633914 177.4473486818606,50.82223791439901 177.2503247448476,50.915506766985345 177.12494587589754,51.22640232615231 176.89209940488217,52.74977686531929" stroke="#4DD2FF" stroke-linecap="round" stroke-linejoin="round" stroke-width="0.5"><title>2025-08-17 5.0km</title><desc>1755429603000</desc></polyline><polyline fill="none" points="22.524293961643707,81.16223837166763 22.407347052474506,81.2142857142826 22.54228579386836,81.07896256847744 22.695216367486864,78.78885145181266 22.82115919276839,77.98730046518176 23.23497133300407,77.64377669370879 23.225975416891742,76.85262665619666 23.7837222146336,73.70878585567698 23.86468545946991,72.29298497435957 22.88413060538005,64.07887161326653 22.37136338808341,63.07939080247161 22.470318465144373,62.96486633652239 22.902122437546495,62.99610029448377 22.7132081995951,60.97628473216173 22.28140422713477,60.434884098373004 22.30839197547175,59.25836900419381 21.849600254790857,58.07142857142753 22.33537972375052,59.27919239773473 22.272408311080653,60.38282619424717 22.704212283482775,60.892992513327044 22.920114269771148,62.98568897622317 22.461322549032047,62.93363236905134 22.39835113636218,63.089802111186145 22.938106101937592,64.20380602861405 23.86468545946991,71.80369629561028 23.855689543357585,73.04252905539761 23.252963165170513,77.47721929888212 22.80316736054374,80.35029640296125 22.614253122592345,80.49603005073004 22.551281709980685,80.93322975002957" stroke="#4DD2FF" stroke-linecap="round" stroke-linejoin="round" stroke-width="0.5"><title>2025-08-16 5.1km</title><desc>1755350047000</desc></polyline><polyline fill="none" points="48.436429108376615,81.15180078841513 48.11243039713008,81.2142857142826 48.26542978856014,81.05807332820405 48.69742807029979,77.82963070541882 48.94042710372014,77.70465668821271 48.88642731850268,77.36097735509975 49.534424741053954,73.53876889802632 49.579424562107306,71.88278145840013 48.60742842819309,64.10240671067731 48.12143036129419,63.12330832490261 48.22042996750679,62.93582033237908 48.6164283924154,62.99831636801537 48.4184291799902,60.94634327098174 47.99543086247286,60.46719642478274 48.05843061191263,59.43598147886951 47.5544326165691,58.07142857142753 48.02243075508159,59.165155630260415 48.01343079091748,60.415115110787156 48.4184291799902,60.90467841681675 48.65242824924644,62.98790036471473 48.184430110733956,62.946236340969335 48.139430289680604,63.09206034998351 48.526428750366904,63.717018037357775 48.68842810601927,64.34197191194835 48.97642696055118,67.68541038095282 49.543424705276266,71.455761488789 49.58842452627141,72.9659460818657 48.9044272468891,77.35056281183643 48.958427032106556,77.66299864862958 48.670428177691065,79.26682094907301 48.436429108376615,79.79795137330075" stroke="#4DD2FF" stroke-linecap="round" stroke-linejoin="round" stroke-width="0.5"><title>2025-08-14 4.9km</title><desc>1755170321000</desc></polyline><polyline fill="none" points="75.23104902901105,58.090789228328504 75.03026996843982,58.07142857142753 75.08883052779129,59.823552089132136 74.60361446486786,63.11474672393524 74.42793278692989,63.463219499986735 74.42793278692989,64.37311462903017 73.93435092980508,67.84805968927685 73.77540084024076,68.79662991756777 73.64991392739466,68.8740638051022 73.72520607511979,69.35802417658124 73.14796627609758,73.33608530435595 73.19816104124766,75.02985655401426 73.90088775305776,81.13686185114784 74.3777380217798,81.2142857142826 73.55789019135409,73.54901820129453 74.92151464399649,63.88912893991801 75.11392791033722,63.49225884043699 75.03026996843982,63.153465984229115 75.42346229532268,60.40435940365569" stroke="#4DD2FF" stroke-linecap="round" stroke-linejoin="round" stroke-width="0.5"><title>2025-08-12 5.0km</title><desc>1754999139000</desc></polyline><polyline fill="none" points="100.62403518523206,58.148968453358975 100.73292723097256,58.071428571420256 100.74130354222143,59.709445179287286 100.22197224709089,63.04354593918106 100.04606971165049,63.37307282631082 99.87016717623919,65.6118871299841 99.3173306362878,68.85855912906845 98.75611778511666,73.53938729699439 98.80637565237703,74.9736323763209 99.39271743717836,79.8285858207164 100.00418815560988,81.2142857142826 99.18330965688801,73.5975327869819 100.42300371619058,64.65240171854384 100.7245509197819,63.411840620523435 100.64916411886225,63.140465730008145 101.00096918977215,60.52359681566304 101.24388221491245,59.53498321031657" stroke="#4DD2FF" stroke-linecap="round" stroke-linejoin="round" stroke-width="0.5"><title>2025-08-10 5.0km</title><desc>1754830447000</desc></polyline><polyline fill="none" points="125.3851946645882,81.2142857142826 126.63844551151851,73.75446659719455 126.71959124982823,72.00159128505038 126.05239295720821,67.37928248385288 125.73682619718602,64.00893512860785 125.23191938112723,63.11154844304838 125.30404892627848,62.92372232969501 125.76387477660319,63.01763542935805 125.56551852746634,60.951527382901986 125.1327412565588,60.44021139441611 125.15978983597597,59.27147956727276 124.69996398565127,58.07142857142753 125.17782222229289,59.313220218878996 125.14175744971726,60.45064644006925 125.56551852746634,60.961962376539304 125.7819071628619,62.98633107235946 125.3220813125372,62.965461495703494 125.26798415370286,63.08024411471706 125.7819071628619,64.18632459107175 126.19665204745252,68.28706610161316 126.6835264772526,71.27121773706313 126.72860744292848,72.93020157758292 125.68272903829347,80.33791548358568 125.39421085768845,80.64047271820164" stroke="#4DD2FF" stroke-linecap="round" stroke-linejoin="round" stroke-width="0.5"><title>2025-08-09 5.0km</title><desc>1754735080000</desc></polyline><polyline fill="none" points="152.12351385632064,58.07142857142753 152.17375065834494,59.69907134672394 151.8472114453034,62.25673957532854 151.42857142855064,64.01994060364814 151.33647062489763,65.61841885621834 150.77549300243845,68.89279368591815 150.8089842038171,69.39653368236759 150.23963378107874,73.23262023155257 150.22288818040397,74.55002850935125 150.94294900918612,80.67186357675382 151.503926631558,81.2142857142826 150.68339219878544,74.89875118459167 150.72525620047236,72.83545681383839 151.92256664828165,64.6012085227776 152.07327705432544,63.661490287442575 152.21561466000276,63.47742068257503 152.1486322573328,63.08021664044645 152.6342546767264,59.79595396912919" stroke="#4DD2FF" stroke-linecap="round" stroke-linejoin="round" stroke-width="0.5"><title>2025-08-07 5.0km</title><desc>1754570205000</desc></polyline><polyline fill="none" points="177.54394277438405,58.071428571420256 177.59569575911155,58.73016223349987 177.7682057081838,58.80002766584221 177.7078272260551,59.26912285298749 178.17360408848617,59.33898790197418 178.22535707318457,59.76815782689664 177.75095471329405,62.14352954868082 177.61294675403042,63.41103633534658 177.7078272260551,63.75036608581286 177.56119376930292,63.89008976002515 177.28517785083386,65.51685791298223 176.068982709985,74.35881987632456 176.81940098840278,81.2142857142826 176.06035721252556,74.19915267363103 176.59513805463212,70.15749020867952 176.79352449602447,69.6086096457002 177.267926855915,65.51685791298223 177.50944078463363,64.00985275118728 177.66469973875792,63.74038581574132 177.6043212566001,63.35115449302975 178.0787236164906,59.857983852984034" stroke="#4DD2FF" stroke-linecap="round" stroke-linejoin="round" stroke-width="0.5"><title>2025-08-05 5.0km</title><desc>1754406000000</desc></polyline><polyline fill="none" points="22.506701107078698,108.0 22.907205964205787,104.6821562450641 23.152970308379736,104.49256196544593 23.535270399355795,101.92247195833625 23.817444276006427,99.85792726554064 23.835649042215664,98.57283275952068 23.17117507464718,94.01167195524613 22.916308347368613,90.97780946830608 22.6887487694039,90.18772653213091 22.34285821096273,89.6926048210953 22.424779659020714,89.53458675561706 22.870796431787312,89.57672492998972 22.661441620031837,87.50139947836578 22.233629613532685,87.04840413118654 22.270039146009367,85.76315073516889 21.878636671986897,84.85714285714494 22.279141529113986,85.90010472494032 22.233629613532685,86.94305609211006 22.679646386299282,87.49086472533236 22.87989881489193,89.56619038800272 22.761567834357265,89.67153575959674 22.324653444753494,89.5872594708926 22.907205964205787,90.81979336310178 23.28040367201902,94.81225974179688 23.835649042215664,98.60443363521335 23.826546659111045,99.91059473321366 22.761567834357265,107.19951408460474 22.706953535671346,107.37857068138692 22.470291574602015,107.38910341272276 22.379267743381206,107.78934641108935 22.124401016102638,107.76828102864965" stroke="#4DD2FF" stroke-linecap="round" stroke-linejoin="round" stroke-width="0.5"><title>2025-08-03 5.0km</title><desc>1754221111000</desc></polyline><polyline fill="none" points="60.142857142855064,95.17645609483225 60.07170308553032,95.47148747282336 59.88788843745715,95.48864038060856 56.27682002853544,95.41659810933561 56.17898319973028,95.35484746874863 56.03667508509534,95.41316752115017 55.57713846491242,95.40973693262276 55.53859668385121,95.37200043579287 54.71736027231964,95.42002869716453 54.314153947503655,95.35827806285306 53.01262764906278,95.35484746874863 52.44932469527703,95.26565189961912 52.06687163718743,95.1661642560357 52.043153618084034,95.12842748696494 51.51246294059092,95.1112743961603 50.34731525198731,94.90543662680284 48.63368837158487,94.89171406422247 45.058196991318255,95.33769449298416 44.57494235203194,95.56068249816963 44.056110684075975,95.71848850422612 42.66267706158396,96.56582553282715 41.924453716914286,96.93974482774502 41.47084660149994,97.07010103976063 41.20401888656488,97.07353145959132 40.86603711430507,96.99120128735012 40.507302075318876,97.13870937026513 40.385747227381216,96.89857960362497 40.240474360383814,96.99463171519892 40.12188426485227,96.7716531799706 38.10288788842445,97.96542879292247 37.948720764237805,97.57779938461681 37.32612276269356,96.38744055706047 37.26682771493506,96.34627465958329 37.0,96.47663316274702 37.174920390883926,96.34284416586888 37.26089821016649,96.332552682612 37.2875809816469,96.24679020016265 37.394312067641295,96.25365120677088 37.53662018227624,96.15759698733018 37.57812671571446,96.20562413121297 37.684857801679755,96.13701390476126 37.64928077302466,96.20219362319767" stroke="#4DD2FF" stroke-linecap="round" stroke-linejoin="round" stroke-width="0.5"><title>2025-08-02 8.3km</title><desc>1754134728000</desc></polyline><polyline fill="none" points="74.90430940553779,84.85714285714494 74.77976005256642,84.8859668737714 74.70503044076031,85.6642120008255 75.32777720567537,85.6642120008255 75.32777720567537,86.28872506300831 73.25195465591969,100.02696915990236 73.2602579461236,101.47753441057284 74.1238001268357,108.0 73.30177439714316,101.66005429056531 73.24365136571578,100.24791762079258 74.47253831516718,91.46722063751076 74.77976005256642,90.2759035416384 74.6967271505855,90.0068943785518 75.08698178990744,87.17264419311687" stroke="#4DD2FF" stroke-linecap="round" stroke-linejoin="round" stroke-width="0.5"><title>2025-07-31 5.0km</title><desc>1753965181000</desc></polyline><polyline fill="none" points="99.54178928287001,108.0 99.64159755787114,107.16005956231675 99.89565498527372,106.85557946743211 100.82114989904221,100.48229014053504 100.92095817404334,98.13026856125362 100.44913723756326,95.27417035756662 99.95009586255765,90.5593354532466 99.46920144651085,89.63524458780739 99.56900972151197,89.49873046350694 99.96824282163288,89.55123591727897 99.79584671021439,87.46149824455642 99.33309925330104,86.95743458607467 99.38754013058497,85.7917779518175 99.02460094867274,84.85714285713766 99.39661361015169,85.81278089048283 99.3603196918848,86.9784372876311 99.79584671021439,87.52450602884346 100.00453673978336,89.53023373898759 99.88658150564879,89.63524458780739 99.52364232379477,89.48822936953366 99.48734840558609,89.64574566682859 100.03175717842532,90.85336263091449 100.34932896256214,94.38162347274192 100.97539905132726,98.88628133771999 100.32210852392018,104.32521017263207 99.84121410793159,107.33854747662554 99.6688179965713,107.4120424105713" stroke="#4DD2FF" stroke-linecap="round" stroke-linejoin="round" stroke-width="0.5"><title>2025-07-29 5.0km</title><desc>1753797916000</desc></polyline><polyline fill="none" points="126.70690922354697,84.85714285714494 126.69022647550446,86.62345616664243 126.30652327023563,89.32594848307053 126.00623380523757,90.2235449948057 125.8060408285528,92.69430449623906 125.24716876872117,95.64754991499649 125.31389976092032,96.168701343071 124.76336907508085,99.82633186773455 124.79673457122408,101.76607351550047 125.48072724146186,108.0 124.83844144133036,102.58635036097257 124.72166220500367,100.53081973113149 125.25551014277153,95.80196545090439 125.99789243121631,91.0825272638831 125.9228200649377,90.84124089403485 126.28149914817186,89.37420657575422 126.69022647550446,86.11190432445437" stroke="#4DD2FF" stroke-linecap="round" stroke-linejoin="round" stroke-width="0.5"><title>2025-07-27 5.0km</title><desc>1753616848000</desc></polyline><polyline fill="none" points="152.08957704540808,84.85714285713766 152.11421079511638,86.89044760265097 151.66259205070673,90.10183887286985 151.48194455291377,90.44387404841837 151.22739580608322,93.23711449569964 150.7675658117514,95.78326100193954 150.80041081132367,96.26778103237302 150.20098956875154,100.21985069661605 150.94821330951527,108.0 151.44088830344845,107.92400655423262 151.0878045577847,104.11475600297126 150.68545331276255,101.44533838593634 150.66903081297642,100.02035118131607 151.80218329894706,92.03052086371463 152.1799007943191,90.43437308822467 152.09778829533025,90.06383488723804 152.65615328840795,86.68141831262619" stroke="#4DD2FF" stroke-linecap="round" stroke-linejoin="round" stroke-width="0.5"><title>2025-07-26 5.2km</title><desc>1753529066000</desc></polyline><polyline fill="none" points="177.94163109970395,84.85714285714494 177.8417843550851,85.35779690679192 177.97491334791994,86.00286649382178 177.81682266894495,87.52405798226391 177.4673590628372,89.89244675555528 177.28430669769295,90.22940782809746 177.2593450115528,91.2402838571943 176.5188149890746,95.67838340926392 176.57705892337253,96.1019655612472 176.0279018280853,100.13552803792118 176.10278688650578,102.28219894858194 176.76011128851678,108.0 177.23438332538353,107.95187180051289 176.85995803313563,104.45769924796332 176.94316365363193,104.27480512706825 176.46889161676518,101.56022985208256 176.46057105468935,100.27029804535414 178.25781245762482,87.68772902908677" stroke="#4DD2FF" stroke-linecap="round" stroke-linejoin="round" stroke-width="0.5"><title>2025-07-24 5.0km</title><desc>1753356656000</desc></polyline><polyline fill="none" points="22.451231137034483,134.74396371394687 22.568494522827677,134.7857142857174 22.96538598247571,131.48736682972958 23.22697353543481,131.32035907799582 23.16383171232883,130.99678078621946 23.84035124577349,126.81104712450906 23.885452547983732,125.5479867528411 23.20893301453907,121.09061649821524 22.929304940684233,117.791829145659 22.38808931398671,116.65393170761672 22.46927165798843,116.48689982949145 22.911264419788495,116.57041580251826 22.676737648202106,114.47205638961896 22.28886644897284,114.05446730987751 22.324947490822524,112.92696830971545 21.828833166277036,111.64285714286234 22.279846188554075,112.676411294633 22.27082592813531,114.01270830849535 22.68575790867908,114.45117697596288 22.920284680265468,116.50777882912371 22.803021294472273,116.62261325115833 22.48731217882596,116.49733932984964 22.38808931398671,116.62261325115833 22.70379842951661,117.07151021395839 22.929304940684233,117.82314724545722 23.33521666075103,121.97793045134313 23.85839176661102,125.37053074529103 23.849371506192256,126.75885485484469 22.866163117578253,133.59581634018105" stroke="#4DD2FF" stroke-linecap="round" stroke-linejoin="round" stroke-width="0.5"><title>2025-07-22 5.0km</title><desc>1753184035000</desc></polyline><polyline fill="none" points="37.0,127.0312108512735 37.0,123.31757330457913 39.460488663986325,112.91920748539269 59.35835351096466,116.55041310942033 60.14285714295693,117.41694601581548 57.468412943184376,133.46810214867583 39.60312568792142,130.662290281296 38.96125908009708,129.83704780729022 41.17213295190595,113.78574814114836 41.956636583665386,113.29058227862697 46.699317631777376,114.07459461549297 60.10719788703136,117.04557499673683 57.753686991287395,133.13800764110056 57.004842614987865,133.50936394318705 39.24653312796727,130.49724192067515 39.460488663986325,125.21565896060201 41.20779220806435,113.86827572627226 41.778340303804725,113.3731099643046 50.55051727965474,114.85860543861054 41.600044023944065,113.45563763327664 40.60158485593274,117.99463359283982 41.49306625593454,118.86116341716843" stroke="#4DD2FF" stroke-linecap="round" stroke-linejoin="round" stroke-width="0.5"><title>2025-07-20 4.9km</title><desc>1753020627000</desc></polyline><polyline fill="none" points="75.61589770720457,111.64285714286234 75.44131113315234,112.82610797630332 74.79284671519417,114.4903300570295 74.2441460538248,116.99141805333784 74.09450041886885,118.96338316462788 73.57905434307759,122.26272564149258 73.46266329369973,122.36853355630592 73.52085881840321,122.8398582859736 72.98047180337016,126.73541165032657 72.95553086424479,128.0242755135041 73.69544539242634,134.77609665012278 73.61230892862659,133.4488535722121 73.70375903884997,134.7857142857174 74.1776368827559,134.6895378857298 73.37952682984178,127.15862261388975 74.65151472666184,117.86678324460081 74.91755141093745,117.0298958141866 74.95080599645735,115.90441484883922" stroke="#4DD2FF" stroke-linecap="round" stroke-linejoin="round" stroke-width="0.5"><title>2025-07-20 5.0km</title><desc>1752942252000</desc></polyline><polyline fill="none" points="100.99790198385017,111.65321306368423 100.85470528661972,111.64285714286234 100.63096044718986,112.78200212506636 100.88155466737226,112.93733909072762 100.8636550802039,113.268723826317 100.55041230499046,115.38127618930594 100.38036622706568,115.7437194983795 99.94182634179015,119.87548214082926 99.57488480507163,121.56334702261665 99.61068397940835,122.06038166178769 98.97524863539729,126.81315303618612 99.83442881878,134.7857142857174 99.03789719042834,128.138505114679 99.01999760325998,126.12976163939311 99.61068397940835,122.12251082131115 99.58383459865581,121.5737019356311 100.23716952977702,117.63875924469903 100.37141643342329,115.73336399315303 100.55041230499046,115.36056510415801 101.02475136460271,111.97424608716392" stroke="#4DD2FF" stroke-linecap="round" stroke-linejoin="round" stroke-width="0.5"><title>2025-07-17 5.0km</title><desc>1752765839000</desc></polyline><polyline fill="none" points="135.64382239384577,134.29736174631398 136.16505791503005,133.5735951740062 137.28571428568102,124.1343111692986 120.52799227798823,123.38036179888877 117.50482625479344,123.62162580588483 117.8696911195293,123.38036179888877 117.32239382225089,119.97248674745788 114.22104247100651,115.08679229274276 114.14285714284051,112.34232370223617 114.50772200769279,112.13120968226576 129.0762548262719,112.3724828356062 128.03378378378693,121.87245731143048 127.38223938213196,122.29467134026345 118.28667953656986,121.99308995238971 117.29633204627316,118.82646687456872 114.7422779921908,115.56933359685354 114.42953667941038,113.85027661922504 118.05212355195545,113.57884565973654 128.60714285704307,113.94075355058885 128.7635135134915,116.20266786761931 127.82528957526665,123.56130982254399 126.4179536679294,123.65178379291319" stroke="#4DD2FF" stroke-linecap="round" stroke-linejoin="round" stroke-width="0.5"><title>2025-07-15 4.1km</title><desc>1752589649000</desc></polyline><polyline fill="none" points="152.35861454851693,111.64285714286234 152.42913914530072,113.28516606029734 151.88257352029905,116.71250683069957 151.68863087909995,117.11031559211551 151.6798153045238,118.12013075413415 150.90404474001843,122.85286648230976 150.93930703843944,123.38324538023153 150.3486635403824,127.77916265837848 151.05390950816218,134.7857142857174 150.6483930766699,132.01170862078288 150.33984796580626,127.55478174957534 151.6621841553715,118.04873001574015 151.58284398395335,117.72232599357085 151.84731122187804,116.78390851931908 152.36743012315128,113.38717193916818 152.30572110094363,113.03015090965346 152.51729489129502,111.9488794747449 152.32335225015413,111.70406168387126" stroke="#4DD2FF" stroke-linecap="round" stroke-linejoin="round" stroke-width="0.5"><title>2025-07-13 5.0km</title><desc>1752418082000</desc></polyline><polyline fill="none" points="176.94187278259778,134.7857142857174 176.82310929702362,134.77514311904088 176.89619451895123,133.940017558627 177.2981632394367,131.4028861265324 177.53569021058502,131.1914557140044 177.94679458375322,128.31595943715365 178.16605024941964,125.34523457792238 177.56309716880787,121.21145132797392 177.25248497573193,117.75417138136254 177.0697719209711,117.07750375190517 176.68607450596755,116.46426990909094 176.76829538063612,116.30567436115234 177.20680671202717,116.36911260937632 177.0149580045254,114.36021595576312 176.57644667307613,113.81040589600889 176.6038536313572,112.55217578063457 176.29324143828126,111.68515120931261 176.10139273077948,111.68515120931261 176.2658344800584,111.64285714286234 176.57644667307613,112.41472114795761 176.5673110203934,113.82097919382795 176.96927974082064,114.19104393935413 177.0149580045254,114.40250891686446 177.20680671202717,116.33739349008829 176.75915972789517,116.31624740520056 176.6586675477447,116.4325508188922 177.06063626823016,117.0140659358949 177.24334932299098,117.65901526204834 177.61791108519537,121.77179474571312 178.18432155490154,125.27122967260948 178.1751859022188,126.62445390497305 177.06063626823016,134.2360121951424" stroke="#4DD2FF" stroke-linecap="round" stroke-linejoin="round" stroke-width="0.5"><title>2025-07-12 5.1km</title><desc>1752325602000</desc></polyline><polyline fill="none" points="22.71770608687075,161.57142857142753 22.49280807020841,161.56101910502912 22.996579627448227,158.0946079657515 23.20348580274731,157.9905097209121 23.77922472526552,154.1283900644703 23.86918393196538,152.18165999394841 23.338424612709787,148.6941098538009 22.933608182764146,144.45683688252757 22.39385294285603,143.36365446796117 22.465820308192633,143.24912992053578 22.9156163414591,143.32200919280876 22.708710166160017,141.20848923506855 22.303893736214377,140.7607922157331 22.28590189490933,139.3552190845803 21.836105861642864,138.4285714285652 22.3128896568669,139.46974798774318 22.303893736214377,140.75038063387183 22.71770608687075,141.21890077037824 22.942604103474878,143.29077522531588 22.51079991151346,143.2387185916814 22.41184478427749,143.40529972615332 22.9516000241274,144.54012649277138 23.34742053336231,148.6732883022778 23.878179852617905,152.10878702681657 23.788220645976253,154.076338939798 22.924612262111623,159.82262337634165" stroke="#4DD2FF" stroke-linecap="round" stroke-linejoin="round" stroke-width="0.5"><title>2025-07-10 5.0km</title><desc>1752149320000</desc></polyline><polyline fill="none" points="45.32589909626404,138.42857142857974 45.380104181414936,139.87118155200733 45.773091048933566,139.6673352875223 46.61326986935455,139.9495838897128 47.52120504603954,139.87118155200733 48.537550393200945,140.24751240978367 53.781892384344246,140.9374499322148 53.93095636856742,141.14129451900953 52.72489322331967,148.8401506428636 52.14218855765648,148.88718931663607 52.03377838723827,149.09102340386016 51.8305093178642,150.45513690507505 51.979573302087374,151.05095281251124 51.058086854056455,156.24072569217242 44.30955374916084,156.03690104607085 44.079182137094904,155.88011267366528 43.21190077427309,161.5714285714348 44.11983595095808,155.9741857162153 46.7487825822318,156.02122221596073 47.62961521639954,155.67628755142505 47.75157665804727,156.03690104607085 51.09874066791963,156.14665281206544 53.42955933063058,141.54898288485128 53.36180297419196,141.0158517282689 46.382898257288616,139.7927791744296" stroke="#4DD2FF" stroke-linecap="round" stroke-linejoin="round" stroke-width="0.5"><title>2025-07-08 5.1km</title><desc>1751976330000</desc></polyline><polyline fill="none" points="62.920415098720696,161.36070345182088 62.870748824148905,161.5714285714348 63.1853018970578,161.43733079527738 63.284634446376,160.3645451522898 63.86407431750558,159.88562101921707 63.979962291778065,159.3875386301952 65.65206020564074,147.79717296321178 65.80105902958894,144.29118642624235 65.40372883231612,141.7047611134185 66.31427720125066,141.6664434345439 66.54605314967921,142.01130226381065 69.74125015345635,142.47111305451836 72.3073410114157,142.43279553150933 74.17810402391478,143.1799858258746 80.13805698417127,144.06128339124552 81.23071502702078,138.4285714285652 85.70067974732956,139.42484566295752 81.71082234877395,138.4860489314451 80.96582822874188,141.80055527645163 80.8499402544694,144.09960058322758 69.69158387876814,142.60522432389553 66.54605314967921,142.03046106916736 66.26461092662066,141.6089669016219 65.35406255762791,141.7622376170766 65.7182819051668,143.29493791591085 65.78450360480929,146.60935969238926 63.91374059213558,159.4450097422814" stroke="#4DD2FF" stroke-linecap="round" stroke-linejoin="round" stroke-width="0.5"><title>2025-07-06 5.0km</title><desc>1751807521000</desc></polyline><polyline fill="none" points="91.95108689670451,160.13694178627338 92.95378275332041,153.00655156325956 89.7086943447357,152.77449332852848 88.68776765442453,153.13312867288187 90.01861851860303,153.00655156325956 89.83631018106826,152.79558954239474 93.19078359217383,152.98545537084283 93.42778443102725,152.77449332852848 93.31839942850638,152.12050963495858 94.68571196007542,143.4919512027118 94.55809612385929,139.18808626956888 96.90987367846537,138.95601258525858 111.31223234557547,141.3189325137355 111.2940015118802,140.62271783026517 95.4514069778379,138.42857142857974 95.70663865050301,143.6396312588622 94.0476327786455,155.3693115497008 94.50340362254065,156.08657265316288 94.08409444615245,156.86711868521525 94.17524861497805,158.5547757489985 93.5371694334317,158.70244508933683 93.24547609337606,161.5714285714348 91.76877855916973,161.4026659347146 91.85993272799533,160.15803725198202" stroke="#4DD2FF" stroke-linecap="round" stroke-linejoin="round" stroke-width="0.5"><title>2025-07-05 4.8km</title><desc>1751729502000</desc></polyline><polyline fill="none" points="129.43914099107496,161.5714285714348 129.6681773996679,161.40404397679958 129.70434104307787,160.45552741840947 130.0177592864493,159.07458718244743 130.18652295594802,159.01879132536124 130.40350481675705,156.99617619295896 125.69017661869293,156.8008876369131 125.99154031422222,155.75469421241723 126.43755858356599,151.03975022627856 126.48577677487629,147.5941117977345 126.31701310537755,147.13375679240562 126.4978313226602,144.31579249413335 126.48577677487629,138.42857142857974 120.1571391687612,140.70257538260194 120.02453914267244,141.02344407206692 120.07275733404094,140.74442786291183 123.48419436736731,139.44699503706943 123.54446710651973,142.32086199168407 123.88199444545899,143.04629462100274 126.40139494009782,143.04629462100274 126.41344948793994,146.72920111895655 126.67864954000106,146.85475300731196 126.77508592256345,147.30115879121877 131.18705042509828,147.58016166875314 131.4040322859655,148.68221748966607 131.37992319022305,150.69100533235178 129.8610501648509,161.05532541572757" stroke="#4DD2FF" stroke-linecap="round" stroke-linejoin="round" stroke-width="0.5"><title>2025-07-03 5.2km</title><desc>1751545471000</desc></polyline><polyline fill="none" points="151.02302551834146,161.57142857142753 151.57276553002885,158.1821971265672 151.79806881351396,158.02576835751097 152.37484521925217,153.7499563260135 152.4199058759259,152.2690237863426 151.43758355994942,144.40512244642014 150.95994059898658,143.41426983246492 151.05907404364552,143.2786787302466 151.46461995394202,143.35168934601097 151.27536519581918,141.32823304192425 150.8337707602186,140.76499583452824 150.84278289153008,139.48205509343825 150.41921271861065,138.42857142857247 150.87883141689235,139.5759293503652 150.8337707602186,140.78585652699985 151.2393166704569,141.18220887774805 151.30240158981178,141.50554781896062 151.46461995394202,143.34125926121487 151.02302551834146,143.30996900050377 150.95994059898658,143.44556006135826 151.44659569126088,144.40512244642014 151.91522652091226,148.86905553401448 152.43793013854884,152.23773624861497 152.28472390578827,154.57384616120544 151.29338945850031,161.21686806265643" stroke="#4DD2FF" stroke-linecap="round" stroke-linejoin="round" stroke-width="0.5"><title>2025-07-01 5.0km</title><desc>1751376396000</desc></polyline><polyline fill="none" points="176.32955284317723,161.57142857142753 176.496670165041,161.36515991448687 176.46324670064496,160.6045413438187 176.73063441563863,160.34670350528177 176.92003404704155,159.34113092808548 177.20970407157438,155.79577940538002 177.61078564397758,154.41628858132754 178.0564318355755,150.79344217989274 177.94502028770512,148.71767216829903 177.32111561944475,145.01730223631603 176.8977517375024,140.5302976946914 176.22928245010553,138.86697119369637 176.81976365391165,138.98301793666906 176.842045963509,138.42857142857247 176.842045963509,138.9572297807099 176.32955284317723,138.8540771045955 176.2404236049042,138.98301793666906 176.66378748684656,139.61482611847168 176.92003404704155,140.50450985343195 177.38796254823683,145.5072528883902 178.0564318355755,149.95540247535973 178.0007260616403,152.0311522312768 176.5969405581127,161.13310727464705" stroke="#4DD2FF" stroke-linecap="round" stroke-linejoin="round" stroke-width="0.5"><title>2025-06-30 4.1km</title><desc>1751292736000</desc></polyline><polyline fill="none" points="11.545545047265477,178.2123458062415 11.285714285739232,176.33439416607143 11.37531110009877,176.13725911177607 18.3459432554082,175.8052413153273 19.45694375311723,175.90899699305737 21.26679940271424,175.73261227803596 23.98158287705155,175.76373901465558 34.428571428579744,175.09969990236277 31.310602289740928,175.31758821354742 30.5848680936615,175.55622725736612 29.240915878559463,175.49397364768083 22.440517670474946,175.84674359912606 16.114982578379568,175.9608747922466 15.926829268282745,176.12688357204752 16.365853658528067,178.47172866906476 16.159780985559337,178.45097806436388 15.908909905410837,177.22668490038632" stroke="#4DD2FF" stroke-linecap="round" stroke-linejoin="round" stroke-width="0.5"><title>2025-06-26 5.0km</title><desc>1750950176000</desc></polyline><polyline fill="none" points="60.142857142869616,177.73288817815046 59.76918345381273,175.83854039327707 49.81285560509423,176.7520631088919 48.74996155622648,176.76167909042124 44.91357834843802,176.28087881275133 37.0,176.61743926439522 44.64785483625019,176.27126278219657 48.758265415992355,176.77129507100472 55.841457788745174,176.1270222063904" stroke="#4DD2FF" stroke-linecap="round" stroke-linejoin="round" stroke-width="0.5"><title>2025-06-24 5.0km</title><desc>1750769966000</desc></polyline><polyline fill="none" points="85.85714285715949,177.71250698604126 85.5403458213259,175.85892158539355 75.68629065461573,176.7953729097935 74.48579662412521,176.83398926050722 70.6008645533293,176.3319754734257 62.71428571428987,176.67952376323228 70.39244545079418,176.3319754734257 74.47745986000518,176.83398926050722 82.82256072456948,176.0906217441152" stroke="#4DD2FF" stroke-linecap="round" stroke-linejoin="round" stroke-width="0.5"><title>2025-06-22 5.0km</title><desc>1750563938000</desc></polyline><polyline fill="none" points="100.79087766489829,188.3571428571413 99.59477999503724,181.2112700544676 99.5780122706783,179.26284454472625 99.68420785819762,178.44720680742103 99.61713696082006,176.34980450076182 99.63949392660288,175.9872834972084 99.76245723845204,175.7801277084218 99.63949392660288,175.68302319967188 99.6339046851499,174.35591335728168 98.27571901332703,166.1854843244364 97.93477528495714,165.21428571428623 98.28130825472181,166.0624666561598 99.61713696082006,174.21996395281894 99.6897970996506,178.1947453838511 99.59477999503724,179.26931781817984 99.58919075358426,181.1465392702812 100.5058263510582,186.6354752995212 100.63437890436035,187.01088047544545 102.06522471504286,186.93321062113318" stroke="#4DD2FF" stroke-linecap="round" stroke-linejoin="round" stroke-width="0.5"><title>2025-06-21 8.0km</title><desc>1750517001000</desc></polyline><polyline fill="none" points="128.06219539995072,188.35714285714494 126.10180478869006,176.30212530343852 122.6521251858212,176.23172856836754 116.43662317009876,175.63335516126244 116.55819778161822,174.9997810578643 116.31504855852108,173.78542419358564 116.64937874034513,165.84789573436137 116.60378826089436,165.2846869424975 116.2998517320957,165.21428571428987 115.91993107093731,174.98218174405338 116.49741047585849,175.05257898860145 116.52780412870925,175.65095440877485 126.14739526802441,176.2845261223847 127.31755090417573,183.81681169383228 127.68227473885054,184.81991838836984 135.50864035764243,184.57354184542783" stroke="#4DD2FF" stroke-linecap="round" stroke-linejoin="round" stroke-width="0.5"><title>2025-06-19 5.0km</title><desc>1750345525000</desc></polyline><polyline fill="none" points="162.9999999999709,177.36508127365596 162.78757763977046,176.1027745243191 156.23602484472212,176.72422098223615 155.39192546581035,176.74364108604277 152.5857142856985,176.41997191361224 142.18819875773625,176.89252835151638 141.28819875774207,177.04141526796957 139.85714285713038,177.46865404710843 141.87515527947107,176.92489510217274 145.5310559006175,176.7630611839486" stroke="#4DD2FF" stroke-linecap="round" stroke-linejoin="round" stroke-width="0.5"><title>2025-06-17 5.1km</title><desc>1750166247000</desc></polyline><polyline fill="none" points="166.36945812799968,185.5189615162526 165.57142857147846,180.3900511385582 183.60689655179158,179.85867090658576 180.67413793120068,168.2835141261312 184.2253694582032,168.49145628869883 188.71428571431898,168.05246705516765 181.6317733990727,168.46835161338095 184.24532019719481,178.88832118167193 176.5044334975537,179.25797870957467" stroke="#4DD2FF" stroke-linecap="round" stroke-linejoin="round" stroke-width="0.5"><title>2025-06-16 3.2km</title><desc>1750084948000</desc></polyline><polyline fill="none" points="34.428571428579744,204.6412566519066 34.07396313367644,202.5016004909412 22.69850230414886,203.549821277913 21.672004608321004,203.56062762383226 17.1740783409914,203.00950257877412 11.285714285739232,203.29046864595875 16.987442396290135,202.998696176699 21.66267281107139,203.53901493093144 31.31175115215592,202.72853576703346" stroke="#4DD2FF" stroke-linecap="round" stroke-linejoin="round" stroke-width="0.5"><title>2025-06-15 4.6km</title><desc>1749956754000</desc></polyline><polyline fill="none" points="60.14285714284051,204.5021747841456 59.86113242289866,202.64068235871673 49.95105109715951,203.55224252660992 48.91529845021432,203.57143317213195 44.55685131193604,203.08207048955956 37.0,203.42750323543441 44.70599969307659,203.08207048955956 48.84901028079912,203.57143317213195 51.01166180759901,203.46588457340113 51.41767684512888,203.3315498220618 56.67101427036687,202.86137668279844" stroke="#4DD2FF" stroke-linecap="round" stroke-linejoin="round" stroke-width="0.5"><title>2025-06-14 5.1km</title><desc>1749906363000</desc></polyline><polyline fill="none" points="85.85714285715949,204.9455381847729 85.57890482927905,203.0691766133241 75.98787633868051,203.9978855580339 74.69488785616704,204.0073621321353 70.76682158015319,203.5335322451865 63.36896342696855,203.8841665938089 63.27076177010895,203.6662048569342 63.311679127131356,202.2067957156687 62.71428571428987,202.19731895808218 63.33622954133898,202.2257492279532 63.27076177010895,203.65672824807552 63.39351384120528,203.8841665938089 70.97140836535254,203.52405562283093 74.87492422715877,204.0168387052545 82.64922206511255,203.3155696863978 82.64103859369061,202.93650314967817 85.13699737322167,202.8038294967555" stroke="#4DD2FF" stroke-linecap="round" stroke-linejoin="round" stroke-width="0.5"><title>2025-06-12 5.9km</title><desc>1749735885000</desc></polyline><polyline fill="none" points="111.57142857147846,210.85196100638132 110.83367983374046,207.13751419649634 90.56162756163394,208.93903035500261 88.6531036531087,203.7201562577393 88.42857142857974,197.20099678327097 92.21354321355466,197.0338357807923 95.43718443711987,197.23814365186263 95.613602613681,196.64379284529423 95.27680427680025,196.51377834791492 88.52479952474823,196.29089613647375 88.66914166911738,203.53442844651 89.23047223046888,205.6517142720113 90.33709533710498,208.28900080521998 99.31838431837969,207.50896228465717 99.49480249476619,208.21471156615007 110.78556578565622,207.11894177217619 111.47520047525177,210.7962448635226" stroke="#4DD2FF" stroke-linecap="round" stroke-linejoin="round" stroke-width="0.5"><title>2025-06-10 5.3km</title><desc>1749559786000</desc></polyline><polyline fill="none" points="114.75050905585522,197.40973982203286 114.19494159263559,195.15800728560134 114.14285714284051,193.40887588124315 129.8897224306711,193.00677451524825 130.6015432429267,195.6405235643324 130.08069874614011,195.62041874298302 129.92444539710414,195.98230521428923 130.2543135783635,197.85204140722635 130.1675061622518,199.1186268242309 130.74043510883348,201.65177326272533 132.21616118319798,201.5914606302831 134.4037080698763,210.01494642230682 134.43843103636755,210.3969098081434 133.8828635730897,210.55773627573217 134.3863465866889,210.41701312379155 134.55996141891228,210.73866589499812 134.10856285499176,210.8190790059598 134.26481620402774,211.56289872800699 135.30650519771734,214.21650299915927 136.035687493335,214.13609127281234 137.28571428568102,213.45259027607972 135.9662415604107,213.73403214973223 133.62244132458,204.38592656915716 133.34465759299928,203.58176776539767 132.71964419679716,203.58176776539767 132.25088414963102,201.53114797935996 131.74740113603184,201.7321900773095 130.72307362558786,201.5914606302831 130.1501446790644,199.2794624857488 130.02861429646146,196.3039815203956 129.07373271888355,192.92635414371034 114.19494159263559,193.44908597276662 114.8199549887795,197.53036762539705" stroke="#4DD2FF" stroke-linecap="round" stroke-linejoin="round" stroke-width="0.5"><title>2025-06-08 5.0km</title><desc>1749355299000</desc></polyline><polyline fill="none" points="162.9999999999709,204.5237524949116 162.59296482408536,202.61910464794346 155.13342221305356,203.24437206782022 152.89057532558218,203.56181394181476 151.6445492769999,203.56181394181476 147.69880012303474,203.08084098878317 139.85714285713038,203.427141762033 147.32499230845133,203.08084098878317 151.60301507537952,203.57143337585876 160.59932314633625,202.76339749710314" stroke="#4DD2FF" stroke-linecap="round" stroke-linejoin="round" stroke-width="0.5"><title>2025-06-07 5.3km</title><desc>1749293029000</desc></polyline><polyline fill="none" points="188.71428571428987,204.48823663841904 188.37260147131747,202.6546205044433 177.81372498584096,203.61968605366565 173.5301713050867,203.12750385257823 165.57142857142026,203.45562560422695 173.49683625699254,203.1082025376527 177.30536550236866,203.61968605366565 185.46411852462916,202.8765864517336" stroke="#4DD2FF" stroke-linecap="round" stroke-linejoin="round" stroke-width="0.5"><title>2025-06-05 5.1km</title><desc>1749128617000</desc></polyline><polyline fill="none" points="11.609673790750094,230.21065765832464 11.285714285739232,228.08871844501118 11.407199100125581,227.9949301731467 20.488188976421952,227.67839419107622 22.199100112484302,233.9503336979251 31.16872890893137,233.83310431985592 34.428571428579744,233.6338141029555 31.745781777310185,233.72759777741885 31.249718785169534,226.7639520163575 22.664791901013814,227.2680684734005 20.822272216028068,227.2094503942135 20.984251968504395,227.67839419107622 16.226096737897024,227.81907695732662" stroke="#4DD2FF" stroke-linecap="round" stroke-linejoin="round" stroke-width="0.5"><title>2025-06-03 5.2km</title><desc>1748952979000</desc></polyline><polyline fill="none" points="56.13839188971906,223.45802252119756 55.630714520579204,222.70660457400663 55.27084195514908,221.91797940817196 55.039495305944,221.70222198373813 54.46755497867707,221.65014250997774 54.03056686348282,221.14422569030285 53.831351693341276,220.48206455999025 53.53574208598002,220.02822031930555 53.182295816310216,218.7857142857174 52.160514782270184,219.2246858971048 51.684968892193865,219.27676709970547 50.45112009631703,219.73805613067816 49.924163839779794,220.41510411159106 49.924163839779794,220.5862251355211 47.79063363026944,223.3017877427119 47.777781038632384,223.45802252119756 47.192988119786605,224.26151039147226 46.68531075064675,224.73020756932237 46.59534260930377,224.64837177077425 46.23547004381544,224.9608352358773 45.99769709876273,224.81948288143758 45.99127080300241,224.95339564509777 45.95913932390977,224.75996601882798 46.293306706123985,224.9980331784609 46.24189633963397,225.26585780603637 45.470740842225496,226.12140212403028 44.15335020082421,226.41898040869273 44.15335020082421,226.28507033056667 44.063382059452124,226.44873817051848 43.7035094939929,226.5305719530661 43.38862099920516,226.44129873119527 42.86166474266793,226.48593535575492 42.77169660126674,226.4041015232433 42.559628839517245,226.52313252208842 41.923425554152345,226.29994924024504 41.83988370856969,225.3253742566303 41.59568446772755,225.1096268925612 40.393967150943354,225.4146488416809 39.94412644414115,225.6899114590051 40.45823010907043,227.91429294758564 41.26794338133186,230.39897349442617 42.977338067255914,237.07892339171667 43.21511101227952,237.77068733500346 45.23296789720189,241.85419275234744 45.490019729651976,241.92857142857247 46.376848551706644,241.64593205646088 46.98092035800801,241.8244412606873 48.0862432376307,241.59386678982992 48.06696435014601,241.15502949798974 48.362573957507266,241.07321208453504 48.89595650989213,241.31866405032633 49.30081314602285,241.12527772188332 49.467896837129956,241.3707295129061 50.50895675862557,241.60130468731222 51.11945486077457,241.48973614533315 51.73637925868388,241.0285843658712 51.845626287482446,240.15833840822597 52.30831958595081,239.51866383511515 52.18621996551519,238.87898366599256 52.33402476919582,238.56657968906075 52.01913627440808,238.21698317991104 51.81992110426654,237.69630442932976 51.74280555447331,236.92271772451932 52.160514782270184,236.5879901710141 52.79671806760598,236.84833395617898 53.15016433727578,236.82601881090523 53.240132478647865,236.34252232445579 53.09232767496724,235.74744533638295 52.97022805453162,235.6953758694799 53.09232767496724,235.63586786190717 52.950949167105136,235.5912368244244 53.066622491693124,235.65818337041856 53.079475083359284,235.30857295439637 52.912391392252175,234.92176799276785 52.15408848642255,234.86969793780008 51.80064221681096,234.60190849786886 51.94844702046248,233.5902506499915 52.552518826763844,232.55626235339878 53.01521212520311,232.0429821554426 53.22727988701081,231.9685934219524 53.68354688966065,231.33628613072506 54.486833866132656,230.5700711422396 55.20015270123258,229.6773833559928 54.99451123524341,229.26079199129163 54.35830794987851,229.25335283821187 54.274766104324954,229.0078603614529 54.51896534516709,228.4201629007439 54.80172236089129,228.15234983227128 55.06520048918901,228.18954615046096 55.17444751795847,228.05563931639335 54.94952716457192,227.54232751292875 55.251563067693496,226.90998192939878 55.5343200834468,226.74631512233464 55.77209302847041,226.84302737079997 55.73996154940687,226.66448158139247 56.4532803845068,226.33714650120965 56.51754334263387,226.13628106705437 57.140894036361715,225.75686707400018 57.19873069867026,225.21378087199264 56.382591130561195,223.65889531703579 56.25406521433615,223.59937750916288" stroke="#4DD2FF" stroke-linecap="round" stroke-linejoin="round" stroke-width="0.5"><title>2025-06-02 11.5km</title><desc>1748829019000</desc></polyline><polyline fill="none" points="85.85714285715949,231.43939732505532 85.43321041989839,229.27488838923455 73.20661353634205,230.41293450532976 68.13869394548237,229.83275561073242 62.71428571426077,230.06705899599183 68.20613774232334,229.81044097645645 72.64779350539902,230.3906199893172 85.41394076362485,229.28604576154612 85.84750802902272,231.37245439105027" stroke="#4DD2FF" stroke-linecap="round" stroke-linejoin="round" stroke-width="0.5"><title>2025-06-01 4.9km</title><desc>1748740054000</desc></polyline><polyline fill="none" points="111.57142857142026,241.50956572096038 111.48762824380537,241.68747409257048 111.3200275885174,241.55808620575408 110.76135873777093,238.4527452729526 93.10742305370513,239.98924968359643 91.47331666521495,235.41204005970212 91.40348305890802,229.65394926724548 91.0124148633331,227.4865238818893 88.42857142857974,219.02681162170484 90.13251142337685,224.68823686940596 90.59341322531691,225.56169591755315 91.34761617385084,228.8128623347875 92.10181912232656,229.0231344858912 91.31968273129314,229.00695971495588 91.47331666521495,234.8782932394388 92.00405207340373,237.06179160802276 92.92585567716742,239.34230227131047 93.16328993876232,239.48786566904164 100.7332528666011,238.7115260049759 100.94275368563831,239.3261285522458 106.9624105526018,238.74387356682564" stroke="#4DD2FF" stroke-linecap="round" stroke-linejoin="round" stroke-width="0.5"><title>2025-05-31 5.5km</title><desc>1748696141000</desc></polyline><polyline fill="none" points="135.66270871984307,236.74401102033153 135.13673469389323,233.3505366860336 116.09647495363606,235.05598349950742 114.33821892394917,230.044009640711 114.14285714284051,224.00508181353507 120.60482374759158,224.07469603148638 114.2330241187592,223.97027469395834 114.35324675322045,229.95699490637344 114.81910946196876,231.81910054165928 115.99128014838789,234.4991047803196 132.8525046381983,232.88066569334478 134.355287569575,232.79365240460902 134.43042671616422,233.4375496909488 137.28571428568102,233.21131578597124" stroke="#4DD2FF" stroke-linecap="round" stroke-linejoin="round" stroke-width="0.5"><title>2025-05-29 5.0km</title><desc>1748526381000</desc></polyline><polyline fill="none" points="153.88589540403336,228.08510624300106 153.37242472264916,223.88039108923113 162.0647498301696,223.45566766848788 163.0,226.87466663842497 161.99139687570278,223.54061242185708 153.33574824547395,223.94409952762362 153.57414534746204,226.04646706802305 153.2440570523031,223.96533566943253 140.88408422004431,225.11208411339612 142.7362463210011,234.392019889754 143.4514376273146,236.5579866025073 142.9746434231056,236.85527439434372 143.7265112065943,238.85133858454356 142.7179080824135,236.21822860682732 140.22390762949362,225.15455615684914 144.55173194478266,224.53871068033914 152.38215983693954,224.05028021507314 152.2904686438851,223.43443147469952 140.79239302698988,224.22016920243914 140.1505546750268,221.8629471297172 139.8571428571595,222.1177832340909 140.00384876609314,224.3900580512418 148.67783563502599,223.54061242185708" stroke="#4DD2FF" stroke-linecap="round" stroke-linejoin="round" stroke-width="0.5"><title>2025-05-27 6.0km</title><desc>1748352132000</desc></polyline><polyline fill="none" points="185.63032866903814,232.0817487099339 185.72258379435516,232.02070209643716 185.42604946307256,230.54030648025946 177.63049137650523,231.2881388520109 176.72770907910308,231.30340065937344 173.47901073872345,230.9218545420008 165.71640091118752,231.26524613513902 165.57142857142026,228.7317422153501 166.49397982427035,228.63253700435598 167.7657826228533,228.72411104994535 167.77237227465957,230.9218545420008 173.67011064107646,230.68529497276904 177.25488122354727,231.03631858136214 185.41287015946,230.22743561870448 188.575903026358,230.11297034267773 188.71428571428987,230.3647937189089 188.62203058900195,230.3953177069634 185.70281483893632,230.51741353470425" stroke="#4DD2FF" stroke-linecap="round" stroke-linejoin="round" stroke-width="0.5"><title>2025-05-25 7.6km</title><desc>1748179850000</desc></polyline><polyline fill="none" points="34.41340572925401,258.42050528281106 34.35274293203838,257.91998929953115 34.05701179552125,257.91998929953115 33.86744055416784,256.9804163559602 33.71578356108512,256.7696696159255 26.39833364536753,257.3931272285772 25.20024340011878,257.6126534830182 20.39271671968163,257.16481933060277 11.414622729847906,257.5687482768917 11.285714285710128,256.04083316576725 13.51507208388648,255.86520900289906 13.499906384560745,257.14725715955865 13.795637521048775,257.18238149808167 20.096985583222704,256.9101674999183 24.661861074680928,257.3053165701858 34.14042314174003,256.392080417485 34.42857142855064,258.323914705441" stroke="#4DD2FF" stroke-linecap="round" stroke-linejoin="round" stroke-width="0.5"><title>2025-05-24 6.6km</title><desc>1748094255000</desc></polyline><polyline fill="none" points="60.14285714284051,258.1740318992306 59.89110164617887,256.1116823864795 50.361689881421626,256.92151028068474 49.037642454204615,257.148260981754 47.52710947394371,257.1698562612728 43.17267180845374,256.6407706450409 37.0,256.8891172837539 43.14469897549134,256.62997295189416 47.47116380796069,257.1806538994133 57.345573845959734,256.34923254371097" stroke="#4DD2FF" stroke-linecap="round" stroke-linejoin="round" stroke-width="0.5"><title>2025-05-18 4.7km</title><desc>1747565909000</desc></polyline><polyline fill="none" points="82.84916772317956,257.9714787784542 82.59739887941396,256.49070296156424 75.88577154307859,257.0584650079036 74.76606273773359,257.25794795355614 73.86499529672437,257.25027554233384 70.79739069976495,256.8513090817505 62.760664185509086,257.2195858896812 62.71428571428987,256.98941309584916 67.23949940697639,256.6978598800415 70.30710400393582,256.6441525855553 73.89149728027405,257.2195858896812 82.68353032594314,256.4369955192524 85.64512698864564,256.3142355072632 85.76438591469196,256.3295805197122 85.78426240236149,256.4369955192524 85.85714285713038,256.3909605382287" stroke="#4DD2FF" stroke-linecap="round" stroke-linejoin="round" stroke-width="0.5"><title>2025-05-17 5.7km</title><desc>1747487200000</desc></polyline><polyline fill="none" points="110.30674112489214,256.18610677938705 107.24195110832807,256.3464575516846 105.74648128100671,256.6137082940477 98.87839762947988,257.13751777379366 94.57661405211547,256.5816382409248 88.42857142857974,256.82750839765504 94.49353239504853,256.60301827744115 98.712234315346,257.1268278105417 110.97139438142767,256.057825985059 111.3775713716168,258.13167959245766 111.57142857147846,258.2278883006511" stroke="#4DD2FF" stroke-linecap="round" stroke-linejoin="round" stroke-width="0.5"><title>2025-05-11 5.0km</title><desc>1746965499000</desc></polyline><polyline fill="none" points="137.28571428571013,257.97434238900314 136.9121746259043,256.31137189672154 126.41155974581488,257.26301755900204 122.14490674316767,256.77277705336746 114.14285714286962,257.10921689034876 121.94568559128675,256.7823896367772 125.93010862878873,257.26301755900204 136.97858167657978,256.3305971566442" stroke="#4DD2FF" stroke-linecap="round" stroke-linejoin="round" stroke-width="0.5"><title>2025-05-10 5.3km</title><desc>1746870058000</desc></polyline><polyline fill="none" points="162.94946974419872,256.75275763992977 162.8905177791312,256.5869641833269 162.9999999999709,256.71374744067725 162.5536494073458,256.79176782324066 152.23705552090541,257.6987501023832 147.86618839672883,257.1818687818595 139.85714285713038,257.5134533462551 147.82407985028112,257.1818687818595 149.87055520893773,257.3476612076993 151.73175296318368,257.6889976504608 160.17872738614096,256.92830333968595" stroke="#4DD2FF" stroke-linecap="round" stroke-linejoin="round" stroke-width="0.5"><title>2025-05-05 5.4km</title><desc>1746434825000</desc></polyline></svg>