<?xml version="1.0" encoding="utf-8" ?>
<svg baseProfile="full" height="300mm" version="1.1" viewBox="0,0,200,300" width="200mm" xmlns="http://www.w3.org/2000/svg" xmlns:ev="http://www.w3.org/2001/xml-events" xmlns:xlink="http://www.w3.org/1999/xlink"><defs /><rect fill="#222222" height="300" width="200" x="0" y="0" /><text fill="#FFFFFF" style="font-size:12px; font-family:Arial; font-weight:bold;" x="10" y="20">Over 3km Runs</text><text fill="#FFFFFF" style="font-size:4px; font-family:Arial" x="10" y="280">Runner</text><text fill="#FFFFFF" style="font-size:9px; font-family:Arial" x="10" y="290">tang-hi</text><text fill="#FFFFFF" style="font-size:4px; font-family:Arial" x="65" y="280">SPECIAL TRACKS</text><rect fill="yellow" height="2.6" width="2.6" x="65" y="283" /><text fill="#FFFFFF" style="font-size:3px; font-family:Arial" x="70" y="285.5">Over 20.0 km</text><rect fill="red" height="2.6" width="2.6" x="65" y="287" /><text fill="#FFFFFF" style="font-size:3px; font-family:Arial" x="70" y="289.5">Over 40.0 km</text><text fill="#FFFFFF" style="font-size:4px; font-family:Arial" x="120" y="280">STATISTICS</text><text fill="#FFFFFF" style="font-size:3px; font-family:Arial" x="120" y="285">Number: 53</text><text fill="#FFFFFF" style="font-size:3px; font-family:Arial" x="120" y="290">Weekly: 3.5</text><text fill="#FFFFFF" style="font-size:3px; font-family:Arial" x="141" y="285">Total: 283.3 km</text><text fill="#FFFFFF" style="font-size:3px; font-family:Arial" x="141" y="290">Avg: 5.3 km</text><text fill="#FFFFFF" style="font-size:3px; font-family:Arial" x="167" y="285">Min: 3.2 km</text><text fill="#FFFFFF" style="font-size:3px; font-family:Arial" x="167" y="290">Max: 11.5 km</text><polyline fill="none" points="24.31368047450087,31.353411051597504 24.105465152446413,31.33333333333576 24.16619462138624,33.150350314652314 23.663007593160728,36.56344104704476 23.480819186399458,36.92482022220793 23.480819186399458,37.868415170843946 22.968956519762287,41.472061899992696 22.80411938985344,42.45576435895782 22.673984813591233,42.53606616824982 22.752065559354378,43.03795099793933 22.1534465085424,47.16334772303526 22.205500339041464,48.91985124119674 22.934253966115648,55.25304191970645 23.428765355900396,55.33333333333576 22.578552791004768,47.38416702356335 23.992681853007525,37.36650408583955 24.19222153662122,36.95493509378866 24.105465152446413,36.603594354011875 24.51322015808546,33.75266901119903" stroke="#4DD2FF" stroke-linecap="round" stroke-linejoin="round" stroke-width="0.5"><title>2025-08-12 5.0km</title><desc>1754999139000</desc></polyline><polyline fill="none" points="54.64714759949129,31.41374506275315 54.7600726839737,31.33333333333576 54.768759228958515,33.03201722297672 54.23019344144268,36.48960319619073 54.0477759972855,36.83133478285163 53.86535855312832,39.153068134808564 53.292046585760545,42.519987244966615 52.710048073437065,47.374179419115535 52.76216734322952,48.86154468655877 53.370225490420125,53.89631122149149 54.00434327250696,55.33333333333576 53.15306186641101,47.4344784457644 54.43867052049609,38.15804622664291 54.7513861390471,36.871538421291916 54.67320723438752,36.59011260890111 55.038042122730985,33.87632262365514 55.289951926562935,32.85109369959537" stroke="#4DD2FF" stroke-linecap="round" stroke-linejoin="round" stroke-width="0.5"><title>2025-08-10 5.0km</title><desc>1754830447000</desc></polyline><polyline fill="none" points="84.3253870595363,55.33333333333576 85.62505460449029,47.597224619319604 85.70920574053889,45.779427999317704 85.0172964000376,40.985922575848235 84.69004198221955,37.49074754078174 84.16643491375726,36.56012431131967 84.2412359235459,36.365341675242234 84.71809236088302,36.462733037857106 84.51238958403701,34.32010247116705 84.06358352530515,33.789848853470176 84.0916339039104,32.57783066236152 83.61477746657329,31.33333333333576 84.11033415643033,32.62111726402509 84.0729336515069,33.80067038229754 84.51238958403701,34.33092394605046 84.73679261334473,36.43026926022867 84.2599361759494,36.408626736294536 84.20383541862248,36.52766056341352 84.73679261334473,37.674706983336364 85.16689841955667,41.927327809091366 85.67180523561547,45.022003579186276 85.71855586668244,46.74243126565125 84.63394122489262,54.42450494594959 84.33473718573805,54.73826800406823" stroke="#4DD2FF" stroke-linecap="round" stroke-linejoin="round" stroke-width="0.5"><title>2025-08-09 5.0km</title><desc>1754735080000</desc></polyline><polyline fill="none" points="116.05401436955435,31.33333333333576 116.10611179386615,33.021259174383886 115.76747853588313,35.67365585589141 115.33333333334303,37.50216062600521 115.23782138878596,39.15984177681821 114.656066817377,42.55548974835983 114.69079843361396,43.07788678171346 114.10036095816758,47.05605061050301 114.08299515006365,48.42225178748049 114.82972489841632,54.7708214870072 115.41147946976707,55.33333333333576 114.56055487281992,48.78389011735271 114.6039693930943,46.644177436573955 115.84562467230717,38.104956986579055 116.00191694524256,37.13043437216402 116.14952631411143,36.93954737452441 116.0800630816957,36.527632071571134 116.58367151662242,33.121730042061245" stroke="#4DD2FF" stroke-linecap="round" stroke-linejoin="round" stroke-width="0.5"><title>2025-08-07 5.0km</title><desc>1754570205000</desc></polyline><polyline fill="none" points="146.41594065498793,31.33333333333576 146.46961041691247,32.016464538450236 146.6485096233664,32.08891757939273 146.5858949011308,32.5753866623636 147.06892275850987,32.64783930575504 147.1225925203762,33.09290441308258 146.6306197027443,35.55625286530994 146.4875003375928,36.87070434776979 146.5858949011308,37.22260186677158 146.43383057561005,37.367500491876854 146.14759184536524,39.05451931717107 144.88635243999306,48.22396135322924 145.6645639880444,55.33333333333576 144.877407479682,48.05838055044296 145.43199501966592,43.86702688308287 145.63772910705302,43.29781741035549 146.12970192468492,39.05451931717107 146.38016081374371,37.491699149388296 146.54117009951733,37.21225195707666 146.47855537728174,36.808604659447155 146.97052819491364,33.18605732902506" stroke="#4DD2FF" stroke-linecap="round" stroke-linejoin="round" stroke-width="0.5"><title>2025-08-05 5.0km</title><desc>1754406000000</desc></polyline><polyline fill="none" points="176.30324559257133,55.33333333333576 176.71858396293828,51.892606476358196 176.97345069021685,51.69599018638837 177.3699100438389,49.03071166049631 177.6625348047819,46.889702349442814 177.68141382164322,45.55701175061404 176.99232970707817,40.826919064696995 176.72802347136894,37.68069130046206 176.4920357608935,36.86134603332175 176.13333444105228,36.34788648113317 176.2182900167536,36.184015894708864 176.68082592927385,36.22771474221372 176.46371723565971,34.075525384971115 176.02006034000078,33.60575243233325 176.05781837372342,32.27289705869043 175.65191951172892,31.33333333333576 176.06725788209587,32.41492341845151 176.02006034000078,33.4965026140344 176.48259625252103,34.06460045590211 176.6902654377045,36.216790031998244 176.56755182828056,36.32603708402894 176.11445542424917,36.23863945128687 176.71858396293828,37.5168227469112 177.10560380807146,41.65715825074585 177.68141382164322,45.58978302910691 177.67197431321256,46.94432046407019 176.56755182828056,54.50319979144115 176.5109147777548,54.68888811402576 176.2654875589069,54.69981094652758 176.1710924746585,55.11487775963906 175.90678623894928,55.09303217785782" stroke="#4DD2FF" stroke-linecap="round" stroke-linejoin="round" stroke-width="0.5"><title>2025-08-03 5.0km</title><desc>1754221111000</desc></polyline><polyline fill="none" points="35.33333333332848,68.70151002426792 35.259543940541334,69.00746849033385 35.06892134255031,69.02525669100214 31.32410965921008,68.9505461874578 31.222649244155036,68.88650848610632 31.075070458609844,68.94698854045055 30.59851396360318,68.94343089309041 30.558544709172565,68.90429674823099 29.70689213424339,68.95410383409398 29.28875224184594,68.89006613925449 27.939021265672636,68.88650848610632 27.354855239536846,68.79400937737955 26.958237253376865,68.69083700625924 26.933640789124183,68.65170257907084 26.383294901344925,68.6339141886092 25.17499359464273,68.42045279816375 23.39789905201178,68.40622199252539 19.689982065057848,68.86872021494491 19.188829105798504,69.09996703513752 18.65078145013831,69.2636177080858 17.205739174969494,70.14233758959745 16.44017422493198,70.53010574728978 15.969766845999402,70.66528996715715 15.693056623102166,70.66884743957417 15.342557007417781,70.58346800169602 14.970535485510482,70.73643934693973 14.844478606173652,70.4874158852399 14.693825262613245,70.58702548242582 14.570842941320734,70.35578848293153 12.477068921318278,71.59377800747461 12.31719190365402,71.19179195441393 11.671534716864699,69.95734576287578 11.610043556225719,69.91465520253041 11.333333333328483,70.04984179840176 11.514732257215655,69.91109765349029 11.603894440166187,69.90042500419077 11.631565462448634,69.81148613349797 11.74224955162208,69.8186012514634 11.889828337167273,69.71898946833971 11.932872149613104,69.7687953953282 12.043556238771998,69.69764404938178 12.0066615423857,69.76523783146331" stroke="#4DD2FF" stroke-linecap="round" stroke-linejoin="round" stroke-width="0.5"><title>2025-08-02 8.3km</title><desc>1754134728000</desc></polyline><polyline fill="none" points="54.64150605018949,58.0 54.512343758222414,58.02989157279808 54.434846383024706,58.836960593449476 55.0806578429474,58.836960593449476 55.0806578429474,59.48460376904404 52.92795297654811,73.73167172138346 52.93656379598542,75.23596161096793 53.83208902043407,82.0 52.979617893346585,75.42524148651137 52.9193421570526,73.9608034585981 54.19374343796517,64.8548954759317 54.512343758222414,63.61945552465477 54.4262355635874,63.340483059240796 54.83094407842145,60.40126064471406" stroke="#4DD2FF" stroke-linecap="round" stroke-linejoin="round" stroke-width="0.5"><title>2025-07-31 5.0km</title><desc>1753965181000</desc></polyline><polyline fill="none" points="84.19148518220754,82.0 84.29499005997786,81.12895065722114 84.55845702171791,80.81319352178252 85.51822952489601,74.20385644203634 85.62173440266633,71.76472295241547 85.13243861671071,68.80284333377494 84.61491422780091,63.91338491447823 84.11620890744962,62.95506846142962 84.21971378527815,62.813498258452455 84.63373329641763,62.867948358660215 84.45495214388939,60.700812994356966 83.97506589227123,60.178080311488884 84.03152309835423,58.96925120929518 83.6551417245646,58.0 84.04093263269169,58.991032034573436 84.00329449528363,60.19986089087615 84.45495214388939,60.766154400283995 84.6713714338257,62.846168321913865 84.54904748732224,62.95506846142962 84.17266611353261,62.80260823507706 84.13502797612455,62.965958469307225 84.69960003683809,64.21830198761745 85.0289337389404,67.87723915692186 85.67819160874933,72.54873620207945 85.0007051358698,78.18910684568982 84.50199981563492,81.31404923501395 84.32321866304846,81.39026620355435" stroke="#4DD2FF" stroke-linecap="round" stroke-linejoin="round" stroke-width="0.5"><title>2025-07-29 5.0km</title><desc>1753797916000</desc></polyline><polyline fill="none" points="116.36272067629034,58.0 116.34542004868854,59.831732320963056 115.94750561358524,62.63431694540486 115.63609431654913,63.5651577723911 115.42848678518203,66.12742688498838 114.84891576014343,69.19005176369683 114.91811827057973,69.73050509651512 114.34719755934202,73.52360341839085 114.38179881460383,75.53518734940008 115.09112454671413,82.0 114.42505038363743,76.38584481878206 114.30394599036663,74.25418342487683 114.85756607397343,69.35018639353075 115.62744400274823,64.45595419958408 115.54959117848193,64.20573129751574 115.92155467218254,62.6843623748573 116.34542004868854,59.301234114245744" stroke="#4DD2FF" stroke-linecap="round" stroke-linejoin="round" stroke-width="0.5"><title>2025-07-27 5.0km</title><desc>1753616848000</desc></polyline><polyline fill="none" points="146.68548730632756,58.0 146.7110334171448,60.10861232867319 146.24268805255997,63.43894401631405 146.05534990670276,63.79364716132841 145.79137342851027,66.69034095850657 145.31451269364334,69.33078918720275 145.34857417468447,69.83325440394401 144.7269521453709,73.93169701872102 145.50185083950055,82.0 146.01277305540862,81.92119198216824 145.6466121340054,77.97085807715484 145.22935899099684,75.20257314097398 145.21232825049083,73.7248086324762 146.38744934703573,65.43905867348076 146.77915637928527,63.78379431371286 146.69400267660967,63.39953247565427 147.2730478546291,59.89184121310245" stroke="#4DD2FF" stroke-linecap="round" stroke-linejoin="round" stroke-width="0.5"><title>2025-07-26 5.2km</title><desc>1753529066000</desc></polyline><polyline fill="none" points="177.49502484416007,58.0 177.3914800719358,58.519196792229195 177.52953976820572,59.188157845448586 177.36559387890156,60.76568975938426 177.0031871762767,63.221796635385545 176.8133550939092,63.571237747659325 176.78746890087496,64.61955362968001 176.01951184050995,69.22202723923692 176.07991295758984,69.6612976190736 175.51041671060375,73.84425129857846 175.58807528970647,76.07042853926396 176.26974503995734,82.0 176.7615827078116,81.95008927460003 176.3732898121525,78.32650292381004 176.45957712229574,78.13683494659199 175.96773945441237,75.32171984660818 175.95911072337185,73.98401278777601 177.82291662271018,60.93542269682803" stroke="#4DD2FF" stroke-linecap="round" stroke-linejoin="round" stroke-width="0.5"><title>2025-07-24 5.0km</title><desc>1753356656000</desc></polyline><polyline fill="none" points="22.912387845804915,108.62336977742234 23.03399432002334,108.66666666666424 23.445585463312455,105.2461581937896 23.716861444117967,105.07296496976778 23.651381034986116,104.73740229681425 24.352956847462337,100.39664146244468 24.399728568270802,99.08680107701366 23.69815275579458,94.46434303518618 23.408168086665682,91.0433783732733 22.84690743673127,89.8633365856731 22.93109653418651,89.69011834169214 23.38945939828409,89.77672749890189 23.146246449963655,87.60065107070841 22.744009650836233,87.16759572875162 22.781427027483005,85.99833750636753 22.26693809835706,84.66666666666424 22.73465530667454,85.73850060183759 22.725300962512847,87.12429009769403 23.155600794183556,87.57899834543787 23.39881374250399,89.71177063760115 23.277207268343773,89.8308581863821 22.949805222509895,89.7009444902069 22.84690743673127,89.8308581863821 23.174309482448734,90.29638096261624 23.408168086665682,91.07585640269099 23.82911357411649,95.38452046805469 24.371665535727516,98.9027726247441 24.36231119162403,100.34251614575624 23.342687677475624,107.4326984268555" stroke="#4DD2FF" stroke-linecap="round" stroke-linejoin="round" stroke-width="0.5"><title>2025-07-22 5.0km</title><desc>1753184035000</desc></polyline><polyline fill="none" points="42.0,100.62495940132067 42.0,96.7737797232694 44.55161787383258,85.99028924410231 65.18644067808054,89.75598396532587 66.0,90.65461068306467 63.2265023116488,107.30025408012443 44.69953775056638,104.39052325469675 44.03389830538072,103.53471624461235 46.32665639463812,86.88892399825272 47.14021571655758,86.37541865932872 52.05855161813088,87.18846849014517 65.96302003087476,90.2694851818087 63.52234206488356,106.95793385003344 62.745762712089345,107.34304408924072 44.329738058615476,104.21936199182528 44.55161787383258,98.7421648480522 46.36363636376336,86.97450816057972 46.95531587069854,86.46100292596384 56.05238828994334,88.00151675118832 46.770416024839506,86.54658717525308 45.73497688770294,91.25369409628911 46.65947611723095,92.15231761781615" stroke="#4DD2FF" stroke-linecap="round" stroke-linejoin="round" stroke-width="0.5"><title>2025-07-20 4.9km</title><desc>1753020627000</desc></polyline><polyline fill="none" points="86.04611614078749,84.66666666666424 85.86506339733023,85.89374160505395 85.19258177868323,87.61960154061671 84.62355887060403,90.21332242567587 84.46837080473779,92.25832328182878 83.93383413352421,95.67986362821102 83.81313230455271,95.78959035468142 83.87348321906757,96.27837155581801 83.31308187014656,100.31820467440411 83.28721719252644,101.6548042362192 84.05453596249572,108.6566928223474 83.96832037041895,107.28029259339382 84.06315752174123,108.66666666666424 84.55458639690187,108.56692817778821 83.72691671241773,100.7570901181025 85.0460152720625,91.12110854995262 85.32190516687115,90.25322528878314 85.35639140373678,89.08605984323367" stroke="#4DD2FF" stroke-linecap="round" stroke-linejoin="round" stroke-width="0.5"><title>2025-07-20 5.0km</title><desc>1752942252000</desc></polyline><polyline fill="none" points="116.36819464992732,84.67740614011564 116.21969437133521,84.66666666666424 115.98766268597683,85.84800220376928 116.24753817357123,86.00909239038447 116.22897563868901,86.35275063469453 115.90413127926877,88.54354567779956 115.72778719838243,88.91941281312756 115.27300509513589,93.20420370159991 114.8924731311854,94.95458209752542 114.92959820083342,95.47002542703558 114.27062821446452,100.39882537085941 115.1616298861336,108.66666666666424 114.33559708634857,101.77326456337323 114.31703455152456,99.69012318159366 114.92959820083342,95.53445566654409 114.9017543985392,94.96532052583643 115.57928691973211,90.88463921672519 115.71850593097042,88.9086737706748 115.90413127926877,88.52206751541962 116.39603845216334,85.01032927558117" stroke="#4DD2FF" stroke-linecap="round" stroke-linejoin="round" stroke-width="0.5"><title>2025-07-17 5.0km</title><desc>1752765839000</desc></polyline><polyline fill="none" points="156.29729729739483,108.16022699617315 156.83783783798572,107.40965425453032 158.0,97.62076713852002 140.62162162165623,96.83889371735859 137.48648648662493,97.08909342830884 137.86486486485228,96.83889371735859 137.29729729727842,93.30480107141193 134.08108108118176,88.23815497022588 134.0,85.39203939490835 134.37837837834377,85.17310633716988 149.48648648662493,85.42331553323311 148.40540540544316,95.27514091553167 147.72972972982097,95.71299250097945 138.29729729727842,95.4002414321003 137.27027027029544,92.11633601805079 134.62162162165623,88.73856817450724 134.29729729727842,86.95584241993492 138.05405405408237,86.6743584619544 149.0,87.04967034875881 149.1621621622471,89.39535927010002 148.1891891893465,97.02654351966339 146.72972972982097,97.12036837782944" stroke="#4DD2FF" stroke-linecap="round" stroke-linejoin="round" stroke-width="0.5"><title>2025-07-15 4.1km</title><desc>1752589649000</desc></polyline><polyline fill="none" points="177.63115582807222,84.66666666666424 177.70429244695697,86.36980184030108 177.13748365064384,89.92408115776198 176.93635794869624,90.33662357700086 176.92721587140113,91.38383930057898 176.12271306372713,96.29186153721093 176.1592813731986,96.841884098023 175.5467621900607,101.40061312721082 176.27812837884994,108.66666666666424 175.8575928202481,105.78992005118198 175.53762011270737,101.16792181436904 176.9089317166945,91.30979409039719 176.82665302039823,90.97130103036761 177.10091534117237,89.99812735336309 177.64029790548375,86.47558571468835 177.5763033638941,86.10534168408049 177.79571322060656,84.98402315899875 177.59458751865895,84.73013804253424" stroke="#4DD2FF" stroke-linecap="round" stroke-linejoin="round" stroke-width="0.5"><title>2025-07-13 5.0km</title><desc>1752418082000</desc></polyline><polyline fill="none" points="23.12490510789212,135.33333333333576 23.00174297473859,135.3223706419667 23.0775350566837,134.45631450523797 23.494391507527325,131.82521524232288 23.740715773950797,131.60595407377696 24.167046235059388,128.62395793482574 24.39442248089472,125.54320622894738 23.76913780468749,121.25631989567046 23.447021456318907,117.67099254362984 23.25754125136882,116.9692631501166 22.85963282099692,116.33331694275694 22.944898913207,116.16884748563461 23.399651405052282,116.23463529860601 23.200697189895436,114.15133506523125 22.745944698050153,113.58116166993568 22.774366728786845,112.27633043917012 22.452250380418263,111.3771938466889 22.253296165261418,111.3771938466889 22.42382834968157,111.33333333333576 22.745944698050153,112.13378489417664 22.736470687785186,113.59212657137687 23.15332713862881,113.97589741858974 23.200697189895436,114.19519443229365 23.399651405052282,116.20174139712617 22.93542490300024,116.17981212390441 22.83121079026023,116.30042307143594 23.248067241103854,116.90347578536603 23.43754744605394,117.57231212360057 23.825981866160873,121.83741677332728 24.41337050142465,125.46646040122141 24.403896491159685,126.86980404959468 23.248067241103854,134.7632719060639" stroke="#4DD2FF" stroke-linecap="round" stroke-linejoin="round" stroke-width="0.5"><title>2025-07-12 5.1km</title><desc>1752325602000</desc></polyline><polyline fill="none" points="53.85539890488144,135.33333333333576 53.62217133207014,135.322538331151 54.14460109517677,131.72774159412074 54.359170462121256,131.61978785873362 54.95623304846231,127.61462673353526 55.049524077621754,125.59579554929223 54.49910700577311,121.9790768854291 54.079297374759335,117.58486787819129 53.519551200035494,116.45119722604431 53.59418402326992,116.33243102871347 54.06063916895073,116.40800953329017 53.84606980194803,114.21621105859958 53.42626017087605,113.7519326681795 53.40760196506744,112.29430127290834 52.94114681950305,111.33333333333576 53.435589273809455,112.41307198729919 53.42626017087605,113.74113547216984 53.85539890488144,114.22700820632599 54.08862647769274,116.37561875218671 53.640829537878744,116.3216340950894 53.53820940590231,116.4943849012052 54.09795558056794,117.67124228880857 54.50843610870652,121.95748416533024 55.05885318049695,125.52022358337126 54.965562151395716,127.56064778943255 54.06996827182593,133.51975757547916" stroke="#4DD2FF" stroke-linecap="round" stroke-linejoin="round" stroke-width="0.5"><title>2025-07-10 5.0km</title><desc>1752149320000</desc></polyline><polyline fill="none" points="81.30093239614507,111.33333333332848 81.35714507708326,112.82937346133986 81.76468701375416,112.61797733519052 82.63598356820876,112.91067958933127 83.57754597370513,112.82937346133986 84.63153374107787,113.21964249902521 90.07011062081438,113.93513326303218 90.22469549335074,114.14652764933999 88.97396334272344,122.1305265925912 88.36967702273978,122.17930743946636 88.2572516608634,122.39069093733269 88.04645410738885,123.80532716080779 88.20103897992522,124.42321032407926 87.24542340420885,129.80519701409503 80.24694462877233,129.5938233070192 80.00804073479958,129.43122795785894 79.1086378400214,135.33333333332848 80.05020024545956,129.52878518716898 82.77651527046692,129.57756377950136 83.6899713355233,129.21985375702207 83.81644986761967,129.5938233070192 87.28758291492704,129.70763995323796 89.70472819474526,114.56931558428914 89.63446234364528,114.01643882930512 82.39707967423601,112.7480672919919" stroke="#4DD2FF" stroke-linecap="round" stroke-linejoin="round" stroke-width="0.5"><title>2025-07-08 5.1km</title><desc>1751976330000</desc></polyline><polyline fill="none" points="103.54709713946795,135.11480357966502 103.49559137318283,135.33333333332848 103.82179455994628,135.19426897287485 103.92480609251652,134.08175052830484 104.5257066997001,133.58508846437326 104.64588682109024,133.0685585794563 106.37991428736132,121.04892010999902 106.53443158627488,117.4130822198058 106.1223854557611,114.73086337688437 107.06665783835342,114.69112652471813 107.30701808119193,115.04875790320511 110.6205557147041,115.52559872320853 113.28168697486399,115.48586203267041 115.22173750633374,116.26072604164074 121.40242946514627,117.17466425758903 122.53555632435018,111.33333333332848 127.17107529356144,112.36650661342719 123.0334453987889,111.39293963261298 122.26085890393006,114.83020547186607 122.14067878242349,117.21440060483292 110.56904994836077,115.66467707663833 107.30701808119193,115.06862629395619 107.0151520720683,114.63152123132022 106.07087968941778,114.79046863994154 106.44858864240814,116.37993561649637 106.51726299757138,119.81711375506711 104.57721246598521,133.12815825126017" stroke="#4DD2FF" stroke-linecap="round" stroke-linejoin="round" stroke-width="0.5"><title>2025-07-06 5.0km</title><desc>1751807521000</desc></polyline><polyline fill="none" points="137.6529790040804,133.84571740798128 138.6928117442876,126.45123865819187 135.32753487606533,126.21058567400905 134.2687960860785,126.58250380889513 135.6489377230173,126.45123865819187 135.4598772248719,126.23246322912746 138.93859039188828,126.42936112530879 139.18436903960537,126.21058567400905 139.07093274069484,125.53238036217226 140.48888647719286,116.5842456916871 140.35654412850272,112.12097835361783 142.79542455542833,111.88030934765993 157.7312039140379,114.33074482905795 157.7122978642583,113.60874441656051 141.28294056968298,111.33333333332848 141.54762526717968,116.7373953795468 139.8271747333929,128.90150827376056 140.29982597904745,129.64533460326493 139.86498683306854,130.454789747615 139.95951708219945,132.20495262858458 139.29780533839948,132.35809120374324 138.99530854134355,135.33333333332848 137.46391850581858,135.15832022858376 137.5584487549495,133.86759418722067" stroke="#4DD2FF" stroke-linecap="round" stroke-linejoin="round" stroke-width="0.5"><title>2025-07-05 4.8km</title><desc>1751729502000</desc></polyline><polyline fill="none" points="180.5294795462978,135.33333333332848 180.76699878484942,135.1597493092413 180.80450182245113,134.17610250794678 181.1295281489147,132.74401633732487 181.30454232468037,132.6861539670208 181.52956055069808,130.5886271630443 176.64166464156006,130.38610569751472 176.9541899554897,129.3011643684149 177.41672742000083,124.4115928272222 177.46673147025285,120.83833816059632 177.29171729448717,120.3609329698811 177.47923248272855,117.43859962352144 177.46673147025285,111.33333333332848 170.90369987866143,113.69155965601385 170.76618874055566,114.02431237100973 170.8161927908659,113.7349622281763 174.35397934395587,112.3894763347198 174.4164844067418,115.3697828061704 174.76651275827317,116.12208331064903 177.3792243822827,116.12208331064903 177.3917253948748,119.94139375296072 177.66674767108634,120.07159571125521 177.7667557715322,120.53453504272329 182.34212636679877,120.82387136017496 182.56714459281648,121.96674406332022 182.54214256763225,124.04993145575281 180.96701498574112,134.79811524592515" stroke="#4DD2FF" stroke-linecap="round" stroke-linejoin="round" stroke-width="0.5"><title>2025-07-03 5.2km</title><desc>1751545471000</desc></polyline><polyline fill="none" points="22.912767204164993,162.0 23.482867957034614,158.48524146459386 23.7165158065618,158.3230190374161 24.314654301386327,153.88884359734948 24.361383871291764,152.35306170435797 23.3426792473183,144.19790475925402 22.847345806309022,143.1703539003356 22.95015086006606,143.0297409054474 23.370716989273205,143.1054556180825 23.174452795647085,141.00705648792064 22.71650301059708,140.42295864321932 22.725848924543243,139.0925015783796 22.28659096744377,138.0 22.763232580502518,139.18985265964147 22.71650301059708,140.44459195392847 23.13706913968781,140.85562402137293 23.20249053760199,141.1909384789251 23.370716989273205,143.0946392338592 22.912767204164993,143.0621900745973 22.847345806309022,143.20280302659376 23.352025161322672,144.19790475925402 23.83801268832758,148.82716870194417 24.380075699242298,152.3206153689316 24.22119516157545,154.7432478708797 23.193144623597618,161.63230762053718" stroke="#4DD2FF" stroke-linecap="round" stroke-linejoin="round" stroke-width="0.5"><title>2025-07-01 5.0km</title><desc>1751376396000</desc></polyline><polyline fill="none" points="53.156573318876326,162.0 53.329880171164405,161.78609176317696 53.29521880071843,160.99730213433213 53.57250976434443,160.72991474621813 53.76892419694923,159.68709874023625 54.06932274089195,156.01043790187396 54.485259186360054,154.57985482507502 54.947410792519804,150.82282892729563 54.83187289099442,148.67017854489677 54.184860642417334,144.83275787469756 53.74581661669072,140.1795679796778 53.052589207538404,138.45463679345266 53.6649400855531,138.5749815639574 53.68804766586982,138.0 53.68804766586982,138.5482382911141 53.156573318876326,138.4412651455059 53.06414299766766,138.5749815639574 53.50318702345248,139.23019004878006 53.76892419694923,140.1528250331903 54.25418338336749,145.34085484722164 54.947410792519804,149.95375071518356 54.889641841698904,152.10638009168906 53.43386428250233,161.54544458111923" stroke="#4DD2FF" stroke-linecap="round" stroke-linejoin="round" stroke-width="0.5"><title>2025-06-30 4.1km</title><desc>1751292736000</desc></polyline><polyline fill="none" points="72.93612078978913,151.47946972498903 72.66666666668607,149.53196432037657 72.75958188157529,149.32752796776913 79.98838559817523,148.98321321589174 81.14053426246392,149.09081169650744 83.01742160279537,148.9078942142587 85.83275261323433,148.9401737929802 96.66666666668607,148.25154063948867 93.43321718933294,148.4774988881254 92.68060394894565,148.72497641504742 91.28687572589843,148.66041711611615 84.23461091757054,149.02625262131914 77.67479674797505,149.14461089566612 77.47967479674844,149.3167681487903 77.93495934957173,151.74845936051133 77.72125435539056,151.72694021490315 77.46109175373567,150.45730285965692" stroke="#4DD2FF" stroke-linecap="round" stroke-linejoin="round" stroke-width="0.5"><title>2025-06-26 5.0km</title><desc>1750950176000</desc></polyline><polyline fill="none" points="127.33333333334303,150.98225440696842 126.94581987801939,149.01774559303158 116.62073914601933,149.96510248330014 115.51847865091986,149.97507461228815 111.54000717616873,149.4764669169308 103.33333333334303,149.8254925704823 111.26444205240114,149.46649473709112 115.52709006101941,149.9850467403012 122.87262289202772,149.31691191774007" stroke="#4DD2FF" stroke-linecap="round" stroke-linejoin="round" stroke-width="0.5"><title>2025-06-24 5.0km</title><desc>1750769966000</desc></polyline><polyline fill="none" points="158.0,150.96111835589545 157.6714697405987,149.03888164410455 147.4524495677324,150.0100163508905 146.2074927953945,150.050062936818 142.1786743515695,149.5294560465045 134.0,149.8898764951955 141.9625360230275,149.5294560465045 146.1988472622179,150.050062936818 154.8530259365798,149.27916329018626" stroke="#4DD2FF" stroke-linecap="round" stroke-linejoin="round" stroke-width="0.5"><title>2025-06-22 5.0km</title><desc>1750563938000</desc></polyline><polyline fill="none" points="177.48683609691216,162.0 176.2464385133353,154.5894652416755 176.22904976218706,152.56887582415948 176.3391785195854,151.7230292817767 176.2696235149051,149.54794540820149 176.2928085164749,149.1719977008106 176.4203260250506,148.95716947540495 176.2928085164749,148.85646850336343 176.28701226605335,147.4802064445903 174.87852342118276,139.00716892904893 174.52495214735973,138.0 174.8843196715461,138.87959505083563 176.2696235149051,147.33922187700227 176.34497476997785,151.46121743510594 176.2464385133353,152.5755888484855 176.24064226294286,154.52233702103695 177.19122732701362,160.21456697728718 177.32454108598176,160.6038760486117 178.8083811859542,160.52332953303267" stroke="#4DD2FF" stroke-linecap="round" stroke-linejoin="round" stroke-width="0.5"><title>2025-06-21 8.0km</title><desc>1750517001000</desc></polyline><polyline fill="none" points="25.768202636973,188.66666666667152 23.735204966040328,176.1651669813582 20.15775945194764,176.09216295978695 13.71205365791684,175.47162757464685 13.838131032825913,174.81458776371437 13.58597628294956,173.5552547192783 13.932689064065926,165.32374372452614 13.885410048358608,164.73967534778058 13.570216611085925,164.66666666667152 13.176224814320449,174.79633662346168 13.775092345371377,174.86934117336932 13.806611689040437,175.48987864614173 23.78248398163123,176.14691597878118 24.995978715422098,183.95817508990876 25.37421084032394,184.9984338842478 33.49044185236562,184.742932284149" stroke="#4DD2FF" stroke-linecap="round" stroke-linejoin="round" stroke-width="0.5"><title>2025-06-19 5.0km</title><desc>1750345525000</desc></polyline><polyline fill="none" points="66.0,177.26749169119284 65.7797101449396,175.95843284003058 58.9855072463688,176.6028958334282 58.11014492751565,176.62303520034038 55.19999999998254,176.2873782807801 44.41739130433416,176.7774368089813 43.484057970985305,176.93183805567242 42.0,177.3749004932979 44.092753623146564,176.81100232817698 47.88405797100859,176.6431745611335" stroke="#4DD2FF" stroke-linecap="round" stroke-linejoin="round" stroke-width="0.5"><title>2025-06-17 5.1km</title><desc>1750166247000</desc></polyline><polyline fill="none" points="73.49425287346821,185.72336749832903 72.66666666662786,180.40449747702223 91.37011494254693,179.85343649571587 88.32873563223984,167.84957020488218 92.01149425283074,168.06521392901777 96.66666666662786,167.60996583499946 89.32183908042498,168.0412535249925 92.0321839080425,178.84714789211284 84.0045977011323,179.23049643957347" stroke="#4DD2FF" stroke-linecap="round" stroke-linejoin="round" stroke-width="0.5"><title>2025-06-16 3.2km</title><desc>1750084948000</desc></polyline><polyline fill="none" points="127.33333333331393,177.77611800938757 126.96559139783494,175.55721532394818 115.16881720424863,176.64425910302816 114.10430107521825,176.65546568397986 109.43978494621115,176.0839286002156 103.33333333331393,176.3753008180429 109.24623655912,176.07272196102713 114.0946236558957,176.63305252097052 124.1010752688162,175.79255561026366" stroke="#4DD2FF" stroke-linecap="round" stroke-linejoin="round" stroke-width="0.5"><title>2025-06-15 4.6km</title><desc>1749956754000</desc></polyline><polyline fill="none" points="158.0,177.6318849613308 157.70784103116603,175.70144837199769 147.4307196563168,176.6467700275898 146.35660580021795,176.66667143775703 141.83673469387577,176.15918421139213 134.0,176.51741076266626 141.9914070891391,176.15918421139213 146.28786251344718,176.66667143775703 148.53061224494013,176.55721363167686 148.95166487645474,176.41790351917007 154.39957035446423,175.930316559934" stroke="#4DD2FF" stroke-linecap="round" stroke-linejoin="round" stroke-width="0.5"><title>2025-06-14 5.1km</title><desc>1749906363000</desc></polyline><polyline fill="none" points="188.66666666665697,178.09166922865552 188.37812352663605,176.14581278419064 178.4318717585993,177.10891835648363 177.09099481377052,177.1187459148059 173.01744460160262,176.62736677278735 165.34559170203283,176.99098757876345 165.2437529467279,176.76495318497473 165.286185761448,175.25149185329064 164.66666666665697,175.24166410468024 165.31164545027423,175.27114734751376 165.2437529467279,176.75512559060007 165.37105139085907,176.99098757876345 173.22960867514485,176.61753916442103 177.27769919851562,177.12857347212412 185.33993399344035,176.40133152664202 185.33144743044977,176.0082254885565 187.91984912776388,175.87063799663156" stroke="#4DD2FF" stroke-linecap="round" stroke-linejoin="round" stroke-width="0.5"><title>2025-06-12 5.9km</title><desc>1749735885000</desc></polyline><polyline fill="none" points="35.33333333331393,210.88351511773362 34.56826056831051,207.031496203781 13.545391545339953,208.89973518297484 11.566181566158775,203.4875694524817 11.33333333331393,196.72695962710714 15.258489258470945,196.55360747638042 18.60152460145764,196.76548230565095 18.784476784523576,196.14911850624776 18.435204435198102,196.01428865711205 11.43312543304637,195.78315154895245 11.58281358279055,203.29496283343178 12.164934164902661,205.4906666524621 13.312543312495109,208.22563046467258 22.62647262646351,207.41670162855007 22.80942480941303,208.1485897723178 34.51836451841518,207.01223591189773 35.23354123358149,210.8257354140369" stroke="#4DD2FF" stroke-linecap="round" stroke-linejoin="round" stroke-width="0.5"><title>2025-06-10 5.3km</title><desc>1749559786000</desc></polyline><polyline fill="none" points="42.630157539388165,196.94343388950801 42.054013503482565,194.6083038517245 42.0,192.79438980275881 58.33008252072614,192.3773957935773 59.068267066730186,195.10869110374188 58.52813203306869,195.08784165937686 58.36609152285382,195.46313133332296 58.70817704428919,197.4021170148917 58.61815453867894,198.71561300288886 59.212303075823,201.34257967985468 60.74268567143008,201.28003324622114 63.01125281327404,210.01549999348936 63.04726181551814,210.41161017138802 62.471117779496126,210.57839317483013 62.99324831215199,210.43245805430342 63.173293323256075,210.76602389110485 62.705176294082776,210.84941526543116 62.867216804181226,211.62078386607755 63.947486871737055,214.3726697769016 64.70367591897957,214.28927983847097 66.0,213.58046398998704 64.63165791449137,213.87232963675342 62.20105026254896,204.177997923558 61.91297824459616,203.34405546040216 61.264816204085946,203.34405546040216 60.77869467367418,201.21748679340817 60.256564141018316,201.42597489496984 59.19429857470095,201.28003324622114 58.60015003755689,198.88240554076037 58.47411852970254,195.79672157669847 57.48387096775696,192.29399688976991 42.054013503482565,192.83608915693185 42.702175543876365,197.06852938928932" stroke="#4DD2FF" stroke-linecap="round" stroke-linejoin="round" stroke-width="0.5"><title>2025-06-08 5.0km</title><desc>1749355299000</desc></polyline><polyline fill="none" points="96.66666666665697,204.32092851323978 96.24455611387384,202.34573815342446 88.50873414688976,202.99416362588818 86.18281885614851,203.32336260632292 84.89064369467087,203.32336260632292 80.79875568317948,202.82457584021904 72.66666666665697,203.1837025680361 80.4111031347129,202.82457584021904 84.84757118931157,203.33333831570053 94.17707585546304,202.4953751821813" stroke="#4DD2FF" stroke-linecap="round" stroke-linejoin="round" stroke-width="0.5"><title>2025-06-07 5.3km</title><desc>1749293029000</desc></polyline><polyline fill="none" points="127.33333333334303,204.28409725465463 126.97899411842809,202.3825694120169 116.02904813349596,203.38337812972895 111.58684431642178,202.87296695822442 103.33333333334303,203.21324136735348 111.55227463692427,202.85295077978662 115.50186052097706,203.38337812972895 123.96278958109906,202.61275632031902" stroke="#4DD2FF" stroke-linecap="round" stroke-linejoin="round" stroke-width="0.5"><title>2025-06-05 5.1km</title><desc>1749128617000</desc></polyline><polyline fill="none" points="134.33595800522016,203.18142275678838 134.0,200.98089320224244 134.12598425196484,200.88363129067875 143.54330708662746,200.55537175371865 145.31758530181833,207.0596053163681 154.61942257219926,206.9380341094802 158.0,206.7313627734402 155.21784776909044,206.8286199173308 154.70341207348974,199.6070613503034 145.8005249343696,200.12984878723364 143.88976377953077,200.06905966807972 144.05774278211175,200.55537175371865 139.1233595800586,200.70126499279286" stroke="#4DD2FF" stroke-linecap="round" stroke-linejoin="round" stroke-width="0.5"><title>2025-06-03 5.2km</title><desc>1748952979000</desc></polyline><polyline fill="none" points="184.51388788566692,196.1786900219886 183.9874076510023,195.3994417804497 183.6142064720334,194.58160827514075 183.37429142839392,194.357859834985 182.78116812606459,194.30385149183712 182.32799526586314,193.77919701216888 182.12140175607055,193.09251139555272 181.81484364473727,192.62185810891242 181.44830677250866,191.33333333333576 180.38868199643912,191.7885631525569 179.8955232956214,191.84257328858803 178.6159763962205,192.32094709848752 178.06950324127683,193.02307093054696 178.06950324127683,193.20052977016894 175.85695339436643,196.01666877022217 175.84362478082767,196.1786900219886 175.23717286495958,197.01193670227076 174.71069263032405,197.49799303485634 174.61739233558183,197.41312628080777 174.24419115655473,197.73716246683762 173.99761180614587,197.59057484001096 173.9909474994347,197.72944733565964 173.9576259655587,197.52885364916438 174.30416991747916,197.77573811099865 174.25085546335322,198.0534821692272 173.4511386512022,198.94071331381565 172.08495576382848,199.24931301642937 172.08495576382848,199.11044330577715 171.99165546908625,199.28017291758442 171.61845429008827,199.3650375809666 171.29190325844684,199.27245794346527 170.74543010350317,199.3187477763422 170.65212980873184,199.23388306114066 170.4322076854296,199.35732261550584 169.77244131543557,199.12587328618247 169.68580532743363,198.11520293280046 169.43256167025538,197.8914649256185 168.1863363047305,198.20778398396942 167.7198348309612,198.4932415130461 168.2529793723952,200.80000750120234 169.0926820251043,203.37671325348492 170.8653876253229,210.30406870252045 171.11196697573178,211.0214535326013 173.20455930082244,215.25619989132247 173.47113157151034,215.33333333333576 174.3908059054811,215.04022583633196 175.01725074165734,215.22534649256704 176.16351150569972,214.9862322264962 176.14351858536247,214.53114170162007 176.45007669669576,214.44629401359998 177.0032141584088,214.7008367929302 177.42306548479246,214.50028800788277 177.59633746076724,214.75483060597617 178.67595515711582,214.99394560166547 179.30906430009054,214.87824489145714 179.94883774977643,214.40001341645984 180.0621309648268,213.49753612705535 180.54196105210576,212.83416990308615 180.41533922351664,212.17079787584953 180.56861827918328,211.84682338124549 180.24206724754185,211.48427885324054 180.03547373777837,210.94431570448796 179.9555020565167,210.14207764024468 180.38868199643912,209.7949527699384 181.04844836643315,210.06493891751597 181.41498523869086,210.04179728538293 181.50828553343308,209.54039352166 181.35500647776644,208.92327664513869 181.22838464917731,208.8692786794636 181.35500647776644,208.8075666716104 181.20839172889828,208.76128263273858 181.3283492506598,208.8307086804416 181.34167786425678,208.46814973048458 181.168405888282,208.0670186591742 180.38201768966974,208.0130200836502 180.01548081744113,207.7353125163063 180.16875987307867,206.68618585925287 180.795204709284,205.6139016998277 181.27503479653387,205.08161112416565 181.49495691986522,205.0044672524018 181.9681227004039,204.34874117260188 182.80116104637273,203.55414785121684 183.54089909759932,202.6283975543629 183.32764128100825,202.19637687986688 182.66787491101422,202.18866220259224 182.58123892304138,201.93407741187548 182.83448258019052,201.32461337855057 183.12771207798505,201.0468813075422 183.40094865547144,201.0854552671517 183.5142418704927,200.9465889207131 183.2809911336517,200.41426556896477 183.59421355172526,199.75849977863254 183.8874430495198,199.58877123798447 184.13402239992865,199.68906542157492 184.10070086608175,199.5039068251499 184.84043891727924,199.16444822347694 184.90708198497305,198.95614332879632 185.55351974142832,198.5626769656301 185.61349850235274,197.9994764598523 184.76713154281606,196.38700255099684 184.63384540745756,196.32528037987504" stroke="#4DD2FF" stroke-linecap="round" stroke-linejoin="round" stroke-width="0.5"><title>2025-06-02 11.5km</title><desc>1748829019000</desc></polyline><polyline fill="none" points="35.33333333331393,231.1223379667208 34.8936996946577,228.87766203327192 22.21426588954637,230.05785800552258 16.958645573060494,229.45619100372278 11.33333333331393,229.69917229213024 17.028587288339622,229.433049901505 21.634748820390087,230.03471702595562 34.873716347443406,228.8892326415953 35.32334165973589,231.05291566478263" stroke="#4DD2FF" stroke-linecap="round" stroke-linejoin="round" stroke-width="0.5"><title>2025-06-01 4.9km</title><desc>1748740054000</desc></polyline><polyline fill="none" points="66.0,241.56547556250007 65.91309595655184,241.7499731330463 65.73928786959732,241.61579310227535 65.15992757992353,238.39543954234978 46.852142426068895,239.98885152373987 45.157513578713406,235.24211561748234 45.08509354258422,229.27076220308663 44.67954133974854,227.02306180345477 42.0,218.25002686696826 43.76704888348468,224.12113453124766 44.24502112256596,225.02694391450495 45.02715751359938,228.39852390275337 45.809293904632796,228.61658391130914 44.99818949907785,228.59981007479655 45.157513578713406,234.68860039647552 45.707905853923876,236.95296907500597 46.66385033191182,239.31794309619 46.91007845499553,239.46889773086878 54.76041038020048,238.66380474591278 54.97767048876267,239.30117035048897 61.2202776101185,238.6973503656045" stroke="#4DD2FF" stroke-linecap="round" stroke-linejoin="round" stroke-width="0.5"><title>2025-05-31 5.5km</title><desc>1748696141000</desc></polyline><polyline fill="none" points="94.98354978358839,236.62341883589397 94.43809523817617,233.10426026700588 74.69264069269411,234.87287177726103 72.86926406930434,229.67526925704442 72.66666666668607,223.41267743625212 79.36796536791371,223.48486995857093 72.76017316017533,223.37658116410603 72.88484848482767,229.58503175475926 73.36796536803013,231.51610426542175 74.5835497835069,234.29536792032013 92.06926406925777,232.61698664494907 93.62770562770311,232.52675064181676 93.70562770566903,233.1944959757966 96.66666666668607,232.95988303729973" stroke="#4DD2FF" stroke-linecap="round" stroke-linejoin="round" stroke-width="0.5"><title>2025-05-29 5.0km</title><desc>1748526381000</desc></polyline><polyline fill="none" points="117.8816693079425,227.64381388164475 117.34918119385839,223.2833685369842 126.36344426835421,222.84291461919202 127.33333333337214,226.38854318059748 126.2873745377874,222.93100547452923 117.31114632857498,223.34943654718518 117.55837295297533,225.52966955203738 117.21605916542467,223.37145921276533 104.39830956154037,224.56067982131208 106.31907025887631,234.18431692272134 107.06075013207737,236.4305046248337 106.56629688327666,236.7388030756265 107.34601162176114,238.80879556915897 106.3000528261764,236.07816299967817 103.71368198620621,224.60472490341635 108.20179609092884,223.96607033518376 116.32223983097356,223.45954985269054 116.22715266770683,222.82089189971157 104.30322239839006,223.63573102476948 103.6376122556394,221.19120443084103 103.33333333337214,221.45547890945454 103.48547279450577,223.81191205314826 112.48071843630169,222.93100547452923" stroke="#4DD2FF" stroke-linecap="round" stroke-linejoin="round" stroke-width="0.5"><title>2025-05-27 6.0km</title><desc>1748352132000</desc></polyline><polyline fill="none" points="154.8018223234394,231.7884801436303 154.89749430524535,231.7251725444512 154.58997722095228,230.1899474610109 146.50569476079545,230.96547732800536 145.5694760820188,230.9813043874965 142.20045558086713,230.58562693244312 134.15034168565762,230.94173673273326 134.0,228.3143993344347 134.95671981776832,228.2115198563697 136.2756264236814,228.30648553327774 136.2824601366592,230.58562693244312 142.39863325739861,230.34030589768372 146.1161731207103,230.7043303806713 154.57630979499663,229.86548878976464 157.8564920273202,229.7467840590689 158.0,230.00793422701827 157.90432801822317,230.03958873314696 154.87699316628277,230.16620662857895" stroke="#4DD2FF" stroke-linecap="round" stroke-linejoin="round" stroke-width="0.5"><title>2025-05-25 7.6km</title><desc>1748179850000</desc></polyline><polyline fill="none" points="188.650939274783,231.32496844143316 188.5880297072872,230.80591482914315 188.28134556571604,230.80591482914315 188.08475316729164,229.83154288765945 187.92747924855212,229.61299071281246 180.33901266928297,230.25953934815334 179.09654871124076,230.48719620460906 174.11096548708156,230.02277560210496 164.80034949761466,230.44166487974144 164.66666666665697,228.8571603200544 166.978593272157,228.67503155855957 166.96286588028306,230.0045629802844 167.26955002185423,230.04098822022934 173.8042813455686,229.75869222213805 178.53822629965725,230.16847644315567 188.36784622105188,229.22141672924045 188.66666666665697,231.2248004352732" stroke="#4DD2FF" stroke-linecap="round" stroke-linejoin="round" stroke-width="0.5"><title>2025-05-24 6.6km</title><desc>1748094255000</desc></polyline><polyline fill="none" points="35.33333333331393,257.73603308068414 35.072253558959346,255.59730025264435 25.18990061781369,256.43712177256384 23.81681439699605,256.6722706477449 22.25033575075213,256.6946657524313 17.734622616204433,256.1459843726334 11.33333333331393,256.4035290350075 17.705613752361387,256.13478676493105 22.192318023124244,256.70586330309743 32.43244695139583,255.8436485638449" stroke="#4DD2FF" stroke-linecap="round" stroke-linejoin="round" stroke-width="0.5"><title>2025-05-18 4.7km</title><desc>1747565909000</desc></polyline><polyline fill="none" points="62.880618379596854,257.52597799246723 62.619524763838854,255.9903586267974 55.659318637277465,256.579148897079 54.498139135423116,256.7860200999785 53.5636988262122,256.778063525373 50.38247924420284,256.36432052921737 42.048096192389494,256.74623721892567 42.0,256.5075395067979 46.69281419983599,256.20518802374136 49.874033781845355,256.14949157019873 53.59118236473296,256.74623721892567 62.708846263965825,255.9346620199649 65.78013169195037,255.80735534086125 65.90380761525012,255.82326868710516 65.92442026911885,255.9346620199649 66.0,255.88692203963728" stroke="#4DD2FF" stroke-linecap="round" stroke-linejoin="round" stroke-width="0.5"><title>2025-05-17 5.7km</title><desc>1747487200000</desc></polyline><polyline fill="none" points="95.35513894428732,255.67448110455007 92.17683818639489,255.84077079434064 90.62598058767617,256.11791971234925 83.50352346757427,256.66112954320124 79.04241457249736,256.08466187948216 72.66666666668607,256.3396383383151 78.95625581702916,256.10683376920497 83.33120595663786,256.65004365537607 96.04440898814937,255.5414491696938 96.46562957053538,257.69211216996337 96.66666666668607,257.79188416364195" stroke="#4DD2FF" stroke-linecap="round" stroke-linejoin="round" stroke-width="0.5"><title>2025-05-11 5.0km</title><desc>1746965499000</desc></polyline><polyline fill="none" points="127.33333333334303,257.528947662664 126.94595887130708,255.8043856706645 116.05643232900184,256.79127746858285 111.6317551410757,256.282879907194 103.33333333334303,256.6317804788705 111.42515542803449,256.2928485122102 115.55714968914981,256.79127746858285 127.01482544239843,255.8243229772488" stroke="#4DD2FF" stroke-linecap="round" stroke-linejoin="round" stroke-width="0.5"><title>2025-05-10 5.3km</title><desc>1746870058000</desc></polyline><polyline fill="none" points="157.94759825326037,256.2621190340069 157.88646288210293,256.09018507901055 158.0,256.22166401256254 157.53711790393572,256.30257403892756 146.8384279476304,257.2431482543252 142.30567685590358,256.7071231812006 134.0,257.0509886553773 142.26200873363996,256.7071231812006 144.38427947598393,256.8790560672496 146.3144104803796,257.2330346004819 155.07423580787145,256.44416642634314" stroke="#4DD2FF" stroke-linecap="round" stroke-linejoin="round" stroke-width="0.5"><title>2025-05-05 5.4km</title><desc>1746434825000</desc></polyline></svg>