<?xml version="1.0" encoding="utf-8" ?>
<svg baseProfile="full" height="300mm" version="1.1" viewBox="0,0,200,300" width="200mm" xmlns="http://www.w3.org/2000/svg" xmlns:ev="http://www.w3.org/2001/xml-events" xmlns:xlink="http://www.w3.org/1999/xlink"><defs /><rect fill="#222222" height="300" width="200" x="0" y="0" /><text fill="#FFFFFF" style="font-size:12px; font-family:Arial; font-weight:bold;" x="10" y="20">Over 3km Runs</text><text fill="#FFFFFF" style="font-size:4px; font-family:Arial" x="10" y="280">Runner</text><text fill="#FFFFFF" style="font-size:9px; font-family:Arial" x="10" y="290">tang-hi</text><text fill="#FFFFFF" style="font-size:4px; font-family:Arial" x="65" y="280">SPECIAL TRACKS</text><rect fill="yellow" height="2.6" width="2.6" x="65" y="283" /><text fill="#FFFFFF" style="font-size:3px; font-family:Arial" x="70" y="285.5">Over 20.0 km</text><rect fill="red" height="2.6" width="2.6" x="65" y="287" /><text fill="#FFFFFF" style="font-size:3px; font-family:Arial" x="70" y="289.5">Over 40.0 km</text><text fill="#FFFFFF" style="font-size:4px; font-family:Arial" x="120" y="280">STATISTICS</text><text fill="#FFFFFF" style="font-size:3px; font-family:Arial" x="120" y="285">Number: 82</text><text fill="#FFFFFF" style="font-size:3px; font-family:Arial" x="120" y="290">Weekly: 3.7</text><text fill="#FFFFFF" style="font-size:3px; font-family:Arial" x="141" y="285">Total: 429.8 km</text><text fill="#FFFFFF" style="font-size:3px; font-family:Arial" x="141" y="290">Avg: 5.2 km</text><text fill="#FFFFFF" style="font-size:3px; font-family:Arial" x="167" y="285">Min: 3.2 km</text><text fill="#FFFFFF" style="font-size:3px; font-family:Arial" x="167" y="290">Max: 11.5 km</text><polyline fill="none" points="24.983409143227618,50.61443046329077 25.050832849170547,50.727272727272066 25.734701867215335,50.56929352400766 25.898445153259672,50.27590295005939 25.09899263922125,48.49297352719441 25.2242080931901,48.32370651587553 23.837206141091883,45.32199325230613 23.162969081138726,44.430490598220786 22.922170131118037,43.57283539341006 22.922170131118037,42.04935178565211 24.50181124312803,41.631800600247516 24.511443201161455,41.32710004757246 21.140257901104633,38.415472776207025 19.05975497298641,35.95519818599132 18.664844695013016,35.22161901164509 16.5361819769023,32.60326420897036 15.919736664916854,31.090909090911737 16.786612884898204,32.84027312778926 18.404781828983687,34.71375352926407 19.117546720954124,35.89876919917151 21.515904263069388,38.61861216026591 22.81621859309962,39.465022066186066 24.309172083158046,41.13525110168848 24.174324671155773,41.41738178420201 22.57541964313714,41.778507961076684 22.825850551133044,42.26376932221319 22.806586635124404,43.47127050133713 22.999225795152597,44.272502003361296 24.020213343203068,45.931370495767624 24.983409143227618,48.199577202387445 21.68927950708894,49.36187326051004" stroke="#4DD2FF" stroke-linecap="round" stroke-linejoin="round" stroke-width="0.5"><title>2025-10-04 5.0km</title><desc>1759568734000</desc></polyline><polyline fill="none" points="43.29093835430103,31.641186193555768 43.30633515084628,31.406642292284232 42.798240863514366,31.271328207381885 40.250071028392995,31.090909090911737 42.767447270365665,31.289370097889332 43.32943034573691,31.46076786566846 43.30633515084628,31.72237431559188 43.79133424334577,32.3357931645005 43.68355666723801,32.462084728467744 43.76054065019707,32.76879202765849 43.94530220920569,32.976269864411734 46.76291598458192,40.21963373035396 43.36792233723099,41.473403391799366 43.76054065019707,43.21421824317804 44.49958688634797,45.568320247104566 44.82291961464216,47.38120475821779 45.37720429178444,48.6529065463983 45.16164913956891,48.878383593175386 45.338712300290354,49.18503141317342 45.4849818678922,49.96968401324557 45.39260108835879,49.77126680131187 45.15395074125263,49.69911497258727 44.907601995859295,49.82538063251559 44.838316411245614,50.05987350133364 45.184744334430434,50.673159472491534 45.46958507131785,50.727272727272066 45.65434663032647,50.52885729069385 45.63894983375212,50.24927111361467 45.33101390200318,49.74420987274061 45.107760351500474,49.68107700579276 44.930697190749925,49.78930474886147 44.86141160610714,50.15006289333542 45.19244273271761,50.673159472491534 45.52347385932808,50.700216104210995 45.677441825188,50.312403556854406 45.40029948667507,49.81636166304088 45.02307797028334,49.70813395454752 44.84601480953279,50.09594926964928 45.015379571996164,50.48376280844968 45.27712511396385,50.71825385389093 45.56196585082216,50.673159472491534 45.68514022350428,50.44768720535649 45.4849818678922,49.906551314430544 45.16934753782698,49.69911497258727 44.88450680099777,49.83439960100077 44.92299879246275,50.29436572074337 45.28482351225102,50.727272727272066 45.6466482320393,50.54689507686999 45.65434663032647,50.28534680123266 45.30022030885448,49.73519089462934 45.02307797028334,49.71715293552552 44.86911000442342,49.852437535111676 44.96149078395683,50.32142247346928" stroke="#4DD2FF" stroke-linecap="round" stroke-linejoin="round" stroke-width="0.5"><title>2025-10-02 5.0km</title><desc>1759403720000</desc></polyline><polyline fill="none" points="65.69475086007151,50.727272727272066 66.15793415499502,47.78835098663694 66.38180608086986,47.654355252139794 66.8604288189672,44.14359421988047 66.91446686998825,42.49089735123562 66.39724552404368,39.17647645439138 66.12705526864738,36.1924973374189 66.01125944493106,35.74578515631583 65.65615225216607,35.17399025049235 65.74878891112166,35.03104094260925 66.11161582550267,35.09358129341854 65.94178195067798,33.35136915339535 65.57123531471007,32.89570797127817 65.61755364420242,31.957574566658877 65.28560561619815,31.090909090911737 65.62527336581843,32.0290517500398 65.57123531471007,32.8689042987462 65.94178195067798,33.35136915339535 66.11161582550267,35.09358129341854 65.74106918953476,35.039975281149964 65.69475086007151,35.17399025049235 66.1424947118212,36.16569467059162 66.92218659160426,42.74997080631147 66.79867104630102,44.75999752727512 65.99582000175724,50.0841128420725 65.872304456454,50.093045650464774 65.80282696220092,50.3520966994256" stroke="#4DD2FF" stroke-linecap="round" stroke-linejoin="round" stroke-width="0.5"><title>2025-09-30 5.0km</title><desc>1759224370000</desc></polyline><polyline fill="none" points="88.40716763297678,50.727272727272066 88.45300624103402,50.108454538734804 88.62872090525343,49.984690372803016 89.39269770609098,44.91904877823981 89.53785329827224,43.00941098367912 88.76623672939604,36.47565712345386 88.62108113721479,35.88326274553401 88.29257111283368,35.31738972028688 88.34604948892957,35.21128811808012 88.73567765735788,35.273180735093774 88.55232322512893,33.46059298921318 88.18561436072923,33.062702816598176 88.22381320077693,32.12544321373571 87.85710433634813,31.09090909090446 88.20089389671921,31.92207423006039 88.19325412873877,33.053860792089836 88.55996299316757,33.49596091647254 88.75095719337696,35.23781353076629 88.65927997726249,35.30854792504397 88.34604948892957,35.19360450511158 88.30021088087233,35.29970612890611 88.75095719337696,36.34303186707257 88.96487069758587,39.004339983810496 89.50729422620498,42.275603828267776 89.54549306625267,43.58407491521211 88.6440004412434,50.16149627021514 88.4682857770531,50.21453796936839 88.38424832894816,50.63003016057337" stroke="#4DD2FF" stroke-linecap="round" stroke-linejoin="round" stroke-width="0.5"><title>2025-09-28 5.0km</title><desc>1759056716000</desc></polyline><polyline fill="none" points="111.89247067240649,31.090909090911737 111.94195145356935,31.777976421239146 112.0479816988227,31.78615575888398 111.98436355162994,32.604085327649955 111.56024257044191,35.3359098563451 111.41180022704066,35.65488931121945 111.41180022704066,36.43188525881851 110.77561875525862,40.292217110298225 110.83216821943643,40.64389068669698 110.33029172496754,44.11965157186205 110.35856645705644,45.42813444917556 110.96647319677868,50.66185339244112 111.39059417799581,50.727272727272066 111.04422871000133,47.81606090153218 111.10784685719409,47.63615110064711 110.73320665711071,45.1909735050649 110.70493192505091,44.111473487035255 111.84298989127274,36.022940957969695 112.01263828374795,35.71214190010505 111.94902013655519,35.47495233819791 112.26711087246076,32.99668856873177" stroke="#4DD2FF" stroke-linecap="round" stroke-linejoin="round" stroke-width="0.5"><title>2025-09-27 5.0km</title><desc>1758971882000</desc></polyline><polyline fill="none" points="133.59761558115133,50.727272727272066 133.67415104652173,50.13390664161125 133.8731432564964,49.92135661326756 134.7456475617655,43.24347923036839 133.9114109891525,36.184211542211415 133.4904659296153,35.32501444558875 133.55169430191745,35.209863675248926 133.85783616339904,35.34272993521881 133.92671808224986,35.280725705772056 133.7583400584117,33.53573143562244 133.3833162780793,33.057402028658544 133.4215840107936,32.074161109514534 133.0389066839125,31.09090909090446 133.42923755731317,32.05644495514571 133.40627691772534,33.101691898897116 133.78895424457733,33.59773690716247 133.94202517534723,35.27186795511079 133.55169430191745,35.209863675248926 133.5287336623296,35.35158767866233 133.98029290800332,36.414510354734375 134.30174186255317,39.7803466053374 134.7533011082851,42.88034390620305 134.65380500329775,44.63400782018289 133.85018261687947,49.97449416893505" stroke="#4DD2FF" stroke-linecap="round" stroke-linejoin="round" stroke-width="0.5"><title>2025-09-25 5.0km</title><desc>1758803583000</desc></polyline><polyline fill="none" points="157.07667313879938,31.09090909090446 157.0837418253941,32.61226458103192 156.4687660903728,36.1619822523935 156.4616974037781,37.257946409758006 155.90327116160188,40.25950320996344 155.94568328125752,40.63571224766929 155.4438065319846,44.307747292776185 155.68414187669987,47.41535215870681 156.10119438666152,50.727272727272066 156.50410952340462,50.66185339239746 155.80430954907206,44.258678885918926 157.5432064550405,32.50593421787926" stroke="#4DD2FF" stroke-linecap="round" stroke-linejoin="round" stroke-width="0.5"><title>2025-09-23 5.1km</title><desc>1758638106000</desc></polyline><polyline fill="none" points="178.93893467335147,50.727272727272066 178.84775002286187,50.69210185526754 178.87054618549882,49.96230303540506 179.03771804476855,49.80403259961895 179.40245664690156,47.640974296191416 179.9343671083625,42.98933646490332 179.1137052535778,36.174103464778455 178.68817688440322,35.29467944503267 178.77936153495102,35.1891479617334 179.13650141618564,35.22432513714011 178.9693295568577,33.48303777923138 178.6045909547538,33.0696967422482 178.61978839649237,32.014348962948134 178.22465491088224,31.09090909090446 178.63498583828914,32.09350049314526 178.61218967562309,33.07849125297071 178.9769282777561,33.4654488391825 178.95413211511914,34.054676383508195 179.1516988579533,35.215530844616296 178.7869602558203,35.17155936866038 178.72617048880784,35.285885159668396 179.18209374145954,36.349987195681024 179.50124001828954,39.726885473239236 179.95716327097034,42.7343245129814 179.82798501607613,44.6688791621782 179.14410013705492,49.19732658070279" stroke="#4DD2FF" stroke-linecap="round" stroke-linejoin="round" stroke-width="0.5"><title>2025-09-21 5.0km</title><desc>1758459157000</desc></polyline><polyline fill="none" points="11.110885045782197,56.59063849881932 11.090909090882633,57.16850570263341 11.72015166922938,57.13383375317062 11.889947285642847,57.27252148748812 12.249514473311137,57.14539107080782 14.846388606238179,57.13383375317062 15.076112087233923,57.27252148748812 16.893923980358522,57.26096418277302 17.163599371095188,57.38809447027597 17.802829926891718,57.22629226150457 21.15879034495447,57.22629226150457 22.906686395930592,57.26096418277302 23.096457967243623,57.41120905274147 24.374919078836683,57.318750694728806 30.727272727235686,57.5152246157013 30.098030148888938,62.25361051120126 29.758438916120213,62.773665235545195 23.12642189959297,62.738994994564564 22.756866734474897,68.86390695573209 23.08646998979384,63.143480481965526 28.909460834169295,63.17815059966961 29.768426893569995,63.3399443426315 30.078054193989374,62.32295127848192 30.3177656524349,60.38139381758083" stroke="#4DD2FF" stroke-linecap="round" stroke-linejoin="round" stroke-width="0.5"><title>2025-09-20 5.0km</title><desc>1758380898000</desc></polyline><polyline fill="none" points="44.18761738180183,52.90909090908826 44.06122326059267,53.06347086414462 44.06824515623157,53.615986155760766 44.17357359055313,53.68098770378856 44.11037652997766,54.477252379088895 43.6890627926623,57.247866653400706 43.48542781959986,57.979097813004046 43.520537297736155,58.539703841131995 43.02900460420642,61.87888442709664 42.90963237863616,62.04949575030332 42.95878564796294,62.43946312256594 42.4812967456819,65.89221629880922 42.51640622378909,67.200161525172 43.09922356039169,72.54545454545587 43.45031834152178,72.53733127075975 43.52755919334595,72.43985190999229 43.22561768160085,69.28795524994348 42.86047910925117,67.07018034779321 42.86047910925117,65.72973713777901 43.9839824087685,57.80035303583281 44.138464112445945,57.52411032169766 44.075267051841365,57.296615605358966 44.531690267293015,54.29037464695284" stroke="#4DD2FF" stroke-linecap="round" stroke-linejoin="round" stroke-width="0.5"><title>2025-09-18 5.2km</title><desc>1758195038000</desc></polyline><polyline fill="none" points="65.67185985762626,72.37733863907488 65.65656653919723,72.54545454545587 65.83243970139301,72.51006175004295 65.90890629362548,71.87298897254368 66.07713279660675,71.7579614464994 66.84944537840784,66.46653097148373 66.96414526682929,64.94452151489531 66.1459527296247,58.04205161436403 65.71009315375704,57.148230226033775 65.78655974604771,56.980084582581185 66.15359938886832,57.05973255945719 66.00066620434518,55.351709965580085 65.61068658385193,54.89151161693735 65.64891987995361,53.91800709116069 65.24364694097312,52.90909090909554 65.67185985762626,53.953407446533674 65.64891987995361,54.90036160811724 66.00066620434518,55.325160126980336 66.16124604808283,57.06858233016828 65.78655974604771,56.99778413931199 65.73303313142969,57.13938046343537 66.1000727742503,57.78541076903639 66.2377126403444,58.44028591061942 66.48240573558724,61.21017627084075 66.95649860758567,64.32509144314099 66.96414526682929,65.70552956932079 66.57416564627783,68.54597762486083 66.41358580254018,69.51931856836745 66.22241932191537,69.69628847997228 66.02360618204693,71.51020933585096 65.84773301985115,71.95262332460698" stroke="#4DD2FF" stroke-linecap="round" stroke-linejoin="round" stroke-width="0.5"><title>2025-09-16 5.1km</title><desc>1758026219000</desc></polyline><polyline fill="none" points="89.52388169433107,52.90909090908826 89.34811609753524,52.99044451852387 89.32702422593138,53.511105661404144 89.45357545564184,53.6575409977886 89.40436108852737,54.45479535296181 88.98955428006593,57.2451230831648 88.84894180260017,57.48917044708651 88.6942680774373,59.62048581405543 88.22321627795463,62.077122468239395 88.2583693973138,62.516380683271564 87.77325635013403,66.2743802761106 88.43413499413873,72.54545454545587 88.82081930711865,72.46412079681613 88.138848791481,65.97342143554124 88.53959435221623,63.020711218516226 88.73645182061591,62.30488628787134 89.12313613362494,58.93716950787348 89.32702422593138,57.70881243868644 89.44654483176419,57.52171003940748 89.39733046462061,57.10682924679713 89.62934105243767,55.55304090350546" stroke="#4DD2FF" stroke-linecap="round" stroke-linejoin="round" stroke-width="0.5"><title>2025-09-14 5.0km</title><desc>1757842188000</desc></polyline><polyline fill="none" points="111.83525164530147,52.90909090908826 111.95526948600309,53.971080139082915 111.47519812325481,57.18963874128531 111.27046180676552,57.91665571462363 111.32694079063367,58.21889679162996 110.96688726855791,60.92267859227286 110.70567196820048,62.066244747569726 110.74097133317264,62.499161977437325 110.25384009740083,66.11760542176489 110.49387577877496,69.25400257671572 110.91040828468977,72.54545454545587 111.32694079063367,72.45561521236232 110.60683374648215,66.15844471221499 112.34356250002747,54.175307228957536" stroke="#4DD2FF" stroke-linecap="round" stroke-linejoin="round" stroke-width="0.5"><title>2025-09-13 5.1km</title><desc>1757760467000</desc></polyline><polyline fill="none" points="134.64289686016855,52.90909090908826 134.60767077695346,54.44985105505475 134.21313864502008,57.14814807165385 134.0581438788795,57.47422011575691 133.88201346283313,59.42247296957066 133.42407438109512,62.10430015804741 133.46634568093577,62.43035206464265 132.97318051601178,65.92717548269866 132.987270949292,66.8319231677524 133.6142952304508,72.54545454545587 134.02996301234816,72.48840274703252 133.74815434662742,69.37494312805211 133.3606674313196,67.08459862745076 133.33248656475917,66.15540108572895 134.4667664441222,57.955173962218396 134.635851643543,57.490523683176434 134.57948991042213,57.27857704828784 134.81902727624401,55.60743974112847" stroke="#4DD2FF" stroke-linecap="round" stroke-linejoin="round" stroke-width="0.5"><title>2025-09-11 5.0km</title><desc>1757592265000</desc></polyline><polyline fill="none" points="156.10076528435457,72.46603550257714 156.25328614228056,72.38661638707708 156.27616427096655,71.81303172972548 156.45156325760763,71.6894899230465 156.55832785816165,71.06295376901107 156.79473518795567,68.8303304371293 157.2675498475728,66.17405161658098 157.32855819072574,64.33843604570575 156.52782368654152,57.957604976974835 156.09313924142043,57.136800127933384 156.16939967038343,56.99558560789592 156.54307577235159,57.02206334789662 156.37530282861553,55.35394995233946 156.00162672664737,54.868514105874056 156.05500902695348,53.985896519712696 155.65845479629934,52.90909090908826 156.04738298404845,53.87115557422658 156.0092527695815,54.912644749565516 156.37530282861553,55.31864561868133 156.53544972947566,57.048541079842835 156.1617736275075,56.99558560789592 156.09313924142043,57.11032242293004 156.35242469992954,57.454531958006555 156.56595390106668,58.10764373395796 156.89387374563375,61.620241701893974 157.32855819072574,64.46198831192305 157.2675498475728,66.27995133084187 156.35242469992954,72.49250852495607 156.1846517561935,72.54545454545587" stroke="#4DD2FF" stroke-linecap="round" stroke-linejoin="round" stroke-width="0.5"><title>2025-09-09 5.2km</title><desc>1757417515000</desc></polyline><polyline fill="none" points="179.77781701582717,52.90909090909554 179.72145533992443,53.528659392672125 179.88349515813752,53.5694203093808 179.78486222532229,54.572132339722884 179.4114661225176,57.05847802884091 179.22829067587736,57.55573792148061 178.9957987628295,60.07459725217632 178.58717661260744,62.15320803086797 178.62240266002482,62.58522625864862 178.150373624434,65.92717548483779 178.13628320547286,66.9215822948463 178.41104637546232,69.47274998050852 178.7844424782379,72.49655300644372 179.19306462843088,72.54545454545587 179.17897420946974,72.22759400955692 179.39737570355646,72.02383659388579 179.39737570355646,71.90973221521563 179.05920564819826,71.6652222863122 178.51672451771447,66.13909928059002 179.58759635969182,58.41166986377357 179.82008827276877,57.60464856413455 179.7496361779049,57.29488065714395 180.0455349763215,55.150927888505976" stroke="#4DD2FF" stroke-linecap="round" stroke-linejoin="round" stroke-width="0.5"><title>2025-09-07 5.0km</title><desc>1757247375000</desc></polyline><polyline fill="none" points="20.391633957304293,94.30107867245533 20.56926843331894,94.36363636363967 20.615607861807803,93.73805744967831 20.839581766311312,93.39845560434333 21.581012622540584,88.4383318293767 21.72003090812359,86.54358006862458 20.878197956713848,79.65241686195077 20.43025014779414,78.80327376788046 20.507482528599212,78.6870746011773 20.878197956713848,78.74964340232691 20.716009956930066,77.0066387096158 20.353017766901758,76.53289299891185 20.391633957304293,75.63902621348825 20.098150910052937,74.72727272727207 20.391633957304293,75.54963903495809 20.360741004988085,76.52395437604719 20.723733195016393,76.95300724788831 20.90136767097283,78.73176660653553 20.49203605245566,78.66025938704115 20.45341986202402,78.78539698299574 20.739179671159945,79.21443881667074 20.92453738526092,79.8669359247142 21.202573956310516,82.89696176983125 21.712307670037262,86.3648277948887 21.712307670037262,87.42839847225696 21.179404242080636,91.2356972940106 20.793242337793345,93.66656243330362 20.615607861807803,93.91679473629483" stroke="#4DD2FF" stroke-linecap="round" stroke-linejoin="round" stroke-width="0.5"><title>2025-09-04 5.0km</title><desc>1756985562000</desc></polyline><polyline fill="none" points="44.08685157209402,74.77641054882406 44.171782020654064,74.72727272727207 44.221324782382,74.84192759759753 44.19301463285228,75.33330376590311 44.27086754408083,75.33330376590311 44.2142472450214,76.21777331975318 43.83206022621016,78.70733921588544 43.577268880355405,79.70641969884309 43.612656567274826,80.09949715033144 43.00398835213855,83.85001477829792 43.03937603911618,84.19393997573934 42.558103496878175,87.58398127969122 42.6005687211873,89.24619583368622 43.18092678679386,94.35544871815364 43.513571043877164,94.36363636363967 43.584346417716006,94.26538456282287 43.2517021606327,91.36690259062743 43.336632609250955,91.17857953647763 43.110151412925916,90.11413661484403 42.90490282874089,87.87057244046446 43.29416738494183,84.81627707998268 43.49941596912686,84.03835494910163 43.88160298790899,80.63997551654757 44.09392910945462,79.40342118847911 44.2142472450214,79.23963773568539 44.14347187115345,79.01852954657807 44.45488351609674,76.70095166187093" stroke="#4DD2FF" stroke-linecap="round" stroke-linejoin="round" stroke-width="0.5"><title>2025-09-02 5.1km</title><desc>1756811867000</desc></polyline><polyline fill="none" points="66.67390218970831,74.72727272727207 66.64540188541287,76.1700724056791 66.26777285357821,78.80002410329325 66.03264534316259,79.69864009901357 66.03977041924372,80.39938878676185 65.46263925739913,83.9112851805694 65.0137594648113,87.87641278938099 65.04225976907765,89.07992672022374 65.60514077884727,93.68773636914557 66.16089671247755,94.36363636363967 66.03264534316259,94.2976951484452 65.93289427817217,93.51463912412873 65.71914199597086,91.47041517438629 65.77614260456176,91.26434135587624 65.3985135727271,88.84911721219396 65.38426342056482,87.68681650223152 66.53140066826018,79.5749779377802 66.68815234187059,79.24521125316824 66.77365325469873,77.81895491094474 67.19403274299111,75.54348826828209" stroke="#4DD2FF" stroke-linecap="round" stroke-linejoin="round" stroke-width="0.5"><title>2025-08-31 5.1km</title><desc>1756640573000</desc></polyline><polyline fill="none" points="89.33315681983368,74.72727272727934 89.39669562500785,76.31208227200113 88.95898385578766,79.04866438526369 88.81072664362728,79.29372689637967 88.74012797116302,79.7838496780023 88.67658916595974,81.03364924954076 88.28123660021811,83.73739754436247 88.17533859150717,83.91709964745678 88.21769779498572,84.3091755695059 87.73762682228698,87.67441529181815 87.76586629127269,89.06294404633809 88.32359580369666,93.90627144159225 88.8601457143377,94.36363636363967 88.747187838424,94.18395759720443 88.47185301585705,91.05584931093472 88.12591952082585,88.97309879343084 88.12591952082585,87.42937831748714 88.66952929872787,84.12947434248781 89.07194173173048,80.68240035205963 89.39669562500785,79.33457057560736 89.34727655429742,79.02415809307422 89.66497058034292,76.6551812556354" stroke="#4DD2FF" stroke-linecap="round" stroke-linejoin="round" stroke-width="0.5"><title>2025-08-30 5.0km</title><desc>1756550382000</desc></polyline><polyline fill="none" points="110.90179061694653,94.35480408910371 111.16894203735865,94.36363636363967 112.02382658276474,88.41931264036975 112.14595294636092,86.4318923241226 111.64218169642845,82.88092153213074 111.42846056006965,80.19551391543064 111.29870129874325,79.60365304762672 110.90942351464764,78.99412047676742 110.96285379875917,78.85277897996275 111.35976448052679,78.91461591310508 111.16894203735865,77.12132698109781 110.81782874191413,76.75913112700073 110.84072743513389,75.69020285008446 110.45144965103827,74.72727272727934 110.848360332835,75.73437370057218 110.8025629464828,76.71496079757344 111.16894203735865,77.1478290574887 111.34449868506636,78.89694822242018 110.96285379875917,78.86161283024558 110.90942351464764,78.9764528022497 111.23000521917129,79.47998011820164 111.43609345779987,80.32801952749287 111.65744749188889,83.1105906991288 112.14595294636092,86.30822911344148 112.05435817371472,88.18082460227015 111.2758026055235,93.52456627631182" stroke="#4DD2FF" stroke-linecap="round" stroke-linejoin="round" stroke-width="0.5"><title>2025-08-28 5.0km</title><desc>1756381580000</desc></polyline><polyline fill="none" points="134.5604971772409,74.72727272727934 134.72220136210672,75.56521094566415 134.69407889517606,76.32992360775825 134.25818065780913,79.06330490303662 134.10350708969054,79.34802675536048 134.082415239478,80.24286027200287 133.46372096709092,83.88716985473002 133.51293528423412,84.35083128038968 133.04188396318932,87.41743663406669 133.00673087954056,88.66194059333066 133.11922074723407,88.7920836815174 133.0770370468381,89.32078780296433 133.6113639184623,93.93256655531877 134.20193572391872,94.36363636363967 134.01210907218046,94.19283539625758 133.35826171611552,88.80835155266686 133.33013924921397,87.7590670972786 133.815251803695,84.33456250387826 133.93477228816482,84.16374015097244 134.04726215585833,82.73207182259648 134.53940532708657,79.91746742289979 134.5042522434087,79.53512913565646 134.63783396128565,79.35616165055399 134.58158902745345,79.11211443534557 134.78547691268614,77.71289604422782" stroke="#4DD2FF" stroke-linecap="round" stroke-linejoin="round" stroke-width="0.5"><title>2025-08-26 5.0km</title><desc>1756206850000</desc></polyline><polyline fill="none" points="157.11124512847164,74.72727272727207 157.12536486866884,75.39714449064195 157.2383227905375,75.4216518883477 157.17478395949001,76.25489896540239 156.77943123312434,78.96697671490256 156.64529370094533,79.26922067818668 156.4829166883428,81.10716626563226 155.99578565047705,83.8762582946656 155.91812707923236,85.15866684250796 155.55807370343246,87.56823269370216 155.62161253447994,89.38965321032447 156.16522253322182,94.24929537685239 156.18640214356128,94.36363636363967 156.60999435040867,94.31463310347317 156.306419935514,91.14569223712897 155.93224681945867,88.98943430064537 155.8969474688929,87.89494792961341 156.3487791561929,84.55422204916249 156.51115616882453,84.08863309757726 157.0547661675373,79.63681315646681 157.21714318016893,79.31006436985626 157.1606642192637,79.04866438458703 157.42893928356352,77.01461671536526" stroke="#4DD2FF" stroke-linecap="round" stroke-linejoin="round" stroke-width="0.5"><title>2025-08-24 5.0km</title><desc>1756042259000</desc></polyline><polyline fill="none" points="178.84057601899258,94.36363636363967 179.05961745692184,94.04680916603684 179.81843958119862,88.87784058098623 179.9592519341968,86.60557208453974 179.54463778377976,83.98922300533741 179.13002363339183,79.9966529031517 178.6762949405529,79.0731758229158 178.7858156595321,78.9464233192557 179.12220072490163,78.98263833871897 178.95009673794266,77.20808506244066 178.57459713006392,76.78254917224695 178.6371803980146,75.86809282443573 178.21474333913648,74.72727272727207 178.61371167257312,75.69606533307524 178.59024294704432,76.7916031485147 178.96574255495216,77.23524685870507 179.14566945040133,78.99169209126558 179.05179454846075,79.08222956625832 178.7232323914941,78.96453083082451 178.7232323914941,79.09128330868407 179.02832582296105,79.64355985634757 179.20042980989092,80.3135300863214 179.4038254308398,82.77608004777721 179.9670748426579,86.69610181873577 179.84190830669831,88.76015479151829 178.98138837196166,94.29121881783067" stroke="#4DD2FF" stroke-linecap="round" stroke-linejoin="round" stroke-width="0.5"><title>2025-08-23 5.0km</title><desc>1755956696000</desc></polyline><polyline fill="none" points="21.602330979745602,96.54545454545587 21.609441134292865,97.08845948099042 21.701873143727425,97.18718725987128 21.6663223709038,98.0099140689781 21.23971309661283,100.65903760200308 21.083289696049178,100.99634214258549 20.72067181294551,104.37753686159704 20.535807794105494,105.49634393435554 20.41493516639457,105.61151437330409 20.471816403005505,106.01460962009878 19.959885273885448,109.88915753903711 20.61401949438732,116.05021198279428 20.635349958087318,116.14891665209143 21.019298304920085,116.1818181818162 20.315393002383644,109.72463697886269 21.37480603347649,102.02470097331388 21.509898970311042,101.18556114776584 21.637881752598332,101.02924982739933 21.581000516016502,100.71662628155173 21.858296544261975,98.57759069337044" stroke="#4DD2FF" stroke-linecap="round" stroke-linejoin="round" stroke-width="0.5"><title>2025-08-21 5.0km</title><desc>1755781186000</desc></polyline><polyline fill="none" points="44.05386132525746,96.54545454544859 44.07504975696793,98.06554397585569 43.65128112307866,100.79509482470894 43.50296210122178,101.08112024084403 43.43939680614858,101.56327506878733 43.517087722342694,101.8002653655567 42.86024633987108,105.67373194798711 42.90262320326292,106.08231459592935 42.436477705981815,109.43261404932855 42.46472894825274,110.84623514234409 43.05800503568025,116.1818181818162 43.467648048419505,116.10828268784098 43.18513562582666,113.01156034155429 42.817869476479245,110.8053793898871 42.796681044768775,109.24467411466321 43.25576373146032,106.1231727465929 43.375831511075376,105.94339672843489 43.86316544003785,101.8819859956784 44.0962381886784,101.09746451961837 44.10330099920975,100.19852425540012 44.57650930705131,97.19108743687684" stroke="#4DD2FF" stroke-linecap="round" stroke-linejoin="round" stroke-width="0.5"><title>2025-08-19 5.3km</title><desc>1755607955000</desc></polyline><polyline fill="none" points="65.89113196256221,116.08509824939392 66.23307433255832,116.1818181818162 66.23307433255832,115.5311547357851 66.36225256120088,115.24099243240926 66.52182566720876,113.23620811403816 66.98534754649154,110.20256456804054 66.93975523050176,108.21525054955418 66.42304231587332,104.88244004629814 66.18748201656854,102.13871075392672 66.04310634921421,101.41758797044167 65.6707691019692,100.79319631323597 65.75435501459287,100.64369341656857 66.11909354256932,100.72284204111202 65.95952043656143,99.07829462559312 65.56438703127787,98.5418312174952 65.5947819086141,97.50407288438873 65.22244466131087,96.54545454545587 65.62517678597942,97.54804594776942 65.57958446993143,98.53303670767491 65.9367242785811,98.9199942939158 66.11909354256932,100.71404775307019 65.73915757593932,100.66128200606181 65.70116397927632,100.77560775056918 66.14188970057876,101.78694429357711 66.36985128052766,104.43395178560604 66.93215651117498,108.32077279556688 66.9245577918191,109.22650011325459 66.36225256120088,113.12189883645624 66.19508073586621,113.20103604470933 66.0886986652331,113.46482621612813 65.89113196256221,114.75738643117802" stroke="#4DD2FF" stroke-linecap="round" stroke-linejoin="round" stroke-width="0.5"><title>2025-08-17 5.0km</title><desc>1755429603000</desc></polyline><polyline fill="none" points="88.41888145665871,116.13765680020879 88.31965377615415,116.1818181818162 88.43414725369075,116.06699854295584 88.5639065282594,114.12387395912083 88.67076710727997,113.4437700916751 89.02188043843489,113.15229537648702 89.01424753988977,112.48101655677601 89.4874872470682,109.81351527148945 89.55618333359598,108.61222967521462 88.72419739677571,101.64267894459772 88.28912218211917,100.7946346202807 88.373084065679,100.69746234614286 88.73946319377865,100.72396388623747 88.57917232523323,99.01018098487111 88.21279319710447,98.55081075013732 88.23569189262344,97.55255551871232 87.84641406900482,96.54545454545587 88.2585905881424,97.57022385262826 88.20516029858845,98.50664040724223 88.57153942671721,98.9395087991943 88.75472899081069,100.71513004043663 88.36545116716297,100.67096079798648 88.31202087763813,100.8034684579834 88.76999478778453,101.74868390306801 89.55618333359598,108.19707564476266 89.54855043505086,109.24820647125307 89.03714623540873,113.01097395056422 88.65550131027703,115.44873634191026 88.49521044173161,115.5723891339585 88.44178015220677,115.94334645457275" stroke="#4DD2FF" stroke-linecap="round" stroke-linejoin="round" stroke-width="0.5"><title>2025-08-16 5.1km</title><desc>1755350047000</desc></polyline><polyline fill="none" points="111.18415629977244,116.12880066895741 110.90924830231233,116.1818181818162 111.0390659677796,116.04927433908597 111.40560996439308,113.30998968944914 111.61179096245905,113.2039511293915 111.56597296288237,112.91234442250425 112.11578895780258,109.66925845893275 112.15397062411648,108.26417820712959 111.32924663173617,101.66264811815199 110.91688463557512,100.8318979726464 111.0008843014657,100.67281725171779 111.33688296502805,100.72584419104533 111.16888363324688,98.98477610871487 110.80997596989619,98.57822726951417 110.86343030273565,97.70325701237016 110.43579564001993,96.54545454545587 110.83288496968453,97.47346538325655 110.82524863645085,98.53403706369863 111.16888363324688,98.94942411124066 111.36742829807918,100.71700637006143 110.97033896841458,100.68165507719095 110.93215730207157,100.80538453938061 111.26051963237114,101.33565166805784 111.3979736311303,101.86591556165513 111.64233629553928,104.7027724444415 112.12342529106536,107.9018582329154 112.16160695737926,109.18322697855183 111.58124562940793,112.90350784034672 111.62706362898462,113.16860491398984 111.38270096460474,114.5294238355782 111.18415629977244,114.98007995310763" stroke="#4DD2FF" stroke-linecap="round" stroke-linejoin="round" stroke-width="0.5"><title>2025-08-14 4.9km</title><desc>1755170321000</desc></polyline><polyline fill="none" points="134.69820610250463,96.56188176949217 134.5278481117275,96.54545454545587 134.5775358590763,98.0321048029 134.16583738141344,100.82463358395034 134.01677413951256,101.12030745453376 134.01677413951256,101.89233968523331 133.5979774122825,104.84077791817253 133.46311066963244,105.6456253846045 133.35663692539674,105.71132686493365 133.42052117193816,106.12195990740292 132.93074194854125,109.49728450066323 132.97333144623553,110.93442374279402 133.56958441380993,116.11612520703056 133.9741846418474,116.1818181818162 133.2785561796336,109.67795483746158 134.43557086674264,101.48168516113947 134.59883060789434,101.14494689491403 134.5278481117275,100.85748628964939 134.86146584362723,98.52491100916086" stroke="#4DD2FF" stroke-linecap="round" stroke-linejoin="round" stroke-width="0.5"><title>2025-08-12 5.0km</title><desc>1754999139000</desc></polyline><polyline fill="none" points="157.0229908931069,96.61124596043373 157.11538414403913,96.54545454545587 157.1224913172191,97.9352868187998 156.6818465819524,100.76422079688928 156.53259594584233,101.04381936778373 156.38334530970315,102.94341938302387 155.91427188186208,105.69817138224607 155.43809128087014,109.66978316109453 155.48073431977537,110.88671837991569 155.97823644021992,115.00607281758857 156.49706008011708,116.1818181818162 155.80055711147725,109.71911872835335 156.8524187375442,102.12931054907676 157.10827697088826,101.0767132537876 157.04431241255952,100.84645577092306 157.3428136848379,98.62608214663487 157.54892170615494,97.78725848149043" stroke="#4DD2FF" stroke-linecap="round" stroke-linejoin="round" stroke-width="0.5"><title>2025-08-10 5.0km</title><desc>1754830447000</desc></polyline><polyline fill="none" points="178.81168032146525,116.1818181818162 179.87504467641702,109.85227468852827 179.94389560588752,108.36498654488969 179.37778796369093,104.44302756205434 179.11003434908343,101.58333889699861 178.68162856576964,100.82191989107378 178.74282939199475,100.66255227974034 179.13298465890693,100.7422361218778 178.96468238692614,98.98917474912741 178.59747742977925,98.55533088010998 178.62042773957364,97.56367963283992 178.23027247266145,96.54545454545587 178.63572794618085,97.59909594328929 178.60512753305375,98.56418485823815 178.96468238692614,98.9980286831269 179.14828486545593,100.71567484927073 178.75812959851464,100.69796732968825 178.71222897886764,100.79535864278296 179.14828486545593,101.73385116818099 179.50018961602473,105.21326820742979 179.91329519278952,107.7452756556886 179.95154570913292,109.1528983082535 179.06413372943643,115.43823131940735 178.81933042468154,115.6949465487778" stroke="#4DD2FF" stroke-linecap="round" stroke-linejoin="round" stroke-width="0.5"><title>2025-08-09 5.0km</title><desc>1754735080000</desc></polyline><polyline fill="none" points="21.498739029600983,118.3636363636324 21.541364194941707,119.74466659722384 21.264300620241556,121.91480933663843 20.90909090905916,123.41085869400558 20.83094477263512,124.7671432719435 20.354963759629754,127.54540070320218 20.383380536572076,127.9728164577682 19.900295329396613,131.22767777222907 19.886086940940004,132.34547873520933 20.497047644137638,137.5397630348234 20.973028657055693,138.0 20.276817623205716,132.64136464147305 20.312338594318135,130.89069062992348 21.32823836823809,123.90405571629526 21.45611386426026,123.1067190317699 21.576885166054126,122.95053876097518 21.520051612285897,122.61351714946795 21.93209487720742,119.82687003440515" stroke="#4DD2FF" stroke-linecap="round" stroke-linejoin="round" stroke-width="0.5"><title>2025-08-07 5.0km</title><desc>1754570205000</desc></polyline><polyline fill="none" points="43.84680858781212,118.36363636363967 43.89072021120228,118.92256189510226 44.03709228918888,118.98184165587008 43.98586206193431,119.37986181466113 44.38106667250395,119.43914125017182 44.424978295865,119.80328542889038 44.02245508140186,121.81875234434847 43.9053574190184,122.89421264817793 43.98586206193431,123.18212880009378 43.86144579562824,123.30068222062982 43.62725047086133,124.68097035041137 42.59532732103253,132.18324110718822 43.23204586029169,138.0 42.58800871713902,132.04776590490656 43.041762158914935,128.6184765407088 43.21009004858206,128.15275969939103 43.612613263045205,124.68097035041137 43.817534172238084,123.40229930404894 43.94926904240856,123.17366069215495 43.89803881512489,122.84340381227958 44.300562029588036,119.87950145102513" stroke="#4DD2FF" stroke-linecap="round" stroke-linejoin="round" stroke-width="0.5"><title>2025-08-05 5.0km</title><desc>1754406000000</desc></polyline><polyline fill="none" points="65.80655158872833,138.0 66.14637389176642,135.18485984429572 66.35490121410112,135.02399197068007 66.67927704885369,132.8433095404107 66.91869730781764,131.09157464955206 66.93414377616136,130.00119143232587 66.37034768244484,126.13111559839308 66.15409712595283,123.55692924583127 65.96101627190365,122.88655584544176 65.66753337383852,122.46645257547789 65.73704248128342,122.33237664112676 66.11548095513717,122.36813024363073 65.93784656946082,120.60724804225174 65.57485456392169,120.22288835373183 65.60574750058004,119.13237032075267 65.27364843167015,118.36363636363967 65.61347073470824,119.2485737060124 65.57485456392169,120.13350213875674 65.95329303777544,120.59830946392321 66.12320418929448,122.35919184436352 66.02280214522034,122.44857579602103 65.652086905553,122.37706864196662 66.14637389176642,123.4228549747495 66.46302649233257,126.8104022051557 66.93414377616136,130.028004296546 66.92642054197495,131.13626219787693 66.02280214522034,137.3207998293583 65.97646274027647,137.472726638749 65.77565865209908,137.48166350170504 65.69842631046777,137.82126362152485 65.48217575397575,137.8033899637012" stroke="#4DD2FF" stroke-linecap="round" stroke-linejoin="round" stroke-width="0.5"><title>2025-08-03 5.0km</title><desc>1754221111000</desc></polyline><polyline fill="none" points="98.51948051947693,127.11941729258433 98.45910737992381,127.36974694663695 98.30314343611826,127.38430092900126 95.23920660429576,127.32317415337275 95.15619353743386,127.27077967045079 95.03544725834217,127.32026335127557 94.6455373987992,127.317352548891 94.61283528154308,127.2853337030956 93.9160286293336,127.32608495516797 93.57391417190956,127.27369047757202 92.46958882777835,127.27077967045079 91.99163480638526,127.19509858149286 91.66712918133999,127.1106848233012 91.64700480148895,127.07866574651416 91.19672180240741,127.06411160886273 90.20811164237966,126.88946138031679 88.75412519840756,126.87781799388358 85.72037493635435,127.25622563040997 85.31034069696034,127.44542757420459 84.8701198877825,127.57932357934078 83.68781257174851,128.2982762096708 83.06144124898128,128.61554106596304 82.67656248439744,128.72614633676312 82.45016321112053,128.72905699601688 82.1633907982905,128.65920109229592 81.8590095530817,128.78435946567697 81.75587210635422,128.5806129970133 81.6326102798048,128.66211175834906 81.53198838056414,128.4729178496691 79.81890054602991,129.48581836975245 79.68809207701997,129.1569206899767 79.15982710602111,128.14691926053456 79.10951615640079,128.11199062025116 78.88311688312388,128.22259783505615 79.03153418448346,128.1090798983114 79.10448506144166,128.10034773070038 79.12712498876499,128.02757956377172 79.2176846980874,128.03340102392394 79.33843097717909,127.95190047409596 79.3736486419075,127.99265077799646 79.46420835121535,127.93443604040112 79.43402178144606,127.98974004392403" stroke="#4DD2FF" stroke-linecap="round" stroke-linejoin="round" stroke-width="0.5"><title>2025-08-02 8.3km</title><desc>1754134728000</desc></polyline><polyline fill="none" points="111.82356988522224,118.36363636363967 111.71789164634538,118.38809310501529 111.6544847030018,119.0484223037347 112.18287589747342,119.0484223037347 112.18287589747342,119.57831217467174 110.42157191585284,131.23500413567672 110.4286171317799,132.4657867726055 111.1613195881364,138.0 110.46384321141522,132.62065212532616 110.41452669992577,131.42247555703943 111.457218657044,123.97218720758246 111.71789164634538,122.96137270199688 111.64743948707473,122.73312250301387 111.97856463558855,120.32830416385696" stroke="#4DD2FF" stroke-linecap="round" stroke-linejoin="round" stroke-width="0.5"><title>2025-07-31 5.0km</title><desc>1753965181000</desc></polyline><polyline fill="none" points="133.507319045224,138.0 133.59200485431938,137.28732326500176 133.807568732067,137.02897651782405 134.5928371437767,131.62133708893816 134.6775229528721,129.62568241560803 134.2771900370717,127.20232636400033 133.85376099156565,123.20186038457177 133.44572936583427,122.41778328662622 133.53041517495876,122.30195312055002 133.86915841139853,122.3465032025415 133.7228829229134,120.57339244992909 133.33024871707312,120.1457020730304 133.37644097660086,119.15666008032713 133.06849257982685,118.3636363636324 133.38413968650275,119.17448075555876 133.3533448468079,120.16352254708181 133.7228829229134,120.6268536002317 133.8999532510643,122.3286831724763 133.79987002210692,122.41778328662622 133.491921625362,122.2930431014247 133.46112678569625,122.42669329306955 133.92304938082816,123.45133798987081 134.19250422797631,126.445013855664 134.72371521237073,130.26714780170005 134.16940809821244,134.88199651011382 133.76137647253927,137.43876755592646 133.61510098405415,137.50112689381785" stroke="#4DD2FF" stroke-linecap="round" stroke-linejoin="round" stroke-width="0.5"><title>2025-07-29 5.0km</title><desc>1753797916000</desc></polyline><polyline fill="none" points="157.33573250137852,118.36363636363967 157.3215774424607,119.86232644442498 156.99601108644856,122.15535022805852 156.74122002522927,122.91694726832065 156.57135931777884,125.0133492695386 156.09716484273667,127.51913326120848 156.15378507855348,127.9613223517008 155.68666813298478,131.06476643322821 155.71497825093684,132.71060783132998 156.29533566811006,138.0 155.75036589830415,133.40660030627623 155.65128048564657,131.66251371126418 156.10424237223924,127.65015250379656 156.7341424957558,123.64578070874995 156.67044473046553,123.44105287978891 156.97477849805728,122.19629648851696 157.3215774424607,119.4282824571128" stroke="#4DD2FF" stroke-linecap="round" stroke-linejoin="round" stroke-width="0.5"><title>2025-07-27 5.0km</title><desc>1753616848000</desc></polyline><polyline fill="none" points="179.6517623415275,118.3636363636324 179.6726637048996,120.08886463254748 179.28947204299038,122.81368146788736 179.1361953782034,123.10389313199266 178.92021462330013,125.47391532968322 178.53005584023776,127.63428206225217 178.5579243247339,128.0453899668646 178.04932448256295,131.39866119712678 178.68333250502474,138.0 179.10135977258324,137.93552071267914 178.80177356416243,134.70342933585198 178.4603846289683,132.4384689335202 178.44645038674935,131.22938888111094 179.40791310209897,124.45013891466078 179.728400673921,123.0958317112163 179.65872946268064,122.78143566189829 180.13249369923142,119.91150644707523" stroke="#4DD2FF" stroke-linecap="round" stroke-linejoin="round" stroke-width="0.5"><title>2025-07-26 5.2km</title><desc>1753529066000</desc></polyline><polyline fill="none" points="21.58683850883972,140.18181818182347 21.50212005886715,140.6066155572771 21.61507799217361,141.15394732809364 21.480940446374007,142.44465525767737 21.184425871499116,144.4541972471343 21.02910871320637,144.7401036117226 21.007929100713227,145.59781660610315 20.379600596788805,149.36347683210624 20.42901969255763,149.72287987014715 19.963068217766704,153.1452965170247 20.026607055217028,154.9667142594044 20.584336850850377,159.8181818181838 20.986749488220084,159.77734577013325 20.66905530085205,156.81259330129978 20.739654009143123,156.6574104108513 20.33724137180252,154.3541344199548 20.330181500932667,153.2596468263655 21.855113600409823,142.58352766104508" stroke="#4DD2FF" stroke-linecap="round" stroke-linejoin="round" stroke-width="0.5"><title>2025-07-24 5.0km</title><desc>1753356656000</desc></polyline><polyline fill="none" points="43.162083562172484,159.78275709061563 43.26157976832474,159.8181818181838 43.598336158291204,157.01958397674025 43.82028923352482,156.87788042981265 43.76671435331809,156.60332915194158 44.34073092712788,153.05179756018333 44.378998698754,151.98010997210076 43.80498212488601,148.19809884697315 43.56772194104269,145.3991277599489 43.10850868199486,144.43363902463898 43.177390670840396,144.291915006841 43.55241483237478,144.3627770445528 43.35342242012848,142.5823508760368 43.024319584452314,142.22803286898124 43.05493380172993,141.27136705066368 42.63398831425002,140.1818181818162 43.01666603013291,141.05877321968728 43.009012475813506,142.19260098902305 43.361075974447886,142.56463500990503 43.56006838672329,144.309630521675 43.46057218060014,144.40706578885874 43.1926977794501,144.30077276471275 43.10850868199486,144.40706578885874 43.376383083086694,144.78794806032238 43.56772194104269,145.4257006931075 43.91213188532856,148.95097129204805 44.35603803576669,151.829541238425 44.34838448147639,153.00751321017015 43.51414706080686,158.80857144015317" stroke="#4DD2FF" stroke-linecap="round" stroke-linejoin="round" stroke-width="0.5"><title>2025-07-22 5.0km</title><desc>1753184035000</desc></polyline><polyline fill="none" points="56.285714285681024,153.23860314654303 56.285714285681024,150.08763795541017 58.37340163695626,141.26478210883215 75.25643847684842,144.34580506253405 75.92207792203408,145.08104510433623 73.65285254048649,158.70020788372494 58.49442699062638,156.3195190265542 57.94981289899442,155.61931329104118 59.82570588123053,142.0000287258299 60.491345326416194,141.579887993983 64.51543833687901,142.24511058285134 75.89182158373296,144.76594242147985 73.89490324782673,158.42012769548455 73.25952014094219,158.73521789119695 58.191863606334664,156.1794779933116 58.37340163695626,151.69813487568172 59.85596221964806,142.07005213137018 60.340063634328544,141.6499114848848 67.78312288643792,142.91033188733854 60.18878194235731,141.71993496155483 59.34160446655005,145.57120426060283 60.098012926988304,146.30644168730942" stroke="#4DD2FF" stroke-linecap="round" stroke-linejoin="round" stroke-width="0.5"><title>2025-07-20 4.9km</title><desc>1753020627000</desc></polyline><polyline fill="none" points="89.82993918011198,140.18181818182347 89.6818051172886,141.1857885859572 89.13159288384486,142.5978558059578 88.66602868633345,144.71999107555894 88.53905663243495,146.3931735942242 88.10170844689128,149.19261569580704 88.00295240501873,149.28239210837637 88.05233042596956,149.68230400022003 87.5938202314137,152.98762200633792 87.57265822245972,154.08120346599753 88.20046448879293,159.8100214001024 88.12992445888813,158.68387575823726 88.2075184918067,159.8181818181838 88.60959666239796,159.73657760001515 87.93241237508482,153.34671009662998 89.01167483298923,145.46272517723264 89.23740292873117,144.7526388726401 89.26561894069891,143.79768532628077" stroke="#4DD2FF" stroke-linecap="round" stroke-linejoin="round" stroke-width="0.5"><title>2025-07-20 5.0km</title><desc>1752942252000</desc></polyline><polyline fill="none" points="112.14540601227782,140.1906050237376 112.02390578435734,140.18181818182347 111.83406167814974,141.14836543944693 112.04668707709061,141.280166501223 112.03149954858236,141.5613414283871 111.76571779994993,143.3538101000231 111.62143627923797,143.66133775620256 111.249341831106,147.16707575585315 110.93799749694881,148.599203534337 110.96837255396531,149.02092989484663 110.429215292359,153.0535843943435 111.1582166601147,159.8181818181838 110.48237164210877,154.17812555185083 110.46718411362963,152.4737371485826 110.96837255396531,149.0736455453589 110.94559126117383,148.6079895211442 111.49993605125928,145.269250268233 111.61384251495474,143.65255126691773 111.76571779994993,143.33623705807258 112.16818730504019,140.4629966800203" stroke="#4DD2FF" stroke-linecap="round" stroke-linejoin="round" stroke-width="0.5"><title>2025-07-17 5.0km</title><desc>1752765839000</desc></polyline><polyline fill="none" points="142.3211653212784,159.4038220877701 142.76342576358002,158.78971711733902 143.71428571431898,150.78062765880895 129.49561249569524,150.14091304148315 126.93050193064846,150.3456218959036 127.24008424009662,150.14091304148315 126.77571077574976,147.24938269479026 124.14426114433445,143.10394497564994 124.07792207796592,140.7753049594612 124.3875043875305,140.5961779122299 136.74868374876678,140.80089452718676 135.86416286427993,148.86147893090674 135.3113373114029,149.2197211371822 127.59389259386808,148.96383389900438 126.75359775358811,146.27700219659891 124.58652158651967,143.5133739609737 124.32116532116197,142.05478016176494 127.39487539487891,141.82447510522616 136.35064935067203,142.13154846716498 136.48332748340908,144.05074849372613 135.687258687336,150.29444469790906 134.49315549316816,150.3712104909646" stroke="#4DD2FF" stroke-linecap="round" stroke-linejoin="round" stroke-width="0.5"><title>2025-07-15 4.1km</title><desc>1752589649000</desc></polyline><polyline fill="none" points="157.28263398923445,140.1818181818162 157.34247304106248,141.57529241478915 156.87872038953356,144.483339129074 156.71416299702832,144.82087383572798 156.706683115568,145.6776867004737 156.0484535456635,149.69334125771275 156.07837307159207,150.14335971655964 155.57722101264517,153.87322892226075 156.17561153075076,159.8181818181838 155.83153698284877,157.4644800418755 155.56974113118486,153.68284512084938 156.6917233526474,145.6171042557762 156.62440441932995,145.34015538847598 156.848800863605,144.54392238002038 157.29011387075298,141.66184285747295 157.23775470038527,141.35891592333792 157.41727185584023,140.4414734937236 157.2527144633641,140.2337493075247" stroke="#4DD2FF" stroke-linecap="round" stroke-linejoin="round" stroke-width="0.5"><title>2025-07-13 5.0km</title><desc>1752418082000</desc></polyline><polyline fill="none" points="178.92037690649158,159.8181818181838 178.8196078884357,159.80921234342532 178.881619591848,159.1006209588304 179.2226839607465,156.9479033800817 179.42422199691646,156.76850787854346 179.77303782867966,154.32869285576453 179.9590729389456,151.80807782368356 179.44747638565605,148.30062536918558 179.18392664610292,145.36717571751797 179.02889738749946,144.793033486465 178.70333594447584,144.27271386225038 178.77309911086923,144.13814794278733 179.14516933143022,144.19197433521913 178.98238860993297,142.4874559624659 178.61031838934286,142.02095045721944 178.63357277814066,140.95336126840994 178.37002303858753,140.2177040563838 178.20724231703207,140.2177040563838 178.34676864976063,140.1818181818162 178.61031838934286,140.83673309523147 178.60256692641997,142.02992174021347 178.94363129526027,142.3439160697526 178.98238860993297,142.52334089914802 179.14516933143022,144.16506114310323 178.76534764794633,144.14711901047122 178.68008155570715,144.24580069481453 179.02114592460566,144.739207460756 179.17617518318002,145.28643719203683 179.49398516325164,148.77606826908595 179.9745758648205,151.74528578281752 179.9668244018976,152.89347604057548 179.02114592460566,159.3517679231445" stroke="#4DD2FF" stroke-linecap="round" stroke-linejoin="round" stroke-width="0.5"><title>2025-07-12 5.1km</title><desc>1752325602000</desc></polyline><polyline fill="none" points="20.790780922223348,181.63636363636033 20.59995836263988,181.62753136183892 21.027400896069594,178.68633403154672 21.202957650850294,178.59800824803824 21.691463403316448,175.32105823651364 21.767792427155655,173.66928726759215 21.317451186594553,170.7101538153438 20.973970579361776,167.11489190032444 20.515996436413843,166.18734318493807 20.577059655450284,166.09017084166408 20.958704774617217,166.15200779995212 20.783148019807413,164.35871813884296 20.439667412574636,163.97885400122323 20.424401607830077,162.78624649600533 20.04275648869225,161.99999999999272 20.447300314961467,162.88342253505107 20.439667412574636,163.97001993176673 20.790780922223348,164.36755216879828 20.981603481748607,166.1255062517739 20.61522416738444,166.08133698687743 20.53126224121661,166.22267855551763 20.989236384135438,167.18556187264767 21.32508408895228,170.6924870443545 21.775425329513382,173.60745565911202 21.69909630570328,175.27689364588878 20.966337676974945,180.15252892537683" stroke="#4DD2FF" stroke-linecap="round" stroke-linejoin="round" stroke-width="0.5"><title>2025-07-10 5.0km</title><desc>1752149320000</desc></polyline><polyline fill="none" points="40.752710921515245,162.0 40.79870311496779,163.224032832004 41.13214651774615,163.05107236516778 41.84502551681362,163.2905560276413 42.61539475765312,163.224032832004 43.47774838557234,163.5433438628388 47.92749310535146,164.12874539702898 48.05397163738962,164.30170444036776 47.03064533235738,170.83406721212668 46.536229252349585,170.87397881411016 46.44424486538628,171.04692894872278 46.27177413983736,172.20435858612473 46.398252671875525,172.70989935606485 45.616385382658336,177.1133430115442 39.89035729365423,176.94040088757174 39.69489047129173,176.8073683291732 38.959015375585295,181.6363636363676 39.729384616424795,176.88718788042024 41.960006000474095,176.92709763777384 42.707379144616425,176.6344258011959 42.810861580015626,176.94040088757174 45.6508795277914,177.03352359810378 47.62854384764796,164.64762184169376 47.571053605817724,164.1952681330731 41.649558694451116,163.1575096025481" stroke="#4DD2FF" stroke-linecap="round" stroke-linejoin="round" stroke-width="0.5"><title>2025-07-08 5.1km</title><desc>1751976330000</desc></polyline><polyline fill="none" points="56.460611945251,181.4575665651937 56.41847086377675,181.6363636363676 56.68536438018782,181.52258370508207 56.76964654325275,180.6123413413443 57.26129249454243,180.20598147086275 57.35962168482365,179.7833661104669 58.77837142988574,169.94911645364482 58.90479467448313,166.9743399980216 58.56766602222342,164.77979730836523 59.34025251708226,164.7472853384097 59.536910897586495,165.03989282989642 62.24798714322969,165.43003531899012 64.42527635605074,165.3975234812824 66.01259042724269,166.031503124992 71.06952021172037,166.77927075621847 71.99662400560919,162.0 75.78932134405477,162.8453235928173 72.40398779377574,162.04876879032236 71.77187157073058,164.86107720425935 71.67354238044936,166.81178231304511 62.20584606163902,165.54382669906772 59.536910897586495,165.0561487859668 59.29811143560801,164.69851737108547 58.52552494069096,164.8285652508639 58.834559538634494,166.12903823168017 58.89074764738325,168.94127489051607 57.30343357601669,179.83212947830907" stroke="#4DD2FF" stroke-linecap="round" stroke-linejoin="round" stroke-width="0.5"><title>2025-07-06 5.0km</title><desc>1751807521000</desc></polyline><polyline fill="none" points="81.87191788642667,180.4192233338108 82.72269012837205,174.36919526579732 79.96928178163944,174.17229736965965 79.10304095351603,174.47659402547288 80.23224774736445,174.36919526579732 80.0775618852349,174.19019718747586 82.92378174915211,174.351295466171 83.12487337004859,174.17229736965965 83.03206185274757,173.61740211451252 84.19220581895206,166.2962010204792 84.08392571547301,162.64443683478748 86.07937333756126,162.44752582992078 98.29955644911388,164.4524275874137 98.28408786287764,163.86169997719117 84.84188644011738,162.0 85.05844664719189,166.42150531054358 83.6508053013822,176.37396131490823 84.0375199568225,176.9825464935857 83.68174247379648,177.64482797533856 83.75908540486125,179.07677942339797 83.21768488723319,179.20207462125109 82.97018750780262,181.6363636363676 81.71723202423891,181.49317109612457 81.7945749553619,180.43712251682882" stroke="#4DD2FF" stroke-linecap="round" stroke-linejoin="round" stroke-width="0.5"><title>2025-07-05 4.8km</title><desc>1751729502000</desc></polyline><polyline fill="none" points="114.45918456383515,181.63636363636033 114.65351848630235,181.49434034393198 114.68420278979465,180.68953841560142 114.95013342052698,179.517831548721 115.09332683705725,179.47048960938992 115.27743265836034,177.75433131522732 111.27824509632774,177.58863193433353 111.53394762589596,176.70095266506542 111.91238736960804,172.70039413136692 111.95329977432266,169.77682213139633 111.81010635779239,169.38621788445016 111.96352787548676,166.9952178737949 111.95329977432266,161.99999999999272 106.58354665397201,163.9294579003763 106.47103754093405,164.2017101217425 106.51194994576508,163.96496909578127 109.40650258009555,162.86411700113968 109.45764308603248,165.30254956868885 109.74402991909301,165.91806816326425 111.88170306605753,165.91806816326425 111.89193116722163,169.04295852515497 112.11694939323934,169.14948740012187 112.19877420266857,169.52825594404567 115.94225923513295,169.76498565832298 116.12636505643604,170.70006332454068 116.10590885404963,172.4044893728933 114.81716810521903,181.19845792848355" stroke="#4DD2FF" stroke-linecap="round" stroke-linejoin="round" stroke-width="0.5"><title>2025-07-03 5.2km</title><desc>1751545471000</desc></polyline><polyline fill="none" points="133.5520043358556,181.63636363636033 134.0184504064091,178.76065210739034 134.20961682873894,178.62792466697283 134.69900286998018,174.99996294327866 134.73723615441122,173.74341412174545 133.90375055297045,167.07101298483758 133.49847773762303,166.23028955481277 133.58259096342954,166.11524255899712 133.92669052365818,166.17719096024666 133.76611072887317,164.46031894465705 133.3914245410997,163.98242070808192 133.3990711979859,162.89386492776248 133.03967832401395,161.99999999999272 133.42965782558895,162.9735158124313 133.3914245410997,164.00012068957585 133.73552410129923,164.33641965384595 133.7890506995609,164.61076784638863 133.92669052365818,166.16834119133273 133.5520043358556,166.14179187920672 133.49847773762303,166.2568388399377 133.91139720988576,167.07101298483758 134.30902336834697,170.85859257431002 134.75252946818364,173.7168671200343 134.62253630100167,175.69902098525927 133.7814040426747,181.33552441679785" stroke="#4DD2FF" stroke-linecap="round" stroke-linejoin="round" stroke-width="0.5"><title>2025-07-01 5.0km</title><desc>1751376396000</desc></polyline><polyline fill="none" points="155.80343011801597,181.63636363636033 155.9452266335138,181.46134780622378 155.91686733043753,180.81597447353852 156.14374175522244,180.59720297417516 156.30444447277114,179.74398987837048 156.5502250996651,176.73581282880332 156.89053673687158,175.56533576596848 157.26866077823797,172.49140548596915 157.17412976792548,170.7301460821909 156.6447561099776,167.59043826111156 156.2855382707785,163.78328289245837 155.7183522087289,162.3719755582788 156.21936656348407,162.47043946140911 156.23827276553493,162.0 156.23827276553493,162.4485586018127 155.80343011801597,162.36103511904366 155.72780530975433,162.47043946140911 156.08702314901166,163.00651913082402 156.30444447277114,163.76140229987504 156.7014747162466,168.0061539659 157.26866077823797,171.7803414942391 157.22139527305262,173.54158371138328 156.03030454280088,181.2644546572701" stroke="#4DD2FF" stroke-linecap="round" stroke-linejoin="round" stroke-width="0.5"><title>2025-06-30 4.1km</title><desc>1751292736000</desc></polyline><polyline fill="none" points="169.49318973708432,173.0286570477183 169.2727272727352,171.43524353484827 169.34874881216092,171.26797742817143 175.26322458029608,170.98626535845688 176.2058916692913,171.07430047895468 177.74152676592348,170.9246407207538 180.0449794108281,170.95105128516298 188.90909090908826,170.387624159579 186.2635413367243,170.57249909028178 185.6477668673033,170.77498070322326 184.507443775743,170.72215945863718 178.73740893253125,171.02147941743897 173.3702882483194,171.118318005545 173.21064301551087,171.2591739399213 173.5831485587405,173.24873947678134 173.40829901804682,173.23113290309993 173.19543870762573,172.19233870335302" stroke="#4DD2FF" stroke-linecap="round" stroke-linejoin="round" stroke-width="0.5"><title>2025-06-26 5.0km</title><desc>1750950176000</desc></polyline><polyline fill="none" points="30.72727272726479,194.4400263329735 30.41021626384463,192.83270093974716 21.962422937649535,193.60781112269615 21.06057344164583,193.61597013732535 17.805460416857386,193.20801838657644 11.090909090911737,193.49358483039396 17.57999804287101,193.1998593303506 21.067619140812894,193.6241291511542 27.077600548014743,193.07747338723857" stroke="#4DD2FF" stroke-linecap="round" stroke-linejoin="round" stroke-width="0.5"><title>2025-06-24 5.0km</title><desc>1750769966000</desc></polyline><polyline fill="none" points="53.324675324663986,194.42273320027743 53.055877839709865,192.8499940724505 44.69486133463215,193.64455883254413 43.676260339067085,193.6773242210329 40.37995433958713,193.2513731289655 33.68831168831093,193.54626258698408 40.20311388897244,193.2513731289655 43.66918672103202,193.6773242210329 50.74987836368382,193.04658814652066" stroke="#4DD2FF" stroke-linecap="round" stroke-linejoin="round" stroke-width="0.5"><title>2025-06-22 5.0km</title><desc>1750563938000</desc></polyline><polyline fill="none" points="66.77494381956058,203.45454545454413 65.76007306936663,197.39138065227235 65.74584590931772,195.73817112885445 65.83595125627471,195.04611486690192 65.7790426161082,193.26650078852254 65.79801216282067,192.9589072097515 65.90234466985567,192.783138661689 65.79801216282067,192.70074695729636 65.793269776128,191.57471436374908 64.64086981216678,184.64222912376135 64.35158422446693,183.81818181818016 64.64561219880125,184.53785049613361 65.7790426161082,191.45936335390434 65.84069364296738,194.8319051741746 65.76007306936663,195.74366360330168 65.75533068267396,197.33645756265832 66.53308209872921,201.9937366177728 66.64215699242777,202.31226222158875 67.85620798333548,202.24636052702044" stroke="#4DD2FF" stroke-linecap="round" stroke-linejoin="round" stroke-width="0.5"><title>2025-06-21 8.0km</title><desc>1750517001000</desc></polyline><polyline fill="none" points="90.69346449518343,203.45454545454413 89.03010276443092,193.22604571201373 86.1031018892536,193.16631514891924 80.82934260321781,192.65860437924857 80.93249681906309,192.12102635212068 80.72618838731432,191.09066295213415 81.00986248097615,184.35579032005626 80.97117964999052,183.87791619363998 80.71329411037732,183.81818181817653 80.39093718572985,192.10609360100352 80.88091971114045,192.16582459639176 80.90670826507267,192.67353707410803 89.06878559535835,193.21111307354295 90.06164492300013,199.60214325538254 90.37110757065238,200.4532640871039 97.01166021684185,200.24421732340124" stroke="#4DD2FF" stroke-linecap="round" stroke-linejoin="round" stroke-width="0.5"><title>2025-06-19 5.0km</title><desc>1750345525000</desc></polyline><polyline fill="none" points="121.11688311689068,194.12794774734357 120.93664596276358,193.0568995963913 115.3777526821068,193.5841875000806 114.6615471484838,193.60066516391453 112.28051948052598,193.32603677518637 103.45838509316673,193.72699375280354 102.6947487295256,193.85332204555016 101.48051948050852,194.21582767633663 103.19277244491968,193.7544564503296 106.29474872953142,193.61714282274625" stroke="#4DD2FF" stroke-linecap="round" stroke-linejoin="round" stroke-width="0.5"><title>2025-06-17 5.1km</title><desc>1750166247000</desc></polyline><polyline fill="none" points="124.75503806531196,201.0463915895525 124.07792207790771,196.69458884483902 139.3807433944894,196.24372076922737 136.89234214066528,186.42237562217633 139.90550828480627,186.59881139648496 143.71428571426077,186.2263356831827 137.70488132559694,186.57920742954593 139.92243618454086,195.42039372991712 133.354411106091,195.73404254147317" stroke="#4DD2FF" stroke-linecap="round" stroke-linejoin="round" stroke-width="0.5"><title>2025-06-16 3.2km</title><desc>1750084948000</desc></polyline><polyline fill="none" points="166.31168831168907,194.54409655313793 166.01080854632892,192.72863071959 156.35890238793218,193.61803017521015 155.48793464602204,193.6271991959875 151.6715123586182,193.15957794563292 146.67532467533601,193.39797339658253 151.51315458735917,193.15040887720534 155.48001675747219,193.60886115352332 163.66711353167193,192.921181862941" stroke="#4DD2FF" stroke-linecap="round" stroke-linejoin="round" stroke-width="0.5"><title>2025-06-15 4.6km</title><desc>1749956754000</desc></polyline><polyline fill="none" points="188.90909090908826,194.4260876956323 188.67005175276427,192.84663957708108 180.26149790061754,193.6200845680214 179.38267747292412,193.63636753998435 175.68460111317108,193.2211507184038 169.2727272727352,193.51424516945553 175.81115125474753,193.2211507184038 179.32643296555034,193.63636753998435 181.16141001856886,193.54681115318817 181.5059076261823,193.4328301520436 185.96328483548132,193.03389536721807" stroke="#4DD2FF" stroke-linecap="round" stroke-linejoin="round" stroke-width="0.5"><title>2025-06-14 5.1km</title><desc>1749906363000</desc></polyline><polyline fill="none" points="30.727272727293894,216.62045664162724 30.491191976354457,215.02839227797813 22.353349620680092,215.81638774621388 21.256268483994063,215.82442847575294 17.923363764974056,215.42239099591825 11.646393210772658,215.7198989280805 11.563070592819713,215.5349616967942 11.597788350278279,214.29667515269102 11.090909090911737,214.28863426746102 11.618619004788343,214.31275692069175 11.563070592819713,215.52692093776568 11.667223865253618,215.7198989280805 18.096952552412404,215.4143502254301 21.409026616980555,215.83246920446254 28.005400540103437,215.23745306725323 27.99845698857098,214.91582085427217 30.116240195464343,214.80324926997127" stroke="#4DD2FF" stroke-linecap="round" stroke-linejoin="round" stroke-width="0.5"><title>2025-06-12 5.9km</title><desc>1749735885000</desc></polyline><polyline fill="none" points="53.324675324663986,221.6319669145014 52.69870669872034,218.4803150758089 35.498177498113364,220.00887424060784 33.87882387882564,215.58073864293692 33.68831168831093,210.04933060398616 36.89980289974483,209.9074970261281 39.63501363492105,210.0808491591597 39.78470178472344,209.57655150510254 39.49893349892227,209.46623617399018 33.7699597699102,209.27712399458687 33.89243189239642,215.42315140916617 34.36871236865409,217.21963635200518 35.307665307598654,219.4573340165516 42.92815292812884,218.7954831506213 43.07784107781481,219.39430072279356 52.657882657891605,218.46455665517715 53.24302724306472,221.58469261147548" stroke="#4DD2FF" stroke-linecap="round" stroke-linejoin="round" stroke-width="0.5"><title>2025-06-10 5.3km</title><desc>1749559786000</desc></polyline><polyline fill="none" points="56.801297727099154,210.22644590960408 56.329907152219675,208.31588496959012 56.28571428573923,206.83177347500168 69.64669089362724,206.49059655838937 70.25066006765701,208.72529272123938 69.80873140372569,208.70823408495926 69.67615280451719,209.01528927273466 69.95604095835006,210.60173210309586 69.88238618103787,211.6764106387418 70.36850771139143,213.82574701079284 71.62063892604783,213.77457265599514 73.47673931479221,220.92177272195113 73.50620122574037,221.24586286750855 73.03481065080268,221.38232168849208 73.46200835931813,221.26292022624693 73.6093179139425,221.53583772908314 73.22631307179108,221.6040670353541 73.35889167099958,222.23518679953122 74.24274899897864,224.48672981746495 74.8614491285989,224.41850168602832 75.92207792209229,223.8385614463623 74.80252530670259,224.07736061188916 72.81384631874971,216.14563466473192 72.57815103133908,215.46331810396805 72.04783663456328,215.46331810396805 71.65010083693778,213.72339828551048 71.22290312842233,213.89397945953533 70.35377675597556,213.77457265599514 69.8676552255638,211.81287726062874 69.76453853730345,209.28822674458206 68.95433598663658,206.42236109162332 56.329907152219675,206.8658911284001 56.86022154893726,210.32879677305755" stroke="#4DD2FF" stroke-linecap="round" stroke-linejoin="round" stroke-width="0.5"><title>2025-06-08 5.0km</title><desc>1749355299000</desc></polyline><polyline fill="none" points="98.51948051946238,216.26257787446957 98.17411733992049,214.6465130346187 91.84480845782673,215.1770429666285 89.94178685633233,215.44638758699148 88.88455263327342,215.44638758699148 85.53664426025352,215.03828932381293 78.88311688310932,215.332120282932 85.21947399331839,215.03828932381293 88.84931149252225,215.45454953103035 96.48254258304951,214.76894333086966" stroke="#4DD2FF" stroke-linecap="round" stroke-linejoin="round" stroke-width="0.5"><title>2025-06-07 5.3km</title><desc>1749293029000</desc></polyline><polyline fill="none" points="121.11688311686157,216.2324432083551 120.82696921372553,214.67664770074043 111.86792249878636,215.4954911970417 108.2333921029931,215.0778820567284 101.48051948050852,215.35628839146375 108.20510781978373,215.06150518346112 111.4365871794871,215.4954911970417 118.35916550140246,214.86498244389804" stroke="#4DD2FF" stroke-linecap="round" stroke-linejoin="round" stroke-width="0.5"><title>2025-06-05 5.1km</title><desc>1749128617000</desc></polyline><polyline fill="none" points="124.35279680945678,215.33025498282223 124.07792207790771,213.5298217109157 124.18100010222406,213.45024378327798 131.8860824215226,213.1816677984898 133.3377645975852,218.50331344066217 140.948358727881,218.4038460895681 143.71428571428987,218.2347513600762 141.43797934352187,218.31432538689842 141.01707741079736,212.4057774684261 133.73289702422335,212.8335126440943 132.16954698844347,212.78377609205927 132.306984354218,213.1816677984898 128.26976173432195,213.30103499409597" stroke="#4DD2FF" stroke-linecap="round" stroke-linejoin="round" stroke-width="0.5"><title>2025-06-03 5.2km</title><desc>1748952979000</desc></polyline><polyline fill="none" points="162.91396021813853,209.60074638162405 162.48320366250118,208.96317963854744 162.17785724333953,208.2940431342031 161.98156311674393,208.11097622862144 161.4962804148381,208.06678758422277 161.1255026201252,207.63752482813288 160.95647156666382,207.0756911418066 160.70565129374154,206.69061118001628 160.40575748920674,205.63636363636397 159.5387917633343,206.0088243975406 159.1352982808312,206.0530145088378 158.0883962722146,206.44441126239326 157.6412818727258,207.01887621589412 157.6412818727258,207.16406981195178 155.83101381617598,209.46818353926938 155.8201085869223,209.60074638162405 155.32392065576278,210.28249366549062 154.89316410015454,210.68017611942196 154.81682749534957,210.61073968429264 154.51148107615882,210.8758602001326 154.30973433490726,210.7559248690959 154.30428172030952,210.86954782008252 154.27701864714618,210.70542571294573 154.56055460780044,210.90742209081145 154.51693369078566,211.1346672293621 153.86261993541848,211.86058362038966 152.74483393665287,212.11307428616055 152.74483393665287,211.9994536138147 152.6684973318479,212.13832329619618 152.36315091265715,212.20775802078424 152.09597279588343,212.1320110446468 151.64885839639464,212.169884544277 151.57252179156058,212.10044977729194 151.39258550887462,212.201445776318 150.85277666067122,212.01207814323425 150.7818926704931,211.18516603592434 150.5746933146438,211.00210766641248 149.55505437919055,211.26091416869895 149.17337135522394,211.4944703288529 149.60958052545902,213.38182431915993 150.2966099685873,215.49003811648072 151.7470054596779,221.15787439296764 151.94875220092945,221.7448256175776 153.66087319416692,225.20961809289656 153.87897777929902,225.27272727272793 154.63143859800766,225.03291204790366 155.14398437304772,225.18437440300113 156.08183408906916,224.98873545803508 156.06547624515952,224.61638866495923 156.3162965180818,224.54696782930114 156.76886353222653,224.7552301033029 157.11237825380522,224.59114473371665 157.25414623413235,224.79940685943075 158.13746980388532,224.99504640135638 158.65546819358133,224.9003821839142 159.17891919787508,224.5091018861931 159.27161364653148,223.77071137667735 159.6642018997809,223.22795719342685 159.5606022218417,222.68519826205375 159.68601235828828,222.42012822101606 159.41883424148546,222.12350087991945 159.2498031880532,221.68171284912387 159.18437181247282,221.025336251103 159.5387917633343,220.74132499358166 160.0786006115086,220.96222275069158 160.3784944160725,220.94328868803495 160.45483102084836,220.5330492449939 160.32942088440177,220.028135436929 160.22582120646257,219.98395528319088 160.32942088440177,219.9334636404019 160.20946336258203,219.89559488132727 160.30761042586528,219.95239801126445 160.31851565514808,219.6557588703945 160.17674767482094,219.32756072113625 159.53333914867835,219.28338006843478 159.23344534414355,219.0561647860668 159.35885548056103,218.19778843029053 159.8714012556302,217.32046502712546 160.2639895088505,216.88495455613156 160.44392579159467,216.82183684286792 160.83106143021723,216.28533368667195 161.51263825871865,215.63521187826336 162.1178784824442,214.87777981720137 161.9433948143269,214.5243083562491 161.4035859661526,214.51799634757117 161.3327019759745,214.30969970062142 161.5399013318529,213.81104730971856 161.77981637549237,213.5838119788932 162.00337357525132,213.61537249129833 162.09606802390772,213.50175457148362 161.90522651196807,213.06621728369646 162.161499399459,212.529681637061 162.40141444312758,212.39081283107225 162.60316118435003,212.47287170855634 162.5758981112158,212.32137831148066 163.18113833491225,212.04363945556906 163.23566448120982,211.87320817810178 163.76456810013042,211.5512811536937 163.81364163180115,211.09048073987287 163.12115957398782,209.77118390535907 163.01210728142178,209.7206839471619" stroke="#4DD2FF" stroke-linecap="round" stroke-linejoin="round" stroke-width="0.5"><title>2025-06-02 11.5km</title><desc>1748829019000</desc></polyline><polyline fill="none" points="188.90909090911737,216.3728219727709 188.5493906593183,214.53626893631008 178.1753084551019,215.50188382270426 173.87525546891266,215.00961082122376 169.2727272727352,215.20841369355912 173.93248050866532,214.9906771921378 177.70115812579752,215.48295029396104 188.53304064794793,214.5457357976702 188.90091590344673,216.31602190755075" stroke="#4DD2FF" stroke-linecap="round" stroke-linejoin="round" stroke-width="0.5"><title>2025-06-01 4.9km</title><desc>1748740054000</desc></polyline><polyline fill="none" points="30.727272727235686,246.7353890965751 30.656169418944046,246.88634165430267 30.513962802360766,246.77655799276545 30.03994074719958,244.14172326189873 15.060843803104945,245.44542397395708 13.674329291679896,241.56173095974373 13.6150765347993,236.67607816614327 13.283261096163187,234.83705056644976 11.090909090882633,227.65911289113865 12.536676359188277,232.4627464346413 12.927744554763194,233.20386320276884 13.56767432927154,235.9624286476901 14.207604103779886,236.1408413819736 13.54397322650766,236.1271173339046 13.674329291679896,241.1088548698317 14.124650244077202,242.9615201522538 14.906786635168828,244.89649889686552 15.108246008632705,245.02000723432866 21.531244856480043,244.36129479209194 21.70900312718004,244.8827757412946 26.81659077189397,244.3887412082113" stroke="#4DD2FF" stroke-linecap="round" stroke-linejoin="round" stroke-width="0.5"><title>2025-05-31 5.5km</title><desc>1748696141000</desc></polyline><polyline fill="none" points="51.94757969304919,242.69188813846267 51.501298701332416,239.81257658210234 35.345926800509915,241.25962236321357 33.854073199559934,237.00703848303237 33.68831168831093,231.8830997205805 39.171192443871405,231.9421663297544 33.764817001181655,231.85356640700775 33.866824085009284,236.9332077993604 34.26210153487045,238.5131762171659 35.25667060207343,240.78711920753994 49.56316410860745,239.41389816405717 50.83825265645282,239.34006870693702 50.902007083874196,239.8864057983883 53.324675324663986,239.69444975779334" stroke="#4DD2FF" stroke-linecap="round" stroke-linejoin="round" stroke-width="0.5"><title>2025-05-29 5.0km</title><desc>1748526381000</desc></polyline><polyline fill="none" points="68.18889826495433,235.3449386304419 67.7532261715969,231.7773015302664 75.12853232352063,231.41693014297925 75.92207792209229,234.31789896595 75.06629345298279,231.48900447916822 67.7221067363862,231.83135717497498 67.92438306543045,233.61518417893967 67.64430814835941,231.8493757195247 57.15705847245408,232.82237439925666 58.72858995205024,240.69625930041366 59.33541893924121,242.5340492385003 58.930866281094495,242.78629342550994 59.56881470349617,244.4799236474937 58.713030234444886,242.2457697270147 56.596908638079185,232.8584112846147 60.26900199643569,232.33587572879333 66.91300142015098,231.9214498794754 66.83520283206599,231.39891155430814 57.079259884369094,232.06559811117768 56.53466976759955,230.06553089796216 56.28571428573923,230.28175547136925 56.410192026698496,232.20974622531503 63.76993846090045,231.48900447916822" stroke="#4DD2FF" stroke-linecap="round" stroke-linejoin="round" stroke-width="0.5"><title>2025-05-27 6.0km</title><desc>1748352132000</desc></polyline><polyline fill="none" points="95.90278969320934,238.73602920842677 95.9810667692218,238.68423208182503 95.7294618820888,237.4281388317395 89.1150489601423,238.06266326837067 88.34905185931711,238.0756126806773 85.59258054019301,237.75187658108916 79.00612371682655,238.04323914496854 78.88311688310932,235.89359945544857 79.66588764311746,235.8094253370291 80.74499304796336,235.88712452722757 80.7505842676619,237.75187658108916 85.75472591191647,237.55115937083247 88.79634943642304,237.84899758418396 95.7182794426626,237.16267264617272 98.4020649054728,237.06555059378297 98.51948051949148,237.27921891301594 98.44120344347903,237.30511805439528 95.96429311009706,237.40871451429484" stroke="#4DD2FF" stroke-linecap="round" stroke-linejoin="round" stroke-width="0.5"><title>2025-05-25 7.6km</title><desc>1748179850000</desc></polyline><polyline fill="none" points="121.10401525077759,238.3567923611772 121.05254378647078,237.93211213294126 120.80162039792049,237.93211213294126 120.64077207192895,237.13489872627542 120.51209341111826,236.95608331049152 114.30334802810103,237.48507764849637 113.28678660787409,237.67134234923287 109.20767306085327,237.2913618562743 101.58989634219324,237.63408944706316 101.48051948050852,236.33767662550235 103.37209579409682,236.18866218428593 103.35922792801284,237.27646062023996 103.61015131656313,237.30626308928186 108.95674967233208,237.07529363629874 112.82997736203833,237.41057163531514 120.87239366138238,236.6357045966579 121.11688311686157,238.27483671977097" stroke="#4DD2FF" stroke-linecap="round" stroke-linejoin="round" stroke-width="0.5"><title>2025-05-24 6.6km</title><desc>1748094255000</desc></polyline><polyline fill="none" points="143.71428571428987,238.14766342965595 143.50067498983117,236.3977911158072 135.4151134924905,237.08491781392513 134.29167931180564,237.2773123481602 133.0100149649079,237.29563561562827 129.31534058207762,236.84671448670997 124.07792207790771,237.0574328468283 129.29160605711513,236.83755280767946 132.96254591501202,237.30479724799807 141.3408332199615,236.59934882497328" stroke="#4DD2FF" stroke-linecap="round" stroke-linejoin="round" stroke-width="0.5"><title>2025-05-18 4.7km</title><desc>1747565909000</desc></polyline><polyline fill="none" points="163.75946698590997,237.97580017565633 163.54584493665607,236.71938433101968 157.8511308330926,237.2011218248881 156.9010748770379,237.37038008180025 156.13653280586004,237.36387015712899 153.53371678420808,237.02535316027206 146.71467610544642,237.33783045185191 146.67532467533601,237.1425323237454 150.51489992972347,236.89515383761318 153.11771595137543,236.8495840119831 156.15901933738496,237.33783045185191 163.61892616402474,236.67381437997392 166.13179605963523,236.56965436979954 166.23298545143916,236.58267438036273 166.24985035005375,236.67381437997392 166.31168831168907,236.63475439606918" stroke="#4DD2FF" stroke-linecap="round" stroke-linejoin="round" stroke-width="0.5"><title>2025-05-17 5.7km</title><desc>1747487200000</desc></polyline><polyline fill="none" points="187.83602277259342,236.4609390855403 185.23559487980674,236.59699428627937 183.9667113899195,236.8237524919241 178.1392464734963,237.2681968989782 174.48924828661256,236.7965415377621 169.2727272727352,237.005158640437 174.41875475941924,236.81468217480142 177.99825941908057,237.25912662712653 188.3999709903146,236.35209477520402 188.74460601227474,238.1117281390616 188.90909090908826,238.19335977025185" stroke="#4DD2FF" stroke-linecap="round" stroke-linejoin="round" stroke-width="0.5"><title>2025-05-11 5.0km</title><desc>1746965499000</desc></polyline><polyline fill="none" points="30.727272727293894,259.79641172399715 30.410329985636054,258.38540645781904 21.500717360089766,259.1928633833886 17.88052693361533,258.776901742247 11.090909090911737,259.0623658463446 17.711490804736968,258.7850578736252 21.092213382013142,259.1928633833886 30.466675361967646,258.4017187995705" stroke="#4DD2FF" stroke-linecap="round" stroke-linejoin="round" stroke-width="0.5"><title>2025-05-10 5.3km</title><desc>1746870058000</desc></polyline><polyline fill="none" points="53.28180116825388,258.75991557327507 53.231781319133006,258.619242337365 53.32467532469309,258.7268160102685 52.94595360971289,258.79301512274833 44.192480009107385,259.5625758444439 40.48386547950213,259.1240098755152 33.68831168831093,259.40535435439233 40.44813701583189,259.1240098755152 42.184540350484895,259.2646822368333 43.76373844497721,259.5543010367546 50.93086825837963,258.908863439734" stroke="#4DD2FF" stroke-linecap="round" stroke-linejoin="round" stroke-width="0.5"><title>2025-05-05 5.4km</title><desc>1746434825000</desc></polyline></svg>