<?xml version="1.0" encoding="utf-8" ?>
<svg baseProfile="full" height="300mm" version="1.1" viewBox="0,0,200,300" width="200mm" xmlns="http://www.w3.org/2000/svg" xmlns:ev="http://www.w3.org/2001/xml-events" xmlns:xlink="http://www.w3.org/1999/xlink"><defs /><rect fill="#222222" height="300" width="200" x="0" y="0" /><text fill="#FFFFFF" style="font-size:12px; font-family:Arial; font-weight:bold;" x="10" y="20">Over 3km Runs</text><text fill="#FFFFFF" style="font-size:4px; font-family:Arial" x="10" y="280">Runner</text><text fill="#FFFFFF" style="font-size:9px; font-family:Arial" x="10" y="290">tang-hi</text><text fill="#FFFFFF" style="font-size:4px; font-family:Arial" x="65" y="280">SPECIAL TRACKS</text><rect fill="yellow" height="2.6" width="2.6" x="65" y="283" /><text fill="#FFFFFF" style="font-size:3px; font-family:Arial" x="70" y="285.5">Over 20.0 km</text><rect fill="red" height="2.6" width="2.6" x="65" y="287" /><text fill="#FFFFFF" style="font-size:3px; font-family:Arial" x="70" y="289.5">Over 40.0 km</text><text fill="#FFFFFF" style="font-size:4px; font-family:Arial" x="120" y="280">STATISTICS</text><text fill="#FFFFFF" style="font-size:3px; font-family:Arial" x="120" y="285">Number: 76</text><text fill="#FFFFFF" style="font-size:3px; font-family:Arial" x="120" y="290">Weekly: 3.6</text><text fill="#FFFFFF" style="font-size:3px; font-family:Arial" x="141" y="285">Total: 399.7 km</text><text fill="#FFFFFF" style="font-size:3px; font-family:Arial" x="141" y="290">Avg: 5.3 km</text><text fill="#FFFFFF" style="font-size:3px; font-family:Arial" x="167" y="285">Min: 3.2 km</text><text fill="#FFFFFF" style="font-size:3px; font-family:Arial" x="167" y="290">Max: 11.5 km</text><polyline fill="none" points="21.85139060296933,31.125 21.858680186007405,32.69389784919622 21.22448645925033,36.35454419778398 21.217196876212256,37.484757235062716 20.64131981396349,40.5801126852748 20.685057312366553,40.968078255413275 20.167496914684307,44.75486439567612 20.415342738939216,47.959581913666625 20.84542813981534,51.375 21.260934374586213,51.3075363109092 20.53926565105212,44.704262601109804 22.332503085344797,32.58424466219731" stroke="#4DD2FF" stroke-linecap="round" stroke-linejoin="round" stroke-width="0.5"><title>2025-09-23 5.1km</title><desc>1758638106000</desc></polyline><polyline fill="none" points="43.59327638190007,51.375 43.49924221105175,51.33873003824556 43.52275075376383,50.58612500526215 43.69514673366211,50.42290861836227 44.07128341708449,48.192254742949444 44.61981608046335,43.395253229435184 43.77350854274118,36.367044198057556 43.33468241203809,35.460138177695626 43.42871658288641,35.351308835539385 43.79701708542416,35.38758529768529 43.62462110549677,33.59188270983577 43.2484844220744,33.16562476544641 43.26415678387275,32.07729736804322 42.85667537682457,31.125 43.27982914572931,32.158922383554454 43.256320602988126,33.17469410462945 43.6324572864396,33.573744115405134 43.608948743727524,34.1813850204926 43.812689447251614,35.37851618351124 43.43655276380014,35.333170598933066 43.373863316577626,35.45106907090667 43.84403417087742,36.54842429554992 44.17315376884653,40.0308506442816 44.64332462317543,43.13227215401275 44.51010954781668,45.12728163599968 43.80485326633789,49.79724303635885" stroke="#4DD2FF" stroke-linecap="round" stroke-linejoin="round" stroke-width="0.5"><title>2025-09-21 5.0km</title><desc>1758459157000</desc></polyline><polyline fill="none" points="56.1456002034829,34.921595951906056 56.125,35.517521505840705 56.77390640898375,35.48176605795743 56.94900813838467,35.62478778397781 57.31981180066941,35.49368454177602 59.99783825024497,35.48176605795743 60.23474059003638,35.62478778397781 62.10935910482658,35.61286931348877 62.387461851525586,35.74397242247505 63.04666836222168,35.577113894680224 66.50750254333252,35.577113894680224 68.31002034590347,35.61286931348877 68.50572227878729,35.76780933563714 69.82413530012127,35.672461653943174 76.375,35.875075384945376 75.72609359113267,40.76153583967243 75.37589013233082,41.29784227415803 68.53662258398253,41.26208858814789 68.15551882004365,47.578404048093944 68.49542217707494,41.67921424702945 74.50038148526801,41.71496780591406 75.38619023404317,41.88181760333828 75.70549338759156,40.83304350593971 75.95269582915353,38.83081237438455" stroke="#4DD2FF" stroke-linecap="round" stroke-linejoin="round" stroke-width="0.5"><title>2025-09-20 5.0km</title><desc>1758380898000</desc></polyline><polyline fill="none" points="89.45240899643977,31.125 89.3220650589501,31.284204328650958 89.32930638882681,31.85398572312988 89.43792633671546,31.92101856953377 89.37275436797063,32.742166515934514 88.9382745763869,35.59936248631857 88.72827601042809,36.353444619664515 88.76448265975341,36.93156958617328 88.25758956951904,40.37509956544818 88.13448696190608,40.551042492508714 88.1851762708975,40.95319634514453 87.69276584041654,44.51384805815178 87.72897248974186,45.86266657283704 88.33000286811148,51.375 88.69206936113187,51.36662287297804 88.77172398960101,51.26609728218318 88.46034680560115,48.01570385150262 88.08379765285645,45.728623483664705 88.08379765285645,44.3462914233387 89.24241043048096,36.16911406820873 89.40171968741925,35.88423876924935 89.33654771867441,35.64963484303007 89.80723415958346,32.549448854675575" stroke="#4DD2FF" stroke-linecap="round" stroke-linejoin="round" stroke-width="0.5"><title>2025-09-18 5.2km</title><desc>1758195038000</desc></polyline><polyline fill="none" points="110.8044626210467,51.20163047154347 110.78869138640584,51.375 110.97006058492116,51.338501179729064 111.04891675818362,50.68151987792953 111.22240033937851,50.5628977417 112.0188476893527,45.10611006434192 112.1371319492755,43.53653781222965 111.29337089529145,36.41836572730972 110.84389070767793,35.49661242059665 110.9227468809695,35.32321222577593 111.30125651264098,35.4053492019375 111.14354416611604,33.64395090199832 110.74137768245419,33.169371354961186 110.78080576905631,32.16544481275196 110.3628680507536,31.125 110.8044626210467,32.201951429233304 110.78080576905631,33.17849790836772 111.14354416611604,33.61657138094597 111.3091421299614,35.414475527984905 110.9227468809695,35.34146489365958 110.8675475596392,35.48748610291659 111.24605719131068,36.153704855561955 111.38799830322387,36.829044845319004 111.64033805768122,39.68549427929247 112.12924633192597,42.89775055073551 112.1371319492755,44.32132736835774 111.73496546558454,47.250539425636816 111.56936750173918,48.254297273626435 111.37222706858302,48.436797494963685 111.16720101807732,50.30740337759198 110.98583181956201,50.76364280349662" stroke="#4DD2FF" stroke-linecap="round" stroke-linejoin="round" stroke-width="0.5"><title>2025-09-16 5.1km</title><desc>1758026219000</desc></polyline><polyline fill="none" points="134.59828871159698,31.125 134.41703043988673,31.208895909730927 134.39527944728616,31.745827713326435 134.5257854029478,31.89683915396745 134.475033086841,32.71900770774664 134.04726356561878,35.59653317951597 133.90225694823312,35.84820702356228 133.74274966915254,38.04612599574466 133.25697750094696,40.579532545372786 133.29322915527155,41.032517579624255 132.79295632537105,44.907954659742245 133.4744874270109,51.375 133.8732556247851,51.29112457171868 133.16997353051556,44.597590855402814 133.58324239001377,41.55260844410077 133.7862516543246,40.81441398437164 134.18501985209878,37.34145605500089 134.39527944728616,36.07471282740153 134.51853507204214,35.881763478137145 134.46778275593533,35.453917660765 134.70704367462895,33.85157343174069" stroke="#4DD2FF" stroke-linecap="round" stroke-linejoin="round" stroke-width="0.5"><title>2025-09-14 5.0km</title><desc>1757842188000</desc></polyline><polyline fill="none" points="156.80331754492363,31.125 156.92708594314172,32.22017639342812 156.43201235029846,35.53931495195138 156.22087802391616,36.28905120570562 156.27912197602564,36.600737316366576 155.90781678140047,39.38901229827752 155.63843850290868,40.56831489592878 155.67484097302076,41.01476078923588 155.17248688614927,44.74628059120005 155.42002368255635,47.980690157237404 155.849572829291,51.375 156.27912197602564,51.28235318775114 155.5365115867462,44.78839610947034 157.32751311385073,32.43078557986155" stroke="#4DD2FF" stroke-linecap="round" stroke-linejoin="round" stroke-width="0.5"><title>2025-09-13 5.1km</title><desc>1757760467000</desc></polyline><polyline fill="none" points="179.5201302441419,31.125 179.4838033458218,32.71390890052862 179.0769420847646,35.49652769889508 178.91710373217938,35.832789494372264 178.73546924063703,37.841925249871565 178.26321956259198,40.607559537980705 178.30681184056448,40.943800566659775 177.79823526425753,44.54989971652685 177.8127660235623,45.482920766749885 178.4593848134973,51.375 178.88804221356986,51.31616533287888 178.59742702706717,48.105410100804875 178.19783114566235,45.74349233455723 178.16876962699462,44.78525736965821 179.33849575259956,36.32877314853977 179.51286486448953,35.84960254827456 179.45474182721227,35.6310325810482 179.70176473571337,33.907672233035555" stroke="#4DD2FF" stroke-linecap="round" stroke-linejoin="round" stroke-width="0.5"><title>2025-09-11 5.0km</title><desc>1757592265000</desc></polyline><polyline fill="none" points="20.844985628064023,75.45976577869442 21.002272762794746,75.37786481584044 21.025865833013086,74.78635563794523 21.206746037991252,74.65895314980298 21.3168470323144,74.01283774095646 21.56064209114993,71.71044492995134 22.0482322088792,68.97115739626315 22.111147062765667,67.07817883880489 21.28538960532751,60.49794679916522 20.837121271295473,59.65149179859145 20.915764838660834,59.50586432480486 21.301118318806402,59.53316949418513 21.128102470567683,57.81292755501636 20.742748990422115,57.312321838348 20.797799487627344,56.402122452615004 20.388852937263437,55.29166666666424 20.789935130858794,56.28379585258517 20.750613347190665,57.35783156465186 21.128102470567683,57.77651996093482 21.29325396209606,59.56047465524898 20.90790048195049,59.50586432480486 20.837121271295473,59.62418666531448 21.104509400349343,59.97915274836123 21.324711389024742,60.65267426730861 21.662878728762735,64.27504092174058 22.111147062765667,67.20559211333602 22.0482322088792,69.08036647659901 21.104509400349343,75.48706608302746 20.93149355216883,75.54166666666424" stroke="#4DD2FF" stroke-linecap="round" stroke-linejoin="round" stroke-width="0.5"><title>2025-09-09 5.2km</title><desc>1757417515000</desc></polyline><polyline fill="none" points="44.45837379756267,55.29166666666424 44.400250819307985,55.93059666535555 44.56735438181204,55.97263136070251 44.465639169851784,57.00667814199551 44.080574438849,59.5707221338962 43.89167475947761,60.08352139818453 43.65191747416975,62.68109508296038 43.23052588175051,64.82466244849638 43.266852743166965,65.27018124589085 42.780072800203925,68.71656638539571 42.765542055654805,69.74204840821767 43.048891574697336,72.37294008406025 43.43395630567102,75.49123695455637 43.85534789809026,75.54166666666424 43.840817153512035,75.21387298901391 44.06604369429988,75.00374815410032 44.06604369429988,74.88607801360195 43.717305824684445,74.63392714941438 43.157872158888495,68.9351127997652 44.26220874596038,60.96620121366868 44.50196603129734,60.13396049842413 44.42931230846443,59.814512344339164 44.734457944345195,57.603561051684665" stroke="#4DD2FF" stroke-linecap="round" stroke-linejoin="round" stroke-width="0.5"><title>2025-09-07 5.0km</title><desc>1757247375000</desc></polyline><polyline fill="none" points="65.71637251848006,75.47715404763585 65.89955807186197,75.54166666666424 65.94734560747747,74.89653841164545 66.178318696504,74.5463240086392 66.94291926699225,69.43119636570918 67.08628187398426,67.4772336124297 66.2181416428648,60.370721555555065 65.75619546489906,59.495042739785276 65.83584135762067,59.37521234912856 66.2181416428648,59.43973642531637 66.05088526807958,57.64226283595053 65.67654957211926,57.15371257179504 65.71637251848006,56.23191244932241 65.41371812598663,55.29166666666424 65.71637251848006,56.13973192146659 65.68451416140306,57.14449461696495 66.05884985736338,57.586955391045194 66.2420354107162,59.42130097965128 65.81991217911127,59.34755915954884 65.78008923269226,59.47660730538337 66.07477903587278,59.91905669635162 66.2659291785385,60.591944339030306 66.55265439246432,63.716658491801354 67.07831728472956,67.29289533014526 67.07831728472956,68.38970259117923 66.52876062467112,72.31597950110881 66.13053116085939,74.8228091760102 65.94734560747747,75.08086123846442" stroke="#4DD2FF" stroke-linecap="round" stroke-linejoin="round" stroke-width="0.5"><title>2025-09-04 5.0km</title><desc>1756985562000</desc></polyline><polyline fill="none" points="89.34849425515858,55.34234004513564 89.4360787802434,55.29166666666424 89.48716975326533,55.40990450168465 89.4579749115801,55.91663617525046 89.53826072625816,55.91663617525046 89.47987104285858,56.82874540265766 89.0857406797295,59.396110233043146 88.82298710430041,60.426411981090496 88.85948065642151,60.83177310294559 88.23179155957769,64.69949440678465 88.268285111757,65.05416726664407 87.77197280258406,68.55014736134763 87.81576506517013,70.26430612015247 88.4142593202996,75.53322315725381 88.75729871043586,75.54166666666424 88.83028581470717,75.44034449707397 88.48724642460002,72.45128496325196 88.57483094974305,72.25707681365748 88.3412722160283,71.15937005072192 88.12960961359204,68.84569449588889 88.53103868715698,65.69595240539638 88.74270128959324,64.89372020792507 89.13683165272232,61.38914141810528 89.35579296553624,60.113944767275825 89.47987104285858,59.94504308158503 89.40688393855817,59.71702526156878 89.72802719741594,57.32702306796273" stroke="#4DD2FF" stroke-linecap="round" stroke-linejoin="round" stroke-width="0.5"><title>2025-09-02 5.1km</title><desc>1756811867000</desc></polyline><polyline fill="none" points="111.8378187759372,55.29166666666424 111.80842783715343,56.77955383502558 111.41899789805757,59.49169152318791 111.17652265296783,60.418389268772444 111.18387038767105,61.14103635301581 110.58870387700154,64.76267950912734 110.12579659093171,68.85171735571203 110.15518752968637,70.09284109689906 110.73565857100766,74.84464479734015 111.30878187753842,75.54166666666424 111.17652265296783,75.4736647884929 111.073654367181,74.66613826342655 110.85322232617182,72.55803231524624 110.91200420376845,72.3455186899082 110.52257426470169,69.8548187917404 110.50787879529526,68.65619618459459 111.69086408196017,60.290862664995075 111.85251424537273,59.950790771486936 111.94068706175312,58.47996391857305 112.37420340903918,56.13338894332992" stroke="#4DD2FF" stroke-linecap="round" stroke-linejoin="round" stroke-width="0.5"><title>2025-08-31 5.1km</title><desc>1756640573000</desc></polyline><polyline fill="none" points="134.40160368470242,55.29166666666424 134.46712807755102,56.92600150965882 134.01573781555635,59.74810181395151 133.86284756549867,60.0008225285419 133.7900426845008,60.506261647096835 133.7245182916522,61.7951174552436 133.31681095820386,64.5833578842794 133.20760363675072,64.76867567809677 133.25128656532615,65.17300397271174 132.75621337475604,68.64340743634966 132.78533532712026,70.07532771444676 133.3604938868084,75.07000909079943 133.91381098216516,75.54166666666424 133.79732317262096,75.35637293877517 133.51338413686608,72.13051126855134 133.15664022008423,69.98267479737842 133.15664022008423,68.39071305656398 133.71723780356115,64.98768708235002 134.13222562510055,61.43289202971209 134.46712807755102,60.04294257274887 134.41616466088453,59.72282970014203 134.74378662521485,57.27982233653165" stroke="#4DD2FF" stroke-linecap="round" stroke-linejoin="round" stroke-width="0.5"><title>2025-08-30 5.0km</title><desc>1756550382000</desc></polyline><polyline fill="none" points="155.84068585943896,75.53255838355108 156.11618576172623,75.54166666666424 156.99778544920264,69.41158282704419 157.12372826164938,67.36205562591203 156.60421416015015,63.700116996675206 156.38381423827377,60.930790391947085 156.2500000000291,60.32043387203157 155.84855728517869,59.691853408330644 155.90365726567688,59.54609498975333 156.31297140626702,59.60986432705249 156.11618576172623,57.76053511592181 155.75410017580725,57.38702064138488 155.77771445317194,56.28468835580861 155.37627173835062,55.29166666666424 155.78558587896987,56.3302395453793 155.7383573242696,57.34146998915821 156.11618576172623,57.7878653821972 156.29722855470027,59.59164452103141 155.90365726567688,59.55520489785704 155.84855728517869,59.67363361897878 156.17915716799325,60.192896163556725 156.3916856640717,61.067436804391036 156.6199570117169,63.93696332514082 157.12372826164938,67.23452793990145 157.02927115233615,69.16564203775488 156.22638572266442,74.6763756391083" stroke="#4DD2FF" stroke-linecap="round" stroke-linejoin="round" stroke-width="0.5"><title>2025-08-28 5.0km</title><desc>1756381580000</desc></polyline><polyline fill="none" points="179.43515557117644,55.29166666666424 179.60191301180748,56.15579045438062 179.57291171781253,56.944400387161295 179.12339166051243,59.76319984791189 178.96388454339467,60.05681925812678 178.9421335728548,60.979616322161746 178.3041051044711,64.73781057934684 178.35485736903502,65.2159614245611 177.86908569416846,68.37839819553483 177.83283407666022,69.66179290353466 177.94883925272734,69.79600296322315 177.9053373116767,70.3412290884662 178.45636189804645,75.09712592683354 179.0653890724352,75.54166666666424 178.8696303378092,75.36552816905169 178.19535025188816,69.81277920534922 178.1663489578932,68.73070461072348 178.66662127969903,65.19918424878415 178.78987677930854,65.02302369734389 178.90588195534656,63.546615733714134 179.41340460069478,60.64405494652601 179.37715298315743,60.24976858780428 179.5149091297062,60.06520836878917 179.4569065416872,59.8135346781055 179.66716592333978,58.37059071227122" stroke="#4DD2FF" stroke-linecap="round" stroke-linejoin="round" stroke-width="0.5"><title>2025-08-26 5.0km</title><desc>1756206850000</desc></polyline><polyline fill="none" points="21.887042967311572,79.45833333333576 21.90160394940176,80.14913858930959 22.018091806326993,80.17441184319614 21.952567386819283,81.03369789141288 21.54485988774104,83.83052807058266 21.406530557695078,84.14221715772146 21.23907926341053,86.03759854477539 20.736725380644202,88.89322469971376 20.656639979046304,90.2157085146755 20.285334935237188,92.70057329871634 20.350859354744898,94.57891320648196 20.91145716595929,99.59041919071751 20.93329863913823,99.70833333333576 21.37012810242595,99.65779872129497 21.0570669870649,96.38982845287683 20.671200961165596,94.16618745587766 20.634798505867366,93.03749838575459 21.100749933393672,89.59237482153549 21.26820122767822,89.11223621520912 21.828799038863508,84.52129690094444 21.99625033311895,84.18433721474867 21.93800640469999,83.91476847994636 22.214665064762812,81.81715682105278" stroke="#4DD2FF" stroke-linecap="round" stroke-linejoin="round" stroke-width="0.5"><title>2025-08-24 5.0km</title><desc>1756042259000</desc></polyline><polyline fill="none" points="43.49184401956154,99.70833333333576 43.71773050245247,99.3816052858092 44.50026581811835,94.05110643247463 44.6454785571259,91.70782954551396 44.21790771454107,89.00971955758723 43.79033687195624,84.89238163970731 43.32242915747338,83.94004590071563 43.43537239890429,83.80933238131547 43.782269497576635,83.84667912013538 43.604787261021556,82.01667105397064 43.21755329036387,81.57783716721315 43.28209228545893,80.63480405853625 42.846454068494495,79.45833333333576 43.25789016232011,80.45740070806642 43.23368803912308,81.58717408023949 43.620922009809874,82.04468165637081 43.80647162074456,83.85601580244838 43.709663128101965,83.94938257354079 43.37083340372192,83.82800575262081 43.37083340372192,83.9587192454128 43.68546100493404,84.52825443518668 43.862943241460016,85.21916123484698 44.07269497556263,87.75866588260396 44.653545931505505,91.80118833390588 44.524467941286275,93.92974296208558 43.63705675859819,99.63365273921954" stroke="#4DD2FF" stroke-linecap="round" stroke-linejoin="round" stroke-width="0.5"><title>2025-08-23 5.0km</title><desc>1755956696000</desc></polyline><polyline fill="none" points="66.9649038228672,79.45833333333576 66.97223616973497,80.01830717311532 67.06755667948164,80.12012019508256 67.03089494499727,80.96855721697648 66.5909541308938,83.70046586040553 66.42964249904617,84.0483111678841 66.05569280710188,87.53516822186066 65.86505178769585,88.68893801564263 65.74040189033258,88.80770753080287 65.79906066559488,89.22339950406604 65.27113168869982,93.21902704547392 65.94570760359056,99.57261444059986 65.96770464431029,99.67440363080823 66.3636513769743,99.70833333333576 65.63774903371814,93.04936521779746 66.73026872202172,85.10880621206888 66.86958331314963,84.2434432669761 67.00156555735157,84.08224721784063 66.94290678217658,83.7598541861953 67.22886831130018,81.55397373587766" stroke="#4DD2FF" stroke-linecap="round" stroke-linejoin="round" stroke-width="0.5"><title>2025-08-21 5.0km</title><desc>1755781186000</desc></polyline><polyline fill="none" points="89.31447306307382,79.45833333333576 89.33632363329525,81.02592555844603 88.89931222959422,83.84077487132163 88.74635823830613,84.1357385817173 88.68080652775825,84.63296074802929 88.76092528508161,84.87735699157201 88.08355760941049,88.87186940470565 88.12725874979515,89.29322026039154 87.64654620570946,92.7482165717156 87.67568029928952,94.20601332388469 88.28749626444187,99.70833333333576 88.70994062133832,99.63249985517905 88.41859968553763,96.43900493557157 88.03985646902584,94.16388082916092 88.01800589883351,92.55440351409197 88.49143491950235,89.33535522827151 88.61525481721037,89.14996120954311 89.11781793145929,84.96163139137934 89.35817420348758,84.15259361920471 89.36545772687532,83.22556147172872 89.85345379431965,80.12414225262182" stroke="#4DD2FF" stroke-linecap="round" stroke-linejoin="round" stroke-width="0.5"><title>2025-08-19 5.3km</title><desc>1755607955000</desc></polyline><polyline fill="none" points="111.03058697926463,99.60859090302256 111.38321504832129,99.70833333333576 111.38321504832129,99.03733665461186 111.51643009661348,98.73810677925212 111.68098986218683,96.67067295093875 112.15899680019356,93.54222804412711 112.11197972431546,91.49281046255783 111.57911953111761,88.05584963107685 111.33619797247229,85.22637879832473 111.18731056549586,84.48272092785191 110.80333777927444,83.83881703135557 110.88953575165942,83.68464216916618 111.26567235865514,83.76626418823435 111.10111259308178,82.07032466597593 110.6936312688922,81.517096776377 110.72497598614427,80.44690849535982 110.34100319983554,79.45833333333576 110.75632070339634,80.49225571697025 110.70930362748913,81.508027438118 111.07760405514273,81.90707744893007 111.26567235865514,83.7571950786878 110.87386339306249,83.70278040208359 110.83468249649741,83.82067882610863 111.28918089659419,84.86361963608215 111.5242662759265,87.5933461122404 112.10414354500244,91.60163027876115 112.09630736568943,92.53566157512978 111.51643009661348,96.55279150843126 111.3440341517271,96.63440175443975 111.23432764137397,96.90643536871357 111.03058697926463,98.23938809048559" stroke="#4DD2FF" stroke-linecap="round" stroke-linejoin="round" stroke-width="0.5"><title>2025-08-17 5.0km</title><desc>1755429603000</desc></polyline><polyline fill="none" points="133.45875721646007,99.6627919085513 133.35642867092974,99.70833333333576 133.47450006962754,99.58992558075988 133.608314321551,97.5860783536773 133.71851429366507,96.88472124037798 134.0805999164004,96.5841379403355 134.07272848978755,95.89188165750966 134.5607569378044,93.14102095706039 134.631599777058,91.90219518590311 133.773614279693,84.71484599495307 133.3249429645948,83.8403002854975 133.41152865701588,83.74009137779649 133.78935713288956,83.76742109101906 133.62405717468937,82.00008247398364 133.24622869878658,81.52635691941396 133.26984297856688,80.49690621200716 132.868400222942,79.45833333333576 133.29345725831809,80.51512668136274 133.23835727220285,81.48080625330476 133.61618574807653,81.92720178250602 133.80509998605703,83.75831118753558 133.40365723043215,83.7127616562575 133.348557244346,83.84941018062818 133.8208428391954,84.8241636083767 134.631599777058,91.47406759199657 134.62372835044516,92.55804625681048 134.09634276953875,96.4384002198567 133.7027714404976,98.95234268593049 133.5374714822974,99.07985962773091 133.48237149624038,99.46240936461254" stroke="#4DD2FF" stroke-linecap="round" stroke-linejoin="round" stroke-width="0.5"><title>2025-08-16 5.1km</title><desc>1755350047000</desc></polyline><polyline fill="none" points="156.1318754698732,99.653659023199 155.84837659751065,99.70833333333576 155.9822510649974,99.57164749551885 156.3602495615196,96.74676020057814 156.57287371577695,96.63740793552279 156.52562390369712,96.33668851904804 157.0926216484513,92.99225611910515 157.13199649186572,91.5432671094386 156.28149987471988,84.73543920517841 155.85625156617607,83.87872811762645 155.9428762216121,83.71467612416745 156.2893748434144,83.76936015534739 156.11612553251325,81.97388369544205 155.74600200468558,81.55463020502066 155.80112678543082,80.65231712734385 155.36012853949796,79.45833333333576 155.76962691074004,80.41534450981271 155.76175194204552,81.50905905527179 156.11612553251325,81.93742694805405 156.3208747181052,83.76024615245842 155.9113763468922,83.72379013168393 155.8720015035069,83.85138613957679 156.2106251566147,84.39822411601926 156.35237459282507,84.94505875629693 156.60437359049683,87.87056741667038 157.10049661714584,91.16962463602977 157.13987146053114,92.49103615496279 156.54137384105707,96.32757579369354 156.5886236531369,96.60095715088391 156.33662465549423,98.00430166377191 156.1318754698732,98.46904078497028" stroke="#4DD2FF" stroke-linecap="round" stroke-linejoin="round" stroke-width="0.5"><title>2025-08-14 4.9km</title><desc>1755170321000</desc></polyline><polyline fill="none" points="179.57716790036648,79.4752739081232 179.4014862223994,79.45833333333576 179.4527267118101,80.99144141133002 179.02816265673027,83.87123671678273 178.87444118855637,84.17615039582597 178.87444118855637,84.97230863373989 178.4425570635649,88.012885561453 178.3034757352143,88.84288451120665 178.19367468648124,88.91063916280109 178.25955531571526,89.33410448784707 177.7544704915781,92.81490797465085 177.79839091107715,94.29695781810005 178.41327678391826,99.64058745309012 178.83052076905733,99.70833333333576 178.11315391742392,93.00122425946756 179.30632531348965,84.54882115576766 179.47468692154507,84.20155981872085 179.4014862223994,83.90511606953805 179.7455295083928,81.4996478115354" stroke="#4DD2FF" stroke-linecap="round" stroke-linejoin="round" stroke-width="0.5"><title>2025-08-12 5.0km</title><desc>1754999139000</desc></polyline><polyline fill="none" points="21.79603078708169,103.69284739669092 21.891311327111907,103.625 21.898640599451028,105.0582645318791 21.44422571620089,107.9756026967807 21.290310997719644,108.26393872302287 21.136396279209293,110.22290123873972 20.652664306748193,113.06373923794308 20.161603061977075,117.15946388487646 20.205578695837175,118.41442832928442 20.718627757538343,122.6625125931314 21.25366463616956,123.875 20.535395949787926,117.2103411886128 21.620128251670394,109.38335150372586 21.88398205480189,108.29786054295982 21.81801860401174,108.06040751375986 22.12584804103244,105.77064721370698 22.33839693805203,104.90561030903336" stroke="#4DD2FF" stroke-linecap="round" stroke-linejoin="round" stroke-width="0.5"><title>2025-08-10 5.0km</title><desc>1754830447000</desc></polyline><polyline fill="none" points="43.46204533151467,123.875 44.558639822585974,117.3476582725416 44.62964234358515,115.81389237441908 44.04584383754991,111.76937217336672 43.76972292253049,108.82031823752914 43.3279294584936,108.03510488766915 43.3910428105155,107.8707570384795 43.793390429520514,107.95293100068375 43.61982871152577,106.14508646004106 43.241148599481676,105.69768497010955 43.2648161064717,104.67504462136276 42.86246848743758,103.625 43.280594444513554,104.71156769151276 43.24903776848805,105.70681563505786 43.61982871152577,106.15421707947098 43.80916876750416,107.92553968831635 43.40682114849915,107.90727880874329 43.35948613449,108.0077136003747 43.80916876750416,108.97553401718324 44.172070541535504,112.56368283891061 44.598085667559644,115.17481551993114 44.63753151256242,116.6264263803896 43.72238790852134,123.10817604813928 43.469934500491945,123.37291362843098" stroke="#4DD2FF" stroke-linecap="round" stroke-linejoin="round" stroke-width="0.5"><title>2025-08-09 5.0km</title><desc>1754735080000</desc></polyline><polyline fill="none" points="66.85807462429511,103.625 66.9020318260591,105.04918742838345 66.61631001465139,107.28714712840883 66.25,108.82994802819303 66.16941179678543,110.22861649918923 65.67855637715547,113.09369447517383 65.70786117835087,113.53446697207255 65.20967955846572,116.89104270260577 65.19502715786803,118.04377494568325 65.82508038304513,123.4003806296605 66.31593580261688,123.875 65.5979681739409,118.34890728651953 65.63459917542059,116.54352471210586 66.68224581726827,109.33855745742767 66.81411742253113,108.51630400151043 66.93866282750969,108.3552430972486 66.88005322517711,108.00768956038519 67.30497284216108,105.13395972298167" stroke="#4DD2FF" stroke-linecap="round" stroke-linejoin="round" stroke-width="0.5"><title>2025-08-07 5.0km</title><desc>1754570205000</desc></polyline><polyline fill="none" points="89.1009499275824,103.625 89.14623378921533,104.20139195431693 89.29717999463901,104.26252420761011 89.24434882277274,104.67298249636224 89.65190357741085,104.73411441423377 89.69718743901467,105.10963809853274 89.2820853741141,107.18808835509844 89.16132840976934,108.29715679342917 89.24434882277274,108.59407032508898 89.11604454813641,108.71632854002382 88.87453061947599,110.13975067385763 87.81035987118958,117.87646739178308 88.46697586483788,123.875 87.80281256095623,117.7367585894317 88.27074579778127,114.20030393260095 88.44433393402142,113.72003343998949 88.85943599892198,110.13975067385763 89.0707606865326,108.82112115729251 89.20661227140226,108.58533758878184 89.15378109950689,108.24476018140558 89.56888316440745,105.18823587136285" stroke="#4DD2FF" stroke-linecap="round" stroke-linejoin="round" stroke-width="0.5"><title>2025-08-05 5.0km</title><desc>1754406000000</desc></polyline><polyline fill="none" points="110.94336346868658,123.875 111.29380521870917,120.97188671442564 111.5088490198832,120.80599171976792 111.84336159945815,118.55716296354512 112.09026374149835,116.75068635734351 112.10619291197509,115.62622866457968 111.52477819033084,111.63521296084218 111.30176980397664,108.98058328476327 111.10265517322114,108.28926071561727 110.80000093459967,107.85602921845566 110.87168220162857,107.71776341115765 111.2619468778139,107.75463431374374 111.07876141756424,105.93872454357188 110.70442591185565,105.5423536147864 110.73628425280913,104.41775689327187 110.39380708799581,103.625 110.74424883798929,104.53759163432551 110.70442591185565,105.45017408059357 111.09469058804098,105.92950663466763 111.26991146302316,107.7454165895033 111.16637185509899,107.83759378964896 110.78407176418114,107.76385203702375 111.29380521870917,108.84231919270678 111.62035321304575,112.33572727406863 112.10619291197509,115.65387943080714 112.09822832673672,116.79677039155649 111.16637185509899,123.17457482402824 111.11858434372698,123.33124934621446 110.91150512779132,123.34046548612969 110.83185927549493,123.69067810969864 110.60885088911164,123.67224590006663" stroke="#4DD2FF" stroke-linecap="round" stroke-linejoin="round" stroke-width="0.5"><title>2025-08-03 5.0km</title><desc>1754221111000</desc></polyline><polyline fill="none" points="143.875,112.65439908297776 143.8127401998354,112.91255153872044 143.65190238278592,112.9275603330334 140.4922175249667,112.86452334566638 140.4066102997749,112.81049153515414 140.28209069946024,112.86152158100413 139.8799961568002,112.85851981604355 139.84627209836617,112.82550038131922 139.1276902382815,112.8675251100176 138.77488470406388,112.81349330499688 137.63604919292266,112.81049153515414 137.1431591083674,112.73244541216627 136.80851268253173,112.64539372403124 136.7877594158199,112.61237405109387 136.32340507300978,112.59736509664071 135.30390084549435,112.41725704845157 133.8044773251313,112.40524980619193 130.67592236740165,112.79548268136205 130.25307455802977,112.99059718589888 129.7990968485683,113.12867744119649 128.57984242889506,113.8700973412233 127.93389700229454,114.19727672427507 127.53699077632336,114.31133840978873 127.30351652574609,114.31434002714195 127.00778247501876,114.2423011264309 126.69388931589492,114.37137069898199 126.5875288239622,114.16125715317139 126.4604150653322,114.24530275079815 126.35664873174392,114.05019653247291 124.59002690236957,115.09475019380807 124.45513066870626,114.75557446153834 123.91035741736414,113.714010487427 123.85847425056272,113.67799032713447 123.625,113.79205401740182 123.77805534203071,113.67498864513436 123.8532859338884,113.66598359728596 123.87663335894467,113.59094142514004 123.97002305918431,113.59694480592407 124.09454265949898,113.512897363913 124.13086087624833,113.55492111480999 124.22425057647342,113.49488716666565 124.1931206763984,113.55191942029705" stroke="#4DD2FF" stroke-linecap="round" stroke-linejoin="round" stroke-width="0.5"><title>2025-08-02 8.3km</title><desc>1754134728000</desc></polyline><polyline fill="none" points="156.79127072985284,103.625 156.68229004601017,103.65022101454815 156.6169016356871,104.33118550072686 157.16180505498778,104.33118550072686 157.16180505498778,104.87763443012955 155.3454603239661,116.89859801491548 155.3527257028618,118.16784260925488 156.10832511098124,123.875 155.38905259751482,118.32754750423919 155.33819494501222,117.09192791819805 156.41347102579311,109.40881805781828 156.68229004601017,108.36641559893178 156.60963625676231,108.1310325812301 156.951109066169,105.65106366897817" stroke="#4DD2FF" stroke-linecap="round" stroke-linejoin="round" stroke-width="0.5"><title>2025-07-31 5.0km</title><desc>1753965181000</desc></polyline><polyline fill="none" points="178.34906562248943,123.875 178.43639786314452,123.14005211703625 178.65869811206358,122.87363203401037 179.46850616164738,117.29700387296907 179.55583840227337,115.23898499109782 179.14299508286058,112.73989906287898 178.70633387970156,108.61441852159624 178.2855512656679,107.8058390143342 178.37288350632298,107.68638915557676 178.72221246888512,107.73233142762183 178.5713658714085,105.90381096399506 178.16646184661658,105.46275526282261 178.21409761425457,104.44280570784758 177.89652583008865,103.625 178.22203690884635,104.46118327917793 178.19027973039192,105.48113262667903 178.5713658714085,105.95894277524349 178.75396964728134,107.7139545216196 178.6507588174427,107.8058390143342 178.33318703327677,107.67720069834468 178.30142985488055,107.81502745848411 178.77778753111488,108.87169230205473 179.0556628422346,111.95892053865828 179.60347416991135,115.90049617050681 179.03184495840105,120.65955890105397 178.6110623444256,123.29622904204734 178.46021574694896,123.36053710925626" stroke="#4DD2FF" stroke-linecap="round" stroke-linejoin="round" stroke-width="0.5"><title>2025-07-29 5.0km</title><desc>1753797916000</desc></polyline><polyline fill="none" points="22.11854557064362,127.79166666666424 22.103948166099144,129.33719081247546 21.768207861488918,131.70187158935005 21.505454579601064,132.4872685371156 21.330285725038266,134.64918310086796 20.841272672638297,137.23327284228435 20.8996622908453,137.689280341845 20.41794794073212,140.88970705092652 20.447142749850173,142.58698099272442 21.04563633631915,148.04166666666424 20.483636261196807,143.3047232325116 20.381454429385485,141.5061339314052 20.84857137495419,137.36838643620285 21.49815587734338,133.23887802255922 21.432467556849588,133.02775244894292 21.746311754686758,131.74409742044372 22.103948166099144,128.88958295055636" stroke="#4DD2FF" stroke-linecap="round" stroke-linejoin="round" stroke-width="0.5"><title>2025-07-27 5.0km</title><desc>1753616848000</desc></polyline><polyline fill="none" points="44.328379914717516,127.79166666666424 44.34993444569409,129.5708083189893 43.9547680443502,132.38077568043082 43.796701483777724,132.6800564590376 43.573971330275526,135.1241418504069 43.17162008525338,137.35202004337043 43.20035945987911,137.77597506999882 42.67586587264668,141.23403602620965 43.329686645796755,148.04166666666424 43.760777265473735,147.97517240162415 43.45182898803614,144.642078169265 43.0997716486454,142.3063377543658 43.085401961317984,141.05947395032126 44.07691038653138,134.06837242241454 44.407413195003755,132.6717431188663 44.335564758395776,132.34752219300572 44.82413412735332,129.38790769022307" stroke="#4DD2FF" stroke-linecap="round" stroke-linejoin="round" stroke-width="0.5"><title>2025-07-26 5.2km</title><desc>1753529066000</desc></polyline><polyline fill="none" points="66.9489272122737,127.79166666666424 66.86156131071039,128.22973896010808 66.97804917942267,128.7941748487574 66.83971983531956,130.12521740114607 66.53393917999347,132.19755757776875 66.37376836049953,132.49239851625316 66.3519268851087,133.37691504170652 65.7039631154621,137.26025214976835 65.7549265579728,137.6308865327519 65.27441409957828,141.1602536998398 65.33993852572166,143.0385907466698 65.91509737746674,148.04166666666424 66.33008540974697,147.9995544921112 66.00246327900095,144.94215350862942 66.07526819696068,144.78212115284987 65.66028016468044,142.40686778723466 65.6529996728641,141.2781774563482 67.22558590042172,130.26842956711334" stroke="#4DD2FF" stroke-linecap="round" stroke-linejoin="round" stroke-width="0.5"><title>2025-07-24 5.0km</title><desc>1753356656000</desc></polyline><polyline fill="none" points="88.39482724491972,148.0051349163623 88.49743270751787,148.04166666666424 88.84471273468807,145.15561264267308 89.07360184349818,145.00948085990967 89.01835274827317,144.72634985460172 89.61030734004453,141.0638329006033 89.6497709795076,139.95865507539565 89.05781638770713,136.0584561026044 88.81314182313508,133.17201716911222 88.33957814972382,132.1763569108225 88.41061270073988,132.0302040174647 88.79735636734404,132.10328049385862 88.59214544217684,130.26721600757446 88.25275814288761,129.90182556280342 88.28432905446971,128.91526393766253 87.8502290204924,127.79166666666424 88.24486541500664,128.69602654946357 88.23697268712567,129.86528643659403 88.60003817008692,130.24894652063085 88.80524909525411,132.0484731421384 88.70264363265596,132.1489532614214 88.42639815647271,132.0393385802745 88.33957814972382,132.1489532614214 88.61582362584886,132.54173810387147 88.81314182313508,133.19942050643294 89.16831457818625,136.8348558115904 89.62609279580647,139.80338106879208 89.6182000679546,141.01816466465243 88.75789272788097,147.00050596432266" stroke="#4DD2FF" stroke-linecap="round" stroke-linejoin="round" stroke-width="0.5"><title>2025-07-22 5.0km</title><desc>1753184035000</desc></polyline><polyline fill="none" points="101.125,141.25647616150673 101.125,138.00704330814187 103.27792758098803,128.90847321634647 120.68855932215229,132.08577813737793 121.375,132.84399443047005 119.03486132528633,146.88875604674104 103.40273497696035,144.43367066278006 102.84110169508494,143.71158349802135 104.7756163328886,129.66669629013631 105.46205701073632,129.233426160441 109.611902927747,129.9194369551842 121.34379815112334,132.51904478878714 119.28447611723095,146.5999233525945 118.62923728814349,146.92486011693836 103.09071648691315,144.28925334723317 103.27792758098803,139.6678682571801 104.8068181819981,129.73890792712336 105.30604776588734,129.30563788540894 112.98170261958148,130.6054464254412 105.15003852092195,129.37784959573764 104.27638674899936,133.34947106035543 105.05643297394272,134.1076846566575" stroke="#4DD2FF" stroke-linecap="round" stroke-linejoin="round" stroke-width="0.5"><title>2025-07-20 4.9km</title><desc>1753020627000</desc></polyline><polyline fill="none" points="134.91391049377853,127.79166666666424 134.76114724148647,128.82701114592783 134.19374087575125,130.28320546656323 133.7136277970567,132.47165746332757 133.58268786646659,134.1971269357091 133.13167255013832,137.08405160296388 133.0298303819436,137.17663352842646 133.08075146607007,137.58904266688478 132.60791282792343,140.9976518606927 132.58608950619237,142.1254077409758 133.23351471836213,148.03325123551622 133.1607703125046,146.87191354234528 133.24078915896825,148.04166666666424 133.6554322723823,147.95751231667964 132.9570859760861,141.3679614538123 134.07007538579637,133.23760200568358 134.30285748452297,132.5053255040766 134.33195524686016,131.5205296593922" stroke="#4DD2FF" stroke-linecap="round" stroke-linejoin="round" stroke-width="0.5"><title>2025-07-20 5.0km</title><desc>1752942252000</desc></polyline><polyline fill="none" points="157.12316423584707,127.8007280973834 156.99786712578498,127.79166666666424 156.80209039128385,128.78841852609185 157.02136033395072,128.9243383710491 157.00569819516386,129.21430001468252 156.73161076687393,131.06278333230148 156.5828204486461,131.3799212277372 156.19909804902272,134.9952135398853 155.8780242044304,136.47209531144472 155.90934848197503,136.90700062071846 155.35334255595808,141.06567557332164 156.10512521641795,148.04166666666424 155.40816004161024,142.22535864200472 155.39249790285248,140.4677081011323 155.90934848197503,136.96136363530968 155.88585527378018,136.48115586033964 156.4575233385549,133.03808100576862 156.5749893792381,131.37086016066314 156.73161076687393,131.0446611327934 157.14665744401282,128.08163199292903" stroke="#4DD2FF" stroke-linecap="round" stroke-linejoin="round" stroke-width="0.5"><title>2025-07-17 5.0km</title><desc>1752765839000</desc></polyline><polyline fill="none" points="187.43834459467325,147.61435819469625 187.8944256757386,146.98106244395603 188.875,138.72168893984053 174.21199324319605,138.0619832407101 171.56672297301702,138.27308924682438 171.88597972970456,138.0619832407101 171.40709459455684,135.08009257071535 168.6934121621307,130.80510992283234 168.625,128.40369990613544 168.94425675668754,128.2189751386759 181.69172297301702,128.43008914784878 180.77956081088632,136.74256681418046 180.20945945940912,137.11200408940203 172.25084459455684,136.84812037504162 171.38429054047447,134.07732518194825 169.14949324319605,131.22733356393292 168.87584459455684,129.72315870851162 172.04560810804833,129.48565661895555 181.28125,129.80232602346223 181.4180743242614,131.78150105086388 180.59712837846018,138.22031276140478 179.36570945940912,138.2994774855033" stroke="#4DD2FF" stroke-linecap="round" stroke-linejoin="round" stroke-width="0.5"><title>2025-07-15 4.1km</title><desc>1752589649000</desc></polyline><polyline fill="none" points="22.063787729974138,151.95833333333576 22.125496752152685,153.39535363608593 21.647251830261666,156.3942768101915 21.477552019263385,156.74235947642592 21.469838391494704,157.62594774319587 20.791039147530682,161.76709150535316 20.821893658634508,162.23117304103653 20.305080597870983,166.07760065941693 20.922170819656458,172.20833333333576 20.567343942122534,169.78107837651623 20.297366970102303,165.88126736420963 21.454411135957344,157.56347209710657 21.384988486010116,157.27786857770116 21.61639731915784,156.4567532877336 22.071501357771922,153.48460878009791 22.01750596333295,153.17221537927253 22.202633029897697,152.2261028737339 22.03293321892852,152.01188730671856" stroke="#4DD2FF" stroke-linecap="round" stroke-linejoin="round" stroke-width="0.5"><title>2025-07-13 5.0km</title><desc>1752418082000</desc></polyline><polyline fill="none" points="43.57413868478034,172.20833333333576 43.470220634917496,172.19908356248925 43.53417020407505,171.4683486971262 43.885892834485276,169.24835869404342 44.093728934269166,169.06335708308325 44.453445260820445,166.54729784084338 44.64529396826401,163.9479135890142 44.117710022692336,160.3308532453011 43.84592435375089,157.3057332920216 43.68605043084244,156.7136491162455 43.35031519271433,156.17706950378488 43.42225845804205,156.03829839933314 43.8059558730165,156.0938068665273 43.638088253967,154.33602229462122 43.254390838963445,153.854938492339 43.27837192744482,152.75398714138282 43.006586258503376,151.99534064147883 42.83871863942477,151.99534064147883 42.982605170022,151.95833333333576 43.254390838963445,152.63371433779685 43.24639714282239,153.8641901279334 43.59811977323261,154.18799678026699 43.638088253967,154.3730286355858 43.8059558730165,156.06605263715755 43.414264761900995,156.04754981287988 43.32633410429116,156.14931529985915 43.678056734701386,156.6581410272338 43.83793065760983,157.2224716876226 44.16567219956778,160.82115373582928 44.66128136057523,163.8831592968636 44.653287664434174,165.067230500179 43.678056734701386,171.7273440040808" stroke="#4DD2FF" stroke-linecap="round" stroke-linejoin="round" stroke-width="0.5"><title>2025-07-12 5.1km</title><desc>1752325602000</desc></polyline><polyline fill="none" points="66.12799282599008,172.20833333333576 65.93120706142508,172.19922505023715 66.37200717403903,169.16611530337104 66.553050077433,169.07502933913202 67.05682163464371,165.69567463974818 67.13553594046971,163.9922858280479 66.67112153614289,160.9406794554161 66.3169071599259,157.23306560555648 65.84462132499903,156.27653099280724 65.907592769654,156.1763220138091 66.30116429878399,156.2400913770398 66.12012139539002,154.3907614140262 65.76590701920213,153.99902652210585 65.75016415806022,152.769150032349 65.35659262895933,151.95833333333576 65.77377844977309,152.86936282261013 65.76590701920213,153.98991638797452 66.12799282599008,154.39987150741945 66.32477859052597,156.21276165548625 65.946949922567,156.16721210106334 65.86036418622825,156.31297059372446 66.33265002109692,157.30594401451526 66.67899296671385,160.92246059783065 67.14340737101156,163.9285219818048 67.06469306524377,165.65012990566174 66.30903572935495,170.67812878763652" stroke="#4DD2FF" stroke-linecap="round" stroke-linejoin="round" stroke-width="0.5"><title>2025-07-10 5.0km</title><desc>1752149320000</desc></polyline><polyline fill="none" points="85.9101617091801,151.95833333332848 85.95759115874534,153.22061719134217 86.30145466781687,153.04225170990685 87.03661113564158,153.28921923683083 87.83105441526277,153.22061719134217 88.72035659401445,153.54990669188555 93.30915583629394,154.15360202401644 93.43958682246739,154.3319660374691 92.38428157038288,161.06846514584322 91.87441498792032,161.10962398539414 91.77955608884804,161.2879788117134 91.60169565310935,162.48157812526915 91.7321266392828,163.00291704428673 90.92582599725574,167.5439683139848 85.02085953048663,167.3656217486423 84.81928436993621,167.22843192279106 84.0604131774744,172.20833333332848 84.8548564570956,167.31074583501322 87.15518475940917,167.35190277229412 87.92591331433505,167.05008494082722 88.03262957575498,167.3656217486423 90.96139808441512,167.4616545438912 93.00086441432359,154.68869335757336 92.94157760241069,154.22220359556377 86.83503597509116,153.15201511095802" stroke="#4DD2FF" stroke-linecap="round" stroke-linejoin="round" stroke-width="0.5"><title>2025-07-08 5.1km</title><desc>1751976330000</desc></polyline><polyline fill="none" points="101.30536321137333,172.0239488536754 101.26190522109391,172.20833333332848 101.5371391599183,172.0909977791889 101.62405514053535,171.15231034158205 102.13106502784649,170.73325172513432 102.23246700526215,170.29742963473836 103.69555267988471,160.15585967614606 103.82592665083939,157.08812145628326 103.47826272825478,154.8249993075733 104.2749925510725,154.7914713385544 104.47779650596203,155.09322281416098 107.27359388425248,155.4955572560284 109.51892338495236,155.46202942339005 111.15584102092544,156.11582093096513 116.37079986114986,156.88695630065922 117.3268756486359,151.95833333332848 121.23809477884788,152.83007328840904 117.74696955515537,152.0086261483375 117.09509970014915,154.90881920022366 116.99369772261707,156.92048384365626 107.23013589391485,155.61290461673343 104.47779650596203,155.10998676884628 104.23153456073487,154.7411793722422 103.43480473791715,154.87529124827415 103.75349666702095,156.21640400974138 103.8114406541572,159.11652306416363 102.17452301812591,170.3477168578247" stroke="#4DD2FF" stroke-linecap="round" stroke-linejoin="round" stroke-width="0.5"><title>2025-07-06 5.0km</title><desc>1751807521000</desc></polyline><polyline fill="none" points="126.70720103458734,170.9531573963177 127.58455990912626,164.71406595117878 124.74510755157098,164.51101499577635 123.85179669759236,164.82482092209102 125.01629120367579,164.71406595117878 124.85677140840562,164.52947418291296 127.79193564306479,164.69560678281414 127.99931137711974,164.51101499577635 127.90359949984122,163.93877926391724 129.0999979650369,156.3887906356831 128.98833410831867,152.62290881919034 131.04613946855534,152.41984434542246 143.64820330234943,154.48739928285067 143.63225132285152,153.8782114347996 129.76998110557906,151.95833333332848 129.99330881913193,156.51801068482746 128.54167868127115,166.78148093931668 128.9404781697085,167.40908440483327 128.5735826403834,168.09206218288455 128.65334253798937,169.568762113704 128.09502325422363,169.69797278648184 127.83979158167494,172.20833333332848 126.54768123920076,172.0606660261983 126.62744113692315,170.9716159288073" stroke="#4DD2FF" stroke-linecap="round" stroke-linejoin="round" stroke-width="0.5"><title>2025-07-05 4.8km</title><desc>1751729502000</desc></polyline><polyline fill="none" points="159.5092483671615,172.20833333333576 159.70965522469487,172.06187181302084 159.7412984126713,171.2319198244295 160.01553937559947,170.02359711796453 160.16320758638903,169.9747757430232 160.35306671459693,168.2049875021694 156.22890454129083,168.034110015622 156.4925977748935,167.11869076919538 156.88286376057658,162.9931147813113 156.92505467799492,159.97818115634436 156.77738646714715,159.5753705266834 156.9356024072622,157.10965176569152 156.92505467799492,151.95833333333576 151.38749677262967,153.94808679310518 151.27147174981656,154.22884689638886 151.3136626672349,153.98470771336724 154.29867007141002,152.8494539907624 154.35140871815383,155.36408757605386 154.64674513973296,155.99884112671134 156.85122057254193,155.99884112671134 156.86176830192562,159.22138431241183 157.09381834743544,159.331242214721 157.1782001821557,159.72184727564309 161.03866912191734,159.96597479349293 161.22852825012524,160.93027363677538 161.20743279141607,162.6879629991381 159.8784188941936,171.75674307209556" stroke="#4DD2FF" stroke-linecap="round" stroke-linejoin="round" stroke-width="0.5"><title>2025-07-03 5.2km</title><desc>1751545471000</desc></polyline><polyline fill="none" points="178.39514732849784,172.20833333333576 178.87616983873886,169.24275581908296 179.0733102117665,169.1058806461515 179.57798956678016,165.36454511859483 179.6174176413915,164.06872914639098 178.7578856149048,157.18781547395338 178.33994802407688,156.32081943673984 178.42668978817528,156.20217722230154 178.78154245967744,156.26606151109445 178.61594454629812,154.4955372450204 178.22954941514763,154.00270468854433 178.23743503005244,152.8801315400924 177.86681112876977,151.95833333333576 178.26897748975898,152.96227151490893 178.22954941514763,154.02095779446245 178.58440208659158,154.3677661013644 178.63960139104165,154.6506876749263 178.78154245967744,156.2569351869024 178.39514732849784,156.22955620877474 178.33994802407688,156.34819838702242 178.76577122983872,157.18781547395338 179.17582320576184,161.09375692559843 179.63318887120113,164.04135255087022 179.49913341752836,166.08544872438506 178.63171577613684,171.89809288816468" stroke="#4DD2FF" stroke-linecap="round" stroke-linejoin="round" stroke-width="0.5"><title>2025-07-01 5.0km</title><desc>1751376396000</desc></polyline><polyline fill="none" points="20.538358737831004,196.375 20.684586394461803,196.19451492517692 20.65534086310072,195.528973675835 20.889305113698356,195.303365567117 21.05502979119774,194.42348956206843 21.30849106266396,191.3213069797057 21.659437438531313,190.1142525086616 22.04937785619404,186.94426190740342 21.95189275179291,185.12796314726438 21.40597616706509,181.89013945678016 21.035532770329155,177.96401048285043 20.450622143864166,176.50859979447705 20.9672931972309,176.6101406945818 20.986790218099486,176.125 20.986790218099486,176.5875760581257 20.538358737831004,176.49731746652105 20.46037065429846,176.6101406945818 20.830814051034395,177.16297285366454 21.05502979119774,177.94144612175296 21.464467229729053,182.31884627733962 22.04937785619404,186.21097716593795 22.000635303964373,188.0272582023681 20.772322988370433,195.99146886531526" stroke="#4DD2FF" stroke-linecap="round" stroke-linejoin="round" stroke-width="0.5"><title>2025-06-30 4.1km</title><desc>1751292736000</desc></polyline><polyline fill="none" points="33.85235191634274,187.4983025804613 33.625,185.8550948953125 33.703397212550044,185.68260172280134 39.802700348431244,185.39208615091047 40.774825783941196,185.48287236892065 42.35844947735313,185.328535743276 44.73388501739828,185.35577163782 53.875,184.77473741456197 51.146777003479656,184.96538968684763 50.51175958191743,185.17419885019626 49.33580139372498,185.1197269417171 43.38545296166558,185.42840064923075 37.850609756074846,185.5282654432158 37.68597560975468,185.67352312553703 38.07012195119751,187.72526258543076 37.88980836234987,187.70710580631567 37.67029616722721,186.6358492878353" stroke="#4DD2FF" stroke-linecap="round" stroke-linejoin="round" stroke-width="0.5"><title>2025-06-26 5.0km</title><desc>1750950176000</desc></polyline><polyline fill="none" points="76.375,187.07877715588256 76.04803552207886,185.42122284411744 67.33624865443562,186.22055522028677 66.40621636170545,186.22896920412313 63.04938105487963,185.80826896116196 56.125,186.10275935634854 62.81687298169709,185.79985493442655 66.41348223897512,186.23738318713004 72.61127556514111,185.6736444305934" stroke="#4DD2FF" stroke-linecap="round" stroke-linejoin="round" stroke-width="0.5"><title>2025-06-24 5.0km</title><desc>1750769966000</desc></polyline><polyline fill="none" points="98.875,187.0609436127852 98.5978025936347,185.4390563872148 89.9755043227633,186.25845129606023 88.9250720460841,186.29224060293927 85.5257564841304,185.85297853924567 78.625,186.15708329282643 85.343389769434,185.85297853924567 88.9177773775009,186.29224060293927 96.2197406339692,185.6417940261017" stroke="#4DD2FF" stroke-linecap="round" stroke-linejoin="round" stroke-width="0.5"><title>2025-06-22 5.0km</title><desc>1750563938000</desc></polyline><polyline fill="none" points="111.94201795678237,196.375 110.89543249562848,190.12236129766097 110.88076073685079,188.41748897663638 110.973681875912,187.70380595649476 110.91499484071392,185.86857893816705 110.93455718577025,185.5513730600578 111.04215008363826,185.37011174486906 110.93455718577025,185.2851452997129 110.92966659949161,184.12392418762101 109.74125413663569,176.97479878388185 109.4429283743375,176.125 109.74614472288522,176.86715832413756 110.91499484071392,184.00496845871749 110.97857246219064,187.48290221087154 110.89543249562848,188.42315309090918 110.89054190934985,190.06572186149424 111.6925980571832,194.8685408870806 111.80508154130075,195.19702041601704 113.0570716256625,195.12905929348926" stroke="#4DD2FF" stroke-linecap="round" stroke-linejoin="round" stroke-width="0.5"><title>2025-06-21 8.0km</title><desc>1750517001000</desc></polyline><polyline fill="none" points="135.8044209749205,196.375 134.0890791900456,185.82685964051052 131.07060953759355,185.7652624973125 125.63204527384369,185.241685766101 125.73842305893777,184.68730842562218 125.5256674886914,183.62474616938562 125.81820639775833,176.67940876755165 125.77831472828984,176.1866010746744 125.51237026555464,176.125 125.17993968707742,184.67190902603033 125.68523416639073,184.73350661502627 125.71182861260604,185.25708510767436 134.12897085951408,185.81146035708662 135.15285704110283,192.40221023210324 135.4719903965015,193.2799285898218 142.32006031292258,193.06434911474935" stroke="#4DD2FF" stroke-linecap="round" stroke-linejoin="round" stroke-width="0.5"><title>2025-06-19 5.0km</title><desc>1750345525000</desc></polyline><polyline fill="none" points="166.375,186.7569461144485 166.18913043479552,185.65242770878103 160.4565217391355,186.19619335945754 159.7179347825877,186.21318595028788 157.26250000001164,185.929975424413 148.1646739130374,186.34346230758092 147.37717391303158,186.47373835947656 146.125,186.8475722912226 147.89076086954447,186.37178321440297 151.08967391305487,186.23017853595957" stroke="#4DD2FF" stroke-linecap="round" stroke-linejoin="round" stroke-width="0.5"><title>2025-06-17 5.1km</title><desc>1750166247000</desc></polyline><polyline fill="none" points="169.32327586197061,193.89159132672648 168.625,189.40379474624933 184.40603448275942,188.93883704327163 181.83987068966962,178.81057486037025 184.94719827582594,178.9925242526224 188.875,178.60840867328807 182.67780172417406,178.97230766170833 184.96465517242905,188.08978103398113 178.19137931033038,188.4132313708833" stroke="#4DD2FF" stroke-linecap="round" stroke-linejoin="round" stroke-width="0.5"><title>2025-06-16 3.2km</title><desc>1750084948000</desc></polyline><polyline fill="none" points="31.375,211.3527662370907 31.064717741974164,209.48056709624507 21.1111895161157,210.3977602848463 20.213004032266326,210.40721583752747 16.277318548382027,209.9249814231007 11.125,210.17082673188997 16.114012096775696,209.9155258212777 20.204838709702017,210.3883047312338 28.64778225813643,209.67913546282216" stroke="#4DD2FF" stroke-linecap="round" stroke-linejoin="round" stroke-width="0.5"><title>2025-06-15 4.6km</title><desc>1749956754000</desc></polyline><polyline fill="none" points="53.875,211.23106960279256 53.628490870061796,209.6022637305432 44.957169710018206,210.39987887744792 44.05088614395936,210.41667069227697 40.23724489795859,209.9884783450325 33.625,210.290731997673 40.367749731463846,209.9884783450325 43.992883995728334,210.41667069227697 45.88520408165641,210.3243156683966 46.24046723952051,210.2067727609683 50.83713748658192,209.79537126411742" stroke="#4DD2FF" stroke-linecap="round" stroke-linejoin="round" stroke-width="0.5"><title>2025-06-14 5.1km</title><desc>1749906363000</desc></polyline><polyline fill="none" points="76.375,211.61901257834688 76.13154172559734,209.97719620332646 67.73939179631998,210.78981652994844 66.60802687410614,210.79810853228264 63.170968882594025,210.3835073812079 56.69784299857565,210.69031243625068 56.61191654880531,210.49959591648803 56.647719236207195,209.22261291787436 56.125,209.21432075498888 56.669200848642504,209.23919724112784 56.61191654880531,210.49130388373305 56.719324611040065,210.69031243625068 63.349982319632545,210.37521533664403 66.76555869873846,210.80640053376555 73.56806930695893,210.19279014226777 73.56090876943199,209.861106922639 75.74487270155805,209.74501747632894" stroke="#4DD2FF" stroke-linecap="round" stroke-linejoin="round" stroke-width="0.5"><title>2025-06-12 5.9km</title><desc>1749735885000</desc></polyline><polyline fill="none" points="98.875,216.78713254725153 98.22946985450108,213.53699158859672 80.49142411636421,215.1133182272897 78.82146569644101,210.5468033921934 78.625,204.84253885202634 81.93685031181667,204.6962729748484 84.75753638247261,204.87504236205132 84.91190228692722,204.35498540630215 84.6172037422075,204.24122272108798 78.70919958414743,204.04620078607695 78.83549896045588,210.3842915573623 79.32666320161661,212.2369166546705 80.2949584199232,214.54454237122263 88.15358627855312,213.86200866574654 88.30795218289131,214.47953928704374 98.18737006239826,213.52074071731477 98.79080041585257,216.73838092225196" stroke="#4DD2FF" stroke-linecap="round" stroke-linejoin="round" stroke-width="0.5"><title>2025-06-10 5.3km</title><desc>1749559786000</desc></polyline><polyline fill="none" points="101.6566954239388,205.02518901095027 101.17057389358524,203.0549230415636 101.125,201.5244330627611 114.9035071269027,201.17259436751192 115.52635033760453,203.47712478545145 115.07061140291626,203.45953306677984 114.93388972250978,203.7761837291764 115.22252438112628,205.41220289799094 115.14656789205037,206.52046513787354 115.64788072026568,208.73696827155072 116.939141035371,208.68419471816742 118.85324456117814,216.05474478618999 118.88362715690164,216.38896274879517 118.39750562648987,216.52968590793898 118.8380532633746,216.40655314999458 118.98996624158463,216.68799932480033 118.59499249811051,216.75836079688452 118.7317141785752,217.4092030536849 119.64319204806816,219.73110679093224 120.28122655668994,219.6607465303823 121.375,219.062683158234 120.22046136541758,219.3089447976963 118.16963615908753,211.12935241467494 117.92657539393986,210.4257134613872 117.37968867225572,210.4257134613872 116.96952363097807,208.63142114861694 116.52897599403514,208.80733298431733 115.63268942246214,208.68419471816742 115.13137659424683,206.66119634169445 115.02503750944743,204.05765049702313 114.18951612908859,201.10222654242534 101.17057389358524,201.55961689284595 101.71746061521117,205.13073833889212" stroke="#4DD2FF" stroke-linecap="round" stroke-linejoin="round" stroke-width="0.5"><title>2025-06-08 5.0km</title><desc>1749355299000</desc></polyline><polyline fill="none" points="143.875,211.24995009971462 143.51884422107833,209.58338323362113 136.99174443644006,210.13049222600966 135.0292534098844,210.40825386575307 133.93898061738582,210.40825386575307 130.48645010768087,209.9874025318568 123.625,210.29041570844856 130.1593682699022,209.9874025318568 133.9026381909789,210.4166708705452 141.7744077530515,209.70963947663404" stroke="#4DD2FF" stroke-linecap="round" stroke-linejoin="round" stroke-width="0.5"><title>2025-06-07 5.3km</title><desc>1749293029000</desc></polyline><polyline fill="none" points="166.375,211.21887372528 166.0760262873955,209.61445960805577 156.83700936261448,210.45889196361532 153.08889989193995,210.02823253766837 146.125,210.31533907036646 153.05973172487575,210.01134388710489 156.39219481457258,210.45889196361532 163.53110370904324,209.80867981193296" stroke="#4DD2FF" stroke-linecap="round" stroke-linejoin="round" stroke-width="0.5"><title>2025-06-05 5.1km</title><desc>1749128617000</desc></polyline><polyline fill="none" points="168.90846456692088,210.28849211770284 168.625,208.43179530605266 168.73129921255168,208.34973056817398 176.677165354311,208.0727615838623 178.1742125984165,213.56070865235233 186.02263779524947,213.45813294654363 188.875,213.28375400675577 186.52755905513186,213.36581472191028 186.0935039370088,207.27262468098343 178.58169291337254,207.7137265808924 176.96948818897363,207.66243576160923 177.11122047243407,208.0727615838623 172.9478346456308,208.19585900433594" stroke="#4DD2FF" stroke-linecap="round" stroke-linejoin="round" stroke-width="0.5"><title>2025-06-03 5.2km</title><desc>1748952979000</desc></polyline><polyline fill="none" points="27.87109290351509,228.54660303938 27.426875205506803,227.8891123355861 27.11198671074817,227.19906531547895 26.909558392711915,227.01027756910116 26.40911060635699,226.96470802956173 26.026746005547466,226.5220308123462 25.85243273168453,225.94263982332268 25.59377432524343,225.54552611272447 25.284508839278715,224.45833333333212 24.390450434497325,224.842433493297 23.97434778069146,224.8880045455735 22.894730084284674,225.2916324476755 22.43364335980732,225.8840494309734 22.43364335980732,226.03378032691035 20.566804426489398,228.40989760820594 20.55555840881425,228.54660303938 20.04386460481328,229.24965492587216 19.599646906834096,229.65976495648647 19.52092478313716,229.5881586327596 19.206036288349424,229.8615641647193 18.99798496143194,229.7378808545909 18.99236195263802,229.85505452279176 18.964246908406494,229.68580359980842 19.25664336787304,229.8941123644836 19.21165929720155,230.12845891361212 18.536898236954585,230.87706019185862 17.384181425732095,231.13744119093826 17.384181425732095,231.02026987257705 17.30545930203516,231.16347923253852 16.990570807247423,231.2350837922677 16.715043374308152,231.156969723128 16.253956649830798,231.1960267696195 16.17523452610476,231.12442216616546 15.989675234566675,231.22857429015858 15.432997359894216,231.0332889185447 15.359898245020304,230.18053580788182 15.146223909279797,229.99175686431772 14.094721257104538,230.25865106980564 13.701110638619866,230.4995058599634 14.150951345451176,232.44583966246864 14.859450458694482,234.6199351409523 16.355170808848925,240.4648913010824 16.56322213576641,241.07018475146106 18.3288469100371,244.64325199163432 18.553767263452755,244.70833333333212 19.32974248274695,244.46102388273357 19.858305313275196,244.61721943642988 20.825462832930498,244.41546677442966 20.808593806403223,244.03148414407042 21.06725221281522,243.95989390730028 21.5339619461447,244.17466437736584 21.888211502780905,244.0054513399773 22.034409732499626,244.22022165712406 22.94533716380829,244.4219749347285 23.47952300318866,244.324352460495 24.01933185136295,243.92084465346852 24.114923001558054,243.15937944053076 24.519779637717875,242.59966418905606 24.412942469818518,242.03994404107652 24.542271673039068,241.76659056125573 24.266744240099797,241.46069361575064 24.09243096623686,241.0050997089893 24.02495486018597,240.32821134228288 24.390450434497325,240.03532473296582 24.947128309169784,240.2631255449851 25.2563937951345,240.24359979286965 25.33511591880233,239.82054036723275 25.205786715610884,239.29984800266539 25.098949547711527,239.2542872191225 25.205786715610884,239.20221771249635 25.08208052124246,239.16316555470257 25.183294680231484,239.22174378245109 25.194540697935736,238.91583466842712 25.048342468217015,238.57738032700217 24.3848274256452,238.5318190289072 24.075561939709587,238.29750326896465 24.204891142901033,237.41230265207196 24.733453973429278,236.50756289255514 25.138310609559994,236.0584427193462 25.323869901127182,235.99335257754137 25.72310352846398,235.44008369771473 26.42597963285516,234.7696455827936 27.05013361357851,233.98854376982126 26.870197330834344,233.6240263257132 26.313519456161885,233.61751706676296 26.240420341287972,233.40271114959978 26.45409467702848,232.88847587147757 26.701507065765327,232.65413943656677 26.932050428033108,232.68668621498364 27.027641578228213,232.56951773517721 26.83083626901498,232.12036990714478 27.09511768425,231.5670675215515 27.34253007301595,231.42385906537675 27.550581399933435,231.5084822827812 27.522466355731012,231.35225471705053 28.14662033645436,231.06583652188783 28.202850424801,230.89007926699924 28.748282281827414,230.55809202308228 28.79888936135103,230.08289159632477 28.084767239255598,228.7223667357357 27.97230706253322,228.67028865384418" stroke="#4DD2FF" stroke-linecap="round" stroke-linejoin="round" stroke-width="0.5"><title>2025-06-02 11.5km</title><desc>1748829019000</desc></polyline><polyline fill="none" points="53.875,235.5303059927537 53.50405911740381,233.63636067391053 42.80578684431384,234.6321510255002 38.37135720229708,234.1244944927239 33.625,234.3295099548268 38.43037052452564,234.10496918773424 42.31681931723142,234.61262582398922 53.48719816817902,233.6461233746886 53.86656952541671,235.4717309254993" stroke="#4DD2FF" stroke-linecap="round" stroke-linejoin="round" stroke-width="0.5"><title>2025-06-01 4.9km</title><desc>1748740054000</desc></polyline><polyline fill="none" points="76.375,244.34170333918883 76.30167471332243,244.4973731643404 76.15502413996728,244.38415876337967 75.66618889552774,241.66698544718383 60.218995172006544,243.01142680649355 58.78915208205581,239.0063683855842 58.728047676500864,233.96803894218465 58.38586300541647,232.0715417300089 56.125,224.66929350233113 57.61594749544747,229.62304059407325 58.01923657214502,230.3873172612075 58.67916415206855,233.2320878762839 59.33909173205029,233.41607600850693 58.6547223898815,233.40192308393307 58.78915208205581,238.53933991785743 59.25354556425009,240.4499009903666 60.06012371752877,242.44534782074334 60.267878696438856,242.57271579375083 66.89159625826869,241.89341858770058 67.07490947493352,242.431195816549 72.34210923349019,241.92172270431183" stroke="#4DD2FF" stroke-linecap="round" stroke-linejoin="round" stroke-width="0.5"><title>2025-05-31 5.5km</title><desc>1748696141000</desc></polyline><polyline fill="none" points="97.45487012987724,240.17184297612403 96.99464285717113,237.20255293362425 80.33441558445338,238.69481889541203 78.7959415584919,234.309341768967 78.625,229.0252799201844 84.27922077919357,229.08619236088998 78.70389610395068,228.99482369056204 78.80909090908244,234.23320387641434 79.21672077925177,235.86254630729672 80.24237012985395,238.20755001611542 94.99594155844534,236.79141581502336 96.31087662337814,236.71527918736683 96.37662337668007,237.27868931292323 98.875,237.08073464606423" stroke="#4DD2FF" stroke-linecap="round" stroke-linejoin="round" stroke-width="0.5"><title>2025-05-29 5.0km</title><desc>1748526381000</desc></polyline><polyline fill="none" points="113.40015847852919,232.59530129597988 112.95087163231801,228.91617553641845 120.5566561014275,228.54454254326993 121.375,231.53616664196306 120.49247226619627,228.61886920247343 112.9187797147315,228.9719204200228 113.12737717904383,230.8114920178632 112.83854992076522,228.99050204409286 102.02357369248057,229.99390693256282 103.6442155308323,238.11385073687416 104.27000792388571,240.00907161053328 103.85281299520284,240.26919842838834 104.51069730578456,242.01575459481683 103.62816957209725,239.7117833643133 101.44591917586513,230.03106997058785 105.23276545165572,229.4922051786416 112.08438985736575,229.06482852154295 112.00416006339947,228.52596087371057 101.9433438985725,229.2134813854791 101.3817353406921,227.1509120718547 101.125,227.3738936631853 101.25336767034605,229.36213412818324 108.84310618066229,228.61886920247343" stroke="#4DD2FF" stroke-linecap="round" stroke-linejoin="round" stroke-width="0.5"><title>2025-05-27 6.0km</title><desc>1748352132000</desc></polyline><polyline fill="none" points="141.17653758541564,236.09236345452518 141.25726082007168,236.03894766771555 140.9977932801703,234.7436015035637 134.17667995445663,235.39795482884074 133.38674544420792,235.41130891028297 130.5441343963903,235.077456057581 123.75185079727089,235.37792370158422 123.625,233.161107771768 124.4322323462402,233.07430321214633 125.54505979499663,233.15443050203612 125.55082574032713,235.077456057581 130.71134681094554,234.87046643450594 133.84802107061842,235.1776120920258 140.9862613895384,234.46983949970308 143.7539151480596,234.36968238317786 143.875,234.59002783738106 143.79427676537307,234.6167363269342 141.2399629840802,234.7235701762038" stroke="#4DD2FF" stroke-linecap="round" stroke-linejoin="round" stroke-width="0.5"><title>2025-05-25 7.6km</title><desc>1748179850000</desc></polyline><polyline fill="none" points="166.3617300131009,235.70127545579453 166.30865006553358,235.2633239704228 166.04988532108837,235.2633239704228 165.88401048490778,234.44119764479547 165.75131061597494,234.25679424726695 159.34854193971842,234.8023196583381 158.30021297509666,234.99440513097215 154.09362712973962,234.60255024760409 146.23779488861328,234.95598807561328 146.125,233.61906235337665 148.07568807341158,233.4653912108697 148.06241808648338,234.58718334794685 148.3211828309286,234.6179171441472 153.8348623853235,234.37972989575792 157.8291284403531,234.72548533224472 166.12287024903344,233.9264036986351 166.375,235.61675870059116" stroke="#4DD2FF" stroke-linecap="round" stroke-linejoin="round" stroke-width="0.5"><title>2025-05-24 6.6km</title><desc>1748094255000</desc></polyline><polyline fill="none" points="188.875,235.48561124515982 188.65471394039923,233.68105542149715 180.31647864627303,234.389654828934 179.15793714745087,234.58806169236777 177.83622078970075,234.60695756194036 174.0260878324043,234.14400764774473 168.625,234.36131095661403 174.00161160354037,234.13455966624315 177.78726833197288,234.61640549531876 186.4273771152366,233.88891180908104" stroke="#4DD2FF" stroke-linecap="round" stroke-linejoin="round" stroke-width="0.5"><title>2025-05-18 4.7km</title><desc>1747565909000</desc></polyline><polyline fill="none" points="28.74302175777848,259.4750439311465 28.522724019479938,258.1793650913678 22.650050100201042,258.6761568819202 21.67030489552417,258.8507044593571 20.881870884622913,258.84399109953665 18.197716862283414,258.49489544653625 11.16558116232045,258.81713765347376 11.125,258.6157364588653 15.084561981115257,258.3606273950354 17.768716003425652,258.3136335123563 20.90506012024707,258.81713765347376 28.598089035222074,258.1323710793513 31.189486115064938,258.0249560688535 31.2938376753591,258.03838295475 31.31122960205539,258.1323710793513 31.375,258.0920904709492" stroke="#4DD2FF" stroke-linecap="round" stroke-linejoin="round" stroke-width="0.5"><title>2025-05-17 5.7km</title><desc>1747487200000</desc></polyline><polyline fill="none" points="52.768398484244244,257.91284343197185 50.08670721980161,258.05315035773674 48.778171120851766,258.2869947572981 42.76859792578034,258.74532805207855 39.00453729555011,258.2589334608201 33.625,258.47406984795816 38.93184084564564,258.2776409927683 42.623205025913194,258.7359743342313 53.34997008374194,257.8005977369321 53.705374950164696,259.6152196434123 53.875,259.69940226307517" stroke="#4DD2FF" stroke-linecap="round" stroke-linejoin="round" stroke-width="0.5"><title>2025-05-11 5.0km</title><desc>1746965499000</desc></polyline><polyline fill="none" points="76.375,259.4775495903741 76.04815279765171,258.0224504096186 66.86011477757711,258.8551403641177 63.12679340026807,258.4261799216911 56.125,258.720564779047 62.952474892372265,258.434590932171 66.43884505017195,258.8551403641177 76.10625896698912,258.0392725120546" stroke="#4DD2FF" stroke-linecap="round" stroke-linejoin="round" stroke-width="0.5"><title>2025-05-10 5.3km</title><desc>1746870058000</desc></polyline><polyline fill="none" points="98.83078602619935,258.40866293494037 98.77920305676525,258.2635936604129 98.875,258.3745290105944 98.48444323145668,258.4427968453383 89.45742358081043,259.2364063395871 85.63291484717047,258.78413518413436 78.625,259.0742716779714 85.59606986900326,258.78413518413436 87.38673580787145,258.92920355673414 89.01528384283301,259.2278729441532 96.40638646288426,258.5622654222243" stroke="#4DD2FF" stroke-linecap="round" stroke-linejoin="round" stroke-width="0.5"><title>2025-05-05 5.4km</title><desc>1746434825000</desc></polyline></svg>