<?xml version="1.0" encoding="utf-8" ?>
<svg baseProfile="full" height="300mm" version="1.1" viewBox="0,0,200,300" width="200mm" xmlns="http://www.w3.org/2000/svg" xmlns:ev="http://www.w3.org/2001/xml-events" xmlns:xlink="http://www.w3.org/1999/xlink"><defs /><rect fill="#222222" height="300" width="200" x="0" y="0" /><text fill="#FFFFFF" style="font-size:12px; font-family:Arial; font-weight:bold;" x="10" y="20">Over 3km Runs</text><text fill="#FFFFFF" style="font-size:4px; font-family:Arial" x="10" y="280">Runner</text><text fill="#FFFFFF" style="font-size:9px; font-family:Arial" x="10" y="290">tang-hi</text><text fill="#FFFFFF" style="font-size:4px; font-family:Arial" x="65" y="280">SPECIAL TRACKS</text><rect fill="yellow" height="2.6" width="2.6" x="65" y="283" /><text fill="#FFFFFF" style="font-size:3px; font-family:Arial" x="70" y="285.5">Over 20.0 km</text><rect fill="red" height="2.6" width="2.6" x="65" y="287" /><text fill="#FFFFFF" style="font-size:3px; font-family:Arial" x="70" y="289.5">Over 40.0 km</text><text fill="#FFFFFF" style="font-size:4px; font-family:Arial" x="120" y="280">STATISTICS</text><text fill="#FFFFFF" style="font-size:3px; font-family:Arial" x="120" y="285">Number: 27</text><text fill="#FFFFFF" style="font-size:3px; font-family:Arial" x="120" y="290">Weekly: 3.4</text><text fill="#FFFFFF" style="font-size:3px; font-family:Arial" x="141" y="285">Total: 151.3 km</text><text fill="#FFFFFF" style="font-size:3px; font-family:Arial" x="141" y="290">Avg: 5.6 km</text><text fill="#FFFFFF" style="font-size:3px; font-family:Arial" x="167" y="285">Min: 3.2 km</text><text fill="#FFFFFF" style="font-size:3px; font-family:Arial" x="167" y="290">Max: 11.5 km</text><polyline fill="none" points="12.16376306611346,49.99728412875265 11.799999999988358,47.36815183251747 11.925435540033504,47.09216275649669 21.684320557455067,46.62733784147713 23.23972125427099,46.77259579030215 25.773519163718447,46.525657189267804 29.574216027802322,46.56923462053237 44.199999999953434,45.63957986331661 39.83484320552088,45.94462349898822 38.818815331032965,46.27871816033439 36.937282229890116,46.19156310676772 27.416724738664925,46.68544103878958 18.56097560969647,46.84522470916272 18.297560975537635,47.07763700088253 18.912195121869445,50.36042013669794 18.623693379748147,50.33136929012835 18.272473867516965,48.61735886055976" stroke="#4DD2FF" stroke-linecap="round" stroke-linejoin="round" stroke-width="0.5"><title>2025-06-26 5.0km</title><desc>1750950176000</desc></polyline><polyline fill="none" points="80.20000000001164,49.32604344941501 79.67685683531454,46.67395655059954 65.73799784708535,47.95288835246174 64.24994617869379,47.96635072660865 58.87900968780741,47.293230337876594 47.79999999998836,47.7644149701664 58.506996770738624,47.2797678950883 64.26157158234855,47.97981309941679 74.17804090422578,47.077831088972744" stroke="#4DD2FF" stroke-linecap="round" stroke-linejoin="round" stroke-width="0.5"><title>2025-06-24 5.0km</title><desc>1750769966000</desc></polyline><polyline fill="none" points="116.20000000001164,49.29750978045922 115.7564841498388,46.70249021954078 101.96080691640964,48.01352207369928 100.28011527378112,48.067584964694106 94.84121037466684,47.36476566278725 83.79999999998836,47.85133326851064 94.54942363110604,47.36476566278725 100.26844380400144,48.067584964694106 111.95158501440892,47.026870441754" stroke="#4DD2FF" stroke-linecap="round" stroke-linejoin="round" stroke-width="0.5"><title>2025-06-22 5.0km</title><desc>1750563938000</desc></polyline><polyline fill="none" points="137.10722873086343,64.19999999999709 135.43269199304632,54.19577807625319 135.40921717896708,51.46798236261384 135.5578910014592,50.32608953039016 135.46399174514227,47.38972630106582 135.4952914972382,46.88219689608377 135.66744013383868,46.592178791783226 135.4952914972382,46.456232479533355 135.4874665591924,44.59827870018489 133.58600661862874,33.15967805420951 133.10868539894,31.799999999995634 133.59383155661635,32.987453318615735 135.46399174514227,44.40794953394652 135.56571593950503,49.97264353738865 135.43269199304632,51.47704494545178 135.4248670550005,54.10515497838787 136.7081568914873,61.78966541932459 136.88813046607538,62.31523266561999 138.89131460106,62.206494869584276" stroke="#4DD2FF" stroke-linecap="round" stroke-linejoin="round" stroke-width="0.5"><title>2025-06-21 8.0km</title><desc>1750517001000</desc></polyline><polyline fill="none" points="175.28707355994266,64.19999999999709 172.5425267041428,47.32297542481683 167.71297526010312,47.22441999570583 159.01127243821975,46.38669722575287 159.18147689430043,45.49969348098966 158.84106798190624,43.799593871008256 159.30913023650646,32.68705402809428 159.24530356528703,31.89856171948486 158.8197924249107,31.79999999998836 158.28790349932387,45.47505444166018 159.09637466620188,45.573610584033304 159.13892578019295,46.41133617227024 172.60635337524582,47.29833657134441 174.24457126588095,57.84353637136519 174.75518463447224,59.2478857437236 185.71209650067613,58.902958583596046" stroke="#4DD2FF" stroke-linecap="round" stroke-linejoin="round" stroke-width="0.5"><title>2025-06-19 5.0km</title><desc>1750345525000</desc></polyline><polyline fill="none" points="44.19999999998254,89.61111378311034 43.902608695672825,87.84388433404092 34.73043478259933,88.71390937512479 33.548695652134484,88.74109752045479 29.619999999995343,88.28796067905205 15.063478260854026,88.94953969211929 13.803478260844713,89.1579813751523 11.799999999988358,89.75611566595035 14.625217391265323,88.99485314303456 19.743478260876145,88.76828565752658" stroke="#4DD2FF" stroke-linecap="round" stroke-linejoin="round" stroke-width="0.5"><title>2025-06-17 5.1km</title><desc>1750166247000</desc></polyline><polyline fill="none" points="48.9172413792694,101.02654612273909 47.800000000046566,93.84607159395819 73.0496551723918,93.10213926920551 68.94379310356453,76.89691977656912 73.91551724134479,77.1880388041609 80.19999999995343,76.57345387723763 70.28448275872506,77.15569225870422 73.94344827590976,91.74364965432324 63.10620689659845,92.26117019337835" stroke="#4DD2FF" stroke-linecap="round" stroke-linejoin="round" stroke-width="0.5"><title>2025-06-16 3.2km</title><desc>1750084948000</desc></polyline><polyline fill="none" points="116.20000000001164,90.29775931267068 115.70354838715866,87.30224068732059 99.77790322579676,88.76974978909129 98.34080645162612,88.78487867338117 92.04370967741124,88.0133036102925 83.79999999998836,88.40665610435826 91.78241935482947,87.99817464737862 98.32774193549994,88.75462090331712 111.836451612995,87.61995007385849" stroke="#4DD2FF" stroke-linecap="round" stroke-linejoin="round" stroke-width="0.5"><title>2025-06-15 4.6km</title><desc>1749956754000</desc></polyline><polyline fill="none" points="152.20000000001164,90.10304469779658 151.8055853920523,87.49695530219469 137.9314715360524,88.77313953723933 136.48141783033498,88.80000644097163 130.37959183676867,88.11489868538047 119.79999999998836,88.59850452959654 130.58839957037708,88.11489868538047 136.38861439318862,88.80000644097163 139.41632653068518,88.65223840276303 139.98474758322118,88.46416975087777 147.33941997855436,87.80592735590471" stroke="#4DD2FF" stroke-linecap="round" stroke-linejoin="round" stroke-width="0.5"><title>2025-06-14 5.1km</title><desc>1749906363000</desc></polyline><polyline fill="none" points="188.20000000001164,90.72375345868932 187.81046676100232,88.09684725866828 174.38302687410032,89.39703978126636 172.57284299860476,89.41030698499526 167.073550212197,88.74694514326984 156.71654879773268,89.2378332313383 156.57906647812342,88.93268679971516 156.6363507779315,86.88951400194492 155.79999999998836,86.87624654133106 156.67072135786293,86.91604891915631 156.57906647812342,88.91941954732465 156.7509193776641,89.2378332313383 167.35997171147028,88.7336778719764 172.82489391800482,89.42357418737083 183.70891089114593,88.44179756096855 183.6974540311494,87.91110440956254 187.1917963225278,87.72536129546643" stroke="#4DD2FF" stroke-linecap="round" stroke-linejoin="round" stroke-width="0.5"><title>2025-06-12 5.9km</title><desc>1749735885000</desc></polyline><polyline fill="none" points="44.20000000006985,139.79274540893675 43.167151767294854,134.59251987509197 14.786278586252593,137.11464249700657 12.114345114328898,129.80821876083792 11.800000000046566,120.681395496591 17.098960498929955,120.44737009311211 21.61205821193289,120.73340111262223 21.859043659176677,119.90130998342647 21.387525987578556,119.7192896870838 11.934719334705733,119.40725459107489 12.13679833675269,129.5481998251198 12.922661122633144,132.51239998081292 14.47193347197026,136.20460112730507 27.045738045708276,135.11254719852877 27.292723492719233,136.100596192613 43.09979209990706,134.56651848104957 44.06528066541068,139.714742808952" stroke="#4DD2FF" stroke-linecap="round" stroke-linejoin="round" stroke-width="0.5"><title>2025-06-10 5.3km</title><desc>1749559786000</desc></polyline><polyline fill="none" points="48.65071267820895,120.97363575085183 47.87291822966654,117.82121019982151 47.800000000046566,115.37242623374914 69.84561140299775,114.8094843213621 70.84216054016724,118.49673299005372 70.11297824466601,118.4685862401675 69.89422355592251,118.97522729999037 70.35603900975548,121.59285797009943 70.23450862721074,123.36607755391742 71.03660915233195,126.91248256780091 73.10262565652374,126.82804488239344 76.16519129788503,138.62092499123537 76.2138034509262,139.15567373138038 75.43600900226738,139.3808307860163 76.14088522142265,139.18381837330526 76.38394598651212,139.6341322530061 75.75198799697682,139.74671060833498 75.97074268572032,140.7880582192156 77.4291072768392,144.50310419881134 78.44996249070391,144.3905277819431 80.19999999995343,143.4336263865116 78.35273818462156,143.8276450096164 75.07141785451677,130.7402971968113 74.68252063018735,129.6144748715451 73.8075018755626,129.6144748715451 73.15123780956492,126.74360717111267 72.44636159040965,127.02506610823912 71.01230307586957,126.82804488239344 70.21020255074836,123.59124748004251 70.04006001504604,119.42557412854512 68.70322580647189,114.6968958012003 47.87291822966654,115.42872036187327 48.7479369842913,121.1425146755646" stroke="#4DD2FF" stroke-linecap="round" stroke-linejoin="round" stroke-width="0.5"><title>2025-06-08 5.0km</title><desc>1749355299000</desc></polyline><polyline fill="none" points="116.20000000001164,130.93325349288352 115.63015075377189,128.26674650714267 105.18679109832738,129.1421208949614 102.04680545581505,129.58653951855376 100.30236898781732,129.58653951855376 94.77832017227774,128.91317738431098 83.79999999998836,129.39799846686947 94.25498923187843,128.91317738431098 100.24422110558953,129.60000672622118 112.83905240491731,128.4687564959604" stroke="#4DD2FF" stroke-linecap="round" stroke-linejoin="round" stroke-width="0.5"><title>2025-06-07 5.3km</title><desc>1749293029000</desc></polyline><polyline fill="none" points="152.19999999995343,130.8835312937881 151.7216420597979,128.31646870622353 136.93921498017153,129.66756047512172 130.9422398271272,128.9785053936066 119.79999999998836,129.43787584592064 130.8955707597779,128.95148355270794 136.22751170326956,129.66756047512172 147.6497659344459,128.62722103242413" stroke="#4DD2FF" stroke-linecap="round" stroke-linejoin="round" stroke-width="0.5"><title>2025-06-05 5.1km</title><desc>1749128617000</desc></polyline><polyline fill="none" points="156.2535433070152,129.39492072165012 155.79999999998836,126.42420582301565 155.97007874009432,126.29290224240685 168.68346456688596,125.84975186749944 171.07874015741982,134.6304671770922 183.63622047239915,134.46634604778956 188.19999999995343,134.18733974412316 184.44409448822262,134.3186368883762 183.74960629921407,124.56953282289032 171.73070866137277,125.27529586275341 169.15118110232288,125.19323055190034 169.3779527558363,125.84975186749944 162.7165354330209,126.04670774025726" stroke="#4DD2FF" stroke-linecap="round" stroke-linejoin="round" stroke-width="0.5"><title>2025-06-03 5.2km</title><desc>1748952979000</desc></polyline><polyline fill="none" points="38.59374864568235,160.74123152967513 37.88300032884581,159.6892464035991 37.379178737231996,158.58517117143492 37.05529342836235,158.28311077722174 36.254576970182825,158.21019951396738 35.642793608945794,157.50191596641525 35.36389237071853,156.57489038397762 34.950038920447696,155.9395084470234 34.45521414291579,154.1999999999971 33.024720695219,154.81456025593798 32.35895644914126,154.8874739395833 30.631568134878762,155.53327858294506 29.893829375738278,156.48114575622458 29.893829375738278,156.72071518971643 26.906887082441244,160.52250283979083 26.888893454161007,160.74123152967513 26.070183367701247,161.86611454805825 25.35943505098112,162.52229059704405 25.233479653077666,162.40772047908104 24.729658061347436,162.8451693302195 24.39677593833767,162.64727603400388 24.387779124255758,162.83475390313106 24.342795053496957,162.56395242635335 24.810629388608504,162.89724644983653 24.738654875545762,163.27220092844072 23.659037179138977,164.46996297363512 21.81469028117135,164.88657257216255 21.81469028117135,164.69909846279188 21.688734883267898,164.92823343872442 21.184913291654084,165.04280073429254 20.744069398904685,164.91781822366465 20.0063306397642,164.98030949805252 19.88037524180254,164.86574213253334 19.583480375353247,165.03238553091796 18.692795775830746,164.71992893633433 18.57583719206741,163.35552395927516 18.233958254859317,163.05347764957696 16.55155401135562,163.48050837835035 15.921777021838352,163.8658760426042 16.641522152756806,166.98001012661553 17.775120733946096,170.45856289219228 20.16827329422813,179.8104927483946 20.501155417237896,180.7789622689961 23.32615505612921,186.49586985327915 23.686027621559333,186.59999999999854 24.927587972430047,186.20430487904378 25.773288501251955,186.45421776494914 27.32074053271208,186.1314135057546 27.293750090233516,185.51704129717837 27.70760354056256,185.4024969183447 28.45433911390137,185.7461296704496 29.021138404496014,185.47538881062792 29.255055572022684,185.8190213180642 30.71253946213983,186.1418265622342 31.567236805101857,185.98563060345623 32.430930962204,185.34001811221242 32.58387680252781,184.1216737715149 33.231647420383524,183.2261293691554 33.06070795177948,182.33057713238668 33.26763467688579,181.89321156467486 32.8267907841946,181.40377645186527 32.547889546025544,180.67482620105147 32.43992777634412,179.59180481431395 33.024720695219,179.12318623941246 33.915405294683296,179.48766753864038 34.4102300722152,179.45642633525858 34.53618547011865,178.77953125423664 34.32925874501234,177.9464234709303 34.15831927640829,177.87352621726313 34.32925874501234,177.7902150066584 34.131328833987936,177.7277315541869 34.29327148839366,177.82145671858598 34.3112651167321,177.33200213614327 34.07734794920543,176.79047518986772 33.015723881078884,176.71757711291139 32.52089910354698,176.34267189700768 32.727825828653295,174.92635090997646 33.57352635753341,173.47876729475684 34.221296975330915,172.76017501761817 34.518191841838416,172.65603079072753 35.15696564555401,171.77080058300635 36.28156741260318,170.69809959913255 37.2802137817489,169.4483366983768 36.99231572938152,168.86510878780246 36.101631129859015,168.85469397348788 35.98467254609568,168.51100450602098 36.326551483303774,167.6882280610298 36.72241130529437,167.3132897651667 37.09128068492282,167.36536461063952 37.244226525188424,167.1778950429507 36.929338030458894,166.45925851809443 37.35218829481164,165.57397470114665 37.748048116860446,165.34484117126703 38.08093023992842,165.4802383191127 38.03594616922783,165.23027421394363 39.034592538373545,164.77200510168768 39.124560679716524,164.4907934938674 39.99725165095879,163.95961390359298 40.078222978219856,163.19929322078679 38.93562758283224,161.02245344383846 38.755691300088074,160.93912851281493" stroke="#4DD2FF" stroke-linecap="round" stroke-linejoin="round" stroke-width="0.5"><title>2025-06-02 11.5km</title><desc>1748829019000</desc></polyline><polyline fill="none" points="80.20000000001164,171.91515625508328 79.6064945878461,168.8848437449342 62.489258950867224,170.47810830746312 55.394171523686964,169.6658578550414 47.79999999998836,169.9938825943973 55.488592839217745,169.6346173670463 61.70691090752371,170.44686798505427 79.57951706909807,168.9004640661733 80.18651124060852,171.82143614746747" stroke="#4DD2FF" stroke-linecap="round" stroke-linejoin="round" stroke-width="0.5"><title>2025-06-01 4.9km</title><desc>1748740054000</desc></polyline><polyline fill="none" points="116.20000000006985,186.0133920093649 116.0826795414323,186.26246372961032 115.84803862404078,186.08132068807026 115.06590223300736,181.73384338215692 90.35039227525704,183.88494955704664 88.06264333135914,177.4768560835946 87.96487628249452,169.41552897416113 87.4173808087362,166.3811334346683 83.80000000004657,154.5375362703926 86.18551599280909,162.46353161717707 86.83077851554845,163.68637428458896 87.88666264340281,168.23800726870832 88.9425467713736,168.53238828026224 87.84755582385696,168.50974360096734 88.06264333135914,176.7296105352434 88.80567290284671,179.78650825125806 90.09619794820901,182.9792231798492 90.42860591434874,183.18301193667867 101.0265540133696,182.09613640696625 101.31985515996348,182.95657997314993 109.747374773724,182.14142299356172" stroke="#4DD2FF" stroke-linecap="round" stroke-linejoin="round" stroke-width="0.5"><title>2025-05-31 5.5km</title><desc>1748696141000</desc></polyline><polyline fill="none" points="149.92779220792,179.34161542846414 149.19142857159022,174.59075136046158 122.53506493521854,176.97837689929293 120.07350649358705,169.96161349699832 119.80000000004657,161.50711453893746 128.846753246733,161.60457444407803 119.92623376636766,161.45838457153877 120.09454545460176,169.8397928689228 120.74675324687269,172.44674075831426 122.38779220788274,176.1987466924329 145.99350649362896,173.93293197068851 148.09740259754471,173.81111336644972 148.20259740273468,174.71256956733123 152.20000000006985,174.39584210036264" stroke="#4DD2FF" stroke-linecap="round" stroke-linejoin="round" stroke-width="0.5"><title>2025-05-29 5.0km</title><desc>1748526381000</desc></polyline><polyline fill="none" points="175.4402535657864,167.2191487402597 174.7213946117554,161.33254752497305 186.89064976235386,160.73793473592377 188.20000000006985,165.52453329385025 186.78795562603045,160.85685739063774 174.6700475437101,161.42173933872255 175.00380348658655,164.36505389527883 174.54167987336405,161.4514699372521 157.2377179081086,163.05691775880405 159.83074484951794,176.04882784569054 160.83201267838012,179.08118124355678 160.1645007923944,179.49738415211323 161.21711568941828,182.29187401838135 159.80507131537888,178.60552004957572 156.31347068143077,163.11637861962663 162.37242472276557,162.25419495251845 173.33502377185505,161.5703923011606 173.206656101509,160.70820406463463 157.10935023776256,161.80823688345845 156.21077654522378,158.50812598166522 155.80000000004657,158.86489652778255 156.00538827269338,162.04608127177926 168.1489698891528,160.85685739063774" stroke="#4DD2FF" stroke-linecap="round" stroke-linejoin="round" stroke-width="0.5"><title>2025-05-27 6.0km</title><desc>1748352132000</desc></polyline><polyline fill="none" points="39.882460136606824,213.61444819390454 40.011617312033195,213.52898293500766 39.596469248237554,211.4564290723647 28.682687927095685,212.5033943928065 27.418792710697744,212.52476092311554 22.87061503418954,211.9905963587953 12.002961275633425,212.47134458919027 11.799999999988358,208.92443910147995 13.091571753961034,208.78555180608964 14.872095671948045,208.91375546991912 14.881321184511762,211.9905963587953 23.138154897489585,211.65941296186793 28.1568337129429,212.15084601390117 39.578018223226536,211.01840986617754 44.006264236872084,210.85815847973572 44.199999999953434,211.21071120646957 44.07084282458527,211.25344478974876 39.98394077445846,211.4243789485845" stroke="#4DD2FF" stroke-linecap="round" stroke-linejoin="round" stroke-width="0.5"><title>2025-05-25 7.6km</title><desc>1748179850000</desc></polyline><polyline fill="none" points="80.17876802093815,212.98870739593985 80.09384010487702,212.28798501934216 79.67981651372975,212.28798501934216 79.41441677586408,210.9725828983428 79.20209698553663,210.67753746229573 68.9576671035611,211.55037812000955 67.28034076018957,211.85771487622696 60.549803407571744,211.2307470628366 47.98047182179289,211.7962475876484 47.79999999998836,209.6571664320727 50.92110091744689,209.4112926040616 50.8998689383734,211.20616002338647 51.31389252952067,211.25533409730997 60.13577981654089,210.87423449988273 66.52660550456494,211.4274431982558 79.79659239843022,210.14891258448188 80.20000000001164,212.85348058761883" stroke="#4DD2FF" stroke-linecap="round" stroke-linejoin="round" stroke-width="0.5"><title>2025-05-24 6.6km</title><desc>1748094255000</desc></polyline><polyline fill="none" points="116.20000000001164,212.6436446589214 115.84754230460385,209.75635534105822 102.50636583403684,210.89011439295427 100.65269943594467,211.20756537445413 98.53795326349791,211.23779876576737 92.4417405318236,210.49707890304853 83.79999999998836,210.8447641972598 92.40257856569951,210.481962132646 98.45962933119154,211.2529154591757 112.28380338440184,210.08892556118371" stroke="#4DD2FF" stroke-linecap="round" stroke-linejoin="round" stroke-width="0.5"><title>2025-05-18 4.7km</title><desc>1747565909000</desc></polyline><polyline fill="none" points="147.98883481242228,212.36007028983295 147.63635843113298,210.28698414618702 138.24008016026346,211.08185101106938 136.67248783278046,211.36112713498005 135.41099341533845,211.35038575926592 131.11634697963018,210.791832714458 119.86492985970108,211.30742024556093 119.79999999998836,210.98517833418737 126.13529916974949,210.57700383206247 130.42994560545776,210.50181361977593 135.44809619232547,211.30742024556093 147.7569424562971,210.2117937269577 151.90317778405733,210.0399297101685 152.070140280528,210.06141272760578 152.0979673632537,210.2117937269577 152.19999999995343,210.14734475351725" stroke="#4DD2FF" stroke-linecap="round" stroke-linejoin="round" stroke-width="0.5"><title>2025-05-17 5.7km</title><desc>1747487200000</desc></polyline><polyline fill="none" points="186.42943757475587,209.86054949114623 182.13873155164765,210.08504057237587 180.0450737933279,210.45919161167694 170.4297566812602,211.1925248833286 164.40725967288017,210.41429353730928 155.79999999998836,210.75851175673597 164.29094535298645,210.44422558843507 170.19712804147275,211.17755893476715 187.35995213396382,209.68095637908846 187.92859992024023,212.58435142945382 188.20000000001164,212.71904362092027" stroke="#4DD2FF" stroke-linecap="round" stroke-linejoin="round" stroke-width="0.5"><title>2025-05-11 5.0km</title><desc>1746965499000</desc></polyline><polyline fill="none" points="44.199999999953434,253.16407934459858 43.67704447620781,250.83592065540142 28.97618364408845,252.16822458259412 23.00286944041727,251.48188787471736 11.799999999988358,251.952903646481 22.723959827795625,251.49534549147938 28.30215208028676,252.16822458259412 43.770014347159304,250.86283601929608" stroke="#4DD2FF" stroke-linecap="round" stroke-linejoin="round" stroke-width="0.5"><title>2025-05-10 5.3km</title><desc>1746870058000</desc></polyline><polyline fill="none" points="80.12925764184911,251.4538606959104 80.0467248907662,251.22174985667516 80.19999999995343,251.39924641695688 79.57510917028412,251.50847495255584 65.13187772926176,252.7782501433394 59.01266375539126,252.0546162946266 47.79999999998836,252.51883468477172 58.95371179038193,252.0546162946266 61.81877729250118,252.28672569079208 64.42445414845133,252.76459671065095 76.25021834060317,251.69962467557343" stroke="#4DD2FF" stroke-linecap="round" stroke-linejoin="round" stroke-width="0.5"><title>2025-05-05 5.4km</title><desc>1746434825000</desc></polyline></svg>