<?xml version="1.0" encoding="utf-8" ?>
<svg baseProfile="full" height="300mm" version="1.1" viewBox="0,0,200,300" width="200mm" xmlns="http://www.w3.org/2000/svg" xmlns:ev="http://www.w3.org/2001/xml-events" xmlns:xlink="http://www.w3.org/1999/xlink"><defs /><rect fill="#222222" height="300" width="200" x="0" y="0" /><text fill="#FFFFFF" style="font-size:12px; font-family:Arial; font-weight:bold;" x="10" y="20">Over 3km Runs</text><text fill="#FFFFFF" style="font-size:4px; font-family:Arial" x="10" y="280">Runner</text><text fill="#FFFFFF" style="font-size:9px; font-family:Arial" x="10" y="290">tang-hi</text><text fill="#FFFFFF" style="font-size:4px; font-family:Arial" x="65" y="280">SPECIAL TRACKS</text><rect fill="yellow" height="2.6" width="2.6" x="65" y="283" /><text fill="#FFFFFF" style="font-size:3px; font-family:Arial" x="70" y="285.5">Over 20.0 km</text><rect fill="red" height="2.6" width="2.6" x="65" y="287" /><text fill="#FFFFFF" style="font-size:3px; font-family:Arial" x="70" y="289.5">Over 40.0 km</text><text fill="#FFFFFF" style="font-size:4px; font-family:Arial" x="120" y="280">STATISTICS</text><text fill="#FFFFFF" style="font-size:3px; font-family:Arial" x="120" y="285">Number: 23</text><text fill="#FFFFFF" style="font-size:3px; font-family:Arial" x="120" y="290">Weekly: 3.3</text><text fill="#FFFFFF" style="font-size:3px; font-family:Arial" x="141" y="285">Total: 128.2 km</text><text fill="#FFFFFF" style="font-size:3px; font-family:Arial" x="141" y="290">Avg: 5.6 km</text><text fill="#FFFFFF" style="font-size:3px; font-family:Arial" x="167" y="285">Min: 3.2 km</text><text fill="#FFFFFF" style="font-size:3px; font-family:Arial" x="167" y="290">Max: 11.5 km</text><polyline fill="none" points="33.65230395551771,68.0 30.602807449060492,49.24775047201547 25.236639178008772,49.138244439673144 15.568080486846156,48.20744136197027 15.757196549209766,47.221881645557005 15.378964424366131,45.332882078917464 15.899033596040681,32.98561558677466 15.828115072567016,32.10951302165631 15.355324916657992,32.0 14.764337221509777,47.194504935177974 15.662638518027961,47.304011760046706 15.709917533560656,48.234817969205324 30.673725972534157,49.22037396815722 32.49396807316225,60.937262634863146 33.06131626048591,62.497650826349854 45.23566277860664,62.114398426230764" stroke="#4DD2FF" stroke-linecap="round" stroke-linejoin="round" stroke-width="0.5"><title>2025-06-19 5.0km</title><desc>1750345525000</desc></polyline><polyline fill="none" points="94.66666666665697,50.90123753680382 94.33623188411002,48.93764926005679 84.14492753625382,49.90434375014593 82.83188405795954,49.93455280051421 78.46666666667443,49.43106742117379 62.29275362318731,50.16615521347558 60.89275362319313,50.39775708351226 58.666666666656965,51.06235073995049 61.80579710143502,50.21650349227275 67.49275362319895,49.964761841707514" stroke="#4DD2FF" stroke-linecap="round" stroke-linejoin="round" stroke-width="0.5"><title>2025-06-17 5.1km</title><desc>1750166247000</desc></polyline><polyline fill="none" points="106.57471264363267,63.585051247500814 105.33333333337214,55.6067462155188 133.38850574719254,54.78015474358108 128.8264367817901,36.774355307308724 134.35057471273467,37.09782089351211 141.33333333337214,36.414948752499186 130.31609195412602,37.06188028748147 134.3816091954941,53.270721838169266 122.34022988507058,53.84574465933838" stroke="#4DD2FF" stroke-linecap="round" stroke-linejoin="round" stroke-width="0.5"><title>2025-06-16 3.2km</title><desc>1750084948000</desc></polyline><polyline fill="none" points="188.0,51.664177014085 187.44838709686883,48.335822985915 169.75322580640204,49.96638865454588 168.15645161294378,49.9831985259807 161.15967741934583,49.12589290032338 152.0,49.56295122705342 160.86935483868,49.109082941533416 168.14193548390176,49.9495787814667 183.1516129032825,48.688833415391855" stroke="#4DD2FF" stroke-linecap="round" stroke-linejoin="round" stroke-width="0.5"><title>2025-06-15 4.6km</title><desc>1749956754000</desc></polyline><polyline fill="none" points="48.0,91.4478274419962 47.561761546705384,88.55217255798925 32.146079484489746,89.97015504138835 30.534908700326923,90.00000715663191 23.755102040828206,89.23877631708456 12.0,89.77611614399939 23.9871106336941,89.23877631708456 30.43179377017077,90.00000715663191 33.79591836739564,89.83582044750801 34.42749731463846,89.62685527875146 42.599355531681795,88.89547483989736" stroke="#4DD2FF" stroke-linecap="round" stroke-linejoin="round" stroke-width="0.5"><title>2025-06-14 5.1km</title><desc>1749906363000</desc></polyline><polyline fill="none" points="94.66666666668607,92.13750384298328 94.23385195666924,89.21871917629323 79.31447430461412,90.66337753472908 77.30315888737096,90.67811887220887 71.19283356913365,89.94105015919195 59.68505421973532,90.48648136814882 59.53229608683614,90.14742977745482 59.59594530885806,87.87723777993233 58.66666666668607,87.86249615701672 59.634134842141066,87.906721021267 59.53229608683614,90.13268838590011 59.72324375301832,90.48648136814882 71.51107967941789,89.92630874662427 77.5832154644886,90.69286020818981 89.67656765686115,89.60199728996668 89.66383781243348,89.01233823284565 93.5464403583901,88.80595699495461" stroke="#4DD2FF" stroke-linecap="round" stroke-linejoin="round" stroke-width="0.5"><title>2025-06-12 5.9km</title><desc>1749735885000</desc></polyline><polyline fill="none" points="141.33333333337214,101.32527267659316 140.1857241857797,95.54724430566421 108.65142065135296,98.34960277445498 105.6826056826394,90.23135417871526 105.33333333337214,80.09043944065343 111.22106722102035,79.83041121455608 116.2356202355586,80.14822345846915 116.5100485101575,79.22367775934981 115.98613998608198,79.02143298563897 105.4830214829417,78.67472732340684 105.70755370752886,89.94244425013312 106.58073458063882,93.23599997867132 108.3021483020857,97.33844569700886 122.2730422730092,96.12505244280328 122.54747054737527,97.22288465846214 140.1108801109949,95.51835386781022 141.18364518368617,101.23860312104807" stroke="#4DD2FF" stroke-linecap="round" stroke-linejoin="round" stroke-width="0.5"><title>2025-06-10 5.3km</title><desc>1749559786000</desc></polyline><polyline fill="none" points="152.94523630908225,80.41515083427657 152.08102025510743,76.91245577757945 152.0,74.19158470415277 176.495123781031,73.56609369037324 177.60240060009528,77.66303665560554 176.79219804960303,77.6317624890944 176.54913728439715,78.194696999999 177.06226556631736,81.1031755223521 176.9272318079602,83.07341950436239 177.8184546136763,87.01386951978202 180.11402850726154,86.92004986933898 183.51687921979465,100.02324999024859 183.5708927232772,100.6174152570893 182.70667666918598,100.86758976225974 183.48987246816978,100.64868708144058 183.7599399848841,101.14903583665728 183.05776444100775,101.27412289814674 183.30082520621363,102.43117579913815 184.92123030754738,106.5590046653524 186.05551387846936,106.43391975772101 188.0,105.37069598500966 185.94748687173706,105.80849445515196 182.30157539376523,91.26699688535882 181.86946736683603,90.01608319059596 180.89722430612892,90.01608319059596 180.16804201051127,86.82623019011226 179.38484621152747,87.13896234246204 177.79144786205143,86.92004986933898 176.90022505633533,83.32360831115511 176.7111777944956,78.69508236506954 175.22580645163544,73.4409953346476 152.08102025510743,74.25413373540505 153.05326331581455,80.60279408394126" stroke="#4DD2FF" stroke-linecap="round" stroke-linejoin="round" stroke-width="0.5"><title>2025-06-08 5.0km</title><desc>1749355299000</desc></polyline><polyline fill="none" points="48.0,131.48139276985603 47.366834170825314,128.51860723012942 35.76310122030554,129.491245438825 32.274228284251876,129.985043909488 30.335965542006306,129.985043909488 24.198133524740115,129.23686376032128 12.0,129.77555385205778 23.616654702054802,129.23686376032128 30.271356783923693,130.00000747355807 44.26561378320912,128.74306277326832" stroke="#4DD2FF" stroke-linecap="round" stroke-linejoin="round" stroke-width="0.5"><title>2025-06-07 5.3km</title><desc>1749293029000</desc></polyline><polyline fill="none" points="94.66666666668607,131.42614588198194 94.13515784428455,128.57385411801806 77.71023886685725,130.0750671945716 71.04693314130418,129.30945043732936 58.66666666668607,129.81986205100839 70.99507862201426,129.27942616966902 76.91945744812256,130.0750671945716 89.61085103830555,128.91913448047126" stroke="#4DD2FF" stroke-linecap="round" stroke-linejoin="round" stroke-width="0.5"><title>2025-06-05 5.1km</title><desc>1749128617000</desc></polyline><polyline fill="none" points="105.83727034117328,129.7721341351862 105.33333333331393,126.47133980336366 105.52230971126119,126.32544693601085 119.64829396328423,125.83305763057433 122.30971128609963,135.58940797454852 136.2624671916128,135.40705116422032 141.33333333331393,135.09704416015302 137.1601049869205,135.2429298759962 136.38845144357765,124.41059202545148 123.03412073489744,125.19477318084682 120.16797900263919,125.10358950211958 120.41994750651065,125.83305763057433 113.01837270340184,126.05189748918929" stroke="#4DD2FF" stroke-linecap="round" stroke-linejoin="round" stroke-width="0.5"><title>2025-06-03 5.2km</title><desc>1748952979000</desc></polyline><polyline fill="none" points="181.77083182847127,119.2680350329756 180.98111147648888,118.09916267066728 180.42130970803555,116.87241241270385 180.06143714260543,116.53678975247021 179.17175218905322,116.4557772377375 178.49199289875105,115.6687955182424 178.18210263410583,114.63876709331817 177.7222654671059,113.93278716335772 177.17246015870478,112.0 175.58302299462957,112.68284472882078 174.84328494343208,112.76385993287113 172.9239645943162,113.48142064772401 172.10425486188615,114.5346063958059 172.10425486188615,114.80079465524614 168.78543009154964,119.02500315532961 168.7654371712124,119.2680350329756 167.85575929743936,120.51790505339886 167.06603894545697,121.24698955227359 166.9260885033873,121.11968942120438 166.36628673481755,121.60574370024551 165.9964177092188,121.38586226000916 165.9864212491084,121.59417100348219 165.93643894826528,121.29328047372837 166.45625487621874,121.66360716649069 166.37628319498617,122.08022325382626 165.17670797678875,123.41106997070892 163.1274336457136,123.87396952463314 163.1274336457136,123.66566495865845 162.98748320358573,123.92025937636208 162.4276814351324,124.04755637143535 161.9378548876848,123.90868691518699 161.11814515525475,123.97812166450603 160.97819471306866,123.85082459170371 160.6483115281444,124.03598392324784 159.6586619731388,123.68880992926279 159.52870799112134,122.17280439919705 159.14884250535397,121.83719738842046 157.279504457023,122.3116759759505 156.57975224644179,122.73986226956185 157.3794690585928,126.2000112517926 158.63902303762734,130.06506988021283 161.2980814379407,140.4561030537734 161.66795046359766,141.53218029889103 164.80683895119,147.88429983698006 165.2066973572364,148.0 166.5862088582362,147.56033875449066 167.5258761124569,147.83801973883965 169.24526725854957,147.47934833972977 169.2152778780437,146.79671255242283 169.67511504498543,146.66944102038542 170.5048212375841,147.05125518939167 171.1345982271596,146.75043201181688 171.39450619113632,147.13224590895697 173.01393273565918,147.49091840248002 173.9635964501067,147.31736733717116 174.92325662460644,146.60002012468613 175.09319644718198,145.24630419057212 175.81294157815864,144.25125485462195 175.62300883524586,143.25619681375974 175.85292741871672,142.77023507186095 175.36310087126913,142.22641827985353 175.0532106066239,141.41647355672467 174.93325308477506,140.2131164603561 175.58302299462957,139.6924291549003 176.57267254963517,140.09740837627032 177.12247785797808,140.06269592806348 177.26242830010597,139.31059028248274 177.0325097166351,138.3849149677044 176.84257697372232,138.30391801917722 177.0325097166351,138.2113500074047 176.81258759327466,138.1419239491006 176.99252387596061,138.24606302064785 177.01251679635607,137.7022245957196 176.75260883237934,137.10052798874676 175.57302653446095,137.01953012546437 175.02322122611804,136.60296877445217 175.2531398095889,135.0292787888684 176.1928070638678,133.42085254973063 176.91255219478626,132.62241668624483 177.24243537976872,132.5067008785918 177.95218405057676,131.52311175889918 179.20174156950088,130.33122177681798 180.31134864635533,128.94259633153706 179.99146192148328,128.2945653197894 179.00181236647768,128.28299330388109 178.87185838451842,127.90111611780594 179.2517238702858,126.98692006781494 179.69156811694847,126.57032196129876 180.1014229831635,126.628182900713 180.27136280573905,126.41988338105875 179.92148670047754,125.62139835343987 180.39132032752968,124.63774966794153 180.83116457425058,124.3831568569658 181.20103359984932,124.53359813235147 181.15105129906442,124.25586023771757 182.26065837591887,123.74667233521177 182.36062297743047,123.43421499318356 183.33027961215703,122.8440154484415 183.4202477535,121.9992146897639 182.15069731423864,119.58050382648798 181.95076811115723,119.48792056980164" stroke="#4DD2FF" stroke-linecap="round" stroke-linejoin="round" stroke-width="0.5"><title>2025-06-02 11.5km</title><desc>1748829019000</desc></polyline><polyline fill="none" points="48.0,171.6835069500812 47.340549542044755,168.3164930499188 28.32139883429045,170.08678700830205 20.437968359619845,169.18428650559508 12.0,169.54875843820628 20.542880932509433,169.14957485227205 27.452123230614234,170.05207553894434 47.31057452119421,168.33384896240022 47.98501248960383,171.57937349719577" stroke="#4DD2FF" stroke-linecap="round" stroke-linejoin="round" stroke-width="0.5"><title>2025-06-01 4.9km</title><desc>1748740054000</desc></polyline><polyline fill="none" points="94.66666666662786,187.34821334373555 94.53631060151383,187.62495969956217 94.27559847105294,187.42368965341302 93.40655803657137,182.59315931350284 65.94488030578941,184.98327728560253 63.40293703484349,177.86317342621624 63.294306980562396,168.9061433046154 62.68597867630888,165.5345927051676 58.66666666662786,152.37504030043783 61.31723999197129,161.18170179685694 62.0341983505059,162.54041587175743 63.20740293711424,167.5977858541155 64.38060752372257,167.92487586695643 63.16395091533195,167.899715112173 63.40293703484349,177.03290059469873 64.22852544754278,180.4294536124944 65.66244216449559,183.97691464427044 66.03178434923757,184.2033465962886 77.8072822369868,182.99570711885463 78.13317239983007,183.9517555257189 87.49708308186382,183.0460255483922" stroke="#4DD2FF" stroke-linecap="round" stroke-linejoin="round" stroke-width="0.5"><title>2025-05-31 5.5km</title><desc>1748696141000</desc></polyline><polyline fill="none" points="138.8086580086965,179.9351282538555 137.9904761905782,174.6563904005161 108.37229437241331,177.30930766588426 105.63722943724133,169.51290388556663 105.33333333337214,160.1190161543782 115.38528138527181,160.22730493787094 105.47359307366423,160.0648717461736 105.66060606064275,169.37754763214616 106.38528138538823,172.2741563981399 108.20865800860338,176.44305188048747 134.4372294372879,173.92547996743815 136.774891774985,173.79012596272514 136.89177489187568,174.791743963724 141.33333333337214,174.43982455597143" stroke="#4DD2FF" stroke-linecap="round" stroke-linejoin="round" stroke-width="0.5"><title>2025-05-29 5.0km</title><desc>1748526381000</desc></polyline><polyline fill="none" points="173.82250396197196,166.46572082248167 173.02377179078758,159.92505280548357 186.54516640258953,159.26437192878802 188.0,164.58281477089622 186.4310618066229,159.39650821179384 172.96671949292067,160.0241548207705 173.337559429463,163.2945043280488 172.8240887480788,160.05718881913344 153.59746434225235,161.8410197319463 156.47860538819805,176.27647538407473 157.59112519805785,179.64575693724328 156.8494453248568,180.10820461343974 158.0190174325835,183.21319335373119 156.4500792393228,179.1172444995027 152.57052297936752,161.90708735512453 159.30269413627684,160.94910550277564 171.48335974640213,160.18932477902854 171.34072900167666,159.23133784954553 153.45483359752689,160.45359653714695 152.4564183835173,156.7868066462397 152.0,157.18321836416726 152.22820919181686,160.7178680797224 165.72107765451074,159.39650821179384" stroke="#4DD2FF" stroke-linecap="round" stroke-linejoin="round" stroke-width="0.5"><title>2025-05-27 6.0km</title><desc>1748352132000</desc></polyline><polyline fill="none" points="43.20273348520277,212.68272021545272 43.346241457911674,212.5877588166768 42.884965831413865,210.28492119151633 30.75854214123683,211.44821599200804 29.354214123042766,211.4719565812411 24.300683371315245,210.87844039866468 12.225512528500985,211.41260509910353 12.0,207.47159900164843 13.435079726681579,207.31727978455456 15.413439635594841,207.4597282999166 15.423690205032472,210.87844039866468 24.597949886112474,210.51045884652558 30.174259681080002,211.05649557100696 42.8644646924804,209.7982331846506 47.78473804099485,209.62017608860333 48.0,210.0119013405274 47.856492027349304,210.05938309972407 43.31548974942416,210.2493099428757" stroke="#4DD2FF" stroke-linecap="round" stroke-linejoin="round" stroke-width="0.5"><title>2025-05-25 7.6km</title><desc>1748179850000</desc></polyline><polyline fill="none" points="94.64307557890425,211.987452662157 94.54871122766053,211.20887224371836 94.08868501533289,211.20887224371836 93.79379641765263,209.7473143315001 93.55788553954335,209.41948606922233 82.17518567066872,210.38930902224092 80.31148973357631,210.73079430693178 72.83311489736661,210.0341634031647 58.86719091312261,210.6624973196158 58.66666666668607,208.28574048008886 62.1345565749798,208.012547337843 62.110965487139765,210.0068444704375 62.57099169946741,210.06148233034764 72.37308868503897,209.63803833321435 79.4740061162156,210.2527146647335 94.21843599830754,208.83212509387522 94.66666666668607,211.83720065290981" stroke="#4DD2FF" stroke-linecap="round" stroke-linejoin="round" stroke-width="0.5"><title>2025-05-24 6.6km</title><desc>1748094255000</desc></polyline><polyline fill="none" points="141.33333333331393,211.60404962103348 140.94171367178205,208.39595037898107 126.11818426003447,209.65568265886395 124.05855492880801,210.00840597163187 121.70883695944212,210.0419986286579 114.93526725762058,209.21897655897192 105.33333333331393,209.6052935525222 114.89175396185601,209.20218014740385 121.6218103679712,210.0587949546607 136.98200376040768,208.76547284578555" stroke="#4DD2FF" stroke-linecap="round" stroke-linejoin="round" stroke-width="0.5"><title>2025-05-18 4.7km</title><desc>1747565909000</desc></polyline><polyline fill="none" points="183.32092756940983,211.28896698870085 182.92928714572918,208.985537940207 172.4889779558871,209.8687233456294 170.74720870313467,210.17903014997137 169.34554823930375,210.16709528807405 164.57371886627516,209.54648079383333 152.0721442885697,210.11935582839214 152.0,209.76130926020414 159.039221299754,209.3077820356266 163.81105067278259,209.22423735530174 169.38677354704123,210.11935582839214 183.06326939590508,208.9019930299546 187.67019753786735,208.71103301129915 187.85571142286062,208.734903030665 187.88663040363463,208.9019930299546 188.0,208.83038305945956" stroke="#4DD2FF" stroke-linecap="round" stroke-linejoin="round" stroke-width="0.5"><title>2025-05-17 5.7km</title><desc>1747487200000</desc></polyline><polyline fill="none" points="46.03270841646008,248.51172165681783 41.26525727962144,248.76115619151096 38.93897088151425,249.17687956852023 28.25528520141961,249.99169431479822 21.56362185877515,249.1269928192196 12.0,249.50945750746178 21.434383725572843,249.16025065378926 27.99680893495679,249.97506548305682 47.06661348225316,248.3121737545298 47.698444355861284,251.53816825493413 48.0,251.68782624545565" stroke="#4DD2FF" stroke-linecap="round" stroke-linejoin="round" stroke-width="0.5"><title>2025-05-11 5.0km</title><desc>1746965499000</desc></polyline><polyline fill="none" points="94.66666666668607,251.29342149400327 94.08560497360304,248.70657850599673 77.75131516013062,250.18691620287427 71.11429937824141,249.42431986078736 58.66666666668607,249.94767071830574 70.80439980869414,249.43927276831528 77.00239120033802,250.18691620287427 94.1889048301964,248.73648446587322" stroke="#4DD2FF" stroke-linecap="round" stroke-linejoin="round" stroke-width="0.5"><title>2025-05-10 5.3km</title><desc>1746870058000</desc></polyline><polyline fill="none" points="141.25473071320448,249.3931785510067 141.16302765643923,249.13527761850855 141.33333333331393,249.3324960188329 140.63901018921752,249.45386105838406 124.5909752547741,250.86472238149145 117.7918486171402,250.06068477178633 105.33333333331393,250.57648298305867 117.72634643374477,250.06068477178633 120.90975254727527,250.31858410086716 123.80494905385422,250.8495519007265 136.9446870451211,249.66624963951472" stroke="#4DD2FF" stroke-linecap="round" stroke-linejoin="round" stroke-width="0.5"><title>2025-05-05 5.4km</title><desc>1746434825000</desc></polyline></svg>