<?xml version="1.0" encoding="utf-8" ?>
<svg baseProfile="full" height="300mm" version="1.1" viewBox="0,0,200,300" width="200mm" xmlns="http://www.w3.org/2000/svg" xmlns:ev="http://www.w3.org/2001/xml-events" xmlns:xlink="http://www.w3.org/1999/xlink"><defs /><rect fill="#222222" height="300" width="200" x="0" y="0" /><text fill="#FFFFFF" style="font-size:12px; font-family:Arial; font-weight:bold;" x="10" y="20">Over 3km Runs</text><text fill="#FFFFFF" style="font-size:4px; font-family:Arial" x="10" y="280">Runner</text><text fill="#FFFFFF" style="font-size:9px; font-family:Arial" x="10" y="290">tang-hi</text><text fill="#FFFFFF" style="font-size:4px; font-family:Arial" x="65" y="280">SPECIAL TRACKS</text><rect fill="yellow" height="2.6" width="2.6" x="65" y="283" /><text fill="#FFFFFF" style="font-size:3px; font-family:Arial" x="70" y="285.5">Over 20.0 km</text><rect fill="red" height="2.6" width="2.6" x="65" y="287" /><text fill="#FFFFFF" style="font-size:3px; font-family:Arial" x="70" y="289.5">Over 40.0 km</text><text fill="#FFFFFF" style="font-size:4px; font-family:Arial" x="120" y="280">STATISTICS</text><text fill="#FFFFFF" style="font-size:3px; font-family:Arial" x="120" y="285">Number: 68</text><text fill="#FFFFFF" style="font-size:3px; font-family:Arial" x="120" y="290">Weekly: 3.6</text><text fill="#FFFFFF" style="font-size:3px; font-family:Arial" x="141" y="285">Total: 359.1 km</text><text fill="#FFFFFF" style="font-size:3px; font-family:Arial" x="141" y="290">Avg: 5.3 km</text><text fill="#FFFFFF" style="font-size:3px; font-family:Arial" x="167" y="285">Min: 3.2 km</text><text fill="#FFFFFF" style="font-size:3px; font-family:Arial" x="167" y="290">Max: 11.5 km</text><polyline fill="none" points="21.567984669905854,52.71263905284286 21.73575761364191,52.625278025792795 21.760923555208137,51.99433490270167 21.95386244051042,51.85843891535478 22.071303501114016,51.169249145918 22.331351563887438,48.713363480848784 22.85144768943428,45.79145677824272 22.918556866934523,43.77227965028578 22.03774891232024,36.753365474673046 21.55959602270741,35.85048014073254 21.643482494546333,35.695144168690604 22.054526206717128,35.724269682694285 21.86997596861329,33.88934494757996 21.458932256442495,33.3553655164651 21.517652786773397,32.38448617168615 21.081443133065477,31.200000000004366 21.509264139574952,32.25827113165724 21.46732090364094,33.40390922452207 21.86997596861329,33.85051018055674 22.046137559547788,35.75339518783585 21.635093847376993,35.695144168690604 21.55959602270741,35.82135466523323 21.84481002704706,36.19998515381303 22.079692148283357,36.91840810735448 22.440403977321694,40.78226587209065 22.918556866934523,43.90818714312627 22.85144768943428,45.90794646393624 21.84481002704706,52.74175937745895 21.660259788943222,52.80000000000291" stroke="#4DD2FF" stroke-linecap="round" stroke-linejoin="round" stroke-width="0.5"><title>2025-09-09 5.2km</title><desc>1757417515000</desc></polyline><polyline fill="none" points="48.75559871742735,31.19999999999709 48.69360087395762,31.881525331940793 48.871844673965825,31.926362340309424 48.76334844788653,33.02934557369008 48.35261273480137,35.76432583171845 48.15111974347383,36.31131171362358 47.89537863913574,39.082056977385946 47.445894273900194,41.36852883395477 47.48464292605058,41.843748884508386 46.96541098688613,45.51989303332084 46.94991152602597,46.61374052432802 47.252151013031835,49.420024978557194 47.66288672605879,52.74620830708591 48.11237109132344,52.80000000000291 48.09687163043418,52.450353410509706 48.33711327394121,52.22622025326564 48.33711327394121,52.10070543673646 47.965126213035546,51.83174451493687 47.368396969512105,45.75300920864538 48.54635599569883,37.25283685014438 48.80209710006602,36.36511342055019 48.724599795707036,36.02436872285034 49.05008847397403,33.666020677359484" stroke="#4DD2FF" stroke-linecap="round" stroke-linejoin="round" stroke-width="0.5"><title>2025-09-07 5.0km</title><desc>1757247375000</desc></polyline><polyline fill="none" points="73.43079735303763,52.73118653970596 73.62619527665083,52.80000000000291 73.6771686479915,52.11186319465196 73.92353994294535,51.7383011647762 74.73911388480337,46.282165012322366 74.89203399891267,44.19793807549286 73.96601775239105,36.61765854815167 73.47327516254154,35.68360114467214 73.55823078146204,35.55578206129576 73.96601775239105,35.624607742567605 73.78761095262598,33.70730258058029 73.38831954356283,33.18618229880667 73.43079735303763,32.20292883484217 73.10796600105823,31.200000000004366 73.43079735303763,32.10460293845972 73.3968151054869,33.176349813657 73.79610651449184,33.64830797268223 73.99150443807594,35.60494326719345 73.54123965770123,35.52628532574454 73.49876184819732,35.66393668130331 73.81309763828176,36.13588269834145 74.01699112376082,36.85362951719435 74.3228313519503,40.18665794681874 74.88353843704681,44.00131057438557 74.88353843704681,45.17123831948993 74.29734466629452,49.35926702341385 73.87256657157559,52.03321867663908 73.6771686479915,52.30847420992359" stroke="#4DD2FF" stroke-linecap="round" stroke-linejoin="round" stroke-width="0.5"><title>2025-09-04 5.0km</title><desc>1756985562000</desc></polyline><polyline fill="none" points="100.63839387215558,31.254051603697008 100.7318173655949,31.19999999999709 100.78631440349272,31.326120357356558 100.75517323901295,31.866634142497787 100.84081144136144,31.866634142497787 100.77852911237278,32.83955065172631 100.35812339172116,35.57807313747617 100.07785291125765,36.67706166872085 100.11677936685737,37.10944686536095 99.44724433022202,41.23501625612698 99.48617078587995,41.613333973313274 98.9567709894327,45.34237940765888 99.00348273618147,47.17081541704829 99.64187660833704,52.79099358996609 100.00778529111994,52.80000000000291 100.0856382023776,52.69192301910516 99.71972951956559,49.503592849687266 99.81315301306313,49.29643749012757 99.56402369707939,48.12555027632334 99.33825025448459,45.657629684501444 99.76644126631436,42.29790478797804 99.99221470890916,41.44219044400961 100.41262042956077,37.70397306820087 100.64617916324642,36.34376330731902 100.77852911237278,36.16360150925175 100.70067620114423,35.92038250123005 101.0432290105673,33.37104682804784" stroke="#4DD2FF" stroke-linecap="round" stroke-linejoin="round" stroke-width="0.5"><title>2025-09-02 5.1km</title><desc>1756811867000</desc></polyline><polyline fill="none" points="126.62700669438345,31.200000000004366 126.59565635965555,32.787079646252096 126.18026442461996,35.68002651362622 125.92162416319479,36.66850410892221 125.92946174685494,37.43932766544458 125.29461746884044,41.30241369862779 124.80084969699965,45.664054068322 124.83220003169845,46.98791939225339 125.45136914242175,52.056510006063036 126.0627006694267,52.80000000000291 125.92162416319479,52.727464663294086 125.81189799169078,51.86610303654743 125.57677048127516,49.6174566918271 125.63947115070187,49.39077549146896 125.22407921572449,46.734028933416994 125.20840404834598,45.455498152463406 126.47025502077304,36.532475731561135 126.64268186173285,36.16973237849015 126.73673286588746,34.60085040204285 127.19915030300035,32.09783709511248" stroke="#4DD2FF" stroke-linecap="round" stroke-linejoin="round" stroke-width="0.5"><title>2025-08-31 5.1km</title><desc>1756640573000</desc></polyline><polyline fill="none" points="152.6950439303764,31.200000000004366 152.7649366160913,32.943290499199065 152.283453669952,35.953530823782785 152.12037073654938,36.22309958601545 152.04271219685324,36.76223464580107 151.97281951113837,38.137014174491924 151.5379316887993,41.11113729879435 151.421443879226,41.308809612201 151.4680390030553,41.740093126456486 150.9399609330867,45.44185682100215 150.9710243489826,46.96923845096899 151.5845268126286,52.29689858575148 152.17473171435995,52.80000000000291 152.0504780508345,52.60235335692414 151.74760974603123,49.16143424202164 151.36708290147362,46.870408672766644 151.36708290147362,45.172316149233666 151.96505365718622,41.542421776735864 152.40770733347745,37.75064038726123 152.7649366160913,36.26802763316664 152.71057563830982,35.9265739023831 153.0600390669424,33.32069938119821" stroke="#4DD2FF" stroke-linecap="round" stroke-linejoin="round" stroke-width="0.5"><title>2025-08-30 5.0km</title><desc>1756550382000</desc></polyline><polyline fill="none" points="177.56339825008763,52.790284498012625 177.85726481254096,52.80000000000291 178.79763781250222,46.26124390440236 178.9319768124551,44.075081556533405 178.37782843751484,40.16901368534309 178.14273518751725,37.215065306969336 178.0000000000582,36.56401835239376 177.57179443756468,35.89353252444562 177.63056775007863,35.73805687796266 178.0671695000492,35.806077504414134 177.85726481254096,33.833459679211956 177.47104018754908,33.43504423969716 177.49622875006753,32.25922313508636 177.068023187574,31.200000000004366 177.50462493757368,32.307811070626485 177.45424781256588,33.38645687732787 177.85726481254096,33.86261196323903 178.0503771250369,35.786643044659286 177.63056775007863,35.74777411326795 177.57179443756468,35.87409808247321 177.92443431256106,36.427978130021074 178.1511313750234,37.360821480237064 178.39462081252714,40.42164976904314 178.9319768124551,43.939052024790726 178.83122256252682,45.99890706250153 177.97481143751065,51.877022903943725" stroke="#4DD2FF" stroke-linecap="round" stroke-linejoin="round" stroke-width="0.5"><title>2025-08-28 5.0km</title><desc>1756381580000</desc></polyline><polyline fill="none" points="22.730832609231584,55.200000000004366 22.90870721259853,56.12173204022838 22.877772498963168,56.962915968535526 22.398284437862458,59.96963539333956 22.228143512940733,60.282829430900165 22.204942477721488,61.26714629920025 21.524378778063692,65.27588684019429 21.5785145269474,65.78591440842865 21.06035807376611,69.15918029746535 21.02168968177284,70.52813465266081 21.145428536226973,70.67129204966477 21.099026465788484,71.25286658325786 21.6867860245693,76.3258232108492 22.336415010591736,76.80000000000291 22.127605693647638,76.61211893588188 21.408373601996573,70.6891867079321 21.377438888390316,69.53497380699991 21.911062698316528,65.76801875426463 22.042535231244983,65.58011416606314 22.166274085699115,64.00527900485031 22.707631574041443,60.90921416519268 22.66896318201907,60.48864204921847 22.815903071692446,60.29177781560429 22.75403364445083,60.02332587887213 22.97831031822716,58.48418564865278" stroke="#4DD2FF" stroke-linecap="round" stroke-linejoin="round" stroke-width="0.5"><title>2025-08-26 5.0km</title><desc>1756206850000</desc></polyline><polyline fill="none" points="48.67951249846374,55.200000000004366 48.69504421268357,55.93685893970542 48.81929792673327,55.963817077179556 48.749405212613055,56.880388861944084 48.31451721358462,59.86367438639718 48.16696592819062,60.1961427460119 47.98835121432785,62.21788289219694 47.45250707268133,65.26388412413507 47.36708264431218,66.67453352676239 46.97102393093519,69.32505596307601 47.040916645055404,71.32861853135546 47.63888764369767,76.67422491453908 47.66218521507108,76.80000000000291 48.12813664259738,76.74609641382267 47.79420478621614,73.26026146084041 47.38261435856111,70.88837773071282 47.34378507290967,69.6844427225733 47.84079992896295,66.00964425408165 48.01941464285483,65.49749640733353 48.61738564143889,60.600494472113496 48.79600035533076,60.241070806834614 48.733873498335015,59.95353082304791 49.028976069093915,57.7160783868967" stroke="#4DD2FF" stroke-linecap="round" stroke-linejoin="round" stroke-width="0.5"><title>2025-08-24 5.0km</title><desc>1756042259000</desc></polyline><polyline fill="none" points="73.72463362087728,76.80000000000291 73.96557920260238,76.4514900826398 74.80028353934176,70.76562463909067 74.95517712761648,68.26612929299154 74.49910156219266,65.38814530587115 74.04302599673974,60.99631819346541 73.54392443463439,59.98049340520811 73.66439722548239,59.84106565118418 74.03442079739762,59.88090217259014 73.84510641175439,57.92889356867818 73.43205684307031,57.460804089467274 73.50089843783644,56.45490210688149 73.0362176730705,55.200000000004366 73.47508283983916,56.265671866385674 73.44926724175457,57.47076346336689 73.86231681046775,57.95877154457412 74.0602363954531,59.890861300395045 73.95697400331846,59.99045252288488 73.59555563065805,59.8609839139026 73.59555563065805,60.00041163955029 73.93115840526298,60.607915841981594 74.1204727908771,61.34488309494918 74.34420797394705,64.05368805256148 74.96378232695861,68.36571200061007 74.82609913736815,70.63617027067085 73.879527209152,76.72034069961228" stroke="#4DD2FF" stroke-linecap="round" stroke-linejoin="round" stroke-width="0.5"><title>2025-08-23 5.0km</title><desc>1755956696000</desc></polyline><polyline fill="none" points="100.76256407774054,55.200000000004366 100.77038524774252,55.79730542909965 100.87206045811763,55.90590598586277 100.83295460799127,56.810905475882464 100.36368440630031,59.72494136221212 100.19161866567447,60.0959763568535 99.79273899423424,63.81529054776183 99.58938857354224,65.04597832779837 99.45642868304276,65.17266581064177 99.51899804332061,65.61607058211666 98.95587380128563,69.87807329295174 99.67542144385516,76.65523318108171 99.69888495391933,76.76380831730785 100.12122813542373,76.80000000000291 99.34693230266566,69.69710067675624 100.51228663683287,61.22717107065546 100.66088886736543,60.30411726255261 100.8016699278669,60.13217481014726 100.73910056764726,59.78828890971636 101.04412619871437,57.435349762716214" stroke="#4DD2FF" stroke-linecap="round" stroke-linejoin="round" stroke-width="0.5"><title>2025-08-21 5.0km</title><desc>1755781186000</desc></polyline><polyline fill="none" points="126.60210460060625,55.200000000004366 126.62541187551687,56.872098373445624 126.15926637823577,59.87460430718056 125.99611545418156,60.189232264936436 125.92619362959522,60.71960257567116 126.0116536374262,60.98029190211673 125.28912811671034,65.24110514279164 125.33574266644428,65.6905460555281 124.82298261942924,69.37587545426504 124.85405898591853,70.93085865658213 125.50666268207715,76.80000000000291 125.9572699960845,76.71911095663381 125.64650633124984,73.31271637571626 125.24251356697641,70.88591732888017 125.2192062920949,69.16914152613754 125.72419724744395,65.73549002125947 125.85627180500887,65.53773640128202 126.39233912687632,61.070184595249884 126.64871915036929,60.20721097158821 126.65648824197706,59.218376680946676 127.17701738059986,55.910196180564526" stroke="#4DD2FF" stroke-linecap="round" stroke-linejoin="round" stroke-width="0.5"><title>2025-08-19 5.3km</title><desc>1755607955000</desc></polyline><polyline fill="none" points="151.7659594445431,76.69360807433259 152.14209605150972,76.80000000000291 152.14209605150972,76.08427020936506 152.28419210304855,75.76509167564654 152.4597225196485,73.55982892544125 152.96959658685955,70.22282102485042 152.91944503926788,68.03677560450888 152.35106083319988,64.37068405092577 152.09194450394716,61.352581829320116 151.93313126984867,60.55934676749166 151.52356029787916,59.87251594456029 151.6155048017681,59.708062758225424 152.01671718255966,59.79512624522613 151.84118676593062,57.98612408815097 151.40654002013616,57.3960143392469 151.43997438519727,56.254480172821786 151.03040341314045,55.19999999999709 151.4734087502875,56.302850542546366 151.42325720263761,57.38634037844167 151.81611099213478,57.81199372330593 152.01671718255966,59.78545252837648 151.59878761926666,59.72741020666581 151.55699466291117,59.85316852563119 152.0417929563555,60.96563872293336 152.29255069428473,63.87734696416737 152.9110864480026,68.15285007512284 152.90272785670822,69.14915012458368 152.28419210304855,73.43408872010332 152.10030309518334,73.52113964918681 151.98328281746944,73.81130883774313 151.7659594445431,75.23312507429364" stroke="#4DD2FF" stroke-linecap="round" stroke-linejoin="round" stroke-width="0.5"><title>2025-08-17 5.0km</title><desc>1755429603000</desc></polyline><polyline fill="none" points="177.6893410308985,76.75142248022894 177.5801905823173,76.80000000000291 177.70613340759883,76.67369839725143 177.84886860963888,74.53626135503146 177.96641524657025,73.7881471008368 178.3526399108232,73.46752491413645 178.34424372244393,72.72911821245361 178.86480740032857,69.79486679863476 178.94037309550913,68.47345264273463 178.02518856502138,60.806946839053126 177.54660582888755,59.87409808230586 177.63896390079753,59.76720858075714 178.0419809417217,59.79636027485685 177.8656609863392,57.911199083355314 177.46264394535683,57.40589182515396 177.48783251046552,56.30781107058283 177.05962690446177,55.19999999999709 177.513021075516,56.327246237888176 177.45424775700667,57.35730444797082 177.85726479795994,57.83345967911009 178.05877331845113,59.78664304447739 177.63056771244737,59.73805687778804 177.57179439393803,59.883815303779556 178.07556569512235,60.92355229337409 178.94037309550913,68.01678320924111 178.93197690712987,69.17302711837692 178.36943228752352,73.31207134562283 177.94962286986993,75.99360997610347 177.77330291445833,76.12962804735434 177.7145295959781,76.53768110003148" stroke="#4DD2FF" stroke-linecap="round" stroke-linejoin="round" stroke-width="0.5"><title>2025-08-16 5.1km</title><desc>1755350047000</desc></polyline><polyline fill="none" points="21.874000501207775,100.74168073586043 21.57160170399584,100.80000000000291 21.714401136006927,100.6542017729953 22.11759953229921,97.6409886584006 22.344398630142678,97.52434624233865 22.293998830602504,97.20357886476268 22.898796425026376,93.63618430482893 22.94079625798622,92.09059602784691 22.033599866350414,84.82891292996646 21.580001670576166,83.91508776991395 21.67240130304708,83.74009897688666 22.04199983298895,83.79842861014913 21.857200568018015,81.8832537195849 21.462402138335165,81.43604999646777 21.521201904455665,80.47358271361736 21.050803775462555,79.20000000000437 21.48760203810525,80.22081192158657 21.479202071524924,81.38744077007141 21.857200568018015,81.84436652236764 22.07559969931026,83.78870700707193 21.638801436696667,83.7498205849115 21.59680160373682,83.88592299332231 21.958000167040154,84.46921683487017 22.109199565660674,85.05250711782719 22.377998496522196,88.1730496888922 22.907196391635807,91.69204405620985 22.94919622456655,93.10154967640847 22.310798763792263,97.19385862438503 22.361198563332437,97.48546540539246 22.092399632529123,98.98236621914111 21.874000501207775,99.47808794841694" stroke="#4DD2FF" stroke-linecap="round" stroke-linejoin="round" stroke-width="0.5"><title>2025-08-14 4.9km</title><desc>1755170321000</desc></polyline><polyline fill="none" points="48.88231242704205,79.2180699464443 48.69491863719304,79.19999999999709 48.749575159250526,80.83531528319145 48.296706833847566,83.90709694234101 48.13273726776242,84.23233819998859 48.13273726776242,85.08157365376246 47.67206086780061,88.32485570999415 47.52370745089138,89.21018792306131 47.40658633221756,89.28245955142484 47.47685900342185,89.73415589814249 46.93810185769689,93.44701295073173 46.98495030513732,95.02786611707415 47.64082856950699,100.72773772773508 48.085888820322,100.80000000000291 47.32069751189556,93.64575032120774 48.593413667724235,84.62985367725923 48.772999382956186,84.25944158440689 48.69491863719304,83.94323491860996 49.06189814230311,81.37740211007622" stroke="#4DD2FF" stroke-linecap="round" stroke-linejoin="round" stroke-width="0.5"><title>2025-08-12 5.0km</title><desc>1754999139000</desc></polyline><polyline fill="none" points="74.5824328395538,79.27237055647856 74.68406541558215,79.19999999999709 74.69188330607722,80.72881550067541 74.20717409727513,83.84064287657384 74.04299839754822,84.14820130456064 73.8788226978213,86.2377613213248 73.36284192718449,89.26798852047068 72.83904326611082,93.63676147720253 72.88595060887747,94.97539021790726 73.43320294137811,99.50668009934452 74.00390894524753,100.80000000000291 73.23775567975827,93.69103060119232 74.39480346845812,85.34224160398298 74.6762475251162,84.18438457915909 74.60588651095168,83.931101348011 74.9342379104346,81.48869036129327 75.16095673391828,80.56598432963801" stroke="#4DD2FF" stroke-linecap="round" stroke-linejoin="round" stroke-width="0.5"><title>2025-08-10 5.0km</title><desc>1754830447000</desc></polyline><polyline fill="none" points="99.69284835361759,100.80000000000291 100.86254914407618,93.8375021573811 100.938285166485,92.20148519938084 100.3155667600513,87.88733031826268 100.0210377840267,84.74167278670211 99.54979142238153,83.90411188018334 99.61711233120877,83.72880750771583 100.04628312482964,83.81645973406557 99.86115062562749,81.88809222404961 99.45722517278045,81.4108639681217 99.48247051355429,80.32004759612755 99.05329971993342,79.20000000000437 99.49930074080476,80.35900553761894 99.46564028636203,81.42060334406415 99.86115062562749,81.8978315514396 100.0631133519928,83.78724233420508 99.63394255837193,83.76776406266436 99.58345187676605,83.87489450706926 100.0631133519928,84.90723628499836 100.45020857764757,88.73459502817423 100.90462471207138,91.51980322126474 100.94670028006658,93.06818813908467 99.97054710242082,99.98205445134954 99.70126346717007,100.26444120366068" stroke="#4DD2FF" stroke-linecap="round" stroke-linejoin="round" stroke-width="0.5"><title>2025-08-09 5.0km</title><desc>1754735080000</desc></polyline><polyline fill="none" points="126.6486129325931,79.20000000000437 126.6955006144708,80.71913325694186 126.39073068226571,83.10629027030518 126.0,84.75194456340978 125.91403924991027,86.24385759914003 125.39046013561892,89.29994077352603 125.42171859022346,89.77009810354502 124.89032486235374,93.35044554945489 124.87469563505147,94.58002660873171 125.54675240858342,100.29373933830357 126.07033152278746,100.80000000000291 125.3044993855292,94.9055011056189 125.34357245377032,92.9797596929202 126.46106220508227,85.29446128792188 126.60172525071539,84.41739093494834 126.73457368268282,84.24559263707488 126.67205677353195,83.87486886441911 127.12530436494853,80.80955703785003" stroke="#4DD2FF" stroke-linecap="round" stroke-linejoin="round" stroke-width="0.5"><title>2025-08-07 5.0km</title><desc>1754570205000</desc></polyline><polyline fill="none" points="152.37434658943675,79.20000000000437 152.42264937519212,79.81481808461103 152.58365866096574,79.88002582146146 152.52730541097117,80.31784799612797 152.96203048259486,80.38305537519045 153.01033326832112,80.7836139717765 152.56755773240002,83.00062757878186 152.43875030378695,84.18363391300227 152.52730541097117,84.50034168010461 152.39044751803158,84.63075044270226 152.13283266080543,86.14906738545687 150.9977171959763,94.40156521791505 151.69810758918175,100.80000000000291 150.98966673170798,94.25254249540012 151.48879551765276,90.48032419478113 151.6739561963186,89.96803566932795 152.1167317322106,86.14906738545687 152.34214473233442,84.74252923445601 152.4870530895132,84.49102676137409 152.43069983948953,84.12774419350899 152.87347537538153,80.86745159613201" stroke="#4DD2FF" stroke-linecap="round" stroke-linejoin="round" stroke-width="0.5"><title>2025-08-05 5.0km</title><desc>1754406000000</desc></polyline><polyline fill="none" points="177.6729210333142,100.80000000000291 178.04672556667356,97.70334582872601 178.27610562121845,97.5263911677539 178.63291903946083,95.12764049445104 178.8962813242979,93.20073211450654 178.91327243947308,92.001310575557 178.29309673639364,87.74422715823312 178.05522112426115,84.91262217042095 177.84283218480414,84.17521142999612 177.52000099694123,83.71309783302422 177.59646101511316,83.56561430524016 178.0127433363523,83.6049432679938 177.81734551209956,81.66797284648055 177.41805430600652,81.24517718910647 177.4520365363569,80.04560735283303 177.08672756055603,79.20000000000437 177.4605320938863,80.17343107661873 177.41805430600652,81.14685235264187 177.83433662727475,81.65814041031263 178.02123889393988,83.59511102880788 177.91079664547578,83.69343337562896 177.50300988182425,83.61477550616837 178.04672556667356,84.76514047222736 178.39504342729924,88.49144242567854 178.91327243947308,92.03080472620059 178.90477688188548,93.24988841766753 177.91079664547578,100.05287981229776 177.85982330000843,100.21999930262973 177.63893880302203,100.22982985187991 177.5539832272043,100.60338998368388 177.31610761507181,100.58372896008223" stroke="#4DD2FF" stroke-linecap="round" stroke-linejoin="round" stroke-width="0.5"><title>2025-08-03 5.0km</title><desc>1754221111000</desc></polyline><polyline fill="none" points="32.80000000000291,112.83135902184404 32.73358954649302,113.10672164130119 32.56202920830401,113.12273102190375 29.191698693306535,113.05549156871166 29.100384319754085,112.99785763749787 28.96756341274886,113.05228968640586 28.538662567254505,113.04908780378173 28.50269023826695,113.01386707340862 27.736202920830692,113.0586934506864 27.3598770176759,113.00105952533158 26.14511913912429,112.99785763749787 25.619369715597713,112.91460843964342 25.262413528049365,112.82175330563405 25.240276710217586,112.7865323211663 24.744965411213343,112.77052276974973 23.657494235187187,112.5784075183492 22.058109146819334,112.56559979327358 18.720983858569525,112.9818481934526 18.26994619522884,113.18997033162668 17.785703305140487,113.3372559372765 16.485165257487097,114.12810383063879 15.796156802462065,114.47709517256044 15.372790161403827,114.59876097044253 15.12375096080359,114.60196269562039 14.808301306693465,114.52512120152642 14.473481936962344,114.66279541224685 14.360030745563563,114.43867429671627 14.224442736362107,114.52832293418578 14.113758647203213,114.32020963463765 12.229362029203912,115.43440020672824 12.08547271329735,115.07261275897508 11.504381245191325,113.96161118659074 11.449039200611878,113.92318968227846 11.19999999999709,114.04485761856267 11.363259031495545,113.91998788814271 11.44350499616121,113.91038250377278 11.468408916218323,113.83033752015035 11.56802459647588,113.83674112631888 11.700845503466553,113.74709052150865 11.73958493466489,113.79191585579792 11.839200614907895,113.72787964444433 11.805995388160227,113.78871404831807" stroke="#4DD2FF" stroke-linecap="round" stroke-linejoin="round" stroke-width="0.5"><title>2025-08-02 8.3km</title><desc>1754134728000</desc></polyline><polyline fill="none" points="48.577355445188005,103.20000000000437 48.46110938239144,103.22690241551754 48.391361744725145,103.95326453410962 48.97259205864975,103.95326453410962 48.97259205864975,104.53614339214255 47.03515767888166,117.35850454924366 47.04290741638397,118.71236544987187 47.84888011837029,124.80000000000291 47.08165610401193,118.8827173378595 47.02740794135025,117.5647231127441 48.17436909416574,109.36940592834435 48.46110938239144,108.25750997219438 48.38361200722284,108.0064347533189 48.74784967058804,105.3611345802492" stroke="#4DD2FF" stroke-linecap="round" stroke-linejoin="round" stroke-width="0.5"><title>2025-07-31 5.0km</title><desc>1753965181000</desc></polyline><polyline fill="none" points="73.57233666401589,124.80000000000291 73.66549105400918,124.0160555915063 73.90261131952866,123.73187416961446 74.76640657242388,117.78347079783998 74.85956096241716,115.58825065717247 74.4191947550571,112.9225590003989 73.95342280500336,108.52204642302968 73.5045880167163,107.65956161529175 73.59774240673869,107.5321484326123 73.97035996679915,107.58115352279856 73.80945692950627,105.63073169493146 73.37755930304411,105.16027228034363 73.4283707885188,104.07232608836784 73.08962755210814,103.20000000000437 73.4368393694167,104.09192883111973 73.4029650457669,105.17987480179727 73.80945692950627,105.68953896026505 74.00423429044895,107.56155148972903 73.89414273860166,107.65956161529175 73.55539950216189,107.52234741157008 73.5215251785412,107.66936262237869 74.02964003317175,108.7964717888608 74.32604036503471,112.08951524123404 74.91037244789186,116.29386258187151 74.30063462231192,121.37019616112957 73.85179983408307,124.18264431152056 73.69089679676108,124.25123958320182" stroke="#4DD2FF" stroke-linecap="round" stroke-linejoin="round" stroke-width="0.5"><title>2025-07-29 5.0km</title><desc>1753797916000</desc></polyline><polyline fill="none" points="100.9264486086613,103.20000000000437 100.9108780438255,104.84855908886675 100.5527550522238,107.37088525087165 100.2724848848884,108.20864199515927 100.0856381066842,110.51468419648882 99.5640241841611,113.27104658733151 99.6263064435334,113.75745458687015 99.11247780342819,117.17124307655467 99.143618933158,118.98166861446953 99.782012092066,124.80000000000291 99.1825453452766,119.74726033690968 99.0735513913387,117.82876508239133 99.5718094666081,113.41516775418131 100.2646996024705,109.01035877962568 100.1946320606512,108.7851581677678 100.52939920499921,107.41592613737157 100.9108780438255,104.37111070282845" stroke="#4DD2FF" stroke-linecap="round" stroke-linejoin="round" stroke-width="0.5"><title>2025-07-27 5.0km</title><desc>1753616848000</desc></polyline><polyline fill="none" points="126.6169385756948,103.20000000000437 126.63993007541285,105.09775109581096 126.21841924730688,108.09504961468338 126.04981491604121,108.4142824451992 125.81223608565051,111.02130686266173 125.3830614242761,113.3977102684803 125.41371675723349,113.84992896355106 124.85425693081925,117.53852731685038 125.55166575554176,124.80000000000291 126.01149574987357,124.72907278395724 125.68195092061069,121.1737722694379 125.3064230918826,118.68231582688168 125.29109542543301,117.3523277692293 126.3487044123176,109.89515280613705 126.70124074135674,108.40541488234157 126.62460240896326,108.05957922809466 127.14574306918075,104.90265709179221" stroke="#4DD2FF" stroke-linecap="round" stroke-linejoin="round" stroke-width="0.5"><title>2025-07-26 5.2km</title><desc>1753529066000</desc></polyline><polyline fill="none" points="152.74552235973533,103.19999999999709 152.65233206475386,103.66727711300337 152.77658579137642,104.26934206089936 152.62903449102305,105.68912078344874 152.30286845864612,107.89961697184481 152.13201958453283,108.21411397289194 152.1087220107729,109.15759826671274 151.41756065646769,113.29982451531396 151.4719216618396,113.69516785716405 150.95937503955793,117.45982616872061 151.02926776075037,119.46338568533974 151.64277053595288,124.80000000000291 152.0854244370421,124.75508034713857 151.73596083093435,121.49385263142904 151.81361941006617,121.32315145192842 151.37096550897695,118.78954786194663 151.36319965103758,117.58561150899914 153.04062496044207,105.84188042714231" stroke="#4DD2FF" stroke-linecap="round" stroke-linejoin="round" stroke-width="0.5"><title>2025-07-24 5.0km</title><desc>1753356656000</desc></polyline><polyline fill="none" points="177.6211490612768,124.76103279968083 177.73059488800936,124.80000000000291 178.10102691699285,121.72154237441282 178.34517529973527,121.56566847279464 178.28624293149915,121.2636620671401 178.91766116270446,117.35697731620894 178.9597557114903,116.17812096931448 178.32833748022676,112.01790873167192 178.06735127800494,108.93904053595179 177.56221669304068,107.87700292711088 177.63798688078532,107.72110650752438 178.05051345849643,107.7990547490117 177.83162180500221,105.84058596364048 177.46960868575843,105.45083615588374 177.50328432477545,104.39850375573587 177.0402442885097,103.20000000000437 177.46118977601873,104.16465054165747 177.45277086627902,105.41186108793045 177.84004071477102,105.82109851090354 178.05893236826523,107.74059357384249 177.94948654150357,107.84777236774244 177.65482470026473,107.73085004118911 177.56221669304068,107.84777236774244 177.85687853425043,108.26674286636262 178.06735127800494,108.96827076242334 178.44620221672812,112.84606842125504 178.93449898218387,116.0124953622726 178.92608007247327,117.30826453118789 178.0084189097688,123.68942858416995" stroke="#4DD2FF" stroke-linecap="round" stroke-linejoin="round" stroke-width="0.5"><title>2025-07-22 5.0km</title><desc>1753184035000</desc></polyline><polyline fill="none" points="11.199999999953434,141.5624634611886 11.199999999953434,138.096401750925 13.496456086286344,128.39126031968044 32.06779661017936,131.7803855687671 32.79999999993015,132.58914961473783 30.30385208025109,147.57022867209162 13.629583975300193,144.95147092919797 13.030508474563248,144.18124462015112 15.093990754918195,129.20003159838961 15.826194144668989,128.73787679336965 20.25269645615481,129.46962164112483 32.766718027647585,132.24253666360164 30.57010785827879,147.2621404650272 29.87118644057773,147.60873968029045 13.296764252590947,144.79742579261074 13.496456086286344,139.86794836321496 15.127272727317177,129.27705734450137 15.659784283488989,128.81490263334126 23.84714946069289,130.20136507603456 15.493374422192574,128.89192845771322 14.561479198746383,133.12832468663692 15.393528505344875,133.93708585601416" stroke="#4DD2FF" stroke-linecap="round" stroke-linejoin="round" stroke-width="0.5"><title>2025-07-20 4.9km</title><desc>1753020627000</desc></polyline><polyline fill="none" points="49.2415045266971,127.20000000000437 49.078557057568105,128.30436744455073 48.47332360080327,129.8576413865594 47.961202983540716,132.19199018311338 47.82153372425819,134.03249095365027 47.34045072016306,137.11187726538628 47.231819074077066,137.21063131921255 47.28613489714917,137.6505344002362 46.781773683120264,141.28638420697098 46.7584954732738,142.48932381260238 47.44908236624906,148.7910235401141 47.37148833335959,147.5522633340588 47.45684176957002,148.8000000000029 47.89912775720586,148.71023536001303 47.1542250411585,141.6813811062966 48.3414137448417,133.00899769496027 48.58971465018112,132.227902759907 48.62075226334855,131.17745385890885" stroke="#4DD2FF" stroke-linecap="round" stroke-linejoin="round" stroke-width="0.5"><title>2025-07-20 5.0km</title><desc>1752942252000</desc></polyline><polyline fill="none" points="74.9313751849404,127.2096655261048 74.79772493423661,127.20000000000437 74.58889641740825,128.2632019833909 74.82278435624903,128.40818315134675 74.80607807487831,128.7174755712258 74.513718151371,130.6891911100247 74.35500847859657,131.02747153181554 73.94570458566886,134.8837833314392 73.6032258180785,136.45912388776924 73.63663838079083,136.92302288432984 73.04356539304717,141.35894283377274 73.84546689756098,148.8000000000029 73.10203737774282,142.59593810703518 73.08533109643031,140.72111086343648 73.63663838079083,136.98101009989477 73.6115789587493,136.4687884732557 74.22135822783457,132.7961752950505 74.34665533789666,131.01780639360368 74.513718151371,130.66986076388275 74.95643460698193,127.50929634802014" stroke="#4DD2FF" stroke-linecap="round" stroke-linejoin="round" stroke-width="0.5"><title>2025-07-17 5.0km</title><desc>1752765839000</desc></polyline><polyline fill="none" points="109.26756756764371,148.34420429656166 109.75405405415222,147.66868882908602 110.79999999993015,138.85869042470586 95.15945945947897,138.15500434566638 92.3378378378693,138.3801840855158 92.67837837827392,138.15500434566638 92.16756756755058,134.97432096430566 89.27297297294717,130.41433947323821 89.19999999995343,127.85283545544371 89.54054054047447,127.65579570346745 103.13783783791587,127.88098397993599 102.16486486489885,136.74762682401342 101.5567567567341,137.14169325091643 93.06756756757386,136.86021728892229 92.14324324321933,133.904702416301 89.75945945945568,130.864711357106 89.46756756748073,129.26025817796472 92.84864864859264,129.00692261577933 102.69999999995343,129.34470331392367 102.84594594594091,131.45582334313076 101.97027027036529,138.32388916771743 100.65675675671082,138.40833154009306" stroke="#4DD2FF" stroke-linecap="round" stroke-linejoin="round" stroke-width="0.5"><title>2025-07-15 4.1km</title><desc>1752589649000</desc></polyline><polyline fill="none" points="126.86804024531739,127.20000000000437 126.93386320231366,128.73282165628189 126.42373528561438,131.9316730419887 126.24272215389647,132.30296121930587 126.23449428426102,133.24545537052472 125.51044175738934,137.66267538349348 125.54335323590203,138.15769568821997 124.99208597108372,142.26055181449192 125.65031554098823,148.8000000000029 125.2718335382815,146.21092804607179 124.98385810144828,142.05112963294232 126.21803854504833,133.1788146813633 126.14398771841661,132.87417092733085 126.3908238071017,131.99831461803115 126.87626811495284,128.82802714322315 126.81867302756291,128.49480751567899 127.01614189855172,127.48562084310106 126.83512876686291,127.25712423828372" stroke="#4DD2FF" stroke-linecap="round" stroke-linejoin="round" stroke-width="0.5"><title>2025-07-13 5.0km</title><desc>1752418082000</desc></polyline><polyline fill="none" points="151.81241459710873,148.8000000000029 151.70156867726473,148.79013357777148 151.7697815510037,148.01068305471563 152.14495235678623,145.64269371809496 152.36664419656154,145.44535866640217 152.750341611536,142.76156214134244 152.95498023281107,139.988885606057 152.39222402419546,136.1306879061085 152.1023193106812,132.90389328927267 151.93178712623194,132.2723368351144 151.5736695389205,131.69998524848052 151.65040902190958,131.55196273707406 152.05968626454705,131.6111717687454 151.8806274709059,129.73620155871322 151.47135022823932,129.2230455029421 151.49693005593144,128.04869739525748 151.20702534241718,127.2394744620251 151.0279665487178,127.2394744620251 151.18144551469595,127.20000000000437 151.47135022823932,127.92040640475898 151.4628236190183,129.23291391423845 151.83799442477175,129.57830767673295 151.8806274709059,129.77567498906865 152.05968626454705,131.5815672574172 151.64188241271768,131.56183091152343 151.54808971122839,131.6703807642989 151.92326051704003,132.21312820682942 152.0937927014602,132.81508091124851 152.4433836795506,136.65367509600037 152.9720334512822,139.91981436109927 152.96350684206118,141.18282364463812 151.92326051704003,148.28694471546623" stroke="#4DD2FF" stroke-linecap="round" stroke-linejoin="round" stroke-width="0.5"><title>2025-07-12 5.1km</title><desc>1752325602000</desc></polyline><polyline fill="none" points="177.86985901440494,148.8000000000029 177.65995419886895,148.79028449803445 178.13014098565327,145.55496743470576 178.3232534159324,145.4578090728537 178.86060974362772,141.85316406017955 178.94457166985376,140.03621599436156 178.44919630521326,136.7811691968891 178.0713676372543,132.82638109036634 177.56759608001448,131.80607750343916 177.63476562098367,131.69918792584212 178.05457525205566,131.7672085799568 177.8614628217765,129.79458995274035 177.48363415381755,129.376739401363 177.4668417685898,128.06487114561605 177.04703213754692,127.20000000000437 177.49203034641687,128.1717647885671 177.48363415381755,129.36702192495432 177.86985901440494,129.80430738568975 178.07976382991183,131.73805687696586 177.6767465840967,131.6894706855819 177.58438846530044,131.84494641108176 178.08816002251115,132.90411805992335 178.4575924978417,136.76173574879795 178.95296786242398,139.96820122503414 178.86900593625614,141.80458301048202 178.06297144465498,147.16778181793052" stroke="#4DD2FF" stroke-linecap="round" stroke-linejoin="round" stroke-width="0.5"><title>2025-07-10 5.0km</title><desc>1752149320000</desc></polyline><polyline fill="none" points="18.970839156478178,151.20000000001164 19.02143056935165,152.5464361152117 19.388218312349636,152.35617960168747 20.172385211335495,152.61961163040542 21.019791376311332,152.5464361152117 21.968380366975907,152.89767824913724 26.863099558686372,153.54161993673188 27.002225943957455,153.7318748844118 25.87656700843945,160.91747393333935 25.332709320471622,160.9613766955299 25.231526494782884,161.15162184360088 25.041808696638327,162.42479444474156 25.18093508190941,162.98088929167716 24.32088106375886,167.824677312703 18.02225016587181,167.634440976326 17.807236661261413,167.4881051620905 16.997774055984337,172.8000000000029 17.845180220901966,167.57590666846954 20.29886374337366,167.61980740157014 21.120974201941863,167.29786838132713 21.234804880805314,167.634440976326 24.358824623399414,167.7368759579258 26.53425537527073,154.11238402586605 26.471016109222546,153.61479494637751 19.957371706783306,152.47326056279417" stroke="#4DD2FF" stroke-linecap="round" stroke-linejoin="round" stroke-width="0.5"><title>2025-07-08 5.1km</title><desc>1751976330000</desc></polyline><polyline fill="none" points="37.39238742546877,172.60332322170143 37.346032235829625,172.8000000000029 37.63961510389345,172.67484207559028 37.73232548322994,171.67357547547726 38.273136029660236,171.22657961794175 38.38129813893465,170.76170272151649 39.94192285853205,159.9440280990093 40.0809884275659,156.6717739978194 39.710146910103504,154.25777703919448 40.559992054419126,154.22201387224777 40.77631627296796,154.54388211289188 43.75850014318712,154.9730388508906 46.153518277278636,154.93727582940483 47.89956375560723,155.63465343748976 53.46218651853269,156.45719783182722 54.48200069181621,151.1999999999971 58.65396776411217,152.12985595209466 54.930100858793594,151.25364566934877 54.23477301344974,154.34718492468528 54.126610904117115,156.49296054434672 43.71214495348977,155.09820936896722 40.77631627296796,154.56176366456202 40.51363686477998,154.1683691081853 39.66379172040615,154.31142177594302 40.00372977810912,155.741942054854 40.06553669774439,158.83540237956913 38.31949121929938,170.81534242613998" stroke="#4DD2FF" stroke-linecap="round" stroke-linejoin="round" stroke-width="0.5"><title>2025-07-06 5.0km</title><desc>1751807521000</desc></polyline><polyline fill="none" points="66.48768110363744,171.46114566719916 67.42353056982392,164.80611479237268 64.39478138840059,164.5895271066256 63.44191647745902,164.92425342802017 64.68404395069228,164.80611479237268 64.51388950232649,164.60921690623218 67.6447313526296,164.78642501278955 67.86593213560991,164.5895271066256 67.76383946661372,163.9791423259594 69.03999782941537,155.9258211225242 68.92088971560588,151.9088805182546 71.11588209989714,151.6922784128983 84.55808352259919,153.89767034615215 84.5410680777859,153.247869974919 69.75464651267976,151.1999999999971 69.99286274047336,156.06365584160085 68.44445726007689,167.01135744639032 68.86984338110778,167.680801142953 68.47848814976169,168.4093107728695 68.56356537394458,169.98445736573194 67.9680248045479,170.1222820833791 67.69577768718591,172.8000000000029 66.31752665521344,172.64248820573266 66.40260387945455,171.48083476851752" stroke="#4DD2FF" stroke-linecap="round" stroke-linejoin="round" stroke-width="0.5"><title>2025-07-05 4.8km</title><desc>1751729502000</desc></polyline><polyline fill="none" points="103.47653159161564,172.8000000000029 103.69029890629463,172.64377437834628 103.72405164019438,171.75849225716956 104.01657533395337,170.4696147036011 104.17408809217159,170.417538570342 104.37660449557006,168.5297644467646 99.97749817738077,168.3474951277749 100.25877095985925,167.37104793159233 100.67505467793671,162.97043354451307 100.72005832317518,159.75450434455706 100.56254556495696,159.32483967291773 100.73130923439749,156.69473966119403 100.72005832317518,151.20000000001164 94.81332989077782,153.32240369042847 94.68956986645935,153.62188113393495 94.73457351169782,153.36146600537177 97.91858140949626,152.15052870126965 97.97483596601523,154.83280452557665 98.28986148239346,155.5098749796016 100.64130194403697,155.5098749796016 100.65255285537569,158.94725437769375 100.90007290389622,159.06443614015006 100.99008019431494,159.48108153846988 105.10791373002576,159.74148422417056 105.31043013348244,160.77006965701003 105.287928310805,162.6449383102008 103.87031348713208,172.31830372134573" stroke="#4DD2FF" stroke-linecap="round" stroke-linejoin="round" stroke-width="0.5"><title>2025-07-03 5.2km</title><desc>1751545471000</desc></polyline><polyline fill="none" points="125.62149048372521,172.8000000000029 126.13458116131369,169.63671731814247 126.34486422588816,169.49071713368176 126.88318887123023,165.4999592376189 126.92524548413348,164.1177555339309 126.00841132254573,156.7781142833337 125.5626112256723,155.85331851030787 125.65513577405363,155.72676681490702 126.03364529029932,155.7949100562837 125.85700751605327,153.90635083913367 125.44485270947916,153.38066277890175 125.453264032054,152.18325142054528 125.05793187068775,151.20000000000437 125.48690932241152,152.27086739368679 125.44485270947916,153.4001327585429 125.82336222572485,153.7700616192451 125.88224148380687,154.07184463103476 126.03364529029932,155.78517531047692 125.62149048372521,155.75597106714122 125.5626112256723,155.8825227239431 126.01682264517876,156.7781142833337 126.45421141947736,160.94445183175412 126.94206812928314,164.08855383204354 126.79907564536552,166.26892308380047 125.87383016123204,172.46907685849146" stroke="#4DD2FF" stroke-linecap="round" stroke-linejoin="round" stroke-width="0.5"><title>2025-07-01 5.0km</title><desc>1751376396000</desc></polyline><polyline fill="none" points="151.24091598694213,172.8000000000029 151.39689215400722,172.60748258684907 151.36569692054763,171.8975719208902 151.61525878787506,171.65692327159195 151.79203177720774,170.71838886621117 152.06239046674455,167.40939411168802 152.43673326767748,166.12186934256897 152.8526697132038,162.74054603456898 152.74868560180767,160.80316069041146 152.16637457808247,157.34948208722926 151.77123495494016,153.16161118170567 151.147330286738,151.60917311411322 151.6984460769454,151.71748340755585 151.719242899213,151.1999999999971 151.719242899213,151.69341446199542 151.24091598694213,151.59713863095385 151.15772869781358,151.71748340755585 151.5528683210141,152.3071710439035 151.79203177720774,153.13754252986837 152.22876504494343,157.80676936249802 152.8526697132038,161.9583756436623 152.80067765747663,163.89574208252452 151.49047785421135,172.39090012299857" stroke="#4DD2FF" stroke-linecap="round" stroke-linejoin="round" stroke-width="0.5"><title>2025-06-30 4.1km</title><desc>1751292736000</desc></polyline><polyline fill="none" points="167.4425087107811,163.3315227524945 167.20000000001164,161.57876788833528 167.28362369336537,161.39477517099294 173.78954703832278,161.08489189430838 174.82648083620006,161.18173052685597 176.51567944249837,161.01710479283065 179.04947735188762,161.04615641367855 188.79999999998836,160.4263865755347 185.88989547037636,160.6297489993085 185.21254355402198,160.85247877354414 183.95818815330858,160.79437540450454 177.61114982576692,161.12362735918578 171.70731707316008,161.23014980609878 171.5317073170445,161.385091333912 171.94146341460873,163.57361342445802 171.7491289198515,163.5542461934092 171.51498257837375,162.41157257369196" stroke="#4DD2FF" stroke-linecap="round" stroke-linejoin="round" stroke-width="0.5"><title>2025-06-26 5.0km</title><desc>1750950176000</desc></polyline><polyline fill="none" points="32.80000000001746,186.8840289662694 32.451237890229095,185.1159710337306 23.15866523142904,185.96859223496722 22.166630785824964,185.97756715106516 18.586006458557677,185.52882022524136 11.200000000011642,185.842943313437 18.33799784714938,185.51984526338492 22.174381054908736,185.98654206626816 28.78536060283659,185.3852207259697" stroke="#4DD2FF" stroke-linecap="round" stroke-linejoin="round" stroke-width="0.5"><title>2025-06-24 5.0km</title><desc>1750769966000</desc></polyline><polyline fill="none" points="58.80000000001746,186.86500652030372 58.5043227665592,185.134993479689 49.30720461095916,186.0090147157971 48.18674351586378,186.04505664313183 44.56080691641546,185.57651044185332 37.20000000001164,185.90088884568104 44.36628242072766,185.57651044185332 48.17896253601066,186.04505664313183 55.96772334293928,185.3512469611669" stroke="#4DD2FF" stroke-linecap="round" stroke-linejoin="round" stroke-width="0.5"><title>2025-06-22 5.0km</title><desc>1750563938000</desc></polyline><polyline fill="none" points="74.73815248723258,196.79999999999927 73.62179466203088,190.13051871750213 73.60614478596835,188.31198824174135 73.70526066762977,187.55072635359465 73.64266116340877,185.59315086737843 73.66352766481577,185.25479793072736 73.77829342253972,185.0614525278579 73.66352766481577,184.97082165302345 73.6583110394422,183.7321858001269 72.39067107907613,176.10645203613967 72.07245693262666,175.1999999999971 72.3958877043915,175.99163554574625 73.64266116340877,183.60529968929768 73.71047729300335,187.31509569159243 73.62179466203088,188.3180299636333 73.6165780366573,190.07010331892525 74.47210459431517,195.19311027954973 74.59208697738359,195.54348844374908 75.92754306737334,195.47099657972285" stroke="#4DD2FF" stroke-linecap="round" stroke-linejoin="round" stroke-width="0.5"><title>2025-06-21 8.0km</title><desc>1750517001000</desc></polyline><polyline fill="none" points="102.1913823732757,196.8000000000029 100.36168446938973,185.54865028322092 97.14198350673541,185.48294666381844 91.34084829204949,184.92446481718798 91.45431792951422,184.33312898734584 91.22737865458475,183.1997292473534 91.53942015761277,175.7913693520677 91.49686904350528,175.2657078129996 91.21319494990166,175.20000000001164 90.85860233288258,184.31670296112134 91.39758311078185,184.38240705603675 91.42595052008983,184.9408907815232 100.404235583439,185.53222438090597 101.49638084386243,192.56235758092953 101.83678975625662,193.49859049583029 109.14139766711742,193.26863905573555" stroke="#4DD2FF" stroke-linecap="round" stroke-linejoin="round" stroke-width="0.5"><title>2025-06-19 5.0km</title><desc>1750345525000</desc></polyline><polyline fill="none" points="136.79999999998836,186.54074252207647 136.60173913047765,185.36258955602898 130.4869565217523,185.9426062500861 129.69913043477573,185.9607316803049 127.0800000000163,185.65864045270428 117.37565217391239,186.09969312808244 116.53565217391588,186.23865425010445 115.20000000001164,186.63741044396738 117.08347826087265,186.12990209535928 120.49565217393683,185.97885710501942" stroke="#4DD2FF" stroke-linecap="round" stroke-linejoin="round" stroke-width="0.5"><title>2025-06-17 5.1km</title><desc>1750166247000</desc></polyline><polyline fill="none" points="141.94482758606318,194.1510307485005 141.19999999995343,189.36404772932292 158.0331034482224,188.86809284615447 155.29586206900422,178.06461318439688 158.6103448275244,178.25869253612473 162.79999999993015,177.8489692514995 156.18965517240576,178.2371281724918 158.62896551727317,187.96243310290447 151.40413793094922,188.30744679560303" stroke="#4DD2FF" stroke-linecap="round" stroke-linejoin="round" stroke-width="0.5"><title>2025-06-16 3.2km</title><desc>1750084948000</desc></polyline><polyline fill="none" points="188.80000000001746,186.99850620845245 188.46903225811548,185.00149379155482 177.8519354838645,185.97983319273044 176.89387096776045,185.9899191155855 172.6958064516075,185.47553574019548 167.20000000001164,185.73777073623933 172.52161290321965,185.46544976492441 176.8851612903527,185.96974726887856 185.89096774198697,185.21330004923948" stroke="#4DD2FF" stroke-linecap="round" stroke-linejoin="round" stroke-width="0.5"><title>2025-06-15 4.6km</title><desc>1749956754000</desc></polyline><polyline fill="none" points="32.79999999998836,210.86869646520063 32.53705692803487,209.13130353479937 23.287647690682206,209.98209302483883 22.320945220184512,210.00000429398642 18.25306122447364,209.54326579025656 11.200000000011642,209.86566968640545 18.39226638022228,209.54326579025656 22.25907626209664,210.00000429398642 24.277551020437386,209.90149226850917 24.656498388794716,209.7761131672596 29.559613318997435,209.33728490394424" stroke="#4DD2FF" stroke-linecap="round" stroke-linejoin="round" stroke-width="0.5"><title>2025-06-14 5.1km</title><desc>1749906363000</desc></polyline><polyline fill="none" points="58.80000000001746,211.2825023057885 58.540311174001545,209.5312315057672 49.58868458276265,210.39802652083017 48.38189533242257,210.40687132332096 44.71570014147437,209.96463009550644 37.81103253184119,210.29188882088056 37.719377652101684,210.08845786646998 37.75756718532648,208.7263426679565 37.20000000001164,208.7174976942042 37.780480905261356,208.74403261275438 37.719377652101684,210.0796130315357 37.83394625180517,210.29188882088056 44.906647807656555,209.9557852479702 48.54992927866988,210.41571612490225 55.80594059411669,209.76119837396982 55.79830268744263,209.4074029396943 58.12786421502824,209.2835741969684" stroke="#4DD2FF" stroke-linecap="round" stroke-linejoin="round" stroke-width="0.5"><title>2025-06-12 5.9km</title><desc>1749735885000</desc></polyline><polyline fill="none" points="84.80000000004657,216.7951636059588 84.1114345114911,213.32834658339561 65.19085239083506,215.00976166465261 63.409563409572,210.13881250722625 63.20000000001164,204.05426366438041 66.73264033265878,203.89824672872783 69.7413721413468,204.08893407507276 69.90602910605958,203.53420665560407 69.59168399171904,203.41285979138047 63.28981288976502,203.2048363940412 63.4245322245406,209.96546655007114 63.94844074838329,211.94159998719988 64.9812889812747,214.4030674181995 73.36382536380552,213.67503146568197 73.52848232846009,214.33373079507146 84.0665280665853,213.31101232068613 84.71018711023498,216.74316187262593" stroke="#4DD2FF" stroke-linecap="round" stroke-linejoin="round" stroke-width="0.5"><title>2025-06-10 5.3km</title><desc>1749559786000</desc></polyline><polyline fill="none" points="89.76714178547263,204.24909050056885 89.24861215311103,202.1474734665535 89.20000000001164,200.5149508225004 103.89707426866516,200.13965621423267 104.56144036009209,202.59782199337496 104.07531882979674,202.57905749345082 103.929482370615,202.9168181999994 104.23735933983698,204.66190531340544 104.15633908478776,205.84405170261743 104.6910727682407,208.2083217118634 106.06841710436856,208.15202992159175 108.11012753192335,216.01394999414333 108.14253563398961,216.3704491542594 107.6240060015698,216.52055385735002 108.09392348094843,216.389212248876 108.25596399098868,216.6894215020002 107.83465866465122,216.76447373889096 107.98049512377474,217.4587054794829 108.95273818454007,219.93540279920853 109.63330832711654,219.8603518546297 110.79999999998836,219.22241759099416 109.56849212310044,219.48509667308826 107.3809452363057,210.76019813120365 107.12168042018311,210.00964991436922 106.538334583689,210.00964991436922 106.10082520637661,208.09573811406153 105.63090772693977,208.28337740548886 104.67486871726578,208.15202992159175 104.14013503381284,205.99416498669598 104.02670667675557,203.2170494190359 103.13548387098126,200.06459720079147 89.24861215311103,200.55248024124012 89.83195798954694,204.36167645036767" stroke="#4DD2FF" stroke-linecap="round" stroke-linejoin="round" stroke-width="0.5"><title>2025-06-08 5.0km</title><desc>1749355299000</desc></polyline><polyline fill="none" points="136.80000000001746,210.8888356619209 136.4201005024952,209.11116433808638 129.45786073218915,209.69474726330373 127.36453697056277,209.99102634569863 126.20157932522125,209.99102634569863 122.51888011486153,209.5421182561986 115.20000000001164,209.86533231123758 122.16999282123288,209.5421182561986 126.16281407038332,210.0000044841363 134.55936826992547,209.24583766396972" stroke="#4DD2FF" stroke-linecap="round" stroke-linejoin="round" stroke-width="0.5"><title>2025-06-07 5.3km</title><desc>1749293029000</desc></polyline><polyline fill="none" points="162.80000000001746,210.85568752919062 162.48109470657073,209.14431247080938 152.62614332014346,210.04504031674878 148.62815988477087,209.58567026240053 141.20000000001164,209.8919172306123 148.59704717321438,209.5676557018014 152.15167446888518,210.04504031674878 159.76651062298333,209.3514806882813" stroke="#4DD2FF" stroke-linecap="round" stroke-linejoin="round" stroke-width="0.5"><title>2025-06-05 5.1km</title><desc>1749128617000</desc></polyline><polyline fill="none" points="167.5023622047156,209.8632804811059 167.20000000001164,207.88280388200656 167.31338582676835,207.7952681616007 175.78897637792397,207.49983457833878 177.3858267716132,213.3536447847291 185.75748031493276,213.24423069852492 188.79999999998836,213.05822649609036 186.296062992129,213.14575792558753 185.83307086618152,206.6463552152636 177.82047244091518,207.1168639085081 176.1007874016068,207.06215370126301 176.25196850392967,207.49983457833878 171.81102362205274,207.63113849350339" stroke="#4DD2FF" stroke-linecap="round" stroke-linejoin="round" stroke-width="0.5"><title>2025-06-03 5.2km</title><desc>1748952979000</desc></polyline><polyline fill="none" points="29.062499097111868,227.56082101978245 28.58866688591661,226.85949760240328 28.25278582482133,226.1234474476223 28.036862285574898,225.92207385148504 27.503051313455217,225.87346634264395 27.095195739297196,225.4012773109498 26.90926158046932,224.78326025598653 26.63335928026936,224.35967229801463 26.303476095257793,223.1999999999971 25.34981379681267,223.60970683729101 24.90597096606507,223.65831595972122 23.754378756595543,224.0888523886315 23.26255291714915,224.72076383748208 23.26255291714915,224.8804767931506 21.271258054941427,227.41500189319777 21.2592623027449,227.56082101978245 20.7134555784869,228.31074303203786 20.239623367320746,228.74819373136415 20.155653102032375,228.67181365271972 19.819772040907992,228.96344622015022 19.597850625548745,228.83151735600404 19.591852749494137,228.9565026020864 19.56186336898827,228.77596828423702 19.873752925748704,228.99816429989733 19.825769917020807,229.24813395230012 19.106024786102353,230.04664198242972 17.87646018745727,230.32438171478134 17.87646018745727,230.19939897519362 17.792489922198,230.35215562582016 17.45660886107362,230.42853382286557 17.162712932622526,230.34521214911365 16.670887093176134,230.386872998708 16.586916827887762,230.31049475502368 16.388986916892463,230.42159035395161 15.795197183906566,230.21328595755767 15.717224794701906,229.30368263951823 15.489305503229843,229.1023184330552 14.367702674266184,229.38700558556593 13.947851347882533,229.64391736174002 14.427681435161503,231.72000675107847 15.183413822611328,234.03904192813206 16.77884886279935,240.27366183226695 17.000770278158598,240.91930817933462 18.884103370743105,244.73057990218513 19.12401841438259,244.8000000000029 19.951725314953364,244.5362032526973 20.515525667491602,244.70281184330088 21.547160355141386,244.48760900383786 21.529166726832045,244.0780275314537 21.805069027032005,244.00166461223125 22.30289274259121,244.2307531136321 22.680758936330676,244.05025920709159 22.83670371468179,244.27934754537273 23.80835964140715,244.49455104149092 24.378157870087307,244.3904204023056 24.953953974792967,243.96001207481459 25.05591786833247,243.14778251434473 25.487764946912648,242.5507529127717 25.373805301176617,241.95371808826167 25.511756451276597,241.66214104311803 25.2178605227964,241.3358509679092 25.031926363997627,240.84988413403335 24.959951850876678,240.12786987621075 25.34981379681267,239.8154574929431 25.943603529798565,240.05844502575928 26.273486714810133,240.0376175568381 26.357456980098505,239.58635416949255 26.219505829998525,239.0309489806241 26.105546184262494,238.98235081150779 26.219505829998525,238.9268100044428 26.08755255601136,238.88515436946182 26.195514325605473,238.94763781239453 26.207510077831103,238.6213347574303 26.051565299450886,238.2603167932466 25.343815920699853,238.2117180752757 25.01393273571739,237.96178126467566 25.151883885788266,237.01756727332395 25.715684238355607,236.05251152983692 26.147531316877576,235.5734500117469 26.34546122790198,235.504020527158 26.77131043036934,234.9138670553366 27.521044941735454,234.19873306609225 28.1868091878423,233.36555779891933 27.99487715290161,232.97673919187218 27.40108741991571,232.96979598232429 27.323115030740155,232.7406696706821 27.551034322183114,232.19215204069042 27.814940870186547,231.94219317677926 28.060853789938847,231.9769097404278 28.162817683449248,231.85193002863525 27.952892020286527,231.37283901206683 28.234792196541093,230.78264980076347 28.49869874457363,230.62989411417948 28.720620159932878,230.72015887941234 28.69063077948522,230.55351614263054 29.35639502556296,230.24800340112415 29.416373786487384,230.06052899591305 29.99816776730586,229.70640926906344 30.052148652117467,229.1995288138569 29.290418388554826,227.74830229589134 29.170460866735084,227.69275234187808" stroke="#4DD2FF" stroke-linecap="round" stroke-linejoin="round" stroke-width="0.5"><title>2025-06-02 11.5km</title><desc>1748829019000</desc></polyline><polyline fill="none" points="58.800000000046566,235.01010417004727 58.404329725250136,232.98989582994545 46.99283930059755,234.05207220497687 42.262781015830114,233.51057190335268 37.20000000001164,233.72925506292086 42.3257285595173,233.48974491135596 46.47127393836854,234.0312453233637 58.38634471275145,233.00030937744305 58.791007493797224,234.9476240983131" stroke="#4DD2FF" stroke-linecap="round" stroke-linejoin="round" stroke-width="0.5"><title>2025-06-01 4.9km</title><desc>1748740054000</desc></polyline><polyline fill="none" points="84.79999999998836,244.40892800624715 84.72178636089666,244.5749758197344 84.56535908265505,244.45421379205072 84.0439348219079,241.5558955880988 67.56692818342708,242.9899663713586 66.04176222084789,238.71790405572392 65.97658418829087,233.34368598276342 65.61158720578533,231.32075562310638 63.20000000001164,223.4250241802656 64.79034399514785,228.70902107811708 65.22051901026862,229.52424952304864 65.92444176226854,232.5586715124664 66.62836451421026,232.75492552017386 65.89837054919917,232.7398290673009 66.04176222084789,238.21974035682797 66.53711526852567,240.25767216749955 67.397465298709,242.38614878656517 67.61907060950762,242.52200795777026 74.6843693421688,241.79742427130986 74.87990343989804,242.3710533154226 80.49824984907173,241.82761532903532" stroke="#4DD2FF" stroke-linecap="round" stroke-linejoin="round" stroke-width="0.5"><title>2025-05-31 5.5km</title><desc>1748696141000</desc></polyline><polyline fill="none" points="109.28519480518298,239.96107695229875 108.79428571433527,236.79383424030675 91.02337662340142,238.38558459952765 89.38233766233316,233.70774233133125 89.20000000001164,228.071409692624 95.23116883111652,228.13638296272256 89.2841558441869,228.0389230476867 89.39636363636237,233.62652857927606 89.83116883120965,235.3644938388752 90.92519480513874,237.86583112829248 106.66233766230289,236.35528798044834 108.0649350649328,236.27407557763217 108.13506493507884,236.87504637821985 110.79999999998836,236.66389473357412" stroke="#4DD2FF" stroke-linecap="round" stroke-linejoin="round" stroke-width="0.5"><title>2025-05-29 5.0km</title><desc>1748526381000</desc></polyline><polyline fill="none" points="128.29350237711333,231.8794324934861 127.81426307442598,227.9550316833047 135.92709984153043,227.55862315728154 136.79999999998836,230.74968886254646 135.8586370839621,227.6379049270763 127.78003169572912,228.01449289247103 128.00253565760795,229.97670259683218 127.69445324881235,228.0343132914859 116.15847860532813,229.10461183918233 117.88716323289555,237.7658852304594 118.55467511882307,239.78745416236052 118.10966719489079,240.06492276806966 118.81141045951517,241.92791601225326 117.87004754354712,239.47034669971617 115.5423137875623,229.14425241308345 119.5816164817661,228.5694633016683 126.89001584780635,228.11359486742003 126.80443740094779,227.53880270973605 116.07290015846957,228.2721579222998 115.47385103005217,226.0720839877613 115.20000000001164,226.30993101850618 115.33692551503191,228.43072084784217 123.43264659267152,227.6379049270763" stroke="#4DD2FF" stroke-linecap="round" stroke-linejoin="round" stroke-width="0.5"><title>2025-05-27 6.0km</title><desc>1748352132000</desc></polyline><polyline fill="none" points="159.92164009113912,235.60963212927163 160.007744874747,235.5526552900119 159.73097949888324,234.17095271491416 152.45512528475956,234.86892959520628 151.6125284738373,234.88317394875048 148.58041002281243,234.5270642391988 141.33530751711805,234.84756305946212 141.20000000001164,232.48295940099342 142.06104783603223,232.39036787073564 143.2480637813569,232.47583697995287 143.25421412303695,234.5270642391988 148.75876993167913,234.30627530792117 152.1045558086771,234.63389734260272 159.71867881552316,233.87893991079181 162.6708428246202,233.77210565316636 162.80000000001746,234.00714080432226 162.7138952164387,234.03562985983444 159.98929384967778,234.14958596572978" stroke="#4DD2FF" stroke-linecap="round" stroke-linejoin="round" stroke-width="0.5"><title>2025-05-25 7.6km</title><desc>1748179850000</desc></polyline><polyline fill="none" points="188.7858453473018,235.19247159729275 188.72922673658468,234.72532334623247 188.45321100918227,234.72532334623247 188.27627785058576,233.84838859889715 188.1347313237202,233.65169164153485 181.30511140238377,234.23358541334164 180.18689384011668,234.43847658415325 175.69986893839086,234.020498041893 167.32031454789103,234.3974983917651 167.20000000001164,232.9714442880504 169.2807339449646,232.80752840270725 169.26657929227804,234.0041066822596 169.54259501968045,234.0368893982086 175.42385321101756,233.7828229999286 179.68440366972936,234.15162879884156 188.53106159897288,233.29927505632077 188.80000000001746,235.10232039174298" stroke="#4DD2FF" stroke-linecap="round" stroke-linejoin="round" stroke-width="0.5"><title>2025-05-24 6.6km</title><desc>1748094255000</desc></polyline><polyline fill="none" points="32.79999999998836,258.96242977261863 32.565028203098336,257.03757022738137 23.670910556043964,257.7934095953169 22.435132957296446,258.0050435829762 21.025302175665274,258.02519917719474 16.96116035457817,257.53138593537733 11.200000000011642,257.7631761315133 16.93505237714271,257.5213080884423 20.973086220794357,258.0352769727979 30.18920225626789,257.2592837074699" stroke="#4DD2FF" stroke-linecap="round" stroke-linejoin="round" stroke-width="0.5"><title>2025-05-18 4.7km</title><desc>1747565909000</desc></polyline><polyline fill="none" points="55.99255654166336,258.77338019321905 55.75757228746079,257.3913227641242 49.49338677356718,257.9212340073791 48.448325221892446,258.10741808998137 47.607328943617176,258.1002571728386 44.74423131978256,257.7278884763 37.243286573153455,258.0716134970353 37.20000000001164,257.8567855561196 41.423532779852394,257.5846692213745 44.28663040368701,257.53454241318104 47.63206412826548,258.0716134970353 55.83796163756051,257.3411958179713 58.602118522743694,257.22661980678095 58.713426853733836,257.2409418183961 58.73197824222734,257.3411958179713 58.80000000001746,257.2982298356728" stroke="#4DD2FF" stroke-linecap="round" stroke-linejoin="round" stroke-width="0.5"><title>2025-05-17 5.7km</title><desc>1747487200000</desc></polyline><polyline fill="none" points="83.61962504984695,257.10703299409215 80.7591543677554,257.2566937149022 79.36338252888527,257.5061277411078 72.95317112084012,257.9950165888731 68.93817311525345,257.47619569153176 63.20000000001164,257.7056745044756 68.8606302353437,257.496150392275 72.79808536096243,257.985039289837 84.23996808932861,256.9873042527179 84.61906661349349,258.922900952959 84.79999999998836,259.01269574727485" stroke="#4DD2FF" stroke-linecap="round" stroke-linejoin="round" stroke-width="0.5"><title>2025-05-11 5.0km</title><desc>1746965499000</desc></polyline><polyline fill="none" points="110.80000000001746,258.77605289639905 110.45136298416764,257.22394710360095 100.65078909610747,258.11214972172456 96.66857962694485,257.65459191647096 89.20000000001164,257.9686024309849 96.48263988521649,257.66356366098626 100.20143472022028,258.11214972172456 110.5133428981353,257.2418906795283" stroke="#4DD2FF" stroke-linecap="round" stroke-linejoin="round" stroke-width="0.5"><title>2025-05-10 5.3km</title><desc>1746870058000</desc></polyline><polyline fill="none" points="136.7528384279576,257.63590713059966 136.69781659389264,257.4811665711022 136.80000000001746,257.59949761129974 136.38340611354215,257.6723166350275 126.75458515287028,258.5188334288905 122.67510917031905,258.03641086306743 115.20000000001164,258.34588978983084 122.63580786026432,258.03641086306743 124.54585152838263,258.1911504605159 126.28296943232999,258.50973114042426 134.16681222707848,257.7997497837059" stroke="#4DD2FF" stroke-linecap="round" stroke-linejoin="round" stroke-width="0.5"><title>2025-05-05 5.4km</title><desc>1746434825000</desc></polyline></svg>