<?xml version="1.0" encoding="utf-8" ?>
<svg baseProfile="full" height="300mm" version="1.1" viewBox="0,0,200,300" width="200mm" xmlns="http://www.w3.org/2000/svg" xmlns:ev="http://www.w3.org/2001/xml-events" xmlns:xlink="http://www.w3.org/1999/xlink"><defs /><rect fill="#222222" height="300" width="200" x="0" y="0" /><text fill="#FFFFFF" style="font-size:12px; font-family:Arial; font-weight:bold;" x="10" y="20">Over 3km Runs</text><text fill="#FFFFFF" style="font-size:4px; font-family:Arial" x="10" y="280">Runner</text><text fill="#FFFFFF" style="font-size:9px; font-family:Arial" x="10" y="290">tang-hi</text><text fill="#FFFFFF" style="font-size:4px; font-family:Arial" x="65" y="280">SPECIAL TRACKS</text><rect fill="yellow" height="2.6" width="2.6" x="65" y="283" /><text fill="#FFFFFF" style="font-size:3px; font-family:Arial" x="70" y="285.5">Over 20.0 km</text><rect fill="red" height="2.6" width="2.6" x="65" y="287" /><text fill="#FFFFFF" style="font-size:3px; font-family:Arial" x="70" y="289.5">Over 40.0 km</text><text fill="#FFFFFF" style="font-size:4px; font-family:Arial" x="120" y="280">STATISTICS</text><text fill="#FFFFFF" style="font-size:3px; font-family:Arial" x="120" y="285">Number: 73</text><text fill="#FFFFFF" style="font-size:3px; font-family:Arial" x="120" y="290">Weekly: 3.6</text><text fill="#FFFFFF" style="font-size:3px; font-family:Arial" x="141" y="285">Total: 384.6 km</text><text fill="#FFFFFF" style="font-size:3px; font-family:Arial" x="141" y="290">Avg: 5.3 km</text><text fill="#FFFFFF" style="font-size:3px; font-family:Arial" x="167" y="285">Min: 3.2 km</text><text fill="#FFFFFF" style="font-size:3px; font-family:Arial" x="167" y="290">Max: 11.5 km</text><polyline fill="none" points="21.95240899643977,31.125 21.822065058950102,31.284204328650958 21.829306388826808,31.85398572312988 21.937926336715464,31.92101856953377 21.87275436797063,32.742166515934514 21.438274576386902,35.59936248631857 21.22827601042809,36.353444619664515 21.264482659753412,36.93156958617328 20.75758956951904,40.37509956544818 20.634486961906077,40.551042492508714 20.6851762708975,40.95319634514453 20.19276584041654,44.51384805815178 20.228972489741864,45.86266657283704 20.830002868111478,51.375 21.19206936113187,51.36662287297804 21.271723989601014,51.26609728218318 20.960346805601148,48.01570385150262 20.583797652856447,45.728623483664705 20.583797652856447,44.3462914233387 21.74241043048096,36.16911406820873 21.901719687419245,35.88423876924935 21.83654771867441,35.64963484303007 22.30723415958346,32.549448854675575" stroke="#4DD2FF" stroke-linecap="round" stroke-linejoin="round" stroke-width="0.5"><title>2025-09-18 5.2km</title><desc>1758195038000</desc></polyline><polyline fill="none" points="43.304462621046696,51.20163047154347 43.288691386405844,51.375 43.47006058492116,51.338501179729064 43.54891675818362,50.68151987792953 43.72240033937851,50.5628977417 44.5188476893527,45.10611006434192 44.6371319492755,43.53653781222965 43.793370895291446,36.41836572730972 43.34389070767793,35.49661242059665 43.4227468809695,35.32321222577593 43.801256512640975,35.4053492019375 43.643544166116044,33.64395090199832 43.241377682454186,33.169371354961186 43.280805769056315,32.16544481275196 42.862868050753605,31.125 43.304462621046696,32.201951429233304 43.280805769056315,33.17849790836772 43.643544166116044,33.61657138094597 43.8091421299614,35.414475527984905 43.4227468809695,35.34146489365958 43.367547559639206,35.48748610291659 43.74605719131068,36.153704855561955 43.88799830322387,36.829044845319004 44.14033805768122,39.68549427929247 44.62924633192597,42.89775055073551 44.6371319492755,44.32132736835774 44.23496546558454,47.250539425636816 44.06936750173918,48.254297273626435 43.872227068583015,48.436797494963685 43.66720101807732,50.30740337759198 43.48583181956201,50.76364280349662" stroke="#4DD2FF" stroke-linecap="round" stroke-linejoin="round" stroke-width="0.5"><title>2025-09-16 5.1km</title><desc>1758026219000</desc></polyline><polyline fill="none" points="67.09828871159698,31.125 66.91703043988673,31.208895909730927 66.89527944728616,31.745827713326435 67.0257854029478,31.89683915396745 66.975033086841,32.71900770774664 66.54726356561878,35.59653317951597 66.40225694823312,35.84820702356228 66.24274966915254,38.04612599574466 65.75697750094696,40.579532545372786 65.79322915527155,41.032517579624255 65.29295632537105,44.907954659742245 65.9744874270109,51.375 66.37325562478509,51.29112457171868 65.66997353051556,44.597590855402814 66.08324239001377,41.55260844410077 66.28625165432459,40.81441398437164 66.68501985209878,37.34145605500089 66.89527944728616,36.07471282740153 67.01853507204214,35.881763478137145 66.96778275593533,35.453917660765 67.20704367462895,33.85157343174069" stroke="#4DD2FF" stroke-linecap="round" stroke-linejoin="round" stroke-width="0.5"><title>2025-09-14 5.0km</title><desc>1757842188000</desc></polyline><polyline fill="none" points="89.30331754492363,31.125 89.42708594314172,32.22017639342812 88.93201235029846,35.53931495195138 88.72087802391616,36.28905120570562 88.77912197602564,36.600737316366576 88.40781678140047,39.38901229827752 88.13843850290868,40.56831489592878 88.17484097302076,41.01476078923588 87.67248688614927,44.74628059120005 87.92002368255635,47.980690157237404 88.34957282929099,51.375 88.77912197602564,51.28235318775114 88.0365115867462,44.78839610947034 89.82751311385073,32.43078557986155" stroke="#4DD2FF" stroke-linecap="round" stroke-linejoin="round" stroke-width="0.5"><title>2025-09-13 5.1km</title><desc>1757760467000</desc></polyline><polyline fill="none" points="112.02013024414191,31.125 111.9838033458218,32.71390890052862 111.5769420847646,35.49652769889508 111.41710373217938,35.832789494372264 111.23546924063703,37.841925249871565 110.76321956259198,40.607559537980705 110.80681184056448,40.943800566659775 110.29823526425753,44.54989971652685 110.31276602356229,45.482920766749885 110.95938481349731,51.375 111.38804221356986,51.31616533287888 111.09742702706717,48.105410100804875 110.69783114566235,45.74349233455723 110.66876962699462,44.78525736965821 111.83849575259956,36.32877314853977 112.01286486448953,35.84960254827456 111.95474182721227,35.6310325810482 112.20176473571337,33.907672233035555" stroke="#4DD2FF" stroke-linecap="round" stroke-linejoin="round" stroke-width="0.5"><title>2025-09-11 5.0km</title><desc>1757592265000</desc></polyline><polyline fill="none" points="133.34498562806402,51.29309911203018 133.50227276279475,51.2111981491762 133.52586583301309,50.61968897128099 133.70674603799125,50.49228648313874 133.8168470323144,49.846171074292215 134.06064209114993,47.543778263287095 134.5482322088792,44.80449072959891 134.61114706276567,42.91151217214065 133.7853896053275,36.33128013250098 133.33712127129547,35.48482513192721 133.41576483866083,35.33919765814062 133.8011183188064,35.36650282752089 133.62810247056768,33.64626088835212 133.24274899042211,33.14565517168376 133.29779948762734,32.23545578595076 132.88885293726344,31.125 133.2899351308588,32.11712918592093 133.25061334719067,33.19116489798762 133.62810247056768,33.60985329427058 133.79325396209606,35.39380798858474 133.4079004819505,35.33919765814062 133.33712127129547,35.45751999865024 133.60450940034934,35.81248608169699 133.82471138902474,36.48600760064437 134.16287872876273,40.10837425507634 134.61114706276567,43.03892544667178 134.5482322088792,44.91369980993477 133.60450940034934,51.320399416363216 133.43149355216883,51.375" stroke="#4DD2FF" stroke-linecap="round" stroke-linejoin="round" stroke-width="0.5"><title>2025-09-09 5.2km</title><desc>1757417515000</desc></polyline><polyline fill="none" points="156.95837379756267,31.125 156.90025081930798,31.76392999869131 157.06735438181204,31.805964694038266 156.96563916985178,32.840011475331266 156.580574438849,35.404055467231956 156.3916747594776,35.91685473152029 156.15191747416975,38.51442841629614 155.7305258817505,40.65799578183214 155.76685274316696,41.10351457922661 155.28007280020392,44.54989971873147 155.2655420556548,45.57538174155343 155.54889157469734,48.206273417396005 155.93395630567102,51.32457028789213 156.35534789809026,51.375 156.34081715351203,51.047206322349666 156.56604369429988,50.83708148743608 156.56604369429988,50.719411346937704 156.21730582468444,50.467260482750135 155.6578721588885,44.76844613310095 156.76220874596038,36.79953454700444 157.00196603129734,35.96729383175989 156.92931230846443,35.64784567767492 157.2344579443452,33.43689438502042" stroke="#4DD2FF" stroke-linecap="round" stroke-linejoin="round" stroke-width="0.5"><title>2025-09-07 5.0km</title><desc>1757247375000</desc></polyline><polyline fill="none" points="178.21637251848006,51.31048738097161 178.39955807186197,51.375 178.44734560747747,50.72987174498121 178.678318696504,50.37965734197496 179.44291926699225,45.26452969904494 179.58628187398426,43.31056694576546 178.7181416428648,36.20405488889082 178.25619546489906,35.328376073121035 178.33584135762067,35.20854568246432 178.7181416428648,35.27306975865213 178.55088526807958,33.47559616928629 178.17654957211926,32.9870459051308 178.21637251848006,32.06524578265817 177.91371812598663,31.125 178.21637251848006,31.97306525480235 178.18451416140306,32.97782795030071 178.55884985736338,33.42028872438095 178.7420354107162,35.25463431298704 178.31991217911127,35.180892492884595 178.28008923269226,35.30994063871913 178.57477903587278,35.752390029687376 178.7659291785385,36.425277672366065 179.05265439246432,39.54999182513711 179.57831728472956,43.126228663481015 179.57831728472956,44.22303592451499 179.02876062467112,48.14931283444457 178.6305311608594,50.656142509345955 178.44734560747747,50.91419457180018" stroke="#4DD2FF" stroke-linecap="round" stroke-linejoin="round" stroke-width="0.5"><title>2025-09-04 5.0km</title><desc>1756985562000</desc></polyline><polyline fill="none" points="21.848494255158585,55.34234004513564 21.936078780243406,55.29166666666424 21.987169753265334,55.40990450168465 21.957974911580095,55.91663617525046 22.03826072625816,55.91663617525046 21.979871042858576,56.82874540265766 21.585740679729497,59.396110233043146 21.32298710430041,60.426411981090496 21.35948065642151,60.83177310294559 20.731791559577687,64.69949440678465 20.768285111756995,65.05416726664407 20.27197280258406,68.55014736134763 20.315765065170126,70.26430612015247 20.914259320299607,75.53322315725381 21.25729871043586,75.54166666666424 21.330285814707167,75.44034449707397 20.987246424600016,72.45128496325196 21.074830949743045,72.25707681365748 20.8412722160283,71.15937005072192 20.629609613592038,68.84569449588889 21.03103868715698,65.69595240539638 21.242701289593242,64.89372020792507 21.63683165272232,61.38914141810528 21.85579296553624,60.113944767275825 21.979871042858576,59.94504308158503 21.906883938558167,59.71702526156878 22.22802719741594,57.32702306796273" stroke="#4DD2FF" stroke-linecap="round" stroke-linejoin="round" stroke-width="0.5"><title>2025-09-02 5.1km</title><desc>1756811867000</desc></polyline><polyline fill="none" points="44.337818775937194,55.29166666666424 44.30842783715343,56.77955383502558 43.91899789805757,59.49169152318791 43.67652265296783,60.418389268772444 43.68387038767105,61.14103635301581 43.088703877001535,64.76267950912734 42.625796590931714,68.85171735571203 42.65518752968637,70.09284109689906 43.23565857100766,74.84464479734015 43.80878187753842,75.54166666666424 43.67652265296783,75.4736647884929 43.57365436718101,74.66613826342655 43.35322232617182,72.55803231524624 43.41200420376845,72.3455186899082 43.02257426470169,69.8548187917404 43.007878795295255,68.65619618459459 44.19086408196017,60.290862664995075 44.35251424537273,59.950790771486936 44.440687061753124,58.47996391857305 44.87420340903918,56.13338894332992" stroke="#4DD2FF" stroke-linecap="round" stroke-linejoin="round" stroke-width="0.5"><title>2025-08-31 5.1km</title><desc>1756640573000</desc></polyline><polyline fill="none" points="66.90160368470242,55.29166666666424 66.96712807755102,56.92600150965882 66.51573781555635,59.74810181395151 66.36284756549867,60.0008225285419 66.2900426845008,60.506261647096835 66.2245182916522,61.7951174552436 65.81681095820386,64.5833578842794 65.70760363675072,64.76867567809677 65.75128656532615,65.17300397271174 65.25621337475604,68.64340743634966 65.28533532712026,70.07532771444676 65.8604938868084,75.07000909079943 66.41381098216516,75.54166666666424 66.29732317262096,75.35637293877517 66.01338413686608,72.13051126855134 65.65664022008423,69.98267479737842 65.65664022008423,68.39071305656398 66.21723780356115,64.98768708235002 66.63222562510055,61.43289202971209 66.96712807755102,60.04294257274887 66.91616466088453,59.72282970014203 67.24378662521485,57.27982233653165" stroke="#4DD2FF" stroke-linecap="round" stroke-linejoin="round" stroke-width="0.5"><title>2025-08-30 5.0km</title><desc>1756550382000</desc></polyline><polyline fill="none" points="88.34068585943896,75.53255838355108 88.61618576172623,75.54166666666424 89.49778544920264,69.41158282704419 89.62372826164938,67.36205562591203 89.10421416015015,63.700116996675206 88.88381423827377,60.930790391947085 88.7500000000291,60.32043387203157 88.34855728517869,59.691853408330644 88.40365726567688,59.54609498975333 88.81297140626702,59.60986432705249 88.61618576172623,57.76053511592181 88.25410017580725,57.38702064138488 88.27771445317194,56.28468835580861 87.87627173835062,55.29166666666424 88.28558587896987,56.3302395453793 88.2383573242696,57.34146998915821 88.61618576172623,57.7878653821972 88.79722855470027,59.59164452103141 88.40365726567688,59.55520489785704 88.34855728517869,59.67363361897878 88.67915716799325,60.192896163556725 88.8916856640717,61.067436804391036 89.1199570117169,63.93696332514082 89.62372826164938,67.23452793990145 89.52927115233615,69.16564203775488 88.72638572266442,74.6763756391083" stroke="#4DD2FF" stroke-linecap="round" stroke-linejoin="round" stroke-width="0.5"><title>2025-08-28 5.0km</title><desc>1756381580000</desc></polyline><polyline fill="none" points="111.93515557117644,55.29166666666424 112.10191301180748,56.15579045438062 112.07291171781253,56.944400387161295 111.62339166051243,59.76319984791189 111.46388454339467,60.05681925812678 111.4421335728548,60.979616322161746 110.80410510447109,64.73781057934684 110.85485736903502,65.2159614245611 110.36908569416846,68.37839819553483 110.33283407666022,69.66179290353466 110.44883925272734,69.79600296322315 110.4053373116767,70.3412290884662 110.95636189804645,75.09712592683354 111.56538907243521,75.54166666666424 111.36963033780921,75.36552816905169 110.69535025188816,69.81277920534922 110.6663489578932,68.73070461072348 111.16662127969903,65.19918424878415 111.28987677930854,65.02302369734389 111.40588195534656,63.546615733714134 111.91340460069478,60.64405494652601 111.87715298315743,60.24976858780428 112.01490912970621,60.06520836878917 111.9569065416872,59.8135346781055 112.16716592333978,58.37059071227122" stroke="#4DD2FF" stroke-linecap="round" stroke-linejoin="round" stroke-width="0.5"><title>2025-08-26 5.0km</title><desc>1756206850000</desc></polyline><polyline fill="none" points="134.38704296731157,55.29166666666424 134.40160394940176,55.98247192263807 134.518091806327,56.00774517652462 134.45256738681928,56.86703122474137 134.04485988774104,59.66386140391114 133.90653055769508,59.975550491049944 133.73907926341053,61.870931878103875 133.2367253806442,64.72655803304224 133.1566399790463,66.04904184800398 132.7853349352372,68.53390663204482 132.8508593547449,70.41224653981044 133.4114571659593,75.423752524046 133.43329863913823,75.54166666666424 133.87012810242595,75.49113205462345 133.5570669870649,72.22316178620531 133.1712009611656,69.99952078920614 133.13479850586737,68.87083171908307 133.60074993339367,65.42570815486397 133.76820122767822,64.9455695485376 134.3287990388635,60.35463023427292 134.49625033311895,60.01767054807715 134.4380064047,59.74810181327484 134.7146650647628,57.65049015438126" stroke="#4DD2FF" stroke-linecap="round" stroke-linejoin="round" stroke-width="0.5"><title>2025-08-24 5.0km</title><desc>1756042259000</desc></polyline><polyline fill="none" points="155.99184401956154,75.54166666666424 156.21773050245247,75.21493861913768 157.00026581811835,69.88443976580311 157.1454785571259,67.54116287884244 156.71790771454107,64.84305289091571 156.29033687195624,60.72571497303579 155.82242915747338,59.773379234044114 155.9353723989043,59.642665714643954 156.28226949757664,59.68001245346386 156.10478726102156,57.85000438729912 155.71755329036387,57.41117050054163 155.78209228545893,56.46813739186473 155.3464540684945,55.29166666666424 155.7578901623201,56.2907340413949 155.73368803912308,57.420507413567975 156.12092200980987,57.878014989699295 156.30647162074456,59.689349135776865 156.20966312810197,59.78271590686927 155.87083340372192,59.661339085949294 155.87083340372192,59.79205257874128 156.18546100493404,60.361587768515164 156.36294324146002,61.05249456817546 156.57269497556263,63.59199921593245 157.1535459315055,67.63452166723437 157.02446794128628,69.76307629541407 156.1370567585982,75.46698607254802" stroke="#4DD2FF" stroke-linecap="round" stroke-linejoin="round" stroke-width="0.5"><title>2025-08-23 5.0km</title><desc>1755956696000</desc></polyline><polyline fill="none" points="179.4649038228672,55.29166666666424 179.47223616973497,55.8516405064438 179.56755667948164,55.953453528411046 179.53089494499727,56.80189055030496 179.0909541308938,59.53379919373401 178.92964249904617,59.88164450121258 178.55569280710188,63.36850155518914 178.36505178769585,64.52227134897112 178.24040189033258,64.64104086413136 178.29906066559488,65.05673283739452 177.77113168869982,69.0523603788024 178.44570760359056,75.40594777392835 178.4677046443103,75.50773696413671 178.8636513769743,75.54166666666424 178.13774903371814,68.88269855112594 179.23026872202172,60.94213954539737 179.36958331314963,60.076776600304584 179.50156555735157,59.915580551169114 179.44290678217658,59.59318751952378 179.72886831130018,57.387307069206145" stroke="#4DD2FF" stroke-linecap="round" stroke-linejoin="round" stroke-width="0.5"><title>2025-08-21 5.0km</title><desc>1755781186000</desc></polyline><polyline fill="none" points="21.81447306307382,79.45833333333576 21.83632363329525,81.02592555844603 21.399312229594216,83.84077487132163 21.24635823830613,84.1357385817173 21.18080652775825,84.63296074802929 21.260925285081612,84.87735699157201 20.58355760941049,88.87186940470565 20.627258749795146,89.29322026039154 20.146546205709456,92.7482165717156 20.175680299289525,94.20601332388469 20.78749626444187,99.70833333333576 21.20994062133832,99.63249985517905 20.91859968553763,96.43900493557157 20.539856469025835,94.16388082916092 20.518005898833508,92.55440351409197 20.991434919502353,89.33535522827151 21.11525481721037,89.14996120954311 21.617817931459285,84.96163139137934 21.85817420348758,84.15259361920471 21.86545772687532,83.22556147172872 22.35345379431965,80.12414225262182" stroke="#4DD2FF" stroke-linecap="round" stroke-linejoin="round" stroke-width="0.5"><title>2025-08-19 5.3km</title><desc>1755607955000</desc></polyline><polyline fill="none" points="43.530586979264626,99.60859090302256 43.88321504832129,99.70833333333576 43.88321504832129,99.03733665461186 44.016430096613476,98.73810677925212 44.180989862186834,96.67067295093875 44.65899680019356,93.54222804412711 44.61197972431546,91.49281046255783 44.07911953111761,88.05584963107685 43.83619797247229,85.22637879832473 43.687310565495864,84.48272092785191 43.30333777927444,83.83881703135557 43.38953575165942,83.68464216916618 43.76567235865514,83.76626418823435 43.60111259308178,82.07032466597593 43.193631268892204,81.517096776377 43.22497598614427,80.44690849535982 42.84100319983554,79.45833333333576 43.25632070339634,80.49225571697025 43.209303627489135,81.508027438118 43.57760405514273,81.90707744893007 43.76567235865514,83.7571950786878 43.37386339306249,83.70278040208359 43.33468249649741,83.82067882610863 43.78918089659419,84.86361963608215 44.02426627592649,87.5933461122404 44.604143545002444,91.60163027876115 44.59630736568943,92.53566157512978 44.016430096613476,96.55279150843126 43.8440341517271,96.63440175443975 43.734327641373966,96.90643536871357 43.530586979264626,98.23938809048559" stroke="#4DD2FF" stroke-linecap="round" stroke-linejoin="round" stroke-width="0.5"><title>2025-08-17 5.0km</title><desc>1755429603000</desc></polyline><polyline fill="none" points="65.95875721646007,99.6627919085513 65.85642867092974,99.70833333333576 65.97450006962754,99.58992558075988 66.108314321551,97.5860783536773 66.21851429366507,96.88472124037798 66.58059991640039,96.5841379403355 66.57272848978755,95.89188165750966 67.0607569378044,93.14102095706039 67.131599777058,91.90219518590311 66.27361427969299,84.71484599495307 65.82494296459481,83.8403002854975 65.91152865701588,83.74009137779649 66.28935713288956,83.76742109101906 66.12405717468937,82.00008247398364 65.74622869878658,81.52635691941396 65.76984297856688,80.49690621200716 65.368400222942,79.45833333333576 65.79345725831809,80.51512668136274 65.73835727220285,81.48080625330476 66.11618574807653,81.92720178250602 66.30509998605703,83.75831118753558 65.90365723043215,83.7127616562575 65.84855724434601,83.84941018062818 66.3208428391954,84.8241636083767 67.131599777058,91.47406759199657 67.12372835044516,92.55804625681048 66.59634276953875,96.4384002198567 66.2027714404976,98.95234268593049 66.0374714822974,99.07985962773091 65.98237149624038,99.46240936461254" stroke="#4DD2FF" stroke-linecap="round" stroke-linejoin="round" stroke-width="0.5"><title>2025-08-16 5.1km</title><desc>1755350047000</desc></polyline><polyline fill="none" points="88.6318754698732,99.653659023199 88.34837659751065,99.70833333333576 88.4822510649974,99.57164749551885 88.8602495615196,96.74676020057814 89.07287371577695,96.63740793552279 89.02562390369712,96.33668851904804 89.59262164845131,92.99225611910515 89.63199649186572,91.5432671094386 88.78149987471988,84.73543920517841 88.35625156617607,83.87872811762645 88.4428762216121,83.71467612416745 88.78937484341441,83.76936015534739 88.61612553251325,81.97388369544205 88.24600200468558,81.55463020502066 88.30112678543082,80.65231712734385 87.86012853949796,79.45833333333576 88.26962691074004,80.41534450981271 88.26175194204552,81.50905905527179 88.61612553251325,81.93742694805405 88.82087471810519,83.76024615245842 88.41137634689221,83.72379013168393 88.37200150350691,83.85138613957679 88.7106251566147,84.39822411601926 88.85237459282507,84.94505875629693 89.10437359049683,87.87056741667038 89.60049661714584,91.16962463602977 89.63987146053114,92.49103615496279 89.04137384105707,96.32757579369354 89.08862365313689,96.60095715088391 88.83662465549423,98.00430166377191 88.6318754698732,98.46904078497028" stroke="#4DD2FF" stroke-linecap="round" stroke-linejoin="round" stroke-width="0.5"><title>2025-08-14 4.9km</title><desc>1755170321000</desc></polyline><polyline fill="none" points="112.07716790036648,79.4752739081232 111.9014862223994,79.45833333333576 111.9527267118101,80.99144141133002 111.52816265673027,83.87123671678273 111.37444118855637,84.17615039582597 111.37444118855637,84.97230863373989 110.94255706356489,88.012885561453 110.8034757352143,88.84288451120665 110.69367468648124,88.91063916280109 110.75955531571526,89.33410448784707 110.2544704915781,92.81490797465085 110.29839091107715,94.29695781810005 110.91327678391826,99.64058745309012 111.33052076905733,99.70833333333576 110.61315391742392,93.00122425946756 111.80632531348965,84.54882115576766 111.97468692154507,84.20155981872085 111.9014862223994,83.90511606953805 112.24552950839279,81.4996478115354" stroke="#4DD2FF" stroke-linecap="round" stroke-linejoin="round" stroke-width="0.5"><title>2025-08-12 5.0km</title><desc>1754999139000</desc></polyline><polyline fill="none" points="134.2960307870817,79.52618073002668 134.3913113271119,79.45833333333576 134.39864059945103,80.89159786521486 133.9442257162009,83.80893603011646 133.79031099771964,84.09727205635863 133.6363962792093,86.05623457207548 133.1526643067482,88.89707257127884 132.66160306197708,92.99279721821222 132.70557869583718,94.24776166262018 133.21862775753834,98.49584592646715 133.75366463616956,99.70833333333576 133.03539594978793,93.04367452194856 134.1201282516704,85.21668483706162 134.3839820548019,84.13119387629558 134.31801860401174,83.89374084709561 134.62584804103244,81.60398054704274 134.83839693805203,80.73894364236912" stroke="#4DD2FF" stroke-linecap="round" stroke-linejoin="round" stroke-width="0.5"><title>2025-08-10 5.0km</title><desc>1754830447000</desc></polyline><polyline fill="none" points="155.96204533151467,99.70833333333576 157.05863982258597,93.18099160587735 157.12964234358515,91.64722570775484 156.5458438375499,87.60270550670248 156.2697229225305,84.6536515708649 155.8279294584936,83.86843822100491 155.8910428105155,83.70409037181525 156.2933904295205,83.7862643340195 156.11982871152577,81.97841979337682 155.74114859948168,81.53101830344531 155.7648161064717,80.50837795469852 155.36246848743758,79.45833333333576 155.78059444451355,80.54490102484851 155.74903776848805,81.54014896839362 156.11982871152577,81.98755041280674 156.30916876750416,83.75887302165211 155.90682114849915,83.74061214207904 155.85948613449,83.84104693371046 156.30916876750416,84.808867350519 156.6720705415355,88.39701617224637 157.09808566755964,91.0081488532669 157.13753151256242,92.45975971372536 156.22238790852134,98.94150938147504 155.96993450049195,99.20624696176674" stroke="#4DD2FF" stroke-linecap="round" stroke-linejoin="round" stroke-width="0.5"><title>2025-08-09 5.0km</title><desc>1754735080000</desc></polyline><polyline fill="none" points="179.3580746242951,79.45833333333576 179.4020318260591,80.8825207617192 179.1163100146514,83.12048046174459 178.75,84.66328136152879 178.66941179678543,86.06194983252499 178.17855637715547,88.92702780850959 178.20786117835087,89.36780030540831 177.70967955846572,92.72437603594153 177.69502715786803,93.87710827901901 178.32508038304513,99.23371396299626 178.81593580261688,99.70833333333576 178.0979681739409,94.18224061985529 178.1345991754206,92.37685804544162 179.18224581726827,85.17189079076343 179.31411742253113,84.3496373348462 179.4386628275097,84.18857643058436 179.3800532251771,83.84102289372095 179.80497284216108,80.96729305631743" stroke="#4DD2FF" stroke-linecap="round" stroke-linejoin="round" stroke-width="0.5"><title>2025-08-07 5.0km</title><desc>1754570205000</desc></polyline><polyline fill="none" points="21.600949927582406,103.625 21.64623378921533,104.20139195431693 21.79717999463901,104.26252420761011 21.744348822772736,104.67298249636224 22.15190357741085,104.73411441423377 22.19718743901467,105.10963809853274 21.782085374114104,107.18808835509844 21.66132840976934,108.29715679342917 21.744348822772736,108.59407032508898 21.616044548136415,108.71632854002382 21.37453061947599,110.13975067385763 20.310359871189576,117.87646739178308 20.966975864837877,123.875 20.302812560956227,117.7367585894317 20.770745797781274,114.20030393260095 20.944333934021415,113.72003343998949 21.35943599892198,110.13975067385763 21.570760686532594,108.82112115729251 21.706612271402264,108.58533758878184 21.653781099506887,108.24476018140558 22.068883164407453,105.18823587136285" stroke="#4DD2FF" stroke-linecap="round" stroke-linejoin="round" stroke-width="0.5"><title>2025-08-05 5.0km</title><desc>1754406000000</desc></polyline><polyline fill="none" points="43.443363468686584,123.875 43.79380521870917,120.97188671442564 44.0088490198832,120.80599171976792 44.34336159945815,118.55716296354512 44.59026374149835,116.75068635734351 44.606192911975086,115.62622866457968 44.024778190330835,111.63521296084218 43.80176980397664,108.98058328476327 43.60265517322114,108.28926071561727 43.300000934599666,107.85602921845566 43.37168220162857,107.71776341115765 43.7619468778139,107.75463431374374 43.57876141756424,105.93872454357188 43.20442591185565,105.5423536147864 43.23628425280913,104.41775689327187 42.89380708799581,103.625 43.24424883798929,104.53759163432551 43.20442591185565,105.45017408059357 43.594690588040976,105.92950663466763 43.76991146302316,107.7454165895033 43.66637185509899,107.83759378964896 43.284071764181135,107.76385203702375 43.79380521870917,108.84231919270678 44.120353213045746,112.33572727406863 44.606192911975086,115.65387943080714 44.59822832673672,116.79677039155649 43.66637185509899,123.17457482402824 43.61858434372698,123.33124934621446 43.411505127791315,123.34046548612969 43.331859275494935,123.69067810969864 43.108850889111636,123.67224590006663" stroke="#4DD2FF" stroke-linecap="round" stroke-linejoin="round" stroke-width="0.5"><title>2025-08-03 5.0km</title><desc>1754221111000</desc></polyline><polyline fill="none" points="76.375,112.65439908297776 76.31274019983539,112.91255153872044 76.15190238278592,112.9275603330334 72.99221752496669,112.86452334566638 72.90661029977491,112.81049153515414 72.78209069946024,112.86152158100413 72.37999615680019,112.85851981604355 72.34627209836617,112.82550038131922 71.6276902382815,112.8675251100176 71.27488470406388,112.81349330499688 70.13604919292266,112.81049153515414 69.6431591083674,112.73244541216627 69.30851268253173,112.64539372403124 69.28775941581989,112.61237405109387 68.82340507300978,112.59736509664071 67.80390084549435,112.41725704845157 66.3044773251313,112.40524980619193 63.175922367401654,112.79548268136205 62.753074558029766,112.99059718589888 62.2990968485683,113.12867744119649 61.07984242889506,113.8700973412233 60.43389700229454,114.19727672427507 60.036990776323364,114.31133840978873 59.80351652574609,114.31434002714195 59.50778247501876,114.2423011264309 59.19388931589492,114.37137069898199 59.0875288239622,114.16125715317139 58.9604150653322,114.24530275079815 58.85664873174392,114.05019653247291 57.09002690236957,115.09475019380807 56.95513066870626,114.75557446153834 56.41035741736414,113.714010487427 56.35847425056272,113.67799032713447 56.125,113.79205401740182 56.27805534203071,113.67498864513436 56.3532859338884,113.66598359728596 56.37663335894467,113.59094142514004 56.470023059184314,113.59694480592407 56.594542659498984,113.512897363913 56.630860876248335,113.55492111480999 56.72425057647342,113.49488716666565 56.693120676398394,113.55191942029705" stroke="#4DD2FF" stroke-linecap="round" stroke-linejoin="round" stroke-width="0.5"><title>2025-08-02 8.3km</title><desc>1754134728000</desc></polyline><polyline fill="none" points="89.29127072985284,103.625 89.18229004601017,103.65022101454815 89.1169016356871,104.33118550072686 89.66180505498778,104.33118550072686 89.66180505498778,104.87763443012955 87.84546032396611,116.89859801491548 87.85272570286179,118.16784260925488 88.60832511098124,123.875 87.88905259751482,118.32754750423919 87.83819494501222,117.09192791819805 88.91347102579311,109.40881805781828 89.18229004601017,108.36641559893178 89.10963625676231,108.1310325812301 89.45110906616901,105.65106366897817" stroke="#4DD2FF" stroke-linecap="round" stroke-linejoin="round" stroke-width="0.5"><title>2025-07-31 5.0km</title><desc>1753965181000</desc></polyline><polyline fill="none" points="110.84906562248943,123.875 110.93639786314452,123.14005211703625 111.15869811206358,122.87363203401037 111.96850616164738,117.29700387296907 112.05583840227337,115.23898499109782 111.64299508286058,112.73989906287898 111.20633387970156,108.61441852159624 110.78555126566789,107.8058390143342 110.87288350632298,107.68638915557676 111.22221246888512,107.73233142762183 111.07136587140849,105.90381096399506 110.66646184661658,105.46275526282261 110.71409761425457,104.44280570784758 110.39652583008865,103.625 110.72203690884635,104.46118327917793 110.69027973039192,105.48113262667903 111.07136587140849,105.95894277524349 111.25396964728134,107.7139545216196 111.15075881744269,107.8058390143342 110.83318703327677,107.67720069834468 110.80142985488055,107.81502745848411 111.27778753111488,108.87169230205473 111.5556628422346,111.95892053865828 112.10347416991135,115.90049617050681 111.53184495840105,120.65955890105397 111.11106234442559,123.29622904204734 110.96021574694896,123.36053710925626" stroke="#4DD2FF" stroke-linecap="round" stroke-linejoin="round" stroke-width="0.5"><title>2025-07-29 5.0km</title><desc>1753797916000</desc></polyline><polyline fill="none" points="134.61854557064362,103.625 134.60394816609914,105.17052414581121 134.26820786148892,107.5352049226858 134.00545457960106,108.32060187045136 133.83028572503827,110.48251643420372 133.3412726726383,113.06660617562011 133.3996622908453,113.52261367518076 132.91794794073212,116.72304038426228 132.94714274985017,118.42031432606018 133.54563633631915,123.875 132.9836362611968,119.13805656584736 132.88145442938549,117.33946726474096 133.3485713749542,113.20171976953861 133.99815587734338,109.07221135589498 133.9324675568496,108.86108578227868 134.24631175468676,107.57743075377948 134.60394816609914,104.72291628389212" stroke="#4DD2FF" stroke-linecap="round" stroke-linejoin="round" stroke-width="0.5"><title>2025-07-27 5.0km</title><desc>1753616848000</desc></polyline><polyline fill="none" points="156.82837991471752,103.625 156.8499344456941,105.40414165232505 156.4547680443502,108.21410901376657 156.29670148377772,108.51338979237335 156.07397133027553,110.95747518374264 155.67162008525338,113.18535337670619 155.7003594598791,113.60930840333458 155.17586587264668,117.06736935954541 155.82968664579676,123.875 156.26077726547373,123.80850573495991 155.95182898803614,120.47541150260076 155.5997716486454,118.13967108770157 155.58540196131798,116.89280728365702 156.57691038653138,109.9017057557503 156.90741319500376,108.50507645220205 156.83556475839578,108.18085552634147 157.32413412735332,105.22124102355883" stroke="#4DD2FF" stroke-linecap="round" stroke-linejoin="round" stroke-width="0.5"><title>2025-07-26 5.2km</title><desc>1753529066000</desc></polyline><polyline fill="none" points="179.4489272122737,103.625 179.36156131071039,104.06307229344384 179.47804917942267,104.62750818209315 179.33971983531956,105.95855073448183 179.03393917999347,108.0308909111045 178.87376836049953,108.32573184958892 178.8519268851087,109.21024837504228 178.2039631154621,113.0935854831041 178.2549265579728,113.46421986608766 177.77441409957828,116.99358703317557 177.83993852572166,118.87192408000556 178.41509737746674,123.875 178.83008540974697,123.83288782544696 178.50246327900095,120.77548684196518 178.57526819696068,120.61545448618563 178.16028016468044,118.24020112057042 178.1529996728641,117.11151078968396 179.72558590042172,106.1017629004491" stroke="#4DD2FF" stroke-linecap="round" stroke-linejoin="round" stroke-width="0.5"><title>2025-07-24 5.0km</title><desc>1753356656000</desc></polyline><polyline fill="none" points="20.894827244919725,148.0051349163623 20.997432707517873,148.04166666666424 21.344712734688073,145.15561264267308 21.57360184349818,145.00948085990967 21.518352748273173,144.72634985460172 22.11030734004453,141.0638329006033 22.149770979507593,139.95865507539565 21.557816387707135,136.0584561026044 21.313141823135084,133.17201716911222 20.83957814972382,132.1763569108225 20.910612700739875,132.0302040174647 21.297356367344037,132.10328049385862 21.092145442176843,130.26721600757446 20.752758142887615,129.90182556280342 20.78432905446971,128.91526393766253 20.350229020492407,127.79166666666424 20.744865415006643,128.69602654946357 20.73697268712567,129.86528643659403 21.10003817008692,130.24894652063085 21.305249095254112,132.0484731421384 21.202643632655963,132.1489532614214 20.926398156472715,132.0393385802745 20.83957814972382,132.1489532614214 21.11582362584886,132.54173810387147 21.313141823135084,133.19942050643294 21.668314578186255,136.8348558115904 22.12609279580647,139.80338106879208 22.118200067954604,141.01816466465243 21.25789272788097,147.00050596432266" stroke="#4DD2FF" stroke-linecap="round" stroke-linejoin="round" stroke-width="0.5"><title>2025-07-22 5.0km</title><desc>1753184035000</desc></polyline><polyline fill="none" points="33.625,141.25647616150673 33.625,138.00704330814187 35.777927580988035,128.90847321634647 53.18855932215229,132.08577813737793 53.875,132.84399443047005 51.53486132528633,146.88875604674104 35.902734976960346,144.43367066278006 35.341101695084944,143.71158349802135 37.2756163328886,129.66669629013631 37.962057010736316,129.233426160441 42.111902927746996,129.9194369551842 53.84379815112334,132.51904478878714 51.78447611723095,146.5999233525945 51.129237288143486,146.92486011693836 35.59071648691315,144.28925334723317 35.777927580988035,139.6678682571801 37.306818181998096,129.73890792712336 37.80604776588734,129.30563788540894 45.48170261958148,130.6054464254412 37.65003852092195,129.37784959573764 36.77638674899936,133.34947106035543 37.55643297394272,134.1076846566575" stroke="#4DD2FF" stroke-linecap="round" stroke-linejoin="round" stroke-width="0.5"><title>2025-07-20 4.9km</title><desc>1753020627000</desc></polyline><polyline fill="none" points="67.41391049377853,127.79166666666424 67.26114724148647,128.82701114592783 66.69374087575125,130.28320546656323 66.21362779705669,132.47165746332757 66.08268786646659,134.1971269357091 65.63167255013832,137.08405160296388 65.52983038194361,137.17663352842646 65.58075146607007,137.58904266688478 65.10791282792343,140.9976518606927 65.08608950619237,142.1254077409758 65.73351471836213,148.03325123551622 65.66077031250461,146.87191354234528 65.74078915896825,148.04166666666424 66.15543227238231,147.95751231667964 65.45708597608609,141.3679614538123 66.57007538579637,133.23760200568358 66.80285748452297,132.5053255040766 66.83195524686016,131.5205296593922" stroke="#4DD2FF" stroke-linecap="round" stroke-linejoin="round" stroke-width="0.5"><title>2025-07-20 5.0km</title><desc>1752942252000</desc></polyline><polyline fill="none" points="89.62316423584707,127.8007280973834 89.49786712578498,127.79166666666424 89.30209039128385,128.78841852609185 89.52136033395072,128.9243383710491 89.50569819516386,129.21430001468252 89.23161076687393,131.06278333230148 89.08282044864609,131.3799212277372 88.69909804902272,134.9952135398853 88.3780242044304,136.47209531144472 88.40934848197503,136.90700062071846 87.85334255595808,141.06567557332164 88.60512521641795,148.04166666666424 87.90816004161024,142.22535864200472 87.89249790285248,140.4677081011323 88.40934848197503,136.96136363530968 88.38585527378018,136.48115586033964 88.95752333855489,133.03808100576862 89.0749893792381,131.37086016066314 89.23161076687393,131.0446611327934 89.64665744401282,128.08163199292903" stroke="#4DD2FF" stroke-linecap="round" stroke-linejoin="round" stroke-width="0.5"><title>2025-07-17 5.0km</title><desc>1752765839000</desc></polyline><polyline fill="none" points="119.93834459467325,147.61435819469625 120.3944256757386,146.98106244395603 121.375,138.72168893984053 106.71199324319605,138.0619832407101 104.06672297301702,138.27308924682438 104.38597972970456,138.0619832407101 103.90709459455684,135.08009257071535 101.1934121621307,130.80510992283234 101.125,128.40369990613544 101.44425675668754,128.2189751386759 114.19172297301702,128.43008914784878 113.27956081088632,136.74256681418046 112.70945945940912,137.11200408940203 104.75084459455684,136.84812037504162 103.88429054047447,134.07732518194825 101.64949324319605,131.22733356393292 101.37584459455684,129.72315870851162 104.54560810804833,129.48565661895555 113.78125,129.80232602346223 113.9180743242614,131.78150105086388 113.09712837846018,138.22031276140478 111.86570945940912,138.2994774855033" stroke="#4DD2FF" stroke-linecap="round" stroke-linejoin="round" stroke-width="0.5"><title>2025-07-15 4.1km</title><desc>1752589649000</desc></polyline><polyline fill="none" points="134.56378772997414,127.79166666666424 134.62549675215269,129.2286869694144 134.14725183026167,132.22761014352 133.97755201926338,132.5756928097544 133.9698383914947,133.45928107652435 133.29103914753068,137.60042483868165 133.3218936586345,138.064506374365 132.80508059787098,141.9109339927454 133.42217081965646,148.04166666666424 133.06734394212253,145.61441170984472 132.7973669701023,141.71460069753812 133.95441113595734,133.39680543043505 133.88498848601012,133.11120191102964 134.11639731915784,132.29008662106207 134.57150135777192,129.3179421134264 134.51750596333295,129.005548712601 134.7026330298977,128.0594362070624 134.53293321892852,127.84522064004705" stroke="#4DD2FF" stroke-linecap="round" stroke-linejoin="round" stroke-width="0.5"><title>2025-07-13 5.0km</title><desc>1752418082000</desc></polyline><polyline fill="none" points="156.07413868478034,148.04166666666424 155.9702206349175,148.03241689581773 156.03417020407505,147.30168203045469 156.38589283448528,145.0816920273719 156.59372893426917,144.89669041641173 156.95344526082044,142.38063117417187 157.145293968264,139.7812469223427 156.61771002269234,136.1641865786296 156.3459243537509,133.1390666253501 156.18605043084244,132.546982449574 155.85031519271433,132.01040283711336 155.92225845804205,131.87163173266163 156.3059558730165,131.92714019985578 156.138088253967,130.1693556279497 155.75439083896345,129.68827182566747 155.77837192744482,128.5873204747113 155.50658625850338,127.82867397480732 155.33871863942477,127.82867397480732 155.482605170022,127.79166666666424 155.75439083896345,128.46704767112533 155.7463971428224,129.69752346126188 156.0981197732326,130.02133011359547 156.138088253967,130.20636196891428 156.3059558730165,131.89938597048604 155.914264761901,131.88088314620836 155.82633410429116,131.98264863318764 156.17805673470139,132.49147436056228 156.33793065760983,133.05580502095108 156.66567219956778,136.65448706915777 157.16128136057523,139.71649263019208 157.15328766443417,140.90056383350748 156.17805673470139,147.5606773374093" stroke="#4DD2FF" stroke-linecap="round" stroke-linejoin="round" stroke-width="0.5"><title>2025-07-12 5.1km</title><desc>1752325602000</desc></polyline><polyline fill="none" points="178.62799282599008,148.04166666666424 178.43120706142508,148.03255838356563 178.87200717403903,144.99944863669953 179.053050077433,144.9083626724605 179.5568216346437,141.52900797307666 179.6355359404697,139.82561916137638 179.1711215361429,136.77401278874459 178.8169071599259,133.06639893888496 178.34462132499903,132.10986432613572 178.407592769654,132.0096553471376 178.801164298784,132.07342471036827 178.62012139539002,130.22409474735468 178.26590701920213,129.83235985543433 178.25016415806022,128.60248336567747 177.85659262895933,127.79166666666424 178.2737784497731,128.7026961559386 178.26590701920213,129.823249721303 178.62799282599008,130.23320484074793 178.82477859052597,132.04609498881473 178.446949922567,132.00054543439182 178.36036418622825,132.14630392705294 178.83265002109692,133.13927734784374 179.17899296671385,136.75579393115913 179.64340737101156,139.7618553151333 179.56469306524377,141.48346323899023 178.80903572935495,146.511462120965" stroke="#4DD2FF" stroke-linecap="round" stroke-linejoin="round" stroke-width="0.5"><title>2025-07-10 5.0km</title><desc>1752149320000</desc></polyline><polyline fill="none" points="18.4101617091801,151.95833333332848 18.457591158745345,153.22061719134217 18.80145466781687,153.04225170990685 19.53661113564158,153.28921923683083 20.33105441526277,153.22061719134217 21.220356594014447,153.54990669188555 25.80915583629394,154.15360202401644 25.93958682246739,154.3319660374691 24.884281570382882,161.06846514584322 24.374414987920318,161.10962398539414 24.27955608884804,161.2879788117134 24.101695653109346,162.48157812526915 24.232126639282797,163.00291704428673 23.425825997255743,167.5439683139848 17.520859530486632,167.3656217486423 17.319284369936213,167.22843192279106 16.560413177474402,172.20833333332848 17.354856457095593,167.31074583501322 19.655184759409167,167.35190277229412 20.425913314335048,167.05008494082722 20.53262957575498,167.3656217486423 23.461398084415123,167.4616545438912 25.500864414323587,154.68869335757336 25.44157760241069,154.22220359556377 19.33503597509116,153.15201511095802" stroke="#4DD2FF" stroke-linecap="round" stroke-linejoin="round" stroke-width="0.5"><title>2025-07-08 5.1km</title><desc>1751976330000</desc></polyline><polyline fill="none" points="33.80536321137333,172.0239488536754 33.76190522109391,172.20833333332848 34.0371391599183,172.0909977791889 34.12405514053535,171.15231034158205 34.63106502784649,170.73325172513432 34.73246700526215,170.29742963473836 36.19555267988471,160.15585967614606 36.32592665083939,157.08812145628326 35.97826272825478,154.8249993075733 36.7749925510725,154.7914713385544 36.97779650596203,155.09322281416098 39.77359388425248,155.4955572560284 42.01892338495236,155.46202942339005 43.655841020925436,156.11582093096513 48.87079986114986,156.88695630065922 49.826875648635905,151.95833333332848 53.73809477884788,152.83007328840904 50.246969555155374,152.0086261483375 49.59509970014915,154.90881920022366 49.49369772261707,156.92048384365626 39.73013589391485,155.61290461673343 36.97779650596203,155.10998676884628 36.73153456073487,154.7411793722422 35.93480473791715,154.87529124827415 36.253496667020954,156.21640400974138 36.311440654157195,159.11652306416363 34.67452301812591,170.3477168578247" stroke="#4DD2FF" stroke-linecap="round" stroke-linejoin="round" stroke-width="0.5"><title>2025-07-06 5.0km</title><desc>1751807521000</desc></polyline><polyline fill="none" points="59.20720103458734,170.9531573963177 60.084559909126256,164.71406595117878 57.24510755157098,164.51101499577635 56.35179669759236,164.82482092209102 57.51629120367579,164.71406595117878 57.35677140840562,164.52947418291296 60.29193564306479,164.69560678281414 60.49931137711974,164.51101499577635 60.40359949984122,163.93877926391724 61.59999796503689,156.3887906356831 61.48833410831867,152.62290881919034 63.54613946855534,152.41984434542246 76.14820330234943,154.48739928285067 76.13225132285152,153.8782114347996 62.26998110557906,151.95833333332848 62.493308819131926,156.51801068482746 61.04167868127115,166.78148093931668 61.44047816970851,167.40908440483327 61.07358264038339,168.09206218288455 61.153342537989374,169.568762113704 60.595023254223634,169.69797278648184 60.339791581674945,172.20833333332848 59.047681239200756,172.0606660261983 59.12744113692315,170.9716159288073" stroke="#4DD2FF" stroke-linecap="round" stroke-linejoin="round" stroke-width="0.5"><title>2025-07-05 4.8km</title><desc>1751729502000</desc></polyline><polyline fill="none" points="92.00924836716149,172.20833333333576 92.20965522469487,172.06187181302084 92.24129841267131,171.2319198244295 92.51553937559947,170.02359711796453 92.66320758638903,169.9747757430232 92.85306671459693,168.2049875021694 88.72890454129083,168.034110015622 88.99259777489351,167.11869076919538 89.38286376057658,162.9931147813113 89.42505467799492,159.97818115634436 89.27738646714715,159.5753705266834 89.4356024072622,157.10965176569152 89.42505467799492,151.95833333333576 83.88749677262967,153.94808679310518 83.77147174981656,154.22884689638886 83.8136626672349,153.98470771336724 86.79867007141002,152.8494539907624 86.85140871815383,155.36408757605386 87.14674513973296,155.99884112671134 89.35122057254193,155.99884112671134 89.36176830192562,159.22138431241183 89.59381834743544,159.331242214721 89.6782001821557,159.72184727564309 93.53866912191734,159.96597479349293 93.72852825012524,160.93027363677538 93.70743279141607,162.6879629991381 92.3784188941936,171.75674307209556" stroke="#4DD2FF" stroke-linecap="round" stroke-linejoin="round" stroke-width="0.5"><title>2025-07-03 5.2km</title><desc>1751545471000</desc></polyline><polyline fill="none" points="110.89514732849784,172.20833333333576 111.37616983873886,169.24275581908296 111.57331021176651,169.1058806461515 112.07798956678016,165.36454511859483 112.11741764139151,164.06872914639098 111.25788561490481,157.18781547395338 110.83994802407688,156.32081943673984 110.92668978817528,156.20217722230154 111.28154245967744,156.26606151109445 111.11594454629812,154.4955372450204 110.72954941514763,154.00270468854433 110.73743503005244,152.8801315400924 110.36681112876977,151.95833333333576 110.76897748975898,152.96227151490893 110.72954941514763,154.02095779446245 111.08440208659158,154.3677661013644 111.13960139104165,154.6506876749263 111.28154245967744,156.2569351869024 110.89514732849784,156.22955620877474 110.83994802407688,156.34819838702242 111.26577122983872,157.18781547395338 111.67582320576184,161.09375692559843 112.13318887120113,164.04135255087022 111.99913341752836,166.08544872438506 111.13171577613684,171.89809288816468" stroke="#4DD2FF" stroke-linecap="round" stroke-linejoin="round" stroke-width="0.5"><title>2025-07-01 5.0km</title><desc>1751376396000</desc></polyline><polyline fill="none" points="133.038358737831,172.20833333333576 133.1845863944618,172.02784825851268 133.15534086310072,171.36230700917076 133.38930511369836,171.13669890045276 133.55502979119774,170.25682289540418 133.80849106266396,167.15464031304145 134.1594374385313,165.94758584199735 134.54937785619404,162.77759524073917 134.4518927517929,160.96129648060014 133.9059761670651,157.72347279011592 133.53553277032916,153.79734381618618 132.95062214386417,152.3419331278128 133.4672931972309,152.44347402791755 133.4867902180995,151.95833333333576 133.4867902180995,152.42090939146146 133.038358737831,152.3306507998568 132.96037065429846,152.44347402791755 133.3308140510344,152.9963061870003 133.55502979119774,153.77477945508872 133.96446722972905,158.15217961067538 134.54937785619404,162.0443104992737 134.50063530396437,163.86059153570386 133.27232298837043,171.824802198651" stroke="#4DD2FF" stroke-linecap="round" stroke-linejoin="round" stroke-width="0.5"><title>2025-06-30 4.1km</title><desc>1751292736000</desc></polyline><polyline fill="none" points="146.35235191634274,163.33163591379707 146.125,161.68842822864826 146.20339721255004,161.5159350561371 152.30270034843124,161.22541948424623 153.2748257839412,161.3162057022564 154.85844947735313,161.16186907661177 157.23388501739828,161.18910497115576 166.375,160.60807074789773 163.64677700347966,160.7987230201834 163.01175958191743,161.00753218353202 161.83580139372498,160.95306027505285 155.88545296166558,161.2617339825665 150.35060975607485,161.36159877655155 150.18597560975468,161.5068564588728 150.5701219511975,163.5585959187665 150.38980836234987,163.54043913965143 150.1702961672272,162.46918262117106" stroke="#4DD2FF" stroke-linecap="round" stroke-linejoin="round" stroke-width="0.5"><title>2025-06-26 5.0km</title><desc>1750950176000</desc></polyline><polyline fill="none" points="188.875,162.91211048921105 188.54803552207886,161.25455617744592 179.83624865443562,162.05388855361525 178.90621636170545,162.06230253745161 175.54938105487963,161.64160229449044 168.625,161.93609268967703 175.3168729816971,161.63318826775503 178.91348223897512,162.07071652045852 185.1112755651411,161.5069777639219" stroke="#4DD2FF" stroke-linecap="round" stroke-linejoin="round" stroke-width="0.5"><title>2025-06-24 5.0km</title><desc>1750769966000</desc></polyline><polyline fill="none" points="31.375,187.0609436127852 31.097802593634697,185.4390563872148 22.4755043227633,186.25845129606023 21.425072046084097,186.29224060293927 18.025756484130397,185.85297853924567 11.125,186.15708329282643 17.843389769433998,185.85297853924567 21.417777377500897,186.29224060293927 28.719740633969195,185.6417940261017" stroke="#4DD2FF" stroke-linecap="round" stroke-linejoin="round" stroke-width="0.5"><title>2025-06-22 5.0km</title><desc>1750563938000</desc></polyline><polyline fill="none" points="44.442017956782365,196.375 43.395432495628484,190.12236129766097 43.38076073685079,188.41748897663638 43.47368187591201,187.70380595649476 43.414994840713916,185.86857893816705 43.434557185770245,185.5513730600578 43.54215008363826,185.37011174486906 43.434557185770245,185.2851452997129 43.42966659949161,184.12392418762101 42.24125413663569,176.97479878388185 41.9429283743375,176.125 42.24614472288522,176.86715832413756 43.414994840713916,184.00496845871749 43.47857246219064,187.48290221087154 43.395432495628484,188.42315309090918 43.39054190934985,190.06572186149424 44.192598057183204,194.8685408870806 44.30508154130075,195.19702041601704 45.5570716256625,195.12905929348926" stroke="#4DD2FF" stroke-linecap="round" stroke-linejoin="round" stroke-width="0.5"><title>2025-06-21 8.0km</title><desc>1750517001000</desc></polyline><polyline fill="none" points="68.3044209749205,196.375 66.5890791900456,185.82685964051052 63.570609537593555,185.7652624973125 58.13204527384369,185.241685766101 58.23842305893777,184.68730842562218 58.0256674886914,183.62474616938562 58.31820639775833,176.67940876755165 58.27831472828984,176.1866010746744 58.01237026555464,176.125 57.67993968707742,184.67190902603033 58.18523416639073,184.73350661502627 58.21182861260604,185.25708510767436 66.62897085951408,185.81146035708662 67.65285704110283,192.40221023210324 67.9719903965015,193.2799285898218 74.82006031292258,193.06434911474935" stroke="#4DD2FF" stroke-linecap="round" stroke-linejoin="round" stroke-width="0.5"><title>2025-06-19 5.0km</title><desc>1750345525000</desc></polyline><polyline fill="none" points="98.875,186.7569461144485 98.68913043479552,185.65242770878103 92.9565217391355,186.19619335945754 92.21793478258769,186.21318595028788 89.76250000001164,185.929975424413 80.6646739130374,186.34346230758092 79.87717391303158,186.47373835947656 78.625,186.8475722912226 80.39076086954447,186.37178321440297 83.58967391305487,186.23017853595957" stroke="#4DD2FF" stroke-linecap="round" stroke-linejoin="round" stroke-width="0.5"><title>2025-06-17 5.1km</title><desc>1750166247000</desc></polyline><polyline fill="none" points="101.82327586197061,193.89159132672648 101.125,189.40379474624933 116.90603448275942,188.93883704327163 114.33987068966962,178.81057486037025 117.44719827582594,178.9925242526224 121.375,178.60840867328807 115.17780172417406,178.97230766170833 117.46465517242905,188.08978103398113 110.69137931033038,188.4132313708833" stroke="#4DD2FF" stroke-linecap="round" stroke-linejoin="round" stroke-width="0.5"><title>2025-06-16 3.2km</title><desc>1750084948000</desc></polyline><polyline fill="none" points="143.875,187.18609957041917 143.56471774197416,185.31390042957355 133.6111895161157,186.23109361817478 132.71300403226633,186.24054917085596 128.77731854838203,185.75831475642917 123.625,186.00416006521846 128.6140120967757,185.74885915460618 132.70483870970202,186.22163806456228 141.14778225813643,185.51246879615064" stroke="#4DD2FF" stroke-linecap="round" stroke-linejoin="round" stroke-width="0.5"><title>2025-06-15 4.6km</title><desc>1749956754000</desc></polyline><polyline fill="none" points="166.375,187.06440293612104 166.1284908700618,185.43559706387168 157.4571697100182,186.2332122107764 156.55088614395936,186.25000402560545 152.7372448979586,185.82181167836097 146.125,186.12406533100147 152.86774973146385,185.82181167836097 156.49288399572833,186.25000402560545 158.3852040816564,186.15764900172508 158.7404672395205,186.0401060942968 163.33713748658192,185.6287045974459" stroke="#4DD2FF" stroke-linecap="round" stroke-linejoin="round" stroke-width="0.5"><title>2025-06-14 5.1km</title><desc>1749906363000</desc></polyline><polyline fill="none" points="188.875,187.45234591167537 188.63154172559734,185.81052953665494 180.23939179631998,186.62314986327692 179.10802687410614,186.63144186561112 175.67096888259402,186.21684071453637 169.19784299857565,186.52364576957916 169.1119165488053,186.33292924981652 169.1477192362072,185.05594625120284 168.625,185.04765408831736 169.1692008486425,185.07253057445632 169.1119165488053,186.32463721706154 169.21932461104007,186.52364576957916 175.84998231963255,186.20854866997252 179.26555869873846,186.63973386709404 186.06806930695893,186.02612347559625 186.060908769432,185.6944402559675 188.24487270155805,185.57835080965742" stroke="#4DD2FF" stroke-linecap="round" stroke-linejoin="round" stroke-width="0.5"><title>2025-06-12 5.9km</title><desc>1749735885000</desc></polyline><polyline fill="none" points="31.375,216.78713254725153 30.729469854501076,213.53699158859672 12.991424116364215,215.1133182272897 11.32146569644101,210.5468033921934 11.125,204.84253885202634 14.43685031181667,204.6962729748484 17.25753638247261,204.87504236205132 17.411902286927216,204.35498540630215 17.117203742207494,204.24122272108798 11.209199584147427,204.04620078607695 11.33549896045588,210.3842915573623 11.826663201616611,212.2369166546705 12.794958419923205,214.54454237122263 20.65358627855312,213.86200866574654 20.807952182891313,214.47953928704374 30.68737006239826,213.52074071731477 31.290800415852573,216.73838092225196" stroke="#4DD2FF" stroke-linecap="round" stroke-linejoin="round" stroke-width="0.5"><title>2025-06-10 5.3km</title><desc>1749559786000</desc></polyline><polyline fill="none" points="34.1566954239388,205.02518901095027 33.67057389358524,203.0549230415636 33.625,201.5244330627611 47.403507126902696,201.17259436751192 48.026350337604526,203.47712478545145 47.570611402916256,203.45953306677984 47.433889722509775,203.7761837291764 47.72252438112628,205.41220289799094 47.64656789205037,206.52046513787354 48.147880720265675,208.73696827155072 49.439141035370994,208.68419471816742 51.353244561178144,216.05474478618999 51.38362715690164,216.38896274879517 50.897505626489874,216.52968590793898 51.338053263374604,216.40655314999458 51.489966241584625,216.68799932480033 51.094992498110514,216.75836079688452 51.2317141785752,217.4092030536849 52.14319204806816,219.73110679093224 52.781226556689944,219.6607465303823 53.875,219.062683158234 52.72046136541758,219.3089447976963 50.66963615908753,211.12935241467494 50.426575393939856,210.4257134613872 49.879688672255725,210.4257134613872 49.469523630978074,208.63142114861694 49.028975994035136,208.80733298431733 48.132689422462136,208.68419471816742 47.63137659424683,206.66119634169445 47.52503750944743,204.05765049702313 46.68951612908859,201.10222654242534 33.67057389358524,201.55961689284595 34.217460615211166,205.13073833889212" stroke="#4DD2FF" stroke-linecap="round" stroke-linejoin="round" stroke-width="0.5"><title>2025-06-08 5.0km</title><desc>1749355299000</desc></polyline><polyline fill="none" points="76.375,211.24995009971462 76.01884422107833,209.58338323362113 69.49174443644006,210.13049222600966 67.5292534098844,210.40825386575307 66.43898061738582,210.40825386575307 62.98645010768087,209.9874025318568 56.125,210.29041570844856 62.65936826990219,209.9874025318568 66.4026381909789,210.4166708705452 74.27440775305149,209.70963947663404" stroke="#4DD2FF" stroke-linecap="round" stroke-linejoin="round" stroke-width="0.5"><title>2025-06-07 5.3km</title><desc>1749293029000</desc></polyline><polyline fill="none" points="98.875,211.21887372528 98.5760262873955,209.61445960805577 89.33700936261448,210.45889196361532 85.58889989193995,210.02823253766837 78.625,210.31533907036646 85.55973172487575,210.01134388710489 88.89219481457258,210.45889196361532 96.03110370904324,209.80867981193296" stroke="#4DD2FF" stroke-linecap="round" stroke-linejoin="round" stroke-width="0.5"><title>2025-06-05 5.1km</title><desc>1749128617000</desc></polyline><polyline fill="none" points="101.40846456692088,210.28849211770284 101.125,208.43179530605266 101.23129921255168,208.34973056817398 109.177165354311,208.0727615838623 110.67421259841649,213.56070865235233 118.52263779524947,213.45813294654363 121.375,213.28375400675577 119.02755905513186,213.36581472191028 118.59350393700879,207.27262468098343 111.08169291337254,207.7137265808924 109.46948818897363,207.66243576160923 109.61122047243407,208.0727615838623 105.44783464563079,208.19585900433594" stroke="#4DD2FF" stroke-linecap="round" stroke-linejoin="round" stroke-width="0.5"><title>2025-06-03 5.2km</title><desc>1748952979000</desc></polyline><polyline fill="none" points="140.3710929035151,204.37993637271575 139.9268752055068,203.72244566892186 139.61198671074817,203.0323986488147 139.40955839271192,202.84361090243692 138.909110606357,202.7980413628975 138.52674600554747,202.35536414568196 138.35243273168453,201.77597315665844 138.09377432524343,201.37885944606023 137.78450883927871,200.29166666666788 136.89045043449732,200.67576682663275 136.47434778069146,200.72133787890925 135.39473008428467,201.12496578101127 134.93364335980732,201.71738276430915 134.93364335980732,201.8671136602461 133.0668044264894,204.2432309415417 133.05555840881425,204.37993637271575 132.54386460481328,205.08298825920792 132.0996469068341,205.49309828982223 132.02092478313716,205.42149196609535 131.70603628834942,205.69489749805507 131.49798496143194,205.57121418792667 131.49236195263802,205.68838785612752 131.4642469084065,205.51913693314418 131.75664336787304,205.72744569781935 131.71165929720155,205.96179224694788 131.03689823695458,206.71039352519438 129.8841814257321,206.97077452427402 129.8841814257321,206.8536032059128 129.80545930203516,206.99681256587428 129.49057080724742,207.06841712560345 129.21504337430815,206.99030305646374 128.7539566498308,207.02936010295525 128.67523452610476,206.95775549950122 128.48967523456668,207.06190762349433 127.93299735989422,206.86662225188047 127.8598982450203,206.01386914121758 127.6462239092798,205.82509019765348 126.59472125710454,206.0919844031414 126.20111063861987,206.33283919329915 126.65095134545118,208.2791729958044 127.35945045869448,210.45326847428805 128.85517080884892,216.29822463441815 129.0632221357664,216.90351808479681 130.8288469100371,220.47658532497007 131.05376726345276,220.54166666666788 131.82974248274695,220.29435721606933 132.3583053132752,220.45055276976564 133.3254628329305,220.24880010776542 133.30859380640322,219.86481747740618 133.56725221281522,219.79322724063604 134.0339619461447,220.0079977107016 134.3882115027809,219.83878467331306 134.53440973249963,220.05355499045982 135.4453371638083,220.25530826806425 135.97952300318866,220.15768579383075 136.51933185136295,219.75417798680428 136.61492300155805,218.99271277386651 137.01977963771787,218.43299752239182 136.91294246981852,217.87327737441228 137.04227167303907,217.59992389459148 136.7667442400998,217.2940269490864 136.59243096623686,216.83843304232505 136.52495486018597,216.16154467561864 136.89045043449732,215.86865806630158 137.44712830916978,216.09645887832085 137.7563937951345,216.0769331262054 137.83511591880233,215.6538737005685 137.70578671561088,215.13318133600114 137.59894954771153,215.08762055245825 137.70578671561088,215.0355510458321 137.58208052124246,214.99649888803833 137.68329468023148,215.05507711578684 137.69454069793574,214.74916800176288 137.54834246821702,214.41071366033793 136.8848274256452,214.36515236224295 136.5755619397096,214.1308366023004 136.70489114290103,213.24563598540772 137.23345397342928,212.3408962258909 137.63831060956,211.89177605268196 137.82386990112718,211.82668591087713 138.22310352846398,211.27341703105049 138.92597963285516,210.60297891612936 139.5501336135785,209.82187710315702 139.37019733083434,209.45735965904896 138.81351945616188,209.45085040009872 138.74042034128797,209.23604448293554 138.95409467702848,208.72180920481333 139.20150706576533,208.48747276990252 139.4320504280331,208.5200195483194 139.5276415782282,208.40285106851297 139.33083626901498,207.95370324048054 139.59511768425,207.40040085488727 139.84253007301595,207.2571923987125 140.05058139993344,207.34181561611695 140.022466355731,207.1855880503863 140.64662033645436,206.8991698552236 140.702850424801,206.723412600335 141.24828228182741,206.39142535641804 141.29888936135103,205.91622492966053 140.5847672392556,204.55570006907146 140.47230706253322,204.50362198717994" stroke="#4DD2FF" stroke-linecap="round" stroke-linejoin="round" stroke-width="0.5"><title>2025-06-02 11.5km</title><desc>1748829019000</desc></polyline><polyline fill="none" points="166.375,211.36363932608947 166.0040591174038,209.4696940072463 155.30578684431384,210.46548435883597 150.87135720229708,209.95782782605966 146.125,210.16284328816255 150.93037052452564,209.93830252107 154.81681931723142,210.44595915732498 165.98719816817902,209.47945670802437 166.3665695254167,211.30506425883505" stroke="#4DD2FF" stroke-linecap="round" stroke-linejoin="round" stroke-width="0.5"><title>2025-06-01 4.9km</title><desc>1748740054000</desc></polyline><polyline fill="none" points="188.875,220.1750366725173 188.80167471332243,220.33070649766887 188.65502413996728,220.21749209670816 188.16618889552774,217.50031878051232 172.71899517200654,218.84476013982203 171.2891520820558,214.8397017189127 171.22804767650086,209.80137227551313 170.88586300541647,207.90487506333739 168.625,200.5026268356596 170.11594749544747,205.45637392740173 170.51923657214502,206.22065059453598 171.17916415206855,209.0654212096124 171.8390917320503,209.24940934183542 171.1547223898815,209.23525641726155 171.2891520820558,214.37267325118592 171.7535455642501,216.28323432369507 172.56012371752877,218.27868115407182 172.76787869643886,218.4060491270793 179.3915962582687,217.72675192102906 179.57490947493352,218.2645291498775 184.8421092334902,217.75505603764032" stroke="#4DD2FF" stroke-linecap="round" stroke-linejoin="round" stroke-width="0.5"><title>2025-05-31 5.5km</title><desc>1748696141000</desc></polyline><polyline fill="none" points="29.954870129877236,240.17184297612403 29.49464285717113,237.20255293362425 12.834415584453382,238.69481889541203 11.295941558491904,234.309341768967 11.125,229.0252799201844 16.779220779193565,229.08619236088998 11.203896103950683,228.99482369056204 11.309090909082443,234.23320387641434 11.716720779251773,235.86254630729672 12.742370129853953,238.20755001611542 27.495941558445338,236.79141581502336 28.810876623378135,236.71527918736683 28.876623376680072,237.27868931292323 31.375,237.08073464606423" stroke="#4DD2FF" stroke-linecap="round" stroke-linejoin="round" stroke-width="0.5"><title>2025-05-29 5.0km</title><desc>1748526381000</desc></polyline><polyline fill="none" points="45.90015847852919,232.59530129597988 45.45087163231801,228.91617553641845 53.05665610142751,228.54454254326993 53.875,231.53616664196306 52.99247226619627,228.61886920247343 45.4187797147315,228.9719204200228 45.62737717904383,230.8114920178632 45.33854992076522,228.99050204409286 34.52357369248057,229.99390693256282 36.1442155308323,238.11385073687416 36.770007923885714,240.00907161053328 36.35281299520284,240.26919842838834 37.01069730578456,242.01575459481683 36.12816957209725,239.7117833643133 33.94591917586513,230.03106997058785 37.73276545165572,229.4922051786416 44.58438985736575,229.06482852154295 44.50416006339947,228.52596087371057 34.44334389857249,229.2134813854791 33.8817353406921,227.1509120718547 33.625,227.3738936631853 33.75336767034605,229.36213412818324 41.34310618066229,228.61886920247343" stroke="#4DD2FF" stroke-linecap="round" stroke-linejoin="round" stroke-width="0.5"><title>2025-05-27 6.0km</title><desc>1748352132000</desc></polyline><polyline fill="none" points="73.67653758541564,236.09236345452518 73.75726082007168,236.03894766771555 73.4977932801703,234.7436015035637 66.67667995445663,235.39795482884074 65.88674544420792,235.41130891028297 63.04413439639029,235.077456057581 56.25185079727089,235.37792370158422 56.125,233.161107771768 56.9322323462402,233.07430321214633 58.04505979499663,233.15443050203612 58.05082574032713,235.077456057581 63.21134681094554,234.87046643450594 66.34802107061842,235.1776120920258 73.48626138953841,234.46983949970308 76.2539151480596,234.36968238317786 76.375,234.59002783738106 76.29427676537307,234.6167363269342 73.7399629840802,234.7235701762038" stroke="#4DD2FF" stroke-linecap="round" stroke-linejoin="round" stroke-width="0.5"><title>2025-05-25 7.6km</title><desc>1748179850000</desc></polyline><polyline fill="none" points="98.8617300131009,235.70127545579453 98.80865006553358,235.2633239704228 98.54988532108837,235.2633239704228 98.38401048490778,234.44119764479547 98.25131061597494,234.25679424726695 91.84854193971842,234.8023196583381 90.80021297509666,234.99440513097215 86.59362712973962,234.60255024760409 78.73779488861328,234.95598807561328 78.625,233.61906235337665 80.57568807341158,233.4653912108697 80.56241808648338,234.58718334794685 80.82118283092859,234.6179171441472 86.3348623853235,234.37972989575792 90.32912844035309,234.72548533224472 98.62287024903344,233.9264036986351 98.875,235.61675870059116" stroke="#4DD2FF" stroke-linecap="round" stroke-linejoin="round" stroke-width="0.5"><title>2025-05-24 6.6km</title><desc>1748094255000</desc></polyline><polyline fill="none" points="121.375,235.48561124515982 121.15471394039923,233.68105542149715 112.81647864627303,234.389654828934 111.65793714745087,234.58806169236777 110.33622078970075,234.60695756194036 106.5260878324043,234.14400764774473 101.125,234.36131095661403 106.50161160354037,234.13455966624315 110.28726833197288,234.61640549531876 118.9273771152366,233.88891180908104" stroke="#4DD2FF" stroke-linecap="round" stroke-linejoin="round" stroke-width="0.5"><title>2025-05-18 4.7km</title><desc>1747565909000</desc></polyline><polyline fill="none" points="141.24302175777848,235.30837726448226 141.02272401947994,234.01269842470356 135.15005010020104,234.50949021525594 134.17030489552417,234.68403779269283 133.3818708846229,234.6773244328724 130.69771686228341,234.328228779872 123.66558116232045,234.65047098680952 123.625,234.44906979220104 127.58456198111526,234.19396072837117 130.26871600342565,234.14696684569208 133.40506012024707,234.65047098680952 141.09808903522207,233.96570441268705 143.68948611506494,233.85828940218926 143.7938376753591,233.87171628808574 143.8112296020554,233.96570441268705 143.875,233.92542380428495" stroke="#4DD2FF" stroke-linecap="round" stroke-linejoin="round" stroke-width="0.5"><title>2025-05-17 5.7km</title><desc>1747487200000</desc></polyline><polyline fill="none" points="165.26839848424424,233.74617676530033 162.5867072198016,233.88648369106522 161.27817112085177,234.12032809062657 155.26859792578034,234.57866138540703 151.5045372955501,234.0922667941486 146.125,234.30740318128665 151.43184084564564,234.11097432609677 155.1232050259132,234.56930766755977 165.84997008374194,233.6339310702606 166.2053749501647,235.44855297674076 166.375,235.53273559640365" stroke="#4DD2FF" stroke-linecap="round" stroke-linejoin="round" stroke-width="0.5"><title>2025-05-11 5.0km</title><desc>1746965499000</desc></polyline><polyline fill="none" points="188.875,235.31088292370987 188.5481527976517,233.85578374295437 179.3601147775771,234.68847369745345 175.62679340026807,234.25951325502683 168.625,234.55389811238274 175.45247489237227,234.26792426550674 178.93884505017195,234.68847369745345 188.60625896698912,233.87260584539035" stroke="#4DD2FF" stroke-linecap="round" stroke-linejoin="round" stroke-width="0.5"><title>2025-05-10 5.3km</title><desc>1746870058000</desc></polyline><polyline fill="none" points="31.33078602619935,258.40866293494037 31.279203056765255,258.2635936604129 31.375,258.3745290105944 30.98444323145668,258.4427968453383 21.957423580810428,259.2364063395871 18.13291484717047,258.78413518413436 11.125,259.0742716779714 18.09606986900326,258.78413518413436 19.886735807871446,258.92920355673414 21.515283842833014,259.2278729441532 28.906386462884257,258.5622654222243" stroke="#4DD2FF" stroke-linecap="round" stroke-linejoin="round" stroke-width="0.5"><title>2025-05-05 5.4km</title><desc>1746434825000</desc></polyline></svg>