<?xml version="1.0" encoding="utf-8" ?>
<svg baseProfile="full" height="300mm" version="1.1" viewBox="0,0,200,300" width="200mm" xmlns="http://www.w3.org/2000/svg" xmlns:ev="http://www.w3.org/2001/xml-events" xmlns:xlink="http://www.w3.org/1999/xlink"><defs /><rect fill="#222222" height="300" width="200" x="0" y="0" /><text fill="#FFFFFF" style="font-size:12px; font-family:Arial; font-weight:bold;" x="10" y="20">Over 3km Runs</text><text fill="#FFFFFF" style="font-size:4px; font-family:Arial" x="10" y="280">Runner</text><text fill="#FFFFFF" style="font-size:9px; font-family:Arial" x="10" y="290">tang-hi</text><text fill="#FFFFFF" style="font-size:4px; font-family:Arial" x="65" y="280">SPECIAL TRACKS</text><rect fill="yellow" height="2.6" width="2.6" x="65" y="283" /><text fill="#FFFFFF" style="font-size:3px; font-family:Arial" x="70" y="285.5">Over 20.0 km</text><rect fill="red" height="2.6" width="2.6" x="65" y="287" /><text fill="#FFFFFF" style="font-size:3px; font-family:Arial" x="70" y="289.5">Over 40.0 km</text><text fill="#FFFFFF" style="font-size:4px; font-family:Arial" x="120" y="280">STATISTICS</text><text fill="#FFFFFF" style="font-size:3px; font-family:Arial" x="120" y="285">Number: 99</text><text fill="#FFFFFF" style="font-size:3px; font-family:Arial" x="120" y="290">Weekly: 3.8</text><text fill="#FFFFFF" style="font-size:3px; font-family:Arial" x="141" y="285">Total: 512.9 km</text><text fill="#FFFFFF" style="font-size:3px; font-family:Arial" x="141" y="290">Avg: 5.2 km</text><text fill="#FFFFFF" style="font-size:3px; font-family:Arial" x="167" y="285">Min: 3.0 km</text><text fill="#FFFFFF" style="font-size:3px; font-family:Arial" x="167" y="290">Max: 11.5 km</text><polyline fill="none" points="19.745711795345414,48.91826523677446 19.653885499195894,49.0 19.781029601523187,48.36246664412465 19.94349151008646,48.248037045377714 20.021190683735767,47.81483780398412 20.77699173660949,42.019551863355446 20.014127122500213,35.61891293761437 19.901110142614925,35.185645657911664 19.618567692989018,34.744201122455706 19.682139744167216,34.62157721022231 19.94349151008646,34.72785127831594 20.028254244971322,34.64610200763855 19.86579233640805,33.002924039188656 19.540868519281503,32.67591944146989 19.540868519281503,31.629495789820794 19.223008263419615,31.0 19.53380495804595,31.62132055143593 19.519677835603943,32.659569176677905 19.858728775201598,33.01927423416055 20.021190683735767,34.62157721022231 19.957618632586673,34.69515157999558 19.653885499195894,34.59705240531912 19.618567692989018,34.703326505827135 19.87991945890826,35.0957219676784 20.063572051207302,35.74153532870696 20.353178062097868,38.888779367633106 20.76286461413838,41.627190189603425 20.628656950517325,43.556283320293005 19.929364387586247,48.35429310676409 19.823410968965618,48.378813716364675 19.759838917816523,48.73027496613213" stroke="#4DD2FF" stroke-linecap="round" stroke-linejoin="round" stroke-width="0.5"><title>2025-11-01 5.0km</title><desc>1761996998000</desc></polyline><polyline fill="none" points="39.85466902772896,49.0 40.634493757097516,43.52822779680719 40.74792280860129,41.64952781331522 40.33674249678734,38.95035827491665 40.0035446578695,35.635753032329376 39.59236434605555,34.73323792302108 39.634900240343995,34.601962157088565 39.989366026449716,34.65119059432618 39.82631176483119,32.99381669045397 39.514381873072125,32.657414860557765 39.535649820260005,31.76307146713225 39.25207719139871,31.0 39.528560504550114,31.853326754746377 39.47184597875457,32.59998026162066 39.819222449092194,33.01022649994411 39.99645534215961,34.63478111857694 39.92556218494428,34.70041900155775 39.64198955608299,34.58555267130578 39.57818571457756,34.72503319392126 39.9042942377564,35.24192949874123 40.06734849937493,35.91471020568861 40.32965318104834,38.86011092527042 40.7408334929205,41.518263297919475 40.73374417718151,42.77347148652916 39.91847286923439,48.3355317066962" stroke="#4DD2FF" stroke-linecap="round" stroke-linejoin="round" stroke-width="0.5"><title>2025-10-30 4.9km</title><desc>1761826029000</desc></polyline><polyline fill="none" points="60.822313700657105,31.0 61.293154609942576,31.245553153239598 61.153891805763124,31.452738005275023 61.14726024365518,31.59853441222367 61.25999679940287,31.64457532439701 61.21357586470549,31.890126381833397 60.994734315318055,33.018116294406354 60.59020902708289,34.13841613115801 60.450946222932544,34.85969627373561 60.232104673516005,35.22800688143616 60.12599967990536,35.93393052624742 59.39652784867212,37.72172937594587 59.1312653645582,39.14886890321213 59.16442317509791,39.55552200479724 58.72674007632304,42.632203785651654 58.70684539002832,43.61426036909688 59.270528168737656,49.0 59.668421894835774,48.95396966365661 59.35010691394564,46.16908215303556 59.42305409704568,46.023313864432566 59.03842349513434,43.867444762407104 59.03842349513434,42.68591033502162 60.10610499361064,35.13592939788941 60.25863092194777,34.852023116989585 60.19231530095567,34.56811576894688 60.623366837593494,31.821065227624786" stroke="#4DD2FF" stroke-linecap="round" stroke-linejoin="round" stroke-width="0.5"><title>2025-10-28 5.1km</title><desc>1761655486000</desc></polyline><polyline fill="none" points="80.5463375277177,31.0 80.48780136401183,31.30856526975549 80.60487369136536,31.767647804270382 80.36422501844936,33.88240109736216 79.98699196364032,35.515461081580725 80.05203214546782,35.7111248396468 79.46667050867109,39.308235695985786 79.48618256323971,39.737168222993205 79.02439727197634,43.048142764368095 79.6292709633417,48.992475829902105 79.91544776357478,49.0 79.98048794543138,48.90970990831556 79.36260621767724,42.8675479677986 79.90243972718599,39.511414570966735 80.22113661837648,36.65180876952945 80.48129734580289,35.206913336100115 80.58536163682584,35.086504111204704 80.51381743676029,34.845685074222274 80.79349021881353,32.79869164972479 80.97560272802366,32.158994603407336" stroke="#4DD2FF" stroke-linecap="round" stroke-linejoin="round" stroke-width="0.5"><title>2025-10-26 5.1km</title><desc>1761476985000</desc></polyline><polyline fill="none" points="100.2356706772116,49.0 100.37278816208709,48.980167116627854 100.4327770617092,48.25626411621488 100.67273266028496,47.95876817567478 101.53828678367427,42.04832748921035 101.6068455260829,39.53925700086256 101.12693432898959,36.69292105444765 100.72415171712055,32.636500880660606 100.24424051996903,31.694276454225474 100.28708973398898,31.585176195825625 100.72415171712055,31.644685442806804 100.62131360347848,31.029754806550045 98.41029415951925,31.426484693060047 98.35030525986804,33.67789623672434 98.41886400233489,31.41656646557385 99.35297686819104,31.13885568621481 100.544185018196,31.0 100.70701203148928,31.1983652054696 100.69844218873186,31.664521850383608 100.29565957683371,31.545503344335884 100.24424051996903,31.664521850383608 100.55275486101164,32.13067626746488 100.7927104595874,32.934043545494205 100.99838668690063,35.76065359596396 101.58970584050985,39.450000340424594 101.64969474013196,41.056607735059515 100.62131360347848,48.46451073503704" stroke="#4DD2FF" stroke-linecap="round" stroke-linejoin="round" stroke-width="0.5"><title>2025-10-25 5.0km</title><desc>1761405216000</desc></polyline><polyline fill="none" points="120.42346941085998,31.0 120.5081632930378,31.70108673811046 120.37786501279334,32.89970355779951 120.10423862421885,34.83704955071153 119.89576137578115,35.50794746092288 119.95439560190425,35.71901521203108 119.36805334070232,39.29199961258564 119.40714282481349,39.631198051596584 118.94458392984234,42.81205020267953 118.95109884385602,43.70899571963673 119.04882255406119,43.96526387659833 118.9576137578697,44.048173973249504 119.54395601904253,49.0 119.88924646176747,49.0 119.91530611782218,48.653307560998655 119.61562007322209,46.264100425643846 119.66122447131784,46.08321094983694 119.31593402859289,43.96526387659833 119.32244894260657,42.638689735220396 119.83712714965804,39.5105943397939 120.22150707646506,36.2919103672466 120.50164837902412,35.08581015760137 120.44301415293012,34.87474060537352 120.72315545548918,32.76401205964066 121.02935641410295,32.22124358529982 121.05541607018677,31.71616379948682" stroke="#4DD2FF" stroke-linecap="round" stroke-linejoin="round" stroke-width="0.5"><title>2025-10-23 5.2km</title><desc>1761220332000</desc></polyline><polyline fill="none" points="139.76546649236116,48.45722904626018 139.8198510738439,47.92232061498362 139.96940867291414,47.788592929668084 140.20054314419394,45.89278147974983 140.29571616178146,45.798383015622676 140.744388958934,42.368494068970904 140.77158124968992,41.33005734877224 140.3501007432642,38.600161024827685 140.07137976316153,35.610538720633485 139.66349540208466,34.76870317724388 139.70428383818944,34.674291143222945 140.0509855451237,34.737232512037735 139.89462987336447,33.16368293099367 139.581918529846,32.786026269466674 139.59551467525307,31.873348393346532 139.22841875028098,31.0 139.57512045718613,31.810404694675526 139.54792816645931,32.738819057172805 139.8878318007046,33.13221161293768 140.02379325439688,34.721497174628894 139.69068769284058,34.61134972322179 139.6498992567358,34.75296784622333 139.87423565529753,35.08340912525455 140.05778361781267,35.68134690012084 140.3433026705461,38.68670100298914 140.75118703165208,41.33005734877224 140.63561979599763,43.27318137000111 139.8810337280156,48.44936277256784 139.60231274794205,48.45722904626018 139.67029347480275,48.693216885039874 139.581918529846,49.0" stroke="#4DD2FF" stroke-linecap="round" stroke-linejoin="round" stroke-width="0.5"><title>2025-10-21 5.1km</title><desc>1761051395000</desc></polyline><polyline fill="none" points="161.0126269380562,31.106521599453117 160.7298804553575,31.0 160.52603996780817,31.281521040968073 160.45370947223273,32.483680063145584 159.93424500402762,35.33682833637431 159.99342450039694,35.51942612497078 159.40820503619034,39.20171985210618 159.44108253417653,39.60493523449986 158.9873730619438,42.89144005118578 159.59231902493048,49.0 160.2038404875202,48.901110716338735 159.94739600320463,48.825041947835416 159.34245004021795,43.08923435230099 159.684376019286,40.122264999125036 159.88164100726135,39.41473956988193 160.41425647464348,35.24552927513287 160.5523419662204,34.94119826715905 160.49973796942504,34.66729930260772 160.80221095093293,32.44563735180418" stroke="#4DD2FF" stroke-linecap="round" stroke-linejoin="round" stroke-width="0.5"><title>2025-10-19 5.0km</title><desc>1760870639000</desc></polyline><polyline fill="none" points="182.8748728786013,31.63629756296723 183.03294149046997,31.590021502044692 183.10209650819888,31.20824324851128 181.97585764853284,31.0 181.74863401893526,31.150397941702977 181.32382462447276,32.06435019295168 181.49177252466325,32.73534822323563 180.8594980771304,33.383204463090806 181.08672170672799,33.672424753021915 180.10867217066698,32.81633046421484 179.54555274086306,32.469263292667165 179.37760484073078,32.63122811052017 179.06146761699347,32.34200505231274 177.14488569786772,35.77792528907594 177.14488569786772,36.61085930695117 177.52029865107033,37.20085037785611 180.41493010619888,38.88982673395367 178.69593395193806,49.0 180.28649935900467,39.30628262775281 177.45114363339962,37.698291343753226 176.89790349180112,37.02732392444159 176.98681708594086,36.44890041400504 179.01207117573358,32.38828079330415 179.92096569406567,33.07084568625578 180.29637864726828,32.94358814966836 181.0966009949334,33.6492871581213 180.8496187888668,33.325360312832345 181.49177252466325,32.71221042901743 181.27442818327108,32.06435019295168 181.69923757773358,31.185105129508884 181.93634049559478,31.0 183.07245864346623,31.16196700555156 183.09221721993526,31.32393376989785" stroke="#4DD2FF" stroke-linecap="round" stroke-linejoin="round" stroke-width="0.5"><title>2025-10-18 5.0km</title><desc>1760792768000</desc></polyline><polyline fill="none" points="20.425227879488375,53.0 20.553115963557502,53.11098773541744 20.482777517318027,53.72511681359174 20.565904771967325,54.13206696400448 20.143874094588682,56.98065434300952 19.94564756428008,57.72052894018998 20.015986010519555,57.898097725097614 19.4468840364716,61.41978919109533 19.47246165332035,61.78970488326013 19.03764216750278,64.91911647303641 19.063219784322428,66.12497678431828 19.60034973733127,70.96301319138001 19.95204196847044,71.0 19.98401398950955,70.86684740111377 19.67708258779021,67.88564495163882 19.37654559026123,66.01400887784985 19.370151186041767,64.86733061391715 19.67708258779021,62.5961145809124 19.90088673486025,61.39019585456845 19.990408393729012,61.39019585456845 19.875309118098812,61.323610803425254 20.30373419963871,58.23103802994592 20.43162228370784,57.48376988686505 20.553115963557502,57.320997591239575 20.482777517318027,57.084237239090726 20.770525706437184,54.886768496107834 20.962357832526322,54.48722160048783" stroke="#4DD2FF" stroke-linecap="round" stroke-linejoin="round" stroke-width="0.5"><title>2025-10-16 4.6km</title><desc>1760619242000</desc></polyline><polyline fill="none" points="39.7656063369941,71.0 39.772603162768064,70.45754932039563 39.954520632571075,70.23085241978697 40.64020955716842,65.56723019464698 40.75215876934817,63.470130522611726 40.01749206442037,57.68055330423522 39.625669821805786,56.878886363199854 39.71662855669274,56.741225571553514 40.038482541713165,56.78981176049274 39.884552374947816,55.21884330229659 39.54170791263459,54.7896558077191 39.58368886722019,53.979861782201624 39.21985392761417,53.0 39.56969521570136,53.83409798301 39.562698389956495,54.80585160422925 39.884552374947816,55.21884330229659 40.0314857159392,56.78171406438196 39.75161268550437,56.72503016865085 39.63966347332462,56.814104843833775 40.038482541713165,57.63196765874454 40.26937779181753,60.15028456867003 40.78014607238583,63.704943655393436 40.78014607238583,64.56322025186091 40.28337144336547,68.19055128774198 40.07346667049569,69.34025120863953 39.75860951124923,69.79364943283872 39.835574594617356,70.36848990065482 39.66065395058831,70.96761498844717" stroke="#4DD2FF" stroke-linecap="round" stroke-linejoin="round" stroke-width="0.5"><title>2025-10-14 5.0km</title><desc>1760442162000</desc></polyline><polyline fill="none" points="60.59067244184553,53.0 60.51320720356307,53.522883715202624 60.61003875141614,53.918778911327536 60.56485069572227,54.35948992386693 60.203346250462346,56.66757733162376 60.016138591308845,57.14561874006904 59.91285160696134,58.60960121928656 59.42869386772509,61.39556899483432 59.47388192341896,61.75407728993014 59.01554593027686,65.07019617006154 59.59653521733708,70.98506406692468 59.91285160696134,71.0 59.96449509912054,70.85810851336282 59.344773192948196,64.92082466166175 59.7708320034435,61.74660838495038 59.88702986083808,61.61216796544613 60.274356052221265,58.25854685304512 60.54548438618076,57.205373697586765 60.47447458442184,56.98129235650413 60.752058354904875,54.971999146997405 60.98445406972314,54.0980515063784" stroke="#4DD2FF" stroke-linecap="round" stroke-linejoin="round" stroke-width="0.5"><title>2025-10-12 5.0km</title><desc>1760269757000</desc></polyline><polyline fill="none" points="80.61156118646613,53.0 80.62450428036391,54.32544108592265 80.24915455744485,56.84895511166542 80.10030897764955,57.14847626286064 80.08736588375177,57.92722555983346 79.52434129937319,61.35661976530537 79.55669903414673,61.723510571617226 79.11016229478992,64.87570124598278 79.11016229478992,65.75170180210989 79.68612997306627,71.0 80.06147969598533,70.94010712039017 79.4207965482201,65.01047123972239 80.51448798229103,57.34316435844812 80.63744737426168,57.16345228847058 80.5792034517217,56.89388336194679 80.88983770521008,54.66241383264423" stroke="#4DD2FF" stroke-linecap="round" stroke-linejoin="round" stroke-width="0.5"><title>2025-10-11 5.0km</title><desc>1760186515000</desc></polyline><polyline fill="none" points="100.58429231276386,53.0 100.60355469671777,53.661242225862225 100.68702502711676,53.787546240506344 100.64207946459646,54.54536574674421 100.26967337512178,57.00451024670474 100.13483668756089,57.24224792933819 100.13483668756089,57.933168682553514 99.64043549983762,61.26881253547617 99.53770278548473,61.4693920607242 99.56980675872182,61.93740881382837 99.14603431211435,64.9831589716996 99.34507894614944,67.79107969695178 99.74316821416141,71.0 100.17978225008119,70.96286052370851 99.53770278548473,66.08999773445248 99.47991563368123,64.91630240272934 99.9036880803178,61.89283591874846 100.0256831785955,61.63282682272256 100.46871800912777,58.000031634837796 100.67418343780446,57.27939437243913 100.60997549135936,57.049086121071014 100.85396568788565,55.37747223654151" stroke="#4DD2FF" stroke-linecap="round" stroke-linejoin="round" stroke-width="0.5"><title>2025-10-10 5.0km</title><desc>1760093219000</desc></polyline><polyline fill="none" points="120.26169220267911,71.0 121.40659558941843,62.558792945848836 121.3248167760903,60.84585372029687 120.74418720137328,56.21792108262889 121.0058794040524,56.63434979901649 120.99770152271958,55.564881389655056 121.63557626673719,55.72577565238316 120.98952364138677,55.55541701258335 120.95681211605552,56.161135204238235 121.14490338671021,56.60595699114492 120.77689872670453,56.823634963344375 120.82596601473051,57.29684619026375 120.40889406669885,57.344167180664954 120.03271152536036,54.48593620691099 119.60746169596678,53.70984509639675 119.66470686535467,53.54894734903064 120.0572451693588,53.66252225840435 120.03271152536036,53.113575579205644 119.869153898675,53.0 118.36442373326281,53.24608024649933 119.86097601731308,53.04732317484013 120.04906728799688,53.21768640508526 120.0654230506916,53.63412854405033 119.67288474665838,53.53001818397024 119.63199533999432,53.70038053073222 120.11449033868848,54.78879927516391 120.4416055920301,58.40415106108412 120.89138906536391,61.139232288369385 120.9486342347227,62.41683785411442 120.09813457599375,68.53017443662975" stroke="#4DD2FF" stroke-linecap="round" stroke-linejoin="round" stroke-width="0.5"><title>2025-10-08 5.0km</title><desc>1759920144000</desc></polyline><polyline fill="none" points="140.6522112149396,53.0 140.64151922782185,54.051619571044284 140.82328300911468,54.10110732708563 140.7270551249385,55.33829469135526 140.1176118584699,59.48278077421128 139.9037721158238,59.97763535741251 139.75408429605886,62.34053826719901 139.1874089781195,66.11366513749817 138.9308012869442,66.91775903272355 138.9735692354152,67.57340089532954 138.49242981459247,71.0 138.94149327406194,66.93012966657989 139.05910513253184,66.73219937422982 139.68993237323593,66.73219937422982 140.5559833307634,60.64568585500092 140.80189903482096,60.02712070514826 140.70567115064478,59.655980107076175 141.31511441711336,55.177461044899246 141.50757018540753,55.00425534185342" stroke="#4DD2FF" stroke-linecap="round" stroke-linejoin="round" stroke-width="0.5"><title>2025-10-07 3.0km</title><desc>1759844077000</desc></polyline><polyline fill="none" points="160.625398615608,53.0 160.70276751648635,53.04476303512638 160.61250379876583,53.611759117666224 160.7156623332994,53.64906133803015 160.6511882492341,54.45478467189969 160.29658078678767,56.86444151183241 160.14829039337928,57.19268585972168 160.03868445043918,58.7294467011161 159.68407698802184,61.12404391678865 159.56157622821047,61.37767269397591 159.60670808711438,61.750654598763504 159.16828431535396,64.6896857433021 159.14249468172784,65.76382006708445 159.72276143843192,71.0 160.10315853453358,70.94778922160913 159.8065777477459,68.29990823429398 159.85815701499814,68.09105722273671 159.49710214417428,66.0845654656805 159.47131251051906,65.21183633473265 160.85750531830126,55.42462510673067" stroke="#4DD2FF" stroke-linecap="round" stroke-linejoin="round" stroke-width="0.5"><title>2025-10-06 5.0km</title><desc>1759755043000</desc></polyline><polyline fill="none" points="183.73479171463987,70.89656125801412 183.7965967784403,71.0 184.42347671161406,70.85518573033914 184.57357472385047,70.58624437088292 183.84074325265829,68.9518923999276 183.95552408549702,68.79673097288469 182.68410562939243,66.04516048127698 182.0660549910972,65.22794971503754 181.84532262024004,64.44176577728649 181.84532262024004,63.04523913684534 183.29332697292557,62.66248388355598 183.3021562678041,62.38317504360748 180.21190307603683,59.714183378186135 178.30477539193816,57.458931670495076 177.94277430378133,56.786484094001935 175.99150014552288,54.386325524894346 175.42642527620774,53.0 176.22106181120034,54.6035837004747 177.70438334328355,56.32094073515327 178.35775116091827,57.407205099239945 180.55624557455303,59.9003944802389 181.74820037704194,60.67627022733359 183.11674107628642,62.207313509883534 182.99313094862737,62.46593330218457 181.527468006243,62.79696563098696 181.75702967192046,63.24178854535421 181.73937108222162,64.34866462622449 181.91595697891898,65.0831268364127 182.85186223126948,66.60375628779002 183.73479171463987,68.68294576885091 180.71517288155155,69.74838382213784" stroke="#4DD2FF" stroke-linecap="round" stroke-linejoin="round" stroke-width="0.5"><title>2025-10-04 5.0km</title><desc>1759568734000</desc></polyline><polyline fill="none" points="19.802407777140616,75.50442067741824 19.81652150733862,75.28942210126115 19.350768410600722,75.16538419009885 17.014946061739465,75.0 19.32254095020471,75.18192258972704 19.83769210265018,75.33903721019306 19.81652150733862,75.57884312262468 20.26110400876496,76.14114373412303 20.16230789734982,76.25691100109543 20.232876548398053,76.5380593586815 20.402241310832324,76.72824737570772 22.985053938260535,83.36799758615962 19.872976428159745,84.51728644247487 20.232876548398053,86.11303338957077 20.910335598193342,88.27096022650949 21.206723932467867,89.93277102836146 21.71481821985799,91.0984976675245 21.517225996998604,91.30518496040895 21.67953389431932,91.5862787954029 21.81361433127313,92.30554367879813 21.72893195002689,92.12366123453103 21.510169131855946,92.05752205820318 21.28434944860055,92.17326557980414 21.220837662694976,92.38821737621765 21.53839659228106,92.95039618311421 21.799500601075124,93.0 21.968865363509394,92.81811918313178 21.95475163331139,92.56183185413829 21.67247702923487,92.09885905000556 21.46782794126193,92.04098725530639 21.305520043883007,92.14019601978362 21.24200825797743,92.47089098555443 21.54545345736551,92.95039618311421 21.84889865675359,92.97519809551886 21.990035958820954,92.61970326044684 21.735988815140445,92.16499819111777 21.390202425129246,92.06578945832734 21.227894527779426,92.42128683051124 21.383145560044795,92.77678257440857 21.623078973498195,92.99173269939638 21.88418298229226,92.95039618311421 21.99709282393451,92.74371327157132 21.81361433127313,92.24767203822557 21.52428286205395,92.05752205820318 21.263178853318095,92.181532967581 21.298463178798556,92.60316857734142 21.63013583861175,93.0 21.96180849839584,92.83465382046415 21.968865363509394,92.59490123445721 21.644249568809755,92.09059165341023 21.390202425129246,92.07405685756385 21.249065123090986,92.1980677405154 21.333747504337225,92.62797060067533" stroke="#4DD2FF" stroke-linecap="round" stroke-linejoin="round" stroke-width="0.5"><title>2025-10-02 5.0km</title><desc>1759403720000</desc></polyline><polyline fill="none" points="39.624950193130644,93.0 40.04953488014871,90.30598840441962 40.25475081219338,90.18315898112633 40.69348832211108,86.9649613682268 40.74302320223069,85.44998923863022 40.26890363509301,82.4117700831921 40.021229234320344,79.67645589262975 39.9150830625731,79.26696972662467 39.589568135881564,78.74282439627859 39.67448507327936,78.61178753072454 40.00707641142071,78.66911618563608 39.851395359495655,77.07208839061059 39.51172760987538,76.65439897367469 39.554186078574276,75.7944433527664 39.24990038626129,75.0 39.561262490053196,75.85996410420194 39.51172760987538,76.62982894051675 39.851395359495655,77.07208839061059 40.00707641142071,78.66911618563608 39.66740866180044,78.61997734105535 39.624950193130644,78.74282439627859 40.03538205721998,79.65188678137201 40.75009961370961,85.68747323912248 40.63687703051255,87.52999773333431 39.90093023964437,92.41043677189737 39.787707656476414,92.41862517959089 39.72401995342807,92.65608864113892" stroke="#4DD2FF" stroke-linecap="round" stroke-linejoin="round" stroke-width="0.5"><title>2025-09-30 5.0km</title><desc>1759224370000</desc></polyline><polyline fill="none" points="59.730379854066996,93.0 59.772398578119464,92.4327499938372 59.93347035362967,92.31929950841004 60.6337824210641,87.67579471338831 60.76684171389206,85.92529340171313 60.059526525757974,79.9360190298321 59.92646723293001,79.39299085007951 59.62533304392127,78.87427391026722 59.674354888673406,78.77701410824375 60.03151404307573,78.83374900717172 59.86343914686586,77.17221024011815 59.527289354475215,76.80747758188954 59.56230495785712,75.94832294592197 59.22615516546648,75.0 59.54129559581634,75.76190137755475 59.534292475145776,76.79937239275023 59.87044226753642,77.2046308400968 60.04552028438775,78.80132906987274 59.96148283628281,78.86616893129394 59.674354888673406,78.76080412969168 59.63233616462094,78.85806395149848 60.04552028438775,79.81444587815349 60.241607663279865,82.25397831849841 60.738829231180716,85.25263684258243 60.773844834562624,86.45206867228262 59.947476594970794,92.48137158103782 59.78640481943148,92.5299931385889 59.70937049202621,92.9108609805262" stroke="#4DD2FF" stroke-linecap="round" stroke-linejoin="round" stroke-width="0.5"><title>2025-09-28 5.0km</title><desc>1759056716000</desc></polyline><polyline fill="none" points="80.54428859255859,75.0 80.58964597526938,75.6298117194674 80.68684036677587,75.63730944564304 80.62852373183705,76.38707821701246 80.23974616575288,78.89125070165028 80.10367401764961,79.18364853528328 80.10367401764961,79.89589482058364 79.52050766849425,83.43453235110064 79.57234467731905,83.75689979613526 79.11229122406803,86.94301394087233 79.13820972849499,88.14245657841093 79.6954575732234,92.94003227640496 80.08423513933667,93.0 79.76673346033203,90.33138915974268 79.82505009527085,90.1664718422544 79.48162991186837,87.92505904631253 79.45571140747052,86.93551736311201 80.4989312098478,79.52102921147161 80.654442236264,79.23613007509994 80.59612560135429,79.01870631001657 80.88770877593197,76.7469645213423" stroke="#4DD2FF" stroke-linecap="round" stroke-linejoin="round" stroke-width="0.5"><title>2025-09-27 5.0km</title><desc>1758971882000</desc></polyline><polyline fill="none" points="99.72638571128482,93.0 99.79654322122224,92.45608108815213 99.97895274701295,92.26124356216314 100.77874836017145,86.13985596117709 100.01403150198166,79.66886058036471 99.62816519738408,78.8812632417903 99.68429120531073,78.7757083689794 99.96492124503129,78.89750244061725 100.02806300396333,78.84066523029469 99.87371648213593,77.24108714931936 99.52994468348334,76.80261852627154 99.56502343848115,75.90131435039075 99.21423588882317,75.0 99.57203918942832,75.88507454222417 99.55099193647038,76.84321757399448 99.90177948612836,77.29792549823469 100.04209450597409,78.83254562551883 99.68429120531073,78.7757083689794 99.66324395238189,78.90562203877926 100.0771732609137,79.87996782517439 100.37183480258682,82.96531772155868 100.78576411117683,85.80698191402189 100.69455934825237,87.41450716850522 99.95790549405501,92.30995298819471" stroke="#4DD2FF" stroke-linecap="round" stroke-linejoin="round" stroke-width="0.5"><title>2025-09-25 5.0km</title><desc>1758803583000</desc></polyline><polyline fill="none" points="120.5345694248681,75.0 120.54104905424174,76.39457586595381 119.97732129713404,79.64848373136192 119.9708416677604,80.65311754227878 119.45895094575826,83.40454460914043 119.49782872211654,83.74940289370716 119.03777503527817,87.11543501838605 119.25808243462234,89.96407281215215 119.64038056874415,93.0 120.00971944408957,92.94003227636858 119.36823613426532,87.07045564542932 120.96222496475093,76.29710636640084" stroke="#4DD2FF" stroke-linecap="round" stroke-linejoin="round" stroke-width="0.5"><title>2025-09-23 5.1km</title><desc>1758638106000</desc></polyline><polyline fill="none" points="139.86069011726067,93.0 139.77710418761126,92.96776003399282 139.79800067003816,92.29877778245282 139.9512415410427,92.15369654965616 140.28558525966946,90.17089310484153 140.77316984932986,85.90689175949956 140.020896482456,79.65959484272025 139.63082881071023,78.85345615795086 139.71441474035964,78.75671896491986 140.0417929648538,78.78896470904874 139.88855209379108,77.19278463096998 139.5542083751934,76.81388868039357 139.5681393634586,75.84648654937337 139.20593366830144,75.0 139.58207035178202,75.91904211871588 139.561173869326,76.82195031522133 139.89551758795278,77.17666143591487 139.87462110555498,77.71678668488312 140.05572395314812,78.78090327423706 139.72138023449224,78.7405960879405 139.66565628140233,78.84539472969482 140.08358592967852,79.82082159604761 140.37613668345148,82.91631168380263 140.79406633172766,85.67313080356689 140.67565293141524,87.44647256533062 140.0487584589864,91.5975493656515" stroke="#4DD2FF" stroke-linecap="round" stroke-linejoin="round" stroke-width="0.5"><title>2025-09-21 5.0km</title><desc>1758459157000</desc></polyline><polyline fill="none" points="151.01831129199127,78.37475195724983 151.0,78.90446356074972 151.5768056968809,78.87268094040337 151.73245167854475,78.99981136353017 152.0620549339219,78.8832751482405 154.44252288911957,78.87268094040337 154.653102746699,78.99981136353017 156.3194303154014,78.98921716754558 156.56663275690516,79.10575326441904 157.1525940997526,78.95743457304343 160.2288911496289,78.95743457304343 161.83112919633277,78.98921716754558 162.00508647004608,79.12694163167907 163.17700915568275,79.04218813683838 169.0,79.22228923106013 168.4231943032355,83.56580963526358 168.11190233984962,84.0425264659134 162.03255340800388,84.01074541168782 161.6937945066602,89.62524804275017 161.99593082407955,84.38152377513325 167.3336724313558,84.4133047163632 168.12105798581615,84.56161564741342 168.40488301118603,83.62937200527813 168.6246185147902,81.84961099945212" stroke="#4DD2FF" stroke-linecap="round" stroke-linejoin="round" stroke-width="0.5"><title>2025-09-20 5.0km</title><desc>1758380898000</desc></polyline><polyline fill="none" points="180.6243635523715,75.0 180.50850227460614,75.14151495879923 180.51493901226786,75.6479873094504 180.61149007704807,75.7075720618086 180.55355943820905,76.43748134750058 180.16735517900088,78.97721109895065 179.98068978704396,79.64750632859068 180.01287347532343,80.16139518770797 179.56230183958542,83.22231072484283 179.45287729948177,83.37870443778229 179.49793446302647,83.73617452901817 179.06023630258278,86.90119827391027 179.09241999086225,88.10014806473919 179.62666921608616,93.0 179.9485060987936,92.99255366486614 180.01931021295604,92.90319758416445 179.74253049385152,90.01395897911425 179.40782013587886,87.98099865214317 179.40782013587886,86.7522590429653 180.43769816041458,79.48365694951644 180.5793063887977,79.23043446155498 180.52137574992958,79.021897638253 180.93976369741722,76.2661767597092" stroke="#4DD2FF" stroke-linecap="round" stroke-linejoin="round" stroke-width="0.5"><title>2025-09-18 5.2km</title><desc>1758195038000</desc></polyline><polyline fill="none" points="19.60396677427343,114.8458937524847 19.589947899017716,115.0 19.751164964371128,114.96755660420604 19.821259340591496,114.38357322482625 19.97546696831705,114.27813132595475 20.683420168294106,109.4276533905213 20.788561732682865,108.03247805531282 20.03855190690956,101.70521397983248 19.63901396235451,100.8858777071946 19.709108338633087,100.73174420068972 20.045561344566522,100.80475484616909 19.905372592096683,99.23906746844295 19.547891273279674,98.8172189821853 19.58293846138986,97.92483983356215 19.211438267317135,97.0 19.60396677427343,97.95729015932011 19.58293846138986,98.8253314741014 19.905372592096683,99.21473011639318 20.052570782165276,100.8128671359882 19.709108338633087,100.74796879437054 19.660042275238084,100.87776542481879 19.99649528117152,101.46995987161063 20.122665158414748,102.07026208472962 20.346967162389774,104.60932824826159 20.781552295025904,107.46466715620772 20.788561732682865,108.73006877187436 20.431080413836753,111.33381282278424 20.28388222376816,112.22604202100047 20.108646283188136,112.38826443997095 19.92640090495115,114.05102522452944 19.76518383959774,114.45657138088427" stroke="#4DD2FF" stroke-linecap="round" stroke-linejoin="round" stroke-width="0.5"><title>2025-09-16 5.1km</title><desc>1758026219000</desc></polyline><polyline fill="none" points="40.75403441031813,97.0 40.59291594658862,97.07457414198143 40.573581730917795,97.55184685628774 40.68958702485543,97.68607924797107 40.64447385497624,98.41689574021439 40.26423428056296,100.97469615956652 40.135339509521145,101.19840624316566 39.993555261491565,103.1521119962199 39.561757778632455,105.40402892921702 39.59398147134925,105.80668229299772 39.14929451144417,109.25151525310503 39.755099935107864,115.0 40.10956055537099,114.92544406375237 39.484420916007366,108.97563631591038 39.85177101334557,106.26898528364109 40.0322236927459,105.61281243054691 40.386684312979924,102.52573871555069 40.573581730917795,101.39974473546317 40.68314228625968,101.22823420279019 40.6380291164096,100.84792680956889 40.850705488584936,99.4236208282091" stroke="#4DD2FF" stroke-linecap="round" stroke-linejoin="round" stroke-width="0.5"><title>2025-09-14 5.0km</title><desc>1757842188000</desc></polyline><polyline fill="none" points="60.49183781770989,97.0 60.60185417169123,97.97349012749328 60.16178875582409,100.92383551284001 59.97411379904952,101.59026773840014 60.02588620092138,101.8673220589917 59.695837139035575,104.34578870957921 59.45638978036004,105.39405768526922 59.488747531577246,105.79089847931755 59.04221056547249,109.10780496994994 59.26224327340606,111.98283569532214 59.64406473713461,115.0 60.02588620092138,114.91764727800182 59.36578807712067,109.14524098618858 60.95778943452751,98.16069829320622" stroke="#4DD2FF" stroke-linecap="round" stroke-linejoin="round" stroke-width="0.5"><title>2025-09-13 5.1km</title><desc>1757760467000</desc></polyline><polyline fill="none" points="80.6845602170215,97.0 80.65226964073372,98.4123634671414 80.29061518647359,100.88580239901785 80.14853665084229,101.18470177277777 79.9870837694616,102.97060022211372 79.56730627786601,105.42894181154406 79.60605496942298,105.72782272592303 79.15398690156871,108.93324419247801 79.1669031320489,109.76259623710939 79.74167538978509,115.0 80.12270418985281,114.9477025181186 79.8643795796088,112.09369786738534 79.50918324058875,109.99421540850017 79.48335077957017,109.14245099525579 80.52310733566992,101.62557613203535 80.6781021017814,101.19964670958143 80.62643717974424,101.00536229426507 80.84601309843129,99.4734864293714" stroke="#4DD2FF" stroke-linecap="round" stroke-linejoin="round" stroke-width="0.5"><title>2025-09-11 5.0km</title><desc>1757592265000</desc></polyline><polyline fill="none" points="99.6399872249167,114.92719921069511 99.7797980113537,114.85439835482248 99.80076962933526,114.32861241891078 99.96155203375383,114.21536576279323 100.05941958425683,113.64104095492803 100.27612630324438,111.59446956736792 100.70953974119038,109.15954731519741 100.76546405575937,107.476899708563 100.03145742692868,101.6278045622239 99.6329966855701,100.87540011727106 99.70290207880316,100.74595347390277 100.04543850559276,100.77022473557736 99.89164664049167,99.2411207896439 99.54911021370208,98.79613793038152 99.59804398898268,97.98707180973724 99.23453594421153,97.0 99.59105344963609,97.8818926097083 99.55610075304867,98.8365910204302 99.89164664049167,99.20875848379364 100.03844796627527,100.7944959898523 99.69591153948568,100.74595347390277 99.6329966855701,100.85112888769072 99.87067502251011,101.1666542948442 100.06641012357431,101.765340089456 100.3670033144299,104.98522156006948 100.76546405575937,107.59015595259552 100.70953974119038,109.25662205327535 99.87067502251011,114.95146614787518 99.71688315743813,115.0" stroke="#4DD2FF" stroke-linecap="round" stroke-linejoin="round" stroke-width="0.5"><title>2025-09-09 5.2km</title><desc>1757417515000</desc></polyline><polyline fill="none" points="120.62966559786582,97.0 120.57800072830287,97.56793777661369 120.72653722832911,97.60530195025785 120.63612370658666,98.52445464474295 120.29384394569206,100.80360485976416 120.12593311956152,101.25942642801965 119.91281553261797,103.5683808144895 119.53824522826471,105.47377402829443 119.57053577172337,105.8697907370879 119.13784248908632,108.93324419442797 119.12492627170286,109.84478377026971 119.37679251085501,112.18335414879402 119.71907227174961,114.95517358923826 120.09364257610287,115.0 120.0807263586903,114.70862784209021 120.2809277283086,114.52185021105834 120.2809277283086,114.41725453061372 119.97093851087266,114.1931204291177 119.47366414126009,109.12750767386751 120.45529666310176,102.04403070845001 120.66841425007442,101.30426118378819 120.6038331630989,101.02030726904195 120.87507372832624,99.05501723112684" stroke="#4DD2FF" stroke-linecap="round" stroke-linejoin="round" stroke-width="0.5"><title>2025-09-07 5.0km</title><desc>1757247375000</desc></polyline><polyline fill="none" points="139.5256644608744,114.94265544975497 139.68849606389995,115.0 139.73097387334565,114.4265526622039 139.9362832858169,114.11525097064441 140.61592823735555,109.56847084360197 140.74336166577996,107.83161506291071 139.97168146035983,101.51471545678942 139.56106263547554,100.73633428722678 139.6318589845905,100.62981838441192 139.97168146035983,100.68717311880027 139.82300912719802,99.08941881715145 139.49026628633146,98.65515191567101 139.5256644608744,97.83577402903029 139.25663833422004,97.0 139.5256644608744,97.75383578204492 139.49734592126333,98.6469581780475 139.8300887621008,99.04025664390065 139.99292036509723,100.6707860559909 139.61769971478498,100.60523777145136 139.58230154018383,100.71994723441458 139.84424803190632,101.11323558195 140.01415926983464,101.71135793098802 140.26902612665435,104.48888162234653 140.7362820308772,107.66775881198555 140.7362820308772,108.6426985995713 140.24778722194606,112.13272251950548 139.8938054763421,114.36101556386711 139.73097387334565,114.59039517493511" stroke="#4DD2FF" stroke-linecap="round" stroke-linejoin="round" stroke-width="0.5"><title>2025-09-04 5.0km</title><desc>1756985562000</desc></polyline><polyline fill="none" points="160.53199489347753,97.04504300308326 160.60984780464787,97.0 160.65526200289605,97.10510029779834 160.62931103250594,97.55552845207421 160.70067620111513,97.55552845207421 160.6487742603058,98.36629220977193 160.2984361597628,100.6483942812265 160.06487742604804,101.56421805726859 160.0973161390284,101.92453905446746 159.53937027516076,105.3625135467737 159.57180898822844,105.67777831109561 159.13064249118906,108.7853161730527 159.1695689468179,110.30901284753782 159.70156384026632,114.9924946582978 160.00648774259025,115.0 160.0713651686383,114.90993584925309 159.76644126628526,112.25299404140969 159.8442941775429,112.08036457510025 159.63668641421827,111.10462523026945 159.4485418787226,109.04802473708696 159.80536772191408,106.24825398997928 159.99351225740975,105.53515870333649 160.34385035798186,102.41997755683406 160.53848263603868,101.28646942276828 160.6487742603058,101.13633459104312 160.58389683428686,100.93365208435716 160.86935750881094,98.80920569004229" stroke="#4DD2FF" stroke-linecap="round" stroke-linejoin="round" stroke-width="0.5"><title>2025-09-02 5.1km</title><desc>1756811867000</desc></polyline><polyline fill="none" points="180.52250557861407,97.0 180.496380299679,98.32256637187675 180.15022035382572,100.73335542801942 179.93468680261867,101.55708675743517 179.94121812234516,102.19943972120382 179.4121812240046,105.41867808219104 179.0007080808282,109.0533783902647 179.02683335970505,110.15659949354449 179.54280761867994,114.38042500505253 180.05225055781193,115.0 179.93468680261867,114.93955388607719 179.84324832636048,114.22175253045862 179.64730873439112,112.34788057651895 179.69955929223215,112.15897957621928 179.35339934640797,109.94502411117719 179.34033670692588,108.87958179371344 180.39187918396783,101.44372977629973 180.53556821809616,101.14144364873937 180.61394405487226,99.8340420017048 180.9992919191427,97.74819757926161" stroke="#4DD2FF" stroke-linecap="round" stroke-linejoin="round" stroke-width="0.5"><title>2025-08-31 5.1km</title><desc>1756640573000</desc></polyline><polyline fill="none" points="20.579203275294276,119.0 20.637447180051822,120.45274208266346 20.23621139160241,122.9612756864808 20.10030894711963,123.18591632167227 20.035593497363152,123.6351955381615 19.977349592605606,124.78084514540387 19.614943073975155,127.2592810823262 19.51786989934044,127.42400801015901 19.556699169188505,127.78341093871131 19.116634110891027,130.86821401750058 19.14252029079944,132.14103204247658 19.653772343852324,136.58074882145593 20.14560976193752,137.0 20.042065042362083,136.83529446410103 19.789674788335105,133.96786186834652 19.47256908455165,132.05867389396735 19.47256908455165,130.643596791022 19.97087804763578,127.61868481394049 20.339756111206952,124.4588669893783 20.637447180051822,123.22335636096977 20.59214636523393,122.9388115853144 20.883365889108973,120.7672494843282" stroke="#4DD2FF" stroke-linecap="round" stroke-linejoin="round" stroke-width="0.5"><title>2025-08-30 5.0km</title><desc>1756550382000</desc></polyline><polyline fill="none" points="39.636165208386956,136.99190374834143 39.88105401041685,137.0 40.664698177046375,131.55103658699954 40.77664734367863,129.72923463044572 40.31485703124781,126.47417807111924 40.11894598955405,124.0125544224793 40.000000000029104,123.47001529365662 39.643162031279644,122.91127710370347 39.692139791703084,122.78171406496404 40.05597458334523,122.83839792034269 39.88105401041685,121.1945497326742 39.55920015624724,120.8625368664143 39.58019062504172,119.88268594590772 39.22335265629226,119.0 39.58718744793441,119.92317589218874 39.54520651043276,120.8220473977708 39.88105401041685,121.21884330269677 40.04198093750165,122.82220253721607 39.692139791703084,122.78981176106026 39.643162031279644,122.8950817353907 39.93702859376208,123.35664844168059 40.125942812504945,124.13401790019998 40.328850677091395,126.68470814086322 40.77664734367863,129.61587668731954 40.69268546873354,131.3324225520846 39.979009531234624,136.23085241995432" stroke="#4DD2FF" stroke-linecap="round" stroke-linejoin="round" stroke-width="0.5"><title>2025-08-28 5.0km</title><desc>1756381580000</desc></polyline><polyline fill="none" points="60.60902717438876,119.0 60.75725601051818,119.76811003351759 60.73147708250326,120.46909664043778 60.33190369824297,122.97469616110902 60.19011959413183,123.2356911924071 60.170785398135195,124.05595524932869 59.60364898177795,127.39657236682251 59.648762105818605,127.82159534034872 59.216965061525116,130.63265024788416 59.18474140149192,131.77344554387673 59.28785711355158,131.8927433747158 59.24918872152921,132.37738881937548 59.738988353841705,136.60485267570039 60.28034584218403,137.0 60.1063380780688,136.84343244656338 59.50697800167836,131.90765558993735 59.48119907369255,130.94581150582962 59.925885581964394,127.80668229520961 60.03544602607144,127.65009513837867 60.138561738102,126.33773250403465 60.589692978421226,123.75767847098177 60.55746931838803,123.407201707676 60.679919226444326,123.2431481796666 60.628361370414495,123.0194382323898 60.815258598537184,121.7368213738664" stroke="#4DD2FF" stroke-linecap="round" stroke-linejoin="round" stroke-width="0.5"><title>2025-08-26 5.0km</title><desc>1756206850000</desc></polyline><polyline fill="none" points="80.5662604153622,119.0 80.57920351056964,119.61404911642603 80.68274827225832,119.63651423098781 80.62450434381026,120.40032405162492 80.26209767797263,122.88639532199886 80.13913827348733,123.16345228834689 79.99029267858714,124.84823574349866 79.54375589388655,127.38657010345196 79.47256887023104,128.562111272302 79.14251994242659,130.77087996923365 79.20076387087465,132.440515442795 79.69907303640503,136.89518742878863 79.71848767920164,137.0 80.10678053548327,136.955080344851 79.8285039884795,134.05021788403246 79.48551196543849,132.07364810892614 79.45315422740532,131.07036893548502 79.86733327410184,128.0080368784038 80.01617886900203,127.5812470061137 80.5144880345033,123.50041206009337 80.6633336294326,123.20089233903127 80.61156124860281,122.9612756858769 80.85748005754431,121.09673198908422" stroke="#4DD2FF" stroke-linecap="round" stroke-linejoin="round" stroke-width="0.5"><title>2025-08-24 5.0km</title><desc>1756042259000</desc></polyline><polyline fill="none" points="99.77052801739774,137.0 99.9713160021638,136.70957506886043 100.66690294942237,131.97135386590526 100.7959809396707,129.88844107749173 100.41591796846478,127.49012108822353 100.03585499728797,123.83026516121754 99.61993702885229,122.98374450433766 99.72033102123532,122.8675547093153 100.0286839978362,122.90075181049178 99.87092200978077,121.27407797389606 99.52671403589193,120.8840034078894 99.58408203150611,120.04575175572973 99.19684806087753,119.0 99.5625690331799,119.88805988865352 99.54105603476637,120.89230288613908 99.88526400868432,121.29897628714389 100.05019699619152,122.90905108365405 99.96414500274113,122.9920437690671 99.66296302553383,122.88415326158429 99.66296302553383,123.00034303295979 99.94263200435671,123.5065965349786 100.10039399238303,124.1207359124528 100.28683997827466,126.3780733771273 100.80315193909337,129.97142666717264 100.68841594780679,131.86347522555297 99.89960600761697,136.9336172496769" stroke="#4DD2FF" stroke-linecap="round" stroke-linejoin="round" stroke-width="0.5"><title>2025-08-23 5.0km</title><desc>1755956696000</desc></polyline><polyline fill="none" points="120.63547006476438,119.0 120.64198770644725,119.49775452424365 120.72671704844106,119.58825498821534 120.69412883999757,120.34242122989963 120.30307033855934,122.77078446850646 120.15968222139054,123.07998029737064 119.8272824951855,126.17940878979425 119.6578238112852,127.20498193983076 119.54702390253078,127.31055484219542 119.5991650360811,127.68005881842691 119.12989483439014,131.23172774412524 119.72951786985504,136.87936098423233 119.74907079493278,136.96984026442078 120.10102344618645,137.0 119.4557769188832,131.08091723063262 120.4269055306795,124.02264255887712 120.55074072279967,123.25343105212232 120.66805827320786,123.11014567511302 120.61591713971575,122.82357409142423 120.87010516558075,120.86279146892048" stroke="#4DD2FF" stroke-linecap="round" stroke-linejoin="round" stroke-width="0.5"><title>2025-08-21 5.0km</title><desc>1755781186000</desc></polyline><polyline fill="none" points="140.5017538338143,119.0 140.52117656290648,120.3934153112059 140.1327219818486,122.89550358931592 139.99676287846523,123.15769355411612 139.9384946913051,123.59966881306173 140.009711364517,123.81690991843061 139.40760676388163,127.36758761899546 139.4464522220078,127.74212171293766 139.01915218285285,130.8132295452233 139.04504915489815,132.1090488804839 139.58888556837337,137.0 139.9643916633795,136.9325924638615 139.70542194269365,134.09393031309446 139.36876130578457,132.07159777406196 139.3493385767215,130.64095127178007 139.7701643728651,127.77957501771743 139.88022650414496,127.61478033440653 140.32694927236298,123.89182049604278 140.54059929194045,123.17267580965563 140.54707353495178,122.34864723412466 140.98084781714715,119.59183015047165" stroke="#4DD2FF" stroke-linecap="round" stroke-linejoin="round" stroke-width="0.5"><title>2025-08-19 5.3km</title><desc>1755607955000</desc></polyline><polyline fill="none" points="159.80496620378108,136.91134006194625 160.11841337627266,137.0 160.11841337627266,136.4035585078018 160.2368267525162,136.13757639637333 160.38310209970223,134.29985743787256 160.80799715570174,131.5190175207099 160.76620419937535,129.6973130037586 160.29255069431383,126.64223670910724 160.07662041994627,124.12715152443707 159.94427605820238,123.46612230624305 159.60296691491385,122.89376328713115 159.6795873348019,122.75671896518907 160.01393098544213,122.82927187102177 159.8676556382852,121.32177007346036 159.50545001678984,120.83001194937242 159.533311987645,119.87873347735876 159.19200284429826,119.0 159.56117395855836,119.91904211878864 159.51938100220286,120.82195031536685 159.84675916010747,121.17666143608949 160.01393098544213,122.82121044032101 159.66565634938888,122.77284183888696 159.630828885769,122.87764043802599 160.03482746361988,123.80469893578265 160.24379224525183,126.23112247014069 160.75923870666884,129.79404172927025 160.75227321393322,130.62429177048762 160.2368267525162,134.19507393342064 160.08358591265278,134.26761637432355 159.98606901455787,134.50942403145018 159.80496620378108,135.69427089524834" stroke="#4DD2FF" stroke-linecap="round" stroke-linejoin="round" stroke-width="0.5"><title>2025-08-17 5.0km</title><desc>1755429603000</desc></polyline><polyline fill="none" points="179.74111752575845,136.9595187335217 179.65015881863656,137.0 179.75511117302813,136.89474866437376 179.87405717471847,135.11355112918682 179.97201270548976,134.49012258402945 180.29386659237207,134.2229374284434 180.28686976872268,133.60759851037437 180.72067283361685,131.1623889988623 180.7836442462867,130.0612105356122 180.02099047086085,123.67245569921215 179.6221715240972,122.89508173525246 179.69913658400765,122.80600715063338 180.03498411813052,122.83030022904859 179.88805082195904,121.25933256946155 179.55220328780706,120.83824318762345 179.57319375872612,119.92317589215236 179.2163557537424,119.0 179.59418422961608,119.93937186490803 179.54520646418678,120.79775370663992 179.88105399830965,121.19454973259417 180.0489777654002,122.82220253706328 179.69213976038736,122.78171406481852 179.64316199498717,122.9031794198163 180.06297141264076,123.7696269111475 180.7836442462867,129.6806526743676 180.77664742263732,130.64418926530925 180.30786023961264,134.0933927880178 179.9580190582201,136.32800831341592 179.8110857620777,136.4413567061274 179.7621079966775,136.78140091669047" stroke="#4DD2FF" stroke-linecap="round" stroke-linejoin="round" stroke-width="0.5"><title>2025-08-16 5.1km</title><desc>1755350047000</desc></polyline><polyline fill="none" points="19.895000417658594,158.9514006132158 19.64300141998683,159.0 19.762000946648186,158.8785014774985 20.09799961023964,156.36749054866232 20.28699885844253,156.27028853527736 20.244999025482684,156.00298238729738 20.74899702082621,153.03015358735865 20.78399688162608,151.7421633565391 20.027999888610793,145.69076077497448 19.650001392146805,144.92923980825435 19.727001085848315,144.78341581407585 20.03499986079987,144.8320238417873 19.881000473338645,143.23604476632318 19.55200178193627,142.86337499705405 19.601001587026985,142.06131892801204 19.209003146213945,141.0 19.573001698416192,141.85067660131608 19.566001726256218,142.82286730838678 19.881000473338645,143.20363876863848 20.06299974943977,144.82392250589328 19.69900119723752,144.79151715409535 19.66400133643765,144.9049358277698 19.96500013920013,145.39101402905362 20.09099963805056,145.87708926485357 20.314998747082427,148.47754140741017 20.755996993015287,151.41003671350336 20.790996853786055,152.5846247303416 20.258998969831737,155.9948821869839 20.30099880276248,156.2378878378222 20.076999693759717,157.48530518261396 19.895000417658594,157.89840662368078" stroke="#4DD2FF" stroke-linecap="round" stroke-linejoin="round" stroke-width="0.5"><title>2025-08-14 4.9km</title><desc>1755170321000</desc></polyline><polyline fill="none" points="40.73526035586838,141.01505828869995 40.57909886431298,141.0 40.624645966046955,142.36276273598924 40.24725569484872,144.9225807852854 40.11061438979232,145.1936151666523 40.11061438979232,145.90131137813296 39.72671738979989,148.60404642499634 39.60308954239008,149.34182326922019 39.50548861018615,149.40204962618736 39.56404916950851,149.7784632484545 39.115084881399525,152.87251079228008 39.1541252542811,154.18988843089755 39.70069047456491,158.93978143978165 40.071574016910745,159.0 39.4339145932463,153.03812526767433 40.494511389755644,145.52487806438148 40.64416615245864,145.2162013203415 40.57909886431298,144.95269576551073 40.88491511857137,142.81450175839564" stroke="#4DD2FF" stroke-linecap="round" stroke-linejoin="round" stroke-width="0.5"><title>2025-08-12 5.0km</title><desc>1754999139000</desc></polyline><polyline fill="none" points="60.48536069961847,141.0603087970594 60.570054512965726,141.0 60.57656942171161,142.27401291723072 60.17264508106746,144.86720239714487 60.03583199795685,145.12350108713872 59.89901891484624,146.86480110110278 59.46903493930586,149.38999043372314 59.0325360550778,153.030634564333 59.07162550740759,154.14615851492272 59.527669117815094,157.9222334161168 60.00325745437294,159.0 59.36479639977915,153.0758588343233 60.329002890357515,146.11853466997854 60.563539604248945,145.15365381597076 60.50490542576881,144.94258445667947 60.778531592019135,142.9072419677468 60.9674639449222,142.1383202746947" stroke="#4DD2FF" stroke-linecap="round" stroke-linejoin="round" stroke-width="0.5"><title>2025-08-10 5.0km</title><desc>1754830447000</desc></polyline><polyline fill="none" points="79.74404029466677,159.0 80.71879095339682,153.1979184644806 80.78190430541872,151.83457099948282 80.2629723000573,148.23944193188072 80.01753148669377,145.6180606555863 79.62482618531794,144.9200932334861 79.68092694267398,144.77400625642622 80.03856927069137,144.84704977838555 79.8842921880132,143.24007685336983 79.54768764399341,142.842386640099 79.56872542796191,141.93337299676932 79.21108309994452,141.0 79.58275061732274,141.965837948017 79.55470023863018,142.85050278672134 79.8842921880132,143.24819295953057 80.052594459994,144.82270194516605 79.6949521319766,144.80647005221545 79.65287656398141,144.89574542255286 80.052594459994,145.75603023749863 80.37517381471116,148.94549585680943 80.75385392672615,151.26650268438243 80.78891690005548,152.55682344923116 79.97545591866947,158.3183787094531 79.75105288930354,158.55370100304572" stroke="#4DD2FF" stroke-linecap="round" stroke-linejoin="round" stroke-width="0.5"><title>2025-08-09 5.0km</title><desc>1754735080000</desc></polyline><polyline fill="none" points="100.54051077715121,141.0 100.57958384539234,142.2659443807861 100.32560890191235,144.2552418919222 100.0,145.62662046950572 99.92836604159675,146.86988133261912 99.49205011304002,149.41661731127533 99.51809882521047,149.80841508629237 99.07527071863296,152.79203795787907 99.06224636253319,153.8166888406122 99.62229367380496,158.5781161152554 100.05860960233258,159.0 99.42041615460766,154.08791758801817 99.452977044828,152.48313307743229 100.38421850424493,146.07871773993975 100.50143770893919,145.34782577912847 100.61214473558357,145.2046605308933 100.56004731127177,144.8957240536838 100.93775363746681,142.34129753154411" stroke="#4DD2FF" stroke-linecap="round" stroke-linejoin="round" stroke-width="0.5"><title>2025-08-07 5.0km</title><desc>1754570205000</desc></polyline><polyline fill="none" points="120.3119554911973,141.0 120.35220781262615,141.51234840384132 120.4863822174666,141.56668818454636 120.43942117580445,141.93153999677452 120.80169206880964,141.9858794793181 120.8419443902385,142.31967830981012 120.47296477700002,144.1671896489861 120.36562525312183,145.15302826082916 120.43942117580445,145.41695140008233 120.32537293169298,145.52562536891492 120.11069388396572,146.7908894878783 119.16476432996569,153.66797101492557 119.74842299096053,159.0 119.1580556097324,153.54378541283222 119.57399626469123,150.4002701623176 119.72829683023156,149.97336305776844 120.09727644349914,146.7908894878783 120.28512061026413,145.6187743620394 120.40587757457979,145.4091889678093 120.35891653288854,145.10645349458355 120.72789614615613,142.38954299677425" stroke="#4DD2FF" stroke-linecap="round" stroke-linejoin="round" stroke-width="0.5"><title>2025-08-05 5.0km</title><desc>1754406000000</desc></polyline><polyline fill="none" points="139.72743419441395,159.0 140.03893797221826,156.41945485727047 140.2300880176772,156.27199263979128 140.52743253286462,154.27303374537587 140.74690110358642,152.66727676208393 140.7610603662324,151.66775881296053 140.24424728032318,148.12018929852638 140.04601760357036,145.76051847534836 139.86902682067011,145.14600952499313 139.60000083080376,144.76091486085352 139.6637175125943,144.63801192102983 140.0106194469845,144.6707860566603 139.84778792675934,143.0566440387338 139.51504525501514,142.7043143242554 139.54336378030712,141.7046727940251 139.2389396337967,141.0 139.5504434115719,141.8111925638441 139.51504525501514,142.62237696052762 139.86194718940533,143.0484503419284 140.01769907827838,144.6625925240005 139.92566387122497,144.74452781302534 139.58584156818688,144.6789795884688 140.03893797221826,145.63761706018704 140.3292028560827,148.7428686880594 140.7610603662324,151.69233727183018 140.75398073490942,152.70824034805264 139.92566387122497,158.37739984357904 139.8831860833452,158.51666608552478 139.69911566918017,158.52485820989386 139.62831935600843,158.83615831973293 139.43008967925562,158.81977413339337" stroke="#4DD2FF" stroke-linecap="round" stroke-linejoin="round" stroke-width="0.5"><title>2025-08-03 5.0km</title><desc>1754221111000</desc></polyline><polyline fill="none" points="169.0,149.02613251820185 168.944657955406,149.25560136774948 168.80169100691273,149.2689425182507 165.99308224441484,149.21290964059153 165.91698693312355,149.16488136458065 165.80630284396466,149.210241405337 165.44888547270966,149.2075731698169 165.41890853187942,149.17822256117142 164.78016910068982,149.2155778755714 164.46656418139173,149.16754960444086 163.45426594927267,149.16488136458065 163.0161414296599,149.09550703303648 162.7186779400363,149.0181277546926 162.70023059184314,148.98877693430404 162.2874711760087,148.9754356414578 161.3812451959966,148.8153395986228 160.04842428900884,148.80466649439222 157.26748654879339,149.1515401612105 156.8916218293598,149.32497527635496 156.48808608761465,149.44771328106253 155.40430438124167,150.10675319219808 154.83013066870626,150.39757931046734 154.4773251345032,150.49896747536695 154.26979246732662,150.50163557968153 154.0069177555706,150.4376010012711 153.72790161414014,150.5523295102048 153.63335895464115,150.36556191392992 153.52036894696357,150.44026911182118 153.42813220599783,150.26684136219774 151.85780169100326,151.19533350560596 151.73789392774052,150.89384396581227 151.25365103765216,149.96800932215774 151.20753266717657,149.9359914018969 151.0,150.03738134880223 151.1360491929081,149.93332324011863 151.20292083012464,149.92531875314307 151.22367409683648,149.8586146001253 151.30668716372747,149.86395093859755 151.41737125288637,149.78924210125479 151.44965411222074,149.82659654649797 151.53266717908264,149.77323303703452 151.5049961568002,149.82392837359657" stroke="#4DD2FF" stroke-linecap="round" stroke-linejoin="round" stroke-width="0.5"><title>2025-08-02 8.3km</title><desc>1754134728000</desc></polyline><polyline fill="none" points="180.48112953765667,141.0 180.38425781868864,141.02241867959674 180.32613478729036,141.62772044508893 180.81049338221783,141.62772044508893 180.81049338221783,142.1134528267794 179.19596473241108,152.7987537910376 179.2024228470109,153.92697120822413 179.87406676533283,159.0 179.23471342000994,154.0689311148817 179.18950661778217,152.97060259394493 180.1453075784957,146.14117160694877 180.38425781868864,145.21459164348926 180.31967667269055,145.00536229442514 180.62320805882337,142.80094548353372" stroke="#4DD2FF" stroke-linecap="round" stroke-linejoin="round" stroke-width="0.5"><title>2025-07-31 5.0km</title><desc>1753965181000</desc></polyline><polyline fill="none" points="19.64361388667021,181.0 19.721242545027053,180.34671299291222 19.918842766288435,180.1098951413369 20.638672143686563,175.15289233152726 20.716300802043406,173.3235422143116 20.34932896256214,171.1021325003312 19.96118567083613,167.43503868585685 19.587156680587213,166.71630134607403 19.66478533897316,166.61012369384116 19.975299972342327,166.6509612689988 19.84121410793159,165.02560974576772 19.481299419217976,164.6335602336112 19.523642323794775,163.72693840696593 19.2413562934089,163.0 19.53069947453332,163.7432740259319 19.50247087146272,164.64989566816075 19.84121410793159,165.07461580021481 20.003528575383825,166.63462624143722 19.911785615520785,166.71630134607403 19.629499585164012,166.60195617630234 19.601270982122514,166.7244688519786 20.024700027657673,167.66372649071127 20.271700304205297,170.4079293676914 20.7586437065911,173.91155215155595 20.25052885193145,178.141830134271 19.87649986174074,180.48553692626592 19.7424139973009,180.54269965266576" stroke="#4DD2FF" stroke-linecap="round" stroke-linejoin="round" stroke-width="0.5"><title>2025-07-29 5.0km</title><desc>1753797916000</desc></polyline><polyline fill="none" points="40.772040507232305,163.0 40.759065036516404,164.37379924071865 40.4606292101962,166.47573770905728 40.2270707374264,167.17386832929333 40.0713650888938,169.0955701637431 39.6366868201294,171.39253882277262 39.6885887029639,171.79787882238452 39.26039816951379,174.6427025637895 39.2863491109747,176.15139051205188 39.8183434100647,181.0 39.318787787720794,176.78938361408655 39.2279594927968,175.19063756865944 39.6431745555019,171.51263979514624 40.220583002083,167.84196564968443 40.162193383876,167.654298473135 40.44116600416601,166.51327178114298 40.759065036516404,163.9759255856843" stroke="#4DD2FF" stroke-linecap="round" stroke-linejoin="round" stroke-width="0.5"><title>2025-07-27 5.0km</title><desc>1753616848000</desc></polyline><polyline fill="none" points="60.51411547977477,163.0 60.53327506285859,164.58145924651035 60.182016039441805,167.07920801223372 60.04151243006345,167.3452353709945 59.84353007140453,169.51775571887993 59.48588452025433,171.49809189040388 59.51143063104246,171.87494080296165 59.04521410903544,174.94877276403713 59.62638812963269,181.0 60.009579791571014,180.94089398662618 59.73495910051861,177.97814355786977 59.42201924326946,175.9019298557323 59.40924618788995,174.79360647435533 60.29058701029862,168.57929400511057 60.58436728446395,167.33784573528828 60.52050200747908,167.04964935674798 60.95478589099366,164.41888090982684" stroke="#4DD2FF" stroke-linecap="round" stroke-linejoin="round" stroke-width="0.5"><title>2025-07-26 5.2km</title><desc>1753529066000</desc></polyline><polyline fill="none" points="80.62126863311278,163.0 80.54361005398096,163.38939759416826 80.64715482614702,163.8911183840828 80.52419540917617,165.07426731954183 80.25239038220025,166.91634747653734 80.11001632045372,167.17842831074086 80.09060167564894,167.9646652222582 79.51463388040429,171.41652042942587 79.5599347181851,171.74597321430338 79.13281253294554,174.88318847393384 79.19105646730168,176.55282140445343 79.70230877996073,181.0 80.07118703087326,180.96256695595366 79.77996735912166,178.24487719286117 79.84468284173636,178.10262620994035 79.47580459082383,175.99128988495067 79.46933304253616,174.9880095908302 80.86718746705446,165.20156702262466" stroke="#4DD2FF" stroke-linecap="round" stroke-linejoin="round" stroke-width="0.5"><title>2025-07-24 5.0km</title><desc>1753356656000</desc></polyline><polyline fill="none" points="99.68429088438279,180.96752733306494 99.77549574000295,181.0 100.08418909748434,178.43461864534038 100.28764608310303,178.30472372732038 100.23853577623959,178.05305172260705 100.7647176355822,174.79748109682987 100.7997964262322,173.81510080776206 100.27361456686049,170.34825727638236 100.05612606499926,167.78253377995134 99.63518057754845,166.89750243924937 99.69832240062533,166.76758875626547 100.04209454872762,166.83254562417278 99.8596848374873,165.2004883030313 99.55800723811262,164.87569679656008 99.5860702706268,163.99875312977383 99.2002035737678,163.0 99.5509914800059,163.80387545137637 99.54397572187008,164.84321757326688 99.86670059562312,165.18424875907658 100.04911030686344,166.78382797820086 99.95790545124328,166.8731436397793 99.71235391686787,166.77570836765517 99.63518057754845,166.8731436397793 99.88073211186565,167.22228572196036 100.05612606499926,167.80689230201097 100.37183518058737,171.03839035103738 100.77874915182474,173.6770794685508 100.77173339371802,174.75688710931718 100.00701575810672,180.07452382013435" stroke="#4DD2FF" stroke-linecap="round" stroke-linejoin="round" stroke-width="0.5"><title>2025-07-22 5.0km</title><desc>1753184035000</desc></polyline><polyline fill="none" points="111.0,174.9687195509905 111.0,172.0803347924666 112.91371340525802,163.99271693307674 128.3898305085022,166.81698797398712 129.0,167.49095801229123 126.91987673356198,179.9751905600715 113.02465331286658,177.792892441008 112.52542372886091,177.15103718347382 114.24499229586218,164.6666929986677 114.85516178735998,164.2815639944747 118.54391371353995,164.89135136760888 128.97226502315607,167.2021138863638 127.14175654866267,179.71845038753236 126.55932203389239,180.00728306692326 112.7473035439616,177.66452149386168 112.91371340525802,173.55662363601732 114.27272727282252,164.7308811204275 114.71648690290749,164.3457521944656 121.53929121734109,165.5011375633767 114.57781201857142,164.4099403814471 113.8012326657772,167.94027057220228 114.49460708792321,168.6142382133403" stroke="#4DD2FF" stroke-linecap="round" stroke-linejoin="round" stroke-width="0.5"><title>2025-07-20 4.9km</title><desc>1753020627000</desc></polyline><polyline fill="none" points="141.03458710559062,163.0 140.89879754799767,163.920306203785 140.39443633402698,165.21470115546254 139.96766915294575,167.15999181925145 139.8512781035679,168.69374246137158 139.450375600165,171.2598977211528 139.35984922840726,171.34219276600925 139.40511241430067,171.7087786668635 138.98481140262447,174.7386535058031 138.96541289440938,175.74110317716259 139.54090197189362,180.99251961675327 139.4762402778142,179.96021944504173 139.54736814132775,181.0 139.9159397976764,180.92519613334298 139.29518753432785,175.06781758857687 140.28451145405415,167.84083141246083 140.49142887516064,167.18991896658554 140.51729355280986,166.31454488242161" stroke="#4DD2FF" stroke-linecap="round" stroke-linejoin="round" stroke-width="0.5"><title>2025-07-20 5.0km</title><desc>1752942252000</desc></polyline><polyline fill="none" points="160.7761459874746,163.00805460508855 160.6647707785305,163.0 160.49074701449717,163.88600165282696 160.68565363020753,164.00681929278653 160.6717317290604,164.26456297602272 160.42809845946613,165.9076592583515 160.29584039881593,166.1895596098475 159.95475382139557,169.4031527761981 159.66935484841815,170.71593657314224 159.69719865068328,171.1025190702785 159.2029711608775,174.79911902814638 159.8712224146293,181.0 159.25169781479053,175.8299484225281 159.23777591370163,174.26759238619707 159.69719865068328,171.15084174990625 159.67631579894805,170.72399039437732 160.18446518987184,167.66347941254207 160.28887944825692,166.18150532800064 160.42809845946613,165.89155063656654 160.7970288391516,163.25774695668224" stroke="#4DD2FF" stroke-linecap="round" stroke-linejoin="round" stroke-width="0.5"><title>2025-07-17 5.0km</title><desc>1752765839000</desc></polyline><polyline fill="none" points="187.72297297301702,180.62017024712986 188.12837837846018,180.05724069090502 189.0,172.71557535391185 175.96621621621307,172.12917028802622 173.61486486485228,172.3168200712389 173.8986486486392,172.12917028802622 173.4729729729006,169.4786008035735 171.0608108107699,165.67861622768396 171.0,163.54402954618854 171.28378378378693,163.3798297528847 182.61486486485228,163.5674866499321 181.80405405408237,170.9563556866633 181.29729729727842,171.28474437574914 174.2229729729006,171.05018107409705 173.45270270272158,168.58725201355992 171.46621621621307,166.05392613090225 171.2229729729006,164.7168818149512 174.04054054047447,164.50576884645852 182.25,164.7872527615691 182.37162162165623,166.54651945258956 181.64189189195167,172.26990763975482 180.54729729727842,172.34027628338663" stroke="#4DD2FF" stroke-linecap="round" stroke-linejoin="round" stroke-width="0.5"><title>2025-07-15 4.1km</title><desc>1752589649000</desc></polyline><polyline fill="none" points="20.723366871097824,185.0 20.778219335275935,186.277351380224 20.35311273802654,188.94306086831784 20.20226846158039,189.25246768275247 20.19541190355085,190.03787947543606 19.592034797824454,193.71889615291002 19.61946102991351,194.1314130735118 19.160071642545518,197.5504598454063 19.70859628415201,203.0 19.39319461522973,200.84244003838103 19.15321508454508,197.37594136077678 20.181698787520872,189.9823455677979 20.119989765342325,189.7284757727757 20.32568650590838,188.99859551501868 20.730223429127363,186.35668928601808 20.682227522978792,186.07900626306218 20.84678491545492,185.2380173692436 20.69594063903787,185.04760353190068" stroke="#4DD2FF" stroke-linecap="round" stroke-linejoin="round" stroke-width="0.5"><title>2025-07-13 5.0km</title><desc>1752418082000</desc></polyline><polyline fill="none" points="39.84367883091909,203.0 39.75130723105394,202.9917779814714 39.80815129252733,202.34223587893212 40.120793630660046,200.3689114317458 40.30553683047765,200.20446555533272 40.62528467629454,197.96796845112112 40.79581686068559,195.65740467171418 40.326853353501065,192.44223992175102 40.08526609223918,189.75324440772238 39.943155938526616,189.2269473625929 39.64472461576224,188.74998770706588 39.708674184948904,188.62663561422232 40.04973855378921,188.6759764739545 39.90052289242158,187.11350129892526 39.55945852352306,186.68587125244812 39.58077504663379,185.7072478293776 39.3391877853428,185.0328953850185 39.18997212394606,185.0328953850185 39.31787126226118,185.0 39.55945852352306,185.60033867062884 39.55235301586799,186.69409492853447 39.86499535397161,186.98192306394049 39.90052289242158,187.14639582422387 40.04973855378921,188.65130604784645 39.70156867726473,188.63485909293377 39.623408092709724,188.72531730357878 39.936050430871546,189.17760683902452 40.07816058455501,189.67923409270588 40.36948639963521,192.8780625799991 40.81002787605394,195.59984530091606 40.80292236839887,196.65235303719965 39.936050430871546,202.57245392954792" stroke="#4DD2FF" stroke-linecap="round" stroke-linejoin="round" stroke-width="0.5"><title>2025-07-12 5.1km</title><desc>1752325602000</desc></polyline><polyline fill="none" points="59.891549178690184,203.0 59.716628499067156,202.99190374835598 60.108450821368024,200.29580619558692 60.269377846620046,200.21484089404112 60.71717478634673,197.2109700501387 60.78714305823087,195.69684666195826 60.37433025435894,192.98430766406818 60.05947303105495,189.68865090863255 59.63966340001207,188.83839791952778 59.695638017496094,188.74932327152783 60.04547937671305,188.8060071499567 59.88455235149013,187.16215829394787 59.56969512818614,186.81394950112735 59.55570147384424,185.72072595467762 59.205860114627285,185.0 59.57669195535709,185.8098039904653 59.56969512818614,186.8058516041201 59.891549178690184,187.1702561547354 60.066469858255005,188.78171406413458 59.73062215340906,188.7412255713134 59.65365705444128,188.87078867589298 60.07346668545506,189.75343171659915 60.38132708152989,192.96811312399223 60.794139885372715,195.6401676875248 60.72417161354679,197.1704858420635 60.052476203884,201.6398181816039" stroke="#4DD2FF" stroke-linecap="round" stroke-linejoin="round" stroke-width="0.5"><title>2025-07-10 5.0km</title><desc>1752149320000</desc></polyline><polyline fill="none" points="77.47569929709425,185.0 77.51785880775424,186.1220300960049 77.82351526030106,185.96348300139653 78.47698767611291,186.1830096919948 79.18315948027885,186.1220300960049 79.97365030582296,186.4147318742689 84.05258296558168,186.95134994727414 84.16852161998395,187.109895737005 83.23047250707168,193.09789494444703 82.77725776704028,193.1344805796034 82.6929387456621,193.29301820299588 82.53484058054164,194.35399537060584 82.65077923494391,194.81740774305945 81.93406755314209,198.85389776057855 76.68520847155014,198.6953674802644 76.50603055109968,198.57342096840148 75.83147838001605,203.0 76.53765018412378,198.646588890384 78.58238645282108,198.68317283462966 79.26747850159882,198.4148903177629 79.3623374007293,198.6953674802644 81.96568718616618,198.78072996492847 83.77854614605894,187.42698668821686 83.72584675770486,187.01232912197884 78.29780975566246,186.0610504689903" stroke="#4DD2FF" stroke-linecap="round" stroke-linejoin="round" stroke-width="0.5"><title>2025-07-08 5.1km</title><desc>1751976330000</desc></polyline><polyline fill="none" points="91.16032285458641,202.83610268475604 91.12169352988712,203.0 91.36634591995971,202.89570172964886 91.44360456935829,202.06131289622863 91.89428002474597,201.68881634827994 91.98441511578858,201.30141893458494 93.28493571549188,192.2866900825029 93.40082368964795,189.55981166484708 93.09178909176262,187.54814753265237 93.79999337875051,187.51834489352768 93.98026356083574,187.7865684274002 96.46541678602807,188.1441990424064 98.46126523113344,188.11439652449917 99.9163031297503,188.6955445312342 104.55182209884515,189.3809981931845 105.40166724321898,185.0 108.87830647011288,185.77487996006676 105.77508404903347,185.04470472445246 105.19564417790389,187.62265410390683 105.10550908680307,189.4108004536247 96.42678746127058,188.24850780746783 93.98026356083574,187.8014697204635 93.76136405405123,187.47364092349017 93.05315976706333,187.59285147994524 93.336441481777,188.78495171236864 93.38794724817853,191.3628353163076 91.93290934944525,201.34611868843785" stroke="#4DD2FF" stroke-linecap="round" stroke-linejoin="round" stroke-width="0.5"><title>2025-07-06 5.0km</title><desc>1751807521000</desc></polyline><polyline fill="none" points="113.7397342530312,201.88428805598232 114.5196088081575,196.33842899363663 111.99565115699079,196.15793925551407 111.20159706455888,196.43687785667134 112.23670329223387,196.33842899363663 112.09490791865392,196.17434742185287 114.70394279388711,196.32202084397431 114.88827677967492,196.15793925551407 114.80319955549203,195.64928527163283 115.86666485783644,188.93818426875805 115.76740809634794,185.590733765217 117.59656841657124,185.4102320107486 128.79840293549933,187.24805862178619 128.7842233981355,186.70655831242038 116.46220542723313,185.0 116.66071895038476,189.05304653466737 115.37038105004467,198.17613120531314 115.72486948425649,198.7340009524487 115.39874012483051,199.34109231071488 115.46963781164959,200.65371447143843 114.97335400379961,200.76856840281107 114.74648140597856,203.0 113.59793887933483,202.86874017144146 113.66883656621212,201.90069564041914" stroke="#4DD2FF" stroke-linecap="round" stroke-linejoin="round" stroke-width="0.5"><title>2025-07-05 4.8km</title><desc>1751729502000</desc></polyline><polyline fill="none" points="142.8971096596215,203.0 143.07524908857886,202.86981198194553 143.10337636678014,202.13207688097464 143.3471461116569,201.05801225300092 143.47840674343752,201.01461547528015 143.64717041299446,199.4414703723014 139.98124848114094,199.28957927314332 140.21564246655907,198.4758732763221 140.56254556489876,194.80869462042756 140.60004860261688,192.12875362045452 140.46878797077807,191.77069972742174 140.6094243619591,189.578949717652 140.60004860261688,185.0 135.67777490895241,186.7686697420213 135.5746415553731,187.01823427827185 135.61214459309122,186.80122167114314 138.26548450789414,185.79210725105077 138.3123633050127,188.02733710464236 138.57488456863211,188.59156248300133 140.53441828663927,188.59156248300133 140.5437940460979,191.4560453147351 140.75006075325655,191.55369678345596 140.82506682857638,191.90090128205338 144.25659477501176,192.11790352014214 144.4253584445687,192.97505804750836 144.40660692565143,194.53744859182916 143.22526123921853,202.59858643445477" stroke="#4DD2FF" stroke-linecap="round" stroke-linejoin="round" stroke-width="0.5"><title>2025-07-03 5.2km</title><desc>1751545471000</desc></polyline><polyline fill="none" points="159.6845754031092,203.0 160.1121509677614,200.36393109844357 160.2873868549068,200.2422642780657 160.73599072603974,196.9166326980121 160.77103790343972,195.76479627827212 160.00700943547417,189.6484285694387 159.63550935473177,188.87776542525535 159.712613145035,188.77230567908555 160.0280377419258,188.82909171356732 159.8808395967062,187.25529236594593 159.5373772579187,186.81721898241085 159.54438669339288,185.81937618378288 159.21494322558283,185.0 159.57242443534778,185.89238949473656 159.5373772579187,186.83344396545 159.8528018547804,187.14171801602788 159.90186790315784,187.39320385919564 160.0280377419258,188.82097942539258 159.6845754031092,188.7966425559498 159.63550935473177,188.90210226994532 160.01401887097745,189.6484285694387 160.37850951624569,193.12037652645813 160.78505677441717,195.74046152670053 160.66589637115248,197.55743590315979 159.89485846768366,202.72423071540106" stroke="#4DD2FF" stroke-linecap="round" stroke-linejoin="round" stroke-width="0.5"><title>2025-07-01 5.0km</title><desc>1751376396000</desc></polyline><polyline fill="none" points="179.36742998912814,203.0 179.49741012835875,202.83956882237544 179.47141410049517,202.24797660073818 179.67938232322922,202.04743605965632 179.82669314768282,201.26532405517355 180.05199205563986,198.50782842640183 180.36394438974094,197.43489111880626 180.7105580943462,194.6171216954681 180.62390466820216,193.00263390867622 180.1386454817548,190.12456840601953 179.80936246245983,186.63467598475108 179.2894419056247,185.34097759509314 179.74870506412117,185.43123617296078 179.76603574937326,185.0 179.76603574937326,185.4111787183283 179.36742998912814,185.33094885912578 179.2981072482071,185.43123617296078 179.62739026753115,185.92264253658504 179.82669314768282,186.6146187748891 180.19063753748196,190.50564113540895 180.7105580943462,193.96531303638767 180.66723138125963,195.5797850687668 179.5753982118622,202.6590834358285" stroke="#4DD2FF" stroke-linecap="round" stroke-linejoin="round" stroke-width="0.5"><title>2025-06-30 4.1km</title><desc>1751292736000</desc></polyline><polyline fill="none" points="11.202090592327295,217.10960229374177 11.0,215.64897324027697 11.069686411152361,215.49564597582503 16.491289198602317,215.2374099119188 17.355400696833385,215.31810877237876 18.763066202081973,215.1809206606922 20.87456445992575,215.20513034473697 29.0,214.68865547961468 26.57491289198515,214.85812416609406 26.010452961694682,215.04373231128557 24.965156794409268,214.99531283708347 19.67595818816335,215.26968946598936 14.756097560952185,215.35845817174413 14.609756097546779,215.4875761115909 14.951219512178795,217.31134452038532 14.790940766542917,217.2952051611719 14.595818815316306,216.34297714474087" stroke="#4DD2FF" stroke-linecap="round" stroke-linejoin="round" stroke-width="0.5"><title>2025-06-26 5.0km</title><desc>1750950176000</desc></polyline><polyline fill="none" points="49.0,216.73669080522814 48.709364908514544,215.26330919477186 40.9655543595145,215.97382686247875 40.13885898818262,215.98130595921975 37.1550053821411,215.60735018770356 31.0,215.86911942786537 36.9483315392863,215.59987105282198 40.14531754577183,215.9887850552259 45.65446716902079,215.48768393830687" stroke="#4DD2FF" stroke-linecap="round" stroke-linejoin="round" stroke-width="0.5"><title>2025-06-24 5.0km</title><desc>1750769966000</desc></polyline><polyline fill="none" points="69.0,216.7208387669234 68.7536023054563,215.27916123308387 61.0893371757993,216.00751226317516 60.1556195965386,216.0375472026135 57.1340057636844,215.64709203488746 51.0,215.91740737140208 56.9719020172779,215.64709203488746 60.1491354466707,216.0375472026135 66.6397694524494,215.45937246764515" stroke="#4DD2FF" stroke-linecap="round" stroke-linejoin="round" stroke-width="0.5"><title>2025-06-22 5.0km</title><desc>1750563938000</desc></polyline><polyline fill="none" points="80.61512707269867,225.0 79.68482888503058,219.44209893125299 79.6717873216403,217.9266568681196 79.75438388969633,217.2922719613307 79.70221763619338,215.6609590561493 79.71960638735618,215.37899827560614 79.81524451878795,215.21787710654826 79.71960638735618,215.14235137752257 79.71525919955457,214.1101548334409 78.65889256591618,207.75537669678306 78.39371411052707,207.0 78.66323975367413,207.6596962881231 79.70221763619338,214.00441640774807 79.75873107749794,217.09591307632945 79.68482888503058,217.93169163636412 79.68048169721442,219.39175276577225 80.39342049526749,223.66092523296174 80.49340581448632,223.95290703645878 81.60628588948748,223.89249714976904" stroke="#4DD2FF" stroke-linecap="round" stroke-linejoin="round" stroke-width="0.5"><title>2025-06-21 8.0km</title><desc>1750517001000</desc></polyline><polyline fill="none" points="101.82615197775885,225.0 100.30140372453025,215.62387523600773 97.61831958900439,215.56912221983657 92.78404024342308,215.10372068098513 92.87859827460488,214.6109408227785 92.68948221218307,213.66644103945873 92.94951679802034,207.49280779338733 92.91405753628351,207.05475651082816 92.677662458329,207.0 92.38216861075489,214.597252467589 92.83131925901398,214.65200588002335 92.85495876678033,215.11740898460266 100.33686298626708,215.6101869840786 101.24698403658113,221.46863131743157 101.53065813024295,222.24882541317493 107.61783138930332,222.05719921311538" stroke="#4DD2FF" stroke-linecap="round" stroke-linejoin="round" stroke-width="0.5"><title>2025-06-19 5.0km</title><desc>1750345525000</desc></polyline><polyline fill="none" points="129.0,216.4506187684019 128.83478260872653,215.4688246300284 123.73913043479843,215.95217187507296 123.08260869565129,215.9672764002571 120.90000000000873,215.7155337105869 112.81304347826517,216.0830776067378 112.11304347826808,216.19887854175613 111.0,216.53117536997524 112.56956521738903,216.10825174613638 115.41304347827099,215.98238092085376" stroke="#4DD2FF" stroke-linecap="round" stroke-linejoin="round" stroke-width="0.5"><title>2025-06-17 5.1km</title><desc>1750166247000</desc></polyline><polyline fill="none" points="131.62068965513026,222.7925256237504 131.0,218.8033731077594 145.0275862069102,218.39007737179054 142.74655172420898,209.38717765365436 145.50862068968127,209.54891044675605 149.0,209.2074743762496 143.49137931037694,209.53094014374074 145.52413793106098,217.63536091908463 139.50344827584922,217.9228723296692" stroke="#4DD2FF" stroke-linecap="round" stroke-linejoin="round" stroke-width="0.5"><title>2025-06-16 3.2km</title><desc>1750084948000</desc></polyline><polyline fill="none" points="169.0,216.8320885070425 168.7241935484344,215.1679114929575 159.87661290320102,215.98319432727294 159.0782258064719,215.99159926299035 155.5798387096729,215.5629464501617 151.0,215.7814756135267 155.43467741934,215.5545414707667 159.07096774195088,215.97478939073335 166.57580645164126,215.34441670769593" stroke="#4DD2FF" stroke-linecap="round" stroke-linejoin="round" stroke-width="0.5"><title>2025-06-15 4.6km</title><desc>1749956754000</desc></polyline><polyline fill="none" points="189.0,216.7239137209981 188.7808807733527,215.27608627899463 181.07303974224487,215.98507752069418 180.26745435016346,216.00000357831595 176.8775510204141,215.61938815854228 171.0,215.8880580719997 176.99355531684705,215.61938815854228 180.21589688508539,216.00000357831595 181.89795918369782,215.917910223754 182.21374865731923,215.81342763937573 186.2996777658409,215.44773741994868" stroke="#4DD2FF" stroke-linecap="round" stroke-linejoin="round" stroke-width="0.5"><title>2025-06-14 5.1km</title><desc>1749906363000</desc></polyline><polyline fill="none" points="29.0,239.06875192149164 28.783592644991586,237.60935958814662 21.323903818964027,238.33168876736454 20.318246110342443,238.33905943610444 17.263083451223793,237.97052507959597 11.509193776524626,238.2432406840744 11.432814710075036,238.0737148887274 11.464639321085997,236.93861888996616 11.0,236.93124807850836 11.483734087727498,236.9533605106335 11.432814710075036,238.06634419295006 11.528288543166127,238.2432406840744 17.42220650636591,237.96315437331214 20.458274398901267,238.3464301040949 26.50495049508754,237.80099864498334 26.498585572873708,237.50616911642283 28.439886845852016,237.4029784974773" stroke="#4DD2FF" stroke-linecap="round" stroke-linejoin="round" stroke-width="0.5"><title>2025-06-12 5.9km</title><desc>1749735885000</desc></polyline><polyline fill="none" points="49.0,243.66263633829658 48.426195426203776,240.7736221528321 32.65904365899041,242.1748013872275 31.174636174633633,238.11567708935763 31.0,233.0452197203267 33.943866943824105,232.91520560727804 36.45114345109323,233.07411172923457 36.58835758839268,232.6118388796749 36.32640332635492,232.51071649281948 31.074844074784778,232.33736366170342 31.18711018707836,237.97122212506656 31.62370062363334,239.61799998933566 32.48440748435678,241.66922284850443 39.46985446981853,241.06252622140164 39.607068607001565,241.61144232923107 48.38877338881139,240.7591769339051 48.925155925157014,243.61930156052404" stroke="#4DD2FF" stroke-linecap="round" stroke-linejoin="round" stroke-width="0.5"><title>2025-06-10 5.3km</title><desc>1749559786000</desc></polyline><polyline fill="none" points="51.472618154541124,233.2075754171383 51.040510127553716,231.45622788878973 51.0,230.0957923520764 63.2475618905155,229.78304684518662 63.80120030004764,231.83151832780277 63.396099024801515,231.8158812445472 63.274568642198574,232.0973484999995 63.53113278315868,233.55158776117605 63.4636159039801,234.5367097521812 63.90922730683815,236.506934759891 65.05701425363077,236.4600249346695 66.75843960989732,243.0116249951243 66.7854463616386,243.30870762854465 66.35333833459299,243.43379488112987 66.74493623408489,243.3243435407203 66.87996999244206,243.57451791832864 66.52888222050387,243.63706144907337 66.65041260310682,244.21558789956907 67.46061515377369,246.2795023326762 68.02775693923468,246.2169598788605 69.0,245.68534799250483 67.97374343586853,245.90424722757598 66.15078769688262,238.6334984426794 65.93473368341802,238.00804159529798 65.44861215306446,238.00804159529798 65.08402100525564,236.41311509505613 64.69242310576374,236.56948117123102 63.895723931025714,236.4600249346695 63.450112528167665,234.66180415557756 63.3555888972478,232.34754118253477 62.61290322581772,229.7204976673238 51.040510127553716,230.12706686770252 51.526631657907274,233.30139704197063" stroke="#4DD2FF" stroke-linecap="round" stroke-linejoin="round" stroke-width="0.5"><title>2025-06-08 5.0km</title><desc>1749355299000</desc></polyline><polyline fill="none" points="89.0,238.74069638492801 88.68341708541266,237.2593036150647 82.88155061015277,237.7456227194125 81.13711414212594,237.992521954744 80.16798277100315,237.992521954744 77.09906676237006,237.61843188016064 71.0,237.8877769260289 76.8083273510274,237.61843188016064 80.13567839196185,238.00000373677904 87.13280689160456,237.37153138663416" stroke="#4DD2FF" stroke-linecap="round" stroke-linejoin="round" stroke-width="0.5"><title>2025-06-07 5.3km</title><desc>1749293029000</desc></polyline><polyline fill="none" points="109.0,238.71307294099097 108.73424558879924,237.28692705900903 100.52178610008559,238.0375335972858 97.19013323730906,237.65472521866468 91.0,237.9099310255042 97.1642059776641,237.6397130848345 100.12639539071824,238.0375335972858 106.47209218580974,237.45956724023563" stroke="#4DD2FF" stroke-linecap="round" stroke-linejoin="round" stroke-width="0.5"><title>2025-06-05 5.1km</title><desc>1749128617000</desc></polyline><polyline fill="none" points="111.25196850392967,237.8860670675931 111.0,236.23566990168183 111.09448818897363,236.16272346800542 118.15748031498515,235.91652881528717 119.48818897639285,240.79470398727426 126.46456692914944,240.70352558211016 129.0,240.5485220800765 126.91338582680328,240.6214649379981 126.52755905513186,235.20529601272574 119.85039370079176,235.5973865904234 118.41732283466263,235.5517947510598 118.54330708659836,235.91652881528717 114.84251968504395,236.02594874459464" stroke="#4DD2FF" stroke-linecap="round" stroke-linejoin="round" stroke-width="0.5"><title>2025-06-03 5.2km</title><desc>1748952979000</desc></polyline><polyline fill="none" points="145.88541591423564,232.6340175164878 145.49055573824444,232.04958133533364 145.21065485401778,231.43620620635193 145.0307185713027,231.2683948762351 144.5858760945266,231.22788861886875 144.24599644937553,230.8343977591212 144.09105131705292,230.31938354665908 143.86113273355295,229.96639358167886 143.5862300793524,229.0 142.7915114973148,229.3414223644104 142.42164247171604,229.38192996643556 141.4619822971581,229.740710323862 141.05212743094307,230.26730319790295 141.05212743094307,230.40039732762307 139.39271504577482,232.5125015776648 139.3827185856062,232.6340175164878 138.92787964871968,233.25895252669943 138.53301947272848,233.6234947761368 138.46304425169365,233.5598447106022 138.18314336740877,233.80287185012276 137.9982088546094,233.69293113000458 137.9932106245542,233.7970855017411 137.96821947413264,233.6466402368642 138.22812743810937,233.83180358324535 138.1881415974931,234.04011162691313 137.58835398839437,234.70553498535446 136.5637168228568,234.93698476231657 136.5637168228568,234.83283247932923 136.49374160179286,234.96012968818104 136.2138407175662,235.02377818571767 135.9689274438424,234.9543434575935 135.55907257762738,234.98906083225302 135.48909735653433,234.92541229585186 135.3241557640722,235.01799196162392 134.8293309865694,234.8444049646314 134.76435399556067,234.08640219959852 134.57442125267698,233.91859869421023 133.6397522285115,234.15583798797525 133.2898761232209,234.36993113478093 133.6897345292964,236.1000056258963 134.31951151881367,238.03253494010642 135.64904071897035,243.2280515268867 135.83397523179883,243.76609014944552 137.403419475595,246.94214991849003 137.6033486786182,247.0 138.2931044291181,246.78016937724533 138.76293805622845,246.91900986941982 139.6226336292748,246.73967416986488 139.60763893902185,246.39835627621142 139.83755752249272,246.3347205101927 140.25241061879206,246.52562759469583 140.5672991135798,246.37521600590844 140.69725309556816,246.5661229544785 141.5069663678296,246.74545920124 141.98179822505335,246.65868366858558 142.46162831230322,246.30001006234306 142.546598223591,245.62315209528606 142.90647078907932,245.12562742731097 142.81150441762293,244.62809840687987 142.92646370935836,244.38511753593048 142.68155043563456,244.11320913992677 142.52660530331195,243.70823677836233 142.46662654238753,243.10655823017805 142.7915114973148,242.84621457745016 143.2863362748176,243.04870418813516 143.56123892898904,243.03134796403174 143.63121415005298,242.65529514124137 143.51625485831755,242.1924574838522 143.42128848686116,242.1519590095886 143.51625485831755,242.10567500370234 143.40629379663733,242.0709619745503 143.4962619379803,242.12303151032393 143.50625839817803,241.8511122978598 143.37630441618967,241.55026399437338 142.78651326723048,241.50976506273219 142.51161061305902,241.30148438722608 142.62656990479445,240.5146393944342 143.0964035319339,239.7104262748653 143.45627609739313,239.31120834312242 143.62121768988436,239.2533504392959 143.97609202528838,238.7615558794496 144.60087078475044,238.165610888409 145.15567432317766,237.47129816576853 144.99573096074164,237.1472826598947 144.50090618323884,237.14149665194054 144.4359291922592,236.95055805890297 144.6258619351429,236.49346003390747 144.84578405847424,236.28516098064938 145.05071149158175,236.3140914503565 145.13568140286952,236.20994169052938 144.96074335023877,235.81069917671994 145.19566016376484,235.31887483397077 145.4155822871253,235.1915784284829 145.60051679992466,235.26679906617574 145.5755256495322,235.12793011885879 146.13032918795943,234.87333616760588 146.18031148871523,234.71710749659178 146.6651398060785,234.42200772422075 146.71012387675,233.99960734488195 146.07534865711932,232.790251913244 145.97538405557862,232.74396028490082" stroke="#4DD2FF" stroke-linecap="round" stroke-linejoin="round" stroke-width="0.5"><title>2025-06-02 11.5km</title><desc>1748829019000</desc></polyline><polyline fill="none" points="169.0,238.8417534750406 168.67027477102238,237.1582465249594 159.16069941714522,238.04339350415103 155.21898417980992,237.59214325279754 151.0,237.77437921910314 155.27144046625472,237.57478742613603 158.72606161530712,238.02603776947217 168.6552872605971,237.1669244812001 168.99250624480192,238.7896867485979" stroke="#4DD2FF" stroke-linecap="round" stroke-linejoin="round" stroke-width="0.5"><title>2025-06-01 4.9km</title><desc>1748740054000</desc></polyline><polyline fill="none" points="189.0,246.67410667186778 188.93482196744299,246.81247984978108 188.80446590221254,246.7118448267065 188.36994568497175,244.29657965675142 174.63910681958077,245.49163864280126 173.3681351841078,241.93158671310812 173.31382015696727,237.4530716523077 173.0096560048405,235.7672963525838 171.0,229.18752015021892 172.32528666267172,233.59085089842847 172.68376584193902,234.27020793587872 173.2703681352432,236.79889292705775 173.85697042854736,236.9624379334782 173.24864212435205,236.9498575560865 173.3681351841078,241.51645029734937 173.78092939045746,243.2147268062472 174.49788774893386,244.98845732213522 174.68255884130485,245.1016732981443 180.57030778517947,244.4978535594273 180.7332528666011,244.97587776285945 185.41520820761798,244.5230127741961" stroke="#4DD2FF" stroke-linecap="round" stroke-linejoin="round" stroke-width="0.5"><title>2025-05-31 5.5km</title><desc>1748696141000</desc></polyline><polyline fill="none" points="27.737662337662186,264.96756412692775 27.328571428603027,262.32819520025805 12.519480519520584,263.65465383294213 11.151948051934596,259.7564519427833 11.0,255.0595080771891 16.025974025949836,255.11365246893547 11.070129870146047,255.0324358730868 11.163636363635305,259.6887738160731 11.525974026008043,261.13707819906995 12.43766233761562,263.22152594024374 25.55194805195788,261.9627399837191 26.720779220806435,261.89506298136257 26.779220779251773,262.395871981862 29.0,262.2199122779857" stroke="#4DD2FF" stroke-linecap="round" stroke-linejoin="round" stroke-width="0.5"><title>2025-05-29 5.0km</title><desc>1748526381000</desc></polyline><polyline fill="none" points="41.91125198098598,258.23286041124084 41.51188589539379,254.9625264027418 48.272583201294765,254.632185964394 49.0,257.2914073854481 48.215530903311446,254.69825410589692 41.48335974646034,255.01207741038525 41.6687797147315,256.6472521640244 41.4120443740394,255.02859440956672 31.798732171126176,255.92050986597314 33.239302694099024,263.13823769203736 33.795562599028926,264.82287846862164 33.424722662428394,265.05410230671987 34.00950871629175,266.6065966768656 33.2250396196614,264.55862224975135 31.285261489683762,255.95354367756227 34.65134706813842,255.47455275138782 40.741679873201065,255.09466238951427 40.67036450083833,254.61566892477276 31.727416798763443,255.22679826857348 31.22820919175865,253.39340332311986 31.0,253.59160918208363 31.11410459590843,255.3589340398612 37.86053882725537,254.69825410589692" stroke="#4DD2FF" stroke-linecap="round" stroke-linejoin="round" stroke-width="0.5"><title>2025-05-27 6.0km</title><desc>1748352132000</desc></polyline><polyline fill="none" points="66.60136674260139,261.34136010772636 66.67312072895584,261.2938794083384 66.44248291570693,260.14246059575817 60.379271070618415,260.724107996004 59.67710706152138,260.73597829062055 57.15034168565762,260.43922019933234 51.11275626425049,260.70630254955176 51.0,258.7357995008242 51.71753986334079,258.6586398922773 52.70671981779742,258.7298641499583 52.711845102516236,260.43922019933234 57.29897494305624,260.2552294232628 60.08712984054,260.5282477855035 66.4322323462402,259.8991165923253 68.89236902049743,259.81008804430166 69.0,260.0059506702637 68.92824601367465,260.02969154986204 66.65774487471208,260.12465497143785" stroke="#4DD2FF" stroke-linecap="round" stroke-linejoin="round" stroke-width="0.5"><title>2025-05-25 7.6km</title><desc>1748179850000</desc></polyline><polyline fill="none" points="88.98820445610909,260.9937263310785 88.94102228048723,260.6044361218592 88.71100917432341,260.6044361218592 88.56356487548328,259.87365716575005 88.44560943642864,259.70974303461117 82.75425950199133,260.19465451112046 81.82241153344512,260.3653971534659 78.08322411534027,260.01708170158236 71.10026212321827,260.3312486598079 71.0,259.14287024004443 72.73394495414686,259.0062736689215 72.72214941022685,260.00342223521875 72.95216251639067,260.0307411651738 77.85321100917645,259.8190191666072 81.40366972476477,260.12635733236675 88.77588466581074,259.4160625469376 89.0,260.9186003264549" stroke="#4DD2FF" stroke-linecap="round" stroke-linejoin="round" stroke-width="0.5"><title>2025-05-24 6.6km</title><desc>1748094255000</desc></polyline><polyline fill="none" points="109.0,260.80202481051674 108.80419016923406,259.19797518949053 101.39242546336027,259.827841329432 100.36261079774704,260.00420298581594 99.1877518130641,260.02099931432895 95.80096696215332,259.60948827948596 91.0,259.8026467762611 95.77921031427104,259.6010900737019 99.14423851732863,260.02939747733035 106.82433521354687,259.3827364228928" stroke="#4DD2FF" stroke-linecap="round" stroke-linejoin="round" stroke-width="0.5"><title>2025-05-18 4.7km</title><desc>1747565909000</desc></polyline><polyline fill="none" points="126.66046378470492,260.6444834943504 126.46464357286459,259.4927689701035 121.24448897794355,259.9343616728147 120.37360435156734,260.0895150749857 119.67277411965188,260.083547644037 117.28685943313758,259.77324039691666 111.03607214428484,260.0596779141961 111.0,259.8806546301021 114.519610649877,259.6538910178133 116.90552533639129,259.61211867765087 119.69338677352061,260.0596779141961 126.53163469795254,259.4509965149773 128.83509876893368,259.3555165056496 128.9278557114303,259.3674515153325 128.9433152018173,259.4509965149773 129.0,259.4151915297298" stroke="#4DD2FF" stroke-linecap="round" stroke-linejoin="round" stroke-width="0.5"><title>2025-05-17 5.7km</title><desc>1747487200000</desc></polyline><polyline fill="none" points="148.01635420823004,259.2558608284089 145.63262863981072,259.3805780957555 144.46948544075713,259.5884397842601 139.1276426007098,259.9958471573991 135.78181092938758,259.5634964096098 131.0,259.7547287537309 135.71719186278642,259.58012532689463 138.9984044674784,259.9875327415284 148.53330674112658,259.1560868772649 148.84922217793064,260.76908412746707 149.0,260.8439131227278" stroke="#4DD2FF" stroke-linecap="round" stroke-linejoin="round" stroke-width="0.5"><title>2025-05-11 5.0km</title><desc>1746965499000</desc></polyline><polyline fill="none" points="169.0,260.64671074700163 168.70946915345849,259.35328925299837 160.54232424672227,260.09345810143714 157.22381635577767,259.7121599303937 151.0,259.9738353591529 157.06886657100404,259.71963638415764 160.16786226682598,260.09345810143714 168.76111908175517,259.3682422329366" stroke="#4DD2FF" stroke-linecap="round" stroke-linejoin="round" stroke-width="0.5"><title>2025-05-10 5.3km</title><desc>1746870058000</desc></polyline><polyline fill="none" points="188.96069868994527,259.69658927550336 188.91484716156265,259.5676388092543 189.0,259.66624800941645 188.6528384279518,259.72693052919203 180.62882096073008,260.4323611907457 177.22925764191314,260.03034238589316 171.0,260.28824149152933 177.19650655021542,260.03034238589316 178.78820960698067,260.1592920504336 180.23580786027014,260.42477595036326 186.80567685590358,259.83312481975736" stroke="#4DD2FF" stroke-linecap="round" stroke-linejoin="round" stroke-width="0.5"><title>2025-05-05 5.4km</title><desc>1746434825000</desc></polyline></svg>