<?xml version="1.0" encoding="utf-8" ?>
<svg baseProfile="full" height="300mm" version="1.1" viewBox="0,0,200,300" width="200mm" xmlns="http://www.w3.org/2000/svg" xmlns:ev="http://www.w3.org/2001/xml-events" xmlns:xlink="http://www.w3.org/1999/xlink"><defs /><rect fill="#222222" height="300" width="200" x="0" y="0" /><text fill="#FFFFFF" style="font-size:12px; font-family:Arial; font-weight:bold;" x="10" y="20">Over 3km Runs</text><text fill="#FFFFFF" style="font-size:4px; font-family:Arial" x="10" y="280">Runner</text><text fill="#FFFFFF" style="font-size:9px; font-family:Arial" x="10" y="290">tang-hi</text><text fill="#FFFFFF" style="font-size:4px; font-family:Arial" x="65" y="280">SPECIAL TRACKS</text><rect fill="yellow" height="2.6" width="2.6" x="65" y="283" /><text fill="#FFFFFF" style="font-size:3px; font-family:Arial" x="70" y="285.5">Over 20.0 km</text><rect fill="red" height="2.6" width="2.6" x="65" y="287" /><text fill="#FFFFFF" style="font-size:3px; font-family:Arial" x="70" y="289.5">Over 40.0 km</text><text fill="#FFFFFF" style="font-size:4px; font-family:Arial" x="120" y="280">STATISTICS</text><text fill="#FFFFFF" style="font-size:3px; font-family:Arial" x="120" y="285">Number: 13</text><text fill="#FFFFFF" style="font-size:3px; font-family:Arial" x="120" y="290">Weekly: 2.6</text><text fill="#FFFFFF" style="font-size:3px; font-family:Arial" x="141" y="285">Total: 78.4 km</text><text fill="#FFFFFF" style="font-size:3px; font-family:Arial" x="141" y="290">Avg: 6.0 km</text><text fill="#FFFFFF" style="font-size:3px; font-family:Arial" x="167" y="285">Min: 4.7 km</text><text fill="#FFFFFF" style="font-size:3px; font-family:Arial" x="167" y="290">Max: 11.5 km</text><polyline fill="none" points="13.004724409431219,53.726560962211806 12.400000000023283,49.76560776401311 12.626771653536707,49.59053632320138 29.577952755847946,48.999669156677555 32.77165354322642,60.707289569458226 49.51496062986553,60.48846139704983 55.59999999997672,60.11645299218071 50.59212598425802,60.29151585117506 49.66614173236303,47.29271043052722 33.640944881830364,48.23372781701619 30.20157480321359,48.12430740252603 30.50393700785935,48.999669156677555 21.622047244105488,49.26227698700677" stroke="#4DD2FF" stroke-linecap="round" stroke-linejoin="round" stroke-width="0.5"><title>2025-06-03 5.2km</title><desc>1748952979000</desc></polyline><polyline fill="none" points="114.12499819422374,41.121642039564904 113.17733377183322,39.71899520480656 112.50557164964266,38.24689489524462 112.0737245711498,37.844147702970076 111.00610262691043,37.7469326852879 110.19039147859439,36.80255462189962 109.81852316093864,35.56652051197307 109.26671856053872,34.71934459602926 108.60695219051559,32.39999999999418 106.69962759362534,33.21941367458203 105.81194193213014,33.31663191944244 103.50875751319109,34.17770477726299 102.5251058342983,35.44152767496416 102.5251058342983,35.760953586301184 98.54251610988285,40.83000378639554 98.5185246054898,41.121642039564904 97.4269111569738,42.621486064075725 96.47924673464149,43.49638746272831 96.31130620406475,43.34362730543944 95.63954408181598,43.926892440300435 95.19570125109749,43.663034712008084 95.18370549898827,43.913005204172805 95.12372673797654,43.55193656847405 95.74750585149741,43.99632859979465 95.65153983404161,44.496267904600245 94.2120495722047,46.09328396485944 91.75292037491454,46.64876342956268 91.75292037491454,46.398797950387234 91.584979844396,46.70431125164032 90.91321772214724,46.85706764573115 90.32542586524505,46.6904242982273 89.34177418635227,46.77374599741597 89.17383365577552,46.620989510047366 88.77797383378493,46.84318070790323 87.59039436781313,46.426571915115346 87.43444958940381,44.60736527903646 86.97861100645969,44.20463686611038 84.73540534853237,44.77401117113186 83.89570269576507,45.287834723480046 84.855362870323,49.440013502156944 86.36682764522266,54.07808385626413 89.5576977255987,66.5473236645339 90.0015405563172,67.83861635866924 93.76820674148621,75.46115980437025 94.24803682876518,75.60000000000582 95.90345062990673,75.07240650539461 97.0310513349832,75.40562368660176 99.09432071028277,74.97521800767572 99.05833345366409,74.1560550629074 99.61013805406401,74.0033292244625 100.60578548518242,74.46150622726418 101.36151787266135,74.10051841418317 101.67340742936358,74.55869509074546 103.6167192828143,74.98910208298184 104.75631574017461,74.78084080461122 105.90790794958593,73.92002414962917 106.11183573666494,72.29556502868945 106.9755298938253,71.10150582554343 106.74761060235323,69.90743617652333 107.0235129025532,69.32428208623605 106.4357210455928,68.67170193581842 106.06385272799525,67.69976826806669 105.91990370175336,66.2557397524215 106.69962759362534,65.63091498588619 107.88720705959713,66.11689005151857 108.54697342962027,66.07523511367617 108.71491396019701,65.1727083389851 108.43901165999705,64.06189796124818 108.21109236852499,63.96470162301557 108.43901165999705,63.85362000888563 108.17510511202272,63.77030873892363 108.39102865121095,63.895275624789065 108.4150201556622,63.24266951486061 108.10313059890177,62.520633586493204 106.6876318413997,62.423436150551424 106.02786547143478,61.92356252935133 106.30376777157653,60.035134546647896 107.43136847671121,58.10502305967384 108.29506263375515,57.1469000234938 108.69092245580396,57.00804105431598 109.54262086073868,55.82773411067319 111.04208988347091,54.39746613218449 112.3736183756846,52.73111559783865 111.98975430580322,51.95347838374437 110.80217483983142,51.93959196464857 110.64623006148031,51.48133934136422 111.10206864436623,50.38430408138083 111.6298817403731,49.88438635355851 112.1217075798777,49.9538194808556 112.3256353668985,49.703860057270504 111.90578404057305,48.74567802413367 112.46958439308219,47.56529960152693 112.99739748914726,47.25978822835896 113.44124031986576,47.440317758824676 113.38126155897044,47.107032285261084 114.71279005112592,46.4960068022483 114.83274757297477,46.12105799182609 115.99633553461172,45.412818538126885 116.10429730423493,44.39905762771377 114.58083677710965,41.49660459178267 114.34092173347017,41.38550468375615" stroke="#4DD2FF" stroke-linecap="round" stroke-linejoin="round" stroke-width="0.5"><title>2025-06-02 11.5km</title><desc>1748829019000</desc></polyline><polyline fill="none" points="187.60000000009313,56.02020834009454 186.80865945050027,51.97979165989091 163.9856786011951,54.10414440995373 154.52556203166023,53.02114380670537 144.40000000002328,53.45851012584171 154.6514571190346,52.97948982271191 162.94254787673708,54.06249064672738 186.7726894255029,52.00061875488609 187.58201498759445,55.8952481966262" stroke="#4DD2FF" stroke-linecap="round" stroke-linejoin="round" stroke-width="0.5"><title>2025-06-01 4.9km</title><desc>1748740054000</desc></polyline><polyline fill="none" points="55.59999999997672,122.8178560124943 55.443572721793316,123.14995163946878 55.1307181653101,122.90842758410145 54.08786964381579,117.11179117619758 21.13385636685416,119.97993274271721 18.083524441695772,111.43580811144784 17.953168376581743,100.68737196552684 17.223174411570653,96.64151124621276 12.400000000023283,80.85004836053122 15.5806879902957,91.41804215623415 16.441038020537235,93.04849904609728 17.848883524537086,99.11734302493278 19.256729028420523,99.50985104034771 17.796741098398343,99.47965813460178 18.083524441695772,110.43948071365594 19.074230537051335,114.5153443349991 20.794930597417988,118.77229757313034 21.238141219015233,119.04401591554051 35.368738684337586,117.59484854261973 35.75980687979609,118.74210663084523 46.99649969814345,117.65523065807065" stroke="#4DD2FF" stroke-linecap="round" stroke-linejoin="round" stroke-width="0.5"><title>2025-05-31 5.5km</title><desc>1748696141000</desc></polyline><polyline fill="none" points="118.57038961036596,113.92215390459751 117.58857142867055,107.5876684806135 82.04675324680284,110.7711691990553 78.76467532466631,101.4154846626625 78.40000000002328,90.142819385248 90.46233766223304,90.27276592544513 78.5683116883738,90.07784609537339 78.79272727272473,101.25305715855211 79.6623376624193,104.72898767775041 81.85038961027749,109.73166225658497 113.32467532460578,106.71057596089668 116.1298701298656,106.54815115526435 116.27012987015769,107.7500927564397 121.59999999997672,107.32778946714825" stroke="#4DD2FF" stroke-linecap="round" stroke-linejoin="round" stroke-width="0.5"><title>2025-05-29 5.0km</title><desc>1748526381000</desc></polyline><polyline fill="none" points="170.58700475422665,97.75886498697218 169.62852614885196,89.91006336660939 185.85419968306087,89.11724631456309 187.59999999997672,95.49937772509293 185.7172741679242,89.27580985415261 169.56006339145824,90.02898578494205 170.0050713152159,93.95340519366437 169.3889064976247,90.06862658297177 146.31695721065626,92.20922367836465 149.7743264657911,109.53177046091878 151.10935023764614,113.57490832472104 150.21933438978158,114.12984553613933 151.62282091903035,117.85583202450653 149.74009508709423,112.94069339943235 145.0846275751246,92.2885048261669 153.1632329635322,91.13892660333659 167.7800316956127,90.22718973484007 167.60887480189558,89.07760541947209 146.14580031693913,90.54431584459962 144.94770206010435,86.14416797552258 144.40000000002328,86.61986203701235 144.67385103006382,90.86144169568433 160.86529318534303,89.27580985415261" stroke="#4DD2FF" stroke-linecap="round" stroke-linejoin="round" stroke-width="0.5"><title>2025-05-27 6.0km</title><desc>1748352132000</desc></polyline><polyline fill="none" points="49.84328018227825,153.21926425854326 50.01548974949401,153.1053105800238 49.46195899776649,150.34190542982833 34.91025056951912,151.73785919041256 33.2250569476746,151.76634789750096 27.16082004562486,151.05412847839762 12.670615034236107,151.69512611892424 12.400000000023283,146.96591880198685 14.12209567206446,146.7807357414713 16.49612756271381,146.95167395990575 16.50842824607389,151.05412847839762 27.51753986335825,150.61255061584234 34.20911161735421,151.26779468520544 49.437357631046325,149.75787982158363 55.34168564924039,149.54421130633273 55.600000000034925,150.01428160864452 55.42779043287737,150.0712597196689 49.97858769935556,150.29917193145957" stroke="#4DD2FF" stroke-linecap="round" stroke-linejoin="round" stroke-width="0.5"><title>2025-05-25 7.6km</title><desc>1748179850000</desc></polyline><polyline fill="none" points="121.5716906946036,152.3849431945855 121.45845347316936,151.45064669246494 120.90642201836454,151.45064669246494 120.55255570117151,149.6967771977943 120.26946264744038,149.3033832830697 106.61022280476755,150.4671708266833 104.37378768023336,150.8769531683065 95.39973787678173,150.040996083786 78.64062909578206,150.79499678353022 78.40000000002328,147.9428885761008 82.56146788992919,147.6150568054145 82.53315858455608,150.00821336451918 83.0851900393609,150.07377879641717 94.84770642203512,149.56564599985722 103.36880733945873,150.3032575976831 121.06212319794577,148.59855011264153 121.60000000003492,152.20464078348596" stroke="#4DD2FF" stroke-linecap="round" stroke-linejoin="round" stroke-width="0.5"><title>2025-05-24 6.6km</title><desc>1748094255000</desc></polyline><polyline fill="none" points="187.59999999997672,151.92485954523727 187.13005640619667,148.07514045476273 169.34182111208793,149.58681919063383 166.8702659145929,150.01008716595243 164.05060435133055,150.05039835438947 155.92232070915634,149.06277187075466 144.40000000002328,149.52635226302664 155.87010475428542,149.04261617688462 163.94617244158871,150.07055394559575 182.37840451253578,148.51856741493975" stroke="#4DD2FF" stroke-linecap="round" stroke-linejoin="round" stroke-width="0.5"><title>2025-05-18 4.7km</title><desc>1747565909000</desc></polyline><polyline fill="none" points="49.98511308332672,199.5467603864381 49.51514457492158,196.7826455282484 36.98677354713436,197.8424680147582 34.89665044378489,198.21483617996273 33.21465788723435,198.20051434567722 27.488462639565114,197.4557769526 12.48657314630691,198.14322699407057 12.400000000023283,197.71357111223915 20.847065559704788,197.169338442749 26.573260807374027,197.0690848263621 33.26412825653097,198.14322699407057 49.67592327512102,196.68239163594262 55.20423704548739,196.4532396135619 55.42685370746767,196.4818836367922 55.463956484454684,196.68239163594262 55.600000000034925,196.59645967134566" stroke="#4DD2FF" stroke-linecap="round" stroke-linejoin="round" stroke-width="0.5"><title>2025-05-17 5.7km</title><desc>1747487200000</desc></polyline><polyline fill="none" points="119.23925009969389,196.2140659881843 113.5183087355108,196.51338742980442 110.72676505777054,197.01225548221555 97.90634224168025,197.99003317774623 89.8763462305069,196.9523913830635 78.40000000002328,197.41134900895122 89.72126047068741,196.99230078455003 97.59617072192486,197.970078579674 120.47993617865723,195.97460850543575 121.23813322698697,199.84580190591805 121.59999999997672,200.0253914945497" stroke="#4DD2FF" stroke-linecap="round" stroke-linejoin="round" stroke-width="0.5"><title>2025-05-11 5.0km</title><desc>1746965499000</desc></polyline><polyline fill="none" points="187.60000000003492,199.5521057927981 186.9027259683353,196.4478942072019 167.30157819221495,198.22429944344913 159.3371592538897,197.30918383294193 144.40000000002328,197.9372048619698 158.96527977043297,197.3271273219725 166.40286944044055,198.22429944344913 187.0266857962706,196.4837813590566" stroke="#4DD2FF" stroke-linecap="round" stroke-linejoin="round" stroke-width="0.5"><title>2025-05-10 5.3km</title><desc>1746870058000</desc></polyline><polyline fill="none" points="55.505676855915226,245.27181426119932 55.39563318778528,244.96233314220444 55.600000000034925,245.19899522259948 54.7668122270843,245.34463327005506 35.509170305740554,247.037666857781 27.350218340638094,246.07282172613486 12.400000000023283,246.69177957966167 27.271615720528644,246.07282172613486 31.091703056765255,246.38230092103186 34.565938864659984,247.01946228084853 50.33362445415696,245.59949956741184" stroke="#4DD2FF" stroke-linecap="round" stroke-linejoin="round" stroke-width="0.5"><title>2025-05-05 5.4km</title><desc>1746434825000</desc></polyline></svg>