<?xml version="1.0" encoding="utf-8" ?>
<svg baseProfile="full" height="300mm" version="1.1" viewBox="0,0,200,300" width="200mm" xmlns="http://www.w3.org/2000/svg" xmlns:ev="http://www.w3.org/2001/xml-events" xmlns:xlink="http://www.w3.org/1999/xlink"><defs /><rect fill="#222222" height="300" width="200" x="0" y="0" /><text fill="#FFFFFF" style="font-size:12px; font-family:Arial; font-weight:bold;" x="10" y="20">Over 3km Runs</text><text fill="#FFFFFF" style="font-size:4px; font-family:Arial" x="10" y="280">Runner</text><text fill="#FFFFFF" style="font-size:9px; font-family:Arial" x="10" y="290">tang-hi</text><text fill="#FFFFFF" style="font-size:4px; font-family:Arial" x="65" y="280">SPECIAL TRACKS</text><rect fill="yellow" height="2.6" width="2.6" x="65" y="283" /><text fill="#FFFFFF" style="font-size:3px; font-family:Arial" x="70" y="285.5">Over 20.0 km</text><rect fill="red" height="2.6" width="2.6" x="65" y="287" /><text fill="#FFFFFF" style="font-size:3px; font-family:Arial" x="70" y="289.5">Over 40.0 km</text><text fill="#FFFFFF" style="font-size:4px; font-family:Arial" x="120" y="280">STATISTICS</text><text fill="#FFFFFF" style="font-size:3px; font-family:Arial" x="120" y="285">Number: 38</text><text fill="#FFFFFF" style="font-size:3px; font-family:Arial" x="120" y="290">Weekly: 3.5</text><text fill="#FFFFFF" style="font-size:3px; font-family:Arial" x="141" y="285">Total: 204.7 km</text><text fill="#FFFFFF" style="font-size:3px; font-family:Arial" x="141" y="290">Avg: 5.4 km</text><text fill="#FFFFFF" style="font-size:3px; font-family:Arial" x="167" y="285">Min: 3.2 km</text><text fill="#FFFFFF" style="font-size:3px; font-family:Arial" x="167" y="290">Max: 11.5 km</text><polyline fill="none" points="26.16421898122644,31.51208190763282 25.997156167810317,31.5 25.736120521789417,32.82900247924408 26.02848044532584,33.0102289391798 26.007597593648825,33.396844464034075 25.642147689242847,35.86148888752359 25.443760598252993,36.28433941477124 24.932130732107908,41.104729164304445 24.504032272612676,43.073904859717004 24.545797976024915,43.653778605417756 23.804456741316244,49.19867854221957 24.806833621987607,58.5 23.877546722244006,50.74492263379216 23.85666387056699,48.4013885792956 24.545797976024915,43.72626262486301 24.514473698451184,43.085985591569624 25.27669778483687,38.49521911881311 25.433319172414485,36.272257992008235 25.642147689242847,35.83732595485344 26.195543258741964,31.886620435026998" stroke="#4DD2FF" stroke-linecap="round" stroke-linejoin="round" stroke-width="0.5"><title>2025-07-17 5.0km</title><desc>1752765839000</desc></polyline><polyline fill="none" points="74.08445945964195,57.93025537068024 74.69256756769028,57.08586103635025 76.0,46.073363030853216 56.44932432437781,45.19375543203205 52.922297297394834,45.475230106851086 53.34797297301702,45.19375543203205 52.70945945952553,41.21790120535297 49.091216216329485,35.517924341518665 49.0,32.316044319275534 49.4256756757386,32.06974462931976 66.42229729739483,32.35122997488361 65.20608108118176,43.43453352997312 64.44594594603404,43.92711656363099 53.83445945952553,43.57527161113103 52.67905405408237,39.88087802033988 49.69932432437781,36.08088919633883 49.33445945952553,34.07532272240496 53.56081081076991,33.758653269702336 65.875,34.18087914233911 66.05743243254256,36.819779178884346 64.96283783798572,45.404861459624954 63.320945946034044,45.510414425079944" stroke="#4DD2FF" stroke-linecap="round" stroke-linejoin="round" stroke-width="0.5"><title>2025-07-15 4.1km</title><desc>1752589649000</desc></polyline><polyline fill="none" points="101.08505030663218,31.5 101.16732900287025,33.416027070335986 100.52966910699615,37.414591302476765 100.30340269237058,37.87870152412506 100.29311785532627,39.05681921314681 99.38805219670758,44.57834422936139 99.42919154488482,45.19711961026769 98.74010746384738,50.3256897681058 99.56289442622801,58.5 99.08979192283005,55.26366005757882 98.72982262680307,50.06391204116517 100.27254818129586,38.97351835169684 100.17998464801349,38.59271365915629 100.48852975887712,37.49789327252802 101.0953351436765,33.535033929023484 101.02334128442453,33.11850939458964 101.27017737319693,31.85702605386905 101.04391095857136,31.57140529784374" stroke="#4DD2FF" stroke-linecap="round" stroke-linejoin="round" stroke-width="0.5"><title>2025-07-13 5.0km</title><desc>1752418082000</desc></polyline><polyline fill="none" points="137.26551824639319,58.5 137.12696084659547,58.48766697220708 137.21222693880554,57.513353818394535 137.68119044601917,54.55336714761506 137.95830524573103,54.306698332999076 138.43792701442726,50.95195267667441 138.6937252910575,47.48610700756399 137.99028003029525,42.6633598826229 137.62789913837332,38.629866611583566 137.41473390778992,37.84042104388209 136.96708692365792,37.124981560598826 137.0630112774088,36.93995342133712 137.57460783066927,37.01396471092448 137.35078433866147,34.670251948387886 136.8391877852846,34.02880687867582 136.87116256990703,32.56087174406275 136.5087816780433,31.5493430775241 136.2849581859191,31.5493430775241 136.47680689336266,31.5 136.8391877852846,32.400508005943266 136.828529523802,34.04114239279443 137.2974930309574,34.47288459591073 137.35078433866147,34.719593736328534 137.57460783066927,36.976959071762394 137.052353015868,36.95228863939701 136.93511213903548,37.08797595536453 137.40407564630732,37.76641025853314 137.6172408768325,38.51885113905155 138.0542295994237,43.31709386999137 138.7150418140809,47.39976795137045 138.7043835525983,48.978529555788555 137.40407564630732,57.85868089432188" stroke="#4DD2FF" stroke-linecap="round" stroke-linejoin="round" stroke-width="0.5"><title>2025-07-12 5.1km</title><desc>1752325602000</desc></polyline><polyline fill="none" points="174.83732376794796,58.5 174.57494274852797,58.48785562253761 175.16267623199383,54.44370929338038 175.40406676987186,54.322261341061676 176.07576217950555,49.81645507521898 176.18071458727354,47.54526999294467 175.56149538146565,43.476461496102274 175.08920954656787,38.532976362956106 174.4594951000181,37.257596879295306 174.54345702618593,37.12398490729538 175.06821906502591,37.20901072494598 174.82682852714788,34.743237440918165 174.3545426922501,34.22092425169103 174.33355221070815,32.581088932020066 173.80879017192638,31.5 174.36503793299198,32.714705985701585 174.3545426922501,34.20877740618016 174.83732376794796,34.755384232106735 175.09970478736795,37.172571096198226 174.59593323006993,37.11183835697011 174.48048558161827,37.30618301384675 175.11020002810983,38.63014757489873 175.57199062226573,43.45216968598834 176.19120982801542,47.46025153128721 176.08625742030563,49.75572876309889 175.0787143057678,56.45972727240587" stroke="#4DD2FF" stroke-linecap="round" stroke-linejoin="round" stroke-width="0.5"><title>2025-07-10 5.0km</title><desc>1752149320000</desc></polyline><polyline fill="none" points="21.213548945612274,61.5 21.27678821166046,63.1830451440037 21.735272890422493,62.94522450209479 22.715481514227577,63.27451453798858 23.774739220389165,63.1830451440037 24.960475458705332,63.622097811399726 31.078874448372517,64.42702492090757 31.252782429975923,64.66484360549657 29.845708760549314,73.64684241666691 29.165886650560424,73.70172086940147 29.039408118464053,73.93952730449382 28.80226087081246,75.53099305590149 28.976168852415867,76.22611161459645 27.90110132971313,82.28084664086055 20.027812707354315,82.04305122040387 19.759045826620422,81.86013145260222 18.74721756996587,88.5 19.806475276127458,81.96988333557965 22.873579679231625,82.02475925194449 23.90121775242733,81.62233547664073 24.04350610106485,82.04305122040387 27.948530779220164,82.1710949473927 30.66781921905931,65.14048003232165 30.58877013658639,64.51849368296098 22.446714633435477,63.091575703481794" stroke="#4DD2FF" stroke-linecap="round" stroke-linejoin="round" stroke-width="0.5"><title>2025-07-08 5.1km</title><desc>1751976330000</desc></polyline><polyline fill="none" points="49.240484281792305,88.25415402713406 49.18254029483069,88.5 49.54951887985226,88.34355259449512 49.665406854008324,87.09196934434294 50.34142003708985,86.53322452242719 50.47662267368287,85.95212840189924 52.42740357317962,72.43003512376163 52.60123553453013,68.33971749727789 52.137683637673035,65.3222212989931 53.19999006809667,65.27751734030608 53.47039534128271,65.67985264111485 57.19812517904211,66.2162985636096 60.19189784664195,66.17159478676331 62.37445469456725,67.04331679685856 69.32773314823862,68.07149728978402 70.60250086477026,61.5 75.81745970516931,62.66231994012196 71.1626260735793,61.56705708669324 70.29346626682673,65.43398115586024 70.1582636302337,68.11620068043703 57.14018119184766,66.3727617112163 53.47039534128271,65.7022045807098 53.142046081018634,65.21046138522797 52.079739650595,65.38927721993241 52.504662222694606,67.17742756856023 52.581920872209594,71.04425297446141 50.39936402416788,86.01917803267133" stroke="#4DD2FF" stroke-linecap="round" stroke-linejoin="round" stroke-width="0.5"><title>2025-07-06 5.0km</title><desc>1751807521000</desc></polyline><polyline fill="none" points="90.6096013794886,86.82643208399531 91.77941321220715,78.50764349047677 87.99347673542798,78.23690888327837 86.80239559675101,78.65531678503612 88.35505493823439,78.50764349047677 88.14236187783536,78.26152113279386 92.05591419071425,78.48303126599058 92.33241516945418,78.23690888327837 92.20479933312163,77.47392790745653 93.79999728663824,67.4072764031589 93.6511121444637,62.386100647825515 96.39485262474045,62.115348016130156 113.19760440313257,64.8720879327011 113.17633509717416,64.0598374686524 94.69330814073328,61.5 94.99107842554804,67.57956980200834 93.055571575067,81.26419680798426 93.58730422623921,82.1010014286876 93.09811018710025,83.0116384660796 93.20445671735797,84.9805717071722 92.4600310055539,85.15285260422388 92.11972210893873,88.5 90.39690831897315,88.30311025716946 90.50325484923087,86.85104346064327" stroke="#4DD2FF" stroke-linecap="round" stroke-linejoin="round" stroke-width="0.5"><title>2025-07-05 4.8km</title><desc>1751729502000</desc></polyline><polyline fill="none" points="141.84566448954865,88.5 142.1128736329265,88.3047179729183 142.15506455022842,87.19811532145832 142.52071916748537,85.58701837950503 142.7176101152436,85.52192321291659 142.9707556195208,83.16220555844484 137.4718727217405,82.93436890971498 137.82346369989682,81.7138099144795 138.34381834743544,76.21304193063406 138.40007290401263,72.19313043069269 138.2031819562544,71.65604959113989 138.41413654305506,68.36842457647435 138.40007290401263,61.5 131.01666236348683,64.15300461303559 130.86196233308874,64.52735141740413 130.91821688966593,64.20183250671835 134.89822676189942,62.68816087656887 134.96854495751904,66.04100565695262 135.36232685303548,66.88734372450563 138.3016274300753,66.88734372450563 138.31569106923416,71.18406797210628 138.62509112991393,71.3305451751803 138.73760024289368,71.85135192307644 143.88489216263406,72.17685528020957 144.13803766691126,73.46258707126253 144.10991038853535,75.80617288773647 142.3378918589442,87.89787965167488" stroke="#4DD2FF" stroke-linecap="round" stroke-linejoin="round" stroke-width="0.5"><title>2025-07-03 5.2km</title><desc>1751545471000</desc></polyline><polyline fill="none" points="174.5268631046638,88.5 175.168226451613,84.54589664766536 175.43108028237475,84.36339641709492 176.10398608905962,79.37494904701452 176.15655685518868,77.64719441740453 175.0105141531676,68.4726428541544 174.4532640320831,67.31664813787938 174.56891971756704,67.15845851862105 175.04205661290325,67.24363757034735 174.82125939504476,64.88293854891526 174.3060658868635,64.22582847361628 174.31658004008932,62.729064275677956 173.8224148383597,61.5 174.35863665299257,62.83858424209757 174.3060658868635,64.25016594817134 174.7792027821415,64.71257702404546 174.8528018547222,65.08980578878982 175.04205661290325,67.23146913808887 174.5268631046638,67.19496383392107 174.4532640320831,67.35315340491798 175.02102830645163,68.4726428541544 175.56776427431032,73.68056478968356 176.1775851615821,77.61069229005079 175.99884455668507,80.33615385473968 174.8422877014964,88.08634607310523" stroke="#4DD2FF" stroke-linecap="round" stroke-linejoin="round" stroke-width="0.5"><title>2025-07-01 5.0km</title><desc>1751376396000</desc></polyline><polyline fill="none" points="24.05114498367766,118.5 24.246115192538127,118.25935323357407 24.20712115080096,117.37196490111819 24.519073484872933,117.07115408949903 24.74003972153878,115.8979860827676 25.077988083474338,111.7617426396173 25.545916584611405,110.15233667822031 26.065837141533848,105.9256825432094 25.93585700233234,103.50395086301432 25.207968222675845,99.18685260904022 24.7140436937334,93.9520139771339 23.934162858466152,92.01146639265062 24.623057596210856,92.14685425945208 24.64905362407444,91.5 24.64905362407444,92.11676807749609 24.05114498367766,91.99642328869959 23.947160872339737,92.14685425945208 24.441085401340388,92.88396380489576 24.74003972153878,93.92192816233728 25.2859563062666,99.75846170312434 26.065837141533848,104.94796955458878 26.000847071874887,107.36967760315747 24.363097317807842,117.98862515375367" stroke="#4DD2FF" stroke-linecap="round" stroke-linejoin="round" stroke-width="0.5"><title>2025-06-30 4.1km</title><desc>1751292736000</desc></polyline><polyline fill="none" points="49.30313588847639,106.66440344061994 49.0,104.4734598604191 49.10452961671399,104.24346896374482 57.23693379794713,103.85611486788548 58.53310104529373,103.97716315856815 60.64459930313751,103.77138099104195 63.81184668990318,103.80769551710546 76.0,103.03298321942566 72.36236933799228,103.28718624914472 71.51567944255657,103.56559846693563 69.9477351916139,103.49296925563249 62.013937282259576,103.90453419898404 54.63414634147193,104.03768725762347 54.41463414632017,104.23136416738998 54.926829268282745,106.96701678057434 54.68641114985803,106.94280774176877 54.39372822298901,105.51446571711858" stroke="#4DD2FF" stroke-linecap="round" stroke-linejoin="round" stroke-width="0.5"><title>2025-06-26 5.0km</title><desc>1750950176000</desc></polyline><polyline fill="none" points="113.5,106.10503620783857 113.06404736277182,103.89496379215416 101.4483315392863,104.96074029371084 100.20828848227393,104.97195893882599 95.73250807315344,104.41102528154443 86.5,104.80367914179078 95.42249730892945,104.3998065792257 100.21797631861409,104.9831775828352 108.48170075350208,104.23152590745303" stroke="#4DD2FF" stroke-linecap="round" stroke-linejoin="round" stroke-width="0.5"><title>2025-06-24 5.0km</title><desc>1750769966000</desc></polyline><polyline fill="none" points="151.0,106.08125815037783 150.630403458199,103.91874184961489 139.1340057636844,105.01126839474455 137.733429394837,105.05632080390933 133.2010086455266,104.47063805232028 124.0,104.8761110570922 132.9578530259314,104.47063805232028 137.7237031700206,105.05632080390933 147.459654178645,104.18905870145682" stroke="#4DD2FF" stroke-linecap="round" stroke-linejoin="round" stroke-width="0.5"><title>2025-06-22 5.0km</title><desc>1750563938000</desc></polyline><polyline fill="none" points="175.92269060903345,118.5 174.52724332752405,110.1631483968813 174.50768098243861,107.88998530217941 174.63157583452994,106.93840794199059 174.55332645427552,104.4914385842203 174.579409581027,104.06849741340557 174.72286677817465,103.82681565982057 174.579409581027,103.71352706628386 174.57288879930275,102.16523225016135 172.98833884883788,92.63306504517823 172.59057116578333,91.5 172.99485963050392,92.48954443218827 174.55332645427552,102.00662461162574 174.63809661622508,106.64386961449054 174.52724332752405,107.89753745454072 174.5207225457998,110.08762914865656 175.59013074287213,116.4913878494408 175.74010872171493,116.92936055468454 177.40942883418757,116.8387457246572" stroke="#4DD2FF" stroke-linecap="round" stroke-linejoin="round" stroke-width="0.5"><title>2025-06-21 8.0km</title><desc>1750517001000</desc></polyline><polyline fill="none" points="27.739227966521867,148.5 25.452105586766265,134.43581285400433 21.427479383419268,134.35368332975486 14.176060365047306,133.65558102146315 14.31789741187822,132.91641123416775 14.034223318216391,131.49966155918082 14.424275196972303,122.23921169007372 14.371086304308847,121.58213476624223 14.016493687406182,121.5 13.573252916103229,132.89587870138348 14.246978888520971,132.97800882003503 14.282438150141388,133.67611347688944 25.505294479313307,134.41528047611064 26.870476054842584,143.20294697614736 27.29598719533533,144.3732381197624 36.42674708389677,144.0857988196658" stroke="#4DD2FF" stroke-linecap="round" stroke-linejoin="round" stroke-width="0.5"><title>2025-06-19 5.0km</title><desc>1750345525000</desc></polyline><polyline fill="none" points="76.0,135.6759281525956 75.75217391308979,134.20323694503895 68.10869565219036,134.92825781260763 67.12391304346966,134.95091460038384 63.85000000000582,134.5733005658767 51.719565217383206,135.12461641010304 50.66956521739485,135.29831781263056 49.0,135.79676305496105 51.35434782606899,135.1623776191991 55.61956521740649,134.973571381277" stroke="#4DD2FF" stroke-linecap="round" stroke-linejoin="round" stroke-width="0.5"><title>2025-06-17 5.1km</title><desc>1750166247000</desc></polyline><polyline fill="none" points="87.43103448266629,145.1887884356256 86.5,139.20505966164637 107.54137931042351,138.5851160576858 104.11982758634258,125.08076648047427 108.262931034551,125.32336567013408 113.5,124.81121156437439 105.23706896556541,125.2964102156111 108.28620689664967,137.4530413786124 99.25517241389025,137.88430849451106" stroke="#4DD2FF" stroke-linecap="round" stroke-linejoin="round" stroke-width="0.5"><title>2025-06-16 3.2km</title><desc>1750084948000</desc></polyline><polyline fill="none" points="151.0,136.24813276056375 150.58629032265162,133.75186723943625 137.31491935480153,134.97479149090213 136.11733870970784,134.9873988944746 130.86975806450937,134.34441967524617 124.0,134.6722134202937 130.65201612905366,134.3318122061537 136.10645161295542,134.96218408609275 147.36370967747644,134.0166250615439" stroke="#4DD2FF" stroke-linecap="round" stroke-linejoin="round" stroke-width="0.5"><title>2025-06-15 4.6km</title><desc>1749956754000</desc></polyline><polyline fill="none" points="188.5,136.08587058149715 188.1713211600436,133.91412941849558 176.6095596133964,134.97761628103763 175.40118152525974,135.0000053674812 170.31632653065026,134.42908223781706 161.5,134.83208710800682 170.49033297528513,134.42908223781706 175.32384532765718,135.0000053674812 177.84693877556128,134.876865335631 178.32062298600795,134.72014145906724 184.4495166487759,134.17160612992302" stroke="#4DD2FF" stroke-linecap="round" stroke-linejoin="round" stroke-width="0.5"><title>2025-06-14 5.1km</title><desc>1749906363000</desc></polyline><polyline fill="none" points="38.5,166.6031278822411 38.17538896744372,164.4140393822163 26.985855728387833,165.49753315105045 25.477369165455457,165.5085891541603 20.894625176792033,164.95578761938668 12.263790664786939,165.36486102611525 12.149222065054346,165.1105723330984 12.196958981628995,163.40792833494925 11.5,163.39687211776618 12.225601131562144,163.4300407659539 12.149222065054346,165.09951628942508 12.292432814720087,165.36486102611525 21.133309759548865,164.9447315599682 25.68741159827914,165.51964515614236 34.757425742573105,164.70149796747137 34.74787835928146,164.2592536746306 37.659830268705264,164.1044677462196" stroke="#4DD2FF" stroke-linecap="round" stroke-linejoin="round" stroke-width="0.5"><title>2025-06-12 5.9km</title><desc>1749735885000</desc></polyline><polyline fill="none" points="76.0,173.49395450744487 75.13929313933477,169.16043322924816 51.488565488602035,171.26220208083396 49.261954261921346,165.17351563402917 49.0,157.56782958049735 53.415800415794365,157.37280841091706 57.17671517666895,157.61116759384458 57.38253638264723,156.9177583195269 56.9896049896488,156.7660747392365 49.112266112235375,156.50604549255513 49.280665280646645,164.95683318760712 49.935550935566425,167.42699998401804 51.22661122656427,170.50383427276392 61.704781704815105,169.59378933210974 61.910602910560556,170.41716349385388 75.08316008327529,169.13876540087222 75.88773388788104,173.42895234079333" stroke="#4DD2FF" stroke-linecap="round" stroke-linejoin="round" stroke-width="0.5"><title>2025-06-10 5.3km</title><desc>1749559786000</desc></polyline><polyline fill="none" points="87.20892723184079,157.81136312570015 86.56076519133057,155.1843418331846 86.5,153.14368852811458 104.87134283571504,152.6745702677872 105.70180045010056,155.74727749169688 105.09414853714406,155.72382186680625 104.91185296326876,156.14602274999197 105.29669917479623,158.32738164174953 105.19542385591194,159.80506462824997 105.86384096019901,162.76040213982924 107.58552138041705,162.69003740198968 110.13765941490419,172.5174374926719 110.17816954245791,172.96306144281698 109.53000750183128,173.15069232168025 110.11740435112733,172.98651531108771 110.31995498866308,173.36177687748568 109.79332333081402,173.45559217360278 109.97561890468933,174.32338184933178 111.19092273060232,177.4192534990143 112.04163540888112,177.3254398182762 113.5,176.52802198873542 111.96061515377369,176.85637084134214 109.22618154541124,165.95024766400456 108.90210052521434,165.01206239295425 108.17291822959669,165.01206239295425 107.62603150785435,162.6196726425842 107.03863465867471,162.85422175684653 105.84358589653857,162.69003740198968 105.1751687922515,159.99270623335906 105.03338334581349,156.5213117737876 103.91935483866837,152.5807465009857 86.56076519133057,153.1906003015465 87.2899474868318,157.95209556295595" stroke="#4DD2FF" stroke-linecap="round" stroke-linejoin="round" stroke-width="0.5"><title>2025-06-08 5.0km</title><desc>1749355299000</desc></polyline><polyline fill="none" points="151.0,166.11104457739566 150.52512562810443,163.88895542260434 141.8223259152146,164.61843407912238 139.2056712131598,164.988782932116 137.75197415647563,164.988782932116 133.1486001435551,164.4276478202446 124.0,164.83166538903606 132.71249102655565,164.4276478202446 137.70351758797187,165.00000560516492 148.1992103374214,164.05729707995488" stroke="#4DD2FF" stroke-linecap="round" stroke-linejoin="round" stroke-width="0.5"><title>2025-06-07 5.3km</title><desc>1749293029000</desc></polyline><polyline fill="none" points="188.5,166.06960941148282 188.1013683832134,163.9303905885099 175.78267915017204,165.05630039593234 170.78519985597814,164.48208782799338 161.5,164.86489653825993 170.7463089664816,164.45956962725177 175.18959308607737,165.05630039593234 184.70813827874372,164.18935086035344" stroke="#4DD2FF" stroke-linecap="round" stroke-linejoin="round" stroke-width="0.5"><title>2025-06-05 5.1km</title><desc>1749128617000</desc></polyline><polyline fill="none" points="11.877952755894512,194.8291006013751 11.5,192.3535048525082 11.641732283460442,192.24408520200814 22.23622047243407,191.87479322293075 24.23228346457472,199.19205598090775 34.69685039372416,199.05528837315796 38.5,198.8227831201075 35.37007874023402,198.93219740698987 34.79133858269779,190.80794401909225 24.775590551202185,191.39607988562784 22.625984252023045,191.32769212657877 22.814960629912093,191.87479322293075 17.26377952756593,192.03892311688105" stroke="#4DD2FF" stroke-linecap="round" stroke-linejoin="round" stroke-width="0.5"><title>2025-06-03 5.2km</title><desc>1748952979000</desc></polyline><polyline fill="none" points="71.32812387138256,186.95102627472806 70.73583360738121,186.07437200300046 70.31598228102666,185.15430930953153 70.04607785696862,184.9025923143563 69.37881414181902,184.84183292830858 68.86899467409239,184.25159663868544 68.63657697557937,183.479075319985 68.29169910034398,182.9495903725183 67.87934511908679,181.5 66.68726724601584,182.0121335466174 66.13246370758861,182.07289494965516 64.6929734457517,182.6110654857912 64.07819114642916,183.4009547968526 64.07819114642916,183.60059599143278 61.589072568691336,186.76875236649357 61.5740778784384,186.95102627472806 60.891819473094074,187.88842879005097 60.29952920912183,188.43524216420337 60.19456637755502,188.3397670659033 59.774715051142266,188.7043077751805 59.497313281928655,188.53939669500687 59.489815936860396,188.695628252608 59.452329211257165,188.46996035530174 59.84219115716405,188.7477053748662 59.78221239626873,189.06016744037333 58.88253098263522,190.05830247803533 57.34557523432886,190.40547714347485 57.34557523432886,190.24924871899566 57.24061240273295,190.44019453226792 56.8207610763493,190.53566727857833 56.453391165763605,190.43151518639206 55.83860886647017,190.48359124838316 55.73364603484515,190.38811844377778 55.4862336461083,190.52698794243042 54.743996479868656,190.26660744694527 54.646530993370106,189.1296032993996 54.36163187905913,188.8778980413117 52.959628342825454,189.2337569819574 52.43481418484589,189.55489670216775 53.0346017939446,192.15000843884627 53.97926727824961,195.0488024101578 55.973561078484636,202.8420772903337 56.25096284769825,203.64913522416464 58.605129213421606,208.4132248777314 58.90502301795641,208.5 59.939656643691706,208.17025406586617 60.644407084357226,208.37851480412792 61.93395044392673,208.10951125479914 61.91145840854733,207.5975344143153 62.25633628378273,207.50208076529088 62.87861592823174,207.7884413920401 63.35094867038424,207.56282400886266 63.54587964335224,207.84918443171773 64.76044955177349,208.11818880186183 65.47269733759458,207.98802550288383 66.19244246848393,207.45001509351277 66.31989733543014,206.4347281429291 66.85970618363353,205.68844114096282 66.7172566264635,204.94214761032345 66.8896955640812,204.57767630389571 66.5223256534955,204.1698137098865 66.28990795501159,203.56235516754532 66.1999398136104,202.65983734526526 66.68726724601584,202.2693218661734 67.42950441225548,202.5730562821991 67.84185839351267,202.5470219460476 67.94682122510858,201.98294271186023 67.77438228749088,201.28868622577284 67.63193273032084,201.22793851438473 67.77438228749088,201.15851250554988 67.60944069499965,201.10644296182727 67.74439290701412,201.18454726548953 67.75938759726705,200.77666844679334 67.56445662429905,200.32539599156007 66.67976990086026,200.26464759409282 66.26741591963219,199.95222658084094 66.43985485722078,198.77195909165312 67.14460529794451,197.5656394122998 67.6844141461188,196.96681251468544 67.93182653485565,196.88002565894567 68.46413803796167,196.14233381917438 69.40130617716932,195.2484163326153 70.23351148478105,194.20694724864734 69.99359644114156,193.7209239898366 69.25135927490192,193.71224497790536 69.15389378840337,193.42583708835446 69.43879290271434,192.74019005086302 69.76867608772591,192.42774147097953 70.07606723741628,192.47113717553293 70.20352210430428,192.3149125357886 69.94111502537271,191.71604876507627 70.29349024567637,190.97831225095433 70.62337343071704,190.78736764272617 70.90077519993065,190.90019859925815 70.86328847432742,190.69189517828636 71.69549378196825,190.3100042514052 71.7704672330874,190.0756612448895 72.49770970913232,189.63301158633112 72.56518581515411,188.9994110173211 71.61302298569353,187.18537786986417 71.46307608339703,187.11594042734941" stroke="#4DD2FF" stroke-linecap="round" stroke-linejoin="round" stroke-width="0.5"><title>2025-06-02 11.5km</title><desc>1748829019000</desc></polyline><polyline fill="none" points="113.5,196.26263021256455 113.00541215651901,193.73736978744273 98.74104912573239,195.06509025622654 92.82847626972944,194.3882148791963 86.5,194.66156882866198 92.90716069936752,194.3621811392004 98.08909242291702,195.0390566542119 112.98293089086656,193.7503867218038 113.48875936720287,196.18453012289683" stroke="#4DD2FF" stroke-linecap="round" stroke-linejoin="round" stroke-width="0.5"><title>2025-06-01 4.9km</title><desc>1748740054000</desc></polyline><polyline fill="none" points="151.0,208.0111600077944 150.90223295113537,208.218719774668 150.70669885334792,208.06776724004885 150.05491852742853,204.44486948511621 129.45866022934206,206.23745796419098 127.55220277613262,200.8973800696549 127.4707302353927,194.17960747845063 127.01448400726076,191.65094452886842 124.0,181.78128022531746 125.98792999394936,188.38627634763543 126.52564876287943,189.40531190379988 127.40555220283568,193.19833939056844 128.28545564279193,193.44365690021368 127.37296318652807,193.4247863341152 127.55220277613262,200.2746754460095 128.1713940856862,202.82209020935989 129.2468316234299,205.48268598319555 129.52383826189907,205.65250994720554 138.355461677711,204.7467803391337 138.59987929993076,205.46381664427463 145.62281231139787,204.78451916128688" stroke="#4DD2FF" stroke-linecap="round" stroke-linejoin="round" stroke-width="0.5"><title>2025-05-31 5.5km</title><desc>1748696141000</desc></polyline><polyline fill="none" points="186.60649350646418,202.45134619038436 185.99285714281723,198.4922928003798 163.77922077919357,200.48198074942047 161.7279220778728,194.63467791416042 161.5,187.58926211578364 169.03896103880834,187.67047870339593 161.60519480518997,187.54865380961564 161.74545454536565,194.53316072409507 162.28896103892475,196.70561729859037 163.65649350639433,199.83228891035833 183.3279220778495,197.94410997556406 185.08116883109324,197.84259447203658 185.16883116879035,198.59380797277845 188.5,198.32986841695674" stroke="#4DD2FF" stroke-linecap="round" stroke-linejoin="round" stroke-width="0.5"><title>2025-05-29 5.0km</title><desc>1748526381000</desc></polyline><polyline fill="none" points="27.86687797133345,222.34929061686853 27.267828842974268,217.44378960411996 37.40887480182573,216.9482789465983 38.5,220.937111078194 37.323296354850754,217.04738115885993 27.225039619603194,217.51811611559242 27.503169571980834,219.97087824605114 27.118066561059095,217.54289161435736 12.698098256601952,218.88076479898882 14.858954041148536,229.7073565380706 15.693343898514286,232.23431770293973 15.137083993526176,232.58115346009436 16.014263074379414,234.90989501531294 14.837559429346584,231.83793337465613 11.927892234409228,218.93031551635067 16.97702060220763,218.211829127089 26.11251980974339,217.64199358428596 26.00554675119929,216.92350338718097 12.591125198057853,217.8401974028675 11.842313787550665,215.0901049847016 11.5,215.38741377313272 11.671156893717125,218.03840105980635 21.790808240766637,217.04738115885993" stroke="#4DD2FF" stroke-linecap="round" stroke-linejoin="round" stroke-width="0.5"><title>2025-05-27 6.0km</title><desc>1748352132000</desc></polyline><polyline fill="none" points="72.40205011388753,227.0120401615859 72.5096810934192,226.94081911250396 72.1637243735895,225.21369089363725 63.06890660591307,226.08616199400421 62.015660592296626,226.1039674359272 58.225512528500985,225.65883029899123 49.16913439636119,226.059453824324 49.0,223.10369925123814 50.07630979499663,222.9879598384141 51.56007972668158,223.09479622493382 51.5677676537598,225.65883029899123 58.448462414584355,225.382844134896 62.630694760824554,225.7923716782534 72.14834851937485,224.8486748884825 75.83855353077524,224.71513206644886 76.0,225.00892600539373 75.89236902049743,225.04453732479305 72.48661731209722,225.18698245715495" stroke="#4DD2FF" stroke-linecap="round" stroke-linejoin="round" stroke-width="0.5"><title>2025-05-25 7.6km</title><desc>1748179850000</desc></polyline><polyline fill="none" points="113.48230668413453,226.49058949661412 113.41153342067264,225.90665418278513 113.06651376141235,225.90665418278513 112.84534731321037,224.8104857486178 112.66841415461386,224.5646145519131 104.13138925295789,225.29198176666978 102.73361730010947,225.5480957301843 97.12483617296675,225.02562255236262 86.6503931847983,225.49687298970093 86.5,223.7143053600521 89.10091743117664,223.5094105033786 89.08322411531117,225.0051333528172 89.42824377457146,225.04611174775346 96.77981651376467,224.7285287499035 102.10550458711805,225.18953599854285 113.16382699867245,224.12409382039914 113.5,226.37790048967872" stroke="#4DD2FF" stroke-linecap="round" stroke-linejoin="round" stroke-width="0.5"><title>2025-05-24 6.6km</title><desc>1748094255000</desc></polyline><polyline fill="none" points="151.0,226.2030372157751 150.70628525386564,223.79696278423216 139.5886381950113,224.74176199414796 138.04391619662056,225.0063044787239 136.2816277195816,225.03149897148978 131.20145044318633,224.41423241922166 124.0,224.703970164388 131.16881547140656,224.40163511056016 136.21635777596384,225.04409621599916 147.73650282033486,224.07410463433916" stroke="#4DD2FF" stroke-linecap="round" stroke-linejoin="round" stroke-width="0.5"><title>2025-05-18 4.7km</title><desc>1747565909000</desc></polyline><polyline fill="none" points="184.99069567702827,225.96672524152382 184.69696535929688,224.2391534551498 176.86673346691532,224.90154250922205 175.56040652733645,225.13427261247125 174.50916117947781,225.12532146604644 170.93028914972092,224.6598605953768 161.55410821642727,225.08951687128865 161.5,224.8209819451513 166.77941597480094,224.4808365267163 170.35828800458694,224.41817801647267 174.54008016031003,225.08951687128865 184.79745204694336,224.17649477245868 188.25264815342962,224.0332747584689 188.39178356711636,224.05117727299512 188.41497280274052,224.17649477245868 188.5,224.12278729458922" stroke="#4DD2FF" stroke-linecap="round" stroke-linejoin="round" stroke-width="0.5"><title>2025-05-17 5.7km</title><desc>1747487200000</desc></polyline><polyline fill="none" points="37.024531312286854,253.883791242617 33.44894295971608,254.07086714363686 31.70422816107748,254.38265967639018 23.691463901021052,254.99377073609503 18.67271639406681,254.3452446144147 11.5,254.6320931306036 18.575787794135977,254.37018799035286 23.49760670121759,254.98129911229626 37.79996011161711,253.73413031590462 38.27383326686686,256.15362619120424 38.5,256.2658696840954" stroke="#4DD2FF" stroke-linecap="round" stroke-linejoin="round" stroke-width="0.5"><title>2025-05-11 5.0km</title><desc>1746965499000</desc></polyline><polyline fill="none" points="76.0,255.9700661204988 75.56420373020228,254.0299338795012 63.31348637008341,255.14018715215934 58.335724533651955,254.56823989559052 49.0,254.9607530387293 58.10329985647695,254.5794545762401 62.75179340026807,255.14018715215934 75.64167862263275,254.05236334940855" stroke="#4DD2FF" stroke-linecap="round" stroke-linejoin="round" stroke-width="0.5"><title>2025-05-10 5.3km</title><desc>1746870058000</desc></polyline><polyline fill="none" points="113.44104803493246,254.5448839132514 113.37227074237308,254.35145821388141 113.5,254.49937201412104 112.97925764194224,254.5903957937844 100.94323144108057,255.6485417861113 95.84388646291336,255.0455135788361 86.5,255.43236223729036 95.79475982533768,255.0455135788361 98.18231441045646,255.2389380756431 100.35371179040521,255.6371639255376 110.20851528388448,254.7496872296324" stroke="#4DD2FF" stroke-linecap="round" stroke-linejoin="round" stroke-width="0.5"><title>2025-05-05 5.4km</title><desc>1746434825000</desc></polyline></svg>