<?xml version="1.0" encoding="utf-8" ?>
<svg baseProfile="full" height="300mm" version="1.1" viewBox="0,0,200,300" width="200mm" xmlns="http://www.w3.org/2000/svg" xmlns:ev="http://www.w3.org/2001/xml-events" xmlns:xlink="http://www.w3.org/1999/xlink"><defs /><rect fill="#222222" height="300" width="200" x="0" y="0" /><text fill="#FFFFFF" style="font-size:12px; font-family:Arial; font-weight:bold;" x="10" y="20">Over 3km Runs</text><text fill="#FFFFFF" style="font-size:4px; font-family:Arial" x="10" y="280">Runner</text><text fill="#FFFFFF" style="font-size:9px; font-family:Arial" x="10" y="290">tang-hi</text><text fill="#FFFFFF" style="font-size:4px; font-family:Arial" x="65" y="280">SPECIAL TRACKS</text><rect fill="yellow" height="2.6" width="2.6" x="65" y="283" /><text fill="#FFFFFF" style="font-size:3px; font-family:Arial" x="70" y="285.5">Over 20.0 km</text><rect fill="red" height="2.6" width="2.6" x="65" y="287" /><text fill="#FFFFFF" style="font-size:3px; font-family:Arial" x="70" y="289.5">Over 40.0 km</text><text fill="#FFFFFF" style="font-size:4px; font-family:Arial" x="120" y="280">STATISTICS</text><text fill="#FFFFFF" style="font-size:3px; font-family:Arial" x="120" y="285">Number: 93</text><text fill="#FFFFFF" style="font-size:3px; font-family:Arial" x="120" y="290">Weekly: 3.7</text><text fill="#FFFFFF" style="font-size:3px; font-family:Arial" x="141" y="285">Total: 482.6 km</text><text fill="#FFFFFF" style="font-size:3px; font-family:Arial" x="141" y="290">Avg: 5.2 km</text><text fill="#FFFFFF" style="font-size:3px; font-family:Arial" x="167" y="285">Min: 3.0 km</text><text fill="#FFFFFF" style="font-size:3px; font-family:Arial" x="167" y="290">Max: 11.5 km</text><polyline fill="none" points="19.765466492361156,48.45722904626018 19.819851073843893,47.92232061498362 19.969408672914142,47.788592929668084 20.200543144193944,45.89278147974983 20.295716161781456,45.798383015622676 20.744388958933996,42.368494068970904 20.771581249689916,41.33005734877224 20.350100743264193,38.600161024827685 20.07137976316153,35.610538720633485 19.663495402084664,34.76870317724388 19.70428383818944,34.674291143222945 20.050985545123694,34.737232512037735 19.894629873364465,33.16368293099367 19.581918529846007,32.786026269466674 19.59551467525307,31.873348393346532 19.22841875028098,31.0 19.57512045718613,31.810404694675526 19.547928166459315,32.738819057172805 19.88783180070459,33.13221161293768 20.023793254396878,34.721497174628894 19.690687692840584,34.61134972322179 19.649899256735807,34.75296784622333 19.874235655297525,35.08340912525455 20.057783617812674,35.68134690012084 20.34330267054611,38.68670100298914 20.75118703165208,41.33005734877224 20.635619795997627,43.27318137000111 19.88103372801561,48.44936277256784 19.60231274794205,48.45722904626018 19.670293474802747,48.693216885039874 19.581918529846007,49.0" stroke="#4DD2FF" stroke-linecap="round" stroke-linejoin="round" stroke-width="0.5"><title>2025-10-21 5.1km</title><desc>1761051395000</desc></polyline><polyline fill="none" points="43.869769795186585,31.106521599453117 43.58702331248787,31.0 43.38318282493856,31.281521040968073 43.310852329363115,32.483680063145584 42.791387861158,35.33682833637431 42.850567357527325,35.51942612497078 42.26534789332072,39.20171985210618 42.298225391306914,39.60493523449986 41.84451591907418,42.89144005118578 42.44946188206086,49.0 43.060983344650595,48.901110716338735 42.804538860335015,48.825041947835416 42.19959289734834,43.08923435230099 42.541518876416376,40.122264999125036 42.738783864391735,39.41473956988193 43.271399331773864,35.24552927513287 43.409484823350795,34.94119826715905 43.356880826555425,34.66729930260772 43.659353808063315,32.44563735180418" stroke="#4DD2FF" stroke-linecap="round" stroke-linejoin="round" stroke-width="0.5"><title>2025-10-19 5.0km</title><desc>1760870639000</desc></polyline><polyline fill="none" points="68.58915859292028,31.63629756296723 68.74722720478894,31.590021502044692 68.81638222251786,31.20824324851128 67.69014336285181,31.0 67.46291973325424,31.150397941702977 67.03811033879174,32.06435019295168 67.20605823898222,32.73534822323563 66.57378379144939,33.383204463090806 66.80100742104696,33.672424753021915 65.82295788498595,32.81633046421484 65.25983845518203,32.469263292667165 65.09189055504976,32.63122811052017 64.77575333131244,32.34200505231274 62.8591714121867,35.77792528907594 62.8591714121867,36.61085930695117 63.23458436538931,37.20085037785611 66.12921582051786,38.88982673395367 64.41021966625703,49.0 66.00078507332364,39.30628262775281 63.1654293477186,37.698291343753226 62.61218920612009,37.02732392444159 62.70110280025983,36.44890041400504 64.72635689005256,32.38828079330415 65.63525140838465,33.07084568625578 66.01066436158726,32.94358814966836 66.81088670925237,33.6492871581213 66.56390450318577,33.325360312832345 67.20605823898222,32.71221042901743 66.98871389759006,32.06435019295168 67.41352329205256,31.185105129508884 67.65062620991375,31.0 68.78674435778521,31.16196700555156 68.80650293425424,31.32393376989785" stroke="#4DD2FF" stroke-linecap="round" stroke-linejoin="round" stroke-width="0.5"><title>2025-10-18 5.0km</title><desc>1760792768000</desc></polyline><polyline fill="none" points="88.99665645090863,31.0 89.12454453497776,31.11098773541744 89.05420608873828,31.72511681359174 89.13733334338758,32.13206696400448 88.71530266600894,34.98065434300952 88.51707613570034,35.72052894018998 88.58741458193981,35.898097725097614 88.01831260789186,39.41978919109533 88.04389022474061,39.78970488326013 87.60907073892304,42.91911647303641 87.63464835574268,44.12497678431828 88.17177830875153,48.963013191380014 88.5234705398907,49.0 88.5554425609298,48.86684740111377 88.24851115921047,45.885644951638824 87.94797416168149,44.01400887784985 87.94157975746202,42.86733061391715 88.24851115921047,40.5961145809124 88.4723153062805,39.39019585456845 88.56183696514927,39.39019585456845 88.44673768951907,39.323610803425254 88.87516277105897,36.23103802994592 89.0030508551281,35.48376988686505 89.12454453497776,35.320997591239575 89.05420608873828,35.084237239090726 89.34195427785744,32.886768496107834 89.53378640394658,32.48722160048783" stroke="#4DD2FF" stroke-linecap="round" stroke-linejoin="round" stroke-width="0.5"><title>2025-10-16 4.6km</title><desc>1760619242000</desc></polyline><polyline fill="none" points="111.19417776557384,49.0 111.20117459134781,48.45754932039563 111.38309206115082,48.23085241978697 112.06878098574816,43.56723019464698 112.18073019792791,41.470130522611726 111.44606349300011,35.68055330423522 111.05424125038553,34.878886363199854 111.14519998527248,34.741225571553514 111.46705397029291,34.78981176049274 111.31312380352756,33.21884330229659 110.97027934121434,32.7896558077191 111.01226029579993,31.979861782201624 110.64842535619391,31.0 110.9982666442811,31.834097983009997 110.99126981853624,32.80585160422925 111.31312380352756,33.21884330229659 111.46005714451894,34.78171406438196 111.18018411408411,34.72503016865085 111.06823490190436,34.814104843833775 111.46705397029291,35.63196765874454 111.69794922039728,38.15028456867003 112.20871750096558,41.704943655393436 112.20871750096558,42.56322025186091 111.71194287194521,46.19055128774198 111.50203809907543,47.34025120863953 111.18718093982898,47.79364943283872 111.2641460231971,48.36848990065482 111.08922537916806,48.96761498844717" stroke="#4DD2FF" stroke-linecap="round" stroke-linejoin="round" stroke-width="0.5"><title>2025-10-14 5.0km</title><desc>1760442162000</desc></polyline><polyline fill="none" points="134.87638672755565,31.0 134.7989214892732,31.522883715202624 134.89575303712627,31.918778911327536 134.8505649814324,32.35948992386693 134.48906053617247,34.66757733162376 134.30185287701897,35.14561874006904 134.19856589267147,36.60960121928656 133.71440815343522,39.39556899483432 133.75959620912909,39.75407728993014 133.30126021598699,43.070196170061536 133.8822495030472,48.98506406692468 134.19856589267147,49.0 134.25020938483067,48.85810851336282 133.63048747865832,42.920824661661754 134.05654628915363,39.74660838495038 134.1727441465482,39.61216796544613 134.5600703379314,36.25854685304512 134.8311986718909,35.205373697586765 134.76018887013197,34.98129235650413 135.037772640615,32.971999146997405 135.27016835543327,32.0980515063784" stroke="#4DD2FF" stroke-linecap="round" stroke-linejoin="round" stroke-width="0.5"><title>2025-10-12 5.0km</title><desc>1760269757000</desc></polyline><polyline fill="none" points="157.75441832933575,31.0 157.76736142323352,32.32544108592265 157.39201170031447,34.84895511166542 157.24316612051916,35.14847626286064 157.2302230266214,35.92722555983346 156.6671984422428,39.35661976530537 156.69955617701635,39.723510571617226 156.25301943765953,42.87570124598278 156.25301943765953,43.75170180210989 156.8289871159359,49.0 157.20433683885494,48.94010712039017 156.5636536910897,43.01047123972239 157.65734512516065,35.34316435844812 157.7803045171313,35.16345228847058 157.7220605945913,34.89388336194679 158.0326948480797,32.66241383264423" stroke="#4DD2FF" stroke-linecap="round" stroke-linejoin="round" stroke-width="0.5"><title>2025-10-11 5.0km</title><desc>1760186515000</desc></polyline><polyline fill="none" points="180.58429231276386,31.0 180.60355469671777,31.661242225862225 180.68702502711676,31.787546240506344 180.64207946459646,32.54536574674421 180.26967337512178,35.00451024670474 180.1348366875609,35.24224792933819 180.1348366875609,35.933168682553514 179.64043549983762,39.26881253547617 179.53770278548473,39.4693920607242 179.56980675872182,39.93740881382837 179.14603431211435,42.983158971699595 179.34507894614944,45.79107969695178 179.74316821416141,49.0 180.1797822500812,48.962860523708514 179.53770278548473,44.08999773445248 179.47991563368123,42.91630240272934 179.9036880803178,39.89283591874846 180.0256831785955,39.63282682272256 180.46871800912777,36.000031634837796 180.67418343780446,35.27939437243913 180.60997549135936,35.049086121071014 180.85396568788565,33.37747223654151" stroke="#4DD2FF" stroke-linecap="round" stroke-linejoin="round" stroke-width="0.5"><title>2025-10-10 5.0km</title><desc>1760093219000</desc></polyline><polyline fill="none" points="20.261692202679114,69.0 21.40659558941843,60.558792945848836 21.3248167760903,58.84585372029687 20.74418720137328,54.21792108262889 21.005879404052394,54.63434979901649 20.99770152271958,53.564881389655056 21.63557626673719,53.72577565238316 20.989523641386768,53.55541701258335 20.956812116055517,54.161135204238235 21.14490338671021,54.60595699114492 20.77689872670453,54.823634963344375 20.82596601473051,55.29684619026375 20.40889406669885,55.344167180664954 20.032711525360355,52.48593620691099 19.607461695966776,51.70984509639675 19.664706865354674,51.54894734903064 20.057245169358794,51.66252225840435 20.032711525360355,51.113575579205644 19.869153898674995,51.0 18.36442373326281,51.24608024649933 19.860976017313078,51.04732317484013 20.049067287996877,51.21768640508526 20.065423050691606,51.63412854405033 19.672884746658383,51.53001818397024 19.63199533999432,51.70038053073222 20.114490338688483,52.78879927516391 20.4416055920301,56.40415106108412 20.89138906536391,59.139232288369385 20.948634234722704,60.41683785411442 20.098134575993754,66.53017443662975" stroke="#4DD2FF" stroke-linecap="round" stroke-linejoin="round" stroke-width="0.5"><title>2025-10-08 5.0km</title><desc>1759920144000</desc></polyline><polyline fill="none" points="43.50935407204088,51.0 43.498662084923126,52.051619571044284 43.680425866215955,52.10110732708563 43.58419798203977,53.33829469135526 42.97475471557118,57.48278077421128 42.76091497292509,57.97763535741251 42.611227153160144,60.34053826719901 42.04455183522077,64.11366513749817 41.78794414404547,64.91775903272355 41.83071209251648,65.57340089532954 41.34957267169375,69.0 41.79863613116322,64.93012966657989 41.91624798963312,64.73219937422982 42.547075230337214,64.73219937422982 43.41312618786469,58.64568585500092 43.65904189192224,58.02712070514826 43.562814007746056,57.655980107076175 44.172257274214644,53.177461044899246 44.36471304250881,53.00425534185342" stroke="#4DD2FF" stroke-linecap="round" stroke-linejoin="round" stroke-width="0.5"><title>2025-10-07 3.0km</title><desc>1759844077000</desc></polyline><polyline fill="none" points="66.33968432986876,51.0 66.41705323074711,51.04476303512638 66.3267895130266,51.611759117666224 66.42994804756017,51.64906133803015 66.36547396349488,52.45478467189969 66.01086650104844,54.86444151183241 65.86257610764005,55.19268585972168 65.75297016469995,56.7294467011161 65.39836270228261,59.12404391678865 65.27586194247124,59.37767269397591 65.32099380137515,59.750654598763504 64.88257002961473,62.68968574330211 64.85678039598861,63.76382006708445 65.43704715269268,69.0 65.81744424879435,68.94778922160913 65.52086346200667,66.29990823429398 65.57244272925891,66.09105722273671 65.21138785843505,64.0845654656805 65.18559822477982,63.21183633473265 66.57179103256203,53.42462510673067" stroke="#4DD2FF" stroke-linecap="round" stroke-linejoin="round" stroke-width="0.5"><title>2025-10-06 5.0km</title><desc>1759755043000</desc></polyline><polyline fill="none" points="92.30622028606012,68.89656125801412 92.36802534986055,69.0 92.99490528303431,68.85518573033914 93.14500329527073,68.58624437088292 92.41217182407854,66.9518923999276 92.52695265691727,66.79673097288469 91.25553420081269,64.04516048127698 90.63748356251745,63.22794971503754 90.4167511916603,62.44176577728649 90.4167511916603,61.04523913684534 91.86475554434583,60.66248388355598 91.87358483922435,60.38317504360748 88.78333164745709,57.714183378186135 86.87620396335842,55.458931670495076 86.51420287520159,54.786484094001935 84.56292871694313,52.386325524894346 83.997853847628,51.0 84.7924903826206,52.6035837004747 86.27581191470381,54.32094073515327 86.92917973233853,55.407205099239945 89.12767414597329,57.9003944802389 90.3196289484622,58.67627022733359 91.68816964770667,60.207313509883534 91.56455952004762,60.46593330218457 90.09889657766325,60.79696563098696 90.32845824334072,61.24178854535421 90.31079965364188,62.34866462622449 90.48738555033924,63.0831268364127 91.42329080268973,64.60375628779002 92.30622028606012,66.68294576885091 89.28660145297181,67.74838382213784" stroke="#4DD2FF" stroke-linecap="round" stroke-linejoin="round" stroke-width="0.5"><title>2025-10-04 5.0km</title><desc>1759568734000</desc></polyline><polyline fill="none" points="111.23097920572036,51.50442067741824 111.24509293591836,51.28942210126115 110.77933983918047,51.16538419009885 108.44351749031921,51.0 110.75111237878446,51.18192258972704 111.26626353122992,51.339037210193055 111.24509293591836,51.578843122624676 111.6896754373447,52.141143734123034 111.59087932592956,52.25691100109543 111.6614479769778,52.538059358681494 111.83081273941207,52.728247375707724 114.41362536684028,59.36799758615962 111.30154785673949,60.51728644247487 111.6614479769778,62.113033389570774 112.33890702677309,64.27096022650949 112.63529536104761,65.93277102836146 113.14338964843773,67.0984976675245 112.94579742557835,67.30518496040895 113.10810532289906,67.5862787954029 113.24218575985287,68.30554367879813 113.15750337860663,68.12366123453103 112.93874056043569,68.05752205820318 112.7129208771803,68.17326557980414 112.64940909127472,68.38821737621765 112.9669680208608,68.95039618311421 113.22807202965487,69.0 113.39743679208914,68.81811918313178 113.38332306189113,68.56183185413829 113.10104845781461,68.09885905000556 112.89639936984167,68.04098725530639 112.73409147246275,68.14019601978362 112.67057968655718,68.47089098555443 112.97402488594525,68.95039618311421 113.27747008533333,68.97519809551886 113.4186073874007,68.61970326044684 113.16456024372019,68.16499819111777 112.81877385370899,68.06578945832734 112.65646595635917,68.42128683051124 112.81171698862454,68.77678257440857 113.05165040207794,68.99173269939638 113.312754410872,68.95039618311421 113.42566425251425,68.74371327157132 113.24218575985287,68.24767203822557 112.9528542906337,68.05752205820318 112.69175028189784,68.181532967581 112.7270346073783,68.60316857734142 113.0587072671915,69.0 113.39037992697558,68.83465382046415 113.39743679208914,68.59490123445721 113.0728209973895,68.09059165341023 112.81877385370899,68.07405685756385 112.67763655167073,68.1980677405154 112.76231893291697,68.62797060067533" stroke="#4DD2FF" stroke-linecap="round" stroke-linejoin="round" stroke-width="0.5"><title>2025-10-02 5.0km</title><desc>1759403720000</desc></polyline><polyline fill="none" points="133.91066447886988,69.0 134.33524916588794,66.30598840441962 134.5404650979326,66.18315898112633 134.9792026078503,62.964961368226795 135.02873748796992,61.449989238630224 134.55461792083224,58.411770083192096 134.30694352005958,55.67645589262975 134.20079734831234,55.266969726624666 133.8752824216208,54.74282439627859 133.9601993590186,54.61178753072454 134.29279069715994,54.669116185636085 134.1371096452349,53.07208839061059 133.7974418956146,52.65439897367469 133.8399003643135,51.79444335276639 133.53561467200052,51.0 133.84697677579243,51.859964104201936 133.7974418956146,52.629828940516745 134.1371096452349,53.07208839061059 134.29279069715994,54.669116185636085 133.95312294753967,54.619977341055346 133.91066447886988,54.74282439627859 134.3210963429592,55.65188678137201 135.03581389944884,61.68747323912248 134.92259131625178,63.52999773333431 134.1866445253836,68.41043677189737 134.07342194221565,68.41862517959089 134.0097342391673,68.65608864113892" stroke="#4DD2FF" stroke-linecap="round" stroke-linejoin="round" stroke-width="0.5"><title>2025-09-30 5.0km</title><desc>1759224370000</desc></polyline><polyline fill="none" points="156.8732369969075,69.0 156.91525572095998,68.4327499938372 157.07632749647018,68.31929950841004 157.7766395639046,63.67579471338831 157.90969885673258,61.925293401713134 157.2023836685985,55.936019029832096 157.06932437577052,55.392990850079514 156.76819018676179,54.87427391026722 156.81721203151392,54.77701410824375 157.17437118591624,54.83374900717172 157.00629628970637,53.17221024011815 156.67014649731573,52.80747758188954 156.70516210069763,51.94832294592197 156.369012308307,51.0 156.68415273865685,51.76190137755475 156.6771496179863,52.79937239275023 157.01329941037693,53.2046308400968 157.18837742722826,54.801329069872736 157.10433997912332,54.86616893129394 156.81721203151392,54.76080412969168 156.77519330746145,54.85806395149848 157.18837742722826,55.81444587815349 157.38446480612038,58.25397831849841 157.88168637402123,61.25263684258243 157.91670197740314,62.45206867228262 157.0903337378113,68.48137158103782 156.929261962272,68.5299931385889 156.85222763486672,68.9108609805262" stroke="#4DD2FF" stroke-linecap="round" stroke-linejoin="round" stroke-width="0.5"><title>2025-09-28 5.0km</title><desc>1759056716000</desc></polyline><polyline fill="none" points="180.5442885925586,51.0 180.58964597526938,51.6298117194674 180.68684036677587,51.63730944564304 180.62852373183705,52.38707821701246 180.23974616575288,54.89125070165028 180.1036740176496,55.18364853528328 180.1036740176496,55.895894820583635 179.52050766849425,59.43453235110064 179.57234467731905,59.75689979613526 179.11229122406803,62.94301394087233 179.13820972849499,64.14245657841093 179.6954575732234,68.94003227640496 180.08423513933667,69.0 179.76673346033203,66.33138915974268 179.82505009527085,66.1664718422544 179.48162991186837,63.925059046312526 179.45571140747052,62.93551736311201 180.4989312098478,55.521029211471614 180.654442236264,55.236130075099936 180.5961256013543,55.01870631001657 180.88770877593197,52.746964521342306" stroke="#4DD2FF" stroke-linecap="round" stroke-linejoin="round" stroke-width="0.5"><title>2025-09-27 5.0km</title><desc>1758971882000</desc></polyline><polyline fill="none" points="19.72638571128482,89.0 19.796543221222237,88.45608108815213 19.978952747012954,88.26124356216314 20.77874836017145,82.13985596117709 20.014031501981663,75.66886058036471 19.628165197384078,74.8812632417903 19.68429120531073,74.7757083689794 19.96492124503129,74.89750244061725 20.028063003963325,74.84066523029469 19.873716482135933,73.24108714931936 19.529944683483336,72.80261852627154 19.56502343848115,71.90131435039075 19.21423588882317,71.0 19.572039189428324,71.88507454222417 19.550991936470382,72.84321757399448 19.901779486128362,73.29792549823469 20.04209450597409,74.83254562551883 19.68429120531073,74.7757083689794 19.66324395238189,74.90562203877926 20.077173260913696,75.87996782517439 20.371834802586818,78.96531772155868 20.78576411117683,81.80698191402189 20.69455934825237,83.41450716850522 19.957905494055012,88.30995298819471" stroke="#4DD2FF" stroke-linecap="round" stroke-linejoin="round" stroke-width="0.5"><title>2025-09-25 5.0km</title><desc>1758803583000</desc></polyline><polyline fill="none" points="43.39171228199848,71.0 43.39819191137212,72.39457586595381 42.834464154264424,75.64848373136192 42.82798452489078,76.65311754227878 42.316093802888645,79.40454460914043 42.35497157924692,79.74940289370716 41.89491789240856,83.11543501838605 42.11522529175272,85.96407281215215 42.49752342587453,89.0 42.86686230121995,88.94003227636858 42.2253789913957,83.07045564542932 43.819367821881315,72.29710636640084" stroke="#4DD2FF" stroke-linecap="round" stroke-linejoin="round" stroke-width="0.5"><title>2025-09-23 5.1km</title><desc>1758638106000</desc></polyline><polyline fill="none" points="65.57497583155055,89.0 65.49138990190113,88.96776003399282 65.51228638432804,88.29877778245282 65.66552725533256,88.15369654965616 65.99987097395933,86.17089310484153 66.48745556361973,81.90689175949956 65.73518219674588,75.65959484272025 65.3451145250001,74.85345615795086 65.42870045464952,74.75671896491986 65.75607867914368,74.78896470904874 65.60283780808095,73.19278463096998 65.26849408948328,72.81388868039357 65.28242507774848,71.84648654937337 64.92021938259131,71.0 65.2963560660719,71.91904211871588 65.27545958361588,72.82195031522133 65.60980330224265,73.17666143591487 65.58890681984485,73.71678668488312 65.77000966743799,74.78090327423706 65.43566594878212,74.7405960879405 65.3799419956922,74.84539472969482 65.79787164396839,75.82082159604761 66.09042239774135,78.91631168380263 66.50835204601754,81.67313080356689 66.38993864570512,83.44647256533062 65.76304417327628,87.5975493656515" stroke="#4DD2FF" stroke-linecap="round" stroke-linejoin="round" stroke-width="0.5"><title>2025-09-21 5.0km</title><desc>1758459157000</desc></polyline><polyline fill="none" points="79.58973986341152,74.37475195724983 79.57142857142026,74.90446356074972 80.14823426830117,74.87268094040337 80.303880249965,74.99981136353017 80.63348350534216,74.8832751482405 83.01395146053983,74.87268094040337 83.22453131811926,74.99981136353017 84.89085888682166,74.98921716754558 85.13806132832542,75.10575326441904 85.72402267117286,74.95743457304343 88.80031972104916,74.95743457304343 90.40255776775302,74.98921716754558 90.57651504146634,75.12694163167907 91.74843772710301,75.04218813683838 97.57142857142026,75.22228923106013 96.99462287465576,79.56580963526358 96.68333091126988,80.0425264659134 90.60398197942413,80.01074541168782 90.26522307808045,85.62524804275017 90.5673593954998,80.38152377513325 95.90510100277606,80.4133047163632 96.6924865572364,80.56161564741342 96.97631158260629,79.62937200527813 97.19604708621046,77.84961099945212" stroke="#4DD2FF" stroke-linecap="round" stroke-linejoin="round" stroke-width="0.5"><title>2025-09-20 5.0km</title><desc>1758380898000</desc></polyline><polyline fill="none" points="112.05293498095125,71.0 111.93707370318589,71.14151495879923 111.9435104408476,71.6479873094504 112.04006150562782,71.7075720618086 111.9821308667888,72.43748134750058 111.59592660758062,74.97721109895065 111.4092612156237,75.64750632859068 111.44144490390318,76.16139518770797 110.99087326816516,79.22231072484283 110.88144872806151,79.37870443778229 110.92650589160621,79.73617452901817 110.48880773116252,82.90119827391027 110.520991419442,84.10014806473919 111.0552406446659,89.0 111.37707752737333,88.99255366486614 111.44788164153579,88.90319758416445 111.17110192243126,86.01395897911425 110.83639156445861,83.98099865214317 110.83639156445861,82.7522590429653 111.86626958899433,75.48365694951644 112.00787781737745,75.23043446155498 111.94994717850932,75.021897638253 112.36833512599696,72.2661767597092" stroke="#4DD2FF" stroke-linecap="round" stroke-linejoin="round" stroke-width="0.5"><title>2025-09-18 5.2km</title><desc>1758195038000</desc></polyline><polyline fill="none" points="133.88968105998356,88.8458937524847 133.87566218472784,89.0 134.03687925008126,88.96755660420604 134.10697362630162,88.38357322482625 134.26118125402718,88.27813132595475 134.96913445400423,83.4276533905213 135.074276018393,82.03247805531282 134.3242661926197,75.70521397983248 133.92472824806464,74.8858777071946 133.99482262434321,74.73174420068972 134.33127563027665,74.80475484616909 134.1910868778068,73.23906746844295 133.8336055589898,72.8172189821853 133.8686527471,71.92483983356215 133.49715255302726,71.0 133.88968105998356,71.95729015932011 133.8686527471,72.8253314741014 134.1910868778068,73.21473011639318 134.3382850678754,74.8128671359882 133.99482262434321,74.74796879437054 133.9457565609482,74.87776542481879 134.28220956688165,75.46995987161063 134.40837944412488,76.07026208472962 134.6326814480999,78.60932824826159 135.06726658073603,81.46466715620772 135.074276018393,82.73006877187436 134.71679469954688,85.33381282278424 134.5695965094783,86.22604202100047 134.39436056889826,86.38826443997095 134.21211519066128,88.05102522452944 134.05089812530787,88.45657138088427" stroke="#4DD2FF" stroke-linecap="round" stroke-linejoin="round" stroke-width="0.5"><title>2025-09-16 5.1km</title><desc>1758026219000</desc></polyline><polyline fill="none" points="157.89689155315864,71.0 157.73577308942913,71.07457414198143 157.7164388737583,71.55184685628774 157.83244416769594,71.68607924797107 157.78733099781675,72.41689574021439 157.40709142340347,74.97469615956652 157.27819665236166,75.19840624316566 157.13641240433208,77.1521119962199 156.70461492147297,79.40402892921702 156.73683861418976,79.80668229299772 156.29215165428468,83.25151525310503 156.89795707794838,89.0 157.2524176982115,88.92544406375237 156.62727805884788,82.97563631591038 156.99462815618608,80.26898528364109 157.1750808355864,79.61281243054691 157.52954145582044,76.52573871555069 157.7164388737583,75.39974473546317 157.8259994291002,75.22823420279019 157.7808862592501,74.84792680956889 157.99356263142545,73.4236208282091" stroke="#4DD2FF" stroke-linecap="round" stroke-linejoin="round" stroke-width="0.5"><title>2025-09-14 5.0km</title><desc>1757842188000</desc></polyline><polyline fill="none" points="180.4918378177099,71.0 180.60185417169123,71.97349012749328 180.1617887558241,74.92383551284001 179.97411379904952,75.59026773840014 180.02588620092138,75.8673220589917 179.69583713903558,78.34578870957921 179.45638978036004,79.39405768526922 179.48874753157725,79.79089847931755 179.0422105654725,83.10780496994994 179.26224327340606,85.98283569532214 179.6440647371346,89.0 180.02588620092138,88.91764727800182 179.36578807712067,83.14524098618858 180.9577894345275,72.16069829320622" stroke="#4DD2FF" stroke-linecap="round" stroke-linejoin="round" stroke-width="0.5"><title>2025-09-13 5.1km</title><desc>1757760467000</desc></polyline><polyline fill="none" points="20.6845602170215,91.0 20.65226964073372,92.4123634671414 20.290615186473588,94.88580239901785 20.14853665084229,95.18470177277777 19.987083769461606,96.97060022211372 19.56730627786601,99.42894181154406 19.606054969422985,99.72782272592303 19.153986901568715,102.93324419247801 19.1669031320489,103.76259623710939 19.741675389785087,109.0 20.12270418985281,108.9477025181186 19.864379579608794,106.09369786738534 19.509183240588754,103.99421540850017 19.483350779570173,103.14245099525579 20.52310733566992,95.62557613203535 20.678102101781406,95.19964670958143 20.626437179744244,95.00536229426507 20.846013098431285,93.4734864293714" stroke="#4DD2FF" stroke-linecap="round" stroke-linejoin="round" stroke-width="0.5"><title>2025-09-11 5.0km</title><desc>1757592265000</desc></polyline><polyline fill="none" points="42.49713008207618,108.92719921069511 42.63694086851319,108.85439835482248 42.65791248649475,108.32861241891078 42.81869489091332,108.21536576279323 42.91656244141632,107.64104095492803 43.13326916040387,105.59446956736792 43.56668259834987,103.15954731519741 43.622606912918855,101.476899708563 42.88860028408817,95.6278045622239 42.490139542729594,94.87540011727106 42.56004493596265,94.74595347390277 42.902581362752244,94.77022473557736 42.74878949765116,93.2411207896439 42.40625307086157,92.79613793038152 42.45518684614217,91.98707180973724 42.09167880137102,91.0 42.44819630679558,91.8818926097083 42.413243610208156,92.8365910204302 42.74878949765116,93.20875848379364 42.89559082343476,94.7944959898523 42.553054396645166,94.74595347390277 42.490139542729594,94.85112888769072 42.7278178796696,95.1666542948442 42.9235529807338,95.765340089456 43.22414617158938,98.98522156006948 43.622606912918855,101.59015595259552 43.56668259834987,103.25662205327535 42.7278178796696,108.95146614787518 42.57402601459762,109.0" stroke="#4DD2FF" stroke-linecap="round" stroke-linejoin="round" stroke-width="0.5"><title>2025-09-09 5.2km</title><desc>1757417515000</desc></polyline><polyline fill="none" points="66.34395131212659,91.0 66.29228644256364,91.56793777661369 66.44082294258988,91.60530195025785 66.35040942084743,92.52445464474295 66.00812965995283,94.80360485976416 65.84021883382229,95.25942642801965 65.62710124687874,97.5683808144895 65.25253094252548,99.47377402829443 65.28482148598414,99.8697907370879 64.85212820334709,102.93324419442797 64.83921198596363,103.84478377026971 65.09107822511578,106.18335414879402 65.43335798601038,108.95517358923826 65.80792829036363,109.0 65.79501207295107,108.70862784209021 65.99521344256937,108.52185021105834 65.99521344256937,108.41725453061372 65.68522422513342,108.1931204291177 65.18794985552086,103.12750767386751 66.16958237736253,96.04403070845001 66.38269996433519,95.30426118378819 66.31811887735967,95.02030726904195 66.58935944258701,93.05501723112684" stroke="#4DD2FF" stroke-linecap="round" stroke-linejoin="round" stroke-width="0.5"><title>2025-09-07 5.0km</title><desc>1757247375000</desc></polyline><polyline fill="none" points="88.09709303229465,108.94265544975497 88.2599246353202,109.0 88.3024024447659,108.4265526622039 88.50771185723715,108.11525097064441 89.1873568087758,103.56847084360197 89.31479023720021,101.83161506291071 88.54311003178009,95.51471545678942 88.13249120689579,94.73633428722678 88.20328755601076,94.62981838441192 88.54311003178009,94.68717311880027 88.39443769861828,93.08941881715145 88.06169485775172,92.65515191567101 88.09709303229465,91.83577402903029 87.8280669056403,91.0 88.09709303229465,91.75383578204492 88.06877449268359,92.6469581780475 88.40151733352104,93.04025664390065 88.56434893651749,94.6707860559909 88.18912828620523,94.60523777145136 88.15373011160409,94.71994723441458 88.41567660332657,95.11323558195 88.58558784125489,95.71135793098802 88.84045469807461,98.48888162234653 89.30771060229745,101.66775881198555 89.30771060229745,102.6426985995713 88.81921579336631,106.13272251950548 88.46523404776235,108.36101556386711 88.3024024447659,108.59039517493511" stroke="#4DD2FF" stroke-linecap="round" stroke-linejoin="round" stroke-width="0.5"><title>2025-09-04 5.0km</title><desc>1756985562000</desc></polyline><polyline fill="none" points="111.96056632205728,91.04504300308326 112.03841923322761,91.0 112.0838334314758,91.10510029779834 112.05788246108568,91.55552845207421 112.12924762969487,91.55552845207421 112.07734568888554,92.36629220977193 111.72700758834253,94.6483942812265 111.49344885462779,95.56421805726859 111.52588756760815,95.92453905446746 110.96794170374051,99.3625135467737 111.00038041680818,99.67777831109561 110.55921391976881,102.7853161730527 110.59814037539763,104.30901284753782 111.13013526884606,108.9924946582978 111.43505917117,109.0 111.49993659721804,108.90993584925309 111.195012694865,106.25299404140969 111.27286560612265,106.08036457510025 111.06525784279802,105.10462523026945 110.87711330730235,103.04802473708696 111.23393915049382,100.24825398997928 111.42208368598949,99.53515870333649 111.77242178656161,96.41997755683406 111.96705406461842,95.28646942276828 112.07734568888554,95.13633459104312 112.0124682628666,94.93365208435716 112.29792893739068,92.80920569004229" stroke="#4DD2FF" stroke-linecap="round" stroke-linejoin="round" stroke-width="0.5"><title>2025-09-02 5.1km</title><desc>1756811867000</desc></polyline><polyline fill="none" points="134.8082198643242,91.0 134.78209458538913,92.32256637187675 134.43593463953584,94.73335542801942 134.2204010883288,95.55708675743517 134.2269324080553,96.19943972120382 133.69789550971473,99.41867808219104 133.28642236653832,103.0533783902647 133.31254764541518,104.15659949354449 133.82852190439007,108.38042500505253 134.33796484352206,109.0 134.2204010883288,108.93955388607719 134.1289626120706,108.22175253045862 133.93302302010125,106.34788057651895 133.98527357794228,106.15897957621928 133.6391136321181,103.94502411117719 133.626050992636,102.87958179371344 134.67759346967796,95.44372977629973 134.8212825038063,95.14144364873937 134.8996583405824,93.8340420017048 135.28500620485283,91.74819757926161" stroke="#4DD2FF" stroke-linecap="round" stroke-linejoin="round" stroke-width="0.5"><title>2025-08-31 5.1km</title><desc>1756640573000</desc></polyline><polyline fill="none" points="157.7220604181639,91.0 157.78030432292144,92.45274208266346 157.37906853447203,94.9612756864808 157.24316608998924,95.18591632167227 157.17845064023277,95.6351955381615 157.12020673547522,96.78084514540387 156.75780021684477,99.2592810823262 156.66072704221006,99.42400801015901 156.69955631205812,99.78341093871131 156.25949125376064,102.86821401750058 156.28537743366905,104.14103204247658 156.79662948672194,108.58074882145593 157.28846690480714,109.0 157.1849221852317,108.83529446410103 156.93253193120472,105.96786186834652 156.61542622742127,104.05867389396735 156.61542622742127,102.64359679102199 157.1137351905054,99.61868481394049 157.48261325407657,96.4588669893783 157.78030432292144,95.22335636096977 157.73500350810355,94.9388115853144 158.0262230319786,92.7672494843282" stroke="#4DD2FF" stroke-linecap="round" stroke-linejoin="round" stroke-width="0.5"><title>2025-08-30 5.0km</title><desc>1756550382000</desc></polyline><polyline fill="none" points="179.63616520838696,108.99190374834143 179.88105401041685,109.0 180.66469817704638,103.55103658699954 180.77664734367863,101.72923463044572 180.3148570312478,98.47417807111924 180.11894598955405,96.0125544224793 180.0000000000291,95.47001529365662 179.64316203127964,94.91127710370347 179.69213979170308,94.78171406496404 180.05597458334523,94.83839792034269 179.88105401041685,93.1945497326742 179.55920015624724,92.8625368664143 179.58019062504172,91.88268594590772 179.22335265629226,91.0 179.5871874479344,91.92317589218874 179.54520651043276,92.8220473977708 179.88105401041685,93.21884330269677 180.04198093750165,94.82220253721607 179.69213979170308,94.78981176106026 179.64316203127964,94.8950817353907 179.93702859376208,95.35664844168059 180.12594281250495,96.13401790019998 180.3288506770914,98.68470814086322 180.77664734367863,101.61587668731954 180.69268546873354,103.33242255208461 179.97900953123462,108.23085241995432" stroke="#4DD2FF" stroke-linecap="round" stroke-linejoin="round" stroke-width="0.5"><title>2025-08-28 5.0km</title><desc>1756381580000</desc></polyline><polyline fill="none" points="20.609027174388757,111.0 20.757256010518176,111.76811003351759 20.73147708250326,112.46909664043778 20.331903698242968,114.97469616110902 20.19011959413183,115.2356911924071 20.170785398135195,116.05595524932869 19.60364898177795,119.39657236682251 19.648762105818605,119.82159534034872 19.216965061525116,122.63265024788416 19.18474140149192,123.77344554387673 19.28785711355158,123.89274337471579 19.249188721529208,124.37738881937548 19.738988353841705,128.60485267570039 20.280345842184033,129.0 20.106338078068802,128.84343244656338 19.506978001678362,123.90765558993735 19.48119907369255,122.94581150582962 19.925885581964394,119.80668229520961 20.03544602607144,119.65009513837867 20.138561738102,118.33773250403465 20.589692978421226,115.75767847098177 20.55746931838803,115.407201707676 20.679919226444326,115.2431481796666 20.628361370414495,115.0194382323898 20.815258598537184,113.7368213738664" stroke="#4DD2FF" stroke-linecap="round" stroke-linejoin="round" stroke-width="0.5"><title>2025-08-26 5.0km</title><desc>1756206850000</desc></polyline><polyline fill="none" points="43.42340327252168,111.0 43.43634636772913,111.61404911642603 43.53989112941781,111.63651423098781 43.481647200969746,112.40032405162492 43.11924053513212,114.88639532199886 42.99628113064682,115.16345228834689 42.84743553574663,116.84823574349866 42.40089875104604,119.38657010345196 42.32971172739053,120.56211127230199 41.999662799586076,122.77087996923365 42.05790672803414,124.440515442795 42.55621589356451,128.89518742878863 42.57563053636113,129.0 42.963923392642755,128.955080344851 42.685646845638985,126.05021788403246 42.34265482259798,124.07364810892614 42.31029708456481,123.07036893548502 42.724476131261326,120.0080368784038 42.87332172616152,119.5812470061137 43.37163089166279,115.50041206009337 43.52047648659209,115.20089233903127 43.4687041057623,114.9612756858769 43.714622914703796,113.09673198908422" stroke="#4DD2FF" stroke-linecap="round" stroke-linejoin="round" stroke-width="0.5"><title>2025-08-24 5.0km</title><desc>1756042259000</desc></polyline><polyline fill="none" points="65.48481373168761,129.0 65.68560171645368,128.70957506886043 66.38118866371224,123.97135386590526 66.51026665396057,121.88844107749173 66.13020368275465,119.49012108822353 65.75014071157784,115.83026516121754 65.33422274314216,114.98374450433766 65.4346167355252,114.8675547093153 65.74296971212607,114.90075181049178 65.58520772407064,113.27407797389606 65.2409997501818,112.8840034078894 65.29836774579599,112.04575175572973 64.9111337751674,111.0 65.27685474746977,111.88805988865352 65.25534174905624,112.89230288613908 65.59954972297419,113.29897628714389 65.76448271048139,114.90905108365405 65.678430717031,114.9920437690671 65.3772487398237,114.88415326158429 65.3772487398237,115.00034303295979 65.65691771864658,115.5065965349786 65.8146797066729,116.1207359124528 66.00112569256453,118.3780733771273 66.51743765338324,121.97142666717264 66.40270166209666,123.86347522555297 65.61389172190684,128.9336172496769" stroke="#4DD2FF" stroke-linecap="round" stroke-linejoin="round" stroke-width="0.5"><title>2025-08-23 5.0km</title><desc>1755956696000</desc></polyline><polyline fill="none" points="89.20689863621374,111.0 89.21341627789661,111.49775452424365 89.29814561989042,111.58825498821534 89.26555741144693,112.34242122989963 88.8744989100087,114.77078446850646 88.7311107928399,115.07998029737064 88.39871106663486,118.17940878979425 88.22925238273456,119.20498193983076 88.11845247398014,119.31055484219542 88.17059360753046,119.68005881842691 87.7013234058395,123.23172774412524 88.3009464413044,128.87936098423233 88.32049936638214,128.96984026442078 88.6724520176358,129.0 88.02720549033256,123.08091723063262 88.99833410212887,116.02264255887712 89.12216929424903,115.25343105212232 89.23948684465722,115.11014567511302 89.18734571116511,114.82357409142423 89.44153373703011,112.86279146892048" stroke="#4DD2FF" stroke-linecap="round" stroke-linejoin="round" stroke-width="0.5"><title>2025-08-21 5.0km</title><desc>1755781186000</desc></polyline><polyline fill="none" points="111.93032526239404,111.0 111.94974799148622,112.3934153112059 111.56129341042833,114.89550358931592 111.42533430704498,115.15769355411612 111.36706611988484,115.59966881306173 111.43828279309673,115.81690991843061 110.83617819246138,119.36758761899546 110.87502365058754,119.74212171293766 110.4477236114326,122.8132295452233 110.4736205834779,124.1090488804839 111.01745699695311,129.0 111.39296309195925,128.9325924638615 111.13399337127339,126.09393031309446 110.79733273436432,124.07159777406196 110.77791000530124,122.64095127178007 111.19873580144485,119.77957501771743 111.3087979327247,119.61478033440653 111.75552070094272,115.89182049604278 111.9691707205202,115.17267580965563 111.97564496353152,114.34864723412466 112.4094192457269,111.59183015047165" stroke="#4DD2FF" stroke-linecap="round" stroke-linejoin="round" stroke-width="0.5"><title>2025-08-19 5.3km</title><desc>1755607955000</desc></polyline><polyline fill="none" points="134.0906804894912,128.91134006194625 134.40412766198278,129.0 134.40412766198278,128.4035585078018 134.52254103822634,128.13757639637333 134.66881638541236,126.29985743787256 135.09371144141187,123.5190175207099 135.05191848508548,121.69731300375861 134.57826498002396,118.64223670910724 134.3623347056564,116.12715152443707 134.2299903439125,115.46612230624305 133.88868120062398,114.89376328713115 133.96530162051204,114.75671896518907 134.29964527115226,114.82927187102177 134.15336992399534,113.32177007346036 133.79116430249996,112.83001194937242 133.81902627335512,111.87873347735876 133.4777171300084,111.0 133.84688824426848,111.91904211878864 133.805095287913,112.82195031536685 134.1324734458176,113.17666143608949 134.29964527115226,114.82121044032101 133.951370635099,114.77284183888696 133.91654317147913,114.87764043802599 134.32054174933,115.80469893578265 134.52950653096195,118.23112247014069 135.04495299237897,121.79404172927025 135.03798749964335,122.62429177048762 134.52254103822634,126.19507393342064 134.3693001983629,126.26761637432355 134.271783300268,126.50942403145018 134.0906804894912,127.69427089524834" stroke="#4DD2FF" stroke-linecap="round" stroke-linejoin="round" stroke-width="0.5"><title>2025-08-17 5.0km</title><desc>1755429603000</desc></polyline><polyline fill="none" points="156.88397466859897,128.9595187335217 156.79301596147707,129.0 156.89796831586864,128.89474866437376 157.01691431755899,127.11355112918682 157.11486984833027,126.49012258402945 157.43672373521258,126.2229374284434 157.4297269115632,125.60759851037437 157.86352997645736,123.1623889988623 157.92650138912722,122.06121053561219 157.16384761370136,115.67245569921215 156.76502866693772,114.89508173525246 156.84199372684816,114.80600715063338 157.17784126097104,114.83030022904859 157.03090796479955,113.25933256946155 156.69506043064757,112.83824318762345 156.71605090156663,111.92317589215236 156.3592128965829,111.0 156.7370413724566,111.93937186490803 156.6880636070273,112.79775370663992 157.02391114115017,113.19454973259417 157.1918349082407,114.82220253706328 156.83499690322788,114.78171406481852 156.78601913782768,114.9031794198163 157.20582855548128,115.7696269111475 157.92650138912722,121.6806526743676 157.91950456547784,122.64418926530925 157.45071738245315,126.09339278801781 157.1008762010606,128.32800831341592 156.95394290491822,128.4413567061274 156.90496513951803,128.78140091669047" stroke="#4DD2FF" stroke-linecap="round" stroke-linejoin="round" stroke-width="0.5"><title>2025-08-16 5.1km</title><desc>1755350047000</desc></polyline><polyline fill="none" points="179.8950004176586,128.9514006132158 179.64300141998683,129.0 179.7620009466482,128.8785014774985 180.09799961023964,126.36749054866232 180.28699885844253,126.27028853527736 180.24499902548268,126.00298238729738 180.7489970208262,123.03015358735865 180.78399688162608,121.7421633565391 180.0279998886108,115.69076077497448 179.6500013921468,114.92923980825435 179.72700108584831,114.78341581407585 180.03499986079987,114.8320238417873 179.88100047333864,113.23604476632318 179.55200178193627,112.86337499705405 179.60100158702699,112.06131892801204 179.20900314621395,111.0 179.5730016984162,111.85067660131608 179.56600172625622,112.82286730838678 179.88100047333864,113.20363876863848 180.06299974943977,114.82392250589328 179.69900119723752,114.79151715409535 179.66400133643765,114.9049358277698 179.96500013920013,115.39101402905362 180.09099963805056,115.87708926485357 180.31499874708243,118.47754140741017 180.7559969930153,121.41003671350336 180.79099685378605,122.5846247303416 180.25899896983174,125.99488218698389 180.30099880276248,126.2378878378222 180.07699969375972,127.48530518261396 179.8950004176586,127.89840662368078" stroke="#4DD2FF" stroke-linecap="round" stroke-linejoin="round" stroke-width="0.5"><title>2025-08-14 4.9km</title><desc>1755170321000</desc></polyline><polyline fill="none" points="20.735260355868377,131.01505828869995 20.579098864312982,131.0 20.624645966046955,132.36276273598924 20.247255694848718,134.9225807852854 20.110614389792318,135.1936151666523 20.110614389792318,135.90131137813296 19.726717389799887,138.60404642499634 19.60308954239008,139.34182326922019 19.50548861018615,139.40204962618736 19.564049169508507,139.7784632484545 19.115084881399525,142.87251079228008 19.154125254281098,144.18988843089755 19.700690474564908,148.93978143978165 20.071574016910745,149.0 19.4339145932463,143.03812526767433 20.494511389755644,135.52487806438148 20.644166152458638,135.2162013203415 20.579098864312982,134.95269576551073 20.88491511857137,132.81450175839564" stroke="#4DD2FF" stroke-linecap="round" stroke-linejoin="round" stroke-width="0.5"><title>2025-08-12 5.0km</title><desc>1754999139000</desc></polyline><polyline fill="none" points="43.342503556777956,131.0603087970594 43.427197370125214,131.0 43.4337122788711,132.27401291723072 43.029787938226946,134.86720239714487 42.892974855116336,135.12350108713872 42.756161772005726,136.86480110110278 42.326177796465345,139.38999043372314 41.88967891223729,143.030634564333 41.92876836456708,144.14615851492272 42.38481197497458,147.9222334161168 42.86040031153243,149.0 42.22193925693864,143.0758588343233 43.186145747517,136.11853466997854 43.42068246140843,135.15365381597076 43.3620482829283,134.94258445667947 43.63567444917862,132.9072419677468 43.82460680208169,132.1383202746947" stroke="#4DD2FF" stroke-linecap="round" stroke-linejoin="round" stroke-width="0.5"><title>2025-08-10 5.0km</title><desc>1754830447000</desc></polyline><polyline fill="none" points="65.45832600895665,149.0 66.43307666768669,143.1979184644806 66.49619001970859,141.83457099948282 65.97725801434717,138.23944193188072 65.73181720098364,135.6180606555863 65.33911189960781,134.9200932334861 65.39521265696385,134.77400625642622 65.75285498498124,134.84704977838555 65.59857790230308,133.24007685336983 65.26197335828329,132.842386640099 65.28301114225178,131.93337299676932 64.92536881423439,131.0 65.29703633161262,131.965837948017 65.26898595292005,132.85050278672134 65.59857790230308,133.24819295953057 65.76688017428387,134.82270194516605 65.40923784626648,134.80647005221545 65.36716227827128,134.89574542255286 65.76688017428387,135.75603023749863 66.08945952900103,138.94549585680943 66.46813964101602,141.26650268438243 66.50320261434535,142.55682344923116 65.68974163295934,148.3183787094531 65.46533860359341,148.55370100304572" stroke="#4DD2FF" stroke-linecap="round" stroke-linejoin="round" stroke-width="0.5"><title>2025-08-09 5.0km</title><desc>1754735080000</desc></polyline><polyline fill="none" points="89.11193934857147,131.0 89.15101241681259,132.2659443807861 88.8970374733326,134.2552418919222 88.57142857142026,135.62662046950572 88.499794613017,136.86988133261912 88.06347868446028,139.41661731127533 88.08952739663073,139.80841508629237 87.64669929005322,142.79203795787907 87.63367493395344,143.8166888406122 88.19372224522522,148.5781161152554 88.63003817375284,149.0 87.99184472602792,144.08791758801817 88.02440561624826,142.48313307743229 88.95564707566518,136.07871773993975 89.07286628035945,135.34782577912847 89.18357330700383,135.2046605308933 89.13147588269203,134.8957240536838 89.50918220888707,132.34129753154411" stroke="#4DD2FF" stroke-linecap="round" stroke-linejoin="round" stroke-width="0.5"><title>2025-08-07 5.0km</title><desc>1754570205000</desc></polyline><polyline fill="none" points="111.74052691977704,131.0 111.78077924120589,131.51234840384132 111.91495364604634,131.56668818454636 111.8679926043842,131.93153999677452 112.23026349738939,131.9858794793181 112.27051581881824,132.31967830981012 111.90153620557976,134.1671896489861 111.79419668170158,135.15302826082916 111.8679926043842,135.41695140008233 111.75394436027273,135.52562536891492 111.53926531254547,136.7908894878783 110.59333575854544,143.66797101492557 111.17699441954028,149.0 110.58662703831214,143.54378541283222 111.00256769327098,140.4002701623176 111.1568682588113,139.97336305776844 111.52584787207888,136.7908894878783 111.71369203884387,135.6187743620394 111.83444900315953,135.4091889678093 111.78748796146829,135.10645349458355 112.15646757473587,132.38954299677425" stroke="#4DD2FF" stroke-linecap="round" stroke-linejoin="round" stroke-width="0.5"><title>2025-08-05 5.0km</title><desc>1754406000000</desc></polyline><polyline fill="none" points="134.01314848012407,149.0 134.3246522579284,146.41945485727047 134.51580230338732,146.27199263979128 134.81314681857475,144.27303374537587 135.03261538929655,142.66727676208393 135.04677465194254,141.66775881296053 134.5299615660333,138.12018929852638 134.3317318892805,135.76051847534836 134.15474110638024,135.14600952499313 133.8857151165139,134.76091486085352 133.94943179830443,134.63801192102983 134.29633373269462,134.6707860566603 134.13350221246947,133.0566440387338 133.80075954072527,132.7043143242554 133.82907806601725,131.7046727940251 133.52465391950682,131.0 133.83615769728203,131.8111925638441 133.80075954072527,132.62237696052762 134.14766147511546,133.0484503419284 134.3034133639885,134.6625925240005 134.2113781569351,134.74452781302534 133.871555853897,134.6789795884688 134.3246522579284,135.63761706018704 134.61491714179283,138.7428686880594 135.04677465194254,141.69233727183018 135.03969502061955,142.70824034805264 134.2113781569351,148.37739984357904 134.16890036905534,148.51666608552478 133.9848299548903,148.52485820989386 133.91403364171856,148.83615831973293 133.71580396496574,148.81977413339337" stroke="#4DD2FF" stroke-linecap="round" stroke-linejoin="round" stroke-width="0.5"><title>2025-08-03 5.0km</title><desc>1754221111000</desc></polyline><polyline fill="none" points="166.14285714285506,139.02613251820185 166.08751509826106,139.25560136774948 165.9445481497678,139.2689425182507 163.1359393872699,139.21290964059153 163.05984407597862,139.16488136458065 162.94915998681972,139.210241405337 162.59174261556473,139.2075731698169 162.5617656747345,139.17822256117142 161.92302624354488,139.2155778755714 161.6094213242468,139.16754960444086 160.59712309212773,139.16488136458065 160.15899857251497,139.09550703303648 159.86153508289135,139.0181277546926 159.8430877346982,138.98877693430404 159.43032831886376,138.9754356414578 158.52410233885166,138.8153395986228 157.1912814318639,138.80466649439222 154.41034369164845,139.1515401612105 154.03447897221486,139.32497527635496 153.6309432304697,139.44771328106253 152.54716152409674,140.10675319219808 151.97298781156132,140.39757931046734 151.62018227735825,140.49896747536695 151.4126496101817,140.50163557968153 151.14977489842568,140.4376010012711 150.8707587569952,140.5523295102048 150.77621609749622,140.36556191392992 150.66322608981864,140.44026911182118 150.5709893488529,140.26684136219774 149.00065883385832,141.19533350560596 148.88075107059558,140.89384396581227 148.39650818050723,139.96800932215774 148.35038981003163,139.9359914018969 148.14285714285506,140.03738134880223 148.27890633576317,139.93332324011863 148.3457779729797,139.92531875314307 148.36653123969154,139.8586146001253 148.44954430658254,139.86395093859755 148.56022839574143,139.78924210125479 148.5925112550758,139.82659654649797 148.6755243219377,139.77323303703452 148.64785329965525,139.82392837359657" stroke="#4DD2FF" stroke-linecap="round" stroke-linejoin="round" stroke-width="0.5"><title>2025-08-02 8.3km</title><desc>1754134728000</desc></polyline><polyline fill="none" points="180.48112953765667,131.0 180.38425781868864,131.02241867959674 180.32613478729036,131.62772044508893 180.81049338221783,131.62772044508893 180.81049338221783,132.1134528267794 179.19596473241108,142.7987537910376 179.2024228470109,143.92697120822413 179.87406676533283,149.0 179.23471342000994,144.0689311148817 179.18950661778217,142.97060259394493 180.1453075784957,136.14117160694877 180.38425781868864,135.21459164348926 180.31967667269055,135.00536229442514 180.62320805882337,132.80094548353372" stroke="#4DD2FF" stroke-linecap="round" stroke-linejoin="round" stroke-width="0.5"><title>2025-07-31 5.0km</title><desc>1753965181000</desc></polyline><polyline fill="none" points="19.64361388667021,169.0 19.721242545027053,168.34671299291222 19.918842766288435,168.1098951413369 20.638672143686563,163.15289233152726 20.716300802043406,161.3235422143116 20.34932896256214,159.1021325003312 19.96118567083613,155.43503868585685 19.587156680587213,154.71630134607403 19.66478533897316,154.61012369384116 19.975299972342327,154.6509612689988 19.84121410793159,153.02560974576772 19.481299419217976,152.6335602336112 19.523642323794775,151.72693840696593 19.2413562934089,151.0 19.53069947453332,151.7432740259319 19.50247087146272,152.64989566816075 19.84121410793159,153.07461580021481 20.003528575383825,154.63462624143722 19.911785615520785,154.71630134607403 19.629499585164012,154.60195617630234 19.601270982122514,154.7244688519786 20.024700027657673,155.66372649071127 20.271700304205297,158.4079293676914 20.7586437065911,161.91155215155595 20.25052885193145,166.141830134271 19.87649986174074,168.48553692626592 19.7424139973009,168.54269965266576" stroke="#4DD2FF" stroke-linecap="round" stroke-linejoin="round" stroke-width="0.5"><title>2025-07-29 5.0km</title><desc>1753797916000</desc></polyline><polyline fill="none" points="43.62918336436269,151.0 43.61620789364679,152.37379924071865 43.31777206732659,154.47573770905728 43.084213594556786,155.17386832929333 42.92850794602418,157.0955701637431 42.49382967725978,159.39253882277262 42.54573156009428,159.79787882238452 42.117541026644176,162.6427025637895 42.14349196810508,164.15139051205188 42.67548626719508,169.0 42.17593064485118,164.78938361408655 42.08510234992718,163.19063756865944 42.500317412632285,159.51263979514624 43.07772585921339,155.84196564968443 43.019336241006386,155.654298473135 43.29830886129639,154.51327178114298 43.61620789364679,151.9759255856843" stroke="#4DD2FF" stroke-linecap="round" stroke-linejoin="round" stroke-width="0.5"><title>2025-07-27 5.0km</title><desc>1753616848000</desc></polyline><polyline fill="none" points="66.22840119403554,151.0 66.24756077711936,152.58145924651035 65.89630175370257,155.07920801223372 65.75579814432422,155.3452353709945 65.5578157856653,157.51775571887993 65.2001702345151,159.49809189040388 65.22571634530323,159.87494080296165 64.75949982329621,162.94877276403713 65.34067384389346,169.0 65.72386550583178,168.94089398662618 65.44924481477938,165.97814355786977 65.13630495753023,163.9019298557323 65.12353190215072,162.79360647435533 66.00487272455939,156.57929400511057 66.29865299872472,155.33784573528828 66.23478772173985,155.04964935674798 66.66907160525443,152.41888090982684" stroke="#4DD2FF" stroke-linecap="round" stroke-linejoin="round" stroke-width="0.5"><title>2025-07-26 5.2km</title><desc>1753529066000</desc></polyline><polyline fill="none" points="89.19269720456214,151.0 89.11503862543032,151.38939759416826 89.21858339759638,151.8911183840828 89.09562398062553,153.07426731954183 88.8238189536496,154.91634747653734 88.68144489190308,155.17842831074086 88.6620302470983,155.9646652222582 88.08606245185365,159.41652042942587 88.13136328963446,159.74597321430338 87.7042411043949,162.88318847393384 87.76248503875104,164.55282140445343 88.27373735141009,169.0 88.64261560232262,168.96256695595366 88.35139593057102,166.24487719286117 88.41611141318572,166.10262620994035 88.04723316227319,163.99128988495067 88.04076161398552,162.9880095908302 89.43861603850382,153.20156702262466" stroke="#4DD2FF" stroke-linecap="round" stroke-linejoin="round" stroke-width="0.5"><title>2025-07-24 5.0km</title><desc>1753356656000</desc></polyline><polyline fill="none" points="111.11286231296253,168.96752733306494 111.2040671685827,169.0 111.51276052606408,166.43461864534038 111.71621751168277,166.30472372732038 111.66710720481933,166.05305172260705 112.19328906416195,162.79748109682987 112.22836785481195,161.81510080776206 111.70218599544023,158.34825727638236 111.484697493579,155.78253377995134 111.0637520061282,154.89750243924937 111.12689382920507,154.76758875626547 111.47066597730736,154.83254562417278 111.28825626606704,153.2004883030313 110.98657866669237,152.87569679656008 111.01464169920655,151.99875312977383 110.62877500234754,151.0 110.97956290858565,151.80387545137637 110.97254715044983,152.84321757326688 111.29527202420286,153.18424875907658 111.47768173544318,154.78382797820086 111.38647687982302,154.8731436397793 111.14092534544761,154.77570836765517 111.0637520061282,154.8731436397793 111.3093035404454,155.22228572196036 111.484697493579,155.80689230201097 111.80040660916711,159.03839035103738 112.20732058040448,161.6770794685508 112.20030482229777,162.75688710931718 111.43558718668646,168.07452382013435" stroke="#4DD2FF" stroke-linecap="round" stroke-linejoin="round" stroke-width="0.5"><title>2025-07-22 5.0km</title><desc>1753184035000</desc></polyline><polyline fill="none" points="125.28571428568102,162.9687195509905 125.28571428568102,160.0803347924666 127.19942769093905,151.99271693307674 142.67554479418322,154.81698797398712 143.28571428568102,155.49095801229123 141.205591019243,167.9751905600715 127.3103675985476,165.792892441008 126.81113801454194,165.15103718347382 128.5307065815432,152.6666929986677 129.140876073041,152.2815639944747 132.82962799922097,152.89135136760888 143.2579793088371,155.2021138863638 141.4274708343437,167.71845038753236 140.8450363195734,168.00728306692326 127.03301782964263,165.66452149386168 127.19942769093905,161.55662363601732 128.55844155850355,152.7308811204275 129.00220118858851,152.3457521944656 135.8250055030221,153.5011375633767 128.86352630425245,152.4099403814471 128.08694695145823,155.94027057220228 128.78032137360424,156.6142382133403" stroke="#4DD2FF" stroke-linecap="round" stroke-linejoin="round" stroke-width="0.5"><title>2025-07-20 4.9km</title><desc>1753020627000</desc></polyline><polyline fill="none" points="158.17744424843113,151.0 158.0416546908382,151.920306203785 157.5372934768675,153.21470115546254 157.11052629578626,155.15999181925145 156.9941352464084,156.69374246137158 156.5932327430055,159.2598977211528 156.50270637124777,159.34219276600925 156.5479695571412,159.7087786668635 156.12766854546499,162.7386535058031 156.1082700372499,163.74110317716259 156.68375911473413,168.99251961675327 156.61909742065473,167.96021944504173 156.69022528416826,169.0 157.0587969405169,168.92519613334298 156.43804467716836,163.06781758857687 157.42736859689467,155.84083141246083 157.63428601800115,155.18991896658554 157.66015069565037,154.31454488242161" stroke="#4DD2FF" stroke-linecap="round" stroke-linejoin="round" stroke-width="0.5"><title>2025-07-20 5.0km</title><desc>1752942252000</desc></polyline><polyline fill="none" points="180.7761459874746,151.00805460508855 180.6647707785305,151.0 180.49074701449717,151.88600165282696 180.68565363020753,152.00681929278653 180.6717317290604,152.26456297602272 180.42809845946613,153.9076592583515 180.29584039881593,154.1895596098475 179.95475382139557,157.4031527761981 179.66935484841815,158.71593657314224 179.69719865068328,159.1025190702785 179.2029711608775,162.79911902814638 179.8712224146293,169.0 179.25169781479053,163.8299484225281 179.23777591370163,162.26759238619707 179.69719865068328,159.15084174990625 179.67631579894805,158.72399039437732 180.18446518987184,155.66347941254207 180.28887944825692,154.18150532800064 180.42809845946613,153.89155063656654 180.7970288391516,151.25774695668224" stroke="#4DD2FF" stroke-linecap="round" stroke-linejoin="round" stroke-width="0.5"><title>2025-07-17 5.0km</title><desc>1752765839000</desc></polyline><polyline fill="none" points="27.722972973017022,188.62017024712986 28.128378378460184,188.05724069090502 29.0,180.71557535391185 15.96621621621307,180.12917028802622 13.61486486485228,180.3168200712389 13.89864864863921,180.12917028802622 13.472972972900607,177.4786008035735 11.060810810769908,173.67861622768396 11.0,171.54402954618854 11.28378378378693,171.3798297528847 22.61486486485228,171.5674866499321 21.80405405408237,178.9563556866633 21.29729729727842,179.28474437574914 14.222972972900607,179.05018107409705 13.45270270272158,176.58725201355992 11.46621621621307,174.05392613090225 11.222972972900607,172.7168818149512 14.040540540474467,172.50576884645852 22.25,172.7872527615691 22.37162162165623,174.54651945258956 21.641891891951673,180.26990763975482 20.54729729727842,180.34027628338663" stroke="#4DD2FF" stroke-linecap="round" stroke-linejoin="round" stroke-width="0.5"><title>2025-07-15 4.1km</title><desc>1752589649000</desc></polyline><polyline fill="none" points="43.58050972822821,171.0 43.63536219240632,172.277351380224 43.21025559515692,174.94306086831784 43.05941131871077,175.25246768275247 43.05255476068123,176.03787947543606 42.44917765495484,179.71889615291002 42.47660388704389,180.1314130735118 42.0172144996759,183.5504598454063 42.56573914128239,189.0 42.250337472360115,186.84244003838103 42.010357941675466,183.37594136077678 43.03884164465126,175.9823455677979 42.97713262247271,175.7284757727757 43.18282936303876,174.99859551501868 43.58736628625775,172.35668928601808 43.539370380109176,172.07900626306218 43.7039277725853,171.2380173692436 43.553083496168256,171.04760353190068" stroke="#4DD2FF" stroke-linecap="round" stroke-linejoin="round" stroke-width="0.5"><title>2025-07-13 5.0km</title><desc>1752418082000</desc></polyline><polyline fill="none" points="65.55796454520896,189.0 65.46559294534381,188.9917779814714 65.5224370068172,188.34223587893212 65.83507934494992,186.3689114317458 66.01982254476752,186.20446555533272 66.33957039058441,183.96796845112112 66.51010257497546,181.65740467171418 66.04113906779094,178.44223992175102 65.79955180652905,175.75324440772238 65.65744165281649,175.2269473625929 65.35901033005212,174.74998770706588 65.42295989923878,174.62663561422232 65.76402426807908,174.6759764739545 65.61480860671145,173.11350129892526 65.27374423781293,172.68587125244812 65.29506076092366,171.7072478293776 65.05347349963267,171.0328953850185 64.90425783823594,171.0328953850185 65.03215697655105,171.0 65.27374423781293,171.60033867062884 65.26663873015787,172.69409492853447 65.57928106826148,172.98192306394049 65.61480860671145,173.14639582422387 65.76402426807908,174.65130604784645 65.4158543915546,174.63485909293377 65.3376938069996,174.72531730357878 65.65033614516142,175.17760683902452 65.79244629884488,175.67923409270588 66.08377211392508,178.8780625799991 66.52431359034381,181.59984530091606 66.51720808268874,182.65235303719965 65.65033614516142,188.57245392954792" stroke="#4DD2FF" stroke-linecap="round" stroke-linejoin="round" stroke-width="0.5"><title>2025-07-12 5.1km</title><desc>1752325602000</desc></polyline><polyline fill="none" points="88.46297775011044,189.0 88.28805707048741,188.99190374835598 88.67987939278828,186.29580619558692 88.8408064180403,186.21484089404112 89.28860335776699,183.2109700501387 89.35857162965112,181.69684666195826 88.9457588257792,178.98430766406818 88.6309016024752,175.68865090863255 88.21109197143232,174.83839791952778 88.26706658891635,174.74932327152783 88.6169079481333,174.8060071499567 88.45598092291038,173.16215829394787 88.1411236996064,172.81394950112735 88.1271300452645,171.72072595467762 87.77728868604754,171.0 88.14812052677735,171.8098039904653 88.1411236996064,172.8058516041201 88.46297775011044,173.1702561547354 88.63789842967526,174.78171406413458 88.30205072482931,174.7412255713134 88.22508562586154,174.87078867589298 88.64489525687532,175.75343171659915 88.95275565295015,178.96811312399223 89.36556845679297,181.6401676875248 89.29560018496704,183.1704858420635 88.62390477530425,187.6398181816039" stroke="#4DD2FF" stroke-linecap="round" stroke-linejoin="round" stroke-width="0.5"><title>2025-07-10 5.0km</title><desc>1752149320000</desc></polyline><polyline fill="none" points="108.904270725674,171.0 108.94643023633398,172.1220300960049 109.25208668888081,171.96348300139653 109.90555910469266,172.1830096919948 110.61173090885859,172.1220300960049 111.4022217344027,172.4147318742689 115.48115439416142,172.95134994727414 115.59709304856369,173.109895737005 114.65904393565143,179.09789494444703 114.20582919562003,179.1344805796034 114.12151017424185,179.29301820299588 113.96341200912138,180.35399537060584 114.07935066352366,180.81740774305945 113.36263898172183,184.85389776057855 108.11377990012988,184.6953674802644 107.93460197967943,184.57342096840148 107.2600498085958,189.0 107.96622161270352,184.646588890384 110.01095788140083,184.68317283462966 110.69604993017856,184.4148903177629 110.79090882930905,184.6953674802644 113.39425861474592,184.78072996492847 115.20711757463869,173.42698668821686 115.1544181862846,173.01232912197884 109.7263811842422,172.0610504689903" stroke="#4DD2FF" stroke-linecap="round" stroke-linejoin="round" stroke-width="0.5"><title>2025-07-08 5.1km</title><desc>1751976330000</desc></polyline><polyline fill="none" points="125.44603714026744,188.83610268475604 125.40740781556815,189.0 125.65206020564074,188.89570172964886 125.72931885503931,188.06131289622863 126.17999431042699,187.68881634827994 126.2701294014696,187.30141893458494 127.57065000117291,178.2866900825029 127.68653797532897,175.55981166484708 127.37750337744365,173.54814753265237 128.08570766443154,173.51834489352768 128.26597784651676,173.7865684274002 130.7511310717091,174.1441990424064 132.74697951681446,174.11439652449917 134.20201741543133,174.6955445312342 138.83753638452617,175.3809981931845 139.6873815289,171.0 143.1640207557939,171.77487996006676 140.0607983347145,171.04470472445246 139.4813584635849,173.62265410390683 139.3912233724841,175.4108004536247 130.7125017469516,174.24850780746783 128.26597784651676,173.8014697204635 128.04707833973225,173.47364092349017 127.33887405274436,173.59285147994524 127.62215576745803,174.78495171236864 127.67366153385956,177.3628353163076 126.21862363512628,187.34611868843785" stroke="#4DD2FF" stroke-linecap="round" stroke-linejoin="round" stroke-width="0.5"><title>2025-07-06 5.0km</title><desc>1751807521000</desc></polyline><polyline fill="none" points="150.8825913958717,187.88428805598232 151.662465950998,182.33842899363663 149.1385082998313,182.15793925551407 148.3444542073994,182.43687785667134 149.37956043507438,182.33842899363663 149.23776506149443,182.17434742185287 151.84679993672762,182.32202084397431 152.03113392251544,182.15793925551407 151.94605669833254,181.64928527163283 153.00952200067695,174.93818426875805 152.91026523918845,171.590733765217 154.73942555941176,171.4102320107486 165.94126007833984,173.24805862178619 165.92708054097602,172.70655831242038 153.60506257007364,171.0 153.80357609322527,175.05304653466737 152.51323819288518,184.17613120531314 152.867726627097,184.7340009524487 152.54159726767102,185.34109231071488 152.6124949544901,186.65371447143843 152.11621114664013,186.76856840281107 151.88933854881907,189.0 150.74079602217535,188.86874017144146 150.81169370905263,187.90069564041914" stroke="#4DD2FF" stroke-linecap="round" stroke-linejoin="round" stroke-width="0.5"><title>2025-07-05 4.8km</title><desc>1751729502000</desc></polyline><polyline fill="none" points="182.8971096596215,189.0 183.07524908857886,188.86981198194553 183.10337636678014,188.13207688097464 183.3471461116569,187.05801225300092 183.47840674343752,187.01461547528015 183.64717041299446,185.4414703723014 179.98124848114094,185.28957927314332 180.21564246655907,184.4758732763221 180.56254556489876,180.80869462042756 180.60004860261688,178.12875362045452 180.46878797077807,177.77069972742174 180.6094243619591,175.578949717652 180.60004860261688,171.0 175.67777490895241,172.7686697420213 175.5746415553731,173.01823427827185 175.61214459309122,172.80122167114314 178.26548450789414,171.79210725105077 178.3123633050127,174.02733710464236 178.57488456863211,174.59156248300133 180.53441828663927,174.59156248300133 180.5437940460979,177.4560453147351 180.75006075325655,177.55369678345596 180.82506682857638,177.90090128205338 184.25659477501176,178.11790352014214 184.4253584445687,178.97505804750836 184.40660692565143,180.53744859182916 183.22526123921853,188.59858643445477" stroke="#4DD2FF" stroke-linecap="round" stroke-linejoin="round" stroke-width="0.5"><title>2025-07-03 5.2km</title><desc>1751545471000</desc></polyline><polyline fill="none" points="19.684575403109193,209.0 20.11215096776141,206.36393109844357 20.2873868549068,206.2422642780657 20.735990726039745,202.9166326980121 20.77103790343972,201.76479627827212 20.007009435474174,195.6484285694387 19.635509354731767,194.87776542525535 19.712613145034993,194.77230567908555 20.0280377419258,194.82909171356732 19.88083959670621,193.25529236594593 19.537377257918706,192.81721898241085 19.54438669339288,191.81937618378288 19.21494322558283,191.0 19.572424435347784,191.89238949473656 19.537377257918706,192.83344396545 19.85280185478041,193.14171801602788 19.901867903157836,193.39320385919564 20.0280377419258,194.82097942539258 19.684575403109193,194.7966425559498 19.635509354731767,194.90210226994532 20.014018870977452,195.6484285694387 20.378509516245686,199.12037652645813 20.78505677441717,201.74046152670053 20.665896371152485,203.55743590315979 19.89485846768366,208.72423071540106" stroke="#4DD2FF" stroke-linecap="round" stroke-linejoin="round" stroke-width="0.5"><title>2025-07-01 5.0km</title><desc>1751376396000</desc></polyline><polyline fill="none" points="42.22457284628763,209.0 42.35455298551824,208.83956882237544 42.328556957654655,208.24797660073818 42.53652518038871,208.04743605965632 42.683836004842306,207.26532405517355 42.909134912799345,204.50782842640183 43.221087246900424,203.43489111880626 43.567700951505685,200.6171216954681 43.481047525361646,199.00263390867622 42.99578833891428,196.12456840601953 42.66650531961932,192.63467598475108 42.14658476278419,191.34097759509314 42.605847921280656,191.43123617296078 42.62317860653275,191.0 42.62317860653275,191.4111787183283 42.22457284628763,191.33094885912578 42.15525010536658,191.43123617296078 42.48453312469064,191.92264253658504 42.683836004842306,192.6146187748891 43.04778039464145,196.50564113540895 43.567700951505685,199.96531303638767 43.524374238419114,201.5797850687668 42.43254106902168,208.6590834358285" stroke="#4DD2FF" stroke-linecap="round" stroke-linejoin="round" stroke-width="0.5"><title>2025-06-30 4.1km</title><desc>1751292736000</desc></polyline><polyline fill="none" points="56.91637630661717,201.10960229374177 56.71428571428987,199.64897324027697 56.78397212544223,199.49564597582503 62.20557491289219,199.2374099119188 63.06968641112326,199.31810877237876 64.47735191637184,199.1809206606922 66.58885017421562,199.20513034473697 74.71428571428987,198.68865547961468 72.28919860627502,198.85812416609406 71.72473867598455,199.04373231128557 70.67944250869914,198.99531283708347 65.39024390245322,199.26968946598936 60.47038327524206,199.35845817174413 60.32404181183665,199.4875761115909 60.66550522646867,201.31134452038532 60.50522648083279,201.2952051611719 60.31010452960618,200.34297714474087" stroke="#4DD2FF" stroke-linecap="round" stroke-linejoin="round" stroke-width="0.5"><title>2025-06-26 5.0km</title><desc>1750950176000</desc></polyline><polyline fill="none" points="97.57142857142026,200.73669080522814 97.2807934799348,199.26330919477186 89.53698293093476,199.97382686247875 88.71028755960288,199.98130595921975 85.72643395356135,199.60735018770356 79.57142857142026,199.86911942786537 85.51976011070656,199.59987105282198 88.71674611719209,199.9887850552259 94.22589574044105,199.48768393830687" stroke="#4DD2FF" stroke-linecap="round" stroke-linejoin="round" stroke-width="0.5"><title>2025-06-24 5.0km</title><desc>1750769966000</desc></polyline><polyline fill="none" points="120.42857142857974,200.7208387669234 120.18217373403604,199.27916123308387 112.51790860437904,200.00751226317516 111.58419102511834,200.0375472026135 108.56257719226414,199.64709203488746 102.42857142857974,199.91740737140208 108.40047344585764,199.64709203488746 111.57770687525044,200.0375472026135 118.06834088102914,199.45937246764515" stroke="#4DD2FF" stroke-linecap="round" stroke-linejoin="round" stroke-width="0.5"><title>2025-06-22 5.0km</title><desc>1750563938000</desc></polyline><polyline fill="none" points="134.9008413584088,209.0 133.9705431707407,203.44209893125299 133.95750160735042,201.9266568681196 134.04009817540646,201.2922719613307 133.9879319219035,199.6609590561493 134.0053206730663,199.37899827560614 134.10095880449808,199.21787710654826 134.0053206730663,199.14235137752257 134.0009734852647,198.1101548334409 132.9446068516263,191.75537669678306 132.6794283962372,191.0 132.94895403938426,191.6596962881231 133.9879319219035,198.00441640774807 134.04444536320807,201.09591307632945 133.9705431707407,201.93169163636412 133.96619598292455,203.39175276577225 134.67913478097762,207.66092523296174 134.77912010019645,207.95290703645878 135.8920001751976,207.89249714976904" stroke="#4DD2FF" stroke-linecap="round" stroke-linejoin="round" stroke-width="0.5"><title>2025-06-21 8.0km</title><desc>1750517001000</desc></polyline><polyline fill="none" points="158.96900912059937,209.0 157.44426086737076,199.62387523600773 154.7611767318449,199.56912221983657 149.9268973862636,199.10372068098513 150.0214554174454,198.6109408227785 149.83233935502358,197.66644103945873 150.09237394086085,191.49280779338733 150.05691467912402,191.05475651082816 149.8205196011695,191.0 149.5250257535954,198.597252467589 149.9741764018545,198.65200588002335 149.99781590962084,199.11740898460266 157.4797201291076,199.6101869840786 158.38984117942164,205.46863131743157 158.67351527308347,206.24882541317493 164.76068853214383,206.05719921311538" stroke="#4DD2FF" stroke-linecap="round" stroke-linejoin="round" stroke-width="0.5"><title>2025-06-19 5.0km</title><desc>1750345525000</desc></polyline><polyline fill="none" points="189.0,200.4506187684019 188.83478260872653,199.4688246300284 183.73913043479843,199.95217187507296 183.0826086956513,199.9672764002571 180.90000000000873,199.7155337105869 172.81304347826517,200.0830776067378 172.11304347826808,200.19887854175613 171.0,200.53117536997524 172.56956521738903,200.10825174613638 175.413043478271,199.98238092085376" stroke="#4DD2FF" stroke-linecap="round" stroke-linejoin="round" stroke-width="0.5"><title>2025-06-17 5.1km</title><desc>1750166247000</desc></polyline><polyline fill="none" points="11.620689655130263,226.7925256237504 11.0,222.8033731077594 25.0275862069102,222.39007737179054 22.746551724208985,213.38717765365436 25.508620689681266,213.54891044675605 29.0,213.2074743762496 23.491379310376942,213.53094014374074 25.524137931060977,221.63536091908463 19.503448275849223,221.9228723296692" stroke="#4DD2FF" stroke-linecap="round" stroke-linejoin="round" stroke-width="0.5"><title>2025-06-16 3.2km</title><desc>1750084948000</desc></polyline><polyline fill="none" points="51.857142857130384,220.8320885070425 51.5813364055648,219.1679114929575 42.733755760331405,219.98319432727294 41.935368663602276,219.99159926299035 38.4369815668033,219.5629464501617 33.857142857130384,219.7814756135267 38.29182027647039,219.5545414707667 41.928110599081265,219.97478939073335 49.43294930877164,219.34441670769593" stroke="#4DD2FF" stroke-linecap="round" stroke-linejoin="round" stroke-width="0.5"><title>2025-06-15 4.6km</title><desc>1749956754000</desc></polyline><polyline fill="none" points="74.71428571428987,220.7239137209981 74.49516648764256,219.27608627899463 66.78732545653475,219.98507752069418 65.98174006445333,220.00000357831595 62.591836734703975,219.61938815854228 56.71428571428987,219.8880580719997 62.70784103113692,219.61938815854228 65.93018259937526,220.00000357831595 67.6122448979877,219.917910223754 67.9280343716091,219.81342763937573 72.01396348013077,219.44773741994868" stroke="#4DD2FF" stroke-linecap="round" stroke-linejoin="round" stroke-width="0.5"><title>2025-06-14 5.1km</title><desc>1749906363000</desc></polyline><polyline fill="none" points="97.57142857142026,221.06875192149164 97.35502121641184,219.60935958814662 89.89533239038428,220.33168876736454 88.8896746817627,220.33905943610444 85.83451202264405,219.97052507959597 80.08062234794488,220.2432406840744 80.00424328149529,220.0737148887274 80.03606789250625,218.93861888996616 79.57142857142026,218.93124807850836 80.05516265914775,218.9533605106335 80.00424328149529,220.06634419295006 80.09971711458638,220.2432406840744 85.99363507778617,219.96315437331214 89.02970297032152,220.3464301040949 95.0763790665078,219.80099864498334 95.07001414429396,219.50616911642283 97.01131541727227,219.4029784974773" stroke="#4DD2FF" stroke-linecap="round" stroke-linejoin="round" stroke-width="0.5"><title>2025-06-12 5.9km</title><desc>1749735885000</desc></polyline><polyline fill="none" points="120.42857142857974,225.66263633829658 119.85476685478352,222.7736221528321 104.08761508757016,224.1748013872275 102.60320760321338,220.11567708935763 102.42857142857974,215.0452197203267 105.37243837240385,214.91520560727804 107.87971487967297,215.07411172923457 108.01692901697243,214.6118388796749 107.75497475493466,214.51071649281948 102.50341550336452,214.33736366170342 102.6156816156581,219.97122212506656 103.05227205221308,221.61799998933566 103.91297891293652,223.66922284850443 110.89842589839827,223.06252622140164 111.03564003558131,223.61144232923107 119.81734481739113,222.7591769339051 120.35372735373676,225.61930156052404" stroke="#4DD2FF" stroke-linecap="round" stroke-linejoin="round" stroke-width="0.5"><title>2025-06-10 5.3km</title><desc>1749559786000</desc></polyline><polyline fill="none" points="125.75833244028036,215.2075754171383 125.32622441329295,213.45622788878973 125.28571428573923,212.0957923520764 137.53327617625473,211.78304684518662 138.08691458578687,213.83151832780277 137.68181331054075,213.8158812445472 137.5602829279378,214.0973484999995 137.8168470688979,215.55158776117605 137.74933018971933,216.5367097521812 138.19494159257738,218.506934759891 139.34272853937,218.4600249346695 141.04415389563655,225.0116249951243 141.07116064737784,225.30870762854465 140.63905262033222,225.43379488112987 141.03065051982412,225.3243435407203 141.1656842781813,225.57451791832864 140.8145965062431,225.63706144907337 140.93612688884605,226.21558789956907 141.74632943951292,228.2795023326762 142.3134712249739,228.2169598788605 143.28571428573923,227.68534799250483 142.25945772160776,227.90424722757598 140.43650198262185,220.6334984426794 140.22044796915725,220.00804159529798 139.7343264388037,220.00804159529798 139.36973529099487,218.41311509505613 138.97813739150297,218.56948117123102 138.18143821676495,218.4600249346695 137.7358268139069,216.66180415557756 137.64130318298703,214.34754118253477 136.89861751155695,211.7204976673238 125.32622441329295,212.12706686770252 125.8123459436465,215.30139704197063" stroke="#4DD2FF" stroke-linecap="round" stroke-linejoin="round" stroke-width="0.5"><title>2025-06-08 5.0km</title><desc>1749355299000</desc></polyline><polyline fill="none" points="166.14285714286962,220.74069638492801 165.82627422828227,219.2593036150647 160.0244077530224,219.7456227194125 158.27997128499555,219.992521954744 157.31083991387277,219.992521954744 154.24192390523967,219.61843188016064 148.14285714286962,219.8877769260289 153.95118449389702,219.61843188016064 157.27853553483146,220.00000373677904 164.27566403447418,219.37153138663416" stroke="#4DD2FF" stroke-linecap="round" stroke-linejoin="round" stroke-width="0.5"><title>2025-06-07 5.3km</title><desc>1749293029000</desc></polyline><polyline fill="none" points="189.0,220.71307294099097 188.73424558879924,219.28692705900903 180.5217861000856,220.0375335972858 177.19013323730906,219.65472521866468 171.0,219.9099310255042 177.1642059776641,219.6397130848345 180.12639539071824,220.0375335972858 186.47209218580974,219.45956724023563" stroke="#4DD2FF" stroke-linecap="round" stroke-linejoin="round" stroke-width="0.5"><title>2025-06-05 5.1km</title><desc>1749128617000</desc></polyline><polyline fill="none" points="11.251968503929675,239.8860670675931 11.0,238.23566990168183 11.094488188973628,238.16272346800542 18.15748031498515,237.91652881528717 19.48818897639285,242.79470398727426 26.46456692914944,242.70352558211016 29.0,242.5485220800765 26.913385826803278,242.6214649379981 26.52755905513186,237.20529601272574 19.850393700791756,237.5973865904234 18.417322834662627,237.5517947510598 18.54330708659836,237.91652881528717 14.842519685043953,238.02594874459464" stroke="#4DD2FF" stroke-linecap="round" stroke-linejoin="round" stroke-width="0.5"><title>2025-06-03 5.2km</title><desc>1748952979000</desc></polyline><polyline fill="none" points="48.742558771395124,234.6340175164878 48.347698595403926,234.04958133533364 48.06779771117726,233.43620620635193 47.8878614284622,233.2683948762351 47.4430189516861,233.22788861886875 47.10313930653501,232.8343977591212 46.948194174212404,232.31938354665908 46.71827559071244,231.96639358167886 46.44337293651188,231.0 45.648654354474274,231.3414223644104 45.27878532887553,231.38192996643556 44.31912515431759,231.740710323862 43.90927028810256,232.26730319790295 43.90927028810256,232.40039732762307 42.24985790293431,234.5125015776648 42.23986144276569,234.6340175164878 41.78502250587917,235.25895252669943 41.39016232988797,235.6234947761368 41.32018710885313,235.5598447106022 41.04028622456826,235.80287185012276 40.85535171176889,235.69293113000458 40.85035348171368,235.7970855017411 40.825362331292126,235.6466402368642 41.085270295268856,235.83180358324535 41.045284454652574,236.04011162691313 40.44549684555386,236.70553498535446 39.42085968001629,236.93698476231657 39.42085968001629,236.83283247932923 39.35088445895235,236.96012968818104 39.07098357472569,237.02377818571767 38.82607030100189,236.9543434575935 38.416215434786864,236.98906083225302 38.34624021369382,236.92541229585186 38.18129862123169,237.01799196162392 37.68647384372889,236.8444049646314 37.621496852720156,236.08640219959852 37.43156410983647,235.91859869421023 36.496895085670985,236.15583798797525 36.14701898038038,236.36993113478093 36.54687738645589,238.1000056258963 37.17665437597316,240.03253494010642 38.50618357612984,245.2280515268867 38.69111808895832,245.76609014944552 40.26056233275449,248.94214991849003 40.46049153577769,249.0 41.15024728627759,248.78016937724533 41.62008091338794,248.91900986941982 42.479776486434275,248.73967416986488 42.46478179618134,248.39835627621142 42.694700379652204,248.3347205101927 43.10955347595154,248.52562759469583 43.42444197073928,248.37521600590844 43.554395952727646,248.5661229544785 44.36410922498908,248.74545920124 44.83894108221284,248.65868366858558 45.31877116946271,248.30001006234306 45.40374108075048,247.62315209528606 45.76361364623881,247.12562742731097 45.668647274782415,246.62809840687987 45.78360656651785,246.38511753593048 45.53869329279405,246.11320913992677 45.38374816047144,245.70823677836233 45.32376939954702,245.10655823017805 45.648654354474274,244.84621457745016 46.143479131977074,245.04870418813516 46.41838178614853,245.03134796403174 46.48835700721247,244.65529514124137 46.37339771547704,244.1924574838522 46.278431344020646,244.1519590095886 46.37339771547704,244.10567500370234 46.263436653796816,244.0709619745503 46.353404795139795,244.12303151032393 46.36340125533752,243.8511122978598 46.23344727334916,243.55026399437338 45.64365612438996,243.50976506273219 45.36875347021851,243.30148438722608 45.48371276195394,242.5146393944342 45.95354638909339,241.7104262748653 46.31341895455262,241.31120834312242 46.47836054704385,241.2533504392959 46.83323488244787,240.7615558794496 47.45801364190993,240.165610888409 48.01281718033715,239.47129816576853 47.85287381790113,239.1472826598947 47.35804904039833,239.14149665194054 47.2930720494187,238.95055805890297 47.48300479230238,238.49346003390747 47.702926915633725,238.28516098064938 47.90785434874124,238.3140914503565 47.99282426002901,238.20994169052938 47.81788620739826,237.81069917671994 48.05280302092433,237.31887483397077 48.27272514428478,237.1915784284829 48.45765965708415,237.26679906617574 48.4326685066917,237.12793011885879 48.98747204511892,236.87333616760588 49.03745434587472,236.71710749659178 49.522282663238,236.42200772422075 49.56726673390949,235.99960734488195 48.93249151427881,234.790251913244 48.8325269127381,234.74396028490082" stroke="#4DD2FF" stroke-linecap="round" stroke-linejoin="round" stroke-width="0.5"><title>2025-06-02 11.5km</title><desc>1748829019000</desc></polyline><polyline fill="none" points="74.71428571428987,240.8417534750406 74.38456048531225,239.1582465249594 64.8749851314351,240.04339350415103 60.933269894099794,239.59214325279754 56.71428571428987,239.77437921910314 60.98572618054459,239.57478742613603 64.44034732959699,240.02603776947217 74.36957297488698,239.1669244812001 74.70679195909179,240.7896867485979" stroke="#4DD2FF" stroke-linecap="round" stroke-linejoin="round" stroke-width="0.5"><title>2025-06-01 4.9km</title><desc>1748740054000</desc></polyline><polyline fill="none" points="97.57142857142026,248.67410667186778 97.50625053886324,248.81247984978108 97.3758944736328,248.7118448267065 96.94137425639201,246.29657965675142 83.21053539100103,247.49163864280126 81.93956375552807,243.93158671310812 81.88524872838752,239.4530716523077 81.58108457626076,237.7672963525838 79.57142857142026,231.18752015021892 80.89671523409197,235.59085089842847 81.25519441335928,236.27020793587872 81.84179670666344,238.79889292705775 82.42839899996761,238.9624379334782 81.8200706957723,238.9498575560865 81.93956375552807,243.51645029734937 82.35235796187771,245.2147268062472 83.06931632035412,246.98845732213522 83.25398741272511,247.1016732981443 89.14173635659972,246.4978535594273 89.30468143802136,246.97587776285945 93.98663677903824,246.5230127741961" stroke="#4DD2FF" stroke-linecap="round" stroke-linejoin="round" stroke-width="0.5"><title>2025-05-31 5.5km</title><desc>1748696141000</desc></polyline><polyline fill="none" points="119.16623376624193,244.96756412692775 118.75714285718277,242.32819520025805 103.94805194810033,243.65465383294213 102.58051948051434,239.75645194278331 102.42857142857974,235.0595080771891 107.45454545452958,235.11365246893547 102.49870129872579,235.0324358730868 102.59220779221505,239.68877381607308 102.95454545458779,241.13707819906995 103.86623376619536,243.22152594024374 116.98051948053762,241.96273998371908 118.14935064938618,241.89506298136257 118.20779220783152,242.395871981862 120.42857142857974,242.2199122779857" stroke="#4DD2FF" stroke-linecap="round" stroke-linejoin="round" stroke-width="0.5"><title>2025-05-29 5.0km</title><desc>1748526381000</desc></polyline><polyline fill="none" points="136.1969662667252,238.23286041124084 135.79760018113302,234.9625264027418 142.558297487034,234.632185964394 143.28571428573923,237.2914073854481 142.50124518905068,234.69825410589692 135.76907403219957,235.01207741038525 135.95449400047073,236.6472521640244 135.69775865977863,235.02859440956672 126.08444645686541,235.92050986597314 127.52501697983826,243.13823769203736 128.08127688476816,244.82287846862164 127.71043694816763,245.05410230671987 128.29522300203098,246.6065966768656 127.51075390540063,244.55862224975135 125.570975775423,235.95354367756227 128.93706135387765,235.47455275138782 135.0273941589403,235.09466238951427 134.95607878657756,234.61566892477276 126.01313108450267,235.22679826857348 125.51392347749788,233.39340332311986 125.28571428573923,233.59160918208363 125.39981888164766,235.3589340398612 132.1462531129946,234.69825410589692" stroke="#4DD2FF" stroke-linecap="round" stroke-linejoin="round" stroke-width="0.5"><title>2025-05-27 6.0km</title><desc>1748352132000</desc></polyline><polyline fill="none" points="163.744223885471,241.34136010772636 163.81597787182545,241.2938794083384 163.58534005857655,240.14246059575817 157.52212821348803,240.72410799600402 156.819964204391,240.73597829062055 154.29319882852724,240.43922019933234 148.2556134071201,240.70630254955176 148.14285714286962,238.7357995008242 148.8603970062104,238.65863989227728 149.84957696066704,238.7298641499583 149.85470224538585,240.43922019933234 154.44183208592585,240.2552294232628 157.22998698340962,240.52824778550348 163.5750894891098,239.8991165923253 166.03522616336704,239.81008804430166 166.14285714286962,240.0059506702637 166.07110315654427,240.02969154986204 163.8006020175817,240.12465497143785" stroke="#4DD2FF" stroke-linecap="round" stroke-linejoin="round" stroke-width="0.5"><title>2025-05-25 7.6km</title><desc>1748179850000</desc></polyline><polyline fill="none" points="188.9882044561091,240.9937263310785 188.94102228048723,240.60443612185918 188.7110091743234,240.60443612185918 188.56356487548328,239.87365716575005 188.44560943642864,239.70974303461117 182.75425950199133,240.19465451112046 181.82241153344512,240.3653971534659 178.08322411534027,240.01708170158236 171.10026212321827,240.3312486598079 171.0,239.14287024004443 172.73394495414686,239.0062736689215 172.72214941022685,240.00342223521875 172.95216251639067,240.03074116517382 177.85321100917645,239.81901916660718 181.40366972476477,240.12635733236675 188.77588466581074,239.4160625469376 189.0,240.9186003264549" stroke="#4DD2FF" stroke-linecap="round" stroke-linejoin="round" stroke-width="0.5"><title>2025-05-24 6.6km</title><desc>1748094255000</desc></polyline><polyline fill="none" points="29.0,260.80202481051674 28.80419016923406,259.19797518949053 21.39242546336027,259.827841329432 20.36261079774704,260.00420298581594 19.187751813064096,260.02099931432895 15.800966962153325,259.60948827948596 11.0,259.8026467762611 15.77921031427104,259.6010900737019 19.14423851732863,260.02939747733035 26.824335213546874,259.3827364228928" stroke="#4DD2FF" stroke-linecap="round" stroke-linejoin="round" stroke-width="0.5"><title>2025-05-18 4.7km</title><desc>1747565909000</desc></polyline><polyline fill="none" points="49.5176066418353,260.6444834943504 49.32178642999497,259.4927689701035 44.10163183507393,259.9343616728147 43.23074720869772,260.0895150749857 42.52991697678226,260.083547644037 40.14400229026796,259.77324039691666 33.89321500141523,260.0596779141961 33.857142857130384,259.8806546301021 37.37675350700738,259.6538910178133 39.76266819352168,259.61211867765087 42.550529630651,260.0596779141961 49.388777555082925,259.4509965149773 51.69224162606406,259.3555165056496 51.784998568560695,259.3674515153325 51.8004580589477,259.4509965149773 51.857142857130384,259.4151915297298" stroke="#4DD2FF" stroke-linecap="round" stroke-linejoin="round" stroke-width="0.5"><title>2025-05-17 5.7km</title><desc>1747487200000</desc></polyline><polyline fill="none" points="73.73063992251991,259.2558608284089 71.34691435410059,259.3805780957555 70.183771155047,259.5884397842601 64.84192831499968,259.9958471573991 61.49609664367745,259.5634964096098 56.71428571428987,259.7547287537309 61.43147757707629,259.58012532689463 64.71269018176827,259.9875327415284 74.24759245541645,259.1560868772649 74.56350789222051,260.76908412746707 74.71428571428987,260.8439131227278" stroke="#4DD2FF" stroke-linecap="round" stroke-linejoin="round" stroke-width="0.5"><title>2025-05-11 5.0km</title><desc>1746965499000</desc></polyline><polyline fill="none" points="97.57142857142026,260.64671074700163 97.28089772487874,259.35328925299837 89.11375281814253,260.09345810143714 85.79524492719793,259.7121599303937 79.57142857142026,259.9738353591529 85.64029514242429,259.71963638415764 88.73929083824623,260.09345810143714 97.33254765317542,259.3682422329366" stroke="#4DD2FF" stroke-linecap="round" stroke-linejoin="round" stroke-width="0.5"><title>2025-05-10 5.3km</title><desc>1746870058000</desc></polyline><polyline fill="none" points="120.38927011852502,259.69658927550336 120.34341859014239,259.5676388092543 120.42857142857974,259.66624800941645 120.08140985653154,259.72693052919203 112.05739238930983,260.4323611907457 108.65782907049288,260.03034238589316 102.42857142857974,260.28824149152933 108.62507797879516,260.03034238589316 110.21678103556042,260.1592920504336 111.66437928884989,260.42477595036326 118.23424828448333,259.83312481975736" stroke="#4DD2FF" stroke-linecap="round" stroke-linejoin="round" stroke-width="0.5"><title>2025-05-05 5.4km</title><desc>1746434825000</desc></polyline></svg>