<?xml version="1.0" encoding="utf-8" ?>
<svg baseProfile="full" height="300mm" version="1.1" viewBox="0,0,200,300" width="200mm" xmlns="http://www.w3.org/2000/svg" xmlns:ev="http://www.w3.org/2001/xml-events" xmlns:xlink="http://www.w3.org/1999/xlink"><defs /><rect fill="#222222" height="300" width="200" x="0" y="0" /><text fill="#FFFFFF" style="font-size:12px; font-family:Arial; font-weight:bold;" x="10" y="20">Over 3km Runs</text><text fill="#FFFFFF" style="font-size:4px; font-family:Arial" x="10" y="280">Runner</text><text fill="#FFFFFF" style="font-size:9px; font-family:Arial" x="10" y="290">tang-hi</text><text fill="#FFFFFF" style="font-size:4px; font-family:Arial" x="65" y="280">SPECIAL TRACKS</text><rect fill="yellow" height="2.6" width="2.6" x="65" y="283" /><text fill="#FFFFFF" style="font-size:3px; font-family:Arial" x="70" y="285.5">Over 20.0 km</text><rect fill="red" height="2.6" width="2.6" x="65" y="287" /><text fill="#FFFFFF" style="font-size:3px; font-family:Arial" x="70" y="289.5">Over 40.0 km</text><text fill="#FFFFFF" style="font-size:4px; font-family:Arial" x="120" y="280">STATISTICS</text><text fill="#FFFFFF" style="font-size:3px; font-family:Arial" x="120" y="285">Number: 86</text><text fill="#FFFFFF" style="font-size:3px; font-family:Arial" x="120" y="290">Weekly: 3.7</text><text fill="#FFFFFF" style="font-size:3px; font-family:Arial" x="141" y="285">Total: 447.8 km</text><text fill="#FFFFFF" style="font-size:3px; font-family:Arial" x="141" y="290">Avg: 5.2 km</text><text fill="#FFFFFF" style="font-size:3px; font-family:Arial" x="167" y="285">Min: 3.0 km</text><text fill="#FFFFFF" style="font-size:3px; font-family:Arial" x="167" y="290">Max: 11.5 km</text><polyline fill="none" points="21.546500704833306,31.090909090911737 21.567514214577386,31.81226424639317 21.658572756830836,31.9500504441894 21.60954123409465,32.77676263281319 21.203280045563588,35.45946572367393 21.056185477325926,35.718815922911745 21.056185477325926,36.472547653691436 20.51683872708236,40.11143185687979 20.40476667508483,40.33024588441913 20.43978919129586,40.840809615081525 19.97749197683879,44.163446150945674 20.194631577585824,47.22663239666872 20.628910779079888,50.727272727272066 21.10521700006211,50.686756934956065 20.40476667508483,45.37090661939874 20.341726145823486,44.090511712063744 20.804023360309657,40.79218463863799 20.93710892208037,40.508538352063624 21.42041964631062,36.545489056181395 21.64456375030568,35.7593393153802 21.574518717854517,35.508093950258626 21.84068984130863,33.68451516713685" stroke="#4DD2FF" stroke-linecap="round" stroke-linejoin="round" stroke-width="0.5"><title>2025-10-10 5.0km</title><desc>1760093219000</desc></polyline><polyline fill="none" points="43.79197590937838,50.727272727272066 45.04096142220078,41.51868321366055 44.95174817129737,39.65002224032651 44.31833408982493,34.601368453782925 44.60381649271585,35.05565432619915 44.59489516762551,33.88896151599329 45.290758524730336,34.06448252988048 44.58597384253517,33.87863674100663 44.5502885421738,34.53942022281262 44.75547901925165,35.0246803539776 44.354019390186295,35.26214723274461 44.40754734072834,35.77837766211451 43.95255976106273,35.830000560730696 43.542178806848824,32.71193040754588 43.07826990209287,31.865285559710173 43.14071917778347,31.689760744397063 43.56894278211985,31.813660645530035 43.542178806848824,31.21480972277641 43.363752305042,31.090909090911737 41.72222848824458,31.35936026890704 43.35483097989345,31.142534372556838 43.56002145702951,31.32838516918855 43.57786410721019,31.782685684425815 43.1496405028156,31.669110746152 43.105033877363894,31.85496057898854 43.63139205775224,33.042326481998316 43.988245061424095,36.986346612095076 44.47891794145107,39.97007158731867 44.54136721708346,41.36382311358466 43.613549407571554,48.032917567237746" stroke="#4DD2FF" stroke-linecap="round" stroke-linejoin="round" stroke-width="0.5"><title>2025-10-08 5.0km</title><desc>1759920144000</desc></polyline><polyline fill="none" points="66.81539924745448,31.090909090911737 66.80373526155017,32.23813044113922 67.00202302291291,32.292117084085476 66.89704714925028,33.641776026939624 66.23219994950341,38.163033571865526 65.99892023019493,38.70287493536307 65.83562442683615,41.280587200584705 65.21743317088112,45.39672560454346 64.937497507839,46.27391894478933 64.98415345163085,46.98916461308545 64.45927408343414,50.72727272727934 64.9491614937433,46.287414181715576 65.07746533933096,46.07149022642989 65.76564051106106,46.07149022642989 66.71042337379185,39.431657296358026 66.97869505098788,38.75685895107745 66.87371917732526,38.35197829862591 67.53856637707213,33.46632113988744 67.74851812433917,33.27736946384539" stroke="#4DD2FF" stroke-linecap="round" stroke-linejoin="round" stroke-width="0.5"><title>2025-10-07 3.0km</title><desc>1759844077000</desc></polyline><polyline fill="none" points="89.3835517364787,31.09090909090446 89.46795417380054,31.139741492857866 89.36948466356262,31.758282673814392 89.48202124668751,31.798976005120494 89.41168588225264,32.67794691479503 89.02484137777355,35.3066634674542 88.86307003951515,35.66474821059819 88.74349991991767,37.341214583029796 88.35665541546769,39.95350245467125 88.22301822298323,40.23018839342694 88.27225297811674,40.63707774410432 87.79397249984322,43.84329353814246 87.76583835406927,45.015076436815434 88.3988566341286,50.727272727272066 88.81383528441074,50.670315514478716 88.49029260792304,47.7817180737693 88.54656089947093,47.553880606617895 88.15268285854836,45.36498050800583 88.12454871274531,44.41291236515826 89.63675904850243,33.735954661882715" stroke="#4DD2FF" stroke-linecap="round" stroke-linejoin="round" stroke-width="0.5"><title>2025-10-06 5.0km</title><desc>1759755043000</desc></polyline><polyline fill="none" points="115.3730195328244,50.61443046329077 115.44044323876733,50.727272727272066 116.12431225681212,50.56929352400766 116.28805554285645,50.27590295005939 115.48860302881803,48.49297352719441 115.61381848278688,48.32370651587553 114.22681653068867,45.32199325230613 113.55257947073551,44.430490598220786 113.31178052071482,43.57283539341006 113.31178052071482,42.04935178565211 114.89142163272481,41.631800600247516 114.90105359075824,41.32710004757246 111.52986829070142,38.415472776207025 109.4493653625832,35.95519818599132 109.0544550846098,35.22161901164509 106.92579236649908,32.60326420897036 106.30934705451364,31.090909090911737 107.17622327449499,32.84027312778926 108.79439221858047,34.71375352926407 109.5071571105509,35.89876919917151 111.90551465266617,38.61861216026591 113.2058289826964,39.465022066186066 114.69878247275483,41.13525110168848 114.56393506075256,41.41738178420201 112.96503003273392,41.778507961076684 113.21546094072983,42.26376932221319 113.19619702472119,43.47127050133713 113.38883618474938,44.272502003361296 114.40982373279985,45.931370495767624 115.3730195328244,48.199577202387445 112.07888989668572,49.36187326051004" stroke="#4DD2FF" stroke-linecap="round" stroke-linejoin="round" stroke-width="0.5"><title>2025-10-04 5.0km</title><desc>1759568734000</desc></polyline><polyline fill="none" points="133.68054874392692,31.641186193555768 133.69594554047217,31.406642292284232 133.18785125314025,31.271328207381885 130.63968141801888,31.090909090911737 133.15705765999155,31.289370097889332 133.7190407353628,31.46076786566846 133.69594554047217,31.72237431559188 134.18094463297166,32.3357931645005 134.0731670568639,32.462084728467744 134.15015103982296,32.76879202765849 134.33491259883158,32.976269864411734 137.1525263742078,40.21963373035396 133.75753272685688,41.473403391799366 134.15015103982296,43.21421824317804 134.88919727597386,45.568320247104566 135.21253000426805,47.38120475821779 135.76681468141032,48.6529065463983 135.5512595291948,48.878383593175386 135.72832268991624,49.18503141317342 135.8745922575181,49.96968401324557 135.78221147798467,49.77126680131187 135.54356113087852,49.69911497258727 135.29721238548518,49.82538063251559 135.2279268008715,50.05987350133364 135.57435472405632,50.673159472491534 135.85919546094374,50.727272727272066 136.04395701995236,50.52885729069385 136.028560223378,50.24927111361467 135.72062429162906,49.74420987274061 135.49737074112636,49.68107700579276 135.3203075803758,49.78930474886147 135.25102199573303,50.15006289333542 135.5820531223435,50.673159472491534 135.91308424895396,50.700216104210995 136.06705221481388,50.312403556854406 135.78990987630095,49.81636166304088 135.41268835990923,49.70813395454752 135.23562519915868,50.09594926964928 135.40498996162205,50.48376280844968 135.66673550358973,50.71825385389093 135.95157624044805,50.673159472491534 136.07475061313016,50.44768720535649 135.8745922575181,49.906551314430544 135.55895792745287,49.69911497258727 135.27411719062366,49.83439960100077 135.31260918208864,50.29436572074337 135.6744339018769,50.727272727272066 136.03625862166518,50.54689507686999 136.04395701995236,50.28534680123266 135.68983069848036,49.73519089462934 135.41268835990923,49.71715293552552 135.2587203940493,49.852437535111676 135.35110117358272,50.32142247346928" stroke="#4DD2FF" stroke-linecap="round" stroke-linejoin="round" stroke-width="0.5"><title>2025-10-02 5.0km</title><desc>1759403720000</desc></polyline><polyline fill="none" points="156.0843612496683,50.727272727272066 156.5475445445918,47.78835098663694 156.77141647046665,47.654355252139794 157.25003920856398,44.14359421988047 157.30407725958503,42.49089735123562 156.78685591364047,39.17647645439138 156.51666565824416,36.1924973374189 156.40086983452784,35.74578515631583 156.04576264176285,35.17399025049235 156.13839930071845,35.03104094260925 156.50122621509945,35.09358129341854 156.33139234027476,33.35136915339535 155.96084570430685,32.89570797127817 156.0071640337992,31.957574566658877 155.67521600579494,31.090909090911737 156.0148837554152,32.0290517500398 155.96084570430685,32.8689042987462 156.33139234027476,33.35136915339535 156.50122621509945,35.09358129341854 156.13067957913154,35.039975281149964 156.0843612496683,35.17399025049235 156.53210510141798,36.16569467059162 157.31179698120104,42.74997080631147 157.1882814358978,44.75999752727512 156.38543039135402,50.0841128420725 156.2619148460508,50.093045650464774 156.1924373517977,50.3520966994256" stroke="#4DD2FF" stroke-linecap="round" stroke-linejoin="round" stroke-width="0.5"><title>2025-09-30 5.0km</title><desc>1759224370000</desc></polyline><polyline fill="none" points="178.79677802257356,50.727272727272066 178.8426166306308,50.108454538734804 179.0183312948502,49.984690372803016 179.78230809568777,44.91904877823981 179.92746368786902,43.00941098367912 179.15584711899282,36.47565712345386 179.01069152681157,35.88326274553401 178.68218150243047,35.31738972028688 178.73565987852635,35.21128811808012 179.12528804695467,35.273180735093774 178.9419336147257,33.46059298921318 178.57522475032602,33.062702816598176 178.6134235903737,32.12544321373571 178.2467147259449,31.09090909090446 178.590504286316,31.92207423006039 178.58286451833555,33.053860792089836 178.94957338276436,33.49596091647254 179.14056758297374,35.23781353076629 179.04889036685927,35.30854792504397 178.73565987852635,35.19360450511158 178.6898212704691,35.29970612890611 179.14056758297374,36.34303186707257 179.35448108718265,39.004339983810496 179.89690461580176,42.275603828267776 179.93510345584946,43.58407491521211 179.0336108308402,50.16149627021514 178.85789616664988,50.21453796936839 178.77385871854494,50.63003016057337" stroke="#4DD2FF" stroke-linecap="round" stroke-linejoin="round" stroke-width="0.5"><title>2025-09-28 5.0km</title><desc>1759056716000</desc></polyline><polyline fill="none" points="21.502860282780603,52.90909090909554 21.55234106394346,53.59615823942295 21.65837130919681,53.60433757706778 21.594753162004054,54.42226714583376 21.17063218081603,57.1540916745289 21.02218983741477,57.47307112940325 21.02218983741477,58.25006707700231 20.386008365632733,62.11039892848203 20.44255782981054,62.46207250488078 19.94068133534165,65.93783339004585 19.968956067430554,67.24631626735936 20.576862807152793,72.48003521062492 21.000983788369922,72.54545454545587 20.654618320375448,69.63424271971599 20.718236467568204,69.45433291883091 20.343596267484827,67.0091553232487 20.315321535425028,65.92965530521906 21.45337950164685,57.8411227761535 21.62302789412206,57.530323718288855 21.559409746929305,57.29313415638171 21.877500482834876,54.81487038691557" stroke="#4DD2FF" stroke-linecap="round" stroke-linejoin="round" stroke-width="0.5"><title>2025-09-27 5.0km</title><desc>1758971882000</desc></polyline><polyline fill="none" points="43.20800519155455,72.54545454545587 43.284540656924946,71.95208845979505 43.48353286689962,71.73953843145136 44.356037172168726,65.0616610485522 43.52180059955572,58.00239336039522 43.10085554001853,57.14319626377255 43.16208391232067,57.02804549343273 43.46822577380226,57.160911753402615 43.53710769265308,57.09890752395586 43.36872966881492,55.35391325380624 42.99370588848251,54.875583846842346 43.03197362119681,53.89234292769834 42.64929629431572,52.90909090908826 43.03962716771639,53.87462677332951 43.01666652812855,54.91987371708092 43.39934385498054,55.41591872534627 43.55241478575044,57.090049773294595 43.16208391232067,57.02804549343273 43.13912327273283,57.16976949684613 43.59068251840654,58.23269217291818 43.91213147295639,61.5985284235212 44.363690718688304,64.69852572438685 44.264194613700965,66.45218963836669 43.46057222728268,71.79267598711886" stroke="#4DD2FF" stroke-linecap="round" stroke-linejoin="round" stroke-width="0.5"><title>2025-09-25 5.0km</title><desc>1758803583000</desc></polyline><polyline fill="none" points="66.68706274917349,52.90909090908826 66.69413143576821,54.430446399215725 66.07915570074692,57.9801640705773 66.0720870141522,59.07612822794181 65.51366077197599,62.07768502814724 65.55607289163163,62.45389406585309 65.0541961423587,66.12592911095999 65.29453148707398,69.23353397689061 65.71158399703563,72.54545454545587 66.11449913377874,72.48003521058126 65.41469915944617,66.07686070410273 67.1535960654146,54.32411603606306" stroke="#4DD2FF" stroke-linecap="round" stroke-linejoin="round" stroke-width="0.5"><title>2025-09-23 5.1km</title><desc>1758638106000</desc></polyline><polyline fill="none" points="88.54932428372558,72.54545454545587 88.45813963323599,72.51028367345134 88.48093579587294,71.78048485358886 88.64810765514267,71.62221441780275 89.01284625727567,69.45915611437522 89.54475671873661,64.80751828308712 88.7240948639519,57.99228528296226 88.29856649477733,57.11286126321647 88.38975114532514,57.0073297799172 88.74689102655975,57.042506955323915 88.57971916723181,55.301219597415184 88.21498056512792,54.887878560432 88.23017800686648,53.832530781131936 87.83504452125635,52.90909090908826 88.24537544866325,53.91168231132906 88.2225792859972,54.89667307115451 88.5873178881302,55.2836306573663 88.56452172549325,55.872858201692 88.76208846832742,57.0337126628001 88.39734986619442,56.989741186844185 88.33656009918195,57.1040669778522 88.79248335183365,58.168169013864826 89.11162962866365,61.54506729142304 89.56755288134445,64.5525063311652 89.43837462645024,66.487060980362 88.75448974742903,71.0155083988866" stroke="#4DD2FF" stroke-linecap="round" stroke-linejoin="round" stroke-width="0.5"><title>2025-09-21 5.0km</title><desc>1758459157000</desc></polyline><polyline fill="none" points="101.50049543543719,56.59063849881932 101.48051948053762,57.16850570263341 102.10976205888437,57.13383375317062 102.27955767529784,57.27252148748812 102.63912486296613,57.14539107080782 105.23599899589317,57.13383375317062 105.46572247688891,57.27252148748812 107.28353437001351,57.26096418277302 107.55320976075018,57.38809447027597 108.19244031654671,57.22629226150457 111.54840073460946,57.22629226150457 113.29629678558558,57.26096418277302 113.48606835689861,57.41120905274147 114.76452946849167,57.318750694728806 121.11688311689068,57.5152246157013 120.48764053854393,62.25361051120126 120.1480493057752,62.773665235545195 113.51603228924796,62.738994994564564 113.14647712412989,68.86390695573209 113.47608037944883,63.143480481965526 119.29907122382428,63.17815059966961 120.15803728322499,63.3399443426315 120.46766458364436,62.32295127848192 120.70737604208989,60.38139381758083" stroke="#4DD2FF" stroke-linecap="round" stroke-linejoin="round" stroke-width="0.5"><title>2025-09-20 5.0km</title><desc>1758380898000</desc></polyline><polyline fill="none" points="134.57722777142772,52.90909090908826 134.45083365021856,53.06347086414462 134.45785554585746,53.615986155760766 134.56318398017902,53.68098770378856 134.49998691960354,54.477252379088895 134.07867318228818,57.247866653400706 133.87503820922575,57.979097813004046 133.91014768736204,58.539703841131995 133.4186149938323,61.87888442709664 133.29924276826205,62.04949575030332 133.34839603758883,62.43946312256594 132.8709071353078,65.89221629880922 132.90601661341498,67.200161525172 133.48883395001758,72.54545454545587 133.83992873114767,72.53733127075975 133.91716958297184,72.43985190999229 133.61522807122674,69.28795524994348 133.25008949887706,67.07018034779321 133.25008949887706,65.72973713777901 134.37359279839438,57.80035303583281 134.52807450207183,57.52411032169766 134.46487744146725,57.296615605358966 134.9213006569189,54.29037464695284" stroke="#4DD2FF" stroke-linecap="round" stroke-linejoin="round" stroke-width="0.5"><title>2025-09-18 5.2km</title><desc>1758195038000</desc></polyline><polyline fill="none" points="156.06147024725215,72.37733863907488 156.04617692882312,72.54545454545587 156.2220500910189,72.51006175004295 156.29851668325136,71.87298897254368 156.46674318623263,71.7579614464994 157.23905576803372,66.46653097148373 157.35375565645518,64.94452151489531 156.53556311925058,58.04205161436403 156.09970354338293,57.148230226033775 156.1761701356736,56.980084582581185 156.5432097784942,57.05973255945719 156.39027659397107,55.351709965580085 156.00029697347782,54.89151161693735 156.0385302695795,53.91800709116069 155.633257330599,52.90909090909554 156.06147024725215,53.953407446533674 156.0385302695795,54.90036160811724 156.39027659397107,55.325160126980336 156.55085643770872,57.06858233016828 156.1761701356736,56.99778413931199 156.12264352105558,57.13938046343537 156.48968316387618,57.78541076903639 156.62732302997028,58.44028591061942 156.87201612521312,61.21017627084075 157.34610899721156,64.32509144314099 157.35375565645518,65.70552956932079 156.96377603590372,68.54597762486083 156.80319619216607,69.51931856836745 156.61202971154125,69.69628847997228 156.41321657167282,71.51020933585096 156.23734340947703,71.95262332460698" stroke="#4DD2FF" stroke-linecap="round" stroke-linejoin="round" stroke-width="0.5"><title>2025-09-16 5.1km</title><desc>1758026219000</desc></polyline><polyline fill="none" points="179.91349208395695,52.90909090908826 179.73772648716113,52.99044451852387 179.71663461555727,53.511105661404144 179.84318584526773,53.6575409977886 179.79397147815325,54.45479535296181 179.37916466969182,57.2451230831648 179.23855219222605,57.48917044708651 179.0838784670632,59.62048581405543 178.61282666758052,62.077122468239395 178.6479797869397,62.516380683271564 178.16286673975992,66.2743802761106 178.82374538376462,72.54545454545587 179.21042969674454,72.46412079681613 178.52845918110688,65.97342143554124 178.9292047418421,63.020711218516226 179.1260622102418,62.30488628787134 179.51274652325083,58.93716950787348 179.71663461555727,57.70881243868644 179.83615522139007,57.52171003940748 179.7869408542465,57.10682924679713 180.01895144206355,55.55304090350546" stroke="#4DD2FF" stroke-linecap="round" stroke-linejoin="round" stroke-width="0.5"><title>2025-09-14 5.0km</title><desc>1757842188000</desc></polyline><polyline fill="none" points="21.445641255675582,74.72727272727207 21.565659096377203,75.78926195726672 21.085587733628927,79.00782055946911 20.880851417139638,79.73483753280743 20.937330401007785,80.03707860981376 20.577276878932025,82.74086041045666 20.31606157857459,83.88442656575353 20.35136094354675,84.31734379562113 19.86422970777494,87.9357872399487 20.104265389149077,91.07218439489952 20.52079789506388,94.36363636363967 20.937330401007785,94.27379703054612 20.217223356856266,87.97662653039879 21.953952110401588,75.99348904714134" stroke="#4DD2FF" stroke-linecap="round" stroke-linejoin="round" stroke-width="0.5"><title>2025-09-13 5.1km</title><desc>1757760467000</desc></polyline><polyline fill="none" points="44.25328647054266,74.72727272727207 44.21806038732757,76.26803287323855 43.823528255394194,78.96632988983765 43.668533489253605,79.29240193394071 43.49240307320724,81.24065478775447 43.03446399146924,83.92248197623121 43.07673529130989,84.24853388282645 42.583570126385894,87.74535730088246 42.59766055966611,88.6501049859362 43.22468484082492,94.36363636363967 43.640352622722276,94.30658456521633 43.35854395700153,91.19312494623591 42.97105704169371,88.90278044563456 42.94287617513328,87.97358290391276 44.0771560544963,79.7733557804022 44.246241253917105,79.30870550136024 44.18987952079624,79.09675886647165 44.42941688661813,77.42562155931228" stroke="#4DD2FF" stroke-linecap="round" stroke-linejoin="round" stroke-width="0.5"><title>2025-09-11 5.0km</title><desc>1757592265000</desc></polyline><polyline fill="none" points="65.71115489472868,94.28421732076094 65.86367575265467,94.20479820526089 65.88655388134066,93.63121354790928 66.06195286798174,93.5076717412303 66.16871746853576,92.88113558719488 66.40512479832978,90.64851225531311 66.87793945794692,87.99223343476478 66.93894780109986,86.15661786388955 66.13821329691564,79.77578679515864 65.70352885179454,78.95498194611719 65.77978928075754,78.81376742607972 66.1534653827257,78.84024516608042 65.98569243898964,77.17213177052327 65.61201633702149,76.68669592405786 65.6653986373276,75.8040783378965 65.26884440667345,74.72727272727207 65.65777259442257,75.68933739241038 65.61964237995562,76.73082656774932 65.98569243898964,77.13682743686513 66.14583933984977,78.86672289802664 65.77216323788161,78.81376742607972 65.70352885179454,78.92850424111384 65.96281431030366,79.27271377619036 66.17634351144079,79.92582555214176 66.50426335600787,83.43842352007778 66.93894780109986,86.28017013010685 66.87793945794692,88.09813314902567 65.96281431030366,94.31069034313987 65.7950413665676,94.36363636363967" stroke="#4DD2FF" stroke-linecap="round" stroke-linejoin="round" stroke-width="0.5"><title>2025-09-09 5.2km</title><desc>1757417515000</desc></polyline><polyline fill="none" points="89.38820662623039,74.72727272727934 89.33184495032765,75.34684121085593 89.49388476854074,75.3876021275646 89.3952518357255,76.39031415790669 89.02185573292081,78.87665984702471 88.83868028628058,79.37391973966442 88.60618837323273,81.89277907036012 88.19756622301065,83.97138984905177 88.23279227042804,84.40340807683242 87.76076323483721,87.74535730302159 87.74667281587608,88.7397641130301 88.02143598586554,91.29093179869233 88.39483208864112,94.31473482462752 88.80345423883409,94.36363636363967 88.78936381987296,94.04577582774073 89.00776531395968,93.84201841206959 89.00776531395968,93.72791403339943 88.66959525860148,93.483404104496 88.12711412811768,87.95728109877382 89.19798597009503,80.22985168195737 89.43047788317199,79.42283038231835 89.36002578830812,79.11306247532775 89.65592458672472,76.96910970668978" stroke="#4DD2FF" stroke-linecap="round" stroke-linejoin="round" stroke-width="0.5"><title>2025-09-07 5.0km</title><desc>1757247375000</desc></polyline><polyline fill="none" points="110.78124434693018,94.30107867245533 110.95887882294483,94.36363636363967 111.00521825143369,93.73805744967831 111.2291921559372,93.39845560434333 111.97062301216647,88.4383318293767 112.10964129774948,86.54358006862458 111.26780834633973,79.65241686195077 110.81986053742003,78.80327376788046 110.8970929182251,78.6870746011773 111.26780834633973,78.74964340232691 111.10562034655595,77.0066387096158 110.74262815652764,76.53289299891185 110.78124434693018,75.63902621348825 110.48776129967882,74.72727272727207 110.78124434693018,75.54963903495809 110.75035139461397,76.52395437604719 111.11334358464228,76.95300724788831 111.29097806059872,78.73176660653553 110.88164644208155,78.66025938704115 110.8430302516499,78.78539698299574 111.12879006078583,79.21443881667074 111.3141477748868,79.8669359247142 111.5921843459364,82.89696176983125 112.10191805966315,86.3648277948887 112.10191805966315,87.42839847225696 111.56901463170652,91.2356972940106 111.18285272741923,93.66656243330362 111.00521825143369,93.91679473629483" stroke="#4DD2FF" stroke-linecap="round" stroke-linejoin="round" stroke-width="0.5"><title>2025-09-04 5.0km</title><desc>1756985562000</desc></polyline><polyline fill="none" points="134.4764619617199,74.77641054882406 134.56139241027995,74.72727272727207 134.61093517200788,74.84192759759753 134.58262502247817,75.33330376590311 134.66047793370672,75.33330376590311 134.60385763464728,76.21777331975318 134.22167061583605,78.70733921588544 133.9668792699813,79.70641969884309 134.0022669569007,80.09949715033144 133.39359874176444,83.85001477829792 133.42898642874206,84.19393997573934 132.94771388650406,87.58398127969122 132.9901791108132,89.24619583368622 133.57053717641975,94.35544871815364 133.90318143350305,94.36363636363967 133.9739568073419,94.26538456282287 133.6413125502586,91.36690259062743 133.72624299887684,91.17857953647763 133.4997618025518,90.11413661484403 133.29451321836677,87.87057244046446 133.68377777456772,84.81627707998268 133.88902635875274,84.03835494910163 134.27121337753488,80.63997551654757 134.4835394990805,79.40342118847911 134.60385763464728,79.23963773568539 134.53308226077934,79.01852954657807 134.84449390572263,76.70095166187093" stroke="#4DD2FF" stroke-linecap="round" stroke-linejoin="round" stroke-width="0.5"><title>2025-09-02 5.1km</title><desc>1756811867000</desc></polyline><polyline fill="none" points="157.0635125793051,74.72727272727207 157.03501227500965,76.1700724056791 156.657383243175,78.80002410329325 156.42225573275937,79.69864009901357 156.4293808088405,80.39938878676185 155.85224964699592,83.9112851805694 155.40336985440808,87.87641278938099 155.43187015867443,89.07992672022374 155.99475116844405,93.68773636914557 156.55050710207433,94.36363636363967 156.42225573275937,94.2976951484452 156.32250466776895,93.51463912412873 156.10875238556764,91.47041517438629 156.16575299415854,91.26434135587624 155.78812396232388,88.84911721219396 155.7738738101616,87.68681650223152 156.92101105785696,79.5749779377802 157.07776273146737,79.24521125316824 157.1632636442955,77.81895491094474 157.5836431325879,75.54348826828209" stroke="#4DD2FF" stroke-linecap="round" stroke-linejoin="round" stroke-width="0.5"><title>2025-08-31 5.1km</title><desc>1756640573000</desc></polyline><polyline fill="none" points="179.72276720943046,74.72727272727934 179.78630601460463,76.31208227200113 179.34859424538445,79.04866438526369 179.20033703322406,79.29372689637967 179.1297383607598,79.7838496780023 179.06619955555652,81.03364924954076 178.6708469898149,83.73739754436247 178.56494898110395,83.91709964745678 178.6073081845825,84.3091755695059 178.12723721188377,87.67441529181815 178.15547668086947,89.06294404633809 178.71320619329344,93.90627144159225 179.2497561039345,94.36363636363967 179.13679822802078,94.18395759720443 178.86146340545383,91.05584931093472 178.51552991042263,88.97309879343084 178.51552991042263,87.42937831748714 179.05913968832465,84.12947434248781 179.46155212132726,80.68240035205963 179.78630601460463,79.33457057560736 179.7368869438942,79.02415809307422 180.0545809699397,76.6551812556354" stroke="#4DD2FF" stroke-linecap="round" stroke-linejoin="round" stroke-width="0.5"><title>2025-08-30 5.0km</title><desc>1756550382000</desc></polyline><polyline fill="none" points="20.51218022732064,116.17298590728024 20.77933164773276,116.1818181818162 21.634216193138855,110.23749445854628 21.756342556735035,108.25007414229913 21.252571306802565,104.69910335030727 21.038850170443766,102.01369573360716 20.909090909117367,101.42183486580325 20.519813125021756,100.81230229494395 20.573243409133283,100.67096079813928 20.970154090900905,100.73279773128161 20.77933164773276,98.93950879927434 20.42821835228824,98.57731294517725 20.451117045508,97.50838466826099 20.061839261412388,96.54545454545587 20.458749943209114,97.5525555187487 20.412952556856908,98.53314261574997 20.77933164773276,98.96601087566523 20.95488829544047,100.7151300405967 20.573243409133283,100.6797946484221 20.519813125021756,100.79463462042622 20.840394829545403,101.29816193637816 21.046483068173984,102.1462013456694 21.267837102263,104.92877251730533 21.756342556735035,108.12641093161801 21.66474778408883,109.99900642044668 20.88619221589761,115.34274809448834" stroke="#4DD2FF" stroke-linecap="round" stroke-linejoin="round" stroke-width="0.5"><title>2025-08-28 5.0km</title><desc>1756381580000</desc></polyline><polyline fill="none" points="44.17088678761502,96.54545454545587 44.33259097248083,97.38339276384067 44.304468505550176,98.14810542593477 43.86857026818325,100.88148672121315 43.71389670006465,101.166208573537 43.69280484985211,102.0610420901794 43.074110577465035,105.70535167290654 43.12332489460823,106.16901309856621 42.652273573563434,109.23561845224322 42.61712048991467,110.48012241150718 42.72961035760818,110.61026549969392 42.6874266572122,111.13896962114086 43.221753528836416,115.7507483734953 43.81232533429284,116.1818181818162 43.62249868255458,116.0110172144341 42.968651326489635,110.62653337084339 42.940528859588085,109.57724891545513 43.425641414069105,106.15274432205479 43.545161898538936,105.98192196914897 43.65765176623245,104.55025364077301 44.14979493746068,101.73564924107632 44.114641853782814,101.35331095383299 44.248223571659764,101.17434346873051 44.19197863782756,100.9302962535221 44.39586652306025,99.53107786240435" stroke="#4DD2FF" stroke-linecap="round" stroke-linejoin="round" stroke-width="0.5"><title>2025-08-26 5.0km</title><desc>1756206850000</desc></polyline><polyline fill="none" points="66.72163473887485,96.54545454544859 66.73575447907206,97.21532630881848 66.84871240094071,97.23983370652422 66.78517356989323,98.07308078357892 66.38982084352756,100.78515853307908 66.25568331134855,101.08740249636321 66.09330629874603,102.92534808380879 65.60617526088026,105.69444011284213 65.52851668963558,106.97684866068448 65.16846331383567,109.38641451187868 65.23200214488315,111.207835028501 65.77561214362504,116.06747719502891 65.7967917539645,116.1818181818162 66.22038396081189,116.1328149216497 65.9168095459172,112.9638740553055 65.54263642986189,110.8076161188219 65.50733707929612,109.71312974778994 65.95916876659612,106.37240386733902 66.12154577922774,105.90681491575378 66.66515577794053,101.45499497464334 66.82753279057215,101.12824618803279 66.77105382966693,100.86684620276355 67.03932889396674,98.83279853354179" stroke="#4DD2FF" stroke-linecap="round" stroke-linejoin="round" stroke-width="0.5"><title>2025-08-24 5.0km</title><desc>1756042259000</desc></polyline><polyline fill="none" points="88.4509656293958,116.1818181818162 88.67000706732506,115.86499098421336 89.42882919160184,110.69602239916276 89.56964154460002,108.42375390271627 89.15502739418298,105.80740482351393 88.74041324379505,101.81483472132822 88.28668455095612,100.89135764109233 88.39620526993531,100.76460513743223 88.73259033530485,100.8008201568955 88.56048634834588,99.02626688061719 88.18498674046714,98.60073099042347 88.24757000841782,97.68627464261226 87.8251329495397,96.54545454544859 88.22410128297633,97.51424715125177 88.20063255744753,98.60978496669122 88.57613216535538,99.0534286768816 88.75605906080455,100.8098739094421 88.66218415886397,100.90041138443485 88.33362200189731,100.78271264900104 88.33362200189731,100.9094651268606 88.63871543336427,101.46174167452409 88.81081942029414,102.13171190449793 89.014215041243,104.59426186595374 89.57746445306111,108.5142836369123 89.45229791710153,110.57833660969482 88.59177798236487,116.1094006360072" stroke="#4DD2FF" stroke-linecap="round" stroke-linejoin="round" stroke-width="0.5"><title>2025-08-23 5.0km</title><desc>1755956696000</desc></polyline><polyline fill="none" points="111.99194136937149,96.54545454545587 111.99905152391875,97.08845948099042 112.09148353335331,97.18718725987128 112.05593276052969,98.0099140689781 111.62932348623872,100.65903760200308 111.47290008567506,100.99634214258549 111.1102822025714,104.37753686159704 110.92541818373138,105.49634393435554 110.80454555602046,105.61151437330409 110.86142679263139,106.01460962009878 110.34949566351133,109.88915753903711 111.00362988401321,116.05021198279428 111.0249603477132,116.14891665209143 111.40890869454597,116.1818181818162 110.70500339200953,109.72463697886269 111.76441642310238,102.02470097331388 111.89950935993693,101.18556114776584 112.02749214222422,101.02924982739933 111.97061090564239,100.71662628155173 112.24790693388786,98.57759069337044" stroke="#4DD2FF" stroke-linecap="round" stroke-linejoin="round" stroke-width="0.5"><title>2025-08-21 5.0km</title><desc>1755781186000</desc></polyline><polyline fill="none" points="134.44347171485424,96.54545454544859 134.4646601465647,98.06554397585569 134.04089151267544,100.79509482470894 133.89257249081857,101.08112024084403 133.82900719574536,101.56327506878733 133.90669811193948,101.8002653655567 133.24985672946787,105.67373194798711 133.2922335928597,106.08231459592935 132.8260880955786,109.43261404932855 132.85433933784952,110.84623514234409 133.44761542527704,116.1818181818162 133.8572584380163,116.10828268784098 133.57474601542344,113.01156034155429 133.20747986607603,110.8053793898871 133.18629143436556,109.24467411466321 133.6453741210571,106.1231727465929 133.76544190067216,105.94339672843489 134.25277582963463,101.8819859956784 134.48584857827518,101.09746451961837 134.49291138880653,100.19852425540012 134.9661196966481,97.19108743687684" stroke="#4DD2FF" stroke-linecap="round" stroke-linejoin="round" stroke-width="0.5"><title>2025-08-19 5.3km</title><desc>1755607955000</desc></polyline><polyline fill="none" points="156.280742352159,116.08509824939392 156.6226847221551,116.1818181818162 156.6226847221551,115.5311547357851 156.75186295079766,115.24099243240926 156.91143605680554,113.23620811403816 157.37495793608832,110.20256456804054 157.32936562009854,108.21525054955418 156.8126527054701,104.88244004629814 156.57709240616532,102.13871075392672 156.432716738811,101.41758797044167 156.06037949156598,100.79319631323597 156.14396540418966,100.64369341656857 156.5087039321661,100.72284204111202 156.34913082615822,99.07829462559312 155.95399742087466,98.5418312174952 155.98439229821088,97.50407288438873 155.61205505090766,96.54545454545587 156.0147871755762,97.54804594776942 155.96919485952822,98.53303670767491 156.32633466817788,98.9199942939158 156.5087039321661,100.71404775307019 156.1287679655361,100.66128200606181 156.0907743688731,100.77560775056918 156.53150009017554,101.78694429357711 156.75946167012444,104.43395178560604 157.32176690077176,108.32077279556688 157.31416818141588,109.22650011325459 156.75186295079766,113.12189883645624 156.584691125463,113.20103604470933 156.47830905482988,113.46482621612813 156.280742352159,114.75738643117802" stroke="#4DD2FF" stroke-linecap="round" stroke-linejoin="round" stroke-width="0.5"><title>2025-08-17 5.0km</title><desc>1755429603000</desc></polyline><polyline fill="none" points="178.8084918462555,116.13765680020879 178.70926416575094,116.1818181818162 178.82375764328754,116.06699854295584 178.95351691785618,114.12387395912083 179.06037749687675,113.4437700916751 179.41149082803167,113.15229537648702 179.40385792948655,112.48101655677601 179.87709763666498,109.81351527148945 179.94579372319276,108.61222967521462 179.1138077863725,101.64267894459772 178.67873257171595,100.7946346202807 178.76269445527578,100.69746234614286 179.12907358337543,100.72396388623747 178.96878271483,99.01018098487111 178.60240358670126,98.55081075013732 178.62530228222022,97.55255551871232 178.2360244586016,96.54545454545587 178.64820097773918,97.57022385262826 178.59477068818524,98.50664040724223 178.961149816314,98.9395087991943 179.14433938040747,100.71513004043663 178.75506155675976,100.67096079798648 178.70163126723492,100.8034684579834 179.1596051773813,101.74868390306801 179.94579372319276,108.19707564476266 179.93816082464764,109.24820647125307 179.4267566250055,113.01097395056422 179.04511169987381,115.44873634191026 178.8848208313284,115.5723891339585 178.83139054180356,115.94334645457275" stroke="#4DD2FF" stroke-linecap="round" stroke-linejoin="round" stroke-width="0.5"><title>2025-08-16 5.1km</title><desc>1755350047000</desc></polyline><polyline fill="none" points="20.794545910175657,137.9469824871412 20.519637912715552,138.0 20.649455578182824,137.86745615726977 21.015999574796297,135.12817150763294 21.22218057286227,135.0221329475753 21.176362573285587,134.73052624068805 21.726178568205796,131.48744027711655 21.7643602345197,130.0823600253134 20.939636242139386,123.4808299363358 20.527274245978333,122.6500797908302 20.61127391186892,122.49099906990159 20.94727257543127,122.54402600922913 20.779273243650096,120.80295792689867 20.420365580299404,120.39640908769798 20.47381991313887,119.52143883055396 20.04618525042315,118.36363636363967 20.443274580087746,119.29164720144036 20.43563824685407,120.35221888188244 20.779273243650096,120.76760592942446 20.977817908482393,122.53518818824523 20.580728578817798,122.49983689537476 20.54254691247479,122.62356635756441 20.87090924277436,123.15383348624164 21.008363241533516,123.68409737983893 21.252725905942498,126.52095426262531 21.733814901468577,129.7200400510992 21.77199656778248,131.00140879673563 21.19163523981115,134.72168965853052 21.237453239387833,134.98678673217364 20.993090575007955,136.347605653762 20.794545910175657,136.79826177129144" stroke="#4DD2FF" stroke-linecap="round" stroke-linejoin="round" stroke-width="0.5"><title>2025-08-14 4.9km</title><desc>1755170321000</desc></polyline><polyline fill="none" points="44.308595712907845,118.38006358767598 44.138237722130725,118.36363636363967 44.187925469479524,119.8502866210838 43.77622699181666,122.64281540213415 43.62716374991578,122.93848927271756 43.62716374991578,123.71052150341711 43.20836702268571,126.65895973635634 43.07350028003566,127.4638072027883 42.96702653579996,127.52950868311746 43.03091078234138,127.94014172558673 42.54113155894447,131.31546631884703 42.58372105663875,132.75260556097783 43.17997402421315,137.93430702521437 43.584574252250604,138.0 42.888945790036814,131.4961366556454 44.045960477145854,123.29986697932327 44.20922021829756,122.96312871309783 44.138237722130725,122.67566810783319 44.47185545403045,120.34309282734466" stroke="#4DD2FF" stroke-linecap="round" stroke-linejoin="round" stroke-width="0.5"><title>2025-08-12 5.0km</title><desc>1754999139000</desc></polyline><polyline fill="none" points="66.63338050348102,118.42942777861754 66.72577375441324,118.36363636363967 66.73288092759321,119.7534686369836 66.29223619232653,122.58240261507308 66.14298555621644,122.86200118596753 65.99373492007726,124.76160120120767 65.52466149223619,127.51635320042988 65.04848089124425,131.48796497927833 65.09112393014948,132.7049001980995 65.58862605059403,136.82425463577238 66.1074496904912,138.0 65.41094672185136,131.53730054653715 66.46280834791833,123.94749236726057 66.71866658126237,122.8948950719714 66.65470202293363,122.66463758910686 66.953203295212,120.44426396481867 67.15931131652906,119.60544029967423" stroke="#4DD2FF" stroke-linecap="round" stroke-linejoin="round" stroke-width="0.5"><title>2025-08-10 5.0km</title><desc>1754830447000</desc></polyline><polyline fill="none" points="88.42206993186846,138.0 89.48543428682024,131.67045650671207 89.55428521629074,130.1831683630735 88.98817757409415,126.26120938023814 88.72042395948665,123.40152071518241 88.29201817617286,122.64010170925758 88.35321900239796,122.48073409792414 88.74337426931015,122.5604179400616 88.57507199732936,120.80735656731122 88.20786704018246,120.37351269829378 88.23081734997686,119.38186145102372 87.84066208306467,118.36363636363967 88.24611755658407,119.41727776147309 88.21551714345696,120.38236667642195 88.57507199732936,120.8162105013107 88.75867447585915,122.53385666745453 88.36851920891786,122.51614914787206 88.32261858927086,122.61354046096676 88.75867447585915,123.5520329863648 89.11057922642794,127.0314500256136 89.52368480319274,129.5634574738724 89.56193531953613,130.9710801264373 88.67452333983965,137.25641313759115 88.42972003508476,137.5131283669616" stroke="#4DD2FF" stroke-linecap="round" stroke-linejoin="round" stroke-width="0.5"><title>2025-08-09 5.0km</title><desc>1754735080000</desc></polyline><polyline fill="none" points="111.88834941922687,118.3636363636324 111.9309745845676,119.74466659722384 111.65391100986744,121.91480933663843 111.29870129868505,123.41085869400558 111.22055516226101,124.7671432719435 110.74457414925564,127.54540070320218 110.77299092619796,127.9728164577682 110.2899057190225,131.22767777222907 110.27569733056589,132.34547873520933 110.88665803376352,137.5397630348234 111.36263904668158,138.0 110.6664280128316,132.64136464147305 110.70194898394402,130.89069062992348 111.71784875786398,123.90405571629526 111.84572425388615,123.1067190317699 111.96649555568001,122.95053876097518 111.90966200191178,122.61351714946795 112.3217052668333,119.82687003440515" stroke="#4DD2FF" stroke-linecap="round" stroke-linejoin="round" stroke-width="0.5"><title>2025-08-07 5.0km</title><desc>1754570205000</desc></polyline><polyline fill="none" points="134.2364189774089,118.36363636363967 134.28033060079906,118.92256189510226 134.42670267878566,118.98184165587008 134.3754724515311,119.37986181466113 134.77067706210073,119.43914125017182 134.81458868546179,119.80328542889038 134.41206547099864,121.81875234434847 134.29496780861518,122.89421264817793 134.3754724515311,123.18212880009378 134.25105618522502,123.30068222062982 134.0168608604581,124.68097035041137 132.9849377106293,132.18324110718822 133.62165624988847,138.0 132.9776191067358,132.04776590490656 133.43137254851172,128.6184765407088 133.59970043817884,128.15275969939103 134.002223652642,124.68097035041137 134.20714456183487,123.40229930404894 134.33887943200534,123.17366069215495 134.28764920472167,122.84340381227958 134.69017241918482,119.87950145102513" stroke="#4DD2FF" stroke-linecap="round" stroke-linejoin="round" stroke-width="0.5"><title>2025-08-05 5.0km</title><desc>1754406000000</desc></polyline><polyline fill="none" points="156.1961619783251,138.0 156.5359842813632,135.18485984429572 156.7445116036979,135.02399197068007 157.06888743845047,132.8433095404107 157.30830769741442,131.09157464955206 157.32375416575815,130.00119143232587 156.75995807204163,126.13111559839308 156.5437075155496,123.55692924583127 156.35062666150043,122.88655584544176 156.0571437634353,122.46645257547789 156.1266528708802,122.33237664112676 156.50509134473396,122.36813024363073 156.3274569590576,120.60724804225174 155.96446495351847,120.22288835373183 155.99535789017682,119.13237032075267 155.66325882126694,118.36363636363967 156.00308112430503,119.2485737060124 155.96446495351847,120.13350213875674 156.34290342737222,120.59830946392321 156.51281457889127,122.35919184436352 156.41241253481712,122.44857579602103 156.0416972951498,122.37706864196662 156.5359842813632,123.4228549747495 156.85263688192936,126.8104022051557 157.32375416575815,130.028004296546 157.31603093157173,131.13626219787693 156.41241253481712,137.3207998293583 156.36607312987326,137.472726638749 156.16526904169586,137.48166350170504 156.08803670006455,137.82126362152485 155.87178614357254,137.8033899637012" stroke="#4DD2FF" stroke-linecap="round" stroke-linejoin="round" stroke-width="0.5"><title>2025-08-03 5.0km</title><desc>1754221111000</desc></polyline><polyline fill="none" points="188.9090909090737,127.11941729258433 188.8487177695206,127.36974694663695 188.69275382571504,127.38430092900126 185.62881699389254,127.32317415337275 185.54580392703065,127.27077967045079 185.42505764793896,127.32026335127557 185.035147788396,127.317352548891 185.00244567113987,127.2853337030956 184.30563901893038,127.32608495516797 183.96352456150635,127.27369047757202 182.85919921737514,127.27077967045079 182.38124519598205,127.19509858149286 182.05673957093677,127.1106848233012 182.03661519108573,127.07866574651416 181.5863321920042,127.06411160886273 180.59772203197645,126.88946138031679 179.14373558800435,126.87781799388358 176.10998532595113,127.25622563040997 175.69995108655712,127.44542757420459 175.25973027737928,127.57932357934078 174.0774229613453,128.2982762096708 173.45105163857806,128.61554106596304 173.06617287399422,128.72614633676312 172.8397736007173,128.72905699601688 172.55300118788728,128.65920109229592 172.2486199426785,128.78435946567697 172.145482495951,128.5806129970133 172.02222066940158,128.66211175834906 171.92159877016093,128.4729178496691 170.2085109356267,129.48581836975245 170.07770246661676,129.1569206899767 169.5494374956179,128.14691926053456 169.49912654599757,128.11199062025116 169.27272727272066,128.22259783505615 169.42114457408024,128.1090798983114 169.49409545103845,128.10034773070038 169.51673537836177,128.02757956377172 169.60729508768418,128.03340102392394 169.72804136677587,127.95190047409596 169.76325903150428,127.99265077799646 169.85381874081213,127.93443604040112 169.82363217104285,127.98974004392403" stroke="#4DD2FF" stroke-linecap="round" stroke-linejoin="round" stroke-width="0.5"><title>2025-08-02 8.3km</title><desc>1754134728000</desc></polyline><polyline fill="none" points="21.433959495596355,140.18181818182347 21.328281256719492,140.2062749231991 21.264874313375913,140.8666041219185 21.793265507847536,140.8666041219185 21.793265507847536,141.39649399285554 20.03196152622695,153.05318595386052 20.039006742154015,154.2839685907893 20.771709198510507,159.8181818181838 20.074232821789337,154.43883394350996 20.024916310299886,153.24065737522324 21.06760826741811,145.79036902576627 21.328281256719492,144.77955452018068 21.257829097448848,144.55130432119768 21.588954245962668,142.14648598204076" stroke="#4DD2FF" stroke-linecap="round" stroke-linejoin="round" stroke-width="0.5"><title>2025-07-31 5.0km</title><desc>1753965181000</desc></polyline><polyline fill="none" points="43.11770865562721,159.8181818181838 43.2023944647226,159.10550508318556 43.41795834247023,158.84715833600785 44.20322675417992,153.43951890712196 44.28791256327531,151.44386423379183 43.88757964747492,149.02050818218413 43.46415060196887,145.02004220275558 43.056118976237485,144.23596510481002 43.14080478536198,144.12013493873383 43.47954802180175,144.1646850207253 43.33327253331663,142.3915742681129 42.940638327476336,141.9638838912142 42.98683058700408,140.97484189851093 42.67888219023007,140.1818181818162 42.99452929690597,140.99266257374256 42.9637344572111,141.9817043652656 43.33327253331663,142.4450354184155 43.51034286146751,144.1468649906601 43.41025963251013,144.23596510481002 43.10231123576523,144.1112249196085 43.07151639609947,144.24487511125335 43.53343899123138,145.2695198080546 43.80289383837953,148.2631956738478 44.33410482277395,152.08532961988385 43.77979770861566,156.70017832829762 43.371766082942486,159.25694937411026 43.22549059445737,159.31930871200166" stroke="#4DD2FF" stroke-linecap="round" stroke-linejoin="round" stroke-width="0.5"><title>2025-07-29 5.0km</title><desc>1753797916000</desc></polyline><polyline fill="none" points="66.94612211175263,140.18181818182347 66.9319670528348,141.68050826260878 66.60640069682267,143.97353204624233 66.35160963560338,144.73512908650446 66.18174892815296,146.8315310877224 65.70755445311079,149.33731507939228 65.7641746889276,149.7795041698846 65.29705774335889,152.88294825141202 65.32536786131095,154.52878964951378 65.90572527848417,159.8181818181838 65.36075550867827,155.22478212446003 65.26167009602068,153.48069552944798 65.71463198261335,149.46833432198036 66.34453210612992,145.46396252693376 66.28083434083965,145.25923469797272 66.58516810843139,144.01447830670077 66.9319670528348,141.2464642752966" stroke="#4DD2FF" stroke-linecap="round" stroke-linejoin="round" stroke-width="0.5"><title>2025-07-27 5.0km</title><desc>1753616848000</desc></polyline><polyline fill="none" points="89.26215195193072,140.1818181818162 89.28305331530282,141.9070464507313 88.8998616533936,144.63186328607117 88.74658498860663,144.92207495017647 88.53060423370334,147.29209714786703 88.14044545064098,149.45246388043597 88.16831393513712,149.8635717850484 87.65971409296617,153.2168430153106 88.29372211542795,159.8181818181838 88.71174938298645,159.75370253086294 88.41216317456565,156.52161115403578 88.07077423937153,154.256650751704 88.05683999715257,153.04757069929474 89.01830271250219,146.2683207328446 89.3387902843242,144.9140135294001 89.26911907308386,144.5996174800821 89.74288330963464,141.72968826525903" stroke="#4DD2FF" stroke-linecap="round" stroke-linejoin="round" stroke-width="0.5"><title>2025-07-26 5.2km</title><desc>1753529066000</desc></polyline><polyline fill="none" points="111.9764488984656,140.18181818182347 111.89173044849304,140.6066155572771 112.0046883817995,141.15394732809364 111.8705508359999,142.44465525767737 111.574036261125,144.4541972471343 111.41871910283226,144.7401036117226 111.39753949033911,145.59781660610315 110.76921098641469,149.36347683210624 110.81863008218352,149.72287987014715 110.35267860739259,153.1452965170247 110.41621744484291,154.9667142594044 110.97394724047626,159.8181818181838 111.37635987784597,159.77734577013325 111.05866569047794,156.81259330129978 111.12926439876901,156.6574104108513 110.7268517614284,154.3541344199548 110.71979189055855,153.2596468263655 112.24472399003571,142.58352766104508" stroke="#4DD2FF" stroke-linecap="round" stroke-linejoin="round" stroke-width="0.5"><title>2025-07-24 5.0km</title><desc>1753356656000</desc></polyline><polyline fill="none" points="133.55169395176927,159.78275709061563 133.65119015792152,159.8181818181838 133.987946547888,157.01958397674025 134.2098996231216,156.87788042981265 134.15632474291488,156.60332915194158 134.73034131672466,153.05179756018333 134.7686090883508,151.98010997210076 134.1945925144828,148.19809884697315 133.95733233063947,145.3991277599489 133.49811907159165,144.43363902463898 133.56700106043718,144.291915006841 133.94202522197156,144.3627770445528 133.74303280972526,142.5823508760368 133.4139299740491,142.22803286898124 133.4445441913267,141.27136705066368 133.0235987038468,140.1818181818162 133.4062764197297,141.05877321968728 133.3986228654103,142.19260098902305 133.75068636404467,142.56463500990503 133.94967877632007,144.309630521675 133.85018257019692,144.40706578885874 133.58230816904688,144.30077276471275 133.49811907159165,144.40706578885874 133.76599347268348,144.78794806032238 133.95733233063947,145.4257006931075 134.30174227492535,148.95097129204805 134.74564842536347,151.829541238425 134.73799487107317,153.00751321017015 133.90375745040365,158.80857144015317" stroke="#4DD2FF" stroke-linecap="round" stroke-linejoin="round" stroke-width="0.5"><title>2025-07-22 5.0km</title><desc>1753184035000</desc></polyline><polyline fill="none" points="146.6753246752778,153.23860314654303 146.6753246752778,150.08763795541017 148.76301202655304,141.26478210883215 165.6460488664452,144.34580506253405 166.31168831163086,145.08104510433623 164.04246293008327,158.70020788372494 148.88403738022316,156.3195190265542 148.3394232885912,155.61931329104118 150.21531627082732,142.0000287258299 150.88095571601298,141.579887993983 154.9050487264758,142.24511058285134 166.28143197332975,144.76594242147985 164.28451363742352,158.42012769548455 163.64913053053897,158.73521789119695 148.58147399593145,156.1794779933116 148.76301202655304,151.69813487568172 150.24557260924485,142.07005213137018 150.72967402392533,141.6499114848848 158.1727332760347,142.91033188733854 150.5783923319541,141.71993496155483 149.73121485614683,145.57120426060283 150.4876233165851,146.30644168730942" stroke="#4DD2FF" stroke-linecap="round" stroke-linejoin="round" stroke-width="0.5"><title>2025-07-20 4.9km</title><desc>1753020627000</desc></polyline><polyline fill="none" points="180.21954956973786,140.18181818182347 180.0714155069145,141.1857885859572 179.52120327347075,142.5978558059578 179.05563907595933,144.71999107555894 178.92866702206084,146.3931735942242 178.49131883651717,149.19261569580704 178.39256279464462,149.28239210837637 178.44194081559544,149.68230400022003 177.9834306210396,152.98762200633792 177.9622686120856,154.08120346599753 178.59007487841882,159.8100214001024 178.519534848514,158.68387575823726 178.59712888143258,159.8181818181838 178.99920705202385,159.73657760001515 178.3220227647107,153.34671009662998 179.40128522261512,145.46272517723264 179.62701331835706,144.7526388726401 179.6552293303248,143.79768532628077" stroke="#4DD2FF" stroke-linecap="round" stroke-linejoin="round" stroke-width="0.5"><title>2025-07-20 5.0km</title><desc>1752942252000</desc></polyline><polyline fill="none" points="21.755795622681035,162.00878684191412 21.634295394760557,162.0 21.444451288552955,162.96654725762346 21.657076687493827,163.09834831939952 21.641889158985578,163.37952324656362 21.376107410353143,165.17199191819964 21.231825889641186,165.47951957437908 20.85973144150921,168.98525757402967 20.548387107352028,170.41738535251352 20.578762164368527,170.83911171302316 20.03960490276222,174.87176621252001 20.76860627051792,181.63636363636033 20.09276125251199,175.99630737002735 20.077573724032845,174.2919189667591 20.578762164368527,170.8918273635354 20.55598087157705,170.42617133932072 21.1103256616625,167.08743208640954 21.224232125357958,165.47073308509425 21.376107410353143,165.1544188762491 21.77857691544341,162.28117849819682" stroke="#4DD2FF" stroke-linecap="round" stroke-linejoin="round" stroke-width="0.5"><title>2025-07-17 5.0km</title><desc>1752765839000</desc></polyline><polyline fill="none" points="51.9315549316816,181.22200390596117 52.373815373983234,180.6078989355301 53.32467532472219,172.59880947700003 39.10600210609846,171.95909485967422 36.54089154105168,172.16380371409468 36.85047385049984,171.95909485967422 36.386100386152975,169.06756451298133 33.75465075473767,164.92212679384102 33.68831168836914,162.5934867776523 33.997893997933716,162.41435973042098 46.35907335917,162.61907634537783 45.47455247468315,170.67966074909782 44.92172692180611,171.03790295537328 37.204282204271294,170.78201571719546 36.36398736399133,168.09518401479 34.19691119692288,165.33155577916477 33.93155493156519,163.87296197995602 37.005265005282126,163.64265692341723 45.961038961075246,163.94973028535605 46.0937170938123,165.8689303119172 45.297648297739215,172.11262651610014 44.10354510357138,172.18939230915566" stroke="#4DD2FF" stroke-linecap="round" stroke-linejoin="round" stroke-width="0.5"><title>2025-07-15 4.1km</title><desc>1752589649000</desc></polyline><polyline fill="none" points="66.89302359963767,161.99999999999272 66.9528626514657,163.39347423296567 66.48910999993677,166.30152094725054 66.32455260743154,166.6390556539045 66.31707272597123,167.49586851865024 65.65884315606672,171.51152307588927 65.68876268199529,171.96154153473617 65.18761062304839,175.69141074043728 65.78600114115397,181.63636363636033 65.44192659325199,179.28266186005203 65.18013074158807,175.5010269390259 66.3021129630506,167.43528607395274 66.23479402973317,167.1583372066525 66.45919047400821,166.3621041981969 66.90050348115619,163.48002467564947 66.84814431078848,163.17709774151444 67.02766146624344,162.25965531190013 66.86310407376732,162.05193112570123" stroke="#4DD2FF" stroke-linecap="round" stroke-linejoin="round" stroke-width="0.5"><title>2025-07-13 5.0km</title><desc>1752418082000</desc></polyline><polyline fill="none" points="88.5307665168657,181.63636363636033 88.42999749880983,181.62739416160184 88.4920092022221,180.91880277700693 88.83307357112062,178.76608519825822 89.03461160729057,178.58668969672 89.38342743905378,176.14687467394106 89.56946254931972,173.6262596418601 89.05786599603016,170.1188071873621 88.79431625647703,167.1853575356945 88.63928699787357,166.61121530464152 88.31372555484995,166.0908956804269 88.38348872124334,165.95632976096385 88.75555894180434,166.01015615339566 88.59277822030708,164.30563778064243 88.22070799971698,163.83913227539597 88.24396238851477,162.77154308658646 87.98041264896165,162.03588587456034 87.81763192740618,162.03588587456034 87.95715826013475,161.99999999999272 88.22070799971698,162.654914913408 88.21295653679408,163.84810355839 88.55402090563439,164.16209788792912 88.59277822030708,164.34152271732455 88.75555894180434,165.98324296127976 88.37573725832044,165.96530082864774 88.29047116608126,166.06398251299106 88.63153553497978,166.55738927893253 88.78656479355413,167.10461901021336 89.10437477362575,170.59425008726248 89.58496547519462,173.56346760099404 89.57721401227172,174.711657858752 88.63153553497978,181.16994974132103" stroke="#4DD2FF" stroke-linecap="round" stroke-linejoin="round" stroke-width="0.5"><title>2025-07-12 5.1km</title><desc>1752325602000</desc></polyline><polyline fill="none" points="111.18039131182013,181.63636363636033 110.98956875223666,181.62753136183892 111.41701128566638,178.68633403154672 111.59256804044708,178.59800824803824 112.08107379291323,175.32105823651364 112.15740281675244,173.66928726759215 111.70706157619134,170.7101538153438 111.36358096895856,167.11489190032444 110.90560682601063,166.18734318493807 110.96667004504707,166.09017084166408 111.348315164214,166.15200779995212 111.1727584094042,164.35871813884296 110.82927780217142,163.97885400122323 110.81401199742686,162.78624649600533 110.43236687828903,161.99999999999272 110.83691070455825,162.88342253505107 110.82927780217142,163.97001993176673 111.18039131182013,164.36755216879828 111.37121387134539,166.1255062517739 111.00483455698122,166.08133698687743 110.92087263081339,166.22267855551763 111.37884677373222,167.18556187264767 111.71469447854906,170.6924870443545 112.16503571911016,173.60745565911202 112.08870669530006,175.27689364588878 111.35594806657173,180.15252892537683" stroke="#4DD2FF" stroke-linecap="round" stroke-linejoin="round" stroke-width="0.5"><title>2025-07-10 5.0km</title><desc>1752149320000</desc></polyline><polyline fill="none" points="131.14232131111203,162.0 131.18831350456458,163.224032832004 131.52175690734293,163.05107236516778 132.2346359064104,163.2905560276413 133.0050051472499,163.224032832004 133.86735877516912,163.5433438628388 138.31710349494824,164.12874539702898 138.4435820269864,164.30170444036776 137.42025572195416,170.83406721212668 136.92583964194637,170.87397881411016 136.83385525498306,171.04692894872278 136.66138452943414,172.20435858612473 136.7878630614723,172.70989935606485 136.00599577225512,177.1133430115442 130.27996768325102,176.94040088757174 130.0845008608885,176.8073683291732 129.34862576518208,181.6363636363676 130.11899500602158,176.88718788042024 132.34961639007088,176.92709763777384 133.0969895342132,176.6344258011959 133.2004719696124,176.94040088757174 136.0404899173882,177.03352359810378 138.01815423724474,164.64762184169376 137.9606639954145,164.1952681330731 132.0391690840479,163.1575096025481" stroke="#4DD2FF" stroke-linecap="round" stroke-linejoin="round" stroke-width="0.5"><title>2025-07-08 5.1km</title><desc>1751976330000</desc></polyline><polyline fill="none" points="146.85022233484779,181.4575665651937 146.80808125337353,181.6363636363676 147.0749747697846,181.52258370508207 147.15925693284953,180.6123413413443 147.6509028841392,180.20598147086275 147.74923207442043,179.7833661104669 149.16798181948252,169.94911645364482 149.2944050640799,166.9743399980216 148.9572764118202,164.77979730836523 149.72986290667905,164.7472853384097 149.92652128718328,165.03989282989642 152.63759753282648,165.43003531899012 154.81488674564753,165.3975234812824 156.40220081683947,166.031503124992 161.45913060131716,166.77927075621847 162.38623439520597,162.0 166.17893173365155,162.8453235928173 162.79359818337252,162.04876879032236 162.16148196032736,164.86107720425935 162.06315277004614,166.81178231304511 152.5954564512358,165.54382669906772 149.92652128718328,165.0561487859668 149.6877218252048,164.69851737108547 148.91513533028774,164.8285652508639 149.22416992823128,166.12903823168017 149.28035803698003,168.94127489051607 147.69304396561347,179.83212947830907" stroke="#4DD2FF" stroke-linecap="round" stroke-linejoin="round" stroke-width="0.5"><title>2025-07-06 5.0km</title><desc>1751807521000</desc></polyline><polyline fill="none" points="172.26152827602345,180.4192233338108 173.11230051796883,174.36919526579732 170.35889217123622,174.17229736965965 169.4926513431128,174.47659402547288 170.62185813696124,174.36919526579732 170.46717227483168,174.19019718747586 173.3133921387489,174.351295466171 173.51448375964537,174.17229736965965 173.42167224234436,173.61740211451252 174.58181620854884,166.2962010204792 174.4735361050698,162.64443683478748 176.46898372715805,162.44752582992078 188.68916683871066,164.4524275874137 188.67369825247442,163.86169997719117 175.23149682971416,162.0 175.44805703678867,166.42150531054358 174.040415690979,176.37396131490823 174.4271303464193,176.9825464935857 174.07135286339326,177.64482797533856 174.14869579445804,179.07677942339797 173.60729527682997,179.20207462125109 173.3597978973994,181.6363636363676 172.1068424138357,181.49317109612457 172.18418534495868,180.43712251682882" stroke="#4DD2FF" stroke-linecap="round" stroke-linejoin="round" stroke-width="0.5"><title>2025-07-05 4.8km</title><desc>1751729502000</desc></polyline><polyline fill="none" points="24.06957417423837,203.45454545454413 24.263908096705563,203.31252216211578 24.29459240019787,202.50772023378522 24.5605230309302,201.3360133669048 24.703716447460465,201.28867142757372 24.887822268763557,199.57251313341112 20.888634706730954,199.40681375251734 21.14433723629918,198.51913448324922 21.52277698001126,194.51857594955072 21.563689384725876,191.59500394958013 21.42049596819561,191.20439970263396 21.57391748588998,188.8133996919787 21.563689384725876,183.81818181817653 16.193936264375225,185.7476397185601 16.081427151337266,186.0198919399263 16.1223395561683,185.78315091396507 19.016892190498766,184.68229881932348 19.068032696435694,187.12073138687265 19.354419529496226,187.73624998144805 21.492092676460743,187.73624998144805 21.502320777624846,190.86114034333877 21.727339003642555,190.96766921830567 21.80916381307179,191.34643776222947 25.55264884553617,191.5831674765068 25.73675466683926,192.51824514272448 25.716298464452848,194.2226711910771 24.427557715622243,203.01663974666735" stroke="#4DD2FF" stroke-linecap="round" stroke-linejoin="round" stroke-width="0.5"><title>2025-07-03 5.2km</title><desc>1751545471000</desc></polyline><polyline fill="none" points="43.16239394622971,203.45454545454413 43.628840016783215,200.57883392557414 43.82000643911306,200.44610648515663 44.30939248035429,196.81814476146246 44.347625764785334,195.56159593992925 43.514140163344564,188.88919480302138 43.10886734799715,188.04847137299657 43.19298057380365,187.93342437718093 43.537080134032294,187.99537277843046 43.376500339247286,186.27850076284085 43.00181415147381,185.80060252626572 43.00946080836002,184.71204674594628 42.65006793438806,183.81818181817653 43.04004743596306,184.7916976306151 43.00181415147381,185.81830250775965 43.34591371167335,186.15460147202975 43.39944030993502,186.42894966457243 43.537080134032294,187.98652300951653 43.16239394622971,187.95997369739052 43.10886734799715,188.0750206581215 43.52178682025988,188.88919480302138 43.919412978721084,192.67677439249383 44.36291907855775,195.5350489382181 44.23292591137579,197.51720280344307 43.39179365304881,203.15370623498166" stroke="#4DD2FF" stroke-linecap="round" stroke-linejoin="round" stroke-width="0.5"><title>2025-07-01 5.0km</title><desc>1751376396000</desc></polyline><polyline fill="none" points="65.41381972841918,203.45454545454413 65.55561624391703,203.2795296244076 65.52725694084074,202.63415629172232 65.75413136562565,202.41538479235896 65.91483408317436,201.5621716965543 66.16061471006833,198.55399464698712 66.5009263472748,197.3835175841523 66.87905038864119,194.30958730415296 66.7845193783287,192.54832790037472 66.25514572038082,189.40862007929536 65.8959278811817,185.60146471064218 65.32874181913212,184.1901573764626 65.82975617388729,184.28862127959292 65.84866237593815,183.8181818181838 65.84866237593815,184.2667404199965 65.41381972841918,184.17921693722747 65.33819492015755,184.28862127959292 65.69741275941487,184.82470094900782 65.91483408317436,185.57958411805885 66.31186432664981,189.82433578408381 66.87905038864119,193.5985233124229 66.83178488345584,195.35976552956708 65.6406941532041,203.0826364754539" stroke="#4DD2FF" stroke-linecap="round" stroke-linejoin="round" stroke-width="0.5"><title>2025-06-30 4.1km</title><desc>1751292736000</desc></polyline><polyline fill="none" points="79.10357934745844,194.8468388659021 78.88311688310932,193.25342535303207 78.95913842253503,193.08615924635524 84.8736141906702,192.80444717664068 85.81628127966542,192.89248229713849 87.3519163762976,192.74282253893762 89.6553690212022,192.76923310334678 98.51948051946238,192.2058059777628 95.87393094709842,192.39068090846558 95.2581564776774,192.59316252140707 94.11783338611713,192.54034127682098 88.34779854290537,192.83966123562277 82.98067785869353,192.9364998237288 82.82103262588498,193.0773557581051 83.19353816911462,195.06692129496514 83.01868862842093,195.04931472128374 82.80582831799984,194.01052052153682" stroke="#4DD2FF" stroke-linecap="round" stroke-linejoin="round" stroke-width="0.5"><title>2025-06-26 5.0km</title><desc>1750950176000</desc></polyline><polyline fill="none" points="121.11688311686157,194.4400263329735 120.79982665344141,192.83270093974716 112.35203332724632,193.60781112269615 111.45018383124261,193.61597013732535 108.19507080645417,193.20801838657644 101.48051948050852,193.49358483039396 107.9696084324678,193.1998593303506 111.45722953040968,193.6241291511542 117.46721093761153,193.07747338723857" stroke="#4DD2FF" stroke-linecap="round" stroke-linejoin="round" stroke-width="0.5"><title>2025-06-24 5.0km</title><desc>1750769966000</desc></polyline><polyline fill="none" points="143.71428571426077,194.42273320027743 143.44548822930665,192.8499940724505 135.08447172422893,193.64455883254413 134.06587072866387,193.6773242210329 130.7695647291839,193.2513731289655 124.07792207790771,193.54626258698408 130.59272427856922,193.2513731289655 134.0587971106288,193.6773242210329 141.1394887532806,193.04658814652066" stroke="#4DD2FF" stroke-linecap="round" stroke-linejoin="round" stroke-width="0.5"><title>2025-06-22 5.0km</title><desc>1750563938000</desc></polyline><polyline fill="none" points="157.16455420915736,203.45454545454413 156.1496834589634,197.39138065227235 156.1354562989145,195.73817112885445 156.2255616458715,195.04611486690192 156.16865300570498,193.26650078852254 156.18762255241745,192.9589072097515 156.29195505945245,192.783138661689 156.18762255241745,192.70074695729636 156.18288016572478,191.57471436374908 155.03048020176357,184.64222912376135 154.74119461406372,183.81818181818016 155.03522258839803,184.53785049613361 156.16865300570498,191.45936335390434 156.23030403256416,194.8319051741746 156.1496834589634,195.74366360330168 156.14494107227074,197.33645756265832 156.922692488326,201.9937366177728 157.03176738202455,202.31226222158875 158.24581837293226,202.24636052702044" stroke="#4DD2FF" stroke-linecap="round" stroke-linejoin="round" stroke-width="0.5"><title>2025-06-21 8.0km</title><desc>1750517001000</desc></polyline><polyline fill="none" points="181.08307488478022,203.45454545454413 179.4197131540277,193.22604571201373 176.49271227885038,193.16631514891924 171.2189529928146,192.65860437924857 171.32210720865987,192.12102635212068 171.1157987769111,191.09066295213415 171.39947287057294,184.35579032005626 171.3607900395873,183.87791619363998 171.1029044999741,183.81818181817653 170.78054757532664,192.10609360100352 171.27053010073723,192.16582459639176 171.29631865466945,192.67353707410803 179.45839598495513,193.21111307354295 180.4512553125969,199.60214325538254 180.76071796024917,200.4532640871039 187.40127060643863,200.24421732340124" stroke="#4DD2FF" stroke-linecap="round" stroke-linejoin="round" stroke-width="0.5"><title>2025-06-19 5.0km</title><desc>1750345525000</desc></polyline><polyline fill="none" points="30.727272727293894,215.94612956552373 30.547035573166795,214.87508141457147 24.98814229251002,215.40236931826075 24.271936758887023,215.4188469820947 21.8909090909292,215.14421859336653 13.068774703569943,215.5451755709837 12.305138339928817,215.67150386373032 11.090909090911737,216.0340094945168 12.8031620553229,215.57263826850976 15.905138339934638,215.4353246409264" stroke="#4DD2FF" stroke-linecap="round" stroke-linejoin="round" stroke-width="0.5"><title>2025-06-17 5.1km</title><desc>1750166247000</desc></polyline><polyline fill="none" points="34.36542767571518,222.86457340772904 33.68831168831093,218.51277066301554 48.99113300489262,218.0619025874039 46.502731751068495,208.24055744035286 49.51589789520949,208.4169932146615 53.324675324663986,208.04451750135922 47.31527093600016,208.39738924772246 49.532825794944074,217.23857554809365 42.96480071649421,217.5522243596497" stroke="#4DD2FF" stroke-linecap="round" stroke-linejoin="round" stroke-width="0.5"><title>2025-06-16 3.2km</title><desc>1750084948000</desc></polyline><polyline fill="none" points="75.92207792206318,216.36227837131446 75.62119815670303,214.54681253776653 65.96929199830629,215.43621199338668 65.09832425639615,215.445381014164 61.281901968992315,214.97775976380944 56.28571428571013,215.21615521475906 61.12354419773328,214.96859069538186 65.0904063678463,215.42704297169985 73.27750314204604,214.73936368111754" stroke="#4DD2FF" stroke-linecap="round" stroke-linejoin="round" stroke-width="0.5"><title>2025-06-15 4.6km</title><desc>1749956754000</desc></polyline><polyline fill="none" points="98.51948051946238,216.2442695138161 98.28044136313838,214.66482139526488 89.87188751099166,215.4382663862052 88.99306708329823,215.45454935816815 85.2949907235452,215.0393325365876 78.88311688310932,215.33242698763934 85.42154086512164,215.0393325365876 88.93682257592445,215.45454935816815 90.77179962894297,215.36499297137198 91.11629723655642,215.2510119702274 95.57367444585543,214.85207718540187" stroke="#4DD2FF" stroke-linecap="round" stroke-linejoin="round" stroke-width="0.5"><title>2025-06-14 5.1km</title><desc>1749906363000</desc></polyline><polyline fill="none" points="121.11688311689068,216.62045664162724 120.88080236595124,215.02839227797813 112.74296001027687,215.81638774621388 111.64587887359085,215.82442847575294 108.31297415457084,215.42239099591825 102.03600360036944,215.7198989280805 101.9526809824165,215.5349616967942 101.98739873987506,214.29667515269102 101.48051948050852,214.28863426746102 102.00822939438513,214.31275692069175 101.9526809824165,215.52692093776568 102.0568342548504,215.7198989280805 108.48656294200919,215.4143502254301 111.79863700657734,215.83246920446254 118.39501092970022,215.23745306725323 118.38806737816776,214.91582085427217 120.50585058506113,214.80324926997127" stroke="#4DD2FF" stroke-linecap="round" stroke-linejoin="round" stroke-width="0.5"><title>2025-06-12 5.9km</title><desc>1749735885000</desc></polyline><polyline fill="none" points="143.71428571426077,221.6319669145014 143.08831708831713,218.4803150758089 125.88778788771015,220.00887424060784 124.26843426842242,215.58073864293692 124.07792207790771,210.04933060398616 127.28941328934161,209.9074970261281 130.02462402451783,210.0808491591597 130.17431217432022,209.57655150510254 129.88854388851905,209.46623617399018 124.15957015950698,209.27712399458687 124.2820422819932,215.42315140916617 124.75832275825087,217.21963635200518 125.69727569719544,219.4573340165516 133.31776331772562,218.7954831506213 133.4674514674116,219.39430072279356 143.0474930474884,218.46455665517715 143.6326376326615,221.58469261147548" stroke="#4DD2FF" stroke-linecap="round" stroke-linejoin="round" stroke-width="0.5"><title>2025-06-10 5.3km</title><desc>1749559786000</desc></polyline><polyline fill="none" points="147.19090811669594,210.22644590960408 146.71951754181646,208.31588496959012 146.67532467533601,206.83177347500168 160.03630128322402,206.49059655838937 160.6402704572538,208.72529272123938 160.19834179332247,208.70823408495926 160.06576319411397,209.01528927273466 160.34565134794684,210.60173210309586 160.27199657063466,211.6764106387418 160.7581181009882,213.82574701079284 162.01024931564461,213.77457265599514 163.866349704389,220.92177272195113 163.89581161533715,221.24586286750855 163.42442104039947,221.38232168849208 163.85161874891492,221.26292022624693 163.9989283035393,221.53583772908314 163.61592346138787,221.6040670353541 163.74850206059637,222.23518679953122 164.63235938857542,224.48672981746495 165.2510595181957,224.41850168602832 166.31168831168907,223.8385614463623 165.19213569629937,224.07736061188916 163.2034567083465,216.14563466473192 162.96776142093586,215.46331810396805 162.43744702416006,215.46331810396805 162.03971122653456,213.72339828551048 161.6125135180191,213.89397945953533 160.74338714557234,213.77457265599514 160.25726561516058,211.81287726062874 160.15414892690023,209.28822674458206 159.34394637623336,206.42236109162332 146.71951754181646,206.8658911284001 147.24983193853404,210.32879677305755" stroke="#4DD2FF" stroke-linecap="round" stroke-linejoin="round" stroke-width="0.5"><title>2025-06-08 5.0km</title><desc>1749355299000</desc></polyline><polyline fill="none" points="188.90909090908826,216.26257787446957 188.56372772954637,214.6465130346187 182.23441884745262,215.1770429666285 180.33139724595821,215.44638758699148 179.2741630228993,215.44638758699148 175.9262546498794,215.03828932381293 169.2727272727352,215.332120282932 175.60908438294427,215.03828932381293 179.23892188214813,215.45454953103035 186.8721529726754,214.76894333086966" stroke="#4DD2FF" stroke-linecap="round" stroke-linejoin="round" stroke-width="0.5"><title>2025-06-07 5.3km</title><desc>1749293029000</desc></polyline><polyline fill="none" points="30.72727272726479,238.05062502653163 30.43735882412875,236.49482951891696 21.478312109189574,237.31367301521823 17.84378171339631,236.89606387490494 11.090909090911737,237.17447020964028 17.81549743018695,236.87968700163765 21.046976789890323,237.31367301521823 27.969555111805676,236.68316426207457" stroke="#4DD2FF" stroke-linecap="round" stroke-linejoin="round" stroke-width="0.5"><title>2025-06-05 5.1km</title><desc>1749128617000</desc></polyline><polyline fill="none" points="33.963186419859994,237.14843680100603 33.68831168831093,235.34800352909951 33.79138971262728,235.2684256014618 41.496472031925805,234.9998496166736 42.94815420798841,240.32149525884597 50.558748338284204,240.2220279077519 53.32467532469309,240.05293317826 51.04836895392509,240.13250720508222 50.62746702120057,234.2239592866099 43.343286634626566,234.6516944622781 41.77993659884669,234.60195791024307 41.91737396462122,234.9998496166736 37.880151344725164,235.11921681227977" stroke="#4DD2FF" stroke-linecap="round" stroke-linejoin="round" stroke-width="0.5"><title>2025-06-03 5.2km</title><desc>1748952979000</desc></polyline><polyline fill="none" points="72.52434982851264,231.4189281998042 72.0935932728753,230.7813614567276 71.78824685371364,230.11222495238326 71.59195272711804,229.9291580468016 71.10667002521222,229.88496940240293 70.7358922304993,229.45570664631305 70.56686117703794,228.89387295998677 70.31604090411565,228.50879299819644 70.01614709958085,227.45454545454413 69.14918137370842,227.82700621572076 68.7456878912053,227.87119632701797 67.69878588258871,228.26259308057342 67.25167148309993,228.8370580340743 67.25167148309993,228.98225163013194 65.4414034265501,231.28636535744954 65.4304981972964,231.4189281998042 64.93431026613689,232.10067548367078 64.50355371052865,232.49835793760212 64.42721710572368,232.4289215024728 64.12187068653293,232.69404201831276 63.920123945281375,232.57410668727607 63.91467133068363,232.68772963826268 63.88740825752029,232.5236075311259 64.17094421817455,232.72560390899162 64.12732330115978,232.95284904754226 63.47300954579259,233.67876543856983 62.35522354702698,233.93125610434072 62.35522354702698,233.81763543199486 62.278886942222016,233.95650511437634 61.97354052303126,234.0259398389644 61.70636240625754,233.95019286282695 61.25924800676876,233.98806636245718 61.18291140193469,233.9186315954721 61.00297511924873,234.01962759449816 60.46316627104534,233.8302599614144 60.39228228086722,233.0033478541045 60.18508292501792,232.82028948459265 59.165443989564665,233.0790959868791 58.78376096559805,233.31265214703308 59.21997013583314,235.2000061373401 59.906999578961404,237.30821993466088 61.35739507005201,242.9760562111478 61.55914181130356,243.56300743575775 63.27126280454104,247.02779991107673 63.489367389673134,247.0909090909081 64.24182820838178,246.85109386608383 64.75437398342183,247.0025562211813 65.69222369944328,246.80691727621524 65.67586585553363,246.4345704831394 65.92668612845591,246.3651496474813 66.37925314260065,246.57341192148306 66.72276786417933,246.4093265518968 66.86453584450646,246.6175886776109 67.74785941425944,246.81322821953654 68.26585780395544,246.71856400209435 68.78930880824919,246.32728370437326 68.88200325690559,245.58889319485752 69.274591510155,245.046139011607 69.1709918322158,244.5033800802339 69.2964019686624,244.23831003919622 69.02922385185957,243.9416826980996 68.8601927984273,243.49989466730403 68.79476142284693,242.84351806928316 69.14918137370842,242.55950681176182 69.6889902218827,242.78040456887175 69.98888402644661,242.76147050621512 70.06522063122247,242.35123106317405 69.93981049477588,241.84631725510917 69.83621081683668,241.80213710137104 69.93981049477588,241.75164545858206 69.81985297295614,241.71377669950743 69.91800003623939,241.7705798294446 69.92890526552219,241.47394068857466 69.78713728519506,241.14574253931642 69.14372875905246,241.10156188661495 68.84383495451766,240.87434660424697 68.96924509093515,240.0159702484707 69.4817908660043,239.13864684530563 69.87437911922461,238.70313637431173 70.05431540196878,238.6400186610481 70.44145104059135,238.1035155048521 71.12302786909277,237.45339369644353 71.72826809281833,236.69596163538154 71.553784424701,236.34249017442926 71.01397557652672,236.33617816575133 70.9430915863486,236.1278815188016 71.150290942227,235.62922912789872 71.39020598586649,235.40199379707337 71.61376318562543,235.4335543094785 71.70645763428183,235.31993638966378 71.51561612234218,234.88439910187662 71.7718890098331,234.34786345524117 72.01180405350169,234.20899464925242 72.21355079472414,234.2910535267365 72.1862877215899,234.13956012966082 72.79152794528636,233.86182127374923 72.84605409158394,233.69138999628194 73.37495771050453,233.36946297187387 73.42403124217526,232.90866255805304 72.73154918436194,231.58936572353923 72.62249689179589,231.53886576534205" stroke="#4DD2FF" stroke-linecap="round" stroke-linejoin="round" stroke-width="0.5"><title>2025-06-02 11.5km</title><desc>1748829019000</desc></polyline><polyline fill="none" points="98.51948051949148,238.1910037909547 98.15978026969242,236.35445075449388 87.78569806547603,237.32006564088806 83.48564507928677,236.82779263940756 78.88311688310932,237.02659551174293 83.54287011903943,236.8088590103216 87.31154773617163,237.30113211214484 98.14343025832204,236.363917615854 98.51130551382084,238.13420372573455" stroke="#4DD2FF" stroke-linecap="round" stroke-linejoin="round" stroke-width="0.5"><title>2025-06-01 4.9km</title><desc>1748740054000</desc></polyline><polyline fill="none" points="121.11688311689068,246.7353890965751 121.04577980859904,246.88634165430267 120.90357319201576,246.77655799276545 120.42955113685457,244.14172326189873 105.45045419275993,245.44542397395708 104.06393968133489,241.56173095974373 104.00468692445429,236.67607816614327 103.67287148581818,234.83705056644976 101.48051948053762,227.65911289113865 102.92628674884327,232.4627464346413 103.31735494441818,233.20386320276884 103.95728471892653,235.9624286476901 104.59721449343488,236.1408413819736 103.93358361616265,236.1271173339046 104.06393968133489,241.1088548698317 104.51426063373219,242.9615201522538 105.29639702482382,244.89649889686552 105.4978563982877,245.02000723432866 111.92085524613503,244.36129479209194 112.09861351683503,244.8827757412946 117.20620116154896,244.3887412082113" stroke="#4DD2FF" stroke-linecap="round" stroke-linejoin="round" stroke-width="0.5"><title>2025-05-31 5.5km</title><desc>1748696141000</desc></polyline><polyline fill="none" points="142.33719008264598,242.69188813846267 141.8909090909292,239.81257658210234 125.7355371901067,241.25962236321357 124.24368358915672,237.00703848303237 124.07792207790771,231.8830997205805 129.5608028334682,231.9421663297544 124.15442739077844,231.85356640700775 124.25643447460607,236.9332077993604 124.65171192446724,238.5131762171659 125.64628099167021,240.78711920753994 139.95277449820423,239.41389816405717 141.2278630460496,239.34006870693702 141.29161747347098,239.8864057983883 143.71428571426077,239.69444975779334" stroke="#4DD2FF" stroke-linecap="round" stroke-linejoin="round" stroke-width="0.5"><title>2025-05-29 5.0km</title><desc>1748526381000</desc></polyline><polyline fill="none" points="158.57850865455111,235.3449386304419 158.1428365611937,231.7773015302664 165.5181427131174,231.41693014297925 166.31168831168907,234.31789896595 165.45590384257957,231.48900447916822 158.11171712598298,231.83135717497498 158.31399345502723,233.61518417893967 158.0339185379562,231.8493757195247 147.54666886205086,232.82237439925666 149.11820034164703,240.69625930041366 149.725029328838,242.5340492385003 149.32047667069128,242.78629342550994 149.95842509309296,244.4799236474937 149.10264062404167,242.2457697270147 146.98651902767597,232.8584112846147 150.65861238603247,232.33587572879333 157.30261180974776,231.9214498794754 157.22481322166277,231.39891155430814 147.46887027396588,232.06559811117768 146.92428015719634,230.06553089796216 146.67532467533601,230.28175547136925 146.79980241629528,232.20974622531503 154.15954885049723,231.48900447916822" stroke="#4DD2FF" stroke-linecap="round" stroke-linejoin="round" stroke-width="0.5"><title>2025-05-27 6.0km</title><desc>1748352132000</desc></polyline><polyline fill="none" points="186.29240008283523,238.73602920842677 186.37067715884768,238.68423208182503 186.11907227171469,237.4281388317395 179.5046593497682,238.06266326837067 178.738662248943,238.0756126806773 175.9821909298189,237.75187658108916 169.39573410645244,238.04323914496854 169.2727272727352,235.89359945544857 170.05549803274334,235.8094253370291 171.13460343758925,235.88712452722757 171.1401946572878,237.75187658108916 176.14433630154235,237.55115937083247 179.18595982604893,237.84899758418396 186.1078898322885,237.16267264617272 188.79167529509868,237.06555059378297 188.90909090911737,237.27921891301594 188.8308138331049,237.30511805439528 186.35390349972295,237.40871451429484" stroke="#4DD2FF" stroke-linecap="round" stroke-linejoin="round" stroke-width="0.5"><title>2025-05-25 7.6km</title><desc>1748179850000</desc></polyline><polyline fill="none" points="30.71440486118081,260.17497417935374 30.662933396873996,259.7502939511178 30.412010008323705,259.7502939511178 30.251161682332167,258.95308054445195 30.122483021521475,258.77426512866805 23.913737638504244,259.3032594666729 22.89717621827731,259.4895241674094 18.818062671256484,259.10954367445083 11.20028595259646,259.4522712652397 11.090909090911737,258.1558584436789 12.98248540450004,258.00684400246246 12.96961753841606,259.0946424384165 13.22054092696635,259.1244449074584 18.567139282735297,258.89347545447526 22.440366972441552,259.22875345349166 30.482783271785593,258.4538864148344 30.72727272726479,260.0930185379475" stroke="#4DD2FF" stroke-linecap="round" stroke-linejoin="round" stroke-width="0.5"><title>2025-05-24 6.6km</title><desc>1748094255000</desc></polyline><polyline fill="none" points="53.32467532469309,259.9658452478325 53.111064600234386,258.2159729339837 45.02550310289371,258.90309963210166 43.902068922208855,259.0954941663367 42.62040457531111,259.1138174338048 38.92573019248084,258.6648963048865 33.68831168831093,258.87561466500483 38.90199566751835,258.655734625856 42.57293552541523,259.1229790661746 50.95122283036471,258.4175306431498" stroke="#4DD2FF" stroke-linecap="round" stroke-linejoin="round" stroke-width="0.5"><title>2025-05-18 4.7km</title><desc>1747565909000</desc></polyline><polyline fill="none" points="73.36985659628408,259.7939819938365 73.15623454703018,258.53756614919985 67.46152044346672,259.01930364306827 66.51146448741201,259.1885618999804 65.74692241623416,259.18205197530915 63.144106394582195,258.8435349784522 56.32506571582053,259.1560122700321 56.28571428571013,258.96071414192556 60.12528954009758,258.71333565579334 62.728105561749544,258.66776583016326 65.76940894775908,259.1560122700321 73.22931577439886,258.4919961981541 75.74218567000935,258.3878361879797 75.84337506181328,258.4008561985429 75.86023996042786,258.4919961981541 75.92207792206318,258.45293621424935" stroke="#4DD2FF" stroke-linecap="round" stroke-linejoin="round" stroke-width="0.5"><title>2025-05-17 5.7km</title><desc>1747487200000</desc></polyline><polyline fill="none" points="97.44641238296754,258.2791209037241 94.84598449018085,258.41517610446317 93.57710100029362,258.6419343101079 87.74963608387043,259.086378717162 84.09963789698668,258.6147233559459 78.88311688310932,258.8233404586208 84.02914436979336,258.6328639929852 87.60864902945468,259.07730844531034 98.01036060068873,258.1702765933878 98.35499562264886,259.9299099572454 98.51948051946238,260.01154158843565" stroke="#4DD2FF" stroke-linecap="round" stroke-linejoin="round" stroke-width="0.5"><title>2025-05-11 5.0km</title><desc>1746965499000</desc></polyline><polyline fill="none" points="121.11688311689068,259.79641172399715 120.79994037523284,258.38540645781904 111.89032774968655,259.1928633833886 108.27013732321211,258.776901742247 101.48051948050852,259.0623658463446 108.10110119433375,258.7850578736252 111.48182377160992,259.1928633833886 120.85628575156443,258.4017187995705" stroke="#4DD2FF" stroke-linecap="round" stroke-linejoin="round" stroke-width="0.5"><title>2025-05-10 5.3km</title><desc>1746870058000</desc></polyline><polyline fill="none" points="143.67141155785066,258.75991557327507 143.6213917087298,258.619242337365 143.71428571428987,258.7268160102685 143.33556399930967,258.79301512274833 134.58209039870417,259.5625758444439 130.8734758690989,259.1240098755152 124.07792207790771,259.40535435439233 130.83774740542867,259.1240098755152 132.57415074008168,259.2646822368333 134.153348834574,259.5543010367546 141.32047864797642,258.908863439734" stroke="#4DD2FF" stroke-linecap="round" stroke-linejoin="round" stroke-width="0.5"><title>2025-05-05 5.4km</title><desc>1746434825000</desc></polyline></svg>