<?xml version="1.0" encoding="utf-8" ?>
<svg baseProfile="full" height="300mm" version="1.1" viewBox="0,0,200,300" width="200mm" xmlns="http://www.w3.org/2000/svg" xmlns:ev="http://www.w3.org/2001/xml-events" xmlns:xlink="http://www.w3.org/1999/xlink"><defs /><rect fill="#222222" height="300" width="200" x="0" y="0" /><text fill="#FFFFFF" style="font-size:12px; font-family:Arial; font-weight:bold;" x="10" y="20">Over 3km Runs</text><text fill="#FFFFFF" style="font-size:4px; font-family:Arial" x="10" y="280">Runner</text><text fill="#FFFFFF" style="font-size:9px; font-family:Arial" x="10" y="290">tang-hi</text><text fill="#FFFFFF" style="font-size:4px; font-family:Arial" x="65" y="280">SPECIAL TRACKS</text><rect fill="yellow" height="2.6" width="2.6" x="65" y="283" /><text fill="#FFFFFF" style="font-size:3px; font-family:Arial" x="70" y="285.5">Over 20.0 km</text><rect fill="red" height="2.6" width="2.6" x="65" y="287" /><text fill="#FFFFFF" style="font-size:3px; font-family:Arial" x="70" y="289.5">Over 40.0 km</text><text fill="#FFFFFF" style="font-size:4px; font-family:Arial" x="120" y="280">STATISTICS</text><text fill="#FFFFFF" style="font-size:3px; font-family:Arial" x="120" y="285">Number: 30</text><text fill="#FFFFFF" style="font-size:3px; font-family:Arial" x="120" y="290">Weekly: 3.3</text><text fill="#FFFFFF" style="font-size:3px; font-family:Arial" x="141" y="285">Total: 165.6 km</text><text fill="#FFFFFF" style="font-size:3px; font-family:Arial" x="141" y="290">Avg: 5.5 km</text><text fill="#FFFFFF" style="font-size:3px; font-family:Arial" x="167" y="285">Min: 3.2 km</text><text fill="#FFFFFF" style="font-size:3px; font-family:Arial" x="167" y="290">Max: 11.5 km</text><polyline fill="none" points="33.21479738748167,64.19999999999709 33.53544835955836,63.96566156750487 33.586077460320666,62.63773838574707 34.024863001017366,60.70442205539439 34.26113213831559,60.62630785550573 34.56490674347151,57.79464667013963 27.966247266100254,57.52124269165506 28.388156439876184,56.056571897366666 29.012582016992383,49.455650316769606 29.080087484791875,44.631756516813766 28.84381834755186,43.98725950936205 29.096963851654436,40.042109491769224 29.080087484791875,31.80000000000291 20.219994836195838,34.98360553562816 20.03435479971813,35.43282170088787 20.101860267634038,35.042199008050375 24.87787211430259,33.22579305188265 24.96225394908106,37.249206788343145 25.434792223677505,38.26481246939511 28.96195291611366,38.26481246939511 28.978829283092637,43.4208815665188 29.350109355931636,43.596654210210545 29.48512029153062,44.22162230768299 35.661870595184155,44.61222633624857 35.96564520028187,46.15510448550049 35.931892466323916,48.96740746528667 33.80547023075633,63.47745558201859" stroke="#4DD2FF" stroke-linecap="round" stroke-linejoin="round" stroke-width="0.5"><title>2025-07-03 5.2km</title><desc>1751545471000</desc></polyline><polyline fill="none" points="63.432235725573264,64.19999999999709 64.20187174197054,59.45507597721007 64.51729633880313,59.23607570052263 65.3247833068599,53.24993885643198 65.38786822621478,51.17663330088544 64.01261698384769,40.16717142499692 63.343916838523,38.77997776545817 63.48270366108045,38.5901502223569 64.05046793544898,38.692365084425546 63.78551127406536,35.859526258704136 63.16727906418964,35.07099416834535 63.17989604809554,33.27487713081064 62.58689780603163,31.80000000000291 63.23036398360273,33.4063010905229 63.16727906418964,35.10019913781434 63.73504333855817,35.65509242886037 63.82336222566664,36.10776694654487 64.05046793544898,38.677762965715374 63.432235725573264,38.63395660070819 63.343916838523,38.82378408590739 64.02523396775359,40.16717142499692 64.68131712917238,46.41667774762027 65.41310219391016,51.13283074805804 65.19861346803373,54.403384625693434 63.81074524181895,63.70361528772628" stroke="#4DD2FF" stroke-linecap="round" stroke-linejoin="round" stroke-width="0.5"><title>2025-07-01 5.0km</title><desc>1751376396000</desc></polyline><polyline fill="none" points="98.86137398041319,64.19999999999709 99.09533823101083,63.91122388027725 99.04854538093787,62.84635788133892 99.4228881818126,62.48538490738429 99.68804766581161,61.07758329930948 100.09358570020413,56.114091167532024 100.65509990154533,54.18280401384982 101.27900456980569,49.110819051842554 101.1230284027406,46.20474103561719 100.2495618671528,41.02422313083662 99.65685243246844,34.74241677255486 98.7209954301361,32.41375967116619 99.54766911547631,32.57622511133377 99.57886434887769,31.80000000000291 99.57886434887769,32.54012169298949 98.86137398041319,32.395707946430775 98.73659304680768,32.57622511133377 99.32930248160847,33.46075656586618 99.68804766581161,34.706313794798916 100.34314756747335,41.71015404374339 101.27900456980569,47.937563465500716 101.20101648627315,50.84361312378314 99.23571678134613,63.5863501845015" stroke="#4DD2FF" stroke-linecap="round" stroke-linejoin="round" stroke-width="0.5"><title>2025-06-30 4.1km</title><desc>1751292736000</desc></polyline><polyline fill="none" points="120.16376306611346,49.99728412875265 119.79999999998836,47.36815183251747 119.9254355400335,47.09216275649669 129.68432055745507,46.62733784147713 131.239721254271,46.77259579030215 133.77351916371845,46.525657189267804 137.57421602780232,46.56923462053237 152.19999999995343,45.63957986331661 147.83484320552088,45.94462349898822 146.81881533103297,46.27871816033439 144.93728222989012,46.19156310676772 135.41672473866493,46.68544103878958 126.56097560969647,46.84522470916272 126.29756097553764,47.07763700088253 126.91219512186944,50.36042013669794 126.62369337974815,50.33136929012835 126.27247386751696,48.61735886055976" stroke="#4DD2FF" stroke-linecap="round" stroke-linejoin="round" stroke-width="0.5"><title>2025-06-26 5.0km</title><desc>1750950176000</desc></polyline><polyline fill="none" points="188.20000000001164,49.32604344941501 187.67685683531454,46.67395655059954 173.73799784708535,47.95288835246174 172.2499461786938,47.96635072660865 166.8790096878074,47.293230337876594 155.79999999998836,47.7644149701664 166.50699677073862,47.2797678950883 172.26157158234855,47.97981309941679 182.17804090422578,47.077831088972744" stroke="#4DD2FF" stroke-linecap="round" stroke-linejoin="round" stroke-width="0.5"><title>2025-06-24 5.0km</title><desc>1750769966000</desc></polyline><polyline fill="none" points="44.20000000001164,90.09750978046213 43.7564841498388,87.50249021954369 29.960806916409638,88.81352207370219 28.28011527378112,88.86758496469702 22.841210374666844,88.16476566279016 11.799999999988358,88.65133326851355 22.549423631106038,88.16476566279016 28.268443804001436,88.86758496469702 39.95158501440892,87.82687044175691" stroke="#4DD2FF" stroke-linecap="round" stroke-linejoin="round" stroke-width="0.5"><title>2025-06-22 5.0km</title><desc>1750563938000</desc></polyline><polyline fill="none" points="65.10722873086343,105.0 63.43269199304632,94.9957780762561 63.40921717896708,92.26798236261675 63.55789100145921,91.12608953039307 63.463991745142266,88.18972630106873 63.49529149723821,87.68219689608668 63.66744013383868,87.39217879178614 63.49529149723821,87.25623247953627 63.4874665591924,85.3982787001878 61.586006618628744,73.95967805421242 61.10868539894,72.59999999999854 61.59383155661635,73.78745331861865 63.463991745142266,85.20794953394943 63.565715939505026,90.77264353739156 63.43269199304632,92.27704494545469 63.424867055000504,94.90515497839078 64.7081568914873,102.5896654193275 64.88813046607538,103.1152326656229 66.89131460106,103.00649486958719" stroke="#4DD2FF" stroke-linecap="round" stroke-linejoin="round" stroke-width="0.5"><title>2025-06-21 8.0km</title><desc>1750517001000</desc></polyline><polyline fill="none" points="103.28707355994266,105.0 100.5425267041428,88.12297542481974 95.71297526010312,88.02441999570874 87.01127243821975,87.18669722575578 87.18147689430043,86.29969348099257 86.84106798190624,84.59959387101117 87.30913023650646,73.48705402809719 87.24530356528703,72.69856171948777 86.8197924249107,72.59999999999127 86.28790349932387,86.27505444166309 87.09637466620188,86.37361058403621 87.13892578019295,87.21133617227315 100.60635337524582,88.09833657134732 102.24457126588095,98.6435363713681 102.75518463447224,100.04788574372651 113.71209650067613,99.70295858359896" stroke="#4DD2FF" stroke-linecap="round" stroke-linejoin="round" stroke-width="0.5"><title>2025-06-19 5.0km</title><desc>1750345525000</desc></polyline><polyline fill="none" points="152.19999999998254,89.61111378311034 151.90260869567282,87.84388433404092 142.73043478259933,88.71390937512479 141.54869565213448,88.74109752045479 137.61999999999534,88.28796067905205 123.06347826085403,88.94953969211929 121.80347826084471,89.1579813751523 119.79999999998836,89.75611566595035 122.62521739126532,88.99485314303456 127.74347826087615,88.76828565752658" stroke="#4DD2FF" stroke-linecap="round" stroke-linejoin="round" stroke-width="0.5"><title>2025-06-17 5.1km</title><desc>1750166247000</desc></polyline><polyline fill="none" points="156.9172413792694,101.02654612273909 155.80000000004657,93.84607159395819 181.0496551723918,93.10213926920551 176.94379310356453,76.89691977656912 181.9155172413448,77.1880388041609 188.19999999995343,76.57345387723763 178.28448275872506,77.15569225870422 181.94344827590976,91.74364965432324 171.10620689659845,92.26117019337835" stroke="#4DD2FF" stroke-linecap="round" stroke-linejoin="round" stroke-width="0.5"><title>2025-06-16 3.2km</title><desc>1750084948000</desc></polyline><polyline fill="none" points="44.20000000001164,131.0977593126736 43.70354838715866,128.1022406873235 27.777903225796763,129.5697497890942 26.340806451626122,129.58487867338408 20.043709677411243,128.8133036102954 11.799999999988358,129.20665610436117 19.78241935482947,128.79817464738153 26.327741935499944,129.55462090332003 39.836451612995006,128.4199500738614" stroke="#4DD2FF" stroke-linecap="round" stroke-linejoin="round" stroke-width="0.5"><title>2025-06-15 4.6km</title><desc>1749956754000</desc></polyline><polyline fill="none" points="80.20000000001164,130.9030446977995 79.80558539205231,128.2969553021976 65.93147153605241,129.57313953724224 64.48141783033498,129.60000644097454 58.37959183676867,128.91489868538338 47.79999999998836,129.39850452959945 58.58839957037708,128.91489868538338 64.38861439318862,129.60000644097454 67.41632653068518,129.45223840276594 67.98474758322118,129.26416975088068 75.33941997855436,128.60592735590762" stroke="#4DD2FF" stroke-linecap="round" stroke-linejoin="round" stroke-width="0.5"><title>2025-06-14 5.1km</title><desc>1749906363000</desc></polyline><polyline fill="none" points="116.20000000001164,131.52375345869223 115.81046676100232,128.8968472586712 102.38302687410032,130.19703978126927 100.57284299860476,130.21030698499817 95.073550212197,129.54694514327275 84.71654879773268,130.0378332313412 84.57906647812342,129.73268679971807 84.63635077793151,127.68951400194783 83.79999999998836,127.67624654133397 84.67072135786293,127.71604891915922 84.57906647812342,129.71941954732756 84.7509193776641,130.0378332313412 95.35997171147028,129.5336778719793 100.82489391800482,130.22357418737374 111.70891089114593,129.24179756097146 111.69745403114939,128.71110440956545 115.19179632252781,128.52536129546934" stroke="#4DD2FF" stroke-linecap="round" stroke-linejoin="round" stroke-width="0.5"><title>2025-06-12 5.9km</title><desc>1749735885000</desc></polyline><polyline fill="none" points="152.20000000006985,139.79274540893675 151.16715176729485,134.59251987509197 122.78627858625259,137.11464249700657 120.1143451143289,129.80821876083792 119.80000000004657,120.681395496591 125.09896049892996,120.44737009311211 129.6120582119329,120.73340111262223 129.85904365917668,119.90130998342647 129.38752598757856,119.7192896870838 119.93471933470573,119.40725459107489 120.13679833675269,129.5481998251198 120.92266112263314,132.51239998081292 122.47193347197026,136.20460112730507 135.04573804570828,135.11254719852877 135.29272349271923,136.100596192613 151.09979209990706,134.56651848104957 152.06528066541068,139.714742808952" stroke="#4DD2FF" stroke-linecap="round" stroke-linejoin="round" stroke-width="0.5"><title>2025-06-10 5.3km</title><desc>1749559786000</desc></polyline><polyline fill="none" points="156.65071267820895,120.97363575085183 155.87291822966654,117.82121019982151 155.80000000004657,115.37242623374914 177.84561140299775,114.8094843213621 178.84216054016724,118.49673299005372 178.112978244666,118.4685862401675 177.8942235559225,118.97522729999037 178.35603900975548,121.59285797009943 178.23450862721074,123.36607755391742 179.03660915233195,126.91248256780091 181.10262565652374,126.82804488239344 184.16519129788503,138.62092499123537 184.2138034509262,139.15567373138038 183.43600900226738,139.3808307860163 184.14088522142265,139.18381837330526 184.38394598651212,139.6341322530061 183.75198799697682,139.74671060833498 183.97074268572032,140.7880582192156 185.4291072768392,144.50310419881134 186.4499624907039,144.3905277819431 188.19999999995343,143.4336263865116 186.35273818462156,143.8276450096164 183.07141785451677,130.7402971968113 182.68252063018735,129.6144748715451 181.8075018755626,129.6144748715451 181.15123780956492,126.74360717111267 180.44636159040965,127.02506610823912 179.01230307586957,126.82804488239344 178.21020255074836,123.59124748004251 178.04006001504604,119.42557412854512 176.7032258064719,114.6968958012003 155.87291822966654,115.42872036187327 156.7479369842913,121.1425146755646" stroke="#4DD2FF" stroke-linecap="round" stroke-linejoin="round" stroke-width="0.5"><title>2025-06-08 5.0km</title><desc>1749355299000</desc></polyline><polyline fill="none" points="44.20000000001164,171.73325349287188 43.630150753771886,169.06674650713103 33.186791098327376,169.94212089494977 30.046805455815047,170.38653951854212 28.302368987817317,170.38653951854212 22.778320172277745,169.71317738429934 11.799999999988358,170.19799846685783 22.254989231878426,169.71317738429934 28.24422110558953,170.40000672620954 40.83905240491731,169.26875649594876" stroke="#4DD2FF" stroke-linecap="round" stroke-linejoin="round" stroke-width="0.5"><title>2025-06-07 5.3km</title><desc>1749293029000</desc></polyline><polyline fill="none" points="80.19999999995343,171.68353129377647 79.72164205979789,169.1164687062119 64.93921498017153,170.46756047511008 58.942239827127196,169.77850539359497 47.79999999998836,170.237875845909 58.89557075977791,169.7514835526963 64.22751170326956,170.46756047511008 75.6497659344459,169.4272210324125" stroke="#4DD2FF" stroke-linecap="round" stroke-linejoin="round" stroke-width="0.5"><title>2025-06-05 5.1km</title><desc>1749128617000</desc></polyline><polyline fill="none" points="84.2535433070152,170.19492072165303 83.79999999998836,167.22420582301856 83.97007874009432,167.09290224240976 96.68346456688596,166.64975186750235 99.07874015741982,175.43046717709512 111.63622047239915,175.26634604779247 116.19999999995343,174.98733974412607 112.44409448822262,175.11863688837911 111.74960629921407,165.36953282289323 99.73070866137277,166.07529586275632 97.15118110232288,165.99323055190325 97.3779527558363,166.64975186750235 90.71653543302091,166.84670774026017" stroke="#4DD2FF" stroke-linecap="round" stroke-linejoin="round" stroke-width="0.5"><title>2025-06-03 5.2km</title><desc>1748952979000</desc></polyline><polyline fill="none" points="146.59374864568235,160.74123152967513 145.8830003288458,159.6892464035991 145.379178737232,158.58517117143492 145.05529342836235,158.28311077722174 144.25457697018282,158.21019951396738 143.6427936089458,157.50191596641525 143.36389237071853,156.57489038397762 142.9500389204477,155.9395084470234 142.4552141429158,154.1999999999971 141.024720695219,154.81456025593798 140.35895644914126,154.8874739395833 138.63156813487876,155.53327858294506 137.89382937573828,156.48114575622458 137.89382937573828,156.72071518971643 134.90688708244124,160.52250283979083 134.888893454161,160.74123152967513 134.07018336770125,161.86611454805825 133.35943505098112,162.52229059704405 133.23347965307767,162.40772047908104 132.72965806134744,162.8451693302195 132.39677593833767,162.64727603400388 132.38777912425576,162.83475390313106 132.34279505349696,162.56395242635335 132.8106293886085,162.89724644983653 132.73865487554576,163.27220092844072 131.65903717913898,164.46996297363512 129.81469028117135,164.88657257216255 129.81469028117135,164.69909846279188 129.6887348832679,164.92823343872442 129.18491329165408,165.04280073429254 128.74406939890468,164.91781822366465 128.0063306397642,164.98030949805252 127.88037524180254,164.86574213253334 127.58348037535325,165.03238553091796 126.69279577583075,164.71992893633433 126.57583719206741,163.35552395927516 126.23395825485932,163.05347764957696 124.55155401135562,163.48050837835035 123.92177702183835,163.8658760426042 124.6415221527568,166.98001012661553 125.7751207339461,170.45856289219228 128.16827329422813,179.8104927483946 128.5011554172379,180.7789622689961 131.3261550561292,186.49586985327915 131.68602762155933,186.59999999999854 132.92758797243005,186.20430487904378 133.77328850125195,186.45421776494914 135.32074053271208,186.1314135057546 135.29375009023352,185.51704129717837 135.70760354056256,185.4024969183447 136.45433911390137,185.7461296704496 137.021138404496,185.47538881062792 137.25505557202268,185.8190213180642 138.71253946213983,186.1418265622342 139.56723680510186,185.98563060345623 140.430930962204,185.34001811221242 140.5838768025278,184.1216737715149 141.23164742038352,183.2261293691554 141.06070795177948,182.33057713238668 141.2676346768858,181.89321156467486 140.8267907841946,181.40377645186527 140.54788954602554,180.67482620105147 140.43992777634412,179.59180481431395 141.024720695219,179.12318623941246 141.9154052946833,179.48766753864038 142.4102300722152,179.45642633525858 142.53618547011865,178.77953125423664 142.32925874501234,177.9464234709303 142.1583192764083,177.87352621726313 142.32925874501234,177.7902150066584 142.13132883398794,177.7277315541869 142.29327148839366,177.82145671858598 142.3112651167321,177.33200213614327 142.07734794920543,176.79047518986772 141.01572388107888,176.71757711291139 140.52089910354698,176.34267189700768 140.7278258286533,174.92635090997646 141.5735263575334,173.47876729475684 142.22129697533092,172.76017501761817 142.51819184183842,172.65603079072753 143.156965645554,171.77080058300635 144.28156741260318,170.69809959913255 145.2802137817489,169.4483366983768 144.99231572938152,168.86510878780246 144.10163112985902,168.85469397348788 143.98467254609568,168.51100450602098 144.32655148330377,167.6882280610298 144.72241130529437,167.3132897651667 145.09128068492282,167.36536461063952 145.24422652518842,167.1778950429507 144.9293380304589,166.45925851809443 145.35218829481164,165.57397470114665 145.74804811686045,165.34484117126703 146.08093023992842,165.4802383191127 146.03594616922783,165.23027421394363 147.03459253837354,164.77200510168768 147.12456067971652,164.4907934938674 147.9972516509588,163.95961390359298 148.07822297821986,163.19929322078679 146.93562758283224,161.02245344383846 146.75569130008807,160.93912851281493" stroke="#4DD2FF" stroke-linecap="round" stroke-linejoin="round" stroke-width="0.5"><title>2025-06-02 11.5km</title><desc>1748829019000</desc></polyline><polyline fill="none" points="188.20000000001164,171.91515625508328 187.6064945878461,168.8848437449342 170.48925895086722,170.47810830746312 163.39417152368696,169.6658578550414 155.79999999998836,169.9938825943973 163.48859283921774,169.6346173670463 169.7069109075237,170.44686798505427 187.57951706909807,168.9004640661733 188.18651124060852,171.82143614746747" stroke="#4DD2FF" stroke-linecap="round" stroke-linejoin="round" stroke-width="0.5"><title>2025-06-01 4.9km</title><desc>1748740054000</desc></polyline><polyline fill="none" points="44.20000000006985,226.81339200936782 44.0826795414323,227.06246372961323 43.84803862404078,226.88132068807317 43.065902233007364,222.53384338215983 18.350392275257036,224.68494955704955 16.06264333135914,218.27685608359752 15.964876282494515,210.21552897416404 15.417380808736198,207.1811334346712 11.800000000046566,195.3375362703955 14.185515992809087,203.26353161717998 14.830778515548445,204.48637428459188 15.886662643402815,209.03800726871123 16.9425467713736,209.33238828026515 15.847555823856965,209.30974360097025 16.06264333135914,217.52961053524632 16.80567290284671,220.58650825126097 18.09619794820901,223.77922317985212 18.428605914348736,223.98301193668158 29.026554013369605,222.89613640696916 29.31985515996348,223.75657997315284 37.747374773724005,222.94142299356463" stroke="#4DD2FF" stroke-linecap="round" stroke-linejoin="round" stroke-width="0.5"><title>2025-05-31 5.5km</title><desc>1748696141000</desc></polyline><polyline fill="none" points="77.92779220791999,220.1416154284525 77.19142857159022,215.39075136044994 50.53506493521854,217.77837689928128 48.07350649358705,210.76161349698668 47.800000000046566,202.30711453892582 56.84675324673299,202.40457444406638 47.92623376636766,202.25838457152713 48.09454545460176,210.63979286891117 48.746753246872686,213.24674075830262 50.38779220788274,216.99874669242126 73.99350649362896,214.73293197067687 76.09740259754471,214.61111336643808 76.20259740273468,215.5125695673196 80.20000000006985,215.195842100351" stroke="#4DD2FF" stroke-linecap="round" stroke-linejoin="round" stroke-width="0.5"><title>2025-05-29 5.0km</title><desc>1748526381000</desc></polyline><polyline fill="none" points="103.4402535657864,208.01914874024806 102.72139461175539,202.1325475249614 114.89064976235386,201.53793473591213 116.20000000006985,206.3245332938386 114.78795562603045,201.6568573906261 102.6700475437101,202.2217393387109 103.00380348658655,205.1650538952672 102.54167987336405,202.25146993724047 85.2377179081086,203.8569177587924 87.83074484951794,216.8488278456789 88.83201267838012,219.88118124354514 88.16450079239439,220.29738415210159 89.21711568941828,223.0918740183697 87.80507131537888,219.40552004956407 84.31347068143077,203.916378619615 90.37242472276557,203.0541949525068 101.33502377185505,202.37039230114897 101.206656101509,201.508204064623 85.10935023776256,202.6082368834468 84.21077654522378,199.30812598165357 83.80000000004657,199.6648965277709 84.00538827269338,202.84608127176762 96.1489698891528,201.6568573906261" stroke="#4DD2FF" stroke-linecap="round" stroke-linejoin="round" stroke-width="0.5"><title>2025-05-27 6.0km</title><desc>1748352132000</desc></polyline><polyline fill="none" points="147.88246013660682,213.61444819390454 148.0116173120332,213.52898293500766 147.59646924823755,211.4564290723647 136.68268792709569,212.5033943928065 135.41879271069774,212.52476092311554 130.87061503418954,211.9905963587953 120.00296127563342,212.47134458919027 119.79999999998836,208.92443910147995 121.09157175396103,208.78555180608964 122.87209567194805,208.91375546991912 122.88132118451176,211.9905963587953 131.13815489748958,211.65941296186793 136.1568337129429,212.15084601390117 147.57801822322654,211.01840986617754 152.00626423687208,210.85815847973572 152.19999999995343,211.21071120646957 152.07084282458527,211.25344478974876 147.98394077445846,211.4243789485845" stroke="#4DD2FF" stroke-linecap="round" stroke-linejoin="round" stroke-width="0.5"><title>2025-05-25 7.6km</title><desc>1748179850000</desc></polyline><polyline fill="none" points="188.17876802093815,212.98870739593985 188.09384010487702,212.28798501934216 187.67981651372975,212.28798501934216 187.41441677586408,210.9725828983428 187.20209698553663,210.67753746229573 176.9576671035611,211.55037812000955 175.28034076018957,211.85771487622696 168.54980340757174,211.2307470628366 155.9804718217929,211.7962475876484 155.79999999998836,209.6571664320727 158.9211009174469,209.4112926040616 158.8998689383734,211.20616002338647 159.31389252952067,211.25533409730997 168.1357798165409,210.87423449988273 174.52660550456494,211.4274431982558 187.79659239843022,210.14891258448188 188.20000000001164,212.85348058761883" stroke="#4DD2FF" stroke-linecap="round" stroke-linejoin="round" stroke-width="0.5"><title>2025-05-24 6.6km</title><desc>1748094255000</desc></polyline><polyline fill="none" points="44.20000000001164,253.4436446589243 43.84754230460385,250.55635534106113 30.506365834036842,251.69011439295718 28.65269943594467,252.00756537445704 26.53795326349791,252.03779876577028 20.441740531823598,251.29707890305144 11.799999999988358,251.6447641972627 20.402578565699514,251.2819621326489 26.459629331191536,252.05291545917862 40.283803384401836,250.88892556118662" stroke="#4DD2FF" stroke-linecap="round" stroke-linejoin="round" stroke-width="0.5"><title>2025-05-18 4.7km</title><desc>1747565909000</desc></polyline><polyline fill="none" points="75.98883481242228,253.16007028983586 75.63635843113298,251.08698414618993 66.24008016026346,251.88185101107229 64.67248783278046,252.16112713498296 63.41099341533845,252.15038575926883 59.11634697963018,251.5918327144609 47.86492985970108,252.10742024556384 47.79999999998836,251.78517833419028 54.13529916974949,251.37700383206538 58.42994560545776,251.30181361977884 63.448096192325465,252.10742024556384 75.75694245629711,251.0117937269606 79.90317778405733,250.83992971017142 80.070140280528,250.8614127276087 80.0979673632537,251.0117937269606 80.19999999995343,250.94734475352016" stroke="#4DD2FF" stroke-linecap="round" stroke-linejoin="round" stroke-width="0.5"><title>2025-05-17 5.7km</title><desc>1747487200000</desc></polyline><polyline fill="none" points="114.42943757475587,250.6605494911346 110.13873155164765,250.88504057236423 108.0450737933279,251.2591916116653 98.42975668126019,251.99252488331695 92.40725967288017,251.21429353729764 83.79999999998836,251.55851175672433 92.29094535298645,251.24422558842343 98.19712804147275,251.9775589347555 115.35995213396382,250.48095637907682 115.92859992024023,253.38435142944218 116.20000000001164,253.51904362090863" stroke="#4DD2FF" stroke-linecap="round" stroke-linejoin="round" stroke-width="0.5"><title>2025-05-11 5.0km</title><desc>1746965499000</desc></polyline><polyline fill="none" points="152.19999999995343,253.16407934459858 151.6770444762078,250.83592065540142 136.97618364408845,252.16822458259412 131.00286944041727,251.48188787471736 119.79999999998836,251.952903646481 130.72395982779562,251.49534549147938 136.30215208028676,252.16822458259412 151.7700143471593,250.86283601929608" stroke="#4DD2FF" stroke-linecap="round" stroke-linejoin="round" stroke-width="0.5"><title>2025-05-10 5.3km</title><desc>1746870058000</desc></polyline><polyline fill="none" points="188.1292576418491,251.4538606959104 188.0467248907662,251.22174985667516 188.19999999995343,251.39924641695688 187.57510917028412,251.50847495255584 173.13187772926176,252.7782501433394 167.01266375539126,252.0546162946266 155.79999999998836,252.51883468477172 166.95371179038193,252.0546162946266 169.81877729250118,252.28672569079208 172.42445414845133,252.76459671065095 184.25021834060317,251.69962467557343" stroke="#4DD2FF" stroke-linecap="round" stroke-linejoin="round" stroke-width="0.5"><title>2025-05-05 5.4km</title><desc>1746434825000</desc></polyline></svg>