<?xml version="1.0" encoding="utf-8" ?>
<svg baseProfile="full" height="300mm" version="1.1" viewBox="0,0,200,300" width="200mm" xmlns="http://www.w3.org/2000/svg" xmlns:ev="http://www.w3.org/2001/xml-events" xmlns:xlink="http://www.w3.org/1999/xlink"><defs /><rect fill="#222222" height="300" width="200" x="0" y="0" /><text fill="#FFFFFF" style="font-size:12px; font-family:Arial; font-weight:bold;" x="10" y="20">Over 3km Runs</text><text fill="#FFFFFF" style="font-size:4px; font-family:Arial" x="10" y="280">Runner</text><text fill="#FFFFFF" style="font-size:9px; font-family:Arial" x="10" y="290">tang-hi</text><text fill="#FFFFFF" style="font-size:4px; font-family:Arial" x="65" y="280">SPECIAL TRACKS</text><rect fill="yellow" height="2.6" width="2.6" x="65" y="283" /><text fill="#FFFFFF" style="font-size:3px; font-family:Arial" x="70" y="285.5">Over 20.0 km</text><rect fill="red" height="2.6" width="2.6" x="65" y="287" /><text fill="#FFFFFF" style="font-size:3px; font-family:Arial" x="70" y="289.5">Over 40.0 km</text><text fill="#FFFFFF" style="font-size:4px; font-family:Arial" x="120" y="280">STATISTICS</text><text fill="#FFFFFF" style="font-size:3px; font-family:Arial" x="120" y="285">Number: 69</text><text fill="#FFFFFF" style="font-size:3px; font-family:Arial" x="120" y="290">Weekly: 3.6</text><text fill="#FFFFFF" style="font-size:3px; font-family:Arial" x="141" y="285">Total: 364.1 km</text><text fill="#FFFFFF" style="font-size:3px; font-family:Arial" x="141" y="290">Avg: 5.3 km</text><text fill="#FFFFFF" style="font-size:3px; font-family:Arial" x="167" y="285">Min: 3.2 km</text><text fill="#FFFFFF" style="font-size:3px; font-family:Arial" x="167" y="290">Max: 11.5 km</text><polyline fill="none" points="22.82147226043162,31.200000000004366 22.782723568874644,32.89483616056532 22.348738223750843,35.86296287882578 22.178243981004925,36.2216421273406 21.98450052336557,38.36472026653064 21.48076753341593,41.31473017385724 21.527265963261016,41.67338727110473 20.984784281870816,45.51989303097071 21.00028375844704,46.51511548453709 21.69001046771882,52.80000000000291 22.14724502779427,52.73724302174378 21.83725549551309,49.312437440865324 21.411019888706505,46.793058490198746 21.380020935466746,45.77094119430694 22.627728802792262,36.75069135844387 22.813722522114404,36.23957605149917 22.751724615693092,36.00643475312245 23.01521571810008,34.168183715242776" stroke="#4DD2FF" stroke-linecap="round" stroke-linejoin="round" stroke-width="0.5"><title>2025-09-11 5.0km</title><desc>1757592265000</desc></polyline><polyline fill="none" points="47.567984669905854,52.71263905284286 47.73575761364191,52.625278025792795 47.76092355520814,51.99433490270167 47.95386244051042,51.85843891535478 48.071303501114016,51.169249145918 48.33135156388744,48.713363480848784 48.85144768943428,45.79145677824272 48.91855686693452,43.77227965028578 48.03774891232024,36.753365474673046 47.55959602270741,35.85048014073254 47.64348249454633,35.695144168690604 48.05452620671713,35.724269682694285 47.86997596861329,33.88934494757996 47.458932256442495,33.3553655164651 47.5176527867734,32.38448617168615 47.08144313306548,31.200000000004366 47.50926413957495,32.25827113165724 47.46732090364094,33.40390922452207 47.86997596861329,33.85051018055674 48.04613755954779,35.75339518783585 47.63509384737699,35.695144168690604 47.55959602270741,35.82135466523323 47.84481002704706,36.19998515381303 48.07969214828336,36.91840810735448 48.440403977321694,40.78226587209065 48.91855686693452,43.90818714312627 48.85144768943428,45.90794646393624 47.84481002704706,52.74175937745895 47.66025978894322,52.80000000000291" stroke="#4DD2FF" stroke-linecap="round" stroke-linejoin="round" stroke-width="0.5"><title>2025-09-09 5.2km</title><desc>1757417515000</desc></polyline><polyline fill="none" points="74.75559871742735,31.19999999999709 74.69360087395762,31.881525331940793 74.87184467396582,31.926362340309424 74.76334844788653,33.02934557369008 74.35261273480137,35.76432583171845 74.15111974347383,36.31131171362358 73.89537863913574,39.082056977385946 73.4458942739002,41.36852883395477 73.48464292605058,41.843748884508386 72.96541098688613,45.51989303332084 72.94991152602597,46.61374052432802 73.25215101303183,49.420024978557194 73.66288672605879,52.74620830708591 74.11237109132344,52.80000000000291 74.09687163043418,52.450353410509706 74.33711327394121,52.22622025326564 74.33711327394121,52.10070543673646 73.96512621303555,51.83174451493687 73.3683969695121,45.75300920864538 74.54635599569883,37.25283685014438 74.80209710006602,36.36511342055019 74.72459979570704,36.02436872285034 75.05008847397403,33.666020677359484" stroke="#4DD2FF" stroke-linecap="round" stroke-linejoin="round" stroke-width="0.5"><title>2025-09-07 5.0km</title><desc>1757247375000</desc></polyline><polyline fill="none" points="99.43079735303763,52.73118653970596 99.62619527665083,52.80000000000291 99.6771686479915,52.11186319465196 99.92353994294535,51.7383011647762 100.73911388480337,46.282165012322366 100.89203399891267,44.19793807549286 99.96601775239105,36.61765854815167 99.47327516254154,35.68360114467214 99.55823078146204,35.55578206129576 99.96601775239105,35.624607742567605 99.78761095262598,33.70730258058029 99.38831954356283,33.18618229880667 99.43079735303763,32.20292883484217 99.10796600105823,31.200000000004366 99.43079735303763,32.10460293845972 99.3968151054869,33.176349813657 99.79610651449184,33.64830797268223 99.99150443807594,35.60494326719345 99.54123965770123,35.52628532574454 99.49876184819732,35.66393668130331 99.81309763828176,36.13588269834145 100.01699112376082,36.85362951719435 100.3228313519503,40.18665794681874 100.88353843704681,44.00131057438557 100.88353843704681,45.17123831948993 100.29734466629452,49.35926702341385 99.87256657157559,52.03321867663908 99.6771686479915,52.30847420992359" stroke="#4DD2FF" stroke-linecap="round" stroke-linejoin="round" stroke-width="0.5"><title>2025-09-04 5.0km</title><desc>1756985562000</desc></polyline><polyline fill="none" points="126.63839387215558,31.254051603697008 126.7318173655949,31.19999999999709 126.78631440349272,31.326120357356558 126.75517323901295,31.866634142497787 126.84081144136144,31.866634142497787 126.77852911237278,32.83955065172631 126.35812339172116,35.57807313747617 126.07785291125765,36.67706166872085 126.11677936685737,37.10944686536095 125.44724433022202,41.23501625612698 125.48617078587995,41.613333973313274 124.9567709894327,45.34237940765888 125.00348273618147,47.17081541704829 125.64187660833704,52.79099358996609 126.00778529111994,52.80000000000291 126.0856382023776,52.69192301910516 125.71972951956559,49.503592849687266 125.81315301306313,49.29643749012757 125.56402369707939,48.12555027632334 125.33825025448459,45.657629684501444 125.76644126631436,42.29790478797804 125.99221470890916,41.44219044400961 126.41262042956077,37.70397306820087 126.64617916324642,36.34376330731902 126.77852911237278,36.16360150925175 126.70067620114423,35.92038250123005 127.0432290105673,33.37104682804784" stroke="#4DD2FF" stroke-linecap="round" stroke-linejoin="round" stroke-width="0.5"><title>2025-09-02 5.1km</title><desc>1756811867000</desc></polyline><polyline fill="none" points="152.62700669438345,31.200000000004366 152.59565635965555,32.787079646252096 152.18026442461996,35.68002651362622 151.9216241631948,36.66850410892221 151.92946174685494,37.43932766544458 151.29461746884044,41.30241369862779 150.80084969699965,45.664054068322 150.83220003169845,46.98791939225339 151.45136914242175,52.056510006063036 152.0627006694267,52.80000000000291 151.9216241631948,52.727464663294086 151.81189799169078,51.86610303654743 151.57677048127516,49.6174566918271 151.63947115070187,49.39077549146896 151.2240792157245,46.734028933416994 151.20840404834598,45.455498152463406 152.47025502077304,36.532475731561135 152.64268186173285,36.16973237849015 152.73673286588746,34.60085040204285 153.19915030300035,32.09783709511248" stroke="#4DD2FF" stroke-linecap="round" stroke-linejoin="round" stroke-width="0.5"><title>2025-08-31 5.1km</title><desc>1756640573000</desc></polyline><polyline fill="none" points="178.6950439303764,31.200000000004366 178.7649366160913,32.943290499199065 178.283453669952,35.953530823782785 178.12037073654938,36.22309958601545 178.04271219685324,36.76223464580107 177.97281951113837,38.137014174491924 177.5379316887993,41.11113729879435 177.421443879226,41.308809612201 177.4680390030553,41.740093126456486 176.9399609330867,45.44185682100215 176.9710243489826,46.96923845096899 177.5845268126286,52.29689858575148 178.17473171435995,52.80000000000291 178.0504780508345,52.60235335692414 177.74760974603123,49.16143424202164 177.36708290147362,46.870408672766644 177.36708290147362,45.172316149233666 177.96505365718622,41.542421776735864 178.40770733347745,37.75064038726123 178.7649366160913,36.26802763316664 178.71057563830982,35.9265739023831 179.0600390669424,33.32069938119821" stroke="#4DD2FF" stroke-linecap="round" stroke-linejoin="round" stroke-width="0.5"><title>2025-08-30 5.0km</title><desc>1756550382000</desc></polyline><polyline fill="none" points="21.56339825008763,76.79028449801262 21.85726481254096,76.80000000000291 22.797637812502217,70.26124390440236 22.931976812455105,68.0750815565334 22.377828437514836,64.16901368534309 22.142735187517246,61.215065306969336 22.000000000058208,60.56401835239376 21.571794437564677,59.89353252444562 21.630567750078626,59.73805687796266 22.067169500049204,59.806077504414134 21.85726481254096,57.833459679211956 21.47104018754908,57.43504423969716 21.49622875006753,56.25922313508636 21.068023187574,55.200000000004366 21.50462493757368,56.307811070626485 21.45424781256588,57.38645687732787 21.85726481254096,57.86261196323903 22.050377125036903,59.786643044659286 21.630567750078626,59.74777411326795 21.571794437564677,59.87409808247321 21.92443431256106,60.427978130021074 22.151131375023397,61.360821480237064 22.394620812527137,64.42164976904314 22.931976812455105,67.93905202479073 22.83122256252682,69.99890706250153 21.974811437510652,75.87702290394373" stroke="#4DD2FF" stroke-linecap="round" stroke-linejoin="round" stroke-width="0.5"><title>2025-08-28 5.0km</title><desc>1756381580000</desc></polyline><polyline fill="none" points="48.730832609231584,55.200000000004366 48.90870721259853,56.12173204022838 48.87777249896317,56.962915968535526 48.39828443786246,59.96963539333956 48.22814351294073,60.282829430900165 48.20494247772149,61.26714629920025 47.52437877806369,65.27588684019429 47.5785145269474,65.78591440842865 47.06035807376611,69.15918029746535 47.02168968177284,70.52813465266081 47.14542853622697,70.67129204966477 47.099026465788484,71.25286658325786 47.6867860245693,76.3258232108492 48.336415010591736,76.80000000000291 48.12760569364764,76.61211893588188 47.40837360199657,70.6891867079321 47.377438888390316,69.53497380699991 47.91106269831653,65.76801875426463 48.04253523124498,65.58011416606314 48.166274085699115,64.00527900485031 48.70763157404144,60.90921416519268 48.66896318201907,60.48864204921847 48.815903071692446,60.29177781560429 48.75403364445083,60.02332587887213 48.97831031822716,58.48418564865278" stroke="#4DD2FF" stroke-linecap="round" stroke-linejoin="round" stroke-width="0.5"><title>2025-08-26 5.0km</title><desc>1756206850000</desc></polyline><polyline fill="none" points="74.67951249846374,55.200000000004366 74.69504421268357,55.93685893970542 74.81929792673327,55.963817077179556 74.74940521261306,56.880388861944084 74.31451721358462,59.86367438639718 74.16696592819062,60.1961427460119 73.98835121432785,62.21788289219694 73.45250707268133,65.26388412413507 73.36708264431218,66.67453352676239 72.97102393093519,69.32505596307601 73.0409166450554,71.32861853135546 73.63888764369767,76.67422491453908 73.66218521507108,76.80000000000291 74.12813664259738,76.74609641382267 73.79420478621614,73.26026146084041 73.38261435856111,70.88837773071282 73.34378507290967,69.6844427225733 73.84079992896295,66.00964425408165 74.01941464285483,65.49749640733353 74.61738564143889,60.600494472113496 74.79600035533076,60.241070806834614 74.73387349833502,59.95353082304791 75.02897606909391,57.7160783868967" stroke="#4DD2FF" stroke-linecap="round" stroke-linejoin="round" stroke-width="0.5"><title>2025-08-24 5.0km</title><desc>1756042259000</desc></polyline><polyline fill="none" points="99.72463362087728,76.80000000000291 99.96557920260238,76.4514900826398 100.80028353934176,70.76562463909067 100.95517712761648,68.26612929299154 100.49910156219266,65.38814530587115 100.04302599673974,60.99631819346541 99.54392443463439,59.98049340520811 99.66439722548239,59.84106565118418 100.03442079739762,59.88090217259014 99.84510641175439,57.92889356867818 99.43205684307031,57.460804089467274 99.50089843783644,56.45490210688149 99.0362176730705,55.200000000004366 99.47508283983916,56.265671866385674 99.44926724175457,57.47076346336689 99.86231681046775,57.95877154457412 100.0602363954531,59.890861300395045 99.95697400331846,59.99045252288488 99.59555563065805,59.8609839139026 99.59555563065805,60.00041163955029 99.93115840526298,60.607915841981594 100.1204727908771,61.34488309494918 100.34420797394705,64.05368805256148 100.96378232695861,68.36571200061007 100.82609913736815,70.63617027067085 99.879527209152,76.72034069961228" stroke="#4DD2FF" stroke-linecap="round" stroke-linejoin="round" stroke-width="0.5"><title>2025-08-23 5.0km</title><desc>1755956696000</desc></polyline><polyline fill="none" points="126.76256407774054,55.200000000004366 126.77038524774252,55.79730542909965 126.87206045811763,55.90590598586277 126.83295460799127,56.810905475882464 126.36368440630031,59.72494136221212 126.19161866567447,60.0959763568535 125.79273899423424,63.81529054776183 125.58938857354224,65.04597832779837 125.45642868304276,65.17266581064177 125.51899804332061,65.61607058211666 124.95587380128563,69.87807329295174 125.67542144385516,76.65523318108171 125.69888495391933,76.76380831730785 126.12122813542373,76.80000000000291 125.34693230266566,69.69710067675624 126.51228663683287,61.22717107065546 126.66088886736543,60.30411726255261 126.8016699278669,60.13217481014726 126.73910056764726,59.78828890971636 127.04412619871437,57.435349762716214" stroke="#4DD2FF" stroke-linecap="round" stroke-linejoin="round" stroke-width="0.5"><title>2025-08-21 5.0km</title><desc>1755781186000</desc></polyline><polyline fill="none" points="152.60210460060625,55.200000000004366 152.62541187551687,56.872098373445624 152.15926637823577,59.87460430718056 151.99611545418156,60.189232264936436 151.92619362959522,60.71960257567116 152.0116536374262,60.98029190211673 151.28912811671034,65.24110514279164 151.33574266644428,65.6905460555281 150.82298261942924,69.37587545426504 150.85405898591853,70.93085865658213 151.50666268207715,76.80000000000291 151.9572699960845,76.71911095663381 151.64650633124984,73.31271637571626 151.2425135669764,70.88591732888017 151.2192062920949,69.16914152613754 151.72419724744395,65.73549002125947 151.85627180500887,65.53773640128202 152.39233912687632,61.070184595249884 152.6487191503693,60.20721097158821 152.65648824197706,59.218376680946676 153.17701738059986,55.910196180564526" stroke="#4DD2FF" stroke-linecap="round" stroke-linejoin="round" stroke-width="0.5"><title>2025-08-19 5.3km</title><desc>1755607955000</desc></polyline><polyline fill="none" points="177.7659594445431,76.69360807433259 178.14209605150972,76.80000000000291 178.14209605150972,76.08427020936506 178.28419210304855,75.76509167564654 178.4597225196485,73.55982892544125 178.96959658685955,70.22282102485042 178.91944503926788,68.03677560450888 178.35106083319988,64.37068405092577 178.09194450394716,61.352581829320116 177.93313126984867,60.55934676749166 177.52356029787916,59.87251594456029 177.6155048017681,59.708062758225424 178.01671718255966,59.79512624522613 177.84118676593062,57.98612408815097 177.40654002013616,57.3960143392469 177.43997438519727,56.254480172821786 177.03040341314045,55.19999999999709 177.4734087502875,56.302850542546366 177.42325720263761,57.38634037844167 177.81611099213478,57.81199372330593 178.01671718255966,59.78545252837648 177.59878761926666,59.72741020666581 177.55699466291117,59.85316852563119 178.0417929563555,60.96563872293336 178.29255069428473,63.87734696416737 178.9110864480026,68.15285007512284 178.90272785670822,69.14915012458368 178.28419210304855,73.43408872010332 178.10030309518334,73.52113964918681 177.98328281746944,73.81130883774313 177.7659594445431,75.23312507429364" stroke="#4DD2FF" stroke-linecap="round" stroke-linejoin="round" stroke-width="0.5"><title>2025-08-17 5.0km</title><desc>1755429603000</desc></polyline><polyline fill="none" points="21.689341030898504,100.75142248022894 21.5801905823173,100.80000000000291 21.706133407598827,100.67369839725143 21.848868609638885,98.53626135503146 21.96641524657025,97.7881471008368 22.3526399108232,97.46752491413645 22.344243722443935,96.72911821245361 22.864807400328573,93.79486679863476 22.94037309550913,92.47345264273463 22.02518856502138,84.80694683905313 21.54660582888755,83.87409808230586 21.638963900797535,83.76720858075714 22.041980941721704,83.79636027485685 21.865660986339208,81.91119908335531 21.46264394535683,81.40589182515396 21.487832510465523,80.30781107058283 21.059626904461766,79.19999999999709 21.513021075516008,80.32724623788818 21.45424775700667,81.35730444797082 21.857264797959942,81.83345967911009 22.05877331845113,83.78664304447739 21.630567712447373,83.73805687778804 21.571794393938035,83.88381530377956 22.07556569512235,84.92355229337409 22.94037309550913,92.01678320924111 22.931976907129865,93.17302711837692 22.369432287523523,97.31207134562283 21.949622869869927,99.99360997610347 21.773302914458327,100.12962804735434 21.714529595978092,100.53768110003148" stroke="#4DD2FF" stroke-linecap="round" stroke-linejoin="round" stroke-width="0.5"><title>2025-08-16 5.1km</title><desc>1755350047000</desc></polyline><polyline fill="none" points="47.874000501207775,100.74168073586043 47.57160170399584,100.80000000000291 47.71440113600693,100.6542017729953 48.11759953229921,97.6409886584006 48.34439863014268,97.52434624233865 48.293998830602504,97.20357886476268 48.898796425026376,93.63618430482893 48.94079625798622,92.09059602784691 48.033599866350414,84.82891292996646 47.580001670576166,83.91508776991395 47.67240130304708,83.74009897688666 48.04199983298895,83.79842861014913 47.857200568018015,81.8832537195849 47.462402138335165,81.43604999646777 47.521201904455665,80.47358271361736 47.050803775462555,79.20000000000437 47.48760203810525,80.22081192158657 47.479202071524924,81.38744077007141 47.857200568018015,81.84436652236764 48.07559969931026,83.78870700707193 47.63880143669667,83.7498205849115 47.59680160373682,83.88592299332231 47.958000167040154,84.46921683487017 48.109199565660674,85.05250711782719 48.377998496522196,88.1730496888922 48.90719639163581,91.69204405620985 48.94919622456655,93.10154967640847 48.31079876379226,97.19385862438503 48.36119856333244,97.48546540539246 48.09239963252912,98.98236621914111 47.874000501207775,99.47808794841694" stroke="#4DD2FF" stroke-linecap="round" stroke-linejoin="round" stroke-width="0.5"><title>2025-08-14 4.9km</title><desc>1755170321000</desc></polyline><polyline fill="none" points="74.88231242704205,79.2180699464443 74.69491863719304,79.19999999999709 74.74957515925053,80.83531528319145 74.29670683384757,83.90709694234101 74.13273726776242,84.23233819998859 74.13273726776242,85.08157365376246 73.67206086780061,88.32485570999415 73.52370745089138,89.21018792306131 73.40658633221756,89.28245955142484 73.47685900342185,89.73415589814249 72.93810185769689,93.44701295073173 72.98495030513732,95.02786611707415 73.640828569507,100.72773772773508 74.085888820322,100.80000000000291 73.32069751189556,93.64575032120774 74.59341366772423,84.62985367725923 74.77299938295619,84.25944158440689 74.69491863719304,83.94323491860996 75.06189814230311,81.37740211007622" stroke="#4DD2FF" stroke-linecap="round" stroke-linejoin="round" stroke-width="0.5"><title>2025-08-12 5.0km</title><desc>1754999139000</desc></polyline><polyline fill="none" points="100.5824328395538,79.27237055647856 100.68406541558215,79.19999999999709 100.69188330607722,80.72881550067541 100.20717409727513,83.84064287657384 100.04299839754822,84.14820130456064 99.8788226978213,86.2377613213248 99.36284192718449,89.26798852047068 98.83904326611082,93.63676147720253 98.88595060887747,94.97539021790726 99.43320294137811,99.50668009934452 100.00390894524753,100.80000000000291 99.23775567975827,93.69103060119232 100.39480346845812,85.34224160398298 100.6762475251162,84.18438457915909 100.60588651095168,83.931101348011 100.9342379104346,81.48869036129327 101.16095673391828,80.56598432963801" stroke="#4DD2FF" stroke-linecap="round" stroke-linejoin="round" stroke-width="0.5"><title>2025-08-10 5.0km</title><desc>1754830447000</desc></polyline><polyline fill="none" points="125.69284835361759,100.80000000000291 126.86254914407618,93.8375021573811 126.938285166485,92.20148519938084 126.3155667600513,87.88733031826268 126.0210377840267,84.74167278670211 125.54979142238153,83.90411188018334 125.61711233120877,83.72880750771583 126.04628312482964,83.81645973406557 125.86115062562749,81.88809222404961 125.45722517278045,81.4108639681217 125.48247051355429,80.32004759612755 125.05329971993342,79.20000000000437 125.49930074080476,80.35900553761894 125.46564028636203,81.42060334406415 125.86115062562749,81.8978315514396 126.0631133519928,83.78724233420508 125.63394255837193,83.76776406266436 125.58345187676605,83.87489450706926 126.0631133519928,84.90723628499836 126.45020857764757,88.73459502817423 126.90462471207138,91.51980322126474 126.94670028006658,93.06818813908467 125.97054710242082,99.98205445134954 125.70126346717007,100.26444120366068" stroke="#4DD2FF" stroke-linecap="round" stroke-linejoin="round" stroke-width="0.5"><title>2025-08-09 5.0km</title><desc>1754735080000</desc></polyline><polyline fill="none" points="152.6486129325931,79.20000000000437 152.6955006144708,80.71913325694186 152.3907306822657,83.10629027030518 152.0,84.75194456340978 151.91403924991027,86.24385759914003 151.39046013561892,89.29994077352603 151.42171859022346,89.77009810354502 150.89032486235374,93.35044554945489 150.87469563505147,94.58002660873171 151.54675240858342,100.29373933830357 152.07033152278746,100.80000000000291 151.3044993855292,94.9055011056189 151.34357245377032,92.9797596929202 152.46106220508227,85.29446128792188 152.6017252507154,84.41739093494834 152.73457368268282,84.24559263707488 152.67205677353195,83.87486886441911 153.12530436494853,80.80955703785003" stroke="#4DD2FF" stroke-linecap="round" stroke-linejoin="round" stroke-width="0.5"><title>2025-08-07 5.0km</title><desc>1754570205000</desc></polyline><polyline fill="none" points="178.37434658943675,79.20000000000437 178.42264937519212,79.81481808461103 178.58365866096574,79.88002582146146 178.52730541097117,80.31784799612797 178.96203048259486,80.38305537519045 179.01033326832112,80.7836139717765 178.56755773240002,83.00062757878186 178.43875030378695,84.18363391300227 178.52730541097117,84.50034168010461 178.39044751803158,84.63075044270226 178.13283266080543,86.14906738545687 176.9977171959763,94.40156521791505 177.69810758918175,100.80000000000291 176.98966673170798,94.25254249540012 177.48879551765276,90.48032419478113 177.6739561963186,89.96803566932795 178.1167317322106,86.14906738545687 178.34214473233442,84.74252923445601 178.4870530895132,84.49102676137409 178.43069983948953,84.12774419350899 178.87347537538153,80.86745159613201" stroke="#4DD2FF" stroke-linecap="round" stroke-linejoin="round" stroke-width="0.5"><title>2025-08-05 5.0km</title><desc>1754406000000</desc></polyline><polyline fill="none" points="21.672921033314196,124.80000000000291 22.046725566673558,121.70334582872601 22.27610562121845,121.5263911677539 22.63291903946083,119.12764049445104 22.896281324297888,117.20073211450654 22.913272439473076,116.001310575557 22.293096736393636,111.74422715823312 22.055221124261152,108.91262217042095 21.842832184804138,108.17521142999612 21.520000996941235,107.71309783302422 21.596461015113164,107.56561430524016 22.012743336352287,107.6049432679938 21.817345512099564,105.66797284648055 21.418054306006525,105.24517718910647 21.4520365363569,104.04560735283303 21.086727560556028,103.20000000000437 21.460532093886286,104.17343107661873 21.418054306006525,105.14685235264187 21.83433662727475,105.65814041031263 22.02123889393988,107.59511102880788 21.910796645475784,107.69343337562896 21.503009881824255,107.61477550616837 22.046725566673558,108.76514047222736 22.395043427299242,112.49144242567854 22.913272439473076,116.03080472620059 22.904776881885482,117.24988841766753 21.910796645475784,124.05287981229776 21.85982330000843,124.21999930262973 21.63893880302203,124.22982985187991 21.5539832272043,124.60338998368388 21.316107615071815,124.58372896008223" stroke="#4DD2FF" stroke-linecap="round" stroke-linejoin="round" stroke-width="0.5"><title>2025-08-03 5.0km</title><desc>1754221111000</desc></polyline><polyline fill="none" points="58.80000000000291,112.83135902184404 58.73358954649302,113.10672164130119 58.56202920830401,113.12273102190375 55.191698693306535,113.05549156871166 55.100384319754085,112.99785763749787 54.96756341274886,113.05228968640586 54.538662567254505,113.04908780378173 54.50269023826695,113.01386707340862 53.73620292083069,113.0586934506864 53.3598770176759,113.00105952533158 52.14511913912429,112.99785763749787 51.61936971559771,112.91460843964342 51.262413528049365,112.82175330563405 51.240276710217586,112.7865323211663 50.74496541121334,112.77052276974973 49.65749423518719,112.5784075183492 48.05810914681933,112.56559979327358 44.720983858569525,112.9818481934526 44.26994619522884,113.18997033162668 43.78570330514049,113.3372559372765 42.4851652574871,114.12810383063879 41.796156802462065,114.47709517256044 41.37279016140383,114.59876097044253 41.12375096080359,114.60196269562039 40.808301306693465,114.52512120152642 40.473481936962344,114.66279541224685 40.36003074556356,114.43867429671627 40.22444273636211,114.52832293418578 40.11375864720321,114.32020963463765 38.22936202920391,115.43440020672824 38.08547271329735,115.07261275897508 37.504381245191325,113.96161118659074 37.44903920061188,113.92318968227846 37.19999999999709,114.04485761856267 37.363259031495545,113.91998788814271 37.44350499616121,113.91038250377278 37.46840891621832,113.83033752015035 37.56802459647588,113.83674112631888 37.70084550346655,113.74709052150865 37.73958493466489,113.79191585579792 37.839200614907895,113.72787964444433 37.80599538816023,113.78871404831807" stroke="#4DD2FF" stroke-linecap="round" stroke-linejoin="round" stroke-width="0.5"><title>2025-08-02 8.3km</title><desc>1754134728000</desc></polyline><polyline fill="none" points="74.577355445188,103.20000000000437 74.46110938239144,103.22690241551754 74.39136174472515,103.95326453410962 74.97259205864975,103.95326453410962 74.97259205864975,104.53614339214255 73.03515767888166,117.35850454924366 73.04290741638397,118.71236544987187 73.84888011837029,124.80000000000291 73.08165610401193,118.8827173378595 73.02740794135025,117.5647231127441 74.17436909416574,109.36940592834435 74.46110938239144,108.25750997219438 74.38361200722284,108.0064347533189 74.74784967058804,105.3611345802492" stroke="#4DD2FF" stroke-linecap="round" stroke-linejoin="round" stroke-width="0.5"><title>2025-07-31 5.0km</title><desc>1753965181000</desc></polyline><polyline fill="none" points="99.57233666401589,124.80000000000291 99.66549105400918,124.0160555915063 99.90261131952866,123.73187416961446 100.76640657242388,117.78347079783998 100.85956096241716,115.58825065717247 100.4191947550571,112.9225590003989 99.95342280500336,108.52204642302968 99.5045880167163,107.65956161529175 99.59774240673869,107.5321484326123 99.97035996679915,107.58115352279856 99.80945692950627,105.63073169493146 99.37755930304411,105.16027228034363 99.4283707885188,104.07232608836784 99.08962755210814,103.20000000000437 99.4368393694167,104.09192883111973 99.4029650457669,105.17987480179727 99.80945692950627,105.68953896026505 100.00423429044895,107.56155148972903 99.89414273860166,107.65956161529175 99.55539950216189,107.52234741157008 99.5215251785412,107.66936262237869 100.02964003317175,108.7964717888608 100.32604036503471,112.08951524123404 100.91037244789186,116.29386258187151 100.30063462231192,121.37019616112957 99.85179983408307,124.18264431152056 99.69089679676108,124.25123958320182" stroke="#4DD2FF" stroke-linecap="round" stroke-linejoin="round" stroke-width="0.5"><title>2025-07-29 5.0km</title><desc>1753797916000</desc></polyline><polyline fill="none" points="126.9264486086613,103.20000000000437 126.9108780438255,104.84855908886675 126.5527550522238,107.37088525087165 126.2724848848884,108.20864199515927 126.0856381066842,110.51468419648882 125.5640241841611,113.27104658733151 125.6263064435334,113.75745458687015 125.11247780342819,117.17124307655467 125.143618933158,118.98166861446953 125.782012092066,124.80000000000291 125.1825453452766,119.74726033690968 125.0735513913387,117.82876508239133 125.5718094666081,113.41516775418131 126.2646996024705,109.01035877962568 126.1946320606512,108.7851581677678 126.52939920499921,107.41592613737157 126.9108780438255,104.37111070282845" stroke="#4DD2FF" stroke-linecap="round" stroke-linejoin="round" stroke-width="0.5"><title>2025-07-27 5.0km</title><desc>1753616848000</desc></polyline><polyline fill="none" points="152.6169385756948,103.20000000000437 152.63993007541285,105.09775109581096 152.21841924730688,108.09504961468338 152.0498149160412,108.4142824451992 151.8122360856505,111.02130686266173 151.3830614242761,113.3977102684803 151.4137167572335,113.84992896355106 150.85425693081925,117.53852731685038 151.55166575554176,124.80000000000291 152.01149574987357,124.72907278395724 151.6819509206107,121.1737722694379 151.3064230918826,118.68231582688168 151.291095425433,117.3523277692293 152.3487044123176,109.89515280613705 152.70124074135674,108.40541488234157 152.62460240896326,108.05957922809466 153.14574306918075,104.90265709179221" stroke="#4DD2FF" stroke-linecap="round" stroke-linejoin="round" stroke-width="0.5"><title>2025-07-26 5.2km</title><desc>1753529066000</desc></polyline><polyline fill="none" points="178.74552235973533,103.19999999999709 178.65233206475386,103.66727711300337 178.77658579137642,104.26934206089936 178.62903449102305,105.68912078344874 178.30286845864612,107.89961697184481 178.13201958453283,108.21411397289194 178.1087220107729,109.15759826671274 177.41756065646769,113.29982451531396 177.4719216618396,113.69516785716405 176.95937503955793,117.45982616872061 177.02926776075037,119.46338568533974 177.64277053595288,124.80000000000291 178.0854244370421,124.75508034713857 177.73596083093435,121.49385263142904 177.81361941006617,121.32315145192842 177.37096550897695,118.78954786194663 177.36319965103758,117.58561150899914 179.04062496044207,105.84188042714231" stroke="#4DD2FF" stroke-linecap="round" stroke-linejoin="round" stroke-width="0.5"><title>2025-07-24 5.0km</title><desc>1753356656000</desc></polyline><polyline fill="none" points="21.62114906127681,148.76103279968083 21.730594888009364,148.8000000000029 22.10102691699285,145.72154237441282 22.345175299735274,145.56566847279464 22.286242931499146,145.2636620671401 22.917661162704462,141.35697731620894 22.95975571149029,140.17812096931448 22.328337480226764,136.01790873167192 22.067351278004935,132.9390405359518 21.562216693040682,131.87700292711088 21.63798688078532,131.72110650752438 22.050513458496425,131.7990547490117 21.831621805002214,129.84058596364048 21.46960868575843,129.45083615588374 21.50328432477545,128.39850375573587 21.04024428850971,127.20000000000437 21.461189776018728,128.16465054165747 21.452770866279025,129.41186108793045 21.84004071477102,129.82109851090354 22.058932368265232,131.7405935738425 21.949486541503575,131.84777236774244 21.654824700264726,131.73085004118911 21.562216693040682,131.84777236774244 21.856878534250427,132.26674286636262 22.067351278004935,132.96827076242334 22.446202216728125,136.84606842125504 22.934498982183868,140.0124953622726 22.92608007247327,141.3082645311879 22.008418909768807,147.68942858416995" stroke="#4DD2FF" stroke-linecap="round" stroke-linejoin="round" stroke-width="0.5"><title>2025-07-22 5.0km</title><desc>1753184035000</desc></polyline><polyline fill="none" points="37.199999999953434,141.5624634611886 37.199999999953434,138.096401750925 39.496456086286344,128.39126031968044 58.06779661017936,131.7803855687671 58.79999999993015,132.58914961473783 56.30385208025109,147.57022867209162 39.62958397530019,144.95147092919797 39.03050847456325,144.18124462015112 41.093990754918195,129.20003159838961 41.82619414466899,128.73787679336965 46.25269645615481,129.46962164112483 58.766718027647585,132.24253666360164 56.57010785827879,147.2621404650272 55.87118644057773,147.60873968029045 39.29676425259095,144.79742579261074 39.496456086286344,139.86794836321496 41.12727272731718,129.27705734450137 41.65978428348899,128.81490263334126 49.84714946069289,130.20136507603456 41.49337442219257,128.89192845771322 40.56147919874638,133.12832468663692 41.393528505344875,133.93708585601416" stroke="#4DD2FF" stroke-linecap="round" stroke-linejoin="round" stroke-width="0.5"><title>2025-07-20 4.9km</title><desc>1753020627000</desc></polyline><polyline fill="none" points="75.2415045266971,127.20000000000437 75.0785570575681,128.30436744455073 74.47332360080327,129.8576413865594 73.96120298354072,132.19199018311338 73.82153372425819,134.03249095365027 73.34045072016306,137.11187726538628 73.23181907407707,137.21063131921255 73.28613489714917,137.6505344002362 72.78177368312026,141.28638420697098 72.7584954732738,142.48932381260238 73.44908236624906,148.7910235401141 73.3714883333596,147.5522633340588 73.45684176957002,148.8000000000029 73.89912775720586,148.71023536001303 73.1542250411585,141.6813811062966 74.3414137448417,133.00899769496027 74.58971465018112,132.227902759907 74.62075226334855,131.17745385890885" stroke="#4DD2FF" stroke-linecap="round" stroke-linejoin="round" stroke-width="0.5"><title>2025-07-20 5.0km</title><desc>1752942252000</desc></polyline><polyline fill="none" points="100.9313751849404,127.2096655261048 100.79772493423661,127.20000000000437 100.58889641740825,128.2632019833909 100.82278435624903,128.40818315134675 100.80607807487831,128.7174755712258 100.513718151371,130.6891911100247 100.35500847859657,131.02747153181554 99.94570458566886,134.8837833314392 99.6032258180785,136.45912388776924 99.63663838079083,136.92302288432984 99.04356539304717,141.35894283377274 99.84546689756098,148.8000000000029 99.10203737774282,142.59593810703518 99.08533109643031,140.72111086343648 99.63663838079083,136.98101009989477 99.6115789587493,136.4687884732557 100.22135822783457,132.7961752950505 100.34665533789666,131.01780639360368 100.513718151371,130.66986076388275 100.95643460698193,127.50929634802014" stroke="#4DD2FF" stroke-linecap="round" stroke-linejoin="round" stroke-width="0.5"><title>2025-07-17 5.0km</title><desc>1752765839000</desc></polyline><polyline fill="none" points="135.2675675676437,148.34420429656166 135.75405405415222,147.66868882908602 136.79999999993015,138.85869042470586 121.15945945947897,138.15500434566638 118.3378378378693,138.3801840855158 118.67837837827392,138.15500434566638 118.16756756755058,134.97432096430566 115.27297297294717,130.41433947323821 115.19999999995343,127.85283545544371 115.54054054047447,127.65579570346745 129.13783783791587,127.88098397993599 128.16486486489885,136.74762682401342 127.5567567567341,137.14169325091643 119.06756756757386,136.86021728892229 118.14324324321933,133.904702416301 115.75945945945568,130.864711357106 115.46756756748073,129.26025817796472 118.84864864859264,129.00692261577933 128.69999999995343,129.34470331392367 128.8459459459409,131.45582334313076 127.97027027036529,138.32388916771743 126.65675675671082,138.40833154009306" stroke="#4DD2FF" stroke-linecap="round" stroke-linejoin="round" stroke-width="0.5"><title>2025-07-15 4.1km</title><desc>1752589649000</desc></polyline><polyline fill="none" points="152.8680402453174,127.20000000000437 152.93386320231366,128.73282165628189 152.42373528561438,131.9316730419887 152.24272215389647,132.30296121930587 152.23449428426102,133.24545537052472 151.51044175738934,137.66267538349348 151.54335323590203,138.15769568821997 150.99208597108372,142.26055181449192 151.65031554098823,148.8000000000029 151.2718335382815,146.21092804607179 150.98385810144828,142.05112963294232 152.21803854504833,133.1788146813633 152.1439877184166,132.87417092733085 152.3908238071017,131.99831461803115 152.87626811495284,128.82802714322315 152.8186730275629,128.49480751567899 153.01614189855172,127.48562084310106 152.8351287668629,127.25712423828372" stroke="#4DD2FF" stroke-linecap="round" stroke-linejoin="round" stroke-width="0.5"><title>2025-07-13 5.0km</title><desc>1752418082000</desc></polyline><polyline fill="none" points="177.81241459710873,148.8000000000029 177.70156867726473,148.79013357777148 177.7697815510037,148.01068305471563 178.14495235678623,145.64269371809496 178.36664419656154,145.44535866640217 178.750341611536,142.76156214134244 178.95498023281107,139.988885606057 178.39222402419546,136.1306879061085 178.1023193106812,132.90389328927267 177.93178712623194,132.2723368351144 177.5736695389205,131.69998524848052 177.65040902190958,131.55196273707406 178.05968626454705,131.6111717687454 177.8806274709059,129.73620155871322 177.47135022823932,129.2230455029421 177.49693005593144,128.04869739525748 177.20702534241718,127.2394744620251 177.0279665487178,127.2394744620251 177.18144551469595,127.20000000000437 177.47135022823932,127.92040640475898 177.4628236190183,129.23291391423845 177.83799442477175,129.57830767673295 177.8806274709059,129.77567498906865 178.05968626454705,131.5815672574172 177.64188241271768,131.56183091152343 177.54808971122839,131.6703807642989 177.92326051704003,132.21312820682942 178.0937927014602,132.81508091124851 178.4433836795506,136.65367509600037 178.9720334512822,139.91981436109927 178.96350684206118,141.18282364463812 177.92326051704003,148.28694471546623" stroke="#4DD2FF" stroke-linecap="round" stroke-linejoin="round" stroke-width="0.5"><title>2025-07-12 5.1km</title><desc>1752325602000</desc></polyline><polyline fill="none" points="21.869859014404938,172.8000000000029 21.659954198868945,172.79028449803445 22.13014098565327,169.55496743470576 22.323253415932413,169.4578090728537 22.86060974362772,165.85316406017955 22.944571669853758,164.03621599436156 22.449196305213263,160.7811691968891 22.071367637254298,156.82638109036634 21.567596080014482,155.80607750343916 21.63476562098367,155.69918792584212 22.054575252055656,155.7672085799568 21.861462821776513,153.79458995274035 21.483634153817547,153.376739401363 21.466841768589802,152.06487114561605 21.04703213754692,151.20000000000437 21.49203034641687,152.1717647885671 21.483634153817547,153.36702192495432 21.869859014404938,153.80430738568975 22.079763829911826,155.73805687696586 21.67674658409669,155.6894706855819 21.584388465300435,155.84494641108176 22.088160022511147,156.90411805992335 22.457592497841688,160.76173574879795 22.952967862423975,163.96820122503414 22.869005936256144,165.80458301048202 22.062971444654977,171.16778181793052" stroke="#4DD2FF" stroke-linecap="round" stroke-linejoin="round" stroke-width="0.5"><title>2025-07-10 5.0km</title><desc>1752149320000</desc></polyline><polyline fill="none" points="44.97083915647818,151.20000000001164 45.02143056935165,152.5464361152117 45.388218312349636,152.35617960168747 46.172385211335495,152.61961163040542 47.01979137631133,152.5464361152117 47.96838036697591,152.89767824913724 52.86309955868637,153.54161993673188 53.002225943957455,153.7318748844118 51.87656700843945,160.91747393333935 51.33270932047162,160.9613766955299 51.231526494782884,161.15162184360088 51.04180869663833,162.42479444474156 51.18093508190941,162.98088929167716 50.32088106375886,167.824677312703 44.02225016587181,167.634440976326 43.80723666126141,167.4881051620905 42.99777405598434,172.8000000000029 43.845180220901966,167.57590666846954 46.29886374337366,167.61980740157014 47.12097420194186,167.29786838132713 47.234804880805314,167.634440976326 50.358824623399414,167.7368759579258 52.53425537527073,154.11238402586605 52.471016109222546,153.61479494637751 45.957371706783306,152.47326056279417" stroke="#4DD2FF" stroke-linecap="round" stroke-linejoin="round" stroke-width="0.5"><title>2025-07-08 5.1km</title><desc>1751976330000</desc></polyline><polyline fill="none" points="63.39238742546877,172.60332322170143 63.346032235829625,172.8000000000029 63.63961510389345,172.67484207559028 63.73232548322994,171.67357547547726 64.27313602966024,171.22657961794175 64.38129813893465,170.76170272151649 65.94192285853205,159.9440280990093 66.0809884275659,156.6717739978194 65.7101469101035,154.25777703919448 66.55999205441913,154.22201387224777 66.77631627296796,154.54388211289188 69.75850014318712,154.9730388508906 72.15351827727864,154.93727582940483 73.89956375560723,155.63465343748976 79.46218651853269,156.45719783182722 80.48200069181621,151.1999999999971 84.65396776411217,152.12985595209466 80.9301008587936,151.25364566934877 80.23477301344974,154.34718492468528 80.12661090411711,156.49296054434672 69.71214495348977,155.09820936896722 66.77631627296796,154.56176366456202 66.51363686477998,154.1683691081853 65.66379172040615,154.31142177594302 66.00372977810912,155.741942054854 66.06553669774439,158.83540237956913 64.31949121929938,170.81534242613998" stroke="#4DD2FF" stroke-linecap="round" stroke-linejoin="round" stroke-width="0.5"><title>2025-07-06 5.0km</title><desc>1751807521000</desc></polyline><polyline fill="none" points="92.48768110363744,171.46114566719916 93.42353056982392,164.80611479237268 90.39478138840059,164.5895271066256 89.44191647745902,164.92425342802017 90.68404395069228,164.80611479237268 90.51388950232649,164.60921690623218 93.6447313526296,164.78642501278955 93.86593213560991,164.5895271066256 93.76383946661372,163.9791423259594 95.03999782941537,155.9258211225242 94.92088971560588,151.9088805182546 97.11588209989714,151.6922784128983 110.55808352259919,153.89767034615215 110.5410680777859,153.247869974919 95.75464651267976,151.1999999999971 95.99286274047336,156.06365584160085 94.44445726007689,167.01135744639032 94.86984338110778,167.680801142953 94.47848814976169,168.4093107728695 94.56356537394458,169.98445736573194 93.9680248045479,170.1222820833791 93.69577768718591,172.8000000000029 92.31752665521344,172.64248820573266 92.40260387945455,171.48083476851752" stroke="#4DD2FF" stroke-linecap="round" stroke-linejoin="round" stroke-width="0.5"><title>2025-07-05 4.8km</title><desc>1751729502000</desc></polyline><polyline fill="none" points="129.47653159161564,172.8000000000029 129.69029890629463,172.64377437834628 129.72405164019438,171.75849225716956 130.01657533395337,170.4696147036011 130.1740880921716,170.417538570342 130.37660449557006,168.5297644467646 125.97749817738077,168.3474951277749 126.25877095985925,167.37104793159233 126.67505467793671,162.97043354451307 126.72005832317518,159.75450434455706 126.56254556495696,159.32483967291773 126.73130923439749,156.69473966119403 126.72005832317518,151.20000000001164 120.81332989077782,153.32240369042847 120.68956986645935,153.62188113393495 120.73457351169782,153.36146600537177 123.91858140949626,152.15052870126965 123.97483596601523,154.83280452557665 124.28986148239346,155.5098749796016 126.64130194403697,155.5098749796016 126.65255285537569,158.94725437769375 126.90007290389622,159.06443614015006 126.99008019431494,159.48108153846988 131.10791373002576,159.74148422417056 131.31043013348244,160.77006965701003 131.287928310805,162.6449383102008 129.87031348713208,172.31830372134573" stroke="#4DD2FF" stroke-linecap="round" stroke-linejoin="round" stroke-width="0.5"><title>2025-07-03 5.2km</title><desc>1751545471000</desc></polyline><polyline fill="none" points="151.6214904837252,172.8000000000029 152.1345811613137,169.63671731814247 152.34486422588816,169.49071713368176 152.88318887123023,165.4999592376189 152.92524548413348,164.1177555339309 152.00841132254573,156.7781142833337 151.5626112256723,155.85331851030787 151.65513577405363,155.72676681490702 152.03364529029932,155.7949100562837 151.85700751605327,153.90635083913367 151.44485270947916,153.38066277890175 151.453264032054,152.18325142054528 151.05793187068775,151.20000000000437 151.48690932241152,152.27086739368679 151.44485270947916,153.4001327585429 151.82336222572485,153.7700616192451 151.88224148380687,154.07184463103476 152.03364529029932,155.78517531047692 151.6214904837252,155.75597106714122 151.5626112256723,155.8825227239431 152.01682264517876,156.7781142833337 152.45421141947736,160.94445183175412 152.94206812928314,164.08855383204354 152.79907564536552,166.26892308380047 151.87383016123204,172.46907685849146" stroke="#4DD2FF" stroke-linecap="round" stroke-linejoin="round" stroke-width="0.5"><title>2025-07-01 5.0km</title><desc>1751376396000</desc></polyline><polyline fill="none" points="177.24091598694213,172.8000000000029 177.39689215400722,172.60748258684907 177.36569692054763,171.8975719208902 177.61525878787506,171.65692327159195 177.79203177720774,170.71838886621117 178.06239046674455,167.40939411168802 178.43673326767748,166.12186934256897 178.8526697132038,162.74054603456898 178.74868560180767,160.80316069041146 178.16637457808247,157.34948208722926 177.77123495494016,153.16161118170567 177.147330286738,151.60917311411322 177.6984460769454,151.71748340755585 177.719242899213,151.1999999999971 177.719242899213,151.69341446199542 177.24091598694213,151.59713863095385 177.15772869781358,151.71748340755585 177.5528683210141,152.3071710439035 177.79203177720774,153.13754252986837 178.22876504494343,157.80676936249802 178.8526697132038,161.9583756436623 178.80067765747663,163.89574208252452 177.49047785421135,172.39090012299857" stroke="#4DD2FF" stroke-linecap="round" stroke-linejoin="round" stroke-width="0.5"><title>2025-06-30 4.1km</title><desc>1751292736000</desc></polyline><polyline fill="none" points="11.442508710781112,187.3315227524945 11.200000000011642,185.57876788833528 11.28362369336537,185.39477517099294 17.78954703832278,185.08489189430838 18.826480836200062,185.18173052685597 20.515679442498367,185.01710479283065 23.049477351887617,185.04615641367855 32.79999999998836,184.4263865755347 29.88989547037636,184.6297489993085 29.212543554021977,184.85247877354414 27.958188153308583,184.79437540450454 21.611149825766915,185.12362735918578 15.707317073160084,185.23014980609878 15.531707317044493,185.385091333912 15.941463414608734,187.57361342445802 15.7491289198515,187.5542461934092 15.514982578373747,186.41157257369196" stroke="#4DD2FF" stroke-linecap="round" stroke-linejoin="round" stroke-width="0.5"><title>2025-06-26 5.0km</title><desc>1750950176000</desc></polyline><polyline fill="none" points="58.80000000001746,186.8840289662694 58.451237890229095,185.1159710337306 49.15866523142904,185.96859223496722 48.166630785824964,185.97756715106516 44.58600645855768,185.52882022524136 37.20000000001164,185.842943313437 44.33799784714938,185.51984526338492 48.174381054908736,185.98654206626816 54.78536060283659,185.3852207259697" stroke="#4DD2FF" stroke-linecap="round" stroke-linejoin="round" stroke-width="0.5"><title>2025-06-24 5.0km</title><desc>1750769966000</desc></polyline><polyline fill="none" points="84.80000000001746,186.86500652030372 84.5043227665592,185.134993479689 75.30720461095916,186.0090147157971 74.18674351586378,186.04505664313183 70.56080691641546,185.57651044185332 63.20000000001164,185.90088884568104 70.36628242072766,185.57651044185332 74.17896253601066,186.04505664313183 81.96772334293928,185.3512469611669" stroke="#4DD2FF" stroke-linecap="round" stroke-linejoin="round" stroke-width="0.5"><title>2025-06-22 5.0km</title><desc>1750563938000</desc></polyline><polyline fill="none" points="100.73815248723258,196.79999999999927 99.62179466203088,190.13051871750213 99.60614478596835,188.31198824174135 99.70526066762977,187.55072635359465 99.64266116340877,185.59315086737843 99.66352766481577,185.25479793072736 99.77829342253972,185.0614525278579 99.66352766481577,184.97082165302345 99.6583110394422,183.7321858001269 98.39067107907613,176.10645203613967 98.07245693262666,175.1999999999971 98.3958877043915,175.99163554574625 99.64266116340877,183.60529968929768 99.71047729300335,187.31509569159243 99.62179466203088,188.3180299636333 99.6165780366573,190.07010331892525 100.47210459431517,195.19311027954973 100.59208697738359,195.54348844374908 101.92754306737334,195.47099657972285" stroke="#4DD2FF" stroke-linecap="round" stroke-linejoin="round" stroke-width="0.5"><title>2025-06-21 8.0km</title><desc>1750517001000</desc></polyline><polyline fill="none" points="128.1913823732757,196.8000000000029 126.36168446938973,185.54865028322092 123.14198350673541,185.48294666381844 117.34084829204949,184.92446481718798 117.45431792951422,184.33312898734584 117.22737865458475,183.1997292473534 117.53942015761277,175.7913693520677 117.49686904350528,175.2657078129996 117.21319494990166,175.20000000001164 116.85860233288258,184.31670296112134 117.39758311078185,184.38240705603675 117.42595052008983,184.9408907815232 126.404235583439,185.53222438090597 127.49638084386243,192.56235758092953 127.83678975625662,193.49859049583029 135.14139766711742,193.26863905573555" stroke="#4DD2FF" stroke-linecap="round" stroke-linejoin="round" stroke-width="0.5"><title>2025-06-19 5.0km</title><desc>1750345525000</desc></polyline><polyline fill="none" points="162.79999999998836,186.54074252207647 162.60173913047765,185.36258955602898 156.4869565217523,185.9426062500861 155.69913043477573,185.9607316803049 153.0800000000163,185.65864045270428 143.37565217391239,186.09969312808244 142.53565217391588,186.23865425010445 141.20000000001164,186.63741044396738 143.08347826087265,186.12990209535928 146.49565217393683,185.97885710501942" stroke="#4DD2FF" stroke-linecap="round" stroke-linejoin="round" stroke-width="0.5"><title>2025-06-17 5.1km</title><desc>1750166247000</desc></polyline><polyline fill="none" points="167.94482758606318,194.1510307485005 167.19999999995343,189.36404772932292 184.0331034482224,188.86809284615447 181.29586206900422,178.06461318439688 184.6103448275244,178.25869253612473 188.79999999993015,177.8489692514995 182.18965517240576,178.2371281724918 184.62896551727317,187.96243310290447 177.40413793094922,188.30744679560303" stroke="#4DD2FF" stroke-linecap="round" stroke-linejoin="round" stroke-width="0.5"><title>2025-06-16 3.2km</title><desc>1750084948000</desc></polyline><polyline fill="none" points="32.80000000001746,210.99850620845245 32.469032258115476,209.00149379155482 21.85193548386451,209.97983319273044 20.89387096776045,209.9899191155855 16.695806451607496,209.47553574019548 11.200000000011642,209.73777073623933 16.521612903219648,209.46544976492441 20.8851612903527,209.96974726887856 29.89096774198697,209.21330004923948" stroke="#4DD2FF" stroke-linecap="round" stroke-linejoin="round" stroke-width="0.5"><title>2025-06-15 4.6km</title><desc>1749956754000</desc></polyline><polyline fill="none" points="58.79999999998836,210.86869646520063 58.53705692803487,209.13130353479937 49.287647690682206,209.98209302483883 48.32094522018451,210.00000429398642 44.25306122447364,209.54326579025656 37.20000000001164,209.86566968640545 44.39226638022228,209.54326579025656 48.25907626209664,210.00000429398642 50.277551020437386,209.90149226850917 50.65649838879472,209.7761131672596 55.559613318997435,209.33728490394424" stroke="#4DD2FF" stroke-linecap="round" stroke-linejoin="round" stroke-width="0.5"><title>2025-06-14 5.1km</title><desc>1749906363000</desc></polyline><polyline fill="none" points="84.80000000001746,211.2825023057885 84.54031117400154,209.5312315057672 75.58868458276265,210.39802652083017 74.38189533242257,210.40687132332096 70.71570014147437,209.96463009550644 63.81103253184119,210.29188882088056 63.719377652101684,210.08845786646998 63.75756718532648,208.7263426679565 63.20000000001164,208.7174976942042 63.780480905261356,208.74403261275438 63.719377652101684,210.0796130315357 63.83394625180517,210.29188882088056 70.90664780765655,209.9557852479702 74.54992927866988,210.41571612490225 81.80594059411669,209.76119837396982 81.79830268744263,209.4074029396943 84.12786421502824,209.2835741969684" stroke="#4DD2FF" stroke-linecap="round" stroke-linejoin="round" stroke-width="0.5"><title>2025-06-12 5.9km</title><desc>1749735885000</desc></polyline><polyline fill="none" points="110.80000000004657,216.7951636059588 110.1114345114911,213.32834658339561 91.19085239083506,215.00976166465261 89.409563409572,210.13881250722625 89.20000000001164,204.05426366438041 92.73264033265878,203.89824672872783 95.7413721413468,204.08893407507276 95.90602910605958,203.53420665560407 95.59168399171904,203.41285979138047 89.28981288976502,203.2048363940412 89.4245322245406,209.96546655007114 89.94844074838329,211.94159998719988 90.9812889812747,214.4030674181995 99.36382536380552,213.67503146568197 99.52848232846009,214.33373079507146 110.0665280665853,213.31101232068613 110.71018711023498,216.74316187262593" stroke="#4DD2FF" stroke-linecap="round" stroke-linejoin="round" stroke-width="0.5"><title>2025-06-10 5.3km</title><desc>1749559786000</desc></polyline><polyline fill="none" points="115.76714178547263,204.24909050056885 115.24861215311103,202.1474734665535 115.20000000001164,200.5149508225004 129.89707426866516,200.13965621423267 130.5614403600921,202.59782199337496 130.07531882979674,202.57905749345082 129.929482370615,202.9168181999994 130.23735933983698,204.66190531340544 130.15633908478776,205.84405170261743 130.6910727682407,208.2083217118634 132.06841710436856,208.15202992159175 134.11012753192335,216.01394999414333 134.1425356339896,216.3704491542594 133.6240060015698,216.52055385735002 134.09392348094843,216.389212248876 134.25596399098868,216.6894215020002 133.83465866465122,216.76447373889096 133.98049512377474,217.4587054794829 134.95273818454007,219.93540279920853 135.63330832711654,219.8603518546297 136.79999999998836,219.22241759099416 135.56849212310044,219.48509667308826 133.3809452363057,210.76019813120365 133.1216804201831,210.00964991436922 132.538334583689,210.00964991436922 132.1008252063766,208.09573811406153 131.63090772693977,208.28337740548886 130.67486871726578,208.15202992159175 130.14013503381284,205.99416498669598 130.02670667675557,203.2170494190359 129.13548387098126,200.06459720079147 115.24861215311103,200.55248024124012 115.83195798954694,204.36167645036767" stroke="#4DD2FF" stroke-linecap="round" stroke-linejoin="round" stroke-width="0.5"><title>2025-06-08 5.0km</title><desc>1749355299000</desc></polyline><polyline fill="none" points="162.80000000001746,210.8888356619209 162.4201005024952,209.11116433808638 155.45786073218915,209.69474726330373 153.36453697056277,209.99102634569863 152.20157932522125,209.99102634569863 148.51888011486153,209.5421182561986 141.20000000001164,209.86533231123758 148.16999282123288,209.5421182561986 152.16281407038332,210.0000044841363 160.55936826992547,209.24583766396972" stroke="#4DD2FF" stroke-linecap="round" stroke-linejoin="round" stroke-width="0.5"><title>2025-06-07 5.3km</title><desc>1749293029000</desc></polyline><polyline fill="none" points="188.80000000001746,210.85568752919062 188.48109470657073,209.14431247080938 178.62614332014346,210.04504031674878 174.62815988477087,209.58567026240053 167.20000000001164,209.8919172306123 174.59704717321438,209.5676557018014 178.15167446888518,210.04504031674878 185.76651062298333,209.3514806882813" stroke="#4DD2FF" stroke-linecap="round" stroke-linejoin="round" stroke-width="0.5"><title>2025-06-05 5.1km</title><desc>1749128617000</desc></polyline><polyline fill="none" points="11.50236220471561,233.8632804811059 11.200000000011642,231.88280388200656 11.313385826768354,231.7952681616007 19.788976377923973,231.49983457833878 21.38582677161321,237.3536447847291 29.757480314932764,237.24423069852492 32.79999999998836,237.05822649609036 30.29606299212901,237.14575792558753 29.833070866181515,230.6463552152636 21.820472440915182,231.1168639085081 20.100787401606794,231.06215370126301 20.251968503929675,231.49983457833878 15.811023622052744,231.63113849350339" stroke="#4DD2FF" stroke-linecap="round" stroke-linejoin="round" stroke-width="0.5"><title>2025-06-03 5.2km</title><desc>1748952979000</desc></polyline><polyline fill="none" points="55.06249909711187,227.56082101978245 54.58866688591661,226.85949760240328 54.25278582482133,226.1234474476223 54.0368622855749,225.92207385148504 53.50305131345522,225.87346634264395 53.095195739297196,225.4012773109498 52.90926158046932,224.78326025598653 52.63335928026936,224.35967229801463 52.30347609525779,223.1999999999971 51.34981379681267,223.60970683729101 50.90597096606507,223.65831595972122 49.75437875659554,224.0888523886315 49.26255291714915,224.72076383748208 49.26255291714915,224.8804767931506 47.27125805494143,227.41500189319777 47.2592623027449,227.56082101978245 46.7134555784869,228.31074303203786 46.239623367320746,228.74819373136415 46.155653102032375,228.67181365271972 45.81977204090799,228.96344622015022 45.597850625548745,228.83151735600404 45.59185274949414,228.9565026020864 45.56186336898827,228.77596828423702 45.873752925748704,228.99816429989733 45.82576991702081,229.24813395230012 45.10602478610235,230.04664198242972 43.87646018745727,230.32438171478134 43.87646018745727,230.19939897519362 43.792489922198,230.35215562582016 43.45660886107362,230.42853382286557 43.162712932622526,230.34521214911365 42.670887093176134,230.386872998708 42.58691682788776,230.31049475502368 42.38898691689246,230.42159035395161 41.795197183906566,230.21328595755767 41.717224794701906,229.30368263951823 41.48930550322984,229.1023184330552 40.367702674266184,229.38700558556593 39.94785134788253,229.64391736174002 40.4276814351615,231.72000675107847 41.18341382261133,234.03904192813206 42.77884886279935,240.27366183226695 43.0007702781586,240.91930817933462 44.884103370743105,244.73057990218513 45.12401841438259,244.8000000000029 45.951725314953364,244.5362032526973 46.5155256674916,244.70281184330088 47.547160355141386,244.48760900383786 47.529166726832045,244.0780275314537 47.805069027032005,244.00166461223125 48.30289274259121,244.2307531136321 48.680758936330676,244.05025920709159 48.83670371468179,244.27934754537273 49.80835964140715,244.49455104149092 50.37815787008731,244.3904204023056 50.95395397479297,243.96001207481459 51.05591786833247,243.14778251434473 51.48776494691265,242.5507529127717 51.37380530117662,241.95371808826167 51.5117564512766,241.66214104311803 51.2178605227964,241.3358509679092 51.03192636399763,240.84988413403335 50.95995185087668,240.12786987621075 51.34981379681267,239.8154574929431 51.943603529798565,240.05844502575928 52.27348671481013,240.0376175568381 52.357456980098505,239.58635416949255 52.219505829998525,239.0309489806241 52.105546184262494,238.98235081150779 52.219505829998525,238.9268100044428 52.08755255601136,238.88515436946182 52.19551432560547,238.94763781239453 52.2075100778311,238.6213347574303 52.051565299450886,238.2603167932466 51.34381592069985,238.2117180752757 51.01393273571739,237.96178126467566 51.151883885788266,237.01756727332395 51.71568423835561,236.05251152983692 52.147531316877576,235.5734500117469 52.34546122790198,235.504020527158 52.77131043036934,234.9138670553366 53.521044941735454,234.19873306609225 54.1868091878423,233.36555779891933 53.99487715290161,232.97673919187218 53.40108741991571,232.96979598232429 53.323115030740155,232.7406696706821 53.55103432218311,232.19215204069042 53.81494087018655,231.94219317677926 54.06085378993885,231.9769097404278 54.16281768344925,231.85193002863525 53.95289202028653,231.37283901206683 54.23479219654109,230.78264980076347 54.49869874457363,230.62989411417948 54.72062015993288,230.72015887941234 54.69063077948522,230.55351614263054 55.35639502556296,230.24800340112415 55.416373786487384,230.06052899591305 55.99816776730586,229.70640926906344 56.05214865211747,229.1995288138569 55.290418388554826,227.74830229589134 55.170460866735084,227.69275234187808" stroke="#4DD2FF" stroke-linecap="round" stroke-linejoin="round" stroke-width="0.5"><title>2025-06-02 11.5km</title><desc>1748829019000</desc></polyline><polyline fill="none" points="84.80000000004657,235.01010417004727 84.40432972525014,232.98989582994545 72.99283930059755,234.05207220497687 68.26278101583011,233.51057190335268 63.20000000001164,233.72925506292086 68.3257285595173,233.48974491135596 72.47127393836854,234.0312453233637 84.38634471275145,233.00030937744305 84.79100749379722,234.9476240983131" stroke="#4DD2FF" stroke-linecap="round" stroke-linejoin="round" stroke-width="0.5"><title>2025-06-01 4.9km</title><desc>1748740054000</desc></polyline><polyline fill="none" points="110.79999999998836,244.40892800624715 110.72178636089666,244.5749758197344 110.56535908265505,244.45421379205072 110.0439348219079,241.5558955880988 93.56692818342708,242.9899663713586 92.04176222084789,238.71790405572392 91.97658418829087,233.34368598276342 91.61158720578533,231.32075562310638 89.20000000001164,223.4250241802656 90.79034399514785,228.70902107811708 91.22051901026862,229.52424952304864 91.92444176226854,232.5586715124664 92.62836451421026,232.75492552017386 91.89837054919917,232.7398290673009 92.04176222084789,238.21974035682797 92.53711526852567,240.25767216749955 93.397465298709,242.38614878656517 93.61907060950762,242.52200795777026 100.6843693421688,241.79742427130986 100.87990343989804,242.3710533154226 106.49824984907173,241.82761532903532" stroke="#4DD2FF" stroke-linecap="round" stroke-linejoin="round" stroke-width="0.5"><title>2025-05-31 5.5km</title><desc>1748696141000</desc></polyline><polyline fill="none" points="135.28519480518298,239.96107695229875 134.79428571433527,236.79383424030675 117.02337662340142,238.38558459952765 115.38233766233316,233.70774233133125 115.20000000001164,228.071409692624 121.23116883111652,228.13638296272256 115.2841558441869,228.0389230476867 115.39636363636237,233.62652857927606 115.83116883120965,235.3644938388752 116.92519480513874,237.86583112829248 132.6623376623029,236.35528798044834 134.0649350649328,236.27407557763217 134.13506493507884,236.87504637821985 136.79999999998836,236.66389473357412" stroke="#4DD2FF" stroke-linecap="round" stroke-linejoin="round" stroke-width="0.5"><title>2025-05-29 5.0km</title><desc>1748526381000</desc></polyline><polyline fill="none" points="154.29350237711333,231.8794324934861 153.81426307442598,227.9550316833047 161.92709984153043,227.55862315728154 162.79999999998836,230.74968886254646 161.8586370839621,227.6379049270763 153.78003169572912,228.01449289247103 154.00253565760795,229.97670259683218 153.69445324881235,228.0343132914859 142.15847860532813,229.10461183918233 143.88716323289555,237.7658852304594 144.55467511882307,239.78745416236052 144.1096671948908,240.06492276806966 144.81141045951517,241.92791601225326 143.87004754354712,239.47034669971617 141.5423137875623,229.14425241308345 145.5816164817661,228.5694633016683 152.89001584780635,228.11359486742003 152.8044374009478,227.53880270973605 142.07290015846957,228.2721579222998 141.47385103005217,226.0720839877613 141.20000000001164,226.30993101850618 141.3369255150319,228.43072084784217 149.43264659267152,227.6379049270763" stroke="#4DD2FF" stroke-linecap="round" stroke-linejoin="round" stroke-width="0.5"><title>2025-05-27 6.0km</title><desc>1748352132000</desc></polyline><polyline fill="none" points="185.92164009113912,235.60963212927163 186.007744874747,235.5526552900119 185.73097949888324,234.17095271491416 178.45512528475956,234.86892959520628 177.6125284738373,234.88317394875048 174.58041002281243,234.5270642391988 167.33530751711805,234.84756305946212 167.20000000001164,232.48295940099342 168.06104783603223,232.39036787073564 169.2480637813569,232.47583697995287 169.25421412303695,234.5270642391988 174.75876993167913,234.30627530792117 178.1045558086771,234.63389734260272 185.71867881552316,233.87893991079181 188.6708428246202,233.77210565316636 188.80000000001746,234.00714080432226 188.7138952164387,234.03562985983444 185.98929384967778,234.14958596572978" stroke="#4DD2FF" stroke-linecap="round" stroke-linejoin="round" stroke-width="0.5"><title>2025-05-25 7.6km</title><desc>1748179850000</desc></polyline><polyline fill="none" points="32.7858453473018,259.19247159729275 32.72922673658468,258.72532334623247 32.45321100918227,258.72532334623247 32.27627785058576,257.84838859889715 32.13473132372019,257.65169164153485 25.305111402383773,258.23358541334164 24.18689384011668,258.43847658415325 19.699868938390864,258.020498041893 11.32031454789103,258.3974983917651 11.200000000011642,256.9714442880504 13.280733944964595,256.80752840270725 13.266579292278038,258.0041066822596 13.542595019680448,258.0368893982086 19.42385321101756,257.7828229999286 23.684403669729363,258.15162879884156 32.53106159897288,257.29927505632077 32.80000000001746,259.102320391743" stroke="#4DD2FF" stroke-linecap="round" stroke-linejoin="round" stroke-width="0.5"><title>2025-05-24 6.6km</title><desc>1748094255000</desc></polyline><polyline fill="none" points="58.79999999998836,258.96242977261863 58.565028203098336,257.03757022738137 49.670910556043964,257.7934095953169 48.435132957296446,258.0050435829762 47.025302175665274,258.02519917719474 42.96116035457817,257.53138593537733 37.20000000001164,257.7631761315133 42.93505237714271,257.5213080884423 46.97308622079436,258.0352769727979 56.18920225626789,257.2592837074699" stroke="#4DD2FF" stroke-linecap="round" stroke-linejoin="round" stroke-width="0.5"><title>2025-05-18 4.7km</title><desc>1747565909000</desc></polyline><polyline fill="none" points="81.99255654166336,258.77338019321905 81.75757228746079,257.3913227641242 75.49338677356718,257.9212340073791 74.44832522189245,258.10741808998137 73.60732894361718,258.1002571728386 70.74423131978256,257.7278884763 63.243286573153455,258.0716134970353 63.20000000001164,257.8567855561196 67.4235327798524,257.5846692213745 70.28663040368701,257.53454241318104 73.63206412826548,258.0716134970353 81.83796163756051,257.3411958179713 84.6021185227437,257.22661980678095 84.71342685373384,257.2409418183961 84.73197824222734,257.3411958179713 84.80000000001746,257.2982298356728" stroke="#4DD2FF" stroke-linecap="round" stroke-linejoin="round" stroke-width="0.5"><title>2025-05-17 5.7km</title><desc>1747487200000</desc></polyline><polyline fill="none" points="109.61962504984695,257.10703299409215 106.7591543677554,257.2566937149022 105.36338252888527,257.5061277411078 98.95317112084012,257.9950165888731 94.93817311525345,257.47619569153176 89.20000000001164,257.7056745044756 94.8606302353437,257.496150392275 98.79808536096243,257.985039289837 110.23996808932861,256.9873042527179 110.61906661349349,258.922900952959 110.79999999998836,259.01269574727485" stroke="#4DD2FF" stroke-linecap="round" stroke-linejoin="round" stroke-width="0.5"><title>2025-05-11 5.0km</title><desc>1746965499000</desc></polyline><polyline fill="none" points="136.80000000001746,258.77605289639905 136.45136298416764,257.22394710360095 126.65078909610747,258.11214972172456 122.66857962694485,257.65459191647096 115.20000000001164,257.9686024309849 122.48263988521649,257.66356366098626 126.20143472022028,258.11214972172456 136.5133428981353,257.2418906795283" stroke="#4DD2FF" stroke-linecap="round" stroke-linejoin="round" stroke-width="0.5"><title>2025-05-10 5.3km</title><desc>1746870058000</desc></polyline><polyline fill="none" points="162.7528384279576,257.63590713059966 162.69781659389264,257.4811665711022 162.80000000001746,257.59949761129974 162.38340611354215,257.6723166350275 152.75458515287028,258.5188334288905 148.67510917031905,258.03641086306743 141.20000000001164,258.34588978983084 148.63580786026432,258.03641086306743 150.54585152838263,258.1911504605159 152.28296943233,258.50973114042426 160.16681222707848,257.7997497837059" stroke="#4DD2FF" stroke-linecap="round" stroke-linejoin="round" stroke-width="0.5"><title>2025-05-05 5.4km</title><desc>1746434825000</desc></polyline></svg>