<?xml version="1.0" encoding="utf-8" ?>
<svg baseProfile="full" height="300mm" version="1.1" viewBox="0,0,200,300" width="200mm" xmlns="http://www.w3.org/2000/svg" xmlns:ev="http://www.w3.org/2001/xml-events" xmlns:xlink="http://www.w3.org/1999/xlink"><defs /><rect fill="#222222" height="300" width="200" x="0" y="0" /><text fill="#FFFFFF" style="font-size:12px; font-family:Arial; font-weight:bold;" x="10" y="20">Over 3km Runs</text><text fill="#FFFFFF" style="font-size:4px; font-family:Arial" x="10" y="280">Runner</text><text fill="#FFFFFF" style="font-size:9px; font-family:Arial" x="10" y="290">tang-hi</text><text fill="#FFFFFF" style="font-size:4px; font-family:Arial" x="65" y="280">SPECIAL TRACKS</text><rect fill="yellow" height="2.6" width="2.6" x="65" y="283" /><text fill="#FFFFFF" style="font-size:3px; font-family:Arial" x="70" y="285.5">Over 20.0 km</text><rect fill="red" height="2.6" width="2.6" x="65" y="287" /><text fill="#FFFFFF" style="font-size:3px; font-family:Arial" x="70" y="289.5">Over 40.0 km</text><text fill="#FFFFFF" style="font-size:4px; font-family:Arial" x="120" y="280">STATISTICS</text><text fill="#FFFFFF" style="font-size:3px; font-family:Arial" x="120" y="285">Number: 31</text><text fill="#FFFFFF" style="font-size:3px; font-family:Arial" x="120" y="290">Weekly: 3.4</text><text fill="#FFFFFF" style="font-size:3px; font-family:Arial" x="141" y="285">Total: 170.3 km</text><text fill="#FFFFFF" style="font-size:3px; font-family:Arial" x="141" y="290">Avg: 5.5 km</text><text fill="#FFFFFF" style="font-size:3px; font-family:Arial" x="167" y="285">Min: 3.2 km</text><text fill="#FFFFFF" style="font-size:3px; font-family:Arial" x="167" y="290">Max: 11.5 km</text><polyline fill="none" points="16.410973005113192,60.65877952455776 17.747900813934393,51.15159256051993 13.421116269077174,50.842181580897886 12.059880682034418,51.320362040016335 13.834348500939086,51.15159256051993 13.591270717559382,50.870309866033494 18.063901932328008,51.12346430396428 18.37990305083804,50.842181580897886 18.234056380810216,49.97020332279499 20.05713975627441,38.46545874644653 19.886985307908617,32.72697216895176 23.022688713972457,32.41754058984225 42.225833603646606,35.568100494507235 42.201525825308636,34.639814249880146 21.07806644658558,31.714285714289872 21.41837534343358,38.66236548798042 19.20636751432903,54.30193920910824 19.814061972894706,55.25828734706738 19.254983071004972,56.299015389813576 19.376521962694824,58.54922480817186 18.525749720749445,58.74611726196599 18.13682526734192,62.571428571420256 16.167895221733488,62.34641172247939 16.28943411342334,60.68690681215958" stroke="#4DD2FF" stroke-linecap="round" stroke-linejoin="round" stroke-width="0.5"><title>2025-07-05 4.8km</title><desc>1751729502000</desc></polyline><polyline fill="none" points="68.53790227376157,62.57142857143481 68.84328415192431,62.348249111906625 68.89150234311819,61.08356036739133 69.30939333426068,59.242306719432236 69.53441156027839,59.16791224334156 69.82372070802376,56.47109206680034 63.53928311052732,56.210707325386466 63.94110137131065,54.81578275941138 64.53579239704413,48.52919077787374 64.60008331883,43.93500620649138 64.37506509281229,43.321199532729224 64.61615604918916,39.563913801684976 64.60008331883,31.714285714289872 56.16189984395169,34.74629098632431 55.985099809244275,35.17411590561096 56.049390731030144,34.802094293394475 60.59797344217077,33.07218385893793 60.67833709431579,36.90400646509079 61.128373546293005,37.87124997084902 64.48757420579204,37.87124997084902 64.50364693626761,42.781791968111065 64.85724700562423,42.94919448591827 64.98582884902135,43.54440219780372 70.86844818579266,43.91640603452106 71.15775733353803,45.38581379572861 71.1256118726451,48.06419758599077 69.10044783877674,61.88329103049182" stroke="#4DD2FF" stroke-linecap="round" stroke-linejoin="round" stroke-width="0.5"><title>2025-07-03 5.2km</title><desc>1751545471000</desc></polyline><polyline fill="none" points="99.45927211962407,62.57142857143481 100.19225880189333,58.05245331162587 100.49266317981528,57.84388161955576 101.26169838750502,52.14279891089245 101.3217792630312,50.1682221913361 100.01201617508195,39.68302040475828 99.37515889381757,38.36188358615618 99.5073368200683,38.1810954498651 100.04806470044423,38.27844293754606 99.7957250229083,35.580501198768616 99.20693244214635,34.82951825557393 99.2189486172283,33.11893060078728 98.65418838668847,31.714285714289872 99.26701331773074,33.244096276699565 99.20693244214635,34.85733251221245 99.74766032246407,35.385802313205204 99.83177354827058,35.81692090148863 100.04806470044423,38.26453615783248 99.45927211962407,38.222815810207976 99.37515889381757,38.4036038913473 100.02403235022211,39.68302040475828 100.64887345640454,45.634931188222254 101.34581161325332,50.126505474356236 101.14153663627803,53.24131869114353 99.81975737318862,62.098681226416375" stroke="#4DD2FF" stroke-linecap="round" stroke-linejoin="round" stroke-width="0.5"><title>2025-07-01 5.0km</title><desc>1751376396000</desc></polyline><polyline fill="none" points="135.34416569571476,62.57142857143481 135.56698879151372,62.29640369550907 135.5224241723772,61.28224560128001 135.8789411256439,60.938461816564086 136.13147396751447,59.59769838031207 136.51770066691097,54.87056301670964 137.0524760967819,53.031241917968146 137.64667101891246,48.20078004938841 137.49812228837982,45.43308670059196 136.6662493973854,40.49926012461947 136.10176422144286,34.5165874024533 135.21047183824703,32.29881873445993 135.99778010998853,32.453547725090175 136.02748985611834,31.714285714289872 136.02748985611834,32.419163517144625 135.34416569571476,32.28162661565875 135.22532671131194,32.453547725090175 135.78981188731268,33.29595863416034 136.13147396751447,34.48220361411222 136.75537863577483,41.15252766071353 137.64667101891246,47.08339377667289 137.57239665364614,49.85106011790049 135.70068264898146,61.98700017572264" stroke="#4DD2FF" stroke-linecap="round" stroke-linejoin="round" stroke-width="0.5"><title>2025-06-30 4.1km</title><desc>1751292736000</desc></polyline><polyline fill="none" points="157.77501244400628,49.04503250356356 157.42857142857974,46.541096983346506 157.5480338477064,46.278250244271476 166.84221005480504,45.835559849016136 168.323544051731,45.97390075265139 170.73668491787976,45.73872113262769 174.35639621701557,45.78022344812052 188.28571428573923,44.89483796505374 184.1284221005626,45.18535571329994 183.16077650577063,45.50354110506305 181.36884021904552,45.420536292149336 172.30164260830497,45.89089622741449 163.86759581882507,46.04307115156553 163.61672473867657,46.26441619130492 164.2020905922982,49.39087632065639 163.9273270283593,49.363208847731585 163.59283225482795,47.730817962423316" stroke="#4DD2FF" stroke-linecap="round" stroke-linejoin="round" stroke-width="0.5"><title>2025-06-26 5.0km</title><desc>1750950176000</desc></polyline><polyline fill="none" points="42.571428571420256,82.69146995181654 42.07319698604988,80.16567290532839 28.79809318773914,81.38370319281239 27.380901122582145,81.39652450152062 22.265723512216937,80.7554574646274 11.714285714260768,81.2042047334835 21.911425495927688,80.74263609055197 27.391972935583908,81.40934580896283 36.83622943260707,80.55031532281282" stroke="#4DD2FF" stroke-linecap="round" stroke-linejoin="round" stroke-width="0.5"><title>2025-06-24 5.0km</title><desc>1750769966000</desc></polyline><polyline fill="none" points="79.0,82.66429502900428 78.57760395220248,80.19284782813338 65.43886372988345,81.441449594 63.83820502262097,81.49293806161586 58.65829559485428,80.82358634550474 48.14285714284051,81.28698406525655 58.38040345814079,80.82358634550474 63.82708933710819,81.49293806161586 74.95389048988,80.50178137309558" stroke="#4DD2FF" stroke-linecap="round" stroke-linejoin="round" stroke-width="0.5"><title>2025-06-22 5.0km</title><desc>1750563938000</desc></polyline><polyline fill="none" points="101.05450355319772,96.85714285714494 99.45970666003996,87.32931245357759 99.43734969425714,84.73141177392245 99.57894381092046,83.64389479084639 99.48951594776008,80.8473583819723 99.51932523548021,80.36399704389623 99.68327631792636,80.0877893255165 99.51932523548021,79.95831664717844 99.5118729135138,78.18883685732726 97.70095868440694,67.29493148020265 97.24636704660952,66.0 97.70841100631515,67.13090792249568 99.48951594776008,78.00757098471513 99.58639613285777,83.30727955941984 99.45970666003996,84.74004280519148 99.45225433810265,87.24300474132178 100.67443513474427,94.56158611364663 100.84583853912773,95.06212634821713 102.75363295339048,94.95856654246018" stroke="#4DD2FF" stroke-linecap="round" stroke-linejoin="round" stroke-width="0.5"><title>2025-06-21 8.0km</title><desc>1750517001000</desc></polyline><polyline fill="none" points="139.55911767622456,96.85714285714494 136.9452635277994,80.78378611887456 132.34569072397426,80.68992380543204 124.0583547031274,79.89209259596828 124.22045418515336,79.04732712476107 123.89625522098504,77.42818463906588 124.34202879667282,66.84481336009048 124.28124149085488,66.09386830427684 123.87599278567359,66.0 123.36943190416787,79.02386137301801 124.13940444414038,79.11772436575848 124.17992931453045,79.91555825930845 137.00605083361734,80.760320544141 138.56625834852457,90.80336797273776 139.05255679471884,92.14084356544481 149.48771095310804,91.81234150819364" stroke="#4DD2FF" stroke-linecap="round" stroke-linejoin="round" stroke-width="0.5"><title>2025-06-19 5.0km</title><desc>1750345525000</desc></polyline><polyline fill="none" points="188.28571428571013,82.20106074582145 188.00248447209015,80.5179850800414 179.26708074536873,81.3465803572617 178.14161490681,81.37247382900387 174.39999999999418,80.94091493243468 160.5366459627112,81.57099018297595 159.33664596272865,81.76950607157778 157.42857142857974,82.33915777709626 160.11925465837703,81.61414585051534 164.9937888198765,81.39836729288072" stroke="#4DD2FF" stroke-linecap="round" stroke-linejoin="round" stroke-width="0.5"><title>2025-06-17 5.1km</title><desc>1750166247000</desc></polyline><polyline fill="none" points="12.778325123013929,127.35861535501317 11.714285714318976,120.52006818476366 35.76157635462005,119.81156120880041 31.85123152716551,104.378018834861 36.58620689646341,104.65527505162754 42.57142857136205,104.06995607359568 33.12807881773915,104.62446881787037 36.61280788178556,118.51776157561108 26.291625615791418,119.010638279462" stroke="#4DD2FF" stroke-linecap="round" stroke-linejoin="round" stroke-width="0.5"><title>2025-06-16 3.2km</title><desc>1750084948000</desc></polyline><polyline fill="none" points="79.0,117.14072315492376 78.52718894014833,114.28784827364143 63.359907834092155,115.68547598959412 61.991244239674415,115.69988445081981 55.99400921660708,114.9650510574138 48.14285714284051,115.3396724803315 55.74516129033873,114.95064252130396 61.978801843361,115.6710675269569 74.8442396314349,114.59042864176445" stroke="#4DD2FF" stroke-linecap="round" stroke-linejoin="round" stroke-width="0.5"><title>2025-06-15 4.6km</title><desc>1749956754000</desc></polyline><polyline fill="none" points="115.42857142852154,116.95528066457337 115.05293846857967,114.4732907639991 101.83949670096627,115.68870432119002 100.45849317166721,115.71429184855515 94.64723032066831,115.06180827179196 84.57142857142026,115.52238526629662 94.84609482885571,115.06180827179196 100.37010894581908,115.71429184855515 103.2536443148856,115.57356038358557 103.79499769827817,115.39444738179009 110.79944759857608,114.76754986277956" stroke="#4DD2FF" stroke-linecap="round" stroke-linejoin="round" stroke-width="0.5"><title>2025-06-14 5.1km</title><desc>1749906363000</desc></polyline><polyline fill="none" points="151.85714285710128,117.54643186541216 151.48615881992737,115.04461643681134 138.69812083244324,116.28289502976259 136.97413618909195,116.2955304618954 131.73671448777895,115.66375727929699 121.8729036168661,116.13126974412444 121.74196807434782,115.84065409495815 121.7965245504165,113.89477523993992 121.0,113.88213956315303 121.82925843604608,113.92004658965743 121.74196807434782,115.82801861648477 121.90563750249567,116.13126974412444 132.00949686800595,115.65112178281561 137.2141846837476,116.30816589272581 147.57991513441084,115.3731405342478 147.56900383916218,114.86771848528588 150.89694887853693,114.69082028138655" stroke="#4DD2FF" stroke-linecap="round" stroke-linejoin="round" stroke-width="0.5"><title>2025-06-12 5.9km</title><desc>1749735885000</desc></polyline><polyline fill="none" points="188.28571428568102,125.42166229421855 187.30204930203035,120.46906654769555 160.272646272555,122.87108809237543 157.72794772789348,115.91258929602918 157.42857142852154,107.2203766634193 162.47520047507714,106.99749532676651 166.7733887732029,107.26990582153667 167.00861300854012,106.47743807944062 166.5595485594822,106.30408541626821 157.55687555670738,106.00690913434664 157.74933174916077,115.66495221438527 158.49777249759063,118.48799998172035 159.97326997318305,122.00438202600344 171.94832194817718,120.96433066525788 172.183546183398,121.90532970725326 187.23789723787922,120.44430331527838 188.15741015737876,125.3473741037451" stroke="#4DD2FF" stroke-linecap="round" stroke-linejoin="round" stroke-width="0.5"><title>2025-06-10 5.3km</title><desc>1749559786000</desc></polyline><polyline fill="none" points="12.524488265044056,141.7844150007877 11.783731647301465,138.78210495220264 11.714285714318976,136.44992974642082 32.71010609809309,135.91379459176096 33.659200514433905,139.42545999051072 32.96474118542392,139.39865356206428 32.75640338670928,139.88116885712952 33.19622762838844,142.37415044772206 33.08048440690618,144.0629310037184 33.84438966889866,147.44045958836796 35.8120244347956,147.36004274513107 38.72875361703336,158.59135713448632 38.775050905765966,159.10064164892538 38.03429428790696,159.31507693906315 38.705604972783476,159.1274460698187 38.937091415748,159.55631643140805 38.33522666385397,159.66353391268058 38.54356446256861,160.65529354210594 39.932483120821416,164.1934325702896 40.904726181644946,164.08621693518944 42.571428571478464,163.17488227284048 40.81213160441257,163.55013810438686 37.68706462334376,151.08599733028677 37.31668631453067,150.01378559193108 36.483335119555704,150.01378559193108 35.85832172341179,147.27962587724323 35.187011038535275,147.54768200783292 33.82124102464877,147.36004274513107 33.057335762656294,144.27737855241867 32.895295252557844,140.3100705986144 31.6221198157873,135.8065674297104 11.783731647301465,136.50354320177576 12.617082842276432,141.94525207194965" stroke="#4DD2FF" stroke-linecap="round" stroke-linejoin="round" stroke-width="0.5"><title>2025-06-08 5.0km</title><desc>1749355299000</desc></polyline><polyline fill="none" points="78.99999999994179,151.26976523131452 78.4572864320944,148.73023476869275 68.51122961740475,149.56392466185935 65.52076710073743,149.98718049385207 63.85939903598046,149.98718049385207 58.598400164046325,149.34588322314812 48.14285714284051,149.80761758748122 58.09998974460177,149.34588322314812 63.80402010050602,150.00000640591315 75.79909752844833,148.92262523424142" stroke="#4DD2FF" stroke-linecap="round" stroke-linejoin="round" stroke-width="0.5"><title>2025-06-07 5.3km</title><desc>1749293029000</desc></polyline><polyline fill="none" points="115.42857142852154,151.2224107559814 114.97299243789166,148.77758924401132 100.89449045725632,150.06434330963384 95.18308554962277,149.40810037485062 84.57142857142026,149.8455960437277 95.13863881881116,149.38236528828565 100.21667781262659,150.06434330963384 111.09501517564058,149.07354384040082" stroke="#4DD2FF" stroke-linecap="round" stroke-linejoin="round" stroke-width="0.5"><title>2025-06-05 5.1km</title><desc>1749128617000</desc></polyline><polyline fill="none" points="121.43194600671995,149.80468640157778 121.0,146.9754341171647 121.16197975253453,146.85038308800722 133.26996625424363,146.42833511190838 135.55118110234616,154.79092112103535 147.51068616425619,154.6346152836195 151.8571428571595,154.3688949944044 148.28008998883888,154.49393989369855 147.61867266596528,145.2090788789501 136.17210348707158,145.8812341550074 133.71541057369905,145.80307671609626 133.93138357705902,146.42833511190838 127.58717660291586,146.61591213358042" stroke="#4DD2FF" stroke-linecap="round" stroke-linejoin="round" stroke-width="0.5"><title>2025-06-03 5.2km</title><desc>1748952979000</desc></polyline><polyline fill="none" points="182.9464272815385,140.80117288541078 182.26952412270475,139.7992822891465 181.78969403542578,138.74778206803603 181.48123183648568,138.46010550212668 180.7186447334825,138.39066620378435 180.1359939132235,137.71611044421297 179.8703736863681,136.83322893713193 179.47622754322947,136.22810328288324 179.0049658503558,134.5714285714348 177.64259113825392,135.15672405328223 177.0085299515049,135.2261656567498 175.36339822367881,135.84121769804915 174.66078988160007,136.74394833926635 174.66078988160007,136.97210970450396 171.81608293560566,140.59285984742746 171.79894614676596,140.80117288541078 171.01922225495218,141.8724900457746 170.34231909611844,142.49741961624386 170.2223615742987,142.38830521817727 169.74253148699063,142.80492317164317 169.42550089361612,142.61645336572838 169.41693249923992,142.79500371727772 169.374090527097,142.53709754892043 169.81964703675476,142.8545204284237 169.75109988142503,143.21161993185524 168.72289255153737,144.3523456891853 166.96637169632595,144.7491167354019 166.96637169632595,144.5705699645696 166.8464141745353,144.78879375116958 166.36658408722724,144.8979054612355 165.9467327608436,144.77887449873379 165.24412441879394,144.83838999815634 165.1241668969451,144.72927822146448 164.84140988125,144.88798621993192 163.9931388341065,144.59040851079772 163.88174970666296,143.29097519931383 163.55615071888315,143.0033120472217 161.9538609632,143.41000797938614 161.35407335410127,143.7770248024899 162.03954490734031,146.74286678725912 163.1191626036889,150.05577418304165 165.398355518264,158.96237404609565 165.7153861116385,159.8847259704853 168.40586195816286,165.32939986026759 168.74859773478238,165.42857142857247 169.9310361641983,165.05171893242368 170.7364652392571,165.28973120472074 172.2102290787443,164.9822985769133 172.1845238954411,164.39718218779308 172.57867003857973,164.28809230319166 173.28984677509288,164.6153615909061 173.82965562329628,164.35751315298694 174.05243387809605,164.68478220768156 175.44051377344294,164.99221577356366 176.25451124293613,164.84345771757944 177.07707710683462,164.22858867830655 177.22273981189937,163.06826073477714 177.8396642098378,162.2153613039627 177.67686471593333,161.36245441179926 177.8739377874881,160.94591577589017 177.45408646110445,160.47978709702147 177.18846623427817,159.7855487629131 177.08564550123992,158.75409982316341 177.64259113825392,158.30779641849222 178.49086218539742,158.65492146537872 178.9621238782711,158.62516793834948 179.08208140009083,157.98050595642417 178.88500832853606,157.1870699723222 178.7222088346316,157.11764401644177 178.88500832853606,157.03830000635207 178.6965036514157,156.97879195637506 178.85073475082754,157.06805401770544 178.86787153972546,156.60190679633524 178.64509328489657,156.0861668475045 177.63402274381951,156.01674010754505 177.16276105097495,155.65968752096524 177.35983412250062,154.31081039045966 178.1652631976176,152.93215932834573 178.78218759552692,152.24778573107324 179.06494461125112,152.14860075308388 179.67330061478424,151.30552436477592 180.74434991672751,150.28390438013594 181.69544169688015,149.09365399846138 181.42125307556125,148.53819884553377 180.57298202841775,148.52827997475833 180.46159290103242,148.2009566724082 180.78719188881223,147.41736005813436 181.16420124308206,147.0602759668327 181.5155054141651,147.10987105775712 181.66116811917163,146.93132861233607 181.36127431469504,146.24691287438327 181.76398885218077,145.40378542966937 182.1409982065088,145.18556302026263 182.45802879988332,145.3145126848758 182.4151868277986,145.07645163233246 183.36627860792214,144.64000485875295 183.45196255209157,144.37218427987682 184.28309681039536,143.866298955807 184.3602123601595,143.1421840198018 183.2720262693183,141.06900327985204 183.10065838100854,140.98964620268816" stroke="#4DD2FF" stroke-linecap="round" stroke-linejoin="round" stroke-width="0.5"><title>2025-06-02 11.5km</title><desc>1748829019000</desc></polyline><polyline fill="none" points="42.57142857136205,185.72872024292883 42.006185321719386,182.84270832849143 25.704056143644266,184.3601031499711 18.946830022498034,183.586531290508 11.714285714260768,183.89893580417265 19.036755084933247,183.55677844479214 24.95896276907297,184.33035046195437 41.980492446688004,182.85758482491656 42.558582133904565,185.6394629975839" stroke="#4DD2FF" stroke-linecap="round" stroke-linejoin="round" stroke-width="0.5"><title>2025-06-01 4.9km</title><desc>1748740054000</desc></polyline><polyline fill="none" points="78.99999999988358,199.15561143748346 78.88826622976921,199.39282259962056 78.66479868942406,199.2203054171987 77.91990688838996,195.0798508401349 54.38132597634103,197.12852338765515 52.20251745835412,191.02557722246274 52.10940598323941,183.3481228325254 51.58798172243405,180.45822231871716 48.14285714284051,169.1786059717997 50.414777135825716,176.72717296871997 51.02931287174579,177.89178503293078 52.03491680312436,182.22667358923354 53.040520734502934,182.50703645737667 51.99767221300863,182.48547009614413 52.20251745835412,190.31391479544982 52.91016466927249,193.22524595355208 54.13923614099622,196.2659268379357 54.45581515633967,196.46001136823907 64.54909906012472,195.42489181614656 64.82843348546885,196.24436187917308 72.85464264149778,195.46802189861774" stroke="#4DD2FF" stroke-linecap="round" stroke-linejoin="round" stroke-width="0.5"><title>2025-05-31 5.5km</title><desc>1748696141000</desc></polyline><polyline fill="none" points="113.26456400752068,192.80153850329225 112.56326530617662,188.27690605758107 87.17625231912825,190.5508351421886 84.83191094629001,183.86820333047945 84.57142857147846,175.81629956088727 93.1873840445187,175.90911851816054 84.69165120599791,175.769890068128 84.85194805194624,183.75218368468632 85.47309833031613,186.23499119839107 87.03599257883616,189.80833018326666 109.51762523199432,187.65041140065296 111.52133580716327,187.53439368233376 111.62152133591007,188.3929233974486 115.42857142863795,188.09127819081186" stroke="#4DD2FF" stroke-linecap="round" stroke-linejoin="round" stroke-width="0.5"><title>2025-05-29 5.0km</title><desc>1748526381000</desc></polyline><polyline fill="none" points="139.70500339590944,181.2563321335474 139.0203758206917,175.65004526183475 150.61014263075776,175.08374736752012 151.8571428571595,179.64241266078898 150.51233869139105,175.19700703868875 138.97147385112476,175.73498984638718 139.28933665377554,178.53814656689065 138.84921892697457,175.7633047021227 122.36925515055191,177.29230262740748 124.83880461845547,189.6655503291986 125.79239302698988,192.55350594621268 125.15666742133908,192.94988966867095 126.15915779932402,195.6113085889374 124.814353633672,192.10049528529635 121.48901969660074,177.34893201867817 127.25945211679209,176.52780471666483 137.70002263982315,175.87656409631018 137.57776771567296,175.05543244248838 122.24700022640172,176.1030827461218 121.39121575723402,172.96011998251197 121.0,173.2999014550005 121.19560787861701,176.3296012112114 132.7609237038996,175.19700703868875" stroke="#4DD2FF" stroke-linecap="round" stroke-linejoin="round" stroke-width="0.5"><title>2025-05-27 6.0km</title><desc>1748352132000</desc></polyline><polyline fill="none" points="184.17377155873692,186.58518875610025 184.29677839245414,186.50379327144037 183.90139928407734,184.5299324498701 173.5073218353209,185.52704227886716 172.30361210549017,185.54739135535056 167.97201431827853,185.03866319885128 157.62186788156396,185.4965186563786 157.42857142857974,182.11851342998852 158.6586397656938,181.98623981532728 160.35437683050986,182.10833854278462 160.36316303286003,185.03866319885128 168.22681418812135,184.72325043987803 173.00650829810183,185.191281918007 183.8838268793188,184.11277130113012 188.1012040351634,183.9601509330896 188.28571428573923,184.2959154347409 188.162707452022,184.33661408547778 184.27041978522902,184.49940852246073" stroke="#4DD2FF" stroke-linecap="round" stroke-linejoin="round" stroke-width="0.5"><title>2025-05-25 7.6km</title><desc>1748179850000</desc></polyline><polyline fill="none" points="42.55120763898594,220.27495942470705 42.470323909365106,219.60760478032898 42.076015727361664,219.60760478032898 41.82325407222379,218.35484085556527 41.62104474811349,218.07384520219057 31.86444486049004,218.9051220190595 30.266991200158373,219.1978236916475 23.85695562622277,218.60071148841962 11.886163639777806,219.1392834168073 11.714285714260768,217.10206326864136 14.686762778495904,216.8678977181553 14.666541846061591,218.57729526036564 15.060850028065033,218.6241277117224 23.462647444277536,218.26117571417853 29.54914809955517,218.78804114119703 42.18723085563397,217.57039293760317 42.571428571420256,220.14617198820633" stroke="#4DD2FF" stroke-linecap="round" stroke-linejoin="round" stroke-width="0.5"><title>2025-05-24 6.6km</title><desc>1748094255000</desc></polyline><polyline fill="none" points="79.0,219.9463282466022 78.66432600439293,217.1965288962674 65.95844365144148,218.27629942187923 64.1930470818188,218.57863368996186 62.17900310805999,218.60742739599664 56.37308622081764,217.9019799076923 48.14285714284051,218.23310875930474 56.335789110162295,217.88758298348694 62.104408886807505,218.62182424686034 75.2702889374923,217.51326243924268" stroke="#4DD2FF" stroke-linecap="round" stroke-linejoin="round" stroke-width="0.5"><title>2025-05-18 4.7km</title><desc>1747565909000</desc></polyline><polyline fill="none" points="111.41793791664531,219.6762574188906 111.08224612491904,217.7018896630325 102.13340967649128,218.45890572482313 100.64046460267855,218.72488298569078 99.43904134799959,218.7146531040562 95.34890188538702,218.1826978232857 84.63326653302647,218.67373356719327 84.57142857142026,218.3668365087433 90.60504682833562,217.9780988876737 94.69518629094819,217.9064891616872 99.47437732608523,218.67373356719327 111.19708805362461,217.63027973995486 115.14588360389462,217.46659972397174 115.3048955053091,217.48705974056793 115.33139748882968,217.63027973995486 115.42857142857974,217.56889976525417" stroke="#4DD2FF" stroke-linecap="round" stroke-linejoin="round" stroke-width="0.5"><title>2025-05-17 5.7km</title><desc>1747487200000</desc></polyline><polyline fill="none" points="150.17089292831952,217.29576142014412 146.08450623962563,217.509562449879 144.0905464698444,217.86589677302982 134.93310160120018,218.56430941268627 129.1973901646561,217.823136702209 121.0,218.15096357784932 129.08661462191958,217.85164341755444 134.71155051566893,218.5500561283552 151.0570972704445,217.1247203610401 151.59866659069667,219.88985850424797 151.85714285710128,220.01813678182953" stroke="#4DD2FF" stroke-linecap="round" stroke-linejoin="round" stroke-width="0.5"><title>2025-05-11 5.0km</title><desc>1746965499000</desc></polyline><polyline fill="none" points="188.28571428573923,219.68007556628436 187.78766140597872,217.4627815765707 173.7868415658595,218.73164245960652 168.0979708956438,218.07798845210345 157.42857142857974,218.526574901407 167.83234269317472,218.09080522998556 173.14490674313856,218.73164245960652 187.8762041401933,217.48841525647003" stroke="#4DD2FF" stroke-linecap="round" stroke-linejoin="round" stroke-width="0.5"><title>2025-05-10 5.3km</title><desc>1746870058000</desc></polyline><polyline fill="none" points="42.50405489705736,252.3370101865803 42.42545227694791,252.11595224444318 42.571428571420256,252.28499658757937 41.97629444790073,252.38902376432816 28.220835932646878,253.5983334698467 22.393013100372627,252.90915837581997 11.714285714260768,253.35127112834016 22.33686837181449,252.90915837581997 25.06550218333723,253.13021494360146 27.5470991890179,253.58533020062168 38.80973175296094,252.57107111958612" stroke="#4DD2FF" stroke-linecap="round" stroke-linejoin="round" stroke-width="0.5"><title>2025-05-05 5.4km</title><desc>1746434825000</desc></polyline></svg>