<?xml version="1.0" encoding="utf-8" ?>
<svg baseProfile="full" height="300mm" version="1.1" viewBox="0,0,200,300" width="200mm" xmlns="http://www.w3.org/2000/svg" xmlns:ev="http://www.w3.org/2001/xml-events" xmlns:xlink="http://www.w3.org/1999/xlink"><defs /><rect fill="#222222" height="300" width="200" x="0" y="0" /><text fill="#FFFFFF" style="font-size:12px; font-family:Arial; font-weight:bold;" x="10" y="20">Over 3km Runs</text><text fill="#FFFFFF" style="font-size:4px; font-family:Arial" x="10" y="280">Runner</text><text fill="#FFFFFF" style="font-size:9px; font-family:Arial" x="10" y="290">tang-hi</text><text fill="#FFFFFF" style="font-size:4px; font-family:Arial" x="65" y="280">SPECIAL TRACKS</text><rect fill="yellow" height="2.6" width="2.6" x="65" y="283" /><text fill="#FFFFFF" style="font-size:3px; font-family:Arial" x="70" y="285.5">Over 20.0 km</text><rect fill="red" height="2.6" width="2.6" x="65" y="287" /><text fill="#FFFFFF" style="font-size:3px; font-family:Arial" x="70" y="289.5">Over 40.0 km</text><text fill="#FFFFFF" style="font-size:4px; font-family:Arial" x="120" y="280">STATISTICS</text><text fill="#FFFFFF" style="font-size:3px; font-family:Arial" x="120" y="285">Number: 25</text><text fill="#FFFFFF" style="font-size:3px; font-family:Arial" x="120" y="290">Weekly: 3.6</text><text fill="#FFFFFF" style="font-size:3px; font-family:Arial" x="141" y="285">Total: 141.3 km</text><text fill="#FFFFFF" style="font-size:3px; font-family:Arial" x="141" y="290">Avg: 5.7 km</text><text fill="#FFFFFF" style="font-size:3px; font-family:Arial" x="167" y="285">Min: 3.2 km</text><text fill="#FFFFFF" style="font-size:3px; font-family:Arial" x="167" y="290">Max: 11.5 km</text><polyline fill="none" points="44.20000000001164,49.29750978045922 43.7564841498388,46.70249021954078 29.960806916409638,48.01352207369928 28.28011527378112,48.067584964694106 22.841210374666844,47.36476566278725 11.799999999988358,47.85133326851064 22.549423631106038,47.36476566278725 28.268443804001436,48.067584964694106 39.95158501440892,47.026870441754" stroke="#4DD2FF" stroke-linecap="round" stroke-linejoin="round" stroke-width="0.5"><title>2025-06-22 5.0km</title><desc>1750563938000</desc></polyline><polyline fill="none" points="65.10722873086343,64.19999999999709 63.43269199304632,54.19577807625319 63.40921717896708,51.46798236261384 63.55789100145921,50.32608953039016 63.463991745142266,47.38972630106582 63.49529149723821,46.88219689608377 63.66744013383868,46.592178791783226 63.49529149723821,46.456232479533355 63.4874665591924,44.59827870018489 61.586006618628744,33.15967805420951 61.10868539894,31.799999999995634 61.59383155661635,32.987453318615735 63.463991745142266,44.40794953394652 63.565715939505026,49.97264353738865 63.43269199304632,51.47704494545178 63.424867055000504,54.10515497838787 64.7081568914873,61.78966541932459 64.88813046607538,62.31523266561999 66.89131460106,62.206494869584276" stroke="#4DD2FF" stroke-linecap="round" stroke-linejoin="round" stroke-width="0.5"><title>2025-06-21 8.0km</title><desc>1750517001000</desc></polyline><polyline fill="none" points="103.28707355994266,64.19999999999709 100.5425267041428,47.32297542481683 95.71297526010312,47.22441999570583 87.01127243821975,46.38669722575287 87.18147689430043,45.49969348098966 86.84106798190624,43.799593871008256 87.30913023650646,32.68705402809428 87.24530356528703,31.89856171948486 86.8197924249107,31.79999999998836 86.28790349932387,45.47505444166018 87.09637466620188,45.573610584033304 87.13892578019295,46.41133617227024 100.60635337524582,47.29833657134441 102.24457126588095,57.84353637136519 102.75518463447224,59.2478857437236 113.71209650067613,58.902958583596046" stroke="#4DD2FF" stroke-linecap="round" stroke-linejoin="round" stroke-width="0.5"><title>2025-06-19 5.0km</title><desc>1750345525000</desc></polyline><polyline fill="none" points="152.19999999998254,48.811113783114706 151.90260869567282,47.04388433404529 142.73043478259933,47.91390937512915 141.54869565213448,47.94109752045915 137.61999999999534,47.487960679056414 123.06347826085403,48.14953969212365 121.80347826084471,48.35798137515667 119.79999999998836,48.95611566595471 122.62521739126532,48.19485314303893 127.74347826087615,47.96828565753094" stroke="#4DD2FF" stroke-linecap="round" stroke-linejoin="round" stroke-width="0.5"><title>2025-06-17 5.1km</title><desc>1750166247000</desc></polyline><polyline fill="none" points="156.9172413792694,60.22654612275073 155.80000000004657,53.04607159396983 181.0496551723918,52.30213926921715 176.94379310356453,36.09691977658076 181.9155172413448,36.38803880417254 188.19999999995343,35.77345387724927 178.28448275872506,36.35569225871586 181.94344827590976,50.94364965433488 171.10620689659845,51.46117019338999" stroke="#4DD2FF" stroke-linecap="round" stroke-linejoin="round" stroke-width="0.5"><title>2025-06-16 3.2km</title><desc>1750084948000</desc></polyline><polyline fill="none" points="44.20000000001164,100.49775931266777 43.70354838715866,97.50224068731768 27.777903225796763,98.96974978908838 26.340806451626122,98.98487867337826 20.043709677411243,98.21330361028959 11.799999999988358,98.60665610435535 19.78241935482947,98.19817464737571 26.327741935499944,98.95462090331421 39.836451612995006,97.81995007385558" stroke="#4DD2FF" stroke-linecap="round" stroke-linejoin="round" stroke-width="0.5"><title>2025-06-15 4.6km</title><desc>1749956754000</desc></polyline><polyline fill="none" points="80.20000000001164,100.30304469779367 79.80558539205231,97.69695530219178 65.93147153605241,98.97313953723642 64.48141783033498,99.00000644096872 58.37959183676867,98.31489868537756 47.79999999998836,98.79850452959363 58.58839957037708,98.31489868537756 64.38861439318862,99.00000644096872 67.41632653068518,98.85223840276012 67.98474758322118,98.66416975087486 75.33941997855436,98.0059273559018" stroke="#4DD2FF" stroke-linecap="round" stroke-linejoin="round" stroke-width="0.5"><title>2025-06-14 5.1km</title><desc>1749906363000</desc></polyline><polyline fill="none" points="116.20000000001164,100.9237534586864 115.81046676100232,98.29684725866537 102.38302687410032,99.59703978126345 100.57284299860476,99.61030698499235 95.073550212197,98.94694514326693 84.71654879773268,99.43783323133539 84.57906647812342,99.13268679971225 84.63635077793151,97.089514001942 83.79999999998836,97.07624654132815 84.67072135786293,97.1160489191534 84.57906647812342,99.11941954732174 84.7509193776641,99.43783323133539 95.35997171147028,98.93367787197349 100.82489391800482,99.62357418736792 111.70891089114593,98.64179756096564 111.69745403114939,98.11110440955963 115.19179632252781,97.92536129546352" stroke="#4DD2FF" stroke-linecap="round" stroke-linejoin="round" stroke-width="0.5"><title>2025-06-12 5.9km</title><desc>1749735885000</desc></polyline><polyline fill="none" points="152.20000000006985,109.19274540893093 151.16715176729485,103.99251987508615 122.78627858625259,106.51464249700075 120.1143451143289,99.2082187608321 119.80000000004657,90.08139549658517 125.09896049892996,89.84737009310629 129.6120582119329,90.13340111261641 129.85904365917668,89.30130998342065 129.38752598757856,89.11928968707798 119.93471933470573,88.80725459106907 120.13679833675269,98.94819982511399 120.92266112263314,101.9123999808071 122.47193347197026,105.60460112729925 135.04573804570828,104.51254719852295 135.29272349271923,105.50059619260719 151.09979209990706,103.96651848104375 152.06528066541068,109.11474280894618" stroke="#4DD2FF" stroke-linecap="round" stroke-linejoin="round" stroke-width="0.5"><title>2025-06-10 5.3km</title><desc>1749559786000</desc></polyline><polyline fill="none" points="156.65071267820895,90.373635750846 155.87291822966654,87.22121019981569 155.80000000004657,84.77242623374332 177.84561140299775,84.20948432135629 178.84216054016724,87.8967329900479 178.112978244666,87.86858624016168 177.8942235559225,88.37522729998454 178.35603900975548,90.99285797009361 178.23450862721074,92.7660775539116 179.03660915233195,96.31248256779509 181.10262565652374,96.22804488238762 184.16519129788503,108.02092499122955 184.2138034509262,108.55567373137455 183.43600900226738,108.78083078601048 184.14088522142265,108.58381837329944 184.38394598651212,109.03413225300028 183.75198799697682,109.14671060832916 183.97074268572032,110.18805821920978 185.4291072768392,113.90310419880552 186.4499624907039,113.79052778193727 188.19999999995343,112.83362638650578 186.35273818462156,113.22764500961057 183.07141785451677,100.14029719680548 182.68252063018735,99.01447487153928 181.8075018755626,99.01447487153928 181.15123780956492,96.14360717110685 180.44636159040965,96.4250661082333 179.01230307586957,96.22804488238762 178.21020255074836,92.99124748003669 178.04006001504604,88.8255741285393 176.7032258064719,84.09689580119448 155.87291822966654,84.82872036186745 156.7479369842913,90.54251467555878" stroke="#4DD2FF" stroke-linecap="round" stroke-linejoin="round" stroke-width="0.5"><title>2025-06-08 5.0km</title><desc>1749355299000</desc></polyline><polyline fill="none" points="44.20000000001164,151.3332534928777 43.630150753771886,148.66674650713685 33.186791098327376,149.5421208949556 30.046805455815047,149.98653951854794 28.302368987817317,149.98653951854794 22.778320172277745,149.31317738430516 11.799999999988358,149.79799846686365 22.254989231878426,149.31317738430516 28.24422110558953,150.00000672621536 40.83905240491731,148.86875649595459" stroke="#4DD2FF" stroke-linecap="round" stroke-linejoin="round" stroke-width="0.5"><title>2025-06-07 5.3km</title><desc>1749293029000</desc></polyline><polyline fill="none" points="80.19999999995343,151.2835312937823 79.72164205979789,148.7164687062177 64.93921498017153,150.0675604751159 58.942239827127196,149.3785053936008 47.79999999998836,149.83787584591482 58.89557075977791,149.35148355270212 64.22751170326956,150.0675604751159 75.6497659344459,149.0272210324183" stroke="#4DD2FF" stroke-linecap="round" stroke-linejoin="round" stroke-width="0.5"><title>2025-06-05 5.1km</title><desc>1749128617000</desc></polyline><polyline fill="none" points="84.2535433070152,149.79492072165885 83.79999999998836,146.82420582302439 83.97007874009432,146.69290224241558 96.68346456688596,146.24975186750817 99.07874015741982,155.03046717710095 111.63622047239915,154.8663460477983 116.19999999995343,154.5873397441319 112.44409448822262,154.71863688838494 111.74960629921407,144.96953282289905 99.73070866137277,145.67529586276214 97.15118110232288,145.59323055190907 97.3779527558363,146.24975186750817 90.71653543302091,146.446707740266" stroke="#4DD2FF" stroke-linecap="round" stroke-linejoin="round" stroke-width="0.5"><title>2025-06-03 5.2km</title><desc>1748952979000</desc></polyline><polyline fill="none" points="146.59374864568235,140.34123152967368 145.8830003288458,139.28924640359764 145.379178737232,138.18517117143347 145.05529342836235,137.88311077722028 144.25457697018282,137.81019951396593 143.6427936089458,137.1019159664138 143.36389237071853,136.17489038397616 142.9500389204477,135.53950844702194 142.4552141429158,133.79999999999563 141.024720695219,134.41456025593652 140.35895644914126,134.48747393958183 138.63156813487876,135.1332785829436 137.89382937573828,136.08114575622312 137.89382937573828,136.32071518971497 134.90688708244124,140.12250283978938 134.888893454161,140.34123152967368 134.07018336770125,141.4661145480568 133.35943505098112,142.1222905970426 133.23347965307767,142.00772047907958 132.72965806134744,142.44516933021805 132.39677593833767,142.24727603400243 132.38777912425576,142.4347539031296 132.34279505349696,142.1639524263519 132.8106293886085,142.49724644983507 132.73865487554576,142.87220092843927 131.65903717913898,144.06996297363366 129.81469028117135,144.4865725721611 129.81469028117135,144.29909846279043 129.6887348832679,144.52823343872296 129.18491329165408,144.6428007342911 128.74406939890468,144.5178182236632 128.0063306397642,144.58030949805107 127.88037524180254,144.4657421325319 127.58348037535325,144.6323855309165 126.69279577583075,144.31992893633287 126.57583719206741,142.9555239592737 126.23395825485932,142.6534776495755 124.55155401135562,143.0805083783489 123.92177702183835,143.46587604260276 124.6415221527568,146.58001012661407 125.7751207339461,150.05856289219082 128.16827329422813,159.41049274839315 128.5011554172379,160.37896226899466 131.3261550561292,166.0958698532777 131.68602762155933,166.1999999999971 132.92758797243005,165.80430487904232 133.77328850125195,166.05421776494768 135.32074053271208,165.73141350575315 135.29375009023352,165.1170412971769 135.70760354056256,165.00249691834324 136.45433911390137,165.34612967044814 137.021138404496,165.07538881062646 137.25505557202268,165.41902131806273 138.71253946213983,165.74182656223275 139.56723680510186,165.58563060345477 140.430930962204,164.94001811221096 140.5838768025278,163.72167377151345 141.23164742038352,162.82612936915393 141.06070795177948,161.93057713238522 141.2676346768858,161.4932115646734 140.8267907841946,161.0037764518638 140.54788954602554,160.27482620105002 140.43992777634412,159.1918048143125 141.024720695219,158.723186239411 141.9154052946833,159.08766753863893 142.4102300722152,159.05642633525713 142.53618547011865,158.3795312542352 142.32925874501234,157.54642347092886 142.1583192764083,157.47352621726168 142.32925874501234,157.39021500665694 142.13132883398794,157.32773155418545 142.29327148839366,157.42145671858452 142.3112651167321,156.93200213614182 142.07734794920543,156.39047518986627 141.01572388107888,156.31757711290993 140.52089910354698,155.94267189700622 140.7278258286533,154.526350909975 141.5735263575334,153.07876729475538 142.22129697533092,152.3601750176167 142.51819184183842,152.25603079072607 143.156965645554,151.3708005830049 144.28156741260318,150.2980995991311 145.2802137817489,149.04833669837535 144.99231572938152,148.465108787801 144.10163112985902,148.45469397348643 143.98467254609568,148.11100450601953 144.32655148330377,147.28822806102835 144.72241130529437,146.91328976516525 145.09128068492282,146.96536461063806 145.24422652518842,146.77789504294924 144.9293380304589,146.05925851809297 145.35218829481164,145.1739747011452 145.74804811686045,144.94484117126558 146.08093023992842,145.08023831911123 146.03594616922783,144.83027421394218 147.03459253837354,144.37200510168623 147.12456067971652,144.09079349386593 147.9972516509588,143.55961390359153 148.07822297821986,142.79929322078533 146.93562758283224,140.622453443837 146.75569130008807,140.53912851281348" stroke="#4DD2FF" stroke-linecap="round" stroke-linejoin="round" stroke-width="0.5"><title>2025-06-02 11.5km</title><desc>1748829019000</desc></polyline><polyline fill="none" points="188.20000000001164,151.51515625507454 187.6064945878461,148.48484374492546 170.48925895086722,150.0781083074544 163.39417152368696,149.26585785503266 155.79999999998836,149.59388259438856 163.48859283921774,149.23461736703757 169.7069109075237,150.04686798504554 187.57951706909807,148.50046406616457 188.18651124060852,151.42143614745873" stroke="#4DD2FF" stroke-linecap="round" stroke-linejoin="round" stroke-width="0.5"><title>2025-06-01 4.9km</title><desc>1748740054000</desc></polyline><polyline fill="none" points="44.20000000006985,216.61339200935618 44.0826795414323,216.8624637296016 43.84803862404078,216.68132068806153 43.065902233007364,212.3338433821482 18.350392275257036,214.4849495570379 16.06264333135914,208.07685608358588 15.964876282494515,200.0155289741524 15.417380808736198,196.98113343465957 11.800000000046566,185.13753627038386 14.185515992809087,193.06353161716834 14.830778515548445,194.28637428458023 15.886662643402815,198.83800726869958 16.9425467713736,199.1323882802535 15.847555823856965,199.1097436009586 16.06264333135914,207.32961053523468 16.80567290284671,210.38650825124932 18.09619794820901,213.57922317984048 18.428605914348736,213.78301193666994 29.026554013369605,212.69613640695752 29.31985515996348,213.5565799731412 37.747374773724005,212.741422993553" stroke="#4DD2FF" stroke-linecap="round" stroke-linejoin="round" stroke-width="0.5"><title>2025-05-31 5.5km</title><desc>1748696141000</desc></polyline><polyline fill="none" points="77.92779220791999,209.9416154284554 77.19142857159022,205.19075136045285 50.53506493521854,207.5783768992842 48.07350649358705,200.5616134969896 47.800000000046566,192.10711453892873 56.84675324673299,192.2045744440693 47.92623376636766,192.05838457153004 48.09454545460176,200.43979286891408 48.746753246872686,203.04674075830553 50.38779220788274,206.79874669242417 73.99350649362896,204.53293197067978 76.09740259754471,204.411113366441 76.20259740273468,205.3125695673225 80.20000000006985,204.9958421003539" stroke="#4DD2FF" stroke-linecap="round" stroke-linejoin="round" stroke-width="0.5"><title>2025-05-29 5.0km</title><desc>1748526381000</desc></polyline><polyline fill="none" points="103.4402535657864,197.81914874023641 102.72139461175539,191.93254752494977 114.89064976235386,191.3379347359005 116.20000000006985,196.12453329382697 114.78795562603045,191.45685739061446 102.6700475437101,192.02173933869926 103.00380348658655,194.96505389525555 102.54167987336405,192.05146993722883 85.2377179081086,193.65691775878076 87.83074484951794,206.64882784566726 88.83201267838012,209.6811812435335 88.16450079239439,210.09738415208994 89.21711568941828,212.89187401835807 87.80507131537888,209.20552004955243 84.31347068143077,193.71637861960335 90.37242472276557,192.85419495249516 101.33502377185505,192.17039230113733 101.206656101509,191.30820406461135 85.10935023776256,192.40823688343517 84.21077654522378,189.10812598164193 83.80000000004657,189.46489652775927 84.00538827269338,192.64608127175597 96.1489698891528,191.45685739061446" stroke="#4DD2FF" stroke-linecap="round" stroke-linejoin="round" stroke-width="0.5"><title>2025-05-27 6.0km</title><desc>1748352132000</desc></polyline><polyline fill="none" points="147.88246013660682,203.41444819390745 148.0116173120332,203.32898293501057 147.59646924823755,201.2564290723676 136.68268792709569,202.30339439280942 135.41879271069774,202.32476092311845 130.87061503418954,201.7905963587982 120.00296127563342,202.27134458919318 119.79999999998836,198.72443910148286 121.09157175396103,198.58555180609255 122.87209567194805,198.71375546992203 122.88132118451176,201.7905963587982 131.13815489748958,201.45941296187084 136.1568337129429,201.95084601390408 147.57801822322654,200.81840986618045 152.00626423687208,200.65815847973863 152.19999999995343,201.01071120647248 152.07084282458527,201.05344478975167 147.98394077445846,201.2243789485874" stroke="#4DD2FF" stroke-linecap="round" stroke-linejoin="round" stroke-width="0.5"><title>2025-05-25 7.6km</title><desc>1748179850000</desc></polyline><polyline fill="none" points="188.17876802093815,202.78870739594277 188.09384010487702,202.08798501934507 187.67981651372975,202.08798501934507 187.41441677586408,200.77258289834572 187.20209698553663,200.47753746229864 176.9576671035611,201.35037812001246 175.28034076018957,201.65771487622987 168.54980340757174,201.0307470628395 155.9804718217929,201.5962475876513 155.79999999998836,199.4571664320756 158.9211009174469,199.2112926040645 158.8998689383734,201.00616002338938 159.31389252952067,201.05533409731288 168.1357798165409,200.67423449988564 174.52660550456494,201.2274431982587 187.79659239843022,199.9489125844848 188.20000000001164,202.65348058762174" stroke="#4DD2FF" stroke-linecap="round" stroke-linejoin="round" stroke-width="0.5"><title>2025-05-24 6.6km</title><desc>1748094255000</desc></polyline><polyline fill="none" points="44.20000000001164,253.4436446589243 43.84754230460385,250.55635534106113 30.506365834036842,251.69011439295718 28.65269943594467,252.00756537445704 26.53795326349791,252.03779876577028 20.441740531823598,251.29707890305144 11.799999999988358,251.6447641972627 20.402578565699514,251.2819621326489 26.459629331191536,252.05291545917862 40.283803384401836,250.88892556118662" stroke="#4DD2FF" stroke-linecap="round" stroke-linejoin="round" stroke-width="0.5"><title>2025-05-18 4.7km</title><desc>1747565909000</desc></polyline><polyline fill="none" points="75.98883481242228,253.16007028983586 75.63635843113298,251.08698414618993 66.24008016026346,251.88185101107229 64.67248783278046,252.16112713498296 63.41099341533845,252.15038575926883 59.11634697963018,251.5918327144609 47.86492985970108,252.10742024556384 47.79999999998836,251.78517833419028 54.13529916974949,251.37700383206538 58.42994560545776,251.30181361977884 63.448096192325465,252.10742024556384 75.75694245629711,251.0117937269606 79.90317778405733,250.83992971017142 80.070140280528,250.8614127276087 80.0979673632537,251.0117937269606 80.19999999995343,250.94734475352016" stroke="#4DD2FF" stroke-linecap="round" stroke-linejoin="round" stroke-width="0.5"><title>2025-05-17 5.7km</title><desc>1747487200000</desc></polyline><polyline fill="none" points="114.42943757475587,250.6605494911346 110.13873155164765,250.88504057236423 108.0450737933279,251.2591916116653 98.42975668126019,251.99252488331695 92.40725967288017,251.21429353729764 83.79999999998836,251.55851175672433 92.29094535298645,251.24422558842343 98.19712804147275,251.9775589347555 115.35995213396382,250.48095637907682 115.92859992024023,253.38435142944218 116.20000000001164,253.51904362090863" stroke="#4DD2FF" stroke-linecap="round" stroke-linejoin="round" stroke-width="0.5"><title>2025-05-11 5.0km</title><desc>1746965499000</desc></polyline><polyline fill="none" points="152.19999999995343,253.16407934459858 151.6770444762078,250.83592065540142 136.97618364408845,252.16822458259412 131.00286944041727,251.48188787471736 119.79999999998836,251.952903646481 130.72395982779562,251.49534549147938 136.30215208028676,252.16822458259412 151.7700143471593,250.86283601929608" stroke="#4DD2FF" stroke-linecap="round" stroke-linejoin="round" stroke-width="0.5"><title>2025-05-10 5.3km</title><desc>1746870058000</desc></polyline><polyline fill="none" points="188.1292576418491,251.4538606959104 188.0467248907662,251.22174985667516 188.19999999995343,251.39924641695688 187.57510917028412,251.50847495255584 173.13187772926176,252.7782501433394 167.01266375539126,252.0546162946266 155.79999999998836,252.51883468477172 166.95371179038193,252.0546162946266 169.81877729250118,252.28672569079208 172.42445414845133,252.76459671065095 184.25021834060317,251.69962467557343" stroke="#4DD2FF" stroke-linecap="round" stroke-linejoin="round" stroke-width="0.5"><title>2025-05-05 5.4km</title><desc>1746434825000</desc></polyline></svg>