<?xml version="1.0" encoding="utf-8" ?>
<svg baseProfile="full" height="300mm" version="1.1" viewBox="0,0,200,300" width="200mm" xmlns="http://www.w3.org/2000/svg" xmlns:ev="http://www.w3.org/2001/xml-events" xmlns:xlink="http://www.w3.org/1999/xlink"><defs /><rect fill="#222222" height="300" width="200" x="0" y="0" /><text fill="#FFFFFF" style="font-size:12px; font-family:Arial; font-weight:bold;" x="10" y="20">Over 3km Runs</text><text fill="#FFFFFF" style="font-size:4px; font-family:Arial" x="10" y="280">Runner</text><text fill="#FFFFFF" style="font-size:9px; font-family:Arial" x="10" y="290">tang-hi</text><text fill="#FFFFFF" style="font-size:4px; font-family:Arial" x="65" y="280">SPECIAL TRACKS</text><rect fill="yellow" height="2.6" width="2.6" x="65" y="283" /><text fill="#FFFFFF" style="font-size:3px; font-family:Arial" x="70" y="285.5">Over 20.0 km</text><rect fill="red" height="2.6" width="2.6" x="65" y="287" /><text fill="#FFFFFF" style="font-size:3px; font-family:Arial" x="70" y="289.5">Over 40.0 km</text><text fill="#FFFFFF" style="font-size:4px; font-family:Arial" x="120" y="280">STATISTICS</text><text fill="#FFFFFF" style="font-size:3px; font-family:Arial" x="120" y="285">Number: 98</text><text fill="#FFFFFF" style="font-size:3px; font-family:Arial" x="120" y="290">Weekly: 3.8</text><text fill="#FFFFFF" style="font-size:3px; font-family:Arial" x="141" y="285">Total: 507.9 km</text><text fill="#FFFFFF" style="font-size:3px; font-family:Arial" x="141" y="290">Avg: 5.2 km</text><text fill="#FFFFFF" style="font-size:3px; font-family:Arial" x="167" y="285">Min: 3.0 km</text><text fill="#FFFFFF" style="font-size:3px; font-family:Arial" x="167" y="290">Max: 11.5 km</text><polyline fill="none" points="19.85466902772896,49.0 20.634493757097516,43.52822779680719 20.747922808601288,41.64952781331522 20.336742496787338,38.95035827491665 20.003544657869497,35.635753032329376 19.592364346055547,34.73323792302108 19.634900240343995,34.601962157088565 19.989366026449716,34.65119059432618 19.82631176483119,32.99381669045397 19.514381873072125,32.657414860557765 19.535649820260005,31.76307146713225 19.252077191398712,31.0 19.528560504550114,31.853326754746377 19.471845978754573,32.59998026162066 19.819222449092194,33.01022649994411 19.996455342159607,34.63478111857694 19.925562184944283,34.70041900155775 19.64198955608299,34.58555267130578 19.578185714577558,34.72503319392126 19.904294237756403,35.24192949874123 20.06734849937493,35.91471020568861 20.329653181048343,38.86011092527042 20.7408334929205,41.518263297919475 20.733744177181507,42.77347148652916 19.918472869234392,48.3355317066962" stroke="#4DD2FF" stroke-linecap="round" stroke-linejoin="round" stroke-width="0.5"><title>2025-10-30 4.9km</title><desc>1761826029000</desc></polyline><polyline fill="none" points="40.822313700657105,31.0 41.293154609942576,31.245553153239598 41.153891805763124,31.452738005275023 41.14726024365518,31.59853441222367 41.25999679940287,31.64457532439701 41.21357586470549,31.890126381833397 40.994734315318055,33.018116294406354 40.59020902708289,34.13841613115801 40.450946222932544,34.85969627373561 40.232104673516005,35.22800688143616 40.12599967990536,35.93393052624742 39.39652784867212,37.72172937594587 39.1312653645582,39.14886890321213 39.16442317509791,39.55552200479724 38.72674007632304,42.632203785651654 38.70684539002832,43.61426036909688 39.270528168737656,49.0 39.668421894835774,48.95396966365661 39.35010691394564,46.16908215303556 39.42305409704568,46.023313864432566 39.03842349513434,43.867444762407104 39.03842349513434,42.68591033502162 40.10610499361064,35.13592939788941 40.25863092194777,34.852023116989585 40.19231530095567,34.56811576894688 40.623366837593494,31.821065227624786" stroke="#4DD2FF" stroke-linecap="round" stroke-linejoin="round" stroke-width="0.5"><title>2025-10-28 5.1km</title><desc>1761655486000</desc></polyline><polyline fill="none" points="60.5463375277177,31.0 60.48780136401183,31.30856526975549 60.604873691365356,31.767647804270382 60.36422501844936,33.88240109736216 59.98699196364032,35.515461081580725 60.05203214546782,35.7111248396468 59.466670508671086,39.308235695985786 59.48618256323971,39.737168222993205 59.02439727197634,43.048142764368095 59.629270963341696,48.992475829902105 59.915447763574775,49.0 59.98048794543138,48.90970990831556 59.36260621767724,42.8675479677986 59.90243972718599,39.511414570966735 60.22113661837648,36.65180876952945 60.481297345802886,35.206913336100115 60.58536163682584,35.086504111204704 60.51381743676029,34.845685074222274 60.79349021881353,32.79869164972479 60.97560272802366,32.158994603407336" stroke="#4DD2FF" stroke-linecap="round" stroke-linejoin="round" stroke-width="0.5"><title>2025-10-26 5.1km</title><desc>1761476985000</desc></polyline><polyline fill="none" points="80.2356706772116,49.0 80.37278816208709,48.980167116627854 80.4327770617092,48.25626411621488 80.67273266028496,47.95876817567478 81.53828678367427,42.04832748921035 81.6068455260829,39.53925700086256 81.12693432898959,36.69292105444765 80.72415171712055,32.636500880660606 80.24424051996903,31.694276454225474 80.28708973398898,31.585176195825625 80.72415171712055,31.644685442806804 80.62131360347848,31.029754806550045 78.41029415951925,31.426484693060047 78.35030525986804,33.67789623672434 78.41886400233489,31.41656646557385 79.35297686819104,31.13885568621481 80.544185018196,31.0 80.70701203148928,31.1983652054696 80.69844218873186,31.664521850383608 80.29565957683371,31.545503344335884 80.24424051996903,31.664521850383608 80.55275486101164,32.13067626746488 80.7927104595874,32.934043545494205 80.99838668690063,35.76065359596396 81.58970584050985,39.450000340424594 81.64969474013196,41.056607735059515 80.62131360347848,48.46451073503704" stroke="#4DD2FF" stroke-linecap="round" stroke-linejoin="round" stroke-width="0.5"><title>2025-10-25 5.0km</title><desc>1761405216000</desc></polyline><polyline fill="none" points="100.42346941085998,31.0 100.5081632930378,31.70108673811046 100.37786501279334,32.89970355779951 100.10423862421885,34.83704955071153 99.89576137578115,35.50794746092288 99.95439560190425,35.71901521203108 99.36805334070232,39.29199961258564 99.40714282481349,39.631198051596584 98.94458392984234,42.81205020267953 98.95109884385602,43.70899571963673 99.04882255406119,43.96526387659833 98.9576137578697,44.048173973249504 99.54395601904253,49.0 99.88924646176747,49.0 99.91530611782218,48.653307560998655 99.61562007322209,46.264100425643846 99.66122447131784,46.08321094983694 99.31593402859289,43.96526387659833 99.32244894260657,42.638689735220396 99.83712714965804,39.5105943397939 100.22150707646506,36.2919103672466 100.50164837902412,35.08581015760137 100.44301415293012,34.87474060537352 100.72315545548918,32.76401205964066 101.02935641410295,32.22124358529982 101.05541607018677,31.71616379948682" stroke="#4DD2FF" stroke-linecap="round" stroke-linejoin="round" stroke-width="0.5"><title>2025-10-23 5.2km</title><desc>1761220332000</desc></polyline><polyline fill="none" points="119.76546649236116,48.45722904626018 119.81985107384389,47.92232061498362 119.96940867291414,47.788592929668084 120.20054314419394,45.89278147974983 120.29571616178146,45.798383015622676 120.744388958934,42.368494068970904 120.77158124968992,41.33005734877224 120.35010074326419,38.600161024827685 120.07137976316153,35.610538720633485 119.66349540208466,34.76870317724388 119.70428383818944,34.674291143222945 120.0509855451237,34.737232512037735 119.89462987336447,33.16368293099367 119.581918529846,32.786026269466674 119.59551467525307,31.873348393346532 119.22841875028098,31.0 119.57512045718613,31.810404694675526 119.54792816645931,32.738819057172805 119.88783180070459,33.13221161293768 120.02379325439688,34.721497174628894 119.69068769284058,34.61134972322179 119.64989925673581,34.75296784622333 119.87423565529753,35.08340912525455 120.05778361781267,35.68134690012084 120.34330267054611,38.68670100298914 120.75118703165208,41.33005734877224 120.63561979599763,43.27318137000111 119.88103372801561,48.44936277256784 119.60231274794205,48.45722904626018 119.67029347480275,48.693216885039874 119.581918529846,49.0" stroke="#4DD2FF" stroke-linecap="round" stroke-linejoin="round" stroke-width="0.5"><title>2025-10-21 5.1km</title><desc>1761051395000</desc></polyline><polyline fill="none" points="141.0126269380562,31.106521599453117 140.7298804553575,31.0 140.52603996780817,31.281521040968073 140.45370947223273,32.483680063145584 139.93424500402762,35.33682833637431 139.99342450039694,35.51942612497078 139.40820503619034,39.20171985210618 139.44108253417653,39.60493523449986 138.9873730619438,42.89144005118578 139.59231902493048,49.0 140.2038404875202,48.901110716338735 139.94739600320463,48.825041947835416 139.34245004021795,43.08923435230099 139.684376019286,40.122264999125036 139.88164100726135,39.41473956988193 140.41425647464348,35.24552927513287 140.5523419662204,34.94119826715905 140.49973796942504,34.66729930260772 140.80221095093293,32.44563735180418" stroke="#4DD2FF" stroke-linecap="round" stroke-linejoin="round" stroke-width="0.5"><title>2025-10-19 5.0km</title><desc>1760870639000</desc></polyline><polyline fill="none" points="162.8748728786013,31.63629756296723 163.03294149046997,31.590021502044692 163.10209650819888,31.20824324851128 161.97585764853284,31.0 161.74863401893526,31.150397941702977 161.32382462447276,32.06435019295168 161.49177252466325,32.73534822323563 160.8594980771304,33.383204463090806 161.08672170672799,33.672424753021915 160.10867217066698,32.81633046421484 159.54555274086306,32.469263292667165 159.37760484073078,32.63122811052017 159.06146761699347,32.34200505231274 157.14488569786772,35.77792528907594 157.14488569786772,36.61085930695117 157.52029865107033,37.20085037785611 160.41493010619888,38.88982673395367 158.69593395193806,49.0 160.28649935900467,39.30628262775281 157.45114363339962,37.698291343753226 156.89790349180112,37.02732392444159 156.98681708594086,36.44890041400504 159.01207117573358,32.38828079330415 159.92096569406567,33.07084568625578 160.29637864726828,32.94358814966836 161.0966009949334,33.6492871581213 160.8496187888668,33.325360312832345 161.49177252466325,32.71221042901743 161.27442818327108,32.06435019295168 161.69923757773358,31.185105129508884 161.93634049559478,31.0 163.07245864346623,31.16196700555156 163.09221721993526,31.32393376989785" stroke="#4DD2FF" stroke-linecap="round" stroke-linejoin="round" stroke-width="0.5"><title>2025-10-18 5.0km</title><desc>1760792768000</desc></polyline><polyline fill="none" points="180.42522787948838,31.0 180.5531159635575,31.11098773541744 180.48277751731803,31.72511681359174 180.56590477196733,32.13206696400448 180.14387409458868,34.98065434300952 179.94564756428008,35.72052894018998 180.01598601051955,35.898097725097614 179.4468840364716,39.41978919109533 179.47246165332035,39.78970488326013 179.03764216750278,42.91911647303641 179.06321978432243,44.12497678431828 179.60034973733127,48.963013191380014 179.95204196847044,49.0 179.98401398950955,48.86684740111377 179.6770825877902,45.885644951638824 179.37654559026123,44.01400887784985 179.37015118604177,42.86733061391715 179.6770825877902,40.5961145809124 179.90088673486025,39.39019585456845 179.990408393729,39.39019585456845 179.8753091180988,39.323610803425254 180.3037341996387,36.23103802994592 180.43162228370784,35.48376988686505 180.5531159635575,35.320997591239575 180.48277751731803,35.084237239090726 180.77052570643718,32.886768496107834 180.96235783252632,32.48722160048783" stroke="#4DD2FF" stroke-linecap="round" stroke-linejoin="round" stroke-width="0.5"><title>2025-10-16 4.6km</title><desc>1760619242000</desc></polyline><polyline fill="none" points="19.765606336994097,71.0 19.772603162768064,70.45754932039563 19.954520632571075,70.23085241978697 20.64020955716842,65.56723019464698 20.75215876934817,63.470130522611726 20.017492064420367,57.68055330423522 19.625669821805786,56.878886363199854 19.71662855669274,56.741225571553514 20.038482541713165,56.78981176049274 19.884552374947816,55.21884330229659 19.541707912634593,54.7896558077191 19.58368886722019,53.979861782201624 19.219853927614167,53.0 19.56969521570136,53.83409798301 19.562698389956495,54.80585160422925 19.884552374947816,55.21884330229659 20.031485715939198,56.78171406438196 19.75161268550437,56.72503016865085 19.639663473324617,56.814104843833775 20.038482541713165,57.63196765874454 20.269377791817533,60.15028456867003 20.780146072385833,63.704943655393436 20.780146072385833,64.56322025186091 20.283371443365468,68.19055128774198 20.07346667049569,69.34025120863953 19.758609511249233,69.79364943283872 19.835574594617356,70.36848990065482 19.660653950588312,70.96761498844717" stroke="#4DD2FF" stroke-linecap="round" stroke-linejoin="round" stroke-width="0.5"><title>2025-10-14 5.0km</title><desc>1760442162000</desc></polyline><polyline fill="none" points="40.59067244184553,53.0 40.51320720356307,53.522883715202624 40.61003875141614,53.918778911327536 40.56485069572227,54.35948992386693 40.203346250462346,56.66757733162376 40.016138591308845,57.14561874006904 39.91285160696134,58.60960121928656 39.42869386772509,61.39556899483432 39.47388192341896,61.75407728993014 39.01554593027686,65.07019617006154 39.59653521733708,70.98506406692468 39.91285160696134,71.0 39.96449509912054,70.85810851336282 39.344773192948196,64.92082466166175 39.7708320034435,61.74660838495038 39.88702986083808,61.61216796544613 40.274356052221265,58.25854685304512 40.54548438618076,57.205373697586765 40.47447458442184,56.98129235650413 40.752058354904875,54.971999146997405 40.98445406972314,54.0980515063784" stroke="#4DD2FF" stroke-linecap="round" stroke-linejoin="round" stroke-width="0.5"><title>2025-10-12 5.0km</title><desc>1760269757000</desc></polyline><polyline fill="none" points="60.61156118646613,53.0 60.62450428036391,54.32544108592265 60.249154557444854,56.84895511166542 60.10030897764955,57.14847626286064 60.08736588375177,57.92722555983346 59.52434129937319,61.35661976530537 59.55669903414673,61.723510571617226 59.110162294789916,64.87570124598278 59.110162294789916,65.75170180210989 59.68612997306627,71.0 60.06147969598533,70.94010712039017 59.420796548220096,65.01047123972239 60.51448798229103,57.34316435844812 60.63744737426168,57.16345228847058 60.579203451721696,56.89388336194679 60.889837705210084,54.66241383264423" stroke="#4DD2FF" stroke-linecap="round" stroke-linejoin="round" stroke-width="0.5"><title>2025-10-11 5.0km</title><desc>1760186515000</desc></polyline><polyline fill="none" points="80.58429231276386,53.0 80.60355469671777,53.661242225862225 80.68702502711676,53.787546240506344 80.64207946459646,54.54536574674421 80.26967337512178,57.00451024670474 80.13483668756089,57.24224792933819 80.13483668756089,57.933168682553514 79.64043549983762,61.26881253547617 79.53770278548473,61.4693920607242 79.56980675872182,61.93740881382837 79.14603431211435,64.9831589716996 79.34507894614944,67.79107969695178 79.74316821416141,71.0 80.17978225008119,70.96286052370851 79.53770278548473,66.08999773445248 79.47991563368123,64.91630240272934 79.9036880803178,61.89283591874846 80.0256831785955,61.63282682272256 80.46871800912777,58.000031634837796 80.67418343780446,57.27939437243913 80.60997549135936,57.049086121071014 80.85396568788565,55.37747223654151" stroke="#4DD2FF" stroke-linecap="round" stroke-linejoin="round" stroke-width="0.5"><title>2025-10-10 5.0km</title><desc>1760093219000</desc></polyline><polyline fill="none" points="100.26169220267911,71.0 101.40659558941843,62.558792945848836 101.3248167760903,60.84585372029687 100.74418720137328,56.21792108262889 101.0058794040524,56.63434979901649 100.99770152271958,55.564881389655056 101.63557626673719,55.72577565238316 100.98952364138677,55.55541701258335 100.95681211605552,56.161135204238235 101.14490338671021,56.60595699114492 100.77689872670453,56.823634963344375 100.82596601473051,57.29684619026375 100.40889406669885,57.344167180664954 100.03271152536036,54.48593620691099 99.60746169596678,53.70984509639675 99.66470686535467,53.54894734903064 100.0572451693588,53.66252225840435 100.03271152536036,53.113575579205644 99.869153898675,53.0 98.36442373326281,53.24608024649933 99.86097601731308,53.04732317484013 100.04906728799688,53.21768640508526 100.0654230506916,53.63412854405033 99.67288474665838,53.53001818397024 99.63199533999432,53.70038053073222 100.11449033868848,54.78879927516391 100.4416055920301,58.40415106108412 100.89138906536391,61.139232288369385 100.9486342347227,62.41683785411442 100.09813457599375,68.53017443662975" stroke="#4DD2FF" stroke-linecap="round" stroke-linejoin="round" stroke-width="0.5"><title>2025-10-08 5.0km</title><desc>1759920144000</desc></polyline><polyline fill="none" points="120.6522112149396,53.0 120.64151922782185,54.051619571044284 120.82328300911468,54.10110732708563 120.72705512493849,55.33829469135526 120.1176118584699,59.48278077421128 119.90377211582381,59.97763535741251 119.75408429605886,62.34053826719901 119.18740897811949,66.11366513749817 118.93080128694419,66.91775903272355 118.9735692354152,67.57340089532954 118.49242981459247,71.0 118.94149327406194,66.93012966657989 119.05910513253184,66.73219937422982 119.68993237323593,66.73219937422982 120.55598333076341,60.64568585500092 120.80189903482096,60.02712070514826 120.70567115064478,59.655980107076175 121.31511441711336,55.177461044899246 121.50757018540753,55.00425534185342" stroke="#4DD2FF" stroke-linecap="round" stroke-linejoin="round" stroke-width="0.5"><title>2025-10-07 3.0km</title><desc>1759844077000</desc></polyline><polyline fill="none" points="140.625398615608,53.0 140.70276751648635,53.04476303512638 140.61250379876583,53.611759117666224 140.7156623332994,53.64906133803015 140.6511882492341,54.45478467189969 140.29658078678767,56.86444151183241 140.14829039337928,57.19268585972168 140.03868445043918,58.7294467011161 139.68407698802184,61.12404391678865 139.56157622821047,61.37767269397591 139.60670808711438,61.750654598763504 139.16828431535396,64.6896857433021 139.14249468172784,65.76382006708445 139.72276143843192,71.0 140.10315853453358,70.94778922160913 139.8065777477459,68.29990823429398 139.85815701499814,68.09105722273671 139.49710214417428,66.0845654656805 139.47131251051906,65.21183633473265 140.85750531830126,55.42462510673067" stroke="#4DD2FF" stroke-linecap="round" stroke-linejoin="round" stroke-width="0.5"><title>2025-10-06 5.0km</title><desc>1759755043000</desc></polyline><polyline fill="none" points="163.73479171463987,70.89656125801412 163.7965967784403,71.0 164.42347671161406,70.85518573033914 164.57357472385047,70.58624437088292 163.84074325265829,68.9518923999276 163.95552408549702,68.79673097288469 162.68410562939243,66.04516048127698 162.0660549910972,65.22794971503754 161.84532262024004,64.44176577728649 161.84532262024004,63.04523913684534 163.29332697292557,62.66248388355598 163.3021562678041,62.38317504360748 160.21190307603683,59.714183378186135 158.30477539193816,57.458931670495076 157.94277430378133,56.786484094001935 155.99150014552288,54.386325524894346 155.42642527620774,53.0 156.22106181120034,54.6035837004747 157.70438334328355,56.32094073515327 158.35775116091827,57.407205099239945 160.55624557455303,59.9003944802389 161.74820037704194,60.67627022733359 163.11674107628642,62.207313509883534 162.99313094862737,62.46593330218457 161.527468006243,62.79696563098696 161.75702967192046,63.24178854535421 161.73937108222162,64.34866462622449 161.91595697891898,65.0831268364127 162.85186223126948,66.60375628779002 163.73479171463987,68.68294576885091 160.71517288155155,69.74838382213784" stroke="#4DD2FF" stroke-linecap="round" stroke-linejoin="round" stroke-width="0.5"><title>2025-10-04 5.0km</title><desc>1759568734000</desc></polyline><polyline fill="none" points="179.80240777714062,53.50442067741824 179.81652150733862,53.28942210126115 179.35076841060072,53.16538419009885 177.01494606173947,53.0 179.3225409502047,53.18192258972704 179.83769210265018,53.339037210193055 179.81652150733862,53.578843122624676 180.26110400876496,54.141143734123034 180.16230789734982,54.25691100109543 180.23287654839805,54.538059358681494 180.40224131083232,54.728247375707724 182.98505393826053,61.36799758615962 179.87297642815975,62.51728644247487 180.23287654839805,64.11303338957077 180.91033559819334,66.27096022650949 181.20672393246787,67.93277102836146 181.714818219858,69.0984976675245 181.5172259969986,69.30518496040895 181.67953389431932,69.5862787954029 181.81361433127313,70.30554367879813 181.7289319500269,70.12366123453103 181.51016913185595,70.05752205820318 181.28434944860055,70.17326557980414 181.22083766269498,70.38821737621765 181.53839659228106,70.95039618311421 181.79950060107512,71.0 181.9688653635094,70.81811918313178 181.9547516333114,70.56183185413829 181.67247702923487,70.09885905000556 181.46782794126193,70.04098725530639 181.305520043883,70.14019601978362 181.24200825797743,70.47089098555443 181.5454534573655,70.95039618311421 181.8488986567536,70.97519809551886 181.99003595882095,70.61970326044684 181.73598881514044,70.16499819111777 181.39020242512925,70.06578945832734 181.22789452777943,70.42128683051124 181.3831455600448,70.77678257440857 181.6230789734982,70.99173269939638 181.88418298229226,70.95039618311421 181.9970928239345,70.74371327157132 181.81361433127313,70.24767203822557 181.52428286205395,70.05752205820318 181.2631788533181,70.181532967581 181.29846317879856,70.60316857734142 181.63013583861175,71.0 181.96180849839584,70.83465382046415 181.9688653635094,70.59490123445721 181.64424956880976,70.09059165341023 181.39020242512925,70.07405685756385 181.249065123091,70.1980677405154 181.33374750433723,70.62797060067533" stroke="#4DD2FF" stroke-linecap="round" stroke-linejoin="round" stroke-width="0.5"><title>2025-10-02 5.0km</title><desc>1759403720000</desc></polyline><polyline fill="none" points="19.624950193130644,93.0 20.049534880148713,90.30598840441962 20.25475081219338,90.18315898112633 20.69348832211108,86.9649613682268 20.743023202230688,85.44998923863022 20.26890363509301,82.4117700831921 20.021229234320344,79.67645589262975 19.915083062573103,79.26696972662467 19.589568135881564,78.74282439627859 19.674485073279357,78.61178753072454 20.007076411420712,78.66911618563608 19.851395359495655,77.07208839061059 19.51172760987538,76.65439897367469 19.554186078574276,75.7944433527664 19.249900386261288,75.0 19.561262490053196,75.85996410420194 19.51172760987538,76.62982894051675 19.851395359495655,77.07208839061059 20.007076411420712,78.66911618563608 19.667408661800437,78.61997734105535 19.624950193130644,78.74282439627859 20.035382057219977,79.65188678137201 20.750099613709608,85.68747323912248 20.63687703051255,87.52999773333431 19.900930239644367,92.41043677189737 19.787707656476414,92.41862517959089 19.72401995342807,92.65608864113892" stroke="#4DD2FF" stroke-linecap="round" stroke-linejoin="round" stroke-width="0.5"><title>2025-09-30 5.0km</title><desc>1759224370000</desc></polyline><polyline fill="none" points="39.730379854066996,93.0 39.772398578119464,92.4327499938372 39.93347035362967,92.31929950841004 40.6337824210641,87.67579471338831 40.76684171389206,85.92529340171313 40.059526525757974,79.9360190298321 39.92646723293001,79.39299085007951 39.62533304392127,78.87427391026722 39.674354888673406,78.77701410824375 40.03151404307573,78.83374900717172 39.86343914686586,77.17221024011815 39.527289354475215,76.80747758188954 39.56230495785712,75.94832294592197 39.22615516546648,75.0 39.54129559581634,75.76190137755475 39.534292475145776,76.79937239275023 39.87044226753642,77.2046308400968 40.04552028438775,78.80132906987274 39.96148283628281,78.86616893129394 39.674354888673406,78.76080412969168 39.63233616462094,78.85806395149848 40.04552028438775,79.81444587815349 40.241607663279865,82.25397831849841 40.738829231180716,85.25263684258243 40.773844834562624,86.45206867228262 39.947476594970794,92.48137158103782 39.78640481943148,92.5299931385889 39.70937049202621,92.9108609805262" stroke="#4DD2FF" stroke-linecap="round" stroke-linejoin="round" stroke-width="0.5"><title>2025-09-28 5.0km</title><desc>1759056716000</desc></polyline><polyline fill="none" points="60.54428859255859,75.0 60.58964597526938,75.6298117194674 60.68684036677587,75.63730944564304 60.62852373183705,76.38707821701246 60.23974616575288,78.89125070165028 60.10367401764961,79.18364853528328 60.10367401764961,79.89589482058364 59.52050766849425,83.43453235110064 59.57234467731905,83.75689979613526 59.11229122406803,86.94301394087233 59.138209728494985,88.14245657841093 59.69545757322339,92.94003227640496 60.08423513933667,93.0 59.766733460332034,90.33138915974268 59.82505009527085,90.1664718422544 59.48162991186837,87.92505904631253 59.45571140747052,86.93551736311201 60.4989312098478,79.52102921147161 60.654442236264,79.23613007509994 60.59612560135429,79.01870631001657 60.88770877593197,76.7469645213423" stroke="#4DD2FF" stroke-linecap="round" stroke-linejoin="round" stroke-width="0.5"><title>2025-09-27 5.0km</title><desc>1758971882000</desc></polyline><polyline fill="none" points="79.72638571128482,93.0 79.79654322122224,92.45608108815213 79.97895274701295,92.26124356216314 80.77874836017145,86.13985596117709 80.01403150198166,79.66886058036471 79.62816519738408,78.8812632417903 79.68429120531073,78.7757083689794 79.96492124503129,78.89750244061725 80.02806300396333,78.84066523029469 79.87371648213593,77.24108714931936 79.52994468348334,76.80261852627154 79.56502343848115,75.90131435039075 79.21423588882317,75.0 79.57203918942832,75.88507454222417 79.55099193647038,76.84321757399448 79.90177948612836,77.29792549823469 80.04209450597409,78.83254562551883 79.68429120531073,78.7757083689794 79.66324395238189,78.90562203877926 80.0771732609137,79.87996782517439 80.37183480258682,82.96531772155868 80.78576411117683,85.80698191402189 80.69455934825237,87.41450716850522 79.95790549405501,92.30995298819471" stroke="#4DD2FF" stroke-linecap="round" stroke-linejoin="round" stroke-width="0.5"><title>2025-09-25 5.0km</title><desc>1758803583000</desc></polyline><polyline fill="none" points="100.5345694248681,75.0 100.54104905424174,76.39457586595381 99.97732129713404,79.64848373136192 99.9708416677604,80.65311754227878 99.45895094575826,83.40454460914043 99.49782872211654,83.74940289370716 99.03777503527817,87.11543501838605 99.25808243462234,89.96407281215215 99.64038056874415,93.0 100.00971944408957,92.94003227636858 99.36823613426532,87.07045564542932 100.96222496475093,76.29710636640084" stroke="#4DD2FF" stroke-linecap="round" stroke-linejoin="round" stroke-width="0.5"><title>2025-09-23 5.1km</title><desc>1758638106000</desc></polyline><polyline fill="none" points="119.86069011726067,93.0 119.77710418761126,92.96776003399282 119.79800067003816,92.29877778245282 119.95124154104269,92.15369654965616 120.28558525966946,90.17089310484153 120.77316984932986,85.90689175949956 120.02089648245601,79.65959484272025 119.63082881071023,78.85345615795086 119.71441474035964,78.75671896491986 120.04179296485381,78.78896470904874 119.88855209379108,77.19278463096998 119.55420837519341,76.81388868039357 119.56813936345861,75.84648654937337 119.20593366830144,75.0 119.58207035178202,75.91904211871588 119.56117386932601,76.82195031522133 119.89551758795278,77.17666143591487 119.87462110555498,77.71678668488312 120.05572395314812,78.78090327423706 119.72138023449224,78.7405960879405 119.66565628140233,78.84539472969482 120.08358592967852,79.82082159604761 120.37613668345148,82.91631168380263 120.79406633172766,85.67313080356689 120.67565293141524,87.44647256533062 120.04875845898641,91.5975493656515" stroke="#4DD2FF" stroke-linecap="round" stroke-linejoin="round" stroke-width="0.5"><title>2025-09-21 5.0km</title><desc>1758459157000</desc></polyline><polyline fill="none" points="131.01831129199127,78.37475195724983 131.0,78.90446356074972 131.5768056968809,78.87268094040337 131.73245167854475,78.99981136353017 132.0620549339219,78.8832751482405 134.44252288911957,78.87268094040337 134.653102746699,78.99981136353017 136.3194303154014,78.98921716754558 136.56663275690516,79.10575326441904 137.1525940997526,78.95743457304343 140.2288911496289,78.95743457304343 141.83112919633277,78.98921716754558 142.00508647004608,79.12694163167907 143.17700915568275,79.04218813683838 149.0,79.22228923106013 148.4231943032355,83.56580963526358 148.11190233984962,84.0425264659134 142.03255340800388,84.01074541168782 141.6937945066602,89.62524804275017 141.99593082407955,84.38152377513325 147.3336724313558,84.4133047163632 148.12105798581615,84.56161564741342 148.40488301118603,83.62937200527813 148.6246185147902,81.84961099945212" stroke="#4DD2FF" stroke-linecap="round" stroke-linejoin="round" stroke-width="0.5"><title>2025-09-20 5.0km</title><desc>1758380898000</desc></polyline><polyline fill="none" points="160.6243635523715,75.0 160.50850227460614,75.14151495879923 160.51493901226786,75.6479873094504 160.61149007704807,75.7075720618086 160.55355943820905,76.43748134750058 160.16735517900088,78.97721109895065 159.98068978704396,79.64750632859068 160.01287347532343,80.16139518770797 159.56230183958542,83.22231072484283 159.45287729948177,83.37870443778229 159.49793446302647,83.73617452901817 159.06023630258278,86.90119827391027 159.09241999086225,88.10014806473919 159.62666921608616,93.0 159.9485060987936,92.99255366486614 160.01931021295604,92.90319758416445 159.74253049385152,90.01395897911425 159.40782013587886,87.98099865214317 159.40782013587886,86.7522590429653 160.43769816041458,79.48365694951644 160.5793063887977,79.23043446155498 160.52137574992958,79.021897638253 160.93976369741722,76.2661767597092" stroke="#4DD2FF" stroke-linecap="round" stroke-linejoin="round" stroke-width="0.5"><title>2025-09-18 5.2km</title><desc>1758195038000</desc></polyline><polyline fill="none" points="179.60396677427343,92.8458937524847 179.58994789901772,93.0 179.75116496437113,92.96755660420604 179.8212593405915,92.38357322482625 179.97546696831705,92.27813132595475 180.6834201682941,87.4276533905213 180.78856173268287,86.03247805531282 180.03855190690956,79.70521397983248 179.6390139623545,78.8858777071946 179.7091083386331,78.73174420068972 180.04556134456652,78.80475484616909 179.90537259209668,77.23906746844295 179.54789127327967,76.8172189821853 179.58293846138986,75.92483983356215 179.21143826731713,75.0 179.60396677427343,75.95729015932011 179.58293846138986,76.8253314741014 179.90537259209668,77.21473011639318 180.05257078216528,78.8128671359882 179.7091083386331,78.74796879437054 179.66004227523808,78.87776542481879 179.99649528117152,79.46995987161063 180.12266515841475,80.07026208472962 180.34696716238977,82.60932824826159 180.7815522950259,85.46466715620772 180.78856173268287,86.73006877187436 180.43108041383675,89.33381282278424 180.28388222376816,90.22604202100047 180.10864628318814,90.38826443997095 179.92640090495115,92.05102522452944 179.76518383959774,92.45657138088427" stroke="#4DD2FF" stroke-linecap="round" stroke-linejoin="round" stroke-width="0.5"><title>2025-09-16 5.1km</title><desc>1758026219000</desc></polyline><polyline fill="none" points="20.754034410318127,97.0 20.59291594658862,97.07457414198143 20.573581730917795,97.55184685628774 20.689587024855427,97.68607924797107 20.64447385497624,98.41689574021439 20.26423428056296,100.97469615956652 20.135339509521145,101.19840624316566 19.993555261491565,103.1521119962199 19.561757778632455,105.40402892921702 19.593981471349252,105.80668229299772 19.149294511444168,109.25151525310503 19.755099935107864,115.0 20.10956055537099,114.92544406375237 19.484420916007366,108.97563631591038 19.85177101334557,106.26898528364109 20.0322236927459,105.61281243054691 20.386684312979924,102.52573871555069 20.573581730917795,101.39974473546317 20.68314228625968,101.22823420279019 20.638029116409598,100.84792680956889 20.850705488584936,99.4236208282091" stroke="#4DD2FF" stroke-linecap="round" stroke-linejoin="round" stroke-width="0.5"><title>2025-09-14 5.0km</title><desc>1757842188000</desc></polyline><polyline fill="none" points="40.49183781770989,97.0 40.60185417169123,97.97349012749328 40.16178875582409,100.92383551284001 39.97411379904952,101.59026773840014 40.02588620092138,101.8673220589917 39.695837139035575,104.34578870957921 39.45638978036004,105.39405768526922 39.488747531577246,105.79089847931755 39.04221056547249,109.10780496994994 39.26224327340606,111.98283569532214 39.64406473713461,115.0 40.02588620092138,114.91764727800182 39.36578807712067,109.14524098618858 40.95778943452751,98.16069829320622" stroke="#4DD2FF" stroke-linecap="round" stroke-linejoin="round" stroke-width="0.5"><title>2025-09-13 5.1km</title><desc>1757760467000</desc></polyline><polyline fill="none" points="60.6845602170215,97.0 60.65226964073372,98.4123634671414 60.29061518647359,100.88580239901785 60.14853665084229,101.18470177277777 59.987083769461606,102.97060022211372 59.56730627786601,105.42894181154406 59.606054969422985,105.72782272592303 59.153986901568715,108.93324419247801 59.1669031320489,109.76259623710939 59.74167538978509,115.0 60.12270418985281,114.9477025181186 59.864379579608794,112.09369786738534 59.509183240588754,109.99421540850017 59.48335077957017,109.14245099525579 60.52310733566992,101.62557613203535 60.678102101781406,101.19964670958143 60.626437179744244,101.00536229426507 60.846013098431285,99.4734864293714" stroke="#4DD2FF" stroke-linecap="round" stroke-linejoin="round" stroke-width="0.5"><title>2025-09-11 5.0km</title><desc>1757592265000</desc></polyline><polyline fill="none" points="79.6399872249167,114.92719921069511 79.7797980113537,114.85439835482248 79.80076962933526,114.32861241891078 79.96155203375383,114.21536576279323 80.05941958425683,113.64104095492803 80.27612630324438,111.59446956736792 80.70953974119038,109.15954731519741 80.76546405575937,107.476899708563 80.03145742692868,101.6278045622239 79.6329966855701,100.87540011727106 79.70290207880316,100.74595347390277 80.04543850559276,100.77022473557736 79.89164664049167,99.2411207896439 79.54911021370208,98.79613793038152 79.59804398898268,97.98707180973724 79.23453594421153,97.0 79.59105344963609,97.8818926097083 79.55610075304867,98.8365910204302 79.89164664049167,99.20875848379364 80.03844796627527,100.7944959898523 79.69591153948568,100.74595347390277 79.6329966855701,100.85112888769072 79.87067502251011,101.1666542948442 80.06641012357431,101.765340089456 80.3670033144299,104.98522156006948 80.76546405575937,107.59015595259552 80.70953974119038,109.25662205327535 79.87067502251011,114.95146614787518 79.71688315743813,115.0" stroke="#4DD2FF" stroke-linecap="round" stroke-linejoin="round" stroke-width="0.5"><title>2025-09-09 5.2km</title><desc>1757417515000</desc></polyline><polyline fill="none" points="100.62966559786582,97.0 100.57800072830287,97.56793777661369 100.72653722832911,97.60530195025785 100.63612370658666,98.52445464474295 100.29384394569206,100.80360485976416 100.12593311956152,101.25942642801965 99.91281553261797,103.5683808144895 99.53824522826471,105.47377402829443 99.57053577172337,105.8697907370879 99.13784248908632,108.93324419442797 99.12492627170286,109.84478377026971 99.37679251085501,112.18335414879402 99.71907227174961,114.95517358923826 100.09364257610287,115.0 100.0807263586903,114.70862784209021 100.2809277283086,114.52185021105834 100.2809277283086,114.41725453061372 99.97093851087266,114.1931204291177 99.47366414126009,109.12750767386751 100.45529666310176,102.04403070845001 100.66841425007442,101.30426118378819 100.6038331630989,101.02030726904195 100.87507372832624,99.05501723112684" stroke="#4DD2FF" stroke-linecap="round" stroke-linejoin="round" stroke-width="0.5"><title>2025-09-07 5.0km</title><desc>1757247375000</desc></polyline><polyline fill="none" points="119.5256644608744,114.94265544975497 119.68849606389995,115.0 119.73097387334565,114.4265526622039 119.9362832858169,114.11525097064441 120.61592823735555,109.56847084360197 120.74336166577996,107.83161506291071 119.97168146035983,101.51471545678942 119.56106263547554,100.73633428722678 119.63185898459051,100.62981838441192 119.97168146035983,100.68717311880027 119.82300912719802,99.08941881715145 119.49026628633146,98.65515191567101 119.5256644608744,97.83577402903029 119.25663833422004,97.0 119.5256644608744,97.75383578204492 119.49734592126333,98.6469581780475 119.83008876210079,99.04025664390065 119.99292036509723,100.6707860559909 119.61769971478498,100.60523777145136 119.58230154018383,100.71994723441458 119.84424803190632,101.11323558195 120.01415926983464,101.71135793098802 120.26902612665435,104.48888162234653 120.73628203087719,107.66775881198555 120.73628203087719,108.6426985995713 120.24778722194606,112.13272251950548 119.8938054763421,114.36101556386711 119.73097387334565,114.59039517493511" stroke="#4DD2FF" stroke-linecap="round" stroke-linejoin="round" stroke-width="0.5"><title>2025-09-04 5.0km</title><desc>1756985562000</desc></polyline><polyline fill="none" points="140.53199489347753,97.04504300308326 140.60984780464787,97.0 140.65526200289605,97.10510029779834 140.62931103250594,97.55552845207421 140.70067620111513,97.55552845207421 140.6487742603058,98.36629220977193 140.2984361597628,100.6483942812265 140.06487742604804,101.56421805726859 140.0973161390284,101.92453905446746 139.53937027516076,105.3625135467737 139.57180898822844,105.67777831109561 139.13064249118906,108.7853161730527 139.1695689468179,110.30901284753782 139.70156384026632,114.9924946582978 140.00648774259025,115.0 140.0713651686383,114.90993584925309 139.76644126628526,112.25299404140969 139.8442941775429,112.08036457510025 139.63668641421827,111.10462523026945 139.4485418787226,109.04802473708696 139.80536772191408,106.24825398997928 139.99351225740975,105.53515870333649 140.34385035798186,102.41997755683406 140.53848263603868,101.28646942276828 140.6487742603058,101.13633459104312 140.58389683428686,100.93365208435716 140.86935750881094,98.80920569004229" stroke="#4DD2FF" stroke-linecap="round" stroke-linejoin="round" stroke-width="0.5"><title>2025-09-02 5.1km</title><desc>1756811867000</desc></polyline><polyline fill="none" points="160.52250557861407,97.0 160.496380299679,98.32256637187675 160.15022035382572,100.73335542801942 159.93468680261867,101.55708675743517 159.94121812234516,102.19943972120382 159.4121812240046,105.41867808219104 159.0007080808282,109.0533783902647 159.02683335970505,110.15659949354449 159.54280761867994,114.38042500505253 160.05225055781193,115.0 159.93468680261867,114.93955388607719 159.84324832636048,114.22175253045862 159.64730873439112,112.34788057651895 159.69955929223215,112.15897957621928 159.35339934640797,109.94502411117719 159.34033670692588,108.87958179371344 160.39187918396783,101.44372977629973 160.53556821809616,101.14144364873937 160.61394405487226,99.8340420017048 160.9992919191427,97.74819757926161" stroke="#4DD2FF" stroke-linecap="round" stroke-linejoin="round" stroke-width="0.5"><title>2025-08-31 5.1km</title><desc>1756640573000</desc></polyline><polyline fill="none" points="180.57920327529428,97.0 180.63744718005182,98.45274208266346 180.2362113916024,100.9612756864808 180.10030894711963,101.18591632167227 180.03559349736315,101.6351955381615 179.9773495926056,102.78084514540387 179.61494307397516,105.2592810823262 179.51786989934044,105.42400801015901 179.5566991691885,105.78341093871131 179.11663411089103,108.86821401750058 179.14252029079944,110.14103204247658 179.65377234385232,114.58074882145593 180.14560976193752,115.0 180.04206504236208,114.83529446410103 179.7896747883351,111.96786186834652 179.47256908455165,110.05867389396735 179.47256908455165,108.64359679102199 179.97087804763578,105.61868481394049 180.33975611120695,102.4588669893783 180.63744718005182,101.22335636096977 180.59214636523393,100.9388115853144 180.88336588910897,98.7672494843282" stroke="#4DD2FF" stroke-linecap="round" stroke-linejoin="round" stroke-width="0.5"><title>2025-08-30 5.0km</title><desc>1756550382000</desc></polyline><polyline fill="none" points="19.636165208386956,136.99190374834143 19.881054010416847,137.0 20.664698177046375,131.55103658699954 20.776647343678633,129.72923463044572 20.31485703124781,126.47417807111924 20.11894598955405,124.0125544224793 20.000000000029104,123.47001529365662 19.643162031279644,122.91127710370347 19.692139791703084,122.78171406496404 20.055974583345233,122.83839792034269 19.881054010416847,121.1945497326742 19.559200156247243,120.8625368664143 19.580190625041723,119.88268594590772 19.223352656292263,119.0 19.58718744793441,119.92317589218874 19.545206510432763,120.8220473977708 19.881054010416847,121.21884330269677 20.04198093750165,122.82220253721607 19.692139791703084,122.78981176106026 19.643162031279644,122.8950817353907 19.93702859376208,123.35664844168059 20.125942812504945,124.13401790019998 20.328850677091395,126.68470814086322 20.776647343678633,129.61587668731954 20.692685468733544,131.3324225520846 19.979009531234624,136.23085241995432" stroke="#4DD2FF" stroke-linecap="round" stroke-linejoin="round" stroke-width="0.5"><title>2025-08-28 5.0km</title><desc>1756381580000</desc></polyline><polyline fill="none" points="40.60902717438876,119.0 40.75725601051818,119.76811003351759 40.73147708250326,120.46909664043778 40.33190369824297,122.97469616110902 40.19011959413183,123.2356911924071 40.170785398135195,124.05595524932869 39.60364898177795,127.39657236682251 39.648762105818605,127.82159534034872 39.216965061525116,130.63265024788416 39.18474140149192,131.77344554387673 39.28785711355158,131.8927433747158 39.24918872152921,132.37738881937548 39.738988353841705,136.60485267570039 40.28034584218403,137.0 40.1063380780688,136.84343244656338 39.50697800167836,131.90765558993735 39.48119907369255,130.94581150582962 39.925885581964394,127.80668229520961 40.03544602607144,127.65009513837867 40.138561738102,126.33773250403465 40.589692978421226,123.75767847098177 40.55746931838803,123.407201707676 40.679919226444326,123.2431481796666 40.628361370414495,123.0194382323898 40.815258598537184,121.7368213738664" stroke="#4DD2FF" stroke-linecap="round" stroke-linejoin="round" stroke-width="0.5"><title>2025-08-26 5.0km</title><desc>1756206850000</desc></polyline><polyline fill="none" points="60.566260415362194,119.0 60.57920351056964,119.61404911642603 60.68274827225832,119.63651423098781 60.62450434381026,120.40032405162492 60.26209767797263,122.88639532199886 60.13913827348733,123.16345228834689 59.99029267858714,124.84823574349866 59.543755893886555,127.38657010345196 59.47256887023104,128.562111272302 59.14251994242659,130.77087996923365 59.20076387087465,132.440515442795 59.699073036405025,136.89518742878863 59.718487679201644,137.0 60.10678053548327,136.955080344851 59.8285039884795,134.05021788403246 59.48551196543849,132.07364810892614 59.45315422740532,131.07036893548502 59.86733327410184,128.0080368784038 60.01617886900203,127.5812470061137 60.5144880345033,123.50041206009337 60.6633336294326,123.20089233903127 60.61156124860281,122.9612756858769 60.85748005754431,121.09673198908422" stroke="#4DD2FF" stroke-linecap="round" stroke-linejoin="round" stroke-width="0.5"><title>2025-08-24 5.0km</title><desc>1756042259000</desc></polyline><polyline fill="none" points="79.77052801739774,137.0 79.9713160021638,136.70957506886043 80.66690294942237,131.97135386590526 80.7959809396707,129.88844107749173 80.41591796846478,127.49012108822353 80.03585499728797,123.83026516121754 79.61993702885229,122.98374450433766 79.72033102123532,122.8675547093153 80.0286839978362,122.90075181049178 79.87092200978077,121.27407797389606 79.52671403589193,120.8840034078894 79.58408203150611,120.04575175572973 79.19684806087753,119.0 79.5625690331799,119.88805988865352 79.54105603476637,120.89230288613908 79.88526400868432,121.29897628714389 80.05019699619152,122.90905108365405 79.96414500274113,122.9920437690671 79.66296302553383,122.88415326158429 79.66296302553383,123.00034303295979 79.94263200435671,123.5065965349786 80.10039399238303,124.1207359124528 80.28683997827466,126.3780733771273 80.80315193909337,129.97142666717264 80.68841594780679,131.86347522555297 79.89960600761697,136.9336172496769" stroke="#4DD2FF" stroke-linecap="round" stroke-linejoin="round" stroke-width="0.5"><title>2025-08-23 5.0km</title><desc>1755956696000</desc></polyline><polyline fill="none" points="100.63547006476438,119.0 100.64198770644725,119.49775452424365 100.72671704844106,119.58825498821534 100.69412883999757,120.34242122989963 100.30307033855934,122.77078446850646 100.15968222139054,123.07998029737064 99.8272824951855,126.17940878979425 99.6578238112852,127.20498193983076 99.54702390253078,127.31055484219542 99.5991650360811,127.68005881842691 99.12989483439014,131.23172774412524 99.72951786985504,136.87936098423233 99.74907079493278,136.96984026442078 100.10102344618645,137.0 99.4557769188832,131.08091723063262 100.4269055306795,124.02264255887712 100.55074072279967,123.25343105212232 100.66805827320786,123.11014567511302 100.61591713971575,122.82357409142423 100.87010516558075,120.86279146892048" stroke="#4DD2FF" stroke-linecap="round" stroke-linejoin="round" stroke-width="0.5"><title>2025-08-21 5.0km</title><desc>1755781186000</desc></polyline><polyline fill="none" points="120.50175383381429,119.0 120.52117656290648,120.3934153112059 120.13272198184859,122.89550358931592 119.99676287846523,123.15769355411612 119.9384946913051,123.59966881306173 120.00971136451699,123.81690991843061 119.40760676388163,127.36758761899546 119.44645222200779,127.74212171293766 119.01915218285285,130.8132295452233 119.04504915489815,132.1090488804839 119.58888556837337,137.0 119.9643916633795,136.9325924638615 119.70542194269365,134.09393031309446 119.36876130578457,132.07159777406196 119.3493385767215,130.64095127178007 119.77016437286511,127.77957501771743 119.88022650414496,127.61478033440653 120.32694927236298,123.89182049604278 120.54059929194045,123.17267580965563 120.54707353495178,122.34864723412466 120.98084781714715,119.59183015047165" stroke="#4DD2FF" stroke-linecap="round" stroke-linejoin="round" stroke-width="0.5"><title>2025-08-19 5.3km</title><desc>1755607955000</desc></polyline><polyline fill="none" points="139.80496620378108,136.91134006194625 140.11841337627266,137.0 140.11841337627266,136.4035585078018 140.2368267525162,136.13757639637333 140.38310209970223,134.29985743787256 140.80799715570174,131.5190175207099 140.76620419937535,129.6973130037586 140.29255069431383,126.64223670910724 140.07662041994627,124.12715152443707 139.94427605820238,123.46612230624305 139.60296691491385,122.89376328713115 139.6795873348019,122.75671896518907 140.01393098544213,122.82927187102177 139.8676556382852,121.32177007346036 139.50545001678984,120.83001194937242 139.533311987645,119.87873347735876 139.19200284429826,119.0 139.56117395855836,119.91904211878864 139.51938100220286,120.82195031536685 139.84675916010747,121.17666143608949 140.01393098544213,122.82121044032101 139.66565634938888,122.77284183888696 139.630828885769,122.87764043802599 140.03482746361988,123.80469893578265 140.24379224525183,126.23112247014069 140.75923870666884,129.79404172927025 140.75227321393322,130.62429177048762 140.2368267525162,134.19507393342064 140.08358591265278,134.26761637432355 139.98606901455787,134.50942403145018 139.80496620378108,135.69427089524834" stroke="#4DD2FF" stroke-linecap="round" stroke-linejoin="round" stroke-width="0.5"><title>2025-08-17 5.0km</title><desc>1755429603000</desc></polyline><polyline fill="none" points="159.74111752575845,136.9595187335217 159.65015881863656,137.0 159.75511117302813,136.89474866437376 159.87405717471847,135.11355112918682 159.97201270548976,134.49012258402945 160.29386659237207,134.2229374284434 160.28686976872268,133.60759851037437 160.72067283361685,131.1623889988623 160.7836442462867,130.0612105356122 160.02099047086085,123.67245569921215 159.6221715240972,122.89508173525246 159.69913658400765,122.80600715063338 160.03498411813052,122.83030022904859 159.88805082195904,121.25933256946155 159.55220328780706,120.83824318762345 159.57319375872612,119.92317589215236 159.2163557537424,119.0 159.59418422961608,119.93937186490803 159.54520646418678,120.79775370663992 159.88105399830965,121.19454973259417 160.0489777654002,122.82220253706328 159.69213976038736,122.78171406481852 159.64316199498717,122.9031794198163 160.06297141264076,123.7696269111475 160.7836442462867,129.6806526743676 160.77664742263732,130.64418926530925 160.30786023961264,134.0933927880178 159.9580190582201,136.32800831341592 159.8110857620777,136.4413567061274 159.7621079966775,136.78140091669047" stroke="#4DD2FF" stroke-linecap="round" stroke-linejoin="round" stroke-width="0.5"><title>2025-08-16 5.1km</title><desc>1755350047000</desc></polyline><polyline fill="none" points="179.8950004176586,136.9514006132158 179.64300141998683,137.0 179.7620009466482,136.8785014774985 180.09799961023964,134.36749054866232 180.28699885844253,134.27028853527736 180.24499902548268,134.00298238729738 180.7489970208262,131.03015358735865 180.78399688162608,129.7421633565391 180.0279998886108,123.69076077497448 179.6500013921468,122.92923980825435 179.72700108584831,122.78341581407585 180.03499986079987,122.8320238417873 179.88100047333864,121.23604476632318 179.55200178193627,120.86337499705405 179.60100158702699,120.06131892801204 179.20900314621395,119.0 179.5730016984162,119.85067660131608 179.56600172625622,120.82286730838678 179.88100047333864,121.20363876863848 180.06299974943977,122.82392250589328 179.69900119723752,122.79151715409535 179.66400133643765,122.9049358277698 179.96500013920013,123.39101402905362 180.09099963805056,123.87708926485357 180.31499874708243,126.47754140741017 180.7559969930153,129.41003671350336 180.79099685378605,130.5846247303416 180.25899896983174,133.9948821869839 180.30099880276248,134.2378878378222 180.07699969375972,135.48530518261396 179.8950004176586,135.89840662368078" stroke="#4DD2FF" stroke-linecap="round" stroke-linejoin="round" stroke-width="0.5"><title>2025-08-14 4.9km</title><desc>1755170321000</desc></polyline><polyline fill="none" points="20.735260355868377,141.01505828869995 20.579098864312982,141.0 20.624645966046955,142.36276273598924 20.247255694848718,144.9225807852854 20.110614389792318,145.1936151666523 20.110614389792318,145.90131137813296 19.726717389799887,148.60404642499634 19.60308954239008,149.34182326922019 19.50548861018615,149.40204962618736 19.564049169508507,149.7784632484545 19.115084881399525,152.87251079228008 19.154125254281098,154.18988843089755 19.700690474564908,158.93978143978165 20.071574016910745,159.0 19.4339145932463,153.03812526767433 20.494511389755644,145.52487806438148 20.644166152458638,145.2162013203415 20.579098864312982,144.95269576551073 20.88491511857137,142.81450175839564" stroke="#4DD2FF" stroke-linecap="round" stroke-linejoin="round" stroke-width="0.5"><title>2025-08-12 5.0km</title><desc>1754999139000</desc></polyline><polyline fill="none" points="40.48536069961847,141.0603087970594 40.570054512965726,141.0 40.57656942171161,142.27401291723072 40.17264508106746,144.86720239714487 40.03583199795685,145.12350108713872 39.89901891484624,146.86480110110278 39.46903493930586,149.38999043372314 39.0325360550778,153.030634564333 39.07162550740759,154.14615851492272 39.527669117815094,157.9222334161168 40.00325745437294,159.0 39.36479639977915,153.0758588343233 40.329002890357515,146.11853466997854 40.563539604248945,145.15365381597076 40.50490542576881,144.94258445667947 40.778531592019135,142.9072419677468 40.9674639449222,142.1383202746947" stroke="#4DD2FF" stroke-linecap="round" stroke-linejoin="round" stroke-width="0.5"><title>2025-08-10 5.0km</title><desc>1754830447000</desc></polyline><polyline fill="none" points="59.744040294666775,159.0 60.71879095339682,153.1979184644806 60.78190430541872,151.83457099948282 60.2629723000573,148.23944193188072 60.01753148669377,145.6180606555863 59.62482618531794,144.9200932334861 59.68092694267398,144.77400625642622 60.03856927069137,144.84704977838555 59.884292188013205,143.24007685336983 59.54768764399341,142.842386640099 59.56872542796191,141.93337299676932 59.21108309994452,141.0 59.582750617322745,141.965837948017 59.554700238630176,142.85050278672134 59.884292188013205,143.24819295953057 60.052594459994,144.82270194516605 59.694952131976606,144.80647005221545 59.65287656398141,144.89574542255286 60.052594459994,145.75603023749863 60.37517381471116,148.94549585680943 60.75385392672615,151.26650268438243 60.78891690005548,152.55682344923116 59.97545591866947,158.3183787094531 59.75105288930354,158.55370100304572" stroke="#4DD2FF" stroke-linecap="round" stroke-linejoin="round" stroke-width="0.5"><title>2025-08-09 5.0km</title><desc>1754735080000</desc></polyline><polyline fill="none" points="80.54051077715121,141.0 80.57958384539234,142.2659443807861 80.32560890191235,144.2552418919222 80.0,145.62662046950572 79.92836604159675,146.86988133261912 79.49205011304002,149.41661731127533 79.51809882521047,149.80841508629237 79.07527071863296,152.79203795787907 79.06224636253319,153.8166888406122 79.62229367380496,158.5781161152554 80.05860960233258,159.0 79.42041615460766,154.08791758801817 79.452977044828,152.48313307743229 80.38421850424493,146.07871773993975 80.50143770893919,145.34782577912847 80.61214473558357,145.2046605308933 80.56004731127177,144.8957240536838 80.93775363746681,142.34129753154411" stroke="#4DD2FF" stroke-linecap="round" stroke-linejoin="round" stroke-width="0.5"><title>2025-08-07 5.0km</title><desc>1754570205000</desc></polyline><polyline fill="none" points="100.3119554911973,141.0 100.35220781262615,141.51234840384132 100.4863822174666,141.56668818454636 100.43942117580445,141.93153999677452 100.80169206880964,141.9858794793181 100.8419443902385,142.31967830981012 100.47296477700002,144.1671896489861 100.36562525312183,145.15302826082916 100.43942117580445,145.41695140008233 100.32537293169298,145.52562536891492 100.11069388396572,146.7908894878783 99.16476432996569,153.66797101492557 99.74842299096053,159.0 99.1580556097324,153.54378541283222 99.57399626469123,150.4002701623176 99.72829683023156,149.97336305776844 100.09727644349914,146.7908894878783 100.28512061026413,145.6187743620394 100.40587757457979,145.4091889678093 100.35891653288854,145.10645349458355 100.72789614615613,142.38954299677425" stroke="#4DD2FF" stroke-linecap="round" stroke-linejoin="round" stroke-width="0.5"><title>2025-08-05 5.0km</title><desc>1754406000000</desc></polyline><polyline fill="none" points="119.72743419441395,159.0 120.03893797221826,156.41945485727047 120.23008801767719,156.27199263979128 120.52743253286462,154.27303374537587 120.74690110358642,152.66727676208393 120.76106036623241,151.66775881296053 120.24424728032318,148.12018929852638 120.04601760357036,145.76051847534836 119.86902682067011,145.14600952499313 119.60000083080376,144.76091486085352 119.6637175125943,144.63801192102983 120.01061944698449,144.6707860566603 119.84778792675934,143.0566440387338 119.51504525501514,142.7043143242554 119.54336378030712,141.7046727940251 119.23893963379669,141.0 119.5504434115719,141.8111925638441 119.51504525501514,142.62237696052762 119.86194718940533,143.0484503419284 120.01769907827838,144.6625925240005 119.92566387122497,144.74452781302534 119.58584156818688,144.6789795884688 120.03893797221826,145.63761706018704 120.3292028560827,148.7428686880594 120.76106036623241,151.69233727183018 120.75398073490942,152.70824034805264 119.92566387122497,158.37739984357904 119.88318608334521,158.51666608552478 119.69911566918017,158.52485820989386 119.62831935600843,158.83615831973293 119.43008967925562,158.81977413339337" stroke="#4DD2FF" stroke-linecap="round" stroke-linejoin="round" stroke-width="0.5"><title>2025-08-03 5.0km</title><desc>1754221111000</desc></polyline><polyline fill="none" points="149.0,149.02613251820185 148.944657955406,149.25560136774948 148.80169100691273,149.2689425182507 145.99308224441484,149.21290964059153 145.91698693312355,149.16488136458065 145.80630284396466,149.210241405337 145.44888547270966,149.2075731698169 145.41890853187942,149.17822256117142 144.78016910068982,149.2155778755714 144.46656418139173,149.16754960444086 143.45426594927267,149.16488136458065 143.0161414296599,149.09550703303648 142.7186779400363,149.0181277546926 142.70023059184314,148.98877693430404 142.2874711760087,148.9754356414578 141.3812451959966,148.8153395986228 140.04842428900884,148.80466649439222 137.26748654879339,149.1515401612105 136.8916218293598,149.32497527635496 136.48808608761465,149.44771328106253 135.40430438124167,150.10675319219808 134.83013066870626,150.39757931046734 134.4773251345032,150.49896747536695 134.26979246732662,150.50163557968153 134.0069177555706,150.4376010012711 133.72790161414014,150.5523295102048 133.63335895464115,150.36556191392992 133.52036894696357,150.44026911182118 133.42813220599783,150.26684136219774 131.85780169100326,151.19533350560596 131.73789392774052,150.89384396581227 131.25365103765216,149.96800932215774 131.20753266717657,149.9359914018969 131.0,150.03738134880223 131.1360491929081,149.93332324011863 131.20292083012464,149.92531875314307 131.22367409683648,149.8586146001253 131.30668716372747,149.86395093859755 131.41737125288637,149.78924210125479 131.44965411222074,149.82659654649797 131.53266717908264,149.77323303703452 131.5049961568002,149.82392837359657" stroke="#4DD2FF" stroke-linecap="round" stroke-linejoin="round" stroke-width="0.5"><title>2025-08-02 8.3km</title><desc>1754134728000</desc></polyline><polyline fill="none" points="160.48112953765667,141.0 160.38425781868864,141.02241867959674 160.32613478729036,141.62772044508893 160.81049338221783,141.62772044508893 160.81049338221783,142.1134528267794 159.19596473241108,152.7987537910376 159.2024228470109,153.92697120822413 159.87406676533283,159.0 159.23471342000994,154.0689311148817 159.18950661778217,152.97060259394493 160.1453075784957,146.14117160694877 160.38425781868864,145.21459164348926 160.31967667269055,145.00536229442514 160.62320805882337,142.80094548353372" stroke="#4DD2FF" stroke-linecap="round" stroke-linejoin="round" stroke-width="0.5"><title>2025-07-31 5.0km</title><desc>1753965181000</desc></polyline><polyline fill="none" points="179.6436138866702,159.0 179.72124254502705,158.34671299291222 179.91884276628844,158.1098951413369 180.63867214368656,153.15289233152726 180.7163008020434,151.3235422143116 180.34932896256214,149.1021325003312 179.96118567083613,145.43503868585685 179.5871566805872,144.71630134607403 179.66478533897316,144.61012369384116 179.97529997234233,144.6509612689988 179.8412141079316,143.02560974576772 179.48129941921798,142.6335602336112 179.52364232379477,141.72693840696593 179.2413562934089,141.0 179.53069947453332,141.7432740259319 179.50247087146272,142.64989566816075 179.8412141079316,143.07461580021481 180.00352857538383,144.63462624143722 179.91178561552078,144.71630134607403 179.629499585164,144.60195617630234 179.60127098212251,144.7244688519786 180.02470002765767,145.66372649071127 180.2717003042053,148.4079293676914 180.7586437065911,151.91155215155595 180.25052885193145,156.141830134271 179.87649986174074,158.48553692626592 179.7424139973009,158.54269965266576" stroke="#4DD2FF" stroke-linecap="round" stroke-linejoin="round" stroke-width="0.5"><title>2025-07-29 5.0km</title><desc>1753797916000</desc></polyline><polyline fill="none" points="20.772040507232305,163.0 20.759065036516404,164.37379924071865 20.460629210196203,166.47573770905728 20.227070737426402,167.17386832929333 20.0713650888938,169.0955701637431 19.6366868201294,171.39253882277262 19.688588702963898,171.79787882238452 19.260398169513792,174.6427025637895 19.286349110974697,176.15139051205188 19.8183434100647,181.0 19.318787787720794,176.78938361408655 19.2279594927968,175.19063756865944 19.6431745555019,171.51263979514624 20.220583002083004,167.84196564968443 20.162193383876,167.654298473135 20.441166004166007,166.51327178114298 20.759065036516404,163.9759255856843" stroke="#4DD2FF" stroke-linecap="round" stroke-linejoin="round" stroke-width="0.5"><title>2025-07-27 5.0km</title><desc>1753616848000</desc></polyline><polyline fill="none" points="40.51411547977477,163.0 40.53327506285859,164.58145924651035 40.182016039441805,167.07920801223372 40.04151243006345,167.3452353709945 39.84353007140453,169.51775571887993 39.48588452025433,171.49809189040388 39.51143063104246,171.87494080296165 39.04521410903544,174.94877276403713 39.62638812963269,181.0 40.009579791571014,180.94089398662618 39.73495910051861,177.97814355786977 39.42201924326946,175.9019298557323 39.40924618788995,174.79360647435533 40.29058701029862,168.57929400511057 40.58436728446395,167.33784573528828 40.52050200747908,167.04964935674798 40.95478589099366,164.41888090982684" stroke="#4DD2FF" stroke-linecap="round" stroke-linejoin="round" stroke-width="0.5"><title>2025-07-26 5.2km</title><desc>1753529066000</desc></polyline><polyline fill="none" points="60.62126863311278,163.0 60.543610053980956,163.38939759416826 60.647154826147016,163.8911183840828 60.52419540917617,165.07426731954183 60.25239038220025,166.91634747653734 60.110016320453724,167.17842831074086 60.09060167564894,167.9646652222582 59.51463388040429,171.41652042942587 59.559934718185104,171.74597321430338 59.132812532945536,174.88318847393384 59.19105646730168,176.55282140445343 59.70230877996073,181.0 60.07118703087326,180.96256695595366 59.779967359121656,178.24487719286117 59.84468284173636,178.10262620994035 59.47580459082383,175.99128988495067 59.469333042536164,174.9880095908302 60.867187467054464,165.20156702262466" stroke="#4DD2FF" stroke-linecap="round" stroke-linejoin="round" stroke-width="0.5"><title>2025-07-24 5.0km</title><desc>1753356656000</desc></polyline><polyline fill="none" points="79.68429088438279,180.96752733306494 79.77549574000295,181.0 80.08418909748434,178.43461864534038 80.28764608310303,178.30472372732038 80.23853577623959,178.05305172260705 80.7647176355822,174.79748109682987 80.7997964262322,173.81510080776206 80.27361456686049,170.34825727638236 80.05612606499926,167.78253377995134 79.63518057754845,166.89750243924937 79.69832240062533,166.76758875626547 80.04209454872762,166.83254562417278 79.8596848374873,165.2004883030313 79.55800723811262,164.87569679656008 79.5860702706268,163.99875312977383 79.2002035737678,163.0 79.5509914800059,163.80387545137637 79.54397572187008,164.84321757326688 79.86670059562312,165.18424875907658 80.04911030686344,166.78382797820086 79.95790545124328,166.8731436397793 79.71235391686787,166.77570836765517 79.63518057754845,166.8731436397793 79.88073211186565,167.22228572196036 80.05612606499926,167.80689230201097 80.37183518058737,171.03839035103738 80.77874915182474,173.6770794685508 80.77173339371802,174.75688710931718 80.00701575810672,180.07452382013435" stroke="#4DD2FF" stroke-linecap="round" stroke-linejoin="round" stroke-width="0.5"><title>2025-07-22 5.0km</title><desc>1753184035000</desc></polyline><polyline fill="none" points="91.0,174.9687195509905 91.0,172.0803347924666 92.91371340525802,163.99271693307674 108.3898305085022,166.81698797398712 109.0,167.49095801229123 106.91987673356198,179.9751905600715 93.02465331286658,177.792892441008 92.52542372886091,177.15103718347382 94.24499229586218,164.6666929986677 94.85516178735998,164.2815639944747 98.54391371353995,164.89135136760888 108.97226502315607,167.2021138863638 107.14175654866267,179.71845038753236 106.55932203389239,180.00728306692326 92.7473035439616,177.66452149386168 92.91371340525802,173.55662363601732 94.27272727282252,164.7308811204275 94.71648690290749,164.3457521944656 101.53929121734109,165.5011375633767 94.57781201857142,164.4099403814471 93.8012326657772,167.94027057220228 94.49460708792321,168.6142382133403" stroke="#4DD2FF" stroke-linecap="round" stroke-linejoin="round" stroke-width="0.5"><title>2025-07-20 4.9km</title><desc>1753020627000</desc></polyline><polyline fill="none" points="121.03458710559062,163.0 120.89879754799767,163.920306203785 120.39443633402698,165.21470115546254 119.96766915294575,167.15999181925145 119.85127810356789,168.69374246137158 119.45037560016499,171.2598977211528 119.35984922840726,171.34219276600925 119.40511241430067,171.7087786668635 118.98481140262447,174.7386535058031 118.96541289440938,175.74110317716259 119.54090197189362,180.99251961675327 119.47624027781421,179.96021944504173 119.54736814132775,181.0 119.9159397976764,180.92519613334298 119.29518753432785,175.06781758857687 120.28451145405415,167.84083141246083 120.49142887516064,167.18991896658554 120.51729355280986,166.31454488242161" stroke="#4DD2FF" stroke-linecap="round" stroke-linejoin="round" stroke-width="0.5"><title>2025-07-20 5.0km</title><desc>1752942252000</desc></polyline><polyline fill="none" points="140.7761459874746,163.00805460508855 140.6647707785305,163.0 140.49074701449717,163.88600165282696 140.68565363020753,164.00681929278653 140.6717317290604,164.26456297602272 140.42809845946613,165.9076592583515 140.29584039881593,166.1895596098475 139.95475382139557,169.4031527761981 139.66935484841815,170.71593657314224 139.69719865068328,171.1025190702785 139.2029711608775,174.79911902814638 139.8712224146293,181.0 139.25169781479053,175.8299484225281 139.23777591370163,174.26759238619707 139.69719865068328,171.15084174990625 139.67631579894805,170.72399039437732 140.18446518987184,167.66347941254207 140.28887944825692,166.18150532800064 140.42809845946613,165.89155063656654 140.7970288391516,163.25774695668224" stroke="#4DD2FF" stroke-linecap="round" stroke-linejoin="round" stroke-width="0.5"><title>2025-07-17 5.0km</title><desc>1752765839000</desc></polyline><polyline fill="none" points="167.72297297301702,180.62017024712986 168.12837837846018,180.05724069090502 169.0,172.71557535391185 155.96621621621307,172.12917028802622 153.61486486485228,172.3168200712389 153.8986486486392,172.12917028802622 153.4729729729006,169.4786008035735 151.0608108107699,165.67861622768396 151.0,163.54402954618854 151.28378378378693,163.3798297528847 162.61486486485228,163.5674866499321 161.80405405408237,170.9563556866633 161.29729729727842,171.28474437574914 154.2229729729006,171.05018107409705 153.45270270272158,168.58725201355992 151.46621621621307,166.05392613090225 151.2229729729006,164.7168818149512 154.04054054047447,164.50576884645852 162.25,164.7872527615691 162.37162162165623,166.54651945258956 161.64189189195167,172.26990763975482 160.54729729727842,172.34027628338663" stroke="#4DD2FF" stroke-linecap="round" stroke-linejoin="round" stroke-width="0.5"><title>2025-07-15 4.1km</title><desc>1752589649000</desc></polyline><polyline fill="none" points="180.72336687109782,163.0 180.77821933527594,164.277351380224 180.35311273802654,166.94306086831784 180.2022684615804,167.25246768275247 180.19541190355085,168.03787947543606 179.59203479782445,171.71889615291002 179.6194610299135,172.1314130735118 179.16007164254552,175.5504598454063 179.708596284152,181.0 179.39319461522973,178.84244003838103 179.15321508454508,175.37594136077678 180.18169878752087,167.9823455677979 180.11998976534232,167.7284757727757 180.32568650590838,166.99859551501868 180.73022342912736,164.35668928601808 180.6822275229788,164.07900626306218 180.84678491545492,163.2380173692436 180.69594063903787,163.04760353190068" stroke="#4DD2FF" stroke-linecap="round" stroke-linejoin="round" stroke-width="0.5"><title>2025-07-13 5.0km</title><desc>1752418082000</desc></polyline><polyline fill="none" points="19.84367883091909,203.0 19.751307231053943,202.9917779814714 19.808151292527327,202.34223587893212 20.120793630660046,200.3689114317458 20.30553683047765,200.20446555533272 20.62528467629454,197.96796845112112 20.79581686068559,195.65740467171418 20.326853353501065,192.44223992175102 20.08526609223918,189.75324440772238 19.943155938526616,189.2269473625929 19.644724615762243,188.74998770706588 19.708674184948904,188.62663561422232 20.04973855378921,188.6759764739545 19.900522892421577,187.11350129892526 19.559458523523062,186.68587125244812 19.58077504663379,185.7072478293776 19.3391877853428,185.0328953850185 19.189972123946063,185.0328953850185 19.31787126226118,185.0 19.559458523523062,185.60033867062884 19.552353015867993,186.69409492853447 19.864995353971608,186.98192306394049 19.900522892421577,187.14639582422387 20.04973855378921,188.65130604784645 19.70156867726473,188.63485909293377 19.623408092709724,188.72531730357878 19.936050430871546,189.17760683902452 20.078160584555008,189.67923409270588 20.369486399635207,192.8780625799991 20.810027876053937,195.59984530091606 20.802922368398868,196.65235303719965 19.936050430871546,202.57245392954792" stroke="#4DD2FF" stroke-linecap="round" stroke-linejoin="round" stroke-width="0.5"><title>2025-07-12 5.1km</title><desc>1752325602000</desc></polyline><polyline fill="none" points="39.891549178690184,203.0 39.716628499067156,202.99190374835598 40.108450821368024,200.29580619558692 40.269377846620046,200.21484089404112 40.71717478634673,197.2109700501387 40.78714305823087,195.69684666195826 40.37433025435894,192.98430766406818 40.05947303105495,189.68865090863255 39.63966340001207,188.83839791952778 39.695638017496094,188.74932327152783 40.04547937671305,188.8060071499567 39.88455235149013,187.16215829394787 39.56969512818614,186.81394950112735 39.55570147384424,185.72072595467762 39.205860114627285,185.0 39.57669195535709,185.8098039904653 39.56969512818614,186.8058516041201 39.891549178690184,187.1702561547354 40.066469858255005,188.78171406413458 39.73062215340906,188.7412255713134 39.65365705444128,188.87078867589298 40.07346668545506,189.75343171659915 40.38132708152989,192.96811312399223 40.794139885372715,195.6401676875248 40.72417161354679,197.1704858420635 40.052476203884,201.6398181816039" stroke="#4DD2FF" stroke-linecap="round" stroke-linejoin="round" stroke-width="0.5"><title>2025-07-10 5.0km</title><desc>1752149320000</desc></polyline><polyline fill="none" points="57.47569929709425,185.0 57.51785880775424,186.1220300960049 57.823515260301065,185.96348300139653 58.47698767611291,186.1830096919948 59.183159480278846,186.1220300960049 59.97365030582296,186.4147318742689 64.05258296558168,186.95134994727414 64.16852161998395,187.109895737005 63.23047250707168,193.09789494444703 62.77725776704028,193.1344805796034 62.692938745662104,193.29301820299588 62.53484058054164,194.35399537060584 62.65077923494391,194.81740774305945 61.934067553142086,198.85389776057855 56.68520847155014,198.6953674802644 56.506030551099684,198.57342096840148 55.83147838001605,203.0 56.53765018412378,198.646588890384 58.58238645282108,198.68317283462966 59.267478501598816,198.4148903177629 59.3623374007293,198.6953674802644 61.96568718616618,198.78072996492847 63.77854614605894,187.42698668821686 63.72584675770486,187.01232912197884 58.297809755662456,186.0610504689903" stroke="#4DD2FF" stroke-linecap="round" stroke-linejoin="round" stroke-width="0.5"><title>2025-07-08 5.1km</title><desc>1751976330000</desc></polyline><polyline fill="none" points="71.16032285458641,202.83610268475604 71.12169352988712,203.0 71.36634591995971,202.89570172964886 71.44360456935829,202.06131289622863 71.89428002474597,201.68881634827994 71.98441511578858,201.30141893458494 73.28493571549188,192.2866900825029 73.40082368964795,189.55981166484708 73.09178909176262,187.54814753265237 73.79999337875051,187.51834489352768 73.98026356083574,187.7865684274002 76.46541678602807,188.1441990424064 78.46126523113344,188.11439652449917 79.9163031297503,188.6955445312342 84.55182209884515,189.3809981931845 85.40166724321898,185.0 88.87830647011288,185.77487996006676 85.77508404903347,185.04470472445246 85.19564417790389,187.62265410390683 85.10550908680307,189.4108004536247 76.42678746127058,188.24850780746783 73.98026356083574,187.8014697204635 73.76136405405123,187.47364092349017 73.05315976706333,187.59285147994524 73.336441481777,188.78495171236864 73.38794724817853,191.3628353163076 71.93290934944525,201.34611868843785" stroke="#4DD2FF" stroke-linecap="round" stroke-linejoin="round" stroke-width="0.5"><title>2025-07-06 5.0km</title><desc>1751807521000</desc></polyline><polyline fill="none" points="93.7397342530312,201.88428805598232 94.5196088081575,196.33842899363663 91.99565115699079,196.15793925551407 91.20159706455888,196.43687785667134 92.23670329223387,196.33842899363663 92.09490791865392,196.17434742185287 94.70394279388711,196.32202084397431 94.88827677967492,196.15793925551407 94.80319955549203,195.64928527163283 95.86666485783644,188.93818426875805 95.76740809634794,185.590733765217 97.59656841657124,185.4102320107486 108.79840293549933,187.24805862178619 108.78422339813551,186.70655831242038 96.46220542723313,185.0 96.66071895038476,189.05304653466737 95.37038105004467,198.17613120531314 95.72486948425649,198.7340009524487 95.39874012483051,199.34109231071488 95.46963781164959,200.65371447143843 94.97335400379961,200.76856840281107 94.74648140597856,203.0 93.59793887933483,202.86874017144146 93.66883656621212,201.90069564041914" stroke="#4DD2FF" stroke-linecap="round" stroke-linejoin="round" stroke-width="0.5"><title>2025-07-05 4.8km</title><desc>1751729502000</desc></polyline><polyline fill="none" points="122.89710965962149,203.0 123.07524908857886,202.86981198194553 123.10337636678014,202.13207688097464 123.34714611165691,201.05801225300092 123.47840674343752,201.01461547528015 123.64717041299446,199.4414703723014 119.98124848114094,199.28957927314332 120.21564246655907,198.4758732763221 120.56254556489876,194.80869462042756 120.60004860261688,192.12875362045452 120.46878797077807,191.77069972742174 120.6094243619591,189.578949717652 120.60004860261688,185.0 115.67777490895241,186.7686697420213 115.57464155537309,187.01823427827185 115.61214459309122,186.80122167114314 118.26548450789414,185.79210725105077 118.3123633050127,188.02733710464236 118.57488456863211,188.59156248300133 120.53441828663927,188.59156248300133 120.5437940460979,191.4560453147351 120.75006075325655,191.55369678345596 120.82506682857638,191.90090128205338 124.25659477501176,192.11790352014214 124.4253584445687,192.97505804750836 124.40660692565143,194.53744859182916 123.22526123921853,202.59858643445477" stroke="#4DD2FF" stroke-linecap="round" stroke-linejoin="round" stroke-width="0.5"><title>2025-07-03 5.2km</title><desc>1751545471000</desc></polyline><polyline fill="none" points="139.6845754031092,203.0 140.1121509677614,200.36393109844357 140.2873868549068,200.2422642780657 140.73599072603974,196.9166326980121 140.77103790343972,195.76479627827212 140.00700943547417,189.6484285694387 139.63550935473177,188.87776542525535 139.712613145035,188.77230567908555 140.0280377419258,188.82909171356732 139.8808395967062,187.25529236594593 139.5373772579187,186.81721898241085 139.54438669339288,185.81937618378288 139.21494322558283,185.0 139.57242443534778,185.89238949473656 139.5373772579187,186.83344396545 139.8528018547804,187.14171801602788 139.90186790315784,187.39320385919564 140.0280377419258,188.82097942539258 139.6845754031092,188.7966425559498 139.63550935473177,188.90210226994532 140.01401887097745,189.6484285694387 140.37850951624569,193.12037652645813 140.78505677441717,195.74046152670053 140.66589637115248,197.55743590315979 139.89485846768366,202.72423071540106" stroke="#4DD2FF" stroke-linecap="round" stroke-linejoin="round" stroke-width="0.5"><title>2025-07-01 5.0km</title><desc>1751376396000</desc></polyline><polyline fill="none" points="159.36742998912814,203.0 159.49741012835875,202.83956882237544 159.47141410049517,202.24797660073818 159.67938232322922,202.04743605965632 159.82669314768282,201.26532405517355 160.05199205563986,198.50782842640183 160.36394438974094,197.43489111880626 160.7105580943462,194.6171216954681 160.62390466820216,193.00263390867622 160.1386454817548,190.12456840601953 159.80936246245983,186.63467598475108 159.2894419056247,185.34097759509314 159.74870506412117,185.43123617296078 159.76603574937326,185.0 159.76603574937326,185.4111787183283 159.36742998912814,185.33094885912578 159.2981072482071,185.43123617296078 159.62739026753115,185.92264253658504 159.82669314768282,186.6146187748891 160.19063753748196,190.50564113540895 160.7105580943462,193.96531303638767 160.66723138125963,195.5797850687668 159.5753982118622,202.6590834358285" stroke="#4DD2FF" stroke-linecap="round" stroke-linejoin="round" stroke-width="0.5"><title>2025-06-30 4.1km</title><desc>1751292736000</desc></polyline><polyline fill="none" points="171.2020905923273,195.10960229374177 171.0,193.64897324027697 171.06968641115236,193.49564597582503 176.49128919860232,193.2374099119188 177.35540069683339,193.31810877237876 178.76306620208197,193.1809206606922 180.87456445992575,193.20513034473697 189.0,192.68865547961468 186.57491289198515,192.85812416609406 186.01045296169468,193.04373231128557 184.96515679440927,192.99531283708347 179.67595818816335,193.26968946598936 174.75609756095218,193.35845817174413 174.60975609754678,193.4875761115909 174.9512195121788,195.31134452038532 174.79094076654292,195.2952051611719 174.5958188153163,194.34297714474087" stroke="#4DD2FF" stroke-linecap="round" stroke-linejoin="round" stroke-width="0.5"><title>2025-06-26 5.0km</title><desc>1750950176000</desc></polyline><polyline fill="none" points="29.0,216.73669080522814 28.709364908514544,215.26330919477186 20.9655543595145,215.97382686247875 20.13885898818262,215.98130595921975 17.1550053821411,215.60735018770356 11.0,215.86911942786537 16.9483315392863,215.59987105282198 20.14531754577183,215.9887850552259 25.65446716902079,215.48768393830687" stroke="#4DD2FF" stroke-linecap="round" stroke-linejoin="round" stroke-width="0.5"><title>2025-06-24 5.0km</title><desc>1750769966000</desc></polyline><polyline fill="none" points="49.0,216.7208387669234 48.7536023054563,215.27916123308387 41.0893371757993,216.00751226317516 40.1556195965386,216.0375472026135 37.1340057636844,215.64709203488746 31.0,215.91740737140208 36.9719020172779,215.64709203488746 40.1491354466707,216.0375472026135 46.6397694524494,215.45937246764515" stroke="#4DD2FF" stroke-linecap="round" stroke-linejoin="round" stroke-width="0.5"><title>2025-06-22 5.0km</title><desc>1750563938000</desc></polyline><polyline fill="none" points="60.61512707269867,225.0 59.68482888503058,219.44209893125299 59.671787321640295,217.9266568681196 59.75438388969633,217.2922719613307 59.70221763619338,215.6609590561493 59.71960638735618,215.37899827560614 59.81524451878795,215.21787710654826 59.71960638735618,215.14235137752257 59.715259199554566,214.1101548334409 58.658892565916176,207.75537669678306 58.39371411052707,207.0 58.663239753674134,207.6596962881231 59.70221763619338,214.00441640774807 59.75873107749794,217.09591307632945 59.68482888503058,217.93169163636412 59.68048169721442,219.39175276577225 60.39342049526749,223.66092523296174 60.49340581448632,223.95290703645878 61.60628588948748,223.89249714976904" stroke="#4DD2FF" stroke-linecap="round" stroke-linejoin="round" stroke-width="0.5"><title>2025-06-21 8.0km</title><desc>1750517001000</desc></polyline><polyline fill="none" points="81.82615197775885,225.0 80.30140372453025,215.62387523600773 77.61831958900439,215.56912221983657 72.78404024342308,215.10372068098513 72.87859827460488,214.6109408227785 72.68948221218307,213.66644103945873 72.94951679802034,207.49280779338733 72.91405753628351,207.05475651082816 72.677662458329,207.0 72.38216861075489,214.597252467589 72.83131925901398,214.65200588002335 72.85495876678033,215.11740898460266 80.33686298626708,215.6101869840786 81.24698403658113,221.46863131743157 81.53065813024295,222.24882541317493 87.61783138930332,222.05719921311538" stroke="#4DD2FF" stroke-linecap="round" stroke-linejoin="round" stroke-width="0.5"><title>2025-06-19 5.0km</title><desc>1750345525000</desc></polyline><polyline fill="none" points="109.0,216.4506187684019 108.83478260872653,215.4688246300284 103.73913043479843,215.95217187507296 103.08260869565129,215.9672764002571 100.90000000000873,215.7155337105869 92.81304347826517,216.0830776067378 92.11304347826808,216.19887854175613 91.0,216.53117536997524 92.56956521738903,216.10825174613638 95.41304347827099,215.98238092085376" stroke="#4DD2FF" stroke-linecap="round" stroke-linejoin="round" stroke-width="0.5"><title>2025-06-17 5.1km</title><desc>1750166247000</desc></polyline><polyline fill="none" points="111.62068965513026,222.7925256237504 111.0,218.8033731077594 125.0275862069102,218.39007737179054 122.74655172420898,209.38717765365436 125.50862068968127,209.54891044675605 129.0,209.2074743762496 123.49137931037694,209.53094014374074 125.52413793106098,217.63536091908463 119.50344827584922,217.9228723296692" stroke="#4DD2FF" stroke-linecap="round" stroke-linejoin="round" stroke-width="0.5"><title>2025-06-16 3.2km</title><desc>1750084948000</desc></polyline><polyline fill="none" points="149.0,216.8320885070425 148.7241935484344,215.1679114929575 139.87661290320102,215.98319432727294 139.0782258064719,215.99159926299035 135.5798387096729,215.5629464501617 131.0,215.7814756135267 135.43467741934,215.5545414707667 139.07096774195088,215.97478939073335 146.57580645164126,215.34441670769593" stroke="#4DD2FF" stroke-linecap="round" stroke-linejoin="round" stroke-width="0.5"><title>2025-06-15 4.6km</title><desc>1749956754000</desc></polyline><polyline fill="none" points="169.0,216.7239137209981 168.7808807733527,215.27608627899463 161.07303974224487,215.98507752069418 160.26745435016346,216.00000357831595 156.8775510204141,215.61938815854228 151.0,215.8880580719997 156.99355531684705,215.61938815854228 160.21589688508539,216.00000357831595 161.89795918369782,215.917910223754 162.21374865731923,215.81342763937573 166.2996777658409,215.44773741994868" stroke="#4DD2FF" stroke-linecap="round" stroke-linejoin="round" stroke-width="0.5"><title>2025-06-14 5.1km</title><desc>1749906363000</desc></polyline><polyline fill="none" points="189.0,217.06875192149164 188.7835926449916,215.60935958814662 181.32390381896403,216.33168876736454 180.31824611034244,216.33905943610444 177.2630834512238,215.97052507959597 171.50919377652463,216.2432406840744 171.43281471007504,216.0737148887274 171.464639321086,214.93861888996616 171.0,214.93124807850836 171.4837340877275,214.9533605106335 171.43281471007504,216.06634419295006 171.52828854316613,216.2432406840744 177.4222065063659,215.96315437331214 180.45827439890127,216.3464301040949 186.50495049508754,215.80099864498334 186.4985855728737,215.50616911642283 188.43988684585202,215.4029784974773" stroke="#4DD2FF" stroke-linecap="round" stroke-linejoin="round" stroke-width="0.5"><title>2025-06-12 5.9km</title><desc>1749735885000</desc></polyline><polyline fill="none" points="29.0,243.66263633829658 28.426195426203776,240.7736221528321 12.659043658990413,242.1748013872275 11.174636174633633,238.11567708935763 11.0,233.0452197203267 13.943866943824105,232.91520560727804 16.45114345109323,233.07411172923457 16.588357588392682,232.6118388796749 16.32640332635492,232.51071649281948 11.074844074784778,232.33736366170342 11.18711018707836,237.97122212506656 11.62370062363334,239.61799998933566 12.48440748435678,241.66922284850443 19.46985446981853,241.06252622140164 19.607068607001565,241.61144232923107 28.388773388811387,240.7591769339051 28.925155925157014,243.61930156052404" stroke="#4DD2FF" stroke-linecap="round" stroke-linejoin="round" stroke-width="0.5"><title>2025-06-10 5.3km</title><desc>1749559786000</desc></polyline><polyline fill="none" points="31.472618154541124,233.2075754171383 31.040510127553716,231.45622788878973 31.0,230.0957923520764 43.2475618905155,229.78304684518662 43.80120030004764,231.83151832780277 43.396099024801515,231.8158812445472 43.274568642198574,232.0973484999995 43.53113278315868,233.55158776117605 43.4636159039801,234.5367097521812 43.90922730683815,236.506934759891 45.05701425363077,236.4600249346695 46.75843960989732,243.0116249951243 46.785446361638606,243.30870762854465 46.35333833459299,243.43379488112987 46.74493623408489,243.3243435407203 46.87996999244206,243.57451791832864 46.528882220503874,243.63706144907337 46.650412603106815,244.21558789956907 47.46061515377369,246.2795023326762 48.02775693923468,246.2169598788605 49.0,245.68534799250483 47.97374343586853,245.90424722757598 46.15078769688262,238.6334984426794 45.93473368341802,238.00804159529798 45.44861215306446,238.00804159529798 45.084021005255636,236.41311509505613 44.69242310576374,236.56948117123102 43.895723931025714,236.4600249346695 43.450112528167665,234.66180415557756 43.3555888972478,232.34754118253477 42.61290322581772,229.7204976673238 31.040510127553716,230.12706686770252 31.526631657907274,233.30139704197063" stroke="#4DD2FF" stroke-linecap="round" stroke-linejoin="round" stroke-width="0.5"><title>2025-06-08 5.0km</title><desc>1749355299000</desc></polyline><polyline fill="none" points="69.0,238.74069638492801 68.68341708541266,237.2593036150647 62.88155061015277,237.7456227194125 61.13711414212594,237.992521954744 60.16798277100315,237.992521954744 57.09906676237006,237.61843188016064 51.0,237.8877769260289 56.8083273510274,237.61843188016064 60.13567839196185,238.00000373677904 67.13280689160456,237.37153138663416" stroke="#4DD2FF" stroke-linecap="round" stroke-linejoin="round" stroke-width="0.5"><title>2025-06-07 5.3km</title><desc>1749293029000</desc></polyline><polyline fill="none" points="89.0,238.71307294099097 88.73424558879924,237.28692705900903 80.52178610008559,238.0375335972858 77.19013323730906,237.65472521866468 71.0,237.9099310255042 77.1642059776641,237.6397130848345 80.12639539071824,238.0375335972858 86.47209218580974,237.45956724023563" stroke="#4DD2FF" stroke-linecap="round" stroke-linejoin="round" stroke-width="0.5"><title>2025-06-05 5.1km</title><desc>1749128617000</desc></polyline><polyline fill="none" points="91.25196850392967,237.8860670675931 91.0,236.23566990168183 91.09448818897363,236.16272346800542 98.15748031498515,235.91652881528717 99.48818897639285,240.79470398727426 106.46456692914944,240.70352558211016 109.0,240.5485220800765 106.91338582680328,240.6214649379981 106.52755905513186,235.20529601272574 99.85039370079176,235.5973865904234 98.41732283466263,235.5517947510598 98.54330708659836,235.91652881528717 94.84251968504395,236.02594874459464" stroke="#4DD2FF" stroke-linecap="round" stroke-linejoin="round" stroke-width="0.5"><title>2025-06-03 5.2km</title><desc>1748952979000</desc></polyline><polyline fill="none" points="125.88541591423564,232.6340175164878 125.49055573824444,232.04958133533364 125.21065485401778,231.43620620635193 125.03071857130271,231.2683948762351 124.58587609452661,231.22788861886875 124.24599644937553,230.8343977591212 124.09105131705292,230.31938354665908 123.86113273355295,229.96639358167886 123.58623007935239,229.0 122.79151149731479,229.3414223644104 122.42164247171604,229.38192996643556 121.4619822971581,229.740710323862 121.05212743094307,230.26730319790295 121.05212743094307,230.40039732762307 119.39271504577482,232.5125015776648 119.3827185856062,232.6340175164878 118.92787964871968,233.25895252669943 118.53301947272848,233.6234947761368 118.46304425169365,233.5598447106022 118.18314336740877,233.80287185012276 117.9982088546094,233.69293113000458 117.9932106245542,233.7970855017411 117.96821947413264,233.6466402368642 118.22812743810937,233.83180358324535 118.18814159749309,234.04011162691313 117.58835398839437,234.70553498535446 116.5637168228568,234.93698476231657 116.5637168228568,234.83283247932923 116.49374160179286,234.96012968818104 116.2138407175662,235.02377818571767 115.9689274438424,234.9543434575935 115.55907257762738,234.98906083225302 115.48909735653433,234.92541229585186 115.3241557640722,235.01799196162392 114.8293309865694,234.8444049646314 114.76435399556067,234.08640219959852 114.57442125267698,233.91859869421023 113.6397522285115,234.15583798797525 113.28987612322089,234.36993113478093 113.6897345292964,236.1000056258963 114.31951151881367,238.03253494010642 115.64904071897035,243.2280515268867 115.83397523179883,243.76609014944552 117.403419475595,246.94214991849003 117.6033486786182,247.0 118.2931044291181,246.78016937724533 118.76293805622845,246.91900986941982 119.62263362927479,246.73967416986488 119.60763893902185,246.39835627621142 119.83755752249272,246.3347205101927 120.25241061879206,246.52562759469583 120.5672991135798,246.37521600590844 120.69725309556816,246.5661229544785 121.50696636782959,246.74545920124 121.98179822505335,246.65868366858558 122.46162831230322,246.30001006234306 122.54659822359099,245.62315209528606 122.90647078907932,245.12562742731097 122.81150441762293,244.62809840687987 122.92646370935836,244.38511753593048 122.68155043563456,244.11320913992677 122.52660530331195,243.70823677836233 122.46662654238753,243.10655823017805 122.79151149731479,242.84621457745016 123.28633627481759,243.04870418813516 123.56123892898904,243.03134796403174 123.63121415005298,242.65529514124137 123.51625485831755,242.1924574838522 123.42128848686116,242.1519590095886 123.51625485831755,242.10567500370234 123.40629379663733,242.0709619745503 123.49626193798031,242.12303151032393 123.50625839817803,241.8511122978598 123.37630441618967,241.55026399437338 122.78651326723048,241.50976506273219 122.51161061305902,241.30148438722608 122.62656990479445,240.5146393944342 123.0964035319339,239.7104262748653 123.45627609739313,239.31120834312242 123.62121768988436,239.2533504392959 123.97609202528838,238.7615558794496 124.60087078475044,238.165610888409 125.15567432317766,237.47129816576853 124.99573096074164,237.1472826598947 124.50090618323884,237.14149665194054 124.43592919225921,236.95055805890297 124.6258619351429,236.49346003390747 124.84578405847424,236.28516098064938 125.05071149158175,236.3140914503565 125.13568140286952,236.20994169052938 124.96074335023877,235.81069917671994 125.19566016376484,235.31887483397077 125.41558228712529,235.1915784284829 125.60051679992466,235.26679906617574 125.57552564953221,235.12793011885879 126.13032918795943,234.87333616760588 126.18031148871523,234.71710749659178 126.66513980607851,234.42200772422075 126.71012387675,233.99960734488195 126.07534865711932,232.790251913244 125.97538405557862,232.74396028490082" stroke="#4DD2FF" stroke-linecap="round" stroke-linejoin="round" stroke-width="0.5"><title>2025-06-02 11.5km</title><desc>1748829019000</desc></polyline><polyline fill="none" points="149.0,238.8417534750406 148.67027477102238,237.1582465249594 139.16069941714522,238.04339350415103 135.21898417980992,237.59214325279754 131.0,237.77437921910314 135.27144046625472,237.57478742613603 138.72606161530712,238.02603776947217 148.6552872605971,237.1669244812001 148.99250624480192,238.7896867485979" stroke="#4DD2FF" stroke-linecap="round" stroke-linejoin="round" stroke-width="0.5"><title>2025-06-01 4.9km</title><desc>1748740054000</desc></polyline><polyline fill="none" points="169.0,246.67410667186778 168.93482196744299,246.81247984978108 168.80446590221254,246.7118448267065 168.36994568497175,244.29657965675142 154.63910681958077,245.49163864280126 153.3681351841078,241.93158671310812 153.31382015696727,237.4530716523077 153.0096560048405,235.7672963525838 151.0,229.18752015021892 152.32528666267172,233.59085089842847 152.68376584193902,234.27020793587872 153.2703681352432,236.79889292705775 153.85697042854736,236.9624379334782 153.24864212435205,236.9498575560865 153.3681351841078,241.51645029734937 153.78092939045746,243.2147268062472 154.49788774893386,244.98845732213522 154.68255884130485,245.1016732981443 160.57030778517947,244.4978535594273 160.7332528666011,244.97587776285945 165.41520820761798,244.5230127741961" stroke="#4DD2FF" stroke-linecap="round" stroke-linejoin="round" stroke-width="0.5"><title>2025-05-31 5.5km</title><desc>1748696141000</desc></polyline><polyline fill="none" points="187.7376623376622,242.96756412692775 187.32857142860303,240.32819520025805 172.51948051952058,241.65465383294213 171.1519480519346,237.75645194278331 171.0,233.0595080771891 176.02597402594984,233.11365246893547 171.07012987014605,233.0324358730868 171.1636363636353,237.68877381607308 171.52597402600804,239.13707819906995 172.43766233761562,241.22152594024374 185.55194805195788,239.96273998371908 186.72077922080643,239.89506298136257 186.77922077925177,240.395871981862 189.0,240.2199122779857" stroke="#4DD2FF" stroke-linecap="round" stroke-linejoin="round" stroke-width="0.5"><title>2025-05-29 5.0km</title><desc>1748526381000</desc></polyline><polyline fill="none" points="21.91125198098598,258.23286041124084 21.51188589539379,254.9625264027418 28.272583201294765,254.632185964394 29.0,257.2914073854481 28.215530903311446,254.69825410589692 21.483359746460337,255.01207741038525 21.6687797147315,256.6472521640244 21.412044374039397,255.02859440956672 11.798732171126176,255.92050986597314 13.239302694099024,263.13823769203736 13.795562599028926,264.82287846862164 13.424722662428394,265.05410230671987 14.009508716291748,266.6065966768656 13.225039619661402,264.55862224975135 11.285261489683762,255.95354367756227 14.65134706813842,255.47455275138782 20.741679873201065,255.09466238951427 20.670364500838332,254.61566892477276 11.727416798763443,255.22679826857348 11.228209191758651,253.39340332311986 11.0,253.59160918208363 11.11410459590843,255.3589340398612 17.86053882725537,254.69825410589692" stroke="#4DD2FF" stroke-linecap="round" stroke-linejoin="round" stroke-width="0.5"><title>2025-05-27 6.0km</title><desc>1748352132000</desc></polyline><polyline fill="none" points="46.601366742601385,261.34136010772636 46.67312072895584,261.2938794083384 46.44248291570693,260.14246059575817 40.379271070618415,260.724107996004 39.67710706152138,260.73597829062055 37.15034168565762,260.43922019933234 31.112756264250493,260.70630254955176 31.0,258.7357995008242 31.71753986334079,258.6586398922773 32.70671981779742,258.7298641499583 32.711845102516236,260.43922019933234 37.29897494305624,260.2552294232628 40.08712984054,260.5282477855035 46.4322323462402,259.8991165923253 48.892369020497426,259.81008804430166 49.0,260.0059506702637 48.92824601367465,260.02969154986204 46.65774487471208,260.12465497143785" stroke="#4DD2FF" stroke-linecap="round" stroke-linejoin="round" stroke-width="0.5"><title>2025-05-25 7.6km</title><desc>1748179850000</desc></polyline><polyline fill="none" points="68.98820445610909,260.9937263310785 68.94102228048723,260.6044361218592 68.71100917432341,260.6044361218592 68.56356487548328,259.87365716575005 68.44560943642864,259.70974303461117 62.75425950199133,260.19465451112046 61.82241153344512,260.3653971534659 58.08322411534027,260.01708170158236 51.10026212321827,260.3312486598079 51.0,259.14287024004443 52.733944954146864,259.0062736689215 52.72214941022685,260.00342223521875 52.95216251639067,260.0307411651738 57.85321100917645,259.8190191666072 61.40366972476477,260.12635733236675 68.77588466581074,259.4160625469376 69.0,260.9186003264549" stroke="#4DD2FF" stroke-linecap="round" stroke-linejoin="round" stroke-width="0.5"><title>2025-05-24 6.6km</title><desc>1748094255000</desc></polyline><polyline fill="none" points="89.0,260.80202481051674 88.80419016923406,259.19797518949053 81.39242546336027,259.827841329432 80.36261079774704,260.00420298581594 79.1877518130641,260.02099931432895 75.80096696215332,259.60948827948596 71.0,259.8026467762611 75.77921031427104,259.6010900737019 79.14423851732863,260.02939747733035 86.82433521354687,259.3827364228928" stroke="#4DD2FF" stroke-linecap="round" stroke-linejoin="round" stroke-width="0.5"><title>2025-05-18 4.7km</title><desc>1747565909000</desc></polyline><polyline fill="none" points="106.66046378470492,260.6444834943504 106.46464357286459,259.4927689701035 101.24448897794355,259.9343616728147 100.37360435156734,260.0895150749857 99.67277411965188,260.083547644037 97.28685943313758,259.77324039691666 91.03607214428484,260.0596779141961 91.0,259.8806546301021 94.519610649877,259.6538910178133 96.90552533639129,259.61211867765087 99.69338677352061,260.0596779141961 106.53163469795254,259.4509965149773 108.83509876893368,259.3555165056496 108.92785571143031,259.3674515153325 108.94331520181731,259.4509965149773 109.0,259.4151915297298" stroke="#4DD2FF" stroke-linecap="round" stroke-linejoin="round" stroke-width="0.5"><title>2025-05-17 5.7km</title><desc>1747487200000</desc></polyline><polyline fill="none" points="128.01635420823004,259.2558608284089 125.63262863981072,259.3805780957555 124.46948544075713,259.5884397842601 119.1276426007098,259.9958471573991 115.78181092938758,259.5634964096098 111.0,259.7547287537309 115.71719186278642,259.58012532689463 118.9984044674784,259.9875327415284 128.53330674112658,259.1560868772649 128.84922217793064,260.76908412746707 129.0,260.8439131227278" stroke="#4DD2FF" stroke-linecap="round" stroke-linejoin="round" stroke-width="0.5"><title>2025-05-11 5.0km</title><desc>1746965499000</desc></polyline><polyline fill="none" points="149.0,260.64671074700163 148.70946915345849,259.35328925299837 140.54232424672227,260.09345810143714 137.22381635577767,259.7121599303937 131.0,259.9738353591529 137.06886657100404,259.71963638415764 140.16786226682598,260.09345810143714 148.76111908175517,259.3682422329366" stroke="#4DD2FF" stroke-linecap="round" stroke-linejoin="round" stroke-width="0.5"><title>2025-05-10 5.3km</title><desc>1746870058000</desc></polyline><polyline fill="none" points="168.96069868994527,259.69658927550336 168.91484716156265,259.5676388092543 169.0,259.66624800941645 168.6528384279518,259.72693052919203 160.62882096073008,260.4323611907457 157.22925764191314,260.03034238589316 151.0,260.28824149152933 157.19650655021542,260.03034238589316 158.78820960698067,260.1592920504336 160.23580786027014,260.42477595036326 166.80567685590358,259.83312481975736" stroke="#4DD2FF" stroke-linecap="round" stroke-linejoin="round" stroke-width="0.5"><title>2025-05-05 5.4km</title><desc>1746434825000</desc></polyline></svg>