<?xml version="1.0" encoding="utf-8" ?>
<svg baseProfile="full" height="300mm" version="1.1" viewBox="0,0,200,300" width="200mm" xmlns="http://www.w3.org/2000/svg" xmlns:ev="http://www.w3.org/2001/xml-events" xmlns:xlink="http://www.w3.org/1999/xlink"><defs /><rect fill="#222222" height="300" width="200" x="0" y="0" /><text fill="#FFFFFF" style="font-size:12px; font-family:Arial; font-weight:bold;" x="10" y="20">Over 3km Runs</text><text fill="#FFFFFF" style="font-size:4px; font-family:Arial" x="10" y="280">Runner</text><text fill="#FFFFFF" style="font-size:9px; font-family:Arial" x="10" y="290">tang-hi</text><text fill="#FFFFFF" style="font-size:4px; font-family:Arial" x="65" y="280">SPECIAL TRACKS</text><rect fill="yellow" height="2.6" width="2.6" x="65" y="283" /><text fill="#FFFFFF" style="font-size:3px; font-family:Arial" x="70" y="285.5">Over 20.0 km</text><rect fill="red" height="2.6" width="2.6" x="65" y="287" /><text fill="#FFFFFF" style="font-size:3px; font-family:Arial" x="70" y="289.5">Over 40.0 km</text><text fill="#FFFFFF" style="font-size:4px; font-family:Arial" x="120" y="280">STATISTICS</text><text fill="#FFFFFF" style="font-size:3px; font-family:Arial" x="120" y="285">Number: 92</text><text fill="#FFFFFF" style="font-size:3px; font-family:Arial" x="120" y="290">Weekly: 3.8</text><text fill="#FFFFFF" style="font-size:3px; font-family:Arial" x="141" y="285">Total: 477.5 km</text><text fill="#FFFFFF" style="font-size:3px; font-family:Arial" x="141" y="290">Avg: 5.2 km</text><text fill="#FFFFFF" style="font-size:3px; font-family:Arial" x="167" y="285">Min: 3.0 km</text><text fill="#FFFFFF" style="font-size:3px; font-family:Arial" x="167" y="290">Max: 11.5 km</text><polyline fill="none" points="21.0126269380562,31.106521599453117 20.72988045535749,31.0 20.526039967808174,31.281521040968073 20.45370947223273,32.483680063145584 19.934245004027616,35.33682833637431 19.99342450039694,35.51942612497078 19.40820503619034,39.20171985210618 19.44108253417653,39.60493523449986 18.9873730619438,42.89144005118578 19.592319024930475,49.0 20.20384048752021,48.901110716338735 19.94739600320463,48.825041947835416 19.342450040217955,43.08923435230099 19.684376019285992,40.122264999125036 19.88164100726135,39.41473956988193 20.41425647464348,35.24552927513287 20.55234196622041,34.94119826715905 20.49973796942504,34.66729930260772 20.80221095093293,32.44563735180418" stroke="#4DD2FF" stroke-linecap="round" stroke-linejoin="round" stroke-width="0.5"><title>2025-10-19 5.0km</title><desc>1760870639000</desc></polyline><polyline fill="none" points="45.7320157357608,31.63629756296723 45.890084347629454,31.590021502044692 45.95923936535837,31.20824324851128 44.833000505692326,31.0 44.60577687609475,31.150397941702977 44.18096748163225,32.06435019295168 44.348915381822735,32.73534822323563 43.7166409342899,33.383204463090806 43.94386456388747,33.672424753021915 42.965815027826466,32.81633046421484 42.40269559802255,32.469263292667165 42.23474769789027,32.63122811052017 41.918610474152956,32.34200505231274 40.00202855502721,35.77792528907594 40.00202855502721,36.61085930695117 40.37744150822982,37.20085037785611 43.27207296335837,38.88982673395367 41.55307680909755,49.0 43.14364221616415,39.30628262775281 40.30828649055911,37.698291343753226 39.755046348960605,37.02732392444159 39.843959943100344,36.44890041400504 41.86921403289307,32.38828079330415 42.77810855122516,33.07084568625578 43.15352150442777,32.94358814966836 43.953743852092884,33.6492871581213 43.70676164602628,33.325360312832345 44.348915381822735,32.71221042901743 44.13157104043057,32.06435019295168 44.55638043489307,31.185105129508884 44.793483352754265,31.0 45.92960150062572,31.16196700555156 45.94936007709475,31.32393376989785" stroke="#4DD2FF" stroke-linecap="round" stroke-linejoin="round" stroke-width="0.5"><title>2025-10-18 5.0km</title><desc>1760792768000</desc></polyline><polyline fill="none" points="66.13951359377825,31.0 66.26740167784737,31.11098773541744 66.1970632316079,31.72511681359174 66.2801904862572,32.13206696400448 65.85815980887855,34.98065434300952 65.65993327856995,35.72052894018998 65.73027172480943,35.898097725097614 65.16116975076147,39.41978919109533 65.18674736761022,39.78970488326013 64.75192788179265,42.91911647303641 64.7775054986123,44.12497678431828 65.31463545162114,48.963013191380014 65.66632768276031,49.0 65.69829970379942,48.86684740111377 65.39136830208008,45.885644951638824 65.0908313045511,44.01400887784985 65.08443690033164,42.86733061391715 65.39136830208008,40.5961145809124 65.61517244915012,39.39019585456845 65.70469410801888,39.39019585456845 65.58959483238868,39.323610803425254 66.01801991392858,36.23103802994592 66.14590799799771,35.48376988686505 66.26740167784737,35.320997591239575 66.1970632316079,35.084237239090726 66.48481142072706,32.886768496107834 66.6766435468162,32.48722160048783" stroke="#4DD2FF" stroke-linecap="round" stroke-linejoin="round" stroke-width="0.5"><title>2025-10-16 4.6km</title><desc>1760619242000</desc></polyline><polyline fill="none" points="88.33703490841435,49.0 88.34403173418832,48.45754932039563 88.52594920399133,48.23085241978697 89.21163812858867,43.56723019464698 89.32358734076843,41.470130522611726 88.58892063584062,35.68055330423522 88.19709839322604,34.878886363199854 88.288057128113,34.741225571553514 88.60991111313342,34.78981176049274 88.45598094636807,33.21884330229659 88.11313648405485,32.7896558077191 88.15511743864045,31.979861782201624 87.79128249903442,31.0 88.14112378712161,31.834097983009997 88.13412696137675,32.80585160422925 88.45598094636807,33.21884330229659 88.60291428735945,34.78171406438196 88.32304125692463,34.72503016865085 88.21109204474487,34.814104843833775 88.60991111313342,35.63196765874454 88.84080636323779,38.15028456867003 89.35157464380609,41.704943655393436 89.35157464380609,42.56322025186091 88.85480001478572,46.19055128774198 88.64489524191595,47.34025120863953 88.33003808266949,47.79364943283872 88.40700316603761,48.36848990065482 88.23208252200857,48.96761498844717" stroke="#4DD2FF" stroke-linecap="round" stroke-linejoin="round" stroke-width="0.5"><title>2025-10-14 5.0km</title><desc>1760442162000</desc></polyline><polyline fill="none" points="112.01924387042527,31.0 111.94177863214281,31.522883715202624 112.03861017999589,31.918778911327536 111.99342212430201,32.35948992386693 111.63191767904209,34.66757733162376 111.44471001988859,35.14561874006904 111.34142303554108,36.60960121928656 110.85726529630483,39.39556899483432 110.9024533519987,39.75407728993014 110.4441173588566,43.070196170061536 111.02510664591682,48.98506406692468 111.34142303554108,49.0 111.39306652770028,48.85810851336282 110.77334462152794,42.920824661661754 111.19940343202325,39.74660838495038 111.31560128941783,39.61216796544613 111.70292748080101,36.25854685304512 111.9740558147605,35.205373697586765 111.90304601300159,34.98129235650413 112.18062978348462,32.971999146997405 112.41302549830289,32.0980515063784" stroke="#4DD2FF" stroke-linecap="round" stroke-linejoin="round" stroke-width="0.5"><title>2025-10-12 5.0km</title><desc>1760269757000</desc></polyline><polyline fill="none" points="134.89727547217626,31.0 134.91021856607404,32.32544108592265 134.53486884315498,34.84895511166542 134.38602326335968,35.14847626286064 134.3730801694619,35.92722555983346 133.81005558508332,39.35661976530537 133.84241331985686,39.723510571617226 133.39587658050004,42.87570124598278 133.39587658050004,43.75170180210989 133.9718442587764,49.0 134.34719398169545,48.94010712039017 133.70651083393022,43.01047123972239 134.80020226800116,35.34316435844812 134.9231616599718,35.16345228847058 134.86491773743182,34.89388336194679 135.1755519909202,32.66241383264423" stroke="#4DD2FF" stroke-linecap="round" stroke-linejoin="round" stroke-width="0.5"><title>2025-10-11 5.0km</title><desc>1760186515000</desc></polyline><polyline fill="none" points="157.72714945563348,31.0 157.74641183958738,31.661242225862225 157.82988216998638,31.787546240506344 157.78493660746608,32.54536574674421 157.4125305179914,35.00451024670474 157.2776938304305,35.24224792933819 157.2776938304305,35.933168682553514 156.78329264270724,39.26881253547617 156.68055992835434,39.4693920607242 156.71266390159144,39.93740881382837 156.28889145498397,42.983158971699595 156.48793608901906,45.79107969695178 156.88602535703103,49.0 157.3226393929508,48.962860523708514 156.68055992835434,44.08999773445248 156.62277277655085,42.91630240272934 157.04654522318742,39.89283591874846 157.16854032146512,39.63282682272256 157.61157515199739,36.000031634837796 157.81704058067407,35.27939437243913 157.75283263422898,35.049086121071014 157.99682283075526,33.37747223654151" stroke="#4DD2FF" stroke-linecap="round" stroke-linejoin="round" stroke-width="0.5"><title>2025-10-10 5.0km</title><desc>1760093219000</desc></polyline><polyline fill="none" points="180.26169220267911,49.0 181.40659558941843,40.558792945848836 181.3248167760903,38.84585372029687 180.74418720137328,34.21792108262889 181.0058794040524,34.63434979901649 180.99770152271958,33.564881389655056 181.6355762667372,33.72577565238316 180.98952364138677,33.55541701258335 180.95681211605552,34.161135204238235 181.1449033867102,34.60595699114492 180.77689872670453,34.823634963344375 180.8259660147305,35.29684619026375 180.40889406669885,35.344167180664954 180.03271152536036,32.48593620691099 179.60746169596678,31.709845096396748 179.66470686535467,31.54894734903064 180.0572451693588,31.66252225840435 180.03271152536036,31.113575579205644 179.869153898675,31.0 178.3644237332628,31.246080246499332 179.86097601731308,31.04732317484013 180.04906728799688,31.21768640508526 180.0654230506916,31.634128544050327 179.67288474665838,31.530018183970242 179.63199533999432,31.700380530732218 180.11449033868848,32.78879927516391 180.4416055920301,36.40415106108412 180.8913890653639,39.139232288369385 180.9486342347227,40.41683785411442 180.09813457599375,46.53017443662975" stroke="#4DD2FF" stroke-linecap="round" stroke-linejoin="round" stroke-width="0.5"><title>2025-10-08 5.0km</title><desc>1759920144000</desc></polyline><polyline fill="none" points="20.652211214939598,51.0 20.641519227821846,52.051619571044284 20.823283009114675,52.10110732708563 20.727055124938488,53.33829469135526 20.1176118584699,57.48278077421128 19.903772115823813,57.97763535741251 19.754084296058863,60.34053826719901 19.187408978119493,64.11366513749817 18.930801286944188,64.91775903272355 18.973569235415198,65.57340089532954 18.49242981459247,69.0 18.94149327406194,64.93012966657989 19.05910513253184,64.73219937422982 19.689932373235933,64.73219937422982 20.55598333076341,58.64568585500092 20.801899034820963,58.02712070514826 20.705671150644775,57.655980107076175 21.315114417113364,53.177461044899246 21.50757018540753,53.00425534185342" stroke="#4DD2FF" stroke-linecap="round" stroke-linejoin="round" stroke-width="0.5"><title>2025-10-07 3.0km</title><desc>1759844077000</desc></polyline><polyline fill="none" points="43.482541472738376,51.0 43.55991037361673,51.04476303512638 43.46964665589621,51.611759117666224 43.57280519042979,51.64906133803015 43.508331106364494,52.45478467189969 43.153723643918056,54.86444151183241 43.00543325050967,55.19268585972168 42.89582730756956,56.7294467011161 42.54121984515223,59.12404391678865 42.418719085340854,59.37767269397591 42.46385094424477,59.750654598763504 42.02542717248434,62.68968574330211 41.999637538858224,63.76382006708445 42.5799042955623,69.0 42.96030139166396,68.94778922160913 42.66372060487629,66.29990823429398 42.715299872128526,66.09105722273671 42.35424500130466,64.0845654656805 42.32845536764944,63.21183633473265 43.71464817543165,53.42462510673067" stroke="#4DD2FF" stroke-linecap="round" stroke-linejoin="round" stroke-width="0.5"><title>2025-10-06 5.0km</title><desc>1759755043000</desc></polyline><polyline fill="none" points="69.44907742890064,68.89656125801412 69.51088249270106,69.0 70.13776242587483,68.85518573033914 70.28786043811124,68.58624437088292 69.55502896691905,66.9518923999276 69.66980979975779,66.79673097288469 68.3983913436532,64.04516048127698 67.78034070535796,63.22794971503754 67.55960833450081,62.44176577728649 67.55960833450081,61.04523913684534 69.00761268718634,60.66248388355598 69.01644198206486,60.38317504360748 65.9261887902976,57.714183378186135 64.01906110619893,55.458931670495076 63.6570600180421,54.786484094001935 61.705785859783646,52.386325524894346 61.140710990468506,51.0 61.93534752546111,52.6035837004747 63.41866905754432,54.32094073515327 64.07203687517904,55.407205099239945 66.2705312888138,57.9003944802389 67.46248609130271,58.67627022733359 68.83102679054718,60.207313509883534 68.70741666288814,60.46593330218457 67.24175372050377,60.79696563098696 67.47131538618123,61.24178854535421 67.45365679648239,62.34866462622449 67.63024269317975,63.0831268364127 68.56614794553025,64.60375628779002 69.44907742890064,66.68294576885091 66.42945859581232,67.74838382213784" stroke="#4DD2FF" stroke-linecap="round" stroke-linejoin="round" stroke-width="0.5"><title>2025-10-04 5.0km</title><desc>1759568734000</desc></polyline><polyline fill="none" points="88.37383634856087,51.50442067741824 88.38795007875888,51.28942210126115 87.92219698202098,51.16538419009885 85.58637463315972,51.0 87.89396952162497,51.18192258972704 88.40912067407044,51.339037210193055 88.38795007875888,51.578843122624676 88.83253258018522,52.141143734123034 88.73373646877008,52.25691100109543 88.80430511981831,52.538059358681494 88.97366988225258,52.728247375707724 91.55648250968079,59.36799758615962 88.44440499958,60.51728644247487 88.80430511981831,62.113033389570774 89.4817641696136,64.27096022650949 89.77815250388812,65.93277102836146 90.28624679127824,67.0984976675245 90.08865456841886,67.30518496040895 90.25096246573958,67.5862787954029 90.38504290269339,68.30554367879813 90.30036052144715,68.12366123453103 90.0815977032762,68.05752205820318 89.85577802002081,68.17326557980414 89.79226623411523,68.38821737621765 90.10982516370132,68.95039618311421 90.37092917249538,69.0 90.54029393492965,68.81811918313178 90.52618020473165,68.56183185413829 90.24390560065513,68.09885905000556 90.03925651268219,68.04098725530639 89.87694861530326,68.14019601978362 89.81343682939769,68.47089098555443 90.11688202878577,68.95039618311421 90.42032722817385,68.97519809551886 90.56146453024121,68.61970326044684 90.3074173865607,68.16499819111777 89.9616309965495,68.06578945832734 89.79932309919968,68.42128683051124 89.95457413146505,68.77678257440857 90.19450754491845,68.99173269939638 90.45561155371252,68.95039618311421 90.56852139535476,68.74371327157132 90.38504290269339,68.24767203822557 90.09571143347421,68.05752205820318 89.83460742473835,68.181532967581 89.86989175021881,68.60316857734142 90.201564410032,69.0 90.5332370698161,68.83465382046415 90.54029393492965,68.59490123445721 90.21567814023001,68.09059165341023 89.9616309965495,68.07405685756385 89.82049369451124,68.1980677405154 89.90517607575748,68.62797060067533" stroke="#4DD2FF" stroke-linecap="round" stroke-linejoin="round" stroke-width="0.5"><title>2025-10-02 5.0km</title><desc>1759403720000</desc></polyline><polyline fill="none" points="111.05352162171039,69.0 111.47810630872846,66.30598840441962 111.68332224077312,66.18315898112633 112.12205975069082,62.964961368226795 112.17159463081043,61.449989238630224 111.69747506367275,58.411770083192096 111.44980066290009,55.67645589262975 111.34365449115285,55.266969726624666 111.01813956446131,54.74282439627859 111.1030565018591,54.61178753072454 111.43564784000046,54.669116185636085 111.2799667880754,53.07208839061059 110.94029903845512,52.65439897367469 110.98275750715402,51.79444335276639 110.67847181484103,51.0 110.98983391863294,51.859964104201936 110.94029903845512,52.629828940516745 111.2799667880754,53.07208839061059 111.43564784000046,54.669116185636085 111.09598009038018,54.619977341055346 111.05352162171039,54.74282439627859 111.46395348579972,55.65188678137201 112.17867104228935,61.68747323912248 112.0654484590923,63.52999773333431 111.32950166822411,68.41043677189737 111.21627908505616,68.41862517959089 111.15259138200781,68.65608864113892" stroke="#4DD2FF" stroke-linecap="round" stroke-linejoin="round" stroke-width="0.5"><title>2025-09-30 5.0km</title><desc>1759224370000</desc></polyline><polyline fill="none" points="134.01609413977712,69.0 134.0581128638296,68.4327499938372 134.2191846393398,68.31929950841004 134.91949670677423,63.67579471338831 135.0525559996022,61.925293401713134 134.3452408114681,55.936019029832096 134.21218151864014,55.392990850079514 133.9110473296314,54.87427391026722 133.96006917438353,54.77701410824375 134.31722832878586,54.83374900717172 134.149153432576,53.17221024011815 133.81300364018534,52.80747758188954 133.84801924356725,51.94832294592197 133.5118694511766,51.0 133.82700988152646,51.76190137755475 133.8200067608559,52.79937239275023 134.15615655324655,53.2046308400968 134.33123457009788,54.801329069872736 134.24719712199294,54.86616893129394 133.96006917438353,54.76080412969168 133.91805045033107,54.85806395149848 134.33123457009788,55.81444587815349 134.52732194899,58.25397831849841 135.02454351689084,61.25263684258243 135.05955912027275,62.45206867228262 134.23319088068092,68.48137158103782 134.0721191051416,68.5299931385889 133.99508477773634,68.9108609805262" stroke="#4DD2FF" stroke-linecap="round" stroke-linejoin="round" stroke-width="0.5"><title>2025-09-28 5.0km</title><desc>1759056716000</desc></polyline><polyline fill="none" points="157.6871457354282,51.0 157.732503118139,51.6298117194674 157.82969750964548,51.63730944564304 157.77138087470667,52.38707821701246 157.3826033086225,54.89125070165028 157.24653116051923,55.18364853528328 157.24653116051923,55.895894820583635 156.66336481136386,59.43453235110064 156.71520182018867,59.75689979613526 156.25514836693765,62.94301394087233 156.2810668713646,64.14245657841093 156.838314716093,68.94003227640496 157.22709228220629,69.0 156.90959060320165,66.33138915974268 156.96790723814047,66.1664718422544 156.62448705473798,63.925059046312526 156.59856855034013,62.93551736311201 157.6417883527174,55.521029211471614 157.79729937913362,55.236130075099936 157.7389827442239,55.01870631001657 158.03056591880159,52.746964521342306" stroke="#4DD2FF" stroke-linecap="round" stroke-linejoin="round" stroke-width="0.5"><title>2025-09-27 5.0km</title><desc>1758971882000</desc></polyline><polyline fill="none" points="179.72638571128482,69.0 179.79654322122224,68.45608108815213 179.97895274701295,68.26124356216314 180.77874836017145,62.13985596117709 180.01403150198166,55.66886058036471 179.62816519738408,54.88126324179029 179.68429120531073,54.775708368979394 179.9649212450313,54.897502440617245 180.02806300396333,54.84066523029469 179.87371648213593,53.241087149319355 179.52994468348334,52.802618526271544 179.56502343848115,51.90131435039075 179.21423588882317,51.0 179.57203918942832,51.885074542224174 179.55099193647038,52.84321757399448 179.90177948612836,53.29792549823469 180.0420945059741,54.83254562551883 179.68429120531073,54.775708368979394 179.6632439523819,54.905622038779256 180.0771732609137,55.87996782517439 180.37183480258682,58.96531772155868 180.78576411117683,61.80698191402189 180.69455934825237,63.414507168505224 179.957905494055,68.30995298819471" stroke="#4DD2FF" stroke-linecap="round" stroke-linejoin="round" stroke-width="0.5"><title>2025-09-25 5.0km</title><desc>1758803583000</desc></polyline><polyline fill="none" points="20.534569424868096,71.0 20.54104905424174,72.39457586595381 19.97732129713404,75.64848373136192 19.970841667760396,76.65311754227878 19.45895094575826,79.40454460914043 19.497828722116537,79.74940289370716 19.037775035278173,83.11543501838605 19.258082434622338,85.96407281215215 19.64038056874415,89.0 20.00971944408957,88.94003227636858 19.368236134265317,83.07045564542932 20.96222496475093,72.29710636640084" stroke="#4DD2FF" stroke-linecap="round" stroke-linejoin="round" stroke-width="0.5"><title>2025-09-23 5.1km</title><desc>1758638106000</desc></polyline><polyline fill="none" points="42.71783297439106,89.0 42.63424704474164,88.96776003399282 42.65514352716855,88.29877778245282 42.808384398173075,88.15369654965616 43.142728116799844,86.17089310484153 43.630312706460245,81.90689175949956 42.878039339586394,75.65959484272025 42.48797166784061,74.85345615795086 42.57155759749003,74.75671896491986 42.898935821984196,74.78896470904874 42.74569495092146,73.19278463096998 42.411351232323796,72.81388868039357 42.425282220589,71.84648654937337 42.063076525431825,71.0 42.439213208912406,71.91904211871588 42.418316726456396,72.82195031522133 42.752660445083166,73.17666143591487 42.73176396268536,73.71678668488312 42.9128668102785,74.78090327423706 42.57852309162263,74.7405960879405 42.52279913853272,74.84539472969482 42.940728786808904,75.82082159604761 43.23327954058186,78.91631168380263 43.65120918885805,81.67313080356689 43.53279578854563,83.44647256533062 42.9059013161168,87.5975493656515" stroke="#4DD2FF" stroke-linecap="round" stroke-linejoin="round" stroke-width="0.5"><title>2025-09-21 5.0km</title><desc>1758459157000</desc></polyline><polyline fill="none" points="56.732597006252035,74.37475195724983 56.71428571426077,74.90446356074972 57.29109141114168,74.87268094040337 57.44673739280552,74.99981136353017 57.77634064818267,74.8832751482405 60.15680860338034,74.87268094040337 60.36738846095977,74.99981136353017 62.03371602966217,74.98921716754558 62.28091847116593,75.10575326441904 62.86687981401337,74.95743457304343 65.94317686388968,74.95743457304343 67.54541491059354,74.98921716754558 67.71937218430685,75.12694163167907 68.89129486994352,75.04218813683838 74.71428571426077,75.22228923106013 74.13748001749627,79.56580963526358 73.82618805411039,80.0425264659134 67.74683912226465,80.01074541168782 67.40808022092097,85.62524804275017 67.71021653834032,80.38152377513325 73.04795814561658,80.4133047163632 73.83534370007692,80.56161564741342 74.1191687254468,79.62937200527813 74.33890422905097,77.84961099945212" stroke="#4DD2FF" stroke-linecap="round" stroke-linejoin="round" stroke-width="0.5"><title>2025-09-20 5.0km</title><desc>1758380898000</desc></polyline><polyline fill="none" points="89.19579212382087,71.0 89.0799308460555,71.14151495879923 89.08636758371722,71.6479873094504 89.18291864849743,71.7075720618086 89.12498800965841,72.43748134750058 88.73878375045024,74.97721109895065 88.55211835849332,75.64750632859068 88.58430204677279,76.16139518770797 88.13373041103478,79.22231072484283 88.02430587093113,79.37870443778229 88.06936303447583,79.73617452901817 87.63166487403214,82.90119827391027 87.66384856231161,84.10014806473919 88.19809778753552,89.0 88.51993467024295,88.99255366486614 88.5907387844054,88.90319758416445 88.31395906530088,86.01395897911425 87.97924870732822,83.98099865214317 87.97924870732822,82.7522590429653 89.00912673186394,75.48365694951644 89.15073496024706,75.23043446155498 89.09280432137894,75.021897638253 89.51119226886658,72.2661767597092" stroke="#4DD2FF" stroke-linecap="round" stroke-linejoin="round" stroke-width="0.5"><title>2025-09-18 5.2km</title><desc>1758195038000</desc></polyline><polyline fill="none" points="111.03253820285317,88.8458937524847 111.01851932759746,89.0 111.17973639295087,88.96755660420604 111.24983076917124,88.38357322482625 111.4040383968968,88.27813132595475 112.11199159687385,83.4276533905213 112.21713316126261,82.03247805531282 111.4671233354893,75.70521397983248 111.06758539093425,74.8858777071946 111.13767976721283,74.73174420068972 111.47413277314627,74.80475484616909 111.33394402067643,73.23906746844295 110.97646270185942,72.8172189821853 111.0115098899696,71.92483983356215 110.64000969589688,71.0 111.03253820285317,71.95729015932011 111.0115098899696,72.8253314741014 111.33394402067643,73.21473011639318 111.48114221074502,74.8128671359882 111.13767976721283,74.74796879437054 111.08861370381783,74.87776542481879 111.42506670975126,75.46995987161063 111.55123658699449,76.07026208472962 111.77553859096952,78.60932824826159 112.21012372360565,81.46466715620772 112.21713316126261,82.73006877187436 111.8596518424165,85.33381282278424 111.7124536523479,86.22604202100047 111.53721771176788,86.38826443997095 111.3549723335309,88.05102522452944 111.19375526817748,88.45657138088427" stroke="#4DD2FF" stroke-linecap="round" stroke-linejoin="round" stroke-width="0.5"><title>2025-09-16 5.1km</title><desc>1758026219000</desc></polyline><polyline fill="none" points="135.03974869602825,71.0 134.87863023229875,71.07457414198143 134.85929601662792,71.55184685628774 134.97530131056556,71.68607924797107 134.93018814068637,72.41689574021439 134.5499485662731,74.97469615956652 134.42105379523127,75.19840624316566 134.2792695472017,77.1521119962199 133.84747206434258,79.40402892921702 133.87969575705938,79.80668229299772 133.4350087971543,83.25151525310503 134.040814220818,89.0 134.39527484108112,88.92544406375237 133.7701352017175,82.97563631591038 134.1374852990557,80.26898528364109 134.31793797845603,79.61281243054691 134.67239859869005,76.52573871555069 134.85929601662792,75.39974473546317 134.9688565719698,75.22823420279019 134.92374340211973,74.84792680956889 135.13641977429506,73.4236208282091" stroke="#4DD2FF" stroke-linecap="round" stroke-linejoin="round" stroke-width="0.5"><title>2025-09-14 5.0km</title><desc>1757842188000</desc></polyline><polyline fill="none" points="157.6346949605504,71.0 157.74471131453174,71.97349012749328 157.3046458986646,74.92383551284001 157.11697094189003,75.59026773840014 157.1687433437619,75.8673220589917 156.8386942818761,78.34578870957921 156.59924692320055,79.39405768526922 156.63160467441776,79.79089847931755 156.185067708313,83.10780496994994 156.40510041624657,85.98283569532214 156.78692187997513,89.0 157.1687433437619,88.91764727800182 156.50864521996118,83.14524098618858 158.10064657736802,72.16069829320622" stroke="#4DD2FF" stroke-linecap="round" stroke-linejoin="round" stroke-width="0.5"><title>2025-09-13 5.1km</title><desc>1757760467000</desc></polyline><polyline fill="none" points="180.6845602170215,71.0 180.65226964073372,72.4123634671414 180.2906151864736,74.88580239901785 180.1485366508423,75.18470177277777 179.9870837694616,76.97060022211372 179.567306277866,79.42894181154406 179.60605496942298,79.72782272592303 179.15398690156871,82.93324419247801 179.1669031320489,83.76259623710939 179.7416753897851,89.0 180.1227041898528,88.9477025181186 179.8643795796088,86.09369786738534 179.50918324058875,83.99421540850017 179.48335077957017,83.14245099525579 180.52310733566992,75.62557613203535 180.6781021017814,75.19964670958143 180.62643717974424,75.00536229426507 180.84601309843129,73.4734864293714" stroke="#4DD2FF" stroke-linecap="round" stroke-linejoin="round" stroke-width="0.5"><title>2025-09-11 5.0km</title><desc>1757592265000</desc></polyline><polyline fill="none" points="19.639987224916695,108.92719921069511 19.779798011353705,108.85439835482248 19.800769629335264,108.32861241891078 19.961552033753833,108.21536576279323 20.05941958425683,107.64104095492803 20.276126303244382,105.59446956736792 20.709539741190383,103.15954731519741 20.765464055759367,101.476899708563 20.031457426928682,95.6278045622239 19.632996685570106,94.87540011727106 19.702902078803163,94.74595347390277 20.045438505592756,94.77022473557736 19.891646640491672,93.2411207896439 19.54911021370208,92.79613793038152 19.59804398898268,91.98707180973724 19.23453594421153,91.0 19.591053449636092,91.8818926097083 19.556100753048668,92.8365910204302 19.891646640491672,93.20875848379364 20.03844796627527,94.7944959898523 19.695911539485678,94.74595347390277 19.632996685570106,94.85112888769072 19.870675022510113,95.1666542948442 20.066410123574315,95.765340089456 20.367003314429894,98.98522156006948 20.765464055759367,101.59015595259552 20.709539741190383,103.25662205327535 19.870675022510113,108.95146614787518 19.716883157438133,109.0" stroke="#4DD2FF" stroke-linecap="round" stroke-linejoin="round" stroke-width="0.5"><title>2025-09-09 5.2km</title><desc>1757417515000</desc></polyline><polyline fill="none" points="43.48680845499621,91.0 43.43514358543325,91.56793777661369 43.58368008545949,91.60530195025785 43.49326656371704,92.52445464474295 43.150986802822445,94.80360485976416 42.98307597669191,95.25942642801965 42.76995838974835,97.5683808144895 42.3953880853951,99.47377402829443 42.427678628853755,99.8697907370879 41.99498534621671,102.93324419442797 41.982069128833245,103.84478377026971 42.233935367985396,106.18335414879402 42.576215128879994,108.95517358923826 42.95078543323325,109.0 42.93786921582068,108.70862784209021 43.13807058543898,108.52185021105834 43.13807058543898,108.41725453061372 42.82808136800304,108.1931204291177 42.33080699839047,103.12750767386751 43.31243952023215,96.04403070845001 43.525557107204804,95.30426118378819 43.46097602022928,95.02030726904195 43.73221658545663,93.05501723112684" stroke="#4DD2FF" stroke-linecap="round" stroke-linejoin="round" stroke-width="0.5"><title>2025-09-07 5.0km</title><desc>1757247375000</desc></polyline><polyline fill="none" points="65.23995017516427,108.94265544975497 65.40278177818982,109.0 65.44525958763552,108.4265526622039 65.65056900010677,108.11525097064441 66.33021395164542,103.56847084360197 66.45764738006983,101.83161506291071 65.6859671746497,95.51471545678942 65.27534834976541,94.73633428722678 65.34614469888038,94.62981838441192 65.6859671746497,94.68717311880027 65.53729484148789,93.08941881715145 65.20455200062133,92.65515191567101 65.23995017516427,91.83577402903029 64.97092404850991,91.0 65.23995017516427,91.75383578204492 65.2116316355532,92.6469581780475 65.54437447639066,93.04025664390065 65.7072060793871,94.6707860559909 65.33198542907485,94.60523777145136 65.2965872544737,94.71994723441458 65.55853374619619,95.11323558195 65.72844498412451,95.71135793098802 65.98331184094422,98.48888162234653 66.45056774516706,101.66775881198555 66.45056774516706,102.6426985995713 65.96207293623593,106.13272251950548 65.60809119063197,108.36101556386711 65.44525958763552,108.59039517493511" stroke="#4DD2FF" stroke-linecap="round" stroke-linejoin="round" stroke-width="0.5"><title>2025-09-04 5.0km</title><desc>1756985562000</desc></polyline><polyline fill="none" points="89.10342346489779,91.04504300308326 89.18127637606813,91.0 89.22669057431631,91.10510029779834 89.2007396039262,91.55552845207421 89.27210477253539,91.55552845207421 89.22020283172606,92.36629220977193 88.86986473118304,94.6483942812265 88.6363059974683,95.56421805726859 88.66874471044866,95.92453905446746 88.11079884658102,99.3625135467737 88.1432375596487,99.67777831109561 87.70207106260932,102.7853161730527 87.74099751823815,104.30901284753782 88.27299241168657,108.9924946582978 88.57791631401051,109.0 88.64279374005855,108.90993584925309 88.33786983770551,106.25299404140969 88.41572274896316,106.08036457510025 88.20811498563853,105.10462523026945 88.01997045014286,103.04802473708696 88.37679629333434,100.24825398997928 88.56494082883,99.53515870333649 88.91527892940212,96.41997755683406 89.10991120745894,95.28646942276828 89.22020283172606,95.13633459104312 89.15532540570712,94.93365208435716 89.44078608023119,92.80920569004229" stroke="#4DD2FF" stroke-linecap="round" stroke-linejoin="round" stroke-width="0.5"><title>2025-09-02 5.1km</title><desc>1756811867000</desc></polyline><polyline fill="none" points="111.95107700719382,91.0 111.92495172825875,92.32256637187675 111.57879178240546,94.73335542801942 111.36325823119842,95.55708675743517 111.3697895509249,96.19943972120382 110.84075265258434,99.41867808219104 110.42927950940793,103.0533783902647 110.4554047882848,104.15659949354449 110.97137904725969,108.38042500505253 111.48082198639167,109.0 111.36325823119842,108.93955388607719 111.27181975494022,108.22175253045862 111.07588016297086,106.34788057651895 111.1281307208119,106.15897957621928 110.78197077498771,103.94502411117719 110.76890813550563,102.87958179371344 111.82045061254757,95.44372977629973 111.9641396466759,95.14144364873937 112.04251548345201,93.8340420017048 112.42786334772245,91.74819757926161" stroke="#4DD2FF" stroke-linecap="round" stroke-linejoin="round" stroke-width="0.5"><title>2025-08-31 5.1km</title><desc>1756640573000</desc></polyline><polyline fill="none" points="134.8649175610044,91.0 134.92316146576195,92.45274208266346 134.52192567731254,94.9612756864808 134.38602323282976,95.18591632167227 134.32130778307328,95.6351955381615 134.26306387831573,96.78084514540387 133.90065735968528,99.2592810823262 133.80358418505057,99.42400801015901 133.84241345489863,99.78341093871131 133.40234839660116,102.86821401750058 133.42823457650957,104.14103204247658 133.93948662956245,108.58074882145593 134.43132404764765,109.0 134.3277793280722,108.83529446410103 134.07538907404523,105.96786186834652 133.75828337026178,104.05867389396735 133.75828337026178,102.64359679102199 134.2565923333459,99.61868481394049 134.62547039691708,96.4588669893783 134.92316146576195,95.22335636096977 134.87786065094406,94.9388115853144 135.1690801748191,92.7672494843282" stroke="#4DD2FF" stroke-linecap="round" stroke-linejoin="round" stroke-width="0.5"><title>2025-08-30 5.0km</title><desc>1756550382000</desc></polyline><polyline fill="none" points="156.77902235125657,108.99190374834143 157.02391115328646,109.0 157.807555319916,103.55103658699954 157.91950448654825,101.72923463044572 157.45771417411743,98.47417807111924 157.26180313242367,96.0125544224793 157.14285714289872,95.47001529365662 156.78601917414926,94.91127710370347 156.8349969345727,94.78171406496404 157.19883172621485,94.83839792034269 157.02391115328646,93.1945497326742 156.70205729911686,92.8625368664143 156.72304776791134,91.88268594590772 156.36620979916188,91.0 156.73004459080403,91.92317589218874 156.68806365330238,92.8220473977708 157.02391115328646,93.21884330269677 157.18483808037126,94.82220253721607 156.8349969345727,94.78981176106026 156.78601917414926,94.8950817353907 157.0798857366317,95.35664844168059 157.26879995537456,96.13401790019998 157.471707819961,98.68470814086322 157.91950448654825,101.61587668731954 157.83554261160316,103.33242255208461 157.12186667410424,108.23085241995432" stroke="#4DD2FF" stroke-linecap="round" stroke-linejoin="round" stroke-width="0.5"><title>2025-08-28 5.0km</title><desc>1756381580000</desc></polyline><polyline fill="none" points="180.60902717438876,91.0 180.75725601051818,91.76811003351759 180.73147708250326,92.46909664043778 180.33190369824297,94.97469616110902 180.19011959413183,95.2356911924071 180.1707853981352,96.05595524932869 179.60364898177795,99.39657236682251 179.6487621058186,99.82159534034872 179.21696506152512,102.63265024788416 179.18474140149192,103.77344554387673 179.28785711355158,103.89274337471579 179.2491887215292,104.37738881937548 179.7389883538417,108.60485267570039 180.28034584218403,109.0 180.1063380780688,108.84343244656338 179.50697800167836,103.90765558993735 179.48119907369255,102.94581150582962 179.9258855819644,99.80668229520961 180.03544602607144,99.65009513837867 180.138561738102,98.33773250403465 180.58969297842123,95.75767847098177 180.55746931838803,95.407201707676 180.67991922644433,95.2431481796666 180.6283613704145,95.0194382323898 180.81525859853718,93.7368213738664" stroke="#4DD2FF" stroke-linecap="round" stroke-linejoin="round" stroke-width="0.5"><title>2025-08-26 5.0km</title><desc>1756206850000</desc></polyline><polyline fill="none" points="20.566260415362194,111.0 20.57920351056964,111.61404911642603 20.682748272258323,111.63651423098781 20.62450434381026,112.40032405162492 20.262097677972633,114.88639532199886 20.139138273487333,115.16345228834689 19.99029267858714,116.84823574349866 19.543755893886555,119.38657010345196 19.472568870231044,120.56211127230199 19.14251994242659,122.77087996923365 19.200763870874653,124.440515442795 19.699073036405025,128.89518742878863 19.718487679201644,129.0 20.106780535483267,128.955080344851 19.828503988479497,126.05021788403246 19.48551196543849,124.07364810892614 19.45315422740532,123.07036893548502 19.86733327410184,120.0080368784038 20.016178869002033,119.5812470061137 20.5144880345033,115.50041206009337 20.6633336294326,115.20089233903127 20.61156124860281,114.9612756858769 20.857480057544308,113.09673198908422" stroke="#4DD2FF" stroke-linecap="round" stroke-linejoin="round" stroke-width="0.5"><title>2025-08-24 5.0km</title><desc>1756042259000</desc></polyline><polyline fill="none" points="42.627670874557225,129.0 42.82845885932329,128.70957506886043 43.52404580658185,123.97135386590526 43.65312379683019,121.88844107749173 43.27306082562427,119.49012108822353 42.89299785444746,115.83026516121754 42.47707988601178,114.98374450433766 42.57747387839481,114.8675547093153 42.885826854995685,114.90075181049178 42.72806486694026,113.27407797389606 42.383856893051416,112.8840034078894 42.4412248886656,112.04575175572973 42.053990918037016,111.0 42.419711890339386,111.88805988865352 42.39819889192586,112.89230288613908 42.742406865843805,113.29897628714389 42.907339853351004,114.90905108365405 42.82128785990062,114.9920437690671 42.520105882693315,114.88415326158429 42.520105882693315,115.00034303295979 42.7997748615162,115.5065965349786 42.95753684954252,116.1207359124528 43.143982835434144,118.3780733771273 43.660294796252856,121.97142666717264 43.54555880496628,123.86347522555297 42.756748864776455,128.9336172496769" stroke="#4DD2FF" stroke-linecap="round" stroke-linejoin="round" stroke-width="0.5"><title>2025-08-23 5.0km</title><desc>1755956696000</desc></polyline><polyline fill="none" points="66.34975577905425,111.0 66.35627342073712,111.49775452424365 66.44100276273093,111.58825498821534 66.40841455428745,112.34242122989963 66.01735605284921,114.77078446850646 65.87396793568041,115.07998029737064 65.54156820947537,118.17940878979425 65.37210952557507,119.20498193983076 65.26130961682065,119.31055484219542 65.31345075037098,119.68005881842691 64.84418054868001,123.23172774412524 65.44380358414492,128.87936098423233 65.46335650922265,128.96984026442078 65.81530916047632,129.0 65.17006263317307,123.08091723063262 66.14119124496938,116.02264255887712 66.26502643708955,115.25343105212232 66.38234398749773,115.11014567511302 66.33020285400562,114.82357409142423 66.58439087987063,112.86279146892048" stroke="#4DD2FF" stroke-linecap="round" stroke-linejoin="round" stroke-width="0.5"><title>2025-08-21 5.0km</title><desc>1755781186000</desc></polyline><polyline fill="none" points="89.07318240523455,111.0 89.09260513432673,112.3934153112059 88.70415055326885,114.89550358931592 88.56819144988549,115.15769355411612 88.50992326272535,115.59966881306173 88.58113993593724,115.81690991843061 87.97903533530189,119.36758761899546 88.01788079342805,119.74212171293766 87.5905807542731,122.8132295452233 87.61647772631841,124.1090488804839 88.16031413979363,129.0 88.53582023479976,128.9325924638615 88.2768505141139,126.09393031309446 87.94018987720483,124.07159777406196 87.92076714814175,122.64095127178007 88.34159294428537,119.77957501771743 88.45165507556521,119.61478033440653 88.89837784378324,115.89182049604278 89.11202786336071,115.17267580965563 89.11850210637203,114.34864723412466 89.5522763885674,111.59183015047165" stroke="#4DD2FF" stroke-linecap="round" stroke-linejoin="round" stroke-width="0.5"><title>2025-08-19 5.3km</title><desc>1755607955000</desc></polyline><polyline fill="none" points="111.23353763233172,128.91134006194625 111.5469848048233,129.0 111.5469848048233,128.4035585078018 111.66539818106685,128.13757639637333 111.81167352825287,126.29985743787256 112.23656858425238,123.5190175207099 112.19477562792599,121.69731300375861 111.72112212286447,118.64223670910724 111.5051918484969,116.12715152443707 111.37284748675302,115.46612230624305 111.03153834346449,114.89376328713115 111.10815876335255,114.75671896518907 111.44250241399277,114.82927187102177 111.29622706683585,113.32177007346036 110.93402144534048,112.83001194937242 110.96188341619563,111.87873347735876 110.6205742728489,111.0 110.989745387109,111.91904211878864 110.9479524307535,112.82195031536685 111.27533058865811,113.17666143608949 111.44250241399277,114.82121044032101 111.09422777793952,114.77284183888696 111.05940031431965,114.87764043802599 111.46339889217052,115.80469893578265 111.67236367380247,118.23112247014069 112.18781013521948,121.79404172927025 112.18084464248386,122.62429177048762 111.66539818106685,126.19507393342064 111.51215734120342,126.26761637432355 111.41464044310851,126.50942403145018 111.23353763233172,127.69427089524834" stroke="#4DD2FF" stroke-linecap="round" stroke-linejoin="round" stroke-width="0.5"><title>2025-08-17 5.0km</title><desc>1755429603000</desc></polyline><polyline fill="none" points="134.02683181146858,128.9595187335217 133.93587310434668,129.0 134.04082545873825,128.89474866437376 134.1597714604286,127.11355112918682 134.2577269911999,126.49012258402945 134.5795808780822,126.2229374284434 134.5725840544328,125.60759851037437 135.00638711932697,123.1623889988623 135.06935853199684,122.06121053561219 134.30670475657098,115.67245569921215 133.90788580980734,114.89508173525246 133.98485086971777,114.80600715063338 134.32069840384065,114.83030022904859 134.17376510766917,113.25933256946155 133.8379175735172,112.83824318762345 133.85890804443625,111.92317589215236 133.50207003945252,111.0 133.8798985153262,111.93937186490803 133.8309207498969,112.79775370663992 134.16676828401978,113.19454973259417 134.33469205111032,114.82220253706328 133.9778540460975,114.78171406481852 133.9288762806973,114.9031794198163 134.3486856983509,115.7696269111475 135.06935853199684,121.6806526743676 135.06236170834745,122.64418926530925 134.59357452532277,126.09339278801781 134.24373334393022,128.32800831341592 134.09680004778784,128.4413567061274 134.04782228238764,128.78140091669047" stroke="#4DD2FF" stroke-linecap="round" stroke-linejoin="round" stroke-width="0.5"><title>2025-08-16 5.1km</title><desc>1755350047000</desc></polyline><polyline fill="none" points="157.0378575605282,128.9514006132158 156.78585856285645,129.0 156.9048580895178,128.8785014774985 157.24085675310926,126.36749054866232 157.42985600131215,126.27028853527736 157.3878561683523,126.00298238729738 157.89185416369583,123.03015358735865 157.9268540244957,121.7421633565391 157.1708570314804,115.69076077497448 156.79285853501642,114.92923980825435 156.86985822871793,114.78341581407585 157.1778570036695,114.8320238417873 157.02385761620826,113.23604476632318 156.69485892480589,112.86337499705405 156.7438587298966,112.06131892801204 156.35186028908356,111.0 156.7158588412858,111.85067660131608 156.70885886912583,112.82286730838678 157.02385761620826,113.20363876863848 157.20585689230938,114.82392250589328 156.84185834010714,114.79151715409535 156.80685847930727,114.9049358277698 157.10785728206974,115.39101402905362 157.23385678092018,115.87708926485357 157.45785588995204,118.47754140741017 157.8988541358849,121.41003671350336 157.93385399665567,122.5846247303416 157.40185611270135,125.99488218698389 157.4438559456321,126.2378878378222 157.21985683662933,127.48530518261396 157.0378575605282,127.89840662368078" stroke="#4DD2FF" stroke-linecap="round" stroke-linejoin="round" stroke-width="0.5"><title>2025-08-14 4.9km</title><desc>1755170321000</desc></polyline><polyline fill="none" points="180.73526035586838,111.01505828869995 180.57909886431298,111.0 180.62464596604696,112.36276273598924 180.24725569484872,114.92258078528539 180.11061438979232,115.19361516665231 180.11061438979232,115.90131137813296 179.7267173897999,118.60404642499634 179.60308954239008,119.34182326922019 179.50548861018615,119.40204962618736 179.5640491695085,119.7784632484545 179.11508488139953,122.87251079228008 179.1541252542811,124.18988843089755 179.7006904745649,128.93978143978165 180.07157401691074,129.0 179.4339145932463,123.03812526767433 180.49451138975564,115.52487806438148 180.64416615245864,115.2162013203415 180.57909886431298,114.95269576551073 180.88491511857137,112.81450175839564" stroke="#4DD2FF" stroke-linecap="round" stroke-linejoin="round" stroke-width="0.5"><title>2025-08-12 5.0km</title><desc>1754999139000</desc></polyline><polyline fill="none" points="20.485360699618468,131.0603087970594 20.570054512965726,131.0 20.57656942171161,132.27401291723072 20.172645081067458,134.86720239714487 20.035831997956848,135.12350108713872 19.899018914846238,136.86480110110278 19.469034939305857,139.38999043372314 19.0325360550778,143.030634564333 19.07162550740759,144.14615851492272 19.527669117815094,147.9222334161168 20.003257454372942,149.0 19.364796399779152,143.0758588343233 20.329002890357515,136.11853466997854 20.563539604248945,135.15365381597076 20.50490542576881,134.94258445667947 20.778531592019135,132.9072419677468 20.9674639449222,132.1383202746947" stroke="#4DD2FF" stroke-linecap="round" stroke-linejoin="round" stroke-width="0.5"><title>2025-08-10 5.0km</title><desc>1754830447000</desc></polyline><polyline fill="none" points="42.60118315182626,149.0 43.57593381055631,143.1979184644806 43.63904716257821,141.83457099948282 43.12011515721679,138.23944193188072 42.87467434385326,135.6180606555863 42.48196904247743,134.9200932334861 42.538069799833465,134.77400625642622 42.89571212785086,134.84704977838555 42.74143504517269,133.24007685336983 42.4048305011529,132.842386640099 42.425868285121396,131.93337299676932 42.068225957104005,131.0 42.43989347448223,131.965837948017 42.41184309578966,132.85050278672134 42.74143504517269,133.24819295953057 42.909737317153485,134.82270194516605 42.552094989136094,134.80647005221545 42.510019421140896,134.89574542255286 42.909737317153485,135.75603023749863 43.23231667187065,138.94549585680943 43.61099678388564,141.26650268438243 43.64605975721497,142.55682344923116 42.832598775828956,148.3183787094531 42.608195746463025,148.55370100304572" stroke="#4DD2FF" stroke-linecap="round" stroke-linejoin="round" stroke-width="0.5"><title>2025-08-09 5.0km</title><desc>1754735080000</desc></polyline><polyline fill="none" points="66.25479649144108,131.0 66.29386955968221,132.2659443807861 66.03989461620222,134.2552418919222 65.71428571428987,135.62662046950572 65.64265175588662,136.86988133261912 65.2063358273299,139.41661731127533 65.23238453950034,139.80841508629237 64.78955643292284,142.79203795787907 64.77653207682306,143.8166888406122 65.33657938809483,148.5781161152554 65.77289531662245,149.0 65.13470186889754,144.08791758801817 65.16726275911788,142.48313307743229 66.0985042185348,136.07871773993975 66.21572342322906,135.34782577912847 66.32643044987344,135.2046605308933 66.27433302556165,134.8957240536838 66.65203935175668,132.34129753154411" stroke="#4DD2FF" stroke-linecap="round" stroke-linejoin="round" stroke-width="0.5"><title>2025-08-07 5.0km</title><desc>1754570205000</desc></polyline><polyline fill="none" points="88.88338406264666,131.0 88.92363638407551,131.51234840384132 89.05781078891596,131.56668818454636 89.01084974725381,131.93153999677452 89.373120640259,131.9858794793181 89.41337296168786,132.31967830981012 89.04439334844938,134.1671896489861 88.9370538245712,135.15302826082916 89.01084974725381,135.41695140008233 88.89680150314234,135.52562536891492 88.68212245541508,136.7908894878783 87.73619290141505,143.66797101492557 88.3198515624099,149.0 87.72948418118176,143.54378541283222 88.14542483614059,140.4002701623176 88.29972540168092,139.97336305776844 88.6687050149485,136.7908894878783 88.85654918171349,135.6187743620394 88.97730614602915,135.4091889678093 88.9303451043379,135.10645349458355 89.29932471760549,132.38954299677425" stroke="#4DD2FF" stroke-linecap="round" stroke-linejoin="round" stroke-width="0.5"><title>2025-08-05 5.0km</title><desc>1754406000000</desc></polyline><polyline fill="none" points="111.15600562296459,149.0 111.4675094007689,146.41945485727047 111.65865944622783,146.27199263979128 111.95600396141526,144.27303374537587 112.17547253213706,142.66727676208393 112.18963179478305,141.66775881296053 111.67281870887382,138.12018929852638 111.474589032121,135.76051847534836 111.29759824922075,135.14600952499313 111.0285722593544,134.76091486085352 111.09228894114494,134.63801192102983 111.43919087553513,134.6707860566603 111.27635935530998,133.0566440387338 110.94361668356578,132.7043143242554 110.97193520885776,131.7046727940251 110.66751106234733,131.0 110.97901484012255,131.8111925638441 110.94361668356578,132.62237696052762 111.29051861795597,133.0484503419284 111.44627050682902,134.6625925240005 111.35423529977561,134.74452781302534 111.01441299673752,134.6789795884688 111.4675094007689,135.63761706018704 111.75777428463334,138.7428686880594 112.18963179478305,141.69233727183018 112.18255216346006,142.70824034805264 111.35423529977561,148.37739984357904 111.31175751189585,148.51666608552478 111.12768709773081,148.52485820989386 111.05689078455907,148.83615831973293 110.85866110780626,148.81977413339337" stroke="#4DD2FF" stroke-linecap="round" stroke-linejoin="round" stroke-width="0.5"><title>2025-08-03 5.0km</title><desc>1754221111000</desc></polyline><polyline fill="none" points="143.28571428571013,139.02613251820185 143.23037224111613,139.25560136774948 143.08740529262286,139.2689425182507 140.27879653012496,139.21290964059153 140.20270121883368,139.16488136458065 140.0920171296748,139.210241405337 139.7345997584198,139.2075731698169 139.70462281758955,139.17822256117142 139.06588338639995,139.2155778755714 138.75227846710186,139.16754960444086 137.7399802349828,139.16488136458065 137.30185571537004,139.09550703303648 137.00439222574641,139.0181277546926 136.98594487755327,138.98877693430404 136.57318546171882,138.9754356414578 135.66695948170673,138.8153395986228 134.33413857471896,138.80466649439222 131.5532008345035,139.1515401612105 131.17733611506992,139.32497527635496 130.77380037332478,139.44771328106253 129.6900186669518,140.10675319219808 129.1158449544164,140.39757931046734 128.76303942021332,140.49896747536695 128.55550675303675,140.50163557968153 128.29263204128074,140.4376010012711 128.01361589985027,140.5523295102048 127.91907324035128,140.36556191392992 127.8060832326737,140.44026911182118 127.71384649170795,140.26684136219774 126.14351597671339,141.19533350560596 126.02360821345064,140.89384396581227 125.53936532336229,139.96800932215774 125.4932469528867,139.9359914018969 125.28571428571013,140.03738134880223 125.42176347861823,139.93332324011863 125.48863511583477,139.92531875314307 125.5093883825466,139.8586146001253 125.5924014494376,139.86395093859755 125.7030855385965,139.78924210125479 125.73536839793087,139.82659654649797 125.81838146479276,139.77323303703452 125.79071044251032,139.82392837359657" stroke="#4DD2FF" stroke-linecap="round" stroke-linejoin="round" stroke-width="0.5"><title>2025-08-02 8.3km</title><desc>1754134728000</desc></polyline><polyline fill="none" points="157.6239866805263,131.0 157.52711496155825,131.02241867959674 157.46899193015997,131.62772044508893 157.95335052508744,131.62772044508893 157.95335052508744,132.1134528267794 156.3388218752807,142.7987537910376 156.3452799898805,143.92697120822413 157.01692390820244,149.0 156.37757056287955,144.0689311148817 156.3323637606518,142.97060259394493 157.28816472136532,136.14117160694877 157.52711496155825,135.21459164348926 157.46253381556016,135.00536229442514 157.76606520169298,132.80094548353372" stroke="#4DD2FF" stroke-linecap="round" stroke-linejoin="round" stroke-width="0.5"><title>2025-07-31 5.0km</title><desc>1753965181000</desc></polyline><polyline fill="none" points="179.6436138866702,149.0 179.72124254502705,148.34671299291222 179.91884276628844,148.1098951413369 180.63867214368656,143.15289233152726 180.7163008020434,141.3235422143116 180.34932896256214,139.1021325003312 179.96118567083613,135.43503868585685 179.5871566805872,134.71630134607403 179.66478533897316,134.61012369384116 179.97529997234233,134.6509612689988 179.8412141079316,133.02560974576772 179.48129941921798,132.6335602336112 179.52364232379477,131.72693840696593 179.2413562934089,131.0 179.53069947453332,131.7432740259319 179.50247087146272,132.64989566816075 179.8412141079316,133.07461580021481 180.00352857538383,134.63462624143722 179.91178561552078,134.71630134607403 179.629499585164,134.60195617630234 179.60127098212251,134.7244688519786 180.02470002765767,135.66372649071127 180.2717003042053,138.4079293676914 180.7586437065911,141.91155215155595 180.25052885193145,146.141830134271 179.87649986174074,148.48553692626592 179.7424139973009,148.54269965266576" stroke="#4DD2FF" stroke-linecap="round" stroke-linejoin="round" stroke-width="0.5"><title>2025-07-29 5.0km</title><desc>1753797916000</desc></polyline><polyline fill="none" points="20.772040507232305,151.0 20.759065036516404,152.37379924071865 20.460629210196203,154.47573770905728 20.227070737426402,155.17386832929333 20.0713650888938,157.0955701637431 19.6366868201294,159.39253882277262 19.688588702963898,159.79787882238452 19.260398169513792,162.6427025637895 19.286349110974697,164.15139051205188 19.8183434100647,169.0 19.318787787720794,164.78938361408655 19.2279594927968,163.19063756865944 19.6431745555019,159.51263979514624 20.220583002083004,155.84196564968443 20.162193383876,155.654298473135 20.441166004166007,154.51327178114298 20.759065036516404,151.9759255856843" stroke="#4DD2FF" stroke-linecap="round" stroke-linejoin="round" stroke-width="0.5"><title>2025-07-27 5.0km</title><desc>1753616848000</desc></polyline><polyline fill="none" points="43.37125833690516,151.0 43.39041791998898,152.58145924651035 43.03915889657219,155.07920801223372 42.89865528719383,155.3452353709945 42.700672928534914,157.51775571887993 42.343027377384715,159.49809189040388 42.36857348817284,159.87494080296165 41.902356966165826,162.94877276403713 42.48353098676307,169.0 42.8667226487014,168.94089398662618 42.59210195764899,165.97814355786977 42.279162100399844,163.9019298557323 42.26638904502033,162.79360647435533 43.14772986742901,156.57929400511057 43.441510141594335,155.33784573528828 43.377644864609465,155.04964935674798 43.811928748124046,152.41888090982684" stroke="#4DD2FF" stroke-linecap="round" stroke-linejoin="round" stroke-width="0.5"><title>2025-07-26 5.2km</title><desc>1753529066000</desc></polyline><polyline fill="none" points="66.33555434740265,151.0 66.25789576827083,151.38939759416826 66.36144054043689,151.8911183840828 66.23848112346604,153.07426731954183 65.96667609649012,154.91634747653734 65.8243020347436,155.17842831074086 65.80488738993881,155.9646652222582 65.22891959469416,159.41652042942587 65.27422043247498,159.74597321430338 64.84709824723541,162.88318847393384 64.90534218159155,164.55282140445343 65.4165944942506,169.0 65.78547274516313,168.96256695595366 65.49425307341153,166.24487719286117 65.55896855602623,166.10262620994035 65.1900903051137,163.99128988495067 65.18361875682604,162.9880095908302 66.58147318134434,153.20156702262466" stroke="#4DD2FF" stroke-linecap="round" stroke-linejoin="round" stroke-width="0.5"><title>2025-07-24 5.0km</title><desc>1753356656000</desc></polyline><polyline fill="none" points="88.25571945580305,168.96752733306494 88.34692431142321,169.0 88.6556176689046,166.43461864534038 88.85907465452328,166.30472372732038 88.80996434765984,166.05305172260705 89.33614620700246,162.79748109682987 89.37122499765246,161.81510080776206 88.84504313828074,158.34825727638236 88.62755463641952,155.78253377995134 88.20660914896871,154.89750243924937 88.26975097204559,154.76758875626547 88.61352312014787,154.83254562417278 88.43111340890755,153.2004883030313 88.12943580953288,152.87569679656008 88.15749884204706,151.99875312977383 87.77163214518805,151.0 88.12242005142616,151.80387545137637 88.11540429329034,152.84321757326688 88.43812916704337,153.18424875907658 88.6205388782837,154.78382797820086 88.52933402266353,154.8731436397793 88.28378248828813,154.77570836765517 88.20660914896871,154.8731436397793 88.45216068328591,155.22228572196036 88.62755463641952,155.80689230201097 88.94326375200762,159.03839035103738 89.350177723245,161.6770794685508 89.34316196513828,162.75688710931718 88.57844432952697,168.07452382013435" stroke="#4DD2FF" stroke-linecap="round" stroke-linejoin="round" stroke-width="0.5"><title>2025-07-22 5.0km</title><desc>1753184035000</desc></polyline><polyline fill="none" points="102.42857142852154,162.9687195509905 102.42857142852154,160.0803347924666 104.34228483377956,151.99271693307674 119.81840193702374,154.81698797398712 120.42857142852154,155.49095801229123 118.34844816208351,167.9751905600715 104.45322474138811,165.792892441008 103.95399515738245,165.15103718347382 105.67356372438371,152.6666929986677 106.28373321588151,152.2815639944747 109.97248514206149,152.89135136760888 120.4008364516776,155.2021138863638 118.5703279771842,167.71845038753236 117.98789346241392,168.00728306692326 104.17587497248314,165.66452149386168 104.34228483377956,161.55662363601732 105.70129870134406,152.7308811204275 106.14505833142903,152.3457521944656 112.96786264586262,153.5011375633767 106.00638344709296,152.4099403814471 105.22980409429874,155.94027057220228 105.92317851644475,156.6142382133403" stroke="#4DD2FF" stroke-linecap="round" stroke-linejoin="round" stroke-width="0.5"><title>2025-07-20 4.9km</title><desc>1753020627000</desc></polyline><polyline fill="none" points="135.32030139130075,151.0 135.1845118337078,151.920306203785 134.6801506197371,153.21470115546254 134.25338343865587,155.15999181925145 134.13699238927802,156.69374246137158 133.73608988587512,159.2598977211528 133.64556351411738,159.34219276600925 133.6908267000108,159.7087786668635 133.2705256883346,162.7386535058031 133.2511271801195,163.74110317716259 133.82661625760375,168.99251961675327 133.76195456352434,167.96021944504173 133.83308242703788,169.0 134.20165408338653,168.92519613334298 133.58090182003798,163.06781758857687 134.57022573976428,155.84083141246083 134.77714316087076,155.18991896658554 134.80300783852,154.31454488242161" stroke="#4DD2FF" stroke-linecap="round" stroke-linejoin="round" stroke-width="0.5"><title>2025-07-20 5.0km</title><desc>1752942252000</desc></polyline><polyline fill="none" points="157.9190031303151,151.00805460508855 157.80762792137102,151.0 157.6336041573377,151.88600165282696 157.82851077304804,152.00681929278653 157.81458887190092,152.26456297602272 157.57095560230664,153.9076592583515 157.43869754165644,154.1895596098475 157.09761096423608,157.4031527761981 156.81221199125866,158.71593657314224 156.8400557935238,159.1025190702785 156.345828303718,162.79911902814638 157.0140795574698,169.0 156.39455495763104,163.8299484225281 156.38063305654214,162.26759238619707 156.8400557935238,159.15084174990625 156.81917294178857,158.72399039437732 157.32732233271236,155.66347941254207 157.43173659109743,154.18150532800064 157.57095560230664,153.89155063656654 157.93988598199212,151.25774695668224" stroke="#4DD2FF" stroke-linecap="round" stroke-linejoin="round" stroke-width="0.5"><title>2025-07-17 5.0km</title><desc>1752765839000</desc></polyline><polyline fill="none" points="187.72297297301702,168.62017024712986 188.12837837846018,168.05724069090502 189.0,160.71557535391185 175.96621621621307,160.12917028802622 173.61486486485228,160.3168200712389 173.8986486486392,160.12917028802622 173.4729729729006,157.4786008035735 171.0608108107699,153.67861622768396 171.0,151.54402954618854 171.28378378378693,151.3798297528847 182.61486486485228,151.5674866499321 181.80405405408237,158.9563556866633 181.29729729727842,159.28474437574914 174.2229729729006,159.05018107409705 173.45270270272158,156.58725201355992 171.46621621621307,154.05392613090225 171.2229729729006,152.7168818149512 174.04054054047447,152.50576884645852 182.25,152.7872527615691 182.37162162165623,154.54651945258956 181.64189189195167,160.26990763975482 180.54729729727842,160.34027628338663" stroke="#4DD2FF" stroke-linecap="round" stroke-linejoin="round" stroke-width="0.5"><title>2025-07-15 4.1km</title><desc>1752589649000</desc></polyline><polyline fill="none" points="20.723366871097824,171.0 20.778219335275935,172.277351380224 20.35311273802654,174.94306086831784 20.20226846158039,175.25246768275247 20.19541190355085,176.03787947543606 19.592034797824454,179.71889615291002 19.61946102991351,180.1314130735118 19.160071642545518,183.5504598454063 19.70859628415201,189.0 19.39319461522973,186.84244003838103 19.15321508454508,183.37594136077678 20.181698787520872,175.9823455677979 20.119989765342325,175.7284757727757 20.32568650590838,174.99859551501868 20.730223429127363,172.35668928601808 20.682227522978792,172.07900626306218 20.84678491545492,171.2380173692436 20.69594063903787,171.04760353190068" stroke="#4DD2FF" stroke-linecap="round" stroke-linejoin="round" stroke-width="0.5"><title>2025-07-13 5.0km</title><desc>1752418082000</desc></polyline><polyline fill="none" points="42.70082168804947,189.0 42.60845008818433,188.9917779814714 42.66529414965771,188.34223587893212 42.97793648779043,186.3689114317458 43.16267968760803,186.20446555533272 43.482427533424925,183.96796845112112 43.652959717815975,181.65740467171418 43.18399621063145,178.44223992175102 42.942408949369565,175.75324440772238 42.800298795657,175.2269473625929 42.50186747289263,174.74998770706588 42.56581704207929,174.62663561422232 42.906881410919596,174.6759764739545 42.75766574955196,173.11350129892526 42.41660138065345,172.68587125244812 42.43791790376417,171.7072478293776 42.196330642473185,171.0328953850185 42.04711498107645,171.0328953850185 42.17501411939156,171.0 42.41660138065345,171.60033867062884 42.40949587299838,172.69409492853447 42.72213821110199,172.98192306394049 42.75766574955196,173.14639582422387 42.906881410919596,174.65130604784645 42.558711534395115,174.63485909293377 42.48055094984011,174.72531730357878 42.79319328800193,175.17760683902452 42.93530344168539,175.67923409270588 43.22662925676559,178.8780625799991 43.66717073318432,181.59984530091606 43.66006522552925,182.65235303719965 42.79319328800193,188.57245392954792" stroke="#4DD2FF" stroke-linecap="round" stroke-linejoin="round" stroke-width="0.5"><title>2025-07-12 5.1km</title><desc>1752325602000</desc></polyline><polyline fill="none" points="65.60583489298006,189.0 65.43091421335703,188.99190374835598 65.8227365356579,186.29580619558692 65.98366356090992,186.21484089404112 66.4314605006366,183.2109700501387 66.50142877252074,181.69684666195826 66.08861596864881,178.98430766406818 65.77375874534482,175.68865090863255 65.35394911430194,174.83839791952778 65.40992373178597,174.74932327152783 65.75976509100292,174.8060071499567 65.59883806578,173.16215829394787 65.28398084247601,172.81394950112735 65.26998718813411,171.72072595467762 64.92014582891716,171.0 65.29097766964696,171.8098039904653 65.28398084247601,172.8058516041201 65.60583489298006,173.1702561547354 65.78075557254488,174.78171406413458 65.44490786769893,174.7412255713134 65.36794276873115,174.87078867589298 65.78775239974493,175.75343171659915 66.09561279581976,178.96811312399223 66.50842559966259,181.6401676875248 66.43845732783666,183.1704858420635 65.76676191817387,187.6398181816039" stroke="#4DD2FF" stroke-linecap="round" stroke-linejoin="round" stroke-width="0.5"><title>2025-07-10 5.0km</title><desc>1752149320000</desc></polyline><polyline fill="none" points="86.04712786851451,171.0 86.0892873791745,172.1220300960049 86.39494383172132,171.96348300139653 87.04841624753317,172.1830096919948 87.7545880516991,172.1220300960049 88.54507887724321,172.4147318742689 92.62401153700193,172.95134994727414 92.7399501914042,173.109895737005 91.80190107849194,179.09789494444703 91.34868633846054,179.1344805796034 91.26436731708236,179.29301820299588 91.1062691519619,180.35399537060584 91.22220780636417,180.81740774305945 90.50549612456234,184.85389776057855 85.2566370429704,184.6953674802644 85.07745912251994,184.57342096840148 84.40290695143631,189.0 85.10907875554403,184.646588890384 87.15381502424134,184.68317283462966 87.83890707301907,184.4148903177629 87.93376597214956,184.6953674802644 90.53711575758643,184.78072996492847 92.3499747174792,173.42698668821686 92.29727532912511,173.01232912197884 86.86923832708271,172.0610504689903" stroke="#4DD2FF" stroke-linecap="round" stroke-linejoin="round" stroke-width="0.5"><title>2025-07-08 5.1km</title><desc>1751976330000</desc></polyline><polyline fill="none" points="102.58889428316616,188.83610268475604 102.55026495846687,189.0 102.79491734853946,188.89570172964886 102.87217599793803,188.06131289622863 103.32285145332571,187.68881634827994 103.41298654436832,187.30141893458494 104.71350714407163,178.2866900825029 104.8293951182277,175.55981166484708 104.52036052034236,173.54814753265237 105.22856480733026,173.51834489352768 105.40883498941548,173.7865684274002 107.89398821460782,174.1441990424064 109.88983665971318,174.11439652449917 111.34487455833005,174.6955445312342 115.9803935274249,175.3809981931845 116.83023867179872,171.0 120.30687789869262,171.77487996006676 117.20365547761321,171.04470472445246 116.62421560648363,173.62265410390683 116.53408051538281,175.4108004536247 107.85535888985032,174.24850780746783 105.40883498941548,173.8014697204635 105.18993548263097,173.47364092349017 104.48173119564308,173.59285147994524 104.76501291035675,174.78495171236864 104.81651867675828,177.3628353163076 103.361480778025,187.34611868843785" stroke="#4DD2FF" stroke-linecap="round" stroke-linejoin="round" stroke-width="0.5"><title>2025-07-06 5.0km</title><desc>1751807521000</desc></polyline><polyline fill="none" points="128.02544853871223,187.88428805598232 128.80532309383852,182.33842899363663 126.28136544267181,182.15793925551407 125.4873113502399,182.43687785667134 126.5224175779149,182.33842899363663 126.38062220433494,182.17434742185287 128.98965707956813,182.32202084397431 129.17399106535595,182.15793925551407 129.08891384117305,181.64928527163283 130.15237914351746,174.93818426875805 130.05312238202896,171.590733765217 131.88228270225227,171.4102320107486 143.08411722118035,173.24805862178619 143.06993768381653,172.70655831242038 130.74791971291415,171.0 130.9464332360658,175.05304653466737 129.6560953357257,184.17613120531314 130.0105837699375,184.7340009524487 129.68445441051153,185.34109231071488 129.75535209733061,186.65371447143843 129.25906828948064,186.76856840281107 129.03219569165958,189.0 127.88365316501586,188.86874017144146 127.95455085189315,187.90069564041914" stroke="#4DD2FF" stroke-linecap="round" stroke-linejoin="round" stroke-width="0.5"><title>2025-07-05 4.8km</title><desc>1751729502000</desc></polyline><polyline fill="none" points="160.0399668025202,189.0 160.21810623147758,188.86981198194553 160.24623350967886,188.13207688097464 160.49000325455563,187.05801225300092 160.62126388633624,187.01461547528015 160.79002755589318,185.4414703723014 157.12410562403966,185.28957927314332 157.3584996094578,184.4758732763221 157.70540270779748,180.80869462042756 157.7429057455156,178.12875362045452 157.6116451136768,177.77069972742174 157.75228150485782,175.578949717652 157.7429057455156,171.0 152.82063205185113,172.7686697420213 152.7174986982718,173.01823427827185 152.75500173598994,172.80122167114314 155.40834165079286,171.79210725105077 155.45522044791142,174.02733710464236 155.71774171153083,174.59156248300133 157.67727542953799,174.59156248300133 157.68665118899662,177.4560453147351 157.89291789615527,177.55369678345596 157.9679239714751,177.90090128205338 161.39945191791048,178.11790352014214 161.56821558746742,178.97505804750836 161.54946406855015,180.53744859182916 160.36811838211725,188.59858643445477" stroke="#4DD2FF" stroke-linecap="round" stroke-linejoin="round" stroke-width="0.5"><title>2025-07-03 5.2km</title><desc>1751545471000</desc></polyline><polyline fill="none" points="179.6845754031092,189.0 180.1121509677614,186.36393109844357 180.2873868549068,186.2422642780657 180.73599072603974,182.9166326980121 180.77103790343972,181.76479627827212 180.00700943547417,175.6484285694387 179.63550935473177,174.87776542525535 179.712613145035,174.77230567908555 180.0280377419258,174.82909171356732 179.8808395967062,173.25529236594593 179.5373772579187,172.81721898241085 179.54438669339288,171.81937618378288 179.21494322558283,171.0 179.57242443534778,171.89238949473656 179.5373772579187,172.83344396545 179.8528018547804,173.14171801602788 179.90186790315784,173.39320385919564 180.0280377419258,174.82097942539258 179.6845754031092,174.7966425559498 179.63550935473177,174.90210226994532 180.01401887097745,175.6484285694387 180.37850951624569,179.12037652645813 180.78505677441717,181.74046152670053 180.66589637115248,183.55743590315979 179.89485846768366,188.72423071540106" stroke="#4DD2FF" stroke-linecap="round" stroke-linejoin="round" stroke-width="0.5"><title>2025-07-01 5.0km</title><desc>1751376396000</desc></polyline><polyline fill="none" points="19.36742998912814,209.0 19.49741012835875,208.83956882237544 19.471414100495167,208.24797660073818 19.67938232322922,208.04743605965632 19.826693147682818,207.26532405517355 20.051992055639857,204.50782842640183 20.363944389740936,203.43489111880626 20.710558094346197,200.6171216954681 20.623904668202158,199.00263390867622 20.138645481754793,196.12456840601953 19.80936246245983,192.63467598475108 19.2894419056247,191.34097759509314 19.748705064121168,191.43123617296078 19.76603574937326,191.0 19.76603574937326,191.4111787183283 19.36742998912814,191.33094885912578 19.29810724820709,191.43123617296078 19.627390267531155,191.92264253658504 19.826693147682818,192.6146187748891 20.19063753748196,196.50564113540895 20.710558094346197,199.96531303638767 20.667231381259626,201.5797850687668 19.575398211862193,208.6590834358285" stroke="#4DD2FF" stroke-linecap="round" stroke-linejoin="round" stroke-width="0.5"><title>2025-06-30 4.1km</title><desc>1751292736000</desc></polyline><polyline fill="none" points="34.05923344945768,201.10960229374177 33.857142857130384,199.64897324027697 33.926829268282745,199.49564597582503 39.3484320557327,199.2374099119188 40.21254355396377,199.31810877237876 41.62020905921236,199.1809206606922 43.731707317056134,199.20513034473697 51.857142857130384,198.68865547961468 49.432055749115534,198.85812416609406 48.867595818825066,199.04373231128557 47.82229965153965,198.99531283708347 42.53310104529373,199.26968946598936 37.61324041808257,199.35845817174413 37.46689895467716,199.4875761115909 37.80836236930918,201.31134452038532 37.6480836236733,201.2952051611719 37.45296167244669,200.34297714474087" stroke="#4DD2FF" stroke-linecap="round" stroke-linejoin="round" stroke-width="0.5"><title>2025-06-26 5.0km</title><desc>1750950176000</desc></polyline><polyline fill="none" points="74.71428571428987,200.73669080522814 74.42365062280442,199.26330919477186 66.67984007380437,199.97382686247875 65.85314470247249,199.98130595921975 62.86929109643097,199.60735018770356 56.71428571428987,199.86911942786537 62.66261725357617,199.59987105282198 65.8596032600617,199.9887850552259 71.36875288331066,199.48768393830687" stroke="#4DD2FF" stroke-linecap="round" stroke-linejoin="round" stroke-width="0.5"><title>2025-06-24 5.0km</title><desc>1750769966000</desc></polyline><polyline fill="none" points="97.57142857142026,200.7208387669234 97.32503087687655,199.27916123308387 89.66076574721956,200.00751226317516 88.72704816795886,200.0375472026135 85.70543433510466,199.64709203488746 79.57142857142026,199.91740737140208 85.54333058869815,199.64709203488746 88.72056401809095,200.0375472026135 95.21119802386966,199.45937246764515" stroke="#4DD2FF" stroke-linecap="round" stroke-linejoin="round" stroke-width="0.5"><title>2025-06-22 5.0km</title><desc>1750563938000</desc></polyline><polyline fill="none" points="112.04369850126386,209.0 111.11340031359578,203.44209893125299 111.10035875020549,201.9266568681196 111.18295531826152,201.2922719613307 111.13078906475857,199.6609590561493 111.14817781592137,199.37899827560614 111.24381594735314,199.21787710654826 111.14817781592137,199.14235137752257 111.14383062811976,198.1101548334409 110.08746399448137,191.75537669678306 109.82228553909226,191.0 110.09181118223933,191.6596962881231 111.13078906475857,198.00441640774807 111.18730250606313,201.09591307632945 111.11340031359578,201.93169163636412 111.10905312577961,203.39175276577225 111.82199192383268,207.66092523296174 111.92197724305151,207.95290703645878 113.03485731805267,207.89249714976904" stroke="#4DD2FF" stroke-linecap="round" stroke-linejoin="round" stroke-width="0.5"><title>2025-06-21 8.0km</title><desc>1750517001000</desc></polyline><polyline fill="none" points="136.11186626343988,209.0 134.58711801021127,199.62387523600773 131.9040338746854,199.56912221983657 127.0697545291041,199.10372068098513 127.16431256028591,198.6109408227785 126.97519649786409,197.66644103945873 127.23523108370136,191.49280779338733 127.19977182196453,191.05475651082816 126.96337674401002,191.0 126.66788289643591,198.597252467589 127.117033544695,198.65200588002335 127.14067305246135,199.11740898460266 134.6225772719481,199.6101869840786 135.53269832226215,205.46863131743157 135.81637241592398,206.24882541317493 141.90354567498434,206.05719921311538" stroke="#4DD2FF" stroke-linecap="round" stroke-linejoin="round" stroke-width="0.5"><title>2025-06-19 5.0km</title><desc>1750345525000</desc></polyline><polyline fill="none" points="166.14285714285506,200.4506187684019 165.9776397515816,199.4688246300284 160.8819875776535,199.95217187507296 160.22546583850635,199.9672764002571 158.0428571428638,199.7155337105869 149.95590062112024,200.0830776067378 149.25590062112315,200.19887854175613 148.14285714285506,200.53117536997524 149.7124223602441,200.10825174613638 152.55590062112606,199.98238092085376" stroke="#4DD2FF" stroke-linecap="round" stroke-linejoin="round" stroke-width="0.5"><title>2025-06-17 5.1km</title><desc>1750166247000</desc></polyline><polyline fill="none" points="171.62068965513026,206.7925256237504 171.0,202.8033731077594 185.0275862069102,202.39007737179054 182.74655172420898,193.38717765365436 185.50862068968127,193.54891044675605 189.0,193.2074743762496 183.49137931037694,193.53094014374074 185.52413793106098,201.63536091908463 179.50344827584922,201.9228723296692" stroke="#4DD2FF" stroke-linecap="round" stroke-linejoin="round" stroke-width="0.5"><title>2025-06-16 3.2km</title><desc>1750084948000</desc></polyline><polyline fill="none" points="29.0,220.8320885070425 28.724193548434414,219.1679114929575 19.87661290320102,219.98319432727294 19.07822580647189,219.99159926299035 15.579838709672913,219.5629464501617 11.0,219.7814756135267 15.434677419340005,219.5545414707667 19.07096774195088,219.97478939073335 26.575806451641256,219.34441670769593" stroke="#4DD2FF" stroke-linecap="round" stroke-linejoin="round" stroke-width="0.5"><title>2025-06-15 4.6km</title><desc>1749956754000</desc></polyline><polyline fill="none" points="51.857142857130384,220.7239137209981 51.638023630483076,219.27608627899463 43.93018259937526,219.98507752069418 43.124597207293846,220.00000357831595 39.73469387754449,219.61938815854228 33.857142857130384,219.8880580719997 39.850698173977435,219.61938815854228 43.07303974221577,220.00000357831595 44.755102040828206,219.917910223754 45.07089151444961,219.81342763937573 49.15682062297128,219.44773741994868" stroke="#4DD2FF" stroke-linecap="round" stroke-linejoin="round" stroke-width="0.5"><title>2025-06-14 5.1km</title><desc>1749906363000</desc></polyline><polyline fill="none" points="74.71428571428987,221.06875192149164 74.49787835928146,219.60935958814662 67.0381895332539,220.33168876736454 66.03253182463231,220.33905943610444 62.977369165513664,219.97052507959597 57.2234794908145,220.2432406840744 57.14710042436491,220.0737148887274 57.17892503537587,218.93861888996616 56.71428571428987,218.93124807850836 57.19801980201737,218.9533605106335 57.14710042436491,220.06634419295006 57.242574257456,220.2432406840744 63.13649222065578,219.96315437331214 66.17256011319114,220.3464301040949 72.21923620937741,219.80099864498334 72.21287128716358,219.50616911642283 74.15417256014189,219.4029784974773" stroke="#4DD2FF" stroke-linecap="round" stroke-linejoin="round" stroke-width="0.5"><title>2025-06-12 5.9km</title><desc>1749735885000</desc></polyline><polyline fill="none" points="97.57142857142026,225.66263633829658 96.99762399762403,222.7736221528321 81.23047223041067,224.1748013872275 79.74606474605389,220.11567708935763 79.57142857142026,215.0452197203267 82.51529551524436,214.91520560727804 85.02257202251349,215.07411172923457 85.15978615981294,214.6118388796749 84.89783189777518,214.51071649281948 79.64627264620503,214.33736366170342 79.75853875849862,219.97122212506656 80.1951291950536,221.61799998933566 81.05583605577704,223.66922284850443 88.04128304123878,223.06252622140164 88.17849717842182,223.61144232923107 96.96020196023164,222.7591769339051 97.49658449657727,225.61930156052404" stroke="#4DD2FF" stroke-linecap="round" stroke-linejoin="round" stroke-width="0.5"><title>2025-06-10 5.3km</title><desc>1749559786000</desc></polyline><polyline fill="none" points="102.90118958312087,215.2075754171383 102.46908155613346,213.45622788878973 102.42857142857974,212.0957923520764 114.67613331909524,211.78304684518662 115.22977172862738,213.83151832780277 114.82467045338126,213.8158812445472 114.70314007077832,214.0973484999995 114.95970421173843,215.55158776117605 114.89218733255984,216.5367097521812 115.33779873541789,218.506934759891 116.48558568221051,218.4600249346695 118.18701103847707,225.0116249951243 118.21401779021835,225.30870762854465 117.78190976317273,225.43379488112987 118.17350766266463,225.3243435407203 118.3085414210218,225.57451791832864 117.95745364908362,225.63706144907337 118.07898403168656,226.21558789956907 118.88918658235343,228.2795023326762 119.45632836781442,228.2169598788605 120.42857142857974,227.68534799250483 119.40231486444827,227.90424722757598 117.57935912546236,220.6334984426794 117.36330511199776,220.00804159529798 116.8771835816442,220.00804159529798 116.51259243383538,218.41311509505613 116.12099453434348,218.56948117123102 115.32429535960546,218.4600249346695 114.87868395674741,216.66180415557756 114.78416032582754,214.34754118253477 114.04147465439746,211.7204976673238 102.46908155613346,212.12706686770252 102.95520308648702,215.30139704197063" stroke="#4DD2FF" stroke-linecap="round" stroke-linejoin="round" stroke-width="0.5"><title>2025-06-08 5.0km</title><desc>1749355299000</desc></polyline><polyline fill="none" points="143.28571428571013,220.74069638492801 142.96913137112278,219.2593036150647 137.1672648958629,219.7456227194125 135.42282842783607,219.992521954744 134.45369705671328,219.992521954744 131.38478104808019,219.61843188016064 125.28571428571013,219.8877769260289 131.09404163673753,219.61843188016064 134.42139267767197,220.00000373677904 141.4185211773147,219.37153138663416" stroke="#4DD2FF" stroke-linecap="round" stroke-linejoin="round" stroke-width="0.5"><title>2025-06-07 5.3km</title><desc>1749293029000</desc></polyline><polyline fill="none" points="166.14285714286962,220.71307294099097 165.87710273166886,219.28692705900903 157.6646432429552,220.0375335972858 154.33299038017867,219.65472521866468 148.14285714286962,219.9099310255042 154.3070631205337,219.6397130848345 157.26925253358786,220.0375335972858 163.61494932867936,219.45956724023563" stroke="#4DD2FF" stroke-linecap="round" stroke-linejoin="round" stroke-width="0.5"><title>2025-06-05 5.1km</title><desc>1749128617000</desc></polyline><polyline fill="none" points="171.25196850392967,219.8860670675931 171.0,218.23566990168183 171.09448818897363,218.16272346800542 178.15748031498515,217.91652881528717 179.48818897639285,222.79470398727426 186.46456692914944,222.70352558211016 189.0,222.5485220800765 186.91338582680328,222.6214649379981 186.52755905513186,217.20529601272574 179.85039370079176,217.5973865904234 178.41732283466263,217.5517947510598 178.54330708659836,217.91652881528717 174.84251968504395,218.02594874459464" stroke="#4DD2FF" stroke-linecap="round" stroke-linejoin="round" stroke-width="0.5"><title>2025-06-03 5.2km</title><desc>1748952979000</desc></polyline><polyline fill="none" points="25.885415914235637,234.6340175164878 25.49055573824444,234.04958133533364 25.210654854017776,233.43620620635193 25.030718571302714,233.2683948762351 24.58587609452661,233.22788861886875 24.245996449375525,232.8343977591212 24.091051317052916,232.31938354665908 23.86113273355295,231.96639358167886 23.58623007935239,231.0 22.791511497314787,231.3414223644104 22.42164247171604,231.38192996643556 21.4619822971581,231.740710323862 21.052127430943074,232.26730319790295 21.052127430943074,232.40039732762307 19.39271504577482,234.5125015776648 19.3827185856062,234.6340175164878 18.92787964871968,235.25895252669943 18.533019472728483,235.6234947761368 18.463044251693645,235.5598447106022 18.183143367408775,235.80287185012276 17.998208854609402,235.69293113000458 17.993210624554195,235.7970855017411 17.96821947413264,235.6466402368642 18.228127438109368,235.83180358324535 18.188141597493086,236.04011162691313 17.588353988394374,236.70553498535446 16.563716822856804,236.93698476231657 16.563716822856804,236.83283247932923 16.493741601792863,236.96012968818104 16.2138407175662,237.02377818571767 15.968927443842404,236.9543434575935 15.559072577627376,236.98906083225302 15.48909735653433,236.92541229585186 15.324155764072202,237.01799196162392 14.829330986569403,236.8444049646314 14.764353995560668,236.08640219959852 14.574421252676984,235.91859869421023 13.639752228511497,236.15583798797525 13.289876123220893,236.36993113478093 13.689734529296402,238.1000056258963 14.31951151881367,240.03253494010642 15.649040718970355,245.2280515268867 15.833975231798831,245.76609014944552 17.403419475595,248.94214991849003 17.603348678618204,249.0 18.293104429118102,248.78016937724533 18.76293805622845,248.91900986941982 19.622633629274787,248.73967416986488 19.607638939021854,248.39835627621142 19.837557522492716,248.3347205101927 20.252410618792055,248.52562759469583 20.567299113579793,248.37521600590844 20.697253095568158,248.5661229544785 21.50696636782959,248.74545920124 21.981798225053353,248.65868366858558 22.46162831230322,248.30001006234306 22.54659822359099,247.62315209528606 22.90647078907932,247.12562742731097 22.811504417622928,246.62809840687987 22.92646370935836,246.38511753593048 22.681550435634563,246.11320913992677 22.526605303311953,245.70823677836233 22.46662654238753,245.10655823017805 22.791511497314787,244.84621457745016 23.286336274817586,245.04870418813516 23.56123892898904,245.03134796403174 23.631214150052983,244.65529514124137 23.516254858317552,244.1924574838522 23.421288486861158,244.1519590095886 23.516254858317552,244.10567500370234 23.40629379663733,244.0709619745503 23.496261937980307,244.12303151032393 23.506258398178034,243.8511122978598 23.37630441618967,243.55026399437338 22.786513267230475,243.50976506273219 22.51161061305902,243.30148438722608 22.62656990479445,242.5146393944342 23.096403531933902,241.7104262748653 23.45627609739313,241.31120834312242 23.62121768988436,241.2533504392959 23.97609202528838,240.7615558794496 24.60087078475044,240.165610888409 25.155674323177664,239.47129816576853 24.99573096074164,239.1472826598947 24.50090618323884,239.14149665194054 24.43592919225921,238.95055805890297 24.625861935142893,238.49346003390747 24.845784058474237,238.28516098064938 25.05071149158175,238.3140914503565 25.135681402869523,238.20994169052938 24.960743350238772,237.81069917671994 25.195660163764842,237.31887483397077 25.41558228712529,237.1915784284829 25.600516799924662,237.26679906617574 25.57552564953221,237.12793011885879 26.130329187959433,236.87333616760588 26.180311488715233,236.71710749659178 26.665139806078514,236.42200772422075 26.710123876750004,235.99960734488195 26.07534865711932,234.790251913244 25.975384055578616,234.74396028490082" stroke="#4DD2FF" stroke-linecap="round" stroke-linejoin="round" stroke-width="0.5"><title>2025-06-02 11.5km</title><desc>1748829019000</desc></polyline><polyline fill="none" points="51.857142857130384,240.8417534750406 51.52741762815276,239.1582465249594 42.01784227427561,240.04339350415103 38.076127036940306,239.59214325279754 33.857142857130384,239.77437921910314 38.1285833233851,239.57478742613603 41.5832044724375,240.02603776947217 51.51243011772749,239.1669244812001 51.8496491019323,240.7896867485979" stroke="#4DD2FF" stroke-linecap="round" stroke-linejoin="round" stroke-width="0.5"><title>2025-06-01 4.9km</title><desc>1748740054000</desc></polyline><polyline fill="none" points="74.71428571426077,248.67410667186778 74.64910768170375,248.81247984978108 74.51875161647331,248.7118448267065 74.08423139923252,246.29657965675142 60.35339253384154,247.49163864280126 59.08242089836858,243.93158671310812 59.028105871228036,239.4530716523077 58.723941719101276,237.7672963525838 56.71428571426077,231.18752015021892 58.03957237693248,235.59085089842847 58.39805155619979,236.27020793587872 58.98465384950396,238.79889292705775 59.571256142808124,238.9624379334782 58.96292783861281,238.9498575560865 59.08242089836858,243.51645029734937 59.49521510471823,245.2147268062472 60.21217346319463,246.98845732213522 60.39684455556562,247.1016732981443 66.28459349944023,246.4978535594273 66.44753858086187,246.97587776285945 71.12949392187875,246.5230127741961" stroke="#4DD2FF" stroke-linecap="round" stroke-linejoin="round" stroke-width="0.5"><title>2025-05-31 5.5km</title><desc>1748696141000</desc></polyline><polyline fill="none" points="96.30909090908244,244.96756412692775 95.90000000002328,242.32819520025805 81.09090909094084,243.65465383294213 79.72337662335485,239.75645194278331 79.57142857142026,235.0595080771891 84.59740259737009,235.11365246893547 79.6415584415663,235.0324358730868 79.73506493505556,239.68877381607308 80.0974025974283,241.13707819906995 81.00909090903588,243.22152594024374 94.12337662337814,241.96273998371908 95.29220779222669,241.89506298136257 95.35064935067203,242.395871981862 97.57142857142026,242.2199122779857" stroke="#4DD2FF" stroke-linecap="round" stroke-linejoin="round" stroke-width="0.5"><title>2025-05-29 5.0km</title><desc>1748526381000</desc></polyline><polyline fill="none" points="113.33982340956572,238.23286041124084 112.94045732397353,234.9625264027418 119.70115462987451,234.632185964394 120.42857142857974,237.2914073854481 119.64410233189119,234.69825410589692 112.91193117504008,235.01207741038525 113.09735114331124,236.6472521640244 112.84061580261914,235.02859440956672 103.22730359970592,235.92050986597314 104.66787412267877,243.13823769203736 105.22413402760867,244.82287846862164 104.85329409100814,245.05410230671987 105.43808014487149,246.6065966768656 104.65361104824115,244.55862224975135 102.7138329182635,235.95354367756227 106.07991849671816,235.47455275138782 112.17025130178081,235.09466238951427 112.09893592941808,234.61566892477276 103.15598822734319,235.22679826857348 102.6567806203384,233.39340332311986 102.42857142857974,233.59160918208363 102.54267602448817,235.3589340398612 109.28911025583511,234.69825410589692" stroke="#4DD2FF" stroke-linecap="round" stroke-linejoin="round" stroke-width="0.5"><title>2025-05-27 6.0km</title><desc>1748352132000</desc></polyline><polyline fill="none" points="140.8870810283115,241.34136010772636 140.95883501466596,241.2938794083384 140.72819720141706,240.14246059575817 134.66498535632854,240.72410799600402 133.9628213472315,240.73597829062055 131.43605597136775,240.43922019933234 125.39847054996062,240.70630254955176 125.28571428571013,238.7357995008242 126.00325414905092,238.65863989227728 126.99243410350755,238.7298641499583 126.99755938822636,240.43922019933234 131.58468922876636,240.2552294232628 134.37284412625013,240.52824778550348 140.71794663195033,239.8991165923253 143.17808330620755,239.81008804430166 143.28571428571013,240.0059506702637 143.21396029938478,240.02969154986204 140.9434591604222,240.12465497143785" stroke="#4DD2FF" stroke-linecap="round" stroke-linejoin="round" stroke-width="0.5"><title>2025-05-25 7.6km</title><desc>1748179850000</desc></polyline><polyline fill="none" points="166.1310615989787,240.9937263310785 166.08387942335685,240.60443612185918 165.85386631719302,240.60443612185918 165.7064220183529,239.87365716575005 165.58846657929826,239.70974303461117 159.89711664486094,240.19465451112046 158.96526867631474,240.3653971534659 155.2260812582099,240.01708170158236 148.2431192660879,240.3312486598079 148.14285714286962,239.14287024004443 149.87680209701648,239.0062736689215 149.86500655309646,240.00342223521875 150.0950196592603,240.03074116517382 154.99606815204606,239.81901916660718 158.54652686763438,240.12635733236675 165.91874180868035,239.4160625469376 166.14285714286962,240.9186003264549" stroke="#4DD2FF" stroke-linecap="round" stroke-linejoin="round" stroke-width="0.5"><title>2025-05-24 6.6km</title><desc>1748094255000</desc></polyline><polyline fill="none" points="189.0,240.80202481051674 188.80419016923406,239.19797518949053 181.39242546336027,239.82784132943198 180.36261079774704,240.00420298581594 179.1877518130641,240.02099931432895 175.80096696215332,239.60948827948596 171.0,239.8026467762611 175.77921031427104,239.60109007370193 179.14423851732863,240.02939747733035 186.82433521354687,239.38273642289278" stroke="#4DD2FF" stroke-linecap="round" stroke-linejoin="round" stroke-width="0.5"><title>2025-05-18 4.7km</title><desc>1747565909000</desc></polyline><polyline fill="none" points="26.660463784704916,260.6444834943504 26.46464357286459,259.4927689701035 21.244488977943547,259.9343616728147 20.373604351567337,260.0895150749857 19.672774119651876,260.083547644037 17.28685943313758,259.77324039691666 11.036072144284844,260.0596779141961 11.0,259.8806546301021 14.519610649876995,259.6538910178133 16.905525336391293,259.61211867765087 19.693386773520615,260.0596779141961 26.53163469795254,259.4509965149773 28.835098768933676,259.3555165056496 28.92785571143031,259.3674515153325 28.943315201817313,259.4509965149773 29.0,259.4151915297298" stroke="#4DD2FF" stroke-linecap="round" stroke-linejoin="round" stroke-width="0.5"><title>2025-05-17 5.7km</title><desc>1747487200000</desc></polyline><polyline fill="none" points="50.873497065360425,259.2558608284089 48.4897714969411,259.3805780957555 47.32662829788751,259.5884397842601 41.98478545784019,259.9958471573991 38.63895378651796,259.5634964096098 33.857142857130384,259.7547287537309 38.574334719916806,259.58012532689463 41.85554732460878,259.9875327415284 51.390449598256964,259.1560868772649 51.706365035061026,260.76908412746707 51.857142857130384,260.8439131227278" stroke="#4DD2FF" stroke-linecap="round" stroke-linejoin="round" stroke-width="0.5"><title>2025-05-11 5.0km</title><desc>1746965499000</desc></polyline><polyline fill="none" points="74.71428571428987,260.64671074700163 74.42375486774836,259.35328925299837 66.25660996101215,260.09345810143714 62.93810207006754,259.7121599303937 56.71428571428987,259.9738353591529 62.78315228529391,259.71963638415764 65.88214798111585,260.09345810143714 74.47540479604504,259.3682422329366" stroke="#4DD2FF" stroke-linecap="round" stroke-linejoin="round" stroke-width="0.5"><title>2025-05-10 5.3km</title><desc>1746870058000</desc></polyline><polyline fill="none" points="97.53212726136553,259.69658927550336 97.4862757329829,259.5676388092543 97.57142857142026,259.66624800941645 97.22426699937205,259.72693052919203 89.20024953215034,260.4323611907457 85.80068621333339,260.03034238589316 79.57142857142026,260.28824149152933 85.76793512163567,260.03034238589316 87.35963817840093,260.1592920504336 88.8072364316904,260.42477595036326 95.37710542732384,259.83312481975736" stroke="#4DD2FF" stroke-linecap="round" stroke-linejoin="round" stroke-width="0.5"><title>2025-05-05 5.4km</title><desc>1746434825000</desc></polyline></svg>