<?xml version="1.0" encoding="utf-8" ?>
<svg baseProfile="full" height="300mm" version="1.1" viewBox="0,0,200,300" width="200mm" xmlns="http://www.w3.org/2000/svg" xmlns:ev="http://www.w3.org/2001/xml-events" xmlns:xlink="http://www.w3.org/1999/xlink"><defs /><rect fill="#222222" height="300" width="200" x="0" y="0" /><text fill="#FFFFFF" style="font-size:12px; font-family:Arial; font-weight:bold;" x="10" y="20">Over 3km Runs</text><text fill="#FFFFFF" style="font-size:4px; font-family:Arial" x="10" y="280">Runner</text><text fill="#FFFFFF" style="font-size:9px; font-family:Arial" x="10" y="290">tang-hi</text><text fill="#FFFFFF" style="font-size:4px; font-family:Arial" x="65" y="280">SPECIAL TRACKS</text><rect fill="yellow" height="2.6" width="2.6" x="65" y="283" /><text fill="#FFFFFF" style="font-size:3px; font-family:Arial" x="70" y="285.5">Over 20.0 km</text><rect fill="red" height="2.6" width="2.6" x="65" y="287" /><text fill="#FFFFFF" style="font-size:3px; font-family:Arial" x="70" y="289.5">Over 40.0 km</text><text fill="#FFFFFF" style="font-size:4px; font-family:Arial" x="120" y="280">STATISTICS</text><text fill="#FFFFFF" style="font-size:3px; font-family:Arial" x="120" y="285">Number: 10</text><text fill="#FFFFFF" style="font-size:3px; font-family:Arial" x="120" y="290">Weekly: 2.5</text><text fill="#FFFFFF" style="font-size:3px; font-family:Arial" x="141" y="285">Total: 56.7 km</text><text fill="#FFFFFF" style="font-size:3px; font-family:Arial" x="141" y="290">Avg: 5.7 km</text><text fill="#FFFFFF" style="font-size:3px; font-family:Arial" x="167" y="285">Min: 4.7 km</text><text fill="#FFFFFF" style="font-size:3px; font-family:Arial" x="167" y="290">Max: 7.6 km</text><polyline fill="none" points="67.0,86.02232001558878 66.80446590227075,86.43743954933598 66.41339770669583,86.1355344800977 65.10983705485705,78.88973897023243 23.917320458684117,82.47491592838196 20.104405552265234,71.7947601393098 19.941460470785387,58.35921495690127 19.028968014521524,53.301889057736844 13.0,33.56256045063492 16.97585998789873,46.77255269527086 18.051297525758855,48.81062380759977 19.811104405671358,56.39667878113687 21.57091128558386,56.887313800427364 19.745926373056136,56.849572668230394 20.104405552265234,70.54935089201899 21.342788171372376,75.64418041871977 23.493663246859796,80.9653719663911 24.047676523798145,81.30501989441109 41.71092335542198,79.49356067826739 42.199758599861525,80.92763328854926 56.24562462279573,79.56903832257376" stroke="#4DD2FF" stroke-linecap="round" stroke-linejoin="round" stroke-width="0.5"><title>2025-05-31 5.5km</title><desc>1748696141000</desc></polyline><polyline fill="none" points="123.21298701292835,74.90269238076871 121.98571428563446,66.9845856007596 77.55844155838713,70.96396149884094 73.45584415574558,59.26935582832084 73.0,45.17852423156728 88.07792207761668,45.34095740679186 73.21038961037993,45.09730761923129 73.4909090907313,59.06632144819014 74.57792207784951,63.41123459718074 77.31298701278865,69.66457782071666 116.65584415569901,65.88821995112812 120.16233766218647,65.68518894407316 120.3376623375807,67.1876159455569 127.0,66.65973683391348" stroke="#4DD2FF" stroke-linecap="round" stroke-linejoin="round" stroke-width="0.5"><title>2025-05-29 5.0km</title><desc>1748526381000</desc></polyline><polyline fill="none" points="165.7337559426669,54.69858123373706 164.53565768594854,44.88757920823991 184.81774960365146,43.89655789319659 187.0,51.87422215638799 184.6465927097015,44.09476231771987 164.4500792392064,45.03623223118484 165.00633914396167,49.941756492102286 164.2361331221182,45.08578322871472 135.3961965132039,47.76152959797764 139.71790808229707,69.4147130761412 141.38668779702857,74.46863540587947 140.27416798705235,75.16230692018871 142.02852614875883,79.81979003062588 139.67511885869317,73.67586674931226 133.85578446881846,47.86063103270135 143.95404120441526,46.42365825417801 162.22503961948678,45.28398716857191 162.01109350239858,43.847006774361944 135.1822503961157,45.68039480573498 133.68462757510133,40.18020996940322 133.0,40.77482754626544 133.34231378743425,46.076802119612694 153.58161648153327,44.09476231771987" stroke="#4DD2FF" stroke-linecap="round" stroke-linejoin="round" stroke-width="0.5"><title>2025-05-27 6.0km</title><desc>1748352132000</desc></polyline><polyline fill="none" points="59.80410022777505,124.0240803231718 60.01936218683841,123.88163822500792 59.327448747179005,120.4273817872745 41.13781321182614,122.17232398800843 39.03132118459325,122.20793487185438 31.45102505700197,121.31766059798247 13.338268792722374,122.11890764864802 13.0,116.20739850247628 15.152619589993265,115.9759196768282 18.120159453363158,116.18959244986763 18.135535307519604,121.31766059798247 31.89692482916871,120.76568826979201 40.26138952164911,121.5847433565068 59.2966970387497,119.69734977696498 66.67710706155049,119.43026413289772 67.0,120.01785201078746 66.78473804099485,120.08907464958611 59.97323462419445,120.37396491430991" stroke="#4DD2FF" stroke-linecap="round" stroke-linejoin="round" stroke-width="0.5"><title>2025-05-25 7.6km</title><desc>1748179850000</desc></polyline><polyline fill="none" points="126.96461336826906,122.98117899322824 126.82306684134528,121.81330836557026 126.1330275228247,121.81330836557026 125.69069462642074,119.62097149723559 125.33682830922771,119.12922910382622 108.26277850591578,120.58396353333956 105.46723460021894,121.09619146036857 94.2496723459335,120.05124510472524 73.30078636959661,120.99374597940187 73.0,117.42861072010419 78.20183486235328,117.01882100675721 78.16644823062234,120.01026670563442 78.85648754914291,120.09222349550691 93.55963302752934,119.45705749980698 104.2110091742361,120.3790719970857 126.3276539973449,118.24818764079828 127.0,122.75580097935745" stroke="#4DD2FF" stroke-linecap="round" stroke-linejoin="round" stroke-width="0.5"><title>2025-05-24 6.6km</title><desc>1748094255000</desc></polyline><polyline fill="none" points="187.0,122.40607443155022 186.4125705077313,117.59392556846433 164.1772763900226,119.48352398829593 161.08783239324111,120.01260895744781 157.56325543916319,120.06299794297956 147.40290088637266,118.82846483844332 133.0,119.40794032877602 147.33763094281312,118.80327022112033 157.43271555192769,120.08819243199832 180.47300564066973,118.14820926867833" stroke="#4DD2FF" stroke-linecap="round" stroke-linejoin="round" stroke-width="0.5"><title>2025-05-18 4.7km</title><desc>1747565909000</desc></polyline><polyline fill="none" points="59.98139135405654,181.93345048304764 59.393930718593765,178.47830691029958 43.73346693383064,179.8030850184441 41.12081305467291,180.2685452249425 39.01832235895563,180.2506429320929 31.86057829944184,179.31972119075363 13.108216432854533,180.1790337425773 13.0,179.64196389030258 23.55883194960188,178.9616730534326 30.716576009173878,178.83635603294533 39.08016032062005,180.1790337425773 59.594904093886726,178.35298954491736 66.50529630685924,178.0665495169378 66.78356713423273,178.10235454599024 66.82994560548104,178.35298954491736 67.0,178.24557458917843" stroke="#4DD2FF" stroke-linecap="round" stroke-linejoin="round" stroke-width="0.5"><title>2025-05-17 5.7km</title><desc>1747487200000</desc></polyline><polyline fill="none" points="124.04906262457371,177.76758248523402 116.89788591943216,178.14173428727372 113.40845632215496,178.76531935278035 97.3829278020421,179.98754147219006 87.34543278813362,178.6904892288294 73.0,179.26418626120721 87.15157558827195,178.74037598070572 96.99521340243518,179.9625982245925 125.59992022323422,177.46826063180924 126.54766653373372,182.30725238240848 127.0,182.53173936819076" stroke="#4DD2FF" stroke-linecap="round" stroke-linejoin="round" stroke-width="0.5"><title>2025-05-11 5.0km</title><desc>1746965499000</desc></polyline><polyline fill="none" points="187.0,181.94013224099763 186.12840746040456,178.05986775900237 161.62697274016682,180.28037430431868 151.6714490673039,179.13647979118105 133.0,179.92150607745862 151.2065997129539,179.1589091524802 160.50358680053614,180.28037430431868 186.2833572452655,178.1047266988171" stroke="#4DD2FF" stroke-linecap="round" stroke-linejoin="round" stroke-width="0.5"><title>2025-05-10 5.3km</title><desc>1746870058000</desc></polyline><polyline fill="none" points="66.88209606986493,239.0897678265028 66.74454148474615,238.70291642776283 67.0,238.99874402824207 65.95851528388448,239.18079158756882 41.88646288216114,241.29708357222262 31.68777292582672,240.09102715767222 13.0,240.86472447458073 31.589519650675356,240.09102715767222 36.36462882091291,240.47787615128618 40.70742358081043,241.2743278510752 60.41703056776896,239.4993744592648" stroke="#4DD2FF" stroke-linecap="round" stroke-linejoin="round" stroke-width="0.5"><title>2025-05-05 5.4km</title><desc>1746434825000</desc></polyline></svg>