<?xml version="1.0" encoding="utf-8" ?>
<svg baseProfile="full" height="300mm" version="1.1" viewBox="0,0,200,300" width="200mm" xmlns="http://www.w3.org/2000/svg" xmlns:ev="http://www.w3.org/2001/xml-events" xmlns:xlink="http://www.w3.org/1999/xlink"><defs /><rect fill="#222222" height="300" width="200" x="0" y="0" /><text fill="#FFFFFF" style="font-size:12px; font-family:Arial; font-weight:bold;" x="10" y="20">Over 3km Runs</text><text fill="#FFFFFF" style="font-size:4px; font-family:Arial" x="10" y="280">Runner</text><text fill="#FFFFFF" style="font-size:9px; font-family:Arial" x="10" y="290">tang-hi</text><text fill="#FFFFFF" style="font-size:4px; font-family:Arial" x="65" y="280">SPECIAL TRACKS</text><rect fill="yellow" height="2.6" width="2.6" x="65" y="283" /><text fill="#FFFFFF" style="font-size:3px; font-family:Arial" x="70" y="285.5">Over 20.0 km</text><rect fill="red" height="2.6" width="2.6" x="65" y="287" /><text fill="#FFFFFF" style="font-size:3px; font-family:Arial" x="70" y="289.5">Over 40.0 km</text><text fill="#FFFFFF" style="font-size:4px; font-family:Arial" x="120" y="280">STATISTICS</text><text fill="#FFFFFF" style="font-size:3px; font-family:Arial" x="120" y="285">Number: 85</text><text fill="#FFFFFF" style="font-size:3px; font-family:Arial" x="120" y="290">Weekly: 3.7</text><text fill="#FFFFFF" style="font-size:3px; font-family:Arial" x="141" y="285">Total: 442.8 km</text><text fill="#FFFFFF" style="font-size:3px; font-family:Arial" x="141" y="290">Avg: 5.2 km</text><text fill="#FFFFFF" style="font-size:3px; font-family:Arial" x="167" y="285">Min: 3.0 km</text><text fill="#FFFFFF" style="font-size:3px; font-family:Arial" x="167" y="290">Max: 11.5 km</text><polyline fill="none" points="21.19457331195008,50.727272727272066 22.44355882477248,41.51868321366055 22.354345573869068,39.65002224032651 21.72093149239663,34.601368453782925 22.00641389528755,35.05565432619915 21.99749257019721,33.88896151599329 22.693355927302036,34.06448252988048 21.98857124510687,33.87863674100663 21.952885944745503,34.53942022281262 22.158076421823353,35.0246803539776 21.756616792757995,35.26214723274461 21.810144743300043,35.77837766211451 21.35515716363443,35.830000560730696 20.944776209420525,32.71193040754588 20.48086730466457,31.865285559710173 20.543316580355167,31.689760744397063 20.97154018469155,31.813660645530035 20.944776209420525,31.21480972277641 20.7663497076137,31.090909090911737 19.124825890816282,31.35936026890704 20.75742838246515,31.142534372556838 20.962618859601207,31.32838516918855 20.98046150978189,31.782685684425815 20.5522379053873,31.669110746152 20.507631279935595,31.85496057898854 21.033989460323937,33.042326481998316 21.390842463995796,36.986346612095076 21.881515344022773,39.97007158731867 21.943964619655162,41.36382311358466 21.016146810143255,48.032917567237746" stroke="#4DD2FF" stroke-linecap="round" stroke-linejoin="round" stroke-width="0.5"><title>2025-10-08 5.0km</title><desc>1759920144000</desc></polyline><polyline fill="none" points="44.21799665002618,31.090909090911737 44.206332664121874,32.23813044113922 44.40462042548461,32.292117084085476 44.299644551821984,33.641776026939624 43.63479735207511,38.163033571865526 43.40151763276663,38.70287493536307 43.23822182940785,41.280587200584705 42.62003057345282,45.39672560454346 42.3400949104107,46.27391894478933 42.386750854202546,46.98916461308545 41.86187148600584,50.72727272727934 42.351758896315005,46.287414181715576 42.48006274190266,46.07149022642989 43.168237913632765,46.07149022642989 44.113020776363555,39.431657296358026 44.38129245355958,38.75685895107745 44.27631657989696,38.35197829862591 44.94116377964383,33.46632113988744 45.15111552691087,33.27736946384539" stroke="#4DD2FF" stroke-linecap="round" stroke-linejoin="round" stroke-width="0.5"><title>2025-10-07 3.0km</title><desc>1759844077000</desc></polyline><polyline fill="none" points="66.7861491390795,31.09090909090446 66.87055157640134,31.139741492857866 66.77208206616342,31.758282673814392 66.88461864928831,31.798976005120494 66.81428328485345,32.67794691479503 66.42743878037436,35.3066634674542 66.26566744211596,35.66474821059819 66.14609732251847,37.341214583029796 65.75925281806849,39.95350245467125 65.62561562558403,40.23018839342694 65.67485038071754,40.63707774410432 65.19656990244403,43.84329353814246 65.16843575667008,45.015076436815434 65.80145403672941,50.727272727272066 66.21643268701155,50.670315514478716 65.89289001052384,47.7817180737693 65.94915830207174,47.553880606617895 65.55528026114916,45.36498050800583 65.52714611534611,44.41291236515826 67.03935645110323,33.735954661882715" stroke="#4DD2FF" stroke-linecap="round" stroke-linejoin="round" stroke-width="0.5"><title>2025-10-06 5.0km</title><desc>1759755043000</desc></polyline><polyline fill="none" points="92.77561693545431,50.61443046329077 92.84304064139724,50.727272727272066 93.52690965944203,50.56929352400766 93.69065294548636,50.27590295005939 92.89120043144794,48.49297352719441 93.01641588541679,48.32370651587553 91.62941393331857,45.32199325230613 90.95517687336542,44.430490598220786 90.71437792334473,43.57283539341006 90.71437792334473,42.04935178565211 92.29401903535472,41.631800600247516 92.30365099338815,41.32710004757246 88.93246569333132,38.415472776207025 86.8519627652131,35.95519818599132 86.45705248723971,35.22161901164509 84.32838976912899,32.60326420897036 83.71194445714355,31.090909090911737 84.5788206771249,32.84027312778926 86.19698962121038,34.71375352926407 86.90975451318081,35.89876919917151 89.30811205529608,38.61861216026591 90.60842638532631,39.465022066186066 92.10137987538474,41.13525110168848 91.96653246338246,41.41738178420201 90.36762743536383,41.778507961076684 90.61805834335973,42.26376932221319 90.5987944273511,43.47127050133713 90.79143358737929,44.272502003361296 91.81242113542976,45.931370495767624 92.77561693545431,48.199577202387445 89.48148729931563,49.36187326051004" stroke="#4DD2FF" stroke-linecap="round" stroke-linejoin="round" stroke-width="0.5"><title>2025-10-04 5.0km</title><desc>1759568734000</desc></polyline><polyline fill="none" points="111.08314614649862,31.641186193555768 111.09854294304387,31.406642292284232 110.59044865571195,31.271328207381885 108.04227882059058,31.090909090911737 110.55965506256325,31.289370097889332 111.1216381379345,31.46076786566846 111.09854294304387,31.72237431559188 111.58354203554336,32.3357931645005 111.4757644594356,32.462084728467744 111.55274844239466,32.76879202765849 111.73751000140328,32.976269864411734 114.55512377677951,40.21963373035396 111.16013012942858,41.473403391799366 111.55274844239466,43.21421824317804 112.29179467854556,45.568320247104566 112.61512740683975,47.38120475821779 113.16941208398202,48.6529065463983 112.9538569317665,48.878383593175386 113.13092009248794,49.18503141317342 113.27718966008979,49.96968401324557 113.18480888055637,49.77126680131187 112.94615853345022,49.69911497258727 112.69980978805688,49.82538063251559 112.6305242034432,50.05987350133364 112.97695212662802,50.673159472491534 113.26179286351544,50.727272727272066 113.44655442252406,50.52885729069385 113.43115762594971,50.24927111361467 113.12322169420077,49.74420987274061 112.89996814369806,49.68107700579276 112.72290498294751,49.78930474886147 112.65361939830473,50.15006289333542 112.9846505249152,50.673159472491534 113.31568165152567,50.700216104210995 113.46964961738558,50.312403556854406 113.19250727887265,49.81636166304088 112.81528576248093,49.70813395454752 112.63822260173038,50.09594926964928 112.80758736419375,50.48376280844968 113.06933290616143,50.71825385389093 113.35417364301975,50.673159472491534 113.47734801570186,50.44768720535649 113.27718966008979,49.906551314430544 112.96155533002457,49.69911497258727 112.67671459319536,49.83439960100077 112.71520658466034,50.29436572074337 113.07703130444861,50.727272727272066 113.43885602423688,50.54689507686999 113.44655442252406,50.28534680123266 113.09242810105206,49.73519089462934 112.81528576248093,49.71715293552552 112.661317796621,49.852437535111676 112.75369857615442,50.32142247346928" stroke="#4DD2FF" stroke-linecap="round" stroke-linejoin="round" stroke-width="0.5"><title>2025-10-02 5.0km</title><desc>1759403720000</desc></polyline><polyline fill="none" points="133.4869586522691,50.727272727272066 133.9501419471926,47.78835098663694 134.17401387306745,47.654355252139794 134.65263661116478,44.14359421988047 134.70667466218583,42.49089735123562 134.18945331624127,39.17647645439138 133.91926306084497,36.1924973374189 133.80346723712864,35.74578515631583 133.44836004436365,35.17399025049235 133.54099670331925,35.03104094260925 133.90382361770025,35.09358129341854 133.73398974287556,33.35136915339535 133.36344310690765,32.89570797127817 133.4097614364,31.957574566658877 133.07781340839574,31.090909090911737 133.41748115801602,32.0290517500398 133.36344310690765,32.8689042987462 133.73398974287556,33.35136915339535 133.90382361770025,35.09358129341854 133.53327698173234,35.039975281149964 133.4869586522691,35.17399025049235 133.9347025040188,36.16569467059162 134.71439438380185,42.74997080631147 134.5908788384986,44.75999752727512 133.78802779395483,50.0841128420725 133.6645122486516,50.093045650464774 133.5950347543985,50.3520966994256" stroke="#4DD2FF" stroke-linecap="round" stroke-linejoin="round" stroke-width="0.5"><title>2025-09-30 5.0km</title><desc>1759224370000</desc></polyline><polyline fill="none" points="156.19937542517437,50.727272727272066 156.2452140332316,50.108454538734804 156.42092869745102,49.984690372803016 157.18490549828857,44.91904877823981 157.33006109046983,43.00941098367912 156.55844452159363,36.47565712345386 156.41328892941237,35.88326274553401 156.08477890503127,35.31738972028688 156.13825728112715,35.21128811808012 156.52788544955547,35.273180735093774 156.34453101732652,33.46059298921318 155.97782215292682,33.062702816598176 156.01602099297452,32.12544321373571 155.64931212854572,31.09090909090446 155.9931016889168,31.92207423006039 155.98546192093636,33.053860792089836 156.35217078536516,33.49596091647254 156.54316498557455,35.23781353076629 156.45148776946007,35.30854792504397 156.13825728112715,35.19360450511158 156.09241867306991,35.29970612890611 156.54316498557455,36.34303186707257 156.75707848978345,39.004339983810496 157.29950201840256,42.275603828267776 157.33770085845026,43.58407491521211 156.436208233441,50.16149627021514 156.26049356925068,50.21453796936839 156.17645612114575,50.63003016057337" stroke="#4DD2FF" stroke-linecap="round" stroke-linejoin="round" stroke-width="0.5"><title>2025-09-28 5.0km</title><desc>1759056716000</desc></polyline><polyline fill="none" points="179.68467846460408,31.090909090911737 179.73415924576693,31.777976421239146 179.84018949102028,31.78615575888398 179.77657134382753,32.604085327649955 179.3524503626395,35.3359098563451 179.20400801923824,35.65488931121945 179.20400801923824,36.43188525881851 178.5678265474562,40.292217110298225 178.624376011634,40.64389068669698 178.12249951716512,44.11965157186205 178.15077424925403,45.42813444917556 178.75868098897627,50.66185339244112 179.1828019701934,50.727272727272066 178.83643650219892,47.81606090153218 178.90005464939168,47.63615110064711 178.5254144493083,45.1909735050649 178.4971397172485,44.111473487035255 179.63519768347032,36.022940957969695 179.80484607594553,35.71214190010505 179.74122792875278,35.47495233819791 180.05931866465835,32.99668856873177" stroke="#4DD2FF" stroke-linecap="round" stroke-linejoin="round" stroke-width="0.5"><title>2025-09-27 5.0km</title><desc>1758971882000</desc></polyline><polyline fill="none" points="20.61060259412625,72.54545454545587 20.687138059496647,71.95208845979505 20.886130269471323,71.73953843145136 21.758634574740427,65.0616610485522 20.92439800212742,58.00239336039522 20.50345294259023,57.14319626377255 20.56468131489237,57.02804549343273 20.87082317637396,57.160911753402615 20.93970509522478,57.09890752395586 20.771327071386622,55.35391325380624 20.39630329105421,54.875583846842346 20.434571023768513,53.89234292769834 20.05189369688742,52.90909090908826 20.44222457028809,53.87462677332951 20.419263930700254,54.91987371708092 20.801941257552244,55.41591872534627 20.955012188322144,57.090049773294595 20.56468131489237,57.02804549343273 20.541720675304532,57.16976949684613 20.99327992097824,58.23269217291818 21.31472887552809,61.5985284235212 21.766288121260004,64.69852572438685 21.666792016272666,66.45218963836669 20.863169629854383,71.79267598711886" stroke="#4DD2FF" stroke-linecap="round" stroke-linejoin="round" stroke-width="0.5"><title>2025-09-25 5.0km</title><desc>1758803583000</desc></polyline><polyline fill="none" points="44.0896601517743,52.90909090908826 44.09672883836902,54.430446399215725 43.48175310334773,57.9801640705773 43.47468441675301,59.07612822794181 42.9162581745768,62.07768502814724 42.958670294232434,62.45389406585309 42.45679354495951,66.12592911095999 42.69712888967479,69.23353397689061 43.114181399636436,72.54545454545587 43.51709653637954,72.48003521058126 42.81729656204698,66.07686070410273 44.55619346801541,54.32411603606306" stroke="#4DD2FF" stroke-linecap="round" stroke-linejoin="round" stroke-width="0.5"><title>2025-09-23 5.1km</title><desc>1758638106000</desc></polyline><polyline fill="none" points="65.95192168632639,72.54545454545587 65.86073703583679,72.51028367345134 65.88353319847374,71.78048485358886 66.05070505774347,71.62221441780275 66.41544365987647,69.45915611437522 66.94735412133741,64.80751828308712 66.12669226655271,57.99228528296226 65.70116389737814,57.11286126321647 65.79234854792594,57.0073297799172 66.14948842916056,57.042506955323915 65.98231656983262,55.301219597415184 65.61757796772872,54.887878560432 65.63277540946729,53.832530781131936 65.23764192385715,52.90909090908826 65.64797285126406,53.91168231132906 65.625176688598,54.89667307115451 65.989915290731,55.2836306573663 65.96711912809405,55.872858201692 66.16468587092822,57.0337126628001 65.79994726879522,56.989741186844185 65.73915750178276,57.1040669778522 66.19508075443446,58.168169013864826 66.51422703126445,61.54506729142304 66.97015028394526,64.5525063311652 66.84097202905104,66.487060980362 66.15708715002984,71.0155083988866" stroke="#4DD2FF" stroke-linecap="round" stroke-linejoin="round" stroke-width="0.5"><title>2025-09-21 5.0km</title><desc>1758459157000</desc></polyline><polyline fill="none" points="78.90309283800889,56.59063849881932 78.88311688310932,57.16850570263341 79.51235946145607,57.13383375317062 79.68215507786954,57.27252148748812 80.04172226553783,57.14539107080782 82.63859639846487,57.13383375317062 82.86831987946061,57.27252148748812 84.68613177258521,57.26096418277302 84.95580716332188,57.38809447027597 85.59503771911841,57.22629226150457 88.95099813718116,57.22629226150457 90.69889418815728,57.26096418277302 90.88866575947031,57.41120905274147 92.16712687106337,57.318750694728806 98.51948051946238,57.5152246157013 97.89023794111563,62.25361051120126 97.5506467083469,62.773665235545195 90.91862969181966,62.738994994564564 90.54907452670159,68.86390695573209 90.87867778202053,63.143480481965526 96.70166862639599,63.17815059966961 97.56063468579669,63.3399443426315 97.87026198621606,62.32295127848192 98.10997344466159,60.38139381758083" stroke="#4DD2FF" stroke-linecap="round" stroke-linejoin="round" stroke-width="0.5"><title>2025-09-20 5.0km</title><desc>1758380898000</desc></polyline><polyline fill="none" points="111.97982517402852,52.90909090908826 111.85343105281936,53.06347086414462 111.86045294845826,53.615986155760766 111.96578138277982,53.68098770378856 111.90258432220435,54.477252379088895 111.48127058488899,57.247866653400706 111.27763561182655,57.979097813004046 111.31274508996285,58.539703841131995 110.82121239643311,61.87888442709664 110.70184017086285,62.04949575030332 110.75099344018963,62.43946312256594 110.2735045379086,65.89221629880922 110.30861401601578,67.200161525172 110.89143135261838,72.54545454545587 111.24252613374847,72.53733127075975 111.31976698557264,72.43985190999229 111.01782547382754,69.28795524994348 110.65268690147786,67.07018034779321 110.65268690147786,65.72973713777901 111.77619020099519,57.80035303583281 111.93067190467264,57.52411032169766 111.86747484406806,57.296615605358966 112.3238980595197,54.29037464695284" stroke="#4DD2FF" stroke-linecap="round" stroke-linejoin="round" stroke-width="0.5"><title>2025-09-18 5.2km</title><desc>1758195038000</desc></polyline><polyline fill="none" points="133.46406764982385,72.37733863907488 133.44877433139482,72.54545454545587 133.6246474935906,72.51006175004295 133.70111408582306,71.87298897254368 133.86934058880433,71.7579614464994 134.64165317060542,66.46653097148373 134.75635305902688,64.94452151489531 133.93816052182228,58.04205161436403 133.50230094595463,57.148230226033775 133.5787675382453,56.980084582581185 133.9458071810659,57.05973255945719 133.79287399654277,55.351709965580085 133.40289437604952,54.89151161693735 133.4411276721512,53.91800709116069 133.0358547331707,52.90909090909554 133.46406764982385,53.953407446533674 133.4411276721512,54.90036160811724 133.79287399654277,55.325160126980336 133.95345384028042,57.06858233016828 133.5787675382453,56.99778413931199 133.52524092362728,57.13938046343537 133.89228056644788,57.78541076903639 134.02992043254199,58.44028591061942 134.27461352778482,61.21017627084075 134.74870639978326,64.32509144314099 134.75635305902688,65.70552956932079 134.36637343847542,68.54597762486083 134.20579359473777,69.51931856836745 134.01462711411295,69.69628847997228 133.81581397424452,71.51020933585096 133.63994081204874,71.95262332460698" stroke="#4DD2FF" stroke-linecap="round" stroke-linejoin="round" stroke-width="0.5"><title>2025-09-16 5.1km</title><desc>1758026219000</desc></polyline><polyline fill="none" points="157.31608948655776,52.90909090908826 157.14032388976193,52.99044451852387 157.11923201815807,53.511105661404144 157.24578324786853,53.6575409977886 157.19656888075406,54.45479535296181 156.78176207229262,57.2451230831648 156.64114959482686,57.48917044708651 156.486475869664,59.62048581405543 156.01542407018133,62.077122468239395 156.0505771895405,62.516380683271564 155.56546414236072,66.2743802761106 156.22634278636542,72.54545454545587 156.61302709934535,72.46412079681613 155.9310565837077,65.97342143554124 156.33180214444292,63.020711218516226 156.5286596128426,62.30488628787134 156.91534392585163,58.93716950787348 157.11923201815807,57.70881243868644 157.23875262399088,57.52171003940748 157.1895382568473,57.10682924679713 157.42154884466436,55.55304090350546" stroke="#4DD2FF" stroke-linecap="round" stroke-linejoin="round" stroke-width="0.5"><title>2025-09-14 5.0km</title><desc>1757842188000</desc></polyline><polyline fill="none" points="179.62745943749906,52.90909090908826 179.74747727820068,53.971080139082915 179.2674059154524,57.18963874128531 179.0626695989631,57.91665571462363 179.11914858283126,58.21889679162996 178.7590950607555,60.92267859227286 178.49787976039806,62.066244747569726 178.53317912537022,62.499161977437325 178.0460478895984,66.11760542176489 178.28608357097255,69.25400257671572 178.70261607688735,72.54545454545587 179.11914858283126,72.45561521236232 178.39904153867974,66.15844471221499 180.13577029222506,54.175307228957536" stroke="#4DD2FF" stroke-linecap="round" stroke-linejoin="round" stroke-width="0.5"><title>2025-09-13 5.1km</title><desc>1757760467000</desc></polyline><polyline fill="none" points="21.655883873143466,74.72727272727207 21.620657789928373,76.26803287323855 21.226125657995,78.96632988983765 21.07113089185441,79.29240193394071 20.895000475808047,81.24065478775447 20.437061394070042,83.92248197623121 20.479332693910692,84.24853388282645 19.986167528986698,87.74535730088246 20.000257962266915,88.6501049859362 20.627282243425725,94.36363636363967 21.04295002532308,94.30658456521633 20.761141359602334,91.19312494623591 20.373654444294516,88.90278044563456 20.345473577734083,87.97358290391276 21.479753457097104,79.7733557804022 21.64883865651791,79.30870550136024 21.592476923397044,79.09675886647165 21.832014289218932,77.42562155931228" stroke="#4DD2FF" stroke-linecap="round" stroke-linejoin="round" stroke-width="0.5"><title>2025-09-11 5.0km</title><desc>1757592265000</desc></polyline><polyline fill="none" points="43.113752297329484,94.28421732076094 43.266273155255476,94.20479820526089 43.289151283941464,93.63121354790928 43.46455027058255,93.5076717412303 43.571314871136565,92.88113558719488 43.807722200930584,90.64851225531311 44.28053686054773,87.99223343476478 44.34154520370066,86.15661786388955 43.54081069951644,79.77578679515864 43.10612625439535,78.95498194611719 43.182386683358345,78.81376742607972 43.5560627853265,78.84024516608042 43.38828984159045,77.17213177052327 43.01461373962229,76.68669592405786 43.0679960399284,75.8040783378965 42.671441809274256,74.72727272727207 43.06036999702337,75.68933739241038 43.022239782556426,76.73082656774932 43.38828984159045,77.13682743686513 43.548436742450576,78.86672289802664 43.17476064048242,78.81376742607972 43.10612625439535,78.92850424111384 43.36541171290446,79.27271377619036 43.578940914041596,79.92582555214176 43.90686075860867,83.43842352007778 44.34154520370066,86.28017013010685 44.28053686054773,88.09813314902567 43.36541171290446,94.31069034313987 43.19763876916841,94.36363636363967" stroke="#4DD2FF" stroke-linecap="round" stroke-linejoin="round" stroke-width="0.5"><title>2025-09-09 5.2km</title><desc>1757417515000</desc></polyline><polyline fill="none" points="66.79080402883119,74.72727272727934 66.73444235292845,75.34684121085593 66.89648217114154,75.3876021275646 66.79784923832631,76.39031415790669 66.42445313552162,78.87665984702471 66.24127768888138,79.37391973966442 66.00878577583353,81.89277907036012 65.60016362561146,83.97138984905177 65.63538967302884,84.40340807683242 65.16336063743802,87.74535730302159 65.14927021847689,88.7397641130301 65.42403338846634,91.29093179869233 65.79742949124193,94.31473482462752 66.2060516414349,94.36363636363967 66.19196122247376,94.04577582774073 66.41036271656048,93.84201841206959 66.41036271656048,93.72791403339943 66.07219266120228,93.483404104496 65.52971153071849,87.95728109877382 66.60058337269584,80.22985168195737 66.8330752857728,79.42283038231835 66.76262319090893,79.11306247532775 67.05852198932553,76.96910970668978" stroke="#4DD2FF" stroke-linecap="round" stroke-linejoin="round" stroke-width="0.5"><title>2025-09-07 5.0km</title><desc>1757247375000</desc></polyline><polyline fill="none" points="88.18384174953098,94.30107867245533 88.36147622554563,94.36363636363967 88.4078156540345,93.73805744967831 88.631789558538,93.39845560434333 89.37322041476727,88.4383318293767 89.51223870035028,86.54358006862458 88.67040574894054,79.65241686195077 88.22245794002083,78.80327376788046 88.2996903208259,78.6870746011773 88.67040574894054,78.74964340232691 88.50821774915676,77.0066387096158 88.14522555912845,76.53289299891185 88.18384174953098,75.63902621348825 87.89035870227963,74.72727272727207 88.18384174953098,75.54963903495809 88.15294879721478,76.52395437604719 88.51594098724308,76.95300724788831 88.69357546319952,78.73176660653553 88.28424384468235,78.66025938704115 88.24562765425071,78.78539698299574 88.53138746338664,79.21443881667074 88.71674517748761,79.8669359247142 88.9947817485372,82.89696176983125 89.50451546226395,86.3648277948887 89.50451546226395,87.42839847225696 88.97161203430733,91.2356972940106 88.58545013002004,93.66656243330362 88.4078156540345,93.91679473629483" stroke="#4DD2FF" stroke-linecap="round" stroke-linejoin="round" stroke-width="0.5"><title>2025-09-04 5.0km</title><desc>1756985562000</desc></polyline><polyline fill="none" points="111.8790593642916,74.77641054882406 111.96398981285165,74.72727272727207 112.01353257457959,74.84192759759753 111.98522242504987,75.33330376590311 112.06307533627842,75.33330376590311 112.00645503721898,76.21777331975318 111.62426801840775,78.70733921588544 111.36947667255299,79.70641969884309 111.40486435947241,80.09949715033144 110.79619614433614,83.85001477829792 110.83158383131376,84.19393997573934 110.35031128907576,87.58398127969122 110.39277651338489,89.24619583368622 110.97313457899145,94.35544871815364 111.30577883607475,94.36363636363967 111.37655420991359,94.26538456282287 111.04390995283029,91.36690259062743 111.12884040144854,91.17857953647763 110.9023592051235,90.11413661484403 110.69711062093847,87.87057244046446 111.08637517713942,84.81627707998268 111.29162376132444,84.03835494910163 111.67381078010658,80.63997551654757 111.88613690165221,79.40342118847911 112.00645503721898,79.23963773568539 111.93567966335104,79.01852954657807 112.24709130829433,76.70095166187093" stroke="#4DD2FF" stroke-linecap="round" stroke-linejoin="round" stroke-width="0.5"><title>2025-09-02 5.1km</title><desc>1756811867000</desc></polyline><polyline fill="none" points="134.4661099819059,74.72727272727207 134.43760967761045,76.1700724056791 134.0599806457758,78.80002410329325 133.82485313536017,79.69864009901357 133.8319782114413,80.39938878676185 133.25484704959672,83.9112851805694 132.8059672570089,87.87641278938099 132.83446756127523,89.07992672022374 133.39734857104486,93.68773636914557 133.95310450467514,94.36363636363967 133.82485313536017,94.2976951484452 133.72510207036976,93.51463912412873 133.51134978816845,91.47041517438629 133.56835039675934,91.26434135587624 133.19072136492468,88.84911721219396 133.1764712127624,87.68681650223152 134.32360846045776,79.5749779377802 134.48036013406818,79.24521125316824 134.56586104689632,77.81895491094474 134.9862405351887,75.54348826828209" stroke="#4DD2FF" stroke-linecap="round" stroke-linejoin="round" stroke-width="0.5"><title>2025-08-31 5.1km</title><desc>1756640573000</desc></polyline><polyline fill="none" points="157.12536461203126,74.72727272727934 157.18890341720544,76.31208227200113 156.75119164798525,79.04866438526369 156.60293443582486,79.29372689637967 156.5323357633606,79.7838496780023 156.46879695815733,81.03364924954076 156.0734443924157,83.73739754436247 155.96754638370476,83.91709964745678 156.0099055871833,84.3091755695059 155.52983461448457,87.67441529181815 155.55807408347027,89.06294404633809 156.11580359589425,93.90627144159225 156.6523535065353,94.36363636363967 156.53939563062158,94.18395759720443 156.26406080805464,91.05584931093472 155.91812731302343,88.97309879343084 155.91812731302343,87.42937831748714 156.46173709092545,84.12947434248781 156.86414952392806,80.68240035205963 157.18890341720544,79.33457057560736 157.139484346495,79.02415809307422 157.4571783725405,76.6551812556354" stroke="#4DD2FF" stroke-linecap="round" stroke-linejoin="round" stroke-width="0.5"><title>2025-08-30 5.0km</title><desc>1756550382000</desc></polyline><polyline fill="none" points="178.69399840914411,94.35480408910371 178.96114982955623,94.36363636363967 179.81603437496233,88.41931264036975 179.9381607385585,86.4318923241226 179.43438948862604,82.88092153213074 179.22066835226724,80.19551391543064 179.09090909094084,79.60365304762672 178.70163130684523,78.99412047676742 178.75506159095676,78.85277897996275 179.15197227272438,78.91461591310508 178.96114982955623,77.12132698109781 178.6100365341117,76.75913112700073 178.63293522733147,75.69020285008446 178.24365744323586,74.72727272727934 178.6405681250326,75.73437370057218 178.59477073868038,76.71496079757344 178.96114982955623,77.1478290574887 179.13670647726394,78.89694822242018 178.75506159095676,78.86161283024558 178.70163130684523,78.9764528022497 179.02221301136888,79.47998011820164 179.22830124999746,80.32801952749287 179.44965528408648,83.1105906991288 179.9381607385585,86.30822911344148 179.8465659659123,88.18082460227015 179.06801039772108,93.52456627631182" stroke="#4DD2FF" stroke-linecap="round" stroke-linejoin="round" stroke-width="0.5"><title>2025-08-28 5.0km</title><desc>1756381580000</desc></polyline><polyline fill="none" points="21.573484190215822,96.54545454545587 21.735188375081634,97.38339276384067 21.70706590815098,98.14810542593477 21.271167670784052,100.88148672121315 21.116494102665456,101.166208573537 21.095402252452914,102.0610420901794 20.47670798006584,105.70535167290654 20.525922297209036,106.16901309856621 20.05487097616424,109.23561845224322 20.019717892515473,110.48012241150718 20.132207760208985,110.61026549969392 20.090024059813004,111.13896962114086 20.62435093143722,115.7507483734953 21.21492273689364,116.1818181818162 21.025096085155383,116.0110172144341 20.37124872909044,110.62653337084339 20.34312626218889,109.57724891545513 20.82823881666991,106.15274432205479 20.94775930113974,105.98192196914897 21.060249168833252,104.55025364077301 21.552392340061488,101.73564924107632 21.51723925638362,101.35331095383299 21.65082097426057,101.17434346873051 21.594576040428365,100.9302962535221 21.798463925661054,99.53107786240435" stroke="#4DD2FF" stroke-linecap="round" stroke-linejoin="round" stroke-width="0.5"><title>2025-08-26 5.0km</title><desc>1756206850000</desc></polyline><polyline fill="none" points="44.12423214147566,96.54545454544859 44.13835188167286,97.21532630881848 44.25130980354152,97.23983370652422 44.187770972494036,98.07308078357892 43.79241824612836,100.78515853307908 43.65828071394935,101.08740249636321 43.49590370134683,102.92534808380879 43.00877266348107,105.69444011284213 42.931114092236385,106.97684866068448 42.57106071643648,109.38641451187868 42.63459954748396,111.207835028501 43.178209546225844,116.06747719502891 43.1993891565653,116.1818181818162 43.62298136341269,116.1328149216497 43.31940694851801,112.9638740553055 42.94523383246269,110.8076161188219 42.909934481896926,109.71312974778994 43.361766169196926,106.37240386733902 43.52414318182855,105.90681491575378 44.06775318054133,101.45499497464334 44.230130193172954,101.12824618803279 44.17365123226773,100.86684620276355 44.441926296567544,98.83279853354179" stroke="#4DD2FF" stroke-linecap="round" stroke-linejoin="round" stroke-width="0.5"><title>2025-08-24 5.0km</title><desc>1756042259000</desc></polyline><polyline fill="none" points="65.8535630319966,116.1818181818162 66.07260446992586,115.86499098421336 66.83142659420264,110.69602239916276 66.97223894720082,108.42375390271627 66.55762479678378,105.80740482351393 66.14301064639585,101.81483472132822 65.68928195355693,100.89135764109233 65.79880267253611,100.76460513743223 66.13518773790565,100.8008201568955 65.96308375094668,99.02626688061719 65.58758414306794,98.60073099042347 65.65016741101863,97.68627464261226 65.2277303521405,96.54545454544859 65.62669868557714,97.51424715125177 65.60322996004834,98.60978496669122 65.97872956795618,99.0534286768816 66.15865646340535,100.8098739094421 66.06478156146477,100.90041138443485 65.73621940449812,100.78271264900104 65.73621940449812,100.9094651268606 66.04131283596507,101.46174167452409 66.21341682289494,102.13171190449793 66.41681244384381,104.59426186595374 66.98006185566192,108.5142836369123 66.85489531970234,110.57833660969482 65.99437538496568,116.1094006360072" stroke="#4DD2FF" stroke-linecap="round" stroke-linejoin="round" stroke-width="0.5"><title>2025-08-23 5.0km</title><desc>1755956696000</desc></polyline><polyline fill="none" points="89.3945387719723,96.54545454545587 89.40164892651956,97.08845948099042 89.49408093595412,97.18718725987128 89.45853016313049,98.0099140689781 89.03192088883952,100.65903760200308 88.87549748827587,100.99634214258549 88.5128796051722,104.37753686159704 88.32801558633219,105.49634393435554 88.20714295862126,105.61151437330409 88.2640241952322,106.01460962009878 87.75209306611214,109.88915753903711 88.40622728661401,116.05021198279428 88.42755775031401,116.14891665209143 88.81150609714678,116.1818181818162 88.10760079461033,109.72463697886269 89.16701382570318,102.02470097331388 89.30210676253773,101.18556114776584 89.43008954482502,101.02924982739933 89.37320830824319,100.71662628155173 89.65050433648867,98.57759069337044" stroke="#4DD2FF" stroke-linecap="round" stroke-linejoin="round" stroke-width="0.5"><title>2025-08-21 5.0km</title><desc>1755781186000</desc></polyline><polyline fill="none" points="111.84606911745504,96.54545454544859 111.86725754916552,98.06554397585569 111.44348891527625,100.79509482470894 111.29516989341937,101.08112024084403 111.23160459834617,101.56327506878733 111.30929551454028,101.8002653655567 110.65245413206867,105.67373194798711 110.6948309954605,106.08231459592935 110.2286854981794,109.43261404932855 110.25693674045033,110.84623514234409 110.85021282787784,116.1818181818162 111.25985584061709,116.10828268784098 110.97734341802425,113.01156034155429 110.61007726867683,110.8053793898871 110.58888883696636,109.24467411466321 111.0479715236579,106.1231727465929 111.16803930327296,105.94339672843489 111.65537323223543,101.8819859956784 111.88844598087599,101.09746451961837 111.89550879140734,100.19852425540012 112.3687170992489,97.19108743687684" stroke="#4DD2FF" stroke-linecap="round" stroke-linejoin="round" stroke-width="0.5"><title>2025-08-19 5.3km</title><desc>1755607955000</desc></polyline><polyline fill="none" points="133.6833397547598,116.08509824939392 134.0252821247559,116.1818181818162 134.0252821247559,115.5311547357851 134.15446035339846,115.24099243240926 134.31403345940635,113.23620811403816 134.77755533868913,110.20256456804054 134.73196302269935,108.21525054955418 134.2152501080709,104.88244004629814 133.97968980876612,102.13871075392672 133.8353141414118,101.41758797044167 133.4629768941668,100.79319631323597 133.54656280679046,100.64369341656857 133.9113013347669,100.72284204111202 133.75172822875902,99.07829462559312 133.35659482347546,98.5418312174952 133.38698970081168,97.50407288438873 133.01465245350846,96.54545454545587 133.417384578177,97.54804594776942 133.37179226212902,98.53303670767491 133.72893207077868,98.9199942939158 133.9113013347669,100.71404775307019 133.5313653681369,100.66128200606181 133.4933717714739,100.77560775056918 133.93409749277635,101.78694429357711 134.16205907272524,104.43395178560604 134.72436430337257,108.32077279556688 134.71676558401668,109.22650011325459 134.15446035339846,113.12189883645624 133.9872885280638,113.20103604470933 133.88090645743068,113.46482621612813 133.6833397547598,114.75738643117802" stroke="#4DD2FF" stroke-linecap="round" stroke-linejoin="round" stroke-width="0.5"><title>2025-08-17 5.0km</title><desc>1755429603000</desc></polyline><polyline fill="none" points="156.2110892488563,116.13765680020879 156.11186156835174,116.1818181818162 156.22635504588834,116.06699854295584 156.35611432045698,114.12387395912083 156.46297489947756,113.4437700916751 156.81408823063248,113.15229537648702 156.80645533208735,112.48101655677601 157.2796950392658,109.81351527148945 157.34839112579357,108.61222967521462 156.5164051889733,101.64267894459772 156.08132997431676,100.7946346202807 156.16529185787658,100.69746234614286 156.53167098597623,100.72396388623747 156.37138011743082,99.01018098487111 156.00500098930206,98.55081075013732 156.02789968482102,97.55255551871232 155.6386218612024,96.54545454545587 156.05079838033998,97.57022385262826 155.99736809078604,98.50664040724223 156.3637472189148,98.9395087991943 156.54693678300828,100.71513004043663 156.15765895936056,100.67096079798648 156.10422866983572,100.8034684579834 156.5622025799821,101.74868390306801 157.34839112579357,108.19707564476266 157.34075822724844,109.24820647125307 156.8293540276063,113.01097395056422 156.44770910247462,115.44873634191026 156.2874182339292,115.5723891339585 156.23398794440436,115.94334645457275" stroke="#4DD2FF" stroke-linecap="round" stroke-linejoin="round" stroke-width="0.5"><title>2025-08-16 5.1km</title><desc>1755350047000</desc></polyline><polyline fill="none" points="178.97636409199913,116.12880066895741 178.70145609453903,116.1818181818162 178.8312737600063,116.04927433908597 179.19781775661977,113.30998968944914 179.40399875468574,113.2039511293915 179.35818075510906,112.91234442250425 179.90799675002927,109.66925845893275 179.94617841634317,108.26417820712959 179.12145442396286,101.66264811815199 178.7090924278018,100.8318979726464 178.7930920936924,100.67281725171779 179.12909075725474,100.72584419104533 178.96109142547357,98.98477610871487 178.60218376212288,98.57822726951417 178.65563809496234,97.70325701237016 178.22800343224662,96.54545454545587 178.62509276191122,97.47346538325655 178.61745642867754,98.53403706369863 178.96109142547357,98.94942411124066 179.15963609030587,100.71700637006143 178.76254676064127,100.68165507719095 178.72436509429826,100.80538453938061 179.05272742459783,101.33565166805784 179.190181423357,101.86591556165513 179.43454408776597,104.7027724444415 179.91563308329205,107.9018582329154 179.95381474960595,109.18322697855183 179.37345342163462,112.90350784034672 179.4192714212113,113.16860491398984 179.17490875683143,114.5294238355782 178.97636409199913,114.98007995310763" stroke="#4DD2FF" stroke-linecap="round" stroke-linejoin="round" stroke-width="0.5"><title>2025-08-14 4.9km</title><desc>1755170321000</desc></polyline><polyline fill="none" points="21.71119311550865,118.38006358767598 21.54083512473153,118.36363636363967 21.590522872080328,119.8502866210838 21.17882439441746,122.64281540213415 21.029761152516585,122.93848927271756 21.029761152516585,123.71052150341711 20.61096442528651,126.65895973635634 20.476097682636464,127.4638072027883 20.369623938400764,127.52950868311746 20.433508184942184,127.94014172558673 19.943728961545276,131.31546631884703 19.986318459239556,132.75260556097783 20.582571426813956,137.93430702521437 20.98717165485141,138.0 20.29154319263762,131.4961366556454 21.44855787974666,123.29986697932327 21.611817620898364,122.96312871309783 21.54083512473153,122.67566810783319 21.87445285663125,120.34309282734466" stroke="#4DD2FF" stroke-linecap="round" stroke-linejoin="round" stroke-width="0.5"><title>2025-08-12 5.0km</title><desc>1754999139000</desc></polyline><polyline fill="none" points="44.035977906081825,118.42942777861754 44.128371157014044,118.36363636363967 44.13547833019402,119.7534686369836 43.69483359492733,122.58240261507308 43.54558295881725,122.86200118596753 43.39633232267806,124.76160120120767 42.927258894836996,127.51635320042988 42.45107829384506,131.48796497927833 42.49372133275028,132.7049001980995 42.991223453194834,136.82425463577238 43.510047093092,138.0 42.813544124452164,131.53730054653715 43.86540575051913,123.94749236726057 44.12126398386317,122.8948950719714 44.05729942553444,122.66463758910686 44.35580069781281,120.44426396481867 44.56190871912986,119.60544029967423" stroke="#4DD2FF" stroke-linecap="round" stroke-linejoin="round" stroke-width="0.5"><title>2025-08-10 5.0km</title><desc>1754830447000</desc></polyline><polyline fill="none" points="65.82466733446927,138.0 66.88803168942104,131.67045650671207 66.95688261889154,130.1831683630735 66.39077497669496,126.26120938023814 66.12302136208746,123.40152071518241 65.69461557877366,122.64010170925758 65.75581640499877,122.48073409792414 66.14597167191096,122.5604179400616 65.97766939993016,120.80735656731122 65.61046444278327,120.37351269829378 65.63341475257766,119.38186145102372 65.24325948566548,118.36363636363967 65.64871495918487,119.41727776147309 65.61811454605777,120.38236667642195 65.97766939993016,120.8162105013107 66.16127187845996,122.53385666745453 65.77111661151866,122.51614914787206 65.72521599187166,122.61354046096676 66.16127187845996,123.5520329863648 66.51317662902875,127.0314500256136 66.92628220579354,129.5634574738724 66.96453272213694,130.9710801264373 66.07712074244046,137.25641313759115 65.83231743768556,137.5131283669616" stroke="#4DD2FF" stroke-linecap="round" stroke-linejoin="round" stroke-width="0.5"><title>2025-08-09 5.0km</title><desc>1754735080000</desc></polyline><polyline fill="none" points="89.29094682182767,118.3636363636324 89.3335719871684,119.74466659722384 89.05650841246825,121.91480933663843 88.70129870128585,123.41085869400558 88.62315256486181,124.7671432719435 88.14717155185645,127.54540070320218 88.17558832879877,127.9728164577682 87.6925031216233,131.22767777222907 87.6782947331667,132.34547873520933 88.28925543636433,137.5397630348234 88.76523644928238,138.0 88.0690254154324,132.64136464147305 88.10454638654483,130.89069062992348 89.12044616046478,123.90405571629526 89.24832165648695,123.1067190317699 89.36909295828082,122.95053876097518 89.31225940451259,122.61351714946795 89.72430266943411,119.82687003440515" stroke="#4DD2FF" stroke-linecap="round" stroke-linejoin="round" stroke-width="0.5"><title>2025-08-07 5.0km</title><desc>1754570205000</desc></polyline><polyline fill="none" points="111.6390163800097,118.36363636363967 111.68292800339987,118.92256189510226 111.82930008138646,118.98184165587008 111.7780698541319,119.37986181466113 112.17327446470154,119.43914125017182 112.21718608806259,119.80328542889038 111.81466287359945,121.81875234434847 111.69756521121599,122.89421264817793 111.7780698541319,123.18212880009378 111.65365358782583,123.30068222062982 111.41945826305891,124.68097035041137 110.38753511323011,132.18324110718822 111.02425365248928,138.0 110.3802165093366,132.04776590490656 110.83396995111252,128.6184765407088 111.00229784077965,128.15275969939103 111.40482105524279,124.68097035041137 111.60974196443567,123.40229930404894 111.74147683460615,123.17366069215495 111.69024660732248,122.84340381227958 112.09276982178562,119.87950145102513" stroke="#4DD2FF" stroke-linecap="round" stroke-linejoin="round" stroke-width="0.5"><title>2025-08-05 5.0km</title><desc>1754406000000</desc></polyline><polyline fill="none" points="133.5987593809259,138.0 133.938581683964,135.18485984429572 134.1471090062987,135.02399197068007 134.47148484105128,132.8433095404107 134.71090510001522,131.09157464955206 134.72635156835895,130.00119143232587 134.16255547464243,126.13111559839308 133.94630491815042,123.55692924583127 133.75322406410123,122.88655584544176 133.4597411660361,122.46645257547789 133.529250273481,122.33237664112676 133.90768874733476,122.36813024363073 133.7300543616584,120.60724804225174 133.36706235611928,120.22288835373183 133.39795529277762,119.13237032075267 133.06585622386774,118.36363636363967 133.40567852690583,119.2485737060124 133.36706235611928,120.13350213875674 133.74550082997303,120.59830946392321 133.91541198149207,122.35919184436352 133.81500993741793,122.44857579602103 133.4442946977506,122.37706864196662 133.938581683964,123.4228549747495 134.25523428453016,126.8104022051557 134.72635156835895,130.028004296546 134.71862833417254,131.13626219787693 133.81500993741793,137.3207998293583 133.76867053247406,137.472726638749 133.56786644429667,137.48166350170504 133.49063410266535,137.82126362152485 133.27438354617334,137.8033899637012" stroke="#4DD2FF" stroke-linecap="round" stroke-linejoin="round" stroke-width="0.5"><title>2025-08-03 5.0km</title><desc>1754221111000</desc></polyline><polyline fill="none" points="166.31168831167452,127.11941729258433 166.2513151721214,127.36974694663695 166.09535122831585,127.38430092900126 163.03141439649335,127.32317415337275 162.94840132963145,127.27077967045079 162.82765505053976,127.32026335127557 162.4377451909968,127.317352548891 162.40504307374067,127.2853337030956 161.70823642153118,127.32608495516797 161.36612196410715,127.27369047757202 160.26179661997594,127.27077967045079 159.78384259858285,127.19509858149286 159.45933697353757,127.1106848233012 159.43921259368653,127.07866574651416 158.988929594605,127.06411160886273 158.00031943457725,126.88946138031679 156.54633299060515,126.87781799388358 153.51258272855193,127.25622563040997 153.10254848915793,127.44542757420459 152.66232767998008,127.57932357934078 151.4800203639461,128.2982762096708 150.85364904117887,128.61554106596304 150.46877027659502,128.72614633676312 150.2423710033181,128.72905699601688 149.95559859048808,128.65920109229592 149.6512173452793,128.78435946567697 149.5480798985518,128.5806129970133 149.42481807200238,128.66211175834906 149.32419617276173,128.4729178496691 147.6111083382275,129.48581836975245 147.48029986921756,129.1569206899767 146.9520348982187,128.14691926053456 146.90172394859837,128.11199062025116 146.67532467532146,128.22259783505615 146.82374197668105,128.1090798983114 146.89669285363925,128.10034773070038 146.91933278096258,128.02757956377172 147.00989249028498,128.03340102392394 147.13063876937667,127.95190047409596 147.16585643410508,127.99265077799646 147.25641614341293,127.93443604040112 147.22622957364365,127.98974004392403" stroke="#4DD2FF" stroke-linecap="round" stroke-linejoin="round" stroke-width="0.5"><title>2025-08-02 8.3km</title><desc>1754134728000</desc></polyline><polyline fill="none" points="179.61577767741983,118.36363636363967 179.51009943854297,118.38809310501529 179.4466924951994,119.0484223037347 179.975083689671,119.0484223037347 179.975083689671,119.57831217467174 178.21377970805042,131.23500413567672 178.2208249239775,132.4657867726055 178.95352738033398,138.0 178.2560510036128,132.62065212532616 178.20673449212336,131.42247555703943 179.24942644924158,123.97218720758246 179.51009943854297,122.96137270199688 179.43964727927232,122.73312250301387 179.77077242778614,120.32830416385696" stroke="#4DD2FF" stroke-linecap="round" stroke-linejoin="round" stroke-width="0.5"><title>2025-07-31 5.0km</title><desc>1753965181000</desc></polyline><polyline fill="none" points="20.520306058228016,159.8181818181838 20.604991867323406,159.10550508318556 20.820555745071033,158.84715833600785 21.605824156780727,153.43951890712196 21.690509965876117,151.44386423379183 21.290177050075727,149.02050818218413 20.866748004569672,145.02004220275558 20.45871637883829,144.23596510481002 20.543402187962784,144.12013493873383 20.88214542440255,144.1646850207253 20.735869935917435,142.3915742681129 20.34323573007714,141.9638838912142 20.389427989604883,140.97484189851093 20.081479592830874,140.1818181818162 20.39712669950677,140.99266257374256 20.366331859811908,141.9817043652656 20.735869935917435,142.4450354184155 20.91294026406831,144.1468649906601 20.812857035110937,144.23596510481002 20.504908638366032,144.1112249196085 20.474113798700273,144.24487511125335 20.936036393832183,145.2695198080546 21.205491240980336,148.2631956738478 21.736702225374756,152.08532961988385 21.182395111216465,156.70017832829762 20.77436348554329,159.25694937411026 20.628087997058174,159.31930871200166" stroke="#4DD2FF" stroke-linecap="round" stroke-linejoin="round" stroke-width="0.5"><title>2025-07-29 5.0km</title><desc>1753797916000</desc></polyline><polyline fill="none" points="44.348719514353434,140.18181818182347 44.33456445543561,141.68050826260878 44.00899809942348,143.97353204624233 43.754207038204186,144.73512908650446 43.58434633075376,146.8315310877224 43.11015185571159,149.33731507939228 43.1667720915284,149.7795041698846 42.699655145959696,152.88294825141202 42.727965263911756,154.52878964951378 43.308322681084974,159.8181818181838 42.76335291127907,155.22478212446003 42.664267498621484,153.48069552944798 43.11722938521416,149.46833432198036 43.74712950873072,145.46396252693376 43.68343174344045,145.25923469797272 43.987765511032194,144.01447830670077 44.33456445543561,141.2464642752966" stroke="#4DD2FF" stroke-linecap="round" stroke-linejoin="round" stroke-width="0.5"><title>2025-07-27 5.0km</title><desc>1753616848000</desc></polyline><polyline fill="none" points="66.66474935453152,140.1818181818162 66.68565071790363,141.9070464507313 66.3024590559944,144.63186328607117 66.14918239120743,144.92207495017647 65.93320163630415,147.29209714786703 65.54304285324179,149.45246388043597 65.57091133773793,149.8635717850484 65.06231149556697,153.2168430153106 65.69631951802876,159.8181818181838 66.11434678558726,159.75370253086294 65.81476057716645,156.52161115403578 65.47337164197234,154.256650751704 65.45943739975337,153.04757069929474 66.420900115103,146.2683207328446 66.74138768692501,144.9140135294001 66.67171647568466,144.5996174800821 67.14548071223544,141.72968826525903" stroke="#4DD2FF" stroke-linecap="round" stroke-linejoin="round" stroke-width="0.5"><title>2025-07-26 5.2km</title><desc>1753529066000</desc></polyline><polyline fill="none" points="89.3790463010373,140.18181818182347 89.29432785106474,140.6066155572771 89.4072857843712,141.15394732809364 89.2731482385716,142.44465525767737 88.9766336636967,144.4541972471343 88.82131650540396,144.7401036117226 88.80013689291081,145.59781660610315 88.17180838898639,149.36347683210624 88.22122748475522,149.72287987014715 87.75527600996429,153.1452965170247 87.81881484741461,154.9667142594044 88.37654464304796,159.8181818181838 88.77895728041767,159.77734577013325 88.46126309304964,156.81259330129978 88.53186180134071,156.6574104108513 88.1294491640001,154.3541344199548 88.12238929313025,153.2596468263655 89.64732139260741,142.58352766104508" stroke="#4DD2FF" stroke-linecap="round" stroke-linejoin="round" stroke-width="0.5"><title>2025-07-24 5.0km</title><desc>1753356656000</desc></polyline><polyline fill="none" points="110.95429135437007,159.78275709061563 111.05378756052232,159.8181818181838 111.39054395048879,157.01958397674025 111.6124970257224,156.87788042981265 111.55892214551568,156.60332915194158 112.13293871932547,153.05179756018333 112.17120649095159,151.98010997210076 111.5971899170836,148.19809884697315 111.35992973324028,145.3991277599489 110.90071647419245,144.43363902463898 110.96959846303798,144.291915006841 111.34462262457237,144.3627770445528 111.14563021232607,142.5823508760368 110.8165273766499,142.22803286898124 110.84714159392752,141.27136705066368 110.4261961064476,140.1818181818162 110.8088738223305,141.05877321968728 110.8012202680111,142.19260098902305 111.15328376664547,142.56463500990503 111.35227617892087,144.309630521675 111.25277997279773,144.40706578885874 110.98490557164769,144.30077276471275 110.90071647419245,144.40706578885874 111.16859087528428,144.78794806032238 111.35992973324028,145.4257006931075 111.70433967752615,148.95097129204805 112.14824582796427,151.829541238425 112.14059227367397,153.00751321017015 111.30635485300445,158.80857144015317" stroke="#4DD2FF" stroke-linecap="round" stroke-linejoin="round" stroke-width="0.5"><title>2025-07-22 5.0km</title><desc>1753184035000</desc></polyline><polyline fill="none" points="124.07792207796592,153.23860314654303 124.07792207796592,150.08763795541017 126.16560942924116,141.26478210883215 143.04864626913331,144.34580506253405 143.71428571431898,145.08104510433623 141.4450603327714,158.70020788372494 126.28663478291128,156.3195190265542 125.74202069127932,155.61931329104118 127.61791367351543,142.0000287258299 128.2835531187011,141.579887993983 132.3076461291639,142.24511058285134 143.68402937601786,144.76594242147985 141.68711104011163,158.42012769548455 141.05172793322708,158.73521789119695 125.98407139861956,156.1794779933116 126.16560942924116,151.69813487568172 127.64817001193296,142.07005213137018 128.13227142661344,141.6499114848848 135.57533067872282,142.91033188733854 127.98098973464221,141.71993496155483 127.13381225883495,145.57120426060283 127.8902207192732,146.30644168730942" stroke="#4DD2FF" stroke-linecap="round" stroke-linejoin="round" stroke-width="0.5"><title>2025-07-20 4.9km</title><desc>1753020627000</desc></polyline><polyline fill="none" points="157.62214697233867,140.18181818182347 157.4740129095153,141.1857885859572 156.92380067607155,142.5978558059578 156.45823647856014,144.71999107555894 156.33126442466164,146.3931735942242 155.89391623911797,149.19261569580704 155.79516019724542,149.28239210837637 155.84453821819625,149.68230400022003 155.3860280236404,152.98762200633792 155.3648660146864,154.08120346599753 155.99267228101962,159.8100214001024 155.92213225111482,158.68387575823726 155.9997262840334,159.8181818181838 156.40180445462465,159.73657760001515 155.7246201673115,153.34671009662998 156.80388262521592,145.46272517723264 157.02961072095786,144.7526388726401 157.0578267329256,143.79768532628077" stroke="#4DD2FF" stroke-linecap="round" stroke-linejoin="round" stroke-width="0.5"><title>2025-07-20 5.0km</title><desc>1752942252000</desc></polyline><polyline fill="none" points="179.9376138045045,140.1906050237376 179.81611357658403,140.18181818182347 179.62626947037643,141.14836543944693 179.8388948693173,141.280166501223 179.82370734080905,141.5613414283871 179.55792559217662,143.3538101000231 179.41364407146466,143.66133775620256 179.04154962333268,147.16707575585315 178.7302052891755,148.599203534337 178.760580346192,149.02092989484663 178.2214230845857,153.0535843943435 178.9504244523414,159.8181818181838 178.27457943433546,154.17812555185083 178.25939190585632,152.4737371485826 178.760580346192,149.0736455453589 178.73779905340052,148.6079895211442 179.29214384348597,145.269250268233 179.40605030718143,143.65255126691773 179.55792559217662,143.33623705807258 179.96039509726688,140.4629966800203" stroke="#4DD2FF" stroke-linecap="round" stroke-linejoin="round" stroke-width="0.5"><title>2025-07-17 5.0km</title><desc>1752765839000</desc></polyline><polyline fill="none" points="29.334152334253304,181.22200390596117 29.776412776554935,180.6078989355301 30.727272727293894,172.59880947700003 16.50859950867016,171.95909485967422 13.943488943623379,172.16380371409468 14.253071253071539,171.95909485967422 13.788697788724676,169.06756451298133 11.157248157309368,164.92212679384102 11.09090909094084,162.5934867776523 11.400491400505416,162.41435973042098 23.761670761741698,162.61907634537783 22.87714987725485,170.67966074909782 22.324324324377812,171.03790295537328 14.606879606842995,170.78201571719546 13.766584766563028,168.09518401479 11.599508599494584,165.33155577916477 11.334152334136888,163.87296197995602 14.407862407853827,163.64265692341723 23.363636363646947,163.94973028535605 23.496314496384002,165.8689303119172 22.700245700310916,172.11262651610014 21.506142506143078,172.18939230915566" stroke="#4DD2FF" stroke-linecap="round" stroke-linejoin="round" stroke-width="0.5"><title>2025-07-15 4.1km</title><desc>1752589649000</desc></polyline><polyline fill="none" points="44.29562100220937,161.99999999999272 44.355460054037394,163.39347423296567 43.89170740250847,166.30152094725054 43.72715001000324,166.6390556539045 43.71967012854293,167.49586851865024 43.061440558638424,171.51152307588927 43.091360084566986,171.96154153473617 42.590208025620086,175.69141074043728 43.188598543725675,181.63636363636033 42.84452399582369,179.28266186005203 42.58272814415977,175.5010269390259 43.704710365622304,167.43528607395274 43.63739143230487,167.1583372066525 43.86178787657991,166.3621041981969 44.30310088372789,163.48002467564947 44.250741713360185,163.17709774151444 44.430258868815145,162.25965531190013 44.26570147633902,162.05193112570123" stroke="#4DD2FF" stroke-linecap="round" stroke-linejoin="round" stroke-width="0.5"><title>2025-07-13 5.0km</title><desc>1752418082000</desc></polyline><polyline fill="none" points="65.9333639194665,181.63636363636033 65.83259490141063,181.62739416160184 65.89460660482291,180.91880277700693 66.23567097372143,178.76608519825822 66.43720900989138,178.58668969672 66.78602484165458,176.14687467394106 66.97205995192053,173.6262596418601 66.46046339863096,170.1188071873621 66.19691365907784,167.1853575356945 66.04188440047437,166.61121530464152 65.71632295745076,166.0908956804269 65.78608612384414,165.95632976096385 66.15815634440514,166.01015615339566 65.99537562290789,164.30563778064243 65.62330540231778,163.83913227539597 65.64655979111558,162.77154308658646 65.38301005156245,162.03588587456034 65.22022933000699,162.03588587456034 65.35975566273555,161.99999999999272 65.62330540231778,162.654914913408 65.61555393939489,163.84810355839 65.95661830823519,164.16209788792912 65.99537562290789,164.34152271732455 66.15815634440514,165.98324296127976 65.77833466092125,165.96530082864774 65.69306856868207,166.06398251299106 66.03413293758058,166.55738927893253 66.18916219615494,167.10461901021336 66.50697217622655,170.59425008726248 66.98756287779543,173.56346760099404 66.97981141487253,174.711657858752 66.03413293758058,181.16994974132103" stroke="#4DD2FF" stroke-linecap="round" stroke-linejoin="round" stroke-width="0.5"><title>2025-07-12 5.1km</title><desc>1752325602000</desc></polyline><polyline fill="none" points="88.58298871442094,181.63636363636033 88.39216615483747,181.62753136183892 88.81960868826718,178.68633403154672 88.99516544304788,178.59800824803824 89.48367119551403,175.32105823651364 89.56000021935324,173.66928726759215 89.10965897879214,170.7101538153438 88.76617837155936,167.11489190032444 88.30820422861143,166.18734318493807 88.36926744764787,166.09017084166408 88.7509125668148,166.15200779995212 88.575355812005,164.35871813884296 88.23187520477222,163.97885400122323 88.21660940002766,162.78624649600533 87.83496428088984,161.99999999999272 88.23950810715905,162.88342253505107 88.23187520477222,163.97001993176673 88.58298871442094,164.36755216879828 88.7738112739462,166.1255062517739 88.40743195958203,166.08133698687743 88.3234700334142,166.22267855551763 88.78144417633303,167.18556187264767 89.11729188114987,170.6924870443545 89.56763312171097,173.60745565911202 89.49130409790087,175.27689364588878 88.75854546917253,180.15252892537683" stroke="#4DD2FF" stroke-linecap="round" stroke-linejoin="round" stroke-width="0.5"><title>2025-07-10 5.0km</title><desc>1752149320000</desc></polyline><polyline fill="none" points="108.54491871374194,162.0 108.59091090719448,163.224032832004 108.92435430997284,163.05107236516778 109.63723330904031,163.2905560276413 110.40760254987981,163.224032832004 111.26995617779903,163.5433438628388 115.71970089757815,164.12874539702898 115.84617942961631,164.30170444036776 114.82285312458407,170.83406721212668 114.32843704457628,170.87397881411016 114.23645265761297,171.04692894872278 114.06398193206405,172.20435858612473 114.19046046410222,172.70989935606485 113.40859317488503,177.1133430115442 107.68256508588092,176.94040088757174 107.48709826351842,176.8073683291732 106.75122316781199,181.6363636363676 107.52159240865149,176.88718788042024 109.75221379270079,176.92709763777384 110.49958693684312,176.6344258011959 110.60306937224232,176.94040088757174 113.4430873200181,177.03352359810378 115.42075163987465,164.64762184169376 115.36326139804441,164.1952681330731 109.4417664866778,163.1575096025481" stroke="#4DD2FF" stroke-linecap="round" stroke-linejoin="round" stroke-width="0.5"><title>2025-07-08 5.1km</title><desc>1751976330000</desc></polyline><polyline fill="none" points="124.25281973741949,181.4575665651937 124.21067865594523,181.6363636363676 124.4775721723563,181.52258370508207 124.56185433542123,180.6123413413443 125.05350028671091,180.20598147086275 125.15182947699213,179.7833661104669 126.57057922205422,169.94911645364482 126.69700246665161,166.9743399980216 126.3598738143919,164.77979730836523 127.13246030925075,164.7472853384097 127.32911868975498,165.03989282989642 130.04019493539818,165.43003531899012 132.21748414821923,165.3975234812824 133.80479821941117,166.031503124992 138.86172800388886,166.77927075621847 139.78883179777768,162.0 143.58152913622325,162.8453235928173 140.19619558594422,162.04876879032236 139.56407936289907,164.86107720425935 139.46575017261785,166.81178231304511 129.9980538538075,165.54382669906772 127.32911868975498,165.0561487859668 127.09031922777649,164.69851737108547 126.31773273285944,164.8285652508639 126.62676733080298,166.12903823168017 126.68295543955173,168.94127489051607 125.09564136818517,179.83212947830907" stroke="#4DD2FF" stroke-linecap="round" stroke-linejoin="round" stroke-width="0.5"><title>2025-07-06 5.0km</title><desc>1751807521000</desc></polyline><polyline fill="none" points="149.66412567865336,180.4192233338108 150.51489792059874,174.36919526579732 147.76148957386613,174.17229736965965 146.89524874574272,174.47659402547288 148.02445553959114,174.36919526579732 147.8697696774616,174.19019718747586 150.7159895413788,174.351295466171 150.91708116227528,174.17229736965965 150.82426964497427,173.61740211451252 151.98441361117875,166.2962010204792 151.8761335076997,162.64443683478748 153.87158112978796,162.44752582992078 166.09176424134057,164.4524275874137 166.07629565510433,163.86169997719117 152.63409423234407,162.0 152.85065443941858,166.42150531054358 151.4430130936089,176.37396131490823 151.8297277490492,176.9825464935857 151.47395026602317,177.64482797533856 151.55129319708794,179.07677942339797 151.00989267945988,179.20207462125109 150.7623953000293,181.6363636363676 149.5094398164656,181.49317109612457 149.5867827475886,180.43712251682882" stroke="#4DD2FF" stroke-linecap="round" stroke-linejoin="round" stroke-width="0.5"><title>2025-07-05 4.8km</title><desc>1751729502000</desc></polyline><polyline fill="none" points="182.25139235606184,181.63636363636033 182.44572627852904,181.49434034393198 182.47641058202134,180.68953841560142 182.74234121275367,179.517831548721 182.88553462928394,179.47048960938992 183.06964045058703,177.75433131522732 179.07045288855443,177.58863193433353 179.32615541812265,176.70095266506542 179.70459516183473,172.70039413136692 179.74550756654935,169.77682213139633 179.60231415001908,169.38621788445016 179.75573566771345,166.9952178737949 179.74550756654935,161.99999999999272 174.3757544461987,163.9294579003763 174.26324533316074,164.2017101217425 174.30415773799177,163.96496909578127 177.19871037232224,162.86411700113968 177.24985087825917,165.30254956868885 177.5362377113197,165.91806816326425 179.67391085828422,165.91806816326425 179.68413895944832,169.04295852515497 179.90915718546603,169.14948740012187 179.99098199489526,169.52825594404567 183.73446702735964,169.76498565832298 183.91857284866273,170.70006332454068 183.89811664627632,172.4044893728933 182.60937589744572,181.19845792848355" stroke="#4DD2FF" stroke-linecap="round" stroke-linejoin="round" stroke-width="0.5"><title>2025-07-03 5.2km</title><desc>1751545471000</desc></polyline><polyline fill="none" points="20.564991348830517,203.45454545454413 21.03143741938402,200.57883392557414 21.222603841713862,200.44610648515663 21.711989882955095,196.81814476146246 21.75022316738614,195.56159593992925 20.91673756594537,188.88919480302138 20.511464750597952,188.04847137299657 20.595577976404456,187.93342437718093 20.9396775366331,187.99537277843046 20.77909774184809,186.27850076284085 20.404411554074613,185.80060252626572 20.412058210960822,184.71204674594628 20.052665336988866,183.81818181817653 20.442644838563865,184.7916976306151 20.404411554074613,185.81830250775965 20.74851111427415,186.15460147202975 20.80203771253582,186.42894966457243 20.9396775366331,187.98652300951653 20.564991348830517,187.95997369739052 20.511464750597952,188.0750206581215 20.92438422286068,188.88919480302138 21.32201038132189,192.67677439249383 21.765516481158556,195.5350489382181 21.63552331397659,197.51720280344307 20.794391055649612,203.15370623498166" stroke="#4DD2FF" stroke-linecap="round" stroke-linejoin="round" stroke-width="0.5"><title>2025-07-01 5.0km</title><desc>1751376396000</desc></polyline><polyline fill="none" points="42.81641713104909,203.45454545454413 42.95821364654694,203.2795296244076 42.92985434347065,202.63415629172232 43.15672876825556,202.41538479235896 43.31743148580426,201.5621716965543 43.56321211269824,198.55399464698712 43.90352374990471,197.3835175841523 44.2816477912711,194.30958730415296 44.187116780958604,192.54832790037472 43.65774312301073,189.40862007929536 43.298525283811614,185.60146471064218 42.73133922176203,184.1901573764626 43.2323535765172,184.28862127959292 43.251259778568055,183.8181818181838 43.251259778568055,184.2667404199965 42.81641713104909,184.17921693722747 42.740792322787456,184.28862127959292 43.10001016204478,184.82470094900782 43.31743148580426,185.57958411805885 43.71446172927972,189.82433578408381 44.2816477912711,193.5985233124229 44.23438228608575,195.35976552956708 43.043291555834,203.0826364754539" stroke="#4DD2FF" stroke-linecap="round" stroke-linejoin="round" stroke-width="0.5"><title>2025-06-30 4.1km</title><desc>1751292736000</desc></polyline><polyline fill="none" points="56.50617675005924,194.8468388659021 56.28571428571013,193.25342535303207 56.36173582513584,193.08615924635524 62.276211593271,192.80444717664068 63.21887868226622,192.89248229713849 64.7545137788984,192.74282253893762 67.05796642380301,192.76923310334678 75.92207792206318,192.2058059777628 73.27652834969922,192.39068090846558 72.66075388027821,192.59316252140707 71.52043078871793,192.54034127682098 65.75039594550617,192.83966123562277 60.38327526129433,192.9364998237288 60.223630028485786,193.0773557581051 60.59613557171542,195.06692129496514 60.42128603102174,195.04931472128374 60.208425720600644,194.01052052153682" stroke="#4DD2FF" stroke-linecap="round" stroke-linejoin="round" stroke-width="0.5"><title>2025-06-26 5.0km</title><desc>1750950176000</desc></polyline><polyline fill="none" points="98.51948051946238,194.4400263329735 98.20242405604222,192.83270093974716 89.75463072984712,193.60781112269615 88.85278123384342,193.61597013732535 85.59766820905497,193.20801838657644 78.88311688310932,193.49358483039396 85.3722058350686,193.1998593303506 88.85982693301048,193.6241291511542 94.86980834021233,193.07747338723857" stroke="#4DD2FF" stroke-linecap="round" stroke-linejoin="round" stroke-width="0.5"><title>2025-06-24 5.0km</title><desc>1750769966000</desc></polyline><polyline fill="none" points="121.11688311686157,194.42273320027743 120.84808563190745,192.8499940724505 112.48706912682974,193.64455883254413 111.46846813126467,193.6773242210329 108.17216213178472,193.2513731289655 101.48051948050852,193.54626258698408 107.99532168117003,193.2513731289655 111.4613945132296,193.6773242210329 118.5420861558814,193.04658814652066" stroke="#4DD2FF" stroke-linecap="round" stroke-linejoin="round" stroke-width="0.5"><title>2025-06-22 5.0km</title><desc>1750563938000</desc></polyline><polyline fill="none" points="134.56715161175816,203.45454545454413 133.5522808615642,197.39138065227235 133.5380537015153,195.73817112885445 133.6281590484723,195.04611486690192 133.5712504083058,193.26650078852254 133.59021995501826,192.9589072097515 133.69455246205325,192.783138661689 133.59021995501826,192.70074695729636 133.5854775683256,191.57471436374908 132.43307760436437,184.64222912376135 132.14379201666452,183.81818181818016 132.43781999099883,184.53785049613361 133.5712504083058,191.45936335390434 133.63290143516497,194.8319051741746 133.5522808615642,195.74366360330168 133.54753847487154,197.33645756265832 134.3252898909268,201.9937366177728 134.43436478462536,202.31226222158875 135.64841577553307,202.24636052702044" stroke="#4DD2FF" stroke-linecap="round" stroke-linejoin="round" stroke-width="0.5"><title>2025-06-21 8.0km</title><desc>1750517001000</desc></polyline><polyline fill="none" points="158.48567228741013,203.45454545454413 156.8223105566576,193.22604571201373 153.89530968148028,193.16631514891924 148.6215503954445,192.65860437924857 148.72470461128978,192.12102635212068 148.518396179541,191.09066295213415 148.80207027320284,184.35579032005626 148.7633874422172,183.87791619363998 148.505501902604,183.81818181817653 148.18314497795654,192.10609360100352 148.67312750336714,192.16582459639176 148.69891605729936,192.67353707410803 156.86099338758504,193.21111307354295 157.85385271522682,199.60214325538254 158.16331536287908,200.4532640871039 164.80386800906854,200.24421732340124" stroke="#4DD2FF" stroke-linecap="round" stroke-linejoin="round" stroke-width="0.5"><title>2025-06-19 5.0km</title><desc>1750345525000</desc></polyline><polyline fill="none" points="188.90909090911737,194.12794774734357 188.72885375499027,193.0568995963913 183.1699604743335,193.5841875000806 182.4537549407105,193.60066516391453 180.07272727275267,193.32603677518637 171.25059288539342,193.72699375280354 170.4869565217523,193.85332204555016 169.2727272727352,194.21582767633663 170.98498023714637,193.7544564503296 174.0869565217581,193.61714282274625" stroke="#4DD2FF" stroke-linecap="round" stroke-linejoin="round" stroke-width="0.5"><title>2025-06-17 5.1km</title><desc>1750166247000</desc></polyline><polyline fill="none" points="11.768025078286882,222.86457340772904 11.090909090882633,218.51277066301554 26.393730407464318,218.0619025874039 23.905329153640196,208.24055744035286 26.91849529778119,208.4169932146615 30.727272727235686,208.04451750135922 24.71786833857186,208.39738924772246 26.935423197515775,217.23857554809365 20.36739811906591,217.5522243596497" stroke="#4DD2FF" stroke-linecap="round" stroke-linejoin="round" stroke-width="0.5"><title>2025-06-16 3.2km</title><desc>1750084948000</desc></polyline><polyline fill="none" points="53.324675324663986,216.36227837131446 53.023795559303835,214.54681253776653 43.371889400907094,215.43621199338668 42.50092165899696,215.445381014164 38.68449937159312,214.97775976380944 33.68831168831093,215.21615521475906 38.526141600334086,214.96859069538186 42.4930037704471,215.42704297169985 50.68010054464685,214.73936368111754" stroke="#4DD2FF" stroke-linecap="round" stroke-linejoin="round" stroke-width="0.5"><title>2025-06-15 4.6km</title><desc>1749956754000</desc></polyline><polyline fill="none" points="75.92207792206318,216.2442695138161 75.68303876573918,214.66482139526488 67.27448491359246,215.4382663862052 66.39566448589903,215.45454935816815 62.697588126146,215.0393325365876 56.28571428571013,215.33242698763934 62.82413826772245,215.0393325365876 66.33941997852526,215.45454935816815 68.17439703154378,215.36499297137198 68.51889463915722,215.2510119702274 72.97627184845624,214.85207718540187" stroke="#4DD2FF" stroke-linecap="round" stroke-linejoin="round" stroke-width="0.5"><title>2025-06-14 5.1km</title><desc>1749906363000</desc></polyline><polyline fill="none" points="98.51948051949148,216.62045664162724 98.28339976855204,215.02839227797813 90.14555741287768,215.81638774621388 89.04847627619165,215.82442847575294 85.71557155717164,215.42239099591825 79.43860100297024,215.7198989280805 79.3552783850173,215.5349616967942 79.38999614247587,214.29667515269102 78.88311688310932,214.28863426746102 79.41082679698593,214.31275692069175 79.3552783850173,215.52692093776568 79.4594316574512,215.7198989280805 85.88916034460999,215.4143502254301 89.20123440917814,215.83246920446254 95.79760833230102,215.23745306725323 95.79066478076857,214.91582085427217 97.90844798766193,214.80324926997127" stroke="#4DD2FF" stroke-linecap="round" stroke-linejoin="round" stroke-width="0.5"><title>2025-06-12 5.9km</title><desc>1749735885000</desc></polyline><polyline fill="none" points="121.11688311689068,221.6319669145014 120.49091449094703,218.4803150758089 103.29038529034005,220.00887424060784 101.67103167105233,215.58073864293692 101.48051948053762,210.04933060398616 104.69201069197152,209.9074970261281 107.42722142714774,210.0808491591597 107.57690957695013,209.57655150510254 107.29114129114896,209.46623617399018 101.56216756213689,209.27712399458687 101.68463968462311,215.42315140916617 102.16092016088078,217.21963635200518 103.09987309982534,219.4573340165516 110.72036072035553,218.7954831506213 110.8700488700415,219.39430072279356 120.4500904501183,218.46455665517715 121.03523503529141,221.58469261147548" stroke="#4DD2FF" stroke-linecap="round" stroke-linejoin="round" stroke-width="0.5"><title>2025-06-10 5.3km</title><desc>1749559786000</desc></polyline><polyline fill="none" points="124.59350551926764,210.22644590960408 124.12211494438816,208.31588496959012 124.07792207790771,206.83177347500168 137.43889868579572,206.49059655838937 138.0428678598255,208.72529272123938 137.60093919589417,208.70823408495926 137.46836059668567,209.01528927273466 137.74824875051854,210.60173210309586 137.67459397320636,211.6764106387418 138.1607155035599,213.82574701079284 139.41284671821631,213.77457265599514 141.2689471069607,220.92177272195113 141.29840901790885,221.24586286750855 140.82701844297117,221.38232168849208 141.25421615148662,221.26292022624693 141.401525706111,221.53583772908314 141.01852086395957,221.6040670353541 141.15109946316807,222.23518679953122 142.03495679114712,224.48672981746495 142.6536569207674,224.41850168602832 143.71428571426077,223.8385614463623 142.59473309887107,224.07736061188916 140.6060541109182,216.14563466473192 140.37035882350756,215.46331810396805 139.84004442673177,215.46331810396805 139.44230862910626,213.72339828551048 139.0151109205908,213.89397945953533 138.14598454814404,213.77457265599514 137.65986301773228,211.81287726062874 137.55674632947193,209.28822674458206 136.74654377880506,206.42236109162332 124.12211494438816,206.8658911284001 124.65242934110574,210.32879677305755" stroke="#4DD2FF" stroke-linecap="round" stroke-linejoin="round" stroke-width="0.5"><title>2025-06-08 5.0km</title><desc>1749355299000</desc></polyline><polyline fill="none" points="166.31168831168907,216.26257787446957 165.96632513214718,214.6465130346187 159.63701625005342,215.1770429666285 157.73399464855902,215.44638758699148 156.6767604255001,215.44638758699148 153.32885205248022,215.03828932381293 146.67532467533601,215.332120282932 153.01168178554508,215.03828932381293 156.64151928474894,215.45454953103035 164.2747503752762,214.76894333086966" stroke="#4DD2FF" stroke-linecap="round" stroke-linejoin="round" stroke-width="0.5"><title>2025-06-07 5.3km</title><desc>1749293029000</desc></polyline><polyline fill="none" points="188.90909090908826,216.2324432083551 188.61917700595222,214.67664770074043 179.66013029101305,215.4954911970417 176.02559989521978,215.0778820567284 169.2727272727352,215.35628839146375 175.99731561201042,215.06150518346112 179.2287949717138,215.4954911970417 186.15137329362915,214.86498244389804" stroke="#4DD2FF" stroke-linecap="round" stroke-linejoin="round" stroke-width="0.5"><title>2025-06-05 5.1km</title><desc>1749128617000</desc></polyline><polyline fill="none" points="11.365783822460799,237.14843680100603 11.090909090911737,235.34800352909951 11.193987115228083,235.2684256014618 18.89906943452661,234.9998496166736 20.350751610589214,240.32149525884597 27.961345740885008,240.2220279077519 30.727272727293894,240.05293317826 28.450966356525896,240.13250720508222 28.030064423801377,234.2239592866099 20.74588403722737,234.6516944622781 19.182534001447493,234.60195791024307 19.319971367222024,234.9998496166736 15.282748747325968,235.11921681227977" stroke="#4DD2FF" stroke-linecap="round" stroke-linejoin="round" stroke-width="0.5"><title>2025-06-03 5.2km</title><desc>1748952979000</desc></polyline><polyline fill="none" points="49.926947231113445,231.4189281998042 49.4961906754761,230.7813614567276 49.19084425631445,230.11222495238326 48.994550129718846,229.9291580468016 48.50926742781303,229.88496940240293 48.13848963310011,229.45570664631305 47.96945857963874,228.89387295998677 47.71863830671646,228.50879299819644 47.41874450218165,227.45454545454413 46.55177877630922,227.82700621572076 46.14828529380611,227.87119632701797 45.10138328518951,228.26259308057342 44.65426888570073,228.8370580340743 44.65426888570073,228.98225163013194 42.8440008291509,231.28636535744954 42.833095599897206,231.4189281998042 42.336907668737695,232.10067548367078 41.906151113129454,232.49835793760212 41.82981450832449,232.4289215024728 41.524468089133734,232.69404201831276 41.32272134788218,232.57410668727607 41.317268733284436,232.68772963826268 41.290005660121096,232.5236075311259 41.57354162077536,232.72560390899162 41.52992070376058,232.95284904754226 40.8756069483934,233.67876543856983 39.757820949627785,233.93125610434072 39.757820949627785,233.81763543199486 39.68148434482282,233.95650511437634 39.376137925632065,234.0259398389644 39.108959808858344,233.95019286282695 38.66184540936956,233.98806636245718 38.58550880453549,233.9186315954721 38.405572521849535,234.01962759449816 37.86576367364614,233.8302599614144 37.794879683468025,233.0033478541045 37.58768032761873,232.82028948459265 36.56804139216547,233.0790959868791 36.18635836819885,233.31265214703308 36.62256753843394,235.2000061373401 37.30959698156221,237.30821993466088 38.75999247265281,242.9760562111478 38.961739213904366,243.56300743575775 40.67386020714184,247.02779991107673 40.89196479227394,247.0909090909081 41.64442561098258,246.85109386608383 42.15697138602263,247.0025562211813 43.09482110204408,246.80691727621524 43.078463258134434,246.4345704831394 43.32928353105672,246.3651496474813 43.78185054520145,246.57341192148306 44.125365266780136,246.4093265518968 44.26713324710727,246.6175886776109 45.15045681686024,246.81322821953654 45.668455206556246,246.71856400209435 46.19190621084999,246.32728370437326 46.284600659506395,245.58889319485752 46.67718891275581,245.046139011607 46.57358923481661,244.5033800802339 46.6989993712632,244.23831003919622 46.431821254460374,243.9416826980996 46.26279020102811,243.49989466730403 46.197358825447736,242.84351806928316 46.55177877630922,242.55950681176182 47.09158762448351,242.78040456887175 47.39148142904742,242.76147050621512 47.46781803382328,242.35123106317405 47.34240789737669,241.84631725510917 47.23880821943749,241.80213710137104 47.34240789737669,241.75164545858206 47.222450375556946,241.71377669950743 47.320597438840196,241.7705798294446 47.331502668122994,241.47394068857466 47.18973468779586,241.14574253931642 46.54632616165327,241.10156188661495 46.246432357118465,240.87434660424697 46.37184249353595,240.0159702484707 46.88438826860511,239.13864684530563 47.27697652182542,238.70313637431173 47.45691280456958,238.6400186610481 47.84404844319215,238.1035155048521 48.52562527169357,237.45339369644353 49.13086549541913,236.69596163538154 48.95638182730181,236.34249017442926 48.41657297912752,236.33617816575133 48.345688988949405,236.1278815188016 48.55288834482781,235.62922912789872 48.79280338846729,235.40199379707337 49.016360588226235,235.4335543094785 49.10905503688264,235.31993638966378 48.918213524942985,234.88439910187662 49.17448641243391,234.34786345524117 49.414401456102496,234.20899464925242 49.61614819732495,234.2910535267365 49.58888512419071,234.13956012966082 50.194125347887166,233.86182127374923 50.24865149418474,233.69138999628194 50.777555113105336,233.36946297187387 50.826628644776065,232.90866255805304 50.13414658696274,231.58936572353923 50.025094294396695,231.53886576534205" stroke="#4DD2FF" stroke-linecap="round" stroke-linejoin="round" stroke-width="0.5"><title>2025-06-02 11.5km</title><desc>1748829019000</desc></polyline><polyline fill="none" points="75.92207792209229,238.1910037909547 75.56237767229322,236.35445075449388 65.18829546807683,237.32006564088806 60.88824248188757,236.82779263940756 56.28571428571013,237.02659551174293 60.94546752164024,236.8088590103216 64.71414513877244,237.30113211214484 75.54602766092285,236.363917615854 75.91390291642165,238.13420372573455" stroke="#4DD2FF" stroke-linecap="round" stroke-linejoin="round" stroke-width="0.5"><title>2025-06-01 4.9km</title><desc>1748740054000</desc></polyline><polyline fill="none" points="98.51948051946238,246.7353890965751 98.44837721117074,246.88634165430267 98.30617059458746,246.77655799276545 97.83214853942627,244.14172326189873 82.85305159533164,245.44542397395708 81.46653708390659,241.56173095974373 81.40728432702599,236.67607816614327 81.07546888838988,234.83705056644976 78.88311688310932,227.65911289113865 80.32888415141497,232.4627464346413 80.71995234698988,233.20386320276884 81.35988212149823,235.9624286476901 81.99981189600658,236.1408413819736 81.33618101873435,236.1271173339046 81.46653708390659,241.1088548698317 81.91685803630389,242.9615201522538 82.69899442739552,244.89649889686552 82.9004538008594,245.02000723432866 89.32345264870673,244.36129479209194 89.50121091940673,244.8827757412946 94.60879856412066,244.3887412082113" stroke="#4DD2FF" stroke-linecap="round" stroke-linejoin="round" stroke-width="0.5"><title>2025-05-31 5.5km</title><desc>1748696141000</desc></polyline><polyline fill="none" points="119.73978748527588,242.69188813846267 119.29350649355911,239.81257658210234 103.1381345927366,241.25962236321357 101.64628099178663,237.00703848303237 101.48051948053762,231.8830997205805 106.9634002360981,231.9421663297544 101.55702479340835,231.85356640700775 101.65903187723598,236.9332077993604 102.05430932709714,238.5131762171659 103.04887839430012,240.78711920753994 117.35537190083414,239.41389816405717 118.63046044867951,239.34006870693702 118.69421487610089,239.8864057983883 121.11688311689068,239.69444975779334" stroke="#4DD2FF" stroke-linecap="round" stroke-linejoin="round" stroke-width="0.5"><title>2025-05-29 5.0km</title><desc>1748526381000</desc></polyline><polyline fill="none" points="135.98110605712282,235.3449386304419 135.5454339637654,231.7773015302664 142.9207401156891,231.41693014297925 143.71428571426077,234.31789896595 142.85850124515127,231.48900447916822 135.51431452855468,231.83135717497498 135.71659085759893,233.61518417893967 135.4365159405279,231.8493757195247 124.94926626462257,232.82237439925666 126.52079774421873,240.69625930041366 127.12762673140969,242.5340492385003 126.72307407326298,242.78629342550994 127.36102249566466,244.4799236474937 126.50523802661337,242.2457697270147 124.38911643024767,232.8584112846147 128.06120978860417,232.33587572879333 134.70520921231946,231.9214498794754 134.62741062423447,231.39891155430814 124.87146767653758,232.06559811117768 124.32687755976804,230.06553089796216 124.07792207790771,230.28175547136925 124.20239981886698,232.20974622531503 131.56214625306893,231.48900447916822" stroke="#4DD2FF" stroke-linecap="round" stroke-linejoin="round" stroke-width="0.5"><title>2025-05-27 6.0km</title><desc>1748352132000</desc></polyline><polyline fill="none" points="163.69499748543603,238.73602920842677 163.7732745614485,238.68423208182503 163.5216696743155,237.4281388317395 156.907256752369,238.06266326837067 156.1412596515438,238.0756126806773 153.3847883324197,237.75187658108916 146.79833150905324,238.04323914496854 146.67532467533601,235.89359945544857 147.45809543534415,235.8094253370291 148.53720084019005,235.88712452722757 148.5427920598886,237.75187658108916 153.54693370414316,237.55115937083247 156.58855722864973,237.84899758418396 163.5104872348893,237.16267264617272 166.1942726976995,237.06555059378297 166.31168831171817,237.27921891301594 166.23341123570572,237.30511805439528 163.75650090232375,237.40871451429484" stroke="#4DD2FF" stroke-linecap="round" stroke-linejoin="round" stroke-width="0.5"><title>2025-05-25 7.6km</title><desc>1748179850000</desc></polyline><polyline fill="none" points="188.89622304300428,238.3567923611772 188.84475157869747,237.93211213294126 188.59382819014718,237.93211213294126 188.43297986415564,237.13489872627542 188.30430120334495,236.95608331049152 182.09555582032772,237.48507764849637 181.07899440010078,237.67134234923287 176.99988085307996,237.2913618562743 169.38210413441993,237.63408944706316 169.2727272727352,236.33767662550235 171.1643035863235,236.18866218428593 171.15143572023953,237.27646062023996 171.40235910878982,237.30626308928186 176.74895746455877,237.07529363629874 180.62218515426503,237.41057163531514 188.66460145360907,236.6357045966579 188.90909090908826,238.27483671977097" stroke="#4DD2FF" stroke-linecap="round" stroke-linejoin="round" stroke-width="0.5"><title>2025-05-24 6.6km</title><desc>1748094255000</desc></polyline><polyline fill="none" points="30.727272727293894,259.9658452478325 30.51366200283519,258.2159729339837 22.428100505494513,258.90309963210166 21.30466632480966,259.0954941663367 20.023001977911917,259.1138174338048 16.328327595081646,258.6648963048865 11.090909090911737,258.87561466500483 16.304593070119154,258.655734625856 19.975532928016037,259.1229790661746 28.353820232965518,258.4175306431498" stroke="#4DD2FF" stroke-linecap="round" stroke-linejoin="round" stroke-width="0.5"><title>2025-05-18 4.7km</title><desc>1747565909000</desc></polyline><polyline fill="none" points="50.772453998884885,259.7939819938365 50.558831949630985,258.53756614919985 44.86411784606753,259.01930364306827 43.91406189001282,259.1885618999804 43.14951981883496,259.18205197530915 40.546703797183,258.8435349784522 33.72766311842133,259.1560122700321 33.68831168831093,258.96071414192556 37.52788694269839,258.71333565579334 40.13070296435035,258.66776583016326 43.17200635035988,259.1560122700321 50.63191317699966,258.4919961981541 53.14478307261015,258.3878361879797 53.24597246441408,258.4008561985429 53.262837363028666,258.4919961981541 53.324675324663986,258.45293621424935" stroke="#4DD2FF" stroke-linecap="round" stroke-linejoin="round" stroke-width="0.5"><title>2025-05-17 5.7km</title><desc>1747487200000</desc></polyline><polyline fill="none" points="74.84900978556834,258.2791209037241 72.24858189278166,258.41517610446317 70.97969840289443,258.6419343101079 65.15223348647123,259.086378717162 61.50223529958748,258.6147233559459 56.28571428571013,258.8233404586208 61.43174177239416,258.6328639929852 65.01124643205549,259.07730844531034 75.41295800328953,258.1702765933878 75.75759302524966,259.9299099572454 75.92207792206318,260.01154158843565" stroke="#4DD2FF" stroke-linecap="round" stroke-linejoin="round" stroke-width="0.5"><title>2025-05-11 5.0km</title><desc>1746965499000</desc></polyline><polyline fill="none" points="98.51948051949148,259.79641172399715 98.20253777783364,258.38540645781904 89.29292515228735,259.1928633833886 85.67273472581292,258.776901742247 78.88311688310932,259.0623658463446 85.50369859693456,258.7850578736252 88.88442117421073,259.1928633833886 98.25888315416523,258.4017187995705" stroke="#4DD2FF" stroke-linecap="round" stroke-linejoin="round" stroke-width="0.5"><title>2025-05-10 5.3km</title><desc>1746870058000</desc></polyline><polyline fill="none" points="121.07400896045147,258.75991557327507 121.0239891113306,258.619242337365 121.11688311689068,258.7268160102685 120.73816140191047,258.79301512274833 111.98468780130497,259.5625758444439 108.27607327169972,259.1240098755152 101.48051948050852,259.40535435439233 108.24034480802948,259.1240098755152 109.97674814268248,259.2646822368333 111.5559462371748,259.5543010367546 118.72307605057722,258.908863439734" stroke="#4DD2FF" stroke-linecap="round" stroke-linejoin="round" stroke-width="0.5"><title>2025-05-05 5.4km</title><desc>1746434825000</desc></polyline></svg>