<?xml version="1.0" encoding="utf-8" ?>
<svg baseProfile="full" height="300mm" version="1.1" viewBox="0,0,200,300" width="200mm" xmlns="http://www.w3.org/2000/svg" xmlns:ev="http://www.w3.org/2001/xml-events" xmlns:xlink="http://www.w3.org/1999/xlink"><defs /><rect fill="#222222" height="300" width="200" x="0" y="0" /><text fill="#FFFFFF" style="font-size:12px; font-family:Arial; font-weight:bold;" x="10" y="20">Over 3km Runs</text><text fill="#FFFFFF" style="font-size:4px; font-family:Arial" x="10" y="280">Runner</text><text fill="#FFFFFF" style="font-size:9px; font-family:Arial" x="10" y="290">tang-hi</text><text fill="#FFFFFF" style="font-size:4px; font-family:Arial" x="65" y="280">SPECIAL TRACKS</text><rect fill="yellow" height="2.6" width="2.6" x="65" y="283" /><text fill="#FFFFFF" style="font-size:3px; font-family:Arial" x="70" y="285.5">Over 20.0 km</text><rect fill="red" height="2.6" width="2.6" x="65" y="287" /><text fill="#FFFFFF" style="font-size:3px; font-family:Arial" x="70" y="289.5">Over 40.0 km</text><text fill="#FFFFFF" style="font-size:4px; font-family:Arial" x="120" y="280">STATISTICS</text><text fill="#FFFFFF" style="font-size:3px; font-family:Arial" x="120" y="285">Number: 65</text><text fill="#FFFFFF" style="font-size:3px; font-family:Arial" x="120" y="290">Weekly: 3.6</text><text fill="#FFFFFF" style="font-size:3px; font-family:Arial" x="141" y="285">Total: 343.9 km</text><text fill="#FFFFFF" style="font-size:3px; font-family:Arial" x="141" y="290">Avg: 5.3 km</text><text fill="#FFFFFF" style="font-size:3px; font-family:Arial" x="167" y="285">Min: 3.2 km</text><text fill="#FFFFFF" style="font-size:3px; font-family:Arial" x="167" y="290">Max: 11.5 km</text><polyline fill="none" points="22.638393872155575,31.254051603697008 22.731817365594907,31.19999999999709 22.786314403492725,31.326120357356558 22.755173239012947,31.866634142497787 22.84081144136144,31.866634142497787 22.77852911237278,32.83955065172631 22.358123391721165,35.57807313747617 22.07785291125765,36.67706166872085 22.116779366857372,37.10944686536095 21.44724433022202,41.23501625612698 21.48617078587995,41.613333973313274 20.956770989432698,45.34237940765888 21.003482736181468,47.17081541704829 21.641876608337043,52.79099358996609 22.007785291119944,52.80000000000291 22.085638202377595,52.69192301910516 21.71972951956559,49.503592849687266 21.81315301306313,49.29643749012757 21.564023697079392,48.12555027632334 21.338250254484592,45.657629684501444 21.76644126631436,42.29790478797804 21.99221470890916,41.44219044400961 22.412620429560775,37.70397306820087 22.646179163246416,36.34376330731902 22.77852911237278,36.16360150925175 22.700676201144233,35.92038250123005 23.043229010567302,33.37104682804784" stroke="#4DD2FF" stroke-linecap="round" stroke-linejoin="round" stroke-width="0.5"><title>2025-09-02 5.1km</title><desc>1756811867000</desc></polyline><polyline fill="none" points="48.627006694383454,31.200000000004366 48.59565635965555,32.787079646252096 48.18026442461996,35.68002651362622 47.92162416319479,36.66850410892221 47.92946174685494,37.43932766544458 47.29461746884044,41.30241369862779 46.80084969699965,45.664054068322 46.83220003169845,46.98791939225339 47.451369142421754,52.056510006063036 48.062700669426704,52.80000000000291 47.92162416319479,52.727464663294086 47.811897991690785,51.86610303654743 47.57677048127516,49.6174566918271 47.639471150701866,49.39077549146896 47.22407921572449,46.734028933416994 47.20840404834598,45.455498152463406 48.47025502077304,36.532475731561135 48.642681861732854,36.16973237849015 48.73673286588746,34.60085040204285 49.19915030300035,32.09783709511248" stroke="#4DD2FF" stroke-linecap="round" stroke-linejoin="round" stroke-width="0.5"><title>2025-08-31 5.1km</title><desc>1756640573000</desc></polyline><polyline fill="none" points="74.69504393037641,31.200000000004366 74.76493661609129,32.943290499199065 74.283453669952,35.953530823782785 74.12037073654938,36.22309958601545 74.04271219685324,36.76223464580107 73.97281951113837,38.137014174491924 73.53793168879929,41.11113729879435 73.42144387922599,41.308809612201 73.46803900305531,41.740093126456486 72.9399609330867,45.44185682100215 72.97102434898261,46.96923845096899 73.58452681262861,52.29689858575148 74.17473171435995,52.80000000000291 74.0504780508345,52.60235335692414 73.74760974603123,49.16143424202164 73.36708290147362,46.870408672766644 73.36708290147362,45.172316149233666 73.96505365718622,41.542421776735864 74.40770733347745,37.75064038726123 74.76493661609129,36.26802763316664 74.71057563830982,35.9265739023831 75.06003906694241,33.32069938119821" stroke="#4DD2FF" stroke-linecap="round" stroke-linejoin="round" stroke-width="0.5"><title>2025-08-30 5.0km</title><desc>1756550382000</desc></polyline><polyline fill="none" points="99.56339825008763,52.790284498012625 99.85726481254096,52.80000000000291 100.79763781250222,46.26124390440236 100.9319768124551,44.075081556533405 100.37782843751484,40.16901368534309 100.14273518751725,37.215065306969336 100.00000000005821,36.56401835239376 99.57179443756468,35.89353252444562 99.63056775007863,35.73805687796266 100.0671695000492,35.806077504414134 99.85726481254096,33.833459679211956 99.47104018754908,33.43504423969716 99.49622875006753,32.25922313508636 99.068023187574,31.200000000004366 99.50462493757368,32.307811070626485 99.45424781256588,33.38645687732787 99.85726481254096,33.86261196323903 100.0503771250369,35.786643044659286 99.63056775007863,35.74777411326795 99.57179443756468,35.87409808247321 99.92443431256106,36.427978130021074 100.1511313750234,37.360821480237064 100.39462081252714,40.42164976904314 100.9319768124551,43.939052024790726 100.83122256252682,45.99890706250153 99.97481143751065,51.877022903943725" stroke="#4DD2FF" stroke-linecap="round" stroke-linejoin="round" stroke-width="0.5"><title>2025-08-28 5.0km</title><desc>1756381580000</desc></polyline><polyline fill="none" points="126.73083260923158,31.200000000004366 126.90870721259853,32.12173204022838 126.87777249896317,32.962915968535526 126.39828443786246,35.96963539333956 126.22814351294073,36.282829430900165 126.20494247772149,37.26714629920025 125.52437877806369,41.27588684019429 125.5785145269474,41.78591440842865 125.06035807376611,45.159180297465355 125.02168968177284,46.52813465266081 125.14542853622697,46.67129204966477 125.09902646578848,47.252866583257855 125.6867860245693,52.325823210849194 126.33641501059174,52.80000000000291 126.12760569364764,52.61211893588188 125.40837360199657,46.689186707932095 125.37743888839032,45.534973806999915 125.91106269831653,41.76801875426463 126.04253523124498,41.58011416606314 126.16627408569911,40.00527900485031 126.70763157404144,36.90921416519268 126.66896318201907,36.48864204921847 126.81590307169245,36.29177781560429 126.75403364445083,36.02332587887213 126.97831031822716,34.48418564865278" stroke="#4DD2FF" stroke-linecap="round" stroke-linejoin="round" stroke-width="0.5"><title>2025-08-26 5.0km</title><desc>1756206850000</desc></polyline><polyline fill="none" points="152.67951249846374,31.200000000004366 152.69504421268357,31.936858939705417 152.81929792673327,31.963817077179556 152.74940521261306,32.880388861944084 152.31451721358462,35.86367438639718 152.16696592819062,36.1961427460119 151.98835121432785,38.21788289219694 151.45250707268133,41.263884124135075 151.36708264431218,42.67453352676239 150.9710239309352,45.32505596307601 151.0409166450554,47.32861853135546 151.63888764369767,52.67422491453908 151.66218521507108,52.80000000000291 152.12813664259738,52.74609641382267 151.79420478621614,49.26026146084041 151.3826143585611,46.88837773071282 151.34378507290967,45.684442722573294 151.84079992896295,42.00964425408165 152.01941464285483,41.49749640733353 152.6173856414389,36.600494472113496 152.79600035533076,36.241070806834614 152.73387349833502,35.95353082304791 153.02897606909391,33.7160783868967" stroke="#4DD2FF" stroke-linecap="round" stroke-linejoin="round" stroke-width="0.5"><title>2025-08-24 5.0km</title><desc>1756042259000</desc></polyline><polyline fill="none" points="177.72463362087728,52.80000000000291 177.96557920260238,52.45149008263979 178.80028353934176,46.765624639090674 178.95517712761648,44.266129292991536 178.49910156219266,41.38814530587115 178.04302599673974,36.99631819346541 177.5439244346344,35.98049340520811 177.6643972254824,35.84106565118418 178.03442079739762,35.88090217259014 177.8451064117544,33.92889356867818 177.4320568430703,33.460804089467274 177.50089843783644,32.45490210688149 177.0362176730705,31.200000000004366 177.47508283983916,32.265671866385674 177.44926724175457,33.47076346336689 177.86231681046775,33.95877154457412 178.0602363954531,35.890861300395045 177.95697400331846,35.99045252288488 177.59555563065805,35.8609839139026 177.59555563065805,36.00041163955029 177.93115840526298,36.607915841981594 178.1204727908771,37.34488309494918 178.34420797394705,40.05368805256148 178.9637823269586,44.365712000610074 178.82609913736815,46.636170270670846 177.879527209152,52.72034069961228" stroke="#4DD2FF" stroke-linecap="round" stroke-linejoin="round" stroke-width="0.5"><title>2025-08-23 5.0km</title><desc>1755956696000</desc></polyline><polyline fill="none" points="22.762564077740535,55.200000000004366 22.770385247742524,55.79730542909965 22.87206045811763,55.90590598586277 22.83295460799127,56.810905475882464 22.363684406300308,59.72494136221212 22.19161866567447,60.0959763568535 21.79273899423424,63.81529054776183 21.589388573542237,65.04597832779837 21.45642868304276,65.17266581064177 21.518998043320607,65.61607058211666 20.955873801285634,69.87807329295174 21.675421443855157,76.65523318108171 21.698884953919332,76.76380831730785 22.121228135423735,76.80000000000291 21.346932302665664,69.69710067675624 22.51228663683287,61.22717107065546 22.66088886736543,60.30411726255261 22.801669927866897,60.13217481014726 22.739100567647256,59.78828890971636 23.044126198714366,57.435349762716214" stroke="#4DD2FF" stroke-linecap="round" stroke-linejoin="round" stroke-width="0.5"><title>2025-08-21 5.0km</title><desc>1755781186000</desc></polyline><polyline fill="none" points="48.60210460060625,55.200000000004366 48.625411875516875,56.872098373445624 48.15926637823577,59.87460430718056 47.99611545418156,60.189232264936436 47.92619362959522,60.71960257567116 48.01165363742621,60.98029190211673 47.289128116710344,65.24110514279164 47.335742666444276,65.6905460555281 46.82298261942924,69.37587545426504 46.85405898591853,70.93085865658213 47.50666268207715,76.80000000000291 47.957269996084506,76.71911095663381 47.64650633124984,73.31271637571626 47.24251356697641,70.88591732888017 47.219206292094896,69.16914152613754 47.72419724744395,65.73549002125947 47.85627180500887,65.53773640128202 48.39233912687632,61.070184595249884 48.64871915036929,60.20721097158821 48.65648824197706,59.218376680946676 49.177017380599864,55.910196180564526" stroke="#4DD2FF" stroke-linecap="round" stroke-linejoin="round" stroke-width="0.5"><title>2025-08-19 5.3km</title><desc>1755607955000</desc></polyline><polyline fill="none" points="73.76595944454311,76.69360807433259 74.14209605150972,76.80000000000291 74.14209605150972,76.08427020936506 74.28419210304855,75.76509167564654 74.4597225196485,73.55982892544125 74.96959658685955,70.22282102485042 74.91944503926788,68.03677560450888 74.35106083319988,64.37068405092577 74.09194450394716,61.352581829320116 73.93313126984867,60.55934676749166 73.52356029787916,59.87251594456029 73.61550480176811,59.708062758225424 74.01671718255966,59.79512624522613 73.84118676593062,57.98612408815097 73.40654002013616,57.3960143392469 73.43997438519727,56.254480172821786 73.03040341314045,55.19999999999709 73.47340875028749,56.302850542546366 73.42325720263761,57.38634037844167 73.81611099213478,57.81199372330593 74.01671718255966,59.78545252837648 73.59878761926666,59.72741020666581 73.55699466291117,59.85316852563119 74.0417929563555,60.96563872293336 74.29255069428473,63.87734696416737 74.9110864480026,68.15285007512284 74.90272785670822,69.14915012458368 74.28419210304855,73.43408872010332 74.10030309518334,73.52113964918681 73.98328281746944,73.81130883774313 73.76595944454311,75.23312507429364" stroke="#4DD2FF" stroke-linecap="round" stroke-linejoin="round" stroke-width="0.5"><title>2025-08-17 5.0km</title><desc>1755429603000</desc></polyline><polyline fill="none" points="99.6893410308985,76.75142248022894 99.5801905823173,76.80000000000291 99.70613340759883,76.67369839725143 99.84886860963888,74.53626135503146 99.96641524657025,73.7881471008368 100.3526399108232,73.46752491413645 100.34424372244393,72.72911821245361 100.86480740032857,69.79486679863476 100.94037309550913,68.47345264273463 100.02518856502138,60.806946839053126 99.54660582888755,59.87409808230586 99.63896390079753,59.76720858075714 100.0419809417217,59.79636027485685 99.86566098633921,57.911199083355314 99.46264394535683,57.40589182515396 99.48783251046552,56.30781107058283 99.05962690446177,55.19999999999709 99.51302107551601,56.327246237888176 99.45424775700667,57.35730444797082 99.85726479795994,57.83345967911009 100.05877331845113,59.78664304447739 99.63056771244737,59.73805687778804 99.57179439393803,59.883815303779556 100.07556569512235,60.92355229337409 100.94037309550913,68.01678320924111 100.93197690712987,69.17302711837692 100.36943228752352,73.31207134562283 99.94962286986993,75.99360997610347 99.77330291445833,76.12962804735434 99.71452959597809,76.53768110003148" stroke="#4DD2FF" stroke-linecap="round" stroke-linejoin="round" stroke-width="0.5"><title>2025-08-16 5.1km</title><desc>1755350047000</desc></polyline><polyline fill="none" points="125.87400050120777,76.74168073586043 125.57160170399584,76.80000000000291 125.71440113600693,76.6542017729953 126.11759953229921,73.6409886584006 126.34439863014268,73.52434624233865 126.2939988306025,73.20357886476268 126.89879642502638,69.63618430482893 126.94079625798622,68.09059602784691 126.03359986635041,60.828912929966464 125.58000167057617,59.91508776991395 125.67240130304708,59.74009897688666 126.04199983298895,59.79842861014913 125.85720056801802,57.8832537195849 125.46240213833516,57.43604999646777 125.52120190445567,56.47358271361736 125.05080377546255,55.200000000004366 125.48760203810525,56.220811921586574 125.47920207152492,57.38744077007141 125.85720056801802,57.844366522367636 126.07559969931026,59.788707007071935 125.63880143669667,59.749820584911504 125.59680160373682,59.88592299332231 125.95800016704015,60.46921683487017 126.10919956566067,61.05250711782719 126.3779984965222,64.1730496888922 126.90719639163581,67.69204405620985 126.94919622456655,69.10154967640847 126.31079876379226,73.19385862438503 126.36119856333244,73.48546540539246 126.09239963252912,74.98236621914111 125.87400050120777,75.47808794841694" stroke="#4DD2FF" stroke-linecap="round" stroke-linejoin="round" stroke-width="0.5"><title>2025-08-14 4.9km</title><desc>1755170321000</desc></polyline><polyline fill="none" points="152.88231242704205,55.2180699464443 152.69491863719304,55.19999999999709 152.74957515925053,56.83531528319145 152.29670683384757,59.90709694234101 152.13273726776242,60.23233819998859 152.13273726776242,61.08157365376246 151.6720608678006,64.32485570999415 151.52370745089138,65.21018792306131 151.40658633221756,65.28245955142484 151.47685900342185,65.73415589814249 150.9381018576969,69.44701295073173 150.98495030513732,71.02786611707415 151.640828569507,76.72773772773508 152.085888820322,76.80000000000291 151.32069751189556,69.64575032120774 152.59341366772423,60.629853677259234 152.7729993829562,60.259441584406886 152.69491863719304,59.94323491860996 153.0618981423031,57.37740211007622" stroke="#4DD2FF" stroke-linecap="round" stroke-linejoin="round" stroke-width="0.5"><title>2025-08-12 5.0km</title><desc>1754999139000</desc></polyline><polyline fill="none" points="178.5824328395538,55.27237055647856 178.68406541558215,55.19999999999709 178.69188330607722,56.72881550067541 178.20717409727513,59.84064287657384 178.04299839754822,60.148201304560644 177.8788226978213,62.2377613213248 177.3628419271845,65.26798852047068 176.83904326611082,69.63676147720253 176.88595060887747,70.97539021790726 177.4332029413781,75.50668009934452 178.00390894524753,76.80000000000291 177.23775567975827,69.69103060119232 178.39480346845812,61.342241603982984 178.6762475251162,60.18438457915909 178.60588651095168,59.931101348011 178.9342379104346,57.488690361293266 179.16095673391828,56.56598432963801" stroke="#4DD2FF" stroke-linecap="round" stroke-linejoin="round" stroke-width="0.5"><title>2025-08-10 5.0km</title><desc>1754830447000</desc></polyline><polyline fill="none" points="21.692848353617592,100.80000000000291 22.862549144076183,93.8375021573811 22.938285166485002,92.20148519938084 22.315566760051297,87.88733031826268 22.021037784026703,84.74167278670211 21.54979142238153,83.90411188018334 21.617112331208773,83.72880750771583 22.046283124829642,83.81645973406557 21.861150625627488,81.88809222404961 21.457225172780454,81.4108639681217 21.48247051355429,80.32004759612755 21.05329971993342,79.20000000000437 21.499300740804756,80.35900553761894 21.46564028636203,81.42060334406415 21.861150625627488,81.8978315514396 22.063113351992797,83.78724233420508 21.633942558371928,83.76776406266436 21.58345187676605,83.87489450706926 22.063113351992797,84.90723628499836 22.450208577647572,88.73459502817423 22.90462471207138,91.51980322126474 22.94670028006658,93.06818813908467 21.970547102420824,99.98205445134954 21.701263467170065,100.26444120366068" stroke="#4DD2FF" stroke-linecap="round" stroke-linejoin="round" stroke-width="0.5"><title>2025-08-09 5.0km</title><desc>1754735080000</desc></polyline><polyline fill="none" points="48.648612932593096,79.20000000000437 48.6955006144708,80.71913325694186 48.39073068226571,83.10629027030518 48.0,84.75194456340978 47.914039249910275,86.24385759914003 47.39046013561892,89.29994077352603 47.42171859022346,89.77009810354502 46.89032486235374,93.35044554945489 46.87469563505147,94.58002660873171 47.546752408583416,100.29373933830357 48.070331522787455,100.80000000000291 47.3044993855292,94.9055011056189 47.34357245377032,92.9797596929202 48.46106220508227,85.29446128792188 48.60172525071539,84.41739093494834 48.73457368268282,84.24559263707488 48.67205677353195,83.87486886441911 49.12530436494853,80.80955703785003" stroke="#4DD2FF" stroke-linecap="round" stroke-linejoin="round" stroke-width="0.5"><title>2025-08-07 5.0km</title><desc>1754570205000</desc></polyline><polyline fill="none" points="74.37434658943675,79.20000000000437 74.42264937519212,79.81481808461103 74.58365866096574,79.88002582146146 74.52730541097117,80.31784799612797 74.96203048259486,80.38305537519045 75.01033326832112,80.7836139717765 74.56755773240002,83.00062757878186 74.43875030378695,84.18363391300227 74.52730541097117,84.50034168010461 74.39044751803158,84.63075044270226 74.13283266080543,86.14906738545687 72.99771719597629,94.40156521791505 73.69810758918175,100.80000000000291 72.98966673170798,94.25254249540012 73.48879551765276,90.48032419478113 73.67395619631861,89.96803566932795 74.11673173221061,86.14906738545687 74.34214473233442,84.74252923445601 74.48705308951321,84.49102676137409 74.43069983948953,84.12774419350899 74.87347537538153,80.86745159613201" stroke="#4DD2FF" stroke-linecap="round" stroke-linejoin="round" stroke-width="0.5"><title>2025-08-05 5.0km</title><desc>1754406000000</desc></polyline><polyline fill="none" points="99.6729210333142,100.80000000000291 100.04672556667356,97.70334582872601 100.27610562121845,97.5263911677539 100.63291903946083,95.12764049445104 100.89628132429789,93.20073211450654 100.91327243947308,92.001310575557 100.29309673639364,87.74422715823312 100.05522112426115,84.91262217042095 99.84283218480414,84.17521142999612 99.52000099694123,83.71309783302422 99.59646101511316,83.56561430524016 100.01274333635229,83.6049432679938 99.81734551209956,81.66797284648055 99.41805430600652,81.24517718910647 99.4520365363569,80.04560735283303 99.08672756055603,79.20000000000437 99.46053209388629,80.17343107661873 99.41805430600652,81.14685235264187 99.83433662727475,81.65814041031263 100.02123889393988,83.59511102880788 99.91079664547578,83.69343337562896 99.50300988182425,83.61477550616837 100.04672556667356,84.76514047222736 100.39504342729924,88.49144242567854 100.91327243947308,92.03080472620059 100.90477688188548,93.24988841766753 99.91079664547578,100.05287981229776 99.85982330000843,100.21999930262973 99.63893880302203,100.22982985187991 99.5539832272043,100.60338998368388 99.31610761507181,100.58372896008223" stroke="#4DD2FF" stroke-linecap="round" stroke-linejoin="round" stroke-width="0.5"><title>2025-08-03 5.0km</title><desc>1754221111000</desc></polyline><polyline fill="none" points="136.8000000000029,88.83135902184404 136.73358954649302,89.10672164130119 136.562029208304,89.12273102190375 133.19169869330653,89.05549156871166 133.10038431975408,88.99785763749787 132.96756341274886,89.05228968640586 132.5386625672545,89.04908780378173 132.50269023826695,89.01386707340862 131.7362029208307,89.0586934506864 131.3598770176759,89.00105952533158 130.1451191391243,88.99785763749787 129.6193697155977,88.91460843964342 129.26241352804936,88.82175330563405 129.24027671021759,88.7865323211663 128.74496541121334,88.77052276974973 127.65749423518719,88.5784075183492 126.05810914681933,88.56559979327358 122.72098385856953,88.9818481934526 122.26994619522884,89.18997033162668 121.78570330514049,89.3372559372765 120.4851652574871,90.12810383063879 119.79615680246206,90.47709517256044 119.37279016140383,90.59876097044253 119.12375096080359,90.60196269562039 118.80830130669347,90.52512120152642 118.47348193696234,90.66279541224685 118.36003074556356,90.43867429671627 118.2244427363621,90.52832293418578 118.11375864720321,90.32020963463765 116.22936202920391,91.43440020672824 116.08547271329735,91.07261275897508 115.50438124519133,89.96161118659074 115.44903920061188,89.92318968227846 115.19999999999709,90.04485761856267 115.36325903149555,89.91998788814271 115.44350499616121,89.91038250377278 115.46840891621832,89.83033752015035 115.56802459647588,89.83674112631888 115.70084550346655,89.74709052150865 115.73958493466489,89.79191585579792 115.8392006149079,89.72787964444433 115.80599538816023,89.78871404831807" stroke="#4DD2FF" stroke-linecap="round" stroke-linejoin="round" stroke-width="0.5"><title>2025-08-02 8.3km</title><desc>1754134728000</desc></polyline><polyline fill="none" points="152.577355445188,79.20000000000437 152.46110938239144,79.22690241551754 152.39136174472515,79.95326453410962 152.97259205864975,79.95326453410962 152.97259205864975,80.53614339214255 151.03515767888166,93.35850454924366 151.04290741638397,94.71236544987187 151.8488801183703,100.80000000000291 151.08165610401193,94.8827173378595 151.02740794135025,93.5647231127441 152.17436909416574,85.36940592834435 152.46110938239144,84.25750997219438 152.38361200722284,84.0064347533189 152.74784967058804,81.3611345802492" stroke="#4DD2FF" stroke-linecap="round" stroke-linejoin="round" stroke-width="0.5"><title>2025-07-31 5.0km</title><desc>1753965181000</desc></polyline><polyline fill="none" points="177.5723366640159,100.80000000000291 177.66549105400918,100.0160555915063 177.90261131952866,99.73187416961446 178.76640657242388,93.78347079783998 178.85956096241716,91.58825065717247 178.4191947550571,88.9225590003989 177.95342280500336,84.52204642302968 177.5045880167163,83.65956161529175 177.5977424067387,83.5321484326123 177.97035996679915,83.58115352279856 177.80945692950627,81.63073169493146 177.3775593030441,81.16027228034363 177.4283707885188,80.07232608836784 177.08962755210814,79.20000000000437 177.4368393694167,80.09192883111973 177.4029650457669,81.17987480179727 177.80945692950627,81.68953896026505 178.00423429044895,83.56155148972903 177.89414273860166,83.65956161529175 177.5553995021619,83.52234741157008 177.5215251785412,83.66936262237869 178.02964003317175,84.7964717888608 178.32604036503471,88.08951524123404 178.91037244789186,92.29386258187151 178.30063462231192,97.37019616112957 177.85179983408307,100.18264431152056 177.69089679676108,100.25123958320182" stroke="#4DD2FF" stroke-linecap="round" stroke-linejoin="round" stroke-width="0.5"><title>2025-07-29 5.0km</title><desc>1753797916000</desc></polyline><polyline fill="none" points="22.926448608661303,103.20000000000437 22.910878043825505,104.84855908886675 22.5527550522238,107.37088525087165 22.2724848848884,108.20864199515927 22.0856381066842,110.51468419648882 21.5640241841611,113.27104658733151 21.626306443533394,113.75745458687015 21.11247780342819,117.17124307655467 21.143618933157995,118.98166861446953 21.782012092065997,124.80000000000291 21.182545345276594,119.74726033690968 21.073551391338697,117.82876508239133 21.5718094666081,113.41516775418131 22.2646996024705,109.01035877962568 22.1946320606512,108.7851581677678 22.52939920499921,107.41592613737157 22.910878043825505,104.37111070282845" stroke="#4DD2FF" stroke-linecap="round" stroke-linejoin="round" stroke-width="0.5"><title>2025-07-27 5.0km</title><desc>1753616848000</desc></polyline><polyline fill="none" points="48.6169385756948,103.20000000000437 48.63993007541285,105.09775109581096 48.21841924730688,108.09504961468338 48.049814916041214,108.4142824451992 47.81223608565051,111.02130686266173 47.38306142427609,113.3977102684803 47.41371675723349,113.84992896355106 46.85425693081925,117.53852731685038 47.55166575554176,124.80000000000291 48.011495749873575,124.72907278395724 47.68195092061069,121.1737722694379 47.30642309188261,118.68231582688168 47.291095425433014,117.3523277692293 48.3487044123176,109.89515280613705 48.70124074135674,108.40541488234157 48.624602408963256,108.05957922809466 49.14574306918075,104.90265709179221" stroke="#4DD2FF" stroke-linecap="round" stroke-linejoin="round" stroke-width="0.5"><title>2025-07-26 5.2km</title><desc>1753529066000</desc></polyline><polyline fill="none" points="74.74552235973533,103.19999999999709 74.65233206475386,103.66727711300337 74.77658579137642,104.26934206089936 74.62903449102305,105.68912078344874 74.30286845864612,107.89961697184481 74.13201958453283,108.21411397289194 74.10872201077291,109.15759826671274 73.41756065646769,113.29982451531396 73.47192166183959,113.69516785716405 72.95937503955793,117.45982616872061 73.02926776075037,119.46338568533974 73.64277053595288,124.80000000000291 74.0854244370421,124.75508034713857 73.73596083093435,121.49385263142904 73.81361941006617,121.32315145192842 73.37096550897695,118.78954786194663 73.36319965103758,117.58561150899914 75.04062496044207,105.84188042714231" stroke="#4DD2FF" stroke-linecap="round" stroke-linejoin="round" stroke-width="0.5"><title>2025-07-24 5.0km</title><desc>1753356656000</desc></polyline><polyline fill="none" points="99.62114906127681,124.76103279968083 99.73059488800936,124.80000000000291 100.10102691699285,121.72154237441282 100.34517529973527,121.56566847279464 100.28624293149915,121.2636620671401 100.91766116270446,117.35697731620894 100.95975571149029,116.17812096931448 100.32833748022676,112.01790873167192 100.06735127800494,108.93904053595179 99.56221669304068,107.87700292711088 99.63798688078532,107.72110650752438 100.05051345849643,107.7990547490117 99.83162180500221,105.84058596364048 99.46960868575843,105.45083615588374 99.50328432477545,104.39850375573587 99.04024428850971,103.20000000000437 99.46118977601873,104.16465054165747 99.45277086627902,105.41186108793045 99.84004071477102,105.82109851090354 100.05893236826523,107.74059357384249 99.94948654150357,107.84777236774244 99.65482470026473,107.73085004118911 99.56221669304068,107.84777236774244 99.85687853425043,108.26674286636262 100.06735127800494,108.96827076242334 100.44620221672812,112.84606842125504 100.93449898218387,116.0124953622726 100.92608007247327,117.30826453118789 100.0084189097688,123.68942858416995" stroke="#4DD2FF" stroke-linecap="round" stroke-linejoin="round" stroke-width="0.5"><title>2025-07-22 5.0km</title><desc>1753184035000</desc></polyline><polyline fill="none" points="115.19999999995343,117.5624634611886 115.19999999995343,114.096401750925 117.49645608628634,104.39126031968044 136.06779661017936,107.78038556876709 136.79999999993015,108.58914961473783 134.3038520802511,123.57022867209162 117.62958397530019,120.95147092919797 117.03050847456325,120.18124462015112 119.0939907549182,105.20003159838961 119.82619414466899,104.73787679336965 124.25269645615481,105.46962164112483 136.76671802764758,108.24253666360164 134.5701078582788,123.26214046502719 133.87118644057773,123.60873968029045 117.29676425259095,120.79742579261074 117.49645608628634,115.86794836321496 119.12727272731718,105.27705734450137 119.65978428348899,104.81490263334126 127.84714946069289,106.20136507603456 119.49337442219257,104.89192845771322 118.56147919874638,109.12832468663692 119.39352850534488,109.93708585601416" stroke="#4DD2FF" stroke-linecap="round" stroke-linejoin="round" stroke-width="0.5"><title>2025-07-20 4.9km</title><desc>1753020627000</desc></polyline><polyline fill="none" points="153.2415045266971,103.20000000000437 153.0785570575681,104.30436744455073 152.47332360080327,105.85764138655941 151.96120298354072,108.19199018311338 151.8215337242582,110.03249095365027 151.34045072016306,113.11187726538628 151.23181907407707,113.21063131921255 151.28613489714917,113.65053440023621 150.78177368312026,117.28638420697098 150.7584954732738,118.48932381260238 151.44908236624906,124.79102354011411 151.3714883333596,123.55226333405881 151.45684176957002,124.80000000000291 151.89912775720586,124.71023536001303 151.1542250411585,117.68138110629661 152.3414137448417,109.00899769496027 152.58971465018112,108.22790275990701 152.62075226334855,107.17745385890885" stroke="#4DD2FF" stroke-linecap="round" stroke-linejoin="round" stroke-width="0.5"><title>2025-07-20 5.0km</title><desc>1752942252000</desc></polyline><polyline fill="none" points="178.9313751849404,103.2096655261048 178.7977249342366,103.20000000000437 178.58889641740825,104.2632019833909 178.82278435624903,104.40818315134675 178.80607807487831,104.7174755712258 178.513718151371,106.6891911100247 178.35500847859657,107.02747153181554 177.94570458566886,110.88378333143919 177.6032258180785,112.45912388776924 177.63663838079083,112.92302288432984 177.04356539304717,117.35894283377274 177.84546689756098,124.80000000000291 177.10203737774282,118.59593810703518 177.0853310964303,116.72111086343648 177.63663838079083,112.98101009989477 177.6115789587493,112.4687884732557 178.22135822783457,108.79617529505049 178.34665533789666,107.01780639360368 178.513718151371,106.66986076388275 178.95643460698193,103.50929634802014" stroke="#4DD2FF" stroke-linecap="round" stroke-linejoin="round" stroke-width="0.5"><title>2025-07-17 5.0km</title><desc>1752765839000</desc></polyline><polyline fill="none" points="31.26756756764371,148.34420429656166 31.75405405415222,147.66868882908602 32.79999999993015,138.85869042470586 17.159459459478967,138.15500434566638 14.337837837869301,138.3801840855158 14.67837837827392,138.15500434566638 14.167567567550577,134.97432096430566 11.272972972947173,130.41433947323821 11.199999999953434,127.85283545544371 11.540540540474467,127.65579570346745 25.137837837915868,127.88098397993599 24.164864864898846,136.74762682401342 23.556756756734103,137.14169325091643 15.06756756757386,136.86021728892229 14.143243243219331,133.904702416301 11.759459459455684,130.864711357106 11.467567567480728,129.26025817796472 14.848648648592643,129.00692261577933 24.699999999953434,129.34470331392367 24.84594594594091,131.45582334313076 23.97027027036529,138.32388916771743 22.65675675671082,138.40833154009306" stroke="#4DD2FF" stroke-linecap="round" stroke-linejoin="round" stroke-width="0.5"><title>2025-07-15 4.1km</title><desc>1752589649000</desc></polyline><polyline fill="none" points="48.86804024531739,127.20000000000437 48.93386320231366,128.73282165628189 48.423735285614384,131.9316730419887 48.242722153896466,132.30296121930587 48.23449428426102,133.24545537052472 47.510441757389344,137.66267538349348 47.54335323590203,138.15769568821997 46.992085971083725,142.26055181449192 47.65031554098823,148.8000000000029 47.2718335382815,146.21092804607179 46.98385810144828,142.05112963294232 48.21803854504833,133.1788146813633 48.14398771841661,132.87417092733085 48.3908238071017,131.99831461803115 48.876268114952836,128.82802714322315 48.81867302756291,128.49480751567899 49.01614189855172,127.48562084310106 48.83512876686291,127.25712423828372" stroke="#4DD2FF" stroke-linecap="round" stroke-linejoin="round" stroke-width="0.5"><title>2025-07-13 5.0km</title><desc>1752418082000</desc></polyline><polyline fill="none" points="73.81241459710873,148.8000000000029 73.70156867726473,148.79013357777148 73.76978155100369,148.01068305471563 74.14495235678623,145.64269371809496 74.36664419656154,145.44535866640217 74.75034161153599,142.76156214134244 74.95498023281107,139.988885606057 74.39222402419546,136.1306879061085 74.1023193106812,132.90389328927267 73.93178712623194,132.2723368351144 73.57366953892051,131.69998524848052 73.65040902190958,131.55196273707406 74.05968626454705,131.6111717687454 73.88062747090589,129.73620155871322 73.47135022823932,129.2230455029421 73.49693005593144,128.04869739525748 73.20702534241718,127.2394744620251 73.02796654871781,127.2394744620251 73.18144551469595,127.20000000000437 73.47135022823932,127.92040640475898 73.46282361901831,129.23291391423845 73.83799442477175,129.57830767673295 73.88062747090589,129.77567498906865 74.05968626454705,131.5815672574172 73.64188241271768,131.56183091152343 73.54808971122839,131.6703807642989 73.92326051704003,132.21312820682942 74.09379270146019,132.81508091124851 74.4433836795506,136.65367509600037 74.97203345128219,139.91981436109927 74.96350684206118,141.18282364463812 73.92326051704003,148.28694471546623" stroke="#4DD2FF" stroke-linecap="round" stroke-linejoin="round" stroke-width="0.5"><title>2025-07-12 5.1km</title><desc>1752325602000</desc></polyline><polyline fill="none" points="99.86985901440494,148.8000000000029 99.65995419886895,148.79028449803445 100.13014098565327,145.55496743470576 100.32325341593241,145.4578090728537 100.86060974362772,141.85316406017955 100.94457166985376,140.03621599436156 100.44919630521326,136.7811691968891 100.0713676372543,132.82638109036634 99.56759608001448,131.80607750343916 99.63476562098367,131.69918792584212 100.05457525205566,131.7672085799568 99.86146282177651,129.79458995274035 99.48363415381755,129.376739401363 99.4668417685898,128.06487114561605 99.04703213754692,127.20000000000437 99.49203034641687,128.1717647885671 99.48363415381755,129.36702192495432 99.86985901440494,129.80430738568975 100.07976382991183,131.73805687696586 99.67674658409669,131.6894706855819 99.58438846530044,131.84494641108176 100.08816002251115,132.90411805992335 100.45759249784169,136.76173574879795 100.95296786242398,139.96820122503414 100.86900593625614,141.80458301048202 100.06297144465498,147.16778181793052" stroke="#4DD2FF" stroke-linecap="round" stroke-linejoin="round" stroke-width="0.5"><title>2025-07-10 5.0km</title><desc>1752149320000</desc></polyline><polyline fill="none" points="122.97083915647818,127.20000000001164 123.02143056935165,128.5464361152117 123.38821831234964,128.35617960168747 124.1723852113355,128.61961163040542 125.01979137631133,128.5464361152117 125.96838036697591,128.89767824913724 130.86309955868637,129.54161993673188 131.00222594395746,129.7318748844118 129.87656700843945,136.91747393333935 129.33270932047162,136.9613766955299 129.23152649478288,137.15162184360088 129.04180869663833,138.42479444474156 129.1809350819094,138.98088929167716 128.32088106375886,143.824677312703 122.02225016587181,143.634440976326 121.80723666126141,143.4881051620905 120.99777405598434,148.8000000000029 121.84518022090197,143.57590666846954 124.29886374337366,143.61980740157014 125.12097420194186,143.29786838132713 125.23480488080531,143.634440976326 128.3588246233994,143.7368759579258 130.53425537527073,130.11238402586605 130.47101610922255,129.61479494637751 123.9573717067833,128.47326056279417" stroke="#4DD2FF" stroke-linecap="round" stroke-linejoin="round" stroke-width="0.5"><title>2025-07-08 5.1km</title><desc>1751976330000</desc></polyline><polyline fill="none" points="141.39238742546877,148.60332322170143 141.34603223582963,148.8000000000029 141.63961510389345,148.67484207559028 141.73232548322994,147.67357547547726 142.27313602966024,147.22657961794175 142.38129813893465,146.76170272151649 143.94192285853205,135.9440280990093 144.0809884275659,132.6717739978194 143.7101469101035,130.25777703919448 144.55999205441913,130.22201387224777 144.77631627296796,130.54388211289188 147.75850014318712,130.9730388508906 150.15351827727864,130.93727582940483 151.89956375560723,131.63465343748976 157.4621865185327,132.45719783182722 158.4820006918162,127.19999999999709 162.65396776411217,128.12985595209466 158.9301008587936,127.25364566934877 158.23477301344974,130.34718492468528 158.12661090411711,132.49296054434672 147.71214495348977,131.09820936896722 144.77631627296796,130.56176366456202 144.51363686477998,130.1683691081853 143.66379172040615,130.31142177594302 144.00372977810912,131.741942054854 144.0655366977444,134.83540237956913 142.31949121929938,146.81534242613998" stroke="#4DD2FF" stroke-linecap="round" stroke-linejoin="round" stroke-width="0.5"><title>2025-07-06 5.0km</title><desc>1751807521000</desc></polyline><polyline fill="none" points="170.48768110363744,147.46114566719916 171.42353056982392,140.80611479237268 168.3947813884006,140.5895271066256 167.44191647745902,140.92425342802017 168.68404395069228,140.80611479237268 168.5138895023265,140.60921690623218 171.6447313526296,140.78642501278955 171.8659321356099,140.5895271066256 171.76383946661372,139.9791423259594 173.03999782941537,131.9258211225242 172.92088971560588,127.90888051825459 175.11588209989714,127.6922784128983 188.5580835225992,129.89767034615215 188.5410680777859,129.247869974919 173.75464651267976,127.19999999999709 173.99286274047336,132.06365584160085 172.4444572600769,143.01135744639032 172.86984338110778,143.680801142953 172.4784881497617,144.4093107728695 172.56356537394458,145.98445736573194 171.9680248045479,146.1222820833791 171.6957776871859,148.8000000000029 170.31752665521344,148.64248820573266 170.40260387945455,147.48083476851752" stroke="#4DD2FF" stroke-linecap="round" stroke-linejoin="round" stroke-width="0.5"><title>2025-07-05 4.8km</title><desc>1751729502000</desc></polyline><polyline fill="none" points="25.47653159161564,172.8000000000029 25.69029890629463,172.64377437834628 25.724051640194375,171.75849225716956 26.01657533395337,170.4696147036011 26.174088092171587,170.417538570342 26.376604495570064,168.5297644467646 21.977498177380767,168.3474951277749 22.25877095985925,167.37104793159233 22.675054677936714,162.97043354451307 22.72005832317518,159.75450434455706 22.562545564956963,159.32483967291773 22.731309234397486,156.69473966119403 22.72005832317518,151.20000000001164 16.813329890777823,153.32240369042847 16.68956986645935,153.62188113393495 16.734573511697818,153.36146600537177 19.918581409496255,152.15052870126965 19.974835966015235,154.83280452557665 20.289861482393462,155.5098749796016 22.641301944036968,155.5098749796016 22.65255285537569,158.94725437769375 22.900072903896216,159.06443614015006 22.99008019431494,159.48108153846988 27.107913730025757,159.74148422417056 27.31043013348244,160.77006965701003 27.287928310805,162.6449383102008 25.87031348713208,172.31830372134573" stroke="#4DD2FF" stroke-linecap="round" stroke-linejoin="round" stroke-width="0.5"><title>2025-07-03 5.2km</title><desc>1751545471000</desc></polyline><polyline fill="none" points="47.62149048372521,172.8000000000029 48.13458116131369,169.63671731814247 48.34486422588816,169.49071713368176 48.88318887123023,165.4999592376189 48.925245484133484,164.1177555339309 48.008411322545726,156.7781142833337 47.5626112256723,155.85331851030787 47.65513577405363,155.72676681490702 48.03364529029932,155.7949100562837 47.85700751605327,153.90635083913367 47.444852709479164,153.38066277890175 47.453264032053994,152.18325142054528 47.05793187068775,151.20000000000437 47.48690932241152,152.27086739368679 47.444852709479164,153.4001327585429 47.82336222572485,153.7700616192451 47.882241483806865,154.07184463103476 48.03364529029932,155.78517531047692 47.62149048372521,155.75597106714122 47.5626112256723,155.8825227239431 48.01682264517876,156.7781142833337 48.45421141947736,160.94445183175412 48.94206812928314,164.08855383204354 48.79907564536552,166.26892308380047 47.873830161232036,172.46907685849146" stroke="#4DD2FF" stroke-linecap="round" stroke-linejoin="round" stroke-width="0.5"><title>2025-07-01 5.0km</title><desc>1751376396000</desc></polyline><polyline fill="none" points="73.24091598694213,172.8000000000029 73.39689215400722,172.60748258684907 73.36569692054763,171.8975719208902 73.61525878787506,171.65692327159195 73.79203177720774,170.71838886621117 74.06239046674455,167.40939411168802 74.43673326767748,166.12186934256897 74.8526697132038,162.74054603456898 74.74868560180767,160.80316069041146 74.16637457808247,157.34948208722926 73.77123495494016,153.16161118170567 73.147330286738,151.60917311411322 73.6984460769454,151.71748340755585 73.71924289921299,151.1999999999971 73.71924289921299,151.69341446199542 73.24091598694213,151.59713863095385 73.15772869781358,151.71748340755585 73.5528683210141,152.3071710439035 73.79203177720774,153.13754252986837 74.22876504494343,157.80676936249802 74.8526697132038,161.9583756436623 74.80067765747663,163.89574208252452 73.49047785421135,172.39090012299857" stroke="#4DD2FF" stroke-linecap="round" stroke-linejoin="round" stroke-width="0.5"><title>2025-06-30 4.1km</title><desc>1751292736000</desc></polyline><polyline fill="none" points="89.44250871078111,163.3315227524945 89.20000000001164,161.57876788833528 89.28362369336537,161.39477517099294 95.78954703832278,161.08489189430838 96.82648083620006,161.18173052685597 98.51567944249837,161.01710479283065 101.04947735188762,161.04615641367855 110.79999999998836,160.4263865755347 107.88989547037636,160.6297489993085 107.21254355402198,160.85247877354414 105.95818815330858,160.79437540450454 99.61114982576692,161.12362735918578 93.70731707316008,161.23014980609878 93.53170731704449,161.385091333912 93.94146341460873,163.57361342445802 93.7491289198515,163.5542461934092 93.51498257837375,162.41157257369196" stroke="#4DD2FF" stroke-linecap="round" stroke-linejoin="round" stroke-width="0.5"><title>2025-06-26 5.0km</title><desc>1750950176000</desc></polyline><polyline fill="none" points="136.80000000001746,162.8840289662694 136.4512378902291,161.1159710337306 127.15866523142904,161.96859223496722 126.16663078582496,161.97756715106516 122.58600645855768,161.52882022524136 115.20000000001164,161.842943313437 122.33799784714938,161.51984526338492 126.17438105490874,161.98654206626816 132.7853606028366,161.3852207259697" stroke="#4DD2FF" stroke-linecap="round" stroke-linejoin="round" stroke-width="0.5"><title>2025-06-24 5.0km</title><desc>1750769966000</desc></polyline><polyline fill="none" points="162.80000000001746,162.86500652030372 162.5043227665592,161.134993479689 153.30720461095916,162.0090147157971 152.18674351586378,162.04505664313183 148.56080691641546,161.57651044185332 141.20000000001164,161.90088884568104 148.36628242072766,161.57651044185332 152.17896253601066,162.04505664313183 159.96772334293928,161.3512469611669" stroke="#4DD2FF" stroke-linecap="round" stroke-linejoin="round" stroke-width="0.5"><title>2025-06-22 5.0km</title><desc>1750563938000</desc></polyline><polyline fill="none" points="178.73815248723258,172.79999999999927 177.62179466203088,166.13051871750213 177.60614478596835,164.31198824174135 177.70526066762977,163.55072635359465 177.64266116340877,161.59315086737843 177.66352766481577,161.25479793072736 177.77829342253972,161.0614525278579 177.66352766481577,160.97082165302345 177.6583110394422,159.7321858001269 176.39067107907613,152.10645203613967 176.07245693262666,151.1999999999971 176.3958877043915,151.99163554574625 177.64266116340877,159.60529968929768 177.71047729300335,163.31509569159243 177.62179466203088,164.3180299636333 177.6165780366573,166.07010331892525 178.47210459431517,171.19311027954973 178.5920869773836,171.54348844374908 179.92754306737334,171.47099657972285" stroke="#4DD2FF" stroke-linecap="round" stroke-linejoin="round" stroke-width="0.5"><title>2025-06-21 8.0km</title><desc>1750517001000</desc></polyline><polyline fill="none" points="24.1913823732757,196.8000000000029 22.36168446938973,185.54865028322092 19.141983506735414,185.48294666381844 13.340848292049486,184.92446481718798 13.454317929514218,184.33312898734584 13.227378654584754,183.1997292473534 13.539420157612767,175.7913693520677 13.496869043505285,175.2657078129996 13.213194949901663,175.20000000001164 12.858602332882583,184.31670296112134 13.397583110781852,184.38240705603675 13.425950520089827,184.9408907815232 22.404235583439004,185.53222438090597 23.496380843862426,192.56235758092953 23.83678975625662,193.49859049583029 31.141397667117417,193.26863905573555" stroke="#4DD2FF" stroke-linecap="round" stroke-linejoin="round" stroke-width="0.5"><title>2025-06-19 5.0km</title><desc>1750345525000</desc></polyline><polyline fill="none" points="58.79999999998836,186.54074252207647 58.601739130477654,185.36258955602898 52.48695652175229,185.9426062500861 51.699130434775725,185.9607316803049 49.0800000000163,185.65864045270428 39.375652173912385,186.09969312808244 38.53565217391588,186.23865425010445 37.20000000001164,186.63741044396738 39.08347826087265,186.12990209535928 42.49565217393683,185.97885710501942" stroke="#4DD2FF" stroke-linecap="round" stroke-linejoin="round" stroke-width="0.5"><title>2025-06-17 5.1km</title><desc>1750166247000</desc></polyline><polyline fill="none" points="63.944827586063184,194.1510307485005 63.199999999953434,189.36404772932292 80.03310344822239,188.86809284615447 77.29586206900422,178.06461318439688 80.61034482752439,178.25869253612473 84.79999999993015,177.8489692514995 78.18965517240576,178.2371281724918 80.62896551727317,187.96243310290447 73.40413793094922,188.30744679560303" stroke="#4DD2FF" stroke-linecap="round" stroke-linejoin="round" stroke-width="0.5"><title>2025-06-16 3.2km</title><desc>1750084948000</desc></polyline><polyline fill="none" points="110.80000000001746,186.99850620845245 110.46903225811548,185.00149379155482 99.85193548386451,185.97983319273044 98.89387096776045,185.9899191155855 94.6958064516075,185.47553574019548 89.20000000001164,185.73777073623933 94.52161290321965,185.46544976492441 98.8851612903527,185.96974726887856 107.89096774198697,185.21330004923948" stroke="#4DD2FF" stroke-linecap="round" stroke-linejoin="round" stroke-width="0.5"><title>2025-06-15 4.6km</title><desc>1749956754000</desc></polyline><polyline fill="none" points="136.79999999998836,186.86869646520063 136.53705692803487,185.13130353479937 127.2876476906822,185.98209302483883 126.32094522018451,186.00000429398642 122.25306122447364,185.54326579025656 115.20000000001164,185.86566968640545 122.39226638022228,185.54326579025656 126.25907626209664,186.00000429398642 128.2775510204374,185.90149226850917 128.65649838879472,185.7761131672596 133.55961331899744,185.33728490394424" stroke="#4DD2FF" stroke-linecap="round" stroke-linejoin="round" stroke-width="0.5"><title>2025-06-14 5.1km</title><desc>1749906363000</desc></polyline><polyline fill="none" points="162.80000000001746,187.2825023057885 162.54031117400154,185.5312315057672 153.58868458276265,186.39802652083017 152.38189533242257,186.40687132332096 148.71570014147437,185.96463009550644 141.8110325318412,186.29188882088056 141.71937765210168,186.08845786646998 141.75756718532648,184.7263426679565 141.20000000001164,184.7174976942042 141.78048090526136,184.74403261275438 141.71937765210168,186.0796130315357 141.83394625180517,186.29188882088056 148.90664780765655,185.9557852479702 152.54992927866988,186.41571612490225 159.8059405941167,185.76119837396982 159.79830268744263,185.4074029396943 162.12786421502824,185.2835741969684" stroke="#4DD2FF" stroke-linecap="round" stroke-linejoin="round" stroke-width="0.5"><title>2025-06-12 5.9km</title><desc>1749735885000</desc></polyline><polyline fill="none" points="188.80000000004657,192.7951636059588 188.1114345114911,189.32834658339561 169.19085239083506,191.00976166465261 167.409563409572,186.13881250722625 167.20000000001164,180.05426366438041 170.73264033265878,179.89824672872783 173.7413721413468,180.08893407507276 173.90602910605958,179.53420665560407 173.59168399171904,179.41285979138047 167.28981288976502,179.2048363940412 167.4245322245406,185.96546655007114 167.9484407483833,187.94159998719988 168.9812889812747,190.4030674181995 177.36382536380552,189.67503146568197 177.5284823284601,190.33373079507146 188.0665280665853,189.31101232068613 188.71018711023498,192.74316187262593" stroke="#4DD2FF" stroke-linecap="round" stroke-linejoin="round" stroke-width="0.5"><title>2025-06-10 5.3km</title><desc>1749559786000</desc></polyline><polyline fill="none" points="11.767141785472631,204.24909050056885 11.248612153111026,202.1474734665535 11.200000000011642,200.5149508225004 25.897074268665165,200.13965621423267 26.561440360092092,202.59782199337496 26.075318829796743,202.57905749345082 25.929482370615005,202.9168181999994 26.237359339836985,204.66190531340544 26.15633908478776,205.84405170261743 26.6910727682407,208.2083217118634 28.068417104368564,208.15202992159175 30.110127531923354,216.01394999414333 30.14253563398961,216.3704491542594 29.624006001569796,216.52055385735002 30.093923480948433,216.389212248876 30.255963990988676,216.6894215020002 29.834658664651215,216.76447373889096 29.980495123774745,217.4587054794829 30.952738184540067,219.93540279920853 31.633308327116538,219.8603518546297 32.79999999998836,219.22241759099416 31.56849212310044,219.48509667308826 29.380945236305706,210.76019813120365 29.12168042018311,210.00964991436922 28.538334583688993,210.00964991436922 28.100825206376612,208.09573811406153 27.630907726939768,208.28337740548886 26.67486871726578,208.15202992159175 26.14013503381284,205.99416498669598 26.026706676755566,203.2170494190359 25.13548387098126,200.06459720079147 11.248612153111026,200.55248024124012 11.831957989546936,204.36167645036767" stroke="#4DD2FF" stroke-linecap="round" stroke-linejoin="round" stroke-width="0.5"><title>2025-06-08 5.0km</title><desc>1749355299000</desc></polyline><polyline fill="none" points="58.80000000001746,210.8888356619209 58.42010050249519,209.11116433808638 51.45786073218915,209.69474726330373 49.36453697056277,209.99102634569863 48.201579325221246,209.99102634569863 44.51888011486153,209.5421182561986 37.20000000001164,209.86533231123758 44.16999282123288,209.5421182561986 48.16281407038332,210.0000044841363 56.55936826992547,209.24583766396972" stroke="#4DD2FF" stroke-linecap="round" stroke-linejoin="round" stroke-width="0.5"><title>2025-06-07 5.3km</title><desc>1749293029000</desc></polyline><polyline fill="none" points="84.80000000001746,210.85568752919062 84.48109470657073,209.14431247080938 74.62614332014346,210.04504031674878 70.62815988477087,209.58567026240053 63.20000000001164,209.8919172306123 70.59704717321438,209.5676557018014 74.15167446888518,210.04504031674878 81.76651062298333,209.3514806882813" stroke="#4DD2FF" stroke-linecap="round" stroke-linejoin="round" stroke-width="0.5"><title>2025-06-05 5.1km</title><desc>1749128617000</desc></polyline><polyline fill="none" points="89.50236220471561,209.8632804811059 89.20000000001164,207.88280388200656 89.31338582676835,207.7952681616007 97.78897637792397,207.49983457833878 99.38582677161321,213.3536447847291 107.75748031493276,213.24423069852492 110.79999999998836,213.05822649609036 108.29606299212901,213.14575792558753 107.83307086618152,206.6463552152636 99.82047244091518,207.1168639085081 98.1007874016068,207.06215370126301 98.25196850392967,207.49983457833878 93.81102362205274,207.63113849350339" stroke="#4DD2FF" stroke-linecap="round" stroke-linejoin="round" stroke-width="0.5"><title>2025-06-03 5.2km</title><desc>1748952979000</desc></polyline><polyline fill="none" points="133.06249909711187,203.56082101978245 132.5886668859166,202.85949760240328 132.25278582482133,202.1234474476223 132.0368622855749,201.92207385148504 131.50305131345522,201.87346634264395 131.0951957392972,201.4012773109498 130.90926158046932,200.78326025598653 130.63335928026936,200.35967229801463 130.3034760952578,199.1999999999971 129.34981379681267,199.60970683729101 128.90597096606507,199.65831595972122 127.75437875659554,200.0888523886315 127.26255291714915,200.72076383748208 127.26255291714915,200.8804767931506 125.27125805494143,203.41500189319777 125.2592623027449,203.56082101978245 124.7134555784869,204.31074303203786 124.23962336732075,204.74819373136415 124.15565310203237,204.67181365271972 123.81977204090799,204.96344622015022 123.59785062554874,204.83151735600404 123.59185274949414,204.9565026020864 123.56186336898827,204.77596828423702 123.8737529257487,204.99816429989733 123.8257699170208,205.24813395230012 123.10602478610235,206.04664198242972 121.87646018745727,206.32438171478134 121.87646018745727,206.19939897519362 121.792489922198,206.35215562582016 121.45660886107362,206.42853382286557 121.16271293262253,206.34521214911365 120.67088709317613,206.386872998708 120.58691682788776,206.31049475502368 120.38898691689246,206.42159035395161 119.79519718390657,206.21328595755767 119.7172247947019,205.30368263951823 119.48930550322984,205.1023184330552 118.36770267426618,205.38700558556593 117.94785134788253,205.64391736174002 118.4276814351615,207.72000675107847 119.18341382261133,210.03904192813206 120.77884886279935,216.27366183226695 121.0007702781586,216.91930817933462 122.8841033707431,220.73057990218513 123.12401841438259,220.8000000000029 123.95172531495336,220.5362032526973 124.5155256674916,220.70281184330088 125.54716035514139,220.48760900383786 125.52916672683205,220.0780275314537 125.805069027032,220.00166461223125 126.30289274259121,220.2307531136321 126.68075893633068,220.05025920709159 126.83670371468179,220.27934754537273 127.80835964140715,220.49455104149092 128.3781578700873,220.3904204023056 128.95395397479297,219.96001207481459 129.05591786833247,219.14778251434473 129.48776494691265,218.5507529127717 129.37380530117662,217.95371808826167 129.5117564512766,217.66214104311803 129.2178605227964,217.3358509679092 129.03192636399763,216.84988413403335 128.95995185087668,216.12786987621075 129.34981379681267,215.8154574929431 129.94360352979857,216.05844502575928 130.27348671481013,216.0376175568381 130.3574569800985,215.58635416949255 130.21950582999852,215.0309489806241 130.1055461842625,214.98235081150779 130.21950582999852,214.9268100044428 130.08755255601136,214.88515436946182 130.19551432560547,214.94763781239453 130.2075100778311,214.6213347574303 130.05156529945089,214.2603167932466 129.34381592069985,214.2117180752757 129.0139327357174,213.96178126467566 129.15188388578827,213.01756727332395 129.7156842383556,212.05251152983692 130.14753131687758,211.5734500117469 130.34546122790198,211.504020527158 130.77131043036934,210.9138670553366 131.52104494173545,210.19873306609225 132.1868091878423,209.36555779891933 131.9948771529016,208.97673919187218 131.4010874199157,208.96979598232429 131.32311503074015,208.7406696706821 131.5510343221831,208.19215204069042 131.81494087018655,207.94219317677926 132.06085378993885,207.9769097404278 132.16281768344925,207.85193002863525 131.95289202028653,207.37283901206683 132.2347921965411,206.78264980076347 132.49869874457363,206.62989411417948 132.72062015993288,206.72015887941234 132.69063077948522,206.55351614263054 133.35639502556296,206.24800340112415 133.41637378648738,206.06052899591305 133.99816776730586,205.70640926906344 134.05214865211747,205.1995288138569 133.29041838855483,203.74830229589134 133.17046086673508,203.69275234187808" stroke="#4DD2FF" stroke-linecap="round" stroke-linejoin="round" stroke-width="0.5"><title>2025-06-02 11.5km</title><desc>1748829019000</desc></polyline><polyline fill="none" points="162.80000000004657,211.01010417004727 162.40432972525014,208.98989582994545 150.99283930059755,210.05207220497687 146.26278101583011,209.51057190335268 141.20000000001164,209.72925506292086 146.3257285595173,209.48974491135596 150.47127393836854,210.0312453233637 162.38634471275145,209.00030937744305 162.79100749379722,210.9476240983131" stroke="#4DD2FF" stroke-linecap="round" stroke-linejoin="round" stroke-width="0.5"><title>2025-06-01 4.9km</title><desc>1748740054000</desc></polyline><polyline fill="none" points="188.79999999998836,220.40892800624715 188.72178636089666,220.5749758197344 188.56535908265505,220.45421379205072 188.0439348219079,217.5558955880988 171.56692818342708,218.9899663713586 170.0417622208479,214.71790405572392 169.97658418829087,209.34368598276342 169.61158720578533,207.32075562310638 167.20000000001164,199.4250241802656 168.79034399514785,204.70902107811708 169.22051901026862,205.52424952304864 169.92444176226854,208.5586715124664 170.62836451421026,208.75492552017386 169.89837054919917,208.7398290673009 170.0417622208479,214.21974035682797 170.53711526852567,216.25767216749955 171.397465298709,218.38614878656517 171.61907060950762,218.52200795777026 178.6843693421688,217.79742427130986 178.87990343989804,218.3710533154226 184.49824984907173,217.82761532903532" stroke="#4DD2FF" stroke-linecap="round" stroke-linejoin="round" stroke-width="0.5"><title>2025-05-31 5.5km</title><desc>1748696141000</desc></polyline><polyline fill="none" points="31.285194805182982,239.96107695229875 30.794285714335274,236.79383424030675 13.023376623401418,238.38558459952765 11.382337662333157,233.70774233133125 11.200000000011642,228.071409692624 17.23116883111652,228.13638296272256 11.284155844186898,228.0389230476867 11.396363636362366,233.62652857927606 11.831168831209652,235.3644938388752 12.925194805138744,237.86583112829248 28.66233766230289,236.35528798044834 30.064935064932797,236.27407557763217 30.135064935078844,236.87504637821985 32.79999999998836,236.66389473357412" stroke="#4DD2FF" stroke-linecap="round" stroke-linejoin="round" stroke-width="0.5"><title>2025-05-29 5.0km</title><desc>1748526381000</desc></polyline><polyline fill="none" points="50.29350237711333,231.8794324934861 49.81426307442598,227.9550316833047 57.927099841530435,227.55862315728154 58.79999999998836,230.74968886254646 57.858637083962094,227.6379049270763 49.78003169572912,228.01449289247103 50.00253565760795,229.97670259683218 49.69445324881235,228.0343132914859 38.15847860532813,229.10461183918233 39.887163232895546,237.7658852304594 40.55467511882307,239.78745416236052 40.10966719489079,240.06492276806966 40.81141045951517,241.92791601225326 39.870047543547116,239.47034669971617 37.54231378756231,229.14425241308345 41.581616481766105,228.5694633016683 48.89001584780635,228.11359486742003 48.80443740094779,227.53880270973605 38.072900158469565,228.2721579222998 37.473851030052174,226.0720839877613 37.20000000001164,226.30993101850618 37.33692551503191,228.43072084784217 45.43264659267152,227.6379049270763" stroke="#4DD2FF" stroke-linecap="round" stroke-linejoin="round" stroke-width="0.5"><title>2025-05-27 6.0km</title><desc>1748352132000</desc></polyline><polyline fill="none" points="81.92164009113912,235.60963212927163 82.007744874747,235.5526552900119 81.73097949888324,234.17095271491416 74.45512528475956,234.86892959520628 73.6125284738373,234.88317394875048 70.58041002281243,234.5270642391988 63.33530751711805,234.84756305946212 63.20000000001164,232.48295940099342 64.06104783603223,232.39036787073564 65.2480637813569,232.47583697995287 65.25421412303695,234.5270642391988 70.75876993167913,234.30627530792117 74.1045558086771,234.63389734260272 81.71867881552316,233.87893991079181 84.6708428246202,233.77210565316636 84.80000000001746,234.00714080432226 84.71389521643869,234.03562985983444 81.98929384967778,234.14958596572978" stroke="#4DD2FF" stroke-linecap="round" stroke-linejoin="round" stroke-width="0.5"><title>2025-05-25 7.6km</title><desc>1748179850000</desc></polyline><polyline fill="none" points="110.7858453473018,235.19247159729275 110.72922673658468,234.72532334623247 110.45321100918227,234.72532334623247 110.27627785058576,233.84838859889715 110.13473132372019,233.65169164153485 103.30511140238377,234.23358541334164 102.18689384011668,234.43847658415325 97.69986893839086,234.020498041893 89.32031454789103,234.3974983917651 89.20000000001164,232.9714442880504 91.2807339449646,232.80752840270725 91.26657929227804,234.0041066822596 91.54259501968045,234.0368893982086 97.42385321101756,233.7828229999286 101.68440366972936,234.15162879884156 110.53106159897288,233.29927505632077 110.80000000001746,235.10232039174298" stroke="#4DD2FF" stroke-linecap="round" stroke-linejoin="round" stroke-width="0.5"><title>2025-05-24 6.6km</title><desc>1748094255000</desc></polyline><polyline fill="none" points="136.79999999998836,234.96242977261863 136.56502820309834,233.03757022738137 127.67091055604396,233.79340959531692 126.43513295729645,234.0050435829762 125.02530217566527,234.02519917719474 120.96116035457817,233.53138593537733 115.20000000001164,233.76317613151332 120.93505237714271,233.5213080884423 124.97308622079436,234.03527697279787 134.1892022562679,233.25928370746988" stroke="#4DD2FF" stroke-linecap="round" stroke-linejoin="round" stroke-width="0.5"><title>2025-05-18 4.7km</title><desc>1747565909000</desc></polyline><polyline fill="none" points="159.99255654166336,234.77338019321905 159.7575722874608,233.3913227641242 153.49338677356718,233.9212340073791 152.44832522189245,234.10741808998137 151.60732894361718,234.1002571728386 148.74423131978256,233.7278884763 141.24328657315345,234.0716134970353 141.20000000001164,233.85678555611958 145.4235327798524,233.5846692213745 148.286630403687,233.53454241318104 151.63206412826548,234.0716134970353 159.8379616375605,233.3411958179713 162.6021185227437,233.22661980678095 162.71342685373384,233.2409418183961 162.73197824222734,233.3411958179713 162.80000000001746,233.29822983567283" stroke="#4DD2FF" stroke-linecap="round" stroke-linejoin="round" stroke-width="0.5"><title>2025-05-17 5.7km</title><desc>1747487200000</desc></polyline><polyline fill="none" points="187.61962504984695,233.10703299409215 184.7591543677554,233.2566937149022 183.36338252888527,233.50612774110778 176.95317112084012,233.9950165888731 172.93817311525345,233.47619569153176 167.20000000001164,233.7056745044756 172.8606302353437,233.496150392275 176.79808536096243,233.985039289837 188.2399680893286,232.98730425271788 188.6190666134935,234.92290095295903 188.79999999998836,235.01269574727485" stroke="#4DD2FF" stroke-linecap="round" stroke-linejoin="round" stroke-width="0.5"><title>2025-05-11 5.0km</title><desc>1746965499000</desc></polyline><polyline fill="none" points="32.80000000001746,258.77605289639905 32.451362984167645,257.22394710360095 22.650789096107474,258.11214972172456 18.668579626944847,257.65459191647096 11.200000000011642,257.9686024309849 18.482639885216486,257.66356366098626 22.201434720220277,258.11214972172456 32.513342898135306,257.2418906795283" stroke="#4DD2FF" stroke-linecap="round" stroke-linejoin="round" stroke-width="0.5"><title>2025-05-10 5.3km</title><desc>1746870058000</desc></polyline><polyline fill="none" points="58.75283842795761,257.63590713059966 58.69781659389264,257.4811665711022 58.80000000001746,257.59949761129974 58.38340611354215,257.6723166350275 48.75458515287028,258.5188334288905 44.67510917031905,258.03641086306743 37.20000000001164,258.34588978983084 44.63580786026432,258.03641086306743 46.54585152838263,258.1911504605159 48.28296943232999,258.50973114042426 56.16681222707848,257.7997497837059" stroke="#4DD2FF" stroke-linecap="round" stroke-linejoin="round" stroke-width="0.5"><title>2025-05-05 5.4km</title><desc>1746434825000</desc></polyline></svg>