<?xml version="1.0" encoding="utf-8" ?>
<svg baseProfile="full" height="300mm" version="1.1" viewBox="0,0,200,300" width="200mm" xmlns="http://www.w3.org/2000/svg" xmlns:ev="http://www.w3.org/2001/xml-events" xmlns:xlink="http://www.w3.org/1999/xlink"><defs /><rect fill="#222222" height="300" width="200" x="0" y="0" /><text fill="#FFFFFF" style="font-size:12px; font-family:Arial; font-weight:bold;" x="10" y="20">Over 3km Runs</text><text fill="#FFFFFF" style="font-size:4px; font-family:Arial" x="10" y="280">Runner</text><text fill="#FFFFFF" style="font-size:9px; font-family:Arial" x="10" y="290">tang-hi</text><text fill="#FFFFFF" style="font-size:4px; font-family:Arial" x="65" y="280">SPECIAL TRACKS</text><rect fill="yellow" height="2.6" width="2.6" x="65" y="283" /><text fill="#FFFFFF" style="font-size:3px; font-family:Arial" x="70" y="285.5">Over 20.0 km</text><rect fill="red" height="2.6" width="2.6" x="65" y="287" /><text fill="#FFFFFF" style="font-size:3px; font-family:Arial" x="70" y="289.5">Over 40.0 km</text><text fill="#FFFFFF" style="font-size:4px; font-family:Arial" x="120" y="280">STATISTICS</text><text fill="#FFFFFF" style="font-size:3px; font-family:Arial" x="120" y="285">Number: 78</text><text fill="#FFFFFF" style="font-size:3px; font-family:Arial" x="120" y="290">Weekly: 3.7</text><text fill="#FFFFFF" style="font-size:3px; font-family:Arial" x="141" y="285">Total: 409.7 km</text><text fill="#FFFFFF" style="font-size:3px; font-family:Arial" x="141" y="290">Avg: 5.3 km</text><text fill="#FFFFFF" style="font-size:3px; font-family:Arial" x="167" y="285">Min: 3.2 km</text><text fill="#FFFFFF" style="font-size:3px; font-family:Arial" x="167" y="290">Max: 11.5 km</text><polyline fill="none" points="21.86232466661022,31.125 21.91335172217805,31.833538184400823 22.02269541262649,31.84197312634933 21.95708919831668,32.6854629941372 21.51971443646471,35.5026570393602 21.366633269848535,35.83160460219369 21.366633269848535,36.63288167315477 20.710571127041476,40.61384889499459 20.768887761980295,40.97651227065944 20.251327627076535,44.560890683482285 20.280485944531392,45.91026365071593 20.907389769883594,51.307536310952855 21.344764531764667,51.375 20.987575142877176,48.37281280470779 21.053181357186986,48.187280822538014 20.666833650844637,45.66569142710068 20.637675333418883,44.55245703350374 21.811297611071495,36.211157862904656 21.986247515800642,35.89064633448288 21.920641301519936,35.64604459876864 22.248672372923465,33.09033508650464" stroke="#4DD2FF" stroke-linecap="round" stroke-linejoin="round" stroke-width="0.5"><title>2025-09-27 5.0km</title><desc>1758971882000</desc></polyline><polyline fill="none" points="43.44218392518815,51.375 43.52111112384591,50.76309122416569 43.72632184039685,50.54389900743263 44.626091905200155,43.657337956326955 43.76578543972573,36.377468152910296 43.33168584704981,35.49142114701681 43.394827605981845,35.37267191510182 43.71053640064201,35.50969024569349 43.781570879451465,35.445748384081526 43.6079310423811,33.64622304298973 43.22118776891148,33.15294584205549 43.260651368269464,32.138978644186864 42.866015374922426,31.125 43.26854408811778,32.12070885999856 43.24486592854373,33.1986197707447 43.639501921861665,33.71016618551948 43.7973563192063,35.43661382870778 43.394827605981845,35.37267191510182 43.3711494464078,35.518824793623935 43.836819918535184,36.61496380331664 44.168314152921084,40.08598243675078 44.63398462504847,43.282854653276445 44.53137926678755,45.091320564570196 43.7026436807937,50.59869711171632" stroke="#4DD2FF" stroke-linecap="round" stroke-linejoin="round" stroke-width="0.5"><title>2025-09-25 5.0km</title><desc>1758803583000</desc></polyline><polyline fill="none" points="66.85139060296933,31.125 66.8586801860074,32.69389784919622 66.22448645925033,36.35454419778398 66.21719687621226,37.484757235062716 65.64131981396349,40.5801126852748 65.68505731236655,40.968078255413275 65.1674969146843,44.75486439567612 65.41534273893922,47.959581913666625 65.84542813981534,51.375 66.26093437458621,51.3075363109092 65.53926565105212,44.704262601109804 67.3325030853448,32.58424466219731" stroke="#4DD2FF" stroke-linecap="round" stroke-linejoin="round" stroke-width="0.5"><title>2025-09-23 5.1km</title><desc>1758638106000</desc></polyline><polyline fill="none" points="88.59327638190007,51.375 88.49924221105175,51.33873003824556 88.52275075376383,50.58612500526215 88.69514673366211,50.42290861836227 89.07128341708449,48.192254742949444 89.61981608046335,43.395253229435184 88.77350854274118,36.367044198057556 88.33468241203809,35.460138177695626 88.42871658288641,35.351308835539385 88.79701708542416,35.38758529768529 88.62462110549677,33.59188270983577 88.2484844220744,33.16562476544641 88.26415678387275,32.07729736804322 87.85667537682457,31.125 88.27982914572931,32.158922383554454 88.25632060298813,33.17469410462945 88.6324572864396,33.573744115405134 88.60894874372752,34.1813850204926 88.81268944725161,35.37851618351124 88.43655276380014,35.333170598933066 88.37386331657763,35.45106907090667 88.84403417087742,36.54842429554992 89.17315376884653,40.0308506442816 89.64332462317543,43.13227215401275 89.51010954781668,45.12728163599968 88.80485326633789,49.79724303635885" stroke="#4DD2FF" stroke-linecap="round" stroke-linejoin="round" stroke-width="0.5"><title>2025-09-21 5.0km</title><desc>1758459157000</desc></polyline><polyline fill="none" points="101.1456002034829,34.921595951906056 101.125,35.517521505840705 101.77390640898375,35.48176605795743 101.94900813838467,35.62478778397781 102.31981180066941,35.49368454177602 104.99783825024497,35.48176605795743 105.23474059003638,35.62478778397781 107.10935910482658,35.61286931348877 107.38746185152559,35.74397242247505 108.04666836222168,35.577113894680224 111.50750254333252,35.577113894680224 113.31002034590347,35.61286931348877 113.50572227878729,35.76780933563714 114.82413530012127,35.672461653943174 121.375,35.875075384945376 120.72609359113267,40.76153583967243 120.37589013233082,41.29784227415803 113.53662258398253,41.26208858814789 113.15551882004365,47.578404048093944 113.49542217707494,41.67921424702945 119.50038148526801,41.71496780591406 120.38619023404317,41.88181760333828 120.70549338759156,40.83304350593971 120.95269582915353,38.83081237438455" stroke="#4DD2FF" stroke-linecap="round" stroke-linejoin="round" stroke-width="0.5"><title>2025-09-20 5.0km</title><desc>1758380898000</desc></polyline><polyline fill="none" points="134.45240899643977,31.125 134.3220650589501,31.284204328650958 134.3293063888268,31.85398572312988 134.43792633671546,31.92101856953377 134.37275436797063,32.742166515934514 133.9382745763869,35.59936248631857 133.7282760104281,36.353444619664515 133.7644826597534,36.93156958617328 133.25758956951904,40.37509956544818 133.13448696190608,40.551042492508714 133.1851762708975,40.95319634514453 132.69276584041654,44.51384805815178 132.72897248974186,45.86266657283704 133.33000286811148,51.375 133.69206936113187,51.36662287297804 133.771723989601,51.26609728218318 133.46034680560115,48.01570385150262 133.08379765285645,45.728623483664705 133.08379765285645,44.3462914233387 134.24241043048096,36.16911406820873 134.40171968741925,35.88423876924935 134.3365477186744,35.64963484303007 134.80723415958346,32.549448854675575" stroke="#4DD2FF" stroke-linecap="round" stroke-linejoin="round" stroke-width="0.5"><title>2025-09-18 5.2km</title><desc>1758195038000</desc></polyline><polyline fill="none" points="155.8044626210467,51.20163047154347 155.78869138640584,51.375 155.97006058492116,51.338501179729064 156.04891675818362,50.68151987792953 156.2224003393785,50.5628977417 157.0188476893527,45.10611006434192 157.1371319492755,43.53653781222965 156.29337089529145,36.41836572730972 155.84389070767793,35.49661242059665 155.9227468809695,35.32321222577593 156.30125651264098,35.4053492019375 156.14354416611604,33.64395090199832 155.74137768245419,33.169371354961186 155.78080576905631,32.16544481275196 155.3628680507536,31.125 155.8044626210467,32.201951429233304 155.78080576905631,33.17849790836772 156.14354416611604,33.61657138094597 156.3091421299614,35.414475527984905 155.9227468809695,35.34146489365958 155.8675475596392,35.48748610291659 156.24605719131068,36.153704855561955 156.38799830322387,36.829044845319004 156.64033805768122,39.68549427929247 157.12924633192597,42.89775055073551 157.1371319492755,44.32132736835774 156.73496546558454,47.250539425636816 156.56936750173918,48.254297273626435 156.37222706858302,48.436797494963685 156.16720101807732,50.30740337759198 155.985831819562,50.76364280349662" stroke="#4DD2FF" stroke-linecap="round" stroke-linejoin="round" stroke-width="0.5"><title>2025-09-16 5.1km</title><desc>1758026219000</desc></polyline><polyline fill="none" points="179.59828871159698,31.125 179.41703043988673,31.208895909730927 179.39527944728616,31.745827713326435 179.5257854029478,31.89683915396745 179.475033086841,32.71900770774664 179.04726356561878,35.59653317951597 178.90225694823312,35.84820702356228 178.74274966915254,38.04612599574466 178.25697750094696,40.579532545372786 178.29322915527155,41.032517579624255 177.79295632537105,44.907954659742245 178.4744874270109,51.375 178.8732556247851,51.29112457171868 178.16997353051556,44.597590855402814 178.58324239001377,41.55260844410077 178.7862516543246,40.81441398437164 179.18501985209878,37.34145605500089 179.39527944728616,36.07471282740153 179.51853507204214,35.881763478137145 179.46778275593533,35.453917660765 179.70704367462895,33.85157343174069" stroke="#4DD2FF" stroke-linecap="round" stroke-linejoin="round" stroke-width="0.5"><title>2025-09-14 5.0km</title><desc>1757842188000</desc></polyline><polyline fill="none" points="21.80331754492363,55.29166666666424 21.92708594314172,56.38684306009236 21.432012350298464,59.705981618615624 21.220878023916157,60.45571787236986 21.279121976025635,60.76740398303082 20.90781678140047,63.55567896494176 20.638438502908684,64.73498156259302 20.674840973020764,65.18142745590012 20.172486886149272,68.91294725786429 20.420023682556348,72.14735682390165 20.84957282929099,75.54166666666424 21.279121976025635,75.44901985441538 20.5365115867462,68.95506277613458 22.327513113850728,56.59745224652579" stroke="#4DD2FF" stroke-linecap="round" stroke-linejoin="round" stroke-width="0.5"><title>2025-09-13 5.1km</title><desc>1757760467000</desc></polyline><polyline fill="none" points="44.52013024414191,55.29166666666424 44.4838033458218,56.880575567192864 44.076942084764596,59.66319436555932 43.917103732179385,59.999456161036505 43.73546924063703,62.008591916535806 43.263219562591985,64.77422620464495 43.30681184056448,65.11046723332402 42.79823526425753,68.7165663831911 42.81276602356229,69.64958743341413 43.45938481349731,75.54166666666424 43.88804221356986,75.48283199954312 43.59742702706717,72.27207676746912 43.19783114566235,69.91015900122147 43.16876962699462,68.95192403632245 44.338495752599556,60.49543981520401 44.51286486448953,60.0162692149388 44.454741827212274,59.797699247712444 44.70176473571337,58.0743388996998" stroke="#4DD2FF" stroke-linecap="round" stroke-linejoin="round" stroke-width="0.5"><title>2025-09-11 5.0km</title><desc>1757592265000</desc></polyline><polyline fill="none" points="65.84498562806402,75.45976577869442 66.00227276279475,75.37786481584044 66.02586583301309,74.78635563794523 66.20674603799125,74.65895314980298 66.3168470323144,74.01283774095646 66.56064209114993,71.71044492995134 67.0482322088792,68.97115739626315 67.11114706276567,67.07817883880489 66.28538960532751,60.49794679916522 65.83712127129547,59.65149179859145 65.91576483866083,59.50586432480486 66.3011183188064,59.53316949418513 66.12810247056768,57.81292755501636 65.74274899042211,57.312321838348 65.79779948762734,56.402122452615004 65.38885293726344,55.29166666666424 65.7899351308588,56.28379585258517 65.75061334719067,57.35783156465186 66.12810247056768,57.77651996093482 66.29325396209606,59.56047465524898 65.90790048195049,59.50586432480486 65.83712127129547,59.62418666531448 66.10450940034934,59.97915274836123 66.32471138902474,60.65267426730861 66.66287872876273,64.27504092174058 67.11114706276567,67.20559211333602 67.0482322088792,69.08036647659901 66.10450940034934,75.48706608302746 65.93149355216883,75.54166666666424" stroke="#4DD2FF" stroke-linecap="round" stroke-linejoin="round" stroke-width="0.5"><title>2025-09-09 5.2km</title><desc>1757417515000</desc></polyline><polyline fill="none" points="89.45837379756267,55.29166666666424 89.40025081930798,55.93059666535555 89.56735438181204,55.97263136070251 89.46563916985178,57.00667814199551 89.080574438849,59.5707221338962 88.89167475947761,60.08352139818453 88.65191747416975,62.68109508296038 88.23052588175051,64.82466244849638 88.26685274316696,65.27018124589085 87.78007280020392,68.71656638539571 87.7655420556548,69.74204840821767 88.04889157469734,72.37294008406025 88.43395630567102,75.49123695455637 88.85534789809026,75.54166666666424 88.84081715351203,75.21387298901391 89.06604369429988,75.00374815410032 89.06604369429988,74.88607801360195 88.71730582468444,74.63392714941438 88.1578721588885,68.9351127997652 89.26220874596038,60.96620121366868 89.50196603129734,60.13396049842413 89.42931230846443,59.814512344339164 89.7344579443452,57.603561051684665" stroke="#4DD2FF" stroke-linecap="round" stroke-linejoin="round" stroke-width="0.5"><title>2025-09-07 5.0km</title><desc>1757247375000</desc></polyline><polyline fill="none" points="110.71637251848006,75.47715404763585 110.89955807186197,75.54166666666424 110.94734560747747,74.89653841164545 111.178318696504,74.5463240086392 111.94291926699225,69.43119636570918 112.08628187398426,67.4772336124297 111.2181416428648,60.370721555555065 110.75619546489906,59.495042739785276 110.83584135762067,59.37521234912856 111.2181416428648,59.43973642531637 111.05088526807958,57.64226283595053 110.67654957211926,57.15371257179504 110.71637251848006,56.23191244932241 110.41371812598663,55.29166666666424 110.71637251848006,56.13973192146659 110.68451416140306,57.14449461696495 111.05884985736338,57.586955391045194 111.2420354107162,59.42130097965128 110.81991217911127,59.34755915954884 110.78008923269226,59.47660730538337 111.07477903587278,59.91905669635162 111.2659291785385,60.591944339030306 111.55265439246432,63.716658491801354 112.07831728472956,67.29289533014526 112.07831728472956,68.38970259117923 111.52876062467112,72.31597950110881 111.13053116085939,74.8228091760102 110.94734560747747,75.08086123846442" stroke="#4DD2FF" stroke-linecap="round" stroke-linejoin="round" stroke-width="0.5"><title>2025-09-04 5.0km</title><desc>1756985562000</desc></polyline><polyline fill="none" points="134.34849425515858,55.34234004513564 134.4360787802434,55.29166666666424 134.48716975326533,55.40990450168465 134.4579749115801,55.91663617525046 134.53826072625816,55.91663617525046 134.47987104285858,56.82874540265766 134.0857406797295,59.396110233043146 133.8229871043004,60.426411981090496 133.8594806564215,60.83177310294559 133.2317915595777,64.69949440678465 133.268285111757,65.05416726664407 132.77197280258406,68.55014736134763 132.81576506517013,70.26430612015247 133.4142593202996,75.53322315725381 133.75729871043586,75.54166666666424 133.83028581470717,75.44034449707397 133.48724642460002,72.45128496325196 133.57483094974305,72.25707681365748 133.3412722160283,71.15937005072192 133.12960961359204,68.84569449588889 133.53103868715698,65.69595240539638 133.74270128959324,64.89372020792507 134.13683165272232,61.38914141810528 134.35579296553624,60.113944767275825 134.47987104285858,59.94504308158503 134.40688393855817,59.71702526156878 134.72802719741594,57.32702306796273" stroke="#4DD2FF" stroke-linecap="round" stroke-linejoin="round" stroke-width="0.5"><title>2025-09-02 5.1km</title><desc>1756811867000</desc></polyline><polyline fill="none" points="156.8378187759372,55.29166666666424 156.80842783715343,56.77955383502558 156.41899789805757,59.49169152318791 156.17652265296783,60.418389268772444 156.18387038767105,61.14103635301581 155.58870387700154,64.76267950912734 155.1257965909317,68.85171735571203 155.15518752968637,70.09284109689906 155.73565857100766,74.84464479734015 156.30878187753842,75.54166666666424 156.17652265296783,75.4736647884929 156.073654367181,74.66613826342655 155.85322232617182,72.55803231524624 155.91200420376845,72.3455186899082 155.5225742647017,69.8548187917404 155.50787879529526,68.65619618459459 156.69086408196017,60.290862664995075 156.85251424537273,59.950790771486936 156.94068706175312,58.47996391857305 157.37420340903918,56.13338894332992" stroke="#4DD2FF" stroke-linecap="round" stroke-linejoin="round" stroke-width="0.5"><title>2025-08-31 5.1km</title><desc>1756640573000</desc></polyline><polyline fill="none" points="179.40160368470242,55.29166666666424 179.46712807755102,56.92600150965882 179.01573781555635,59.74810181395151 178.86284756549867,60.0008225285419 178.7900426845008,60.506261647096835 178.7245182916522,61.7951174552436 178.31681095820386,64.5833578842794 178.20760363675072,64.76867567809677 178.25128656532615,65.17300397271174 177.75621337475604,68.64340743634966 177.78533532712026,70.07532771444676 178.3604938868084,75.07000909079943 178.91381098216516,75.54166666666424 178.79732317262096,75.35637293877517 178.51338413686608,72.13051126855134 178.15664022008423,69.98267479737842 178.15664022008423,68.39071305656398 178.71723780356115,64.98768708235002 179.13222562510055,61.43289202971209 179.46712807755102,60.04294257274887 179.41616466088453,59.72282970014203 179.74378662521485,57.27982233653165" stroke="#4DD2FF" stroke-linecap="round" stroke-linejoin="round" stroke-width="0.5"><title>2025-08-30 5.0km</title><desc>1756550382000</desc></polyline><polyline fill="none" points="20.840685859438963,99.6992250502226 21.11618576172623,99.70833333333576 21.997785449202638,93.5782494937157 22.123728261649376,91.52872229258355 21.60421416015015,87.86678366334672 21.38381423827377,85.0974570586186 21.250000000029104,84.48710053870309 20.848557285178686,83.85852007500216 20.903657265676884,83.71276165642485 21.312971406267025,83.77653099372401 21.11618576172623,81.92720178259333 20.754100175807253,81.5536873080564 20.77771445317194,80.45135502248013 20.376271738350624,79.45833333333576 20.78558587896987,80.49690621205082 20.7383573242696,81.50813665582973 21.11618576172623,81.95453204886871 21.29722855470027,83.75831118770293 20.903657265676884,83.72187156452856 20.848557285178686,83.8403002856503 21.179157167993253,84.35956283022824 21.3916856640717,85.23410347106255 21.619957011716906,88.10362999181234 22.123728261649376,91.40119460657297 22.02927115233615,93.3323087044264 21.226385722664418,98.84304230577982" stroke="#4DD2FF" stroke-linecap="round" stroke-linejoin="round" stroke-width="0.5"><title>2025-08-28 5.0km</title><desc>1756381580000</desc></polyline><polyline fill="none" points="44.43515557117644,79.45833333333576 44.60191301180748,80.32245712105214 44.57291171781253,81.11106705383281 44.123391660512425,83.92986651458341 43.96388454339467,84.2234859247983 43.9421335728548,85.14628298883326 43.30410510447109,88.90447724601836 43.35485736903502,89.38262809123262 42.86908569416846,92.54506486220635 42.83283407666022,93.82845957020618 42.94883925272734,93.96266962989466 42.9053373116767,94.50789575513772 43.45636189804645,99.26379259350506 44.06538907243521,99.70833333333576 43.86963033780921,99.5321948357232 43.19535025188816,93.97944587202073 43.166348957893206,92.897371277395 43.66662127969903,89.36585091545567 43.78987677930854,89.1896903640154 43.90588195534656,87.71328240038565 44.413404600694776,84.81072161319753 44.37715298315743,84.4164352544758 44.51490912970621,84.23187503546069 44.456906541687204,83.98020134477702 44.66716592333978,82.53725737894274" stroke="#4DD2FF" stroke-linecap="round" stroke-linejoin="round" stroke-width="0.5"><title>2025-08-26 5.0km</title><desc>1756206850000</desc></polyline><polyline fill="none" points="66.88704296731157,79.45833333333576 66.90160394940176,80.14913858930959 67.01809180632699,80.17441184319614 66.95256738681928,81.03369789141288 66.54485988774104,83.83052807058266 66.40653055769508,84.14221715772146 66.23907926341053,86.03759854477539 65.7367253806442,88.89322469971376 65.6566399790463,90.2157085146755 65.28533493523719,92.70057329871634 65.3508593547449,94.57891320648196 65.91145716595929,99.59041919071751 65.93329863913823,99.70833333333576 66.37012810242595,99.65779872129497 66.0570669870649,96.38982845287683 65.6712009611656,94.16618745587766 65.63479850586737,93.03749838575459 66.10074993339367,89.59237482153549 66.26820122767822,89.11223621520912 66.82879903886351,84.52129690094444 66.99625033311895,84.18433721474867 66.93800640469999,83.91476847994636 67.21466506476281,81.81715682105278" stroke="#4DD2FF" stroke-linecap="round" stroke-linejoin="round" stroke-width="0.5"><title>2025-08-24 5.0km</title><desc>1756042259000</desc></polyline><polyline fill="none" points="88.49184401956154,99.70833333333576 88.71773050245247,99.3816052858092 89.50026581811835,94.05110643247463 89.6454785571259,91.70782954551396 89.21790771454107,89.00971955758723 88.79033687195624,84.89238163970731 88.32242915747338,83.94004590071563 88.43537239890429,83.80933238131547 88.78226949757664,83.84667912013538 88.60478726102156,82.01667105397064 88.21755329036387,81.57783716721315 88.28209228545893,80.63480405853625 87.8464540684945,79.45833333333576 88.25789016232011,80.45740070806642 88.23368803912308,81.58717408023949 88.62092200980987,82.04468165637081 88.80647162074456,83.85601580244838 88.70966312810197,83.94938257354079 88.37083340372192,83.82800575262081 88.37083340372192,83.9587192454128 88.68546100493404,84.52825443518668 88.86294324146002,85.21916123484698 89.07269497556263,87.75866588260396 89.6535459315055,91.80118833390588 89.52446794128628,93.92974296208558 88.63705675859819,99.63365273921954" stroke="#4DD2FF" stroke-linecap="round" stroke-linejoin="round" stroke-width="0.5"><title>2025-08-23 5.0km</title><desc>1755956696000</desc></polyline><polyline fill="none" points="111.9649038228672,79.45833333333576 111.97223616973497,80.01830717311532 112.06755667948164,80.12012019508256 112.03089494499727,80.96855721697648 111.5909541308938,83.70046586040553 111.42964249904617,84.0483111678841 111.05569280710188,87.53516822186066 110.86505178769585,88.68893801564263 110.74040189033258,88.80770753080287 110.79906066559488,89.22339950406604 110.27113168869982,93.21902704547392 110.94570760359056,99.57261444059986 110.96770464431029,99.67440363080823 111.3636513769743,99.70833333333576 110.63774903371814,93.04936521779746 111.73026872202172,85.10880621206888 111.86958331314963,84.2434432669761 112.00156555735157,84.08224721784063 111.94290678217658,83.7598541861953 112.22886831130018,81.55397373587766" stroke="#4DD2FF" stroke-linecap="round" stroke-linejoin="round" stroke-width="0.5"><title>2025-08-21 5.0km</title><desc>1755781186000</desc></polyline><polyline fill="none" points="134.31447306307382,79.45833333333576 134.33632363329525,81.02592555844603 133.89931222959422,83.84077487132163 133.74635823830613,84.1357385817173 133.68080652775825,84.63296074802929 133.7609252850816,84.87735699157201 133.0835576094105,88.87186940470565 133.12725874979515,89.29322026039154 132.64654620570946,92.7482165717156 132.67568029928952,94.20601332388469 133.28749626444187,99.70833333333576 133.70994062133832,99.63249985517905 133.41859968553763,96.43900493557157 133.03985646902584,94.16388082916092 133.0180058988335,92.55440351409197 133.49143491950235,89.33535522827151 133.61525481721037,89.14996120954311 134.11781793145929,84.96163139137934 134.35817420348758,84.15259361920471 134.36545772687532,83.22556147172872 134.85345379431965,80.12414225262182" stroke="#4DD2FF" stroke-linecap="round" stroke-linejoin="round" stroke-width="0.5"><title>2025-08-19 5.3km</title><desc>1755607955000</desc></polyline><polyline fill="none" points="156.03058697926463,99.60859090302256 156.3832150483213,99.70833333333576 156.3832150483213,99.03733665461186 156.51643009661348,98.73810677925212 156.68098986218683,96.67067295093875 157.15899680019356,93.54222804412711 157.11197972431546,91.49281046255783 156.5791195311176,88.05584963107685 156.3361979724723,85.22637879832473 156.18731056549586,84.48272092785191 155.80333777927444,83.83881703135557 155.88953575165942,83.68464216916618 156.26567235865514,83.76626418823435 156.10111259308178,82.07032466597593 155.6936312688922,81.517096776377 155.72497598614427,80.44690849535982 155.34100319983554,79.45833333333576 155.75632070339634,80.49225571697025 155.70930362748913,81.508027438118 156.07760405514273,81.90707744893007 156.26567235865514,83.7571950786878 155.8738633930625,83.70278040208359 155.8346824964974,83.82067882610863 156.2891808965942,84.86361963608215 156.5242662759265,87.5933461122404 157.10414354500244,91.60163027876115 157.09630736568943,92.53566157512978 156.51643009661348,96.55279150843126 156.3440341517271,96.63440175443975 156.23432764137397,96.90643536871357 156.03058697926463,98.23938809048559" stroke="#4DD2FF" stroke-linecap="round" stroke-linejoin="round" stroke-width="0.5"><title>2025-08-17 5.0km</title><desc>1755429603000</desc></polyline><polyline fill="none" points="178.45875721646007,99.6627919085513 178.35642867092974,99.70833333333576 178.47450006962754,99.58992558075988 178.608314321551,97.5860783536773 178.71851429366507,96.88472124037798 179.0805999164004,96.5841379403355 179.07272848978755,95.89188165750966 179.5607569378044,93.14102095706039 179.631599777058,91.90219518590311 178.773614279693,84.71484599495307 178.3249429645948,83.8403002854975 178.41152865701588,83.74009137779649 178.78935713288956,83.76742109101906 178.62405717468937,82.00008247398364 178.24622869878658,81.52635691941396 178.26984297856688,80.49690621200716 177.868400222942,79.45833333333576 178.29345725831809,80.51512668136274 178.23835727220285,81.48080625330476 178.61618574807653,81.92720178250602 178.80509998605703,83.75831118753558 178.40365723043215,83.7127616562575 178.348557244346,83.84941018062818 178.8208428391954,84.8241636083767 179.631599777058,91.47406759199657 179.62372835044516,92.55804625681048 179.09634276953875,96.4384002198567 178.7027714404976,98.95234268593049 178.5374714822974,99.07985962773091 178.48237149624038,99.46240936461254" stroke="#4DD2FF" stroke-linecap="round" stroke-linejoin="round" stroke-width="0.5"><title>2025-08-16 5.1km</title><desc>1755350047000</desc></polyline><polyline fill="none" points="21.131875469873194,123.82032568986324 20.84837659751065,123.875 20.9822510649974,123.73831416218309 21.360249561519595,120.91342686724238 21.57287371577695,120.80407460218703 21.525623903697124,120.50335518571228 22.092621648451313,117.15892278576939 22.13199649186572,115.70993377610284 21.281499874719884,108.90210587184265 20.85625156617607,108.04539478429069 20.942876221612096,107.8813427908317 21.289374843414407,107.93602682201163 21.11612553251325,106.1405503621063 20.74600200468558,105.7212968716849 20.801126785430824,104.81898379400809 20.360128539497964,103.625 20.769626910740044,104.58201117647695 20.76175194204552,105.67572572193603 21.11612553251325,106.1040936147183 21.320874718105188,107.92691281912266 20.91137634689221,107.89045679834817 20.872001503506908,108.01805280624103 21.210625156614697,108.5648907826835 21.352374592825072,109.11172542296117 21.604373590496834,112.03723408333462 22.100496617145836,115.33629130269401 22.13987146053114,116.65770282162703 21.541373841057066,120.49424246035778 21.588623653136892,120.76762381754816 21.336624655494234,122.17096833043615 21.131875469873194,122.63570745163452" stroke="#4DD2FF" stroke-linecap="round" stroke-linejoin="round" stroke-width="0.5"><title>2025-08-14 4.9km</title><desc>1755170321000</desc></polyline><polyline fill="none" points="44.577167900366476,103.64194057478744 44.4014862223994,103.625 44.4527267118101,105.15810807799426 44.028162656730274,108.03790338344697 43.874441188556375,108.34281706249021 43.874441188556375,109.13897530040413 43.44255706356489,112.17955222811725 43.303475735214306,113.00955117787089 43.193674686481245,113.07730582946533 43.25955531571526,113.50077115451131 42.754470491578104,116.98157464131509 42.79839091107715,118.4636244847643 43.41327678391826,123.80725411975436 43.83052076905733,123.875 43.113153917423915,117.1678909261318 44.30632531348965,108.7154878224319 44.47468692154507,108.3682264853851 44.4014862223994,108.0717827362023 44.74552950839279,105.66631447819964" stroke="#4DD2FF" stroke-linecap="round" stroke-linejoin="round" stroke-width="0.5"><title>2025-08-12 5.0km</title><desc>1754999139000</desc></polyline><polyline fill="none" points="66.79603078708169,103.69284739669092 66.89131132711191,103.625 66.89864059945103,105.0582645318791 66.44422571620089,107.9756026967807 66.29031099771964,108.26393872302287 66.1363962792093,110.22290123873972 65.65266430674819,113.06373923794308 65.16160306197708,117.15946388487646 65.20557869583718,118.41442832928442 65.71862775753834,122.6625125931314 66.25366463616956,123.875 65.53539594978793,117.2103411886128 66.6201282516704,109.38335150372586 66.88398205480189,108.29786054295982 66.81801860401174,108.06040751375986 67.12584804103244,105.77064721370698 67.33839693805203,104.90561030903336" stroke="#4DD2FF" stroke-linecap="round" stroke-linejoin="round" stroke-width="0.5"><title>2025-08-10 5.0km</title><desc>1754830447000</desc></polyline><polyline fill="none" points="88.46204533151467,123.875 89.55863982258597,117.3476582725416 89.62964234358515,115.81389237441908 89.04584383754991,111.76937217336672 88.76972292253049,108.82031823752914 88.3279294584936,108.03510488766915 88.3910428105155,107.8707570384795 88.79339042952051,107.95293100068375 88.61982871152577,106.14508646004106 88.24114859948168,105.69768497010955 88.2648161064717,104.67504462136276 87.86246848743758,103.625 88.28059444451355,104.71156769151276 88.24903776848805,105.70681563505786 88.61982871152577,106.15421707947098 88.80916876750416,107.92553968831635 88.40682114849915,107.90727880874329 88.35948613449,108.0077136003747 88.80916876750416,108.97553401718324 89.1720705415355,112.56368283891061 89.59808566755964,115.17481551993114 89.63753151256242,116.6264263803896 88.72238790852134,123.10817604813928 88.46993450049195,123.37291362843098" stroke="#4DD2FF" stroke-linecap="round" stroke-linejoin="round" stroke-width="0.5"><title>2025-08-09 5.0km</title><desc>1754735080000</desc></polyline><polyline fill="none" points="111.85807462429511,103.625 111.9020318260591,105.04918742838345 111.61631001465139,107.28714712840883 111.25,108.82994802819303 111.16941179678543,110.22861649918923 110.67855637715547,113.09369447517383 110.70786117835087,113.53446697207255 110.20967955846572,116.89104270260577 110.19502715786803,118.04377494568325 110.82508038304513,123.4003806296605 111.31593580261688,123.875 110.5979681739409,118.34890728651953 110.63459917542059,116.54352471210586 111.68224581726827,109.33855745742767 111.81411742253113,108.51630400151043 111.93866282750969,108.3552430972486 111.88005322517711,108.00768956038519 112.30497284216108,105.13395972298167" stroke="#4DD2FF" stroke-linecap="round" stroke-linejoin="round" stroke-width="0.5"><title>2025-08-07 5.0km</title><desc>1754570205000</desc></polyline><polyline fill="none" points="134.1009499275824,103.625 134.14623378921533,104.20139195431693 134.297179994639,104.26252420761011 134.24434882277274,104.67298249636224 134.65190357741085,104.73411441423377 134.69718743901467,105.10963809853274 134.2820853741141,107.18808835509844 134.16132840976934,108.29715679342917 134.24434882277274,108.59407032508898 134.11604454813641,108.71632854002382 133.874530619476,110.13975067385763 132.81035987118958,117.87646739178308 133.46697586483788,123.875 132.80281256095623,117.7367585894317 133.27074579778127,114.20030393260095 133.44433393402142,113.72003343998949 133.85943599892198,110.13975067385763 134.0707606865326,108.82112115729251 134.20661227140226,108.58533758878184 134.1537810995069,108.24476018140558 134.56888316440745,105.18823587136285" stroke="#4DD2FF" stroke-linecap="round" stroke-linejoin="round" stroke-width="0.5"><title>2025-08-05 5.0km</title><desc>1754406000000</desc></polyline><polyline fill="none" points="155.94336346868658,123.875 156.29380521870917,120.97188671442564 156.5088490198832,120.80599171976792 156.84336159945815,118.55716296354512 157.09026374149835,116.75068635734351 157.10619291197509,115.62622866457968 156.52477819033084,111.63521296084218 156.30176980397664,108.98058328476327 156.10265517322114,108.28926071561727 155.80000093459967,107.85602921845566 155.87168220162857,107.71776341115765 156.2619468778139,107.75463431374374 156.07876141756424,105.93872454357188 155.70442591185565,105.5423536147864 155.73628425280913,104.41775689327187 155.3938070879958,103.625 155.7442488379893,104.53759163432551 155.70442591185565,105.45017408059357 156.09469058804098,105.92950663466763 156.26991146302316,107.7454165895033 156.166371855099,107.83759378964896 155.78407176418114,107.76385203702375 156.29380521870917,108.84231919270678 156.62035321304575,112.33572727406863 157.10619291197509,115.65387943080714 157.09822832673672,116.79677039155649 156.166371855099,123.17457482402824 156.11858434372698,123.33124934621446 155.91150512779132,123.34046548612969 155.83185927549493,123.69067810969864 155.60885088911164,123.67224590006663" stroke="#4DD2FF" stroke-linecap="round" stroke-linejoin="round" stroke-width="0.5"><title>2025-08-03 5.0km</title><desc>1754221111000</desc></polyline><polyline fill="none" points="188.875,112.65439908297776 188.8127401998354,112.91255153872044 188.65190238278592,112.9275603330334 185.4922175249667,112.86452334566638 185.4066102997749,112.81049153515414 185.28209069946024,112.86152158100413 184.8799961568002,112.85851981604355 184.84627209836617,112.82550038131922 184.1276902382815,112.8675251100176 183.77488470406388,112.81349330499688 182.63604919292266,112.81049153515414 182.1431591083674,112.73244541216627 181.80851268253173,112.64539372403124 181.7877594158199,112.61237405109387 181.32340507300978,112.59736509664071 180.30390084549435,112.41725704845157 178.8044773251313,112.40524980619193 175.67592236740165,112.79548268136205 175.25307455802977,112.99059718589888 174.7990968485683,113.12867744119649 173.57984242889506,113.8700973412233 172.93389700229454,114.19727672427507 172.53699077632336,114.31133840978873 172.3035165257461,114.31434002714195 172.00778247501876,114.2423011264309 171.69388931589492,114.37137069898199 171.5875288239622,114.16125715317139 171.4604150653322,114.24530275079815 171.35664873174392,114.05019653247291 169.59002690236957,115.09475019380807 169.45513066870626,114.75557446153834 168.91035741736414,113.714010487427 168.85847425056272,113.67799032713447 168.625,113.79205401740182 168.7780553420307,113.67498864513436 168.8532859338884,113.66598359728596 168.87663335894467,113.59094142514004 168.9700230591843,113.59694480592407 169.09454265949898,113.512897363913 169.13086087624833,113.55492111480999 169.22425057647342,113.49488716666565 169.1931206763984,113.55191942029705" stroke="#4DD2FF" stroke-linecap="round" stroke-linejoin="round" stroke-width="0.5"><title>2025-08-02 8.3km</title><desc>1754134728000</desc></polyline><polyline fill="none" points="21.79127072985284,127.79166666666424 21.682290046010166,127.81688768121239 21.6169016356871,128.4978521673911 22.16180505498778,128.4978521673911 22.16180505498778,129.0443010967938 20.34546032396611,141.06526468157972 20.35272570286179,142.33450927591912 21.10832511098124,148.04166666666424 20.38905259751482,142.49421417090343 20.33819494501222,141.2585945848623 21.413471025793115,133.57548472448252 21.682290046010166,132.53308226559602 21.609636256762315,132.29769924789434 21.95110906616901,129.8177303356424" stroke="#4DD2FF" stroke-linecap="round" stroke-linejoin="round" stroke-width="0.5"><title>2025-07-31 5.0km</title><desc>1753965181000</desc></polyline><polyline fill="none" points="43.349065622489434,148.04166666666424 43.43639786314452,147.3067187837005 43.658698112063576,147.0402987006746 44.46850616164738,141.4636705396333 44.555838402273366,139.40565165776206 44.14299508286058,136.90656572954322 43.70633387970156,132.78108518826048 43.28555126566789,131.97250568099844 43.37288350632298,131.853055822241 43.72221246888512,131.89899809428607 43.57136587140849,130.0704776306593 43.166461846616585,129.62942192948685 43.21409761425457,128.60947237451182 42.89652583008865,127.79166666666424 43.22203690884635,128.62784994584217 43.19027973039192,129.64779929334327 43.57136587140849,130.12560944190773 43.75396964728134,131.88062118828384 43.65075881744269,131.97250568099844 43.33318703327677,131.84386736500892 43.30142985488055,131.98169412514835 43.77778753111488,133.03835896871897 44.0556628422346,136.12558720532252 44.60347416991135,140.06716283717105 44.03184495840105,144.8262255677182 43.61106234442559,147.46289570871159 43.46021574694896,147.5272037759205" stroke="#4DD2FF" stroke-linecap="round" stroke-linejoin="round" stroke-width="0.5"><title>2025-07-29 5.0km</title><desc>1753797916000</desc></polyline><polyline fill="none" points="67.11854557064362,127.79166666666424 67.10394816609914,129.33719081247546 66.76820786148892,131.70187158935005 66.50545457960106,132.4872685371156 66.33028572503827,134.64918310086796 65.8412726726383,137.23327284228435 65.8996622908453,137.689280341845 65.41794794073212,140.88970705092652 65.44714274985017,142.58698099272442 66.04563633631915,148.04166666666424 65.4836362611968,143.3047232325116 65.38145442938549,141.5061339314052 65.84857137495419,137.36838643620285 66.49815587734338,133.23887802255922 66.43246755684959,133.02775244894292 66.74631175468676,131.74409742044372 67.10394816609914,128.88958295055636" stroke="#4DD2FF" stroke-linecap="round" stroke-linejoin="round" stroke-width="0.5"><title>2025-07-27 5.0km</title><desc>1753616848000</desc></polyline><polyline fill="none" points="89.32837991471752,127.79166666666424 89.34993444569409,129.5708083189893 88.9547680443502,132.38077568043082 88.79670148377772,132.6800564590376 88.57397133027553,135.1241418504069 88.17162008525338,137.35202004337043 88.20035945987911,137.77597506999882 87.67586587264668,141.23403602620965 88.32968664579676,148.04166666666424 88.76077726547373,147.97517240162415 88.45182898803614,144.642078169265 88.0997716486454,142.3063377543658 88.08540196131798,141.05947395032126 89.07691038653138,134.06837242241454 89.40741319500376,132.6717431188663 89.33556475839578,132.34752219300572 89.82413412735332,129.38790769022307" stroke="#4DD2FF" stroke-linecap="round" stroke-linejoin="round" stroke-width="0.5"><title>2025-07-26 5.2km</title><desc>1753529066000</desc></polyline><polyline fill="none" points="111.9489272122737,127.79166666666424 111.86156131071039,128.22973896010808 111.97804917942267,128.7941748487574 111.83971983531956,130.12521740114607 111.53393917999347,132.19755757776875 111.37376836049953,132.49239851625316 111.3519268851087,133.37691504170652 110.7039631154621,137.26025214976835 110.7549265579728,137.6308865327519 110.27441409957828,141.1602536998398 110.33993852572166,143.0385907466698 110.91509737746674,148.04166666666424 111.33008540974697,147.9995544921112 111.00246327900095,144.94215350862942 111.07526819696068,144.78212115284987 110.66028016468044,142.40686778723466 110.6529996728641,141.2781774563482 112.22558590042172,130.26842956711334" stroke="#4DD2FF" stroke-linecap="round" stroke-linejoin="round" stroke-width="0.5"><title>2025-07-24 5.0km</title><desc>1753356656000</desc></polyline><polyline fill="none" points="133.39482724491972,148.0051349163623 133.49743270751787,148.04166666666424 133.84471273468807,145.15561264267308 134.07360184349818,145.00948085990967 134.01835274827317,144.72634985460172 134.61030734004453,141.0638329006033 134.6497709795076,139.95865507539565 134.05781638770713,136.0584561026044 133.81314182313508,133.17201716911222 133.33957814972382,132.1763569108225 133.41061270073988,132.0302040174647 133.79735636734404,132.10328049385862 133.59214544217684,130.26721600757446 133.25275814288761,129.90182556280342 133.2843290544697,128.91526393766253 132.8502290204924,127.79166666666424 133.24486541500664,128.69602654946357 133.23697268712567,129.86528643659403 133.60003817008692,130.24894652063085 133.8052490952541,132.0484731421384 133.70264363265596,132.1489532614214 133.42639815647271,132.0393385802745 133.33957814972382,132.1489532614214 133.61582362584886,132.54173810387147 133.81314182313508,133.19942050643294 134.16831457818625,136.8348558115904 134.62609279580647,139.80338106879208 134.6182000679546,141.01816466465243 133.75789272788097,147.00050596432266" stroke="#4DD2FF" stroke-linecap="round" stroke-linejoin="round" stroke-width="0.5"><title>2025-07-22 5.0km</title><desc>1753184035000</desc></polyline><polyline fill="none" points="146.125,141.25647616150673 146.125,138.00704330814187 148.27792758098803,128.90847321634647 165.6885593221523,132.08577813737793 166.375,132.84399443047005 164.03486132528633,146.88875604674104 148.40273497696035,144.43367066278006 147.84110169508494,143.71158349802135 149.7756163328886,129.66669629013631 150.46205701073632,129.233426160441 154.611902927747,129.9194369551842 166.34379815112334,132.51904478878714 164.28447611723095,146.5999233525945 163.62923728814349,146.92486011693836 148.09071648691315,144.28925334723317 148.27792758098803,139.6678682571801 149.8068181819981,129.73890792712336 150.30604776588734,129.30563788540894 157.98170261958148,130.6054464254412 150.15003852092195,129.37784959573764 149.27638674899936,133.34947106035543 150.05643297394272,134.1076846566575" stroke="#4DD2FF" stroke-linecap="round" stroke-linejoin="round" stroke-width="0.5"><title>2025-07-20 4.9km</title><desc>1753020627000</desc></polyline><polyline fill="none" points="179.91391049377853,127.79166666666424 179.76114724148647,128.82701114592783 179.19374087575125,130.28320546656323 178.7136277970567,132.47165746332757 178.58268786646659,134.1971269357091 178.13167255013832,137.08405160296388 178.0298303819436,137.17663352842646 178.08075146607007,137.58904266688478 177.60791282792343,140.9976518606927 177.58608950619237,142.1254077409758 178.23351471836213,148.03325123551622 178.1607703125046,146.87191354234528 178.24078915896825,148.04166666666424 178.6554322723823,147.95751231667964 177.9570859760861,141.3679614538123 179.07007538579637,133.23760200568358 179.30285748452297,132.5053255040766 179.33195524686016,131.5205296593922" stroke="#4DD2FF" stroke-linecap="round" stroke-linejoin="round" stroke-width="0.5"><title>2025-07-20 5.0km</title><desc>1752942252000</desc></polyline><polyline fill="none" points="22.12316423584707,151.96739476405492 21.99786712578498,151.95833333333576 21.802090391283855,152.95508519276336 22.021360333950724,153.0910050377206 22.00569819516386,153.38096668135404 21.731610766873928,155.229449998973 21.58282044864609,155.54658789440873 21.199098049022723,159.16188020655682 20.878024204430403,160.63876197811624 20.90934848197503,161.07366728738998 20.35334255595808,165.23234223999316 21.105125216417946,172.20833333333576 20.408160041610245,166.39202530867624 20.392497902852483,164.63437476780382 20.90934848197503,161.1280303019812 20.88585527378018,160.64782252701116 21.457523338554893,157.20474767244013 21.574989379238104,155.53752682733466 21.731610766873928,155.21132779946493 22.146657444012817,152.24829865960055" stroke="#4DD2FF" stroke-linecap="round" stroke-linejoin="round" stroke-width="0.5"><title>2025-07-17 5.0km</title><desc>1752765839000</desc></polyline><polyline fill="none" points="52.438344594673254,171.78102486135322 52.8944256757386,171.147729110613 53.875,162.8883556064975 39.21199324319605,162.22864990736707 36.56672297301702,162.43975591348135 36.88597972970456,162.22864990736707 36.40709459455684,159.24675923737232 33.6934121621307,154.9717765894893 33.625,152.5703665727924 33.94425675668754,152.38564180533285 46.69172297301702,152.59675581450574 45.77956081088632,160.90923348083743 45.20945945940912,161.278670756059 37.25084459455684,161.01478704169858 36.38429054047447,158.24399184860522 34.14949324319605,155.39400023058988 33.87584459455684,153.88982537516858 37.04560810804833,153.6523232856125 46.28125,153.9689926901192 46.4180743242614,155.94816771752085 45.597128378460184,162.38697942806175 44.36570945940912,162.46614415216027" stroke="#4DD2FF" stroke-linecap="round" stroke-linejoin="round" stroke-width="0.5"><title>2025-07-15 4.1km</title><desc>1752589649000</desc></polyline><polyline fill="none" points="67.06378772997414,151.95833333333576 67.12549675215269,153.39535363608593 66.64725183026167,156.3942768101915 66.47755201926338,156.74235947642592 66.4698383914947,157.62594774319587 65.79103914753068,161.76709150535316 65.82189365863451,162.23117304103653 65.30508059787098,166.07760065941693 65.92217081965646,172.20833333333576 65.56734394212253,169.78107837651623 65.2973669701023,165.88126736420963 66.45441113595734,157.56347209710657 66.38498848601012,157.27786857770116 66.61639731915784,156.4567532877336 67.07150135777192,153.48460878009791 67.01750596333295,153.17221537927253 67.2026330298977,152.2261028737339 67.03293321892852,152.01188730671856" stroke="#4DD2FF" stroke-linecap="round" stroke-linejoin="round" stroke-width="0.5"><title>2025-07-13 5.0km</title><desc>1752418082000</desc></polyline><polyline fill="none" points="88.57413868478034,172.20833333333576 88.4702206349175,172.19908356248925 88.53417020407505,171.4683486971262 88.88589283448528,169.24835869404342 89.09372893426917,169.06335708308325 89.45344526082044,166.54729784084338 89.64529396826401,163.9479135890142 89.11771002269234,160.3308532453011 88.84592435375089,157.3057332920216 88.68605043084244,156.7136491162455 88.35031519271433,156.17706950378488 88.42225845804205,156.03829839933314 88.8059558730165,156.0938068665273 88.638088253967,154.33602229462122 88.25439083896345,153.854938492339 88.27837192744482,152.75398714138282 88.00658625850338,151.99534064147883 87.83871863942477,151.99534064147883 87.982605170022,151.95833333333576 88.25439083896345,152.63371433779685 88.24639714282239,153.8641901279334 88.59811977323261,154.18799678026699 88.638088253967,154.3730286355858 88.8059558730165,156.06605263715755 88.414264761901,156.04754981287988 88.32633410429116,156.14931529985915 88.67805673470139,156.6581410272338 88.83793065760983,157.2224716876226 89.16567219956778,160.82115373582928 89.66128136057523,163.8831592968636 89.65328766443417,165.067230500179 88.67805673470139,171.7273440040808" stroke="#4DD2FF" stroke-linecap="round" stroke-linejoin="round" stroke-width="0.5"><title>2025-07-12 5.1km</title><desc>1752325602000</desc></polyline><polyline fill="none" points="111.12799282599008,172.20833333333576 110.93120706142508,172.19922505023715 111.37200717403903,169.16611530337104 111.553050077433,169.07502933913202 112.05682163464371,165.69567463974818 112.13553594046971,163.9922858280479 111.67112153614289,160.9406794554161 111.3169071599259,157.23306560555648 110.84462132499903,156.27653099280724 110.907592769654,156.1763220138091 111.30116429878399,156.2400913770398 111.12012139539002,154.3907614140262 110.76590701920213,153.99902652210585 110.75016415806022,152.769150032349 110.35659262895933,151.95833333333576 110.77377844977309,152.86936282261013 110.76590701920213,153.98991638797452 111.12799282599008,154.39987150741945 111.32477859052597,156.21276165548625 110.946949922567,156.16721210106334 110.86036418622825,156.31297059372446 111.33265002109692,157.30594401451526 111.67899296671385,160.92246059783065 112.14340737101156,163.9285219818048 112.06469306524377,165.65012990566174 111.30903572935495,170.67812878763652" stroke="#4DD2FF" stroke-linecap="round" stroke-linejoin="round" stroke-width="0.5"><title>2025-07-10 5.0km</title><desc>1752149320000</desc></polyline><polyline fill="none" points="130.9101617091801,151.95833333332848 130.95759115874534,153.22061719134217 131.30145466781687,153.04225170990685 132.03661113564158,153.28921923683083 132.83105441526277,153.22061719134217 133.72035659401445,153.54990669188555 138.30915583629394,154.15360202401644 138.4395868224674,154.3319660374691 137.38428157038288,161.06846514584322 136.87441498792032,161.10962398539414 136.77955608884804,161.2879788117134 136.60169565310935,162.48157812526915 136.7321266392828,163.00291704428673 135.92582599725574,167.5439683139848 130.02085953048663,167.3656217486423 129.8192843699362,167.22843192279106 129.0604131774744,172.20833333332848 129.8548564570956,167.31074583501322 132.15518475940917,167.35190277229412 132.92591331433505,167.05008494082722 133.03262957575498,167.3656217486423 135.96139808441512,167.4616545438912 138.0008644143236,154.68869335757336 137.9415776024107,154.22220359556377 131.83503597509116,153.15201511095802" stroke="#4DD2FF" stroke-linecap="round" stroke-linejoin="round" stroke-width="0.5"><title>2025-07-08 5.1km</title><desc>1751976330000</desc></polyline><polyline fill="none" points="146.30536321137333,172.0239488536754 146.2619052210939,172.20833333332848 146.5371391599183,172.0909977791889 146.62405514053535,171.15231034158205 147.1310650278465,170.73325172513432 147.23246700526215,170.29742963473836 148.6955526798847,160.15585967614606 148.8259266508394,157.08812145628326 148.47826272825478,154.8249993075733 149.2749925510725,154.7914713385544 149.47779650596203,155.09322281416098 152.27359388425248,155.4955572560284 154.51892338495236,155.46202942339005 156.15584102092544,156.11582093096513 161.37079986114986,156.88695630065922 162.3268756486359,151.95833333332848 166.23809477884788,152.83007328840904 162.74696955515537,152.0086261483375 162.09509970014915,154.90881920022366 161.99369772261707,156.92048384365626 152.23013589391485,155.61290461673343 149.47779650596203,155.10998676884628 149.23153456073487,154.7411793722422 148.43480473791715,154.87529124827415 148.75349666702095,156.21640400974138 148.8114406541572,159.11652306416363 147.1745230181259,170.3477168578247" stroke="#4DD2FF" stroke-linecap="round" stroke-linejoin="round" stroke-width="0.5"><title>2025-07-06 5.0km</title><desc>1751807521000</desc></polyline><polyline fill="none" points="171.70720103458734,170.9531573963177 172.58455990912626,164.71406595117878 169.74510755157098,164.51101499577635 168.85179669759236,164.82482092209102 170.0162912036758,164.71406595117878 169.85677140840562,164.52947418291296 172.7919356430648,164.69560678281414 172.99931137711974,164.51101499577635 172.90359949984122,163.93877926391724 174.0999979650369,156.3887906356831 173.98833410831867,152.62290881919034 176.04613946855534,152.41984434542246 188.64820330234943,154.48739928285067 188.63225132285152,153.8782114347996 174.76998110557906,151.95833333332848 174.99330881913193,156.51801068482746 173.54167868127115,166.78148093931668 173.9404781697085,167.40908440483327 173.5735826403834,168.09206218288455 173.65334253798937,169.568762113704 173.09502325422363,169.69797278648184 172.83979158167494,172.20833333332848 171.54768123920076,172.0606660261983 171.62744113692315,170.9716159288073" stroke="#4DD2FF" stroke-linecap="round" stroke-linejoin="round" stroke-width="0.5"><title>2025-07-05 4.8km</title><desc>1751729502000</desc></polyline><polyline fill="none" points="24.50924836716149,196.375 24.70965522469487,196.22853847968508 24.741298412671313,195.39858649109374 25.015539375599474,194.19026378462877 25.163207586389035,194.14144240968744 25.353066714596935,192.37165416883363 21.22890454129083,192.20077668228623 21.49259777489351,191.28535743585962 21.882863760576583,187.15978144797555 21.925054677994922,184.1448478230086 21.777386467147153,183.74203719334764 21.935602407262195,181.27631843235577 21.925054677994922,176.125 16.387496772629675,178.11475345976942 16.271471749816556,178.3955135630531 16.313662667234894,178.15137438003148 19.298670071410015,177.01612065742665 19.351408718153834,179.5307542427181 19.646745139732957,180.16550779337558 21.851220572541934,180.16550779337558 21.861768301925622,183.38805097907607 22.093818347435445,183.49790888138523 22.178200182155706,183.88851394230733 26.038669121917337,184.13264146015717 26.228528250125237,185.09694030343962 26.207432791416068,186.85462966580235 24.8784188941936,195.9234097387598" stroke="#4DD2FF" stroke-linecap="round" stroke-linejoin="round" stroke-width="0.5"><title>2025-07-03 5.2km</title><desc>1751545471000</desc></polyline><polyline fill="none" points="43.39514732849784,196.375 43.87616983873886,193.4094224857472 44.07331021176651,193.27254731281573 44.57798956678016,189.53121178525907 44.61741764139151,188.23539581305522 43.75788561490481,181.35448214061762 43.339948024076875,180.48748610340408 43.42668978817528,180.36884388896578 43.78154245967744,180.4327281777587 43.615944546298124,178.66220391168463 43.22954941514763,178.16937135520857 43.23743503005244,177.04679820675665 42.86681112876977,176.125 43.26897748975898,177.12893818157318 43.22954941514763,178.1876244611267 43.58440208659158,178.53443276802864 43.63960139104165,178.81735434159054 43.78154245967744,180.42360185356665 43.39514732849784,180.39622287543898 43.339948024076875,180.51486505368666 43.76577122983872,181.35448214061762 44.175823205761844,185.26042359226267 44.63318887120113,188.20801921753446 44.499133417528355,190.2521153910493 43.63171577613684,196.06475955482892" stroke="#4DD2FF" stroke-linecap="round" stroke-linejoin="round" stroke-width="0.5"><title>2025-07-01 5.0km</title><desc>1751376396000</desc></polyline><polyline fill="none" points="65.538358737831,196.375 65.6845863944618,196.19451492517692 65.65534086310072,195.528973675835 65.88930511369836,195.303365567117 66.05502979119774,194.42348956206843 66.30849106266396,191.3213069797057 66.65943743853131,190.1142525086616 67.04937785619404,186.94426190740342 66.95189275179291,185.12796314726438 66.40597616706509,181.89013945678016 66.03553277032916,177.96401048285043 65.45062214386417,176.50859979447705 65.9672931972309,176.6101406945818 65.98679021809949,176.125 65.98679021809949,176.5875760581257 65.538358737831,176.49731746652105 65.46037065429846,176.6101406945818 65.8308140510344,177.16297285366454 66.05502979119774,177.94144612175296 66.46446722972905,182.31884627733962 67.04937785619404,186.21097716593795 67.00063530396437,188.0272582023681 65.77232298837043,195.99146886531526" stroke="#4DD2FF" stroke-linecap="round" stroke-linejoin="round" stroke-width="0.5"><title>2025-06-30 4.1km</title><desc>1751292736000</desc></polyline><polyline fill="none" points="78.85235191634274,187.4983025804613 78.625,185.8550948953125 78.70339721255004,185.68260172280134 84.80270034843124,185.39208615091047 85.7748257839412,185.48287236892065 87.35844947735313,185.328535743276 89.73388501739828,185.35577163782 98.875,184.77473741456197 96.14677700347966,184.96538968684763 95.51175958191743,185.17419885019626 94.33580139372498,185.1197269417171 88.38545296166558,185.42840064923075 82.85060975607485,185.5282654432158 82.68597560975468,185.67352312553703 83.0701219511975,187.72526258543076 82.88980836234987,187.70710580631567 82.6702961672272,186.6358492878353" stroke="#4DD2FF" stroke-linecap="round" stroke-linejoin="round" stroke-width="0.5"><title>2025-06-26 5.0km</title><desc>1750950176000</desc></polyline><polyline fill="none" points="121.375,187.07877715588256 121.04803552207886,185.42122284411744 112.33624865443562,186.22055522028677 111.40621636170545,186.22896920412313 108.04938105487963,185.80826896116196 101.125,186.10275935634854 107.81687298169709,185.79985493442655 111.41348223897512,186.23738318713004 117.61127556514111,185.6736444305934" stroke="#4DD2FF" stroke-linecap="round" stroke-linejoin="round" stroke-width="0.5"><title>2025-06-24 5.0km</title><desc>1750769966000</desc></polyline><polyline fill="none" points="143.875,187.0609436127852 143.5978025936347,185.4390563872148 134.9755043227633,186.25845129606023 133.9250720460841,186.29224060293927 130.5257564841304,185.85297853924567 123.625,186.15708329282643 130.343389769434,185.85297853924567 133.9177773775009,186.29224060293927 141.2197406339692,185.6417940261017" stroke="#4DD2FF" stroke-linecap="round" stroke-linejoin="round" stroke-width="0.5"><title>2025-06-22 5.0km</title><desc>1750563938000</desc></polyline><polyline fill="none" points="156.94201795678237,196.375 155.89543249562848,190.12236129766097 155.8807607368508,188.41748897663638 155.973681875912,187.70380595649476 155.91499484071392,185.86857893816705 155.93455718577025,185.5513730600578 156.04215008363826,185.37011174486906 155.93455718577025,185.2851452997129 155.9296665994916,184.12392418762101 154.7412541366357,176.97479878388185 154.4429283743375,176.125 154.74614472288522,176.86715832413756 155.91499484071392,184.00496845871749 155.97857246219064,187.48290221087154 155.89543249562848,188.42315309090918 155.89054190934985,190.06572186149424 156.6925980571832,194.8685408870806 156.80508154130075,195.19702041601704 158.0570716256625,195.12905929348926" stroke="#4DD2FF" stroke-linecap="round" stroke-linejoin="round" stroke-width="0.5"><title>2025-06-21 8.0km</title><desc>1750517001000</desc></polyline><polyline fill="none" points="180.8044209749205,196.375 179.0890791900456,185.82685964051052 176.07060953759355,185.7652624973125 170.6320452738437,185.241685766101 170.73842305893777,184.68730842562218 170.5256674886914,183.62474616938562 170.81820639775833,176.67940876755165 170.77831472828984,176.1866010746744 170.51237026555464,176.125 170.17993968707742,184.67190902603033 170.68523416639073,184.73350661502627 170.71182861260604,185.25708510767436 179.12897085951408,185.81146035708662 180.15285704110283,192.40221023210324 180.4719903965015,193.2799285898218 187.32006031292258,193.06434911474935" stroke="#4DD2FF" stroke-linecap="round" stroke-linejoin="round" stroke-width="0.5"><title>2025-06-19 5.0km</title><desc>1750345525000</desc></polyline><polyline fill="none" points="31.375,210.92361278111275 31.189130434795516,209.81909437544527 25.456521739135496,210.36286002612178 24.71793478258769,210.37985261695212 22.26250000001164,210.09664209107723 13.164673913037404,210.51012897424516 12.377173913031584,210.6404050261408 11.125,211.01423895788685 12.890760869544465,210.5384498810672 16.089673913054867,210.3968452026238" stroke="#4DD2FF" stroke-linecap="round" stroke-linejoin="round" stroke-width="0.5"><title>2025-06-17 5.1km</title><desc>1750166247000</desc></polyline><polyline fill="none" points="34.323275861970615,218.05825799338345 33.625,213.5704614129063 49.406034482759424,213.1055037099286 46.839870689669624,202.97724152702722 49.94719827582594,203.15919091927935 53.875,202.77507533994503 47.67780172417406,203.1389743283653 49.96465517242905,212.2564477006381 43.191379310330376,212.57989803754026" stroke="#4DD2FF" stroke-linecap="round" stroke-linejoin="round" stroke-width="0.5"><title>2025-06-16 3.2km</title><desc>1750084948000</desc></polyline><polyline fill="none" points="76.375,211.3527662370907 76.06471774197416,209.48056709624507 66.1111895161157,210.3977602848463 65.21300403226633,210.40721583752747 61.27731854838203,209.9249814231007 56.125,210.17082673188997 61.114012096775696,209.9155258212777 65.20483870970202,210.3883047312338 73.64778225813643,209.67913546282216" stroke="#4DD2FF" stroke-linecap="round" stroke-linejoin="round" stroke-width="0.5"><title>2025-06-15 4.6km</title><desc>1749956754000</desc></polyline><polyline fill="none" points="98.875,211.23106960279256 98.6284908700618,209.6022637305432 89.9571697100182,210.39987887744792 89.05088614395936,210.41667069227697 85.23724489795859,209.9884783450325 78.625,210.290731997673 85.36774973146385,209.9884783450325 88.99288399572833,210.41667069227697 90.88520408165641,210.3243156683966 91.24046723952051,210.2067727609683 95.83713748658192,209.79537126411742" stroke="#4DD2FF" stroke-linecap="round" stroke-linejoin="round" stroke-width="0.5"><title>2025-06-14 5.1km</title><desc>1749906363000</desc></polyline><polyline fill="none" points="121.375,211.61901257834688 121.13154172559734,209.97719620332646 112.73939179631998,210.78981652994844 111.60802687410614,210.79810853228264 108.17096888259402,210.3835073812079 101.69784299857565,210.69031243625068 101.61191654880531,210.49959591648803 101.6477192362072,209.22261291787436 101.125,209.21432075498888 101.6692008486425,209.23919724112784 101.61191654880531,210.49130388373305 101.71932461104007,210.69031243625068 108.34998231963255,210.37521533664403 111.76555869873846,210.80640053376555 118.56806930695893,210.19279014226777 118.56090876943199,209.861106922639 120.74487270155805,209.74501747632894" stroke="#4DD2FF" stroke-linecap="round" stroke-linejoin="round" stroke-width="0.5"><title>2025-06-12 5.9km</title><desc>1749735885000</desc></polyline><polyline fill="none" points="143.875,216.78713254725153 143.22946985450108,213.53699158859672 125.49142411636421,215.1133182272897 123.82146569644101,210.5468033921934 123.625,204.84253885202634 126.93685031181667,204.6962729748484 129.7575363824726,204.87504236205132 129.91190228692722,204.35498540630215 129.6172037422075,204.24122272108798 123.70919958414743,204.04620078607695 123.83549896045588,210.3842915573623 124.32666320161661,212.2369166546705 125.2949584199232,214.54454237122263 133.15358627855312,213.86200866574654 133.3079521828913,214.47953928704374 143.18737006239826,213.52074071731477 143.79080041585257,216.73838092225196" stroke="#4DD2FF" stroke-linecap="round" stroke-linejoin="round" stroke-width="0.5"><title>2025-06-10 5.3km</title><desc>1749559786000</desc></polyline><polyline fill="none" points="146.6566954239388,205.02518901095027 146.17057389358524,203.0549230415636 146.125,201.5244330627611 159.9035071269027,201.17259436751192 160.52635033760453,203.47712478545145 160.07061140291626,203.45953306677984 159.93388972250978,203.7761837291764 160.22252438112628,205.41220289799094 160.14656789205037,206.52046513787354 160.64788072026568,208.73696827155072 161.939141035371,208.68419471816742 163.85324456117814,216.05474478618999 163.88362715690164,216.38896274879517 163.39750562648987,216.52968590793898 163.8380532633746,216.40655314999458 163.98996624158463,216.68799932480033 163.5949924981105,216.75836079688452 163.7317141785752,217.4092030536849 164.64319204806816,219.73110679093224 165.28122655668994,219.6607465303823 166.375,219.062683158234 165.22046136541758,219.3089447976963 163.16963615908753,211.12935241467494 162.92657539393986,210.4257134613872 162.37968867225572,210.4257134613872 161.96952363097807,208.63142114861694 161.52897599403514,208.80733298431733 160.63268942246214,208.68419471816742 160.13137659424683,206.66119634169445 160.02503750944743,204.05765049702313 159.1895161290886,201.10222654242534 146.17057389358524,201.55961689284595 146.71746061521117,205.13073833889212" stroke="#4DD2FF" stroke-linecap="round" stroke-linejoin="round" stroke-width="0.5"><title>2025-06-08 5.0km</title><desc>1749355299000</desc></polyline><polyline fill="none" points="188.875,211.24995009971462 188.51884422107833,209.58338323362113 181.99174443644006,210.13049222600966 180.0292534098844,210.40825386575307 178.93898061738582,210.40825386575307 175.48645010768087,209.9874025318568 168.625,210.29041570844856 175.1593682699022,209.9874025318568 178.9026381909789,210.4166708705452 186.7744077530515,209.70963947663404" stroke="#4DD2FF" stroke-linecap="round" stroke-linejoin="round" stroke-width="0.5"><title>2025-06-07 5.3km</title><desc>1749293029000</desc></polyline><polyline fill="none" points="31.375,235.38554039194423 31.076026287395507,233.78112627472 21.83700936261448,234.62555863027956 18.088899891939946,234.19489920433261 11.125,234.4820057370307 18.059731724875746,234.17801055376913 21.392194814572576,234.62555863027956 28.531103709043236,233.9753464785972" stroke="#4DD2FF" stroke-linecap="round" stroke-linejoin="round" stroke-width="0.5"><title>2025-06-05 5.1km</title><desc>1749128617000</desc></polyline><polyline fill="none" points="33.908464566920884,234.4551587843671 33.625,232.5984619727169 33.731299212551676,232.51639723483822 41.677165354311,232.23942825052654 43.17421259841649,237.72737531901657 51.022637795249466,237.62479961320787 53.875,237.45042067342 51.52755905513186,237.53248138857452 51.09350393700879,231.43929134764767 43.581692913372535,231.88039324755664 41.96948818897363,231.82910242827347 42.11122047243407,232.23942825052654 37.94783464563079,232.36252567100018" stroke="#4DD2FF" stroke-linecap="round" stroke-linejoin="round" stroke-width="0.5"><title>2025-06-03 5.2km</title><desc>1748952979000</desc></polyline><polyline fill="none" points="72.87109290351509,228.54660303938 72.4268752055068,227.8891123355861 72.11198671074817,227.19906531547895 71.90955839271192,227.01027756910116 71.40911060635699,226.96470802956173 71.02674600554747,226.5220308123462 70.85243273168453,225.94263982332268 70.59377432524343,225.54552611272447 70.28450883927871,224.45833333333212 69.39045043449732,224.842433493297 68.97434778069146,224.8880045455735 67.89473008428467,225.2916324476755 67.43364335980732,225.8840494309734 67.43364335980732,226.03378032691035 65.5668044264894,228.40989760820594 65.55555840881425,228.54660303938 65.04386460481328,229.24965492587216 64.5996469068341,229.65976495648647 64.52092478313716,229.5881586327596 64.20603628834942,229.8615641647193 63.99798496143194,229.7378808545909 63.99236195263802,229.85505452279176 63.964246908406494,229.68580359980842 64.25664336787304,229.8941123644836 64.21165929720155,230.12845891361212 63.536898236954585,230.87706019185862 62.384181425732095,231.13744119093826 62.384181425732095,231.02026987257705 62.30545930203516,231.16347923253852 61.99057080724742,231.2350837922677 61.71504337430815,231.156969723128 61.2539566498308,231.1960267696195 61.17523452610476,231.12442216616546 60.989675234566675,231.22857429015858 60.432997359894216,231.0332889185447 60.359898245020304,230.18053580788182 60.1462239092798,229.99175686431772 59.09472125710454,230.25865106980564 58.701110638619866,230.4995058599634 59.150951345451176,232.44583966246864 59.85945045869448,234.6199351409523 61.355170808848925,240.4648913010824 61.56322213576641,241.07018475146106 63.3288469100371,244.64325199163432 63.553767263452755,244.70833333333212 64.32974248274695,244.46102388273357 64.8583053132752,244.61721943642988 65.8254628329305,244.41546677442966 65.80859380640322,244.03148414407042 66.06725221281522,243.95989390730028 66.5339619461447,244.17466437736584 66.8882115027809,244.0054513399773 67.03440973249963,244.22022165712406 67.94533716380829,244.4219749347285 68.47952300318866,244.324352460495 69.01933185136295,243.92084465346852 69.11492300155805,243.15937944053076 69.51977963771787,242.59966418905606 69.41294246981852,242.03994404107652 69.54227167303907,241.76659056125573 69.2667442400998,241.46069361575064 69.09243096623686,241.0050997089893 69.02495486018597,240.32821134228288 69.39045043449732,240.03532473296582 69.94712830916978,240.2631255449851 70.2563937951345,240.24359979286965 70.33511591880233,239.82054036723275 70.20578671561088,239.29984800266539 70.09894954771153,239.2542872191225 70.20578671561088,239.20221771249635 70.08208052124246,239.16316555470257 70.18329468023148,239.22174378245109 70.19454069793574,238.91583466842712 70.04834246821702,238.57738032700217 69.3848274256452,238.5318190289072 69.07556193970959,238.29750326896465 69.20489114290103,237.41230265207196 69.73345397342928,236.50756289255514 70.13831060956,236.0584427193462 70.32386990112718,235.99335257754137 70.72310352846398,235.44008369771473 71.42597963285516,234.7696455827936 72.05013361357851,233.98854376982126 71.87019733083434,233.6240263257132 71.31351945616188,233.61751706676296 71.24042034128797,233.40271114959978 71.45409467702848,232.88847587147757 71.70150706576533,232.65413943656677 71.93205042803311,232.68668621498364 72.02764157822821,232.56951773517721 71.83083626901498,232.12036990714478 72.09511768425,231.5670675215515 72.34253007301595,231.42385906537675 72.55058139993344,231.5084822827812 72.52246635573101,231.35225471705053 73.14662033645436,231.06583652188783 73.202850424801,230.89007926699924 73.74828228182741,230.55809202308228 73.79888936135103,230.08289159632477 73.0847672392556,228.7223667357357 72.97230706253322,228.67028865384418" stroke="#4DD2FF" stroke-linecap="round" stroke-linejoin="round" stroke-width="0.5"><title>2025-06-02 11.5km</title><desc>1748829019000</desc></polyline><polyline fill="none" points="98.875,235.5303059927537 98.50405911740381,233.63636067391053 87.80578684431384,234.6321510255002 83.37135720229708,234.1244944927239 78.625,234.3295099548268 83.43037052452564,234.10496918773424 87.31681931723142,234.61262582398922 98.48719816817902,233.6461233746886 98.86656952541671,235.4717309254993" stroke="#4DD2FF" stroke-linecap="round" stroke-linejoin="round" stroke-width="0.5"><title>2025-06-01 4.9km</title><desc>1748740054000</desc></polyline><polyline fill="none" points="121.375,244.34170333918883 121.30167471332243,244.4973731643404 121.15502413996728,244.38415876337967 120.66618889552774,241.66698544718383 105.21899517200654,243.01142680649355 103.78915208205581,239.0063683855842 103.72804767650086,233.96803894218465 103.38586300541647,232.0715417300089 101.125,224.66929350233113 102.61594749544747,229.62304059407325 103.01923657214502,230.3873172612075 103.67916415206855,233.2320878762839 104.33909173205029,233.41607600850693 103.6547223898815,233.40192308393307 103.78915208205581,238.53933991785743 104.25354556425009,240.4499009903666 105.06012371752877,242.44534782074334 105.26787869643886,242.57271579375083 111.89159625826869,241.89341858770058 112.07490947493352,242.431195816549 117.34210923349019,241.92172270431183" stroke="#4DD2FF" stroke-linecap="round" stroke-linejoin="round" stroke-width="0.5"><title>2025-05-31 5.5km</title><desc>1748696141000</desc></polyline><polyline fill="none" points="142.45487012987724,240.17184297612403 141.99464285717113,237.20255293362425 125.33441558445338,238.69481889541203 123.7959415584919,234.309341768967 123.625,229.0252799201844 129.27922077919357,229.08619236088998 123.70389610395068,228.99482369056204 123.80909090908244,234.23320387641434 124.21672077925177,235.86254630729672 125.24237012985395,238.20755001611542 139.99594155844534,236.79141581502336 141.31087662337814,236.71527918736683 141.37662337668007,237.27868931292323 143.875,237.08073464606423" stroke="#4DD2FF" stroke-linecap="round" stroke-linejoin="round" stroke-width="0.5"><title>2025-05-29 5.0km</title><desc>1748526381000</desc></polyline><polyline fill="none" points="158.4001584785292,232.59530129597988 157.950871632318,228.91617553641845 165.5566561014275,228.54454254326993 166.375,231.53616664196306 165.49247226619627,228.61886920247343 157.9187797147315,228.9719204200228 158.12737717904383,230.8114920178632 157.83854992076522,228.99050204409286 147.02357369248057,229.99390693256282 148.6442155308323,238.11385073687416 149.27000792388571,240.00907161053328 148.85281299520284,240.26919842838834 149.51069730578456,242.01575459481683 148.62816957209725,239.7117833643133 146.44591917586513,230.03106997058785 150.23276545165572,229.4922051786416 157.08438985736575,229.06482852154295 157.00416006339947,228.52596087371057 146.9433438985725,229.2134813854791 146.3817353406921,227.1509120718547 146.125,227.3738936631853 146.25336767034605,229.36213412818324 153.8431061806623,228.61886920247343" stroke="#4DD2FF" stroke-linecap="round" stroke-linejoin="round" stroke-width="0.5"><title>2025-05-27 6.0km</title><desc>1748352132000</desc></polyline><polyline fill="none" points="186.17653758541564,236.09236345452518 186.25726082007168,236.03894766771555 185.9977932801703,234.7436015035637 179.17667995445663,235.39795482884074 178.38674544420792,235.41130891028297 175.5441343963903,235.077456057581 168.7518507972709,235.37792370158422 168.625,233.161107771768 169.4322323462402,233.07430321214633 170.54505979499663,233.15443050203612 170.55082574032713,235.077456057581 175.71134681094554,234.87046643450594 178.84802107061842,235.1776120920258 185.9862613895384,234.46983949970308 188.7539151480596,234.36968238317786 188.875,234.59002783738106 188.79427676537307,234.6167363269342 186.2399629840802,234.7235701762038" stroke="#4DD2FF" stroke-linecap="round" stroke-linejoin="round" stroke-width="0.5"><title>2025-05-25 7.6km</title><desc>1748179850000</desc></polyline><polyline fill="none" points="31.361730013100896,259.86794212245877 31.308650065533584,259.42999063708703 31.049885321088368,259.42999063708703 30.884010484907776,258.6078643114597 30.751310615974944,258.4234609139312 24.348541939718416,258.96898632500233 23.300212975096656,259.1610717976364 19.093627129739616,258.7692169142683 11.23779488861328,259.1226547422775 11.125,257.7857290200409 13.075688073411584,257.63205787753395 13.062418086483376,258.7538500146111 13.321182830928592,258.78458381081145 18.834862385323504,258.54639656242216 22.829128440353088,258.89215199890896 31.12287024903344,258.09307036529935 31.375,259.7834253672554" stroke="#4DD2FF" stroke-linecap="round" stroke-linejoin="round" stroke-width="0.5"><title>2025-05-24 6.6km</title><desc>1748094255000</desc></polyline><polyline fill="none" points="53.875,259.65227791183133 53.65471394039923,257.84772208816867 45.316478646273026,258.5563214956055 44.157937147450866,258.7547283590393 42.83622078970075,258.7736242286119 39.0260878324043,258.31067431441625 33.625,258.52797762328555 39.00161160354037,258.30122633291467 42.78726833197288,258.7830721619903 51.427377115236595,258.05557847575255" stroke="#4DD2FF" stroke-linecap="round" stroke-linejoin="round" stroke-width="0.5"><title>2025-05-18 4.7km</title><desc>1747565909000</desc></polyline><polyline fill="none" points="73.74302175777848,259.4750439311465 73.52272401947994,258.1793650913678 67.65005010020104,258.6761568819202 66.67030489552417,258.8507044593571 65.88187088462291,258.84399109953665 63.197716862283414,258.49489544653625 56.16558116232045,258.81713765347376 56.125,258.6157364588653 60.08456198111526,258.3606273950354 62.76871600342565,258.3136335123563 65.90506012024707,258.81713765347376 73.59808903522207,258.1323710793513 76.18948611506494,258.0249560688535 76.2938376753591,258.03838295475 76.31122960205539,258.1323710793513 76.375,258.0920904709492" stroke="#4DD2FF" stroke-linecap="round" stroke-linejoin="round" stroke-width="0.5"><title>2025-05-17 5.7km</title><desc>1747487200000</desc></polyline><polyline fill="none" points="97.76839848424424,257.91284343197185 95.08670721980161,258.05315035773674 93.77817112085177,258.2869947572981 87.76859792578034,258.74532805207855 84.00453729555011,258.2589334608201 78.625,258.47406984795816 83.93184084564564,258.2776409927683 87.6232050259132,258.7359743342313 98.34997008374194,257.8005977369321 98.7053749501647,259.6152196434123 98.875,259.69940226307517" stroke="#4DD2FF" stroke-linecap="round" stroke-linejoin="round" stroke-width="0.5"><title>2025-05-11 5.0km</title><desc>1746965499000</desc></polyline><polyline fill="none" points="121.375,259.4775495903741 121.04815279765171,258.0224504096186 111.86011477757711,258.8551403641177 108.12679340026807,258.4261799216911 101.125,258.720564779047 107.95247489237227,258.434590932171 111.43884505017195,258.8551403641177 121.10625896698912,258.0392725120546" stroke="#4DD2FF" stroke-linecap="round" stroke-linejoin="round" stroke-width="0.5"><title>2025-05-10 5.3km</title><desc>1746870058000</desc></polyline><polyline fill="none" points="143.83078602619935,258.40866293494037 143.77920305676525,258.2635936604129 143.875,258.3745290105944 143.48444323145668,258.4427968453383 134.45742358081043,259.2364063395871 130.63291484717047,258.78413518413436 123.625,259.0742716779714 130.59606986900326,258.78413518413436 132.38673580787145,258.92920355673414 134.015283842833,259.2278729441532 141.40638646288426,258.5622654222243" stroke="#4DD2FF" stroke-linecap="round" stroke-linejoin="round" stroke-width="0.5"><title>2025-05-05 5.4km</title><desc>1746434825000</desc></polyline></svg>