<?xml version="1.0" encoding="utf-8" ?>
<svg baseProfile="full" height="300mm" version="1.1" viewBox="0,0,200,300" width="200mm" xmlns="http://www.w3.org/2000/svg" xmlns:ev="http://www.w3.org/2001/xml-events" xmlns:xlink="http://www.w3.org/1999/xlink"><defs /><rect fill="#222222" height="300" width="200" x="0" y="0" /><text fill="#FFFFFF" style="font-size:12px; font-family:Arial; font-weight:bold;" x="10" y="20">Over 3km Runs</text><text fill="#FFFFFF" style="font-size:4px; font-family:Arial" x="10" y="280">Runner</text><text fill="#FFFFFF" style="font-size:9px; font-family:Arial" x="10" y="290">tang-hi</text><text fill="#FFFFFF" style="font-size:4px; font-family:Arial" x="65" y="280">SPECIAL TRACKS</text><rect fill="yellow" height="2.6" width="2.6" x="65" y="283" /><text fill="#FFFFFF" style="font-size:3px; font-family:Arial" x="70" y="285.5">Over 20.0 km</text><rect fill="red" height="2.6" width="2.6" x="65" y="287" /><text fill="#FFFFFF" style="font-size:3px; font-family:Arial" x="70" y="289.5">Over 40.0 km</text><text fill="#FFFFFF" style="font-size:4px; font-family:Arial" x="120" y="280">STATISTICS</text><text fill="#FFFFFF" style="font-size:3px; font-family:Arial" x="120" y="285">Number: 64</text><text fill="#FFFFFF" style="font-size:3px; font-family:Arial" x="120" y="290">Weekly: 3.8</text><text fill="#FFFFFF" style="font-size:3px; font-family:Arial" x="141" y="285">Total: 338.8 km</text><text fill="#FFFFFF" style="font-size:3px; font-family:Arial" x="141" y="290">Avg: 5.3 km</text><text fill="#FFFFFF" style="font-size:3px; font-family:Arial" x="167" y="285">Min: 3.2 km</text><text fill="#FFFFFF" style="font-size:3px; font-family:Arial" x="167" y="290">Max: 11.5 km</text><polyline fill="none" points="22.627006694383454,31.200000000004366 22.59565635965555,32.787079646252096 22.180264424619963,35.68002651362622 21.921624163194792,36.66850410892221 21.92946174685494,37.43932766544458 21.294617468840443,41.30241369862779 20.80084969699965,45.664054068322 20.83220003169845,46.98791939225339 21.451369142421754,52.056510006063036 22.062700669426704,52.80000000000291 21.921624163194792,52.727464663294086 21.811897991690785,51.86610303654743 21.57677048127516,49.6174566918271 21.639471150701866,49.39077549146896 21.224079215724487,46.734028933416994 21.208404048345983,45.455498152463406 22.47025502077304,36.532475731561135 22.642681861732854,36.16973237849015 22.73673286588746,34.60085040204285 23.19915030300035,32.09783709511248" stroke="#4DD2FF" stroke-linecap="round" stroke-linejoin="round" stroke-width="0.5"><title>2025-08-31 5.1km</title><desc>1756640573000</desc></polyline><polyline fill="none" points="48.695043930376414,31.200000000004366 48.76493661609129,32.943290499199065 48.283453669951996,35.953530823782785 48.120370736549376,36.22309958601545 48.042712196853245,36.76223464580107 47.97281951113837,38.137014174491924 47.53793168879929,41.11113729879435 47.42144387922599,41.308809612201 47.46803900305531,41.740093126456486 46.939960933086695,45.44185682100215 46.97102434898261,46.96923845096899 47.58452681262861,52.29689858575148 48.17473171435995,52.80000000000291 48.0504780508345,52.60235335692414 47.74760974603123,49.16143424202164 47.36708290147362,46.870408672766644 47.36708290147362,45.172316149233666 47.96505365718622,41.542421776735864 48.40770733347745,37.75064038726123 48.76493661609129,36.26802763316664 48.71057563830982,35.9265739023831 49.06003906694241,33.32069938119821" stroke="#4DD2FF" stroke-linecap="round" stroke-linejoin="round" stroke-width="0.5"><title>2025-08-30 5.0km</title><desc>1756550382000</desc></polyline><polyline fill="none" points="73.56339825008763,52.790284498012625 73.85726481254096,52.80000000000291 74.79763781250222,46.26124390440236 74.9319768124551,44.075081556533405 74.37782843751484,40.16901368534309 74.14273518751725,37.215065306969336 74.00000000005821,36.56401835239376 73.57179443756468,35.89353252444562 73.63056775007863,35.73805687796266 74.0671695000492,35.806077504414134 73.85726481254096,33.833459679211956 73.47104018754908,33.43504423969716 73.49622875006753,32.25922313508636 73.068023187574,31.200000000004366 73.50462493757368,32.307811070626485 73.45424781256588,33.38645687732787 73.85726481254096,33.86261196323903 74.0503771250369,35.786643044659286 73.63056775007863,35.74777411326795 73.57179443756468,35.87409808247321 73.92443431256106,36.427978130021074 74.1511313750234,37.360821480237064 74.39462081252714,40.42164976904314 74.9319768124551,43.939052024790726 74.83122256252682,45.99890706250153 73.97481143751065,51.877022903943725" stroke="#4DD2FF" stroke-linecap="round" stroke-linejoin="round" stroke-width="0.5"><title>2025-08-28 5.0km</title><desc>1756381580000</desc></polyline><polyline fill="none" points="100.73083260923158,31.200000000004366 100.90870721259853,32.12173204022838 100.87777249896317,32.962915968535526 100.39828443786246,35.96963539333956 100.22814351294073,36.282829430900165 100.20494247772149,37.26714629920025 99.52437877806369,41.27588684019429 99.5785145269474,41.78591440842865 99.06035807376611,45.159180297465355 99.02168968177284,46.52813465266081 99.14542853622697,46.67129204966477 99.09902646578848,47.252866583257855 99.6867860245693,52.325823210849194 100.33641501059174,52.80000000000291 100.12760569364764,52.61211893588188 99.40837360199657,46.689186707932095 99.37743888839032,45.534973806999915 99.91106269831653,41.76801875426463 100.04253523124498,41.58011416606314 100.16627408569911,40.00527900485031 100.70763157404144,36.90921416519268 100.66896318201907,36.48864204921847 100.81590307169245,36.29177781560429 100.75403364445083,36.02332587887213 100.97831031822716,34.48418564865278" stroke="#4DD2FF" stroke-linecap="round" stroke-linejoin="round" stroke-width="0.5"><title>2025-08-26 5.0km</title><desc>1756206850000</desc></polyline><polyline fill="none" points="126.67951249846374,31.200000000004366 126.69504421268357,31.936858939705417 126.81929792673327,31.963817077179556 126.74940521261306,32.880388861944084 126.31451721358462,35.86367438639718 126.16696592819062,36.1961427460119 125.98835121432785,38.21788289219694 125.45250707268133,41.263884124135075 125.36708264431218,42.67453352676239 124.97102393093519,45.32505596307601 125.0409166450554,47.32861853135546 125.63888764369767,52.67422491453908 125.66218521507108,52.80000000000291 126.12813664259738,52.74609641382267 125.79420478621614,49.26026146084041 125.38261435856111,46.88837773071282 125.34378507290967,45.684442722573294 125.84079992896295,42.00964425408165 126.01941464285483,41.49749640733353 126.61738564143889,36.600494472113496 126.79600035533076,36.241070806834614 126.73387349833502,35.95353082304791 127.02897606909391,33.7160783868967" stroke="#4DD2FF" stroke-linecap="round" stroke-linejoin="round" stroke-width="0.5"><title>2025-08-24 5.0km</title><desc>1756042259000</desc></polyline><polyline fill="none" points="151.72463362087728,52.80000000000291 151.96557920260238,52.45149008263979 152.80028353934176,46.765624639090674 152.95517712761648,44.266129292991536 152.49910156219266,41.38814530587115 152.04302599673974,36.99631819346541 151.5439244346344,35.98049340520811 151.6643972254824,35.84106565118418 152.03442079739762,35.88090217259014 151.8451064117544,33.92889356867818 151.4320568430703,33.460804089467274 151.50089843783644,32.45490210688149 151.0362176730705,31.200000000004366 151.47508283983916,32.265671866385674 151.44926724175457,33.47076346336689 151.86231681046775,33.95877154457412 152.0602363954531,35.890861300395045 151.95697400331846,35.99045252288488 151.59555563065805,35.8609839139026 151.59555563065805,36.00041163955029 151.93115840526298,36.607915841981594 152.1204727908771,37.34488309494918 152.34420797394705,40.05368805256148 152.9637823269586,44.365712000610074 152.82609913736815,46.636170270670846 151.879527209152,52.72034069961228" stroke="#4DD2FF" stroke-linecap="round" stroke-linejoin="round" stroke-width="0.5"><title>2025-08-23 5.0km</title><desc>1755956696000</desc></polyline><polyline fill="none" points="178.76256407774054,31.200000000004366 178.77038524774252,31.79730542909965 178.87206045811763,31.905905985862773 178.83295460799127,32.810905475882464 178.3636844063003,35.72494136221212 178.19161866567447,36.0959763568535 177.79273899423424,39.81529054776183 177.58938857354224,41.045978327798366 177.45642868304276,41.172665810641774 177.5189980433206,41.61607058211666 176.95587380128563,45.87807329295174 177.67542144385516,52.65523318108171 177.69888495391933,52.76380831730785 178.12122813542373,52.80000000000291 177.34693230266566,45.697100676756236 178.51228663683287,37.22717107065546 178.66088886736543,36.30411726255261 178.8016699278669,36.13217481014726 178.73910056764726,35.78828890971636 179.04412619871437,33.435349762716214" stroke="#4DD2FF" stroke-linecap="round" stroke-linejoin="round" stroke-width="0.5"><title>2025-08-21 5.0km</title><desc>1755781186000</desc></polyline><polyline fill="none" points="22.602104600606253,55.200000000004366 22.625411875516875,56.872098373445624 22.15926637823577,59.87460430718056 21.996115454181563,60.189232264936436 21.92619362959522,60.71960257567116 22.011653637426207,60.98029190211673 21.289128116710344,65.24110514279164 21.335742666444276,65.6905460555281 20.82298261942924,69.37587545426504 20.854058985918527,70.93085865658213 21.50666268207715,76.80000000000291 21.957269996084506,76.71911095663381 21.64650633124984,73.31271637571626 21.242513566976413,70.88591732888017 21.219206292094896,69.16914152613754 21.724197247443954,65.73549002125947 21.856271805008873,65.53773640128202 22.392339126876323,61.070184595249884 22.64871915036929,60.20721097158821 22.65648824197706,59.218376680946676 23.177017380599864,55.910196180564526" stroke="#4DD2FF" stroke-linecap="round" stroke-linejoin="round" stroke-width="0.5"><title>2025-08-19 5.3km</title><desc>1755607955000</desc></polyline><polyline fill="none" points="47.765959444543114,76.69360807433259 48.142096051509725,76.80000000000291 48.142096051509725,76.08427020936506 48.284192103048554,75.76509167564654 48.459722519648494,73.55982892544125 48.96959658685955,70.22282102485042 48.919445039267885,68.03677560450888 48.35106083319988,64.37068405092577 48.09194450394716,61.352581829320116 47.93313126984867,60.55934676749166 47.52356029787916,59.87251594456029 47.61550480176811,59.708062758225424 48.01671718255966,59.79512624522613 47.841186765930615,57.98612408815097 47.40654002013616,57.3960143392469 47.439974385197274,56.254480172821786 47.03040341314045,55.19999999999709 47.47340875028749,56.302850542546366 47.423257202637615,57.38634037844167 47.81611099213478,57.81199372330593 48.01671718255966,59.78545252837648 47.59878761926666,59.72741020666581 47.556994662911166,59.85316852563119 48.04179295635549,60.96563872293336 48.29255069428473,63.87734696416737 48.91108644800261,68.15285007512284 48.902727856708225,69.14915012458368 48.284192103048554,73.43408872010332 48.100303095183335,73.52113964918681 47.983282817469444,73.81130883774313 47.765959444543114,75.23312507429364" stroke="#4DD2FF" stroke-linecap="round" stroke-linejoin="round" stroke-width="0.5"><title>2025-08-17 5.0km</title><desc>1755429603000</desc></polyline><polyline fill="none" points="73.6893410308985,76.75142248022894 73.5801905823173,76.80000000000291 73.70613340759883,76.67369839725143 73.84886860963888,74.53626135503146 73.96641524657025,73.7881471008368 74.3526399108232,73.46752491413645 74.34424372244393,72.72911821245361 74.86480740032857,69.79486679863476 74.94037309550913,68.47345264273463 74.02518856502138,60.806946839053126 73.54660582888755,59.87409808230586 73.63896390079753,59.76720858075714 74.0419809417217,59.79636027485685 73.86566098633921,57.911199083355314 73.46264394535683,57.40589182515396 73.48783251046552,56.30781107058283 73.05962690446177,55.19999999999709 73.51302107551601,56.327246237888176 73.45424775700667,57.35730444797082 73.85726479795994,57.83345967911009 74.05877331845113,59.78664304447739 73.63056771244737,59.73805687778804 73.57179439393803,59.883815303779556 74.07556569512235,60.92355229337409 74.94037309550913,68.01678320924111 74.93197690712987,69.17302711837692 74.36943228752352,73.31207134562283 73.94962286986993,75.99360997610347 73.77330291445833,76.12962804735434 73.71452959597809,76.53768110003148" stroke="#4DD2FF" stroke-linecap="round" stroke-linejoin="round" stroke-width="0.5"><title>2025-08-16 5.1km</title><desc>1755350047000</desc></polyline><polyline fill="none" points="99.87400050120777,76.74168073586043 99.57160170399584,76.80000000000291 99.71440113600693,76.6542017729953 100.11759953229921,73.6409886584006 100.34439863014268,73.52434624233865 100.2939988306025,73.20357886476268 100.89879642502638,69.63618430482893 100.94079625798622,68.09059602784691 100.03359986635041,60.828912929966464 99.58000167057617,59.91508776991395 99.67240130304708,59.74009897688666 100.04199983298895,59.79842861014913 99.85720056801802,57.8832537195849 99.46240213833516,57.43604999646777 99.52120190445567,56.47358271361736 99.05080377546255,55.200000000004366 99.48760203810525,56.220811921586574 99.47920207152492,57.38744077007141 99.85720056801802,57.844366522367636 100.07559969931026,59.788707007071935 99.63880143669667,59.749820584911504 99.59680160373682,59.88592299332231 99.95800016704015,60.46921683487017 100.10919956566067,61.05250711782719 100.3779984965222,64.1730496888922 100.90719639163581,67.69204405620985 100.94919622456655,69.10154967640847 100.31079876379226,73.19385862438503 100.36119856333244,73.48546540539246 100.09239963252912,74.98236621914111 99.87400050120777,75.47808794841694" stroke="#4DD2FF" stroke-linecap="round" stroke-linejoin="round" stroke-width="0.5"><title>2025-08-14 4.9km</title><desc>1755170321000</desc></polyline><polyline fill="none" points="126.88231242704205,55.2180699464443 126.69491863719304,55.19999999999709 126.74957515925053,56.83531528319145 126.29670683384757,59.90709694234101 126.13273726776242,60.23233819998859 126.13273726776242,61.08157365376246 125.67206086780061,64.32485570999415 125.52370745089138,65.21018792306131 125.40658633221756,65.28245955142484 125.47685900342185,65.73415589814249 124.93810185769689,69.44701295073173 124.98495030513732,71.02786611707415 125.640828569507,76.72773772773508 126.085888820322,76.80000000000291 125.32069751189556,69.64575032120774 126.59341366772423,60.629853677259234 126.77299938295619,60.259441584406886 126.69491863719304,59.94323491860996 127.06189814230311,57.37740211007622" stroke="#4DD2FF" stroke-linecap="round" stroke-linejoin="round" stroke-width="0.5"><title>2025-08-12 5.0km</title><desc>1754999139000</desc></polyline><polyline fill="none" points="152.5824328395538,55.27237055647856 152.68406541558215,55.19999999999709 152.69188330607722,56.72881550067541 152.20717409727513,59.84064287657384 152.04299839754822,60.148201304560644 151.8788226978213,62.2377613213248 151.3628419271845,65.26798852047068 150.83904326611082,69.63676147720253 150.88595060887747,70.97539021790726 151.4332029413781,75.50668009934452 152.00390894524753,76.80000000000291 151.23775567975827,69.69103060119232 152.39480346845812,61.342241603982984 152.6762475251162,60.18438457915909 152.60588651095168,59.931101348011 152.9342379104346,57.488690361293266 153.16095673391828,56.56598432963801" stroke="#4DD2FF" stroke-linecap="round" stroke-linejoin="round" stroke-width="0.5"><title>2025-08-10 5.0km</title><desc>1754830447000</desc></polyline><polyline fill="none" points="177.6928483536176,76.80000000000291 178.86254914407618,69.8375021573811 178.938285166485,68.20148519938084 178.3155667600513,63.887330318262684 178.0210377840267,60.74167278670211 177.54979142238153,59.904111880183336 177.61711233120877,59.72880750771583 178.04628312482964,59.816459734065575 177.8611506256275,57.888092224049615 177.45722517278045,57.4108639681217 177.4824705135543,56.32004759612755 177.05329971993342,55.200000000004366 177.49930074080476,56.35900553761894 177.46564028636203,57.42060334406415 177.8611506256275,57.897831551439594 178.0631133519928,59.787242334205075 177.63394255837193,59.767764062664355 177.58345187676605,59.87489450706926 178.0631133519928,60.90723628499836 178.45020857764757,64.73459502817423 178.90462471207138,67.51980322126474 178.94670028006658,69.06818813908467 177.97054710242082,75.98205445134954 177.70126346717007,76.26444120366068" stroke="#4DD2FF" stroke-linecap="round" stroke-linejoin="round" stroke-width="0.5"><title>2025-08-09 5.0km</title><desc>1754735080000</desc></polyline><polyline fill="none" points="22.648612932593096,79.20000000000437 22.695500614470802,80.71913325694186 22.390730682265712,83.10629027030518 22.0,84.75194456340978 21.914039249910275,86.24385759914003 21.390460135618923,89.29994077352603 21.421718590223463,89.77009810354502 20.890324862353737,93.35044554945489 20.874695635051467,94.58002660873171 21.546752408583416,100.29373933830357 22.070331522787455,100.80000000000291 21.304499385529198,94.9055011056189 21.34357245377032,92.9797596929202 22.46106220508227,85.29446128792188 22.60172525071539,84.41739093494834 22.73457368268282,84.24559263707488 22.67205677353195,83.87486886441911 23.125304364948533,80.80955703785003" stroke="#4DD2FF" stroke-linecap="round" stroke-linejoin="round" stroke-width="0.5"><title>2025-08-07 5.0km</title><desc>1754570205000</desc></polyline><polyline fill="none" points="48.374346589436755,79.20000000000437 48.42264937519212,79.81481808461103 48.58365866096574,79.88002582146146 48.52730541097117,80.31784799612797 48.962030482594855,80.38305537519045 49.01033326832112,80.7836139717765 48.56755773240002,83.00062757878186 48.43875030378695,84.18363391300227 48.52730541097117,84.50034168010461 48.39044751803158,84.63075044270226 48.132832660805434,86.14906738545687 46.99771719597629,94.40156521791505 47.698107589181745,100.80000000000291 46.989666731707985,94.25254249540012 47.48879551765276,90.48032419478113 47.67395619631861,89.96803566932795 48.11673173221061,86.14906738545687 48.34214473233442,84.74252923445601 48.48705308951321,84.49102676137409 48.430699839489534,84.12774419350899 48.87347537538153,80.86745159613201" stroke="#4DD2FF" stroke-linecap="round" stroke-linejoin="round" stroke-width="0.5"><title>2025-08-05 5.0km</title><desc>1754406000000</desc></polyline><polyline fill="none" points="73.6729210333142,100.80000000000291 74.04672556667356,97.70334582872601 74.27610562121845,97.5263911677539 74.63291903946083,95.12764049445104 74.89628132429789,93.20073211450654 74.91327243947308,92.001310575557 74.29309673639364,87.74422715823312 74.05522112426115,84.91262217042095 73.84283218480414,84.17521142999612 73.52000099694123,83.71309783302422 73.59646101511316,83.56561430524016 74.01274333635229,83.6049432679938 73.81734551209956,81.66797284648055 73.41805430600652,81.24517718910647 73.4520365363569,80.04560735283303 73.08672756055603,79.20000000000437 73.46053209388629,80.17343107661873 73.41805430600652,81.14685235264187 73.83433662727475,81.65814041031263 74.02123889393988,83.59511102880788 73.91079664547578,83.69343337562896 73.50300988182425,83.61477550616837 74.04672556667356,84.76514047222736 74.39504342729924,88.49144242567854 74.91327243947308,92.03080472620059 74.90477688188548,93.24988841766753 73.91079664547578,100.05287981229776 73.85982330000843,100.21999930262973 73.63893880302203,100.22982985187991 73.5539832272043,100.60338998368388 73.31610761507181,100.58372896008223" stroke="#4DD2FF" stroke-linecap="round" stroke-linejoin="round" stroke-width="0.5"><title>2025-08-03 5.0km</title><desc>1754221111000</desc></polyline><polyline fill="none" points="110.80000000000291,88.83135902184404 110.73358954649302,89.10672164130119 110.56202920830401,89.12273102190375 107.19169869330653,89.05549156871166 107.10038431975408,88.99785763749787 106.96756341274886,89.05228968640586 106.5386625672545,89.04908780378173 106.50269023826695,89.01386707340862 105.73620292083069,89.0586934506864 105.3598770176759,89.00105952533158 104.14511913912429,88.99785763749787 103.61936971559771,88.91460843964342 103.26241352804936,88.82175330563405 103.24027671021759,88.7865323211663 102.74496541121334,88.77052276974973 101.65749423518719,88.5784075183492 100.05810914681933,88.56559979327358 96.72098385856953,88.9818481934526 96.26994619522884,89.18997033162668 95.78570330514049,89.3372559372765 94.4851652574871,90.12810383063879 93.79615680246206,90.47709517256044 93.37279016140383,90.59876097044253 93.12375096080359,90.60196269562039 92.80830130669347,90.52512120152642 92.47348193696234,90.66279541224685 92.36003074556356,90.43867429671627 92.2244427363621,90.52832293418578 92.11375864720321,90.32020963463765 90.22936202920391,91.43440020672824 90.08547271329735,91.07261275897508 89.50438124519133,89.96161118659074 89.44903920061188,89.92318968227846 89.19999999999709,90.04485761856267 89.36325903149555,89.91998788814271 89.44350499616121,89.91038250377278 89.46840891621832,89.83033752015035 89.56802459647588,89.83674112631888 89.70084550346655,89.74709052150865 89.73958493466489,89.79191585579792 89.8392006149079,89.72787964444433 89.80599538816023,89.78871404831807" stroke="#4DD2FF" stroke-linecap="round" stroke-linejoin="round" stroke-width="0.5"><title>2025-08-02 8.3km</title><desc>1754134728000</desc></polyline><polyline fill="none" points="126.577355445188,79.20000000000437 126.46110938239144,79.22690241551754 126.39136174472515,79.95326453410962 126.97259205864975,79.95326453410962 126.97259205864975,80.53614339214255 125.03515767888166,93.35850454924366 125.04290741638397,94.71236544987187 125.84888011837029,100.80000000000291 125.08165610401193,94.8827173378595 125.02740794135025,93.5647231127441 126.17436909416574,85.36940592834435 126.46110938239144,84.25750997219438 126.38361200722284,84.0064347533189 126.74784967058804,81.3611345802492" stroke="#4DD2FF" stroke-linecap="round" stroke-linejoin="round" stroke-width="0.5"><title>2025-07-31 5.0km</title><desc>1753965181000</desc></polyline><polyline fill="none" points="151.5723366640159,100.80000000000291 151.66549105400918,100.0160555915063 151.90261131952866,99.73187416961446 152.76640657242388,93.78347079783998 152.85956096241716,91.58825065717247 152.4191947550571,88.9225590003989 151.95342280500336,84.52204642302968 151.5045880167163,83.65956161529175 151.5977424067387,83.5321484326123 151.97035996679915,83.58115352279856 151.80945692950627,81.63073169493146 151.3775593030441,81.16027228034363 151.4283707885188,80.07232608836784 151.08962755210814,79.20000000000437 151.4368393694167,80.09192883111973 151.4029650457669,81.17987480179727 151.80945692950627,81.68953896026505 152.00423429044895,83.56155148972903 151.89414273860166,83.65956161529175 151.5553995021619,83.52234741157008 151.5215251785412,83.66936262237869 152.02964003317175,84.7964717888608 152.32604036503471,88.08951524123404 152.91037244789186,92.29386258187151 152.30063462231192,97.37019616112957 151.85179983408307,100.18264431152056 151.69089679676108,100.25123958320182" stroke="#4DD2FF" stroke-linecap="round" stroke-linejoin="round" stroke-width="0.5"><title>2025-07-29 5.0km</title><desc>1753797916000</desc></polyline><polyline fill="none" points="178.9264486086613,79.20000000000437 178.9108780438255,80.84855908886675 178.5527550522238,83.37088525087165 178.2724848848884,84.20864199515927 178.0856381066842,86.51468419648882 177.5640241841611,89.27104658733151 177.6263064435334,89.75745458687015 177.1124778034282,93.17124307655467 177.143618933158,94.98166861446953 177.782012092066,100.80000000000291 177.1825453452766,95.74726033690968 177.0735513913387,93.82876508239133 177.5718094666081,89.41516775418131 178.2646996024705,85.01035877962568 178.1946320606512,84.7851581677678 178.5293992049992,83.41592613737157 178.9108780438255,80.37111070282845" stroke="#4DD2FF" stroke-linecap="round" stroke-linejoin="round" stroke-width="0.5"><title>2025-07-27 5.0km</title><desc>1753616848000</desc></polyline><polyline fill="none" points="22.616938575694803,103.20000000000437 22.63993007541285,105.09775109581096 22.218419247306883,108.09504961468338 22.049814916041214,108.4142824451992 21.81223608565051,111.02130686266173 21.383061424276093,113.3977102684803 21.413716757233487,113.84992896355106 20.854256930819247,117.53852731685038 21.551665755541762,124.80000000000291 22.011495749873575,124.72907278395724 21.68195092061069,121.1737722694379 21.306423091882607,118.68231582688168 21.291095425433014,117.3523277692293 22.348704412317602,109.89515280613705 22.70124074135674,108.40541488234157 22.624602408963256,108.05957922809466 23.145743069180753,104.90265709179221" stroke="#4DD2FF" stroke-linecap="round" stroke-linejoin="round" stroke-width="0.5"><title>2025-07-26 5.2km</title><desc>1753529066000</desc></polyline><polyline fill="none" points="48.74552235973533,103.19999999999709 48.652332064753864,103.66727711300337 48.77658579137642,104.26934206089936 48.62903449102305,105.68912078344874 48.30286845864612,107.89961697184481 48.13201958453283,108.21411397289194 48.10872201077291,109.15759826671274 47.417560656467685,113.29982451531396 47.47192166183959,113.69516785716405 46.959375039557926,117.45982616872061 47.02926776075037,119.46338568533974 47.64277053595288,124.80000000000291 48.08542443704209,124.75508034713857 47.735960830934346,121.49385263142904 47.81361941006617,121.32315145192842 47.37096550897695,118.78954786194663 47.363199651037576,117.58561150899914 49.040624960442074,105.84188042714231" stroke="#4DD2FF" stroke-linecap="round" stroke-linejoin="round" stroke-width="0.5"><title>2025-07-24 5.0km</title><desc>1753356656000</desc></polyline><polyline fill="none" points="73.62114906127681,124.76103279968083 73.73059488800936,124.80000000000291 74.10102691699285,121.72154237441282 74.34517529973527,121.56566847279464 74.28624293149915,121.2636620671401 74.91766116270446,117.35697731620894 74.95975571149029,116.17812096931448 74.32833748022676,112.01790873167192 74.06735127800494,108.93904053595179 73.56221669304068,107.87700292711088 73.63798688078532,107.72110650752438 74.05051345849643,107.7990547490117 73.83162180500221,105.84058596364048 73.46960868575843,105.45083615588374 73.50328432477545,104.39850375573587 73.04024428850971,103.20000000000437 73.46118977601873,104.16465054165747 73.45277086627902,105.41186108793045 73.84004071477102,105.82109851090354 74.05893236826523,107.74059357384249 73.94948654150357,107.84777236774244 73.65482470026473,107.73085004118911 73.56221669304068,107.84777236774244 73.85687853425043,108.26674286636262 74.06735127800494,108.96827076242334 74.44620221672812,112.84606842125504 74.93449898218387,116.0124953622726 74.92608007247327,117.30826453118789 74.0084189097688,123.68942858416995" stroke="#4DD2FF" stroke-linecap="round" stroke-linejoin="round" stroke-width="0.5"><title>2025-07-22 5.0km</title><desc>1753184035000</desc></polyline><polyline fill="none" points="89.19999999995343,117.5624634611886 89.19999999995343,114.096401750925 91.49645608628634,104.39126031968044 110.06779661017936,107.78038556876709 110.79999999993015,108.58914961473783 108.30385208025109,123.57022867209162 91.62958397530019,120.95147092919797 91.03050847456325,120.18124462015112 93.0939907549182,105.20003159838961 93.82619414466899,104.73787679336965 98.25269645615481,105.46962164112483 110.76671802764758,108.24253666360164 108.57010785827879,123.26214046502719 107.87118644057773,123.60873968029045 91.29676425259095,120.79742579261074 91.49645608628634,115.86794836321496 93.12727272731718,105.27705734450137 93.65978428348899,104.81490263334126 101.84714946069289,106.20136507603456 93.49337442219257,104.89192845771322 92.56147919874638,109.12832468663692 93.39352850534488,109.93708585601416" stroke="#4DD2FF" stroke-linecap="round" stroke-linejoin="round" stroke-width="0.5"><title>2025-07-20 4.9km</title><desc>1753020627000</desc></polyline><polyline fill="none" points="127.2415045266971,103.20000000000437 127.0785570575681,104.30436744455073 126.47332360080327,105.85764138655941 125.96120298354072,108.19199018311338 125.82153372425819,110.03249095365027 125.34045072016306,113.11187726538628 125.23181907407707,113.21063131921255 125.28613489714917,113.65053440023621 124.78177368312026,117.28638420697098 124.7584954732738,118.48932381260238 125.44908236624906,124.79102354011411 125.3714883333596,123.55226333405881 125.45684176957002,124.80000000000291 125.89912775720586,124.71023536001303 125.1542250411585,117.68138110629661 126.3414137448417,109.00899769496027 126.58971465018112,108.22790275990701 126.62075226334855,107.17745385890885" stroke="#4DD2FF" stroke-linecap="round" stroke-linejoin="round" stroke-width="0.5"><title>2025-07-20 5.0km</title><desc>1752942252000</desc></polyline><polyline fill="none" points="152.9313751849404,103.2096655261048 152.7977249342366,103.20000000000437 152.58889641740825,104.2632019833909 152.82278435624903,104.40818315134675 152.80607807487831,104.7174755712258 152.513718151371,106.6891911100247 152.35500847859657,107.02747153181554 151.94570458566886,110.88378333143919 151.6032258180785,112.45912388776924 151.63663838079083,112.92302288432984 151.04356539304717,117.35894283377274 151.84546689756098,124.80000000000291 151.10203737774282,118.59593810703518 151.0853310964303,116.72111086343648 151.63663838079083,112.98101009989477 151.6115789587493,112.4687884732557 152.22135822783457,108.79617529505049 152.34665533789666,107.01780639360368 152.513718151371,106.66986076388275 152.95643460698193,103.50929634802014" stroke="#4DD2FF" stroke-linecap="round" stroke-linejoin="round" stroke-width="0.5"><title>2025-07-17 5.0km</title><desc>1752765839000</desc></polyline><polyline fill="none" points="187.2675675676437,124.34420429656166 187.75405405415222,123.66868882908602 188.79999999993015,114.85869042470586 173.15945945947897,114.15500434566638 170.3378378378693,114.3801840855158 170.67837837827392,114.15500434566638 170.16756756755058,110.97432096430566 167.27297297294717,106.41433947323821 167.19999999995343,103.85283545544371 167.54054054047447,103.65579570346745 181.13783783791587,103.88098397993599 180.16486486489885,112.74762682401342 179.5567567567341,113.14169325091643 171.06756756757386,112.86021728892229 170.14324324321933,109.904702416301 167.75945945945568,106.86471135710599 167.46756756748073,105.26025817796472 170.84864864859264,105.00692261577933 180.69999999995343,105.34470331392367 180.8459459459409,107.45582334313076 179.9702702703653,114.32388916771743 178.65675675671082,114.40833154009306" stroke="#4DD2FF" stroke-linecap="round" stroke-linejoin="round" stroke-width="0.5"><title>2025-07-15 4.1km</title><desc>1752589649000</desc></polyline><polyline fill="none" points="22.86804024531739,127.20000000000437 22.93386320231366,128.73282165628189 22.423735285614384,131.9316730419887 22.242722153896466,132.30296121930587 22.234494284261018,133.24545537052472 21.510441757389344,137.66267538349348 21.543353235902032,138.15769568821997 20.992085971083725,142.26055181449192 21.65031554098823,148.8000000000029 21.2718335382815,146.21092804607179 20.983858101448277,142.05112963294232 22.21803854504833,133.1788146813633 22.14398771841661,132.87417092733085 22.390823807101697,131.99831461803115 22.876268114952836,128.82802714322315 22.81867302756291,128.49480751567899 23.016141898551723,127.48562084310106 22.83512876686291,127.25712423828372" stroke="#4DD2FF" stroke-linecap="round" stroke-linejoin="round" stroke-width="0.5"><title>2025-07-13 5.0km</title><desc>1752418082000</desc></polyline><polyline fill="none" points="47.81241459710873,148.8000000000029 47.70156867726473,148.79013357777148 47.76978155100369,148.01068305471563 48.144952356786234,145.64269371809496 48.36664419656154,145.44535866640217 48.75034161153599,142.76156214134244 48.95498023281107,139.988885606057 48.39222402419546,136.1306879061085 48.102319310681196,132.90389328927267 47.93178712623194,132.2723368351144 47.57366953892051,131.69998524848052 47.65040902190958,131.55196273707406 48.059686264547054,131.6111717687454 47.88062747090589,129.73620155871322 47.47135022823932,129.2230455029421 47.49693005593144,128.04869739525748 47.20702534241718,127.2394744620251 47.027966548717814,127.2394744620251 47.18144551469595,127.20000000000437 47.47135022823932,127.92040640475898 47.46282361901831,129.23291391423845 47.83799442477175,129.57830767673295 47.88062747090589,129.77567498906865 48.059686264547054,131.5815672574172 47.64188241271768,131.56183091152343 47.548089711228386,131.6703807642989 47.923260517040035,132.21312820682942 48.09379270146019,132.81508091124851 48.44338367955061,136.65367509600037 48.972033451282186,139.91981436109927 48.96350684206118,141.18282364463812 47.923260517040035,148.28694471546623" stroke="#4DD2FF" stroke-linecap="round" stroke-linejoin="round" stroke-width="0.5"><title>2025-07-12 5.1km</title><desc>1752325602000</desc></polyline><polyline fill="none" points="73.86985901440494,148.8000000000029 73.65995419886895,148.79028449803445 74.13014098565327,145.55496743470576 74.32325341593241,145.4578090728537 74.86060974362772,141.85316406017955 74.94457166985376,140.03621599436156 74.44919630521326,136.7811691968891 74.0713676372543,132.82638109036634 73.56759608001448,131.80607750343916 73.63476562098367,131.69918792584212 74.05457525205566,131.7672085799568 73.86146282177651,129.79458995274035 73.48363415381755,129.376739401363 73.4668417685898,128.06487114561605 73.04703213754692,127.20000000000437 73.49203034641687,128.1717647885671 73.48363415381755,129.36702192495432 73.86985901440494,129.80430738568975 74.07976382991183,131.73805687696586 73.67674658409669,131.6894706855819 73.58438846530044,131.84494641108176 74.08816002251115,132.90411805992335 74.45759249784169,136.76173574879795 74.95296786242398,139.96820122503414 74.86900593625614,141.80458301048202 74.06297144465498,147.16778181793052" stroke="#4DD2FF" stroke-linecap="round" stroke-linejoin="round" stroke-width="0.5"><title>2025-07-10 5.0km</title><desc>1752149320000</desc></polyline><polyline fill="none" points="96.97083915647818,127.20000000001164 97.02143056935165,128.5464361152117 97.38821831234964,128.35617960168747 98.1723852113355,128.61961163040542 99.01979137631133,128.5464361152117 99.96838036697591,128.89767824913724 104.86309955868637,129.54161993673188 105.00222594395746,129.7318748844118 103.87656700843945,136.91747393333935 103.33270932047162,136.9613766955299 103.23152649478288,137.15162184360088 103.04180869663833,138.42479444474156 103.18093508190941,138.98088929167716 102.32088106375886,143.824677312703 96.02225016587181,143.634440976326 95.80723666126141,143.4881051620905 94.99777405598434,148.8000000000029 95.84518022090197,143.57590666846954 98.29886374337366,143.61980740157014 99.12097420194186,143.29786838132713 99.23480488080531,143.634440976326 102.35882462339941,143.7368759579258 104.53425537527073,130.11238402586605 104.47101610922255,129.61479494637751 97.9573717067833,128.47326056279417" stroke="#4DD2FF" stroke-linecap="round" stroke-linejoin="round" stroke-width="0.5"><title>2025-07-08 5.1km</title><desc>1751976330000</desc></polyline><polyline fill="none" points="115.39238742546877,148.60332322170143 115.34603223582963,148.8000000000029 115.63961510389345,148.67484207559028 115.73232548322994,147.67357547547726 116.27313602966024,147.22657961794175 116.38129813893465,146.76170272151649 117.94192285853205,135.9440280990093 118.0809884275659,132.6717739978194 117.7101469101035,130.25777703919448 118.55999205441913,130.22201387224777 118.77631627296796,130.54388211289188 121.75850014318712,130.9730388508906 124.15351827727864,130.93727582940483 125.89956375560723,131.63465343748976 131.4621865185327,132.45719783182722 132.4820006918162,127.19999999999709 136.65396776411217,128.12985595209466 132.9301008587936,127.25364566934877 132.23477301344974,130.34718492468528 132.12661090411711,132.49296054434672 121.71214495348977,131.09820936896722 118.77631627296796,130.56176366456202 118.51363686477998,130.1683691081853 117.66379172040615,130.31142177594302 118.00372977810912,131.741942054854 118.06553669774439,134.83540237956913 116.31949121929938,146.81534242613998" stroke="#4DD2FF" stroke-linecap="round" stroke-linejoin="round" stroke-width="0.5"><title>2025-07-06 5.0km</title><desc>1751807521000</desc></polyline><polyline fill="none" points="144.48768110363744,147.46114566719916 145.42353056982392,140.80611479237268 142.3947813884006,140.5895271066256 141.44191647745902,140.92425342802017 142.68404395069228,140.80611479237268 142.5138895023265,140.60921690623218 145.6447313526296,140.78642501278955 145.8659321356099,140.5895271066256 145.76383946661372,139.9791423259594 147.03999782941537,131.9258211225242 146.92088971560588,127.90888051825459 149.11588209989714,127.6922784128983 162.5580835225992,129.89767034615215 162.5410680777859,129.247869974919 147.75464651267976,127.19999999999709 147.99286274047336,132.06365584160085 146.4444572600769,143.01135744639032 146.86984338110778,143.680801142953 146.4784881497617,144.4093107728695 146.56356537394458,145.98445736573194 145.9680248045479,146.1222820833791 145.6957776871859,148.8000000000029 144.31752665521344,148.64248820573266 144.40260387945455,147.48083476851752" stroke="#4DD2FF" stroke-linecap="round" stroke-linejoin="round" stroke-width="0.5"><title>2025-07-05 4.8km</title><desc>1751729502000</desc></polyline><polyline fill="none" points="181.47653159161564,148.8000000000029 181.69029890629463,148.64377437834628 181.72405164019438,147.75849225716956 182.01657533395337,146.4696147036011 182.1740880921716,146.417538570342 182.37660449557006,144.5297644467646 177.97749817738077,144.3474951277749 178.25877095985925,143.37104793159233 178.6750546779367,138.97043354451307 178.72005832317518,135.75450434455706 178.56254556495696,135.32483967291773 178.7313092343975,132.69473966119403 178.72005832317518,127.20000000001164 172.81332989077782,129.32240369042847 172.68956986645935,129.62188113393495 172.73457351169782,129.36146600537177 175.91858140949626,128.15052870126965 175.97483596601523,130.83280452557665 176.28986148239346,131.5098749796016 178.64130194403697,131.5098749796016 178.6525528553757,134.94725437769375 178.90007290389622,135.06443614015006 178.99008019431494,135.48108153846988 183.10791373002576,135.74148422417056 183.31043013348244,136.77006965701003 183.287928310805,138.6449383102008 181.87031348713208,148.31830372134573" stroke="#4DD2FF" stroke-linecap="round" stroke-linejoin="round" stroke-width="0.5"><title>2025-07-03 5.2km</title><desc>1751545471000</desc></polyline><polyline fill="none" points="21.62149048372521,172.8000000000029 22.13458116131369,169.63671731814247 22.34486422588816,169.49071713368176 22.88318887123023,165.4999592376189 22.925245484133484,164.1177555339309 22.008411322545726,156.7781142833337 21.5626112256723,155.85331851030787 21.655135774053633,155.72676681490702 22.03364529029932,155.7949100562837 21.857007516053272,153.90635083913367 21.444852709479164,153.38066277890175 21.453264032053994,152.18325142054528 21.057931870687753,151.20000000000437 21.48690932241152,152.27086739368679 21.444852709479164,153.4001327585429 21.82336222572485,153.7700616192451 21.882241483806865,154.07184463103476 22.03364529029932,155.78517531047692 21.62149048372521,155.75597106714122 21.5626112256723,155.8825227239431 22.016822645178763,156.7781142833337 22.45421141947736,160.94445183175412 22.942068129283143,164.08855383204354 22.79907564536552,166.26892308380047 21.873830161232036,172.46907685849146" stroke="#4DD2FF" stroke-linecap="round" stroke-linejoin="round" stroke-width="0.5"><title>2025-07-01 5.0km</title><desc>1751376396000</desc></polyline><polyline fill="none" points="47.24091598694213,172.8000000000029 47.39689215400722,172.60748258684907 47.365696920547634,171.8975719208902 47.615258787875064,171.65692327159195 47.79203177720774,170.71838886621117 48.062390466744546,167.40939411168802 48.43673326767748,166.12186934256897 48.852669713203795,162.74054603456898 48.748685601807665,160.80316069041146 48.16637457808247,157.34948208722926 47.771234954940155,153.16161118170567 47.147330286738,151.60917311411322 47.6984460769454,151.71748340755585 47.719242899212986,151.1999999999971 47.719242899212986,151.69341446199542 47.24091598694213,151.59713863095385 47.15772869781358,151.71748340755585 47.5528683210141,152.3071710439035 47.79203177720774,153.13754252986837 48.22876504494343,157.80676936249802 48.852669713203795,161.9583756436623 48.800677657476626,163.89574208252452 47.49047785421135,172.39090012299857" stroke="#4DD2FF" stroke-linecap="round" stroke-linejoin="round" stroke-width="0.5"><title>2025-06-30 4.1km</title><desc>1751292736000</desc></polyline><polyline fill="none" points="63.44250871078111,163.3315227524945 63.20000000001164,161.57876788833528 63.28362369336537,161.39477517099294 69.78954703832278,161.08489189430838 70.82648083620006,161.18173052685597 72.51567944249837,161.01710479283065 75.04947735188762,161.04615641367855 84.79999999998836,160.4263865755347 81.88989547037636,160.6297489993085 81.21254355402198,160.85247877354414 79.95818815330858,160.79437540450454 73.61114982576692,161.12362735918578 67.70731707316008,161.23014980609878 67.53170731704449,161.385091333912 67.94146341460873,163.57361342445802 67.7491289198515,163.5542461934092 67.51498257837375,162.41157257369196" stroke="#4DD2FF" stroke-linecap="round" stroke-linejoin="round" stroke-width="0.5"><title>2025-06-26 5.0km</title><desc>1750950176000</desc></polyline><polyline fill="none" points="110.80000000001746,162.8840289662694 110.4512378902291,161.1159710337306 101.15866523142904,161.96859223496722 100.16663078582496,161.97756715106516 96.58600645855768,161.52882022524136 89.20000000001164,161.842943313437 96.33799784714938,161.51984526338492 100.17438105490874,161.98654206626816 106.78536060283659,161.3852207259697" stroke="#4DD2FF" stroke-linecap="round" stroke-linejoin="round" stroke-width="0.5"><title>2025-06-24 5.0km</title><desc>1750769966000</desc></polyline><polyline fill="none" points="136.80000000001746,162.86500652030372 136.5043227665592,161.134993479689 127.30720461095916,162.0090147157971 126.18674351586378,162.04505664313183 122.56080691641546,161.57651044185332 115.20000000001164,161.90088884568104 122.36628242072766,161.57651044185332 126.17896253601066,162.04505664313183 133.96772334293928,161.3512469611669" stroke="#4DD2FF" stroke-linecap="round" stroke-linejoin="round" stroke-width="0.5"><title>2025-06-22 5.0km</title><desc>1750563938000</desc></polyline><polyline fill="none" points="152.73815248723258,172.79999999999927 151.62179466203088,166.13051871750213 151.60614478596835,164.31198824174135 151.70526066762977,163.55072635359465 151.64266116340877,161.59315086737843 151.66352766481577,161.25479793072736 151.77829342253972,161.0614525278579 151.66352766481577,160.97082165302345 151.6583110394422,159.7321858001269 150.39067107907613,152.10645203613967 150.07245693262666,151.1999999999971 150.3958877043915,151.99163554574625 151.64266116340877,159.60529968929768 151.71047729300335,163.31509569159243 151.62179466203088,164.3180299636333 151.6165780366573,166.07010331892525 152.47210459431517,171.19311027954973 152.5920869773836,171.54348844374908 153.92754306737334,171.47099657972285" stroke="#4DD2FF" stroke-linecap="round" stroke-linejoin="round" stroke-width="0.5"><title>2025-06-21 8.0km</title><desc>1750517001000</desc></polyline><polyline fill="none" points="180.1913823732757,172.8000000000029 178.36168446938973,161.54865028322092 175.14198350673541,161.48294666381844 169.3408482920495,160.92446481718798 169.45431792951422,160.33312898734584 169.22737865458475,159.1997292473534 169.53942015761277,151.7913693520677 169.49686904350528,151.2657078129996 169.21319494990166,151.20000000001164 168.85860233288258,160.31670296112134 169.39758311078185,160.38240705603675 169.42595052008983,160.9408907815232 178.404235583439,161.53222438090597 179.49638084386243,168.56235758092953 179.83678975625662,169.49859049583029 187.14139766711742,169.26863905573555" stroke="#4DD2FF" stroke-linecap="round" stroke-linejoin="round" stroke-width="0.5"><title>2025-06-19 5.0km</title><desc>1750345525000</desc></polyline><polyline fill="none" points="32.79999999998836,186.54074252207647 32.601739130477654,185.36258955602898 26.48695652175229,185.9426062500861 25.699130434775725,185.9607316803049 23.080000000016298,185.65864045270428 13.375652173912385,186.09969312808244 12.535652173915878,186.23865425010445 11.200000000011642,186.63741044396738 13.083478260872653,186.12990209535928 16.495652173936833,185.97885710501942" stroke="#4DD2FF" stroke-linecap="round" stroke-linejoin="round" stroke-width="0.5"><title>2025-06-17 5.1km</title><desc>1750166247000</desc></polyline><polyline fill="none" points="37.944827586063184,194.1510307485005 37.199999999953434,189.36404772932292 54.03310344822239,188.86809284615447 51.295862069004215,178.06461318439688 54.610344827524386,178.25869253612473 58.79999999993015,177.8489692514995 52.189655172405764,178.2371281724918 54.62896551727317,187.96243310290447 47.40413793094922,188.30744679560303" stroke="#4DD2FF" stroke-linecap="round" stroke-linejoin="round" stroke-width="0.5"><title>2025-06-16 3.2km</title><desc>1750084948000</desc></polyline><polyline fill="none" points="84.80000000001746,186.99850620845245 84.46903225811548,185.00149379155482 73.85193548386451,185.97983319273044 72.89387096776045,185.9899191155855 68.6958064516075,185.47553574019548 63.20000000001164,185.73777073623933 68.52161290321965,185.46544976492441 72.8851612903527,185.96974726887856 81.89096774198697,185.21330004923948" stroke="#4DD2FF" stroke-linecap="round" stroke-linejoin="round" stroke-width="0.5"><title>2025-06-15 4.6km</title><desc>1749956754000</desc></polyline><polyline fill="none" points="110.79999999998836,186.86869646520063 110.53705692803487,185.13130353479937 101.2876476906822,185.98209302483883 100.32094522018451,186.00000429398642 96.25306122447364,185.54326579025656 89.20000000001164,185.86566968640545 96.39226638022228,185.54326579025656 100.25907626209664,186.00000429398642 102.27755102043739,185.90149226850917 102.65649838879472,185.7761131672596 107.55961331899744,185.33728490394424" stroke="#4DD2FF" stroke-linecap="round" stroke-linejoin="round" stroke-width="0.5"><title>2025-06-14 5.1km</title><desc>1749906363000</desc></polyline><polyline fill="none" points="136.80000000001746,187.2825023057885 136.54031117400154,185.5312315057672 127.58868458276265,186.39802652083017 126.38189533242257,186.40687132332096 122.71570014147437,185.96463009550644 115.81103253184119,186.29188882088056 115.71937765210168,186.08845786646998 115.75756718532648,184.7263426679565 115.20000000001164,184.7174976942042 115.78048090526136,184.74403261275438 115.71937765210168,186.0796130315357 115.83394625180517,186.29188882088056 122.90664780765655,185.9557852479702 126.54992927866988,186.41571612490225 133.8059405941167,185.76119837396982 133.79830268744263,185.4074029396943 136.12786421502824,185.2835741969684" stroke="#4DD2FF" stroke-linecap="round" stroke-linejoin="round" stroke-width="0.5"><title>2025-06-12 5.9km</title><desc>1749735885000</desc></polyline><polyline fill="none" points="162.80000000004657,192.7951636059588 162.1114345114911,189.32834658339561 143.19085239083506,191.00976166465261 141.409563409572,186.13881250722625 141.20000000001164,180.05426366438041 144.73264033265878,179.89824672872783 147.7413721413468,180.08893407507276 147.90602910605958,179.53420665560407 147.59168399171904,179.41285979138047 141.28981288976502,179.2048363940412 141.4245322245406,185.96546655007114 141.9484407483833,187.94159998719988 142.9812889812747,190.4030674181995 151.36382536380552,189.67503146568197 151.5284823284601,190.33373079507146 162.0665280665853,189.31101232068613 162.71018711023498,192.74316187262593" stroke="#4DD2FF" stroke-linecap="round" stroke-linejoin="round" stroke-width="0.5"><title>2025-06-10 5.3km</title><desc>1749559786000</desc></polyline><polyline fill="none" points="167.76714178547263,180.24909050056885 167.24861215311103,178.1474734665535 167.20000000001164,176.5149508225004 181.89707426866516,176.13965621423267 182.5614403600921,178.59782199337496 182.07531882979674,178.57905749345082 181.929482370615,178.9168181999994 182.23735933983698,180.66190531340544 182.15633908478776,181.84405170261743 182.6910727682407,184.2083217118634 184.06841710436856,184.15202992159175 186.11012753192335,192.01394999414333 186.1425356339896,192.3704491542594 185.6240060015698,192.52055385735002 186.09392348094843,192.389212248876 186.25596399098868,192.6894215020002 185.83465866465122,192.76447373889096 185.98049512377474,193.4587054794829 186.95273818454007,195.93540279920853 187.63330832711654,195.8603518546297 188.79999999998836,195.22241759099416 187.56849212310044,195.48509667308826 185.3809452363057,186.76019813120365 185.1216804201831,186.00964991436922 184.538334583689,186.00964991436922 184.1008252063766,184.09573811406153 183.63090772693977,184.28337740548886 182.67486871726578,184.15202992159175 182.14013503381284,181.99416498669598 182.02670667675557,179.2170494190359 181.13548387098126,176.06459720079147 167.24861215311103,176.55248024124012 167.83195798954694,180.36167645036767" stroke="#4DD2FF" stroke-linecap="round" stroke-linejoin="round" stroke-width="0.5"><title>2025-06-08 5.0km</title><desc>1749355299000</desc></polyline><polyline fill="none" points="32.80000000001746,210.8888356619209 32.42010050249519,209.11116433808638 25.457860732189147,209.69474726330373 23.364536970562767,209.99102634569863 22.201579325221246,209.99102634569863 18.51888011486153,209.5421182561986 11.200000000011642,209.86533231123758 18.16999282123288,209.5421182561986 22.16281407038332,210.0000044841363 30.55936826992547,209.24583766396972" stroke="#4DD2FF" stroke-linecap="round" stroke-linejoin="round" stroke-width="0.5"><title>2025-06-07 5.3km</title><desc>1749293029000</desc></polyline><polyline fill="none" points="58.80000000001746,210.85568752919062 58.48109470657073,209.14431247080938 48.626143320143456,210.04504031674878 44.62815988477087,209.58567026240053 37.20000000001164,209.8919172306123 44.59704717321438,209.5676557018014 48.151674468885176,210.04504031674878 55.76651062298333,209.3514806882813" stroke="#4DD2FF" stroke-linecap="round" stroke-linejoin="round" stroke-width="0.5"><title>2025-06-05 5.1km</title><desc>1749128617000</desc></polyline><polyline fill="none" points="63.50236220471561,209.8632804811059 63.20000000001164,207.88280388200656 63.313385826768354,207.7952681616007 71.78897637792397,207.49983457833878 73.38582677161321,213.3536447847291 81.75748031493276,213.24423069852492 84.79999999998836,213.05822649609036 82.29606299212901,213.14575792558753 81.83307086618152,206.6463552152636 73.82047244091518,207.1168639085081 72.1007874016068,207.06215370126301 72.25196850392967,207.49983457833878 67.81102362205274,207.63113849350339" stroke="#4DD2FF" stroke-linecap="round" stroke-linejoin="round" stroke-width="0.5"><title>2025-06-03 5.2km</title><desc>1748952979000</desc></polyline><polyline fill="none" points="107.06249909711187,203.56082101978245 106.58866688591661,202.85949760240328 106.25278582482133,202.1234474476223 106.0368622855749,201.92207385148504 105.50305131345522,201.87346634264395 105.0951957392972,201.4012773109498 104.90926158046932,200.78326025598653 104.63335928026936,200.35967229801463 104.30347609525779,199.1999999999971 103.34981379681267,199.60970683729101 102.90597096606507,199.65831595972122 101.75437875659554,200.0888523886315 101.26255291714915,200.72076383748208 101.26255291714915,200.8804767931506 99.27125805494143,203.41500189319777 99.2592623027449,203.56082101978245 98.7134555784869,204.31074303203786 98.23962336732075,204.74819373136415 98.15565310203237,204.67181365271972 97.81977204090799,204.96344622015022 97.59785062554874,204.83151735600404 97.59185274949414,204.9565026020864 97.56186336898827,204.77596828423702 97.8737529257487,204.99816429989733 97.8257699170208,205.24813395230012 97.10602478610235,206.04664198242972 95.87646018745727,206.32438171478134 95.87646018745727,206.19939897519362 95.792489922198,206.35215562582016 95.45660886107362,206.42853382286557 95.16271293262253,206.34521214911365 94.67088709317613,206.386872998708 94.58691682788776,206.31049475502368 94.38898691689246,206.42159035395161 93.79519718390657,206.21328595755767 93.7172247947019,205.30368263951823 93.48930550322984,205.1023184330552 92.36770267426618,205.38700558556593 91.94785134788253,205.64391736174002 92.4276814351615,207.72000675107847 93.18341382261133,210.03904192813206 94.77884886279935,216.27366183226695 95.0007702781586,216.91930817933462 96.8841033707431,220.73057990218513 97.12401841438259,220.8000000000029 97.95172531495336,220.5362032526973 98.5155256674916,220.70281184330088 99.54716035514139,220.48760900383786 99.52916672683205,220.0780275314537 99.805069027032,220.00166461223125 100.30289274259121,220.2307531136321 100.68075893633068,220.05025920709159 100.83670371468179,220.27934754537273 101.80835964140715,220.49455104149092 102.3781578700873,220.3904204023056 102.95395397479297,219.96001207481459 103.05591786833247,219.14778251434473 103.48776494691265,218.5507529127717 103.37380530117662,217.95371808826167 103.5117564512766,217.66214104311803 103.2178605227964,217.3358509679092 103.03192636399763,216.84988413403335 102.95995185087668,216.12786987621075 103.34981379681267,215.8154574929431 103.94360352979857,216.05844502575928 104.27348671481013,216.0376175568381 104.3574569800985,215.58635416949255 104.21950582999852,215.0309489806241 104.1055461842625,214.98235081150779 104.21950582999852,214.9268100044428 104.08755255601136,214.88515436946182 104.19551432560547,214.94763781239453 104.2075100778311,214.6213347574303 104.05156529945089,214.2603167932466 103.34381592069985,214.2117180752757 103.01393273571739,213.96178126467566 103.15188388578827,213.01756727332395 103.7156842383556,212.05251152983692 104.14753131687758,211.5734500117469 104.34546122790198,211.504020527158 104.77131043036934,210.9138670553366 105.52104494173545,210.19873306609225 106.1868091878423,209.36555779891933 105.99487715290161,208.97673919187218 105.40108741991571,208.96979598232429 105.32311503074015,208.7406696706821 105.55103432218311,208.19215204069042 105.81494087018655,207.94219317677926 106.06085378993885,207.9769097404278 106.16281768344925,207.85193002863525 105.95289202028653,207.37283901206683 106.2347921965411,206.78264980076347 106.49869874457363,206.62989411417948 106.72062015993288,206.72015887941234 106.69063077948522,206.55351614263054 107.35639502556296,206.24800340112415 107.41637378648738,206.06052899591305 107.99816776730586,205.70640926906344 108.05214865211747,205.1995288138569 107.29041838855483,203.74830229589134 107.17046086673508,203.69275234187808" stroke="#4DD2FF" stroke-linecap="round" stroke-linejoin="round" stroke-width="0.5"><title>2025-06-02 11.5km</title><desc>1748829019000</desc></polyline><polyline fill="none" points="136.80000000004657,211.01010417004727 136.40432972525014,208.98989582994545 124.99283930059755,210.05207220497687 120.26278101583011,209.51057190335268 115.20000000001164,209.72925506292086 120.3257285595173,209.48974491135596 124.47127393836854,210.0312453233637 136.38634471275145,209.00030937744305 136.79100749379722,210.9476240983131" stroke="#4DD2FF" stroke-linecap="round" stroke-linejoin="round" stroke-width="0.5"><title>2025-06-01 4.9km</title><desc>1748740054000</desc></polyline><polyline fill="none" points="162.79999999998836,220.40892800624715 162.72178636089666,220.5749758197344 162.56535908265505,220.45421379205072 162.0439348219079,217.5558955880988 145.56692818342708,218.9899663713586 144.0417622208479,214.71790405572392 143.97658418829087,209.34368598276342 143.61158720578533,207.32075562310638 141.20000000001164,199.4250241802656 142.79034399514785,204.70902107811708 143.22051901026862,205.52424952304864 143.92444176226854,208.5586715124664 144.62836451421026,208.75492552017386 143.89837054919917,208.7398290673009 144.0417622208479,214.21974035682797 144.53711526852567,216.25767216749955 145.397465298709,218.38614878656517 145.61907060950762,218.52200795777026 152.6843693421688,217.79742427130986 152.87990343989804,218.3710533154226 158.49824984907173,217.82761532903532" stroke="#4DD2FF" stroke-linecap="round" stroke-linejoin="round" stroke-width="0.5"><title>2025-05-31 5.5km</title><desc>1748696141000</desc></polyline><polyline fill="none" points="187.28519480518298,215.96107695229875 186.79428571433527,212.79383424030675 169.02337662340142,214.38558459952765 167.38233766233316,209.70774233133125 167.20000000001164,204.071409692624 173.23116883111652,204.13638296272256 167.2841558441869,204.0389230476867 167.39636363636237,209.62652857927606 167.83116883120965,211.3644938388752 168.92519480513874,213.86583112829248 184.6623376623029,212.35528798044834 186.0649350649328,212.27407557763217 186.13506493507884,212.87504637821985 188.79999999998836,212.66389473357412" stroke="#4DD2FF" stroke-linecap="round" stroke-linejoin="round" stroke-width="0.5"><title>2025-05-29 5.0km</title><desc>1748526381000</desc></polyline><polyline fill="none" points="24.293502377113327,231.8794324934861 23.81426307442598,227.9550316833047 31.927099841530435,227.55862315728154 32.79999999998836,230.74968886254646 31.858637083962094,227.6379049270763 23.78003169572912,228.01449289247103 24.00253565760795,229.97670259683218 23.69445324881235,228.0343132914859 12.158478605328128,229.10461183918233 13.887163232895546,237.7658852304594 14.55467511882307,239.78745416236052 14.10966719489079,240.06492276806966 14.811410459515173,241.92791601225326 13.870047543547116,239.47034669971617 11.542313787562307,229.14425241308345 15.581616481766105,228.5694633016683 22.890015847806353,228.11359486742003 22.80443740094779,227.53880270973605 12.072900158469565,228.2721579222998 11.473851030052174,226.0720839877613 11.200000000011642,226.30993101850618 11.336925515031908,228.43072084784217 19.432646592671517,227.6379049270763" stroke="#4DD2FF" stroke-linecap="round" stroke-linejoin="round" stroke-width="0.5"><title>2025-05-27 6.0km</title><desc>1748352132000</desc></polyline><polyline fill="none" points="55.921640091139125,235.60963212927163 56.007744874747004,235.5526552900119 55.730979498883244,234.17095271491416 48.45512528475956,234.86892959520628 47.6125284738373,234.88317394875048 44.58041002281243,234.5270642391988 37.33530751711805,234.84756305946212 37.20000000001164,232.48295940099342 38.06104783603223,232.39036787073564 39.248063781356905,232.47583697995287 39.254214123036945,234.5270642391988 44.758769931679126,234.30627530792117 48.104555808677105,234.63389734260272 55.71867881552316,233.87893991079181 58.670842824620195,233.77210565316636 58.80000000001746,234.00714080432226 58.71389521643869,234.03562985983444 55.98929384967778,234.14958596572978" stroke="#4DD2FF" stroke-linecap="round" stroke-linejoin="round" stroke-width="0.5"><title>2025-05-25 7.6km</title><desc>1748179850000</desc></polyline><polyline fill="none" points="84.7858453473018,235.19247159729275 84.72922673658468,234.72532334623247 84.45321100918227,234.72532334623247 84.27627785058576,233.84838859889715 84.13473132372019,233.65169164153485 77.30511140238377,234.23358541334164 76.18689384011668,234.43847658415325 71.69986893839086,234.020498041893 63.32031454789103,234.3974983917651 63.20000000001164,232.9714442880504 65.2807339449646,232.80752840270725 65.26657929227804,234.0041066822596 65.54259501968045,234.0368893982086 71.42385321101756,233.7828229999286 75.68440366972936,234.15162879884156 84.53106159897288,233.29927505632077 84.80000000001746,235.10232039174298" stroke="#4DD2FF" stroke-linecap="round" stroke-linejoin="round" stroke-width="0.5"><title>2025-05-24 6.6km</title><desc>1748094255000</desc></polyline><polyline fill="none" points="110.79999999998836,234.96242977261863 110.56502820309834,233.03757022738137 101.67091055604396,233.79340959531692 100.43513295729645,234.0050435829762 99.02530217566527,234.02519917719474 94.96116035457817,233.53138593537733 89.20000000001164,233.76317613151332 94.93505237714271,233.5213080884423 98.97308622079436,234.03527697279787 108.18920225626789,233.25928370746988" stroke="#4DD2FF" stroke-linecap="round" stroke-linejoin="round" stroke-width="0.5"><title>2025-05-18 4.7km</title><desc>1747565909000</desc></polyline><polyline fill="none" points="133.99255654166336,234.77338019321905 133.7575722874608,233.3913227641242 127.49338677356718,233.9212340073791 126.44832522189245,234.10741808998137 125.60732894361718,234.1002571728386 122.74423131978256,233.7278884763 115.24328657315345,234.0716134970353 115.20000000001164,233.85678555611958 119.4235327798524,233.5846692213745 122.28663040368701,233.53454241318104 125.63206412826548,234.0716134970353 133.8379616375605,233.3411958179713 136.6021185227437,233.22661980678095 136.71342685373384,233.2409418183961 136.73197824222734,233.3411958179713 136.80000000001746,233.29822983567283" stroke="#4DD2FF" stroke-linecap="round" stroke-linejoin="round" stroke-width="0.5"><title>2025-05-17 5.7km</title><desc>1747487200000</desc></polyline><polyline fill="none" points="161.61962504984695,233.10703299409215 158.7591543677554,233.2566937149022 157.36338252888527,233.50612774110778 150.95317112084012,233.9950165888731 146.93817311525345,233.47619569153176 141.20000000001164,233.7056745044756 146.8606302353437,233.496150392275 150.79808536096243,233.985039289837 162.2399680893286,232.98730425271788 162.6190666134935,234.92290095295903 162.79999999998836,235.01269574727485" stroke="#4DD2FF" stroke-linecap="round" stroke-linejoin="round" stroke-width="0.5"><title>2025-05-11 5.0km</title><desc>1746965499000</desc></polyline><polyline fill="none" points="188.80000000001746,234.77605289639905 188.45136298416764,233.22394710360095 178.65078909610747,234.11214972172456 174.66857962694485,233.65459191647096 167.20000000001164,233.9686024309849 174.48263988521649,233.66356366098626 178.20143472022028,234.11214972172456 188.5133428981353,233.2418906795283" stroke="#4DD2FF" stroke-linecap="round" stroke-linejoin="round" stroke-width="0.5"><title>2025-05-10 5.3km</title><desc>1746870058000</desc></polyline><polyline fill="none" points="32.75283842795761,257.63590713059966 32.69781659389264,257.4811665711022 32.80000000001746,257.59949761129974 32.38340611354215,257.6723166350275 22.754585152870277,258.5188334288905 18.675109170319047,258.03641086306743 11.200000000011642,258.34588978983084 18.635807860264322,258.03641086306743 20.545851528382627,258.1911504605159 22.282969432329992,258.50973114042426 30.16681222707848,257.7997497837059" stroke="#4DD2FF" stroke-linecap="round" stroke-linejoin="round" stroke-width="0.5"><title>2025-05-05 5.4km</title><desc>1746434825000</desc></polyline></svg>