<?xml version="1.0" encoding="utf-8" ?>
<svg baseProfile="full" height="300mm" version="1.1" viewBox="0,0,200,300" width="200mm" xmlns="http://www.w3.org/2000/svg" xmlns:ev="http://www.w3.org/2001/xml-events" xmlns:xlink="http://www.w3.org/1999/xlink"><defs /><rect fill="#222222" height="300" width="200" x="0" y="0" /><text fill="#FFFFFF" style="font-size:12px; font-family:Arial; font-weight:bold;" x="10" y="20">Over 3km Runs</text><text fill="#FFFFFF" style="font-size:4px; font-family:Arial" x="10" y="280">Runner</text><text fill="#FFFFFF" style="font-size:9px; font-family:Arial" x="10" y="290">tang-hi</text><text fill="#FFFFFF" style="font-size:4px; font-family:Arial" x="65" y="280">SPECIAL TRACKS</text><rect fill="yellow" height="2.6" width="2.6" x="65" y="283" /><text fill="#FFFFFF" style="font-size:3px; font-family:Arial" x="70" y="285.5">Over 20.0 km</text><rect fill="red" height="2.6" width="2.6" x="65" y="287" /><text fill="#FFFFFF" style="font-size:3px; font-family:Arial" x="70" y="289.5">Over 40.0 km</text><text fill="#FFFFFF" style="font-size:4px; font-family:Arial" x="120" y="280">STATISTICS</text><text fill="#FFFFFF" style="font-size:3px; font-family:Arial" x="120" y="285">Number: 75</text><text fill="#FFFFFF" style="font-size:3px; font-family:Arial" x="120" y="290">Weekly: 3.8</text><text fill="#FFFFFF" style="font-size:3px; font-family:Arial" x="141" y="285">Total: 394.6 km</text><text fill="#FFFFFF" style="font-size:3px; font-family:Arial" x="141" y="290">Avg: 5.3 km</text><text fill="#FFFFFF" style="font-size:3px; font-family:Arial" x="167" y="285">Min: 3.2 km</text><text fill="#FFFFFF" style="font-size:3px; font-family:Arial" x="167" y="290">Max: 11.5 km</text><polyline fill="none" points="21.09327638190007,51.375 20.99924221105175,51.33873003824556 21.02275075376383,50.58612500526215 21.195146733662114,50.42290861836227 21.571283417084487,48.192254742949444 22.11981608046335,43.395253229435184 21.273508542741183,36.367044198057556 20.83468241203809,35.460138177695626 20.92871658288641,35.351308835539385 21.29701708542416,35.38758529768529 21.12462110549677,33.59188270983577 20.748484422074398,33.16562476544641 20.76415678387275,32.07729736804322 20.35667537682457,31.125 20.77982914572931,32.158922383554454 20.756320602988126,33.17469410462945 21.132457286439603,33.573744115405134 21.108948743727524,34.1813850204926 21.312689447251614,35.37851618351124 20.936552763800137,35.333170598933066 20.873863316577626,35.45106907090667 21.34403417087742,36.54842429554992 21.673153768846532,40.0308506442816 22.14332462317543,43.13227215401275 22.010109547816683,45.12728163599968 21.304853266337886,49.79724303635885" stroke="#4DD2FF" stroke-linecap="round" stroke-linejoin="round" stroke-width="0.5"><title>2025-09-21 5.0km</title><desc>1758459157000</desc></polyline><polyline fill="none" points="33.6456002034829,34.921595951906056 33.625,35.517521505840705 34.27390640898375,35.48176605795743 34.44900813838467,35.62478778397781 34.81981180066941,35.49368454177602 37.49783825024497,35.48176605795743 37.73474059003638,35.62478778397781 39.60935910482658,35.61286931348877 39.887461851525586,35.74397242247505 40.54666836222168,35.577113894680224 44.00750254333252,35.577113894680224 45.81002034590347,35.61286931348877 46.00572227878729,35.76780933563714 47.32413530012127,35.672461653943174 53.875,35.875075384945376 53.22609359113267,40.76153583967243 52.875890132330824,41.29784227415803 46.036622583982535,41.26208858814789 45.65551882004365,47.578404048093944 45.99542217707494,41.67921424702945 52.00038148526801,41.71496780591406 52.88619023404317,41.88181760333828 53.20549338759156,40.83304350593971 53.45269582915353,38.83081237438455" stroke="#4DD2FF" stroke-linecap="round" stroke-linejoin="round" stroke-width="0.5"><title>2025-09-20 5.0km</title><desc>1758380898000</desc></polyline><polyline fill="none" points="66.95240899643977,31.125 66.8220650589501,31.284204328650958 66.82930638882681,31.85398572312988 66.93792633671546,31.92101856953377 66.87275436797063,32.742166515934514 66.4382745763869,35.59936248631857 66.22827601042809,36.353444619664515 66.26448265975341,36.93156958617328 65.75758956951904,40.37509956544818 65.63448696190608,40.551042492508714 65.6851762708975,40.95319634514453 65.19276584041654,44.51384805815178 65.22897248974186,45.86266657283704 65.83000286811148,51.375 66.19206936113187,51.36662287297804 66.27172398960101,51.26609728218318 65.96034680560115,48.01570385150262 65.58379765285645,45.728623483664705 65.58379765285645,44.3462914233387 66.74241043048096,36.16911406820873 66.90171968741925,35.88423876924935 66.83654771867441,35.64963484303007 67.30723415958346,32.549448854675575" stroke="#4DD2FF" stroke-linecap="round" stroke-linejoin="round" stroke-width="0.5"><title>2025-09-18 5.2km</title><desc>1758195038000</desc></polyline><polyline fill="none" points="88.3044626210467,51.20163047154347 88.28869138640584,51.375 88.47006058492116,51.338501179729064 88.54891675818362,50.68151987792953 88.72240033937851,50.5628977417 89.5188476893527,45.10611006434192 89.6371319492755,43.53653781222965 88.79337089529145,36.41836572730972 88.34389070767793,35.49661242059665 88.4227468809695,35.32321222577593 88.80125651264098,35.4053492019375 88.64354416611604,33.64395090199832 88.24137768245419,33.169371354961186 88.28080576905631,32.16544481275196 87.8628680507536,31.125 88.3044626210467,32.201951429233304 88.28080576905631,33.17849790836772 88.64354416611604,33.61657138094597 88.8091421299614,35.414475527984905 88.4227468809695,35.34146489365958 88.3675475596392,35.48748610291659 88.74605719131068,36.153704855561955 88.88799830322387,36.829044845319004 89.14033805768122,39.68549427929247 89.62924633192597,42.89775055073551 89.6371319492755,44.32132736835774 89.23496546558454,47.250539425636816 89.06936750173918,48.254297273626435 88.87222706858302,48.436797494963685 88.66720101807732,50.30740337759198 88.48583181956201,50.76364280349662" stroke="#4DD2FF" stroke-linecap="round" stroke-linejoin="round" stroke-width="0.5"><title>2025-09-16 5.1km</title><desc>1758026219000</desc></polyline><polyline fill="none" points="112.09828871159698,31.125 111.91703043988673,31.208895909730927 111.89527944728616,31.745827713326435 112.0257854029478,31.89683915396745 111.975033086841,32.71900770774664 111.54726356561878,35.59653317951597 111.40225694823312,35.84820702356228 111.24274966915254,38.04612599574466 110.75697750094696,40.579532545372786 110.79322915527155,41.032517579624255 110.29295632537105,44.907954659742245 110.9744874270109,51.375 111.37325562478509,51.29112457171868 110.66997353051556,44.597590855402814 111.08324239001377,41.55260844410077 111.28625165432459,40.81441398437164 111.68501985209878,37.34145605500089 111.89527944728616,36.07471282740153 112.01853507204214,35.881763478137145 111.96778275593533,35.453917660765 112.20704367462895,33.85157343174069" stroke="#4DD2FF" stroke-linecap="round" stroke-linejoin="round" stroke-width="0.5"><title>2025-09-14 5.0km</title><desc>1757842188000</desc></polyline><polyline fill="none" points="134.30331754492363,31.125 134.42708594314172,32.22017639342812 133.93201235029846,35.53931495195138 133.72087802391616,36.28905120570562 133.77912197602564,36.600737316366576 133.40781678140047,39.38901229827752 133.13843850290868,40.56831489592878 133.17484097302076,41.01476078923588 132.67248688614927,44.74628059120005 132.92002368255635,47.980690157237404 133.349572829291,51.375 133.77912197602564,51.28235318775114 133.0365115867462,44.78839610947034 134.82751311385073,32.43078557986155" stroke="#4DD2FF" stroke-linecap="round" stroke-linejoin="round" stroke-width="0.5"><title>2025-09-13 5.1km</title><desc>1757760467000</desc></polyline><polyline fill="none" points="157.0201302441419,31.125 156.9838033458218,32.71390890052862 156.5769420847646,35.49652769889508 156.41710373217938,35.832789494372264 156.23546924063703,37.841925249871565 155.76321956259198,40.607559537980705 155.80681184056448,40.943800566659775 155.29823526425753,44.54989971652685 155.3127660235623,45.482920766749885 155.9593848134973,51.375 156.38804221356986,51.31616533287888 156.09742702706717,48.105410100804875 155.69783114566235,45.74349233455723 155.66876962699462,44.78525736965821 156.83849575259956,36.32877314853977 157.01286486448953,35.84960254827456 156.95474182721227,35.6310325810482 157.20176473571337,33.907672233035555" stroke="#4DD2FF" stroke-linecap="round" stroke-linejoin="round" stroke-width="0.5"><title>2025-09-11 5.0km</title><desc>1757592265000</desc></polyline><polyline fill="none" points="178.34498562806402,51.29309911203018 178.50227276279475,51.2111981491762 178.52586583301309,50.61968897128099 178.70674603799125,50.49228648313874 178.8168470323144,49.846171074292215 179.06064209114993,47.543778263287095 179.5482322088792,44.80449072959891 179.61114706276567,42.91151217214065 178.7853896053275,36.33128013250098 178.33712127129547,35.48482513192721 178.41576483866083,35.33919765814062 178.8011183188064,35.36650282752089 178.62810247056768,33.64626088835212 178.24274899042211,33.14565517168376 178.29779948762734,32.23545578595076 177.88885293726344,31.125 178.2899351308588,32.11712918592093 178.25061334719067,33.19116489798762 178.62810247056768,33.60985329427058 178.79325396209606,35.39380798858474 178.4079004819505,35.33919765814062 178.33712127129547,35.45751999865024 178.60450940034934,35.81248608169699 178.82471138902474,36.48600760064437 179.16287872876273,40.10837425507634 179.61114706276567,43.03892544667178 179.5482322088792,44.91369980993477 178.60450940034934,51.320399416363216 178.43149355216883,51.375" stroke="#4DD2FF" stroke-linecap="round" stroke-linejoin="round" stroke-width="0.5"><title>2025-09-09 5.2km</title><desc>1757417515000</desc></polyline><polyline fill="none" points="21.958373797562672,55.29166666666424 21.900250819307985,55.93059666535555 22.067354381812038,55.97263136070251 21.965639169851784,57.00667814199551 21.580574438849,59.5707221338962 21.39167475947761,60.08352139818453 21.15191747416975,62.68109508296038 20.73052588175051,64.82466244849638 20.766852743166965,65.27018124589085 20.280072800203925,68.71656638539571 20.265542055654805,69.74204840821767 20.548891574697336,72.37294008406025 20.933956305671018,75.49123695455637 21.35534789809026,75.54166666666424 21.340817153512035,75.21387298901391 21.56604369429988,75.00374815410032 21.56604369429988,74.88607801360195 21.217305824684445,74.63392714941438 20.657872158888495,68.9351127997652 21.76220874596038,60.96620121366868 22.001966031297343,60.13396049842413 21.929312308464432,59.814512344339164 22.234457944345195,57.603561051684665" stroke="#4DD2FF" stroke-linecap="round" stroke-linejoin="round" stroke-width="0.5"><title>2025-09-07 5.0km</title><desc>1757247375000</desc></polyline><polyline fill="none" points="43.21637251848006,75.47715404763585 43.399558071861975,75.54166666666424 43.44734560747747,74.89653841164545 43.67831869650399,74.5463240086392 44.44291926699225,69.43119636570918 44.58628187398426,67.4772336124297 43.71814164286479,60.370721555555065 43.256195464899065,59.495042739785276 43.335841357620666,59.37521234912856 43.71814164286479,59.43973642531637 43.55088526807958,57.64226283595053 43.17654957211926,57.15371257179504 43.21637251848006,56.23191244932241 42.913718125986634,55.29166666666424 43.21637251848006,56.13973192146659 43.18451416140306,57.14449461696495 43.558849857363384,57.586955391045194 43.7420354107162,59.42130097965128 43.31991217911127,59.34755915954884 43.28008923269226,59.47660730538337 43.57477903587278,59.91905669635162 43.7659291785385,60.591944339030306 44.05265439246432,63.716658491801354 44.578317284729565,67.29289533014526 44.578317284729565,68.38970259117923 44.02876062467112,72.31597950110881 43.63053116085939,74.8228091760102 43.44734560747747,75.08086123846442" stroke="#4DD2FF" stroke-linecap="round" stroke-linejoin="round" stroke-width="0.5"><title>2025-09-04 5.0km</title><desc>1756985562000</desc></polyline><polyline fill="none" points="66.84849425515858,55.34234004513564 66.9360787802434,55.29166666666424 66.98716975326533,55.40990450168465 66.9579749115801,55.91663617525046 67.03826072625816,55.91663617525046 66.97987104285858,56.82874540265766 66.5857406797295,59.396110233043146 66.32298710430041,60.426411981090496 66.35948065642151,60.83177310294559 65.73179155957769,64.69949440678465 65.768285111757,65.05416726664407 65.27197280258406,68.55014736134763 65.31576506517013,70.26430612015247 65.9142593202996,75.53322315725381 66.25729871043586,75.54166666666424 66.33028581470717,75.44034449707397 65.98724642460002,72.45128496325196 66.07483094974305,72.25707681365748 65.8412722160283,71.15937005072192 65.62960961359204,68.84569449588889 66.03103868715698,65.69595240539638 66.24270128959324,64.89372020792507 66.63683165272232,61.38914141810528 66.85579296553624,60.113944767275825 66.97987104285858,59.94504308158503 66.90688393855817,59.71702526156878 67.22802719741594,57.32702306796273" stroke="#4DD2FF" stroke-linecap="round" stroke-linejoin="round" stroke-width="0.5"><title>2025-09-02 5.1km</title><desc>1756811867000</desc></polyline><polyline fill="none" points="89.3378187759372,55.29166666666424 89.30842783715343,56.77955383502558 88.91899789805757,59.49169152318791 88.67652265296783,60.418389268772444 88.68387038767105,61.14103635301581 88.08870387700154,64.76267950912734 87.62579659093171,68.85171735571203 87.65518752968637,70.09284109689906 88.23565857100766,74.84464479734015 88.80878187753842,75.54166666666424 88.67652265296783,75.4736647884929 88.573654367181,74.66613826342655 88.35322232617182,72.55803231524624 88.41200420376845,72.3455186899082 88.02257426470169,69.8548187917404 88.00787879529526,68.65619618459459 89.19086408196017,60.290862664995075 89.35251424537273,59.950790771486936 89.44068706175312,58.47996391857305 89.87420340903918,56.13338894332992" stroke="#4DD2FF" stroke-linecap="round" stroke-linejoin="round" stroke-width="0.5"><title>2025-08-31 5.1km</title><desc>1756640573000</desc></polyline><polyline fill="none" points="111.90160368470242,55.29166666666424 111.96712807755102,56.92600150965882 111.51573781555635,59.74810181395151 111.36284756549867,60.0008225285419 111.2900426845008,60.506261647096835 111.2245182916522,61.7951174552436 110.81681095820386,64.5833578842794 110.70760363675072,64.76867567809677 110.75128656532615,65.17300397271174 110.25621337475604,68.64340743634966 110.28533532712026,70.07532771444676 110.8604938868084,75.07000909079943 111.41381098216516,75.54166666666424 111.29732317262096,75.35637293877517 111.01338413686608,72.13051126855134 110.65664022008423,69.98267479737842 110.65664022008423,68.39071305656398 111.21723780356115,64.98768708235002 111.63222562510055,61.43289202971209 111.96712807755102,60.04294257274887 111.91616466088453,59.72282970014203 112.24378662521485,57.27982233653165" stroke="#4DD2FF" stroke-linecap="round" stroke-linejoin="round" stroke-width="0.5"><title>2025-08-30 5.0km</title><desc>1756550382000</desc></polyline><polyline fill="none" points="133.34068585943896,75.53255838355108 133.61618576172623,75.54166666666424 134.49778544920264,69.41158282704419 134.62372826164938,67.36205562591203 134.10421416015015,63.700116996675206 133.88381423827377,60.930790391947085 133.7500000000291,60.32043387203157 133.34855728517869,59.691853408330644 133.40365726567688,59.54609498975333 133.81297140626702,59.60986432705249 133.61618576172623,57.76053511592181 133.25410017580725,57.38702064138488 133.27771445317194,56.28468835580861 132.87627173835062,55.29166666666424 133.28558587896987,56.3302395453793 133.2383573242696,57.34146998915821 133.61618576172623,57.7878653821972 133.79722855470027,59.59164452103141 133.40365726567688,59.55520489785704 133.34855728517869,59.67363361897878 133.67915716799325,60.192896163556725 133.8916856640717,61.067436804391036 134.1199570117169,63.93696332514082 134.62372826164938,67.23452793990145 134.52927115233615,69.16564203775488 133.72638572266442,74.6763756391083" stroke="#4DD2FF" stroke-linecap="round" stroke-linejoin="round" stroke-width="0.5"><title>2025-08-28 5.0km</title><desc>1756381580000</desc></polyline><polyline fill="none" points="156.93515557117644,55.29166666666424 157.10191301180748,56.15579045438062 157.07291171781253,56.944400387161295 156.62339166051243,59.76319984791189 156.46388454339467,60.05681925812678 156.4421335728548,60.979616322161746 155.8041051044711,64.73781057934684 155.85485736903502,65.2159614245611 155.36908569416846,68.37839819553483 155.33283407666022,69.66179290353466 155.44883925272734,69.79600296322315 155.4053373116767,70.3412290884662 155.95636189804645,75.09712592683354 156.5653890724352,75.54166666666424 156.3696303378092,75.36552816905169 155.69535025188816,69.81277920534922 155.6663489578932,68.73070461072348 156.16662127969903,65.19918424878415 156.28987677930854,65.02302369734389 156.40588195534656,63.546615733714134 156.91340460069478,60.64405494652601 156.87715298315743,60.24976858780428 157.0149091297062,60.06520836878917 156.9569065416872,59.8135346781055 157.16716592333978,58.37059071227122" stroke="#4DD2FF" stroke-linecap="round" stroke-linejoin="round" stroke-width="0.5"><title>2025-08-26 5.0km</title><desc>1756206850000</desc></polyline><polyline fill="none" points="179.38704296731157,55.29166666666424 179.40160394940176,55.98247192263807 179.518091806327,56.00774517652462 179.45256738681928,56.86703122474137 179.04485988774104,59.66386140391114 178.90653055769508,59.975550491049944 178.73907926341053,61.870931878103875 178.2367253806442,64.72655803304224 178.1566399790463,66.04904184800398 177.7853349352372,68.53390663204482 177.8508593547449,70.41224653981044 178.4114571659593,75.423752524046 178.43329863913823,75.54166666666424 178.87012810242595,75.49113205462345 178.5570669870649,72.22316178620531 178.1712009611656,69.99952078920614 178.13479850586737,68.87083171908307 178.60074993339367,65.42570815486397 178.76820122767822,64.9455695485376 179.3287990388635,60.35463023427292 179.49625033311895,60.01767054807715 179.4380064047,59.74810181327484 179.7146650647628,57.65049015438126" stroke="#4DD2FF" stroke-linecap="round" stroke-linejoin="round" stroke-width="0.5"><title>2025-08-24 5.0km</title><desc>1756042259000</desc></polyline><polyline fill="none" points="20.99184401956154,99.70833333333576 21.21773050245247,99.3816052858092 22.00026581811835,94.05110643247463 22.145478557125898,91.70782954551396 21.71790771454107,89.00971955758723 21.290336871956242,84.89238163970731 20.82242915747338,83.94004590071563 20.935372398904292,83.80933238131547 21.282269497576635,83.84667912013538 21.104787261021556,82.01667105397064 20.717553290363867,81.57783716721315 20.78209228545893,80.63480405853625 20.346454068494495,79.45833333333576 20.75789016232011,80.45740070806642 20.73368803912308,81.58717408023949 21.120922009809874,82.04468165637081 21.30647162074456,83.85601580244838 21.209663128101965,83.94938257354079 20.870833403721917,83.82800575262081 20.870833403721917,83.9587192454128 21.18546100493404,84.52825443518668 21.362943241460016,85.21916123484698 21.572694975562626,87.75866588260396 22.153545931505505,91.80118833390588 22.024467941286275,93.92974296208558 21.13705675859819,99.63365273921954" stroke="#4DD2FF" stroke-linecap="round" stroke-linejoin="round" stroke-width="0.5"><title>2025-08-23 5.0km</title><desc>1755956696000</desc></polyline><polyline fill="none" points="44.4649038228672,79.45833333333576 44.47223616973497,80.01830717311532 44.56755667948164,80.12012019508256 44.53089494499727,80.96855721697648 44.090954130893806,83.70046586040553 43.92964249904617,84.0483111678841 43.55569280710188,87.53516822186066 43.36505178769585,88.68893801564263 43.24040189033258,88.80770753080287 43.29906066559488,89.22339950406604 42.771131688699825,93.21902704547392 43.44570760359056,99.57261444059986 43.46770464431029,99.67440363080823 43.8636513769743,99.70833333333576 43.13774903371814,93.04936521779746 44.23026872202172,85.10880621206888 44.36958331314963,84.2434432669761 44.50156555735157,84.08224721784063 44.44290678217658,83.7598541861953 44.728868311300175,81.55397373587766" stroke="#4DD2FF" stroke-linecap="round" stroke-linejoin="round" stroke-width="0.5"><title>2025-08-21 5.0km</title><desc>1755781186000</desc></polyline><polyline fill="none" points="66.81447306307382,79.45833333333576 66.83632363329525,81.02592555844603 66.39931222959422,83.84077487132163 66.24635823830613,84.1357385817173 66.18080652775825,84.63296074802929 66.26092528508161,84.87735699157201 65.58355760941049,88.87186940470565 65.62725874979515,89.29322026039154 65.14654620570946,92.7482165717156 65.17568029928952,94.20601332388469 65.78749626444187,99.70833333333576 66.20994062133832,99.63249985517905 65.91859968553763,96.43900493557157 65.53985646902584,94.16388082916092 65.51800589883351,92.55440351409197 65.99143491950235,89.33535522827151 66.11525481721037,89.14996120954311 66.61781793145929,84.96163139137934 66.85817420348758,84.15259361920471 66.86545772687532,83.22556147172872 67.35345379431965,80.12414225262182" stroke="#4DD2FF" stroke-linecap="round" stroke-linejoin="round" stroke-width="0.5"><title>2025-08-19 5.3km</title><desc>1755607955000</desc></polyline><polyline fill="none" points="88.53058697926463,99.60859090302256 88.88321504832129,99.70833333333576 88.88321504832129,99.03733665461186 89.01643009661348,98.73810677925212 89.18098986218683,96.67067295093875 89.65899680019356,93.54222804412711 89.61197972431546,91.49281046255783 89.07911953111761,88.05584963107685 88.83619797247229,85.22637879832473 88.68731056549586,84.48272092785191 88.30333777927444,83.83881703135557 88.38953575165942,83.68464216916618 88.76567235865514,83.76626418823435 88.60111259308178,82.07032466597593 88.1936312688922,81.517096776377 88.22497598614427,80.44690849535982 87.84100319983554,79.45833333333576 88.25632070339634,80.49225571697025 88.20930362748913,81.508027438118 88.57760405514273,81.90707744893007 88.76567235865514,83.7571950786878 88.37386339306249,83.70278040208359 88.33468249649741,83.82067882610863 88.78918089659419,84.86361963608215 89.0242662759265,87.5933461122404 89.60414354500244,91.60163027876115 89.59630736568943,92.53566157512978 89.01643009661348,96.55279150843126 88.8440341517271,96.63440175443975 88.73432764137397,96.90643536871357 88.53058697926463,98.23938809048559" stroke="#4DD2FF" stroke-linecap="round" stroke-linejoin="round" stroke-width="0.5"><title>2025-08-17 5.0km</title><desc>1755429603000</desc></polyline><polyline fill="none" points="110.95875721646007,99.6627919085513 110.85642867092974,99.70833333333576 110.97450006962754,99.58992558075988 111.108314321551,97.5860783536773 111.21851429366507,96.88472124037798 111.58059991640039,96.5841379403355 111.57272848978755,95.89188165750966 112.0607569378044,93.14102095706039 112.131599777058,91.90219518590311 111.27361427969299,84.71484599495307 110.82494296459481,83.8403002854975 110.91152865701588,83.74009137779649 111.28935713288956,83.76742109101906 111.12405717468937,82.00008247398364 110.74622869878658,81.52635691941396 110.76984297856688,80.49690621200716 110.368400222942,79.45833333333576 110.79345725831809,80.51512668136274 110.73835727220285,81.48080625330476 111.11618574807653,81.92720178250602 111.30509998605703,83.75831118753558 110.90365723043215,83.7127616562575 110.84855724434601,83.84941018062818 111.3208428391954,84.8241636083767 112.131599777058,91.47406759199657 112.12372835044516,92.55804625681048 111.59634276953875,96.4384002198567 111.2027714404976,98.95234268593049 111.0374714822974,99.07985962773091 110.98237149624038,99.46240936461254" stroke="#4DD2FF" stroke-linecap="round" stroke-linejoin="round" stroke-width="0.5"><title>2025-08-16 5.1km</title><desc>1755350047000</desc></polyline><polyline fill="none" points="133.6318754698732,99.653659023199 133.34837659751065,99.70833333333576 133.4822510649974,99.57164749551885 133.8602495615196,96.74676020057814 134.07287371577695,96.63740793552279 134.02562390369712,96.33668851904804 134.5926216484513,92.99225611910515 134.63199649186572,91.5432671094386 133.78149987471988,84.73543920517841 133.35625156617607,83.87872811762645 133.4428762216121,83.71467612416745 133.7893748434144,83.76936015534739 133.61612553251325,81.97388369544205 133.24600200468558,81.55463020502066 133.30112678543082,80.65231712734385 132.86012853949796,79.45833333333576 133.26962691074004,80.41534450981271 133.26175194204552,81.50905905527179 133.61612553251325,81.93742694805405 133.8208747181052,83.76024615245842 133.4113763468922,83.72379013168393 133.3720015035069,83.85138613957679 133.7106251566147,84.39822411601926 133.85237459282507,84.94505875629693 134.10437359049683,87.87056741667038 134.60049661714584,91.16962463602977 134.63987146053114,92.49103615496279 134.04137384105707,96.32757579369354 134.0886236531369,96.60095715088391 133.83662465549423,98.00430166377191 133.6318754698732,98.46904078497028" stroke="#4DD2FF" stroke-linecap="round" stroke-linejoin="round" stroke-width="0.5"><title>2025-08-14 4.9km</title><desc>1755170321000</desc></polyline><polyline fill="none" points="157.07716790036648,79.4752739081232 156.9014862223994,79.45833333333576 156.9527267118101,80.99144141133002 156.52816265673027,83.87123671678273 156.37444118855637,84.17615039582597 156.37444118855637,84.97230863373989 155.9425570635649,88.012885561453 155.8034757352143,88.84288451120665 155.69367468648124,88.91063916280109 155.75955531571526,89.33410448784707 155.2544704915781,92.81490797465085 155.29839091107715,94.29695781810005 155.91327678391826,99.64058745309012 156.33052076905733,99.70833333333576 155.61315391742392,93.00122425946756 156.80632531348965,84.54882115576766 156.97468692154507,84.20155981872085 156.9014862223994,83.90511606953805 157.2455295083928,81.4996478115354" stroke="#4DD2FF" stroke-linecap="round" stroke-linejoin="round" stroke-width="0.5"><title>2025-08-12 5.0km</title><desc>1754999139000</desc></polyline><polyline fill="none" points="179.2960307870817,79.52618073002668 179.3913113271119,79.45833333333576 179.39864059945103,80.89159786521486 178.9442257162009,83.80893603011646 178.79031099771964,84.09727205635863 178.6363962792093,86.05623457207548 178.1526643067482,88.89707257127884 177.66160306197708,92.99279721821222 177.70557869583718,94.24776166262018 178.21862775753834,98.49584592646715 178.75366463616956,99.70833333333576 178.03539594978793,93.04367452194856 179.1201282516704,85.21668483706162 179.3839820548019,84.13119387629558 179.31801860401174,83.89374084709561 179.62584804103244,81.60398054704274 179.83839693805203,80.73894364236912" stroke="#4DD2FF" stroke-linecap="round" stroke-linejoin="round" stroke-width="0.5"><title>2025-08-10 5.0km</title><desc>1754830447000</desc></polyline><polyline fill="none" points="20.962045331514673,123.875 22.058639822585974,117.3476582725416 22.129642343585147,115.81389237441908 21.54584383754991,111.76937217336672 21.26972292253049,108.82031823752914 20.8279294584936,108.03510488766915 20.8910428105155,107.8707570384795 21.293390429520514,107.95293100068375 21.11982871152577,106.14508646004106 20.741148599481676,105.69768497010955 20.7648161064717,104.67504462136276 20.36246848743758,103.625 20.780594444513554,104.71156769151276 20.74903776848805,105.70681563505786 21.11982871152577,106.15421707947098 21.30916876750416,107.92553968831635 20.906821148499148,107.90727880874329 20.859486134489998,108.0077136003747 21.30916876750416,108.97553401718324 21.672070541535504,112.56368283891061 22.098085667559644,115.17481551993114 22.13753151256242,116.6264263803896 21.22238790852134,123.10817604813928 20.969934500491945,123.37291362843098" stroke="#4DD2FF" stroke-linecap="round" stroke-linejoin="round" stroke-width="0.5"><title>2025-08-09 5.0km</title><desc>1754735080000</desc></polyline><polyline fill="none" points="44.358074624295114,103.625 44.4020318260591,105.04918742838345 44.11631001465139,107.28714712840883 43.75,108.82994802819303 43.669411796785425,110.22861649918923 43.17855637715547,113.09369447517383 43.20786117835087,113.53446697207255 42.70967955846572,116.89104270260577 42.695027157868026,118.04377494568325 43.32508038304513,123.4003806296605 43.81593580261688,123.875 43.0979681739409,118.34890728651953 43.13459917542059,116.54352471210586 44.18224581726827,109.33855745742767 44.314117422531126,108.51630400151043 44.43866282750969,108.3552430972486 44.38005322517711,108.00768956038519 44.80497284216108,105.13395972298167" stroke="#4DD2FF" stroke-linecap="round" stroke-linejoin="round" stroke-width="0.5"><title>2025-08-07 5.0km</title><desc>1754570205000</desc></polyline><polyline fill="none" points="66.6009499275824,103.625 66.64623378921533,104.20139195431693 66.79717999463901,104.26252420761011 66.74434882277274,104.67298249636224 67.15190357741085,104.73411441423377 67.19718743901467,105.10963809853274 66.7820853741141,107.18808835509844 66.66132840976934,108.29715679342917 66.74434882277274,108.59407032508898 66.61604454813641,108.71632854002382 66.37453061947599,110.13975067385763 65.31035987118958,117.87646739178308 65.96697586483788,123.875 65.30281256095623,117.7367585894317 65.77074579778127,114.20030393260095 65.94433393402142,113.72003343998949 66.35943599892198,110.13975067385763 66.5707606865326,108.82112115729251 66.70661227140226,108.58533758878184 66.65378109950689,108.24476018140558 67.06888316440745,105.18823587136285" stroke="#4DD2FF" stroke-linecap="round" stroke-linejoin="round" stroke-width="0.5"><title>2025-08-05 5.0km</title><desc>1754406000000</desc></polyline><polyline fill="none" points="88.44336346868658,123.875 88.79380521870917,120.97188671442564 89.0088490198832,120.80599171976792 89.34336159945815,118.55716296354512 89.59026374149835,116.75068635734351 89.60619291197509,115.62622866457968 89.02477819033084,111.63521296084218 88.80176980397664,108.98058328476327 88.60265517322114,108.28926071561727 88.30000093459967,107.85602921845566 88.37168220162857,107.71776341115765 88.7619468778139,107.75463431374374 88.57876141756424,105.93872454357188 88.20442591185565,105.5423536147864 88.23628425280913,104.41775689327187 87.89380708799581,103.625 88.24424883798929,104.53759163432551 88.20442591185565,105.45017408059357 88.59469058804098,105.92950663466763 88.76991146302316,107.7454165895033 88.66637185509899,107.83759378964896 88.28407176418114,107.76385203702375 88.79380521870917,108.84231919270678 89.12035321304575,112.33572727406863 89.60619291197509,115.65387943080714 89.59822832673672,116.79677039155649 88.66637185509899,123.17457482402824 88.61858434372698,123.33124934621446 88.41150512779132,123.34046548612969 88.33185927549493,123.69067810969864 88.10885088911164,123.67224590006663" stroke="#4DD2FF" stroke-linecap="round" stroke-linejoin="round" stroke-width="0.5"><title>2025-08-03 5.0km</title><desc>1754221111000</desc></polyline><polyline fill="none" points="121.375,112.65439908297776 121.31274019983539,112.91255153872044 121.15190238278592,112.9275603330334 117.99221752496669,112.86452334566638 117.90661029977491,112.81049153515414 117.78209069946024,112.86152158100413 117.37999615680019,112.85851981604355 117.34627209836617,112.82550038131922 116.6276902382815,112.8675251100176 116.27488470406388,112.81349330499688 115.13604919292266,112.81049153515414 114.6431591083674,112.73244541216627 114.30851268253173,112.64539372403124 114.28775941581989,112.61237405109387 113.82340507300978,112.59736509664071 112.80390084549435,112.41725704845157 111.3044773251313,112.40524980619193 108.17592236740165,112.79548268136205 107.75307455802977,112.99059718589888 107.2990968485683,113.12867744119649 106.07984242889506,113.8700973412233 105.43389700229454,114.19727672427507 105.03699077632336,114.31133840978873 104.80351652574609,114.31434002714195 104.50778247501876,114.2423011264309 104.19388931589492,114.37137069898199 104.0875288239622,114.16125715317139 103.9604150653322,114.24530275079815 103.85664873174392,114.05019653247291 102.09002690236957,115.09475019380807 101.95513066870626,114.75557446153834 101.41035741736414,113.714010487427 101.35847425056272,113.67799032713447 101.125,113.79205401740182 101.27805534203071,113.67498864513436 101.3532859338884,113.66598359728596 101.37663335894467,113.59094142514004 101.47002305918431,113.59694480592407 101.59454265949898,113.512897363913 101.63086087624833,113.55492111480999 101.72425057647342,113.49488716666565 101.6931206763984,113.55191942029705" stroke="#4DD2FF" stroke-linecap="round" stroke-linejoin="round" stroke-width="0.5"><title>2025-08-02 8.3km</title><desc>1754134728000</desc></polyline><polyline fill="none" points="134.29127072985284,103.625 134.18229004601017,103.65022101454815 134.1169016356871,104.33118550072686 134.66180505498778,104.33118550072686 134.66180505498778,104.87763443012955 132.8454603239661,116.89859801491548 132.8527257028618,118.16784260925488 133.60832511098124,123.875 132.88905259751482,118.32754750423919 132.83819494501222,117.09192791819805 133.91347102579311,109.40881805781828 134.18229004601017,108.36641559893178 134.10963625676231,108.1310325812301 134.451109066169,105.65106366897817" stroke="#4DD2FF" stroke-linecap="round" stroke-linejoin="round" stroke-width="0.5"><title>2025-07-31 5.0km</title><desc>1753965181000</desc></polyline><polyline fill="none" points="155.84906562248943,123.875 155.93639786314452,123.14005211703625 156.15869811206358,122.87363203401037 156.96850616164738,117.29700387296907 157.05583840227337,115.23898499109782 156.64299508286058,112.73989906287898 156.20633387970156,108.61441852159624 155.7855512656679,107.8058390143342 155.87288350632298,107.68638915557676 156.22221246888512,107.73233142762183 156.0713658714085,105.90381096399506 155.66646184661658,105.46275526282261 155.71409761425457,104.44280570784758 155.39652583008865,103.625 155.72203690884635,104.46118327917793 155.69027973039192,105.48113262667903 156.0713658714085,105.95894277524349 156.25396964728134,107.7139545216196 156.1507588174427,107.8058390143342 155.83318703327677,107.67720069834468 155.80142985488055,107.81502745848411 156.27778753111488,108.87169230205473 156.5556628422346,111.95892053865828 157.10347416991135,115.90049617050681 156.53184495840105,120.65955890105397 156.1110623444256,123.29622904204734 155.96021574694896,123.36053710925626" stroke="#4DD2FF" stroke-linecap="round" stroke-linejoin="round" stroke-width="0.5"><title>2025-07-29 5.0km</title><desc>1753797916000</desc></polyline><polyline fill="none" points="179.61854557064362,103.625 179.60394816609914,105.17052414581121 179.26820786148892,107.5352049226858 179.00545457960106,108.32060187045136 178.83028572503827,110.48251643420372 178.3412726726383,113.06660617562011 178.3996622908453,113.52261367518076 177.91794794073212,116.72304038426228 177.94714274985017,118.42031432606018 178.54563633631915,123.875 177.9836362611968,119.13805656584736 177.88145442938549,117.33946726474096 178.3485713749542,113.20171976953861 178.99815587734338,109.07221135589498 178.9324675568496,108.86108578227868 179.24631175468676,107.57743075377948 179.60394816609914,104.72291628389212" stroke="#4DD2FF" stroke-linecap="round" stroke-linejoin="round" stroke-width="0.5"><title>2025-07-27 5.0km</title><desc>1753616848000</desc></polyline><polyline fill="none" points="21.828379914717516,127.79166666666424 21.84993444569409,129.5708083189893 21.454768044350203,132.38077568043082 21.296701483777724,132.6800564590376 21.073971330275526,135.1241418504069 20.67162008525338,137.35202004337043 20.70035945987911,137.77597506999882 20.175865872646682,141.23403602620965 20.829686645796755,148.04166666666424 21.260777265473735,147.97517240162415 20.95182898803614,144.642078169265 20.5997716486454,142.3063377543658 20.585401961317984,141.05947395032126 21.57691038653138,134.06837242241454 21.907413195003755,132.6717431188663 21.835564758395776,132.34752219300572 22.324134127353318,129.38790769022307" stroke="#4DD2FF" stroke-linecap="round" stroke-linejoin="round" stroke-width="0.5"><title>2025-07-26 5.2km</title><desc>1753529066000</desc></polyline><polyline fill="none" points="44.4489272122737,127.79166666666424 44.361561310710385,128.22973896010808 44.47804917942267,128.7941748487574 44.339719835319556,130.12521740114607 44.03393917999347,132.19755757776875 43.873768360499525,132.49239851625316 43.851926885108696,133.37691504170652 43.2039631154621,137.26025214976835 43.254926557972794,137.6308865327519 42.77441409957828,141.1602536998398 42.839938525721664,143.0385907466698 43.415097377466736,148.04166666666424 43.83008540974697,147.9995544921112 43.50246327900095,144.94215350862942 43.57526819696068,144.78212115284987 43.160280164680444,142.40686778723466 43.1529996728641,141.2781774563482 44.72558590042172,130.26842956711334" stroke="#4DD2FF" stroke-linecap="round" stroke-linejoin="round" stroke-width="0.5"><title>2025-07-24 5.0km</title><desc>1753356656000</desc></polyline><polyline fill="none" points="65.89482724491972,148.0051349163623 65.99743270751787,148.04166666666424 66.34471273468807,145.15561264267308 66.57360184349818,145.00948085990967 66.51835274827317,144.72634985460172 67.11030734004453,141.0638329006033 67.1497709795076,139.95865507539565 66.55781638770713,136.0584561026044 66.31314182313508,133.17201716911222 65.83957814972382,132.1763569108225 65.91061270073988,132.0302040174647 66.29735636734404,132.10328049385862 66.09214544217684,130.26721600757446 65.75275814288761,129.90182556280342 65.78432905446971,128.91526393766253 65.3502290204924,127.79166666666424 65.74486541500664,128.69602654946357 65.73697268712567,129.86528643659403 66.10003817008692,130.24894652063085 66.30524909525411,132.0484731421384 66.20264363265596,132.1489532614214 65.92639815647271,132.0393385802745 65.83957814972382,132.1489532614214 66.11582362584886,132.54173810387147 66.31314182313508,133.19942050643294 66.66831457818625,136.8348558115904 67.12609279580647,139.80338106879208 67.1182000679546,141.01816466465243 66.25789272788097,147.00050596432266" stroke="#4DD2FF" stroke-linecap="round" stroke-linejoin="round" stroke-width="0.5"><title>2025-07-22 5.0km</title><desc>1753184035000</desc></polyline><polyline fill="none" points="78.625,141.25647616150673 78.625,138.00704330814187 80.77792758098803,128.90847321634647 98.18855932215229,132.08577813737793 98.875,132.84399443047005 96.53486132528633,146.88875604674104 80.90273497696035,144.43367066278006 80.34110169508494,143.71158349802135 82.2756163328886,129.66669629013631 82.96205701073632,129.233426160441 87.111902927747,129.9194369551842 98.84379815112334,132.51904478878714 96.78447611723095,146.5999233525945 96.12923728814349,146.92486011693836 80.59071648691315,144.28925334723317 80.77792758098803,139.6678682571801 82.3068181819981,129.73890792712336 82.80604776588734,129.30563788540894 90.48170261958148,130.6054464254412 82.65003852092195,129.37784959573764 81.77638674899936,133.34947106035543 82.55643297394272,134.1076846566575" stroke="#4DD2FF" stroke-linecap="round" stroke-linejoin="round" stroke-width="0.5"><title>2025-07-20 4.9km</title><desc>1753020627000</desc></polyline><polyline fill="none" points="112.41391049377853,127.79166666666424 112.26114724148647,128.82701114592783 111.69374087575125,130.28320546656323 111.21362779705669,132.47165746332757 111.08268786646659,134.1971269357091 110.63167255013832,137.08405160296388 110.52983038194361,137.17663352842646 110.58075146607007,137.58904266688478 110.10791282792343,140.9976518606927 110.08608950619237,142.1254077409758 110.73351471836213,148.03325123551622 110.66077031250461,146.87191354234528 110.74078915896825,148.04166666666424 111.15543227238231,147.95751231667964 110.45708597608609,141.3679614538123 111.57007538579637,133.23760200568358 111.80285748452297,132.5053255040766 111.83195524686016,131.5205296593922" stroke="#4DD2FF" stroke-linecap="round" stroke-linejoin="round" stroke-width="0.5"><title>2025-07-20 5.0km</title><desc>1752942252000</desc></polyline><polyline fill="none" points="134.62316423584707,127.8007280973834 134.49786712578498,127.79166666666424 134.30209039128385,128.78841852609185 134.52136033395072,128.9243383710491 134.50569819516386,129.21430001468252 134.23161076687393,131.06278333230148 134.0828204486461,131.3799212277372 133.69909804902272,134.9952135398853 133.3780242044304,136.47209531144472 133.40934848197503,136.90700062071846 132.85334255595808,141.06567557332164 133.60512521641795,148.04166666666424 132.90816004161024,142.22535864200472 132.89249790285248,140.4677081011323 133.40934848197503,136.96136363530968 133.38585527378018,136.48115586033964 133.9575233385549,133.03808100576862 134.0749893792381,131.37086016066314 134.23161076687393,131.0446611327934 134.64665744401282,128.08163199292903" stroke="#4DD2FF" stroke-linecap="round" stroke-linejoin="round" stroke-width="0.5"><title>2025-07-17 5.0km</title><desc>1752765839000</desc></polyline><polyline fill="none" points="164.93834459467325,147.61435819469625 165.3944256757386,146.98106244395603 166.375,138.72168893984053 151.71199324319605,138.0619832407101 149.06672297301702,138.27308924682438 149.38597972970456,138.0619832407101 148.90709459455684,135.08009257071535 146.1934121621307,130.80510992283234 146.125,128.40369990613544 146.44425675668754,128.2189751386759 159.19172297301702,128.43008914784878 158.27956081088632,136.74256681418046 157.70945945940912,137.11200408940203 149.75084459455684,136.84812037504162 148.88429054047447,134.07732518194825 146.64949324319605,131.22733356393292 146.37584459455684,129.72315870851162 149.54560810804833,129.48565661895555 158.78125,129.80232602346223 158.9180743242614,131.78150105086388 158.09712837846018,138.22031276140478 156.86570945940912,138.2994774855033" stroke="#4DD2FF" stroke-linecap="round" stroke-linejoin="round" stroke-width="0.5"><title>2025-07-15 4.1km</title><desc>1752589649000</desc></polyline><polyline fill="none" points="179.56378772997414,127.79166666666424 179.62549675215269,129.2286869694144 179.14725183026167,132.22761014352 178.97755201926338,132.5756928097544 178.9698383914947,133.45928107652435 178.29103914753068,137.60042483868165 178.3218936586345,138.064506374365 177.80508059787098,141.9109339927454 178.42217081965646,148.04166666666424 178.06734394212253,145.61441170984472 177.7973669701023,141.71460069753812 178.95441113595734,133.39680543043505 178.88498848601012,133.11120191102964 179.11639731915784,132.29008662106207 179.57150135777192,129.3179421134264 179.51750596333295,129.005548712601 179.7026330298977,128.0594362070624 179.53293321892852,127.84522064004705" stroke="#4DD2FF" stroke-linecap="round" stroke-linejoin="round" stroke-width="0.5"><title>2025-07-13 5.0km</title><desc>1752418082000</desc></polyline><polyline fill="none" points="21.074138684780337,172.20833333333576 20.970220634917496,172.19908356248925 21.034170204075053,171.4683486971262 21.385892834485276,169.24835869404342 21.593728934269166,169.06335708308325 21.953445260820445,166.54729784084338 22.145293968264014,163.9479135890142 21.617710022692336,160.3308532453011 21.34592435375089,157.3057332920216 21.186050430842442,156.7136491162455 20.850315192714334,156.17706950378488 20.92225845804205,156.03829839933314 21.3059558730165,156.0938068665273 21.138088253967,154.33602229462122 20.754390838963445,153.854938492339 20.778371927444823,152.75398714138282 20.506586258503376,151.99534064147883 20.33871863942477,151.99534064147883 20.482605170021998,151.95833333333576 20.754390838963445,152.63371433779685 20.74639714282239,153.8641901279334 21.09811977323261,154.18799678026699 21.138088253967,154.3730286355858 21.3059558730165,156.06605263715755 20.914264761900995,156.04754981287988 20.826334104291163,156.14931529985915 21.178056734701386,156.6581410272338 21.33793065760983,157.2224716876226 21.66567219956778,160.82115373582928 22.16128136057523,163.8831592968636 22.153287664434174,165.067230500179 21.178056734701386,171.7273440040808" stroke="#4DD2FF" stroke-linecap="round" stroke-linejoin="round" stroke-width="0.5"><title>2025-07-12 5.1km</title><desc>1752325602000</desc></polyline><polyline fill="none" points="43.62799282599008,172.20833333333576 43.431207061425084,172.19922505023715 43.87200717403903,169.16611530337104 44.053050077433,169.07502933913202 44.55682163464371,165.69567463974818 44.63553594046971,163.9922858280479 44.17112153614289,160.9406794554161 43.816907159925904,157.23306560555648 43.344621324999025,156.27653099280724 43.407592769654,156.1763220138091 43.80116429878399,156.2400913770398 43.620121395390015,154.3907614140262 43.26590701920213,153.99902652210585 43.250164158060215,152.769150032349 42.85659262895933,151.95833333333576 43.27377844977309,152.86936282261013 43.26590701920213,153.98991638797452 43.62799282599008,154.39987150741945 43.824778590525966,156.21276165548625 43.446949922567,156.16721210106334 43.36036418622825,156.31297059372446 43.832650021096924,157.30594401451526 44.17899296671385,160.92246059783065 44.64340737101156,163.9285219818048 44.56469306524377,165.65012990566174 43.809035729354946,170.67812878763652" stroke="#4DD2FF" stroke-linecap="round" stroke-linejoin="round" stroke-width="0.5"><title>2025-07-10 5.0km</title><desc>1752149320000</desc></polyline><polyline fill="none" points="63.4101617091801,151.95833333332848 63.457591158745345,153.22061719134217 63.80145466781687,153.04225170990685 64.53661113564158,153.28921923683083 65.33105441526277,153.22061719134217 66.22035659401445,153.54990669188555 70.80915583629394,154.15360202401644 70.93958682246739,154.3319660374691 69.88428157038288,161.06846514584322 69.37441498792032,161.10962398539414 69.27955608884804,161.2879788117134 69.10169565310935,162.48157812526915 69.2321266392828,163.00291704428673 68.42582599725574,167.5439683139848 62.52085953048663,167.3656217486423 62.31928436993621,167.22843192279106 61.5604131774744,172.20833333332848 62.35485645709559,167.31074583501322 64.65518475940917,167.35190277229412 65.42591331433505,167.05008494082722 65.53262957575498,167.3656217486423 68.46139808441512,167.4616545438912 70.50086441432359,154.68869335757336 70.44157760241069,154.22220359556377 64.33503597509116,153.15201511095802" stroke="#4DD2FF" stroke-linecap="round" stroke-linejoin="round" stroke-width="0.5"><title>2025-07-08 5.1km</title><desc>1751976330000</desc></polyline><polyline fill="none" points="78.80536321137333,172.0239488536754 78.76190522109391,172.20833333332848 79.0371391599183,172.0909977791889 79.12405514053535,171.15231034158205 79.63106502784649,170.73325172513432 79.73246700526215,170.29742963473836 81.19555267988471,160.15585967614606 81.32592665083939,157.08812145628326 80.97826272825478,154.8249993075733 81.7749925510725,154.7914713385544 81.97779650596203,155.09322281416098 84.77359388425248,155.4955572560284 87.01892338495236,155.46202942339005 88.65584102092544,156.11582093096513 93.87079986114986,156.88695630065922 94.8268756486359,151.95833333332848 98.73809477884788,152.83007328840904 95.24696955515537,152.0086261483375 94.59509970014915,154.90881920022366 94.49369772261707,156.92048384365626 84.73013589391485,155.61290461673343 81.97779650596203,155.10998676884628 81.73153456073487,154.7411793722422 80.93480473791715,154.87529124827415 81.25349666702095,156.21640400974138 81.3114406541572,159.11652306416363 79.67452301812591,170.3477168578247" stroke="#4DD2FF" stroke-linecap="round" stroke-linejoin="round" stroke-width="0.5"><title>2025-07-06 5.0km</title><desc>1751807521000</desc></polyline><polyline fill="none" points="104.20720103458734,170.9531573963177 105.08455990912626,164.71406595117878 102.24510755157098,164.51101499577635 101.35179669759236,164.82482092209102 102.51629120367579,164.71406595117878 102.35677140840562,164.52947418291296 105.29193564306479,164.69560678281414 105.49931137711974,164.51101499577635 105.40359949984122,163.93877926391724 106.59999796503689,156.3887906356831 106.48833410831867,152.62290881919034 108.54613946855534,152.41984434542246 121.14820330234943,154.48739928285067 121.13225132285152,153.8782114347996 107.26998110557906,151.95833333332848 107.49330881913193,156.51801068482746 106.04167868127115,166.78148093931668 106.44047816970851,167.40908440483327 106.07358264038339,168.09206218288455 106.15334253798937,169.568762113704 105.59502325422363,169.69797278648184 105.33979158167494,172.20833333332848 104.04768123920076,172.0606660261983 104.12744113692315,170.9716159288073" stroke="#4DD2FF" stroke-linecap="round" stroke-linejoin="round" stroke-width="0.5"><title>2025-07-05 4.8km</title><desc>1751729502000</desc></polyline><polyline fill="none" points="137.0092483671615,172.20833333333576 137.20965522469487,172.06187181302084 137.2412984126713,171.2319198244295 137.51553937559947,170.02359711796453 137.66320758638903,169.9747757430232 137.85306671459693,168.2049875021694 133.72890454129083,168.034110015622 133.9925977748935,167.11869076919538 134.38286376057658,162.9931147813113 134.42505467799492,159.97818115634436 134.27738646714715,159.5753705266834 134.4356024072622,157.10965176569152 134.42505467799492,151.95833333333576 128.88749677262967,153.94808679310518 128.77147174981656,154.22884689638886 128.8136626672349,153.98470771336724 131.79867007141002,152.8494539907624 131.85140871815383,155.36408757605386 132.14674513973296,155.99884112671134 134.35122057254193,155.99884112671134 134.36176830192562,159.22138431241183 134.59381834743544,159.331242214721 134.6782001821557,159.72184727564309 138.53866912191734,159.96597479349293 138.72852825012524,160.93027363677538 138.70743279141607,162.6879629991381 137.3784188941936,171.75674307209556" stroke="#4DD2FF" stroke-linecap="round" stroke-linejoin="round" stroke-width="0.5"><title>2025-07-03 5.2km</title><desc>1751545471000</desc></polyline><polyline fill="none" points="155.89514732849784,172.20833333333576 156.37616983873886,169.24275581908296 156.5733102117665,169.1058806461515 157.07798956678016,165.36454511859483 157.1174176413915,164.06872914639098 156.2578856149048,157.18781547395338 155.83994802407688,156.32081943673984 155.92668978817528,156.20217722230154 156.28154245967744,156.26606151109445 156.11594454629812,154.4955372450204 155.72954941514763,154.00270468854433 155.73743503005244,152.8801315400924 155.36681112876977,151.95833333333576 155.76897748975898,152.96227151490893 155.72954941514763,154.02095779446245 156.08440208659158,154.3677661013644 156.13960139104165,154.6506876749263 156.28154245967744,156.2569351869024 155.89514732849784,156.22955620877474 155.83994802407688,156.34819838702242 156.26577122983872,157.18781547395338 156.67582320576184,161.09375692559843 157.13318887120113,164.04135255087022 156.99913341752836,166.08544872438506 156.13171577613684,171.89809288816468" stroke="#4DD2FF" stroke-linecap="round" stroke-linejoin="round" stroke-width="0.5"><title>2025-07-01 5.0km</title><desc>1751376396000</desc></polyline><polyline fill="none" points="178.038358737831,172.20833333333576 178.1845863944618,172.02784825851268 178.15534086310072,171.36230700917076 178.38930511369836,171.13669890045276 178.55502979119774,170.25682289540418 178.80849106266396,167.15464031304145 179.1594374385313,165.94758584199735 179.54937785619404,162.77759524073917 179.4518927517929,160.96129648060014 178.9059761670651,157.72347279011592 178.53553277032916,153.79734381618618 177.95062214386417,152.3419331278128 178.4672931972309,152.44347402791755 178.4867902180995,151.95833333333576 178.4867902180995,152.42090939146146 178.038358737831,152.3306507998568 177.96037065429846,152.44347402791755 178.3308140510344,152.9963061870003 178.55502979119774,153.77477945508872 178.96446722972905,158.15217961067538 179.54937785619404,162.0443104992737 179.50063530396437,163.86059153570386 178.27232298837043,171.824802198651" stroke="#4DD2FF" stroke-linecap="round" stroke-linejoin="round" stroke-width="0.5"><title>2025-06-30 4.1km</title><desc>1751292736000</desc></polyline><polyline fill="none" points="11.35235191634274,187.4983025804613 11.125,185.8550948953125 11.203397212550044,185.68260172280134 17.302700348431244,185.39208615091047 18.274825783941196,185.48287236892065 19.858449477353133,185.328535743276 22.23388501739828,185.35577163782 31.375,184.77473741456197 28.646777003479656,184.96538968684763 28.01175958191743,185.17419885019626 26.835801393724978,185.1197269417171 20.885452961665578,185.42840064923075 15.350609756074846,185.5282654432158 15.185975609754678,185.67352312553703 15.570121951197507,187.72526258543076 15.389808362349868,187.70710580631567 15.170296167227207,186.6358492878353" stroke="#4DD2FF" stroke-linecap="round" stroke-linejoin="round" stroke-width="0.5"><title>2025-06-26 5.0km</title><desc>1750950176000</desc></polyline><polyline fill="none" points="53.875,187.07877715588256 53.54803552207886,185.42122284411744 44.83624865443562,186.22055522028677 43.90621636170545,186.22896920412313 40.54938105487963,185.80826896116196 33.625,186.10275935634854 40.31687298169709,185.79985493442655 43.91348223897512,186.23738318713004 50.11127556514111,185.6736444305934" stroke="#4DD2FF" stroke-linecap="round" stroke-linejoin="round" stroke-width="0.5"><title>2025-06-24 5.0km</title><desc>1750769966000</desc></polyline><polyline fill="none" points="76.375,187.0609436127852 76.0978025936347,185.4390563872148 67.4755043227633,186.25845129606023 66.4250720460841,186.29224060293927 63.0257564841304,185.85297853924567 56.125,186.15708329282643 62.843389769434,185.85297853924567 66.4177773775009,186.29224060293927 73.7197406339692,185.6417940261017" stroke="#4DD2FF" stroke-linecap="round" stroke-linejoin="round" stroke-width="0.5"><title>2025-06-22 5.0km</title><desc>1750563938000</desc></polyline><polyline fill="none" points="89.44201795678237,196.375 88.39543249562848,190.12236129766097 88.38076073685079,188.41748897663638 88.473681875912,187.70380595649476 88.41499484071392,185.86857893816705 88.43455718577025,185.5513730600578 88.54215008363826,185.37011174486906 88.43455718577025,185.2851452997129 88.42966659949161,184.12392418762101 87.24125413663569,176.97479878388185 86.9429283743375,176.125 87.24614472288522,176.86715832413756 88.41499484071392,184.00496845871749 88.47857246219064,187.48290221087154 88.39543249562848,188.42315309090918 88.39054190934985,190.06572186149424 89.1925980571832,194.8685408870806 89.30508154130075,195.19702041601704 90.5570716256625,195.12905929348926" stroke="#4DD2FF" stroke-linecap="round" stroke-linejoin="round" stroke-width="0.5"><title>2025-06-21 8.0km</title><desc>1750517001000</desc></polyline><polyline fill="none" points="113.3044209749205,196.375 111.5890791900456,185.82685964051052 108.57060953759355,185.7652624973125 103.13204527384369,185.241685766101 103.23842305893777,184.68730842562218 103.0256674886914,183.62474616938562 103.31820639775833,176.67940876755165 103.27831472828984,176.1866010746744 103.01237026555464,176.125 102.67993968707742,184.67190902603033 103.18523416639073,184.73350661502627 103.21182861260604,185.25708510767436 111.62897085951408,185.81146035708662 112.65285704110283,192.40221023210324 112.9719903965015,193.2799285898218 119.82006031292258,193.06434911474935" stroke="#4DD2FF" stroke-linecap="round" stroke-linejoin="round" stroke-width="0.5"><title>2025-06-19 5.0km</title><desc>1750345525000</desc></polyline><polyline fill="none" points="143.875,186.7569461144485 143.68913043479552,185.65242770878103 137.9565217391355,186.19619335945754 137.2179347825877,186.21318595028788 134.76250000001164,185.929975424413 125.6646739130374,186.34346230758092 124.87717391303158,186.47373835947656 123.625,186.8475722912226 125.39076086954447,186.37178321440297 128.58967391305487,186.23017853595957" stroke="#4DD2FF" stroke-linecap="round" stroke-linejoin="round" stroke-width="0.5"><title>2025-06-17 5.1km</title><desc>1750166247000</desc></polyline><polyline fill="none" points="146.82327586197061,193.89159132672648 146.125,189.40379474624933 161.90603448275942,188.93883704327163 159.33987068966962,178.81057486037025 162.44719827582594,178.9925242526224 166.375,178.60840867328807 160.17780172417406,178.97230766170833 162.46465517242905,188.08978103398113 155.69137931033038,188.4132313708833" stroke="#4DD2FF" stroke-linecap="round" stroke-linejoin="round" stroke-width="0.5"><title>2025-06-16 3.2km</title><desc>1750084948000</desc></polyline><polyline fill="none" points="188.875,187.18609957041917 188.56471774197416,185.31390042957355 178.6111895161157,186.23109361817478 177.71300403226633,186.24054917085596 173.77731854838203,185.75831475642917 168.625,186.00416006521846 173.6140120967757,185.74885915460618 177.70483870970202,186.22163806456228 186.14778225813643,185.51246879615064" stroke="#4DD2FF" stroke-linecap="round" stroke-linejoin="round" stroke-width="0.5"><title>2025-06-15 4.6km</title><desc>1749956754000</desc></polyline><polyline fill="none" points="31.375,211.23106960279256 31.128490870061796,209.6022637305432 22.457169710018206,210.39987887744792 21.55088614395936,210.41667069227697 17.73724489795859,209.9884783450325 11.125,210.290731997673 17.867749731463846,209.9884783450325 21.492883995728334,210.41667069227697 23.38520408165641,210.3243156683966 23.740467239520513,210.2067727609683 28.337137486581923,209.79537126411742" stroke="#4DD2FF" stroke-linecap="round" stroke-linejoin="round" stroke-width="0.5"><title>2025-06-14 5.1km</title><desc>1749906363000</desc></polyline><polyline fill="none" points="53.875,211.61901257834688 53.631541725597344,209.97719620332646 45.23939179631998,210.78981652994844 44.108026874106145,210.79810853228264 40.670968882594025,210.3835073812079 34.19784299857565,210.69031243625068 34.11191654880531,210.49959591648803 34.147719236207195,209.22261291787436 33.625,209.21432075498888 34.169200848642504,209.23919724112784 34.11191654880531,210.49130388373305 34.219324611040065,210.69031243625068 40.849982319632545,210.37521533664403 44.26555869873846,210.80640053376555 51.06806930695893,210.19279014226777 51.06090876943199,209.861106922639 53.24487270155805,209.74501747632894" stroke="#4DD2FF" stroke-linecap="round" stroke-linejoin="round" stroke-width="0.5"><title>2025-06-12 5.9km</title><desc>1749735885000</desc></polyline><polyline fill="none" points="76.375,216.78713254725153 75.72946985450108,213.53699158859672 57.991424116364215,215.1133182272897 56.32146569644101,210.5468033921934 56.125,204.84253885202634 59.43685031181667,204.6962729748484 62.25753638247261,204.87504236205132 62.411902286927216,204.35498540630215 62.117203742207494,204.24122272108798 56.20919958414743,204.04620078607695 56.33549896045588,210.3842915573623 56.82666320161661,212.2369166546705 57.794958419923205,214.54454237122263 65.65358627855312,213.86200866574654 65.80795218289131,214.47953928704374 75.68737006239826,213.52074071731477 76.29080041585257,216.73838092225196" stroke="#4DD2FF" stroke-linecap="round" stroke-linejoin="round" stroke-width="0.5"><title>2025-06-10 5.3km</title><desc>1749559786000</desc></polyline><polyline fill="none" points="79.1566954239388,205.02518901095027 78.67057389358524,203.0549230415636 78.625,201.5244330627611 92.4035071269027,201.17259436751192 93.02635033760453,203.47712478545145 92.57061140291626,203.45953306677984 92.43388972250978,203.7761837291764 92.72252438112628,205.41220289799094 92.64656789205037,206.52046513787354 93.14788072026568,208.73696827155072 94.439141035371,208.68419471816742 96.35324456117814,216.05474478618999 96.38362715690164,216.38896274879517 95.89750562648987,216.52968590793898 96.3380532633746,216.40655314999458 96.48996624158463,216.68799932480033 96.09499249811051,216.75836079688452 96.2317141785752,217.4092030536849 97.14319204806816,219.73110679093224 97.78122655668994,219.6607465303823 98.875,219.062683158234 97.72046136541758,219.3089447976963 95.66963615908753,211.12935241467494 95.42657539393986,210.4257134613872 94.87968867225572,210.4257134613872 94.46952363097807,208.63142114861694 94.02897599403514,208.80733298431733 93.13268942246214,208.68419471816742 92.63137659424683,206.66119634169445 92.52503750944743,204.05765049702313 91.68951612908859,201.10222654242534 78.67057389358524,201.55961689284595 79.21746061521117,205.13073833889212" stroke="#4DD2FF" stroke-linecap="round" stroke-linejoin="round" stroke-width="0.5"><title>2025-06-08 5.0km</title><desc>1749355299000</desc></polyline><polyline fill="none" points="121.375,211.24995009971462 121.01884422107833,209.58338323362113 114.49174443644006,210.13049222600966 112.5292534098844,210.40825386575307 111.43898061738582,210.40825386575307 107.98645010768087,209.9874025318568 101.125,210.29041570844856 107.65936826990219,209.9874025318568 111.4026381909789,210.4166708705452 119.27440775305149,209.70963947663404" stroke="#4DD2FF" stroke-linecap="round" stroke-linejoin="round" stroke-width="0.5"><title>2025-06-07 5.3km</title><desc>1749293029000</desc></polyline><polyline fill="none" points="143.875,211.21887372528 143.5760262873955,209.61445960805577 134.33700936261448,210.45889196361532 130.58889989193995,210.02823253766837 123.625,210.31533907036646 130.55973172487575,210.01134388710489 133.89219481457258,210.45889196361532 141.03110370904324,209.80867981193296" stroke="#4DD2FF" stroke-linecap="round" stroke-linejoin="round" stroke-width="0.5"><title>2025-06-05 5.1km</title><desc>1749128617000</desc></polyline><polyline fill="none" points="146.40846456692088,210.28849211770284 146.125,208.43179530605266 146.23129921255168,208.34973056817398 154.177165354311,208.0727615838623 155.6742125984165,213.56070865235233 163.52263779524947,213.45813294654363 166.375,213.28375400675577 164.02755905513186,213.36581472191028 163.5935039370088,207.27262468098343 156.08169291337254,207.7137265808924 154.46948818897363,207.66243576160923 154.61122047243407,208.0727615838623 150.4478346456308,208.19585900433594" stroke="#4DD2FF" stroke-linecap="round" stroke-linejoin="round" stroke-width="0.5"><title>2025-06-03 5.2km</title><desc>1748952979000</desc></polyline><polyline fill="none" points="185.3710929035151,204.37993637271575 184.9268752055068,203.72244566892186 184.61198671074817,203.0323986488147 184.40955839271192,202.84361090243692 183.909110606357,202.7980413628975 183.52674600554747,202.35536414568196 183.35243273168453,201.77597315665844 183.09377432524343,201.37885944606023 182.78450883927871,200.29166666666788 181.89045043449732,200.67576682663275 181.47434778069146,200.72133787890925 180.39473008428467,201.12496578101127 179.93364335980732,201.71738276430915 179.93364335980732,201.8671136602461 178.0668044264894,204.2432309415417 178.05555840881425,204.37993637271575 177.54386460481328,205.08298825920792 177.0996469068341,205.49309828982223 177.02092478313716,205.42149196609535 176.70603628834942,205.69489749805507 176.49798496143194,205.57121418792667 176.49236195263802,205.68838785612752 176.4642469084065,205.51913693314418 176.75664336787304,205.72744569781935 176.71165929720155,205.96179224694788 176.03689823695458,206.71039352519438 174.8841814257321,206.97077452427402 174.8841814257321,206.8536032059128 174.80545930203516,206.99681256587428 174.49057080724742,207.06841712560345 174.21504337430815,206.99030305646374 173.7539566498308,207.02936010295525 173.67523452610476,206.95775549950122 173.48967523456668,207.06190762349433 172.93299735989422,206.86662225188047 172.8598982450203,206.01386914121758 172.6462239092798,205.82509019765348 171.59472125710454,206.0919844031414 171.20111063861987,206.33283919329915 171.65095134545118,208.2791729958044 172.35945045869448,210.45326847428805 173.85517080884892,216.29822463441815 174.0632221357664,216.90351808479681 175.8288469100371,220.47658532497007 176.05376726345276,220.54166666666788 176.82974248274695,220.29435721606933 177.3583053132752,220.45055276976564 178.3254628329305,220.24880010776542 178.30859380640322,219.86481747740618 178.56725221281522,219.79322724063604 179.0339619461447,220.0079977107016 179.3882115027809,219.83878467331306 179.53440973249963,220.05355499045982 180.4453371638083,220.25530826806425 180.97952300318866,220.15768579383075 181.51933185136295,219.75417798680428 181.61492300155805,218.99271277386651 182.01977963771787,218.43299752239182 181.91294246981852,217.87327737441228 182.04227167303907,217.59992389459148 181.7667442400998,217.2940269490864 181.59243096623686,216.83843304232505 181.52495486018597,216.16154467561864 181.89045043449732,215.86865806630158 182.44712830916978,216.09645887832085 182.7563937951345,216.0769331262054 182.83511591880233,215.6538737005685 182.70578671561088,215.13318133600114 182.59894954771153,215.08762055245825 182.70578671561088,215.0355510458321 182.58208052124246,214.99649888803833 182.68329468023148,215.05507711578684 182.69454069793574,214.74916800176288 182.54834246821702,214.41071366033793 181.8848274256452,214.36515236224295 181.5755619397096,214.1308366023004 181.70489114290103,213.24563598540772 182.23345397342928,212.3408962258909 182.63831060956,211.89177605268196 182.82386990112718,211.82668591087713 183.22310352846398,211.27341703105049 183.92597963285516,210.60297891612936 184.5501336135785,209.82187710315702 184.37019733083434,209.45735965904896 183.81351945616188,209.45085040009872 183.74042034128797,209.23604448293554 183.95409467702848,208.72180920481333 184.20150706576533,208.48747276990252 184.4320504280331,208.5200195483194 184.5276415782282,208.40285106851297 184.33083626901498,207.95370324048054 184.59511768425,207.40040085488727 184.84253007301595,207.2571923987125 185.05058139993344,207.34181561611695 185.022466355731,207.1855880503863 185.64662033645436,206.8991698552236 185.702850424801,206.723412600335 186.24828228182741,206.39142535641804 186.29888936135103,205.91622492966053 185.5847672392556,204.55570006907146 185.47230706253322,204.50362198717994" stroke="#4DD2FF" stroke-linecap="round" stroke-linejoin="round" stroke-width="0.5"><title>2025-06-02 11.5km</title><desc>1748829019000</desc></polyline><polyline fill="none" points="31.375,235.5303059927537 31.004059117403813,233.63636067391053 20.305786844313843,234.6321510255002 15.871357202297077,234.1244944927239 11.125,234.3295099548268 15.930370524525642,234.10496918773424 19.81681931723142,234.61262582398922 30.98719816817902,233.6461233746886 31.366569525416708,235.4717309254993" stroke="#4DD2FF" stroke-linecap="round" stroke-linejoin="round" stroke-width="0.5"><title>2025-06-01 4.9km</title><desc>1748740054000</desc></polyline><polyline fill="none" points="53.875,244.34170333918883 53.80167471332243,244.4973731643404 53.65502413996728,244.38415876337967 53.16618889552774,241.66698544718383 37.718995172006544,243.01142680649355 36.28915208205581,239.0063683855842 36.228047676500864,233.96803894218465 35.88586300541647,232.0715417300089 33.625,224.66929350233113 35.11594749544747,229.62304059407325 35.51923657214502,230.3873172612075 36.17916415206855,233.2320878762839 36.83909173205029,233.41607600850693 36.1547223898815,233.40192308393307 36.28915208205581,238.53933991785743 36.75354556425009,240.4499009903666 37.56012371752877,242.44534782074334 37.767878696438856,242.57271579375083 44.39159625826869,241.89341858770058 44.57490947493352,242.431195816549 49.84210923349019,241.92172270431183" stroke="#4DD2FF" stroke-linecap="round" stroke-linejoin="round" stroke-width="0.5"><title>2025-05-31 5.5km</title><desc>1748696141000</desc></polyline><polyline fill="none" points="74.95487012987724,240.17184297612403 74.49464285717113,237.20255293362425 57.83441558445338,238.69481889541203 56.295941558491904,234.309341768967 56.125,229.0252799201844 61.779220779193565,229.08619236088998 56.20389610395068,228.99482369056204 56.30909090908244,234.23320387641434 56.71672077925177,235.86254630729672 57.74237012985395,238.20755001611542 72.49594155844534,236.79141581502336 73.81087662337814,236.71527918736683 73.87662337668007,237.27868931292323 76.375,237.08073464606423" stroke="#4DD2FF" stroke-linecap="round" stroke-linejoin="round" stroke-width="0.5"><title>2025-05-29 5.0km</title><desc>1748526381000</desc></polyline><polyline fill="none" points="90.90015847852919,232.59530129597988 90.45087163231801,228.91617553641845 98.0566561014275,228.54454254326993 98.875,231.53616664196306 97.99247226619627,228.61886920247343 90.4187797147315,228.9719204200228 90.62737717904383,230.8114920178632 90.33854992076522,228.99050204409286 79.52357369248057,229.99390693256282 81.1442155308323,238.11385073687416 81.77000792388571,240.00907161053328 81.35281299520284,240.26919842838834 82.01069730578456,242.01575459481683 81.12816957209725,239.7117833643133 78.94591917586513,230.03106997058785 82.73276545165572,229.4922051786416 89.58438985736575,229.06482852154295 89.50416006339947,228.52596087371057 79.4433438985725,229.2134813854791 78.8817353406921,227.1509120718547 78.625,227.3738936631853 78.75336767034605,229.36213412818324 86.34310618066229,228.61886920247343" stroke="#4DD2FF" stroke-linecap="round" stroke-linejoin="round" stroke-width="0.5"><title>2025-05-27 6.0km</title><desc>1748352132000</desc></polyline><polyline fill="none" points="118.67653758541564,236.09236345452518 118.75726082007168,236.03894766771555 118.4977932801703,234.7436015035637 111.67667995445663,235.39795482884074 110.88674544420792,235.41130891028297 108.04413439639029,235.077456057581 101.25185079727089,235.37792370158422 101.125,233.161107771768 101.9322323462402,233.07430321214633 103.04505979499663,233.15443050203612 103.05082574032713,235.077456057581 108.21134681094554,234.87046643450594 111.34802107061842,235.1776120920258 118.48626138953841,234.46983949970308 121.2539151480596,234.36968238317786 121.375,234.59002783738106 121.29427676537307,234.6167363269342 118.7399629840802,234.7235701762038" stroke="#4DD2FF" stroke-linecap="round" stroke-linejoin="round" stroke-width="0.5"><title>2025-05-25 7.6km</title><desc>1748179850000</desc></polyline><polyline fill="none" points="143.8617300131009,235.70127545579453 143.80865006553358,235.2633239704228 143.54988532108837,235.2633239704228 143.38401048490778,234.44119764479547 143.25131061597494,234.25679424726695 136.84854193971842,234.8023196583381 135.80021297509666,234.99440513097215 131.59362712973962,234.60255024760409 123.73779488861328,234.95598807561328 123.625,233.61906235337665 125.57568807341158,233.4653912108697 125.56241808648338,234.58718334794685 125.82118283092859,234.6179171441472 131.3348623853235,234.37972989575792 135.3291284403531,234.72548533224472 143.62287024903344,233.9264036986351 143.875,235.61675870059116" stroke="#4DD2FF" stroke-linecap="round" stroke-linejoin="round" stroke-width="0.5"><title>2025-05-24 6.6km</title><desc>1748094255000</desc></polyline><polyline fill="none" points="166.375,235.48561124515982 166.15471394039923,233.68105542149715 157.81647864627303,234.389654828934 156.65793714745087,234.58806169236777 155.33622078970075,234.60695756194036 151.5260878324043,234.14400764774473 146.125,234.36131095661403 151.50161160354037,234.13455966624315 155.28726833197288,234.61640549531876 163.9273771152366,233.88891180908104" stroke="#4DD2FF" stroke-linecap="round" stroke-linejoin="round" stroke-width="0.5"><title>2025-05-18 4.7km</title><desc>1747565909000</desc></polyline><polyline fill="none" points="186.24302175777848,235.30837726448226 186.02272401947994,234.01269842470356 180.15005010020104,234.50949021525594 179.17030489552417,234.68403779269283 178.3818708846229,234.6773244328724 175.69771686228341,234.328228779872 168.66558116232045,234.65047098680952 168.625,234.44906979220104 172.58456198111526,234.19396072837117 175.26871600342565,234.14696684569208 178.40506012024707,234.65047098680952 186.09808903522207,233.96570441268705 188.68948611506494,233.85828940218926 188.7938376753591,233.87171628808574 188.8112296020554,233.96570441268705 188.875,233.92542380428495" stroke="#4DD2FF" stroke-linecap="round" stroke-linejoin="round" stroke-width="0.5"><title>2025-05-17 5.7km</title><desc>1747487200000</desc></polyline><polyline fill="none" points="30.268398484244244,257.91284343197185 27.58670721980161,258.05315035773674 26.278171120851766,258.2869947572981 20.26859792578034,258.74532805207855 16.504537295550108,258.2589334608201 11.125,258.47406984795816 16.431840845645638,258.2776409927683 20.123205025913194,258.7359743342313 30.849970083741937,257.8005977369321 31.205374950164696,259.6152196434123 31.375,259.69940226307517" stroke="#4DD2FF" stroke-linecap="round" stroke-linejoin="round" stroke-width="0.5"><title>2025-05-11 5.0km</title><desc>1746965499000</desc></polyline><polyline fill="none" points="53.875,259.4775495903741 53.54815279765171,258.0224504096186 44.36011477757711,258.8551403641177 40.62679340026807,258.4261799216911 33.625,258.720564779047 40.452474892372265,258.434590932171 43.93884505017195,258.8551403641177 53.60625896698912,258.0392725120546" stroke="#4DD2FF" stroke-linecap="round" stroke-linejoin="round" stroke-width="0.5"><title>2025-05-10 5.3km</title><desc>1746870058000</desc></polyline><polyline fill="none" points="76.33078602619935,258.40866293494037 76.27920305676525,258.2635936604129 76.375,258.3745290105944 75.98444323145668,258.4427968453383 66.95742358081043,259.2364063395871 63.13291484717047,258.78413518413436 56.125,259.0742716779714 63.09606986900326,258.78413518413436 64.88673580787145,258.92920355673414 66.51528384283301,259.2278729441532 73.90638646288426,258.5622654222243" stroke="#4DD2FF" stroke-linecap="round" stroke-linejoin="round" stroke-width="0.5"><title>2025-05-05 5.4km</title><desc>1746434825000</desc></polyline></svg>