<?xml version="1.0" encoding="utf-8" ?>
<svg baseProfile="full" height="300mm" version="1.1" viewBox="0,0,200,300" width="200mm" xmlns="http://www.w3.org/2000/svg" xmlns:ev="http://www.w3.org/2001/xml-events" xmlns:xlink="http://www.w3.org/1999/xlink"><defs /><rect fill="#222222" height="300" width="200" x="0" y="0" /><text fill="#FFFFFF" style="font-size:12px; font-family:Arial; font-weight:bold;" x="10" y="20">Over 3km Runs</text><text fill="#FFFFFF" style="font-size:4px; font-family:Arial" x="10" y="280">Runner</text><text fill="#FFFFFF" style="font-size:9px; font-family:Arial" x="10" y="290">tang-hi</text><text fill="#FFFFFF" style="font-size:4px; font-family:Arial" x="65" y="280">SPECIAL TRACKS</text><rect fill="yellow" height="2.6" width="2.6" x="65" y="283" /><text fill="#FFFFFF" style="font-size:3px; font-family:Arial" x="70" y="285.5">Over 20.0 km</text><rect fill="red" height="2.6" width="2.6" x="65" y="287" /><text fill="#FFFFFF" style="font-size:3px; font-family:Arial" x="70" y="289.5">Over 40.0 km</text><text fill="#FFFFFF" style="font-size:4px; font-family:Arial" x="120" y="280">STATISTICS</text><text fill="#FFFFFF" style="font-size:3px; font-family:Arial" x="120" y="285">Number: 84</text><text fill="#FFFFFF" style="font-size:3px; font-family:Arial" x="120" y="290">Weekly: 3.7</text><text fill="#FFFFFF" style="font-size:3px; font-family:Arial" x="141" y="285">Total: 437.8 km</text><text fill="#FFFFFF" style="font-size:3px; font-family:Arial" x="141" y="290">Avg: 5.2 km</text><text fill="#FFFFFF" style="font-size:3px; font-family:Arial" x="167" y="285">Min: 3.0 km</text><text fill="#FFFFFF" style="font-size:3px; font-family:Arial" x="167" y="290">Max: 11.5 km</text><polyline fill="none" points="21.620594052656088,31.090909090911737 21.608930066751782,32.23813044113922 21.807217828114517,32.292117084085476 21.702241954451893,33.641776026939624 21.03739475470502,38.163033571865526 20.804115035396535,38.70287493536307 20.640819232037757,41.280587200584705 20.02262797608273,45.39672560454346 19.742692313040607,46.27391894478933 19.789348256832454,46.98916461308545 19.264468888635747,50.72727272727934 19.754356298944913,46.287414181715576 19.882660144532565,46.07149022642989 20.570835316262674,46.07149022642989 21.515618178993464,39.431657296358026 21.78388985618949,38.75685895107745 21.678913982526865,38.35197829862591 22.343761182273738,33.46632113988744 22.55371292954078,33.27736946384539" stroke="#4DD2FF" stroke-linecap="round" stroke-linejoin="round" stroke-width="0.5"><title>2025-10-07 3.0km</title><desc>1759844077000</desc></polyline><polyline fill="none" points="44.1887465416803,31.09090909090446 44.273148979002144,31.139741492857866 44.174679468764225,31.758282673814392 44.28721605188912,31.798976005120494 44.21688068745425,32.67794691479503 43.830036182975164,35.3066634674542 43.66826484471676,35.66474821059819 43.548694725119276,37.341214583029796 43.161850220669294,39.95350245467125 43.02821302818484,40.23018839342694 43.07744778331835,40.63707774410432 42.59916730504483,43.84329353814246 42.57103315927088,45.015076436815434 43.204051439330215,50.727272727272066 43.61903008961235,50.670315514478716 43.29548741312465,47.7817180737693 43.35175570467254,47.553880606617895 42.95787766374997,45.36498050800583 42.92974351794692,44.41291236515826 44.441953853704035,33.735954661882715" stroke="#4DD2FF" stroke-linecap="round" stroke-linejoin="round" stroke-width="0.5"><title>2025-10-06 5.0km</title><desc>1759755043000</desc></polyline><polyline fill="none" points="70.17821433802601,50.61443046329077 70.24563804396894,50.727272727272066 70.92950706201373,50.56929352400766 71.09325034805806,50.27590295005939 70.29379783401964,48.49297352719441 70.41901328798849,48.32370651587553 69.03201133589027,45.32199325230613 68.35777427593712,44.430490598220786 68.11697532591643,43.57283539341006 68.11697532591643,42.04935178565211 69.69661643792642,41.631800600247516 69.70624839595985,41.32710004757246 66.33506309590302,38.415472776207025 64.2545601677848,35.95519818599132 63.85964988981141,35.22161901164509 61.73098717170069,32.60326420897036 61.114541859715246,31.090909090911737 61.981418079696596,32.84027312778926 63.59958702378208,34.71375352926407 64.31235191575252,35.89876919917151 66.71070945786778,38.61861216026591 68.01102378789801,39.465022066186066 69.50397727795644,41.13525110168848 69.36912986595416,41.41738178420201 67.77022483793553,41.778507961076684 68.02065574593144,42.26376932221319 68.0013918299228,43.47127050133713 68.19403098995099,44.272502003361296 69.21501853800146,45.931370495767624 70.17821433802601,48.199577202387445 66.88408470188733,49.36187326051004" stroke="#4DD2FF" stroke-linecap="round" stroke-linejoin="round" stroke-width="0.5"><title>2025-10-04 5.0km</title><desc>1759568734000</desc></polyline><polyline fill="none" points="88.48574354909942,31.641186193555768 88.50114034564467,31.406642292284232 87.99304605831276,31.271328207381885 85.44487622319139,31.090909090911737 87.96225246516406,31.289370097889332 88.5242355405353,31.46076786566846 88.50114034564467,31.72237431559188 88.98613943814416,32.3357931645005 88.8783618620364,32.462084728467744 88.95534584499546,32.76879202765849 89.14010740400408,32.976269864411734 91.95772117938031,40.21963373035396 88.56272753202938,41.473403391799366 88.95534584499546,43.21421824317804 89.69439208114636,45.568320247104566 90.01772480944055,47.38120475821779 90.57200948658283,48.6529065463983 90.3564543343673,48.878383593175386 90.53351749508874,49.18503141317342 90.6797870626906,49.96968401324557 90.58740628315718,49.77126680131187 90.34875593605102,49.69911497258727 90.10240719065769,49.82538063251559 90.033121606044,50.05987350133364 90.37954952922883,50.673159472491534 90.66439026611624,50.727272727272066 90.84915182512486,50.52885729069385 90.83375502855051,50.24927111361467 90.52581909680157,49.74420987274061 90.30256554629887,49.68107700579276 90.12550238554832,49.78930474886147 90.05621680090553,50.15006289333542 90.387247927516,50.673159472491534 90.71827905412647,50.700216104210995 90.87224701998639,50.312403556854406 90.59510468147346,49.81636166304088 90.21788316508173,49.70813395454752 90.04082000433118,50.09594926964928 90.21018476679455,50.48376280844968 90.47193030876224,50.71825385389093 90.75677104562055,50.673159472491534 90.87994541830267,50.44768720535649 90.6797870626906,49.906551314430544 90.36415273262537,49.69911497258727 90.07931199579616,49.83439960100077 90.11780398726114,50.29436572074337 90.47962870704941,50.727272727272066 90.84145342683769,50.54689507686999 90.84915182512486,50.28534680123266 90.49502550365287,49.73519089462934 90.21788316508173,49.71715293552552 90.06391519922181,49.852437535111676 90.15629597875522,50.32142247346928" stroke="#4DD2FF" stroke-linecap="round" stroke-linejoin="round" stroke-width="0.5"><title>2025-10-02 5.0km</title><desc>1759403720000</desc></polyline><polyline fill="none" points="110.8895560548699,50.727272727272066 111.35273934979341,47.78835098663694 111.57661127566826,47.654355252139794 112.05523401376558,44.14359421988047 112.10927206478664,42.49089735123562 111.59205071884207,39.17647645439138 111.32186046344577,36.1924973374189 111.20606463972945,35.74578515631583 110.85095744696446,35.17399025049235 110.94359410592006,35.03104094260925 111.30642102030106,35.09358129341854 111.13658714547637,33.35136915339535 110.76604050950846,32.89570797127817 110.81235883900081,31.957574566658877 110.48041081099655,31.090909090911737 110.82007856061682,32.0290517500398 110.76604050950846,32.8689042987462 111.13658714547637,33.35136915339535 111.30642102030106,35.09358129341854 110.93587438433315,35.039975281149964 110.8895560548699,35.17399025049235 111.33729990661959,36.16569467059162 112.11699178640265,42.74997080631147 111.99347624109942,44.75999752727512 111.19062519655563,50.0841128420725 111.0671096512524,50.093045650464774 110.99763215699932,50.3520966994256" stroke="#4DD2FF" stroke-linecap="round" stroke-linejoin="round" stroke-width="0.5"><title>2025-09-30 5.0km</title><desc>1759224370000</desc></polyline><polyline fill="none" points="133.60197282777517,50.727272727272066 133.6478114358324,50.108454538734804 133.82352610005182,49.984690372803016 134.58750290088938,44.91904877823981 134.73265849307063,43.00941098367912 133.96104192419443,36.47565712345386 133.81588633201318,35.88326274553401 133.48737630763208,35.31738972028688 133.54085468372796,35.21128811808012 133.93048285215627,35.273180735093774 133.74712841992732,33.46059298921318 133.38041955552762,33.062702816598176 133.41861839557532,32.12544321373571 133.05190953114652,31.09090909090446 133.3956990915176,31.92207423006039 133.38805932353716,33.053860792089836 133.75476818796596,33.49596091647254 133.94576238817535,35.23781353076629 133.85408517206088,35.30854792504397 133.54085468372796,35.19360450511158 133.49501607567072,35.29970612890611 133.94576238817535,36.34303186707257 134.15967589238426,39.004339983810496 134.70209942100337,42.275603828267776 134.74029826105107,43.58407491521211 133.8388056360418,50.16149627021514 133.6630909718515,50.21453796936839 133.57905352374655,50.63003016057337" stroke="#4DD2FF" stroke-linecap="round" stroke-linejoin="round" stroke-width="0.5"><title>2025-09-28 5.0km</title><desc>1759056716000</desc></polyline><polyline fill="none" points="157.08727586720488,31.090909090911737 157.13675664836774,31.777976421239146 157.2427868936211,31.78615575888398 157.17916874642833,32.604085327649955 156.7550477652403,35.3359098563451 156.60660542183905,35.65488931121945 156.60660542183905,36.43188525881851 155.970423950057,40.292217110298225 156.02697341423482,40.64389068669698 155.52509691976593,44.11965157186205 155.55337165185483,45.42813444917556 156.16127839157707,50.66185339244112 156.5853993727942,50.727272727272066 156.23903390479973,47.81606090153218 156.30265205199248,47.63615110064711 155.9280118519091,45.1909735050649 155.8997371198493,44.111473487035255 157.03779508607113,36.022940957969695 157.20744347854634,35.71214190010505 157.14382533135358,35.47495233819791 157.46191606725915,32.99668856873177" stroke="#4DD2FF" stroke-linecap="round" stroke-linejoin="round" stroke-width="0.5"><title>2025-09-27 5.0km</title><desc>1758971882000</desc></polyline><polyline fill="none" points="178.79242077594972,50.727272727272066 178.86895624132012,50.13390664161125 179.0679484512948,49.92135661326756 179.9404527565639,43.24347923036839 179.1062161839509,36.184211542211415 178.6852711244137,35.32501444558875 178.74649949671584,35.209863675248926 179.05264135819743,35.34272993521881 179.12152327704825,35.280725705772056 178.9531452532101,33.53573143562244 178.57812147287768,33.057402028658544 178.616389205592,32.074161109514534 178.2337118787109,31.09090909090446 178.62404275211156,32.05644495514571 178.60108211252373,33.101691898897116 178.98375943937572,33.59773690716247 179.13683037014562,35.27186795511079 178.74649949671584,35.209863675248926 178.723538857128,35.35158767866233 179.1750981028017,36.414510354734375 179.49654705735156,39.7803466053374 179.94810630308348,42.88034390620305 179.84861019809614,44.63400782018289 179.04498781167786,49.97449416893505" stroke="#4DD2FF" stroke-linecap="round" stroke-linejoin="round" stroke-width="0.5"><title>2025-09-25 5.0km</title><desc>1758803583000</desc></polyline><polyline fill="none" points="21.4922575543751,52.90909090908826 21.499326240969822,54.430446399215725 20.884350505948532,57.9801640705773 20.87728181935381,59.07612822794181 20.3188555771776,62.07768502814724 20.361267696833238,62.45389406585309 19.859390947560314,66.12592911095999 20.09972629227559,69.23353397689061 20.51677880223724,72.54545454545587 20.919693938980345,72.48003521058126 20.21989396464778,66.07686070410273 21.958790870616212,54.32411603606306" stroke="#4DD2FF" stroke-linecap="round" stroke-linejoin="round" stroke-width="0.5"><title>2025-09-23 5.1km</title><desc>1758638106000</desc></polyline><polyline fill="none" points="43.35451908892719,72.54545454545587 43.263334438437596,72.51028367345134 43.28613060107455,71.78048485358886 43.453302460344275,71.62221441780275 43.81804106247728,69.45915611437522 44.349951523938216,64.80751828308712 43.52928966915351,57.99228528296226 43.10376129997894,57.11286126321647 43.194945950526744,57.0073297799172 43.55208583176136,57.042506955323915 43.384913972433424,55.301219597415184 43.020175370329525,54.887878560432 43.03537281206809,53.832530781131936 42.64023932645796,52.90909090908826 43.05057025386486,53.91168231132906 43.02777409119881,54.89667307115451 43.39251269333181,55.2836306573663 43.36971653069486,55.872858201692 43.56728327352903,57.0337126628001 43.202544671396026,56.989741186844185 43.14175490438356,57.1040669778522 43.59767815703526,58.168169013864826 43.91682443386526,61.54506729142304 44.37274768654606,64.5525063311652 44.24356943165185,66.487060980362 43.55968455263064,71.0155083988866" stroke="#4DD2FF" stroke-linecap="round" stroke-linejoin="round" stroke-width="0.5"><title>2025-09-21 5.0km</title><desc>1758459157000</desc></polyline><polyline fill="none" points="56.305690240638796,56.59063849881932 56.28571428573923,57.16850570263341 56.91495686408598,57.13383375317062 57.084752480499446,57.27252148748812 57.444319668167736,57.14539107080782 60.04119380109478,57.13383375317062 60.27091728209052,57.27252148748812 62.08872917521512,57.26096418277302 62.35840456595179,57.38809447027597 62.99763512174832,57.22629226150457 66.35359553981107,57.22629226150457 68.10149159078719,57.26096418277302 68.29126316210022,57.41120905274147 69.56972427369328,57.318750694728806 75.92207792209229,57.5152246157013 75.29283534374554,62.25361051120126 74.95324411097681,62.773665235545195 68.32122709444957,62.738994994564564 67.9516719293315,68.86390695573209 68.28127518465044,63.143480481965526 74.1042660290259,63.17815059966961 74.9632320884266,63.3399443426315 75.27285938884597,62.32295127848192 75.5125708472915,60.38139381758083" stroke="#4DD2FF" stroke-linecap="round" stroke-linejoin="round" stroke-width="0.5"><title>2025-09-20 5.0km</title><desc>1758380898000</desc></polyline><polyline fill="none" points="89.38242257660022,52.90909090908826 89.25602845539106,53.06347086414462 89.26305035102996,53.615986155760766 89.36837878535152,53.68098770378856 89.30518172477605,54.477252379088895 88.88386798746069,57.247866653400706 88.68023301439825,57.979097813004046 88.71534249253455,58.539703841131995 88.22380979900481,61.87888442709664 88.10443757343455,62.04949575030332 88.15359084276133,62.43946312256594 87.6761019404803,65.89221629880922 87.71121141858748,67.200161525172 88.29402875519008,72.54545454545587 88.64512353632017,72.53733127075975 88.72236438814434,72.43985190999229 88.42042287639924,69.28795524994348 88.05528430404956,67.07018034779321 88.05528430404956,65.72973713777901 89.17878760356689,57.80035303583281 89.33326930724434,57.52411032169766 89.27007224663976,57.296615605358966 89.7264954620914,54.29037464695284" stroke="#4DD2FF" stroke-linecap="round" stroke-linejoin="round" stroke-width="0.5"><title>2025-09-18 5.2km</title><desc>1758195038000</desc></polyline><polyline fill="none" points="110.86666505242465,72.37733863907488 110.85137173399562,72.54545454545587 111.0272448961914,72.51006175004295 111.10371148842387,71.87298897254368 111.27193799140514,71.7579614464994 112.04425057320623,66.46653097148373 112.15895046162768,64.94452151489531 111.34075792442309,58.04205161436403 110.90489834855543,57.148230226033775 110.9813649408461,56.980084582581185 111.3484045836667,57.05973255945719 111.19547139914357,55.351709965580085 110.80549177865032,54.89151161693735 110.843725074752,53.91800709116069 110.43845213577151,52.90909090909554 110.86666505242465,53.953407446533674 110.843725074752,54.90036160811724 111.19547139914357,55.325160126980336 111.35605124288122,57.06858233016828 110.9813649408461,56.99778413931199 110.92783832622808,57.13938046343537 111.29487796904868,57.78541076903639 111.43251783514279,58.44028591061942 111.67721093038563,61.21017627084075 112.15130380238406,64.32509144314099 112.15895046162768,65.70552956932079 111.76897084107623,68.54597762486083 111.60839099733857,69.51931856836745 111.41722451671376,69.69628847997228 111.21841137684532,71.51020933585096 111.04253821464954,71.95262332460698" stroke="#4DD2FF" stroke-linecap="round" stroke-linejoin="round" stroke-width="0.5"><title>2025-09-16 5.1km</title><desc>1758026219000</desc></polyline><polyline fill="none" points="134.71868688912946,52.90909090908826 134.54292129233363,52.99044451852387 134.52182942072977,53.511105661404144 134.64838065044023,53.6575409977886 134.59916628332576,54.45479535296181 134.18435947486432,57.2451230831648 134.04374699739856,57.48917044708651 133.8890732722357,59.62048581405543 133.41802147275303,62.077122468239395 133.4531745921122,62.516380683271564 132.96806154493243,66.2743802761106 133.62894018893712,72.54545454545587 134.01562450191705,72.46412079681613 133.3336539862794,65.97342143554124 133.73439954701462,63.020711218516226 133.9312570154143,62.30488628787134 134.31794132842333,58.93716950787348 134.52182942072977,57.70881243868644 134.64135002656258,57.52171003940748 134.592135659419,57.10682924679713 134.82414624723606,55.55304090350546" stroke="#4DD2FF" stroke-linecap="round" stroke-linejoin="round" stroke-width="0.5"><title>2025-09-14 5.0km</title><desc>1757842188000</desc></polyline><polyline fill="none" points="157.03005684009986,52.90909090908826 157.15007468080148,53.971080139082915 156.6700033180532,57.18963874128531 156.46526700156392,57.91665571462363 156.52174598543206,58.21889679162996 156.1616924633563,60.92267859227286 155.90047716299887,62.066244747569726 155.93577652797103,62.499161977437325 155.44864529219922,66.11760542176489 155.68868097357336,69.25400257671572 156.10521347948816,72.54545454545587 156.52174598543206,72.45561521236232 155.80163894128054,66.15844471221499 157.53836769482587,54.175307228957536" stroke="#4DD2FF" stroke-linecap="round" stroke-linejoin="round" stroke-width="0.5"><title>2025-09-13 5.1km</title><desc>1757760467000</desc></polyline><polyline fill="none" points="179.83770205496694,52.90909090908826 179.80247597175185,54.44985105505475 179.40794383981847,57.14814807165385 179.25294907367788,57.47422011575691 179.07681865763152,59.42247296957066 178.61887957589352,62.10430015804741 178.66115087573417,62.43035206464265 178.16798571081017,65.92717548269866 178.1820761440904,66.8319231677524 178.8091004252492,72.54545454545587 179.22476820714655,72.48840274703252 178.9429595414258,69.37494312805211 178.555472626118,67.08459862745076 178.52729175955756,66.15540108572895 179.66157163892058,57.955173962218396 179.83065683834138,57.490523683176434 179.77429510522052,57.27857704828784 180.0138324710424,55.60743974112847" stroke="#4DD2FF" stroke-linecap="round" stroke-linejoin="round" stroke-width="0.5"><title>2025-09-11 5.0km</title><desc>1757592265000</desc></polyline><polyline fill="none" points="20.516349699930288,94.28421732076094 20.66887055785628,94.20479820526089 20.69174868654227,93.63121354790928 20.867147673183354,93.5076717412303 20.97391227373737,92.88113558719488 21.21031960353139,90.64851225531311 21.68313426314853,87.99223343476478 21.744142606301466,86.15661786388955 20.943408102117246,79.77578679515864 20.508723656996153,78.95498194611719 20.58498408595915,78.81376742607972 20.958660187927308,78.84024516608042 20.790887244191254,77.17213177052327 20.417211142223096,76.68669592405786 20.470593442529207,75.8040783378965 20.07403921187506,74.72727272727207 20.462967399624176,75.68933739241038 20.42483718515723,76.73082656774932 20.790887244191254,77.13682743686513 20.95103414505138,78.86672289802664 20.577358043083223,78.81376742607972 20.508723656996153,78.92850424111384 20.768009115505265,79.27271377619036 20.9815383166424,79.92582555214176 21.309458161209477,83.43842352007778 21.744142606301466,86.28017013010685 21.68313426314853,88.09813314902567 20.768009115505265,94.31069034313987 20.60023617176921,94.36363636363967" stroke="#4DD2FF" stroke-linecap="round" stroke-linejoin="round" stroke-width="0.5"><title>2025-09-09 5.2km</title><desc>1757417515000</desc></polyline><polyline fill="none" points="44.193401431431994,74.72727272727934 44.13703975552926,75.34684121085593 44.29907957374235,75.3876021275646 44.20044664092711,76.39031415790669 43.82705053812242,78.87665984702471 43.64387509148219,79.37391973966442 43.411383178434335,81.89277907036012 43.00276102821226,83.97138984905177 43.037987075629644,84.40340807683242 42.56595804003882,87.74535730302159 42.55186762107769,88.7397641130301 42.826630791067146,91.29093179869233 43.20002689384273,94.31473482462752 43.6086490440357,94.36363636363967 43.59455862507457,94.04577582774073 43.81296011916129,93.84201841206959 43.81296011916129,93.72791403339943 43.474790063803084,93.483404104496 42.93230893331929,87.95728109877382 44.00318077529664,80.22985168195737 44.2356726883736,79.42283038231835 44.16522059350973,79.11306247532775 44.46111939192633,76.96910970668978" stroke="#4DD2FF" stroke-linecap="round" stroke-linejoin="round" stroke-width="0.5"><title>2025-09-07 5.0km</title><desc>1757247375000</desc></polyline><polyline fill="none" points="65.58643915210268,94.30107867245533 65.76407362811733,94.36363636363967 65.8104130566062,93.73805744967831 66.0343869611097,93.39845560434333 66.77581781733898,88.4383318293767 66.91483610292198,86.54358006862458 66.07300315151224,79.65241686195077 65.62505534259253,78.80327376788046 65.7022877233976,78.6870746011773 66.07300315151224,78.74964340232691 65.91081515172846,77.0066387096158 65.54782296170015,76.53289299891185 65.58643915210268,75.63902621348825 65.29295610485133,74.72727272727207 65.58643915210268,75.54963903495809 65.55554619978648,76.52395437604719 65.91853838981478,76.95300724788831 66.09617286577122,78.73176660653553 65.68684124725405,78.66025938704115 65.64822505682241,78.78539698299574 65.93398486595834,79.21443881667074 66.11934258005931,79.8669359247142 66.39737915110891,82.89696176983125 66.90711286483565,86.3648277948887 66.90711286483565,87.42839847225696 66.37420943687903,91.2356972940106 65.98804753259174,93.66656243330362 65.8104130566062,93.91679473629483" stroke="#4DD2FF" stroke-linecap="round" stroke-linejoin="round" stroke-width="0.5"><title>2025-09-04 5.0km</title><desc>1756985562000</desc></polyline><polyline fill="none" points="89.28165676689241,74.77641054882406 89.36658721545245,74.72727272727207 89.41612997718039,74.84192759759753 89.38781982765067,75.33330376590311 89.46567273887922,75.33330376590311 89.40905243981979,76.21777331975318 89.02686542100855,78.70733921588544 88.7720740751538,79.70641969884309 88.80746176207322,80.09949715033144 88.19879354693694,83.85001477829792 88.23418123391457,84.19393997573934 87.75290869167657,87.58398127969122 87.79537391598569,89.24619583368622 88.37573198159225,94.35544871815364 88.70837623867556,94.36363636363967 88.7791516125144,94.26538456282287 88.4465073554311,91.36690259062743 88.53143780404935,91.17857953647763 88.3049566077243,90.11413661484403 88.09970802353928,87.87057244046446 88.48897257974022,84.81627707998268 88.69422116392525,84.03835494910163 89.07640818270738,80.63997551654757 89.28873430425301,79.40342118847911 89.40905243981979,79.23963773568539 89.33827706595184,79.01852954657807 89.64968871089513,76.70095166187093" stroke="#4DD2FF" stroke-linecap="round" stroke-linejoin="round" stroke-width="0.5"><title>2025-09-02 5.1km</title><desc>1756811867000</desc></polyline><polyline fill="none" points="111.8687073845067,74.72727272727207 111.84020708021126,76.1700724056791 111.4625780483766,78.80002410329325 111.22745053796098,79.69864009901357 111.23457561404211,80.39938878676185 110.65744445219752,83.9112851805694 110.20856465960969,87.87641278938099 110.23706496387604,89.07992672022374 110.79994597364566,93.68773636914557 111.35570190727594,94.36363636363967 111.22745053796098,94.2976951484452 111.12769947297056,93.51463912412873 110.91394719076925,91.47041517438629 110.97094779936015,91.26434135587624 110.59331876752549,88.84911721219396 110.57906861536321,87.68681650223152 111.72620586305857,79.5749779377802 111.88295753666898,79.24521125316824 111.96845844949712,77.81895491094474 112.3888379377895,75.54348826828209" stroke="#4DD2FF" stroke-linecap="round" stroke-linejoin="round" stroke-width="0.5"><title>2025-08-31 5.1km</title><desc>1756640573000</desc></polyline><polyline fill="none" points="134.52796201463207,74.72727272727934 134.59150081980624,76.31208227200113 134.15378905058606,79.04866438526369 134.00553183842567,79.29372689637967 133.9349331659614,79.7838496780023 133.87139436075813,81.03364924954076 133.4760417950165,83.73739754436247 133.37014378630556,83.91709964745678 133.41250298978412,84.3091755695059 132.93243201708538,87.67441529181815 132.96067148607108,89.06294404633809 133.51840099849505,93.90627144159225 134.0549509091361,94.36363636363967 133.9419930332224,94.18395759720443 133.66665821065544,91.05584931093472 133.32072471562424,88.97309879343084 133.32072471562424,87.42937831748714 133.86433449352626,84.12947434248781 134.26674692652887,80.68240035205963 134.59150081980624,79.33457057560736 134.54208174909581,79.02415809307422 134.85977577514132,76.6551812556354" stroke="#4DD2FF" stroke-linecap="round" stroke-linejoin="round" stroke-width="0.5"><title>2025-08-30 5.0km</title><desc>1756550382000</desc></polyline><polyline fill="none" points="156.09659581174492,94.35480408910371 156.36374723215704,94.36363636363967 157.21863177756313,88.41931264036975 157.3407581411593,86.4318923241226 156.83698689122684,82.88092153213074 156.62326575486804,80.19551391543064 156.49350649354164,79.60365304762672 156.10422870944603,78.99412047676742 156.15765899355756,78.85277897996275 156.55456967532518,78.91461591310508 156.36374723215704,77.12132698109781 156.01263393671252,76.75913112700073 156.03553262993228,75.69020285008446 155.64625484583667,74.72727272727934 156.0431655276334,75.73437370057218 155.99736814128119,76.71496079757344 156.36374723215704,77.1478290574887 156.53930387986475,78.89694822242018 156.15765899355756,78.86161283024558 156.10422870944603,78.9764528022497 156.42481041396968,79.47998011820164 156.63089865259826,80.32801952749287 156.85225268668728,83.1105906991288 157.3407581411593,86.30822911344148 157.2491633685131,88.18082460227015 156.4706078003219,93.52456627631182" stroke="#4DD2FF" stroke-linecap="round" stroke-linejoin="round" stroke-width="0.5"><title>2025-08-28 5.0km</title><desc>1756381580000</desc></polyline><polyline fill="none" points="179.7553023720393,74.72727272727934 179.9170065569051,75.56521094566415 179.88888408997445,76.32992360775825 179.45298585260753,79.06330490303662 179.29831228448893,79.34802675536048 179.2772204342764,80.24286027200287 178.6585261618893,83.88716985473002 178.7077404790325,84.35083128038968 178.2366891579877,87.41743663406669 178.20153607433895,88.66194059333066 178.31402594203246,88.7920836815174 178.27184224163648,89.32078780296433 178.8061691132607,93.93256655531877 179.39674091871711,94.36363636363967 179.20691426697886,94.19283539625758 178.5530669109139,88.80835155266686 178.52494444401236,87.7590670972786 179.01005699849338,84.33456250387826 179.1295774829632,84.16374015097244 179.24206735065673,82.73207182259648 179.73421052188496,79.91746742289979 179.6990574382071,79.53512913565646 179.83263915608404,79.35616165055399 179.77639422225184,79.11211443534557 179.98028210748453,77.71289604422782" stroke="#4DD2FF" stroke-linecap="round" stroke-linejoin="round" stroke-width="0.5"><title>2025-08-26 5.0km</title><desc>1756206850000</desc></polyline><polyline fill="none" points="21.52682954404736,96.54545454544859 21.54094928424456,97.21532630881848 21.653907206113217,97.23983370652422 21.590368375065736,98.07308078357892 21.195015648700064,100.78515853307908 21.060878116521053,101.08740249636321 20.898501103918534,102.92534808380879 20.41137006605277,105.69444011284213 20.333711494808085,106.97684866068448 19.973658119008178,109.38641451187868 20.03719695005566,111.207835028501 20.580806948797544,116.06747719502891 20.601986559137003,116.1818181818162 21.025578765984392,116.1328149216497 20.72200435108971,112.9638740553055 20.34783123503439,110.8076161188219 20.312531884468626,109.71312974778994 20.764363571768627,106.37240386733902 20.92674058440025,105.90681491575378 21.47035058311303,101.45499497464334 21.632727595744655,101.12824618803279 21.57624863483943,100.86684620276355 21.844523699139245,98.83279853354179" stroke="#4DD2FF" stroke-linecap="round" stroke-linejoin="round" stroke-width="0.5"><title>2025-08-24 5.0km</title><desc>1756042259000</desc></polyline><polyline fill="none" points="43.256160434597405,116.1818181818162 43.47520187252667,115.86499098421336 44.234023996803444,110.69602239916276 44.374836349801626,108.42375390271627 43.96022219938459,105.80740482351393 43.545608048996655,101.81483472132822 43.09187935615773,100.89135764109233 43.20140007513692,100.76460513743223 43.53778514050646,100.8008201568955 43.365681153547484,99.02626688061719 42.99018154566875,98.60073099042347 43.05276481361943,97.68627464261226 42.6303277547413,96.54545454544859 43.029296088177944,97.51424715125177 43.00582736264914,98.60978496669122 43.381326970556984,99.0534286768816 43.561253866006155,100.8098739094421 43.467378964065574,100.90041138443485 43.13881680709892,100.78271264900104 43.13881680709892,100.9094651268606 43.44391023856588,101.46174167452409 43.616014225495746,102.13171190449793 43.819409846444614,104.59426186595374 44.38265925826272,108.5142836369123 44.25749272230314,110.57833660969482 43.39697278756648,116.1094006360072" stroke="#4DD2FF" stroke-linecap="round" stroke-linejoin="round" stroke-width="0.5"><title>2025-08-23 5.0km</title><desc>1755956696000</desc></polyline><polyline fill="none" points="66.797136174544,96.54545454545587 66.80424632909126,97.08845948099042 66.89667833852582,97.18718725987128 66.86112756570219,98.0099140689781 66.43451829141122,100.65903760200308 66.27809489084757,100.99634214258549 65.9154770077439,104.37753686159704 65.73061298890389,105.49634393435554 65.60974036119296,105.61151437330409 65.6666215978039,106.01460962009878 65.15469046868384,109.88915753903711 65.80882468918571,116.05021198279428 65.83015515288571,116.14891665209143 66.21410349971848,116.1818181818162 65.51019819718204,109.72463697886269 66.56961122827488,102.02470097331388 66.70470416510943,101.18556114776584 66.83268694739672,101.02924982739933 66.7758057108149,100.71662628155173 67.05310173906037,98.57759069337044" stroke="#4DD2FF" stroke-linecap="round" stroke-linejoin="round" stroke-width="0.5"><title>2025-08-21 5.0km</title><desc>1755781186000</desc></polyline><polyline fill="none" points="89.24866652005585,96.54545454544859 89.26985495176632,98.06554397585569 88.84608631787705,100.79509482470894 88.69776729602017,101.08112024084403 88.63420200094697,101.56327506878733 88.71189291714109,101.8002653655567 88.05505153466947,105.67373194798711 88.09742839806131,106.08231459592935 87.6312829007802,109.43261404932855 87.65953414305113,110.84623514234409 88.25281023047864,116.1818181818162 88.6624532432179,116.10828268784098 88.37994082062505,113.01156034155429 88.01267467127764,110.8053793898871 87.99148623956717,109.24467411466321 88.45056892625871,106.1231727465929 88.57063670587377,105.94339672843489 89.05797063483624,101.8819859956784 89.29104338347679,101.09746451961837 89.29810619400814,100.19852425540012 89.7713145018497,97.19108743687684" stroke="#4DD2FF" stroke-linecap="round" stroke-linejoin="round" stroke-width="0.5"><title>2025-08-19 5.3km</title><desc>1755607955000</desc></polyline><polyline fill="none" points="111.0859371573606,116.08509824939392 111.42787952735671,116.1818181818162 111.42787952735671,115.5311547357851 111.55705775599927,115.24099243240926 111.71663086200715,113.23620811403816 112.18015274128993,110.20256456804054 112.13456042530015,108.21525054955418 111.61784751067171,104.88244004629814 111.38228721136693,102.13871075392672 111.2379115440126,101.41758797044167 110.86557429676759,100.79319631323597 110.94916020939127,100.64369341656857 111.31389873736771,100.72284204111202 111.15432563135982,99.07829462559312 110.75919222607627,98.5418312174952 110.78958710341249,97.50407288438873 110.41724985610927,96.54545454545587 110.81998198077781,97.54804594776942 110.77438966472982,98.53303670767491 111.13152947337949,98.9199942939158 111.31389873736771,100.71404775307019 110.93396277073771,100.66128200606181 110.89596917407471,100.77560775056918 111.33669489537715,101.78694429357711 111.56465647532605,104.43395178560604 112.12696170597337,108.32077279556688 112.11936298661749,109.22650011325459 111.55705775599927,113.12189883645624 111.3898859306646,113.20103604470933 111.28350386003149,113.46482621612813 111.0859371573606,114.75738643117802" stroke="#4DD2FF" stroke-linecap="round" stroke-linejoin="round" stroke-width="0.5"><title>2025-08-17 5.0km</title><desc>1755429603000</desc></polyline><polyline fill="none" points="133.6136866514571,116.13765680020879 133.51445897095255,116.1818181818162 133.62895244848914,116.06699854295584 133.7587117230578,114.12387395912083 133.86557230207836,113.4437700916751 134.21668563323328,113.15229537648702 134.20905273468816,112.48101655677601 134.6822924418666,109.81351527148945 134.75098852839437,108.61222967521462 133.9190025915741,101.64267894459772 133.48392737691756,100.7946346202807 133.5678892604774,100.69746234614286 133.93426838857704,100.72396388623747 133.77397752003162,99.01018098487111 133.40759839190287,98.55081075013732 133.43049708742183,97.55255551871232 133.0412192638032,96.54545454545587 133.4533957829408,97.57022385262826 133.39996549338684,98.50664040724223 133.7663446215156,98.9395087991943 133.94953418560908,100.71513004043663 133.56025636196136,100.67096079798648 133.50682607243652,100.8034684579834 133.96479998258292,101.74868390306801 134.75098852839437,108.19707564476266 134.74335562984925,109.24820647125307 134.23195143020712,113.01097395056422 133.85030650507542,115.44873634191026 133.69001563653,115.5723891339585 133.63658534700517,115.94334645457275" stroke="#4DD2FF" stroke-linecap="round" stroke-linejoin="round" stroke-width="0.5"><title>2025-08-16 5.1km</title><desc>1755350047000</desc></polyline><polyline fill="none" points="156.37896149459993,116.12880066895741 156.10405349713983,116.1818181818162 156.2338711626071,116.04927433908597 156.60041515922057,113.30998968944914 156.80659615728655,113.2039511293915 156.76077815770986,112.91234442250425 157.31059415263007,109.66925845893275 157.34877581894398,108.26417820712959 156.52405182656366,101.66264811815199 156.1116898304026,100.8318979726464 156.1956894962932,100.67281725171779 156.53168815985555,100.72584419104533 156.36368882807437,98.98477610871487 156.00478116472368,98.57822726951417 156.05823549756315,97.70325701237016 155.63060083484743,96.54545454545587 156.02769016451202,97.47346538325655 156.02005383127835,98.53403706369863 156.36368882807437,98.94942411124066 156.56223349290667,100.71700637006143 156.16514416324208,100.68165507719095 156.12696249689907,100.80538453938061 156.45532482719864,101.33565166805784 156.5927788259578,101.86591556165513 156.83714149036678,104.7027724444415 157.31823048589285,107.9018582329154 157.35641215220676,109.18322697855183 156.77605082423543,112.90350784034672 156.8218688238121,113.16860491398984 156.57750615943223,114.5294238355782 156.37896149459993,114.98007995310763" stroke="#4DD2FF" stroke-linecap="round" stroke-linejoin="round" stroke-width="0.5"><title>2025-08-14 4.9km</title><desc>1755170321000</desc></polyline><polyline fill="none" points="179.89301129733212,96.56188176949217 179.722653306555,96.54545454545587 179.7723410539038,98.0321048029 179.36064257624093,100.82463358395034 179.21157933434006,101.12030745453376 179.21157933434006,101.89233968523331 178.79278260710998,104.84077791817253 178.65791586445994,105.6456253846045 178.55144212022424,105.71132686493365 178.61532636676566,106.12195990740292 178.12554714336875,109.49728450066323 178.16813664106303,110.93442374279402 178.76438960863743,116.11612520703056 179.16898983667488,116.1818181818162 178.4733613744611,109.67795483746158 179.63037606157013,101.48168516113947 179.79363580272184,101.14494689491403 179.722653306555,100.85748628964939 180.05627103845472,98.52491100916086" stroke="#4DD2FF" stroke-linecap="round" stroke-linejoin="round" stroke-width="0.5"><title>2025-08-12 5.0km</title><desc>1754999139000</desc></polyline><polyline fill="none" points="21.43857530868263,118.42942777861754 21.53096855961485,118.36363636363967 21.538075732794823,119.7534686369836 21.097430997528136,122.58240261507308 20.948180361418054,122.86200118596753 20.798929725278867,124.76160120120767 20.3298562974378,127.51635320042988 19.853675696445862,131.48796497927833 19.896318735351088,132.7049001980995 20.39382085579564,136.82425463577238 20.912644495692803,138.0 20.21614152705297,131.53730054653715 21.268003153119935,123.94749236726057 21.523861386463977,122.8948950719714 21.459896828135243,122.66463758910686 21.758398100413615,120.44426396481867 21.964506121730665,119.60544029967423" stroke="#4DD2FF" stroke-linecap="round" stroke-linejoin="round" stroke-width="0.5"><title>2025-08-10 5.0km</title><desc>1754830447000</desc></polyline><polyline fill="none" points="43.22726473707007,138.0 44.290629092021845,131.67045650671207 44.359480021492345,130.1831683630735 43.79337237929576,126.26120938023814 43.52561876468826,123.40152071518241 43.09721298137447,122.64010170925758 43.15841380759957,122.48073409792414 43.54856907451176,122.5604179400616 43.38026680253097,120.80735656731122 43.01306184538407,120.37351269829378 43.03601215517847,119.38186145102372 42.64585688826628,118.36363636363967 43.051312361785676,119.41727776147309 43.02071194865857,120.38236667642195 43.38026680253097,120.8162105013107 43.56386928106076,122.53385666745453 43.17371401411947,122.51614914787206 43.12781339447247,122.61354046096676 43.56386928106076,123.5520329863648 43.91577403162955,127.0314500256136 44.328879608394345,129.5634574738724 44.36713012473774,130.9710801264373 43.47971814504126,137.25641313759115 43.234914840286365,137.5131283669616" stroke="#4DD2FF" stroke-linecap="round" stroke-linejoin="round" stroke-width="0.5"><title>2025-08-09 5.0km</title><desc>1754735080000</desc></polyline><polyline fill="none" points="66.69354422442848,118.3636363636324 66.7361693897692,119.74466659722384 66.45910581506905,121.91480933663843 66.10389610388665,123.41085869400558 66.02574996746262,124.7671432719435 65.54976895445725,127.54540070320218 65.57818573139957,127.9728164577682 65.09510052422411,131.22767777222907 65.0808921357675,132.34547873520933 65.69185283896513,137.5397630348234 66.16783385188319,138.0 65.47162281803321,132.64136464147305 65.50714378914563,130.89069062992348 66.52304356306558,123.90405571629526 66.65091905908776,123.1067190317699 66.77169036088162,122.95053876097518 66.71485680711339,122.61351714946795 67.12690007203491,119.82687003440515" stroke="#4DD2FF" stroke-linecap="round" stroke-linejoin="round" stroke-width="0.5"><title>2025-08-07 5.0km</title><desc>1754570205000</desc></polyline><polyline fill="none" points="89.04161378261051,118.36363636363967 89.08552540600067,118.92256189510226 89.23189748398727,118.98184165587008 89.1806672567327,119.37986181466113 89.57587186730234,119.43914125017182 89.6197834906634,119.80328542889038 89.21726027620025,121.81875234434847 89.10016261381679,122.89421264817793 89.1806672567327,123.18212880009378 89.05625099042663,123.30068222062982 88.82205566565972,124.68097035041137 87.79013251583092,132.18324110718822 88.42685105509008,138.0 87.78281391193741,132.04776590490656 88.23656735371333,128.6184765407088 88.40489524338045,128.15275969939103 88.8074184578436,124.68097035041137 89.01233936703647,123.40229930404894 89.14407423720695,123.17366069215495 89.09284400992328,122.84340381227958 89.49536722438643,119.87950145102513" stroke="#4DD2FF" stroke-linecap="round" stroke-linejoin="round" stroke-width="0.5"><title>2025-08-05 5.0km</title><desc>1754406000000</desc></polyline><polyline fill="none" points="111.00135678352672,138.0 111.34117908656481,135.18485984429572 111.54970640889951,135.02399197068007 111.87408224365208,132.8433095404107 112.11350250261603,131.09157464955206 112.12894897095975,130.00119143232587 111.56515287724324,126.13111559839308 111.34890232075122,123.55692924583127 111.15582146670204,122.88655584544176 110.86233856863691,122.46645257547789 110.93184767608182,122.33237664112676 111.31028614993556,122.36813024363073 111.13265176425921,120.60724804225174 110.76965975872008,120.22288835373183 110.80055269537843,119.13237032075267 110.46845362646854,118.36363636363967 110.80827592950664,119.2485737060124 110.76965975872008,120.13350213875674 111.14809823257383,120.59830946392321 111.31800938409287,122.35919184436352 111.21760734001873,122.44857579602103 110.8468921003514,122.37706864196662 111.34117908656481,123.4228549747495 111.65783168713097,126.8104022051557 112.12894897095975,130.028004296546 112.12122573677334,131.13626219787693 111.21760734001873,137.3207998293583 111.17126793507487,137.472726638749 110.97046384689747,137.48166350170504 110.89323150526616,137.82126362152485 110.67698094877414,137.8033899637012" stroke="#4DD2FF" stroke-linecap="round" stroke-linejoin="round" stroke-width="0.5"><title>2025-08-03 5.0km</title><desc>1754221111000</desc></polyline><polyline fill="none" points="143.71428571427532,127.11941729258433 143.6539125747222,127.36974694663695 143.49794863091665,127.38430092900126 140.43401179909415,127.32317415337275 140.35099873223226,127.27077967045079 140.23025245314057,127.32026335127557 139.8403425935976,127.317352548891 139.80764047634148,127.2853337030956 139.110833824132,127.32608495516797 138.76871936670796,127.27369047757202 137.66439402257674,127.27077967045079 137.18644000118366,127.19509858149286 136.86193437613838,127.1106848233012 136.84180999628734,127.07866574651416 136.3915269972058,127.06411160886273 135.40291683717805,126.88946138031679 133.94893039320596,126.87781799388358 130.91518013115274,127.25622563040997 130.50514589175873,127.44542757420459 130.06492508258088,127.57932357934078 128.8826177665469,128.2982762096708 128.25624644377967,128.61554106596304 127.87136767919583,128.72614633676312 127.64496840591892,128.72905699601688 127.35819599308888,128.65920109229592 127.0538147478801,128.78435946567697 126.95067730115261,128.5806129970133 126.82741547460319,128.66211175834906 126.72679357536254,128.4729178496691 125.0137057408283,129.48581836975245 124.88289727181836,129.1569206899767 124.3546323008195,128.14691926053456 124.30432135119918,128.11199062025116 124.07792207792227,128.22259783505615 124.22633937928185,128.1090798983114 124.29929025624006,128.10034773070038 124.32193018356338,128.02757956377172 124.41248989288579,128.03340102392394 124.53323617197748,127.95190047409596 124.56845383670588,127.99265077799646 124.65901354601374,127.93443604040112 124.62882697624445,127.98974004392403" stroke="#4DD2FF" stroke-linecap="round" stroke-linejoin="round" stroke-width="0.5"><title>2025-08-02 8.3km</title><desc>1754134728000</desc></polyline><polyline fill="none" points="157.01837508002063,118.36363636363967 156.91269684114377,118.38809310501529 156.8492898978002,119.0484223037347 157.3776810922718,119.0484223037347 157.3776810922718,119.57831217467174 155.61637711065123,131.23500413567672 155.6234223265783,132.4657867726055 156.35612478293478,138.0 155.65864840621362,132.62065212532616 155.60933189472416,131.42247555703943 156.6520238518424,123.97218720758246 156.91269684114377,122.96137270199688 156.84224468187313,122.73312250301387 157.17336983038695,120.32830416385696" stroke="#4DD2FF" stroke-linecap="round" stroke-linejoin="round" stroke-width="0.5"><title>2025-07-31 5.0km</title><desc>1753965181000</desc></polyline><polyline fill="none" points="178.70212424002239,138.0 178.78681004911778,137.28732326500176 179.0023739268654,137.02897651782405 179.7876423385751,131.62133708893816 179.8723281476705,129.62568241560803 179.4719952318701,127.20232636400033 179.04856618636404,123.20186038457177 178.64053456063266,122.41778328662622 178.72522036975715,122.30195312055002 179.06396360619692,122.3465032025415 178.9176881177118,120.57339244992909 178.5250539118715,120.1457020730304 178.57124617139925,119.15666008032713 178.26329777462524,118.3636363636324 178.57894488130114,119.17448075555876 178.54815004160628,120.16352254708181 178.9176881177118,120.6268536002317 179.09475844586268,122.3286831724763 178.9946752169053,122.41778328662622 178.6867268201604,122.2930431014247 178.65593198049464,122.42669329306955 179.11785457562655,123.45133798987081 179.3873094227747,126.445013855664 179.91852040716913,130.26714780170005 179.36421329301083,134.88199651011382 178.95618166733766,137.43876755592646 178.80990617885254,137.50112689381785" stroke="#4DD2FF" stroke-linecap="round" stroke-linejoin="round" stroke-width="0.5"><title>2025-07-29 5.0km</title><desc>1753797916000</desc></polyline><polyline fill="none" points="21.751316916954238,140.18181818182347 21.737161858036416,141.68050826260878 21.411595502024284,143.97353204624233 21.15680444080499,144.73512908650446 20.986943733354565,146.8315310877224 20.512749258312397,149.33731507939228 20.569369494129205,149.7795041698846 20.1022525485605,152.88294825141202 20.13056266651256,154.52878964951378 20.710920083685778,159.8181818181838 20.165950313879875,155.22478212446003 20.06686490122229,153.48069552944798 20.519826787814964,149.46833432198036 21.149726911331527,145.46396252693376 21.086029146041255,145.25923469797272 21.390362913633,144.01447830670077 21.737161858036416,141.2464642752966" stroke="#4DD2FF" stroke-linecap="round" stroke-linejoin="round" stroke-width="0.5"><title>2025-07-27 5.0km</title><desc>1753616848000</desc></polyline><polyline fill="none" points="44.06734675713233,140.1818181818162 44.08824812050443,141.9070464507313 43.70505645859521,144.63186328607117 43.55177979380824,144.92207495017647 43.33579903890495,147.29209714786703 42.94564025584259,149.45246388043597 42.97350874033873,149.8635717850484 42.46490889816778,153.2168430153106 43.09891692062956,159.8181818181838 43.51694418818806,159.75370253086294 43.21735797976726,156.52161115403578 42.87596904457314,154.256650751704 42.862034802354174,153.04757069929474 43.8234975177038,146.2683207328446 44.14398508952581,144.9140135294001 44.074313878285466,144.5996174800821 44.548078114836244,141.72968826525903" stroke="#4DD2FF" stroke-linecap="round" stroke-linejoin="round" stroke-width="0.5"><title>2025-07-26 5.2km</title><desc>1753529066000</desc></polyline><polyline fill="none" points="66.78164370363811,140.18181818182347 66.69692525366554,140.6066155572771 66.809883186972,141.15394732809364 66.6757456411724,142.44465525767737 66.3792310662975,144.4541972471343 66.22391390800476,144.7401036117226 66.20273429551162,145.59781660610315 65.5744057915872,149.36347683210624 65.62382488735602,149.72287987014715 65.1578734125651,153.1452965170247 65.22141225001542,154.9667142594044 65.77914204564877,159.8181818181838 66.18155468301848,159.77734577013325 65.86386049565044,156.81259330129978 65.93445920394151,156.6574104108513 65.53204656660091,154.3541344199548 65.52498669573106,153.2596468263655 67.04991879520821,142.58352766104508" stroke="#4DD2FF" stroke-linecap="round" stroke-linejoin="round" stroke-width="0.5"><title>2025-07-24 5.0km</title><desc>1753356656000</desc></polyline><polyline fill="none" points="88.35688875697087,159.78275709061563 88.45638496312313,159.8181818181838 88.7931413530896,157.01958397674025 89.01509442832321,156.87788042981265 88.96151954811648,156.60332915194158 89.53553612192627,153.05179756018333 89.5738038935524,151.98010997210076 88.9997873196844,148.19809884697315 88.76252713584108,145.3991277599489 88.30331387679325,144.43363902463898 88.37219586563879,144.291915006841 88.74722002717317,144.3627770445528 88.54822761492687,142.5823508760368 88.2191247792507,142.22803286898124 88.24973899652832,141.27136705066368 87.82879350904841,140.1818181818162 88.2114712249313,141.05877321968728 88.2038176706119,142.19260098902305 88.55588116924628,142.56463500990503 88.75487358152168,144.309630521675 88.65537737539853,144.40706578885874 88.38750297424849,144.30077276471275 88.30331387679325,144.40706578885874 88.57118827788508,144.78794806032238 88.76252713584108,145.4257006931075 89.10693708012695,148.95097129204805 89.55084323056508,151.829541238425 89.54318967627478,153.00751321017015 88.70895225560525,158.80857144015317" stroke="#4DD2FF" stroke-linecap="round" stroke-linejoin="round" stroke-width="0.5"><title>2025-07-22 5.0km</title><desc>1753184035000</desc></polyline><polyline fill="none" points="101.48051948053762,153.23860314654303 101.48051948053762,150.08763795541017 103.56820683181286,141.26478210883215 120.45124367170502,144.34580506253405 121.11688311689068,145.08104510433623 118.84765773534309,158.70020788372494 103.68923218548298,156.3195190265542 103.14461809385102,155.61931329104118 105.02051107608713,142.0000287258299 105.6861505212728,141.579887993983 109.71024353173561,142.24511058285134 121.08662677858956,144.76594242147985 119.08970844268333,158.42012769548455 118.45432533579879,158.73521789119695 103.38666880119126,156.1794779933116 103.56820683181286,151.69813487568172 105.05076741450466,142.07005213137018 105.53486882918514,141.6499114848848 112.97792808129452,142.91033188733854 105.38358713721391,141.71993496155483 104.53640966140665,145.57120426060283 105.2928181218449,146.30644168730942" stroke="#4DD2FF" stroke-linecap="round" stroke-linejoin="round" stroke-width="0.5"><title>2025-07-20 4.9km</title><desc>1753020627000</desc></polyline><polyline fill="none" points="135.02474437491037,140.18181818182347 134.876610312087,141.1857885859572 134.32639807864325,142.5978558059578 133.86083388113184,144.71999107555894 133.73386182723334,146.3931735942242 133.29651364168967,149.19261569580704 133.19775759981712,149.28239210837637 133.24713562076795,149.68230400022003 132.7886254262121,152.98762200633792 132.7674634172581,154.08120346599753 133.39526968359132,159.8100214001024 133.32472965368652,158.68387575823726 133.4023236866051,159.8181818181838 133.80440185719635,159.73657760001515 133.12721756988321,153.34671009662998 134.20648002778762,145.46272517723264 134.43220812352956,144.7526388726401 134.4604241354973,143.79768532628077" stroke="#4DD2FF" stroke-linecap="round" stroke-linejoin="round" stroke-width="0.5"><title>2025-07-20 5.0km</title><desc>1752942252000</desc></polyline><polyline fill="none" points="157.3402112071053,140.1906050237376 157.21871097918483,140.18181818182347 157.02886687297723,141.14836543944693 157.2414922719181,141.280166501223 157.22630474340986,141.5613414283871 156.96052299477742,143.3538101000231 156.81624147406546,143.66133775620256 156.4441470259335,147.16707575585315 156.1328026917763,148.599203534337 156.1631777487928,149.02092989484663 155.6240204871865,153.0535843943435 156.3530218549422,159.8181818181838 155.67717683693627,154.17812555185083 155.66198930845712,152.4737371485826 156.1631777487928,149.0736455453589 156.14039645600133,148.6079895211442 156.69474124608678,145.269250268233 156.80864770978224,143.65255126691773 156.96052299477742,143.33623705807258 157.3629924998677,140.4629966800203" stroke="#4DD2FF" stroke-linecap="round" stroke-linejoin="round" stroke-width="0.5"><title>2025-07-17 5.0km</title><desc>1752765839000</desc></polyline><polyline fill="none" points="187.51597051601857,159.4038220877701 187.9582309583202,158.78971711733902 188.90909090905916,150.78062765880895 174.69041769043542,150.14091304148315 172.12530712538864,150.3456218959036 172.4348894348368,150.14091304148315 171.97051597048994,147.24938269479026 169.33906633907463,143.10394497564994 169.2727272727061,140.7753049594612 169.58230958227068,140.5961779122299 181.94348894350696,140.80089452718676 181.05896805902012,148.86147893090674 180.50614250614308,149.2197211371822 172.78869778860826,148.96383389900438 171.9484029483283,146.27700219659891 169.78132678125985,143.5133739609737 169.51597051590215,142.05478016176494 172.5896805896191,141.82447510522616 181.5454545454122,142.13154846716498 181.67813267814927,144.05074849372613 180.88206388207618,150.29444469790906 179.68796068790834,150.3712104909646" stroke="#4DD2FF" stroke-linecap="round" stroke-linejoin="round" stroke-width="0.5"><title>2025-07-15 4.1km</title><desc>1752589649000</desc></polyline><polyline fill="none" points="21.698218404810177,161.99999999999272 21.7580574566382,163.39347423296567 21.294304805109277,166.30152094725054 21.129747412604047,166.6390556539045 21.122267531143734,167.49586851865024 20.464037961239228,171.51152307588927 20.49395748716779,171.96154153473617 19.99280542822089,175.69141074043728 20.59119594632648,181.63636363636033 20.247121398424497,179.28266186005203 19.985325546760578,175.5010269390259 21.10730776822311,167.43528607395274 21.03998883490567,167.1583372066525 21.264385279180715,166.3621041981969 21.705698286328698,163.48002467564947 21.65333911596099,163.17709774151444 21.83285627141595,162.25965531190013 21.668298878939822,162.05193112570123" stroke="#4DD2FF" stroke-linecap="round" stroke-linejoin="round" stroke-width="0.5"><title>2025-07-13 5.0km</title><desc>1752418082000</desc></polyline><polyline fill="none" points="43.335961322067305,181.63636363636033 43.235192304011434,181.62739416160184 43.297204007423716,180.91880277700693 43.63826837632223,178.76608519825822 43.83980641249218,178.58668969672 44.188622244255384,176.14687467394106 44.37465735452133,173.6262596418601 43.86306080123177,170.1188071873621 43.59951106167864,167.1853575356945 43.44448180307518,166.61121530464152 43.11892036005156,166.0908956804269 43.18868352644495,165.95632976096385 43.56075374700595,166.01015615339566 43.39797302550869,164.30563778064243 43.02590280491859,163.83913227539597 43.04915719371638,162.77154308658646 42.785607454163255,162.03588587456034 42.62282673260779,162.03588587456034 42.762353065336356,161.99999999999272 43.02590280491859,162.654914913408 43.01815134199569,163.84810355839 43.359215710836,164.16209788792912 43.39797302550869,164.34152271732455 43.56075374700595,165.98324296127976 43.18093206352205,165.96530082864774 43.09566597128287,166.06398251299106 43.436730340181384,166.55738927893253 43.59175959875574,167.10461901021336 43.90956957882736,170.59425008726248 44.39016028039623,173.56346760099404 44.38240881747333,174.711657858752 43.436730340181384,181.16994974132103" stroke="#4DD2FF" stroke-linecap="round" stroke-linejoin="round" stroke-width="0.5"><title>2025-07-12 5.1km</title><desc>1752325602000</desc></polyline><polyline fill="none" points="65.98558611702174,181.63636363636033 65.79476355743827,181.62753136183892 66.22220609086799,178.68633403154672 66.39776284564869,178.59800824803824 66.88626859811484,175.32105823651364 66.96259762195405,173.66928726759215 66.51225638139294,170.7101538153438 66.16877577416017,167.11489190032444 65.71080163121223,166.18734318493807 65.77186485024868,166.09017084166408 66.15350996941561,166.15200779995212 65.9779532146058,164.35871813884296 65.63447260737303,163.97885400122323 65.61920680262847,162.78624649600533 65.23756168349064,161.99999999999272 65.64210550975986,162.88342253505107 65.63447260737303,163.97001993176673 65.98558611702174,164.36755216879828 66.176408676547,166.1255062517739 65.81002936218283,166.08133698687743 65.726067436015,166.22267855551763 66.18404157893383,167.18556187264767 66.51988928375067,170.6924870443545 66.97023052431177,173.60745565911202 66.89390150050167,175.27689364588878 66.16114287177334,180.15252892537683" stroke="#4DD2FF" stroke-linecap="round" stroke-linejoin="round" stroke-width="0.5"><title>2025-07-10 5.0km</title><desc>1752149320000</desc></polyline><polyline fill="none" points="85.94751611631364,162.0 85.99350830976618,163.224032832004 86.32695171254454,163.05107236516778 87.03983071161201,163.2905560276413 87.81019995245151,163.224032832004 88.67255358037073,163.5433438628388 93.12229830014985,164.12874539702898 93.24877683218801,164.30170444036776 92.22545052715577,170.83406721212668 91.73103444714798,170.87397881411016 91.63905006018467,171.04692894872278 91.46657933463575,172.20435858612473 91.59305786667392,172.70989935606485 90.81119057745673,177.1133430115442 85.08516248845262,176.94040088757174 84.88969566609012,176.8073683291732 84.15382057038369,181.6363636363676 84.92418981122319,176.88718788042024 87.15481119527249,176.92709763777384 87.90218433941482,176.6344258011959 88.00566677481402,176.94040088757174 90.8456847225898,177.03352359810378 92.82334904244635,164.64762184169376 92.76585880061612,164.1952681330731 86.84436388924951,163.1575096025481" stroke="#4DD2FF" stroke-linecap="round" stroke-linejoin="round" stroke-width="0.5"><title>2025-07-08 5.1km</title><desc>1751976330000</desc></polyline><polyline fill="none" points="101.6554171400494,181.4575665651937 101.61327605857514,181.6363636363676 101.88016957498621,181.52258370508207 101.96445173805114,180.6123413413443 102.45609768934082,180.20598147086275 102.55442687962204,179.7833661104669 103.97317662468413,169.94911645364482 104.09959986928152,166.9743399980216 103.76247121702181,164.77979730836523 104.53505771188065,164.7472853384097 104.73171609238489,165.03989282989642 107.44279233802808,165.43003531899012 109.62008155084914,165.3975234812824 111.20739562204108,166.031503124992 116.26432540651876,166.77927075621847 117.19142920040758,162.0 120.98412653885316,162.8453235928173 117.59879298857413,162.04876879032236 116.96667676552897,164.86107720425935 116.86834757524775,166.81178231304511 107.40065125643741,165.54382669906772 104.73171609238489,165.0561487859668 104.4929166304064,164.69851737108547 103.72033013548935,164.8285652508639 104.02936473343289,166.12903823168017 104.08555284218164,168.94127489051607 102.49823877081508,179.83212947830907" stroke="#4DD2FF" stroke-linecap="round" stroke-linejoin="round" stroke-width="0.5"><title>2025-07-06 5.0km</title><desc>1751807521000</desc></polyline><polyline fill="none" points="127.06672308122506,180.4192233338108 127.91749532317044,174.36919526579732 125.16408697643783,174.17229736965965 124.29784614831442,174.47659402547288 125.42705294216285,174.36919526579732 125.27236708003329,174.19019718747586 128.1185869439505,174.351295466171 128.31967856484698,174.17229736965965 128.22686704754597,173.61740211451252 129.38701101375045,166.2962010204792 129.2787309102714,162.64443683478748 131.27417853235966,162.44752582992078 143.49436164391227,164.4524275874137 143.47889305767603,163.86169997719117 130.03669163491577,162.0 130.25325184199028,166.42150531054358 128.8456104961806,176.37396131490823 129.2323251516209,176.9825464935857 128.87654766859487,177.64482797533856 128.95389059965964,179.07677942339797 128.41249008203158,179.20207462125109 128.164992702601,181.6363636363676 126.9120372190373,181.49317109612457 126.98938015016029,180.43712251682882" stroke="#4DD2FF" stroke-linecap="round" stroke-linejoin="round" stroke-width="0.5"><title>2025-07-05 4.8km</title><desc>1751729502000</desc></polyline><polyline fill="none" points="159.65398975863354,181.63636363636033 159.84832368110074,181.49434034393198 159.87900798459304,180.68953841560142 160.14493861532537,179.517831548721 160.28813203185564,179.47048960938992 160.47223785315873,177.75433131522732 156.47305029112613,177.58863193433353 156.72875282069435,176.70095266506542 157.10719256440643,172.70039413136692 157.14810496912105,169.77682213139633 157.00491155259078,169.38621788445016 157.15833307028515,166.9952178737949 157.14810496912105,161.99999999999272 151.7783518487704,163.9294579003763 151.66584273573244,164.2017101217425 151.70675514056347,163.96496909578127 154.60130777489394,162.86411700113968 154.65244828083087,165.30254956868885 154.9388351138914,165.91806816326425 157.07650826085592,165.91806816326425 157.08673636202002,169.04295852515497 157.31175458803773,169.14948740012187 157.39357939746697,169.52825594404567 161.13706442993134,169.76498565832298 161.32117025123443,170.70006332454068 161.30071404884802,172.4044893728933 160.01197330001742,181.19845792848355" stroke="#4DD2FF" stroke-linecap="round" stroke-linejoin="round" stroke-width="0.5"><title>2025-07-03 5.2km</title><desc>1751545471000</desc></polyline><polyline fill="none" points="178.746809530654,181.63636363636033 179.2132556012075,178.76065210739034 179.40442202353734,178.62792466697283 179.89380806477857,174.99996294327866 179.9320413492096,173.74341412174545 179.09855574776884,167.07101298483758 178.69328293242143,166.23028955481277 178.77739615822793,166.11524255899712 179.12149571845657,166.17719096024666 178.96091592367156,164.46031894465705 178.5862297358981,163.98242070808192 178.5938763927843,162.89386492776248 178.23448351881234,161.99999999999272 178.62446302038734,162.9735158124313 178.5862297358981,164.00012068957585 178.93032929609763,164.33641965384595 178.9838558943593,164.61076784638863 179.12149571845657,166.16834119133273 178.746809530654,166.14179187920672 178.69328293242143,166.2568388399377 179.10620240468415,167.07101298483758 179.50382856314536,170.85859257431002 179.94733466298203,173.7168671200343 179.81734149580006,175.69902098525927 178.97620923747309,181.33552441679785" stroke="#4DD2FF" stroke-linecap="round" stroke-linejoin="round" stroke-width="0.5"><title>2025-07-01 5.0km</title><desc>1751376396000</desc></polyline><polyline fill="none" points="20.219014533620793,203.45454545454413 20.360811049118638,203.2795296244076 20.332451746042352,202.63415629172232 20.559326170827262,202.41538479235896 20.720028888375964,201.5621716965543 20.96580951526994,198.55399464698712 21.306121152476408,197.3835175841523 21.6842451938428,194.30958730415296 21.589714183530305,192.54832790037472 21.060340525582433,189.40862007929536 20.701122686383314,185.60146471064218 20.133936624333728,184.1901573764626 20.6349509790889,184.28862127959292 20.653857181139756,183.8181818181838 20.653857181139756,184.2667404199965 20.219014533620793,184.17921693722747 20.143389725359157,184.28862127959292 20.502607564616483,184.82470094900782 20.720028888375964,185.57958411805885 21.11705913185142,189.82433578408381 21.6842451938428,193.5985233124229 21.636979688657448,195.35976552956708 20.445888958405703,203.0826364754539" stroke="#4DD2FF" stroke-linecap="round" stroke-linejoin="round" stroke-width="0.5"><title>2025-06-30 4.1km</title><desc>1751292736000</desc></polyline><polyline fill="none" points="33.908774152660044,194.8468388659021 33.68831168831093,193.25342535303207 33.76433322773664,193.08615924635524 39.678808995871805,192.80444717664068 40.62147608486703,192.89248229713849 42.157111181499204,192.74282253893762 44.46056382640381,192.76923310334678 53.324675324663986,192.2058059777628 50.679125752300024,192.39068090846558 50.06335128287901,192.59316252140707 48.923028191318735,192.54034127682098 43.152993348106975,192.83966123562277 37.785872663895134,192.9364998237288 37.62622743108659,193.0773557581051 37.998732974316226,195.06692129496514 37.82388343362254,195.04931472128374 37.61102312320145,194.01052052153682" stroke="#4DD2FF" stroke-linecap="round" stroke-linejoin="round" stroke-width="0.5"><title>2025-06-26 5.0km</title><desc>1750950176000</desc></polyline><polyline fill="none" points="75.92207792206318,194.4400263329735 75.60502145864302,192.83270093974716 67.15722813244793,193.60781112269615 66.25537863644422,193.61597013732535 63.00026561165578,193.20801838657644 56.28571428571013,193.49358483039396 62.7748032376694,193.1998593303506 66.26242433561129,193.6241291511542 72.27240574281313,193.07747338723857" stroke="#4DD2FF" stroke-linecap="round" stroke-linejoin="round" stroke-width="0.5"><title>2025-06-24 5.0km</title><desc>1750769966000</desc></polyline><polyline fill="none" points="98.51948051946238,194.42273320027743 98.25068303450826,192.8499940724505 89.88966652943054,193.64455883254413 88.87106553386548,193.6773242210329 85.57475953438552,193.2513731289655 78.88311688310932,193.54626258698408 85.39791908377083,193.2513731289655 88.86399191583041,193.6773242210329 95.94468355848221,193.04658814652066" stroke="#4DD2FF" stroke-linecap="round" stroke-linejoin="round" stroke-width="0.5"><title>2025-06-22 5.0km</title><desc>1750563938000</desc></polyline><polyline fill="none" points="111.96974901435897,203.45454545454413 110.95487826416502,197.39138065227235 110.94065110411611,195.73817112885445 111.0307564510731,195.04611486690192 110.97384781090659,193.26650078852254 110.99281735761906,192.9589072097515 111.09714986465406,192.783138661689 110.99281735761906,192.70074695729636 110.98807497092639,191.57471436374908 109.83567500696518,184.64222912376135 109.54638941926532,183.81818181818016 109.84041739359964,184.53785049613361 110.97384781090659,191.45936335390434 111.03549883776577,194.8319051741746 110.95487826416502,195.74366360330168 110.95013587747235,197.33645756265832 111.7278872935276,201.9937366177728 111.83696218722616,202.31226222158875 113.05101317813387,202.24636052702044" stroke="#4DD2FF" stroke-linecap="round" stroke-linejoin="round" stroke-width="0.5"><title>2025-06-21 8.0km</title><desc>1750517001000</desc></polyline><polyline fill="none" points="135.88826968998183,203.45454545454413 134.2249079592293,193.22604571201373 131.29790708405199,193.16631514891924 126.0241477980162,192.65860437924857 126.12730201386148,192.12102635212068 125.92099358211271,191.09066295213415 126.20466767577454,184.35579032005626 126.16598484478891,183.87791619363998 125.90809930517571,183.81818181817653 125.58574238052825,192.10609360100352 126.07572490593884,192.16582459639176 126.10151345987106,192.67353707410803 134.26359079015674,193.21111307354295 135.25645011779852,199.60214325538254 135.56591276545078,200.4532640871039 142.20646541164024,200.24421732340124" stroke="#4DD2FF" stroke-linecap="round" stroke-linejoin="round" stroke-width="0.5"><title>2025-06-19 5.0km</title><desc>1750345525000</desc></polyline><polyline fill="none" points="166.31168831171817,194.12794774734357 166.13145115759107,193.0568995963913 160.5725578769343,193.5841875000806 159.8563523433113,193.60066516391453 157.47532467535348,193.32603677518637 148.65319028799422,193.72699375280354 147.8895539243531,193.85332204555016 146.67532467533601,194.21582767633663 148.38757763974718,193.7544564503296 151.48955392435892,193.61714282274625" stroke="#4DD2FF" stroke-linecap="round" stroke-linejoin="round" stroke-width="0.5"><title>2025-06-17 5.1km</title><desc>1750166247000</desc></polyline><polyline fill="none" points="169.94984326011036,201.0463915895525 169.2727272727061,196.69458884483902 184.5755485892878,196.24372076922737 182.08714733546367,186.42237562217633 185.10031347960467,186.59881139648496 188.90909090905916,186.2263356831827 182.89968652039533,186.57920742954593 185.11724137933925,195.42039372991712 178.54921630088938,195.73404254147317" stroke="#4DD2FF" stroke-linecap="round" stroke-linejoin="round" stroke-width="0.5"><title>2025-06-16 3.2km</title><desc>1750084948000</desc></polyline><polyline fill="none" points="30.72727272726479,216.36227837131446 30.42639296190464,214.54681253776653 20.774486803507898,215.43621199338668 19.903519061597763,215.445381014164 16.087096774193924,214.97775976380944 11.090909090911737,215.21615521475906 15.92873900293489,214.96859069538186 19.895601173047908,215.42704297169985 28.082697947247652,214.73936368111754" stroke="#4DD2FF" stroke-linecap="round" stroke-linejoin="round" stroke-width="0.5"><title>2025-06-15 4.6km</title><desc>1749956754000</desc></polyline><polyline fill="none" points="53.324675324663986,216.2442695138161 53.08563616833999,214.66482139526488 44.677082316193264,215.4382663862052 43.79826188849984,215.45454935816815 40.100185528746806,215.0393325365876 33.68831168831093,215.33242698763934 40.22673567032325,215.0393325365876 43.74201738112606,215.45454935816815 45.57699443414458,215.36499297137198 45.92149204175803,215.2510119702274 50.37886925105704,214.85207718540187" stroke="#4DD2FF" stroke-linecap="round" stroke-linejoin="round" stroke-width="0.5"><title>2025-06-14 5.1km</title><desc>1749906363000</desc></polyline><polyline fill="none" points="75.92207792209229,216.62045664162724 75.68599717115285,215.02839227797813 67.54815481547848,215.81638774621388 66.45107367879245,215.82442847575294 63.11816895977245,215.42239099591825 56.84119840557105,215.7198989280805 56.757875787618104,215.5349616967942 56.79259354507667,214.29667515269102 56.28571428571013,214.28863426746102 56.813424199586734,214.31275692069175 56.757875787618104,215.52692093776568 56.86202906005201,215.7198989280805 63.291757747210795,215.4143502254301 66.60383181177895,215.83246920446254 73.20020573490183,215.23745306725323 73.19326218336937,214.91582085427217 75.31104539026273,214.80324926997127" stroke="#4DD2FF" stroke-linecap="round" stroke-linejoin="round" stroke-width="0.5"><title>2025-06-12 5.9km</title><desc>1749735885000</desc></polyline><polyline fill="none" points="98.51948051946238,221.6319669145014 97.89351189351873,218.4803150758089 80.69298269291176,220.00887424060784 79.07362907362403,215.58073864293692 78.88311688310932,210.04933060398616 82.09460809454322,209.9074970261281 84.82981882971944,210.0808491591597 84.97950697952183,209.57655150510254 84.69373869372066,209.46623617399018 78.96476496470859,209.27712399458687 79.08723708719481,215.42315140916617 79.56351756345248,217.21963635200518 80.50247050239705,219.4573340165516 88.12295812292723,218.7954831506213 88.2726462726132,219.39430072279356 97.85268785269,218.46455665517715 98.43783243786311,221.58469261147548" stroke="#4DD2FF" stroke-linecap="round" stroke-linejoin="round" stroke-width="0.5"><title>2025-06-10 5.3km</title><desc>1749559786000</desc></polyline><polyline fill="none" points="101.99610292189755,210.22644590960408 101.52471234701807,208.31588496959012 101.48051948053762,206.83177347500168 114.84149608842563,206.49059655838937 115.4454652624554,208.72529272123938 115.00353659852408,208.70823408495926 114.87095799931558,209.01528927273466 115.15084615314845,210.60173210309586 115.07719137583626,211.6764106387418 115.56331290618982,213.82574701079284 116.81544412084622,213.77457265599514 118.6715445095906,220.92177272195113 118.70100642053876,221.24586286750855 118.22961584560107,221.38232168849208 118.65681355411652,221.26292022624693 118.8041231087409,221.53583772908314 118.42111826658947,221.6040670353541 118.55369686579797,222.23518679953122 119.43755419377703,224.48672981746495 120.0562543233973,224.41850168602832 121.11688311689068,223.8385614463623 119.99733050150098,224.07736061188916 118.0086515135481,216.14563466473192 117.77295622613747,215.46331810396805 117.24264182936167,215.46331810396805 116.84490603173617,213.72339828551048 116.41770832322072,213.89397945953533 115.54858195077395,213.77457265599514 115.06246042036219,211.81287726062874 114.95934373210184,209.28822674458206 114.14914118143497,206.42236109162332 101.52471234701807,206.8658911284001 102.05502674373565,210.32879677305755" stroke="#4DD2FF" stroke-linecap="round" stroke-linejoin="round" stroke-width="0.5"><title>2025-06-08 5.0km</title><desc>1749355299000</desc></polyline><polyline fill="none" points="143.71428571426077,216.26257787446957 143.36892253471888,214.6465130346187 137.03961365262512,215.1770429666285 135.13659205113072,215.44638758699148 134.0793578280718,215.44638758699148 130.73144945505192,215.03828932381293 124.07792207790771,215.332120282932 130.41427918811678,215.03828932381293 134.04411668732064,215.45454953103035 141.6773477778479,214.76894333086966" stroke="#4DD2FF" stroke-linecap="round" stroke-linejoin="round" stroke-width="0.5"><title>2025-06-07 5.3km</title><desc>1749293029000</desc></polyline><polyline fill="none" points="166.31168831168907,216.2324432083551 166.02177440855303,214.67664770074043 157.06272769361385,215.4954911970417 153.4281972978206,215.0778820567284 146.67532467533601,215.35628839146375 153.39991301461123,215.06150518346112 156.6313923743146,215.4954911970417 163.55397069622995,214.86498244389804" stroke="#4DD2FF" stroke-linecap="round" stroke-linejoin="round" stroke-width="0.5"><title>2025-06-05 5.1km</title><desc>1749128617000</desc></polyline><polyline fill="none" points="169.54760200428427,215.33025498282223 169.2727272727352,213.5298217109157 169.37580529705156,213.45024378327798 177.08088761635008,213.1816677984898 178.5325697924127,218.50331344066217 186.14316392270848,218.4038460895681 188.90909090911737,218.2347513600762 186.63278453834937,218.31432538689842 186.21188260562485,212.4057774684261 178.92770221905084,212.8335126440943 177.36435218327097,212.78377609205927 177.5017895490455,213.1816677984898 173.46456692914944,213.30103499409597" stroke="#4DD2FF" stroke-linecap="round" stroke-linejoin="round" stroke-width="0.5"><title>2025-06-03 5.2km</title><desc>1748952979000</desc></polyline><polyline fill="none" points="27.32954463371425,231.4189281998042 26.898788078076905,230.7813614567276 26.593441658915253,230.11222495238326 26.39714753231965,229.9291580468016 25.911864830413833,229.88496940240293 25.54108703570091,229.45570664631305 25.372055982239544,228.89387295998677 25.12123570931726,228.50879299819644 24.821341904782457,227.45454545454413 23.954376178910024,227.82700621572076 23.550882696406916,227.87119632701797 22.503980687790317,228.26259308057342 22.056866288301535,228.8370580340743 22.056866288301535,228.98225163013194 20.246598231751705,231.28636535744954 20.23569300249801,231.4189281998042 19.7395050713385,232.10067548367078 19.308748515730258,232.49835793760212 19.232411910925293,232.4289215024728 18.92706549173454,232.69404201831276 18.725318750482984,232.57410668727607 18.71986613588524,232.68772963826268 18.6926030627219,232.5236075311259 18.976139023376163,232.72560390899162 18.932518106361385,232.95284904754226 18.2782043509942,233.67876543856983 17.16041835222859,233.93125610434072 17.16041835222859,233.81763543199486 17.084081747423625,233.95650511437634 16.77873532823287,234.0259398389644 16.51155721145915,233.95019286282695 16.064442811970366,233.98806636245718 15.988106207136298,233.9186315954721 15.80816992445034,234.01962759449816 15.268361076246947,233.8302599614144 15.19747708606883,233.0033478541045 14.990277730219532,232.82028948459265 13.970638794766273,233.0790959868791 13.588955770799657,233.31265214703308 14.025164941034745,235.2000061373401 14.712194384163013,237.30821993466088 16.162589875253616,242.9760562111478 16.36433661650517,243.56300743575775 18.076457609742647,247.02779991107673 18.294562194874743,247.0909090909081 19.047023013583384,246.85109386608383 19.559568788623437,247.0025562211813 20.497418504644884,246.80691727621524 20.48106066073524,246.4345704831394 20.73188093365752,246.3651496474813 21.184447947802255,246.57341192148306 21.52796266938094,246.4093265518968 21.66973064970807,246.6175886776109 22.553054219461046,246.81322821953654 23.07105260915705,246.71856400209435 23.594503613450797,246.32728370437326 23.6871980621072,245.58889319485752 24.079786315356614,245.046139011607 23.976186637417413,244.5033800802339 24.101596773864003,244.23831003919622 23.83441865706118,243.9416826980996 23.665387603628915,243.49989466730403 23.59995622804854,242.84351806928316 23.954376178910024,242.55950681176182 24.494185027084313,242.78040456887175 24.79407883164822,242.76147050621512 24.870415436424082,242.35123106317405 24.745005299977493,241.84631725510917 24.64140562203829,241.80213710137104 24.745005299977493,241.75164545858206 24.62504777815775,241.71377669950743 24.723194841441,241.7705798294446 24.734100070723798,241.47394068857466 24.592332090396667,241.14574253931642 23.948923564254073,241.10156188661495 23.64902975971927,240.87434660424697 23.774439896136755,240.0159702484707 24.286985671205912,239.13864684530563 24.679573924426222,238.70313637431173 24.859510207170388,238.6400186610481 25.246645845792955,238.1035155048521 25.928222674294375,237.45339369644353 26.533462898019934,236.69596163538154 26.358979229902616,236.34249017442926 25.819170381728327,236.33617816575133 25.74828639155021,236.1278815188016 25.95548574742861,235.62922912789872 26.195400791068096,235.40199379707337 26.41895799082704,235.4335543094785 26.51165243948344,235.31993638966378 26.32081092754379,234.88439910187662 26.57708381503471,234.34786345524117 26.8169988587033,234.20899464925242 27.01874559992575,234.2910535267365 26.991482526791515,234.13956012966082 27.59672275048797,233.86182127374923 27.651248896785546,233.69138999628194 28.18015251570614,233.36946297187387 28.22922604737687,232.90866255805304 27.536743989563547,231.58936572353923 27.4276916969975,231.53886576534205" stroke="#4DD2FF" stroke-linecap="round" stroke-linejoin="round" stroke-width="0.5"><title>2025-06-02 11.5km</title><desc>1748829019000</desc></polyline><polyline fill="none" points="53.32467532469309,238.1910037909547 52.96497507489403,236.35445075449388 42.590892870677635,237.32006564088806 38.29083988448838,236.82779263940756 33.68831168831093,237.02659551174293 38.348064924241044,236.8088590103216 42.11674254137324,237.30113211214484 52.94862506352365,236.363917615854 53.31650031902245,238.13420372573455" stroke="#4DD2FF" stroke-linecap="round" stroke-linejoin="round" stroke-width="0.5"><title>2025-06-01 4.9km</title><desc>1748740054000</desc></polyline><polyline fill="none" points="75.92207792209229,246.7353890965751 75.85097461380064,246.88634165430267 75.70876799721736,246.77655799276545 75.23474594205618,244.14172326189873 60.25564899796154,245.44542397395708 58.869134486536495,241.56173095974373 58.8098817296559,236.67607816614327 58.478066291019786,234.83705056644976 56.28571428573923,227.65911289113865 57.731481554044876,232.4627464346413 58.12254974961979,233.20386320276884 58.76247952412814,235.9624286476901 59.402409298636485,236.1408413819736 58.73877842136426,236.1271173339046 58.869134486536495,241.1088548698317 59.3194554389338,242.9615201522538 60.10159183002543,244.89649889686552 60.303051203489304,245.02000723432866 66.72605005133664,244.36129479209194 66.90380832203664,244.8827757412946 72.01139596675057,244.3887412082113" stroke="#4DD2FF" stroke-linecap="round" stroke-linejoin="round" stroke-width="0.5"><title>2025-05-31 5.5km</title><desc>1748696141000</desc></polyline><polyline fill="none" points="97.14238488784758,242.69188813846267 96.69610389613081,239.81257658210234 80.5407319953083,241.25962236321357 79.04887839435833,237.00703848303237 78.88311688310932,231.8830997205805 84.3659976386698,231.9421663297544 78.95962219598005,231.85356640700775 79.06162927980768,236.9332077993604 79.45690672966884,238.5131762171659 80.45147579687182,240.78711920753994 94.75796930340584,239.41389816405717 96.03305785125121,239.34006870693702 96.09681227867259,239.8864057983883 98.51948051946238,239.69444975779334" stroke="#4DD2FF" stroke-linecap="round" stroke-linejoin="round" stroke-width="0.5"><title>2025-05-29 5.0km</title><desc>1748526381000</desc></polyline><polyline fill="none" points="113.38370345975272,235.3449386304419 112.9480313663953,231.7773015302664 120.32333751831902,231.41693014297925 121.11688311689068,234.31789896595 120.26109864778118,231.48900447916822 112.91691193118459,231.83135717497498 113.11918826022884,233.61518417893967 112.8391133431578,231.8493757195247 102.35186366725247,232.82237439925666 103.92339514684863,240.69625930041366 104.5302241340396,242.5340492385003 104.12567147589289,242.78629342550994 104.76361989829456,244.4799236474937 103.90783542924328,242.2457697270147 101.79171383287758,232.8584112846147 105.46380719123408,232.33587572879333 112.10780661494937,231.9214498794754 112.03000802686438,231.39891155430814 102.27406507916749,232.06559811117768 101.72947496239794,230.06553089796216 101.48051948053762,230.28175547136925 101.60499722149689,232.20974622531503 108.96474365569884,231.48900447916822" stroke="#4DD2FF" stroke-linecap="round" stroke-linejoin="round" stroke-width="0.5"><title>2025-05-27 6.0km</title><desc>1748352132000</desc></polyline><polyline fill="none" points="141.09759488800773,238.73602920842677 141.1758719640202,238.68423208182503 140.9242670768872,237.4281388317395 134.3098541549407,238.06266326837067 133.5438570541155,238.0756126806773 130.7873857349914,237.75187658108916 124.20092891162494,238.04323914496854 124.07792207790771,235.89359945544857 124.86069283791585,235.8094253370291 125.93979824276175,235.88712452722757 125.9453894624603,237.75187658108916 130.94953110671486,237.55115937083247 133.99115463122143,237.84899758418396 140.913084637461,237.16267264617272 143.5968701002712,237.06555059378297 143.71428571428987,237.27921891301594 143.63600863827742,237.30511805439528 141.15909830489545,237.40871451429484" stroke="#4DD2FF" stroke-linecap="round" stroke-linejoin="round" stroke-width="0.5"><title>2025-05-25 7.6km</title><desc>1748179850000</desc></polyline><polyline fill="none" points="166.2988204456051,238.3567923611772 166.24734898129827,237.93211213294126 165.99642559274798,237.93211213294126 165.83557726675645,237.13489872627542 165.70689860594575,236.95608331049152 159.49815322292852,237.48507764849637 158.4815918027016,237.67134234923287 154.40247825568076,237.2913618562743 146.78470153702074,237.63408944706316 146.67532467533601,236.33767662550235 148.56690098892432,236.18866218428593 148.55403312284034,237.27646062023996 148.80495651139063,237.30626308928186 154.15155486715958,237.07529363629874 158.02478255686583,237.41057163531514 166.06719885620987,236.6357045966579 166.31168831168907,238.27483671977097" stroke="#4DD2FF" stroke-linecap="round" stroke-linejoin="round" stroke-width="0.5"><title>2025-05-24 6.6km</title><desc>1748094255000</desc></polyline><polyline fill="none" points="188.90909090911737,238.14766342965595 188.69548018465866,236.3977911158072 180.609918687318,237.08491781392513 179.48648450663313,237.2773123481602 178.2048201597354,237.29563561562827 174.51014577690512,236.84671448670997 169.2727272727352,237.0574328468283 174.48641125194263,236.83755280767946 178.1573511098395,237.30479724799807 186.535638414789,236.59934882497328" stroke="#4DD2FF" stroke-linecap="round" stroke-linejoin="round" stroke-width="0.5"><title>2025-05-18 4.7km</title><desc>1747565909000</desc></polyline><polyline fill="none" points="28.17505140148569,259.7939819938365 27.96142935223179,258.53756614919985 22.266715248668334,259.01930364306827 21.316659292613622,259.1885618999804 20.552117221435765,259.18205197530915 17.949301199783804,258.8435349784522 11.130260521022137,259.1560122700321 11.090909090911737,258.96071414192556 14.930484345299192,258.71333565579334 17.533300366951153,258.66776583016326 20.574603752960684,259.1560122700321 28.034510579600465,258.4919961981541 30.547380475210957,258.3878361879797 30.648569867014885,258.4008561985429 30.66543476562947,258.4919961981541 30.72727272726479,258.45293621424935" stroke="#4DD2FF" stroke-linecap="round" stroke-linejoin="round" stroke-width="0.5"><title>2025-05-17 5.7km</title><desc>1747487200000</desc></polyline><polyline fill="none" points="52.251607188169146,258.2791209037241 49.65117929538246,258.41517610446317 48.38229580549523,258.6419343101079 42.554830889072036,259.086378717162 38.90483270218829,258.6147233559459 33.68831168831093,258.8233404586208 38.834339174994966,258.6328639929852 42.41384383465629,259.07730844531034 52.815555405890336,258.1702765933878 53.160190427850466,259.9299099572454 53.324675324663986,260.01154158843565" stroke="#4DD2FF" stroke-linecap="round" stroke-linejoin="round" stroke-width="0.5"><title>2025-05-11 5.0km</title><desc>1746965499000</desc></polyline><polyline fill="none" points="75.92207792209229,259.79641172399715 75.60513518043444,258.38540645781904 66.69552255488816,259.1928633833886 63.07533212841372,258.776901742247 56.28571428571013,259.0623658463446 62.90629599953536,258.7850578736252 66.28701857681153,259.1928633833886 75.66148055676604,258.4017187995705" stroke="#4DD2FF" stroke-linecap="round" stroke-linejoin="round" stroke-width="0.5"><title>2025-05-10 5.3km</title><desc>1746870058000</desc></polyline><polyline fill="none" points="98.47660636305227,258.75991557327507 98.4265865139314,258.619242337365 98.51948051949148,258.7268160102685 98.14075880451128,258.79301512274833 89.38728520390578,259.5625758444439 85.67867067430052,259.1240098755152 78.88311688310932,259.40535435439233 85.64294221063028,259.1240098755152 87.37934554528329,259.2646822368333 88.9585436397756,259.5543010367546 96.12567345317802,258.908863439734" stroke="#4DD2FF" stroke-linecap="round" stroke-linejoin="round" stroke-width="0.5"><title>2025-05-05 5.4km</title><desc>1746434825000</desc></polyline></svg>