<?xml version="1.0" encoding="utf-8" ?>
<svg baseProfile="full" height="300mm" version="1.1" viewBox="0,0,200,300" width="200mm" xmlns="http://www.w3.org/2000/svg" xmlns:ev="http://www.w3.org/2001/xml-events" xmlns:xlink="http://www.w3.org/1999/xlink"><defs /><rect fill="#222222" height="300" width="200" x="0" y="0" /><text fill="#FFFFFF" style="font-size:12px; font-family:Arial; font-weight:bold;" x="10" y="20">Over 3km Runs</text><text fill="#FFFFFF" style="font-size:4px; font-family:Arial" x="10" y="280">Runner</text><text fill="#FFFFFF" style="font-size:9px; font-family:Arial" x="10" y="290">tang-hi</text><text fill="#FFFFFF" style="font-size:4px; font-family:Arial" x="65" y="280">SPECIAL TRACKS</text><rect fill="yellow" height="2.6" width="2.6" x="65" y="283" /><text fill="#FFFFFF" style="font-size:3px; font-family:Arial" x="70" y="285.5">Over 20.0 km</text><rect fill="red" height="2.6" width="2.6" x="65" y="287" /><text fill="#FFFFFF" style="font-size:3px; font-family:Arial" x="70" y="289.5">Over 40.0 km</text><text fill="#FFFFFF" style="font-size:4px; font-family:Arial" x="120" y="280">STATISTICS</text><text fill="#FFFFFF" style="font-size:3px; font-family:Arial" x="120" y="285">Number: 97</text><text fill="#FFFFFF" style="font-size:3px; font-family:Arial" x="120" y="290">Weekly: 3.7</text><text fill="#FFFFFF" style="font-size:3px; font-family:Arial" x="141" y="285">Total: 503.0 km</text><text fill="#FFFFFF" style="font-size:3px; font-family:Arial" x="141" y="290">Avg: 5.2 km</text><text fill="#FFFFFF" style="font-size:3px; font-family:Arial" x="167" y="285">Min: 3.0 km</text><text fill="#FFFFFF" style="font-size:3px; font-family:Arial" x="167" y="290">Max: 11.5 km</text><polyline fill="none" points="20.822313700657105,31.0 21.293154609942576,31.245553153239598 21.153891805763124,31.452738005275023 21.147260243655182,31.59853441222367 21.25999679940287,31.64457532439701 21.21357586470549,31.890126381833397 20.994734315318055,33.018116294406354 20.590209027082892,34.13841613115801 20.450946222932544,34.85969627373561 20.232104673516005,35.22800688143616 20.125999679905362,35.93393052624742 19.39652784867212,37.72172937594587 19.131265364558203,39.14886890321213 19.16442317509791,39.55552200479724 18.72674007632304,42.632203785651654 18.70684539002832,43.61426036909688 19.270528168737656,49.0 19.668421894835774,48.95396966365661 19.350106913945638,46.16908215303556 19.42305409704568,46.023313864432566 19.03842349513434,43.867444762407104 19.03842349513434,42.68591033502162 20.106104993610643,35.13592939788941 20.25863092194777,34.852023116989585 20.19231530095567,34.56811576894688 20.623366837593494,31.821065227624786" stroke="#4DD2FF" stroke-linecap="round" stroke-linejoin="round" stroke-width="0.5"><title>2025-10-28 5.1km</title><desc>1761655486000</desc></polyline><polyline fill="none" points="40.5463375277177,31.0 40.48780136401183,31.30856526975549 40.604873691365356,31.767647804270382 40.36422501844936,33.88240109736216 39.98699196364032,35.515461081580725 40.05203214546782,35.7111248396468 39.466670508671086,39.308235695985786 39.48618256323971,39.737168222993205 39.02439727197634,43.048142764368095 39.629270963341696,48.992475829902105 39.915447763574775,49.0 39.98048794543138,48.90970990831556 39.36260621767724,42.8675479677986 39.90243972718599,39.511414570966735 40.22113661837648,36.65180876952945 40.481297345802886,35.206913336100115 40.58536163682584,35.086504111204704 40.51381743676029,34.845685074222274 40.79349021881353,32.79869164972479 40.97560272802366,32.158994603407336" stroke="#4DD2FF" stroke-linecap="round" stroke-linejoin="round" stroke-width="0.5"><title>2025-10-26 5.1km</title><desc>1761476985000</desc></polyline><polyline fill="none" points="60.2356706772116,49.0 60.37278816208709,48.980167116627854 60.4327770617092,48.25626411621488 60.672732660284964,47.95876817567478 61.538286783674266,42.04832748921035 61.60684552608291,39.53925700086256 61.12693432898959,36.69292105444765 60.72415171712055,32.636500880660606 60.244240519969026,31.694276454225474 60.28708973398898,31.585176195825625 60.72415171712055,31.644685442806804 60.621313603478484,31.029754806550045 58.41029415951925,31.426484693060047 58.35030525986804,33.67789623672434 58.418864002334885,31.41656646557385 59.352976868191035,31.13885568621481 60.544185018196,31.0 60.707012031489285,31.1983652054696 60.69844218873186,31.664521850383608 60.295659576833714,31.545503344335884 60.244240519969026,31.664521850383608 60.552754861011636,32.13067626746488 60.7927104595874,32.934043545494205 60.99838668690063,35.76065359596396 61.58970584050985,39.450000340424594 61.64969474013196,41.056607735059515 60.621313603478484,48.46451073503704" stroke="#4DD2FF" stroke-linecap="round" stroke-linejoin="round" stroke-width="0.5"><title>2025-10-25 5.0km</title><desc>1761405216000</desc></polyline><polyline fill="none" points="80.42346941085998,31.0 80.5081632930378,31.70108673811046 80.37786501279334,32.89970355779951 80.10423862421885,34.83704955071153 79.89576137578115,35.50794746092288 79.95439560190425,35.71901521203108 79.36805334070232,39.29199961258564 79.40714282481349,39.631198051596584 78.94458392984234,42.81205020267953 78.95109884385602,43.70899571963673 79.04882255406119,43.96526387659833 78.9576137578697,44.048173973249504 79.54395601904253,49.0 79.88924646176747,49.0 79.91530611782218,48.653307560998655 79.61562007322209,46.264100425643846 79.66122447131784,46.08321094983694 79.31593402859289,43.96526387659833 79.32244894260657,42.638689735220396 79.83712714965804,39.5105943397939 80.22150707646506,36.2919103672466 80.50164837902412,35.08581015760137 80.44301415293012,34.87474060537352 80.72315545548918,32.76401205964066 81.02935641410295,32.22124358529982 81.05541607018677,31.71616379948682" stroke="#4DD2FF" stroke-linecap="round" stroke-linejoin="round" stroke-width="0.5"><title>2025-10-23 5.2km</title><desc>1761220332000</desc></polyline><polyline fill="none" points="99.76546649236116,48.45722904626018 99.81985107384389,47.92232061498362 99.96940867291414,47.788592929668084 100.20054314419394,45.89278147974983 100.29571616178146,45.798383015622676 100.744388958934,42.368494068970904 100.77158124968992,41.33005734877224 100.35010074326419,38.600161024827685 100.07137976316153,35.610538720633485 99.66349540208466,34.76870317724388 99.70428383818944,34.674291143222945 100.0509855451237,34.737232512037735 99.89462987336447,33.16368293099367 99.581918529846,32.786026269466674 99.59551467525307,31.873348393346532 99.22841875028098,31.0 99.57512045718613,31.810404694675526 99.54792816645931,32.738819057172805 99.88783180070459,33.13221161293768 100.02379325439688,34.721497174628894 99.69068769284058,34.61134972322179 99.64989925673581,34.75296784622333 99.87423565529753,35.08340912525455 100.05778361781267,35.68134690012084 100.34330267054611,38.68670100298914 100.75118703165208,41.33005734877224 100.63561979599763,43.27318137000111 99.88103372801561,48.44936277256784 99.60231274794205,48.45722904626018 99.67029347480275,48.693216885039874 99.581918529846,49.0" stroke="#4DD2FF" stroke-linecap="round" stroke-linejoin="round" stroke-width="0.5"><title>2025-10-21 5.1km</title><desc>1761051395000</desc></polyline><polyline fill="none" points="121.0126269380562,31.106521599453117 120.72988045535749,31.0 120.52603996780817,31.281521040968073 120.45370947223273,32.483680063145584 119.93424500402762,35.33682833637431 119.99342450039694,35.51942612497078 119.40820503619034,39.20171985210618 119.44108253417653,39.60493523449986 118.9873730619438,42.89144005118578 119.59231902493048,49.0 120.20384048752021,48.901110716338735 119.94739600320463,48.825041947835416 119.34245004021795,43.08923435230099 119.68437601928599,40.122264999125036 119.88164100726135,39.41473956988193 120.41425647464348,35.24552927513287 120.55234196622041,34.94119826715905 120.49973796942504,34.66729930260772 120.80221095093293,32.44563735180418" stroke="#4DD2FF" stroke-linecap="round" stroke-linejoin="round" stroke-width="0.5"><title>2025-10-19 5.0km</title><desc>1760870639000</desc></polyline><polyline fill="none" points="142.8748728786013,31.63629756296723 143.03294149046997,31.590021502044692 143.10209650819888,31.20824324851128 141.97585764853284,31.0 141.74863401893526,31.150397941702977 141.32382462447276,32.06435019295168 141.49177252466325,32.73534822323563 140.8594980771304,33.383204463090806 141.08672170672799,33.672424753021915 140.10867217066698,32.81633046421484 139.54555274086306,32.469263292667165 139.37760484073078,32.63122811052017 139.06146761699347,32.34200505231274 137.14488569786772,35.77792528907594 137.14488569786772,36.61085930695117 137.52029865107033,37.20085037785611 140.41493010619888,38.88982673395367 138.69593395193806,49.0 140.28649935900467,39.30628262775281 137.45114363339962,37.698291343753226 136.89790349180112,37.02732392444159 136.98681708594086,36.44890041400504 139.01207117573358,32.38828079330415 139.92096569406567,33.07084568625578 140.29637864726828,32.94358814966836 141.0966009949334,33.6492871581213 140.8496187888668,33.325360312832345 141.49177252466325,32.71221042901743 141.27442818327108,32.06435019295168 141.69923757773358,31.185105129508884 141.93634049559478,31.0 143.07245864346623,31.16196700555156 143.09221721993526,31.32393376989785" stroke="#4DD2FF" stroke-linecap="round" stroke-linejoin="round" stroke-width="0.5"><title>2025-10-18 5.0km</title><desc>1760792768000</desc></polyline><polyline fill="none" points="160.42522787948838,31.0 160.5531159635575,31.11098773541744 160.48277751731803,31.72511681359174 160.56590477196733,32.13206696400448 160.14387409458868,34.98065434300952 159.94564756428008,35.72052894018998 160.01598601051955,35.898097725097614 159.4468840364716,39.41978919109533 159.47246165332035,39.78970488326013 159.03764216750278,42.91911647303641 159.06321978432243,44.12497678431828 159.60034973733127,48.963013191380014 159.95204196847044,49.0 159.98401398950955,48.86684740111377 159.6770825877902,45.885644951638824 159.37654559026123,44.01400887784985 159.37015118604177,42.86733061391715 159.6770825877902,40.5961145809124 159.90088673486025,39.39019585456845 159.990408393729,39.39019585456845 159.8753091180988,39.323610803425254 160.3037341996387,36.23103802994592 160.43162228370784,35.48376988686505 160.5531159635575,35.320997591239575 160.48277751731803,35.084237239090726 160.77052570643718,32.886768496107834 160.96235783252632,32.48722160048783" stroke="#4DD2FF" stroke-linecap="round" stroke-linejoin="round" stroke-width="0.5"><title>2025-10-16 4.6km</title><desc>1760619242000</desc></polyline><polyline fill="none" points="179.7656063369941,49.0 179.77260316276806,48.45754932039563 179.95452063257108,48.23085241978697 180.64020955716842,43.56723019464698 180.75215876934817,41.470130522611726 180.01749206442037,35.68055330423522 179.6256698218058,34.878886363199854 179.71662855669274,34.741225571553514 180.03848254171317,34.78981176049274 179.88455237494782,33.21884330229659 179.5417079126346,32.7896558077191 179.5836888672202,31.979861782201624 179.21985392761417,31.0 179.56969521570136,31.834097983009997 179.5626983899565,32.80585160422925 179.88455237494782,33.21884330229659 180.0314857159392,34.78171406438196 179.75161268550437,34.72503016865085 179.63966347332462,34.814104843833775 180.03848254171317,35.63196765874454 180.26937779181753,38.15028456867003 180.78014607238583,41.704943655393436 180.78014607238583,42.56322025186091 180.28337144336547,46.19055128774198 180.0734666704957,47.34025120863953 179.75860951124923,47.79364943283872 179.83557459461736,48.36848990065482 179.6606539505883,48.96761498844717" stroke="#4DD2FF" stroke-linecap="round" stroke-linejoin="round" stroke-width="0.5"><title>2025-10-14 5.0km</title><desc>1760442162000</desc></polyline><polyline fill="none" points="20.590672441845527,53.0 20.51320720356307,53.522883715202624 20.61003875141614,53.918778911327536 20.56485069572227,54.35948992386693 20.203346250462346,56.66757733162376 20.016138591308845,57.14561874006904 19.91285160696134,58.60960121928656 19.428693867725087,61.39556899483432 19.473881923418958,61.75407728993014 19.015545930276858,65.07019617006154 19.596535217337077,70.98506406692468 19.91285160696134,71.0 19.96449509912054,70.85810851336282 19.344773192948196,64.92082466166175 19.770832003443502,61.74660838495038 19.887029860838084,61.61216796544613 20.274356052221265,58.25854685304512 20.54548438618076,57.205373697586765 20.47447458442184,56.98129235650413 20.752058354904875,54.971999146997405 20.984454069723142,54.0980515063784" stroke="#4DD2FF" stroke-linecap="round" stroke-linejoin="round" stroke-width="0.5"><title>2025-10-12 5.0km</title><desc>1760269757000</desc></polyline><polyline fill="none" points="40.61156118646613,53.0 40.62450428036391,54.32544108592265 40.249154557444854,56.84895511166542 40.10030897764955,57.14847626286064 40.08736588375177,57.92722555983346 39.52434129937319,61.35661976530537 39.55669903414673,61.723510571617226 39.110162294789916,64.87570124598278 39.110162294789916,65.75170180210989 39.68612997306627,71.0 40.06147969598533,70.94010712039017 39.420796548220096,65.01047123972239 40.51448798229103,57.34316435844812 40.63744737426168,57.16345228847058 40.579203451721696,56.89388336194679 40.889837705210084,54.66241383264423" stroke="#4DD2FF" stroke-linecap="round" stroke-linejoin="round" stroke-width="0.5"><title>2025-10-11 5.0km</title><desc>1760186515000</desc></polyline><polyline fill="none" points="60.584292312763864,53.0 60.603554696717765,53.661242225862225 60.68702502711676,53.787546240506344 60.64207946459646,54.54536574674421 60.26967337512178,57.00451024670474 60.13483668756089,57.24224792933819 60.13483668756089,57.933168682553514 59.64043549983762,61.26881253547617 59.537702785484726,61.4693920607242 59.569806758721825,61.93740881382837 59.14603431211435,64.9831589716996 59.34507894614944,67.79107969695178 59.743168214161415,71.0 60.17978225008119,70.96286052370851 59.537702785484726,66.08999773445248 59.47991563368123,64.91630240272934 59.90368808031781,61.89283591874846 60.0256831785955,61.63282682272256 60.46871800912777,58.000031634837796 60.67418343780446,57.27939437243913 60.609975491359364,57.049086121071014 60.85396568788565,55.37747223654151" stroke="#4DD2FF" stroke-linecap="round" stroke-linejoin="round" stroke-width="0.5"><title>2025-10-10 5.0km</title><desc>1760093219000</desc></polyline><polyline fill="none" points="80.26169220267911,71.0 81.40659558941843,62.558792945848836 81.3248167760903,60.84585372029687 80.74418720137328,56.21792108262889 81.0058794040524,56.63434979901649 80.99770152271958,55.564881389655056 81.63557626673719,55.72577565238316 80.98952364138677,55.55541701258335 80.95681211605552,56.161135204238235 81.14490338671021,56.60595699114492 80.77689872670453,56.823634963344375 80.82596601473051,57.29684619026375 80.40889406669885,57.344167180664954 80.03271152536036,54.48593620691099 79.60746169596678,53.70984509639675 79.66470686535467,53.54894734903064 80.0572451693588,53.66252225840435 80.03271152536036,53.113575579205644 79.869153898675,53.0 78.36442373326281,53.24608024649933 79.86097601731308,53.04732317484013 80.04906728799688,53.21768640508526 80.0654230506916,53.63412854405033 79.67288474665838,53.53001818397024 79.63199533999432,53.70038053073222 80.11449033868848,54.78879927516391 80.4416055920301,58.40415106108412 80.89138906536391,61.139232288369385 80.9486342347227,62.41683785411442 80.09813457599375,68.53017443662975" stroke="#4DD2FF" stroke-linecap="round" stroke-linejoin="round" stroke-width="0.5"><title>2025-10-08 5.0km</title><desc>1759920144000</desc></polyline><polyline fill="none" points="100.6522112149396,53.0 100.64151922782185,54.051619571044284 100.82328300911468,54.10110732708563 100.72705512493849,55.33829469135526 100.1176118584699,59.48278077421128 99.90377211582381,59.97763535741251 99.75408429605886,62.34053826719901 99.18740897811949,66.11366513749817 98.93080128694419,66.91775903272355 98.9735692354152,67.57340089532954 98.49242981459247,71.0 98.94149327406194,66.93012966657989 99.05910513253184,66.73219937422982 99.68993237323593,66.73219937422982 100.55598333076341,60.64568585500092 100.80189903482096,60.02712070514826 100.70567115064478,59.655980107076175 101.31511441711336,55.177461044899246 101.50757018540753,55.00425534185342" stroke="#4DD2FF" stroke-linecap="round" stroke-linejoin="round" stroke-width="0.5"><title>2025-10-07 3.0km</title><desc>1759844077000</desc></polyline><polyline fill="none" points="120.62539861560799,53.0 120.70276751648635,53.04476303512638 120.61250379876583,53.611759117666224 120.7156623332994,53.64906133803015 120.65118824923411,54.45478467189969 120.29658078678767,56.86444151183241 120.14829039337928,57.19268585972168 120.03868445043918,58.7294467011161 119.68407698802184,61.12404391678865 119.56157622821047,61.37767269397591 119.60670808711438,61.750654598763504 119.16828431535396,64.6896857433021 119.14249468172784,65.76382006708445 119.72276143843192,71.0 120.10315853453358,70.94778922160913 119.8065777477459,68.29990823429398 119.85815701499814,68.09105722273671 119.49710214417428,66.0845654656805 119.47131251051906,65.21183633473265 120.85750531830126,55.42462510673067" stroke="#4DD2FF" stroke-linecap="round" stroke-linejoin="round" stroke-width="0.5"><title>2025-10-06 5.0km</title><desc>1759755043000</desc></polyline><polyline fill="none" points="143.73479171463987,70.89656125801412 143.7965967784403,71.0 144.42347671161406,70.85518573033914 144.57357472385047,70.58624437088292 143.84074325265829,68.9518923999276 143.95552408549702,68.79673097288469 142.68410562939243,66.04516048127698 142.0660549910972,65.22794971503754 141.84532262024004,64.44176577728649 141.84532262024004,63.04523913684534 143.29332697292557,62.66248388355598 143.3021562678041,62.38317504360748 140.21190307603683,59.714183378186135 138.30477539193816,57.458931670495076 137.94277430378133,56.786484094001935 135.99150014552288,54.386325524894346 135.42642527620774,53.0 136.22106181120034,54.6035837004747 137.70438334328355,56.32094073515327 138.35775116091827,57.407205099239945 140.55624557455303,59.9003944802389 141.74820037704194,60.67627022733359 143.11674107628642,62.207313509883534 142.99313094862737,62.46593330218457 141.527468006243,62.79696563098696 141.75702967192046,63.24178854535421 141.73937108222162,64.34866462622449 141.91595697891898,65.0831268364127 142.85186223126948,66.60375628779002 143.73479171463987,68.68294576885091 140.71517288155155,69.74838382213784" stroke="#4DD2FF" stroke-linecap="round" stroke-linejoin="round" stroke-width="0.5"><title>2025-10-04 5.0km</title><desc>1759568734000</desc></polyline><polyline fill="none" points="159.80240777714062,53.50442067741824 159.81652150733862,53.28942210126115 159.35076841060072,53.16538419009885 157.01494606173947,53.0 159.3225409502047,53.18192258972704 159.83769210265018,53.339037210193055 159.81652150733862,53.578843122624676 160.26110400876496,54.141143734123034 160.16230789734982,54.25691100109543 160.23287654839805,54.538059358681494 160.40224131083232,54.728247375707724 162.98505393826053,61.36799758615962 159.87297642815975,62.51728644247487 160.23287654839805,64.11303338957077 160.91033559819334,66.27096022650949 161.20672393246787,67.93277102836146 161.714818219858,69.0984976675245 161.5172259969986,69.30518496040895 161.67953389431932,69.5862787954029 161.81361433127313,70.30554367879813 161.7289319500269,70.12366123453103 161.51016913185595,70.05752205820318 161.28434944860055,70.17326557980414 161.22083766269498,70.38821737621765 161.53839659228106,70.95039618311421 161.79950060107512,71.0 161.9688653635094,70.81811918313178 161.9547516333114,70.56183185413829 161.67247702923487,70.09885905000556 161.46782794126193,70.04098725530639 161.305520043883,70.14019601978362 161.24200825797743,70.47089098555443 161.5454534573655,70.95039618311421 161.8488986567536,70.97519809551886 161.99003595882095,70.61970326044684 161.73598881514044,70.16499819111777 161.39020242512925,70.06578945832734 161.22789452777943,70.42128683051124 161.3831455600448,70.77678257440857 161.6230789734982,70.99173269939638 161.88418298229226,70.95039618311421 161.9970928239345,70.74371327157132 161.81361433127313,70.24767203822557 161.52428286205395,70.05752205820318 161.2631788533181,70.181532967581 161.29846317879856,70.60316857734142 161.63013583861175,71.0 161.96180849839584,70.83465382046415 161.9688653635094,70.59490123445721 161.64424956880976,70.09059165341023 161.39020242512925,70.07405685756385 161.249065123091,70.1980677405154 161.33374750433723,70.62797060067533" stroke="#4DD2FF" stroke-linecap="round" stroke-linejoin="round" stroke-width="0.5"><title>2025-10-02 5.0km</title><desc>1759403720000</desc></polyline><polyline fill="none" points="179.62495019313064,71.0 180.0495348801487,68.30598840441962 180.25475081219338,68.18315898112633 180.69348832211108,64.9649613682268 180.7430232022307,63.449989238630224 180.268903635093,60.411770083192096 180.02122923432034,57.67645589262975 179.9150830625731,57.266969726624666 179.58956813588156,56.74282439627859 179.67448507327936,56.61178753072454 180.0070764114207,56.669116185636085 179.85139535949565,55.07208839061059 179.51172760987538,54.65439897367469 179.55418607857428,53.79444335276639 179.2499003862613,53.0 179.5612624900532,53.859964104201936 179.51172760987538,54.629828940516745 179.85139535949565,55.07208839061059 180.0070764114207,56.669116185636085 179.66740866180044,56.619977341055346 179.62495019313064,56.74282439627859 180.03538205721998,57.65188678137201 180.7500996137096,63.68747323912248 180.63687703051255,65.52999773333431 179.90093023964437,70.41043677189737 179.7877076564764,70.41862517959089 179.72401995342807,70.65608864113892" stroke="#4DD2FF" stroke-linecap="round" stroke-linejoin="round" stroke-width="0.5"><title>2025-09-30 5.0km</title><desc>1759224370000</desc></polyline><polyline fill="none" points="19.730379854066996,93.0 19.772398578119464,92.4327499938372 19.933470353629673,92.31929950841004 20.633782421064097,87.67579471338831 20.766841713892063,85.92529340171313 20.059526525757974,79.9360190298321 19.92646723293001,79.39299085007951 19.625333043921273,78.87427391026722 19.674354888673406,78.77701410824375 20.03151404307573,78.83374900717172 19.863439146865858,77.17221024011815 19.527289354475215,76.80747758188954 19.562304957857123,75.94832294592197 19.22615516546648,75.0 19.541295595816337,75.76190137755475 19.534292475145776,76.79937239275023 19.87044226753642,77.2046308400968 20.04552028438775,78.80132906987274 19.961482836282812,78.86616893129394 19.674354888673406,78.76080412969168 19.632336164620938,78.85806395149848 20.04552028438775,79.81444587815349 20.241607663279865,82.25397831849841 20.738829231180716,85.25263684258243 20.773844834562624,86.45206867228262 19.947476594970794,92.48137158103782 19.786404819431482,92.5299931385889 19.70937049202621,92.9108609805262" stroke="#4DD2FF" stroke-linecap="round" stroke-linejoin="round" stroke-width="0.5"><title>2025-09-28 5.0km</title><desc>1759056716000</desc></polyline><polyline fill="none" points="40.54428859255859,75.0 40.58964597526938,75.6298117194674 40.68684036677587,75.63730944564304 40.62852373183705,76.38707821701246 40.23974616575288,78.89125070165028 40.10367401764961,79.18364853528328 40.10367401764961,79.89589482058364 39.52050766849425,83.43453235110064 39.57234467731905,83.75689979613526 39.11229122406803,86.94301394087233 39.138209728494985,88.14245657841093 39.69545757322339,92.94003227640496 40.08423513933667,93.0 39.766733460332034,90.33138915974268 39.82505009527085,90.1664718422544 39.48162991186837,87.92505904631253 39.45571140747052,86.93551736311201 40.4989312098478,79.52102921147161 40.654442236264,79.23613007509994 40.59612560135429,79.01870631001657 40.88770877593197,76.7469645213423" stroke="#4DD2FF" stroke-linecap="round" stroke-linejoin="round" stroke-width="0.5"><title>2025-09-27 5.0km</title><desc>1758971882000</desc></polyline><polyline fill="none" points="59.72638571128482,93.0 59.79654322122224,92.45608108815213 59.978952747012954,92.26124356216314 60.77874836017145,86.13985596117709 60.01403150198166,79.66886058036471 59.62816519738408,78.8812632417903 59.68429120531073,78.7757083689794 59.96492124503129,78.89750244061725 60.028063003963325,78.84066523029469 59.87371648213593,77.24108714931936 59.529944683483336,76.80261852627154 59.56502343848115,75.90131435039075 59.21423588882317,75.0 59.572039189428324,75.88507454222417 59.55099193647038,76.84321757399448 59.90177948612836,77.29792549823469 60.04209450597409,78.83254562551883 59.68429120531073,78.7757083689794 59.66324395238189,78.90562203877926 60.077173260913696,79.87996782517439 60.37183480258682,82.96531772155868 60.78576411117683,85.80698191402189 60.69455934825237,87.41450716850522 59.95790549405501,92.30995298819471" stroke="#4DD2FF" stroke-linecap="round" stroke-linejoin="round" stroke-width="0.5"><title>2025-09-25 5.0km</title><desc>1758803583000</desc></polyline><polyline fill="none" points="80.5345694248681,75.0 80.54104905424174,76.39457586595381 79.97732129713404,79.64848373136192 79.9708416677604,80.65311754227878 79.45895094575826,83.40454460914043 79.49782872211654,83.74940289370716 79.03777503527817,87.11543501838605 79.25808243462234,89.96407281215215 79.64038056874415,93.0 80.00971944408957,92.94003227636858 79.36823613426532,87.07045564542932 80.96222496475093,76.29710636640084" stroke="#4DD2FF" stroke-linecap="round" stroke-linejoin="round" stroke-width="0.5"><title>2025-09-23 5.1km</title><desc>1758638106000</desc></polyline><polyline fill="none" points="99.86069011726067,93.0 99.77710418761126,92.96776003399282 99.79800067003816,92.29877778245282 99.95124154104269,92.15369654965616 100.28558525966946,90.17089310484153 100.77316984932986,85.90689175949956 100.02089648245601,79.65959484272025 99.63082881071023,78.85345615795086 99.71441474035964,78.75671896491986 100.04179296485381,78.78896470904874 99.88855209379108,77.19278463096998 99.55420837519341,76.81388868039357 99.56813936345861,75.84648654937337 99.20593366830144,75.0 99.58207035178202,75.91904211871588 99.56117386932601,76.82195031522133 99.89551758795278,77.17666143591487 99.87462110555498,77.71678668488312 100.05572395314812,78.78090327423706 99.72138023449224,78.7405960879405 99.66565628140233,78.84539472969482 100.08358592967852,79.82082159604761 100.37613668345148,82.91631168380263 100.79406633172766,85.67313080356689 100.67565293141524,87.44647256533062 100.04875845898641,91.5975493656515" stroke="#4DD2FF" stroke-linecap="round" stroke-linejoin="round" stroke-width="0.5"><title>2025-09-21 5.0km</title><desc>1758459157000</desc></polyline><polyline fill="none" points="111.01831129199127,78.37475195724983 111.0,78.90446356074972 111.57680569688091,78.87268094040337 111.73245167854475,78.99981136353017 112.0620549339219,78.8832751482405 114.44252288911957,78.87268094040337 114.653102746699,78.99981136353017 116.3194303154014,78.98921716754558 116.56663275690516,79.10575326441904 117.1525940997526,78.95743457304343 120.22889114962891,78.95743457304343 121.83112919633277,78.98921716754558 122.00508647004608,79.12694163167907 123.17700915568275,79.04218813683838 129.0,79.22228923106013 128.4231943032355,83.56580963526358 128.11190233984962,84.0425264659134 122.03255340800388,84.01074541168782 121.6937945066602,89.62524804275017 121.99593082407955,84.38152377513325 127.33367243135581,84.4133047163632 128.12105798581615,84.56161564741342 128.40488301118603,83.62937200527813 128.6246185147902,81.84961099945212" stroke="#4DD2FF" stroke-linecap="round" stroke-linejoin="round" stroke-width="0.5"><title>2025-09-20 5.0km</title><desc>1758380898000</desc></polyline><polyline fill="none" points="140.6243635523715,75.0 140.50850227460614,75.14151495879923 140.51493901226786,75.6479873094504 140.61149007704807,75.7075720618086 140.55355943820905,76.43748134750058 140.16735517900088,78.97721109895065 139.98068978704396,79.64750632859068 140.01287347532343,80.16139518770797 139.56230183958542,83.22231072484283 139.45287729948177,83.37870443778229 139.49793446302647,83.73617452901817 139.06023630258278,86.90119827391027 139.09241999086225,88.10014806473919 139.62666921608616,93.0 139.9485060987936,92.99255366486614 140.01931021295604,92.90319758416445 139.74253049385152,90.01395897911425 139.40782013587886,87.98099865214317 139.40782013587886,86.7522590429653 140.43769816041458,79.48365694951644 140.5793063887977,79.23043446155498 140.52137574992958,79.021897638253 140.93976369741722,76.2661767597092" stroke="#4DD2FF" stroke-linecap="round" stroke-linejoin="round" stroke-width="0.5"><title>2025-09-18 5.2km</title><desc>1758195038000</desc></polyline><polyline fill="none" points="159.60396677427343,92.8458937524847 159.58994789901772,93.0 159.75116496437113,92.96755660420604 159.8212593405915,92.38357322482625 159.97546696831705,92.27813132595475 160.6834201682941,87.4276533905213 160.78856173268287,86.03247805531282 160.03855190690956,79.70521397983248 159.6390139623545,78.8858777071946 159.7091083386331,78.73174420068972 160.04556134456652,78.80475484616909 159.90537259209668,77.23906746844295 159.54789127327967,76.8172189821853 159.58293846138986,75.92483983356215 159.21143826731713,75.0 159.60396677427343,75.95729015932011 159.58293846138986,76.8253314741014 159.90537259209668,77.21473011639318 160.05257078216528,78.8128671359882 159.7091083386331,78.74796879437054 159.66004227523808,78.87776542481879 159.99649528117152,79.46995987161063 160.12266515841475,80.07026208472962 160.34696716238977,82.60932824826159 160.7815522950259,85.46466715620772 160.78856173268287,86.73006877187436 160.43108041383675,89.33381282278424 160.28388222376816,90.22604202100047 160.10864628318814,90.38826443997095 159.92640090495115,92.05102522452944 159.76518383959774,92.45657138088427" stroke="#4DD2FF" stroke-linecap="round" stroke-linejoin="round" stroke-width="0.5"><title>2025-09-16 5.1km</title><desc>1758026219000</desc></polyline><polyline fill="none" points="180.75403441031813,75.0 180.59291594658862,75.07457414198143 180.5735817309178,75.55184685628774 180.68958702485543,75.68607924797107 180.64447385497624,76.41689574021439 180.26423428056296,78.97469615956652 180.13533950952115,79.19840624316566 179.99355526149157,81.1521119962199 179.56175777863245,83.40402892921702 179.59398147134925,83.80668229299772 179.14929451144417,87.25151525310503 179.75509993510786,93.0 180.109560555371,92.92544406375237 179.48442091600737,86.97563631591038 179.85177101334557,84.26898528364109 180.0322236927459,83.61281243054691 180.38668431297992,80.52573871555069 180.5735817309178,79.39974473546317 180.68314228625968,79.22823420279019 180.6380291164096,78.84792680956889 180.85070548858494,77.4236208282091" stroke="#4DD2FF" stroke-linecap="round" stroke-linejoin="round" stroke-width="0.5"><title>2025-09-14 5.0km</title><desc>1757842188000</desc></polyline><polyline fill="none" points="20.491837817709893,97.0 20.60185417169123,97.97349012749328 20.16178875582409,100.92383551284001 19.97411379904952,101.59026773840014 20.025886200921377,101.8673220589917 19.695837139035575,104.34578870957921 19.45638978036004,105.39405768526922 19.488747531577246,105.79089847931755 19.042210565472487,109.10780496994994 19.262243273406057,111.98283569532214 19.644064737134613,115.0 20.025886200921377,114.91764727800182 19.36578807712067,109.14524098618858 20.957789434527513,98.16069829320622" stroke="#4DD2FF" stroke-linecap="round" stroke-linejoin="round" stroke-width="0.5"><title>2025-09-13 5.1km</title><desc>1757760467000</desc></polyline><polyline fill="none" points="40.6845602170215,97.0 40.65226964073372,98.4123634671414 40.29061518647359,100.88580239901785 40.14853665084229,101.18470177277777 39.987083769461606,102.97060022211372 39.56730627786601,105.42894181154406 39.606054969422985,105.72782272592303 39.153986901568715,108.93324419247801 39.1669031320489,109.76259623710939 39.74167538978509,115.0 40.12270418985281,114.9477025181186 39.864379579608794,112.09369786738534 39.509183240588754,109.99421540850017 39.48335077957017,109.14245099525579 40.52310733566992,101.62557613203535 40.678102101781406,101.19964670958143 40.626437179744244,101.00536229426507 40.846013098431285,99.4734864293714" stroke="#4DD2FF" stroke-linecap="round" stroke-linejoin="round" stroke-width="0.5"><title>2025-09-11 5.0km</title><desc>1757592265000</desc></polyline><polyline fill="none" points="59.639987224916695,114.92719921069511 59.779798011353705,114.85439835482248 59.800769629335264,114.32861241891078 59.96155203375383,114.21536576279323 60.05941958425683,113.64104095492803 60.27612630324438,111.59446956736792 60.70953974119038,109.15954731519741 60.76546405575937,107.476899708563 60.03145742692868,101.6278045622239 59.632996685570106,100.87540011727106 59.70290207880316,100.74595347390277 60.045438505592756,100.77022473557736 59.89164664049167,99.2411207896439 59.54911021370208,98.79613793038152 59.59804398898268,97.98707180973724 59.23453594421153,97.0 59.59105344963609,97.8818926097083 59.55610075304867,98.8365910204302 59.89164664049167,99.20875848379364 60.03844796627527,100.7944959898523 59.69591153948568,100.74595347390277 59.632996685570106,100.85112888769072 59.87067502251011,101.1666542948442 60.066410123574315,101.765340089456 60.367003314429894,104.98522156006948 60.76546405575937,107.59015595259552 60.70953974119038,109.25662205327535 59.87067502251011,114.95146614787518 59.71688315743813,115.0" stroke="#4DD2FF" stroke-linecap="round" stroke-linejoin="round" stroke-width="0.5"><title>2025-09-09 5.2km</title><desc>1757417515000</desc></polyline><polyline fill="none" points="80.62966559786582,97.0 80.57800072830287,97.56793777661369 80.72653722832911,97.60530195025785 80.63612370658666,98.52445464474295 80.29384394569206,100.80360485976416 80.12593311956152,101.25942642801965 79.91281553261797,103.5683808144895 79.53824522826471,105.47377402829443 79.57053577172337,105.8697907370879 79.13784248908632,108.93324419442797 79.12492627170286,109.84478377026971 79.37679251085501,112.18335414879402 79.71907227174961,114.95517358923826 80.09364257610287,115.0 80.0807263586903,114.70862784209021 80.2809277283086,114.52185021105834 80.2809277283086,114.41725453061372 79.97093851087266,114.1931204291177 79.47366414126009,109.12750767386751 80.45529666310176,102.04403070845001 80.66841425007442,101.30426118378819 80.6038331630989,101.02030726904195 80.87507372832624,99.05501723112684" stroke="#4DD2FF" stroke-linecap="round" stroke-linejoin="round" stroke-width="0.5"><title>2025-09-07 5.0km</title><desc>1757247375000</desc></polyline><polyline fill="none" points="99.5256644608744,114.94265544975497 99.68849606389995,115.0 99.73097387334565,114.4265526622039 99.9362832858169,114.11525097064441 100.61592823735555,109.56847084360197 100.74336166577996,107.83161506291071 99.97168146035983,101.51471545678942 99.56106263547554,100.73633428722678 99.63185898459051,100.62981838441192 99.97168146035983,100.68717311880027 99.82300912719802,99.08941881715145 99.49026628633146,98.65515191567101 99.5256644608744,97.83577402903029 99.25663833422004,97.0 99.5256644608744,97.75383578204492 99.49734592126333,98.6469581780475 99.83008876210079,99.04025664390065 99.99292036509723,100.6707860559909 99.61769971478498,100.60523777145136 99.58230154018383,100.71994723441458 99.84424803190632,101.11323558195 100.01415926983464,101.71135793098802 100.26902612665435,104.48888162234653 100.73628203087719,107.66775881198555 100.73628203087719,108.6426985995713 100.24778722194606,112.13272251950548 99.8938054763421,114.36101556386711 99.73097387334565,114.59039517493511" stroke="#4DD2FF" stroke-linecap="round" stroke-linejoin="round" stroke-width="0.5"><title>2025-09-04 5.0km</title><desc>1756985562000</desc></polyline><polyline fill="none" points="120.53199489347753,97.04504300308326 120.60984780464787,97.0 120.65526200289605,97.10510029779834 120.62931103250594,97.55552845207421 120.70067620111513,97.55552845207421 120.6487742603058,98.36629220977193 120.29843615976279,100.6483942812265 120.06487742604804,101.56421805726859 120.09731613902841,101.92453905446746 119.53937027516076,105.3625135467737 119.57180898822844,105.67777831109561 119.13064249118906,108.7853161730527 119.16956894681789,110.30901284753782 119.70156384026632,114.9924946582978 120.00648774259025,115.0 120.0713651686383,114.90993584925309 119.76644126628526,112.25299404140969 119.8442941775429,112.08036457510025 119.63668641421827,111.10462523026945 119.44854187872261,109.04802473708696 119.80536772191408,106.24825398997928 119.99351225740975,105.53515870333649 120.34385035798186,102.41997755683406 120.53848263603868,101.28646942276828 120.6487742603058,101.13633459104312 120.58389683428686,100.93365208435716 120.86935750881094,98.80920569004229" stroke="#4DD2FF" stroke-linecap="round" stroke-linejoin="round" stroke-width="0.5"><title>2025-09-02 5.1km</title><desc>1756811867000</desc></polyline><polyline fill="none" points="140.52250557861407,97.0 140.496380299679,98.32256637187675 140.15022035382572,100.73335542801942 139.93468680261867,101.55708675743517 139.94121812234516,102.19943972120382 139.4121812240046,105.41867808219104 139.0007080808282,109.0533783902647 139.02683335970505,110.15659949354449 139.54280761867994,114.38042500505253 140.05225055781193,115.0 139.93468680261867,114.93955388607719 139.84324832636048,114.22175253045862 139.64730873439112,112.34788057651895 139.69955929223215,112.15897957621928 139.35339934640797,109.94502411117719 139.34033670692588,108.87958179371344 140.39187918396783,101.44372977629973 140.53556821809616,101.14144364873937 140.61394405487226,99.8340420017048 140.9992919191427,97.74819757926161" stroke="#4DD2FF" stroke-linecap="round" stroke-linejoin="round" stroke-width="0.5"><title>2025-08-31 5.1km</title><desc>1756640573000</desc></polyline><polyline fill="none" points="160.57920327529428,97.0 160.63744718005182,98.45274208266346 160.2362113916024,100.9612756864808 160.10030894711963,101.18591632167227 160.03559349736315,101.6351955381615 159.9773495926056,102.78084514540387 159.61494307397516,105.2592810823262 159.51786989934044,105.42400801015901 159.5566991691885,105.78341093871131 159.11663411089103,108.86821401750058 159.14252029079944,110.14103204247658 159.65377234385232,114.58074882145593 160.14560976193752,115.0 160.04206504236208,114.83529446410103 159.7896747883351,111.96786186834652 159.47256908455165,110.05867389396735 159.47256908455165,108.64359679102199 159.97087804763578,105.61868481394049 160.33975611120695,102.4588669893783 160.63744718005182,101.22335636096977 160.59214636523393,100.9388115853144 160.88336588910897,98.7672494843282" stroke="#4DD2FF" stroke-linecap="round" stroke-linejoin="round" stroke-width="0.5"><title>2025-08-30 5.0km</title><desc>1756550382000</desc></polyline><polyline fill="none" points="179.63616520838696,114.99190374834143 179.88105401041685,115.0 180.66469817704638,109.55103658699954 180.77664734367863,107.72923463044572 180.3148570312478,104.47417807111924 180.11894598955405,102.0125544224793 180.0000000000291,101.47001529365662 179.64316203127964,100.91127710370347 179.69213979170308,100.78171406496404 180.05597458334523,100.83839792034269 179.88105401041685,99.1945497326742 179.55920015624724,98.8625368664143 179.58019062504172,97.88268594590772 179.22335265629226,97.0 179.5871874479344,97.92317589218874 179.54520651043276,98.8220473977708 179.88105401041685,99.21884330269677 180.04198093750165,100.82220253721607 179.69213979170308,100.78981176106026 179.64316203127964,100.8950817353907 179.93702859376208,101.35664844168059 180.12594281250495,102.13401790019998 180.3288506770914,104.68470814086322 180.77664734367863,107.61587668731954 180.69268546873354,109.33242255208461 179.97900953123462,114.23085241995432" stroke="#4DD2FF" stroke-linecap="round" stroke-linejoin="round" stroke-width="0.5"><title>2025-08-28 5.0km</title><desc>1756381580000</desc></polyline><polyline fill="none" points="20.609027174388757,119.0 20.757256010518176,119.76811003351759 20.73147708250326,120.46909664043778 20.331903698242968,122.97469616110902 20.19011959413183,123.2356911924071 20.170785398135195,124.05595524932869 19.60364898177795,127.39657236682251 19.648762105818605,127.82159534034872 19.216965061525116,130.63265024788416 19.18474140149192,131.77344554387673 19.28785711355158,131.8927433747158 19.249188721529208,132.37738881937548 19.738988353841705,136.60485267570039 20.280345842184033,137.0 20.106338078068802,136.84343244656338 19.506978001678362,131.90765558993735 19.48119907369255,130.94581150582962 19.925885581964394,127.80668229520961 20.03544602607144,127.65009513837867 20.138561738102,126.33773250403465 20.589692978421226,123.75767847098177 20.55746931838803,123.407201707676 20.679919226444326,123.2431481796666 20.628361370414495,123.0194382323898 20.815258598537184,121.7368213738664" stroke="#4DD2FF" stroke-linecap="round" stroke-linejoin="round" stroke-width="0.5"><title>2025-08-26 5.0km</title><desc>1756206850000</desc></polyline><polyline fill="none" points="40.566260415362194,119.0 40.57920351056964,119.61404911642603 40.68274827225832,119.63651423098781 40.62450434381026,120.40032405162492 40.26209767797263,122.88639532199886 40.13913827348733,123.16345228834689 39.99029267858714,124.84823574349866 39.543755893886555,127.38657010345196 39.47256887023104,128.562111272302 39.14251994242659,130.77087996923365 39.20076387087465,132.440515442795 39.699073036405025,136.89518742878863 39.718487679201644,137.0 40.10678053548327,136.955080344851 39.8285039884795,134.05021788403246 39.48551196543849,132.07364810892614 39.45315422740532,131.07036893548502 39.86733327410184,128.0080368784038 40.01617886900203,127.5812470061137 40.5144880345033,123.50041206009337 40.6633336294326,123.20089233903127 40.61156124860281,122.9612756858769 40.85748005754431,121.09673198908422" stroke="#4DD2FF" stroke-linecap="round" stroke-linejoin="round" stroke-width="0.5"><title>2025-08-24 5.0km</title><desc>1756042259000</desc></polyline><polyline fill="none" points="59.77052801739774,137.0 59.9713160021638,136.70957506886043 60.666902949422365,131.97135386590526 60.7959809396707,129.88844107749173 60.41591796846478,127.49012108822353 60.03585499728797,123.83026516121754 59.61993702885229,122.98374450433766 59.720331021235324,122.8675547093153 60.0286839978362,122.90075181049178 59.87092200978077,121.27407797389606 59.52671403589193,120.8840034078894 59.584082031506114,120.04575175572973 59.19684806087753,119.0 59.5625690331799,119.88805988865352 59.54105603476637,120.89230288613908 59.88526400868432,121.29897628714389 60.05019699619152,122.90905108365405 59.964145002741134,122.9920437690671 59.66296302553383,122.88415326158429 59.66296302553383,123.00034303295979 59.94263200435671,123.5065965349786 60.10039399238303,124.1207359124528 60.28683997827466,126.3780733771273 60.80315193909337,129.97142666717264 60.68841594780679,131.86347522555297 59.89960600761697,136.9336172496769" stroke="#4DD2FF" stroke-linecap="round" stroke-linejoin="round" stroke-width="0.5"><title>2025-08-23 5.0km</title><desc>1755956696000</desc></polyline><polyline fill="none" points="80.63547006476438,119.0 80.64198770644725,119.49775452424365 80.72671704844106,119.58825498821534 80.69412883999757,120.34242122989963 80.30307033855934,122.77078446850646 80.15968222139054,123.07998029737064 79.8272824951855,126.17940878979425 79.6578238112852,127.20498193983076 79.54702390253078,127.31055484219542 79.5991650360811,127.68005881842691 79.12989483439014,131.23172774412524 79.72951786985504,136.87936098423233 79.74907079493278,136.96984026442078 80.10102344618645,137.0 79.4557769188832,131.08091723063262 80.4269055306795,124.02264255887712 80.55074072279967,123.25343105212232 80.66805827320786,123.11014567511302 80.61591713971575,122.82357409142423 80.87010516558075,120.86279146892048" stroke="#4DD2FF" stroke-linecap="round" stroke-linejoin="round" stroke-width="0.5"><title>2025-08-21 5.0km</title><desc>1755781186000</desc></polyline><polyline fill="none" points="100.50175383381429,119.0 100.52117656290648,120.3934153112059 100.13272198184859,122.89550358931592 99.99676287846523,123.15769355411612 99.9384946913051,123.59966881306173 100.00971136451699,123.81690991843061 99.40760676388163,127.36758761899546 99.44645222200779,127.74212171293766 99.01915218285285,130.8132295452233 99.04504915489815,132.1090488804839 99.58888556837337,137.0 99.9643916633795,136.9325924638615 99.70542194269365,134.09393031309446 99.36876130578457,132.07159777406196 99.3493385767215,130.64095127178007 99.77016437286511,127.77957501771743 99.88022650414496,127.61478033440653 100.32694927236298,123.89182049604278 100.54059929194045,123.17267580965563 100.54707353495178,122.34864723412466 100.98084781714715,119.59183015047165" stroke="#4DD2FF" stroke-linecap="round" stroke-linejoin="round" stroke-width="0.5"><title>2025-08-19 5.3km</title><desc>1755607955000</desc></polyline><polyline fill="none" points="119.80496620378108,136.91134006194625 120.11841337627266,137.0 120.11841337627266,136.4035585078018 120.23682675251621,136.13757639637333 120.38310209970223,134.29985743787256 120.80799715570174,131.5190175207099 120.76620419937535,129.6973130037586 120.29255069431383,126.64223670910724 120.07662041994627,124.12715152443707 119.94427605820238,123.46612230624305 119.60296691491385,122.89376328713115 119.67958733480191,122.75671896518907 120.01393098544213,122.82927187102177 119.86765563828521,121.32177007346036 119.50545001678984,120.83001194937242 119.53331198764499,119.87873347735876 119.19200284429826,119.0 119.56117395855836,119.91904211878864 119.51938100220286,120.82195031536685 119.84675916010747,121.17666143608949 120.01393098544213,122.82121044032101 119.66565634938888,122.77284183888696 119.630828885769,122.87764043802599 120.03482746361988,123.80469893578265 120.24379224525183,126.23112247014069 120.75923870666884,129.79404172927025 120.75227321393322,130.62429177048762 120.23682675251621,134.19507393342064 120.08358591265278,134.26761637432355 119.98606901455787,134.50942403145018 119.80496620378108,135.69427089524834" stroke="#4DD2FF" stroke-linecap="round" stroke-linejoin="round" stroke-width="0.5"><title>2025-08-17 5.0km</title><desc>1755429603000</desc></polyline><polyline fill="none" points="139.74111752575845,136.9595187335217 139.65015881863656,137.0 139.75511117302813,136.89474866437376 139.87405717471847,135.11355112918682 139.97201270548976,134.49012258402945 140.29386659237207,134.2229374284434 140.28686976872268,133.60759851037437 140.72067283361685,131.1623889988623 140.7836442462867,130.0612105356122 140.02099047086085,123.67245569921215 139.6221715240972,122.89508173525246 139.69913658400765,122.80600715063338 140.03498411813052,122.83030022904859 139.88805082195904,121.25933256946155 139.55220328780706,120.83824318762345 139.57319375872612,119.92317589215236 139.2163557537424,119.0 139.59418422961608,119.93937186490803 139.54520646418678,120.79775370663992 139.88105399830965,121.19454973259417 140.0489777654002,122.82220253706328 139.69213976038736,122.78171406481852 139.64316199498717,122.9031794198163 140.06297141264076,123.7696269111475 140.7836442462867,129.6806526743676 140.77664742263732,130.64418926530925 140.30786023961264,134.0933927880178 139.9580190582201,136.32800831341592 139.8110857620777,136.4413567061274 139.7621079966775,136.78140091669047" stroke="#4DD2FF" stroke-linecap="round" stroke-linejoin="round" stroke-width="0.5"><title>2025-08-16 5.1km</title><desc>1755350047000</desc></polyline><polyline fill="none" points="159.8950004176586,136.9514006132158 159.64300141998683,137.0 159.7620009466482,136.8785014774985 160.09799961023964,134.36749054866232 160.28699885844253,134.27028853527736 160.24499902548268,134.00298238729738 160.7489970208262,131.03015358735865 160.78399688162608,129.7421633565391 160.0279998886108,123.69076077497448 159.6500013921468,122.92923980825435 159.72700108584831,122.78341581407585 160.03499986079987,122.8320238417873 159.88100047333864,121.23604476632318 159.55200178193627,120.86337499705405 159.60100158702699,120.06131892801204 159.20900314621395,119.0 159.5730016984162,119.85067660131608 159.56600172625622,120.82286730838678 159.88100047333864,121.20363876863848 160.06299974943977,122.82392250589328 159.69900119723752,122.79151715409535 159.66400133643765,122.9049358277698 159.96500013920013,123.39101402905362 160.09099963805056,123.87708926485357 160.31499874708243,126.47754140741017 160.7559969930153,129.41003671350336 160.79099685378605,130.5846247303416 160.25899896983174,133.9948821869839 160.30099880276248,134.2378878378222 160.07699969375972,135.48530518261396 159.8950004176586,135.89840662368078" stroke="#4DD2FF" stroke-linecap="round" stroke-linejoin="round" stroke-width="0.5"><title>2025-08-14 4.9km</title><desc>1755170321000</desc></polyline><polyline fill="none" points="180.73526035586838,119.01505828869995 180.57909886431298,119.0 180.62464596604696,120.36276273598924 180.24725569484872,122.92258078528539 180.11061438979232,123.19361516665231 180.11061438979232,123.90131137813296 179.7267173897999,126.60404642499634 179.60308954239008,127.34182326922019 179.50548861018615,127.40204962618736 179.5640491695085,127.7784632484545 179.11508488139953,130.87251079228008 179.1541252542811,132.18988843089755 179.7006904745649,136.93978143978165 180.07157401691074,137.0 179.4339145932463,131.03812526767433 180.49451138975564,123.52487806438148 180.64416615245864,123.2162013203415 180.57909886431298,122.95269576551073 180.88491511857137,120.81450175839564" stroke="#4DD2FF" stroke-linecap="round" stroke-linejoin="round" stroke-width="0.5"><title>2025-08-12 5.0km</title><desc>1754999139000</desc></polyline><polyline fill="none" points="20.485360699618468,141.0603087970594 20.570054512965726,141.0 20.57656942171161,142.27401291723072 20.172645081067458,144.86720239714487 20.035831997956848,145.12350108713872 19.899018914846238,146.86480110110278 19.469034939305857,149.38999043372314 19.0325360550778,153.030634564333 19.07162550740759,154.14615851492272 19.527669117815094,157.9222334161168 20.003257454372942,159.0 19.364796399779152,153.0758588343233 20.329002890357515,146.11853466997854 20.563539604248945,145.15365381597076 20.50490542576881,144.94258445667947 20.778531592019135,142.9072419677468 20.9674639449222,142.1383202746947" stroke="#4DD2FF" stroke-linecap="round" stroke-linejoin="round" stroke-width="0.5"><title>2025-08-10 5.0km</title><desc>1754830447000</desc></polyline><polyline fill="none" points="39.744040294666775,159.0 40.71879095339682,153.1979184644806 40.78190430541872,151.83457099948282 40.2629723000573,148.23944193188072 40.01753148669377,145.6180606555863 39.62482618531794,144.9200932334861 39.68092694267398,144.77400625642622 40.03856927069137,144.84704977838555 39.884292188013205,143.24007685336983 39.54768764399341,142.842386640099 39.56872542796191,141.93337299676932 39.21108309994452,141.0 39.582750617322745,141.965837948017 39.554700238630176,142.85050278672134 39.884292188013205,143.24819295953057 40.052594459994,144.82270194516605 39.694952131976606,144.80647005221545 39.65287656398141,144.89574542255286 40.052594459994,145.75603023749863 40.37517381471116,148.94549585680943 40.75385392672615,151.26650268438243 40.78891690005548,152.55682344923116 39.97545591866947,158.3183787094531 39.75105288930354,158.55370100304572" stroke="#4DD2FF" stroke-linecap="round" stroke-linejoin="round" stroke-width="0.5"><title>2025-08-09 5.0km</title><desc>1754735080000</desc></polyline><polyline fill="none" points="60.54051077715121,141.0 60.579583845392335,142.2659443807861 60.32560890191235,144.2552418919222 60.0,145.62662046950572 59.928366041596746,146.86988133261912 59.49205011304002,149.41661731127533 59.51809882521047,149.80841508629237 59.075270718632964,152.79203795787907 59.06224636253319,153.8166888406122 59.62229367380496,158.5781161152554 60.05860960233258,159.0 59.420416154607665,154.08791758801817 59.452977044828,152.48313307743229 60.38421850424493,146.07871773993975 60.50143770893919,145.34782577912847 60.61214473558357,145.2046605308933 60.560047311271774,144.8957240536838 60.93775363746681,142.34129753154411" stroke="#4DD2FF" stroke-linecap="round" stroke-linejoin="round" stroke-width="0.5"><title>2025-08-07 5.0km</title><desc>1754570205000</desc></polyline><polyline fill="none" points="80.3119554911973,141.0 80.35220781262615,141.51234840384132 80.4863822174666,141.56668818454636 80.43942117580445,141.93153999677452 80.80169206880964,141.9858794793181 80.8419443902385,142.31967830981012 80.47296477700002,144.1671896489861 80.36562525312183,145.15302826082916 80.43942117580445,145.41695140008233 80.32537293169298,145.52562536891492 80.11069388396572,146.7908894878783 79.16476432996569,153.66797101492557 79.74842299096053,159.0 79.1580556097324,153.54378541283222 79.57399626469123,150.4002701623176 79.72829683023156,149.97336305776844 80.09727644349914,146.7908894878783 80.28512061026413,145.6187743620394 80.40587757457979,145.4091889678093 80.35891653288854,145.10645349458355 80.72789614615613,142.38954299677425" stroke="#4DD2FF" stroke-linecap="round" stroke-linejoin="round" stroke-width="0.5"><title>2025-08-05 5.0km</title><desc>1754406000000</desc></polyline><polyline fill="none" points="99.72743419441395,159.0 100.03893797221826,156.41945485727047 100.23008801767719,156.27199263979128 100.52743253286462,154.27303374537587 100.74690110358642,152.66727676208393 100.76106036623241,151.66775881296053 100.24424728032318,148.12018929852638 100.04601760357036,145.76051847534836 99.86902682067011,145.14600952499313 99.60000083080376,144.76091486085352 99.6637175125943,144.63801192102983 100.01061944698449,144.6707860566603 99.84778792675934,143.0566440387338 99.51504525501514,142.7043143242554 99.54336378030712,141.7046727940251 99.23893963379669,141.0 99.5504434115719,141.8111925638441 99.51504525501514,142.62237696052762 99.86194718940533,143.0484503419284 100.01769907827838,144.6625925240005 99.92566387122497,144.74452781302534 99.58584156818688,144.6789795884688 100.03893797221826,145.63761706018704 100.3292028560827,148.7428686880594 100.76106036623241,151.69233727183018 100.75398073490942,152.70824034805264 99.92566387122497,158.37739984357904 99.88318608334521,158.51666608552478 99.69911566918017,158.52485820989386 99.62831935600843,158.83615831973293 99.43008967925562,158.81977413339337" stroke="#4DD2FF" stroke-linecap="round" stroke-linejoin="round" stroke-width="0.5"><title>2025-08-03 5.0km</title><desc>1754221111000</desc></polyline><polyline fill="none" points="129.0,149.02613251820185 128.944657955406,149.25560136774948 128.80169100691273,149.2689425182507 125.99308224441484,149.21290964059153 125.91698693312355,149.16488136458065 125.80630284396466,149.210241405337 125.44888547270966,149.2075731698169 125.41890853187942,149.17822256117142 124.78016910068982,149.2155778755714 124.46656418139173,149.16754960444086 123.45426594927267,149.16488136458065 123.01614142965991,149.09550703303648 122.71867794003629,149.0181277546926 122.70023059184314,148.98877693430404 122.2874711760087,148.9754356414578 121.3812451959966,148.8153395986228 120.04842428900884,148.80466649439222 117.26748654879339,149.1515401612105 116.89162182935979,149.32497527635496 116.48808608761465,149.44771328106253 115.40430438124167,150.10675319219808 114.83013066870626,150.39757931046734 114.47732513450319,150.49896747536695 114.26979246732662,150.50163557968153 114.00691775557061,150.4376010012711 113.72790161414014,150.5523295102048 113.63335895464115,150.36556191392992 113.52036894696357,150.44026911182118 113.42813220599783,150.26684136219774 111.85780169100326,151.19533350560596 111.73789392774052,150.89384396581227 111.25365103765216,149.96800932215774 111.20753266717657,149.9359914018969 111.0,150.03738134880223 111.1360491929081,149.93332324011863 111.20292083012464,149.92531875314307 111.22367409683648,149.8586146001253 111.30668716372747,149.86395093859755 111.41737125288637,149.78924210125479 111.44965411222074,149.82659654649797 111.53266717908264,149.77323303703452 111.50499615680019,149.82392837359657" stroke="#4DD2FF" stroke-linecap="round" stroke-linejoin="round" stroke-width="0.5"><title>2025-08-02 8.3km</title><desc>1754134728000</desc></polyline><polyline fill="none" points="140.48112953765667,141.0 140.38425781868864,141.02241867959674 140.32613478729036,141.62772044508893 140.81049338221783,141.62772044508893 140.81049338221783,142.1134528267794 139.19596473241108,152.7987537910376 139.2024228470109,153.92697120822413 139.87406676533283,159.0 139.23471342000994,154.0689311148817 139.18950661778217,152.97060259394493 140.1453075784957,146.14117160694877 140.38425781868864,145.21459164348926 140.31967667269055,145.00536229442514 140.62320805882337,142.80094548353372" stroke="#4DD2FF" stroke-linecap="round" stroke-linejoin="round" stroke-width="0.5"><title>2025-07-31 5.0km</title><desc>1753965181000</desc></polyline><polyline fill="none" points="159.6436138866702,159.0 159.72124254502705,158.34671299291222 159.91884276628844,158.1098951413369 160.63867214368656,153.15289233152726 160.7163008020434,151.3235422143116 160.34932896256214,149.1021325003312 159.96118567083613,145.43503868585685 159.5871566805872,144.71630134607403 159.66478533897316,144.61012369384116 159.97529997234233,144.6509612689988 159.8412141079316,143.02560974576772 159.48129941921798,142.6335602336112 159.52364232379477,141.72693840696593 159.2413562934089,141.0 159.53069947453332,141.7432740259319 159.50247087146272,142.64989566816075 159.8412141079316,143.07461580021481 160.00352857538383,144.63462624143722 159.91178561552078,144.71630134607403 159.629499585164,144.60195617630234 159.60127098212251,144.7244688519786 160.02470002765767,145.66372649071127 160.2717003042053,148.4079293676914 160.7586437065911,151.91155215155595 160.25052885193145,156.141830134271 159.87649986174074,158.48553692626592 159.7424139973009,158.54269965266576" stroke="#4DD2FF" stroke-linecap="round" stroke-linejoin="round" stroke-width="0.5"><title>2025-07-29 5.0km</title><desc>1753797916000</desc></polyline><polyline fill="none" points="180.7720405072323,141.0 180.7590650365164,142.37379924071865 180.4606292101962,144.47573770905728 180.2270707374264,145.17386832929333 180.0713650888938,147.0955701637431 179.6366868201294,149.39253882277262 179.6885887029639,149.79787882238452 179.2603981695138,152.6427025637895 179.2863491109747,154.15139051205188 179.8183434100647,159.0 179.3187877877208,154.78938361408655 179.2279594927968,153.19063756865944 179.6431745555019,149.51263979514624 180.220583002083,145.84196564968443 180.162193383876,145.654298473135 180.441166004166,144.51327178114298 180.7590650365164,141.9759255856843" stroke="#4DD2FF" stroke-linecap="round" stroke-linejoin="round" stroke-width="0.5"><title>2025-07-27 5.0km</title><desc>1753616848000</desc></polyline><polyline fill="none" points="20.514115479774773,163.0 20.533275062858593,164.58145924651035 20.182016039441805,167.07920801223372 20.04151243006345,167.3452353709945 19.84353007140453,169.51775571887993 19.48588452025433,171.49809189040388 19.511430631042458,171.87494080296165 19.04521410903544,174.94877276403713 19.626388129632687,181.0 20.009579791571014,180.94089398662618 19.73495910051861,177.97814355786977 19.42201924326946,175.9019298557323 19.40924618788995,174.79360647435533 20.290587010298623,168.57929400511057 20.58436728446395,167.33784573528828 20.52050200747908,167.04964935674798 20.954785890993662,164.41888090982684" stroke="#4DD2FF" stroke-linecap="round" stroke-linejoin="round" stroke-width="0.5"><title>2025-07-26 5.2km</title><desc>1753529066000</desc></polyline><polyline fill="none" points="40.62126863311278,163.0 40.543610053980956,163.38939759416826 40.647154826147016,163.8911183840828 40.52419540917617,165.07426731954183 40.25239038220025,166.91634747653734 40.110016320453724,167.17842831074086 40.09060167564894,167.9646652222582 39.51463388040429,171.41652042942587 39.559934718185104,171.74597321430338 39.132812532945536,174.88318847393384 39.19105646730168,176.55282140445343 39.70230877996073,181.0 40.07118703087326,180.96256695595366 39.779967359121656,178.24487719286117 39.84468284173636,178.10262620994035 39.47580459082383,175.99128988495067 39.469333042536164,174.9880095908302 40.867187467054464,165.20156702262466" stroke="#4DD2FF" stroke-linecap="round" stroke-linejoin="round" stroke-width="0.5"><title>2025-07-24 5.0km</title><desc>1753356656000</desc></polyline><polyline fill="none" points="59.68429088438279,180.96752733306494 59.77549574000295,181.0 60.08418909748434,178.43461864534038 60.28764608310303,178.30472372732038 60.23853577623959,178.05305172260705 60.7647176355822,174.79748109682987 60.799796426232206,173.81510080776206 60.27361456686049,170.34825727638236 60.05612606499926,167.78253377995134 59.635180577548454,166.89750243924937 59.69832240062533,166.76758875626547 60.04209454872762,166.83254562417278 59.85968483748729,165.2004883030313 59.55800723811262,164.87569679656008 59.586070270626806,163.99875312977383 59.200203573767794,163.0 59.550991480005905,163.80387545137637 59.54397572187008,164.84321757326688 59.866700595623115,165.18424875907658 60.04911030686344,166.78382797820086 59.95790545124328,166.8731436397793 59.71235391686787,166.77570836765517 59.635180577548454,166.8731436397793 59.880732111865655,167.22228572196036 60.05612606499926,167.80689230201097 60.37183518058737,171.03839035103738 60.77874915182474,173.6770794685508 60.77173339371802,174.75688710931718 60.00701575810672,180.07452382013435" stroke="#4DD2FF" stroke-linecap="round" stroke-linejoin="round" stroke-width="0.5"><title>2025-07-22 5.0km</title><desc>1753184035000</desc></polyline><polyline fill="none" points="71.0,174.9687195509905 71.0,172.0803347924666 72.91371340525802,163.99271693307674 88.3898305085022,166.81698797398712 89.0,167.49095801229123 86.91987673356198,179.9751905600715 73.02465331286658,177.792892441008 72.52542372886091,177.15103718347382 74.24499229586218,164.6666929986677 74.85516178735998,164.2815639944747 78.54391371353995,164.89135136760888 88.97226502315607,167.2021138863638 87.14175654866267,179.71845038753236 86.55932203389239,180.00728306692326 72.7473035439616,177.66452149386168 72.91371340525802,173.55662363601732 74.27272727282252,164.7308811204275 74.71648690290749,164.3457521944656 81.53929121734109,165.5011375633767 74.57781201857142,164.4099403814471 73.8012326657772,167.94027057220228 74.49460708792321,168.6142382133403" stroke="#4DD2FF" stroke-linecap="round" stroke-linejoin="round" stroke-width="0.5"><title>2025-07-20 4.9km</title><desc>1753020627000</desc></polyline><polyline fill="none" points="101.03458710559062,163.0 100.89879754799767,163.920306203785 100.39443633402698,165.21470115546254 99.96766915294575,167.15999181925145 99.85127810356789,168.69374246137158 99.45037560016499,171.2598977211528 99.35984922840726,171.34219276600925 99.40511241430067,171.7087786668635 98.98481140262447,174.7386535058031 98.96541289440938,175.74110317716259 99.54090197189362,180.99251961675327 99.47624027781421,179.96021944504173 99.54736814132775,181.0 99.9159397976764,180.92519613334298 99.29518753432785,175.06781758857687 100.28451145405415,167.84083141246083 100.49142887516064,167.18991896658554 100.51729355280986,166.31454488242161" stroke="#4DD2FF" stroke-linecap="round" stroke-linejoin="round" stroke-width="0.5"><title>2025-07-20 5.0km</title><desc>1752942252000</desc></polyline><polyline fill="none" points="120.77614598747459,163.00805460508855 120.66477077853051,163.0 120.49074701449717,163.88600165282696 120.68565363020753,164.00681929278653 120.67173172906041,164.26456297602272 120.42809845946613,165.9076592583515 120.29584039881593,166.1895596098475 119.95475382139557,169.4031527761981 119.66935484841815,170.71593657314224 119.69719865068328,171.1025190702785 119.2029711608775,174.79911902814638 119.8712224146293,181.0 119.25169781479053,175.8299484225281 119.23777591370163,174.26759238619707 119.69719865068328,171.15084174990625 119.67631579894805,170.72399039437732 120.18446518987184,167.66347941254207 120.28887944825692,166.18150532800064 120.42809845946613,165.89155063656654 120.79702883915161,163.25774695668224" stroke="#4DD2FF" stroke-linecap="round" stroke-linejoin="round" stroke-width="0.5"><title>2025-07-17 5.0km</title><desc>1752765839000</desc></polyline><polyline fill="none" points="147.72297297301702,180.62017024712986 148.12837837846018,180.05724069090502 149.0,172.71557535391185 135.96621621621307,172.12917028802622 133.61486486485228,172.3168200712389 133.8986486486392,172.12917028802622 133.4729729729006,169.4786008035735 131.0608108107699,165.67861622768396 131.0,163.54402954618854 131.28378378378693,163.3798297528847 142.61486486485228,163.5674866499321 141.80405405408237,170.9563556866633 141.29729729727842,171.28474437574914 134.2229729729006,171.05018107409705 133.45270270272158,168.58725201355992 131.46621621621307,166.05392613090225 131.2229729729006,164.7168818149512 134.04054054047447,164.50576884645852 142.25,164.7872527615691 142.37162162165623,166.54651945258956 141.64189189195167,172.26990763975482 140.54729729727842,172.34027628338663" stroke="#4DD2FF" stroke-linecap="round" stroke-linejoin="round" stroke-width="0.5"><title>2025-07-15 4.1km</title><desc>1752589649000</desc></polyline><polyline fill="none" points="160.72336687109782,163.0 160.77821933527594,164.277351380224 160.35311273802654,166.94306086831784 160.2022684615804,167.25246768275247 160.19541190355085,168.03787947543606 159.59203479782445,171.71889615291002 159.6194610299135,172.1314130735118 159.16007164254552,175.5504598454063 159.708596284152,181.0 159.39319461522973,178.84244003838103 159.15321508454508,175.37594136077678 160.18169878752087,167.9823455677979 160.11998976534232,167.7284757727757 160.32568650590838,166.99859551501868 160.73022342912736,164.35668928601808 160.6822275229788,164.07900626306218 160.84678491545492,163.2380173692436 160.69594063903787,163.04760353190068" stroke="#4DD2FF" stroke-linecap="round" stroke-linejoin="round" stroke-width="0.5"><title>2025-07-13 5.0km</title><desc>1752418082000</desc></polyline><polyline fill="none" points="179.8436788309191,181.0 179.75130723105394,180.9917779814714 179.80815129252733,180.34223587893212 180.12079363066005,178.3689114317458 180.30553683047765,178.20446555533272 180.62528467629454,175.96796845112112 180.7958168606856,173.65740467171418 180.32685335350106,170.44223992175102 180.08526609223918,167.75324440772238 179.94315593852662,167.2269473625929 179.64472461576224,166.74998770706588 179.7086741849489,166.62663561422232 180.0497385537892,166.6759764739545 179.90052289242158,165.11350129892526 179.55945852352306,164.68587125244812 179.5807750466338,163.7072478293776 179.3391877853428,163.0328953850185 179.18997212394606,163.0328953850185 179.31787126226118,163.0 179.55945852352306,163.60033867062884 179.552353015868,164.69409492853447 179.8649953539716,164.98192306394049 179.90052289242158,165.14639582422387 180.0497385537892,166.65130604784645 179.70156867726473,166.63485909293377 179.62340809270972,166.72531730357878 179.93605043087155,167.17760683902452 180.078160584555,167.67923409270588 180.3694863996352,170.8780625799991 180.81002787605394,173.59984530091606 180.80292236839887,174.65235303719965 179.93605043087155,180.57245392954792" stroke="#4DD2FF" stroke-linecap="round" stroke-linejoin="round" stroke-width="0.5"><title>2025-07-12 5.1km</title><desc>1752325602000</desc></polyline><polyline fill="none" points="19.891549178690184,203.0 19.716628499067156,202.99190374835598 20.108450821368024,200.29580619558692 20.269377846620046,200.21484089404112 20.71717478634673,197.2109700501387 20.787143058230868,195.69684666195826 20.374330254358938,192.98430766406818 20.05947303105495,189.68865090863255 19.63966340001207,188.83839791952778 19.695638017496094,188.74932327152783 20.045479376713047,188.8060071499567 19.88455235149013,187.16215829394787 19.56969512818614,186.81394950112735 19.555701473844238,185.72072595467762 19.205860114627285,185.0 19.57669195535709,185.8098039904653 19.56969512818614,186.8058516041201 19.891549178690184,187.1702561547354 20.066469858255005,188.78171406413458 19.73062215340906,188.7412255713134 19.653657054441283,188.87078867589298 20.07346668545506,189.75343171659915 20.38132708152989,192.96811312399223 20.794139885372715,195.6401676875248 20.724171613546787,197.1704858420635 20.052476203883998,201.6398181816039" stroke="#4DD2FF" stroke-linecap="round" stroke-linejoin="round" stroke-width="0.5"><title>2025-07-10 5.0km</title><desc>1752149320000</desc></polyline><polyline fill="none" points="37.47569929709425,185.0 37.51785880775424,186.1220300960049 37.823515260301065,185.96348300139653 38.47698767611291,186.1830096919948 39.183159480278846,186.1220300960049 39.97365030582296,186.4147318742689 44.05258296558168,186.95134994727414 44.16852161998395,187.109895737005 43.23047250707168,193.09789494444703 42.77725776704028,193.1344805796034 42.692938745662104,193.29301820299588 42.53484058054164,194.35399537060584 42.65077923494391,194.81740774305945 41.934067553142086,198.85389776057855 36.68520847155014,198.6953674802644 36.506030551099684,198.57342096840148 35.83147838001605,203.0 36.53765018412378,198.646588890384 38.58238645282108,198.68317283462966 39.267478501598816,198.4148903177629 39.3623374007293,198.6953674802644 41.96568718616618,198.78072996492847 43.77854614605894,187.42698668821686 43.72584675770486,187.01232912197884 38.297809755662456,186.0610504689903" stroke="#4DD2FF" stroke-linecap="round" stroke-linejoin="round" stroke-width="0.5"><title>2025-07-08 5.1km</title><desc>1751976330000</desc></polyline><polyline fill="none" points="51.16032285458641,202.83610268475604 51.121693529887125,203.0 51.36634591995971,202.89570172964886 51.443604569358286,202.06131289622863 51.89428002474597,201.68881634827994 51.98441511578858,201.30141893458494 53.28493571549188,192.2866900825029 53.40082368964795,189.55981166484708 53.09178909176262,187.54814753265237 53.799993378750514,187.51834489352768 53.98026356083574,187.7865684274002 56.46541678602807,188.1441990424064 58.46126523113344,188.11439652449917 59.916303129750304,188.6955445312342 64.55182209884515,189.3809981931845 65.40166724321898,185.0 68.87830647011288,185.77487996006676 65.77508404903347,185.04470472445246 65.19564417790389,187.62265410390683 65.10550908680307,189.4108004536247 56.42678746127058,188.24850780746783 53.98026356083574,187.8014697204635 53.76136405405123,187.47364092349017 53.053159767063335,187.59285147994524 53.336441481777,188.78495171236864 53.387947248178534,191.3628353163076 51.932909349445254,201.34611868843785" stroke="#4DD2FF" stroke-linecap="round" stroke-linejoin="round" stroke-width="0.5"><title>2025-07-06 5.0km</title><desc>1751807521000</desc></polyline><polyline fill="none" points="73.7397342530312,201.88428805598232 74.5196088081575,196.33842899363663 71.99565115699079,196.15793925551407 71.20159706455888,196.43687785667134 72.23670329223387,196.33842899363663 72.09490791865392,196.17434742185287 74.70394279388711,196.32202084397431 74.88827677967492,196.15793925551407 74.80319955549203,195.64928527163283 75.86666485783644,188.93818426875805 75.76740809634794,185.590733765217 77.59656841657124,185.4102320107486 88.79840293549933,187.24805862178619 88.78422339813551,186.70655831242038 76.46220542723313,185.0 76.66071895038476,189.05304653466737 75.37038105004467,198.17613120531314 75.72486948425649,198.7340009524487 75.39874012483051,199.34109231071488 75.46963781164959,200.65371447143843 74.97335400379961,200.76856840281107 74.74648140597856,203.0 73.59793887933483,202.86874017144146 73.66883656621212,201.90069564041914" stroke="#4DD2FF" stroke-linecap="round" stroke-linejoin="round" stroke-width="0.5"><title>2025-07-05 4.8km</title><desc>1751729502000</desc></polyline><polyline fill="none" points="102.89710965962149,203.0 103.07524908857886,202.86981198194553 103.10337636678014,202.13207688097464 103.34714611165691,201.05801225300092 103.47840674343752,201.01461547528015 103.64717041299446,199.4414703723014 99.98124848114094,199.28957927314332 100.21564246655907,198.4758732763221 100.56254556489876,194.80869462042756 100.60004860261688,192.12875362045452 100.46878797077807,191.77069972742174 100.6094243619591,189.578949717652 100.60004860261688,185.0 95.67777490895241,186.7686697420213 95.57464155537309,187.01823427827185 95.61214459309122,186.80122167114314 98.26548450789414,185.79210725105077 98.3123633050127,188.02733710464236 98.57488456863211,188.59156248300133 100.53441828663927,188.59156248300133 100.5437940460979,191.4560453147351 100.75006075325655,191.55369678345596 100.82506682857638,191.90090128205338 104.25659477501176,192.11790352014214 104.4253584445687,192.97505804750836 104.40660692565143,194.53744859182916 103.22526123921853,202.59858643445477" stroke="#4DD2FF" stroke-linecap="round" stroke-linejoin="round" stroke-width="0.5"><title>2025-07-03 5.2km</title><desc>1751545471000</desc></polyline><polyline fill="none" points="119.68457540310919,203.0 120.11215096776141,200.36393109844357 120.2873868549068,200.2422642780657 120.73599072603974,196.9166326980121 120.77103790343972,195.76479627827212 120.00700943547417,189.6484285694387 119.63550935473177,188.87776542525535 119.712613145035,188.77230567908555 120.0280377419258,188.82909171356732 119.88083959670621,187.25529236594593 119.5373772579187,186.81721898241085 119.54438669339288,185.81937618378288 119.21494322558283,185.0 119.57242443534778,185.89238949473656 119.5373772579187,186.83344396545 119.85280185478041,187.14171801602788 119.90186790315784,187.39320385919564 120.0280377419258,188.82097942539258 119.68457540310919,188.7966425559498 119.63550935473177,188.90210226994532 120.01401887097745,189.6484285694387 120.37850951624569,193.12037652645813 120.78505677441717,195.74046152670053 120.66589637115248,197.55743590315979 119.89485846768366,202.72423071540106" stroke="#4DD2FF" stroke-linecap="round" stroke-linejoin="round" stroke-width="0.5"><title>2025-07-01 5.0km</title><desc>1751376396000</desc></polyline><polyline fill="none" points="139.36742998912814,203.0 139.49741012835875,202.83956882237544 139.47141410049517,202.24797660073818 139.67938232322922,202.04743605965632 139.82669314768282,201.26532405517355 140.05199205563986,198.50782842640183 140.36394438974094,197.43489111880626 140.7105580943462,194.6171216954681 140.62390466820216,193.00263390867622 140.1386454817548,190.12456840601953 139.80936246245983,186.63467598475108 139.2894419056247,185.34097759509314 139.74870506412117,185.43123617296078 139.76603574937326,185.0 139.76603574937326,185.4111787183283 139.36742998912814,185.33094885912578 139.2981072482071,185.43123617296078 139.62739026753115,185.92264253658504 139.82669314768282,186.6146187748891 140.19063753748196,190.50564113540895 140.7105580943462,193.96531303638767 140.66723138125963,195.5797850687668 139.5753982118622,202.6590834358285" stroke="#4DD2FF" stroke-linecap="round" stroke-linejoin="round" stroke-width="0.5"><title>2025-06-30 4.1km</title><desc>1751292736000</desc></polyline><polyline fill="none" points="151.2020905923273,195.10960229374177 151.0,193.64897324027697 151.06968641115236,193.49564597582503 156.49128919860232,193.2374099119188 157.35540069683339,193.31810877237876 158.76306620208197,193.1809206606922 160.87456445992575,193.20513034473697 169.0,192.68865547961468 166.57491289198515,192.85812416609406 166.01045296169468,193.04373231128557 164.96515679440927,192.99531283708347 159.67595818816335,193.26968946598936 154.75609756095218,193.35845817174413 154.60975609754678,193.4875761115909 154.9512195121788,195.31134452038532 154.79094076654292,195.2952051611719 154.5958188153163,194.34297714474087" stroke="#4DD2FF" stroke-linecap="round" stroke-linejoin="round" stroke-width="0.5"><title>2025-06-26 5.0km</title><desc>1750950176000</desc></polyline><polyline fill="none" points="189.0,194.73669080522814 188.70936490851454,193.26330919477186 180.9655543595145,193.97382686247875 180.13885898818262,193.98130595921975 177.1550053821411,193.60735018770356 171.0,193.86911942786537 176.9483315392863,193.59987105282198 180.14531754577183,193.9887850552259 185.6544671690208,193.48768393830687" stroke="#4DD2FF" stroke-linecap="round" stroke-linejoin="round" stroke-width="0.5"><title>2025-06-24 5.0km</title><desc>1750769966000</desc></polyline><polyline fill="none" points="29.0,216.7208387669234 28.753602305456297,215.27916123308387 21.0893371757993,216.00751226317516 20.1556195965386,216.0375472026135 17.1340057636844,215.64709203488746 11.0,215.91740737140208 16.9719020172779,215.64709203488746 20.149135446670698,216.0375472026135 26.6397694524494,215.45937246764515" stroke="#4DD2FF" stroke-linecap="round" stroke-linejoin="round" stroke-width="0.5"><title>2025-06-22 5.0km</title><desc>1750563938000</desc></polyline><polyline fill="none" points="40.61512707269867,225.0 39.68482888503058,219.44209893125299 39.671787321640295,217.9266568681196 39.75438388969633,217.2922719613307 39.70221763619338,215.6609590561493 39.71960638735618,215.37899827560614 39.81524451878795,215.21787710654826 39.71960638735618,215.14235137752257 39.715259199554566,214.1101548334409 38.658892565916176,207.75537669678306 38.39371411052707,207.0 38.663239753674134,207.6596962881231 39.70221763619338,214.00441640774807 39.75873107749794,217.09591307632945 39.68482888503058,217.93169163636412 39.68048169721442,219.39175276577225 40.39342049526749,223.66092523296174 40.49340581448632,223.95290703645878 41.60628588948748,223.89249714976904" stroke="#4DD2FF" stroke-linecap="round" stroke-linejoin="round" stroke-width="0.5"><title>2025-06-21 8.0km</title><desc>1750517001000</desc></polyline><polyline fill="none" points="61.826151977758855,225.0 60.301403724530246,215.62387523600773 57.618319589004386,215.56912221983657 52.78404024342308,215.10372068098513 52.87859827460488,214.6109408227785 52.689482212183066,213.66644103945873 52.94951679802034,207.49280779338733 52.91405753628351,207.05475651082816 52.677662458328996,207.0 52.38216861075489,214.597252467589 52.83131925901398,214.65200588002335 52.85495876678033,215.11740898460266 60.33686298626708,215.6101869840786 61.246984036581125,221.46863131743157 61.530658130242955,222.24882541317493 67.61783138930332,222.05719921311538" stroke="#4DD2FF" stroke-linecap="round" stroke-linejoin="round" stroke-width="0.5"><title>2025-06-19 5.0km</title><desc>1750345525000</desc></polyline><polyline fill="none" points="89.0,216.4506187684019 88.83478260872653,215.4688246300284 83.73913043479843,215.95217187507296 83.08260869565129,215.9672764002571 80.90000000000873,215.7155337105869 72.81304347826517,216.0830776067378 72.11304347826808,216.19887854175613 71.0,216.53117536997524 72.56956521738903,216.10825174613638 75.41304347827099,215.98238092085376" stroke="#4DD2FF" stroke-linecap="round" stroke-linejoin="round" stroke-width="0.5"><title>2025-06-17 5.1km</title><desc>1750166247000</desc></polyline><polyline fill="none" points="91.62068965513026,222.7925256237504 91.0,218.8033731077594 105.0275862069102,218.39007737179054 102.74655172420898,209.38717765365436 105.50862068968127,209.54891044675605 109.0,209.2074743762496 103.49137931037694,209.53094014374074 105.52413793106098,217.63536091908463 99.50344827584922,217.9228723296692" stroke="#4DD2FF" stroke-linecap="round" stroke-linejoin="round" stroke-width="0.5"><title>2025-06-16 3.2km</title><desc>1750084948000</desc></polyline><polyline fill="none" points="129.0,216.8320885070425 128.7241935484344,215.1679114929575 119.87661290320102,215.98319432727294 119.07822580647189,215.99159926299035 115.57983870967291,215.5629464501617 111.0,215.7814756135267 115.43467741934,215.5545414707667 119.07096774195088,215.97478939073335 126.57580645164126,215.34441670769593" stroke="#4DD2FF" stroke-linecap="round" stroke-linejoin="round" stroke-width="0.5"><title>2025-06-15 4.6km</title><desc>1749956754000</desc></polyline><polyline fill="none" points="149.0,216.7239137209981 148.7808807733527,215.27608627899463 141.07303974224487,215.98507752069418 140.26745435016346,216.00000357831595 136.8775510204141,215.61938815854228 131.0,215.8880580719997 136.99355531684705,215.61938815854228 140.21589688508539,216.00000357831595 141.89795918369782,215.917910223754 142.21374865731923,215.81342763937573 146.2996777658409,215.44773741994868" stroke="#4DD2FF" stroke-linecap="round" stroke-linejoin="round" stroke-width="0.5"><title>2025-06-14 5.1km</title><desc>1749906363000</desc></polyline><polyline fill="none" points="169.0,217.06875192149164 168.7835926449916,215.60935958814662 161.32390381896403,216.33168876736454 160.31824611034244,216.33905943610444 157.2630834512238,215.97052507959597 151.50919377652463,216.2432406840744 151.43281471007504,216.0737148887274 151.464639321086,214.93861888996616 151.0,214.93124807850836 151.4837340877275,214.9533605106335 151.43281471007504,216.06634419295006 151.52828854316613,216.2432406840744 157.4222065063659,215.96315437331214 160.45827439890127,216.3464301040949 166.50495049508754,215.80099864498334 166.4985855728737,215.50616911642283 168.43988684585202,215.4029784974773" stroke="#4DD2FF" stroke-linecap="round" stroke-linejoin="round" stroke-width="0.5"><title>2025-06-12 5.9km</title><desc>1749735885000</desc></polyline><polyline fill="none" points="189.0,221.66263633829658 188.42619542620378,218.7736221528321 172.6590436589904,220.1748013872275 171.17463617463363,216.11567708935763 171.0,211.0452197203267 173.9438669438241,210.91520560727804 176.45114345109323,211.07411172923457 176.58835758839268,210.6118388796749 176.32640332635492,210.51071649281948 171.07484407478478,210.33736366170342 171.18711018707836,215.97122212506656 171.62370062363334,217.61799998933566 172.48440748435678,219.66922284850443 179.46985446981853,219.06252622140164 179.60706860700157,219.61144232923107 188.3887733888114,218.7591769339051 188.92515592515701,221.61930156052404" stroke="#4DD2FF" stroke-linecap="round" stroke-linejoin="round" stroke-width="0.5"><title>2025-06-10 5.3km</title><desc>1749559786000</desc></polyline><polyline fill="none" points="11.472618154541124,233.2075754171383 11.040510127553716,231.45622788878973 11.0,230.0957923520764 23.2475618905155,229.78304684518662 23.80120030004764,231.83151832780277 23.396099024801515,231.8158812445472 23.274568642198574,232.0973484999995 23.531132783158682,233.55158776117605 23.4636159039801,234.5367097521812 23.909227306838147,236.506934759891 25.05701425363077,236.4600249346695 26.758439609897323,243.0116249951243 26.785446361638606,243.30870762854465 26.35333833459299,243.43379488112987 26.74493623408489,243.3243435407203 26.879969992442057,243.57451791832864 26.528882220503874,243.63706144907337 26.650412603106815,244.21558789956907 27.460615153773688,246.2795023326762 28.027756939234678,246.2169598788605 29.0,245.68534799250483 27.973743435868528,245.90424722757598 26.150787696882617,238.6334984426794 25.934733683418017,238.00804159529798 25.44861215306446,238.00804159529798 25.084021005255636,236.41311509505613 24.692423105763737,236.56948117123102 23.895723931025714,236.4600249346695 23.450112528167665,234.66180415557756 23.3555888972478,232.34754118253477 22.612903225817718,229.7204976673238 11.040510127553716,230.12706686770252 11.526631657907274,233.30139704197063" stroke="#4DD2FF" stroke-linecap="round" stroke-linejoin="round" stroke-width="0.5"><title>2025-06-08 5.0km</title><desc>1749355299000</desc></polyline><polyline fill="none" points="49.0,238.74069638492801 48.68341708541266,237.2593036150647 42.88155061015277,237.7456227194125 41.13711414212594,237.992521954744 40.16798277100315,237.992521954744 37.09906676237006,237.61843188016064 31.0,237.8877769260289 36.8083273510274,237.61843188016064 40.13567839196185,238.00000373677904 47.13280689160456,237.37153138663416" stroke="#4DD2FF" stroke-linecap="round" stroke-linejoin="round" stroke-width="0.5"><title>2025-06-07 5.3km</title><desc>1749293029000</desc></polyline><polyline fill="none" points="69.0,238.71307294099097 68.73424558879924,237.28692705900903 60.52178610008559,238.0375335972858 57.190133237309055,237.65472521866468 51.0,237.9099310255042 57.164205977664096,237.6397130848345 60.126395390718244,238.0375335972858 66.47209218580974,237.45956724023563" stroke="#4DD2FF" stroke-linecap="round" stroke-linejoin="round" stroke-width="0.5"><title>2025-06-05 5.1km</title><desc>1749128617000</desc></polyline><polyline fill="none" points="71.25196850392967,237.8860670675931 71.0,236.23566990168183 71.09448818897363,236.16272346800542 78.15748031498515,235.91652881528717 79.48818897639285,240.79470398727426 86.46456692914944,240.70352558211016 89.0,240.5485220800765 86.91338582680328,240.6214649379981 86.52755905513186,235.20529601272574 79.85039370079176,235.5973865904234 78.41732283466263,235.5517947510598 78.54330708659836,235.91652881528717 74.84251968504395,236.02594874459464" stroke="#4DD2FF" stroke-linecap="round" stroke-linejoin="round" stroke-width="0.5"><title>2025-06-03 5.2km</title><desc>1748952979000</desc></polyline><polyline fill="none" points="105.88541591423564,232.6340175164878 105.49055573824444,232.04958133533364 105.21065485401778,231.43620620635193 105.03071857130271,231.2683948762351 104.58587609452661,231.22788861886875 104.24599644937553,230.8343977591212 104.09105131705292,230.31938354665908 103.86113273355295,229.96639358167886 103.58623007935239,229.0 102.79151149731479,229.3414223644104 102.42164247171604,229.38192996643556 101.4619822971581,229.740710323862 101.05212743094307,230.26730319790295 101.05212743094307,230.40039732762307 99.39271504577482,232.5125015776648 99.3827185856062,232.6340175164878 98.92787964871968,233.25895252669943 98.53301947272848,233.6234947761368 98.46304425169365,233.5598447106022 98.18314336740877,233.80287185012276 97.9982088546094,233.69293113000458 97.9932106245542,233.7970855017411 97.96821947413264,233.6466402368642 98.22812743810937,233.83180358324535 98.18814159749309,234.04011162691313 97.58835398839437,234.70553498535446 96.5637168228568,234.93698476231657 96.5637168228568,234.83283247932923 96.49374160179286,234.96012968818104 96.2138407175662,235.02377818571767 95.9689274438424,234.9543434575935 95.55907257762738,234.98906083225302 95.48909735653433,234.92541229585186 95.3241557640722,235.01799196162392 94.8293309865694,234.8444049646314 94.76435399556067,234.08640219959852 94.57442125267698,233.91859869421023 93.6397522285115,234.15583798797525 93.28987612322089,234.36993113478093 93.6897345292964,236.1000056258963 94.31951151881367,238.03253494010642 95.64904071897035,243.2280515268867 95.83397523179883,243.76609014944552 97.403419475595,246.94214991849003 97.6033486786182,247.0 98.2931044291181,246.78016937724533 98.76293805622845,246.91900986941982 99.62263362927479,246.73967416986488 99.60763893902185,246.39835627621142 99.83755752249272,246.3347205101927 100.25241061879206,246.52562759469583 100.5672991135798,246.37521600590844 100.69725309556816,246.5661229544785 101.50696636782959,246.74545920124 101.98179822505335,246.65868366858558 102.46162831230322,246.30001006234306 102.54659822359099,245.62315209528606 102.90647078907932,245.12562742731097 102.81150441762293,244.62809840687987 102.92646370935836,244.38511753593048 102.68155043563456,244.11320913992677 102.52660530331195,243.70823677836233 102.46662654238753,243.10655823017805 102.79151149731479,242.84621457745016 103.28633627481759,243.04870418813516 103.56123892898904,243.03134796403174 103.63121415005298,242.65529514124137 103.51625485831755,242.1924574838522 103.42128848686116,242.1519590095886 103.51625485831755,242.10567500370234 103.40629379663733,242.0709619745503 103.49626193798031,242.12303151032393 103.50625839817803,241.8511122978598 103.37630441618967,241.55026399437338 102.78651326723048,241.50976506273219 102.51161061305902,241.30148438722608 102.62656990479445,240.5146393944342 103.0964035319339,239.7104262748653 103.45627609739313,239.31120834312242 103.62121768988436,239.2533504392959 103.97609202528838,238.7615558794496 104.60087078475044,238.165610888409 105.15567432317766,237.47129816576853 104.99573096074164,237.1472826598947 104.50090618323884,237.14149665194054 104.43592919225921,236.95055805890297 104.6258619351429,236.49346003390747 104.84578405847424,236.28516098064938 105.05071149158175,236.3140914503565 105.13568140286952,236.20994169052938 104.96074335023877,235.81069917671994 105.19566016376484,235.31887483397077 105.41558228712529,235.1915784284829 105.60051679992466,235.26679906617574 105.57552564953221,235.12793011885879 106.13032918795943,234.87333616760588 106.18031148871523,234.71710749659178 106.66513980607851,234.42200772422075 106.71012387675,233.99960734488195 106.07534865711932,232.790251913244 105.97538405557862,232.74396028490082" stroke="#4DD2FF" stroke-linecap="round" stroke-linejoin="round" stroke-width="0.5"><title>2025-06-02 11.5km</title><desc>1748829019000</desc></polyline><polyline fill="none" points="129.0,238.8417534750406 128.67027477102238,237.1582465249594 119.16069941714522,238.04339350415103 115.21898417980992,237.59214325279754 111.0,237.77437921910314 115.27144046625472,237.57478742613603 118.72606161530712,238.02603776947217 128.6552872605971,237.1669244812001 128.99250624480192,238.7896867485979" stroke="#4DD2FF" stroke-linecap="round" stroke-linejoin="round" stroke-width="0.5"><title>2025-06-01 4.9km</title><desc>1748740054000</desc></polyline><polyline fill="none" points="149.0,246.67410667186778 148.93482196744299,246.81247984978108 148.80446590221254,246.7118448267065 148.36994568497175,244.29657965675142 134.63910681958077,245.49163864280126 133.3681351841078,241.93158671310812 133.31382015696727,237.4530716523077 133.0096560048405,235.7672963525838 131.0,229.18752015021892 132.32528666267172,233.59085089842847 132.68376584193902,234.27020793587872 133.2703681352432,236.79889292705775 133.85697042854736,236.9624379334782 133.24864212435205,236.9498575560865 133.3681351841078,241.51645029734937 133.78092939045746,243.2147268062472 134.49788774893386,244.98845732213522 134.68255884130485,245.1016732981443 140.57030778517947,244.4978535594273 140.7332528666011,244.97587776285945 145.41520820761798,244.5230127741961" stroke="#4DD2FF" stroke-linecap="round" stroke-linejoin="round" stroke-width="0.5"><title>2025-05-31 5.5km</title><desc>1748696141000</desc></polyline><polyline fill="none" points="167.7376623376622,242.96756412692775 167.32857142860303,240.32819520025805 152.51948051952058,241.65465383294213 151.1519480519346,237.75645194278331 151.0,233.0595080771891 156.02597402594984,233.11365246893547 151.07012987014605,233.0324358730868 151.1636363636353,237.68877381607308 151.52597402600804,239.13707819906995 152.43766233761562,241.22152594024374 165.55194805195788,239.96273998371908 166.72077922080643,239.89506298136257 166.77922077925177,240.395871981862 169.0,240.2199122779857" stroke="#4DD2FF" stroke-linecap="round" stroke-linejoin="round" stroke-width="0.5"><title>2025-05-29 5.0km</title><desc>1748526381000</desc></polyline><polyline fill="none" points="181.91125198098598,236.23286041124084 181.5118858953938,232.9625264027418 188.27258320129476,232.632185964394 189.0,235.2914073854481 188.21553090331145,232.69825410589692 181.48335974646034,233.01207741038525 181.6687797147315,234.6472521640244 181.4120443740394,233.02859440956672 171.79873217112618,233.92050986597314 173.23930269409902,241.13823769203736 173.79556259902893,242.82287846862164 173.4247226624284,243.05410230671987 174.00950871629175,244.6065966768656 173.2250396196614,242.55862224975135 171.28526148968376,233.95354367756227 174.65134706813842,233.47455275138782 180.74167987320106,233.09466238951427 180.67036450083833,232.61566892477276 171.72741679876344,233.22679826857348 171.22820919175865,231.39340332311986 171.0,231.59160918208363 171.11410459590843,233.3589340398612 177.86053882725537,232.69825410589692" stroke="#4DD2FF" stroke-linecap="round" stroke-linejoin="round" stroke-width="0.5"><title>2025-05-27 6.0km</title><desc>1748352132000</desc></polyline><polyline fill="none" points="26.601366742601385,261.34136010772636 26.673120728955837,261.2938794083384 26.442482915706933,260.14246059575817 20.379271070618415,260.724107996004 19.677107061521383,260.73597829062055 17.150341685657622,260.43922019933234 11.112756264250493,260.70630254955176 11.0,258.7357995008242 11.71753986334079,258.6586398922773 12.70671981779742,258.7298641499583 12.711845102516236,260.43922019933234 17.298974943056237,260.2552294232628 20.08712984054,260.5282477855035 26.4322323462402,259.8991165923253 28.892369020497426,259.81008804430166 29.0,260.0059506702637 28.928246013674652,260.02969154986204 26.65774487471208,260.12465497143785" stroke="#4DD2FF" stroke-linecap="round" stroke-linejoin="round" stroke-width="0.5"><title>2025-05-25 7.6km</title><desc>1748179850000</desc></polyline><polyline fill="none" points="48.98820445610909,260.9937263310785 48.94102228048723,260.6044361218592 48.71100917432341,260.6044361218592 48.56356487548328,259.87365716575005 48.44560943642864,259.70974303461117 42.75425950199133,260.19465451112046 41.82241153344512,260.3653971534659 38.08322411534027,260.01708170158236 31.100262123218272,260.3312486598079 31.0,259.14287024004443 32.733944954146864,259.0062736689215 32.72214941022685,260.00342223521875 32.95216251639067,260.0307411651738 37.85321100917645,259.8190191666072 41.40366972476477,260.12635733236675 48.775884665810736,259.4160625469376 49.0,260.9186003264549" stroke="#4DD2FF" stroke-linecap="round" stroke-linejoin="round" stroke-width="0.5"><title>2025-05-24 6.6km</title><desc>1748094255000</desc></polyline><polyline fill="none" points="69.0,260.80202481051674 68.80419016923406,259.19797518949053 61.39242546336027,259.827841329432 60.36261079774704,260.00420298581594 59.1877518130641,260.02099931432895 55.800966962153325,259.60948827948596 51.0,259.8026467762611 55.77921031427104,259.6010900737019 59.14423851732863,260.02939747733035 66.82433521354687,259.3827364228928" stroke="#4DD2FF" stroke-linecap="round" stroke-linejoin="round" stroke-width="0.5"><title>2025-05-18 4.7km</title><desc>1747565909000</desc></polyline><polyline fill="none" points="86.66046378470492,260.6444834943504 86.46464357286459,259.4927689701035 81.24448897794355,259.9343616728147 80.37360435156734,260.0895150749857 79.67277411965188,260.083547644037 77.28685943313758,259.77324039691666 71.03607214428484,260.0596779141961 71.0,259.8806546301021 74.519610649877,259.6538910178133 76.90552533639129,259.61211867765087 79.69338677352061,260.0596779141961 86.53163469795254,259.4509965149773 88.83509876893368,259.3555165056496 88.92785571143031,259.3674515153325 88.94331520181731,259.4509965149773 89.0,259.4151915297298" stroke="#4DD2FF" stroke-linecap="round" stroke-linejoin="round" stroke-width="0.5"><title>2025-05-17 5.7km</title><desc>1747487200000</desc></polyline><polyline fill="none" points="108.01635420823004,259.2558608284089 105.63262863981072,259.3805780957555 104.46948544075713,259.5884397842601 99.1276426007098,259.9958471573991 95.78181092938758,259.5634964096098 91.0,259.7547287537309 95.71719186278642,259.58012532689463 98.9984044674784,259.9875327415284 108.53330674112658,259.1560868772649 108.84922217793064,260.76908412746707 109.0,260.8439131227278" stroke="#4DD2FF" stroke-linecap="round" stroke-linejoin="round" stroke-width="0.5"><title>2025-05-11 5.0km</title><desc>1746965499000</desc></polyline><polyline fill="none" points="129.0,260.64671074700163 128.70946915345849,259.35328925299837 120.54232424672227,260.09345810143714 117.22381635577767,259.7121599303937 111.0,259.9738353591529 117.06886657100404,259.71963638415764 120.16786226682598,260.09345810143714 128.76111908175517,259.3682422329366" stroke="#4DD2FF" stroke-linecap="round" stroke-linejoin="round" stroke-width="0.5"><title>2025-05-10 5.3km</title><desc>1746870058000</desc></polyline><polyline fill="none" points="148.96069868994527,259.69658927550336 148.91484716156265,259.5676388092543 149.0,259.66624800941645 148.6528384279518,259.72693052919203 140.62882096073008,260.4323611907457 137.22925764191314,260.03034238589316 131.0,260.28824149152933 137.19650655021542,260.03034238589316 138.78820960698067,260.1592920504336 140.23580786027014,260.42477595036326 146.80567685590358,259.83312481975736" stroke="#4DD2FF" stroke-linecap="round" stroke-linejoin="round" stroke-width="0.5"><title>2025-05-05 5.4km</title><desc>1746434825000</desc></polyline></svg>