<?xml version="1.0" encoding="utf-8" ?>
<svg baseProfile="full" height="300mm" version="1.1" viewBox="0,0,200,300" width="200mm" xmlns="http://www.w3.org/2000/svg" xmlns:ev="http://www.w3.org/2001/xml-events" xmlns:xlink="http://www.w3.org/1999/xlink"><defs /><rect fill="#222222" height="300" width="200" x="0" y="0" /><text fill="#FFFFFF" style="font-size:12px; font-family:Arial; font-weight:bold;" x="10" y="20">Over 3km Runs</text><text fill="#FFFFFF" style="font-size:4px; font-family:Arial" x="10" y="280">Runner</text><text fill="#FFFFFF" style="font-size:9px; font-family:Arial" x="10" y="290">tang-hi</text><text fill="#FFFFFF" style="font-size:4px; font-family:Arial" x="65" y="280">SPECIAL TRACKS</text><rect fill="yellow" height="2.6" width="2.6" x="65" y="283" /><text fill="#FFFFFF" style="font-size:3px; font-family:Arial" x="70" y="285.5">Over 20.0 km</text><rect fill="red" height="2.6" width="2.6" x="65" y="287" /><text fill="#FFFFFF" style="font-size:3px; font-family:Arial" x="70" y="289.5">Over 40.0 km</text><text fill="#FFFFFF" style="font-size:4px; font-family:Arial" x="120" y="280">STATISTICS</text><text fill="#FFFFFF" style="font-size:3px; font-family:Arial" x="120" y="285">Number: 51</text><text fill="#FFFFFF" style="font-size:3px; font-family:Arial" x="120" y="290">Weekly: 3.6</text><text fill="#FFFFFF" style="font-size:3px; font-family:Arial" x="141" y="285">Total: 273.3 km</text><text fill="#FFFFFF" style="font-size:3px; font-family:Arial" x="141" y="290">Avg: 5.4 km</text><text fill="#FFFFFF" style="font-size:3px; font-family:Arial" x="167" y="285">Min: 3.2 km</text><text fill="#FFFFFF" style="font-size:3px; font-family:Arial" x="167" y="290">Max: 11.5 km</text><polyline fill="none" points="22.992053726222366,55.33333333333576 24.291721271176357,47.597224619319604 24.37587240722496,45.779427999317704 23.683963066723663,40.985922575848235 23.356708648905624,37.49074754078174 22.833101580443326,36.56012431131967 22.90790259023197,36.365341675242234 23.38475902756909,36.462733037857106 23.17905625072308,34.32010247116705 22.730250191991217,33.789848853470176 22.758300570596475,32.57783066236152 22.281444133259356,31.33333333333576 22.777000823116396,32.62111726402509 22.73960031819297,33.80067038229754 23.17905625072308,34.33092394605046 23.403459280030802,36.43026926022867 22.926602842635475,36.408626736294536 22.870502085308544,36.52766056341352 23.403459280030802,37.674706983336364 23.833565086242743,41.927327809091366 24.338471902301535,45.022003579186276 24.385222533368506,46.74243126565125 23.300607891578693,54.42450494594959 23.00140385242412,54.73826800406823" stroke="#4DD2FF" stroke-linecap="round" stroke-linejoin="round" stroke-width="0.5"><title>2025-08-09 5.0km</title><desc>1754735080000</desc></polyline><polyline fill="none" points="54.72068103621132,31.33333333333576 54.772778460523114,33.021259174383886 54.434145202540094,35.67365585589141 54.0,37.50216062600521 53.904488055442926,39.15984177681821 53.32273348403396,42.55548974835983 53.35746510027093,43.07788678171346 52.76702762482455,47.05605061050301 52.74966181672062,48.42225178748049 53.49639156507328,54.7708214870072 54.07814613642404,55.33333333333576 53.227221539476886,48.78389011735271 53.27063605975127,46.644177436573955 54.51229133896413,38.104956986579055 54.66858361189952,37.13043437216402 54.81619298076839,36.93954737452441 54.746729748352664,36.527632071571134 55.25033818327938,33.121730042061245" stroke="#4DD2FF" stroke-linecap="round" stroke-linejoin="round" stroke-width="0.5"><title>2025-08-07 5.0km</title><desc>1754570205000</desc></polyline><polyline fill="none" points="85.0826073216158,31.33333333333576 85.13627708354034,32.016464538450236 85.31517628999427,32.08891757939273 85.25256156775868,32.5753866623636 85.73558942513773,32.64783930575504 85.78925918700406,33.09290441308258 85.29728636937216,35.55625286530994 85.15416700422065,36.87070434776979 85.25256156775868,37.22260186677158 85.1004972422379,37.367500491876854 84.8142585119931,39.05451931717107 83.55301910662092,48.22396135322924 84.33123065467225,55.33333333333576 83.54407414630987,48.05838055044296 84.09866168629378,43.86702688308287 84.30439577368088,43.29781741035549 84.79636859131278,39.05451931717107 85.04682748037158,37.491699149388296 85.20783676614519,37.21225195707666 85.1452220439096,36.808604659447155 85.6371948615415,33.18605732902506" stroke="#4DD2FF" stroke-linecap="round" stroke-linejoin="round" stroke-width="0.5"><title>2025-08-05 5.0km</title><desc>1754406000000</desc></polyline><polyline fill="none" points="114.96991225919919,55.33333333333576 115.38525062956614,51.892606476358196 115.64011735684471,51.69599018638837 116.03657671046676,49.03071166049631 116.32920147140976,46.889702349442814 116.34808048827108,45.55701175061404 115.65899637370603,40.826919064696995 115.3946901379968,37.68069130046206 115.15870242752135,36.86134603332175 114.80000110768015,36.34788648113317 114.88495668338146,36.184015894708864 115.34749259590171,36.22771474221372 115.13038390228758,34.075525384971115 114.68672700662864,33.60575243233325 114.72448504035128,32.27289705869043 114.31858617835678,31.33333333333576 114.73392454872373,32.41492341845151 114.68672700662864,33.4965026140344 115.1492629191489,34.06460045590211 115.35693210433237,36.216790031998244 115.23421849490842,36.32603708402894 114.78112209087703,36.23863945128687 115.38525062956614,37.5168227469112 115.77227047469933,41.65715825074585 116.34808048827108,45.58978302910691 116.33864097984042,46.94432046407019 115.23421849490842,54.50319979144115 115.17758144438267,54.68888811402576 114.93215422553476,54.69981094652758 114.83775914128637,55.11487775963906 114.57345290557714,55.09303217785782" stroke="#4DD2FF" stroke-linecap="round" stroke-linejoin="round" stroke-width="0.5"><title>2025-08-03 5.0km</title><desc>1754221111000</desc></polyline><polyline fill="none" points="158.0,42.03484335760368 157.92621060721285,42.34080182366961 157.73558800922183,42.3585900243379 153.9907763258816,42.28387952079356 153.88931591082655,42.21984181944208 153.74173712528136,42.280321873786306 153.2651806302747,42.27676422642617 153.22521137584408,42.23763008156675 152.3735588009149,42.287437167429744 151.95541890851746,42.223399472590245 150.60568793234415,42.21984181944208 150.02152190620836,42.12734271071531 149.62490392004838,42.024170339595 149.6003074557957,41.9850359124066 149.04996156801644,41.967247521944955 147.84166026131425,41.75378613149951 146.0645657186833,41.73955532586115 142.35664873172936,42.202053548280674 141.85549577247002,42.43330036847328 141.31744811680983,42.59695104142156 139.872405841641,43.475670922933205 139.1068408916035,43.86343908062554 138.63643351267092,43.99862330049291 138.35972328977368,44.002180772909924 138.0092236740893,43.91680133503178 137.637202152182,44.06977268027549 137.51114527284517,43.820749218575656 137.36049192928476,43.920358815761574 137.23750960799225,43.68912181626729 135.1437355879898,44.92711134081037 134.98385857032554,44.52512528774969 134.33820138353622,43.290679096211534 134.27671022289724,43.24798853586617 134.0,43.38317513173752 134.18139892388717,43.244430986826046 134.2705611068377,43.233758337526524 134.29823212912015,43.144819466833724 134.4089162182936,43.151934584799164 134.5564950038388,43.05232280167547 134.59953881628462,43.102128728663956 134.71022290544352,43.03097738271754 134.67332820905722,43.09857116479907" stroke="#4DD2FF" stroke-linecap="round" stroke-linejoin="round" stroke-width="0.5"><title>2025-08-02 8.3km</title><desc>1754134728000</desc></polyline><polyline fill="none" points="177.30817271684646,31.33333333333576 177.17901042487938,31.363224906133837 177.10151304968167,32.170293926785234 177.74732450960437,32.170293926785234 177.74732450960437,32.8179371023798 175.59461964320508,47.06500505471922 175.6032304626424,48.56929494430369 176.49875568709103,55.33333333333576 175.64628456000355,48.75857481984713 175.58600882370956,47.29413679193385 176.86041010462213,38.18822880926746 177.17901042487938,36.95278885799053 177.09290223024436,36.673816392576555 177.49761074507842,33.734593978049816" stroke="#4DD2FF" stroke-linecap="round" stroke-linejoin="round" stroke-width="0.5"><title>2025-07-31 5.0km</title><desc>1753965181000</desc></polyline><polyline fill="none" points="22.858151848835405,82.0 22.961656726605725,81.12895065722114 23.225123688345775,80.81319352178252 24.184896191523876,74.20385644203634 24.288401069294196,71.76472295241547 23.799105283338577,68.80284333377494 23.28158089442877,63.91338491447823 22.78287557407748,62.95506846142962 22.886380451906007,62.813498258452455 23.300399963045493,62.867948358660215 23.121618810517248,60.700812994356966 22.641732558899093,60.178080311488884 22.69818976498209,58.96925120929518 22.321808391192462,58.0 22.707599299319554,58.991032034573436 22.669961161911488,60.19986089087615 23.121618810517248,60.766154400283995 23.33803810045356,62.846168321913865 23.215714153950103,62.95506846142962 22.839332780160476,62.80260823507706 22.80169464275241,62.965958469307225 23.366266703465953,64.21830198761745 23.695600405568257,67.87723915692186 24.34485827537719,72.54873620207945 23.667371802497655,78.18910684568982 23.16866648226278,81.31404923501395 22.989885329676326,81.39026620355435" stroke="#4DD2FF" stroke-linecap="round" stroke-linejoin="round" stroke-width="0.5"><title>2025-07-29 5.0km</title><desc>1753797916000</desc></polyline><polyline fill="none" points="55.029387342976406,58.0 55.01208671537461,59.831732320963056 54.614172280271305,62.63431694540486 54.3027609832352,63.5651577723911 54.0951534518681,66.12742688498838 53.515582426829496,69.19005176369683 53.584784937265795,69.73050509651512 53.01386422602809,73.52360341839085 53.048465481289895,75.53518734940008 53.757791213400196,82.0 53.091717050323496,76.38584481878206 52.9706126570527,74.25418342487683 53.5242327406595,69.35018639353075 54.2941106694343,64.45595419958408 54.216257845168,64.20573129751574 54.58822133886861,62.6843623748573 55.01208671537461,59.301234114245744" stroke="#4DD2FF" stroke-linecap="round" stroke-linejoin="round" stroke-width="0.5"><title>2025-07-27 5.0km</title><desc>1753616848000</desc></polyline><polyline fill="none" points="85.35215397298452,58.0 85.37770008380176,60.10861232867319 84.90935471921694,63.43894401631405 84.72201657335972,63.79364716132841 84.45804009516723,66.69034095850657 83.9811793603003,69.33078918720275 84.01524084134144,69.83325440394401 83.39361881202785,73.93169701872102 84.16851750615751,82.0 84.67943972206558,81.92119198216824 84.31327880066237,77.97085807715484 83.89602565765381,75.20257314097398 83.87899491714779,73.7248086324762 85.05411601369269,65.43905867348076 85.44582304594223,63.78379431371286 85.36066934326664,63.39953247565427 85.93971452128608,59.89184121310245" stroke="#4DD2FF" stroke-linecap="round" stroke-linejoin="round" stroke-width="0.5"><title>2025-07-26 5.2km</title><desc>1753529066000</desc></polyline><polyline fill="none" points="116.16169151081704,58.0 116.05814673859277,58.519196792229195 116.19620643486269,59.188157845448586 116.03226054555853,60.76568975938426 115.66985384293366,63.221796635385545 115.48002176056616,63.571237747659325 115.45413556753192,64.61955362968001 114.68617850716691,69.22202723923692 114.7465796242468,69.6612976190736 114.17708337726071,73.84425129857846 114.25474195636343,76.07042853926396 114.93641170661431,82.0 115.42824937446858,81.95008927460003 115.03995647880947,78.32650292381004 115.1262437889527,78.13683494659199 114.63440612106933,75.32171984660818 114.62577739002882,73.98401278777601 116.48958328936715,60.93542269682803" stroke="#4DD2FF" stroke-linecap="round" stroke-linejoin="round" stroke-width="0.5"><title>2025-07-24 5.0km</title><desc>1753356656000</desc></polyline><polyline fill="none" points="145.57905451249098,81.9567031107581 145.7006609867094,82.0 146.11225212999852,78.57949152712536 146.38352811080404,78.40629830310354 146.31804770167219,78.07073563015001 147.0196235141484,73.72997479578044 147.06639523495687,72.42013441034942 146.36481942248065,67.79767636852193 146.07483475335175,64.37671170660906 145.51357410341734,63.196669919008855 145.59776320087258,63.0234516750279 146.05612606497016,63.11006083223765 145.81291311664972,60.93398440404417 145.4106763175223,60.50092906208738 145.44809369416907,59.33167083970329 144.93360476504313,58.0 145.4013219733606,59.071833935173345 145.39196762919892,60.45762343102979 145.82226746086963,60.912331678773626 146.06548040919006,63.04510397093691 145.94387393502984,63.16419151971786 145.61647188919596,63.03427782354265 145.51357410341734,63.16419151971786 145.8409761491348,63.629714295952 146.07483475335175,64.40918973602675 146.49578024080256,68.71785380139045 147.03833220241359,72.23610595807986 147.0289778583101,73.675849479092 146.0093543441617,80.76603176019125" stroke="#4DD2FF" stroke-linecap="round" stroke-linejoin="round" stroke-width="0.5"><title>2025-07-22 5.0km</title><desc>1753184035000</desc></polyline><polyline fill="none" points="164.66666666674428,73.9582927346346 164.66666666674428,70.10711305658333 167.21828454057686,59.323622577416245 187.85310734482482,63.0893172986398 188.66666666674428,63.987944016378606 185.89316897839308,80.63358741343836 167.36620441731066,77.72385658801068 166.700564972125,76.86804957792629 168.9933230613824,60.22225733156665 169.80688238330185,59.70875199264265 174.72521828487515,60.5218018234591 188.62968669761904,63.602818515122635 186.18900873162784,80.29126718334737 185.41242937883362,80.67637742255465 166.99640472535975,77.55269532513921 167.21828454057686,72.07549818136613 169.03030303050764,60.30784149389365 169.62198253744282,59.79433625927777 178.71905495668761,61.33485008450225 169.43708269158378,59.87992050856701 168.40164355444722,64.58702742960304 169.32614278397523,65.48565095113008" stroke="#4DD2FF" stroke-linecap="round" stroke-linejoin="round" stroke-width="0.5"><title>2025-07-20 4.9km</title><desc>1753020627000</desc></polyline><polyline fill="none" points="24.71278280747356,84.66666666666424 24.5317300640163,85.89374160505395 23.859248445369303,87.61960154061671 23.290225537290098,90.21332242567587 23.135037471423857,92.25832328182878 22.600500800210284,95.67986362821102 22.47979897123878,95.78959035468142 22.540149885753635,96.27837155581801 21.97974853683263,100.31820467440411 21.95388385921251,101.6548042362192 22.72120262918179,108.6566928223474 22.63498703710502,107.28029259339382 22.7298241884273,108.66666666666424 23.221253063587938,108.56692817778821 22.393583379103802,100.7570901181025 23.712681938748574,91.12110854995262 23.988571833557216,90.25322528878314 24.02305807042285,89.08605984323367" stroke="#4DD2FF" stroke-linecap="round" stroke-linejoin="round" stroke-width="0.5"><title>2025-07-20 5.0km</title><desc>1752942252000</desc></polyline><polyline fill="none" points="55.03486131661339,84.67740614011564 54.88636103802128,84.66666666666424 54.6543293526629,85.84800220376928 54.9142048402573,86.00909239038447 54.89564230537508,86.35275063469453 54.57079794595484,88.54354567779956 54.3944538650685,88.91941281312756 53.939671761821955,93.20420370159991 53.55913979787147,94.95458209752542 53.596264867519494,95.47002542703558 52.93729488115059,100.39882537085941 53.828296552819666,108.66666666666424 53.00226375303464,101.77326456337323 52.983701218210626,99.69012318159366 53.596264867519494,95.53445566654409 53.568421065225266,94.96532052583643 54.24595358641818,90.88463921672519 54.38517259765649,88.9086737706748 54.57079794595484,88.52206751541962 55.06270511884941,85.01032927558117" stroke="#4DD2FF" stroke-linecap="round" stroke-linejoin="round" stroke-width="0.5"><title>2025-07-17 5.0km</title><desc>1752765839000</desc></polyline><polyline fill="none" points="94.9639639640227,108.16022699617315 95.50450450461358,107.40965425453032 96.66666666662786,97.62076713852002 79.2882882882841,96.83889371735859 76.15315315325279,97.08909342830884 76.53153153148014,96.83889371735859 75.96396396390628,93.30480107141193 72.74774774780963,88.23815497022588 72.66666666662786,85.39203939490835 73.04504504497163,85.17310633716988 88.15315315325279,85.42331553323311 87.07207207207102,95.27514091553167 86.39639639644884,95.71299250097945 76.96396396390628,95.4002414321003 75.9369369369233,92.11633601805079 73.2882882882841,88.73856817450724 72.96396396390628,86.95584241993492 76.72072072071023,86.6743584619544 87.66666666662786,87.04967034875881 87.82882882887498,89.39535927010002 86.85585585597437,97.02654351966339 85.39639639644884,97.12036837782944" stroke="#4DD2FF" stroke-linecap="round" stroke-linejoin="round" stroke-width="0.5"><title>2025-07-15 4.1km</title><desc>1752589649000</desc></polyline><polyline fill="none" points="116.2978224947583,84.66666666666424 116.37095911364304,86.36980184030108 115.80415031732991,89.92408115776198 115.60302461538231,90.33662357700086 115.5938825380872,91.38383930057898 114.7893797304132,96.29186153721093 114.82594803988468,96.841884098023 114.21342885674676,101.40061312721082 114.94479504553601,108.66666666666424 114.52425948693417,105.78992005118198 114.20428677939344,101.16792181436904 115.57559838338057,91.30979409039719 115.4933196870843,90.97130103036761 115.76758200785844,89.99812735336309 116.30696457216982,86.47558571468835 116.24297003058018,86.10534168408049 116.46237988729263,84.98402315899875 116.26125418534502,84.73013804253424" stroke="#4DD2FF" stroke-linecap="round" stroke-linejoin="round" stroke-width="0.5"><title>2025-07-13 5.0km</title><desc>1752418082000</desc></polyline><polyline fill="none" points="145.79157177451998,108.66666666666424 145.66840964136645,108.65570397529518 145.74420172331156,107.78964783856645 146.1610581741552,105.15854857565137 146.40738244057866,104.93928740710544 146.83371290168725,101.95729126815422 147.06108914752258,98.87653956227587 146.43580447131535,94.58965322899894 146.11368812294677,91.00432587695832 145.92420791799668,90.30259648344509 145.52629948762478,89.66665027608542 145.61156557983486,89.5021808189631 146.06631807168014,89.56796863193449 145.8673638565233,87.48466839855973 145.412611364678,86.91449500326416 145.4410333954147,85.6096637724986 145.11891704704612,84.71052718001738 144.91996283188928,84.71052718001738 145.09049501630943,84.66666666666424 145.412611364678,85.46711822750513 145.40313735441305,86.92545990470535 145.81999380525667,87.30923075191822 145.8673638565233,87.52852776562213 146.06631807168014,89.53507473045465 145.6020915696281,89.5131454572329 145.4978774568881,89.63375640476443 145.91473390773172,90.23680911869451 146.1042141126818,90.90564545692905 146.49264853278873,95.17075010665576 147.0800371680525,98.7997937345499 147.07056315778755,100.20313738292316 145.91473390773172,108.09660523939237" stroke="#4DD2FF" stroke-linecap="round" stroke-linejoin="round" stroke-width="0.5"><title>2025-07-12 5.1km</title><desc>1752325602000</desc></polyline><polyline fill="none" points="176.5220655715675,108.66666666666424 176.2888379987562,108.65587166447949 176.81126776186284,105.06107492744923 177.02583712880732,104.9531211920621 177.62289971514838,100.94796006686374 177.71619074430782,98.92912888262072 177.16577367245918,95.31241021875758 176.7459640414454,90.91820121151977 176.18621786672156,89.7845305593728 176.260850689956,89.66576436204195 176.7273058356368,89.74134286661865 176.5127364686341,87.54954439192807 176.09292683756212,87.08526600150799 176.0742686317535,85.62763460623682 175.60781348618912,84.66666666666424 176.10225594049552,85.74640532062767 176.09292683756212,87.07446880549833 176.5220655715675,87.56034153965447 176.7552931443788,89.7089520855152 176.3074962045648,89.65496742841788 176.20487607258838,89.82771823453368 176.764622247254,91.00457562213705 177.1751027753926,95.29081749865873 177.72551984718302,98.85355691669974 177.63222881808178,100.89398112276103 176.736634938512,106.85309090880764" stroke="#4DD2FF" stroke-linecap="round" stroke-linejoin="round" stroke-width="0.5"><title>2025-07-10 5.0km</title><desc>1752149320000</desc></polyline><polyline fill="none" points="19.967599062772933,111.33333333332848 20.02381174371112,112.82937346133986 20.431353680382017,112.61797733519052 21.30265023483662,112.91067958933127 22.24421264033299,112.82937346133986 23.298200407705735,113.21964249902521 28.736777287442237,113.93513326303218 28.8913621599786,114.14652764933999 27.640630009351298,122.1305265925912 27.03634368936764,122.17930743946636 26.923918327491265,122.39069093733269 26.713120774016716,123.80532716080779 26.867705646553077,124.42321032407926 25.91209007083671,129.80519701409503 18.913611295400187,129.5938233070192 18.67470740142744,129.43122795785894 17.775304506649263,135.33333333332848 18.716866912087426,129.52878518716898 21.443181937094778,129.57756377950136 22.356638002151158,129.21985375702207 22.48311653424753,129.5938233070192 25.954249581554905,129.70763995323796 28.37139486137312,114.56931558428914 28.301129010273144,114.01643882930512 21.063746340863872,112.7480672919919" stroke="#4DD2FF" stroke-linecap="round" stroke-linejoin="round" stroke-width="0.5"><title>2025-07-08 5.1km</title><desc>1751976330000</desc></polyline><polyline fill="none" points="42.21376380609581,135.11480357966502 42.162258039810695,135.33333333332848 42.488461226574145,135.19426897287485 42.59147275914438,134.08175052830484 43.192373366327956,133.58508846437326 43.312553487718105,133.0685585794563 45.04658095398918,121.04892010999902 45.20109825290274,117.4130822198058 44.789052122388966,114.73086337688437 45.73332450498128,114.69112652471813 45.97368474781979,115.04875790320511 49.28722238133196,115.52559872320853 51.94835364149185,115.48586203267041 53.8884041729616,116.26072604164074 60.06909613177413,117.17466425758903 61.20222299097804,111.33333333332848 65.8377419601893,112.36650661342719 61.70011206541676,111.39293963261298 60.92752557055792,114.83020547186607 60.807345449051354,117.21440060483292 49.23571661498863,115.66467707663833 45.97368474781979,115.06862629395619 45.681818738696165,114.63152123132022 44.73754635604564,114.79046863994154 45.115255309036,116.37993561649637 45.18392966419924,119.81711375506711 43.243879132613074,133.12815825126017" stroke="#4DD2FF" stroke-linecap="round" stroke-linejoin="round" stroke-width="0.5"><title>2025-07-06 5.0km</title><desc>1751807521000</desc></polyline><polyline fill="none" points="76.31964567070827,133.84571740798128 77.35947841091547,126.45123865819187 73.99420154269319,126.21058567400905 72.93546275270637,126.58250380889513 74.31560438964516,126.45123865819187 74.12654389149975,126.23246322912746 77.60525705851614,126.42936112530879 77.85103570623323,126.21058567400905 77.7375994073227,125.53238036217226 79.15555314382073,116.5842456916871 79.02321079513058,112.12097835361783 81.46209122205619,111.88030934765993 96.39787058066577,114.33074482905795 96.37896453088615,113.60874441656051 79.94960723631084,111.33333333332848 80.21429193380754,116.7373953795468 78.49384140002076,128.90150827376056 78.96649264567532,129.64533460326493 78.5316534996964,130.454789747615 78.62618374882732,132.20495262858458 77.96447200502735,132.35809120374324 77.66197520797141,135.33333333332848 76.13058517244644,135.15832022858376 76.22511542157736,133.86759418722067" stroke="#4DD2FF" stroke-linecap="round" stroke-linejoin="round" stroke-width="0.5"><title>2025-07-05 4.8km</title><desc>1751729502000</desc></polyline><polyline fill="none" points="119.19614621292567,135.33333333332848 119.43366545147728,135.1597493092413 119.47116848907899,134.17610250794678 119.79619481554255,132.74401633732487 119.97120899130823,132.6861539670208 120.19622721732594,130.5886271630443 115.30833130818792,130.38610569751472 115.62085662211757,129.3011643684149 116.08339408662869,124.4115928272222 116.13339813688071,120.83833816059632 115.95838396111503,120.3609329698811 116.14589914935641,117.43859962352144 116.13339813688071,111.33333333332848 109.57036654528929,113.69155965601385 109.43285540718352,114.02431237100973 109.48285945749376,113.7349622281763 113.02064601058373,112.3894763347198 113.08315107336966,115.3697828061704 113.43317942490103,116.12208331064903 116.04589104891056,116.12208331064903 116.05839206150267,119.94139375296072 116.3334143377142,120.07159571125521 116.43342243816005,120.53453504272329 121.00879303342663,120.82387136017496 121.23381125944434,121.96674406332022 121.20880923426012,124.04993145575281 119.63368165236898,134.79811524592515" stroke="#4DD2FF" stroke-linecap="round" stroke-linejoin="round" stroke-width="0.5"><title>2025-07-03 5.2km</title><desc>1751545471000</desc></polyline><polyline fill="none" points="145.57943387085106,135.33333333333576 146.14953462372068,131.8185747979296 146.38318247324787,131.65635237075185 146.9813209680724,127.22217693068524 147.02805053797783,125.68639503769373 146.00934591400437,117.53123809258977 145.5140124729951,116.50368723367137 145.61681752675213,116.36307423878316 146.03738365595927,116.43878895141825 145.84111946233315,114.3403898212564 145.38316967728315,113.75629197655508 145.3925155912293,112.42583491171536 144.95325763412984,111.33333333333576 145.4298992471886,112.52318599297723 145.38316967728315,113.77792528726422 145.80373580637388,114.18895735470869 145.86915720428806,114.52427181226085 146.03738365595927,116.42797256719496 145.57943387085106,116.39552340793307 145.5140124729951,116.53613635992951 146.01869182800874,117.53123809258977 146.50467935501365,122.16050203527993 147.04674236592837,125.65394870226737 146.88786182826152,128.07658120421547 145.8598112902837,134.96564095387293" stroke="#4DD2FF" stroke-linecap="round" stroke-linejoin="round" stroke-width="0.5"><title>2025-07-01 5.0km</title><desc>1751376396000</desc></polyline><polyline fill="none" points="175.8232399855042,135.33333333332848 175.99654683779227,135.11942509650544 175.9618854673463,134.3306354676606 176.2391764309723,134.0632480795466 176.4355908635771,133.02043207356473 176.7359894075198,129.34377123520244 177.15192585298792,127.9131881584035 177.61407745914767,124.15616226062411 177.49853955762228,122.00351187822525 176.8515273090452,118.16609120802605 176.41248328331858,113.5129013130063 175.71925587416627,111.78797012678115 176.33160675218096,111.90831489728589 176.35471433249768,111.33333333332848 176.35471433249768,111.88157162444259 175.8232399855042,111.77459847883438 175.73080966429552,111.90831489728589 176.16985369008034,112.56352338210854 176.4355908635771,113.4861583665188 176.92085004999535,118.67418818055012 177.61407745914767,123.28708404851204 177.55630850832677,125.43971342501754 176.1005309491302,134.8787779144477" stroke="#4DD2FF" stroke-linecap="round" stroke-linejoin="round" stroke-width="0.5"><title>2025-06-30 4.1km</title><desc>1751292736000</desc></polyline><polyline fill="none" points="11.60278745641699,151.47946972498903 11.33333333331393,149.53196432037657 11.426248548203148,149.32752796776913 18.65505226480309,148.98321321589174 19.807200929091778,149.09081169650744 21.684088269423228,148.9078942142587 24.499419279862195,148.9401737929802 35.33333333331393,148.25154063948867 32.0998838559608,148.4774988881254 31.347270615573507,148.72497641504742 29.953542392526288,148.66041711611615 22.901277584198397,149.02625262131914 16.341463414602913,149.14461089566612 16.146341463376302,149.3167681487903 16.60162601619959,151.74845936051133 16.387921022018418,151.72694021490315 16.127758420363534,150.45730285965692" stroke="#4DD2FF" stroke-linecap="round" stroke-linejoin="round" stroke-width="0.5"><title>2025-06-26 5.0km</title><desc>1750950176000</desc></polyline><polyline fill="none" points="66.0,150.98225440696842 65.61248654467636,149.01774559303158 55.2874058126763,149.96510248330014 54.185145317576826,149.97507461228815 50.206673842825694,149.4764669169308 42.0,149.8254925704823 49.9311087190581,149.46649473709112 54.19375672767637,149.9850467403012 61.539289558684686,149.31691191774007" stroke="#4DD2FF" stroke-linecap="round" stroke-linejoin="round" stroke-width="0.5"><title>2025-06-24 5.0km</title><desc>1750769966000</desc></polyline><polyline fill="none" points="96.66666666665697,150.96111835589545 96.33813640725566,149.03888164410455 86.11911623438937,150.0100163508905 84.87415946205147,150.050062936818 80.84534101822646,149.5294560465045 72.66666666665697,149.8898764951955 80.62920268968446,149.5294560465045 84.86551392887486,150.050062936818 93.51969260323676,149.27916329018626" stroke="#4DD2FF" stroke-linecap="round" stroke-linejoin="round" stroke-width="0.5"><title>2025-06-22 5.0km</title><desc>1750563938000</desc></polyline><polyline fill="none" points="116.15350276356912,162.0 114.91310517999227,154.5894652416755 114.89571642884403,152.56887582415948 115.00584518624237,151.7230292817767 114.93629018156207,149.54794540820149 114.95947518313187,149.1719977008106 115.08699269170756,148.95716947540495 114.95947518313187,148.85646850336343 114.95367893271032,147.4802064445903 113.54519008783973,139.00716892904893 113.19161881401669,138.0 113.55098633820307,138.87959505083563 114.93629018156207,147.33922187700227 115.01164143663482,151.46121743510594 114.91310517999227,152.5755888484855 114.90730892959982,154.52233702103695 115.85789399367059,160.21456697728718 115.99120775263873,160.6038760486117 117.47504785261117,160.52332953303267" stroke="#4DD2FF" stroke-linecap="round" stroke-linejoin="round" stroke-width="0.5"><title>2025-06-21 8.0km</title><desc>1750517001000</desc></polyline><polyline fill="none" points="148.43486930365907,162.0 146.4018716327264,149.49850031468668 142.8244261186337,149.42549629311543 136.3787203246029,148.80496090797533 136.50479769951198,148.14792109704285 136.25264294963563,146.8885880526068 136.599355730752,138.65707705785462 136.55207671504468,138.07300868110906 136.236883277772,138.0 135.84289148100652,148.12966995679017 136.44175901205745,148.2026745066978 136.4732783557265,148.82321197947022 146.4491506483173,149.48024931210966 147.66264538210817,157.29150842323725 148.04087750701,158.33176721757627 156.1571085190517,158.07626561747747" stroke="#4DD2FF" stroke-linecap="round" stroke-linejoin="round" stroke-width="0.5"><title>2025-06-19 5.0km</title><desc>1750345525000</desc></polyline><polyline fill="none" points="188.66666666665697,150.6008250245286 188.44637681159656,149.29176617336634 181.65217391302576,149.93622916676395 180.7768115941726,149.95636853367614 177.8666666666395,149.62071161411586 167.08405797099113,150.11077014231705 166.15072463764227,150.26517138900817 164.66666666665697,150.70823382663366 166.75942028980353,150.14433566151274 170.55072463766555,149.97650789446925" stroke="#4DD2FF" stroke-linecap="round" stroke-linejoin="round" stroke-width="0.5"><title>2025-06-17 5.1km</title><desc>1750166247000</desc></polyline><polyline fill="none" points="12.16091954021249,185.72336749832903 11.333333333372138,180.40449747702223 30.03678160929121,179.85343649571587 26.995402298984118,167.84957020488218 30.67816091957502,168.06521392901777 35.33333333337214,167.60996583499946 27.988505747169256,168.0412535249925 30.698850574786775,178.84714789211284 22.671264367876574,179.23049643957347" stroke="#4DD2FF" stroke-linecap="round" stroke-linejoin="round" stroke-width="0.5"><title>2025-06-16 3.2km</title><desc>1750084948000</desc></polyline><polyline fill="none" points="66.0,177.77611800938757 65.63225806452101,175.55721532394818 53.835483870934695,176.64425910302816 52.770967741904315,176.65546568397986 48.10645161289722,176.0839286002156 42.0,176.3753008180429 47.912903225806076,176.07272196102713 52.76129032258177,176.63305252097052 62.76774193550227,175.79255561026366" stroke="#4DD2FF" stroke-linecap="round" stroke-linejoin="round" stroke-width="0.5"><title>2025-06-15 4.6km</title><desc>1749956754000</desc></polyline><polyline fill="none" points="96.66666666665697,177.6318849613308 96.37450769782299,175.70144837199769 86.09738632297376,176.6467700275898 85.02327246687491,176.66667143775703 80.50340136053273,176.15918421139213 72.66666666665697,176.51741076266626 80.65807375579607,176.15918421139213 84.95452918010415,176.66667143775703 87.1972789115971,176.55721363167686 87.61833154311171,176.41790351917007 93.0662370211212,175.930316559934" stroke="#4DD2FF" stroke-linecap="round" stroke-linejoin="round" stroke-width="0.5"><title>2025-06-14 5.1km</title><desc>1749906363000</desc></polyline><polyline fill="none" points="127.33333333334303,178.09166922865552 127.04479019332211,176.14581278419064 117.09853842528537,177.10891835648363 115.75766148045659,177.1187459148059 111.68411126828869,176.62736677278735 104.0122583687189,176.99098757876345 103.91041961341398,176.76495318497473 103.95285242813407,175.25149185329064 103.33333333334303,175.24166410468024 103.9783121169603,175.27114734751376 103.91041961341398,176.75512559060007 104.03771805754513,176.99098757876345 111.89627534183091,176.61753916442103 115.94436586520169,177.12857347212412 124.00660066012642,176.40133152664202 123.99811409713584,176.0082254885565 126.58651579444995,175.87063799663156" stroke="#4DD2FF" stroke-linecap="round" stroke-linejoin="round" stroke-width="0.5"><title>2025-06-12 5.9km</title><desc>1749735885000</desc></polyline><polyline fill="none" points="158.0,184.2168484510621 157.23492723499658,180.36482953710947 136.21205821202602,182.23306851630332 134.23284823284484,176.82090278581018 134.0,170.06029296043562 137.92515592515701,169.8869408097089 141.2681912681437,170.09881563897943 141.45114345120965,169.48245183957624 141.10187110188417,169.34762199044053 134.09979209973244,169.11648488228093 134.24948024947662,176.62829616676026 134.83160083158873,178.82399998579058 135.97920997918118,181.55896379800106 145.29313929314958,180.75003496187855 145.4760914760991,181.48192310564627 157.18503118510125,180.34556924522622 157.90020790026756,184.15906874736538" stroke="#4DD2FF" stroke-linecap="round" stroke-linejoin="round" stroke-width="0.5"><title>2025-06-10 5.3km</title><desc>1749559786000</desc></polyline><polyline fill="none" points="165.29682420601603,170.2767672228365 164.72068017011043,167.94163718505297 164.66666666662786,166.1277231360873 180.996749187354,165.7107291269058 181.73493373335805,168.44202443707036 181.19479869969655,168.42117499270535 181.03275818948168,168.79646466665145 181.37484371091705,170.73545034822018 181.2848212053068,172.04894633621734 181.87896974245086,174.67591301318316 183.40935233805794,174.61336657954962 185.6779194799019,183.34883332681784 185.713928482146,183.7449435047165 185.137784446124,183.9117265081586 185.65991497877985,183.7657913876319 185.83995998988394,184.09935722443333 185.37184296071064,184.18274859875964 185.5338834708091,184.95411719940603 186.61415353836492,187.70600311023009 187.37034258560743,187.62261317179946 188.66666666662786,186.91379732331552 187.29832458111923,187.2056629700819 184.86771692917682,177.51133125688648 184.57964491122402,176.67738879373064 183.9314828707138,176.67738879373064 183.44536134030204,174.55082012673665 182.92323080764618,174.75930822829832 181.8609652413288,174.61336657954962 181.26681670418475,172.21573887408886 181.1407851963304,169.13005491002696 180.15053763438482,165.6273302230984 164.72068017011043,166.16942249026033 165.36884221050423,170.4018627226178" stroke="#4DD2FF" stroke-linecap="round" stroke-linejoin="round" stroke-width="0.5"><title>2025-06-08 5.0km</title><desc>1749355299000</desc></polyline><polyline fill="none" points="35.333333333343035,204.32092851323978 34.91122278055991,202.34573815342446 27.175400813575834,202.99416362588818 24.849485522834584,203.32336260632292 23.55731036135694,203.32336260632292 19.46542234986555,202.82457584021904 11.333333333343035,203.1837025680361 19.077769801398972,202.82457584021904 23.514237855997635,203.33333831570053 32.843742522149114,202.4953751821813" stroke="#4DD2FF" stroke-linecap="round" stroke-linejoin="round" stroke-width="0.5"><title>2025-06-07 5.3km</title><desc>1749293029000</desc></polyline><polyline fill="none" points="66.0,204.28409725465463 65.64566078508506,202.3825694120169 54.69571480015293,203.38337812972895 50.25351098307874,202.87296695822442 42.0,203.21324136735348 50.21894130358123,202.85295077978662 54.16852718763403,203.38337812972895 62.629456247756025,202.61275632031902" stroke="#4DD2FF" stroke-linecap="round" stroke-linejoin="round" stroke-width="0.5"><title>2025-06-05 5.1km</title><desc>1749128617000</desc></polyline><polyline fill="none" points="73.00262467190623,203.18142275678838 72.66666666668607,200.98089320224244 72.7926509186509,200.88363129067875 82.20997375331353,200.55537175371865 83.9842519685044,207.0596053163681 93.28608923888532,206.9380341094802 96.66666666668607,206.7313627734402 93.88451443577651,206.8286199173308 93.37007874017581,199.6070613503034 84.46719160105567,200.12984878723364 82.55643044621684,200.06905966807972 82.72440944879781,200.55537175371865 77.79002624674467,200.70126499279286" stroke="#4DD2FF" stroke-linecap="round" stroke-linejoin="round" stroke-width="0.5"><title>2025-06-03 5.2km</title><desc>1748952979000</desc></polyline><polyline fill="none" points="123.18055455235299,196.1786900219886 122.65407431768836,195.3994417804497 122.28087313871947,194.58160827514075 122.04095809507999,194.357859834985 121.44783479275065,194.30385149183712 120.9946619325492,193.77919701216888 120.78806842275662,193.09251139555272 120.48151031142334,192.62185810891242 120.11497343919473,191.33333333333576 119.05534866312519,191.7885631525569 118.56218996230746,191.84257328858803 117.28264306290657,192.32094709848752 116.7361699079629,193.02307093054696 116.7361699079629,193.20052977016894 114.5236200610525,196.01666877022217 114.51029144751374,196.1786900219886 113.90383953164564,197.01193670227076 113.37735929701012,197.49799303485634 113.2840590022679,197.41312628080777 112.9108578232408,197.73716246683762 112.66427847283194,197.59057484001096 112.65761416612077,197.72944733565964 112.62429263224476,197.52885364916438 112.97083658416523,197.77573811099865 112.91752213003929,198.0534821692272 112.11780531788827,198.94071331381565 110.75162243051454,199.24931301642937 110.75162243051454,199.11044330577715 110.65832213577232,199.28017291758442 110.28512095677434,199.3650375809666 109.9585699251329,199.27245794346527 109.41209677018924,199.3187477763422 109.31879647541791,199.23388306114066 109.09887435211567,199.35732261550584 108.43910798212164,199.12587328618247 108.3524719941197,198.11520293280046 108.09922833694145,197.8914649256185 106.85300297141657,198.20778398396942 106.38650149764726,198.4932415130461 106.91964603908127,200.80000750120234 107.75934869179036,203.37671325348492 109.53205429200898,210.30406870252045 109.77863364241784,211.0214535326013 111.87122596750851,215.25619989132247 112.13779823819641,215.33333333333576 113.05747257216717,215.04022583633196 113.6839174083434,215.22534649256704 114.83017817238579,214.9862322264962 114.81018525204854,214.53114170162007 115.11674336338183,214.44629401359998 115.66988082509488,214.7008367929302 116.08973215147853,214.50028800788277 116.26300412745331,214.75483060597617 117.34262182380189,214.99394560166547 117.97573096677661,214.87824489145714 118.6155044164625,214.40001341645984 118.72879763151286,213.49753612705535 119.20862771879183,212.83416990308615 119.08200589020271,212.17079787584953 119.23528494586935,211.84682338124549 118.90873391422792,211.48427885324054 118.70214040446444,210.94431570448796 118.62216872320278,210.14207764024468 119.05534866312519,209.7949527699384 119.71511503311922,210.06493891751597 120.08165190537693,210.04179728538293 120.17495220011915,209.54039352166 120.0216731444525,208.92327664513869 119.89505131586338,208.8692786794636 120.0216731444525,208.8075666716104 119.87505839558435,208.76128263273858 119.99501591734588,208.8307086804416 120.00834453094285,208.46814973048458 119.83507255496806,208.0670186591742 119.0486843563558,208.0130200836502 118.6821474841272,207.7353125163063 118.83542653976474,206.68618585925287 119.46187137597008,205.6139016998277 119.94170146321994,205.08161112416565 120.16162358655129,205.0044672524018 120.63478936708998,204.34874117260188 121.4678277130588,203.55414785121684 122.20756576428539,202.6283975543629 121.99430794769432,202.19637687986688 121.33454157770029,202.18866220259224 121.24790558972745,201.93407741187548 121.5011492468766,201.32461337855057 121.79437874467112,201.0468813075422 122.06761532215751,201.0854552671517 122.18090853717877,200.9465889207131 121.94765780033777,200.41426556896477 122.26088021841133,199.75849977863254 122.55410971620586,199.58877123798447 122.80068906661472,199.68906542157492 122.76736753276782,199.5039068251499 123.50710558396531,199.16444822347694 123.57374865165912,198.95614332879632 124.22018640811439,198.5626769656301 124.28016516903881,197.9994764598523 123.43379820950213,196.38700255099684 123.30051207414363,196.32528037987504" stroke="#4DD2FF" stroke-linecap="round" stroke-linejoin="round" stroke-width="0.5"><title>2025-06-02 11.5km</title><desc>1748829019000</desc></polyline><polyline fill="none" points="158.0,204.45567130005657 157.56036636134377,202.21099536660768 144.88093255623244,203.39119133885833 139.62531223974656,202.78952433705854 134.0,203.032505625466 139.6952539550257,202.76638323484076 144.30141548707616,203.36805035929137 157.54038301412947,202.22256597493106 157.99000832642196,204.3862489981184" stroke="#4DD2FF" stroke-linecap="round" stroke-linejoin="round" stroke-width="0.5"><title>2025-06-01 4.9km</title><desc>1748740054000</desc></polyline><polyline fill="none" points="188.66666666668607,214.89880889582855 188.5797626232379,215.08330646637478 188.4059545362834,214.94912643560383 187.8265942466096,211.72877287567826 169.51880909275496,213.32218485706835 167.82418024539948,208.57544895081082 167.7517602092703,202.60409553641512 167.3462080064346,200.35639513678325 164.66666666668607,191.58336020029674 166.43371555017075,197.45446786457615 166.91168778925203,198.36027724783344 167.69382418028545,201.73185723608185 168.47596057131886,201.94991724463762 167.66485616576392,201.93314340812503 167.82418024539948,208.021933729804 168.37457252060995,210.28630240833445 169.3305169985979,212.65127642951848 169.5767451216816,212.80223106419726 177.42707704688655,211.99713807924127 177.64433715544874,212.63450368381746 183.88694427680457,212.030683698933" stroke="#4DD2FF" stroke-linecap="round" stroke-linejoin="round" stroke-width="0.5"><title>2025-05-31 5.5km</title><desc>1748696141000</desc></polyline><polyline fill="none" points="33.65021645021625,236.62341883589397 33.104761904804036,233.10426026700588 13.359307359321974,234.87287177726103 11.535930735932197,229.67526925704442 11.33333333331393,223.41267743625212 18.034632034541573,223.48486995857093 11.426839826803189,223.37658116410603 11.551515151455533,229.58503175475926 12.034632034657989,231.51610426542175 13.250216450134758,234.29536792032013 30.73593073588563,232.61698664494907 32.29437229433097,232.52675064181676 32.37229437229689,233.1944959757966 35.33333333331393,232.95988303729973" stroke="#4DD2FF" stroke-linecap="round" stroke-linejoin="round" stroke-width="0.5"><title>2025-05-29 5.0km</title><desc>1748526381000</desc></polyline><polyline fill="none" points="56.548335974570364,227.64381388164475 56.01584786048625,223.2833685369842 65.03011093498208,222.84291461919202 66.0,226.38854318059748 64.95404120441526,222.93100547452923 55.97781299520284,223.34943654718518 56.225039619603194,225.52966955203738 55.88272583205253,223.37145921276533 43.064976228168234,224.56067982131208 44.98573692550417,234.18431692272134 45.727416798705235,236.4305046248337 45.232963549904525,236.7388030756265 46.012678288389,238.80879556915897 44.96671949280426,236.07816299967817 42.38034865283407,224.60472490341635 46.8684627575567,223.96607033518376 54.98890649760142,223.45954985269054 54.893819334334694,222.82089189971157 42.969889065017924,223.63573102476948 42.30427892226726,221.19120443084103 42.0,221.45547890945454 42.15213946113363,223.81191205314826 51.14738510292955,222.93100547452923" stroke="#4DD2FF" stroke-linecap="round" stroke-linejoin="round" stroke-width="0.5"><title>2025-05-27 6.0km</title><desc>1748352132000</desc></polyline><polyline fill="none" points="93.46848899009638,231.7884801436303 93.56416097190231,231.7251725444512 93.25664388760924,230.1899474610109 85.17236142745242,230.96547732800536 84.23614274867577,230.9813043874965 80.8671222475241,230.58562693244312 72.81700835231459,230.94173673273326 72.66666666665697,228.3143993344347 73.62338648442528,228.2115198563697 74.94229309033835,228.30648553327774 74.94912680331618,230.58562693244312 81.06529992405558,230.34030589768372 84.78283978736727,230.7043303806713 93.2429764616536,229.86548878976464 96.52315869397717,229.7467840590689 96.66666666665697,230.00793422701827 96.57099468488013,230.03958873314696 93.54365983293974,230.16620662857895" stroke="#4DD2FF" stroke-linecap="round" stroke-linejoin="round" stroke-width="0.5"><title>2025-05-25 7.6km</title><desc>1748179850000</desc></polyline><polyline fill="none" points="127.31760594146908,231.32496844143316 127.25469637397327,230.80591482914315 126.9480122324021,230.80591482914315 126.7514198339777,229.83154288765945 126.59414591523819,229.61299071281246 119.00567933596903,230.25953934815334 117.76321537792683,230.48719620460906 112.77763215376763,230.02277560210496 103.46701616430073,230.44166487974144 103.33333333334303,228.8571603200544 105.64525993884308,228.67503155855957 105.62953254696913,230.0045629802844 105.9362166885403,230.04098822022934 112.47094801225467,229.75869222213805 117.20489296634332,230.16847644315567 127.03451288773795,229.22141672924045 127.33333333334303,231.2248004352732" stroke="#4DD2FF" stroke-linecap="round" stroke-linejoin="round" stroke-width="0.5"><title>2025-05-24 6.6km</title><desc>1748094255000</desc></polyline><polyline fill="none" points="158.0,231.0693664140199 157.73892022564542,228.9306335859801 147.85656728449976,229.7704551058996 146.48348106368212,230.00560398108064 144.9170024174382,230.02799908576708 140.4012892828905,229.47931770596915 134.0,229.73686236834328 140.37228041904746,229.4681200982668 144.8589846898103,230.0391966364332 155.0991136180819,229.17698189718067" stroke="#4DD2FF" stroke-linecap="round" stroke-linejoin="round" stroke-width="0.5"><title>2025-05-18 4.7km</title><desc>1747565909000</desc></polyline><polyline fill="none" points="185.54728504625382,230.859311325803 185.28619143049582,229.32369196013315 178.32598530393443,229.91248223041475 177.16480580208008,230.11935343331425 176.23036549286917,230.11139685870876 173.0491459108598,229.69765386255312 164.71476285904646,230.07957055226143 164.66666666665697,229.84087284013367 169.35948086649296,229.53852135707712 172.54070044850232,229.4828249035345 176.25784903138992,230.07957055226143 185.3755129306228,229.26799535330065 188.44679835860734,229.140688674197 188.57047428190708,229.1566020204409 188.59108693577582,229.26799535330065 188.66666666665697,229.22025537297304" stroke="#4DD2FF" stroke-linecap="round" stroke-linejoin="round" stroke-width="0.5"><title>2025-05-17 5.7km</title><desc>1747487200000</desc></polyline><polyline fill="none" points="34.02180561091518,255.67448110455007 30.84350485302275,255.84077079434064 29.29264725430403,256.11791971234925 22.17019013420213,256.66112954320124 17.709081239125226,256.08466187948216 11.33333333331393,256.3396383383151 17.62292248365702,256.10683376920497 21.99787262326572,256.65004365537607 34.71107565477723,255.5414491696938 35.132296237163246,257.69211216996337 35.33333333331393,257.79188416364195" stroke="#4DD2FF" stroke-linecap="round" stroke-linejoin="round" stroke-width="0.5"><title>2025-05-11 5.0km</title><desc>1746965499000</desc></polyline><polyline fill="none" points="66.0,257.528947662664 65.61262553796405,255.8043856706645 54.7230989956588,256.79127746858285 50.298421807732666,256.282879907194 42.0,256.6317804788705 50.09182209469145,256.2928485122102 54.223816355806775,256.79127746858285 65.6814921090554,255.8243229772488" stroke="#4DD2FF" stroke-linecap="round" stroke-linejoin="round" stroke-width="0.5"><title>2025-05-10 5.3km</title><desc>1746870058000</desc></polyline><polyline fill="none" points="96.61426491991733,256.2621190340069 96.5531295487599,256.09018507901055 96.66666666665697,256.22166401256254 96.20378457059269,256.30257403892756 85.50509461428737,257.2431482543252 80.97234352256055,256.7071231812006 72.66666666665697,257.0509886553773 80.92867540029692,256.7071231812006 83.0509461426409,256.8790560672496 84.98107714703656,257.2330346004819 93.74090247452841,256.44416642634314" stroke="#4DD2FF" stroke-linecap="round" stroke-linejoin="round" stroke-width="0.5"><title>2025-05-05 5.4km</title><desc>1746434825000</desc></polyline></svg>