<?xml version="1.0" encoding="utf-8" ?>
<svg baseProfile="full" height="300mm" version="1.1" viewBox="0,0,200,300" width="200mm" xmlns="http://www.w3.org/2000/svg" xmlns:ev="http://www.w3.org/2001/xml-events" xmlns:xlink="http://www.w3.org/1999/xlink"><defs /><rect fill="#222222" height="300" width="200" x="0" y="0" /><text fill="#FFFFFF" style="font-size:12px; font-family:Arial; font-weight:bold;" x="10" y="20">Over 3km Runs</text><text fill="#FFFFFF" style="font-size:4px; font-family:Arial" x="10" y="280">Runner</text><text fill="#FFFFFF" style="font-size:9px; font-family:Arial" x="10" y="290">tang-hi</text><text fill="#FFFFFF" style="font-size:4px; font-family:Arial" x="65" y="280">SPECIAL TRACKS</text><rect fill="yellow" height="2.6" width="2.6" x="65" y="283" /><text fill="#FFFFFF" style="font-size:3px; font-family:Arial" x="70" y="285.5">Over 20.0 km</text><rect fill="red" height="2.6" width="2.6" x="65" y="287" /><text fill="#FFFFFF" style="font-size:3px; font-family:Arial" x="70" y="289.5">Over 40.0 km</text><text fill="#FFFFFF" style="font-size:4px; font-family:Arial" x="120" y="280">STATISTICS</text><text fill="#FFFFFF" style="font-size:3px; font-family:Arial" x="120" y="285">Number: 32</text><text fill="#FFFFFF" style="font-size:3px; font-family:Arial" x="120" y="290">Weekly: 3.6</text><text fill="#FFFFFF" style="font-size:3px; font-family:Arial" x="141" y="285">Total: 175.4 km</text><text fill="#FFFFFF" style="font-size:3px; font-family:Arial" x="141" y="290">Avg: 5.5 km</text><text fill="#FFFFFF" style="font-size:3px; font-family:Arial" x="167" y="285">Min: 3.2 km</text><text fill="#FFFFFF" style="font-size:3px; font-family:Arial" x="167" y="290">Max: 11.5 km</text><polyline fill="none" points="11.989124893560074,62.29046174528776 11.922903194092214,62.57142857143481 12.342307291342877,62.39263153655338 12.474750690395012,60.962250679251156 13.247337185312063,60.32368516847782 13.401854484342039,59.65957531644381 15.631318369414657,44.20575442715199 15.829983468051068,39.53110571116849 15.30020987172611,36.082538627422764 16.514274363522418,36.03144838892331 16.823308961465955,36.49126016125956 21.08357163320761,37.104341215555905 24.50502611056436,37.05325118487235 26.999376793857664,38.04950491068303 34.94598074082751,39.22456833117758 36.40285813133232,31.714285714289872 42.362811091705225,33.04265136012691 37.04300122696441,31.79092238478188 36.049675733665936,36.21026417812391 35.89515843463596,39.275657920501544 21.017349933623336,37.28315624137758 16.823308961465955,36.51680523509276 16.448052664054558,35.95481301168911 15.233988172141835,36.159173965628725 15.719613968860358,38.20277436406468 15.807909568306059,42.62200339937408 13.313558884779923,59.73620346590178" stroke="#4DD2FF" stroke-linecap="round" stroke-linejoin="round" stroke-width="0.5"><title>2025-07-06 5.0km</title><desc>1751807521000</desc></polyline><polyline fill="none" points="52.83954443375114,60.65877952455776 54.176472242572345,51.15159256051993 49.849687697715126,50.842181580897886 48.48845211067237,51.320362040016335 50.26291992957704,51.15159256051993 50.019842146197334,50.870309866033494 54.49247336096596,51.12346430396428 54.80847447947599,50.842181580897886 54.66262780944817,49.97020332279499 56.48571118491236,38.46545874644653 56.31555673654657,32.72697216895176 59.45126014261041,32.41754058984225 78.65440503228456,35.568100494507235 78.63009725394659,34.639814249880146 57.50663787522353,31.714285714289872 57.84694677207153,38.66236548798042 55.63493894296698,54.30193920910824 56.24263340153266,55.25828734706738 55.68355449964292,56.299015389813576 55.805093391332775,58.54922480817186 54.9543211493874,58.74611726196599 54.56539669597987,62.571428571420256 52.59646665037144,62.34641172247939 52.71800554206129,60.68690681215958" stroke="#4DD2FF" stroke-linecap="round" stroke-linejoin="round" stroke-width="0.5"><title>2025-07-05 4.8km</title><desc>1751729502000</desc></polyline><polyline fill="none" points="104.96647370234132,62.57142857143481 105.27185558050405,62.348249111906625 105.32007377169793,61.08356036739133 105.73796476284042,59.242306719432236 105.96298298885813,59.16791224334156 106.2522921366035,56.47109206680034 99.96785453910707,56.210707325386466 100.3696727998904,54.81578275941138 100.96436382562388,48.52919077787374 101.02865474740975,43.93500620649138 100.80363652139204,43.321199532729224 101.0447274777689,39.563913801684976 101.02865474740975,31.714285714289872 92.59047127253143,34.74629098632431 92.41367123782402,35.17411590561096 92.47796215960989,34.802094293394475 97.02654487075051,33.07218385893793 97.10690852289554,36.90400646509079 97.55694497487275,37.87124997084902 100.91614563437179,37.87124997084902 100.93221836484736,42.781791968111065 101.28581843420397,42.94919448591827 101.41440027760109,43.54440219780372 107.2970196143724,43.91640603452106 107.58632876211777,45.38581379572861 107.55418330122484,48.06419758599077 105.52901926735649,61.88329103049182" stroke="#4DD2FF" stroke-linecap="round" stroke-linejoin="round" stroke-width="0.5"><title>2025-07-03 5.2km</title><desc>1751545471000</desc></polyline><polyline fill="none" points="135.88784354820382,62.57142857143481 136.62083023047308,58.05245331162587 136.92123460839503,57.84388161955576 137.69026981608476,52.14279891089245 137.75035069161095,50.1682221913361 136.4405876036617,39.68302040475828 135.8037303223973,38.36188358615618 135.93590824864805,38.1810954498651 136.47663612902397,38.27844293754606 136.22429645148804,35.580501198768616 135.6355038707261,34.82951825557393 135.64752004580805,33.11893060078728 135.08275981526822,31.714285714289872 135.6955847463105,33.244096276699565 135.6355038707261,34.85733251221245 136.17623175104382,35.385802313205204 136.26034497685032,35.81692090148863 136.47663612902397,38.26453615783248 135.88784354820382,38.222815810207976 135.8037303223973,38.4036038913473 136.45260377880186,39.68302040475828 137.0774448849843,45.634931188222254 137.77438304183306,50.126505474356236 137.57010806485778,53.24131869114353 136.24832880176837,62.098681226416375" stroke="#4DD2FF" stroke-linecap="round" stroke-linejoin="round" stroke-width="0.5"><title>2025-07-01 5.0km</title><desc>1751376396000</desc></polyline><polyline fill="none" points="171.7727371242945,62.57142857143481 171.99556022009347,62.29640369550907 171.95099560095696,61.28224560128001 172.30751255422365,60.938461816564086 172.5600453960942,59.59769838031207 172.9462720954907,54.87056301670964 173.48104752536165,53.031241917968146 174.0752424474922,48.20078004938841 173.92669371695956,45.43308670059196 173.09482082596514,40.49926012461947 172.5303356500226,34.5165874024533 171.63904326682677,32.29881873445993 172.42635153856827,32.453547725090175 172.45606128469808,31.714285714289872 172.45606128469808,32.419163517144625 171.7727371242945,32.28162661565875 171.65389813989168,32.453547725090175 172.21838331589242,33.29595863416034 172.5600453960942,34.48220361411222 173.18395006435458,41.15252766071353 174.0752424474922,47.08339377667289 174.00096808222588,49.85106011790049 172.1292540775612,61.98700017572264" stroke="#4DD2FF" stroke-linecap="round" stroke-linejoin="round" stroke-width="0.5"><title>2025-06-30 4.1km</title><desc>1751292736000</desc></polyline><polyline fill="none" points="12.060726729687303,83.33074678927369 11.714285714260768,80.82681126905663 11.833748133387417,80.5639645299816 21.12792434048606,80.12127413472626 22.60925833741203,80.25961503836152 25.02239920356078,80.02443541833782 28.642110502696596,80.06593773383065 42.571428571420256,79.18055225076387 38.41413638624363,79.47106999901007 37.44649079145165,79.78925539077318 35.65455450472655,79.70625057785946 26.587356893985998,80.17661051312461 18.15331010450609,80.32878543727566 17.90243902435759,80.55013047701505 18.487804877979215,83.67659060636652 18.21304131404031,83.64892313344171 17.878546540508978,82.01653224813344" stroke="#4DD2FF" stroke-linecap="round" stroke-linejoin="round" stroke-width="0.5"><title>2025-06-26 5.0km</title><desc>1750950176000</desc></polyline><polyline fill="none" points="79.0,82.69146995181654 78.50176841462962,80.16567290532839 65.22666461631889,81.38370319281239 63.80947255116189,81.39652450152062 58.69429494079668,80.7554574646274 48.14285714284051,81.2042047334835 58.33999692450743,80.74263609055197 63.82054436416365,81.40934580896283 73.26480086118681,80.55031532281282" stroke="#4DD2FF" stroke-linecap="round" stroke-linejoin="round" stroke-width="0.5"><title>2025-06-24 5.0km</title><desc>1750769966000</desc></polyline><polyline fill="none" points="115.42857142857974,82.66429502900428 115.00617538078222,80.19284782813338 101.8674351584632,81.441449594 100.26677645120071,81.49293806161586 95.08686702343402,80.82358634550474 84.57142857142026,81.28698406525655 94.80897488672053,80.82358634550474 100.25566076568794,81.49293806161586 111.38246191845974,80.50178137309558" stroke="#4DD2FF" stroke-linecap="round" stroke-linejoin="round" stroke-width="0.5"><title>2025-06-22 5.0km</title><desc>1750563938000</desc></polyline><polyline fill="none" points="137.48307498177746,96.85714285714494 135.8882780886197,87.32931245357759 135.86592112283688,84.73141177392245 136.0075152395002,83.64389479084639 135.91808737633983,80.8473583819723 135.94789666405995,80.36399704389623 136.1118477465061,80.0877893255165 135.94789666405995,79.95831664717844 135.94044434209354,78.18883685732726 134.12953011298669,67.29493148020265 133.67493847518926,66.0 134.1369824348949,67.13090792249568 135.91808737633983,78.00757098471513 136.01496756143752,83.30727955941984 135.8882780886197,84.74004280519148 135.8808257666824,87.24300474132178 137.10300656332402,94.56158611364663 137.27440996770747,95.06212634821713 139.18220438197022,94.95856654246018" stroke="#4DD2FF" stroke-linecap="round" stroke-linejoin="round" stroke-width="0.5"><title>2025-06-21 8.0km</title><desc>1750517001000</desc></polyline><polyline fill="none" points="175.9876891047461,96.85714285714494 173.37383495632093,80.78378611887456 168.7742621524958,80.68992380543204 160.48692613164894,79.89209259596828 160.6490256136749,79.04732712476107 160.32482664950658,77.42818463906588 160.77060022519436,66.84481336009048 160.70981291937642,66.09386830427684 160.30456421419512,66.0 159.7980033326894,79.02386137301801 160.56797587266192,79.11772436575848 160.608500743052,79.91555825930845 173.43462226213887,80.760320544141 174.9948297770461,90.80336797273776 175.48112822324038,92.14084356544481 185.91628238162957,91.81234150819364" stroke="#4DD2FF" stroke-linecap="round" stroke-linejoin="round" stroke-width="0.5"><title>2025-06-19 5.0km</title><desc>1750345525000</desc></polyline><polyline fill="none" points="42.571428571420256,116.48677503153885 42.288198757800274,114.8036993657588 33.55279503107886,115.6322946429791 32.42732919252012,115.65818811472127 28.685714285704307,115.22662921815208 14.822360248421319,115.85670446869335 13.622360248438781,116.05522035729518 11.714285714289872,116.62487206281367 14.404968944087159,115.89986013623275 19.279503105586627,115.68408157859812" stroke="#4DD2FF" stroke-linecap="round" stroke-linejoin="round" stroke-width="0.5"><title>2025-06-17 5.1km</title><desc>1750166247000</desc></polyline><polyline fill="none" points="49.206896551535465,127.35861535501317 48.14285714284051,120.52006818476366 72.19014778314158,119.81156120880041 68.27980295568705,104.378018834861 73.01477832498495,104.65527505162754 78.99999999988358,104.06995607359568 69.55665024626069,104.62446881787037 73.0413793103071,118.51776157561108 62.720197044312954,119.010638279462" stroke="#4DD2FF" stroke-linecap="round" stroke-linejoin="round" stroke-width="0.5"><title>2025-06-16 3.2km</title><desc>1750084948000</desc></polyline><polyline fill="none" points="115.42857142857974,117.14072315492376 114.95576036872808,114.28784827364143 99.7884792626719,115.68547598959412 98.41981566825416,115.69988445081981 92.42258064518683,114.9650510574138 84.57142857142026,115.3396724803315 92.17373271891847,114.95064252130396 98.40737327194074,115.6710675269569 111.27281106001465,114.59042864176445" stroke="#4DD2FF" stroke-linecap="round" stroke-linejoin="round" stroke-width="0.5"><title>2025-06-15 4.6km</title><desc>1749956754000</desc></polyline><polyline fill="none" points="151.85714285710128,116.95528066457337 151.4815098971594,114.4732907639991 138.268068129546,115.68870432119002 136.88706460024696,115.71429184855515 131.07580174924806,115.06180827179196 121.0,115.52238526629662 131.27466625743546,115.06180827179196 136.79868037439883,115.71429184855515 139.68221574346535,115.57356038358557 140.2235691268579,115.39444738179009 147.22801902715582,114.76754986277956" stroke="#4DD2FF" stroke-linecap="round" stroke-linejoin="round" stroke-width="0.5"><title>2025-06-14 5.1km</title><desc>1749906363000</desc></polyline><polyline fill="none" points="188.28571428568102,117.54643186541216 187.9147302485071,115.04461643681134 175.12669226102298,116.28289502976259 173.4027076176717,116.2955304618954 168.1652859163587,115.66375727929699 158.30147504544584,116.13126974412444 158.17053950292757,115.84065409495815 158.22509597899625,113.89477523993992 157.42857142857974,113.88213956315303 158.25782986462582,113.92004658965743 158.17053950292757,115.82801861648477 158.3342089310754,116.13126974412444 168.4380682965857,115.65112178281561 173.64275611232733,116.30816589272581 184.00848656299058,115.3731405342478 183.99757526774192,114.86771848528588 187.32552030711668,114.69082028138655" stroke="#4DD2FF" stroke-linecap="round" stroke-linejoin="round" stroke-width="0.5"><title>2025-06-12 5.9km</title><desc>1749735885000</desc></polyline><polyline fill="none" points="42.571428571478464,159.70737657994323 41.587763587827794,154.75478083342023 14.558360558352433,157.1568023781001 12.013662013690919,150.19830358175386 11.714285714318976,141.50609094914398 16.760914760874584,141.2832096124912 21.059103059000336,141.55562010726135 21.294327294337563,140.7631523651653 20.84526284527965,140.5897997019929 11.842589842504822,140.29262342007132 12.035046034958214,149.95066650010995 12.78348678338807,152.77371426744503 14.25898425898049,156.29009631172812 26.23403623397462,155.25004495098256 26.469260469195433,156.19104399297794 41.523611523676664,154.73001760100306 42.4431244431762,159.63308838946978" stroke="#4DD2FF" stroke-linecap="round" stroke-linejoin="round" stroke-width="0.5"><title>2025-06-10 5.3km</title><desc>1749559786000</desc></polyline><polyline fill="none" points="48.95305969356559,141.7844150007877 48.212303075823,138.78210495220264 48.14285714284051,136.44992974642082 69.13867752661463,135.91379459176096 70.08777194295544,139.42545999051072 69.39331261394545,139.39865356206428 69.18497481523082,139.88116885712952 69.62479905690998,142.37415044772206 69.50905583542772,144.0629310037184 70.2729610974202,147.44045958836796 72.24059586331714,147.36004274513107 75.1573250455549,158.59135713448632 75.2036223342875,159.10064164892538 74.4628657164285,159.31507693906315 75.13417640130501,159.1274460698187 75.36566284426954,159.55631643140805 74.76379809237551,159.66353391268058 74.97213589109015,160.65529354210594 76.36105454934295,164.1934325702896 77.33329761016648,164.08621693518944 79.0,163.17488227284048 77.2407030329341,163.55013810438686 74.1156360518653,151.08599733028677 73.7452577430522,150.01378559193108 72.91190654807724,150.01378559193108 72.28689315193333,147.27962587724323 71.61558246705681,147.54768200783292 70.2498124531703,147.36004274513107 69.48590719117783,144.27737855241867 69.32386668107938,140.3100705986144 68.05069124430884,135.8065674297104 48.212303075823,136.50354320177576 49.04565427079797,141.94525207194965" stroke="#4DD2FF" stroke-linecap="round" stroke-linejoin="round" stroke-width="0.5"><title>2025-06-08 5.0km</title><desc>1749355299000</desc></polyline><polyline fill="none" points="115.42857142852154,151.26976523131452 114.88585786067415,148.73023476869275 104.9398010459845,149.56392466185935 101.94933852931717,149.98718049385207 100.2879704645602,149.98718049385207 95.02697159262607,149.34588322314812 84.57142857142026,149.80761758748122 94.52856117318152,149.34588322314812 100.23259152908577,150.00000640591315 112.22766895702807,148.92262523424142" stroke="#4DD2FF" stroke-linecap="round" stroke-linejoin="round" stroke-width="0.5"><title>2025-06-07 5.3km</title><desc>1749293029000</desc></polyline><polyline fill="none" points="151.85714285710128,151.2224107559814 151.4015638664714,148.77758924401132 137.32306188583607,150.06434330963384 131.61165697820252,149.40810037485062 121.0,149.8455960437277 131.5672102473909,149.38236528828565 136.64524924120633,150.06434330963384 147.52358660422033,149.07354384040082" stroke="#4DD2FF" stroke-linecap="round" stroke-linejoin="round" stroke-width="0.5"><title>2025-06-05 5.1km</title><desc>1749128617000</desc></polyline><polyline fill="none" points="157.8605174352997,149.80468640157778 157.42857142857974,146.9754341171647 157.59055118111428,146.85038308800722 169.69853768282337,146.42833511190838 171.9797525309259,154.79092112103535 183.93925759283593,154.6346152836195 188.28571428573923,154.3688949944044 184.70866141741863,154.49393989369855 184.04724409454502,145.2090788789501 172.60067491565133,145.8812341550074 170.1439820022788,145.80307671609626 170.35995500563877,146.42833511190838 164.0157480314956,146.61591213358042" stroke="#4DD2FF" stroke-linecap="round" stroke-linejoin="round" stroke-width="0.5"><title>2025-06-03 5.2km</title><desc>1748952979000</desc></polyline><polyline fill="none" points="37.23214156724862,175.0868871711209 36.55523840841488,174.08499657485663 36.07540832113591,173.03349635374616 35.766946122195804,172.7458197878368 35.004359019192634,172.67638048949448 34.42170819893363,172.0018247299231 34.15608797207824,171.11894322284206 33.7619418289396,170.51381756859337 33.29068013606593,168.85714285714494 31.928305423964048,169.44243833899236 31.294244237215025,169.51187994245993 29.649112509388942,170.12693198375928 28.946504167310195,171.02966262497648 28.946504167310195,171.2578239902141 26.101797221315792,174.8785741331376 26.084660432476085,175.0868871711209 25.30493654066231,176.15820433148474 24.628033381828573,176.783133901954 24.50807586000883,176.6740195038874 24.028245772700757,177.0906374573533 23.711215179326246,176.9021676514385 23.702646784950048,177.08071800298785 23.659804812807124,176.82281183463056 24.105361322464887,177.14023471413384 24.036814167135162,177.49733421756537 23.0086068372475,178.63805997489544 21.25208598203608,179.03483102111204 21.25208598203608,178.8562842502797 21.13212846024544,179.0745080368797 20.652298372937366,179.18361974694562 20.232447046553716,179.0645887844439 19.529838704504073,179.12410428386647 19.409881182655226,179.0149925071746 19.12712416696013,179.17370050564205 18.27885311981663,178.87612279650784 18.167463992373087,177.57668948502396 17.841865004593274,177.28902633293183 16.239575248910114,177.69572226509626 15.639787639811402,178.06273908820003 16.325259193050442,181.02858107296925 17.40487688939902,184.34148846875178 19.684069803974126,193.24808833180577 20.001100397348637,194.17044025619543 22.691576243872987,199.6151141459777 23.034312020492507,199.7142857142826 24.21675044990843,199.3374332181338 25.022179524967214,199.57544549043087 26.495943364454433,199.26801286262344 26.470238181151217,198.6828964735032 26.86438432428986,198.5738065889018 27.57556106080301,198.90107587661623 28.115369909006404,198.64322743869707 28.33814816380618,198.9704964933917 29.726228059153073,199.27793005927379 30.54022552864626,199.12917200328957 31.36279139254475,198.51430296401668 31.5084540976095,197.35397502048727 32.12537849554792,196.50107558967284 31.962579001643462,195.6481686975094 32.15965207319823,195.2316300616003 31.73980074681458,194.7655013827316 31.474180519988295,194.07126304862322 31.371359786950052,193.03981410887354 31.928305423964048,192.59351070420234 32.776576471107546,192.94063575108885 33.247838163981214,192.9108822240596 33.36779568580096,192.2662202421343 33.17072261424619,191.47278425803233 33.00792312034173,191.4033583021519 33.17072261424619,191.3240142920622 32.982217937125824,191.2645062420852 33.13644903653767,191.35376830341556 33.153585825435584,190.88762108204537 32.9308075706067,190.37188113321463 31.919737029529642,190.30245439325518 31.448475336685078,189.94540180667536 31.645548408210743,188.5965246761698 32.45097748332773,187.21787361405586 33.06790188123705,186.53350001678336 33.35065889696125,186.434315038794 33.95901490049437,185.59123865048605 35.03006420243764,184.56961866584606 35.98115598259028,183.3793682841715 35.70696736127138,182.8239131312439 34.85869631412788,182.81399426046846 34.747307186742546,182.48667095811834 35.07290617452236,181.7030743438445 35.44991552879219,181.34599025254283 35.80121969987522,181.39558534346725 35.94688240488176,181.2170428980462 35.646988600405166,180.5326271600934 36.0497031378909,179.6894997153795 36.42671249221894,179.47127730597276 36.74374308559345,179.60022697058594 36.700901113508735,179.3621659180426 37.65199289363227,178.92571914446307 37.7376768378017,178.65789856558695 38.56881109610549,178.15201324151712 38.64592664586962,177.42789830551192 37.55774055502843,175.35471756556217 37.38637266671867,175.2753604883983" stroke="#4DD2FF" stroke-linecap="round" stroke-linejoin="round" stroke-width="0.5"><title>2025-06-02 11.5km</title><desc>1748829019000</desc></polyline><polyline fill="none" points="78.99999999994179,185.72872024292883 78.43475675029913,182.84270832849143 62.13262757222401,184.3601031499711 55.37540145107778,183.586531290508 48.14285714284051,183.89893580417265 55.46532651351299,183.55677844479214 61.38753419765271,184.33035046195437 78.40906387526775,182.85758482491656 78.98715356248431,185.6394629975839" stroke="#4DD2FF" stroke-linecap="round" stroke-linejoin="round" stroke-width="0.5"><title>2025-06-01 4.9km</title><desc>1748740054000</desc></polyline><polyline fill="none" points="115.42857142852154,199.15561143748346 115.31683765840717,199.39282259962056 115.09337011806201,199.2203054171987 114.34847831702791,195.0798508401349 90.80989740497898,197.12852338765515 88.63108888699207,191.02557722246274 88.53797741187736,183.3481228325254 88.016553151072,180.45822231871716 84.57142857147846,169.1786059717997 86.84334856446367,176.72717296871997 87.45788430038374,177.89178503293078 88.46348823176231,182.22667358923354 89.46909216314089,182.50703645737667 88.42624364164658,182.48547009614413 88.63108888699207,190.31391479544982 89.33873609791044,193.22524595355208 90.56780756963417,196.2659268379357 90.88438658497762,196.46001136823907 100.97767048876267,195.42489181614656 101.2570049141068,196.24436187917308 109.28321407013573,195.46802189861774" stroke="#4DD2FF" stroke-linecap="round" stroke-linejoin="round" stroke-width="0.5"><title>2025-05-31 5.5km</title><desc>1748696141000</desc></polyline><polyline fill="none" points="149.6931354360422,192.80153850329225 148.99183673469815,188.27690605758107 123.60482374764979,190.5508351421886 121.26048237481155,183.86820333047945 121.0,175.81629956088727 129.61595547304023,175.90911851816054 121.12022263451945,175.769890068128 121.28051948046777,183.75218368468632 121.90166975883767,186.23499119839107 123.4645640073577,189.80833018326666 145.94619666051585,187.65041140065296 147.9499072356848,187.53439368233376 148.0500927644316,188.3929233974486 151.8571428571595,188.09127819081186" stroke="#4DD2FF" stroke-linecap="round" stroke-linejoin="round" stroke-width="0.5"><title>2025-05-29 5.0km</title><desc>1748526381000</desc></polyline><polyline fill="none" points="176.13357482443098,181.2563321335474 175.44894724921323,175.65004526183475 187.0387140592793,175.08374736752012 188.28571428568102,179.64241266078898 186.9409101199126,175.19700703868875 175.4000452796463,175.73498984638718 175.71790808229707,178.53814656689065 175.2777903554961,175.7633047021227 158.79782657907344,177.29230262740748 161.267376046977,189.6655503291986 162.22096445551142,192.55350594621268 161.58523884986062,192.94988966867095 162.58772922784556,195.6113085889374 161.24292506219354,192.10049528529635 157.91759112512227,177.34893201867817 163.68802354531363,176.52780471666483 174.12859406834468,175.87656409631018 174.0063391441945,175.05543244248838 158.67557165492326,176.1030827461218 157.81978718575556,172.96011998251197 157.42857142852154,173.2999014550005 157.62417930713855,176.3296012112114 169.18949513242114,175.19700703868875" stroke="#4DD2FF" stroke-linecap="round" stroke-linejoin="round" stroke-width="0.5"><title>2025-05-27 6.0km</title><desc>1748352132000</desc></polyline><polyline fill="none" points="38.45948584441794,220.87090304181038 38.58249267813517,220.7895075571505 38.18711356975837,218.81564673558023 27.793036121001933,219.81275656457728 26.5893263911712,219.83310564106068 22.25772860395955,219.3243774845614 11.907582167244982,219.78223294208874 11.714285714260768,216.40422771569865 12.94435405137483,216.2719541010374 14.640091116190888,216.39405282849475 14.648877318541054,219.3243774845614 22.512528473802377,219.00896472558816 27.29222258378286,219.47699620371714 38.16954116499983,218.39848558684025 42.386918320844416,218.24586521879974 42.571428571420256,218.58162972045102 42.44842173770303,218.6223283711879 38.55613407091005,218.78512280817085" stroke="#4DD2FF" stroke-linecap="round" stroke-linejoin="round" stroke-width="0.5"><title>2025-05-25 7.6km</title><desc>1748179850000</desc></polyline><polyline fill="none" points="78.97977906756569,220.27495942470705 78.89889533794485,219.60760478032898 78.50458715594141,219.60760478032898 78.25182550080353,218.35484085556527 78.04961617669323,218.07384520219057 68.29301628906978,218.9051220190595 66.69556262873812,219.1978236916475 60.285527054802515,218.60071148841962 48.31473506835755,219.1392834168073 48.14285714284051,217.10206326864136 51.11533420707565,216.8678977181553 51.095113274641335,218.57729526036564 51.48942145664478,218.6241277117224 59.89121887285728,218.26117571417853 65.97771952813491,218.78804114119703 78.61580228421371,217.57039293760317 79.0,220.14617198820633" stroke="#4DD2FF" stroke-linecap="round" stroke-linejoin="round" stroke-width="0.5"><title>2025-05-24 6.6km</title><desc>1748094255000</desc></polyline><polyline fill="none" points="115.42857142857974,219.9463282466022 115.09289743297268,217.1965288962674 102.38701508002123,218.27629942187923 100.62161851039855,218.57863368996186 98.60757453663973,218.60742739599664 92.80165764939738,217.9019799076923 84.57142857142026,218.23310875930474 92.76436053874204,217.88758298348694 98.53298031538725,218.62182424686034 111.69886036607204,217.51326243924268" stroke="#4DD2FF" stroke-linecap="round" stroke-linejoin="round" stroke-width="0.5"><title>2025-05-18 4.7km</title><desc>1747565909000</desc></polyline><polyline fill="none" points="147.84650934522506,219.6762574188906 147.51081755349878,217.7018896630325 138.56198110507103,218.45890572482313 137.0690360312583,218.72488298569078 135.86761277657934,218.7146531040562 131.77747331396677,218.1826978232857 121.06183796160622,218.67373356719327 121.0,218.3668365087433 127.03361825691536,217.9780988876737 131.12375771952793,217.9064891616872 135.90294875466498,218.67373356719327 147.62565948220436,217.63027973995486 151.57445503247436,217.46659972397174 151.73346693388885,217.48705974056793 151.75996891740942,217.63027973995486 151.8571428571595,217.56889976525417" stroke="#4DD2FF" stroke-linecap="round" stroke-linejoin="round" stroke-width="0.5"><title>2025-05-17 5.7km</title><desc>1747487200000</desc></polyline><polyline fill="none" points="186.59946435689926,217.29576142014412 182.51307766820537,217.509562449879 180.51911789842416,217.86589677302982 171.36167302977992,218.56430941268627 165.62596159323584,217.823136702209 157.42857142857974,218.15096357784932 165.51518605049932,217.85164341755444 171.14012194424868,218.5500561283552 187.48566869902425,217.1247203610401 188.0272380192764,219.88985850424797 188.28571428568102,220.01813678182953" stroke="#4DD2FF" stroke-linecap="round" stroke-linejoin="round" stroke-width="0.5"><title>2025-05-11 5.0km</title><desc>1746965499000</desc></polyline><polyline fill="none" points="42.571428571420256,253.96578985200176 42.07337569165975,251.7484958622881 28.07255585154053,253.01735674532392 22.383685181324836,252.36370273782086 11.714285714260768,252.8122891871244 22.118056978855748,252.37651951570297 27.430621028819587,253.01735674532392 42.16191842587432,251.77412954218744" stroke="#4DD2FF" stroke-linecap="round" stroke-linejoin="round" stroke-width="0.5"><title>2025-05-10 5.3km</title><desc>1746870058000</desc></polyline><polyline fill="none" points="78.9326263256371,252.3370101865803 78.85402370552765,252.11595224444318 79.0,252.28499658757937 78.40486587648047,252.38902376432816 64.64940736122662,253.5983334698467 58.82158452895237,252.90915837581997 48.14285714284051,253.35127112834016 58.76543980039423,252.90915837581997 61.494073611916974,253.13021494360146 63.97567061759764,253.58533020062168 75.23830318154069,252.57107111958612" stroke="#4DD2FF" stroke-linecap="round" stroke-linejoin="round" stroke-width="0.5"><title>2025-05-05 5.4km</title><desc>1746434825000</desc></polyline></svg>