<?xml version="1.0" encoding="utf-8" ?>
<svg baseProfile="full" height="300mm" version="1.1" viewBox="0,0,200,300" width="200mm" xmlns="http://www.w3.org/2000/svg" xmlns:ev="http://www.w3.org/2001/xml-events" xmlns:xlink="http://www.w3.org/1999/xlink"><defs /><rect fill="#222222" height="300" width="200" x="0" y="0" /><text fill="#FFFFFF" style="font-size:12px; font-family:Arial; font-weight:bold;" x="10" y="20">Over 3km Runs</text><text fill="#FFFFFF" style="font-size:4px; font-family:Arial" x="10" y="280">Runner</text><text fill="#FFFFFF" style="font-size:9px; font-family:Arial" x="10" y="290">tang-hi</text><text fill="#FFFFFF" style="font-size:4px; font-family:Arial" x="65" y="280">SPECIAL TRACKS</text><rect fill="yellow" height="2.6" width="2.6" x="65" y="283" /><text fill="#FFFFFF" style="font-size:3px; font-family:Arial" x="70" y="285.5">Over 20.0 km</text><rect fill="red" height="2.6" width="2.6" x="65" y="287" /><text fill="#FFFFFF" style="font-size:3px; font-family:Arial" x="70" y="289.5">Over 40.0 km</text><text fill="#FFFFFF" style="font-size:4px; font-family:Arial" x="120" y="280">STATISTICS</text><text fill="#FFFFFF" style="font-size:3px; font-family:Arial" x="120" y="285">Number: 26</text><text fill="#FFFFFF" style="font-size:3px; font-family:Arial" x="120" y="290">Weekly: 3.2</text><text fill="#FFFFFF" style="font-size:3px; font-family:Arial" x="141" y="285">Total: 146.3 km</text><text fill="#FFFFFF" style="font-size:3px; font-family:Arial" x="141" y="290">Avg: 5.6 km</text><text fill="#FFFFFF" style="font-size:3px; font-family:Arial" x="167" y="285">Min: 3.2 km</text><text fill="#FFFFFF" style="font-size:3px; font-family:Arial" x="167" y="290">Max: 11.5 km</text><polyline fill="none" points="44.20000000001164,49.32604344941501 43.67685683531454,46.67395655059954 29.737997847085353,47.95288835246174 28.24994617869379,47.96635072660865 22.87900968780741,47.293230337876594 11.799999999988358,47.7644149701664 22.506996770738624,47.2797678950883 28.26157158234855,47.97981309941679 38.17804090422578,47.077831088972744" stroke="#4DD2FF" stroke-linecap="round" stroke-linejoin="round" stroke-width="0.5"><title>2025-06-24 5.0km</title><desc>1750769966000</desc></polyline><polyline fill="none" points="80.20000000001164,49.29750978045922 79.7564841498388,46.70249021954078 65.96080691640964,48.01352207369928 64.28011527378112,48.067584964694106 58.841210374666844,47.36476566278725 47.79999999998836,47.85133326851064 58.54942363110604,47.36476566278725 64.26844380400144,48.067584964694106 75.95158501440892,47.026870441754" stroke="#4DD2FF" stroke-linecap="round" stroke-linejoin="round" stroke-width="0.5"><title>2025-06-22 5.0km</title><desc>1750563938000</desc></polyline><polyline fill="none" points="101.10722873086343,64.19999999999709 99.43269199304632,54.19577807625319 99.40921717896708,51.46798236261384 99.55789100145921,50.32608953039016 99.46399174514227,47.38972630106582 99.49529149723821,46.88219689608377 99.66744013383868,46.592178791783226 99.49529149723821,46.456232479533355 99.4874665591924,44.59827870018489 97.58600661862874,33.15967805420951 97.10868539894,31.799999999995634 97.59383155661635,32.987453318615735 99.46399174514227,44.40794953394652 99.56571593950503,49.97264353738865 99.43269199304632,51.47704494545178 99.4248670550005,54.10515497838787 100.7081568914873,61.78966541932459 100.88813046607538,62.31523266561999 102.89131460106,62.206494869584276" stroke="#4DD2FF" stroke-linecap="round" stroke-linejoin="round" stroke-width="0.5"><title>2025-06-21 8.0km</title><desc>1750517001000</desc></polyline><polyline fill="none" points="139.28707355994266,64.19999999999709 136.5425267041428,47.32297542481683 131.71297526010312,47.22441999570583 123.01127243821975,46.38669722575287 123.18147689430043,45.49969348098966 122.84106798190624,43.799593871008256 123.30913023650646,32.68705402809428 123.24530356528703,31.89856171948486 122.8197924249107,31.79999999998836 122.28790349932387,45.47505444166018 123.09637466620188,45.573610584033304 123.13892578019295,46.41133617227024 136.60635337524582,47.29833657134441 138.24457126588095,57.84353637136519 138.75518463447224,59.2478857437236 149.71209650067613,58.902958583596046" stroke="#4DD2FF" stroke-linecap="round" stroke-linejoin="round" stroke-width="0.5"><title>2025-06-19 5.0km</title><desc>1750345525000</desc></polyline><polyline fill="none" points="188.19999999998254,48.811113783114706 187.90260869567282,47.04388433404529 178.73043478259933,47.91390937512915 177.54869565213448,47.94109752045915 173.61999999999534,47.487960679056414 159.06347826085403,48.14953969212365 157.8034782608447,48.35798137515667 155.79999999998836,48.95611566595471 158.62521739126532,48.19485314303893 163.74347826087615,47.96828565753094" stroke="#4DD2FF" stroke-linecap="round" stroke-linejoin="round" stroke-width="0.5"><title>2025-06-17 5.1km</title><desc>1750166247000</desc></polyline><polyline fill="none" points="12.917241379269399,101.02654612273909 11.800000000046566,93.84607159395819 37.049655172391795,93.10213926920551 32.94379310356453,76.89691977656912 37.91551724134479,77.1880388041609 44.199999999953434,76.57345387723763 34.28448275872506,77.15569225870422 37.94344827590976,91.74364965432324 27.10620689659845,92.26117019337835" stroke="#4DD2FF" stroke-linecap="round" stroke-linejoin="round" stroke-width="0.5"><title>2025-06-16 3.2km</title><desc>1750084948000</desc></polyline><polyline fill="none" points="80.20000000001164,90.29775931267068 79.70354838715866,87.30224068732059 63.77790322579676,88.76974978909129 62.34080645162612,88.78487867338117 56.04370967741124,88.0133036102925 47.79999999998836,88.40665610435826 55.78241935482947,87.99817464737862 62.327741935499944,88.75462090331712 75.836451612995,87.61995007385849" stroke="#4DD2FF" stroke-linecap="round" stroke-linejoin="round" stroke-width="0.5"><title>2025-06-15 4.6km</title><desc>1749956754000</desc></polyline><polyline fill="none" points="116.20000000001164,90.10304469779658 115.80558539205231,87.49695530219469 101.93147153605241,88.77313953723933 100.48141783033498,88.80000644097163 94.37959183676867,88.11489868538047 83.79999999998836,88.59850452959654 94.58839957037708,88.11489868538047 100.38861439318862,88.80000644097163 103.41632653068518,88.65223840276303 103.98474758322118,88.46416975087777 111.33941997855436,87.80592735590471" stroke="#4DD2FF" stroke-linecap="round" stroke-linejoin="round" stroke-width="0.5"><title>2025-06-14 5.1km</title><desc>1749906363000</desc></polyline><polyline fill="none" points="152.20000000001164,90.72375345868932 151.81046676100232,88.09684725866828 138.38302687410032,89.39703978126636 136.57284299860476,89.41030698499526 131.073550212197,88.74694514326984 120.71654879773268,89.2378332313383 120.57906647812342,88.93268679971516 120.63635077793151,86.88951400194492 119.79999999998836,86.87624654133106 120.67072135786293,86.91604891915631 120.57906647812342,88.91941954732465 120.7509193776641,89.2378332313383 131.35997171147028,88.7336778719764 136.82489391800482,89.42357418737083 147.70891089114593,88.44179756096855 147.6974540311494,87.91110440956254 151.1917963225278,87.72536129546643" stroke="#4DD2FF" stroke-linecap="round" stroke-linejoin="round" stroke-width="0.5"><title>2025-06-12 5.9km</title><desc>1749735885000</desc></polyline><polyline fill="none" points="188.20000000006985,98.99274540893384 187.16715176729485,93.79251987508906 158.7862785862526,96.31464249700366 156.1143451143289,89.008218760835 155.80000000004657,79.88139549658808 161.09896049892996,79.6473700931092 165.6120582119329,79.93340111261932 165.85904365917668,79.10130998342356 165.38752598757856,78.91928968708089 155.93471933470573,78.60725459107198 156.1367983367527,88.7481998251169 156.92266112263314,91.71239998081 158.47193347197026,95.40460112730216 171.04573804570828,94.31254719852586 171.29272349271923,95.3005961926101 187.09979209990706,93.76651848104666 188.06528066541068,98.91474280894909" stroke="#4DD2FF" stroke-linecap="round" stroke-linejoin="round" stroke-width="0.5"><title>2025-06-10 5.3km</title><desc>1749559786000</desc></polyline><polyline fill="none" points="12.650712678208947,120.97363575085183 11.872918229666539,117.82121019982151 11.800000000046566,115.37242623374914 33.84561140299775,114.8094843213621 34.84216054016724,118.49673299005372 34.11297824466601,118.4685862401675 33.89422355592251,118.97522729999037 34.35603900975548,121.59285797009943 34.234508627210744,123.36607755391742 35.03660915233195,126.91248256780091 37.10262565652374,126.82804488239344 40.16519129788503,138.62092499123537 40.21380345092621,139.15567373138038 39.43600900226738,139.3808307860163 40.14088522142265,139.18381837330526 40.38394598651212,139.6341322530061 39.75198799697682,139.74671060833498 39.970742685720325,140.7880582192156 41.429107276839204,144.50310419881134 42.44996249070391,144.3905277819431 44.199999999953434,143.4336263865116 42.35273818462156,143.8276450096164 39.07141785451677,130.7402971968113 38.682520630187355,129.6144748715451 37.80750187556259,129.6144748715451 37.15123780956492,126.74360717111267 36.44636159040965,127.02506610823912 35.01230307586957,126.82804488239344 34.21020255074836,123.59124748004251 34.04006001504604,119.42557412854512 32.70322580647189,114.6968958012003 11.872918229666539,115.42872036187327 12.7479369842913,121.1425146755646" stroke="#4DD2FF" stroke-linecap="round" stroke-linejoin="round" stroke-width="0.5"><title>2025-06-08 5.0km</title><desc>1749355299000</desc></polyline><polyline fill="none" points="80.20000000001164,130.93325349288352 79.63015075377189,128.26674650714267 69.18679109832738,129.1421208949614 66.04680545581505,129.58653951855376 64.30236898781732,129.58653951855376 58.778320172277745,128.91317738431098 47.79999999998836,129.39799846686947 58.254989231878426,128.91317738431098 64.24422110558953,129.60000672622118 76.83905240491731,128.4687564959604" stroke="#4DD2FF" stroke-linecap="round" stroke-linejoin="round" stroke-width="0.5"><title>2025-06-07 5.3km</title><desc>1749293029000</desc></polyline><polyline fill="none" points="116.19999999995343,130.8835312937881 115.72164205979789,128.31646870622353 100.93921498017153,129.66756047512172 94.9422398271272,128.9785053936066 83.79999999998836,129.43787584592064 94.89557075977791,128.95148355270794 100.22751170326956,129.66756047512172 111.6497659344459,128.62722103242413" stroke="#4DD2FF" stroke-linecap="round" stroke-linejoin="round" stroke-width="0.5"><title>2025-06-05 5.1km</title><desc>1749128617000</desc></polyline><polyline fill="none" points="120.2535433070152,129.39492072165012 119.79999999998836,126.42420582301565 119.97007874009432,126.29290224240685 132.68346456688596,125.84975186749944 135.07874015741982,134.6304671770922 147.63622047239915,134.46634604778956 152.19999999995343,134.18733974412316 148.44409448822262,134.3186368883762 147.74960629921407,124.56953282289032 135.73070866137277,125.27529586275341 133.15118110232288,125.19323055190034 133.3779527558363,125.84975186749944 126.71653543302091,126.04670774025726" stroke="#4DD2FF" stroke-linecap="round" stroke-linejoin="round" stroke-width="0.5"><title>2025-06-03 5.2km</title><desc>1748952979000</desc></polyline><polyline fill="none" points="182.59374864568235,119.9412315296795 181.8830003288458,118.88924640360347 181.379178737232,117.78517117143929 181.05529342836235,117.4831107772261 180.25457697018282,117.41019951397175 179.6427936089458,116.70191596641962 179.36389237071853,115.77489038398198 178.9500389204477,115.13950844702777 178.4552141429158,113.40000000000146 177.024720695219,114.01456025594234 176.35895644914126,114.08747393958765 174.63156813487876,114.73327858294942 173.89382937573828,115.68114575622894 173.89382937573828,115.9207151897208 170.90688708244124,119.7225028397952 170.888893454161,119.9412315296795 170.07018336770125,121.06611454806261 169.35943505098112,121.72229059704841 169.23347965307767,121.6077204790854 168.72965806134744,122.04516933022387 168.39677593833767,121.84727603400825 168.38777912425576,122.03475390313542 168.34279505349696,121.76395242635772 168.8106293886085,122.0972464498409 168.73865487554576,122.47220092844509 167.65903717913898,123.66996297363949 165.81469028117135,124.08657257216692 165.81469028117135,123.89909846279625 165.6887348832679,124.12823343872878 165.18491329165408,124.2428007342969 164.74406939890468,124.11781822366902 164.0063306397642,124.18030949805689 163.88037524180254,124.06574213253771 163.58348037535325,124.23238553092233 162.69279577583075,123.91992893633869 162.5758371920674,122.55552395927953 162.23395825485932,122.25347764958133 160.55155401135562,122.68050837835472 159.92177702183835,123.06587604260858 160.6415221527568,126.18001012661989 161.7751207339461,129.65856289219664 164.16827329422813,139.01049274839897 164.5011554172379,139.97896226900048 167.3261550561292,145.6958698532835 167.68602762155933,145.8000000000029 168.92758797243005,145.40430487904814 169.77328850125195,145.6542177649535 171.32074053271208,145.33141350575897 171.29375009023352,144.71704129718273 171.70760354056256,144.60249691834906 172.45433911390137,144.94612967045396 173.021138404496,144.67538881063228 173.25505557202268,145.01902131806855 174.71253946213983,145.34182656223857 175.56723680510186,145.1856306034606 176.430930962204,144.54001811221679 176.5838768025278,143.32167377151927 177.23164742038352,142.42612936915975 177.06070795177948,141.53057713239104 177.2676346768858,141.09321156467922 176.8267907841946,140.60377645186963 176.54788954602554,139.87482620105584 176.43992777634412,138.7918048143183 177.024720695219,138.32318623941683 177.9154052946833,138.68766753864475 178.4102300722152,138.65642633526295 178.53618547011865,137.979531254241 178.32925874501234,137.14642347093468 178.1583192764083,137.0735262172675 178.32925874501234,136.99021500666277 178.13132883398794,136.92773155419127 178.29327148839366,137.02145671859034 178.3112651167321,136.53200213614764 178.07734794920543,135.9904751898721 177.01572388107888,135.91757711291575 176.52089910354698,135.54267189701204 176.7278258286533,134.12635090998083 177.5735263575334,132.6787672947612 178.22129697533092,131.96017501762253 178.51819184183842,131.8560307907319 179.156965645554,130.9708005830107 180.28156741260318,129.8980995991369 181.2802137817489,128.64833669838117 180.99231572938152,128.06510878780682 180.10163112985902,128.05469397349225 179.98467254609568,127.71100450602535 180.32655148330377,126.88822806103417 180.72241130529437,126.51328976517107 181.09128068492282,126.56536461064388 181.24422652518842,126.37789504295506 180.9293380304589,125.6592585180988 181.35218829481164,124.77397470115102 181.74804811686045,124.5448411712714 182.08093023992842,124.68023831911705 182.03594616922783,124.430274213948 183.03459253837354,123.97200510169205 183.12456067971652,123.69079349387175 183.9972516509588,123.15961390359735 184.07822297821986,122.39929322079115 182.93562758283224,120.22245344384282 182.75569130008807,120.1391285128193" stroke="#4DD2FF" stroke-linecap="round" stroke-linejoin="round" stroke-width="0.5"><title>2025-06-02 11.5km</title><desc>1748829019000</desc></polyline><polyline fill="none" points="44.20000000001164,171.91515625508328 43.6064945878461,168.8848437449342 26.489258950867224,170.47810830746312 19.394171523686964,169.6658578550414 11.799999999988358,169.9938825943973 19.488592839217745,169.6346173670463 25.706910907523707,170.44686798505427 43.579517069098074,168.9004640661733 44.186511240608525,171.82143614746747" stroke="#4DD2FF" stroke-linecap="round" stroke-linejoin="round" stroke-width="0.5"><title>2025-06-01 4.9km</title><desc>1748740054000</desc></polyline><polyline fill="none" points="80.20000000006985,186.0133920093649 80.0826795414323,186.26246372961032 79.84803862404078,186.08132068807026 79.06590223300736,181.73384338215692 54.350392275257036,183.88494955704664 52.06264333135914,177.4768560835946 51.964876282494515,169.41552897416113 51.4173808087362,166.3811334346683 47.800000000046566,154.5375362703926 50.18551599280909,162.46353161717707 50.830778515548445,163.68637428458896 51.886662643402815,168.23800726870832 52.9425467713736,168.53238828026224 51.847555823856965,168.50974360096734 52.06264333135914,176.7296105352434 52.80567290284671,179.78650825125806 54.09619794820901,182.9792231798492 54.428605914348736,183.18301193667867 65.0265540133696,182.09613640696625 65.31985515996348,182.95657997314993 73.747374773724,182.14142299356172" stroke="#4DD2FF" stroke-linecap="round" stroke-linejoin="round" stroke-width="0.5"><title>2025-05-31 5.5km</title><desc>1748696141000</desc></polyline><polyline fill="none" points="113.92779220791999,179.34161542846414 113.19142857159022,174.59075136046158 86.53506493521854,176.97837689929293 84.07350649358705,169.96161349699832 83.80000000004657,161.50711453893746 92.84675324673299,161.60457444407803 83.92623376636766,161.45838457153877 84.09454545460176,169.8397928689228 84.74675324687269,172.44674075831426 86.38779220788274,176.1987466924329 109.99350649362896,173.93293197068851 112.09740259754471,173.81111336644972 112.20259740273468,174.71256956733123 116.20000000006985,174.39584210036264" stroke="#4DD2FF" stroke-linecap="round" stroke-linejoin="round" stroke-width="0.5"><title>2025-05-29 5.0km</title><desc>1748526381000</desc></polyline><polyline fill="none" points="139.4402535657864,167.2191487402597 138.7213946117554,161.33254752497305 150.89064976235386,160.73793473592377 152.20000000006985,165.52453329385025 150.78795562603045,160.85685739063774 138.6700475437101,161.42173933872255 139.00380348658655,164.36505389527883 138.54167987336405,161.4514699372521 121.2377179081086,163.05691775880405 123.83074484951794,176.04882784569054 124.83201267838012,179.08118124355678 124.16450079239439,179.49738415211323 125.21711568941828,182.29187401838135 123.80507131537888,178.60552004957572 120.31347068143077,163.11637861962663 126.37242472276557,162.25419495251845 137.33502377185505,161.5703923011606 137.206656101509,160.70820406463463 121.10935023776256,161.80823688345845 120.21077654522378,158.50812598166522 119.80000000004657,158.86489652778255 120.00538827269338,162.04608127177926 132.1489698891528,160.85685739063774" stroke="#4DD2FF" stroke-linecap="round" stroke-linejoin="round" stroke-width="0.5"><title>2025-05-27 6.0km</title><desc>1748352132000</desc></polyline><polyline fill="none" points="183.88246013660682,172.81444819390163 184.0116173120332,172.72898293500475 183.59646924823755,170.6564290723618 172.68268792709569,171.7033943928036 171.41879271069774,171.72476092311263 166.87061503418954,171.1905963587924 156.00296127563342,171.67134458918736 155.79999999998836,168.12443910147704 157.09157175396103,167.98555180608673 158.87209567194805,168.1137554699162 158.88132118451176,171.1905963587924 167.13815489748958,170.85941296186502 172.1568337129429,171.35084601389826 183.57801822322654,170.21840986617462 188.00626423687208,170.0581584797328 188.19999999995343,170.41071120646666 188.07084282458527,170.45344478974584 183.98394077445846,170.62437894858158" stroke="#4DD2FF" stroke-linecap="round" stroke-linejoin="round" stroke-width="0.5"><title>2025-05-25 7.6km</title><desc>1748179850000</desc></polyline><polyline fill="none" points="44.17876802093815,212.98870739593985 44.09384010487702,212.28798501934216 43.67981651372975,212.28798501934216 43.41441677586408,210.9725828983428 43.20209698553663,210.67753746229573 32.95766710356111,211.55037812000955 31.280340760189574,211.85771487622696 24.549803407571744,211.2307470628366 11.98047182179289,211.7962475876484 11.799999999988358,209.6571664320727 14.921100917446893,209.4112926040616 14.899868938373402,211.20616002338647 15.313892529520672,211.25533409730997 24.13577981654089,210.87423449988273 30.52660550456494,211.4274431982558 43.79659239843022,210.14891258448188 44.20000000001164,212.85348058761883" stroke="#4DD2FF" stroke-linecap="round" stroke-linejoin="round" stroke-width="0.5"><title>2025-05-24 6.6km</title><desc>1748094255000</desc></polyline><polyline fill="none" points="80.20000000001164,212.6436446589214 79.84754230460385,209.75635534105822 66.50636583403684,210.89011439295427 64.65269943594467,211.20756537445413 62.53795326349791,211.23779876576737 56.4417405318236,210.49707890304853 47.79999999998836,210.8447641972598 56.402578565699514,210.481962132646 62.459629331191536,211.2529154591757 76.28380338440184,210.08892556118371" stroke="#4DD2FF" stroke-linecap="round" stroke-linejoin="round" stroke-width="0.5"><title>2025-05-18 4.7km</title><desc>1747565909000</desc></polyline><polyline fill="none" points="111.98883481242228,212.36007028983295 111.63635843113298,210.28698414618702 102.24008016026346,211.08185101106938 100.67248783278046,211.36112713498005 99.41099341533845,211.35038575926592 95.11634697963018,210.791832714458 83.86492985970108,211.30742024556093 83.79999999998836,210.98517833418737 90.13529916974949,210.57700383206247 94.42994560545776,210.50181361977593 99.44809619232547,211.30742024556093 111.75694245629711,210.2117937269577 115.90317778405733,210.0399297101685 116.070140280528,210.06141272760578 116.0979673632537,210.2117937269577 116.19999999995343,210.14734475351725" stroke="#4DD2FF" stroke-linecap="round" stroke-linejoin="round" stroke-width="0.5"><title>2025-05-17 5.7km</title><desc>1747487200000</desc></polyline><polyline fill="none" points="150.42943757475587,209.86054949114623 146.13873155164765,210.08504057237587 144.0450737933279,210.45919161167694 134.4297566812602,211.1925248833286 128.40725967288017,210.41429353730928 119.79999999998836,210.75851175673597 128.29094535298645,210.44422558843507 134.19712804147275,211.17755893476715 151.35995213396382,209.68095637908846 151.92859992024023,212.58435142945382 152.20000000001164,212.71904362092027" stroke="#4DD2FF" stroke-linecap="round" stroke-linejoin="round" stroke-width="0.5"><title>2025-05-11 5.0km</title><desc>1746965499000</desc></polyline><polyline fill="none" points="188.19999999995343,212.36407934459567 187.6770444762078,210.0359206553985 172.97618364408845,211.3682245825912 167.00286944041727,210.68188787471445 155.79999999998836,211.15290364647808 166.72395982779562,210.69534549147647 172.30215208028676,211.3682245825912 187.7700143471593,210.06283601929317" stroke="#4DD2FF" stroke-linecap="round" stroke-linejoin="round" stroke-width="0.5"><title>2025-05-10 5.3km</title><desc>1746870058000</desc></polyline><polyline fill="none" points="44.12925764184911,251.4538606959104 44.0467248907662,251.22174985667516 44.199999999953434,251.39924641695688 43.57510917028412,251.50847495255584 29.13187772926176,252.7782501433394 23.01266375539126,252.0546162946266 11.799999999988358,252.51883468477172 22.95371179038193,252.0546162946266 25.81877729250118,252.28672569079208 28.424454148451332,252.76459671065095 40.25021834060317,251.69962467557343" stroke="#4DD2FF" stroke-linecap="round" stroke-linejoin="round" stroke-width="0.5"><title>2025-05-05 5.4km</title><desc>1746434825000</desc></polyline></svg>