<?xml version="1.0" encoding="utf-8" ?>
<svg baseProfile="full" height="300mm" version="1.1" viewBox="0,0,200,300" width="200mm" xmlns="http://www.w3.org/2000/svg" xmlns:ev="http://www.w3.org/2001/xml-events" xmlns:xlink="http://www.w3.org/1999/xlink"><defs /><rect fill="#222222" height="300" width="200" x="0" y="0" /><text fill="#FFFFFF" style="font-size:12px; font-family:Arial; font-weight:bold;" x="10" y="20">Over 3km Runs</text><text fill="#FFFFFF" style="font-size:4px; font-family:Arial" x="10" y="280">Runner</text><text fill="#FFFFFF" style="font-size:9px; font-family:Arial" x="10" y="290">tang-hi</text><text fill="#FFFFFF" style="font-size:4px; font-family:Arial" x="65" y="280">SPECIAL TRACKS</text><rect fill="yellow" height="2.6" width="2.6" x="65" y="283" /><text fill="#FFFFFF" style="font-size:3px; font-family:Arial" x="70" y="285.5">Over 20.0 km</text><rect fill="red" height="2.6" width="2.6" x="65" y="287" /><text fill="#FFFFFF" style="font-size:3px; font-family:Arial" x="70" y="289.5">Over 40.0 km</text><text fill="#FFFFFF" style="font-size:4px; font-family:Arial" x="120" y="280">STATISTICS</text><text fill="#FFFFFF" style="font-size:3px; font-family:Arial" x="120" y="285">Number: 11</text><text fill="#FFFFFF" style="font-size:3px; font-family:Arial" x="120" y="290">Weekly: 2.8</text><text fill="#FFFFFF" style="font-size:3px; font-family:Arial" x="141" y="285">Total: 61.7 km</text><text fill="#FFFFFF" style="font-size:3px; font-family:Arial" x="141" y="290">Avg: 5.6 km</text><text fill="#FFFFFF" style="font-size:3px; font-family:Arial" x="167" y="285">Min: 4.7 km</text><text fill="#FFFFFF" style="font-size:3px; font-family:Arial" x="167" y="290">Max: 7.6 km</text><polyline fill="none" points="67.0,62.52526042512909 66.01082431303803,57.47473957488546 37.48209825146478,60.13018051245308 25.65695253945887,58.776429758392624 13.0,59.32313765732397 25.814321398735046,58.724362278400804 36.17818484583404,60.07811330842378 65.96586178173311,57.50077344360761 66.97751873440575,62.36906024579366" stroke="#4DD2FF" stroke-linecap="round" stroke-linejoin="round" stroke-width="0.5"><title>2025-06-01 4.9km</title><desc>1748740054000</desc></polyline><polyline fill="none" points="127.0,86.02232001558878 126.80446590227075,86.43743954933598 126.41339770669583,86.1355344800977 125.10983705485705,78.88973897023243 83.91732045868412,82.47491592838196 80.10440555226523,71.7947601393098 79.94146047078539,58.35921495690127 79.02896801452152,53.301889057736844 73.0,33.56256045063492 76.97585998789873,46.77255269527086 78.05129752575886,48.81062380759977 79.81110440567136,56.39667878113687 81.57091128558386,56.887313800427364 79.74592637305614,56.849572668230394 80.10440555226523,70.54935089201899 81.34278817137238,75.64418041871977 83.4936632468598,80.9653719663911 84.04767652379815,81.30501989441109 101.71092335542198,79.49356067826739 102.19975859986152,80.92763328854926 116.24562462279573,79.56903832257376" stroke="#4DD2FF" stroke-linecap="round" stroke-linejoin="round" stroke-width="0.5"><title>2025-05-31 5.5km</title><desc>1748696141000</desc></polyline><polyline fill="none" points="183.21298701292835,74.90269238076871 181.98571428563446,66.9845856007596 137.55844155838713,70.96396149884094 133.45584415574558,59.26935582832084 133.0,45.17852423156728 148.07792207761668,45.34095740679186 133.21038961037993,45.09730761923129 133.4909090907313,59.06632144819014 134.5779220778495,63.41123459718074 137.31298701278865,69.66457782071666 176.65584415569901,65.88821995112812 180.16233766218647,65.68518894407316 180.3376623375807,67.1876159455569 187.0,66.65973683391348" stroke="#4DD2FF" stroke-linecap="round" stroke-linejoin="round" stroke-width="0.5"><title>2025-05-29 5.0km</title><desc>1748526381000</desc></polyline><polyline fill="none" points="45.7337559426669,114.69858123373706 44.535657685948536,104.88757920823991 64.81774960365146,103.89655789319659 67.0,111.87422215638799 64.64659270970151,104.09476231771987 44.45007923920639,105.03623223118484 45.00633914396167,109.94175649210229 44.23613312211819,105.08578322871472 15.396196513203904,107.76152959797764 19.717908082297072,129.4147130761412 21.38668779702857,134.46863540587947 20.27416798705235,135.1623069201887 22.02852614875883,139.81979003062588 19.675118858693168,133.67586674931226 13.855784468818456,107.86063103270135 23.95404120441526,106.42365825417801 42.22503961948678,105.28398716857191 42.01109350239858,103.84700677436194 15.182250396115705,105.68039480573498 13.68462757510133,100.18020996940322 13.0,100.77482754626544 13.34231378743425,106.0768021196127 33.581616481533274,104.09476231771987" stroke="#4DD2FF" stroke-linecap="round" stroke-linejoin="round" stroke-width="0.5"><title>2025-05-27 6.0km</title><desc>1748352132000</desc></polyline><polyline fill="none" points="119.80410022777505,124.0240803231718 120.0193621868384,123.88163822500792 119.327448747179,120.4273817872745 101.13781321182614,122.17232398800843 99.03132118459325,122.20793487185438 91.45102505700197,121.31766059798247 73.33826879272237,122.11890764864802 73.0,116.20739850247628 75.15261958999326,115.9759196768282 78.12015945336316,116.18959244986763 78.1355353075196,121.31766059798247 91.89692482916871,120.76568826979201 100.26138952164911,121.5847433565068 119.2966970387497,119.69734977696498 126.67710706155049,119.43026413289772 127.0,120.01785201078746 126.78473804099485,120.08907464958611 119.97323462419445,120.37396491430991" stroke="#4DD2FF" stroke-linecap="round" stroke-linejoin="round" stroke-width="0.5"><title>2025-05-25 7.6km</title><desc>1748179850000</desc></polyline><polyline fill="none" points="186.96461336826906,122.98117899322824 186.82306684134528,121.81330836557026 186.1330275228247,121.81330836557026 185.69069462642074,119.62097149723559 185.3368283092277,119.12922910382622 168.26277850591578,120.58396353333956 165.46723460021894,121.09619146036857 154.2496723459335,120.05124510472524 133.3007863695966,120.99374597940187 133.0,117.42861072010419 138.20183486235328,117.01882100675721 138.16644823062234,120.01026670563442 138.8564875491429,120.09222349550691 153.55963302752934,119.45705749980698 164.2110091742361,120.3790719970857 186.3276539973449,118.24818764079828 187.0,122.75580097935745" stroke="#4DD2FF" stroke-linecap="round" stroke-linejoin="round" stroke-width="0.5"><title>2025-05-24 6.6km</title><desc>1748094255000</desc></polyline><polyline fill="none" points="67.0,182.40607443155022 66.41257050773129,177.59392556846433 44.1772763900226,179.48352398829593 41.087832393241115,180.0126089574478 37.563255439163186,180.06299794297956 27.402900886372663,178.82846483844332 13.0,179.40794032877602 27.33763094281312,178.80327022112033 37.432715551927686,180.08819243199832 60.473005640669726,178.14820926867833" stroke="#4DD2FF" stroke-linecap="round" stroke-linejoin="round" stroke-width="0.5"><title>2025-05-18 4.7km</title><desc>1747565909000</desc></polyline><polyline fill="none" points="119.98139135405654,181.93345048304764 119.39393071859377,178.47830691029958 103.73346693383064,179.8030850184441 101.12081305467291,180.2685452249425 99.01832235895563,180.2506429320929 91.86057829944184,179.31972119075363 73.10821643285453,180.1790337425773 73.0,179.64196389030258 83.55883194960188,178.9616730534326 90.71657600917388,178.83635603294533 99.08016032062005,180.1790337425773 119.59490409388673,178.35298954491736 126.50529630685924,178.0665495169378 126.78356713423273,178.10235454599024 126.82994560548104,178.35298954491736 127.0,178.24557458917843" stroke="#4DD2FF" stroke-linecap="round" stroke-linejoin="round" stroke-width="0.5"><title>2025-05-17 5.7km</title><desc>1747487200000</desc></polyline><polyline fill="none" points="184.0490626245737,177.76758248523402 176.89788591943216,178.14173428727372 173.40845632215496,178.76531935278035 157.3829278020421,179.98754147219006 147.34543278813362,178.6904892288294 133.0,179.26418626120721 147.15157558827195,178.74037598070572 156.99521340243518,179.9625982245925 185.59992022323422,177.46826063180924 186.54766653373372,182.30725238240848 187.0,182.53173936819076" stroke="#4DD2FF" stroke-linecap="round" stroke-linejoin="round" stroke-width="0.5"><title>2025-05-11 5.0km</title><desc>1746965499000</desc></polyline><polyline fill="none" points="67.0,241.94013224099763 66.12840746040456,238.05986775900237 41.62697274016682,240.28037430431868 31.67144906730391,239.13647979118105 13.0,239.92150607745862 31.206599712953903,239.1589091524802 40.50358680053614,240.28037430431868 66.2833572452655,238.1047266988171" stroke="#4DD2FF" stroke-linecap="round" stroke-linejoin="round" stroke-width="0.5"><title>2025-05-10 5.3km</title><desc>1746870058000</desc></polyline><polyline fill="none" points="126.88209606986493,239.0897678265028 126.74454148474615,238.70291642776283 127.0,238.99874402824207 125.95851528388448,239.18079158756882 101.88646288216114,241.29708357222262 91.68777292582672,240.09102715767222 73.0,240.86472447458073 91.58951965067536,240.09102715767222 96.36462882091291,240.47787615128618 100.70742358081043,241.2743278510752 120.41703056776896,239.4993744592648" stroke="#4DD2FF" stroke-linecap="round" stroke-linejoin="round" stroke-width="0.5"><title>2025-05-05 5.4km</title><desc>1746434825000</desc></polyline></svg>