<?xml version="1.0" encoding="utf-8" ?>
<svg baseProfile="full" height="300mm" version="1.1" viewBox="0,0,200,300" width="200mm" xmlns="http://www.w3.org/2000/svg" xmlns:ev="http://www.w3.org/2001/xml-events" xmlns:xlink="http://www.w3.org/1999/xlink"><defs /><rect fill="#222222" height="300" width="200" x="0" y="0" /><text fill="#FFFFFF" style="font-size:12px; font-family:Arial; font-weight:bold;" x="10" y="20">Over 3km Runs</text><text fill="#FFFFFF" style="font-size:4px; font-family:Arial" x="10" y="280">Runner</text><text fill="#FFFFFF" style="font-size:9px; font-family:Arial" x="10" y="290">tang-hi</text><text fill="#FFFFFF" style="font-size:4px; font-family:Arial" x="65" y="280">SPECIAL TRACKS</text><rect fill="yellow" height="2.6" width="2.6" x="65" y="283" /><text fill="#FFFFFF" style="font-size:3px; font-family:Arial" x="70" y="285.5">Over 20.0 km</text><rect fill="red" height="2.6" width="2.6" x="65" y="287" /><text fill="#FFFFFF" style="font-size:3px; font-family:Arial" x="70" y="289.5">Over 40.0 km</text><text fill="#FFFFFF" style="font-size:4px; font-family:Arial" x="120" y="280">STATISTICS</text><text fill="#FFFFFF" style="font-size:3px; font-family:Arial" x="120" y="285">Number: 72</text><text fill="#FFFFFF" style="font-size:3px; font-family:Arial" x="120" y="290">Weekly: 3.6</text><text fill="#FFFFFF" style="font-size:3px; font-family:Arial" x="141" y="285">Total: 379.4 km</text><text fill="#FFFFFF" style="font-size:3px; font-family:Arial" x="141" y="290">Avg: 5.3 km</text><text fill="#FFFFFF" style="font-size:3px; font-family:Arial" x="167" y="285">Min: 3.2 km</text><text fill="#FFFFFF" style="font-size:3px; font-family:Arial" x="167" y="290">Max: 11.5 km</text><polyline fill="none" points="20.804462621046696,51.20163047154347 20.788691386405844,51.375 20.970060584921157,51.338501179729064 21.048916758183623,50.68151987792953 21.22240033937851,50.5628977417 22.018847689352697,45.10611006434192 22.1371319492755,43.53653781222965 21.293370895291446,36.41836572730972 20.84389070767793,35.49661242059665 20.9227468809695,35.32321222577593 21.301256512640975,35.4053492019375 21.143544166116044,33.64395090199832 20.741377682454186,33.169371354961186 20.780805769056315,32.16544481275196 20.362868050753605,31.125 20.804462621046696,32.201951429233304 20.780805769056315,33.17849790836772 21.143544166116044,33.61657138094597 21.3091421299614,35.414475527984905 20.9227468809695,35.34146489365958 20.867547559639206,35.48748610291659 21.246057191310683,36.153704855561955 21.387998303223867,36.829044845319004 21.64033805768122,39.68549427929247 22.12924633192597,42.89775055073551 22.1371319492755,44.32132736835774 21.734965465584537,47.250539425636816 21.56936750173918,48.254297273626435 21.372227068583015,48.436797494963685 21.16720101807732,50.30740337759198 20.98583181956201,50.76364280349662" stroke="#4DD2FF" stroke-linecap="round" stroke-linejoin="round" stroke-width="0.5"><title>2025-09-16 5.1km</title><desc>1758026219000</desc></polyline><polyline fill="none" points="44.59828871159698,31.125 44.41703043988673,31.208895909730927 44.39527944728616,31.745827713326435 44.525785402947804,31.89683915396745 44.475033086840995,32.71900770774664 44.04726356561878,35.59653317951597 43.902256948233116,35.84820702356228 43.742749669152545,38.04612599574466 43.25697750094696,40.579532545372786 43.29322915527155,41.032517579624255 42.79295632537105,44.907954659742245 43.4744874270109,51.375 43.87325562478509,51.29112457171868 43.16997353051556,44.597590855402814 43.583242390013766,41.55260844410077 43.78625165432459,40.81441398437164 44.185019852098776,37.34145605500089 44.39527944728616,36.07471282740153 44.51853507204214,35.881763478137145 44.46778275593533,35.453917660765 44.70704367462895,33.85157343174069" stroke="#4DD2FF" stroke-linecap="round" stroke-linejoin="round" stroke-width="0.5"><title>2025-09-14 5.0km</title><desc>1757842188000</desc></polyline><polyline fill="none" points="66.80331754492363,31.125 66.92708594314172,32.22017639342812 66.43201235029846,35.53931495195138 66.22087802391616,36.28905120570562 66.27912197602564,36.600737316366576 65.90781678140047,39.38901229827752 65.63843850290868,40.56831489592878 65.67484097302076,41.01476078923588 65.17248688614927,44.74628059120005 65.42002368255635,47.980690157237404 65.84957282929099,51.375 66.27912197602564,51.28235318775114 65.5365115867462,44.78839610947034 67.32751311385073,32.43078557986155" stroke="#4DD2FF" stroke-linecap="round" stroke-linejoin="round" stroke-width="0.5"><title>2025-09-13 5.1km</title><desc>1757760467000</desc></polyline><polyline fill="none" points="89.52013024414191,31.125 89.4838033458218,32.71390890052862 89.0769420847646,35.49652769889508 88.91710373217938,35.832789494372264 88.73546924063703,37.841925249871565 88.26321956259198,40.607559537980705 88.30681184056448,40.943800566659775 87.79823526425753,44.54989971652685 87.81276602356229,45.482920766749885 88.45938481349731,51.375 88.88804221356986,51.31616533287888 88.59742702706717,48.105410100804875 88.19783114566235,45.74349233455723 88.16876962699462,44.78525736965821 89.33849575259956,36.32877314853977 89.51286486448953,35.84960254827456 89.45474182721227,35.6310325810482 89.70176473571337,33.907672233035555" stroke="#4DD2FF" stroke-linecap="round" stroke-linejoin="round" stroke-width="0.5"><title>2025-09-11 5.0km</title><desc>1757592265000</desc></polyline><polyline fill="none" points="110.84498562806402,51.29309911203018 111.00227276279475,51.2111981491762 111.02586583301309,50.61968897128099 111.20674603799125,50.49228648313874 111.3168470323144,49.846171074292215 111.56064209114993,47.543778263287095 112.0482322088792,44.80449072959891 112.11114706276567,42.91151217214065 111.28538960532751,36.33128013250098 110.83712127129547,35.48482513192721 110.91576483866083,35.33919765814062 111.3011183188064,35.36650282752089 111.12810247056768,33.64626088835212 110.74274899042211,33.14565517168376 110.79779948762734,32.23545578595076 110.38885293726344,31.125 110.7899351308588,32.11712918592093 110.75061334719067,33.19116489798762 111.12810247056768,33.60985329427058 111.29325396209606,35.39380798858474 110.90790048195049,35.33919765814062 110.83712127129547,35.45751999865024 111.10450940034934,35.81248608169699 111.32471138902474,36.48600760064437 111.66287872876273,40.10837425507634 112.11114706276567,43.03892544667178 112.0482322088792,44.91369980993477 111.10450940034934,51.320399416363216 110.93149355216883,51.375" stroke="#4DD2FF" stroke-linecap="round" stroke-linejoin="round" stroke-width="0.5"><title>2025-09-09 5.2km</title><desc>1757417515000</desc></polyline><polyline fill="none" points="134.45837379756267,31.125 134.40025081930798,31.76392999869131 134.56735438181204,31.805964694038266 134.46563916985178,32.840011475331266 134.080574438849,35.404055467231956 133.8916747594776,35.91685473152029 133.65191747416975,38.51442841629614 133.2305258817505,40.65799578183214 133.26685274316696,41.10351457922661 132.78007280020392,44.54989971873147 132.7655420556548,45.57538174155343 133.04889157469734,48.206273417396005 133.43395630567102,51.32457028789213 133.85534789809026,51.375 133.84081715351203,51.047206322349666 134.06604369429988,50.83708148743608 134.06604369429988,50.719411346937704 133.71730582468444,50.467260482750135 133.1578721588885,44.76844613310095 134.26220874596038,36.79953454700444 134.50196603129734,35.96729383175989 134.42931230846443,35.64784567767492 134.7344579443452,33.43689438502042" stroke="#4DD2FF" stroke-linecap="round" stroke-linejoin="round" stroke-width="0.5"><title>2025-09-07 5.0km</title><desc>1757247375000</desc></polyline><polyline fill="none" points="155.71637251848006,51.31048738097161 155.89955807186197,51.375 155.94734560747747,50.72987174498121 156.178318696504,50.37965734197496 156.94291926699225,45.26452969904494 157.08628187398426,43.31056694576546 156.2181416428648,36.20405488889082 155.75619546489906,35.328376073121035 155.83584135762067,35.20854568246432 156.2181416428648,35.27306975865213 156.05088526807958,33.47559616928629 155.67654957211926,32.9870459051308 155.71637251848006,32.06524578265817 155.41371812598663,31.125 155.71637251848006,31.97306525480235 155.68451416140306,32.97782795030071 156.05884985736338,33.42028872438095 156.2420354107162,35.25463431298704 155.81991217911127,35.180892492884595 155.78008923269226,35.30994063871913 156.07477903587278,35.752390029687376 156.2659291785385,36.425277672366065 156.55265439246432,39.54999182513711 157.07831728472956,43.126228663481015 157.07831728472956,44.22303592451499 156.52876062467112,48.14931283444457 156.1305311608594,50.656142509345955 155.94734560747747,50.91419457180018" stroke="#4DD2FF" stroke-linecap="round" stroke-linejoin="round" stroke-width="0.5"><title>2025-09-04 5.0km</title><desc>1756985562000</desc></polyline><polyline fill="none" points="179.34849425515858,31.1756733784714 179.4360787802434,31.125 179.48716975326533,31.24323783502041 179.4579749115801,31.74996950858622 179.53826072625816,31.74996950858622 179.47987104285858,32.66207873599342 179.0857406797295,35.229443566378905 178.8229871043004,36.259745314426254 178.8594806564215,36.66510643628135 178.2317915595777,40.53282774012041 178.268285111757,40.88750059997983 177.77197280258406,44.383480694683385 177.81576506517013,46.09763945348823 178.4142593202996,51.36655649058957 178.75729871043586,51.375 178.83028581470717,51.273677830409724 178.48724642460002,48.28461829658772 178.57483094974305,48.090410146993236 178.3412722160283,46.99270338405768 178.12960961359204,44.67902782922465 178.53103868715698,41.52928573873214 178.74270128959324,40.72705354126083 179.13683165272232,37.22247475144104 179.35579296553624,35.947278100611584 179.47987104285858,35.778376414920785 179.40688393855817,35.55035859490454 179.72802719741594,33.160356401298486" stroke="#4DD2FF" stroke-linecap="round" stroke-linejoin="round" stroke-width="0.5"><title>2025-09-02 5.1km</title><desc>1756811867000</desc></polyline><polyline fill="none" points="21.837818775937194,58.3125 21.80842783715343,59.80038716836134 21.41899789805757,62.51252485652367 21.176522652967833,63.4392226021082 21.18387038767105,64.16186968635157 20.588703877001535,67.7835128424631 20.125796590931714,71.87255068904778 20.155187529686373,73.11367443023482 20.73565857100766,77.86547813067591 21.308781877538422,78.5625 21.176522652967833,78.49449812182866 21.073654367181007,77.6869715967623 20.853222326171817,75.578865648582 20.912004203768447,75.36635202324396 20.52257426470169,72.87565212507616 20.507878795295255,71.67702951793035 21.69086408196017,63.31169599833083 21.85251424537273,62.971624104822695 21.940687061753124,61.50079725190881 22.374203409039183,59.15422227666568" stroke="#4DD2FF" stroke-linecap="round" stroke-linejoin="round" stroke-width="0.5"><title>2025-08-31 5.1km</title><desc>1756640573000</desc></polyline><polyline fill="none" points="44.40160368470242,58.3125 44.467128077551024,59.946834842994576 44.01573781555635,62.768935147287266 43.86284756549867,63.02165586187766 43.790042684500804,63.527094980432594 43.7245182916522,64.81595078857936 43.31681095820386,67.60419121761515 43.20760363675072,67.78950901143253 43.251286565326154,68.1938373060475 42.756213374756044,71.66424076968542 42.785335327120265,73.09616104778252 43.3604938868084,78.09084242413519 43.91381098216516,78.5625 43.79732317262096,78.37720627211093 43.51338413686608,75.1513446018871 43.15664022008423,73.00350813071418 43.15664022008423,71.41154638989974 43.71723780356115,68.00852041568578 44.132225625100546,64.45372536304785 44.467128077551024,63.06377590608463 44.41616466088453,62.74366303347779 44.74378662521485,60.30065566986741" stroke="#4DD2FF" stroke-linecap="round" stroke-linejoin="round" stroke-width="0.5"><title>2025-08-30 5.0km</title><desc>1756550382000</desc></polyline><polyline fill="none" points="65.84068585943896,78.55339171688684 66.11618576172623,78.5625 66.99778544920264,72.43241616037994 67.12372826164938,70.3828889592478 66.60421416015015,66.72095033001096 66.38381423827377,63.95162372528284 66.2500000000291,63.34126720536733 65.84855728517869,62.7126867416664 65.90365726567688,62.56692832308909 66.31297140626702,62.63069766038825 66.11618576172623,60.78136844925757 65.75410017580725,60.40785397472064 65.77771445317194,59.30552168914437 65.37627173835062,58.3125 65.78558587896987,59.35107287871506 65.7383573242696,60.36230332249397 66.11618576172623,60.808698715532955 66.29722855470027,62.61247785436717 65.90365726567688,62.5760382311928 65.84855728517869,62.69446695231454 66.17915716799325,63.21372949689248 66.3916856640717,64.0882701377268 66.6199570117169,66.95779665847658 67.12372826164938,70.25536127323721 67.02927115233615,72.18647537109064 66.22638572266442,77.69720897244406" stroke="#4DD2FF" stroke-linecap="round" stroke-linejoin="round" stroke-width="0.5"><title>2025-08-28 5.0km</title><desc>1756381580000</desc></polyline><polyline fill="none" points="89.43515557117644,58.3125 89.60191301180748,59.17662378771638 89.57291171781253,59.965233720497054 89.12339166051243,62.78403318124765 88.96388454339467,63.07765259146254 88.9421335728548,64.0004496554975 88.30410510447109,67.7586439126826 88.35485736903502,68.23679475789686 87.86908569416846,71.39923152887059 87.83283407666022,72.68262623687042 87.94883925272734,72.8168362965589 87.9053373116767,73.36206242180197 88.45636189804645,78.1179592601693 89.06538907243521,78.5625 88.86963033780921,78.38636150238744 88.19535025188816,72.83361253868497 88.1663489578932,71.75153794405924 88.66662127969903,68.22001758211991 88.78987677930854,68.04385703067965 88.90588195534656,66.56744906704989 89.41340460069478,63.66488827986177 89.37715298315743,63.27060192114004 89.51490912970621,63.08604170212493 89.4569065416872,62.834368011441256 89.66716592333978,61.39142404560698" stroke="#4DD2FF" stroke-linecap="round" stroke-linejoin="round" stroke-width="0.5"><title>2025-08-26 5.0km</title><desc>1756206850000</desc></polyline><polyline fill="none" points="111.88704296731157,58.3125 111.90160394940176,59.00330525597383 112.01809180632699,59.02857850986038 111.95256738681928,59.887864558077126 111.54485988774104,62.6846947372469 111.40653055769508,62.9963838243857 111.23907926341053,64.89176521143963 110.7367253806442,67.747391366378 110.6566399790463,69.06987518133974 110.28533493523719,71.55473996538058 110.3508593547449,73.4330798731462 110.91145716595929,78.44458585738175 110.93329863913823,78.5625 111.37012810242595,78.51196538795921 111.0570669870649,75.24399511954107 110.6712009611656,73.0203541225419 110.63479850586737,71.89166505241883 111.10074993339367,68.44654148819973 111.26820122767822,67.96640288187336 111.82879903886351,63.375463567608676 111.99625033311895,63.03850388141291 111.93800640469999,62.7689351466106 112.21466506476281,60.67132348771702" stroke="#4DD2FF" stroke-linecap="round" stroke-linejoin="round" stroke-width="0.5"><title>2025-08-24 5.0km</title><desc>1756042259000</desc></polyline><polyline fill="none" points="133.49184401956154,78.5625 133.71773050245247,78.23577195247344 134.50026581811835,72.90527309913887 134.6454785571259,70.5619962121782 134.21790771454107,67.86388622425147 133.79033687195624,63.74654830637155 133.32242915747338,62.79421256737987 133.4353723989043,62.66349904797971 133.78226949757664,62.70084578679962 133.60478726102156,60.87083772063488 133.21755329036387,60.43200383387739 133.28209228545893,59.48897072520049 132.8464540684945,58.3125 133.2578901623201,59.31156737473066 133.23368803912308,60.441340746903734 133.62092200980987,60.898848323035054 133.80647162074456,62.710182469112624 133.70966312810197,62.80354924020503 133.37083340372192,62.68217241928505 133.37083340372192,62.812885912077036 133.68546100493404,63.38242110185092 133.86294324146002,64.07332790151122 134.07269497556263,66.6128325492682 134.6535459315055,70.65535500057013 134.52446794128628,72.78390962874983 133.6370567585982,78.48781940588378" stroke="#4DD2FF" stroke-linecap="round" stroke-linejoin="round" stroke-width="0.5"><title>2025-08-23 5.0km</title><desc>1755956696000</desc></polyline><polyline fill="none" points="156.9649038228672,58.3125 156.97223616973497,58.87247383977956 157.06755667948164,58.974286861746805 157.03089494499727,59.82272388364072 156.5909541308938,62.55463252706977 156.42964249904617,62.902477834548336 156.05569280710188,66.3893348885249 155.86505178769585,67.54310468230688 155.74040189033258,67.66187419746711 155.79906066559488,68.07756617073028 155.27113168869982,72.07319371213816 155.94570760359056,78.4267811072641 155.9677046443103,78.52857029747247 156.3636513769743,78.5625 155.63774903371814,71.9035318844617 156.73026872202172,63.962972878733126 156.86958331314963,63.09760993364034 157.00156555735157,62.93641388450487 156.94290678217658,62.61402085285954 157.22886831130018,60.4081404025419" stroke="#4DD2FF" stroke-linecap="round" stroke-linejoin="round" stroke-width="0.5"><title>2025-08-21 5.0km</title><desc>1755781186000</desc></polyline><polyline fill="none" points="179.31447306307382,58.3125 179.33632363329525,59.880092225110275 178.89931222959422,62.69494153798587 178.74635823830613,62.98990524838155 178.68080652775825,63.48712741469353 178.7609252850816,63.731523658236256 178.0835576094105,67.72603607136989 178.12725874979515,68.14738692705578 177.64654620570946,71.60238323837984 177.67568029928952,73.06017999054893 178.28749626444187,78.5625 178.70994062133832,78.48666652184329 178.41859968553763,75.29317160223582 178.03985646902584,73.01804749582516 178.0180058988335,71.40857018075621 178.49143491950235,68.18952189493575 178.61525481721037,68.00412787620735 179.11781793145929,63.81579805804358 179.35817420348758,63.00676028586895 179.36545772687532,62.079728138392966 179.85345379431965,58.978308919286064" stroke="#4DD2FF" stroke-linecap="round" stroke-linejoin="round" stroke-width="0.5"><title>2025-08-19 5.3km</title><desc>1755607955000</desc></polyline><polyline fill="none" points="21.030586979264626,105.6502575696868 21.38321504832129,105.75 21.38321504832129,105.0790033212761 21.516430096613476,104.77977344591636 21.680989862186834,102.71233961760299 22.158996800193563,99.58389471079136 22.11197972431546,97.53447712922207 21.579119531117612,94.0975162977411 21.33619797247229,91.26804546498897 21.187310565495864,90.52438759451616 20.803337779274443,89.88048369801982 20.889535751659423,89.72630883583042 21.265672358655138,89.80793085489859 21.10111259308178,88.11199133264017 20.693631268892204,87.55876344304124 20.724975986144273,86.48857516202406 20.34100319983554,85.5 20.75632070339634,86.53392238363449 20.709303627489135,87.54969410478225 21.07760405514273,87.94874411559431 21.265672358655138,89.79886174535204 20.873863393062493,89.74444706874783 20.834682496497408,89.86234549277287 21.28918089659419,90.90528630274639 21.524266275926493,93.63501277890464 22.104143545002444,97.64329694542539 22.096307365689427,98.57732824179402 21.516430096613476,102.5944581750955 21.3440341517271,102.67606842110399 21.234327641373966,102.94810203537781 21.030586979264626,104.28105475714983" stroke="#4DD2FF" stroke-linecap="round" stroke-linejoin="round" stroke-width="0.5"><title>2025-08-17 5.0km</title><desc>1755429603000</desc></polyline><polyline fill="none" points="43.45875721646007,105.70445857521554 43.356428670929745,105.75 43.47450006962754,105.63159224742412 43.608314321551006,103.62774502034154 43.718514293665066,102.92638790704223 44.08059991640039,102.62580460699974 44.07272848978755,101.9335483241739 44.5607569378044,99.18268762372463 44.631599777058,97.94386185256735 43.77361427969299,90.75651266161731 43.32494296459481,89.88196695216175 43.41152865701588,89.78175804446073 43.78935713288956,89.8090877576833 43.62405717468937,88.04174914064788 43.24622869878658,87.5680235860782 43.269842978566885,86.5385728786714 42.868400222942,85.5 43.293457258318085,86.55679334802699 43.23835727220285,87.522472919969 43.61618574807653,87.96886844917026 43.80509998605703,89.79997785419982 43.403657230432145,89.75442832292174 43.34855724434601,89.89107684729242 43.82084283919539,90.86583027504093 44.631599777058,97.51573425866081 44.62372835044516,98.59971292347473 44.09634276953875,102.48006688652094 43.7027714404976,104.99400935259473 43.537471482297406,105.12152629439515 43.482371496240376,105.50407603127678" stroke="#4DD2FF" stroke-linecap="round" stroke-linejoin="round" stroke-width="0.5"><title>2025-08-16 5.1km</title><desc>1755350047000</desc></polyline><polyline fill="none" points="66.1318754698732,105.69532568986324 65.84837659751065,105.75 65.9822510649974,105.61331416218309 66.3602495615196,102.78842686724238 66.57287371577695,102.67907460218703 66.52562390369712,102.37835518571228 67.09262164845131,99.03392278576939 67.13199649186572,97.58493377610284 66.28149987471988,90.77710587184265 65.85625156617607,89.92039478429069 65.9428762216121,89.7563427908317 66.28937484341441,89.81102682201163 66.11612553251325,88.0155503621063 65.74600200468558,87.5962968716849 65.80112678543082,86.69398379400809 65.36012853949796,85.5 65.76962691074004,86.45701117647695 65.76175194204552,87.55072572193603 66.11612553251325,87.9790936147183 66.32087471810519,89.80191281912266 65.91137634689221,89.76545679834817 65.87200150350691,89.89305280624103 66.2106251566147,90.4398907826835 66.35237459282507,90.98672542296117 66.60437359049683,93.91223408333462 67.10049661714584,97.21129130269401 67.13987146053114,98.53270282162703 66.54137384105707,102.36924246035778 66.58862365313689,102.64262381754816 66.33662465549423,104.04596833043615 66.1318754698732,104.51070745163452" stroke="#4DD2FF" stroke-linecap="round" stroke-linejoin="round" stroke-width="0.5"><title>2025-08-14 4.9km</title><desc>1755170321000</desc></polyline><polyline fill="none" points="89.57716790036648,85.51694057478744 89.4014862223994,85.5 89.4527267118101,87.03310807799426 89.02816265673027,89.91290338344697 88.87444118855637,90.21781706249021 88.87444118855637,91.01397530040413 88.44255706356489,94.05455222811725 88.3034757352143,94.88455117787089 88.19367468648124,94.95230582946533 88.25955531571526,95.37577115451131 87.7544704915781,98.85657464131509 87.79839091107715,100.3386244847643 88.41327678391826,105.68225411975436 88.83052076905733,105.75 88.11315391742392,99.0428909261318 89.30632531348965,90.5904878224319 89.47468692154507,90.2432264853851 89.4014862223994,89.9467827362023 89.74552950839279,87.54131447819964" stroke="#4DD2FF" stroke-linecap="round" stroke-linejoin="round" stroke-width="0.5"><title>2025-08-12 5.0km</title><desc>1754999139000</desc></polyline><polyline fill="none" points="111.79603078708169,85.56784739669092 111.89131132711191,85.5 111.89864059945103,86.9332645318791 111.44422571620089,89.8506026967807 111.29031099771964,90.13893872302287 111.1363962792093,92.09790123873972 110.65266430674819,94.93873923794308 110.16160306197708,99.03446388487646 110.20557869583718,100.28942832928442 110.71862775753834,104.5375125931314 111.25366463616956,105.75 110.53539594978793,99.0853411886128 111.6201282516704,91.25835150372586 111.88398205480189,90.17286054295982 111.81801860401174,89.93540751375986 112.12584804103244,87.64564721370698 112.33839693805203,86.78061030903336" stroke="#4DD2FF" stroke-linecap="round" stroke-linejoin="round" stroke-width="0.5"><title>2025-08-10 5.0km</title><desc>1754830447000</desc></polyline><polyline fill="none" points="133.46204533151467,105.75 134.55863982258597,99.2226582725416 134.62964234358515,97.68889237441908 134.0458438375499,93.64437217336672 133.7697229225305,90.69531823752914 133.3279294584936,89.91010488766915 133.3910428105155,89.7457570384795 133.7933904295205,89.82793100068375 133.61982871152577,88.02008646004106 133.24114859948168,87.57268497010955 133.2648161064717,86.55004462136276 132.86246848743758,85.5 133.28059444451355,86.58656769151276 133.24903776848805,87.58181563505786 133.61982871152577,88.02921707947098 133.80916876750416,89.80053968831635 133.40682114849915,89.78227880874329 133.35948613449,89.8827136003747 133.80916876750416,90.85053401718324 134.1720705415355,94.43868283891061 134.59808566755964,97.04981551993114 134.63753151256242,98.5014263803896 133.72238790852134,104.98317604813928 133.46993450049195,105.24791362843098" stroke="#4DD2FF" stroke-linecap="round" stroke-linejoin="round" stroke-width="0.5"><title>2025-08-09 5.0km</title><desc>1754735080000</desc></polyline><polyline fill="none" points="156.8580746242951,85.5 156.9020318260591,86.92418742838345 156.6163100146514,89.16214712840883 156.25,90.70494802819303 156.16941179678543,92.10361649918923 155.67855637715547,94.96869447517383 155.70786117835087,95.40946697207255 155.20967955846572,98.76604270260577 155.19502715786803,99.91877494568325 155.82508038304513,105.2753806296605 156.31593580261688,105.75 155.5979681739409,100.22390728651953 155.6345991754206,98.41852471210586 156.68224581726827,91.21355745742767 156.81411742253113,90.39130400151043 156.9386628275097,90.2302430972486 156.8800532251771,89.88268956038519 157.30497284216108,87.00895972298167" stroke="#4DD2FF" stroke-linecap="round" stroke-linejoin="round" stroke-width="0.5"><title>2025-08-07 5.0km</title><desc>1754570205000</desc></polyline><polyline fill="none" points="179.1009499275824,85.5 179.14623378921533,86.07639195431693 179.297179994639,86.13752420761011 179.24434882277274,86.54798249636224 179.65190357741085,86.60911441423377 179.69718743901467,86.98463809853274 179.2820853741141,89.06308835509844 179.16132840976934,90.17215679342917 179.24434882277274,90.46907032508898 179.11604454813641,90.59132854002382 178.874530619476,92.01475067385763 177.81035987118958,99.75146739178308 178.46697586483788,105.75 177.80281256095623,99.6117585894317 178.27074579778127,96.07530393260095 178.44433393402142,95.59503343998949 178.85943599892198,92.01475067385763 179.0707606865326,90.69612115729251 179.20661227140226,90.46033758878184 179.1537810995069,90.11976018140558 179.56888316440745,87.06323587136285" stroke="#4DD2FF" stroke-linecap="round" stroke-linejoin="round" stroke-width="0.5"><title>2025-08-05 5.0km</title><desc>1754406000000</desc></polyline><polyline fill="none" points="20.943363468686584,132.9375 21.293805218709167,130.03438671442564 21.5088490198832,129.86849171976792 21.84336159945815,127.61966296354512 22.090263741498347,125.81318635734351 22.106192911975086,124.68872866457968 21.524778190330835,120.69771296084218 21.30176980397664,118.04308328476327 21.102655173221137,117.35176071561727 20.800000934599666,116.91852921845566 20.871682201628573,116.78026341115765 21.261946877813898,116.81713431374374 21.078761417564237,115.00122454357188 20.70442591185565,114.6048536147864 20.736284252809128,113.48025689327187 20.39380708799581,112.6875 20.74424883798929,113.60009163432551 20.70442591185565,114.51267408059357 21.094690588040976,114.99200663466763 21.269911463023163,116.8079165895033 21.166371855098987,116.90009378964896 20.784071764181135,116.82635203702375 21.293805218709167,117.90481919270678 21.620353213045746,121.39822727406863 22.106192911975086,124.71637943080714 22.098228326736717,125.85927039155649 21.166371855098987,132.23707482402824 21.11858434372698,132.39374934621446 20.911505127791315,132.4029654861297 20.831859275494935,132.75317810969864 20.608850889111636,132.73474590006663" stroke="#4DD2FF" stroke-linecap="round" stroke-linejoin="round" stroke-width="0.5"><title>2025-08-03 5.0km</title><desc>1754221111000</desc></polyline><polyline fill="none" points="53.875,121.71689908297776 53.81274019983539,121.97505153872044 53.65190238278592,121.9900603330334 50.49221752496669,121.92702334566638 50.40661029977491,121.87299153515414 50.28209069946024,121.92402158100413 49.87999615680019,121.92101981604355 49.84627209836617,121.88800038131922 49.1276902382815,121.9300251100176 48.77488470406388,121.87599330499688 47.636049192922655,121.87299153515414 47.1431591083674,121.79494541216627 46.80851268253173,121.70789372403124 46.78775941581989,121.67487405109387 46.32340507300978,121.65986509664071 45.303900845494354,121.47975704845157 43.8044773251313,121.46774980619193 40.675922367401654,121.85798268136205 40.253074558029766,122.05309718589888 39.7990968485683,122.19117744119649 38.57984242889506,122.9325973412233 37.93389700229454,123.25977672427507 37.536990776323364,123.37383840978873 37.30351652574609,123.37684002714195 37.00778247501876,123.3048011264309 36.69388931589492,123.43387069898199 36.5875288239622,123.22375715317139 36.4604150653322,123.30780275079815 36.35664873174392,123.11269653247291 34.59002690236957,124.15725019380807 34.45513066870626,123.81807446153834 33.91035741736414,122.776510487427 33.85847425056272,122.74049032713447 33.625,122.85455401740182 33.77805534203071,122.73748864513436 33.8532859338884,122.72848359728596 33.87663335894467,122.65344142514004 33.970023059184314,122.65944480592407 34.094542659498984,122.575397363913 34.130860876248335,122.61742111480999 34.22425057647342,122.55738716666565 34.193120676398394,122.61441942029705" stroke="#4DD2FF" stroke-linecap="round" stroke-linejoin="round" stroke-width="0.5"><title>2025-08-02 8.3km</title><desc>1754134728000</desc></polyline><polyline fill="none" points="66.79127072985284,112.6875 66.68229004601017,112.71272101454815 66.6169016356871,113.39368550072686 67.16180505498778,113.39368550072686 67.16180505498778,113.94013443012955 65.34546032396611,125.96109801491548 65.35272570286179,127.23034260925488 66.10832511098124,132.9375 65.38905259751482,127.39004750423919 65.33819494501222,126.15442791819805 66.41347102579311,118.47131805781828 66.68229004601017,117.42891559893178 66.60963625676231,117.1935325812301 66.95110906616901,114.71356366897817" stroke="#4DD2FF" stroke-linecap="round" stroke-linejoin="round" stroke-width="0.5"><title>2025-07-31 5.0km</title><desc>1753965181000</desc></polyline><polyline fill="none" points="88.34906562248943,132.9375 88.43639786314452,132.20255211703625 88.65869811206358,131.93613203401037 89.46850616164738,126.35950387296907 89.55583840227337,124.30148499109782 89.14299508286058,121.80239906287898 88.70633387970156,117.67691852159624 88.28555126566789,116.8683390143342 88.37288350632298,116.74888915557676 88.72221246888512,116.79483142762183 88.57136587140849,114.96631096399506 88.16646184661658,114.52525526282261 88.21409761425457,113.50530570784758 87.89652583008865,112.6875 88.22203690884635,113.52368327917793 88.19027973039192,114.54363262667903 88.57136587140849,115.02144277524349 88.75396964728134,116.7764545216196 88.65075881744269,116.8683390143342 88.33318703327677,116.73970069834468 88.30142985488055,116.87752745848411 88.77778753111488,117.93419230205473 89.0556628422346,121.02142053865828 89.60347416991135,124.96299617050681 89.03184495840105,129.72205890105397 88.61106234442559,132.35872904204734 88.46021574694896,132.42303710925626" stroke="#4DD2FF" stroke-linecap="round" stroke-linejoin="round" stroke-width="0.5"><title>2025-07-29 5.0km</title><desc>1753797916000</desc></polyline><polyline fill="none" points="112.11854557064362,112.6875 112.10394816609914,114.23302414581121 111.76820786148892,116.5977049226858 111.50545457960106,117.38310187045136 111.33028572503827,119.54501643420372 110.8412726726383,122.12910617562011 110.8996622908453,122.58511367518076 110.41794794073212,125.78554038426228 110.44714274985017,127.48281432606018 111.04563633631915,132.9375 110.4836362611968,128.20055656584736 110.38145442938549,126.40196726474096 110.84857137495419,122.26421976953861 111.49815587734338,118.13471135589498 111.43246755684959,117.92358578227868 111.74631175468676,116.63993075377948 112.10394816609914,113.78541628389212" stroke="#4DD2FF" stroke-linecap="round" stroke-linejoin="round" stroke-width="0.5"><title>2025-07-27 5.0km</title><desc>1753616848000</desc></polyline><polyline fill="none" points="134.32837991471752,112.6875 134.3499344456941,114.46664165232505 133.9547680443502,117.27660901376657 133.79670148377772,117.57588979237335 133.57397133027553,120.01997518374264 133.17162008525338,122.24785337670619 133.2003594598791,122.67180840333458 132.67586587264668,126.12986935954541 133.32968664579676,132.9375 133.76077726547373,132.8710057349599 133.45182898803614,129.53791150260076 133.0997716486454,127.20217108770157 133.08540196131798,125.95530728365702 134.07691038653138,118.9642057557503 134.40741319500376,117.56757645220205 134.33556475839578,117.24335552634147 134.82413412735332,114.28374102355883" stroke="#4DD2FF" stroke-linecap="round" stroke-linejoin="round" stroke-width="0.5"><title>2025-07-26 5.2km</title><desc>1753529066000</desc></polyline><polyline fill="none" points="156.9489272122737,112.6875 156.86156131071039,113.12557229344384 156.97804917942267,113.69000818209315 156.83971983531956,115.02105073448183 156.53393917999347,117.0933909111045 156.37376836049953,117.38823184958892 156.3519268851087,118.27274837504228 155.7039631154621,122.1560854831041 155.7549265579728,122.52671986608766 155.27441409957828,126.05608703317557 155.33993852572166,127.93442408000556 155.91509737746674,132.9375 156.33008540974697,132.89538782544696 156.00246327900095,129.83798684196518 156.07526819696068,129.67795448618563 155.66028016468044,127.30270112057042 155.6529996728641,126.17401078968396 157.22558590042172,115.1642629004491" stroke="#4DD2FF" stroke-linecap="round" stroke-linejoin="round" stroke-width="0.5"><title>2025-07-24 5.0km</title><desc>1753356656000</desc></polyline><polyline fill="none" points="178.39482724491972,132.90096824969805 178.49743270751787,132.9375 178.84471273468807,130.05144597600884 179.07360184349818,129.90531419324543 179.01835274827317,129.62218318793748 179.61030734004453,125.95966623393906 179.6497709795076,124.85448840873141 179.05781638770713,120.95428943594015 178.81314182313508,118.06785050244798 178.33957814972382,117.07219024415826 178.41061270073988,116.92603735080047 178.79735636734404,116.99911382719438 178.59214544217684,115.16304934091022 178.25275814288761,114.79765889613918 178.2843290544697,113.81109727099829 177.8502290204924,112.6875 178.24486541500664,113.59185988279933 178.23697268712567,114.76111976992979 178.60003817008692,115.14477985396661 178.8052490952541,116.94430647547415 178.70264363265596,117.04478659475717 178.42639815647271,116.93517191361025 178.33957814972382,117.04478659475717 178.61582362584886,117.43757143720723 178.81314182313508,118.0952538397687 179.16831457818625,121.73068914492615 179.62609279580647,124.69921440212784 179.6182000679546,125.91399799798819 178.75789272788097,131.89633929765841" stroke="#4DD2FF" stroke-linecap="round" stroke-linejoin="round" stroke-width="0.5"><title>2025-07-22 5.0km</title><desc>1753184035000</desc></polyline><polyline fill="none" points="11.125,153.33980949484976 11.125,150.0903766414849 13.277927580988035,140.9918065496895 30.688559322152287,144.16911147072096 31.375,144.92732776381308 29.03486132528633,158.97208938008407 13.402734976960346,156.5170039961231 12.841101695084944,155.7949168313644 14.775616332888603,141.75002962347935 15.462057010736316,141.31675949378405 19.611902927746996,142.00277028852724 31.343798151123337,144.60237812213018 29.284476117230952,158.68325668593752 28.629237288143486,159.0081934502814 13.090716486913152,156.3725866805762 13.277927580988035,151.75120159052312 14.806818181998096,141.8222412604664 15.306047765887342,141.38897121875198 22.981702619581483,142.68877975878422 15.150038520921953,141.46118292908068 14.276386748999357,145.43280439369846 15.05643297394272,146.19101799000055" stroke="#4DD2FF" stroke-linecap="round" stroke-linejoin="round" stroke-width="0.5"><title>2025-07-20 4.9km</title><desc>1753020627000</desc></polyline><polyline fill="none" points="44.91391049377853,139.875 44.76114724148647,140.91034447926359 44.193740875751246,142.366538799899 43.71362779705669,144.55499079666333 43.582687866466586,146.28046026904485 43.13167255013832,149.16738493629964 43.02983038194361,149.25996686176222 43.08075146607007,149.67237600022054 42.60791282792343,153.08098519402847 42.586089506192366,154.20874107431155 43.23351471836213,160.11658456885198 43.16077031250461,158.95524687568104 43.240789158968255,160.125 43.65543227238231,160.0408456500154 42.95708597608609,153.45129478714807 44.07007538579637,145.32093533901934 44.302857484522974,144.58865883741237 44.33195524686016,143.60386299272795" stroke="#4DD2FF" stroke-linecap="round" stroke-linejoin="round" stroke-width="0.5"><title>2025-07-20 5.0km</title><desc>1752942252000</desc></polyline><polyline fill="none" points="67.12316423584707,139.88406143071916 66.99786712578498,139.875 66.80209039128385,140.8717518594276 67.02136033395072,141.00767170438485 67.00569819516386,141.29763334801828 66.73161076687393,143.14611666563724 66.58282044864609,143.46325456107297 66.19909804902272,147.07854687322106 65.8780242044304,148.55542864478048 65.90934848197503,148.99033395405422 65.35334255595808,153.1490089066574 66.10512521641795,160.125 65.40816004161024,154.30869197534048 65.39249790285248,152.55104143446806 65.90934848197503,149.04469696864544 65.88585527378018,148.5644891936754 66.45752333855489,145.12141433910438 66.5749893792381,143.4541934939989 66.73161076687393,143.12799446612917 67.14665744401282,140.1649653262648" stroke="#4DD2FF" stroke-linecap="round" stroke-linejoin="round" stroke-width="0.5"><title>2025-07-17 5.0km</title><desc>1752765839000</desc></polyline><polyline fill="none" points="97.43834459467325,159.69769152801018 97.8944256757386,159.06439577726997 98.875,150.80502227315446 84.21199324319605,150.14531657402404 81.56672297301702,150.35642258013831 81.88597972970456,150.14531657402404 81.40709459455684,147.16342590402928 78.6934121621307,142.88844325614627 78.625,140.48703323944937 78.94425675668754,140.30230847198982 91.69172297301702,140.5134224811627 90.77956081088632,148.8259001474944 90.20945945940912,149.19533742271597 82.25084459455684,148.93145370835555 81.38429054047447,146.16065851526218 79.14949324319605,143.31066689724685 78.87584459455684,141.80649204182555 82.04560810804833,141.56898995226948 91.28125,141.88565935677616 91.4180743242614,143.8648343841778 90.59712837846018,150.30364609471872 89.36570945940912,150.38281081881723" stroke="#4DD2FF" stroke-linecap="round" stroke-linejoin="round" stroke-width="0.5"><title>2025-07-15 4.1km</title><desc>1752589649000</desc></polyline><polyline fill="none" points="112.06378772997414,139.875 112.12549675215269,141.31202030275017 111.64725183026167,144.31094347685575 111.47755201926338,144.65902614309016 111.4698383914947,145.5426144098601 110.79103914753068,149.6837581720174 110.82189365863451,150.14783970770077 110.30508059787098,153.99426732608117 110.92217081965646,160.125 110.56734394212253,157.69774504318048 110.2973669701023,153.79793403087388 111.45441113595734,145.4801387637708 111.38498848601012,145.1945352443654 111.61639731915784,144.37341995439783 112.07150135777192,141.40127544676216 112.01750596333295,141.08888204593677 112.2026330298977,140.14276954039815 112.03293321892852,139.9285539733828" stroke="#4DD2FF" stroke-linecap="round" stroke-linejoin="round" stroke-width="0.5"><title>2025-07-13 5.0km</title><desc>1752418082000</desc></polyline><polyline fill="none" points="133.57413868478034,160.125 133.4702206349175,160.1157502291535 133.53417020407505,159.38501536379044 133.88589283448528,157.16502536070766 134.09372893426917,156.9800237497475 134.45344526082044,154.46396450750763 134.645293968264,151.86458025567845 134.11771002269234,148.24751991196536 133.8459243537509,145.22239995868586 133.68605043084244,144.63031578290975 133.35031519271433,144.09373617044912 133.42225845804205,143.95496506599738 133.8059558730165,144.01047353319154 133.638088253967,142.25268896128546 133.25439083896345,141.77160515900323 133.27837192744482,140.67065380804706 133.00658625850338,139.91200730814307 132.83871863942477,139.91200730814307 132.982605170022,139.875 133.25439083896345,140.5503810044611 133.2463971428224,141.78085679459764 133.5981197732326,142.10466344693123 133.638088253967,142.28969530225004 133.8059558730165,143.9827193038218 133.414264761901,143.96421647954412 133.32633410429116,144.0659819665234 133.67805673470139,144.57480769389804 133.83793065760983,145.13913835428684 134.16567219956778,148.73782040249353 134.66128136057523,151.79982596352784 134.65328766443417,152.98389716684324 133.67805673470139,159.64401067074505" stroke="#4DD2FF" stroke-linecap="round" stroke-linejoin="round" stroke-width="0.5"><title>2025-07-12 5.1km</title><desc>1752325602000</desc></polyline><polyline fill="none" points="156.12799282599008,160.125 155.93120706142508,160.1158917169014 156.37200717403903,157.08278197003528 156.553050077433,156.99169600579626 157.0568216346437,153.61234130641242 157.1355359404697,151.90895249471214 156.6711215361429,148.85734612208034 156.3169071599259,145.14973227222072 155.84462132499903,144.19319765947148 155.907592769654,144.09298868047335 156.301164298784,144.15675804370403 156.12012139539002,142.30742808069044 155.76590701920213,141.9156931887701 155.75016415806022,140.68581669901323 155.35659262895933,139.875 155.7737784497731,140.78602948927437 155.76590701920213,141.90658305463876 156.12799282599008,142.3165381740837 156.32477859052597,144.1294283221505 155.946949922567,144.08387876772758 155.86036418622825,144.2296372603887 156.33265002109692,145.2226106811795 156.67899296671385,148.8391272644949 157.14340737101156,151.84518864846905 157.06469306524377,153.56679657232598 156.30903572935495,158.59479545430077" stroke="#4DD2FF" stroke-linecap="round" stroke-linejoin="round" stroke-width="0.5"><title>2025-07-10 5.0km</title><desc>1752149320000</desc></polyline><polyline fill="none" points="175.9101617091801,139.875 175.95759115874534,141.1372838580137 176.30145466781687,140.95891837657837 177.03661113564158,141.20588590350235 177.83105441526277,141.1372838580137 178.72035659401445,141.46657335855707 183.30915583629394,142.07026869068795 183.4395868224674,142.24863270414062 182.38428157038288,148.98513181251474 181.87441498792032,149.02629065206565 181.77955608884804,149.20464547838492 181.60169565310935,150.39824479194067 181.7321266392828,150.91958371095825 180.92582599725574,155.46063498065632 175.02085953048663,155.28228841531381 174.8192843699362,155.14509858946258 174.0604131774744,160.125 174.8548564570956,155.22741250168474 177.15518475940917,155.26856943896564 177.92591331433505,154.96675160749874 178.03262957575498,155.28228841531381 180.96139808441512,155.37832121056272 183.0008644143236,142.60536002424487 182.9415776024107,142.1388702622353 176.83503597509116,141.06868177762954" stroke="#4DD2FF" stroke-linecap="round" stroke-linejoin="round" stroke-width="0.5"><title>2025-07-08 5.1km</title><desc>1751976330000</desc></polyline><polyline fill="none" points="11.305363211373333,187.1281155203469 11.261905221093912,187.3125 11.537139159918297,187.19516444586043 11.624055140535347,186.25647700825357 12.131065027846489,185.83741839180584 12.232467005262151,185.40159630140988 13.695552679884713,175.26002634281758 13.825926650839392,172.19228812295478 13.478262728254776,169.92916597424482 14.2749925510725,169.89563800522592 14.477796505962033,170.1973894808325 17.273593884252477,170.59972392269992 19.51892338495236,170.56619609006157 21.155841020925436,171.21998759763665 26.370799861149862,171.99112296733074 27.326875648635905,167.0625 31.23809477884788,167.93423995508056 27.746969555155374,167.11279281500902 27.09509970014915,170.01298586689518 26.99369772261707,172.02465051032777 17.23013589391485,170.71707128340495 14.477796505962033,170.2141534355178 14.231534560734872,169.8453460389137 13.434804737917148,169.97945791494567 13.753496667020954,171.3205706764129 13.811440654157195,174.22068973083515 12.17452301812591,185.45188352449622" stroke="#4DD2FF" stroke-linecap="round" stroke-linejoin="round" stroke-width="0.5"><title>2025-07-06 5.0km</title><desc>1751807521000</desc></polyline><polyline fill="none" points="36.70720103458734,186.0573240629892 37.584559909126256,179.8182326178503 34.74510755157098,179.61518166244787 33.85179669759236,179.92898758876254 35.01629120367579,179.8182326178503 34.85677140840562,179.63364084958448 37.79193564306479,179.79977344948566 37.99931137711974,179.61518166244787 37.90359949984122,179.04294593058876 39.09999796503689,171.49295730235463 38.98833410831867,167.72707548586186 41.04613946855534,167.52401101209398 53.64820330234943,169.5915659495222 53.632251322851516,168.9823781014711 39.76998110557906,167.0625 39.993308819131926,171.62217735149898 38.54167868127115,181.8856476059882 38.94047816970851,182.51325107150478 38.57358264038339,183.19622884955606 38.653342537989374,184.6729287803755 38.095023254223634,184.80213945315336 37.839791581674945,187.3125 36.547681239200756,187.16483269286982 36.62744113692315,186.0757825954788" stroke="#4DD2FF" stroke-linecap="round" stroke-linejoin="round" stroke-width="0.5"><title>2025-07-05 4.8km</title><desc>1751729502000</desc></polyline><polyline fill="none" points="69.50924836716149,187.3125 69.70965522469487,187.16603847968508 69.74129841267131,186.33608649109374 70.01553937559947,185.12776378462877 70.16320758638903,185.07894240968744 70.35306671459693,183.30915416883363 66.22890454129083,183.13827668228623 66.49259777489351,182.22285743585962 66.88286376057658,178.09728144797555 66.92505467799492,175.0823478230086 66.77738646714715,174.67953719334764 66.9356024072622,172.21381843235577 66.92505467799492,167.0625 61.387496772629675,169.05225345976942 61.271471749816556,169.3330135630531 61.313662667234894,169.08887438003148 64.29867007141002,167.95362065742665 64.35140871815383,170.4682542427181 64.64674513973296,171.10300779337558 66.85122057254193,171.10300779337558 66.86176830192562,174.32555097907607 67.09381834743544,174.43540888138523 67.1782001821557,174.82601394230733 71.03866912191734,175.07014146015717 71.22852825012524,176.03444030343962 71.20743279141607,177.79212966580235 69.8784188941936,186.8609097387598" stroke="#4DD2FF" stroke-linecap="round" stroke-linejoin="round" stroke-width="0.5"><title>2025-07-03 5.2km</title><desc>1751545471000</desc></polyline><polyline fill="none" points="88.39514732849784,187.3125 88.87616983873886,184.3469224857472 89.07331021176651,184.21004731281573 89.57798956678016,180.46871178525907 89.61741764139151,179.17289581305522 88.75788561490481,172.29198214061762 88.33994802407688,171.42498610340408 88.42668978817528,171.30634388896578 88.78154245967744,171.3702281777587 88.61594454629812,169.59970391168463 88.22954941514763,169.10687135520857 88.23743503005244,167.98429820675665 87.86681112876977,167.0625 88.26897748975898,168.06643818157318 88.22954941514763,169.1251244611267 88.58440208659158,169.47193276802864 88.63960139104165,169.75485434159054 88.78154245967744,171.36110185356665 88.39514732849784,171.33372287543898 88.33994802407688,171.45236505368666 88.76577122983872,172.29198214061762 89.17582320576184,176.19792359226267 89.63318887120113,179.14551921753446 89.49913341752836,181.1896153910493 88.63171577613684,187.00225955482892" stroke="#4DD2FF" stroke-linecap="round" stroke-linejoin="round" stroke-width="0.5"><title>2025-07-01 5.0km</title><desc>1751376396000</desc></polyline><polyline fill="none" points="110.538358737831,187.3125 110.6845863944618,187.13201492517692 110.65534086310072,186.466473675835 110.88930511369836,186.240865567117 111.05502979119774,185.36098956206843 111.30849106266396,182.2588069797057 111.65943743853131,181.0517525086616 112.04937785619404,177.88176190740342 111.95189275179291,176.06546314726438 111.40597616706509,172.82763945678016 111.03553277032916,168.90151048285043 110.45062214386417,167.44609979447705 110.9672931972309,167.5476406945818 110.98679021809949,167.0625 110.98679021809949,167.5250760581257 110.538358737831,167.43481746652105 110.46037065429846,167.5476406945818 110.8308140510344,168.10047285366454 111.05502979119774,168.87894612175296 111.46446722972905,173.25634627733962 112.04937785619404,177.14847716593795 112.00063530396437,178.9647582023681 110.77232298837043,186.92896886531526" stroke="#4DD2FF" stroke-linecap="round" stroke-linejoin="round" stroke-width="0.5"><title>2025-06-30 4.1km</title><desc>1751292736000</desc></polyline><polyline fill="none" points="123.85235191634274,178.4358025804613 123.625,176.7925948953125 123.70339721255004,176.62010172280134 129.80270034843124,176.32958615091047 130.7748257839412,176.42037236892065 132.35844947735313,176.266035743276 134.73388501739828,176.29327163782 143.875,175.71223741456197 141.14677700347966,175.90288968684763 140.51175958191743,176.11169885019626 139.33580139372498,176.0572269417171 133.38545296166558,176.36590064923075 127.85060975607485,176.4657654432158 127.68597560975468,176.61102312553703 128.0701219511975,178.66276258543076 127.88980836234987,178.64460580631567 127.6702961672272,177.5733492878353" stroke="#4DD2FF" stroke-linecap="round" stroke-linejoin="round" stroke-width="0.5"><title>2025-06-26 5.0km</title><desc>1750950176000</desc></polyline><polyline fill="none" points="166.375,178.01627715588256 166.04803552207886,176.35872284411744 157.33624865443562,177.15805522028677 156.40621636170545,177.16646920412313 153.04938105487963,176.74576896116196 146.125,177.04025935634854 152.8168729816971,176.73735493442655 156.41348223897512,177.17488318713004 162.6112755651411,176.6111444305934" stroke="#4DD2FF" stroke-linecap="round" stroke-linejoin="round" stroke-width="0.5"><title>2025-06-24 5.0km</title><desc>1750769966000</desc></polyline><polyline fill="none" points="188.875,177.9984436127852 188.5978025936347,176.3765563872148 179.9755043227633,177.19595129606023 178.9250720460841,177.22974060293927 175.5257564841304,176.79047853924567 168.625,177.09458329282643 175.343389769434,176.79047853924567 178.9177773775009,177.22974060293927 186.2197406339692,176.5792940261017" stroke="#4DD2FF" stroke-linecap="round" stroke-linejoin="round" stroke-width="0.5"><title>2025-06-22 5.0km</title><desc>1750563938000</desc></polyline><polyline fill="none" points="21.942017956782365,214.5 20.895432495628484,208.24736129766097 20.88076073685079,206.54248897663638 20.973681875912007,205.82880595649476 20.914994840713916,203.99357893816705 20.934557185770245,203.6763730600578 21.042150083638262,203.49511174486906 20.934557185770245,203.4101452997129 20.92966659949161,202.24892418762101 19.74125413663569,195.09979878388185 19.442928374337498,194.25 19.74614472288522,194.99215832413756 20.914994840713916,202.12996845871749 20.97857246219064,205.60790221087154 20.895432495628484,206.54815309090918 20.89054190934985,208.19072186149424 21.692598057183204,212.9935408870806 21.80508154130075,213.32202041601704 23.057071625662502,213.25405929348926" stroke="#4DD2FF" stroke-linecap="round" stroke-linejoin="round" stroke-width="0.5"><title>2025-06-21 8.0km</title><desc>1750517001000</desc></polyline><polyline fill="none" points="45.804420974920504,214.5 44.089079190045595,203.95185964051052 41.070609537593555,203.8902624973125 35.63204527384369,203.366685766101 35.73842305893777,202.81230842562218 35.5256674886914,201.74974616938562 35.81820639775833,194.80440876755165 35.77831472828984,194.3116010746744 35.51237026555464,194.25 35.17993968707742,202.79690902603033 35.68523416639073,202.85850661502627 35.71182861260604,203.38208510767436 44.128970859514084,203.93646035708662 45.152857041102834,210.52721023210324 45.471990396501496,211.4049285898218 52.32006031292258,211.18934911474935" stroke="#4DD2FF" stroke-linecap="round" stroke-linejoin="round" stroke-width="0.5"><title>2025-06-19 5.0km</title><desc>1750345525000</desc></polyline><polyline fill="none" points="76.375,204.8819461144485 76.18913043479552,203.77742770878103 70.4565217391355,204.32119335945754 69.71793478258769,204.33818595028788 67.26250000001164,204.054975424413 58.164673913037404,204.46846230758092 57.377173913031584,204.59873835947656 56.125,204.9725722912226 57.890760869544465,204.49678321440297 61.08967391305487,204.35517853595957" stroke="#4DD2FF" stroke-linecap="round" stroke-linejoin="round" stroke-width="0.5"><title>2025-06-17 5.1km</title><desc>1750166247000</desc></polyline><polyline fill="none" points="79.32327586197061,212.01659132672648 78.625,207.52879474624933 94.40603448275942,207.06383704327163 91.83987068966962,196.93557486037025 94.94719827582594,197.1175242526224 98.875,196.73340867328807 92.67780172417406,197.09730766170833 94.96465517242905,206.21478103398113 88.19137931033038,206.5382313708833" stroke="#4DD2FF" stroke-linecap="round" stroke-linejoin="round" stroke-width="0.5"><title>2025-06-16 3.2km</title><desc>1750084948000</desc></polyline><polyline fill="none" points="121.375,205.31109957041917 121.06471774197416,203.43890042957355 111.1111895161157,204.35609361817478 110.21300403226633,204.36554917085596 106.27731854838203,203.88331475642917 101.125,204.12916006521846 106.1140120967757,203.87385915460618 110.20483870970202,204.34663806456228 118.64778225813643,203.63746879615064" stroke="#4DD2FF" stroke-linecap="round" stroke-linejoin="round" stroke-width="0.5"><title>2025-06-15 4.6km</title><desc>1749956754000</desc></polyline><polyline fill="none" points="143.875,205.18940293612104 143.6284908700618,203.56059706387168 134.9571697100182,204.3582122107764 134.05088614395936,204.37500402560545 130.2372448979586,203.94681167836097 123.625,204.24906533100147 130.36774973146385,203.94681167836097 133.99288399572833,204.37500402560545 135.8852040816564,204.28264900172508 136.2404672395205,204.1651060942968 140.83713748658192,203.7537045974459" stroke="#4DD2FF" stroke-linecap="round" stroke-linejoin="round" stroke-width="0.5"><title>2025-06-14 5.1km</title><desc>1749906363000</desc></polyline><polyline fill="none" points="166.375,205.57734591167537 166.13154172559734,203.93552953665494 157.73939179631998,204.74814986327692 156.60802687410614,204.75644186561112 153.17096888259402,204.34184071453637 146.69784299857565,204.64864576957916 146.6119165488053,204.45792924981652 146.6477192362072,203.18094625120284 146.125,203.17265408831736 146.6692008486425,203.19753057445632 146.6119165488053,204.44963721706154 146.71932461104007,204.64864576957916 153.34998231963255,204.33354866997252 156.76555869873846,204.76473386709404 163.56806930695893,204.15112347559625 163.560908769432,203.8194402559675 165.74487270155805,203.70335080965742" stroke="#4DD2FF" stroke-linecap="round" stroke-linejoin="round" stroke-width="0.5"><title>2025-06-12 5.9km</title><desc>1749735885000</desc></polyline><polyline fill="none" points="188.875,210.74546588058 188.22946985450108,207.4953249219252 170.49142411636421,209.0716515606182 168.821465696441,204.50513672552188 168.625,198.80087218535482 171.93685031181667,198.65460630817688 174.7575363824726,198.8333756953798 174.91190228692722,198.31331873963063 174.6172037422075,198.19955605441646 168.70919958414743,198.00453411940543 168.83549896045588,204.3426248906908 169.3266632016166,206.19524998799898 170.2949584199232,208.50287570455112 178.15358627855312,207.82034199907503 178.3079521828913,208.43787262037222 188.18737006239826,207.47907405064325 188.79080041585257,210.69671425558045" stroke="#4DD2FF" stroke-linecap="round" stroke-linejoin="round" stroke-width="0.5"><title>2025-06-10 5.3km</title><desc>1749559786000</desc></polyline><polyline fill="none" points="11.6566954239388,226.17102234427875 11.170573893585242,224.20075637489208 11.125,222.67026639608957 24.903507126902696,222.3184277008404 25.526350337604526,224.62295811877993 25.070611402916256,224.60536640010832 24.933889722509775,224.9220170625049 25.222524381126277,226.55803623131942 25.14656789205037,227.66629847120203 25.647880720265675,229.8828016048792 26.939141035370994,229.8300280514959 28.853244561178144,237.20057811951847 28.88362715690164,237.53479608212365 28.397505626489874,237.67551924126747 28.838053263374604,237.55238648332306 28.989966241584625,237.8338326581288 28.594992498110514,237.904194130213 28.731714178575203,238.5550363870134 29.64319204806816,240.87694012426073 30.281226556689944,240.8065798637108 31.375,240.20851649156248 30.220461365417577,240.4547781310248 28.16963615908753,232.27518574800342 27.926575393939856,231.5715467947157 27.379688672255725,231.5715467947157 26.969523630978074,229.77725448194542 26.528975994035136,229.9531663176458 25.632689422462136,229.8300280514959 25.13137659424683,227.80702967502293 25.02503750944743,225.20348383035162 24.189516129088588,222.24805987575382 11.170573893585242,222.70545022617443 11.717460615211166,226.2765716722206" stroke="#4DD2FF" stroke-linecap="round" stroke-linejoin="round" stroke-width="0.5"><title>2025-06-08 5.0km</title><desc>1749355299000</desc></polyline><polyline fill="none" points="53.875,232.39578343305038 53.518844221078325,230.7292165669569 46.99174443644006,231.27632555934542 45.029253409884404,231.55408719908883 43.93898061738582,231.55408719908883 40.48645010768087,231.13323586519255 33.625,231.43624904178432 40.15936826990219,231.13323586519255 43.902638190978905,231.56250420388096 51.77440775305149,230.8554728099698" stroke="#4DD2FF" stroke-linecap="round" stroke-linejoin="round" stroke-width="0.5"><title>2025-06-07 5.3km</title><desc>1749293029000</desc></polyline><polyline fill="none" points="76.375,232.36470705861575 76.0760262873955,230.76029294139153 66.83700936261448,231.60472529695107 63.088899891939946,231.17406587100413 56.125,231.46117240370222 63.059731724875746,231.15717722044064 66.39219481457258,231.60472529695107 73.53110370904324,230.95451314526872" stroke="#4DD2FF" stroke-linecap="round" stroke-linejoin="round" stroke-width="0.5"><title>2025-06-05 5.1km</title><desc>1749128617000</desc></polyline><polyline fill="none" points="78.90846456692088,231.43432545103133 78.625,229.57762863938115 78.73129921255168,229.49556390150246 86.677165354311,229.21859491719079 88.17421259841649,234.70654198568081 96.02263779524947,234.6039662798721 98.875,234.42958734008425 96.52755905513186,234.51164805523877 96.09350393700879,228.4184580143119 88.58169291337254,228.85955991422088 86.96948818897363,228.8082690949377 87.11122047243407,229.21859491719079 82.94783464563079,229.34169233766443" stroke="#4DD2FF" stroke-linecap="round" stroke-linejoin="round" stroke-width="0.5"><title>2025-06-03 5.2km</title><desc>1748952979000</desc></polyline><polyline fill="none" points="117.87109290351509,225.52576970604787 117.4268752055068,224.86827900225398 117.11198671074817,224.17823198214683 116.90955839271192,223.98944423576904 116.40911060635699,223.9438746962296 116.02674600554747,223.50119747901408 115.85243273168453,222.92180648999056 115.59377432524343,222.52469277939235 115.28450883927871,221.4375 114.39045043449732,221.82160015996487 113.97434778069146,221.86717121224137 112.89473008428467,222.2707991143434 112.43364335980732,222.86321609764127 112.43364335980732,223.01294699357823 110.5668044264894,225.38906427487382 110.55555840881425,225.52576970604787 110.04386460481328,226.22882159254004 109.5996469068341,226.63893162315435 109.52092478313716,226.56732529942747 109.20603628834942,226.8407308313872 108.99798496143194,226.7170475212588 108.99236195263802,226.83422118945964 108.9642469084065,226.6649702664763 109.25664336787304,226.87327903115147 109.21165929720155,227.10762558028 108.53689823695458,227.8562268585265 107.3841814257321,228.11660785760614 107.3841814257321,227.99943653924493 107.30545930203516,228.1426458992064 106.99057080724742,228.21425045893557 106.71504337430815,228.13613638979587 106.2539566498308,228.17519343628737 106.17523452610476,228.10358883283334 105.98967523456668,228.20774095682646 105.43299735989422,228.0124555852126 105.3598982450203,227.1597024745497 105.1462239092798,226.9709235309856 104.09472125710454,227.23781773647352 103.70111063861987,227.47867252663127 104.15095134545118,229.42500632913652 104.85945045869448,231.59910180762017 106.35517080884892,237.44405796775027 106.56322213576641,238.04935141812894 108.3288469100371,241.6224186583022 108.55376726345276,241.6875 109.32974248274695,241.44019054940145 109.8583053132752,241.59638610309776 110.8254628329305,241.39463344109754 110.80859380640322,241.0106508107383 111.06725221281522,240.93906057396816 111.5339619461447,241.15383104403372 111.8882115027809,240.98461800664518 112.03440973249963,241.19938832379194 112.94533716380829,241.40114160139638 113.47952300318866,241.30351912716287 114.01933185136295,240.9000113201364 114.11492300155805,240.13854610719864 114.51977963771787,239.57883085572394 114.41294246981852,239.0191107077444 114.54227167303907,238.7457572279236 114.2667442400998,238.43986028241852 114.09243096623686,237.98426637565717 114.02495486018597,237.30737800895076 114.39045043449732,237.0144913996337 114.94712830916978,237.24229221165297 115.2563937951345,237.22276645953752 115.33511591880233,236.79970703390063 115.20578671561088,236.27901466933326 115.09894954771153,236.23345388579037 115.20578671561088,236.18138437916423 115.08208052124246,236.14233222137045 115.18329468023148,236.20091044911896 115.19454069793574,235.895001335095 115.04834246821702,235.55654699367005 114.3848274256452,235.51098569557507 114.07556193970959,235.27666993563253 114.20489114290103,234.39146931873984 114.73345397342928,233.48672955922302 115.13831060956,233.03760938601408 115.32386990112718,232.97251924420925 115.72310352846398,232.4192503643826 116.42597963285516,231.74881224946148 117.05013361357851,230.96771043648914 116.87019733083434,230.60319299238108 116.31351945616188,230.59668373343084 116.24042034128797,230.38187781626766 116.45409467702848,229.86764253814545 116.70150706576533,229.63330610323464 116.93205042803311,229.66585288165152 117.02764157822821,229.5486844018451 116.83083626901498,229.09953657381266 117.09511768425,228.5462341882194 117.34253007301595,228.40302573204463 117.55058139993344,228.48764894944907 117.52246635573101,228.3314213837184 118.14662033645436,228.0450031885557 118.202850424801,227.86924593366712 118.74828228182741,227.53725868975016 118.79888936135103,227.06205826299265 118.0847672392556,225.70153340240358 117.97230706253322,225.64945532051206" stroke="#4DD2FF" stroke-linecap="round" stroke-linejoin="round" stroke-width="0.5"><title>2025-06-02 11.5km</title><desc>1748829019000</desc></polyline><polyline fill="none" points="143.875,232.50947265942523 143.5040591174038,230.61552734058205 132.80578684431384,231.61131769217172 128.37135720229708,231.10366115939541 123.625,231.3086766214983 128.43037052452564,231.08413585440576 132.31681931723142,231.59179249066074 143.48719816817902,230.62529004136013 143.8665695254167,232.4508975921708" stroke="#4DD2FF" stroke-linecap="round" stroke-linejoin="round" stroke-width="0.5"><title>2025-06-01 4.9km</title><desc>1748740054000</desc></polyline><polyline fill="none" points="166.375,241.32087000586034 166.30167471332243,241.4765398310119 166.15502413996728,241.3633254300512 165.66618889552774,238.64615211385535 150.21899517200654,239.99059347316506 148.7891520820558,235.98553505225573 148.72804767650086,230.94720560885617 148.38586300541647,229.05070839668042 146.125,221.64846016900265 147.61594749544747,226.60220726074476 148.01923657214502,227.36648392787902 148.67916415206855,230.21125454295543 149.3390917320503,230.39524267517845 148.6547223898815,230.3810897506046 148.7891520820558,235.51850658452895 149.2535455642501,237.4290676570381 150.06012371752877,239.42451448741485 150.26787869643886,239.55188246042235 156.8915962582687,238.8725852543721 157.07490947493352,239.41036248322052 162.3421092334902,238.90088937098335" stroke="#4DD2FF" stroke-linecap="round" stroke-linejoin="round" stroke-width="0.5"><title>2025-05-31 5.5km</title><desc>1748696141000</desc></polyline><polyline fill="none" points="187.45487012987724,237.151009642781 186.99464285717113,234.1817196002812 170.33441558445338,235.673985562069 168.7959415584919,231.28850843562395 168.625,226.00444658684137 174.27922077919357,226.06535902754695 168.70389610395068,225.973990357219 168.80909090908244,231.2123705430713 169.21672077925177,232.8417129739537 170.24237012985395,235.18671668277238 184.99594155844534,233.77058248168032 186.31087662337814,233.6944458540238 186.37662337668007,234.2578559795802 188.875,234.0599013127212" stroke="#4DD2FF" stroke-linecap="round" stroke-linejoin="round" stroke-width="0.5"><title>2025-05-29 5.0km</title><desc>1748526381000</desc></polyline><polyline fill="none" points="23.400158478529193,256.7619679626514 22.950871632318012,253.08284220308997 30.556656101427507,252.71120920994144 31.375,255.70283330863458 30.492472266196273,252.78553586914495 22.9187797147315,253.13858708669432 23.127377179043833,254.97815868453472 22.838549920765217,253.15716871076438 12.023573692480568,254.16057359923434 13.644215530832298,262.2805174035457 14.270007923885714,264.1757382772048 13.85281299520284,264.43586509505985 14.51069730578456,266.18242126148834 13.62816957209725,263.8784500309848 11.445919175865129,254.19773663725937 15.232765451655723,253.65887184531312 22.08438985736575,253.23149518821447 22.004160063399468,252.6926275403821 11.943343898572493,253.38014805215062 11.381735340692103,251.3175787385262 11.125,251.54056032985682 11.253367670346051,253.52880079485476 18.84310618066229,252.78553586914495" stroke="#4DD2FF" stroke-linecap="round" stroke-linejoin="round" stroke-width="0.5"><title>2025-05-27 6.0km</title><desc>1748352132000</desc></polyline><polyline fill="none" points="51.176537585415645,260.2590301211894 51.25726082007168,260.2056143343798 50.9977932801703,258.91026817022794 44.17667995445663,259.564621495505 43.38674544420792,259.5779755769472 40.54413439639029,259.24412272424524 33.75185079727089,259.54459036824846 33.625,257.32777443843224 34.4322323462402,257.2409698788106 35.54505979499663,257.32109716870036 35.55082574032713,259.24412272424524 40.71134681094554,259.0371331011702 43.848021070618415,259.34427875869005 50.98626138953841,258.6365061663673 53.753915148059605,258.5363490498421 53.875,258.7566945040453 53.79427676537307,258.78340299359843 51.239962984080194,258.89023684286803" stroke="#4DD2FF" stroke-linecap="round" stroke-linejoin="round" stroke-width="0.5"><title>2025-05-25 7.6km</title><desc>1748179850000</desc></polyline><polyline fill="none" points="76.3617300131009,259.86794212245877 76.30865006553358,259.42999063708703 76.04988532108837,259.42999063708703 75.88401048490778,258.6078643114597 75.75131061597494,258.4234609139312 69.34854193971842,258.96898632500233 68.30021297509666,259.1610717976364 64.09362712973962,258.7692169142683 56.23779488861328,259.1226547422775 56.125,257.7857290200409 58.075688073411584,257.63205787753395 58.062418086483376,258.7538500146111 58.32118283092859,258.78458381081145 63.834862385323504,258.54639656242216 67.82912844035309,258.89215199890896 76.12287024903344,258.09307036529935 76.375,259.7834253672554" stroke="#4DD2FF" stroke-linecap="round" stroke-linejoin="round" stroke-width="0.5"><title>2025-05-24 6.6km</title><desc>1748094255000</desc></polyline><polyline fill="none" points="98.875,259.65227791183133 98.65471394039923,257.84772208816867 90.31647864627303,258.5563214956055 89.15793714745087,258.7547283590393 87.83622078970075,258.7736242286119 84.0260878324043,258.31067431441625 78.625,258.52797762328555 84.00161160354037,258.30122633291467 87.78726833197288,258.7830721619903 96.4273771152366,258.05557847575255" stroke="#4DD2FF" stroke-linecap="round" stroke-linejoin="round" stroke-width="0.5"><title>2025-05-18 4.7km</title><desc>1747565909000</desc></polyline><polyline fill="none" points="118.74302175777848,259.4750439311465 118.52272401947994,258.1793650913678 112.65005010020104,258.6761568819202 111.67030489552417,258.8507044593571 110.88187088462291,258.84399109953665 108.19771686228341,258.49489544653625 101.16558116232045,258.81713765347376 101.125,258.6157364588653 105.08456198111526,258.3606273950354 107.76871600342565,258.3136335123563 110.90506012024707,258.81713765347376 118.59808903522207,258.1323710793513 121.18948611506494,258.0249560688535 121.2938376753591,258.03838295475 121.31122960205539,258.1323710793513 121.375,258.0920904709492" stroke="#4DD2FF" stroke-linecap="round" stroke-linejoin="round" stroke-width="0.5"><title>2025-05-17 5.7km</title><desc>1747487200000</desc></polyline><polyline fill="none" points="142.76839848424424,257.91284343197185 140.0867072198016,258.05315035773674 138.77817112085177,258.2869947572981 132.76859792578034,258.74532805207855 129.0045372955501,258.2589334608201 123.625,258.47406984795816 128.93184084564564,258.2776409927683 132.6232050259132,258.7359743342313 143.34997008374194,257.8005977369321 143.7053749501647,259.6152196434123 143.875,259.69940226307517" stroke="#4DD2FF" stroke-linecap="round" stroke-linejoin="round" stroke-width="0.5"><title>2025-05-11 5.0km</title><desc>1746965499000</desc></polyline><polyline fill="none" points="166.375,259.4775495903741 166.0481527976517,258.0224504096186 156.8601147775771,258.8551403641177 153.12679340026807,258.4261799216911 146.125,258.720564779047 152.95247489237227,258.434590932171 156.43884505017195,258.8551403641177 166.10625896698912,258.0392725120546" stroke="#4DD2FF" stroke-linecap="round" stroke-linejoin="round" stroke-width="0.5"><title>2025-05-10 5.3km</title><desc>1746870058000</desc></polyline><polyline fill="none" points="188.83078602619935,258.40866293494037 188.77920305676525,258.2635936604129 188.875,258.3745290105944 188.48444323145668,258.4427968453383 179.45742358081043,259.2364063395871 175.63291484717047,258.78413518413436 168.625,259.0742716779714 175.59606986900326,258.78413518413436 177.38673580787145,258.92920355673414 179.015283842833,259.2278729441532 186.40638646288426,258.5622654222243" stroke="#4DD2FF" stroke-linecap="round" stroke-linejoin="round" stroke-width="0.5"><title>2025-05-05 5.4km</title><desc>1746434825000</desc></polyline></svg>