<?xml version="1.0" encoding="utf-8" ?>
<svg baseProfile="full" height="300mm" version="1.1" viewBox="0,0,200,300" width="200mm" xmlns="http://www.w3.org/2000/svg" xmlns:ev="http://www.w3.org/2001/xml-events" xmlns:xlink="http://www.w3.org/1999/xlink"><defs /><rect fill="#222222" height="300" width="200" x="0" y="0" /><text fill="#FFFFFF" style="font-size:12px; font-family:Arial; font-weight:bold;" x="10" y="20">Over 3km Runs</text><text fill="#FFFFFF" style="font-size:4px; font-family:Arial" x="10" y="280">Runner</text><text fill="#FFFFFF" style="font-size:9px; font-family:Arial" x="10" y="290">tang-hi</text><text fill="#FFFFFF" style="font-size:4px; font-family:Arial" x="65" y="280">SPECIAL TRACKS</text><rect fill="yellow" height="2.6" width="2.6" x="65" y="283" /><text fill="#FFFFFF" style="font-size:3px; font-family:Arial" x="70" y="285.5">Over 20.0 km</text><rect fill="red" height="2.6" width="2.6" x="65" y="287" /><text fill="#FFFFFF" style="font-size:3px; font-family:Arial" x="70" y="289.5">Over 40.0 km</text><text fill="#FFFFFF" style="font-size:4px; font-family:Arial" x="120" y="280">STATISTICS</text><text fill="#FFFFFF" style="font-size:3px; font-family:Arial" x="120" y="285">Number: 18</text><text fill="#FFFFFF" style="font-size:3px; font-family:Arial" x="120" y="290">Weekly: 3.0</text><text fill="#FFFFFF" style="font-size:3px; font-family:Arial" x="141" y="285">Total: 105.1 km</text><text fill="#FFFFFF" style="font-size:3px; font-family:Arial" x="141" y="290">Avg: 5.8 km</text><text fill="#FFFFFF" style="font-size:3px; font-family:Arial" x="167" y="285">Min: 4.7 km</text><text fill="#FFFFFF" style="font-size:3px; font-family:Arial" x="167" y="290">Max: 11.5 km</text><polyline fill="none" points="52.75,54.90469182335073 52.26308345119469,51.62105907330988 35.47878359263996,53.24629972655384 33.21605374821229,53.262883731222246 26.34193776518805,52.43368142907275 13.395685997151304,53.04729153915832 13.223833097610623,52.66585849963303 13.29543847241439,50.11189250240568 12.25,50.09530817663472 13.338401697285008,50.145061148912646 13.223833097610623,52.64927443412307 13.43864922208013,53.04729153915832 26.69996463926509,52.41709733994503 33.53111739747692,53.279467734188074 47.136138613917865,52.0522469511925 47.12181753886398,51.388880511934985 51.4897454031161,51.156701619314845" stroke="#4DD2FF" stroke-linecap="round" stroke-linejoin="round" stroke-width="0.5"><title>2025-06-12 5.9km</title><desc>1749735885000</desc></polyline><polyline fill="none" points="97.75,65.24093176116003 96.45893970900215,58.740649843850406 60.98284823272843,61.893303121236386 57.64293139288202,52.76027345104376 57.25,41.35174437070964 63.87370062363334,41.05921261635376 69.51507276494522,41.4167513907596 69.82380457385443,40.37663747926126 69.23440748441499,40.149112108832924 57.418399168294854,39.75906823881087 57.67099792091176,52.43524978138157 58.65332640323322,56.140499975997955 60.58991683984641,60.75575140910223 76.30717255710624,59.39068399815005 76.61590436578263,60.625745240744436 96.37474012479652,58.7081481012865 97.58160083170515,65.14342851116089" stroke="#4DD2FF" stroke-linecap="round" stroke-linejoin="round" stroke-width="0.5"><title>2025-06-10 5.3km</title><desc>1749559786000</desc></polyline><polyline fill="none" points="103.3133908478776,41.71704468855751 102.34114778717048,37.77651274978416 102.25,34.71553279217915 129.8070142538054,34.011855401680805 131.05270067520905,38.62091623755987 130.1412228058325,38.58573280021665 129.86777944501955,39.219034125009784 130.44504876225255,42.49107246263884 130.29313578410074,44.70759694240405 131.29576144053135,49.14060320975841 133.878282070742,49.0350561029918 137.7064891223563,63.776156239036936 137.76725431380328,64.4445921642473 136.79501125297975,64.72603848253493 137.6761065267492,64.47977296664612 137.97993248316925,65.04266531625763 137.18998499622103,65.183388260426 137.4634283571504,66.48507277402678 139.28638409613632,71.12888024852145 140.5624531133799,70.98815972742159 142.75,69.79203298312495 140.44092273083515,70.28455626204959 136.33927231817506,53.925371496006846 135.8531507878797,52.51809358943137 134.75937734451145,52.51809358943137 133.93904726195615,48.92950896389084 133.05795198807027,49.28133263529162 131.26537884492427,49.0350561029918 130.26275318849366,44.98905935004586 130.05007501889486,39.78196766070323 128.37903225817718,33.87111975150765 102.34114778717048,34.78590045234887 103.43492123042233,41.928143344441196" stroke="#4DD2FF" stroke-linecap="round" stroke-linejoin="round" stroke-width="0.5"><title>2025-06-08 5.0km</title><desc>1749355299000</desc></polyline><polyline fill="none" points="187.75,54.166566866100766 187.03768844215665,50.833433133913786 173.98348887288012,51.92765111869085 170.0585068197688,52.48317439817765 167.87796123477165,52.48317439817765 160.97290021536173,51.64147173038509 147.25,52.247498083568644 160.31873653980438,51.64147173038509 167.8052763819578,52.500008407761925 183.54881550610298,51.085945619939594" stroke="#4DD2FF" stroke-linecap="round" stroke-linejoin="round" stroke-width="0.5"><title>2025-06-07 5.3km</title><desc>1749293029000</desc></polyline><polyline fill="none" points="52.75,102.8544141172315 52.152052574791014,99.64558588278305 33.67401872522896,101.33445059390215 26.17779978387989,100.47313174200826 12.25,101.04734480740444 26.119463449751493,100.43935444088129 32.78438962914515,101.33445059390215 47.06220741808647,100.03402629053744" stroke="#4DD2FF" stroke-linecap="round" stroke-linejoin="round" stroke-width="0.5"><title>2025-06-05 5.1km</title><desc>1749128617000</desc></polyline><polyline fill="none" points="57.81692913384177,100.99365090206265 57.25,97.28025727876229 57.46259842510335,97.11612780300493 73.354330708622,96.56218983438157 76.34842519683298,107.53808397136163 92.04527559049893,107.33293255974422 97.75,106.98417468016851 93.05511811026372,107.14829611047753 92.18700787401758,94.96191602862382 77.16338582674507,95.84411982844176 73.93897637794726,95.74153818987543 74.22244094486814,96.56218983438157 65.89566929126158,96.80838467532885" stroke="#4DD2FF" stroke-linecap="round" stroke-linejoin="round" stroke-width="0.5"><title>2025-06-03 5.2km</title><desc>1748952979000</desc></polyline><polyline fill="none" points="135.74218580703018,89.17653941209574 134.8537504110136,87.86155800450797 134.22397342149634,86.48146396429365 133.81911678542383,86.10388847153808 132.81822121271398,86.01274939245923 132.05349201109493,85.12739495802816 131.70486546336906,83.96861297998112 131.18754865048686,83.1743855587847 130.56901767855743,81.0 128.78090086899465,81.76820031992975 127.94869556138292,81.85934242448275 125.78946016856935,82.66659822868678 124.86728671961464,83.85143219528254 124.86728671961464,84.15089398715645 121.1336088529788,88.90312854974763 121.1111168176285,89.17653941209574 120.08772920962656,90.58264318508009 119.19929381366819,91.4028632463087 119.04184956627432,91.25965059885493 118.41207257669885,91.80646166277438 117.99596992286388,91.55909504251758 117.98472390527604,91.79344237891928 117.92849381681299,91.4549405329526 118.51328673574608,91.87155806230294 118.4233185944031,92.34025116056 117.07379647390917,93.837453717053 114.76836285146419,94.35821571521228 114.76836285146419,94.12387307848985 114.61091860407032,94.4102917984128 113.98114161449485,94.55350091787113 113.4300867486163,94.39727277959173 112.5079132996616,94.47538687257475 112.35046905220952,94.33217766566668 111.97935046913335,94.54048191365291 110.86599471978843,94.14991117042518 110.71979649004061,92.44440494909941 110.2924478185596,92.0668470619712 108.18944251420908,92.60063547294703 107.40222127723973,93.08234505326254 108.30190269090235,96.97501265827304 109.71890091738896,101.32320361524035 112.71034161769785,113.01311593550054 113.12644427153282,114.22370283625787 116.6576938200742,121.36983731660439 117.10753452690551,121.5 118.6594849654939,121.0053810988029 119.71661062655039,121.31777220619551 121.650925665861,120.91426688219508 121.61718761280645,120.1463016214766 122.13450442563044,120.00312114793633 123.0679238922894,120.43266208806745 123.77642300556181,120.09423601329036 124.06881946499925,120.52377664758387 125.89067432761658,120.92728320279275 126.95904600637732,120.73203825432574 128.0386637027259,119.9250226402728 128.2298460031161,118.40209221439727 129.03955927543575,117.28266171144787 128.82588493963704,116.1632214154888 129.08454334607814,115.61651445584721 128.5334884801996,115.00472056483704 128.18486193247372,114.09353275131434 128.04990972037194,112.73975601790153 128.78090086899465,112.1539827992674 129.89425661833957,112.60958442330593 130.512787590269,112.57053291907505 130.67023183760466,111.72441406780126 130.41157343122177,110.68302933866653 130.19789909542305,110.59190777158074 130.41157343122177,110.48776875832846 130.16416104248492,110.4096644427409 130.36658936046297,110.52682089823793 130.38908139587147,109.91500267019 130.09668493643403,109.23809398734011 128.7696548512904,109.14697139115015 128.15112387941917,108.67833987126505 128.40978228580207,106.90793863747967 129.46690794685856,105.09845911844604 130.27662121912,104.20021877202817 130.64773980225436,104.0700384884185 131.44620705692796,102.96350072876521 132.85195926571032,101.62262449892296 134.10026722715702,100.06042087297828 133.7403946616687,99.33138598476216 132.62703891232377,99.31836746686167 132.48084068257594,98.88875563253532 132.90818935405696,97.8602850762909 133.40301413153065,97.39161220646929 133.86410085606622,97.45670576330303 134.05528315645643,97.22236880369019 133.66167253802996,96.32407314762531 134.1902353685,95.21746837643877 134.6850601460319,94.93105146408925 135.10116279986687,95.10029789889813 135.04493271146202,94.78784276743681 136.29324067290872,94.21500637711142 136.405700849602,93.86349186733423 137.49656456365483,93.19951737950032 137.59777872270206,92.2491165259853 136.1695344785112,89.52806680480717 135.94461412506644,89.42391064102412" stroke="#4DD2FF" stroke-linecap="round" stroke-linejoin="round" stroke-width="0.5"><title>2025-06-02 11.5km</title><desc>1748829019000</desc></polyline><polyline fill="none" points="187.75,103.14394531885046 187.00811823480763,99.3560546811641 165.6115736886277,101.34763538434345 156.74271440459415,100.33232231879083 147.25,100.74235324299661 156.86074104905128,100.29327170881152 164.63363863446284,101.30858498132147 186.97439633635804,99.37558008272026 187.73313905083342,103.02679518434161" stroke="#4DD2FF" stroke-linecap="round" stroke-linejoin="round" stroke-width="0.5"><title>2025-06-01 4.9km</title><desc>1748740054000</desc></polyline><polyline fill="none" points="52.75,169.51674001172069 52.603349426644854,169.8280796620238 52.31004827993456,169.60165086010238 51.33237779105548,164.1673042277107 20.437990344013087,166.85618694633013 17.578304164111614,158.84607010451145 17.45609535300173,148.76941121771233 16.771726010832936,144.97641679336084 12.25,130.1719203380053 15.231894990894943,140.07941452148953 16.038473144290037,141.60796785575803 17.358328304137103,147.29750908591086 18.678183464100584,147.6654853503569 17.309444779762998,147.63717950120918 17.578304164111614,157.9120131690579 18.50709112850018,161.7331353140762 20.120247435057536,165.7240289748297 20.535757392877713,165.9787649208447 33.78319251653738,164.6201705087442 34.14981894986704,165.69572496644105 44.68421846698038,164.6767787419667" stroke="#4DD2FF" stroke-linecap="round" stroke-linejoin="round" stroke-width="0.5"><title>2025-05-31 5.5km</title><desc>1748696141000</desc></polyline><polyline fill="none" points="94.90974025975447,161.17701928556198 93.98928571434226,155.23843920056242 60.66883116890676,158.22297112413798 57.59188311698381,149.4520168712479 57.25,138.88389317368274 68.55844155838713,139.0057180550939 57.407792207901366,138.82298071443802 57.618181818164885,149.2997410861426 58.433441558503546,152.55842594790738 60.484740259707905,157.24843336554477 89.99188311689068,154.41616496336064 92.62175324675627,154.2638917080476 92.75324675336014,155.3907119591604 97.75,154.9948026254424" stroke="#4DD2FF" stroke-linecap="round" stroke-linejoin="round" stroke-width="0.5"><title>2025-05-29 5.0km</title><desc>1748526381000</desc></polyline><polyline fill="none" points="126.80031695705839,146.0239359253028 125.90174326463602,138.66568440617993 141.113312202855,137.9224184198829 142.75,143.90566661726916 140.98494453239255,138.0710717382899 125.837559429463,138.77717417338863 126.25475435808767,142.45631736906944 125.67709984153043,138.81433742152876 104.04714738496114,140.82114719846868 107.2884310616646,157.06103480709135 108.54001584777143,160.8514765544096 107.70562599040568,161.3717301901197 109.02139461156912,164.8648425229767 107.2563391441945,160.25690006196965 102.89183835173026,140.89547327451874 110.46553090331145,139.81774369062623 124.1687797147315,138.96299037642893 124.00832012679894,137.88525508076418 103.88668779714499,139.26029610430123 102.7634706813842,135.13515747705242 102.25,135.58112065971363 102.5067353406921,139.55760158970952 117.68621236132458,138.0710717382899" stroke="#4DD2FF" stroke-linecap="round" stroke-linejoin="round" stroke-width="0.5"><title>2025-05-27 6.0km</title><desc>1748352132000</desc></polyline><polyline fill="none" points="182.3530751708313,153.01806024237885 182.51452164014336,152.91122866875958 181.9955865603406,150.32053634045587 168.35335990891326,151.62924299100996 166.77349088841584,151.65595115389442 161.08826879278058,150.9882454484905 147.50370159454178,151.58918073649693 147.25,147.1555488768645 148.8644646924804,146.98193975762115 151.09011958999326,147.14219433740072 151.10165148065425,150.9882454484905 161.42269362189109,150.57426620234037 167.69604214123683,151.1885575173801 181.97252277907683,149.77301233273465 187.5078302961192,149.5726980996842 187.75,150.0133890080906 187.58855353074614,150.06680598719686 182.4799259681604,150.28047368573607" stroke="#4DD2FF" stroke-linecap="round" stroke-linejoin="round" stroke-width="0.5"><title>2025-05-25 7.6km</title><desc>1748179850000</desc></polyline><polyline fill="none" points="52.72346002620179,200.98588424491754 52.61730013106717,200.10998127417406 52.099770642176736,200.10998127417406 51.76802096981555,198.4657286229194 51.50262123194989,198.0969218278624 38.69708387943683,199.18797265000467 36.60042595019331,199.5721435952728 28.187254259479232,198.78843382853665 12.47558977722656,199.49530948455504 12.25,196.82145804008178 16.151376146823168,196.5141157550679 16.124836172966752,198.75770002922218 16.642365661857184,198.8191676216229 27.669724770647008,198.34279312484432 35.658256880706176,199.03430399781791 52.24574049806688,197.4361407305987 52.75,200.8168507345108" stroke="#4DD2FF" stroke-linecap="round" stroke-linejoin="round" stroke-width="0.5"><title>2025-05-24 6.6km</title><desc>1748094255000</desc></polyline><polyline fill="none" points="97.75,200.55455582366267 97.30942788079847,196.94544417633733 80.63295729254605,198.36264299121103 78.31587429490173,198.75945671807858 75.6724415794015,198.79724845722376 68.0521756648086,197.8713486288325 57.25,198.3059552465711 68.00322320708074,197.85245266582933 75.57453666394576,198.81614432398055 92.85475423047319,197.3611569515051" stroke="#4DD2FF" stroke-linecap="round" stroke-linejoin="round" stroke-width="0.5"><title>2025-05-18 4.7km</title><desc>1747565909000</desc></polyline><polyline fill="none" points="137.48604351555696,200.200087862293 137.04544803895988,197.6087301827356 125.30010020040208,198.60231376384036 123.34060979104834,198.95140891871415 121.76374176924583,198.9379821990733 116.39543372456683,198.2397908930725 102.3311623246409,198.88427530694753 102.25,198.48147291773057 110.16912396223051,197.97125479007082 115.5374320068513,197.87726702471264 121.81012024049414,198.88427530694753 137.19617807044415,197.51474215870257 142.37897223012988,197.299912137707 142.5876753507182,197.32676590949995 142.62245920411078,197.51474215870257 142.75,197.43418094189838" stroke="#4DD2FF" stroke-linecap="round" stroke-linejoin="round" stroke-width="0.5"><title>2025-05-17 5.7km</title><desc>1747487200000</desc></polyline><polyline fill="none" points="185.5367969684885,197.0756868639437 180.17341443960322,197.35630071547348 177.55634224170353,197.82398951459618 165.53719585156068,198.7406561041571 158.00907459110022,197.76786692164023 147.25,198.19813969591632 157.86368169129128,197.80528198553657 165.2464100518264,198.72194866846257 186.69994016748387,196.8511954738642 187.4107499003294,200.48043928682455 187.75,200.64880452615034" stroke="#4DD2FF" stroke-linecap="round" stroke-linejoin="round" stroke-width="0.5"><title>2025-05-11 5.0km</title><desc>1746965499000</desc></polyline><polyline fill="none" points="52.75,248.95509918074822 52.09630559530342,246.04490081923723 33.72022955515422,247.71028072823538 26.25358680053614,246.85235984338215 12.25,247.44112955809396 25.90494978474453,246.86918186434195 32.8776901003439,247.71028072823538 52.21251793397823,246.0785450241092" stroke="#4DD2FF" stroke-linecap="round" stroke-linejoin="round" stroke-width="0.5"><title>2025-05-10 5.3km</title><desc>1746870058000</desc></polyline><polyline fill="none" points="97.6615720523987,246.81732586988073 97.55840611353051,246.52718732082576 97.75,246.74905802118883 96.96888646291336,246.88559369067661 78.91484716162086,248.47281267917424 71.26582969434094,247.5682703682687 57.25,248.14854335594282 71.19213973800652,247.5682703682687 74.77347161574289,247.85840711346827 78.03056768566603,248.4557458883064 92.81277292576851,247.1245308444486" stroke="#4DD2FF" stroke-linecap="round" stroke-linejoin="round" stroke-width="0.5"><title>2025-05-05 5.4km</title><desc>1746434825000</desc></polyline></svg>