<?xml version="1.0" encoding="utf-8" ?>
<svg baseProfile="full" height="300mm" version="1.1" viewBox="0,0,200,300" width="200mm" xmlns="http://www.w3.org/2000/svg" xmlns:ev="http://www.w3.org/2001/xml-events" xmlns:xlink="http://www.w3.org/1999/xlink"><defs /><rect fill="#222222" height="300" width="200" x="0" y="0" /><text fill="#FFFFFF" style="font-size:12px; font-family:Arial; font-weight:bold;" x="10" y="20">Over 3km Runs</text><text fill="#FFFFFF" style="font-size:4px; font-family:Arial" x="10" y="280">Runner</text><text fill="#FFFFFF" style="font-size:9px; font-family:Arial" x="10" y="290">tang-hi</text><text fill="#FFFFFF" style="font-size:4px; font-family:Arial" x="65" y="280">SPECIAL TRACKS</text><rect fill="yellow" height="2.6" width="2.6" x="65" y="283" /><text fill="#FFFFFF" style="font-size:3px; font-family:Arial" x="70" y="285.5">Over 20.0 km</text><rect fill="red" height="2.6" width="2.6" x="65" y="287" /><text fill="#FFFFFF" style="font-size:3px; font-family:Arial" x="70" y="289.5">Over 40.0 km</text><text fill="#FFFFFF" style="font-size:4px; font-family:Arial" x="120" y="280">STATISTICS</text><text fill="#FFFFFF" style="font-size:3px; font-family:Arial" x="120" y="285">Number: 33</text><text fill="#FFFFFF" style="font-size:3px; font-family:Arial" x="120" y="290">Weekly: 3.3</text><text fill="#FFFFFF" style="font-size:3px; font-family:Arial" x="141" y="285">Total: 180.5 km</text><text fill="#FFFFFF" style="font-size:3px; font-family:Arial" x="141" y="290">Avg: 5.5 km</text><text fill="#FFFFFF" style="font-size:3px; font-family:Arial" x="167" y="285">Min: 3.2 km</text><text fill="#FFFFFF" style="font-size:3px; font-family:Arial" x="167" y="290">Max: 11.5 km</text><polyline fill="none" points="22.815484509337693,31.714285714289872 22.88775795616675,33.637765878869686 23.411740446230397,33.36597085955145 24.531978873419575,33.742302329148515 25.742559108999558,33.637765878869686 27.097686238586903,34.13954035589995 34.09014222677797,35.059457052484504 34.2888942057034,35.331249834867776 32.68081001203973,45.596391333354404 31.90387045778334,45.65910956503649 31.75932356400881,45.93088834801165 31.488298138137907,47.74970634962665 31.687050117063336,48.54412755955127 30.458401519688778,55.46382473243284 21.460357379866764,55.1920585376065 21.15319523040671,54.98300737440877 19.996820079977624,62.57142857143481 21.207400315557607,55.10843809781363 24.71266249055043,55.17115343079786 25.88710600277409,54.71124054475513 26.049721258343197,55.1920585376065 30.512606604839675,55.338394225604134 33.62036482186522,35.87483432266163 33.53002301324159,35.16399278055178 24.22481672395952,33.53322937543271" stroke="#4DD2FF" stroke-linecap="round" stroke-linejoin="round" stroke-width="0.5"><title>2025-07-08 5.1km</title><desc>1751976330000</desc></polyline><polyline fill="none" points="48.41769632208161,62.29046174528776 48.35147462261375,62.57142857143481 48.77087871986441,62.39263153655338 48.90332211891655,60.962250679251156 49.6759086138336,60.32368516847782 49.830425912863575,59.65957531644381 52.059889797936194,44.20575442715199 52.258554896572605,39.53110571116849 51.72878130024765,36.082538627422764 52.942845792043954,36.03144838892331 53.25188038998749,36.49126016125956 57.51214306172915,37.104341215555905 60.933597539085895,37.05325118487235 63.4279482223792,38.04950491068303 71.37455216934904,39.22456833117758 72.83142955985386,31.714285714289872 78.79138252022676,33.04265136012691 73.47157265548594,31.79092238478188 72.47824716218747,36.21026417812391 72.3237298631575,39.275657920501544 57.44592136214487,37.28315624137758 53.25188038998749,36.51680523509276 52.876624092576094,35.95481301168911 51.66255960066337,36.159173965628725 52.148185397381894,38.20277436406468 52.236480996827595,42.62200339937408 49.74213031330146,59.73620346590178" stroke="#4DD2FF" stroke-linecap="round" stroke-linejoin="round" stroke-width="0.5"><title>2025-07-06 5.0km</title><desc>1751807521000</desc></polyline><polyline fill="none" points="89.26811586227268,60.65877952455776 90.60504367109388,51.15159256051993 86.27825912623666,50.842181580897886 84.9170235391939,51.320362040016335 86.69149135809857,51.15159256051993 86.44841357471887,50.870309866033494 90.9210447894875,51.12346430396428 91.23704590799753,50.842181580897886 91.0911992379697,49.97020332279499 92.9142826134339,38.46545874644653 92.7441281650681,32.72697216895176 95.87983157113194,32.41754058984225 115.0829764608061,35.568100494507235 115.05866868246812,34.639814249880146 93.93520930374507,31.714285714289872 94.27551820059307,38.66236548798042 92.06351037148852,54.30193920910824 92.6712048300542,55.25828734706738 92.11212592816446,56.299015389813576 92.23366481985431,58.54922480817186 91.38289257790893,58.74611726196599 90.99396812450141,62.571428571420256 89.02503807889298,62.34641172247939 89.14657697058283,60.68690681215958" stroke="#4DD2FF" stroke-linecap="round" stroke-linejoin="round" stroke-width="0.5"><title>2025-07-05 4.8km</title><desc>1751729502000</desc></polyline><polyline fill="none" points="141.39504513092106,62.57142857143481 141.7004270090838,62.348249111906625 141.74864520027768,61.08356036739133 142.16653619142016,59.242306719432236 142.39155441743787,59.16791224334156 142.68086356518324,56.47109206680034 136.3964259676868,56.210707325386466 136.79824422847014,54.81578275941138 137.39293525420362,48.52919077787374 137.4572261759895,43.93500620649138 137.23220794997178,43.321199532729224 137.47329890634865,39.563913801684976 137.4572261759895,31.714285714289872 129.01904270111118,34.74629098632431 128.84224266640376,35.17411590561096 128.90653358818963,34.802094293394475 133.45511629933026,33.07218385893793 133.53547995147528,36.90400646509079 133.9855164034525,37.87124997084902 137.34471706295153,37.87124997084902 137.3607897934271,42.781791968111065 137.71438986278372,42.94919448591827 137.84297170618083,43.54440219780372 143.72559104295215,43.91640603452106 144.01490019069752,45.38581379572861 143.98275472980458,48.06419758599077 141.95759069593623,61.88329103049182" stroke="#4DD2FF" stroke-linecap="round" stroke-linejoin="round" stroke-width="0.5"><title>2025-07-03 5.2km</title><desc>1751545471000</desc></polyline><polyline fill="none" points="172.31641497678356,62.57142857143481 173.04940165905282,58.05245331162587 173.34980603697477,57.84388161955576 174.1188412446645,52.14279891089245 174.1789221201907,50.1682221913361 172.86915903224144,39.68302040475828 172.23230175097706,38.36188358615618 172.3644796772278,38.1810954498651 172.90520755760372,38.27844293754606 172.6528678800678,35.580501198768616 172.06407529930584,34.82951825557393 172.0760914743878,33.11893060078728 171.51133124384796,31.714285714289872 172.12415617489023,33.244096276699565 172.06407529930584,34.85733251221245 172.60480317962356,35.385802313205204 172.68891640543006,35.81692090148863 172.90520755760372,38.26453615783248 172.31641497678356,38.222815810207976 172.23230175097706,38.4036038913473 172.8811752073816,39.68302040475828 173.50601631356403,45.634931188222254 174.2029544704128,50.126505474356236 173.99867949343752,53.24131869114353 172.6769002303481,62.098681226416375" stroke="#4DD2FF" stroke-linecap="round" stroke-linejoin="round" stroke-width="0.5"><title>2025-07-01 5.0km</title><desc>1751376396000</desc></polyline><polyline fill="none" points="26.058451409975532,96.85714285714494 26.28127450577449,96.5821179812192 26.236709886637982,95.56795988699014 26.593226839904673,95.22417610227421 26.845759681775235,93.8834126660222 27.231986381171737,89.15627730241977 27.76676181104267,87.31695620367827 28.360956733173225,82.48649433509854 28.212408002640586,79.71880098630209 27.380535111646168,74.7849744103296 26.81604993570363,68.80230168816342 25.9247575525078,66.58453302017006 26.712065824249294,66.7392620108003 26.741775570379104,66.0 26.741775570379104,66.70487780285475 26.058451409975532,66.56734090136888 25.939612425572705,66.7392620108003 26.50409760157345,67.58167291987047 26.845759681775235,68.76791789982235 27.4696643500356,75.43824194642366 28.360956733173225,81.36910806238302 28.286682367906906,84.13677440361062 26.414968363242224,96.27271446143277" stroke="#4DD2FF" stroke-linecap="round" stroke-linejoin="round" stroke-width="0.5"><title>2025-06-30 4.1km</title><desc>1751292736000</desc></polyline><polyline fill="none" points="48.48929815826705,83.33074678927369 48.14285714284051,80.82681126905663 48.26231956196716,80.5639645299816 57.556495769065805,80.12127413472626 59.03782976599177,80.25961503836152 61.450970632140525,80.02443541833782 65.07068193127634,80.06593773383065 79.0,79.18055225076387 74.84270781482337,79.47106999901007 73.8750622200314,79.78925539077318 72.08312593330629,79.70625057785946 63.01592832256574,80.17661051312461 54.581881533085834,80.32878543727566 54.331010452937335,80.55013047701505 54.91637630655896,83.67659060636652 54.641612742620055,83.64892313344171 54.30711796908872,82.01653224813344" stroke="#4DD2FF" stroke-linecap="round" stroke-linejoin="round" stroke-width="0.5"><title>2025-06-26 5.0km</title><desc>1750950176000</desc></polyline><polyline fill="none" points="115.42857142857974,82.69146995181654 114.93033984320937,80.16567290532839 101.65523604489863,81.38370319281239 100.23804397974163,81.39652450152062 95.12286636937642,80.7554574646274 84.57142857142026,81.2042047334835 94.76856835308718,80.74263609055197 100.2491157927434,81.40934580896283 109.69337228976656,80.55031532281282" stroke="#4DD2FF" stroke-linecap="round" stroke-linejoin="round" stroke-width="0.5"><title>2025-06-24 5.0km</title><desc>1750769966000</desc></polyline><polyline fill="none" points="151.8571428571595,82.66429502900428 151.43474680936197,80.19284782813338 138.29600658704294,81.441449594 136.69534787978046,81.49293806161586 131.51543845201377,80.82358634550474 121.0,81.28698406525655 131.23754631530028,80.82358634550474 136.68423219426768,81.49293806161586 147.81103334703948,80.50178137309558" stroke="#4DD2FF" stroke-linecap="round" stroke-linejoin="round" stroke-width="0.5"><title>2025-06-22 5.0km</title><desc>1750563938000</desc></polyline><polyline fill="none" points="173.9116464103281,96.85714285714494 172.31684951717034,87.32931245357759 172.29449255138752,84.73141177392245 172.43608666805085,83.64389479084639 172.34665880489047,80.8473583819723 172.3764680926106,80.36399704389623 172.54041917505674,80.0877893255165 172.3764680926106,79.95831664717844 172.36901577064418,78.18883685732726 170.55810154153733,67.29493148020265 170.1035099037399,66.0 170.56555386344553,67.13090792249568 172.34665880489047,78.00757098471513 172.44353898998816,83.30727955941984 172.31684951717034,84.74004280519148 172.30939719523303,87.24300474132178 173.53157799187466,94.56158611364663 173.7029813962581,95.06212634821713 175.61077581052086,94.95856654246018" stroke="#4DD2FF" stroke-linecap="round" stroke-linejoin="round" stroke-width="0.5"><title>2025-06-21 8.0km</title><desc>1750517001000</desc></polyline><polyline fill="none" points="30.27340339042712,131.14285714285506 27.659549242001958,115.06950040458469 23.059976438176818,114.97563809114217 14.772640417329967,114.1778068816784 14.934739899355918,113.3330414104712 14.6105409351876,111.713898924776 15.056314510875382,101.13052764580061 14.995527205057442,100.37958258998697 14.590278499876149,100.28571428571013 14.083717618370429,113.30957565872814 14.853690158342943,113.4034386514686 14.894215028733015,114.20127254501858 27.720336547819898,115.04603482985112 29.28054406272713,125.08908225844789 29.7668425089214,126.42655785115494 40.201996667310596,126.09805579390377" stroke="#4DD2FF" stroke-linecap="round" stroke-linejoin="round" stroke-width="0.5"><title>2025-06-19 5.0km</title><desc>1750345525000</desc></polyline><polyline fill="none" points="79.0,116.48677503153885 78.71677018638002,114.8036993657588 69.9813664596586,115.6322946429791 68.85590062109986,115.65818811472127 65.11428571428405,115.22662921815208 51.25093167700106,115.85670446869335 50.050931677018525,116.05522035729518 48.142857142869616,116.62487206281367 50.8335403726669,115.89986013623275 55.70807453416637,115.68408157859812" stroke="#4DD2FF" stroke-linecap="round" stroke-linejoin="round" stroke-width="0.5"><title>2025-06-17 5.1km</title><desc>1750166247000</desc></polyline><polyline fill="none" points="85.63546798017342,127.35861535501317 84.57142857147846,120.52006818476366 108.61871921177953,119.81156120880041 104.708374384325,104.378018834861 109.4433497536229,104.65527505162754 115.42857142852154,104.06995607359568 105.98522167489864,104.62446881787037 109.46995073894504,118.51776157561108 99.1487684729509,119.010638279462" stroke="#4DD2FF" stroke-linecap="round" stroke-linejoin="round" stroke-width="0.5"><title>2025-06-16 3.2km</title><desc>1750084948000</desc></polyline><polyline fill="none" points="151.8571428571595,117.14072315492376 151.38433179730782,114.28784827364143 136.21705069125164,115.68547598959412 134.8483870968339,115.69988445081981 128.85115207376657,114.9650510574138 121.0,115.3396724803315 128.60230414749822,114.95064252130396 134.83594470052049,115.6710675269569 147.7013824885944,114.59042864176445" stroke="#4DD2FF" stroke-linecap="round" stroke-linejoin="round" stroke-width="0.5"><title>2025-06-15 4.6km</title><desc>1749956754000</desc></polyline><polyline fill="none" points="188.28571428568102,116.95528066457337 187.91008132573916,114.4732907639991 174.69663955812575,115.68870432119002 173.3156360288267,115.71429184855515 167.5043731778278,115.06180827179196 157.42857142857974,115.52238526629662 167.7032376860152,115.06180827179196 173.22725180297857,115.71429184855515 176.1107871720451,115.57356038358557 176.65214055543765,115.39444738179009 183.65659045573557,114.76754986277956" stroke="#4DD2FF" stroke-linecap="round" stroke-linejoin="round" stroke-width="0.5"><title>2025-06-14 5.1km</title><desc>1749906363000</desc></polyline><polyline fill="none" points="42.57142857136205,151.83214615112956 42.20044453418814,149.33033072252874 29.412406546704005,150.56860931548 27.68842190335272,150.5812447476128 22.451000202039722,149.9494715650144 12.587189331126865,150.41698402984184 12.456253788608592,150.12636838067556 12.510810264677275,148.18048952565732 11.714285714260768,148.16785384887044 12.543544150306843,148.20576087537484 12.456253788608592,150.11373290220217 12.619923216756433,150.41698402984184 22.723782582266722,149.936836068533 27.928470398008358,150.59388017844321 38.29420084867161,149.6588548199652 38.28328955342295,149.15343277100328 41.6112345927977,148.97653456710395" stroke="#4DD2FF" stroke-linecap="round" stroke-linejoin="round" stroke-width="0.5"><title>2025-06-12 5.9km</title><desc>1749735885000</desc></polyline><polyline fill="none" points="79.0,159.70737657994323 78.01633501634933,154.75478083342023 50.98693198687397,157.1568023781001 48.442233442212455,150.19830358175386 48.14285714284051,141.50609094914398 53.18948618939612,141.2832096124912 57.48767448752187,141.55562010726135 57.7228987228591,140.7631523651653 57.273834273801185,140.5897997019929 48.27116127102636,140.29262342007132 48.46361746347975,149.95066650010995 49.21205821190961,152.77371426744503 50.68755568750203,156.29009631172812 62.66260766249616,155.25004495098256 62.89783189771697,156.19104399297794 77.9521829521982,154.73001760100306 78.87169587169774,159.63308838946978" stroke="#4DD2FF" stroke-linecap="round" stroke-linejoin="round" stroke-width="0.5"><title>2025-06-10 5.3km</title><desc>1749559786000</desc></polyline><polyline fill="none" points="85.38163112220354,141.7844150007877 84.64087450446095,138.78210495220264 84.57142857147846,136.44992974642082 105.56724895525258,135.91379459176096 106.5163433715934,139.42545999051072 105.8218840425834,139.39865356206428 105.61354624386877,139.88116885712952 106.05337048554793,142.37415044772206 105.93762726406567,144.0629310037184 106.70153252605814,147.44045958836796 108.66916729195509,147.36004274513107 111.58589647419285,158.59135713448632 111.63219376292545,159.10064164892538 110.89143714506645,159.31507693906315 111.56274782994296,159.1274460698187 111.79423427290749,159.55631643140805 111.19236952101346,159.66353391268058 111.4007073197281,160.65529354210594 112.7896259779809,164.1934325702896 113.76186903880443,164.08621693518944 115.42857142863795,163.17488227284048 113.66927446157206,163.55013810438686 110.54420748050325,151.08599733028677 110.17382917169016,150.01378559193108 109.34047797671519,150.01378559193108 108.71546458057128,147.27962587724323 108.04415389569476,147.54768200783292 106.67838388180826,147.36004274513107 105.91447861981578,144.27737855241867 105.75243810971733,140.3100705986144 104.47926267294679,135.8065674297104 84.64087450446095,136.50354320177576 85.47422569943592,141.94525207194965" stroke="#4DD2FF" stroke-linecap="round" stroke-linejoin="round" stroke-width="0.5"><title>2025-06-08 5.0km</title><desc>1749355299000</desc></polyline><polyline fill="none" points="151.85714285710128,151.26976523131452 151.3144292892539,148.73023476869275 141.36837247456424,149.56392466185935 138.37790995789692,149.98718049385207 136.71654189313995,149.98718049385207 131.4555430212058,149.34588322314812 121.0,149.80761758748122 130.95713260176126,149.34588322314812 136.6611629576655,150.00000640591315 148.65624038560782,148.92262523424142" stroke="#4DD2FF" stroke-linecap="round" stroke-linejoin="round" stroke-width="0.5"><title>2025-06-07 5.3km</title><desc>1749293029000</desc></polyline><polyline fill="none" points="188.28571428568102,151.2224107559814 187.83013529505115,148.77758924401132 173.7516333144158,150.06434330963384 168.04022840678226,149.40810037485062 157.42857142857974,149.8455960437277 167.99578167597065,149.38236528828565 173.07382066978607,150.06434330963384 183.95215803280007,149.07354384040082" stroke="#4DD2FF" stroke-linecap="round" stroke-linejoin="round" stroke-width="0.5"><title>2025-06-05 5.1km</title><desc>1749128617000</desc></polyline><polyline fill="none" points="12.146231720980722,184.09040068730246 11.714285714260768,181.26114840288938 11.876265466795303,181.1360973737319 23.984251968504395,180.71404939763306 26.26546681660693,189.07663540676003 38.22497187851695,188.92032956934418 42.571428571420256,188.65460928012908 38.99437570309965,188.77965417942323 38.332958380226046,179.49479316467477 26.88638920133235,180.16694844073209 24.429696287959814,180.08879100182094 24.64566929131979,180.71404939763306 18.30146231717663,180.9016264193051" stroke="#4DD2FF" stroke-linecap="round" stroke-linejoin="round" stroke-width="0.5"><title>2025-06-03 5.2km</title><desc>1748952979000</desc></polyline><polyline fill="none" points="73.66071299582836,175.0868871711209 72.98380983699462,174.08499657485663 72.50397974971565,173.03349635374616 72.19551755077555,172.7458197878368 71.43293044777238,172.67638048949448 70.85027962751337,172.0018247299231 70.58465940065798,171.11894322284206 70.19051325751934,170.51381756859337 69.71925156464567,168.85714285714494 68.35687685254379,169.44243833899236 67.72281566579477,169.51187994245993 66.07768393796869,170.12693198375928 65.37507559588994,171.02966262497648 65.37507559588994,171.2578239902141 62.530368649895536,174.8785741331376 62.51323186105583,175.0868871711209 61.733507969242055,176.15820433148474 61.05660481040832,176.783133901954 60.936647288588574,176.6740195038874 60.4568172012805,177.0906374573533 60.13978660790599,176.9021676514385 60.13121821352979,177.08071800298785 60.08837624138687,176.82281183463056 60.53393275104463,177.14023471413384 60.465385595714906,177.49733421756537 59.43717826582724,178.63805997489544 57.68065741061582,179.03483102111204 57.68065741061582,178.8562842502797 57.560699888825184,179.0745080368797 57.08086980151711,179.18361974694562 56.66101847513346,179.0645887844439 55.95841013308382,179.12410428386647 55.83845261123497,179.0149925071746 55.55569559553987,179.17370050564205 54.707424548396375,178.87612279650784 54.59603542095283,177.57668948502396 54.27043643317302,177.28902633293183 52.66814667748986,177.69572226509626 52.068359068391146,178.06273908820003 52.753830621630186,181.02858107296925 53.833448317978764,184.34148846875178 56.11264123255387,193.24808833180577 56.42967182592838,194.17044025619543 59.12014767245273,199.6151141459777 59.46288344907225,199.7142857142826 60.645321878488176,199.3374332181338 61.45075095354696,199.57544549043087 62.92451479303418,199.26801286262344 62.89880960973096,198.6828964735032 63.2929557528696,198.5738065889018 64.00413248938276,198.90107587661623 64.54394133758615,198.64322743869707 64.76671959238593,198.9704964933917 66.15479948773282,199.27793005927379 66.968796957226,199.12917200328957 67.7913628211245,198.51430296401668 67.93702552618925,197.35397502048727 68.55394992412766,196.50107558967284 68.3911504302232,195.6481686975094 68.58822350177797,195.2316300616003 68.16837217539432,194.7655013827316 67.90275194856804,194.07126304862322 67.7999312155298,193.03981410887354 68.35687685254379,192.59351070420234 69.20514789968729,192.94063575108885 69.67640959256096,192.9108822240596 69.7963671143807,192.2662202421343 69.59929404282593,191.47278425803233 69.43649454892147,191.4033583021519 69.59929404282593,191.3240142920622 69.41078936570557,191.2645062420852 69.56502046511741,191.35376830341556 69.58215725401533,190.88762108204537 69.35937899918645,190.37188113321463 68.34830845810939,190.30245439325518 67.87704676526482,189.94540180667536 68.07411983679049,188.5965246761698 68.87954891190748,187.21787361405586 69.49647330981679,186.53350001678336 69.779230325541,186.434315038794 70.38758632907411,185.59123865048605 71.45863563101739,184.56961866584606 72.40972741117002,183.3793682841715 72.13553878985113,182.8239131312439 71.28726774270763,182.81399426046846 71.17587861532229,182.48667095811834 71.5014776031021,181.7030743438445 71.87848695737193,181.34599025254283 72.22979112845496,181.39558534346725 72.3754538334615,181.2170428980462 72.07556002898491,180.5326271600934 72.47827456647065,179.6894997153795 72.85528392079868,179.47127730597276 73.1723145141732,179.60022697058594 73.12947254208848,179.3621659180426 74.08056432221201,178.92571914446307 74.16624826638144,178.65789856558695 74.99738252468524,178.15201324151712 75.07449807444937,177.42789830551192 73.98631198360818,175.35471756556217 73.81494409529842,175.2753604883983" stroke="#4DD2FF" stroke-linecap="round" stroke-linejoin="round" stroke-width="0.5"><title>2025-06-02 11.5km</title><desc>1748829019000</desc></polyline><polyline fill="none" points="115.42857142852154,185.72872024292883 114.86332817887887,182.84270832849143 98.56119900080375,184.3601031499711 91.80397287965752,183.586531290508 84.57142857142026,183.89893580417265 91.89389794209274,183.55677844479214 97.81610562623246,184.33035046195437 114.83763530384749,182.85758482491656 115.41572499106405,185.6394629975839" stroke="#4DD2FF" stroke-linecap="round" stroke-linejoin="round" stroke-width="0.5"><title>2025-06-01 4.9km</title><desc>1748740054000</desc></polyline><polyline fill="none" points="151.85714285704307,199.15561143748346 151.7454090869287,199.39282259962056 151.52194154658355,199.2203054171987 150.77704974554945,195.0798508401349 127.23846883350052,197.12852338765515 125.05966031551361,191.02557722246274 124.9665488403989,183.3481228325254 124.44512457959354,180.45822231871716 121.0,169.1786059717997 123.2719199929852,176.72717296871997 123.88645572890528,177.89178503293078 124.89205966028385,182.22667358923354 125.89766359166242,182.50703645737667 124.85481507016812,182.48547009614413 125.05966031551361,190.31391479544982 125.76730752643198,193.22524595355208 126.9963789981557,196.2659268379357 127.31295801349916,196.46001136823907 137.4062419172842,195.42489181614656 137.68557634262834,196.24436187917308 145.71178549865726,195.46802189861774" stroke="#4DD2FF" stroke-linecap="round" stroke-linejoin="round" stroke-width="0.5"><title>2025-05-31 5.5km</title><desc>1748696141000</desc></polyline><polyline fill="none" points="186.12170686456375,192.80153850329225 185.4204081632197,188.27690605758107 160.03339517617133,190.5508351421886 157.68905380333308,183.86820333047945 157.42857142852154,175.81629956088727 166.04452690156177,175.90911851816054 157.548794063041,175.769890068128 157.7090909089893,183.75218368468632 158.3302411873592,186.23499119839107 159.89313543587923,189.80833018326666 182.3747680890374,187.65041140065296 184.37847866420634,187.53439368233376 184.47866419295315,188.3929233974486 188.28571428568102,188.09127819081186" stroke="#4DD2FF" stroke-linecap="round" stroke-linejoin="round" stroke-width="0.5"><title>2025-05-29 5.0km</title><desc>1748526381000</desc></polyline><polyline fill="none" points="30.41928911022842,215.54204641925753 29.734661535010673,209.93575954754488 41.32442834507674,209.36946165323025 42.571428571478464,213.9281269464991 41.22662440571003,209.48272132439888 29.685759565443732,210.0207041320973 30.00362236809451,212.82386085260077 29.563504641293548,210.04901898783282 13.083540864870884,211.5780169131176 15.553090332774445,223.95126461490872 16.50667874130886,226.8392202319228 15.870953135658056,227.23560395438108 16.873443513642997,229.89702287464752 15.528639347990975,226.38620957100648 12.203305410919711,211.6346463043883 17.973737831111066,210.81351900237496 28.414308354142122,210.1622783820203 28.292053429991938,209.3411467281985 12.9612859407207,210.38879703183193 12.105501471552998,207.2458342682221 11.714285714318976,207.58561574071064 11.909893592935987,210.61531549692154 23.475209418218583,209.48272132439888" stroke="#4DD2FF" stroke-linecap="round" stroke-linejoin="round" stroke-width="0.5"><title>2025-05-27 6.0km</title><desc>1748352132000</desc></polyline><polyline fill="none" points="74.88805727299768,220.87090304181038 75.01106410671491,220.7895075571505 74.61568499833811,218.81564673558023 64.22160754958168,219.81275656457728 63.01789781975094,219.83310564106068 58.68630003253929,219.3243774845614 48.336153595824726,219.78223294208874 48.14285714284051,216.40422771569865 49.372925479954574,216.2719541010374 51.06866254477063,216.39405282849475 51.0774487471208,219.3243774845614 58.94109990238212,219.00896472558816 63.7207940123626,219.47699620371714 74.59811259357957,218.39848558684025 78.81548974942416,218.24586521879974 79.0,218.58162972045102 78.87699316628277,218.6223283711879 74.98470549948979,218.78512280817085" stroke="#4DD2FF" stroke-linecap="round" stroke-linejoin="round" stroke-width="0.5"><title>2025-05-25 7.6km</title><desc>1748179850000</desc></polyline><polyline fill="none" points="115.40835049614543,220.27495942470705 115.3274667665246,219.60760478032898 114.93315858452115,219.60760478032898 114.68039692938328,218.35484085556527 114.47818760527298,218.07384520219057 104.72158771764953,218.9051220190595 103.12413405731786,219.1978236916475 96.71409848338226,218.60071148841962 84.7433064969373,219.1392834168073 84.57142857142026,217.10206326864136 87.54390563565539,216.8678977181553 87.52368470322108,218.57729526036564 87.91799288522452,218.6241277117224 96.31979030143702,218.26117571417853 102.40629095671466,218.78804114119703 115.04437371279346,217.57039293760317 115.42857142857974,220.14617198820633" stroke="#4DD2FF" stroke-linecap="round" stroke-linejoin="round" stroke-width="0.5"><title>2025-05-24 6.6km</title><desc>1748094255000</desc></polyline><polyline fill="none" points="151.8571428571595,219.9463282466022 151.52146886155242,217.1965288962674 138.81558650860097,218.27629942187923 137.0501899389783,218.57863368996186 135.03614596521948,218.60742739599664 129.23022907797713,217.9019799076923 121.0,218.23310875930474 129.19293196732178,217.88758298348694 134.961551743967,218.62182424686034 148.12743179465178,217.51326243924268" stroke="#4DD2FF" stroke-linecap="round" stroke-linejoin="round" stroke-width="0.5"><title>2025-05-18 4.7km</title><desc>1747565909000</desc></polyline><polyline fill="none" points="184.2750807738048,219.6762574188906 183.93938898207853,217.7018896630325 174.99055253365077,218.45890572482313 173.49760745983804,218.72488298569078 172.29618420515908,218.7146531040562 168.2060447425465,218.1826978232857 157.49040939018596,218.67373356719327 157.42857142857974,218.3668365087433 163.4621896854951,217.9780988876737 167.55232914810767,217.9064891616872 172.33152018324472,218.67373356719327 184.0542309107841,217.63027973995486 188.0030264610541,217.46659972397174 188.1620383624686,217.48705974056793 188.18854034598917,217.63027973995486 188.28571428573923,217.56889976525417" stroke="#4DD2FF" stroke-linecap="round" stroke-linejoin="round" stroke-width="0.5"><title>2025-05-17 5.7km</title><desc>1747487200000</desc></polyline><polyline fill="none" points="40.885178642580286,251.58147570585425 36.79879195388639,251.79527673558914 34.80483218410518,252.15161105873995 25.647387315460946,252.8500236983964 19.911675878916867,252.10885098791914 11.714285714260768,252.43667786355945 19.800900336180348,252.13735770326457 25.4258362299297,252.83577041406534 41.77138298470527,251.41043464675022 42.312952304957435,254.1755727899581 42.57142857136205,254.30385106753965" stroke="#4DD2FF" stroke-linecap="round" stroke-linejoin="round" stroke-width="0.5"><title>2025-05-11 5.0km</title><desc>1746965499000</desc></polyline><polyline fill="none" points="79.0,253.96578985200176 78.50194712023949,251.7484958622881 64.50112728012027,253.01735674532392 58.81225660990458,252.36370273782086 48.14285714284051,252.8122891871244 58.54662840743549,252.37651951570297 63.85919245739933,253.01735674532392 78.59048985445406,251.77412954218744" stroke="#4DD2FF" stroke-linecap="round" stroke-linejoin="round" stroke-width="0.5"><title>2025-05-10 5.3km</title><desc>1746870058000</desc></polyline><polyline fill="none" points="115.36119775421685,252.3370101865803 115.2825951341074,252.11595224444318 115.42857142857974,252.28499658757937 114.83343730506022,252.38902376432816 101.07797878980637,253.5983334698467 95.25015595753212,252.90915837581997 84.57142857142026,253.35127112834016 95.19401122897398,252.90915837581997 97.92264504049672,253.13021494360146 100.40424204617739,253.58533020062168 111.66687461012043,252.57107111958612" stroke="#4DD2FF" stroke-linecap="round" stroke-linejoin="round" stroke-width="0.5"><title>2025-05-05 5.4km</title><desc>1746434825000</desc></polyline></svg>