<?xml version="1.0" encoding="utf-8" ?>
<svg baseProfile="full" height="300mm" version="1.1" viewBox="0,0,200,300" width="200mm" xmlns="http://www.w3.org/2000/svg" xmlns:ev="http://www.w3.org/2001/xml-events" xmlns:xlink="http://www.w3.org/1999/xlink"><defs /><rect fill="#222222" height="300" width="200" x="0" y="0" /><text fill="#FFFFFF" style="font-size:12px; font-family:Arial; font-weight:bold;" x="10" y="20">Over 3km Runs</text><text fill="#FFFFFF" style="font-size:4px; font-family:Arial" x="10" y="280">Runner</text><text fill="#FFFFFF" style="font-size:9px; font-family:Arial" x="10" y="290">tang-hi</text><text fill="#FFFFFF" style="font-size:4px; font-family:Arial" x="65" y="280">SPECIAL TRACKS</text><rect fill="yellow" height="2.6" width="2.6" x="65" y="283" /><text fill="#FFFFFF" style="font-size:3px; font-family:Arial" x="70" y="285.5">Over 20.0 km</text><rect fill="red" height="2.6" width="2.6" x="65" y="287" /><text fill="#FFFFFF" style="font-size:3px; font-family:Arial" x="70" y="289.5">Over 40.0 km</text><text fill="#FFFFFF" style="font-size:4px; font-family:Arial" x="120" y="280">STATISTICS</text><text fill="#FFFFFF" style="font-size:3px; font-family:Arial" x="120" y="285">Number: 29</text><text fill="#FFFFFF" style="font-size:3px; font-family:Arial" x="120" y="290">Weekly: 3.2</text><text fill="#FFFFFF" style="font-size:3px; font-family:Arial" x="141" y="285">Total: 160.4 km</text><text fill="#FFFFFF" style="font-size:3px; font-family:Arial" x="141" y="290">Avg: 5.5 km</text><text fill="#FFFFFF" style="font-size:3px; font-family:Arial" x="167" y="285">Min: 3.2 km</text><text fill="#FFFFFF" style="font-size:3px; font-family:Arial" x="167" y="290">Max: 11.5 km</text><polyline fill="none" points="27.432235725573264,64.19999999999709 28.201871741970535,59.45507597721007 28.517296338803135,59.23607570052263 29.3247833068599,53.24993885643198 29.387868226214778,51.17663330088544 28.012616983847693,40.16717142499692 27.343916838523,38.77997776545817 27.48270366108045,38.5901502223569 28.050467935448978,38.692365084425546 27.785511274065357,35.859526258704136 27.167279064189643,35.07099416834535 27.179896048095543,33.27487713081064 26.58689780603163,31.80000000000291 27.23036398360273,33.4063010905229 27.167279064189643,35.10019913781434 27.73504333855817,35.65509242886037 27.823362225666642,36.10776694654487 28.050467935448978,38.677762965715374 27.432235725573264,38.63395660070819 27.343916838523,38.82378408590739 28.025233967753593,40.16717142499692 28.681317129172385,46.41667774762027 29.413102193910163,51.13283074805804 29.198613468033727,54.403384625693434 27.81074524181895,63.70361528772628" stroke="#4DD2FF" stroke-linecap="round" stroke-linejoin="round" stroke-width="0.5"><title>2025-07-01 5.0km</title><desc>1751376396000</desc></polyline><polyline fill="none" points="62.86137398041319,64.19999999999709 63.09533823101083,63.91122388027725 63.04854538093787,62.84635788133892 63.422888181812596,62.48538490738429 63.68804766581161,61.07758329930948 64.09358570020413,56.114091167532024 64.65509990154533,54.18280401384982 65.27900456980569,49.110819051842554 65.1230284027406,46.20474103561719 64.2495618671528,41.02422313083662 63.65685243246844,34.74241677255486 62.7209954301361,32.41375967116619 63.54766911547631,32.57622511133377 63.57886434887769,31.80000000000291 63.57886434887769,32.54012169298949 62.86137398041319,32.395707946430775 62.736593046807684,32.57622511133377 63.329302481608465,33.46075656586618 63.68804766581161,34.706313794798916 64.34314756747335,41.71015404374339 65.27900456980569,47.937563465500716 65.20101648627315,50.84361312378314 63.23571678134613,63.5863501845015" stroke="#4DD2FF" stroke-linecap="round" stroke-linejoin="round" stroke-width="0.5"><title>2025-06-30 4.1km</title><desc>1751292736000</desc></polyline><polyline fill="none" points="84.16376306611346,49.99728412875265 83.79999999998836,47.36815183251747 83.9254355400335,47.09216275649669 93.68432055745507,46.62733784147713 95.23972125427099,46.77259579030215 97.77351916371845,46.525657189267804 101.57421602780232,46.56923462053237 116.19999999995343,45.63957986331661 111.83484320552088,45.94462349898822 110.81881533103297,46.27871816033439 108.93728222989012,46.19156310676772 99.41672473866493,46.68544103878958 90.56097560969647,46.84522470916272 90.29756097553764,47.07763700088253 90.91219512186944,50.36042013669794 90.62369337974815,50.33136929012835 90.27247386751696,48.61735886055976" stroke="#4DD2FF" stroke-linecap="round" stroke-linejoin="round" stroke-width="0.5"><title>2025-06-26 5.0km</title><desc>1750950176000</desc></polyline><polyline fill="none" points="152.20000000001164,49.32604344941501 151.67685683531454,46.67395655059954 137.73799784708535,47.95288835246174 136.2499461786938,47.96635072660865 130.8790096878074,47.293230337876594 119.79999999998836,47.7644149701664 130.50699677073862,47.2797678950883 136.26157158234855,47.97981309941679 146.17804090422578,47.077831088972744" stroke="#4DD2FF" stroke-linecap="round" stroke-linejoin="round" stroke-width="0.5"><title>2025-06-24 5.0km</title><desc>1750769966000</desc></polyline><polyline fill="none" points="188.20000000001164,49.29750978045922 187.7564841498388,46.70249021954078 173.96080691640964,48.01352207369928 172.28011527378112,48.067584964694106 166.84121037466684,47.36476566278725 155.79999999998836,47.85133326851064 166.54942363110604,47.36476566278725 172.26844380400144,48.067584964694106 183.95158501440892,47.026870441754" stroke="#4DD2FF" stroke-linecap="round" stroke-linejoin="round" stroke-width="0.5"><title>2025-06-22 5.0km</title><desc>1750563938000</desc></polyline><polyline fill="none" points="29.107228730863426,105.0 27.43269199304632,94.9957780762561 27.409217178967083,92.26798236261675 27.55789100145921,91.12608953039307 27.463991745142266,88.18972630106873 27.495291497238213,87.68219689608668 27.66744013383868,87.39217879178614 27.495291497238213,87.25623247953627 27.4874665591924,85.3982787001878 25.586006618628744,73.95967805421242 25.108685398939997,72.59999999999854 25.59383155661635,73.78745331861865 27.463991745142266,85.20794953394943 27.565715939505026,90.77264353739156 27.43269199304632,92.27704494545469 27.424867055000504,94.90515497839078 28.708156891487306,102.5896654193275 28.88813046607538,103.1152326656229 30.891314601060003,103.00649486958719" stroke="#4DD2FF" stroke-linecap="round" stroke-linejoin="round" stroke-width="0.5"><title>2025-06-21 8.0km</title><desc>1750517001000</desc></polyline><polyline fill="none" points="67.28707355994266,105.0 64.5425267041428,88.12297542481974 59.71297526010312,88.02441999570874 51.01127243821975,87.18669722575578 51.18147689430043,86.29969348099257 50.841067981906235,84.59959387101117 51.30913023650646,73.48705402809719 51.24530356528703,72.69856171948777 50.8197924249107,72.59999999999127 50.287903499323875,86.27505444166309 51.09637466620188,86.37361058403621 51.13892578019295,87.21133617227315 64.60635337524582,88.09833657134732 66.24457126588095,98.6435363713681 66.75518463447224,100.04788574372651 77.71209650067613,99.70295858359896" stroke="#4DD2FF" stroke-linecap="round" stroke-linejoin="round" stroke-width="0.5"><title>2025-06-19 5.0km</title><desc>1750345525000</desc></polyline><polyline fill="none" points="116.19999999998254,89.61111378311034 115.90260869567282,87.84388433404092 106.73043478259933,88.71390937512479 105.54869565213448,88.74109752045479 101.61999999999534,88.28796067905205 87.06347826085403,88.94953969211929 85.80347826084471,89.1579813751523 83.79999999998836,89.75611566595035 86.62521739126532,88.99485314303456 91.74347826087615,88.76828565752658" stroke="#4DD2FF" stroke-linecap="round" stroke-linejoin="round" stroke-width="0.5"><title>2025-06-17 5.1km</title><desc>1750166247000</desc></polyline><polyline fill="none" points="120.9172413792694,101.02654612273909 119.80000000004657,93.84607159395819 145.0496551723918,93.10213926920551 140.94379310356453,76.89691977656912 145.9155172413448,77.1880388041609 152.19999999995343,76.57345387723763 142.28448275872506,77.15569225870422 145.94344827590976,91.74364965432324 135.10620689659845,92.26117019337835" stroke="#4DD2FF" stroke-linecap="round" stroke-linejoin="round" stroke-width="0.5"><title>2025-06-16 3.2km</title><desc>1750084948000</desc></polyline><polyline fill="none" points="188.20000000001164,90.29775931267068 187.70354838715866,87.30224068732059 171.77790322579676,88.76974978909129 170.34080645162612,88.78487867338117 164.04370967741124,88.0133036102925 155.79999999998836,88.40665610435826 163.78241935482947,87.99817464737862 170.32774193549994,88.75462090331712 183.836451612995,87.61995007385849" stroke="#4DD2FF" stroke-linecap="round" stroke-linejoin="round" stroke-width="0.5"><title>2025-06-15 4.6km</title><desc>1749956754000</desc></polyline><polyline fill="none" points="44.20000000001164,130.9030446977995 43.80558539205231,128.2969553021976 29.931471536052413,129.57313953724224 28.481417830334976,129.60000644097454 22.379591836768668,128.91489868538338 11.799999999988358,129.39850452959945 22.588399570377078,128.91489868538338 28.388614393188618,129.60000644097454 31.416326530685183,129.45223840276594 31.98474758322118,129.26416975088068 39.33941997855436,128.60592735590762" stroke="#4DD2FF" stroke-linecap="round" stroke-linejoin="round" stroke-width="0.5"><title>2025-06-14 5.1km</title><desc>1749906363000</desc></polyline><polyline fill="none" points="80.20000000001164,131.52375345869223 79.81046676100232,128.8968472586712 66.38302687410032,130.19703978126927 64.57284299860476,130.21030698499817 59.073550212197006,129.54694514327275 48.716548797732685,130.0378332313412 48.57906647812342,129.73268679971807 48.63635077793151,127.68951400194783 47.79999999998836,127.67624654133397 48.67072135786293,127.71604891915922 48.57906647812342,129.71941954732756 48.750919377664104,130.0378332313412 59.35997171147028,129.5336778719793 64.82489391800482,130.22357418737374 75.70891089114593,129.24179756097146 75.69745403114939,128.71110440956545 79.19179632252781,128.52536129546934" stroke="#4DD2FF" stroke-linecap="round" stroke-linejoin="round" stroke-width="0.5"><title>2025-06-12 5.9km</title><desc>1749735885000</desc></polyline><polyline fill="none" points="116.20000000006985,139.79274540893675 115.16715176729485,134.59251987509197 86.78627858625259,137.11464249700657 84.1143451143289,129.80821876083792 83.80000000004657,120.681395496591 89.09896049892996,120.44737009311211 93.61205821193289,120.73340111262223 93.85904365917668,119.90130998342647 93.38752598757856,119.7192896870838 83.93471933470573,119.40725459107489 84.13679833675269,129.5481998251198 84.92266112263314,132.51239998081292 86.47193347197026,136.20460112730507 99.04573804570828,135.11254719852877 99.29272349271923,136.100596192613 115.09979209990706,134.56651848104957 116.06528066541068,139.714742808952" stroke="#4DD2FF" stroke-linecap="round" stroke-linejoin="round" stroke-width="0.5"><title>2025-06-10 5.3km</title><desc>1749559786000</desc></polyline><polyline fill="none" points="120.65071267820895,120.97363575085183 119.87291822966654,117.82121019982151 119.80000000004657,115.37242623374914 141.84561140299775,114.8094843213621 142.84216054016724,118.49673299005372 142.112978244666,118.4685862401675 141.8942235559225,118.97522729999037 142.35603900975548,121.59285797009943 142.23450862721074,123.36607755391742 143.03660915233195,126.91248256780091 145.10262565652374,126.82804488239344 148.16519129788503,138.62092499123537 148.2138034509262,139.15567373138038 147.43600900226738,139.3808307860163 148.14088522142265,139.18381837330526 148.38394598651212,139.6341322530061 147.75198799697682,139.74671060833498 147.97074268572032,140.7880582192156 149.4291072768392,144.50310419881134 150.4499624907039,144.3905277819431 152.19999999995343,143.4336263865116 150.35273818462156,143.8276450096164 147.07141785451677,130.7402971968113 146.68252063018735,129.6144748715451 145.8075018755626,129.6144748715451 145.15123780956492,126.74360717111267 144.44636159040965,127.02506610823912 143.01230307586957,126.82804488239344 142.21020255074836,123.59124748004251 142.04006001504604,119.42557412854512 140.7032258064719,114.6968958012003 119.87291822966654,115.42872036187327 120.7479369842913,121.1425146755646" stroke="#4DD2FF" stroke-linecap="round" stroke-linejoin="round" stroke-width="0.5"><title>2025-06-08 5.0km</title><desc>1749355299000</desc></polyline><polyline fill="none" points="188.20000000001164,130.93325349288352 187.6301507537719,128.26674650714267 177.18679109832738,129.1421208949614 174.04680545581505,129.58653951855376 172.30236898781732,129.58653951855376 166.77832017227774,128.91317738431098 155.79999999998836,129.39799846686947 166.25498923187843,128.91317738431098 172.24422110558953,129.60000672622118 184.8390524049173,128.4687564959604" stroke="#4DD2FF" stroke-linecap="round" stroke-linejoin="round" stroke-width="0.5"><title>2025-06-07 5.3km</title><desc>1749293029000</desc></polyline><polyline fill="none" points="44.199999999953434,171.68353129377647 43.72164205979789,169.1164687062119 28.939214980171528,170.46756047511008 22.942239827127196,169.77850539359497 11.799999999988358,170.237875845909 22.89557075977791,169.7514835526963 28.227511703269556,170.46756047511008 39.649765934445895,169.4272210324125" stroke="#4DD2FF" stroke-linecap="round" stroke-linejoin="round" stroke-width="0.5"><title>2025-06-05 5.1km</title><desc>1749128617000</desc></polyline><polyline fill="none" points="48.25354330701521,170.19492072165303 47.79999999998836,167.22420582301856 47.97007874009432,167.09290224240976 60.68346456688596,166.64975186750235 63.078740157419816,175.43046717709512 75.63622047239915,175.26634604779247 80.19999999995343,174.98733974412607 76.44409448822262,175.11863688837911 75.74960629921407,165.36953282289323 63.73070866137277,166.07529586275632 61.15118110232288,165.99323055190325 61.377952755836304,166.64975186750235 54.71653543302091,166.84670774026017" stroke="#4DD2FF" stroke-linecap="round" stroke-linejoin="round" stroke-width="0.5"><title>2025-06-03 5.2km</title><desc>1748952979000</desc></polyline><polyline fill="none" points="110.59374864568235,160.74123152967513 109.88300032884581,159.6892464035991 109.379178737232,158.58517117143492 109.05529342836235,158.28311077722174 108.25457697018282,158.21019951396738 107.6427936089458,157.50191596641525 107.36389237071853,156.57489038397762 106.9500389204477,155.9395084470234 106.45521414291579,154.1999999999971 105.024720695219,154.81456025593798 104.35895644914126,154.8874739395833 102.63156813487876,155.53327858294506 101.89382937573828,156.48114575622458 101.89382937573828,156.72071518971643 98.90688708244124,160.52250283979083 98.888893454161,160.74123152967513 98.07018336770125,161.86611454805825 97.35943505098112,162.52229059704405 97.23347965307767,162.40772047908104 96.72965806134744,162.8451693302195 96.39677593833767,162.64727603400388 96.38777912425576,162.83475390313106 96.34279505349696,162.56395242635335 96.8106293886085,162.89724644983653 96.73865487554576,163.27220092844072 95.65903717913898,164.46996297363512 93.81469028117135,164.88657257216255 93.81469028117135,164.69909846279188 93.6887348832679,164.92823343872442 93.18491329165408,165.04280073429254 92.74406939890468,164.91781822366465 92.0063306397642,164.98030949805252 91.88037524180254,164.86574213253334 91.58348037535325,165.03238553091796 90.69279577583075,164.71992893633433 90.57583719206741,163.35552395927516 90.23395825485932,163.05347764957696 88.55155401135562,163.48050837835035 87.92177702183835,163.8658760426042 88.6415221527568,166.98001012661553 89.7751207339461,170.45856289219228 92.16827329422813,179.8104927483946 92.5011554172379,180.7789622689961 95.32615505612921,186.49586985327915 95.68602762155933,186.59999999999854 96.92758797243005,186.20430487904378 97.77328850125195,186.45421776494914 99.32074053271208,186.1314135057546 99.29375009023352,185.51704129717837 99.70760354056256,185.4024969183447 100.45433911390137,185.7461296704496 101.02113840449601,185.47538881062792 101.25505557202268,185.8190213180642 102.71253946213983,186.1418265622342 103.56723680510186,185.98563060345623 104.430930962204,185.34001811221242 104.58387680252781,184.1216737715149 105.23164742038352,183.2261293691554 105.06070795177948,182.33057713238668 105.26763467688579,181.89321156467486 104.8267907841946,181.40377645186527 104.54788954602554,180.67482620105147 104.43992777634412,179.59180481431395 105.024720695219,179.12318623941246 105.9154052946833,179.48766753864038 106.4102300722152,179.45642633525858 106.53618547011865,178.77953125423664 106.32925874501234,177.9464234709303 106.15831927640829,177.87352621726313 106.32925874501234,177.7902150066584 106.13132883398794,177.7277315541869 106.29327148839366,177.82145671858598 106.3112651167321,177.33200213614327 106.07734794920543,176.79047518986772 105.01572388107888,176.71757711291139 104.52089910354698,176.34267189700768 104.7278258286533,174.92635090997646 105.57352635753341,173.47876729475684 106.22129697533092,172.76017501761817 106.51819184183842,172.65603079072753 107.15696564555401,171.77080058300635 108.28156741260318,170.69809959913255 109.2802137817489,169.4483366983768 108.99231572938152,168.86510878780246 108.10163112985902,168.85469397348788 107.98467254609568,168.51100450602098 108.32655148330377,167.6882280610298 108.72241130529437,167.3132897651667 109.09128068492282,167.36536461063952 109.24422652518842,167.1778950429507 108.9293380304589,166.45925851809443 109.35218829481164,165.57397470114665 109.74804811686045,165.34484117126703 110.08093023992842,165.4802383191127 110.03594616922783,165.23027421394363 111.03459253837354,164.77200510168768 111.12456067971652,164.4907934938674 111.99725165095879,163.95961390359298 112.07822297821986,163.19929322078679 110.93562758283224,161.02245344383846 110.75569130008807,160.93912851281493" stroke="#4DD2FF" stroke-linecap="round" stroke-linejoin="round" stroke-width="0.5"><title>2025-06-02 11.5km</title><desc>1748829019000</desc></polyline><polyline fill="none" points="152.20000000001164,171.91515625508328 151.6064945878461,168.8848437449342 134.48925895086722,170.47810830746312 127.39417152368696,169.6658578550414 119.79999999998836,169.9938825943973 127.48859283921774,169.6346173670463 133.7069109075237,170.44686798505427 151.57951706909807,168.9004640661733 152.18651124060852,171.82143614746747" stroke="#4DD2FF" stroke-linecap="round" stroke-linejoin="round" stroke-width="0.5"><title>2025-06-01 4.9km</title><desc>1748740054000</desc></polyline><polyline fill="none" points="188.20000000006985,186.0133920093649 188.0826795414323,186.26246372961032 187.84803862404078,186.08132068807026 187.06590223300736,181.73384338215692 162.35039227525704,183.88494955704664 160.06264333135914,177.4768560835946 159.96487628249452,169.41552897416113 159.4173808087362,166.3811334346683 155.80000000004657,154.5375362703926 158.1855159928091,162.46353161717707 158.83077851554845,163.68637428458896 159.88666264340281,168.23800726870832 160.9425467713736,168.53238828026224 159.84755582385696,168.50974360096734 160.06264333135914,176.7296105352434 160.8056729028467,179.78650825125806 162.096197948209,182.9792231798492 162.42860591434874,183.18301193667867 173.0265540133696,182.09613640696625 173.31985515996348,182.95657997314993 181.747374773724,182.14142299356172" stroke="#4DD2FF" stroke-linecap="round" stroke-linejoin="round" stroke-width="0.5"><title>2025-05-31 5.5km</title><desc>1748696141000</desc></polyline><polyline fill="none" points="41.92779220791999,220.1416154284525 41.19142857159022,215.39075136044994 14.535064935218543,217.77837689928128 12.073506493587047,210.76161349698668 11.800000000046566,202.30711453892582 20.846753246732987,202.40457444406638 11.926233766367659,202.25838457152713 12.094545454601757,210.63979286891117 12.746753246872686,213.24674075830262 14.38779220788274,216.99874669242126 37.993506493628956,214.73293197067687 40.097402597544715,214.61111336643808 40.20259740273468,215.5125695673196 44.20000000006985,215.195842100351" stroke="#4DD2FF" stroke-linecap="round" stroke-linejoin="round" stroke-width="0.5"><title>2025-05-29 5.0km</title><desc>1748526381000</desc></polyline><polyline fill="none" points="67.4402535657864,208.01914874024806 66.72139461175539,202.1325475249614 78.89064976235386,201.53793473591213 80.20000000006985,206.3245332938386 78.78795562603045,201.6568573906261 66.6700475437101,202.2217393387109 67.00380348658655,205.1650538952672 66.54167987336405,202.25146993724047 49.23771790810861,203.8569177587924 51.83074484951794,216.8488278456789 52.832012678380124,219.88118124354514 52.16450079239439,220.29738415210159 53.21711568941828,223.0918740183697 51.80507131537888,219.40552004956407 48.31347068143077,203.916378619615 54.37242472276557,203.0541949525068 65.33502377185505,202.37039230114897 65.206656101509,201.508204064623 49.109350237762555,202.6082368834468 48.21077654522378,199.30812598165357 47.800000000046566,199.6648965277709 48.00538827269338,202.84608127176762 60.148969889152795,201.6568573906261" stroke="#4DD2FF" stroke-linecap="round" stroke-linejoin="round" stroke-width="0.5"><title>2025-05-27 6.0km</title><desc>1748352132000</desc></polyline><polyline fill="none" points="111.88246013660682,213.61444819390454 112.0116173120332,213.52898293500766 111.59646924823755,211.4564290723647 100.68268792709569,212.5033943928065 99.41879271069774,212.52476092311554 94.87061503418954,211.9905963587953 84.00296127563342,212.47134458919027 83.79999999998836,208.92443910147995 85.09157175396103,208.78555180608964 86.87209567194805,208.91375546991912 86.88132118451176,211.9905963587953 95.13815489748958,211.65941296186793 100.1568337129429,212.15084601390117 111.57801822322654,211.01840986617754 116.00626423687208,210.85815847973572 116.19999999995343,211.21071120646957 116.07084282458527,211.25344478974876 111.98394077445846,211.4243789485845" stroke="#4DD2FF" stroke-linecap="round" stroke-linejoin="round" stroke-width="0.5"><title>2025-05-25 7.6km</title><desc>1748179850000</desc></polyline><polyline fill="none" points="152.17876802093815,212.98870739593985 152.09384010487702,212.28798501934216 151.67981651372975,212.28798501934216 151.41441677586408,210.9725828983428 151.20209698553663,210.67753746229573 140.9576671035611,211.55037812000955 139.28034076018957,211.85771487622696 132.54980340757174,211.2307470628366 119.98047182179289,211.7962475876484 119.79999999998836,209.6571664320727 122.92110091744689,209.4112926040616 122.8998689383734,211.20616002338647 123.31389252952067,211.25533409730997 132.1357798165409,210.87423449988273 138.52660550456494,211.4274431982558 151.79659239843022,210.14891258448188 152.20000000001164,212.85348058761883" stroke="#4DD2FF" stroke-linecap="round" stroke-linejoin="round" stroke-width="0.5"><title>2025-05-24 6.6km</title><desc>1748094255000</desc></polyline><polyline fill="none" points="188.20000000001164,212.6436446589214 187.84754230460385,209.75635534105822 174.50636583403684,210.89011439295427 172.65269943594467,211.20756537445413 170.5379532634979,211.23779876576737 164.4417405318236,210.49707890304853 155.79999999998836,210.8447641972598 164.4025785656995,210.481962132646 170.45962933119154,211.2529154591757 184.28380338440184,210.08892556118371" stroke="#4DD2FF" stroke-linecap="round" stroke-linejoin="round" stroke-width="0.5"><title>2025-05-18 4.7km</title><desc>1747565909000</desc></polyline><polyline fill="none" points="39.98883481242228,253.16007028983586 39.636358431132976,251.08698414618993 30.24008016026346,251.88185101107229 28.67248783278046,252.16112713498296 27.410993415338453,252.15038575926883 23.11634697963018,251.5918327144609 11.864929859701078,252.10742024556384 11.799999999988358,251.78517833419028 18.135299169749487,251.37700383206538 22.42994560545776,251.30181361977884 27.448096192325465,252.10742024556384 39.75694245629711,251.0117937269606 43.903177784057334,250.83992971017142 44.070140280527994,250.8614127276087 44.0979673632537,251.0117937269606 44.199999999953434,250.94734475352016" stroke="#4DD2FF" stroke-linecap="round" stroke-linejoin="round" stroke-width="0.5"><title>2025-05-17 5.7km</title><desc>1747487200000</desc></polyline><polyline fill="none" points="78.42943757475587,250.6605494911346 74.13873155164765,250.88504057236423 72.0450737933279,251.2591916116653 62.42975668126019,251.99252488331695 56.40725967288017,251.21429353729764 47.79999999998836,251.55851175672433 56.290945352986455,251.24422558842343 62.19712804147275,251.9775589347555 79.35995213396382,250.48095637907682 79.92859992024023,253.38435142944218 80.20000000001164,253.51904362090863" stroke="#4DD2FF" stroke-linecap="round" stroke-linejoin="round" stroke-width="0.5"><title>2025-05-11 5.0km</title><desc>1746965499000</desc></polyline><polyline fill="none" points="116.19999999995343,253.16407934459858 115.67704447620781,250.83592065540142 100.97618364408845,252.16822458259412 95.00286944041727,251.48188787471736 83.79999999998836,251.952903646481 94.72395982779562,251.49534549147938 100.30215208028676,252.16822458259412 115.7700143471593,250.86283601929608" stroke="#4DD2FF" stroke-linecap="round" stroke-linejoin="round" stroke-width="0.5"><title>2025-05-10 5.3km</title><desc>1746870058000</desc></polyline><polyline fill="none" points="152.1292576418491,251.4538606959104 152.0467248907662,251.22174985667516 152.19999999995343,251.39924641695688 151.57510917028412,251.50847495255584 137.13187772926176,252.7782501433394 131.01266375539126,252.0546162946266 119.79999999998836,252.51883468477172 130.95371179038193,252.0546162946266 133.81877729250118,252.28672569079208 136.42445414845133,252.76459671065095 148.25021834060317,251.69962467557343" stroke="#4DD2FF" stroke-linecap="round" stroke-linejoin="round" stroke-width="0.5"><title>2025-05-05 5.4km</title><desc>1746434825000</desc></polyline></svg>