<?xml version="1.0" encoding="utf-8" ?>
<svg baseProfile="full" height="300mm" version="1.1" viewBox="0,0,200,300" width="200mm" xmlns="http://www.w3.org/2000/svg" xmlns:ev="http://www.w3.org/2001/xml-events" xmlns:xlink="http://www.w3.org/1999/xlink"><defs /><rect fill="#222222" height="300" width="200" x="0" y="0" /><text fill="#FFFFFF" style="font-size:12px; font-family:Arial; font-weight:bold;" x="10" y="20">Over 3km Runs</text><text fill="#FFFFFF" style="font-size:4px; font-family:Arial" x="10" y="280">Runner</text><text fill="#FFFFFF" style="font-size:9px; font-family:Arial" x="10" y="290">tang-hi</text><text fill="#FFFFFF" style="font-size:4px; font-family:Arial" x="65" y="280">SPECIAL TRACKS</text><rect fill="yellow" height="2.6" width="2.6" x="65" y="283" /><text fill="#FFFFFF" style="font-size:3px; font-family:Arial" x="70" y="285.5">Over 20.0 km</text><rect fill="red" height="2.6" width="2.6" x="65" y="287" /><text fill="#FFFFFF" style="font-size:3px; font-family:Arial" x="70" y="289.5">Over 40.0 km</text><text fill="#FFFFFF" style="font-size:4px; font-family:Arial" x="120" y="280">STATISTICS</text><text fill="#FFFFFF" style="font-size:3px; font-family:Arial" x="120" y="285">Number: 46</text><text fill="#FFFFFF" style="font-size:3px; font-family:Arial" x="120" y="290">Weekly: 3.5</text><text fill="#FFFFFF" style="font-size:3px; font-family:Arial" x="141" y="285">Total: 244.9 km</text><text fill="#FFFFFF" style="font-size:3px; font-family:Arial" x="141" y="290">Avg: 5.3 km</text><text fill="#FFFFFF" style="font-size:3px; font-family:Arial" x="167" y="285">Min: 3.2 km</text><text fill="#FFFFFF" style="font-size:3px; font-family:Arial" x="167" y="290">Max: 11.5 km</text><polyline fill="none" points="25.72169430652866,31.5 25.576386728032958,31.533628019402386 25.489202180935536,32.44158066763339 26.215740073355846,32.44158066763339 26.215740073355846,33.170179240180005 23.793947098660283,49.1981306865564 23.80363427050179,50.890456812339835 24.811100148013793,58.5 23.852070130058564,51.1033966723262 23.78425992670236,49.45590389092831 25.217961367743555,39.211757410434075 25.576386728032958,37.8218874652448 25.479515009035822,37.508043441644986 25.934812088264152,34.2014182253115" stroke="#4DD2FF" stroke-linecap="round" stroke-linejoin="round" stroke-width="0.5"><title>2025-07-31 5.0km</title><desc>1753965181000</desc></polyline><polyline fill="none" points="54.46542082994711,58.5 54.58186381746782,57.52006948937924 54.87826414935989,57.164842712008976 55.95800821547164,49.72933849729452 56.07445120299235,46.985313321463764 55.5239934437559,43.65319875050045 54.94177850621054,38.152558028792555 54.380735020851716,37.07445201911469 54.49717800837243,36.91518554076174 54.96294995845528,36.9764419034982 54.76182116183918,34.538414618655224 54.22194912878331,33.95034035042772 54.285463485633954,32.59040761045617 53.862034440098796,31.5 54.296049211756326,32.61491103890148 54.25370630715042,33.97484350224113 54.76182116183918,34.61192370032222 55.00529286300298,36.951939362159465 54.86767842323752,37.07445201911469 54.444249377644155,36.90293426446442 54.40190647309646,37.08670327797154 55.0370500414283,38.49558973607782 55.407550456235185,42.61189405153709 56.137965559842996,47.86732822734484 55.37579327786807,54.21274520140287 54.81474979250925,57.728305389398884 54.61362099589314,57.81404947900592" stroke="#4DD2FF" stroke-linecap="round" stroke-linejoin="round" stroke-width="0.5"><title>2025-07-29 5.0km</title><desc>1753797916000</desc></polyline><polyline fill="none" points="86.15806076081935,31.5 86.13859755476005,33.56069886108162 85.69094381527975,36.71360656358593 85.34060610609595,37.76080249394727 85.10704763332615,40.64335524561466 84.455030230165,44.08880823416257 84.53288305440219,44.696818233584054 83.89059725427069,48.96405384569516 83.9295236664475,51.22708576808509 84.7275151150534,58.5 83.97818168159574,52.184075421137095 83.84193923918065,49.7859563529928 84.46476183325285,44.26895969273028 85.3308745030663,38.762948474533914 85.24329007579945,38.481447709709755 85.66174900624901,36.7699076717181 86.13859755476005,32.9638883785301" stroke="#4DD2FF" stroke-linecap="round" stroke-linejoin="round" stroke-width="0.5"><title>2025-07-27 5.0km</title><desc>1753616848000</desc></polyline><polyline fill="none" points="115.77117321960395,31.5 115.79991259425879,33.872188869761885 115.2730240590754,37.61881201835058 115.06226864503697,38.01785305649537 114.76529510703404,41.276633578323526 114.22882678033784,44.24713783559855 114.26714594650548,44.81241120443883 113.5678211635095,49.42315914606297 114.43958219437627,58.5 115.01436968729831,58.411340979946544 114.60243865073426,53.96721533680102 114.13302886480233,50.85289478359482 114.11386928177672,49.19040971154027 115.43588051537517,39.86894100766949 115.87655092665227,38.00676860292879 115.78075301117497,37.57447403511469 116.43217883643229,33.62832136474026" stroke="#4DD2FF" stroke-linecap="round" stroke-linejoin="round" stroke-width="0.5"><title>2025-07-26 5.2km</title><desc>1753529066000</desc></polyline><polyline fill="none" points="145.93190294969827,31.5 145.81541508092778,32.084096391256026 145.97073223924963,32.8366775761242 145.7862931137788,34.61140097930911 145.37858557328582,37.374521214813285 145.16502448066603,37.76764246611856 145.13590251345886,38.94699783339456 144.27195082057733,44.12478064413881 144.33990207727766,44.618959821455064 143.6992187994183,49.32478271090076 143.7865847009234,51.8292321066765 144.55346316995565,58.5 145.1067805463099,58.443850433926855 144.66995103866793,54.36731578929175 144.76702426257543,54.15393931491417 144.2137068862212,50.98693482742965 144.2039995638188,49.48201438624528 146.3007812005817,34.80235053392971" stroke="#4DD2FF" stroke-linecap="round" stroke-linejoin="round" stroke-width="0.5"><title>2025-07-24 5.0km</title><desc>1753356656000</desc></polyline><polyline fill="none" points="174.52643632655963,58.45129099960468 174.66324361000443,58.5 175.12628364627017,54.65192796802148 175.43146912468364,54.45708559099148 175.35780366440304,54.07957758392149 176.1470764533733,49.19622164525208 176.19969463936286,47.722651211646735 175.41042185027618,42.52238591458445 175.08418909751344,38.67380066993792 174.45277086633723,37.34625365888496 174.5474836009671,37.15138313440548 175.06314182310598,37.24881843626645 174.7895272562164,34.800732454554236 174.3370108571835,34.31354519485467 174.3791054059402,32.998129694664385 173.80030536063714,31.5 174.32648722000886,32.705813177068194 174.31596358283423,34.264826359903964 174.80005089344922,34.77637313862215 175.07366546033882,37.17574196730129 174.93685817689402,37.3097154596835 174.56853087531636,37.163562551482755 174.45277086633723,37.3097154596835 174.82109816779848,37.83342858294782 175.08418909751344,38.71033845302736 175.5577527708956,43.557585526563344 176.16812372772256,47.515619202837115 176.15760009060614,49.13533066398668 175.01052363717463,57.111785730208794" stroke="#4DD2FF" stroke-linecap="round" stroke-linejoin="round" stroke-width="0.5"><title>2025-07-22 5.0km</title><desc>1753184035000</desc></polyline><polyline fill="none" points="11.5,79.45307932648575 11.5,75.12050218868535 14.370570108061656,62.9890753996151 37.584745762869716,67.22548196098069 38.5,68.23643701843685 35.37981510045938,86.9627858401218 14.536979969358072,83.68933866149746 13.788135593291372,82.72655577518162 16.36748844385147,64.00003949800157 17.282742680981755,63.42234599171206 22.815870570251718,64.33702705139876 38.458397534675896,67.8031708295166 35.71263482305221,86.57767558126943 34.8389830510132,87.0109246003849 14.120955315884203,83.49678224077797 14.370570108061656,77.33493545404053 16.409090909408405,64.09632168064127 17.074730354594067,63.518628291698406 27.308936826186255,65.25170634506503 16.866718027973548,63.61491057212697 15.70184899866581,68.91040585830342 16.741910632001236,69.92135732001043" stroke="#4DD2FF" stroke-linecap="round" stroke-linejoin="round" stroke-width="0.5"><title>2025-07-20 4.9km</title><desc>1753020627000</desc></polyline><polyline fill="none" points="56.55188065842958,61.5 56.34819632198196,62.88045930568478 55.591654501040466,64.8220517331938 54.95150372944772,67.73998772888444 54.77691715536639,70.04061369205738 54.175563400262035,73.88984658173285 54.039773842610884,74.01328914901387 54.107668621465564,74.56316800029163 53.47721710393671,79.10798025870463 53.448119341628626,80.61165476574388 54.31135295785498,88.48877942513354 54.214360416750424,86.94032916756987 54.321052211977076,88.5 54.873909696529154,88.38779420001083 53.94278130150633,79.60172638286167 55.42676718108123,68.76124711869488 55.73714331275551,67.7848784498783 55.77594032918569,66.47181732363242" stroke="#4DD2FF" stroke-linecap="round" stroke-linejoin="round" stroke-width="0.5"><title>2025-07-20 5.0km</title><desc>1752942252000</desc></polyline><polyline fill="none" points="86.16421898122644,61.51208190763282 85.99715616781032,61.5 85.73612052178942,62.82900247924408 86.02848044532584,63.0102289391798 86.00759759364882,63.396844464034075 85.64214768924285,65.86148888752359 85.443760598253,66.28433941477124 84.93213073210791,71.10472916430444 84.50403227261268,73.073904859717 84.54579797602491,73.65377860541776 83.80445674131624,79.19867854221957 84.80683362198761,88.5 83.877546722244,80.74492263379216 83.85666387056699,78.4013885792956 84.54579797602491,73.72626262486301 84.51447369845118,73.08598559156962 85.27669778483687,68.49521911881311 85.43331917241449,66.27225799200824 85.64214768924285,65.83732595485344 86.19554325874196,61.886620435027" stroke="#4DD2FF" stroke-linecap="round" stroke-linejoin="round" stroke-width="0.5"><title>2025-07-17 5.0km</title><desc>1752765839000</desc></polyline><polyline fill="none" points="126.58445945964195,87.93025537068024 127.19256756769028,87.08586103635025 128.5,76.07336303085322 108.94932432437781,75.19375543203205 105.42229729739483,75.47523010685109 105.84797297301702,75.19375543203205 105.20945945952553,71.21790120535297 101.59121621632949,65.51792434151866 101.5,62.316044319275534 101.9256756757386,62.06974462931976 118.92229729739483,62.35122997488361 117.70608108118176,73.43453352997312 116.94594594603404,73.92711656363099 106.33445945952553,73.57527161113103 105.17905405408237,69.88087802033988 102.19932432437781,66.08088919633883 101.83445945952553,64.07532272240496 106.06081081076991,63.758653269702336 118.375,64.18087914233911 118.55743243254256,66.81977917888435 117.46283783798572,75.40486145962495 115.82094594603404,75.51041442507994" stroke="#4DD2FF" stroke-linecap="round" stroke-linejoin="round" stroke-width="0.5"><title>2025-07-15 4.1km</title><desc>1752589649000</desc></polyline><polyline fill="none" points="146.08505030663218,61.5 146.16732900287025,63.416027070335986 145.52966910699615,67.41459130247677 145.30340269237058,67.87870152412506 145.29311785532627,69.05681921314681 144.38805219670758,74.57834422936139 144.42919154488482,75.19711961026769 143.74010746384738,80.3256897681058 144.562894426228,88.5 144.08979192283005,85.26366005757882 143.72982262680307,80.06391204116517 145.27254818129586,68.97351835169684 145.1799846480135,68.59271365915629 145.48852975887712,67.49789327252802 146.0953351436765,63.535033929023484 146.02334128442453,63.11850939458964 146.27017737319693,61.85702605386905 146.04391095857136,61.57140529784374" stroke="#4DD2FF" stroke-linecap="round" stroke-linejoin="round" stroke-width="0.5"><title>2025-07-13 5.0km</title><desc>1752418082000</desc></polyline><polyline fill="none" points="174.76551824639319,88.5 174.62696084659547,88.48766697220708 174.71222693880554,87.51335381839453 175.18119044601917,84.55336714761506 175.45830524573103,84.30669833299908 175.93792701442726,80.95195267667441 176.1937252910575,77.48610700756399 175.49028003029525,72.6633598826229 175.12789913837332,68.62986661158357 174.91473390778992,67.84042104388209 174.46708692365792,67.12498156059883 174.5630112774088,66.93995342133712 175.07460783066927,67.01396471092448 174.85078433866147,64.67025194838789 174.3391877852846,64.02880687867582 174.37116256990703,62.56087174406275 174.0087816780433,61.5493430775241 173.7849581859191,61.5493430775241 173.97680689336266,61.5 174.3391877852846,62.400508005943266 174.328529523802,64.04114239279443 174.7974930309574,64.47288459591073 174.85078433866147,64.71959373632853 175.07460783066927,66.9769590717624 174.552353015868,66.95228863939701 174.43511213903548,67.08797595536453 174.90407564630732,67.76641025853314 175.1172408768325,68.51885113905155 175.5542295994237,73.31709386999137 176.2150418140809,77.39976795137045 176.2043835525983,78.97852955578855 174.90407564630732,87.85868089432188" stroke="#4DD2FF" stroke-linecap="round" stroke-linejoin="round" stroke-width="0.5"><title>2025-07-12 5.1km</title><desc>1752325602000</desc></polyline><polyline fill="none" points="24.837323767947964,118.5 24.574942748527974,118.48785562253761 25.162676231993828,114.44370929338038 25.40406676987186,114.32226134106168 26.075762179505546,109.81645507521898 26.180714587273542,107.54526999294467 25.561495381465647,103.47646149610227 25.089209546567872,98.5329763629561 24.459495100018103,97.2575968792953 24.543457026185934,97.12398490729538 25.068219065025914,97.20901072494598 24.82682852714788,94.74323744091816 24.354542692250106,94.22092425169103 24.33355221070815,92.58108893202007 23.808790171926375,91.5 24.36503793299198,92.71470598570158 24.354542692250106,94.20877740618016 24.837323767947964,94.75538423210673 25.099704787367955,97.17257109619823 24.59593323006993,97.11183835697011 24.480485581618268,97.30618301384675 25.11020002810983,98.63014757489873 25.57199062226573,103.45216968598834 26.191209828015417,107.46025153128721 26.08625742030563,109.75572876309889 25.07871430576779,116.45972727240587" stroke="#4DD2FF" stroke-linecap="round" stroke-linejoin="round" stroke-width="0.5"><title>2025-07-10 5.0km</title><desc>1752149320000</desc></polyline><polyline fill="none" points="51.213548945612274,91.5 51.27678821166046,93.1830451440037 51.73527289042249,92.94522450209479 52.71548151422758,93.27451453798858 53.774739220389165,93.1830451440037 54.96047545870533,93.62209781139973 61.07887444837252,94.42702492090757 61.25278242997592,94.66484360549657 59.845708760549314,103.64684241666691 59.165886650560424,103.70172086940147 59.03940811846405,103.93952730449382 58.80226087081246,105.53099305590149 58.97616885241587,106.22611161459645 57.90110132971313,112.28084664086055 50.027812707354315,112.04305122040387 49.75904582662042,111.86013145260222 48.74721756996587,118.5 49.80647527612746,111.96988333557965 52.873579679231625,112.02475925194449 53.90121775242733,111.62233547664073 54.04350610106485,112.04305122040387 57.948530779220164,112.1710949473927 60.66781921905931,95.14048003232165 60.58877013658639,94.51849368296098 52.44671463343548,93.0915757034818" stroke="#4DD2FF" stroke-linecap="round" stroke-linejoin="round" stroke-width="0.5"><title>2025-07-08 5.1km</title><desc>1751976330000</desc></polyline><polyline fill="none" points="71.7404842817923,118.25415402713406 71.68254029483069,118.5 72.04951887985226,118.34355259449512 72.16540685400832,117.09196934434294 72.84142003708985,116.53322452242719 72.97662267368287,115.95212840189924 74.92740357317962,102.43003512376163 75.10123553453013,98.33971749727789 74.63768363767304,95.3222212989931 75.69999006809667,95.27751734030608 75.97039534128271,95.67985264111485 79.69812517904211,96.2162985636096 82.69189784664195,96.17159478676331 84.87445469456725,97.04331679685856 91.82773314823862,98.07149728978402 93.10250086477026,91.5 98.31745970516931,92.66231994012196 93.6626260735793,91.56705708669324 92.79346626682673,95.43398115586024 92.6582636302337,98.11620068043703 79.64018119184766,96.3727617112163 75.97039534128271,95.7022045807098 75.64204608101863,95.21046138522797 74.579739650595,95.38927721993241 75.0046622226946,97.17742756856023 75.0819208722096,101.04425297446141 72.89936402416788,116.01917803267133" stroke="#4DD2FF" stroke-linecap="round" stroke-linejoin="round" stroke-width="0.5"><title>2025-07-06 5.0km</title><desc>1751807521000</desc></polyline><polyline fill="none" points="105.6096013794886,116.82643208399531 106.77941321220715,108.50764349047677 102.99347673542798,108.23690888327837 101.80239559675101,108.65531678503612 103.35505493823439,108.50764349047677 103.14236187783536,108.26152113279386 107.05591419071425,108.48303126599058 107.33241516945418,108.23690888327837 107.20479933312163,107.47392790745653 108.79999728663824,97.4072764031589 108.6511121444637,92.38610064782551 111.39485262474045,92.11534801613016 128.19760440313257,94.8720879327011 128.17633509717416,94.0598374686524 109.69330814073328,91.5 109.99107842554804,97.57956980200834 108.055571575067,111.26419680798426 108.58730422623921,112.1010014286876 108.09811018710025,113.0116384660796 108.20445671735797,114.9805717071722 107.4600310055539,115.15285260422388 107.11972210893873,118.5 105.39690831897315,118.30311025716946 105.50325484923087,116.85104346064327" stroke="#4DD2FF" stroke-linecap="round" stroke-linejoin="round" stroke-width="0.5"><title>2025-07-05 4.8km</title><desc>1751729502000</desc></polyline><polyline fill="none" points="149.34566448954865,118.5 149.6128736329265,118.3047179729183 149.65506455022842,117.19811532145832 150.02071916748537,115.58701837950503 150.2176101152436,115.52192321291659 150.4707556195208,113.16220555844484 144.9718727217405,112.93436890971498 145.32346369989682,111.7138099144795 145.84381834743544,106.21304193063406 145.90007290401263,102.19313043069269 145.7031819562544,101.65604959113989 145.91413654305506,98.36842457647435 145.90007290401263,91.5 138.51666236348683,94.15300461303559 138.36196233308874,94.52735141740413 138.41821688966593,94.20183250671835 142.39822676189942,92.68816087656887 142.46854495751904,96.04100565695262 142.86232685303548,96.88734372450563 145.8016274300753,96.88734372450563 145.81569106923416,101.18406797210628 146.12509112991393,101.3305451751803 146.23760024289368,101.85135192307644 151.38489216263406,102.17685528020957 151.63803766691126,103.46258707126253 151.60991038853535,105.80617288773647 149.8378918589442,117.89787965167488" stroke="#4DD2FF" stroke-linecap="round" stroke-linejoin="round" stroke-width="0.5"><title>2025-07-03 5.2km</title><desc>1751545471000</desc></polyline><polyline fill="none" points="174.5268631046638,118.5 175.168226451613,114.54589664766536 175.43108028237475,114.36339641709492 176.10398608905962,109.37494904701452 176.15655685518868,107.64719441740453 175.0105141531676,98.4726428541544 174.4532640320831,97.31664813787938 174.56891971756704,97.15845851862105 175.04205661290325,97.24363757034735 174.82125939504476,94.88293854891526 174.3060658868635,94.22582847361628 174.31658004008932,92.72906427567796 173.8224148383597,91.5 174.35863665299257,92.83858424209757 174.3060658868635,94.25016594817134 174.7792027821415,94.71257702404546 174.8528018547222,95.08980578878982 175.04205661290325,97.23146913808887 174.5268631046638,97.19496383392107 174.4532640320831,97.35315340491798 175.02102830645163,98.4726428541544 175.56776427431032,103.68056478968356 176.1775851615821,107.61069229005079 175.99884455668507,110.33615385473968 174.8422877014964,118.08634607310523" stroke="#4DD2FF" stroke-linecap="round" stroke-linejoin="round" stroke-width="0.5"><title>2025-07-01 5.0km</title><desc>1751376396000</desc></polyline><polyline fill="none" points="24.05114498367766,148.5 24.246115192538127,148.25935323357407 24.20712115080096,147.3719649011182 24.519073484872933,147.07115408949903 24.74003972153878,145.8979860827676 25.077988083474338,141.7617426396173 25.545916584611405,140.1523366782203 26.065837141533848,135.9256825432094 25.93585700233234,133.50395086301432 25.207968222675845,129.18685260904022 24.7140436937334,123.9520139771339 23.934162858466152,122.01146639265062 24.623057596210856,122.14685425945208 24.64905362407444,121.5 24.64905362407444,122.11676807749609 24.05114498367766,121.99642328869959 23.947160872339737,122.14685425945208 24.441085401340388,122.88396380489576 24.74003972153878,123.92192816233728 25.2859563062666,129.75846170312434 26.065837141533848,134.94796955458878 26.000847071874887,137.36967760315747 24.363097317807842,147.98862515375367" stroke="#4DD2FF" stroke-linecap="round" stroke-linejoin="round" stroke-width="0.5"><title>2025-06-30 4.1km</title><desc>1751292736000</desc></polyline><polyline fill="none" points="41.80313588847639,136.66440344061994 41.5,134.4734598604191 41.60452961671399,134.24346896374482 49.73693379794713,133.85611486788548 51.03310104529373,133.97716315856815 53.14459930313751,133.77138099104195 56.31184668990318,133.80769551710546 68.5,133.03298321942566 64.86236933799228,133.28718624914472 64.01567944255657,133.56559846693563 62.4477351916139,133.4929692556325 54.513937282259576,133.90453419898404 47.13414634147193,134.03768725762347 46.91463414632017,134.23136416738998 47.426829268282745,136.96701678057434 47.18641114985803,136.94280774176877 46.89372822298901,135.51446571711858" stroke="#4DD2FF" stroke-linecap="round" stroke-linejoin="round" stroke-width="0.5"><title>2025-06-26 5.0km</title><desc>1750950176000</desc></polyline><polyline fill="none" points="98.5,136.10503620783857 98.06404736277182,133.89496379215416 86.4483315392863,134.96074029371084 85.20828848227393,134.971958938826 80.73250807315344,134.41102528154443 71.5,134.80367914179078 80.42249730892945,134.3998065792257 85.21797631861409,134.9831775828352 93.48170075350208,134.23152590745303" stroke="#4DD2FF" stroke-linecap="round" stroke-linejoin="round" stroke-width="0.5"><title>2025-06-24 5.0km</title><desc>1750769966000</desc></polyline><polyline fill="none" points="128.5,136.08125815037783 128.130403458199,133.9187418496149 116.6340057636844,135.01126839474455 115.233429394837,135.05632080390933 110.7010086455266,134.47063805232028 101.5,134.8761110570922 110.4578530259314,134.47063805232028 115.2237031700206,135.05632080390933 124.959654178645,134.18905870145682" stroke="#4DD2FF" stroke-linecap="round" stroke-linejoin="round" stroke-width="0.5"><title>2025-06-22 5.0km</title><desc>1750563938000</desc></polyline><polyline fill="none" points="145.92269060903345,148.5 144.52724332752405,140.1631483968813 144.50768098243861,137.8899853021794 144.63157583452994,136.9384079419906 144.55332645427552,134.4914385842203 144.579409581027,134.06849741340557 144.72286677817465,133.82681565982057 144.579409581027,133.71352706628386 144.57288879930275,132.16523225016135 142.98833884883788,122.63306504517823 142.59057116578333,121.5 142.99485963050392,122.48954443218827 144.55332645427552,132.00662461162574 144.63809661622508,136.64386961449054 144.52724332752405,137.89753745454072 144.5207225457998,140.08762914865656 145.59013074287213,146.4913878494408 145.74010872171493,146.92936055468454 147.40942883418757,146.8387457246572" stroke="#4DD2FF" stroke-linecap="round" stroke-linejoin="round" stroke-width="0.5"><title>2025-06-21 8.0km</title><desc>1750517001000</desc></polyline><polyline fill="none" points="177.73922796652187,148.5 175.45210558676627,134.43581285400433 171.42747938341927,134.35368332975486 164.1760603650473,133.65558102146315 164.31789741187822,132.91641123416775 164.0342233182164,131.49966155918082 164.4242751969723,122.23921169007372 164.37108630430885,121.58213476624223 164.01649368740618,121.5 163.57325291610323,132.89587870138348 164.24697888852097,132.97800882003503 164.2824381501414,133.67611347688944 175.5052944793133,134.41528047611064 176.87047605484258,143.20294697614736 177.29598719533533,144.3732381197624 186.42674708389677,144.0857988196658" stroke="#4DD2FF" stroke-linecap="round" stroke-linejoin="round" stroke-width="0.5"><title>2025-06-19 5.0km</title><desc>1750345525000</desc></polyline><polyline fill="none" points="38.5,165.6759281525956 38.25217391308979,164.20323694503895 30.608695652190363,164.92825781260763 29.623913043469656,164.95091460038384 26.35000000000582,164.5733005658767 14.219565217383206,165.12461641010304 13.169565217394847,165.29831781263056 11.5,165.79676305496105 13.854347826068988,165.1623776191991 18.11956521740649,164.973571381277" stroke="#4DD2FF" stroke-linecap="round" stroke-linejoin="round" stroke-width="0.5"><title>2025-06-17 5.1km</title><desc>1750166247000</desc></polyline><polyline fill="none" points="42.43103448266629,175.1887884356256 41.5,169.20505966164637 62.54137931042351,168.5851160576858 59.11982758634258,155.08076648047427 63.262931034551,155.32336567013408 68.5,154.8112115643744 60.23706896556541,155.2964102156111 63.286206896649674,167.4530413786124 54.25517241389025,167.88430849451106" stroke="#4DD2FF" stroke-linecap="round" stroke-linejoin="round" stroke-width="0.5"><title>2025-06-16 3.2km</title><desc>1750084948000</desc></polyline><polyline fill="none" points="98.5,166.24813276056375 98.08629032265162,163.75186723943625 84.81491935480153,164.97479149090213 83.61733870970784,164.9873988944746 78.36975806450937,164.34441967524617 71.5,164.6722134202937 78.15201612905366,164.3318122061537 83.60645161295542,164.96218408609275 94.86370967747644,164.0166250615439" stroke="#4DD2FF" stroke-linecap="round" stroke-linejoin="round" stroke-width="0.5"><title>2025-06-15 4.6km</title><desc>1749956754000</desc></polyline><polyline fill="none" points="128.5,166.08587058149715 128.1713211600436,163.91412941849558 116.60955961339641,164.97761628103763 115.40118152525974,165.0000053674812 110.31632653065026,164.42908223781706 101.5,164.83208710800682 110.49033297528513,164.42908223781706 115.32384532765718,165.0000053674812 117.84693877556128,164.876865335631 118.32062298600795,164.72014145906724 124.4495166487759,164.17160612992302" stroke="#4DD2FF" stroke-linecap="round" stroke-linejoin="round" stroke-width="0.5"><title>2025-06-14 5.1km</title><desc>1749906363000</desc></polyline><polyline fill="none" points="158.5,166.6031278822411 158.17538896744372,164.4140393822163 146.98585572838783,165.49753315105045 145.47736916545546,165.5085891541603 140.89462517679203,164.95578761938668 132.26379066478694,165.36486102611525 132.14922206505435,165.1105723330984 132.196958981629,163.40792833494925 131.5,163.39687211776618 132.22560113156214,163.4300407659539 132.14922206505435,165.09951628942508 132.2924328147201,165.36486102611525 141.13330975954887,164.9447315599682 145.68741159827914,165.51964515614236 154.7574257425731,164.70149796747137 154.74787835928146,164.2592536746306 157.65983026870526,164.1044677462196" stroke="#4DD2FF" stroke-linecap="round" stroke-linejoin="round" stroke-width="0.5"><title>2025-06-12 5.9km</title><desc>1749735885000</desc></polyline><polyline fill="none" points="188.5,173.49395450744487 187.63929313933477,169.16043322924816 163.98856548860203,171.26220208083396 161.76195426192135,165.17351563402917 161.5,157.56782958049735 165.91580041579437,157.37280841091706 169.67671517666895,157.61116759384458 169.88253638264723,156.9177583195269 169.4896049896488,156.7660747392365 161.61226611223537,156.50604549255513 161.78066528064664,164.95683318760712 162.43555093556643,167.42699998401804 163.72661122656427,170.50383427276392 174.2047817048151,169.59378933210974 174.41060291056056,170.41716349385388 187.5831600832753,169.13876540087222 188.38773388788104,173.42895234079333" stroke="#4DD2FF" stroke-linecap="round" stroke-linejoin="round" stroke-width="0.5"><title>2025-06-10 5.3km</title><desc>1749559786000</desc></polyline><polyline fill="none" points="12.20892723184079,187.81136312570015 11.560765191330574,185.1843418331846 11.5,183.14368852811458 29.87134283571504,182.6745702677872 30.701800450100563,185.74727749169688 30.094148537144065,185.72382186680625 29.911852963268757,186.14602274999197 30.29669917479623,188.32738164174953 30.19542385591194,189.80506462824997 30.863840960199013,192.76040213982924 32.58552138041705,192.69003740198968 35.13765941490419,202.5174374926719 35.17816954245791,202.96306144281698 34.53000750183128,203.15069232168025 35.117404351127334,202.98651531108771 35.319954988663085,203.36177687748568 34.79332333081402,203.45559217360278 34.97561890468933,204.32338184933178 36.190922730602324,207.4192534990143 37.04163540888112,207.3254398182762 38.5,206.52802198873542 36.96061515377369,206.85637084134214 34.22618154541124,195.95024766400456 33.90210052521434,195.01206239295425 33.17291822959669,195.01206239295425 32.62603150785435,192.6196726425842 32.03863465867471,192.85422175684653 30.84358589653857,192.69003740198968 30.175168792251498,189.99270623335906 30.03338334581349,186.5213117737876 28.91935483866837,182.5807465009857 11.560765191330574,183.1906003015465 12.289947486831807,187.95209556295595" stroke="#4DD2FF" stroke-linecap="round" stroke-linejoin="round" stroke-width="0.5"><title>2025-06-08 5.0km</title><desc>1749355299000</desc></polyline><polyline fill="none" points="68.5,196.11104457739566 68.02512562810443,193.88895542260434 59.322325915214606,194.61843407912238 56.7056712131598,194.988782932116 55.251974156475626,194.988782932116 50.648600143555086,194.4276478202446 41.5,194.83166538903606 50.212491026555654,194.4276478202446 55.203517587971874,195.00000560516492 65.69921033742139,194.05729707995488" stroke="#4DD2FF" stroke-linecap="round" stroke-linejoin="round" stroke-width="0.5"><title>2025-06-07 5.3km</title><desc>1749293029000</desc></polyline><polyline fill="none" points="98.5,196.06960941148282 98.10136838321341,193.9303905885099 85.78267915017204,195.05630039593234 80.78519985597814,194.48208782799338 71.5,194.86489653825993 80.74630896648159,194.45956962725177 85.18959308607737,195.05630039593234 94.70813827874372,194.18935086035344" stroke="#4DD2FF" stroke-linecap="round" stroke-linejoin="round" stroke-width="0.5"><title>2025-06-05 5.1km</title><desc>1749128617000</desc></polyline><polyline fill="none" points="101.87795275589451,194.8291006013751 101.5,192.3535048525082 101.64173228346044,192.24408520200814 112.23622047243407,191.87479322293075 114.23228346457472,199.19205598090775 124.69685039372416,199.05528837315796 128.5,198.8227831201075 125.37007874023402,198.93219740698987 124.79133858269779,190.80794401909225 114.77559055120219,191.39607988562784 112.62598425202304,191.32769212657877 112.8149606299121,191.87479322293075 107.26377952756593,192.03892311688105" stroke="#4DD2FF" stroke-linecap="round" stroke-linejoin="round" stroke-width="0.5"><title>2025-06-03 5.2km</title><desc>1748952979000</desc></polyline><polyline fill="none" points="153.82812387138256,186.95102627472806 153.2358336073812,186.07437200300046 152.81598228102666,185.15430930953153 152.54607785696862,184.9025923143563 151.87881414181902,184.84183292830858 151.3689946740924,184.25159663868544 151.13657697557937,183.479075319985 150.79169910034398,182.9495903725183 150.3793451190868,181.5 149.18726724601584,182.0121335466174 148.6324637075886,182.07289494965516 147.1929734457517,182.6110654857912 146.57819114642916,183.4009547968526 146.57819114642916,183.60059599143278 144.08907256869134,186.76875236649357 144.0740778784384,186.95102627472806 143.39181947309407,187.88842879005097 142.79952920912183,188.43524216420337 142.69456637755502,188.3397670659033 142.27471505114227,188.7043077751805 141.99731328192865,188.53939669500687 141.9898159368604,188.695628252608 141.95232921125717,188.46996035530174 142.34219115716405,188.7477053748662 142.28221239626873,189.06016744037333 141.38253098263522,190.05830247803533 139.84557523432886,190.40547714347485 139.84557523432886,190.24924871899566 139.74061240273295,190.44019453226792 139.3207610763493,190.53566727857833 138.9533911657636,190.43151518639206 138.33860886647017,190.48359124838316 138.23364603484515,190.38811844377778 137.9862336461083,190.52698794243042 137.24399647986866,190.26660744694527 137.1465309933701,189.1296032993996 136.86163187905913,188.8778980413117 135.45962834282545,189.2337569819574 134.9348141848459,189.55489670216775 135.5346017939446,192.15000843884627 136.4792672782496,195.0488024101578 138.47356107848464,202.8420772903337 138.75096284769825,203.64913522416464 141.1051292134216,208.4132248777314 141.4050230179564,208.5 142.4396566436917,208.17025406586617 143.14440708435723,208.37851480412792 144.43395044392673,208.10951125479914 144.41145840854733,207.5975344143153 144.75633628378273,207.50208076529088 145.37861592823174,207.7884413920401 145.85094867038424,207.56282400886266 146.04587964335224,207.84918443171773 147.2604495517735,208.11818880186183 147.97269733759458,207.98802550288383 148.69244246848393,207.45001509351277 148.81989733543014,206.4347281429291 149.35970618363353,205.68844114096282 149.2172566264635,204.94214761032345 149.3896955640812,204.57767630389571 149.0223256534955,204.1698137098865 148.78990795501159,203.56235516754532 148.6999398136104,202.65983734526526 149.18726724601584,202.2693218661734 149.92950441225548,202.5730562821991 150.34185839351267,202.5470219460476 150.44682122510858,201.98294271186023 150.27438228749088,201.28868622577284 150.13193273032084,201.22793851438473 150.27438228749088,201.15851250554988 150.10944069499965,201.10644296182727 150.24439290701412,201.18454726548953 150.25938759726705,200.77666844679334 150.06445662429905,200.32539599156007 149.17976990086026,200.26464759409282 148.76741591963219,199.95222658084094 148.93985485722078,198.77195909165312 149.6446052979445,197.5656394122998 150.1844141461188,196.96681251468544 150.43182653485565,196.88002565894567 150.96413803796167,196.14233381917438 151.90130617716932,195.2484163326153 152.73351148478105,194.20694724864734 152.49359644114156,193.7209239898366 151.75135927490192,193.71224497790536 151.65389378840337,193.42583708835446 151.93879290271434,192.74019005086302 152.2686760877259,192.42774147097953 152.57606723741628,192.47113717553293 152.70352210430428,192.3149125357886 152.4411150253727,191.71604876507627 152.79349024567637,190.97831225095433 153.12337343071704,190.78736764272617 153.40077519993065,190.90019859925815 153.36328847432742,190.69189517828636 154.19549378196825,190.3100042514052 154.2704672330874,190.0756612448895 154.99770970913232,189.63301158633112 155.0651858151541,188.9994110173211 154.11302298569353,187.18537786986417 153.96307608339703,187.11594042734941" stroke="#4DD2FF" stroke-linecap="round" stroke-linejoin="round" stroke-width="0.5"><title>2025-06-02 11.5km</title><desc>1748829019000</desc></polyline><polyline fill="none" points="188.5,196.26263021256455 188.00541215651901,193.73736978744273 173.7410491257324,195.06509025622654 167.82847626972944,194.3882148791963 161.5,194.66156882866198 167.90716069936752,194.3621811392004 173.08909242291702,195.0390566542119 187.98293089086656,193.7503867218038 188.48875936720287,196.18453012289683" stroke="#4DD2FF" stroke-linecap="round" stroke-linejoin="round" stroke-width="0.5"><title>2025-06-01 4.9km</title><desc>1748740054000</desc></polyline><polyline fill="none" points="38.5,238.0111600077944 38.402232951135375,238.218719774668 38.206698853347916,238.06776724004885 37.554918527428526,234.44486948511621 16.95866022934206,236.23745796419098 15.052202776132617,230.8973800696549 14.970730235392693,224.17960747845063 14.514484007260762,221.65094452886842 11.5,211.78128022531746 13.487929993949365,218.38627634763543 14.025648762879428,219.40531190379988 14.905552202835679,223.19833939056844 15.78545564279193,223.44365690021368 14.872963186528068,223.4247863341152 15.052202776132617,230.2746754460095 15.671394085686188,232.82209020935989 16.746831623429898,235.48268598319555 17.023838261899073,235.65250994720554 25.85546167771099,234.7467803391337 26.099879299930762,235.46381664427463 33.122812311397865,234.78451916128688" stroke="#4DD2FF" stroke-linecap="round" stroke-linejoin="round" stroke-width="0.5"><title>2025-05-31 5.5km</title><desc>1748696141000</desc></polyline><polyline fill="none" points="66.60649350646418,232.45134619038436 65.99285714281723,228.4922928003798 43.779220779193565,230.48198074942047 41.72792207787279,224.63467791416042 41.5,217.58926211578364 49.03896103880834,217.67047870339593 41.60519480518997,217.54865380961564 41.74545454536565,224.53316072409507 42.288961038924754,226.70561729859037 43.65649350639433,229.83228891035833 63.32792207784951,227.94410997556406 65.08116883109324,227.84259447203658 65.16883116879035,228.59380797277845 68.5,228.32986841695674" stroke="#4DD2FF" stroke-linecap="round" stroke-linejoin="round" stroke-width="0.5"><title>2025-05-29 5.0km</title><desc>1748526381000</desc></polyline><polyline fill="none" points="87.86687797133345,222.34929061686853 87.26782884297427,217.44378960411996 97.40887480182573,216.9482789465983 98.5,220.937111078194 97.32329635485075,217.04738115885993 87.2250396196032,217.51811611559242 87.50316957198083,219.97087824605114 87.1180665610591,217.54289161435736 72.69809825660195,218.88076479898882 74.85895404114854,229.7073565380706 75.69334389851429,232.23431770293973 75.13708399352618,232.58115346009436 76.01426307437941,234.90989501531294 74.83755942934658,231.83793337465613 71.92789223440923,218.93031551635067 76.97702060220763,218.211829127089 86.11251980974339,217.64199358428596 86.00554675119929,216.92350338718097 72.59112519805785,217.8401974028675 71.84231378755067,215.0901049847016 71.5,215.38741377313272 71.67115689371713,218.03840105980635 81.79080824076664,217.04738115885993" stroke="#4DD2FF" stroke-linecap="round" stroke-linejoin="round" stroke-width="0.5"><title>2025-05-27 6.0km</title><desc>1748352132000</desc></polyline><polyline fill="none" points="124.90205011388753,227.0120401615859 125.0096810934192,226.94081911250396 124.6637243735895,225.21369089363725 115.56890660591307,226.08616199400421 114.51566059229663,226.1039674359272 110.72551252850099,225.65883029899123 101.66913439636119,226.059453824324 101.5,223.10369925123814 102.57630979499663,222.9879598384141 104.06007972668158,223.09479622493382 104.0677676537598,225.65883029899123 110.94846241458436,225.382844134896 115.13069476082455,225.7923716782534 124.64834851937485,224.8486748884825 128.33855353077524,224.71513206644886 128.5,225.00892600539373 128.39236902049743,225.04453732479305 124.98661731209722,225.18698245715495" stroke="#4DD2FF" stroke-linecap="round" stroke-linejoin="round" stroke-width="0.5"><title>2025-05-25 7.6km</title><desc>1748179850000</desc></polyline><polyline fill="none" points="158.48230668413453,226.49058949661412 158.41153342067264,225.90665418278513 158.06651376141235,225.90665418278513 157.84534731321037,224.8104857486178 157.66841415461386,224.5646145519131 149.1313892529579,225.29198176666978 147.73361730010947,225.5480957301843 142.12483617296675,225.02562255236262 131.6503931847983,225.49687298970093 131.5,223.7143053600521 134.10091743117664,223.5094105033786 134.08322411531117,225.0051333528172 134.42824377457146,225.04611174775346 141.77981651376467,224.7285287499035 147.10550458711805,225.18953599854285 158.16382699867245,224.12409382039914 158.5,226.37790048967872" stroke="#4DD2FF" stroke-linecap="round" stroke-linejoin="round" stroke-width="0.5"><title>2025-05-24 6.6km</title><desc>1748094255000</desc></polyline><polyline fill="none" points="188.5,226.2030372157751 188.20628525386564,223.79696278423216 177.0886381950113,224.74176199414796 175.54391619662056,225.0063044787239 173.7816277195816,225.03149897148978 168.70145044318633,224.41423241922166 161.5,224.703970164388 168.66881547140656,224.40163511056016 173.71635777596384,225.04409621599916 185.23650282033486,224.07410463433916" stroke="#4DD2FF" stroke-linecap="round" stroke-linejoin="round" stroke-width="0.5"><title>2025-05-18 4.7km</title><desc>1747565909000</desc></polyline><polyline fill="none" points="34.99069567702827,255.96672524152382 34.69696535929688,254.2391534551498 26.86673346691532,254.90154250922205 25.560406527336454,255.13427261247125 24.509161179477815,255.12532146604644 20.93028914972092,254.6598605953768 11.554108216427267,255.08951687128865 11.5,254.8209819451513 16.77941597480094,254.4808365267163 20.35828800458694,254.41817801647267 24.540080160310026,255.08951687128865 34.79745204694336,254.17649477245868 38.25264815342962,254.0332747584689 38.39178356711636,254.05117727299512 38.41497280274052,254.17649477245868 38.5,254.12278729458922" stroke="#4DD2FF" stroke-linecap="round" stroke-linejoin="round" stroke-width="0.5"><title>2025-05-17 5.7km</title><desc>1747487200000</desc></polyline><polyline fill="none" points="67.02453131228685,253.883791242617 63.44894295971608,254.07086714363686 61.70422816107748,254.38265967639018 53.69146390102105,254.99377073609503 48.67271639406681,254.3452446144147 41.5,254.6320931306036 48.57578779413598,254.37018799035286 53.49760670121759,254.98129911229626 67.79996011161711,253.73413031590462 68.27383326686686,256.15362619120424 68.5,256.2658696840954" stroke="#4DD2FF" stroke-linecap="round" stroke-linejoin="round" stroke-width="0.5"><title>2025-05-11 5.0km</title><desc>1746965499000</desc></polyline><polyline fill="none" points="98.5,255.9700661204988 98.06420373020228,254.0299338795012 85.81348637008341,255.14018715215934 80.83572453365196,254.56823989559052 71.5,254.9607530387293 80.60329985647695,254.5794545762401 85.25179340026807,255.14018715215934 98.14167862263275,254.05236334940855" stroke="#4DD2FF" stroke-linecap="round" stroke-linejoin="round" stroke-width="0.5"><title>2025-05-10 5.3km</title><desc>1746870058000</desc></polyline><polyline fill="none" points="128.44104803493246,254.5448839132514 128.37227074237308,254.35145821388141 128.5,254.49937201412104 127.97925764194224,254.5903957937844 115.94323144108057,255.6485417861113 110.84388646291336,255.0455135788361 101.5,255.43236223729036 110.79475982533768,255.0455135788361 113.18231441045646,255.2389380756431 115.35371179040521,255.6371639255376 125.20851528388448,254.7496872296324" stroke="#4DD2FF" stroke-linecap="round" stroke-linejoin="round" stroke-width="0.5"><title>2025-05-05 5.4km</title><desc>1746434825000</desc></polyline></svg>