<?xml version="1.0" encoding="utf-8" ?>
<svg baseProfile="full" height="300mm" version="1.1" viewBox="0,0,200,300" width="200mm" xmlns="http://www.w3.org/2000/svg" xmlns:ev="http://www.w3.org/2001/xml-events" xmlns:xlink="http://www.w3.org/1999/xlink"><defs /><rect fill="#222222" height="300" width="200" x="0" y="0" /><text fill="#FFFFFF" style="font-size:12px; font-family:Arial; font-weight:bold;" x="10" y="20">Over 3km Runs</text><text fill="#FFFFFF" style="font-size:4px; font-family:Arial" x="10" y="280">Runner</text><text fill="#FFFFFF" style="font-size:9px; font-family:Arial" x="10" y="290">tang-hi</text><text fill="#FFFFFF" style="font-size:4px; font-family:Arial" x="65" y="280">SPECIAL TRACKS</text><rect fill="yellow" height="2.6" width="2.6" x="65" y="283" /><text fill="#FFFFFF" style="font-size:3px; font-family:Arial" x="70" y="285.5">Over 20.0 km</text><rect fill="red" height="2.6" width="2.6" x="65" y="287" /><text fill="#FFFFFF" style="font-size:3px; font-family:Arial" x="70" y="289.5">Over 40.0 km</text><text fill="#FFFFFF" style="font-size:4px; font-family:Arial" x="120" y="280">STATISTICS</text><text fill="#FFFFFF" style="font-size:3px; font-family:Arial" x="120" y="285">Number: 80</text><text fill="#FFFFFF" style="font-size:3px; font-family:Arial" x="120" y="290">Weekly: 3.6</text><text fill="#FFFFFF" style="font-size:3px; font-family:Arial" x="141" y="285">Total: 419.7 km</text><text fill="#FFFFFF" style="font-size:3px; font-family:Arial" x="141" y="290">Avg: 5.2 km</text><text fill="#FFFFFF" style="font-size:3px; font-family:Arial" x="167" y="285">Min: 3.2 km</text><text fill="#FFFFFF" style="font-size:3px; font-family:Arial" x="167" y="290">Max: 11.5 km</text><polyline fill="none" points="20.82806896729744,51.375 21.30572674018913,48.344236954973894 21.53659466377576,48.206053853769845 22.030174362414982,44.585581539256964 22.085901102545904,42.88123789346719 21.552516589523293,39.463241343597474 21.273882888635853,36.38601287921483 21.154468445427483,35.92534094245639 20.788264152914053,35.33567744582251 20.883795707457466,35.188260972070566 21.25796096288832,35.252755708839686 21.08281977949082,33.456099439448735 20.700693561142543,32.98619884538493 20.748459338443354,32.0187487718722 20.406137934565777,31.125 20.756420301360777,32.092459617233544 20.700693561142543,32.958557558085886 21.08281977949082,33.456099439448735 21.25796096288832,35.252755708839686 20.875834744569147,35.19747450869181 20.82806896729744,35.33567744582251 21.28980481441249,36.358372629045334 22.093862065463327,43.14840739401552 21.966486659366637,45.22124745000474 21.138546519650845,50.711741368388175 21.01117111358326,50.72095332704339 20.939522447646596,50.9880997212822" stroke="#4DD2FF" stroke-linecap="round" stroke-linejoin="round" stroke-width="0.5"><title>2025-09-30 5.0km</title><desc>1759224370000</desc></polyline><polyline fill="none" points="43.446677335799905,51.375 43.49394840034074,50.736843743070494 43.67515414781519,50.60921194695402 44.46300522366073,45.385269052560034 44.61269692811766,43.41595507692546 43.81696734146681,36.67802140855929 43.66727563703898,36.067114706333086 43.328499674389604,35.483558149047894 43.383649249735754,35.37414087176876 43.78545329842018,35.43796763307182 43.596369040198624,33.56873652013019 43.21820052375551,33.15841227961937 43.25759307757835,32.19186331416131 42.87942456113524,31.125 43.23395754524972,31.982139049745456 43.22607903450262,33.149293941845826 43.60424755097483,33.60520969510981 43.80121031991439,35.40149520360137 43.70666819080361,35.474440047706594 43.383649249735754,35.35590464589768 43.33637818516581,35.46532194543397 43.80121031991439,36.54125161292177 44.02180862115347,39.285725608307985 44.581182885041926,42.65921644790069 44.62057543886476,44.00857725631795 43.6909111693094,50.79154302866664 43.50970542183495,50.84624228090979 43.42304180350038,51.27471860309015" stroke="#4DD2FF" stroke-linecap="round" stroke-linejoin="round" stroke-width="0.5"><title>2025-09-28 5.0km</title><desc>1759056716000</desc></polyline><polyline fill="none" points="66.86232466661022,31.125 66.91335172217805,31.833538184400823 67.02269541262649,31.84197312634933 66.95708919831668,32.6854629941372 66.51971443646471,35.5026570393602 66.36663326984853,35.83160460219369 66.36663326984853,36.63288167315477 65.71057112704148,40.61384889499459 65.7688877619803,40.97651227065944 65.25132762707653,44.560890683482285 65.28048594453139,45.91026365071593 65.9073897698836,51.307536310952855 66.34476453176467,51.375 65.98757514287718,48.37281280470779 66.05318135718699,48.187280822538014 65.66683365084464,45.66569142710068 65.63767533341888,44.55245703350374 66.8112976110715,36.211157862904656 66.98624751580064,35.89064633448288 66.92064130151994,35.64604459876864 67.24867237292347,33.09033508650464" stroke="#4DD2FF" stroke-linecap="round" stroke-linejoin="round" stroke-width="0.5"><title>2025-09-27 5.0km</title><desc>1758971882000</desc></polyline><polyline fill="none" points="88.44218392518815,51.375 88.52111112384591,50.76309122416569 88.72632184039685,50.54389900743263 89.62609190520016,43.657337956326955 88.76578543972573,36.377468152910296 88.33168584704981,35.49142114701681 88.39482760598185,35.37267191510182 88.71053640064201,35.50969024569349 88.78157087945146,35.445748384081526 88.6079310423811,33.64622304298973 88.22118776891148,33.15294584205549 88.26065136826946,32.138978644186864 87.86601537492243,31.125 88.26854408811778,32.12070885999856 88.24486592854373,33.1986197707447 88.63950192186167,33.71016618551948 88.7973563192063,35.43661382870778 88.39482760598185,35.37267191510182 88.3711494464078,35.518824793623935 88.83681991853518,36.61496380331664 89.16831415292108,40.08598243675078 89.63398462504847,43.282854653276445 89.53137926678755,45.091320564570196 88.7026436807937,50.59869711171632" stroke="#4DD2FF" stroke-linecap="round" stroke-linejoin="round" stroke-width="0.5"><title>2025-09-25 5.0km</title><desc>1758803583000</desc></polyline><polyline fill="none" points="111.85139060296933,31.125 111.8586801860074,32.69389784919622 111.22448645925033,36.35454419778398 111.21719687621226,37.484757235062716 110.64131981396349,40.5801126852748 110.68505731236655,40.968078255413275 110.1674969146843,44.75486439567612 110.41534273893922,47.959581913666625 110.84542813981534,51.375 111.26093437458621,51.3075363109092 110.53926565105212,44.704262601109804 112.3325030853448,32.58424466219731" stroke="#4DD2FF" stroke-linecap="round" stroke-linejoin="round" stroke-width="0.5"><title>2025-09-23 5.1km</title><desc>1758638106000</desc></polyline><polyline fill="none" points="133.59327638190007,51.375 133.49924221105175,51.33873003824556 133.52275075376383,50.58612500526215 133.6951467336621,50.42290861836227 134.0712834170845,48.192254742949444 134.61981608046335,43.395253229435184 133.77350854274118,36.367044198057556 133.3346824120381,35.460138177695626 133.4287165828864,35.351308835539385 133.79701708542416,35.38758529768529 133.62462110549677,33.59188270983577 133.2484844220744,33.16562476544641 133.26415678387275,32.07729736804322 132.85667537682457,31.125 133.2798291457293,32.158922383554454 133.25632060298813,33.17469410462945 133.6324572864396,33.573744115405134 133.60894874372752,34.1813850204926 133.8126894472516,35.37851618351124 133.43655276380014,35.333170598933066 133.37386331657763,35.45106907090667 133.84403417087742,36.54842429554992 134.17315376884653,40.0308506442816 134.64332462317543,43.13227215401275 134.51010954781668,45.12728163599968 133.8048532663379,49.79724303635885" stroke="#4DD2FF" stroke-linecap="round" stroke-linejoin="round" stroke-width="0.5"><title>2025-09-21 5.0km</title><desc>1758459157000</desc></polyline><polyline fill="none" points="146.1456002034829,34.921595951906056 146.125,35.517521505840705 146.77390640898375,35.48176605795743 146.94900813838467,35.62478778397781 147.3198118006694,35.49368454177602 149.99783825024497,35.48176605795743 150.23474059003638,35.62478778397781 152.10935910482658,35.61286931348877 152.3874618515256,35.74397242247505 153.04666836222168,35.577113894680224 156.50750254333252,35.577113894680224 158.31002034590347,35.61286931348877 158.5057222787873,35.76780933563714 159.82413530012127,35.672461653943174 166.375,35.875075384945376 165.72609359113267,40.76153583967243 165.37589013233082,41.29784227415803 158.53662258398253,41.26208858814789 158.15551882004365,47.578404048093944 158.49542217707494,41.67921424702945 164.500381485268,41.71496780591406 165.38619023404317,41.88181760333828 165.70549338759156,40.83304350593971 165.95269582915353,38.83081237438455" stroke="#4DD2FF" stroke-linecap="round" stroke-linejoin="round" stroke-width="0.5"><title>2025-09-20 5.0km</title><desc>1758380898000</desc></polyline><polyline fill="none" points="179.45240899643977,31.125 179.3220650589501,31.284204328650958 179.3293063888268,31.85398572312988 179.43792633671546,31.92101856953377 179.37275436797063,32.742166515934514 178.9382745763869,35.59936248631857 178.7282760104281,36.353444619664515 178.7644826597534,36.93156958617328 178.25758956951904,40.37509956544818 178.13448696190608,40.551042492508714 178.1851762708975,40.95319634514453 177.69276584041654,44.51384805815178 177.72897248974186,45.86266657283704 178.33000286811148,51.375 178.69206936113187,51.36662287297804 178.771723989601,51.26609728218318 178.46034680560115,48.01570385150262 178.08379765285645,45.728623483664705 178.08379765285645,44.3462914233387 179.24241043048096,36.16911406820873 179.40171968741925,35.88423876924935 179.3365477186744,35.64963484303007 179.80723415958346,32.549448854675575" stroke="#4DD2FF" stroke-linecap="round" stroke-linejoin="round" stroke-width="0.5"><title>2025-09-18 5.2km</title><desc>1758195038000</desc></polyline><polyline fill="none" points="20.804462621046696,75.36829713820771 20.788691386405844,75.54166666666424 20.970060584921157,75.5051678463933 21.048916758183623,74.84818654459377 21.22240033937851,74.72956440836424 22.018847689352697,69.27277673100616 22.1371319492755,67.7032044788939 21.293370895291446,60.58503239397396 20.84389070767793,59.66327908726089 20.9227468809695,59.489878892440174 21.301256512640975,59.57201586860174 21.143544166116044,57.810617568662565 20.741377682454186,57.33603802162543 20.780805769056315,56.3321114794162 20.362868050753605,55.29166666666424 20.804462621046696,56.368618095897546 20.780805769056315,57.34516457503196 21.143544166116044,57.78323804761021 21.3091421299614,59.581142194649146 20.9227468809695,59.50813156032382 20.867547559639206,59.65415276958083 21.246057191310683,60.320371522226196 21.387998303223867,60.995711511983245 21.64033805768122,63.85216094595671 22.12924633192597,67.06441721739975 22.1371319492755,68.48799403502198 21.734965465584537,71.41720609230106 21.56936750173918,72.42096394029068 21.372227068583015,72.60346416162793 21.16720101807732,74.47407004425622 20.98583181956201,74.93030947016086" stroke="#4DD2FF" stroke-linecap="round" stroke-linejoin="round" stroke-width="0.5"><title>2025-09-16 5.1km</title><desc>1758026219000</desc></polyline><polyline fill="none" points="44.59828871159698,55.29166666666424 44.41703043988673,55.37556257639517 44.39527944728616,55.912494379990676 44.525785402947804,56.06350582063169 44.475033086840995,56.88567437441088 44.04726356561878,59.763199846180214 43.902256948233116,60.01487369022652 43.742749669152545,62.2127926624089 43.25697750094696,64.74619921203703 43.29322915527155,65.1991842462885 42.79295632537105,69.07462132640649 43.4744874270109,75.54166666666424 43.87325562478509,75.45779123838292 43.16997353051556,68.76425752206706 43.583242390013766,65.71927511076501 43.78625165432459,64.98108065103588 44.185019852098776,61.50812272166513 44.39527944728616,60.24137949406577 44.51853507204214,60.04843014480139 44.46778275593533,59.62058432742924 44.70704367462895,58.01824009840493" stroke="#4DD2FF" stroke-linecap="round" stroke-linejoin="round" stroke-width="0.5"><title>2025-09-14 5.0km</title><desc>1757842188000</desc></polyline><polyline fill="none" points="66.80331754492363,55.29166666666424 66.92708594314172,56.38684306009236 66.43201235029846,59.705981618615624 66.22087802391616,60.45571787236986 66.27912197602564,60.76740398303082 65.90781678140047,63.55567896494176 65.63843850290868,64.73498156259302 65.67484097302076,65.18142745590012 65.17248688614927,68.91294725786429 65.42002368255635,72.14735682390165 65.84957282929099,75.54166666666424 66.27912197602564,75.44901985441538 65.5365115867462,68.95506277613458 67.32751311385073,56.59745224652579" stroke="#4DD2FF" stroke-linecap="round" stroke-linejoin="round" stroke-width="0.5"><title>2025-09-13 5.1km</title><desc>1757760467000</desc></polyline><polyline fill="none" points="89.52013024414191,55.29166666666424 89.4838033458218,56.880575567192864 89.0769420847646,59.66319436555932 88.91710373217938,59.999456161036505 88.73546924063703,62.008591916535806 88.26321956259198,64.77422620464495 88.30681184056448,65.11046723332402 87.79823526425753,68.7165663831911 87.81276602356229,69.64958743341413 88.45938481349731,75.54166666666424 88.88804221356986,75.48283199954312 88.59742702706717,72.27207676746912 88.19783114566235,69.91015900122147 88.16876962699462,68.95192403632245 89.33849575259956,60.49543981520401 89.51286486448953,60.0162692149388 89.45474182721227,59.797699247712444 89.70176473571337,58.0743388996998" stroke="#4DD2FF" stroke-linecap="round" stroke-linejoin="round" stroke-width="0.5"><title>2025-09-11 5.0km</title><desc>1757592265000</desc></polyline><polyline fill="none" points="110.84498562806402,75.45976577869442 111.00227276279475,75.37786481584044 111.02586583301309,74.78635563794523 111.20674603799125,74.65895314980298 111.3168470323144,74.01283774095646 111.56064209114993,71.71044492995134 112.0482322088792,68.97115739626315 112.11114706276567,67.07817883880489 111.28538960532751,60.49794679916522 110.83712127129547,59.65149179859145 110.91576483866083,59.50586432480486 111.3011183188064,59.53316949418513 111.12810247056768,57.81292755501636 110.74274899042211,57.312321838348 110.79779948762734,56.402122452615004 110.38885293726344,55.29166666666424 110.7899351308588,56.28379585258517 110.75061334719067,57.35783156465186 111.12810247056768,57.77651996093482 111.29325396209606,59.56047465524898 110.90790048195049,59.50586432480486 110.83712127129547,59.62418666531448 111.10450940034934,59.97915274836123 111.32471138902474,60.65267426730861 111.66287872876273,64.27504092174058 112.11114706276567,67.20559211333602 112.0482322088792,69.08036647659901 111.10450940034934,75.48706608302746 110.93149355216883,75.54166666666424" stroke="#4DD2FF" stroke-linecap="round" stroke-linejoin="round" stroke-width="0.5"><title>2025-09-09 5.2km</title><desc>1757417515000</desc></polyline><polyline fill="none" points="134.45837379756267,55.29166666666424 134.40025081930798,55.93059666535555 134.56735438181204,55.97263136070251 134.46563916985178,57.00667814199551 134.080574438849,59.5707221338962 133.8916747594776,60.08352139818453 133.65191747416975,62.68109508296038 133.2305258817505,64.82466244849638 133.26685274316696,65.27018124589085 132.78007280020392,68.71656638539571 132.7655420556548,69.74204840821767 133.04889157469734,72.37294008406025 133.43395630567102,75.49123695455637 133.85534789809026,75.54166666666424 133.84081715351203,75.21387298901391 134.06604369429988,75.00374815410032 134.06604369429988,74.88607801360195 133.71730582468444,74.63392714941438 133.1578721588885,68.9351127997652 134.26220874596038,60.96620121366868 134.50196603129734,60.13396049842413 134.42931230846443,59.814512344339164 134.7344579443452,57.603561051684665" stroke="#4DD2FF" stroke-linecap="round" stroke-linejoin="round" stroke-width="0.5"><title>2025-09-07 5.0km</title><desc>1757247375000</desc></polyline><polyline fill="none" points="155.71637251848006,75.47715404763585 155.89955807186197,75.54166666666424 155.94734560747747,74.89653841164545 156.178318696504,74.5463240086392 156.94291926699225,69.43119636570918 157.08628187398426,67.4772336124297 156.2181416428648,60.370721555555065 155.75619546489906,59.495042739785276 155.83584135762067,59.37521234912856 156.2181416428648,59.43973642531637 156.05088526807958,57.64226283595053 155.67654957211926,57.15371257179504 155.71637251848006,56.23191244932241 155.41371812598663,55.29166666666424 155.71637251848006,56.13973192146659 155.68451416140306,57.14449461696495 156.05884985736338,57.586955391045194 156.2420354107162,59.42130097965128 155.81991217911127,59.34755915954884 155.78008923269226,59.47660730538337 156.07477903587278,59.91905669635162 156.2659291785385,60.591944339030306 156.55265439246432,63.716658491801354 157.07831728472956,67.29289533014526 157.07831728472956,68.38970259117923 156.52876062467112,72.31597950110881 156.1305311608594,74.8228091760102 155.94734560747747,75.08086123846442" stroke="#4DD2FF" stroke-linecap="round" stroke-linejoin="round" stroke-width="0.5"><title>2025-09-04 5.0km</title><desc>1756985562000</desc></polyline><polyline fill="none" points="179.34849425515858,55.34234004513564 179.4360787802434,55.29166666666424 179.48716975326533,55.40990450168465 179.4579749115801,55.91663617525046 179.53826072625816,55.91663617525046 179.47987104285858,56.82874540265766 179.0857406797295,59.396110233043146 178.8229871043004,60.426411981090496 178.8594806564215,60.83177310294559 178.2317915595777,64.69949440678465 178.268285111757,65.05416726664407 177.77197280258406,68.55014736134763 177.81576506517013,70.26430612015247 178.4142593202996,75.53322315725381 178.75729871043586,75.54166666666424 178.83028581470717,75.44034449707397 178.48724642460002,72.45128496325196 178.57483094974305,72.25707681365748 178.3412722160283,71.15937005072192 178.12960961359204,68.84569449588889 178.53103868715698,65.69595240539638 178.74270128959324,64.89372020792507 179.13683165272232,61.38914141810528 179.35579296553624,60.113944767275825 179.47987104285858,59.94504308158503 179.40688393855817,59.71702526156878 179.72802719741594,57.32702306796273" stroke="#4DD2FF" stroke-linecap="round" stroke-linejoin="round" stroke-width="0.5"><title>2025-09-02 5.1km</title><desc>1756811867000</desc></polyline><polyline fill="none" points="21.837818775937194,79.45833333333576 21.80842783715343,80.9462205016971 21.41899789805757,83.65835818985943 21.176522652967833,84.58505593544396 21.18387038767105,85.30770301968732 20.588703877001535,88.92934617579886 20.125796590931714,93.01838402238354 20.155187529686373,94.25950776357058 20.73565857100766,99.01131146401167 21.308781877538422,99.70833333333576 21.176522652967833,99.64033145516441 21.073654367181007,98.83280493009806 20.853222326171817,96.72469898191775 20.912004203768447,96.51218535657972 20.52257426470169,94.02148545841192 20.507878795295255,92.82286285126611 21.69086408196017,84.45752933166659 21.85251424537273,84.11745743815845 21.940687061753124,82.64663058524457 22.374203409039183,80.30005561000144" stroke="#4DD2FF" stroke-linecap="round" stroke-linejoin="round" stroke-width="0.5"><title>2025-08-31 5.1km</title><desc>1756640573000</desc></polyline><polyline fill="none" points="44.40160368470242,79.45833333333576 44.467128077551024,81.09266817633033 44.01573781555635,83.91476848062302 43.86284756549867,84.16748919521342 43.790042684500804,84.67292831376835 43.7245182916522,85.96178412191512 43.31681095820386,88.75002455095091 43.20760363675072,88.93534234476829 43.251286565326154,89.33967063938326 42.756213374756044,92.81007410302118 42.785335327120265,94.24199438111827 43.3604938868084,99.23667575747095 43.91381098216516,99.70833333333576 43.79732317262096,99.52303960544668 43.51338413686608,96.29717793522286 43.15664022008423,94.14934146404994 43.15664022008423,92.5573797232355 43.71723780356115,89.15435374902154 44.132225625100546,85.59955869638361 44.467128077551024,84.20960923942039 44.41616466088453,83.88949636681355 44.74378662521485,81.44648900320317" stroke="#4DD2FF" stroke-linecap="round" stroke-linejoin="round" stroke-width="0.5"><title>2025-08-30 5.0km</title><desc>1756550382000</desc></polyline><polyline fill="none" points="65.84068585943896,99.6992250502226 66.11618576172623,99.70833333333576 66.99778544920264,93.5782494937157 67.12372826164938,91.52872229258355 66.60421416015015,87.86678366334672 66.38381423827377,85.0974570586186 66.2500000000291,84.48710053870309 65.84855728517869,83.85852007500216 65.90365726567688,83.71276165642485 66.31297140626702,83.77653099372401 66.11618576172623,81.92720178259333 65.75410017580725,81.5536873080564 65.77771445317194,80.45135502248013 65.37627173835062,79.45833333333576 65.78558587896987,80.49690621205082 65.7383573242696,81.50813665582973 66.11618576172623,81.95453204886871 66.29722855470027,83.75831118770293 65.90365726567688,83.72187156452856 65.84855728517869,83.8403002856503 66.17915716799325,84.35956283022824 66.3916856640717,85.23410347106255 66.6199570117169,88.10362999181234 67.12372826164938,91.40119460657297 67.02927115233615,93.3323087044264 66.22638572266442,98.84304230577982" stroke="#4DD2FF" stroke-linecap="round" stroke-linejoin="round" stroke-width="0.5"><title>2025-08-28 5.0km</title><desc>1756381580000</desc></polyline><polyline fill="none" points="89.43515557117644,79.45833333333576 89.60191301180748,80.32245712105214 89.57291171781253,81.11106705383281 89.12339166051243,83.92986651458341 88.96388454339467,84.2234859247983 88.9421335728548,85.14628298883326 88.30410510447109,88.90447724601836 88.35485736903502,89.38262809123262 87.86908569416846,92.54506486220635 87.83283407666022,93.82845957020618 87.94883925272734,93.96266962989466 87.9053373116767,94.50789575513772 88.45636189804645,99.26379259350506 89.06538907243521,99.70833333333576 88.86963033780921,99.5321948357232 88.19535025188816,93.97944587202073 88.1663489578932,92.897371277395 88.66662127969903,89.36585091545567 88.78987677930854,89.1896903640154 88.90588195534656,87.71328240038565 89.41340460069478,84.81072161319753 89.37715298315743,84.4164352544758 89.51490912970621,84.23187503546069 89.4569065416872,83.98020134477702 89.66716592333978,82.53725737894274" stroke="#4DD2FF" stroke-linecap="round" stroke-linejoin="round" stroke-width="0.5"><title>2025-08-26 5.0km</title><desc>1756206850000</desc></polyline><polyline fill="none" points="111.88704296731157,79.45833333333576 111.90160394940176,80.14913858930959 112.01809180632699,80.17441184319614 111.95256738681928,81.03369789141288 111.54485988774104,83.83052807058266 111.40653055769508,84.14221715772146 111.23907926341053,86.03759854477539 110.7367253806442,88.89322469971376 110.6566399790463,90.2157085146755 110.28533493523719,92.70057329871634 110.3508593547449,94.57891320648196 110.91145716595929,99.59041919071751 110.93329863913823,99.70833333333576 111.37012810242595,99.65779872129497 111.0570669870649,96.38982845287683 110.6712009611656,94.16618745587766 110.63479850586737,93.03749838575459 111.10074993339367,89.59237482153549 111.26820122767822,89.11223621520912 111.82879903886351,84.52129690094444 111.99625033311895,84.18433721474867 111.93800640469999,83.91476847994636 112.21466506476281,81.81715682105278" stroke="#4DD2FF" stroke-linecap="round" stroke-linejoin="round" stroke-width="0.5"><title>2025-08-24 5.0km</title><desc>1756042259000</desc></polyline><polyline fill="none" points="133.49184401956154,99.70833333333576 133.71773050245247,99.3816052858092 134.50026581811835,94.05110643247463 134.6454785571259,91.70782954551396 134.21790771454107,89.00971955758723 133.79033687195624,84.89238163970731 133.32242915747338,83.94004590071563 133.4353723989043,83.80933238131547 133.78226949757664,83.84667912013538 133.60478726102156,82.01667105397064 133.21755329036387,81.57783716721315 133.28209228545893,80.63480405853625 132.8464540684945,79.45833333333576 133.2578901623201,80.45740070806642 133.23368803912308,81.58717408023949 133.62092200980987,82.04468165637081 133.80647162074456,83.85601580244838 133.70966312810197,83.94938257354079 133.37083340372192,83.82800575262081 133.37083340372192,83.9587192454128 133.68546100493404,84.52825443518668 133.86294324146002,85.21916123484698 134.07269497556263,87.75866588260396 134.6535459315055,91.80118833390588 134.52446794128628,93.92974296208558 133.6370567585982,99.63365273921954" stroke="#4DD2FF" stroke-linecap="round" stroke-linejoin="round" stroke-width="0.5"><title>2025-08-23 5.0km</title><desc>1755956696000</desc></polyline><polyline fill="none" points="156.9649038228672,79.45833333333576 156.97223616973497,80.01830717311532 157.06755667948164,80.12012019508256 157.03089494499727,80.96855721697648 156.5909541308938,83.70046586040553 156.42964249904617,84.0483111678841 156.05569280710188,87.53516822186066 155.86505178769585,88.68893801564263 155.74040189033258,88.80770753080287 155.79906066559488,89.22339950406604 155.27113168869982,93.21902704547392 155.94570760359056,99.57261444059986 155.9677046443103,99.67440363080823 156.3636513769743,99.70833333333576 155.63774903371814,93.04936521779746 156.73026872202172,85.10880621206888 156.86958331314963,84.2434432669761 157.00156555735157,84.08224721784063 156.94290678217658,83.7598541861953 157.22886831130018,81.55397373587766" stroke="#4DD2FF" stroke-linecap="round" stroke-linejoin="round" stroke-width="0.5"><title>2025-08-21 5.0km</title><desc>1755781186000</desc></polyline><polyline fill="none" points="179.31447306307382,79.45833333333576 179.33632363329525,81.02592555844603 178.89931222959422,83.84077487132163 178.74635823830613,84.1357385817173 178.68080652775825,84.63296074802929 178.7609252850816,84.87735699157201 178.0835576094105,88.87186940470565 178.12725874979515,89.29322026039154 177.64654620570946,92.7482165717156 177.67568029928952,94.20601332388469 178.28749626444187,99.70833333333576 178.70994062133832,99.63249985517905 178.41859968553763,96.43900493557157 178.03985646902584,94.16388082916092 178.0180058988335,92.55440351409197 178.49143491950235,89.33535522827151 178.61525481721037,89.14996120954311 179.11781793145929,84.96163139137934 179.35817420348758,84.15259361920471 179.36545772687532,83.22556147172872 179.85345379431965,80.12414225262182" stroke="#4DD2FF" stroke-linecap="round" stroke-linejoin="round" stroke-width="0.5"><title>2025-08-19 5.3km</title><desc>1755607955000</desc></polyline><polyline fill="none" points="21.030586979264626,123.7752575696868 21.38321504832129,123.875 21.38321504832129,123.2040033212761 21.516430096613476,122.90477344591636 21.680989862186834,120.83733961760299 22.158996800193563,117.70889471079136 22.11197972431546,115.65947712922207 21.579119531117612,112.2225162977411 21.33619797247229,109.39304546498897 21.187310565495864,108.64938759451616 20.803337779274443,108.00548369801982 20.889535751659423,107.85130883583042 21.265672358655138,107.93293085489859 21.10111259308178,106.23699133264017 20.693631268892204,105.68376344304124 20.724975986144273,104.61357516202406 20.34100319983554,103.625 20.75632070339634,104.65892238363449 20.709303627489135,105.67469410478225 21.07760405514273,106.07374411559431 21.265672358655138,107.92386174535204 20.873863393062493,107.86944706874783 20.834682496497408,107.98734549277287 21.28918089659419,109.03028630274639 21.524266275926493,111.76001277890464 22.104143545002444,115.76829694542539 22.096307365689427,116.70232824179402 21.516430096613476,120.7194581750955 21.3440341517271,120.80106842110399 21.234327641373966,121.07310203537781 21.030586979264626,122.40605475714983" stroke="#4DD2FF" stroke-linecap="round" stroke-linejoin="round" stroke-width="0.5"><title>2025-08-17 5.0km</title><desc>1755429603000</desc></polyline><polyline fill="none" points="43.45875721646007,123.82945857521554 43.356428670929745,123.875 43.47450006962754,123.75659224742412 43.608314321551006,121.75274502034154 43.718514293665066,121.05138790704223 44.08059991640039,120.75080460699974 44.07272848978755,120.0585483241739 44.5607569378044,117.30768762372463 44.631599777058,116.06886185256735 43.77361427969299,108.88151266161731 43.32494296459481,108.00696695216175 43.41152865701588,107.90675804446073 43.78935713288956,107.9340877576833 43.62405717468937,106.16674914064788 43.24622869878658,105.6930235860782 43.269842978566885,104.6635728786714 42.868400222942,103.625 43.293457258318085,104.68179334802699 43.23835727220285,105.647472919969 43.61618574807653,106.09386844917026 43.80509998605703,107.92497785419982 43.403657230432145,107.87942832292174 43.34855724434601,108.01607684729242 43.82084283919539,108.99083027504093 44.631599777058,115.64073425866081 44.62372835044516,116.72471292347473 44.09634276953875,120.60506688652094 43.7027714404976,123.11900935259473 43.537471482297406,123.24652629439515 43.482371496240376,123.62907603127678" stroke="#4DD2FF" stroke-linecap="round" stroke-linejoin="round" stroke-width="0.5"><title>2025-08-16 5.1km</title><desc>1755350047000</desc></polyline><polyline fill="none" points="66.1318754698732,123.82032568986324 65.84837659751065,123.875 65.9822510649974,123.73831416218309 66.3602495615196,120.91342686724238 66.57287371577695,120.80407460218703 66.52562390369712,120.50335518571228 67.09262164845131,117.15892278576939 67.13199649186572,115.70993377610284 66.28149987471988,108.90210587184265 65.85625156617607,108.04539478429069 65.9428762216121,107.8813427908317 66.28937484341441,107.93602682201163 66.11612553251325,106.1405503621063 65.74600200468558,105.7212968716849 65.80112678543082,104.81898379400809 65.36012853949796,103.625 65.76962691074004,104.58201117647695 65.76175194204552,105.67572572193603 66.11612553251325,106.1040936147183 66.32087471810519,107.92691281912266 65.91137634689221,107.89045679834817 65.87200150350691,108.01805280624103 66.2106251566147,108.5648907826835 66.35237459282507,109.11172542296117 66.60437359049683,112.03723408333462 67.10049661714584,115.33629130269401 67.13987146053114,116.65770282162703 66.54137384105707,120.49424246035778 66.58862365313689,120.76762381754816 66.33662465549423,122.17096833043615 66.1318754698732,122.63570745163452" stroke="#4DD2FF" stroke-linecap="round" stroke-linejoin="round" stroke-width="0.5"><title>2025-08-14 4.9km</title><desc>1755170321000</desc></polyline><polyline fill="none" points="89.57716790036648,103.64194057478744 89.4014862223994,103.625 89.4527267118101,105.15810807799426 89.02816265673027,108.03790338344697 88.87444118855637,108.34281706249021 88.87444118855637,109.13897530040413 88.44255706356489,112.17955222811725 88.3034757352143,113.00955117787089 88.19367468648124,113.07730582946533 88.25955531571526,113.50077115451131 87.7544704915781,116.98157464131509 87.79839091107715,118.4636244847643 88.41327678391826,123.80725411975436 88.83052076905733,123.875 88.11315391742392,117.1678909261318 89.30632531348965,108.7154878224319 89.47468692154507,108.3682264853851 89.4014862223994,108.0717827362023 89.74552950839279,105.66631447819964" stroke="#4DD2FF" stroke-linecap="round" stroke-linejoin="round" stroke-width="0.5"><title>2025-08-12 5.0km</title><desc>1754999139000</desc></polyline><polyline fill="none" points="111.79603078708169,103.69284739669092 111.89131132711191,103.625 111.89864059945103,105.0582645318791 111.44422571620089,107.9756026967807 111.29031099771964,108.26393872302287 111.1363962792093,110.22290123873972 110.65266430674819,113.06373923794308 110.16160306197708,117.15946388487646 110.20557869583718,118.41442832928442 110.71862775753834,122.6625125931314 111.25366463616956,123.875 110.53539594978793,117.2103411886128 111.6201282516704,109.38335150372586 111.88398205480189,108.29786054295982 111.81801860401174,108.06040751375986 112.12584804103244,105.77064721370698 112.33839693805203,104.90561030903336" stroke="#4DD2FF" stroke-linecap="round" stroke-linejoin="round" stroke-width="0.5"><title>2025-08-10 5.0km</title><desc>1754830447000</desc></polyline><polyline fill="none" points="133.46204533151467,123.875 134.55863982258597,117.3476582725416 134.62964234358515,115.81389237441908 134.0458438375499,111.76937217336672 133.7697229225305,108.82031823752914 133.3279294584936,108.03510488766915 133.3910428105155,107.8707570384795 133.7933904295205,107.95293100068375 133.61982871152577,106.14508646004106 133.24114859948168,105.69768497010955 133.2648161064717,104.67504462136276 132.86246848743758,103.625 133.28059444451355,104.71156769151276 133.24903776848805,105.70681563505786 133.61982871152577,106.15421707947098 133.80916876750416,107.92553968831635 133.40682114849915,107.90727880874329 133.35948613449,108.0077136003747 133.80916876750416,108.97553401718324 134.1720705415355,112.56368283891061 134.59808566755964,115.17481551993114 134.63753151256242,116.6264263803896 133.72238790852134,123.10817604813928 133.46993450049195,123.37291362843098" stroke="#4DD2FF" stroke-linecap="round" stroke-linejoin="round" stroke-width="0.5"><title>2025-08-09 5.0km</title><desc>1754735080000</desc></polyline><polyline fill="none" points="156.8580746242951,103.625 156.9020318260591,105.04918742838345 156.6163100146514,107.28714712840883 156.25,108.82994802819303 156.16941179678543,110.22861649918923 155.67855637715547,113.09369447517383 155.70786117835087,113.53446697207255 155.20967955846572,116.89104270260577 155.19502715786803,118.04377494568325 155.82508038304513,123.4003806296605 156.31593580261688,123.875 155.5979681739409,118.34890728651953 155.6345991754206,116.54352471210586 156.68224581726827,109.33855745742767 156.81411742253113,108.51630400151043 156.9386628275097,108.3552430972486 156.8800532251771,108.00768956038519 157.30497284216108,105.13395972298167" stroke="#4DD2FF" stroke-linecap="round" stroke-linejoin="round" stroke-width="0.5"><title>2025-08-07 5.0km</title><desc>1754570205000</desc></polyline><polyline fill="none" points="179.1009499275824,103.625 179.14623378921533,104.20139195431693 179.297179994639,104.26252420761011 179.24434882277274,104.67298249636224 179.65190357741085,104.73411441423377 179.69718743901467,105.10963809853274 179.2820853741141,107.18808835509844 179.16132840976934,108.29715679342917 179.24434882277274,108.59407032508898 179.11604454813641,108.71632854002382 178.874530619476,110.13975067385763 177.81035987118958,117.87646739178308 178.46697586483788,123.875 177.80281256095623,117.7367585894317 178.27074579778127,114.20030393260095 178.44433393402142,113.72003343998949 178.85943599892198,110.13975067385763 179.0707606865326,108.82112115729251 179.20661227140226,108.58533758878184 179.1537810995069,108.24476018140558 179.56888316440745,105.18823587136285" stroke="#4DD2FF" stroke-linecap="round" stroke-linejoin="round" stroke-width="0.5"><title>2025-08-05 5.0km</title><desc>1754406000000</desc></polyline><polyline fill="none" points="20.943363468686584,148.04166666666424 21.293805218709167,145.13855338108988 21.5088490198832,144.97265838643216 21.84336159945815,142.72382963020937 22.090263741498347,140.91735302400775 22.106192911975086,139.79289533124393 21.524778190330835,135.80187962750642 21.30176980397664,133.1472499514275 21.102655173221137,132.45592738228152 20.800000934599666,132.0226958851199 20.871682201628573,131.8844300778219 21.261946877813898,131.92130098040798 21.078761417564237,130.10539121023612 20.70442591185565,129.70902028145065 20.736284252809128,128.5844235599361 20.39380708799581,127.79166666666424 20.74424883798929,128.70425830098975 20.70442591185565,129.6168407472578 21.094690588040976,130.09617330133187 21.269911463023163,131.91208325616753 21.166371855098987,132.0042604563132 20.784071764181135,131.930518703688 21.293805218709167,133.00898585937102 21.620353213045746,136.50239394073287 22.106192911975086,139.82054609747138 22.098228326736717,140.96343705822073 21.166371855098987,147.34124149069248 21.11858434372698,147.4979160128787 20.911505127791315,147.50713215279393 20.831859275494935,147.85734477636288 20.608850889111636,147.83891256673087" stroke="#4DD2FF" stroke-linecap="round" stroke-linejoin="round" stroke-width="0.5"><title>2025-08-03 5.0km</title><desc>1754221111000</desc></polyline><polyline fill="none" points="53.875,136.82106574964382 53.81274019983539,137.0792182053865 53.65190238278592,137.09422699969946 50.49221752496669,137.03119001233244 50.40661029977491,136.9771582018202 50.28209069946024,137.0281882476702 49.87999615680019,137.0251864827096 49.84627209836617,136.99216704798528 49.1276902382815,137.03419177668366 48.77488470406388,136.98015997166294 47.636049192922655,136.9771582018202 47.1431591083674,136.89911207883233 46.80851268253173,136.8120603906973 46.78775941581989,136.77904071775993 46.32340507300978,136.76403176330678 45.303900845494354,136.58392371511763 43.8044773251313,136.571916472858 40.675922367401654,136.9621493480281 40.253074558029766,137.15726385256494 39.7990968485683,137.29534410786255 38.57984242889506,138.03676400788936 37.93389700229454,138.36394339094113 37.536990776323364,138.4780050764548 37.30351652574609,138.481006693808 37.00778247501876,138.40896779309696 36.69388931589492,138.53803736564805 36.5875288239622,138.32792381983745 36.4604150653322,138.4119694174642 36.35664873174392,138.21686319913897 34.59002690236957,139.26141686047413 34.45513066870626,138.9222411282044 33.91035741736414,137.88067715409306 33.85847425056272,137.84465699380053 33.625,137.95872068406788 33.77805534203071,137.84165531180042 33.8532859338884,137.83265026395202 33.87663335894467,137.7576080918061 33.970023059184314,137.76361147259013 34.094542659498984,137.67956403057906 34.130860876248335,137.72158778147605 34.22425057647342,137.6615538333317 34.193120676398394,137.71858608696311" stroke="#4DD2FF" stroke-linecap="round" stroke-linejoin="round" stroke-width="0.5"><title>2025-08-02 8.3km</title><desc>1754134728000</desc></polyline><polyline fill="none" points="66.79127072985284,127.79166666666424 66.68229004601017,127.81688768121239 66.6169016356871,128.4978521673911 67.16180505498778,128.4978521673911 67.16180505498778,129.0443010967938 65.34546032396611,141.06526468157972 65.35272570286179,142.33450927591912 66.10832511098124,148.04166666666424 65.38905259751482,142.49421417090343 65.33819494501222,141.2585945848623 66.41347102579311,133.57548472448252 66.68229004601017,132.53308226559602 66.60963625676231,132.29769924789434 66.95110906616901,129.8177303356424" stroke="#4DD2FF" stroke-linecap="round" stroke-linejoin="round" stroke-width="0.5"><title>2025-07-31 5.0km</title><desc>1753965181000</desc></polyline><polyline fill="none" points="88.34906562248943,148.04166666666424 88.43639786314452,147.3067187837005 88.65869811206358,147.0402987006746 89.46850616164738,141.4636705396333 89.55583840227337,139.40565165776206 89.14299508286058,136.90656572954322 88.70633387970156,132.78108518826048 88.28555126566789,131.97250568099844 88.37288350632298,131.853055822241 88.72221246888512,131.89899809428607 88.57136587140849,130.0704776306593 88.16646184661658,129.62942192948685 88.21409761425457,128.60947237451182 87.89652583008865,127.79166666666424 88.22203690884635,128.62784994584217 88.19027973039192,129.64779929334327 88.57136587140849,130.12560944190773 88.75396964728134,131.88062118828384 88.65075881744269,131.97250568099844 88.33318703327677,131.84386736500892 88.30142985488055,131.98169412514835 88.77778753111488,133.03835896871897 89.0556628422346,136.12558720532252 89.60347416991135,140.06716283717105 89.03184495840105,144.8262255677182 88.61106234442559,147.46289570871159 88.46021574694896,147.5272037759205" stroke="#4DD2FF" stroke-linecap="round" stroke-linejoin="round" stroke-width="0.5"><title>2025-07-29 5.0km</title><desc>1753797916000</desc></polyline><polyline fill="none" points="112.11854557064362,127.79166666666424 112.10394816609914,129.33719081247546 111.76820786148892,131.70187158935005 111.50545457960106,132.4872685371156 111.33028572503827,134.64918310086796 110.8412726726383,137.23327284228435 110.8996622908453,137.689280341845 110.41794794073212,140.88970705092652 110.44714274985017,142.58698099272442 111.04563633631915,148.04166666666424 110.4836362611968,143.3047232325116 110.38145442938549,141.5061339314052 110.84857137495419,137.36838643620285 111.49815587734338,133.23887802255922 111.43246755684959,133.02775244894292 111.74631175468676,131.74409742044372 112.10394816609914,128.88958295055636" stroke="#4DD2FF" stroke-linecap="round" stroke-linejoin="round" stroke-width="0.5"><title>2025-07-27 5.0km</title><desc>1753616848000</desc></polyline><polyline fill="none" points="134.32837991471752,127.79166666666424 134.3499344456941,129.5708083189893 133.9547680443502,132.38077568043082 133.79670148377772,132.6800564590376 133.57397133027553,135.1241418504069 133.17162008525338,137.35202004337043 133.2003594598791,137.77597506999882 132.67586587264668,141.23403602620965 133.32968664579676,148.04166666666424 133.76077726547373,147.97517240162415 133.45182898803614,144.642078169265 133.0997716486454,142.3063377543658 133.08540196131798,141.05947395032126 134.07691038653138,134.06837242241454 134.40741319500376,132.6717431188663 134.33556475839578,132.34752219300572 134.82413412735332,129.38790769022307" stroke="#4DD2FF" stroke-linecap="round" stroke-linejoin="round" stroke-width="0.5"><title>2025-07-26 5.2km</title><desc>1753529066000</desc></polyline><polyline fill="none" points="156.9489272122737,127.79166666666424 156.86156131071039,128.22973896010808 156.97804917942267,128.7941748487574 156.83971983531956,130.12521740114607 156.53393917999347,132.19755757776875 156.37376836049953,132.49239851625316 156.3519268851087,133.37691504170652 155.7039631154621,137.26025214976835 155.7549265579728,137.6308865327519 155.27441409957828,141.1602536998398 155.33993852572166,143.0385907466698 155.91509737746674,148.04166666666424 156.33008540974697,147.9995544921112 156.00246327900095,144.94215350862942 156.07526819696068,144.78212115284987 155.66028016468044,142.40686778723466 155.6529996728641,141.2781774563482 157.22558590042172,130.26842956711334" stroke="#4DD2FF" stroke-linecap="round" stroke-linejoin="round" stroke-width="0.5"><title>2025-07-24 5.0km</title><desc>1753356656000</desc></polyline><polyline fill="none" points="178.39482724491972,148.0051349163623 178.49743270751787,148.04166666666424 178.84471273468807,145.15561264267308 179.07360184349818,145.00948085990967 179.01835274827317,144.72634985460172 179.61030734004453,141.0638329006033 179.6497709795076,139.95865507539565 179.05781638770713,136.0584561026044 178.81314182313508,133.17201716911222 178.33957814972382,132.1763569108225 178.41061270073988,132.0302040174647 178.79735636734404,132.10328049385862 178.59214544217684,130.26721600757446 178.25275814288761,129.90182556280342 178.2843290544697,128.91526393766253 177.8502290204924,127.79166666666424 178.24486541500664,128.69602654946357 178.23697268712567,129.86528643659403 178.60003817008692,130.24894652063085 178.8052490952541,132.0484731421384 178.70264363265596,132.1489532614214 178.42639815647271,132.0393385802745 178.33957814972382,132.1489532614214 178.61582362584886,132.54173810387147 178.81314182313508,133.19942050643294 179.16831457818625,136.8348558115904 179.62609279580647,139.80338106879208 179.6182000679546,141.01816466465243 178.75789272788097,147.00050596432266" stroke="#4DD2FF" stroke-linecap="round" stroke-linejoin="round" stroke-width="0.5"><title>2025-07-22 5.0km</title><desc>1753184035000</desc></polyline><polyline fill="none" points="11.125,165.4231428281928 11.125,162.17370997482794 13.277927580988035,153.07513988303253 30.688559322152287,156.252444804064 31.375,157.01066109715612 29.03486132528633,171.0554227134271 13.402734976960346,168.60033732946613 12.841101695084944,167.87825016470742 14.775616332888603,153.83336295682238 15.462057010736316,153.40009282712708 19.611902927746996,154.08610362187028 31.343798151123337,156.6857114554732 29.284476117230952,170.76659001928056 28.629237288143486,171.09152678362443 13.090716486913152,168.45592001391924 13.277927580988035,163.83453492386616 14.806818181998096,153.90557459380943 15.306047765887342,153.472304552095 22.981702619581483,154.77211309212726 15.150038520921953,153.5445162624237 14.276386748999357,157.5161377270415 15.05643297394272,158.27435132334358" stroke="#4DD2FF" stroke-linecap="round" stroke-linejoin="round" stroke-width="0.5"><title>2025-07-20 4.9km</title><desc>1753020627000</desc></polyline><polyline fill="none" points="44.91391049377853,151.95833333333576 44.76114724148647,152.99367781259934 44.193740875751246,154.44987213323475 43.71362779705669,156.6383241299991 43.582687866466586,158.3637936023806 43.13167255013832,161.2507182696354 43.02983038194361,161.34330019509798 43.08075146607007,161.7557093335563 42.60791282792343,165.16431852736423 42.586089506192366,166.2920744076473 43.23351471836213,172.19991790218774 43.16077031250461,171.0385802090168 43.240789158968255,172.20833333333576 43.65543227238231,172.12417898335116 42.95708597608609,165.53462812048383 44.07007538579637,157.4042686723551 44.302857484522974,156.67199217074813 44.33195524686016,155.6871963260637" stroke="#4DD2FF" stroke-linecap="round" stroke-linejoin="round" stroke-width="0.5"><title>2025-07-20 5.0km</title><desc>1752942252000</desc></polyline><polyline fill="none" points="67.12316423584707,151.96739476405492 66.99786712578498,151.95833333333576 66.80209039128385,152.95508519276336 67.02136033395072,153.0910050377206 67.00569819516386,153.38096668135404 66.73161076687393,155.229449998973 66.58282044864609,155.54658789440873 66.19909804902272,159.16188020655682 65.8780242044304,160.63876197811624 65.90934848197503,161.07366728738998 65.35334255595808,165.23234223999316 66.10512521641795,172.20833333333576 65.40816004161024,166.39202530867624 65.39249790285248,164.63437476780382 65.90934848197503,161.1280303019812 65.88585527378018,160.64782252701116 66.45752333855489,157.20474767244013 66.5749893792381,155.53752682733466 66.73161076687393,155.21132779946493 67.14665744401282,152.24829865960055" stroke="#4DD2FF" stroke-linecap="round" stroke-linejoin="round" stroke-width="0.5"><title>2025-07-17 5.0km</title><desc>1752765839000</desc></polyline><polyline fill="none" points="97.43834459467325,171.78102486135322 97.8944256757386,171.147729110613 98.875,162.8883556064975 84.21199324319605,162.22864990736707 81.56672297301702,162.43975591348135 81.88597972970456,162.22864990736707 81.40709459455684,159.24675923737232 78.6934121621307,154.9717765894893 78.625,152.5703665727924 78.94425675668754,152.38564180533285 91.69172297301702,152.59675581450574 90.77956081088632,160.90923348083743 90.20945945940912,161.278670756059 82.25084459455684,161.01478704169858 81.38429054047447,158.24399184860522 79.14949324319605,155.39400023058988 78.87584459455684,153.88982537516858 82.04560810804833,153.6523232856125 91.28125,153.9689926901192 91.4180743242614,155.94816771752085 90.59712837846018,162.38697942806175 89.36570945940912,162.46614415216027" stroke="#4DD2FF" stroke-linecap="round" stroke-linejoin="round" stroke-width="0.5"><title>2025-07-15 4.1km</title><desc>1752589649000</desc></polyline><polyline fill="none" points="112.06378772997414,151.95833333333576 112.12549675215269,153.39535363608593 111.64725183026167,156.3942768101915 111.47755201926338,156.74235947642592 111.4698383914947,157.62594774319587 110.79103914753068,161.76709150535316 110.82189365863451,162.23117304103653 110.30508059787098,166.07760065941693 110.92217081965646,172.20833333333576 110.56734394212253,169.78107837651623 110.2973669701023,165.88126736420963 111.45441113595734,157.56347209710657 111.38498848601012,157.27786857770116 111.61639731915784,156.4567532877336 112.07150135777192,153.48460878009791 112.01750596333295,153.17221537927253 112.2026330298977,152.2261028737339 112.03293321892852,152.01188730671856" stroke="#4DD2FF" stroke-linecap="round" stroke-linejoin="round" stroke-width="0.5"><title>2025-07-13 5.0km</title><desc>1752418082000</desc></polyline><polyline fill="none" points="133.57413868478034,172.20833333333576 133.4702206349175,172.19908356248925 133.53417020407505,171.4683486971262 133.88589283448528,169.24835869404342 134.09372893426917,169.06335708308325 134.45344526082044,166.54729784084338 134.645293968264,163.9479135890142 134.11771002269234,160.3308532453011 133.8459243537509,157.3057332920216 133.68605043084244,156.7136491162455 133.35031519271433,156.17706950378488 133.42225845804205,156.03829839933314 133.8059558730165,156.0938068665273 133.638088253967,154.33602229462122 133.25439083896345,153.854938492339 133.27837192744482,152.75398714138282 133.00658625850338,151.99534064147883 132.83871863942477,151.99534064147883 132.982605170022,151.95833333333576 133.25439083896345,152.63371433779685 133.2463971428224,153.8641901279334 133.5981197732326,154.18799678026699 133.638088253967,154.3730286355858 133.8059558730165,156.06605263715755 133.414264761901,156.04754981287988 133.32633410429116,156.14931529985915 133.67805673470139,156.6581410272338 133.83793065760983,157.2224716876226 134.16567219956778,160.82115373582928 134.66128136057523,163.8831592968636 134.65328766443417,165.067230500179 133.67805673470139,171.7273440040808" stroke="#4DD2FF" stroke-linecap="round" stroke-linejoin="round" stroke-width="0.5"><title>2025-07-12 5.1km</title><desc>1752325602000</desc></polyline><polyline fill="none" points="156.12799282599008,172.20833333333576 155.93120706142508,172.19922505023715 156.37200717403903,169.16611530337104 156.553050077433,169.07502933913202 157.0568216346437,165.69567463974818 157.1355359404697,163.9922858280479 156.6711215361429,160.9406794554161 156.3169071599259,157.23306560555648 155.84462132499903,156.27653099280724 155.907592769654,156.1763220138091 156.301164298784,156.2400913770398 156.12012139539002,154.3907614140262 155.76590701920213,153.99902652210585 155.75016415806022,152.769150032349 155.35659262895933,151.95833333333576 155.7737784497731,152.86936282261013 155.76590701920213,153.98991638797452 156.12799282599008,154.39987150741945 156.32477859052597,156.21276165548625 155.946949922567,156.16721210106334 155.86036418622825,156.31297059372446 156.33265002109692,157.30594401451526 156.67899296671385,160.92246059783065 157.14340737101156,163.9285219818048 157.06469306524377,165.65012990566174 156.30903572935495,170.67812878763652" stroke="#4DD2FF" stroke-linecap="round" stroke-linejoin="round" stroke-width="0.5"><title>2025-07-10 5.0km</title><desc>1752149320000</desc></polyline><polyline fill="none" points="175.9101617091801,151.95833333332848 175.95759115874534,153.22061719134217 176.30145466781687,153.04225170990685 177.03661113564158,153.28921923683083 177.83105441526277,153.22061719134217 178.72035659401445,153.54990669188555 183.30915583629394,154.15360202401644 183.4395868224674,154.3319660374691 182.38428157038288,161.06846514584322 181.87441498792032,161.10962398539414 181.77955608884804,161.2879788117134 181.60169565310935,162.48157812526915 181.7321266392828,163.00291704428673 180.92582599725574,167.5439683139848 175.02085953048663,167.3656217486423 174.8192843699362,167.22843192279106 174.0604131774744,172.20833333332848 174.8548564570956,167.31074583501322 177.15518475940917,167.35190277229412 177.92591331433505,167.05008494082722 178.03262957575498,167.3656217486423 180.96139808441512,167.4616545438912 183.0008644143236,154.68869335757336 182.9415776024107,154.22220359556377 176.83503597509116,153.15201511095802" stroke="#4DD2FF" stroke-linecap="round" stroke-linejoin="round" stroke-width="0.5"><title>2025-07-08 5.1km</title><desc>1751976330000</desc></polyline><polyline fill="none" points="11.305363211373333,196.1906155203469 11.261905221093912,196.375 11.537139159918297,196.25766444586043 11.624055140535347,195.31897700825357 12.131065027846489,194.89991839180584 12.232467005262151,194.46409630140988 13.695552679884713,184.32252634281758 13.825926650839392,181.25478812295478 13.478262728254776,178.99166597424482 14.2749925510725,178.95813800522592 14.477796505962033,179.2598894808325 17.273593884252477,179.66222392269992 19.51892338495236,179.62869609006157 21.155841020925436,180.28248759763665 26.370799861149862,181.05362296733074 27.326875648635905,176.125 31.23809477884788,176.99673995508056 27.746969555155374,176.17529281500902 27.09509970014915,179.07548586689518 26.99369772261707,181.08715051032777 17.23013589391485,179.77957128340495 14.477796505962033,179.2766534355178 14.231534560734872,178.9078460389137 13.434804737917148,179.04195791494567 13.753496667020954,180.3830706764129 13.811440654157195,183.28318973083515 12.17452301812591,194.51438352449622" stroke="#4DD2FF" stroke-linecap="round" stroke-linejoin="round" stroke-width="0.5"><title>2025-07-06 5.0km</title><desc>1751807521000</desc></polyline><polyline fill="none" points="36.70720103458734,195.1198240629892 37.584559909126256,188.8807326178503 34.74510755157098,188.67768166244787 33.85179669759236,188.99148758876254 35.01629120367579,188.8807326178503 34.85677140840562,188.69614084958448 37.79193564306479,188.86227344948566 37.99931137711974,188.67768166244787 37.90359949984122,188.10544593058876 39.09999796503689,180.55545730235463 38.98833410831867,176.78957548586186 41.04613946855534,176.58651101209398 53.64820330234943,178.6540659495222 53.632251322851516,178.0448781014711 39.76998110557906,176.125 39.993308819131926,180.68467735149898 38.54167868127115,190.9481476059882 38.94047816970851,191.57575107150478 38.57358264038339,192.25872884955606 38.653342537989374,193.7354287803755 38.095023254223634,193.86463945315336 37.839791581674945,196.375 36.547681239200756,196.22733269286982 36.62744113692315,195.1382825954788" stroke="#4DD2FF" stroke-linecap="round" stroke-linejoin="round" stroke-width="0.5"><title>2025-07-05 4.8km</title><desc>1751729502000</desc></polyline><polyline fill="none" points="69.50924836716149,196.375 69.70965522469487,196.22853847968508 69.74129841267131,195.39858649109374 70.01553937559947,194.19026378462877 70.16320758638903,194.14144240968744 70.35306671459693,192.37165416883363 66.22890454129083,192.20077668228623 66.49259777489351,191.28535743585962 66.88286376057658,187.15978144797555 66.92505467799492,184.1448478230086 66.77738646714715,183.74203719334764 66.9356024072622,181.27631843235577 66.92505467799492,176.125 61.387496772629675,178.11475345976942 61.271471749816556,178.3955135630531 61.313662667234894,178.15137438003148 64.29867007141002,177.01612065742665 64.35140871815383,179.5307542427181 64.64674513973296,180.16550779337558 66.85122057254193,180.16550779337558 66.86176830192562,183.38805097907607 67.09381834743544,183.49790888138523 67.1782001821557,183.88851394230733 71.03866912191734,184.13264146015717 71.22852825012524,185.09694030343962 71.20743279141607,186.85462966580235 69.8784188941936,195.9234097387598" stroke="#4DD2FF" stroke-linecap="round" stroke-linejoin="round" stroke-width="0.5"><title>2025-07-03 5.2km</title><desc>1751545471000</desc></polyline><polyline fill="none" points="88.39514732849784,196.375 88.87616983873886,193.4094224857472 89.07331021176651,193.27254731281573 89.57798956678016,189.53121178525907 89.61741764139151,188.23539581305522 88.75788561490481,181.35448214061762 88.33994802407688,180.48748610340408 88.42668978817528,180.36884388896578 88.78154245967744,180.4327281777587 88.61594454629812,178.66220391168463 88.22954941514763,178.16937135520857 88.23743503005244,177.04679820675665 87.86681112876977,176.125 88.26897748975898,177.12893818157318 88.22954941514763,178.1876244611267 88.58440208659158,178.53443276802864 88.63960139104165,178.81735434159054 88.78154245967744,180.42360185356665 88.39514732849784,180.39622287543898 88.33994802407688,180.51486505368666 88.76577122983872,181.35448214061762 89.17582320576184,185.26042359226267 89.63318887120113,188.20801921753446 89.49913341752836,190.2521153910493 88.63171577613684,196.06475955482892" stroke="#4DD2FF" stroke-linecap="round" stroke-linejoin="round" stroke-width="0.5"><title>2025-07-01 5.0km</title><desc>1751376396000</desc></polyline><polyline fill="none" points="110.538358737831,196.375 110.6845863944618,196.19451492517692 110.65534086310072,195.528973675835 110.88930511369836,195.303365567117 111.05502979119774,194.42348956206843 111.30849106266396,191.3213069797057 111.65943743853131,190.1142525086616 112.04937785619404,186.94426190740342 111.95189275179291,185.12796314726438 111.40597616706509,181.89013945678016 111.03553277032916,177.96401048285043 110.45062214386417,176.50859979447705 110.9672931972309,176.6101406945818 110.98679021809949,176.125 110.98679021809949,176.5875760581257 110.538358737831,176.49731746652105 110.46037065429846,176.6101406945818 110.8308140510344,177.16297285366454 111.05502979119774,177.94144612175296 111.46446722972905,182.31884627733962 112.04937785619404,186.21097716593795 112.00063530396437,188.0272582023681 110.77232298837043,195.99146886531526" stroke="#4DD2FF" stroke-linecap="round" stroke-linejoin="round" stroke-width="0.5"><title>2025-06-30 4.1km</title><desc>1751292736000</desc></polyline><polyline fill="none" points="123.85235191634274,187.4983025804613 123.625,185.8550948953125 123.70339721255004,185.68260172280134 129.80270034843124,185.39208615091047 130.7748257839412,185.48287236892065 132.35844947735313,185.328535743276 134.73388501739828,185.35577163782 143.875,184.77473741456197 141.14677700347966,184.96538968684763 140.51175958191743,185.17419885019626 139.33580139372498,185.1197269417171 133.38545296166558,185.42840064923075 127.85060975607485,185.5282654432158 127.68597560975468,185.67352312553703 128.0701219511975,187.72526258543076 127.88980836234987,187.70710580631567 127.6702961672272,186.6358492878353" stroke="#4DD2FF" stroke-linecap="round" stroke-linejoin="round" stroke-width="0.5"><title>2025-06-26 5.0km</title><desc>1750950176000</desc></polyline><polyline fill="none" points="166.375,187.07877715588256 166.04803552207886,185.42122284411744 157.33624865443562,186.22055522028677 156.40621636170545,186.22896920412313 153.04938105487963,185.80826896116196 146.125,186.10275935634854 152.8168729816971,185.79985493442655 156.41348223897512,186.23738318713004 162.6112755651411,185.6736444305934" stroke="#4DD2FF" stroke-linecap="round" stroke-linejoin="round" stroke-width="0.5"><title>2025-06-24 5.0km</title><desc>1750769966000</desc></polyline><polyline fill="none" points="188.875,187.0609436127852 188.5978025936347,185.4390563872148 179.9755043227633,186.25845129606023 178.9250720460841,186.29224060293927 175.5257564841304,185.85297853924567 168.625,186.15708329282643 175.343389769434,185.85297853924567 178.9177773775009,186.29224060293927 186.2197406339692,185.6417940261017" stroke="#4DD2FF" stroke-linecap="round" stroke-linejoin="round" stroke-width="0.5"><title>2025-06-22 5.0km</title><desc>1750563938000</desc></polyline><polyline fill="none" points="21.942017956782365,220.54166666666788 20.895432495628484,214.28902796432885 20.88076073685079,212.58415564330426 20.973681875912007,211.87047262316264 20.914994840713916,210.03524560483493 20.934557185770245,209.7180397267257 21.042150083638262,209.53677841153694 20.934557185770245,209.45181196638077 20.92966659949161,208.2905908542889 19.74125413663569,201.14146545054973 19.442928374337498,200.29166666666788 19.74614472288522,201.03382499080544 20.914994840713916,208.17163512538536 20.97857246219064,211.64956887753942 20.895432495628484,212.58981975757706 20.89054190934985,214.23238852816212 21.692598057183204,219.03520755374848 21.80508154130075,219.36368708268492 23.057071625662502,219.29572596015714" stroke="#4DD2FF" stroke-linecap="round" stroke-linejoin="round" stroke-width="0.5"><title>2025-06-21 8.0km</title><desc>1750517001000</desc></polyline><polyline fill="none" points="45.804420974920504,220.54166666667152 44.089079190045595,209.99352630718204 41.070609537593555,209.93192916398402 35.63204527384369,209.40835243277252 35.73842305893777,208.8539750922937 35.5256674886914,207.79141283605713 35.81820639775833,200.84607543422317 35.77831472828984,200.35326774134592 35.51237026555464,200.29166666667152 35.17993968707742,208.83857569270185 35.68523416639073,208.9001732816978 35.71182861260604,209.42375177434587 44.128970859514084,209.97812702375813 45.152857041102834,216.56887689877476 45.471990396501496,217.4465952564933 52.32006031292258,217.23101578142087" stroke="#4DD2FF" stroke-linecap="round" stroke-linejoin="round" stroke-width="0.5"><title>2025-06-19 5.0km</title><desc>1750345525000</desc></polyline><polyline fill="none" points="76.375,210.92361278111275 76.18913043479552,209.81909437544527 70.4565217391355,210.36286002612178 69.71793478258769,210.37985261695212 67.26250000001164,210.09664209107723 58.164673913037404,210.51012897424516 57.377173913031584,210.6404050261408 56.125,211.01423895788685 57.890760869544465,210.5384498810672 61.08967391305487,210.3968452026238" stroke="#4DD2FF" stroke-linecap="round" stroke-linejoin="round" stroke-width="0.5"><title>2025-06-17 5.1km</title><desc>1750166247000</desc></polyline><polyline fill="none" points="79.32327586197061,218.05825799338345 78.625,213.5704614129063 94.40603448275942,213.1055037099286 91.83987068966962,202.97724152702722 94.94719827582594,203.15919091927935 98.875,202.77507533994503 92.67780172417406,203.1389743283653 94.96465517242905,212.2564477006381 88.19137931033038,212.57989803754026" stroke="#4DD2FF" stroke-linecap="round" stroke-linejoin="round" stroke-width="0.5"><title>2025-06-16 3.2km</title><desc>1750084948000</desc></polyline><polyline fill="none" points="121.375,211.3527662370907 121.06471774197416,209.48056709624507 111.1111895161157,210.3977602848463 110.21300403226633,210.40721583752747 106.27731854838203,209.9249814231007 101.125,210.17082673188997 106.1140120967757,209.9155258212777 110.20483870970202,210.3883047312338 118.64778225813643,209.67913546282216" stroke="#4DD2FF" stroke-linecap="round" stroke-linejoin="round" stroke-width="0.5"><title>2025-06-15 4.6km</title><desc>1749956754000</desc></polyline><polyline fill="none" points="143.875,211.23106960279256 143.6284908700618,209.6022637305432 134.9571697100182,210.39987887744792 134.05088614395936,210.41667069227697 130.2372448979586,209.9884783450325 123.625,210.290731997673 130.36774973146385,209.9884783450325 133.99288399572833,210.41667069227697 135.8852040816564,210.3243156683966 136.2404672395205,210.2067727609683 140.83713748658192,209.79537126411742" stroke="#4DD2FF" stroke-linecap="round" stroke-linejoin="round" stroke-width="0.5"><title>2025-06-14 5.1km</title><desc>1749906363000</desc></polyline><polyline fill="none" points="166.375,211.61901257834688 166.13154172559734,209.97719620332646 157.73939179631998,210.78981652994844 156.60802687410614,210.79810853228264 153.17096888259402,210.3835073812079 146.69784299857565,210.69031243625068 146.6119165488053,210.49959591648803 146.6477192362072,209.22261291787436 146.125,209.21432075498888 146.6692008486425,209.23919724112784 146.6119165488053,210.49130388373305 146.71932461104007,210.69031243625068 153.34998231963255,210.37521533664403 156.76555869873846,210.80640053376555 163.56806930695893,210.19279014226777 163.560908769432,209.861106922639 165.74487270155805,209.74501747632894" stroke="#4DD2FF" stroke-linecap="round" stroke-linejoin="round" stroke-width="0.5"><title>2025-06-12 5.9km</title><desc>1749735885000</desc></polyline><polyline fill="none" points="188.875,216.78713254725153 188.22946985450108,213.53699158859672 170.49142411636421,215.1133182272897 168.821465696441,210.5468033921934 168.625,204.84253885202634 171.93685031181667,204.6962729748484 174.7575363824726,204.87504236205132 174.91190228692722,204.35498540630215 174.6172037422075,204.24122272108798 168.70919958414743,204.04620078607695 168.83549896045588,210.3842915573623 169.3266632016166,212.2369166546705 170.2949584199232,214.54454237122263 178.15358627855312,213.86200866574654 178.3079521828913,214.47953928704374 188.18737006239826,213.52074071731477 188.79080041585257,216.73838092225196" stroke="#4DD2FF" stroke-linecap="round" stroke-linejoin="round" stroke-width="0.5"><title>2025-06-10 5.3km</title><desc>1749559786000</desc></polyline><polyline fill="none" points="11.6566954239388,229.19185567760724 11.170573893585242,227.22158970822056 11.125,225.69109972941806 24.903507126902696,225.33926103416889 25.526350337604526,227.64379145210842 25.070611402916256,227.6261997334368 24.933889722509775,227.94285039583337 25.222524381126277,229.5788695646479 25.14656789205037,230.6871318045305 25.647880720265675,232.9036349382077 26.939141035370994,232.85086138482438 28.853244561178144,240.22141145284695 28.88362715690164,240.55562941545213 28.397505626489874,240.69635257459595 28.838053263374604,240.57321981665154 28.989966241584625,240.8546659914573 28.594992498110514,240.92502746354148 28.731714178575203,241.57586972034187 29.64319204806816,243.8977734575892 30.281226556689944,243.82741319703928 31.375,243.22934982489096 30.220461365417577,243.47561146435328 28.16963615908753,235.2960190813319 27.926575393939856,234.59238012804417 27.379688672255725,234.59238012804417 26.969523630978074,232.7980878152739 26.528975994035136,232.9739996509743 25.632689422462136,232.85086138482438 25.13137659424683,230.82786300835141 25.02503750944743,228.2243171636801 24.189516129088588,225.2688932090823 11.170573893585242,225.72628355950292 11.717460615211166,229.29740500554908" stroke="#4DD2FF" stroke-linecap="round" stroke-linejoin="round" stroke-width="0.5"><title>2025-06-08 5.0km</title><desc>1749355299000</desc></polyline><polyline fill="none" points="53.875,235.41661676637887 53.518844221078325,233.75004990028538 46.99174443644006,234.2971588926739 45.029253409884404,234.5749205324173 43.93898061738582,234.5749205324173 40.48645010768087,234.15406919852103 33.625,234.4570823751128 40.15936826990219,234.15406919852103 43.902638190978905,234.58333753720945 51.77440775305149,233.87630614329828" stroke="#4DD2FF" stroke-linecap="round" stroke-linejoin="round" stroke-width="0.5"><title>2025-06-07 5.3km</title><desc>1749293029000</desc></polyline><polyline fill="none" points="76.375,235.38554039194423 76.0760262873955,233.78112627472 66.83700936261448,234.62555863027956 63.088899891939946,234.19489920433261 56.125,234.4820057370307 63.059731724875746,234.17801055376913 66.39219481457258,234.62555863027956 73.53110370904324,233.9753464785972" stroke="#4DD2FF" stroke-linecap="round" stroke-linejoin="round" stroke-width="0.5"><title>2025-06-05 5.1km</title><desc>1749128617000</desc></polyline><polyline fill="none" points="78.90846456692088,234.4551587843671 78.625,232.5984619727169 78.73129921255168,232.51639723483822 86.677165354311,232.23942825052654 88.17421259841649,237.72737531901657 96.02263779524947,237.62479961320787 98.875,237.45042067342 96.52755905513186,237.53248138857452 96.09350393700879,231.43929134764767 88.58169291337254,231.88039324755664 86.96948818897363,231.82910242827347 87.11122047243407,232.23942825052654 82.94783464563079,232.36252567100018" stroke="#4DD2FF" stroke-linecap="round" stroke-linejoin="round" stroke-width="0.5"><title>2025-06-03 5.2km</title><desc>1748952979000</desc></polyline><polyline fill="none" points="117.87109290351509,228.54660303938 117.4268752055068,227.8891123355861 117.11198671074817,227.19906531547895 116.90955839271192,227.01027756910116 116.40911060635699,226.96470802956173 116.02674600554747,226.5220308123462 115.85243273168453,225.94263982332268 115.59377432524343,225.54552611272447 115.28450883927871,224.45833333333212 114.39045043449732,224.842433493297 113.97434778069146,224.8880045455735 112.89473008428467,225.2916324476755 112.43364335980732,225.8840494309734 112.43364335980732,226.03378032691035 110.5668044264894,228.40989760820594 110.55555840881425,228.54660303938 110.04386460481328,229.24965492587216 109.5996469068341,229.65976495648647 109.52092478313716,229.5881586327596 109.20603628834942,229.8615641647193 108.99798496143194,229.7378808545909 108.99236195263802,229.85505452279176 108.9642469084065,229.68580359980842 109.25664336787304,229.8941123644836 109.21165929720155,230.12845891361212 108.53689823695458,230.87706019185862 107.3841814257321,231.13744119093826 107.3841814257321,231.02026987257705 107.30545930203516,231.16347923253852 106.99057080724742,231.2350837922677 106.71504337430815,231.156969723128 106.2539566498308,231.1960267696195 106.17523452610476,231.12442216616546 105.98967523456668,231.22857429015858 105.43299735989422,231.0332889185447 105.3598982450203,230.18053580788182 105.1462239092798,229.99175686431772 104.09472125710454,230.25865106980564 103.70111063861987,230.4995058599634 104.15095134545118,232.44583966246864 104.85945045869448,234.6199351409523 106.35517080884892,240.4648913010824 106.56322213576641,241.07018475146106 108.3288469100371,244.64325199163432 108.55376726345276,244.70833333333212 109.32974248274695,244.46102388273357 109.8583053132752,244.61721943642988 110.8254628329305,244.41546677442966 110.80859380640322,244.03148414407042 111.06725221281522,243.95989390730028 111.5339619461447,244.17466437736584 111.8882115027809,244.0054513399773 112.03440973249963,244.22022165712406 112.94533716380829,244.4219749347285 113.47952300318866,244.324352460495 114.01933185136295,243.92084465346852 114.11492300155805,243.15937944053076 114.51977963771787,242.59966418905606 114.41294246981852,242.03994404107652 114.54227167303907,241.76659056125573 114.2667442400998,241.46069361575064 114.09243096623686,241.0050997089893 114.02495486018597,240.32821134228288 114.39045043449732,240.03532473296582 114.94712830916978,240.2631255449851 115.2563937951345,240.24359979286965 115.33511591880233,239.82054036723275 115.20578671561088,239.29984800266539 115.09894954771153,239.2542872191225 115.20578671561088,239.20221771249635 115.08208052124246,239.16316555470257 115.18329468023148,239.22174378245109 115.19454069793574,238.91583466842712 115.04834246821702,238.57738032700217 114.3848274256452,238.5318190289072 114.07556193970959,238.29750326896465 114.20489114290103,237.41230265207196 114.73345397342928,236.50756289255514 115.13831060956,236.0584427193462 115.32386990112718,235.99335257754137 115.72310352846398,235.44008369771473 116.42597963285516,234.7696455827936 117.05013361357851,233.98854376982126 116.87019733083434,233.6240263257132 116.31351945616188,233.61751706676296 116.24042034128797,233.40271114959978 116.45409467702848,232.88847587147757 116.70150706576533,232.65413943656677 116.93205042803311,232.68668621498364 117.02764157822821,232.56951773517721 116.83083626901498,232.12036990714478 117.09511768425,231.5670675215515 117.34253007301595,231.42385906537675 117.55058139993344,231.5084822827812 117.52246635573101,231.35225471705053 118.14662033645436,231.06583652188783 118.202850424801,230.89007926699924 118.74828228182741,230.55809202308228 118.79888936135103,230.08289159632477 118.0847672392556,228.7223667357357 117.97230706253322,228.67028865384418" stroke="#4DD2FF" stroke-linecap="round" stroke-linejoin="round" stroke-width="0.5"><title>2025-06-02 11.5km</title><desc>1748829019000</desc></polyline><polyline fill="none" points="143.875,235.5303059927537 143.5040591174038,233.63636067391053 132.80578684431384,234.6321510255002 128.37135720229708,234.1244944927239 123.625,234.3295099548268 128.43037052452564,234.10496918773424 132.31681931723142,234.61262582398922 143.48719816817902,233.6461233746886 143.8665695254167,235.4717309254993" stroke="#4DD2FF" stroke-linecap="round" stroke-linejoin="round" stroke-width="0.5"><title>2025-06-01 4.9km</title><desc>1748740054000</desc></polyline><polyline fill="none" points="166.375,244.34170333918883 166.30167471332243,244.4973731643404 166.15502413996728,244.38415876337967 165.66618889552774,241.66698544718383 150.21899517200654,243.01142680649355 148.7891520820558,239.0063683855842 148.72804767650086,233.96803894218465 148.38586300541647,232.0715417300089 146.125,224.66929350233113 147.61594749544747,229.62304059407325 148.01923657214502,230.3873172612075 148.67916415206855,233.2320878762839 149.3390917320503,233.41607600850693 148.6547223898815,233.40192308393307 148.7891520820558,238.53933991785743 149.2535455642501,240.4499009903666 150.06012371752877,242.44534782074334 150.26787869643886,242.57271579375083 156.8915962582687,241.89341858770058 157.07490947493352,242.431195816549 162.3421092334902,241.92172270431183" stroke="#4DD2FF" stroke-linecap="round" stroke-linejoin="round" stroke-width="0.5"><title>2025-05-31 5.5km</title><desc>1748696141000</desc></polyline><polyline fill="none" points="187.45487012987724,240.17184297612403 186.99464285717113,237.20255293362425 170.33441558445338,238.69481889541203 168.7959415584919,234.309341768967 168.625,229.0252799201844 174.27922077919357,229.08619236088998 168.70389610395068,228.99482369056204 168.80909090908244,234.23320387641434 169.21672077925177,235.86254630729672 170.24237012985395,238.20755001611542 184.99594155844534,236.79141581502336 186.31087662337814,236.71527918736683 186.37662337668007,237.27868931292323 188.875,237.08073464606423" stroke="#4DD2FF" stroke-linecap="round" stroke-linejoin="round" stroke-width="0.5"><title>2025-05-29 5.0km</title><desc>1748526381000</desc></polyline><polyline fill="none" points="23.400158478529193,256.7619679626514 22.950871632318012,253.08284220308997 30.556656101427507,252.71120920994144 31.375,255.70283330863458 30.492472266196273,252.78553586914495 22.9187797147315,253.13858708669432 23.127377179043833,254.97815868453472 22.838549920765217,253.15716871076438 12.023573692480568,254.16057359923434 13.644215530832298,262.2805174035457 14.270007923885714,264.1757382772048 13.85281299520284,264.43586509505985 14.51069730578456,266.18242126148834 13.62816957209725,263.8784500309848 11.445919175865129,254.19773663725937 15.232765451655723,253.65887184531312 22.08438985736575,253.23149518821447 22.004160063399468,252.6926275403821 11.943343898572493,253.38014805215062 11.381735340692103,251.3175787385262 11.125,251.54056032985682 11.253367670346051,253.52880079485476 18.84310618066229,252.78553586914495" stroke="#4DD2FF" stroke-linecap="round" stroke-linejoin="round" stroke-width="0.5"><title>2025-05-27 6.0km</title><desc>1748352132000</desc></polyline><polyline fill="none" points="51.176537585415645,260.2590301211894 51.25726082007168,260.2056143343798 50.9977932801703,258.91026817022794 44.17667995445663,259.564621495505 43.38674544420792,259.5779755769472 40.54413439639029,259.24412272424524 33.75185079727089,259.54459036824846 33.625,257.32777443843224 34.4322323462402,257.2409698788106 35.54505979499663,257.32109716870036 35.55082574032713,259.24412272424524 40.71134681094554,259.0371331011702 43.848021070618415,259.34427875869005 50.98626138953841,258.6365061663673 53.753915148059605,258.5363490498421 53.875,258.7566945040453 53.79427676537307,258.78340299359843 51.239962984080194,258.89023684286803" stroke="#4DD2FF" stroke-linecap="round" stroke-linejoin="round" stroke-width="0.5"><title>2025-05-25 7.6km</title><desc>1748179850000</desc></polyline><polyline fill="none" points="76.3617300131009,259.86794212245877 76.30865006553358,259.42999063708703 76.04988532108837,259.42999063708703 75.88401048490778,258.6078643114597 75.75131061597494,258.4234609139312 69.34854193971842,258.96898632500233 68.30021297509666,259.1610717976364 64.09362712973962,258.7692169142683 56.23779488861328,259.1226547422775 56.125,257.7857290200409 58.075688073411584,257.63205787753395 58.062418086483376,258.7538500146111 58.32118283092859,258.78458381081145 63.834862385323504,258.54639656242216 67.82912844035309,258.89215199890896 76.12287024903344,258.09307036529935 76.375,259.7834253672554" stroke="#4DD2FF" stroke-linecap="round" stroke-linejoin="round" stroke-width="0.5"><title>2025-05-24 6.6km</title><desc>1748094255000</desc></polyline><polyline fill="none" points="98.875,259.65227791183133 98.65471394039923,257.84772208816867 90.31647864627303,258.5563214956055 89.15793714745087,258.7547283590393 87.83622078970075,258.7736242286119 84.0260878324043,258.31067431441625 78.625,258.52797762328555 84.00161160354037,258.30122633291467 87.78726833197288,258.7830721619903 96.4273771152366,258.05557847575255" stroke="#4DD2FF" stroke-linecap="round" stroke-linejoin="round" stroke-width="0.5"><title>2025-05-18 4.7km</title><desc>1747565909000</desc></polyline><polyline fill="none" points="118.74302175777848,259.4750439311465 118.52272401947994,258.1793650913678 112.65005010020104,258.6761568819202 111.67030489552417,258.8507044593571 110.88187088462291,258.84399109953665 108.19771686228341,258.49489544653625 101.16558116232045,258.81713765347376 101.125,258.6157364588653 105.08456198111526,258.3606273950354 107.76871600342565,258.3136335123563 110.90506012024707,258.81713765347376 118.59808903522207,258.1323710793513 121.18948611506494,258.0249560688535 121.2938376753591,258.03838295475 121.31122960205539,258.1323710793513 121.375,258.0920904709492" stroke="#4DD2FF" stroke-linecap="round" stroke-linejoin="round" stroke-width="0.5"><title>2025-05-17 5.7km</title><desc>1747487200000</desc></polyline><polyline fill="none" points="142.76839848424424,257.91284343197185 140.0867072198016,258.05315035773674 138.77817112085177,258.2869947572981 132.76859792578034,258.74532805207855 129.0045372955501,258.2589334608201 123.625,258.47406984795816 128.93184084564564,258.2776409927683 132.6232050259132,258.7359743342313 143.34997008374194,257.8005977369321 143.7053749501647,259.6152196434123 143.875,259.69940226307517" stroke="#4DD2FF" stroke-linecap="round" stroke-linejoin="round" stroke-width="0.5"><title>2025-05-11 5.0km</title><desc>1746965499000</desc></polyline><polyline fill="none" points="166.375,259.4775495903741 166.0481527976517,258.0224504096186 156.8601147775771,258.8551403641177 153.12679340026807,258.4261799216911 146.125,258.720564779047 152.95247489237227,258.434590932171 156.43884505017195,258.8551403641177 166.10625896698912,258.0392725120546" stroke="#4DD2FF" stroke-linecap="round" stroke-linejoin="round" stroke-width="0.5"><title>2025-05-10 5.3km</title><desc>1746870058000</desc></polyline><polyline fill="none" points="188.83078602619935,258.40866293494037 188.77920305676525,258.2635936604129 188.875,258.3745290105944 188.48444323145668,258.4427968453383 179.45742358081043,259.2364063395871 175.63291484717047,258.78413518413436 168.625,259.0742716779714 175.59606986900326,258.78413518413436 177.38673580787145,258.92920355673414 179.015283842833,259.2278729441532 186.40638646288426,258.5622654222243" stroke="#4DD2FF" stroke-linecap="round" stroke-linejoin="round" stroke-width="0.5"><title>2025-05-05 5.4km</title><desc>1746434825000</desc></polyline></svg>