<?xml version="1.0" encoding="utf-8" ?>
<svg baseProfile="full" height="300mm" version="1.1" viewBox="0,0,200,300" width="200mm" xmlns="http://www.w3.org/2000/svg" xmlns:ev="http://www.w3.org/2001/xml-events" xmlns:xlink="http://www.w3.org/1999/xlink"><defs /><rect fill="#222222" height="300" width="200" x="0" y="0" /><text fill="#FFFFFF" style="font-size:12px; font-family:Arial; font-weight:bold;" x="10" y="20">Over 3km Runs</text><text fill="#FFFFFF" style="font-size:4px; font-family:Arial" x="10" y="280">Runner</text><text fill="#FFFFFF" style="font-size:9px; font-family:Arial" x="10" y="290">tang-hi</text><text fill="#FFFFFF" style="font-size:4px; font-family:Arial" x="65" y="280">SPECIAL TRACKS</text><rect fill="yellow" height="2.6" width="2.6" x="65" y="283" /><text fill="#FFFFFF" style="font-size:3px; font-family:Arial" x="70" y="285.5">Over 20.0 km</text><rect fill="red" height="2.6" width="2.6" x="65" y="287" /><text fill="#FFFFFF" style="font-size:3px; font-family:Arial" x="70" y="289.5">Over 40.0 km</text><text fill="#FFFFFF" style="font-size:4px; font-family:Arial" x="120" y="280">STATISTICS</text><text fill="#FFFFFF" style="font-size:3px; font-family:Arial" x="120" y="285">Number: 12</text><text fill="#FFFFFF" style="font-size:3px; font-family:Arial" x="120" y="290">Weekly: 2.4</text><text fill="#FFFFFF" style="font-size:3px; font-family:Arial" x="141" y="285">Total: 73.2 km</text><text fill="#FFFFFF" style="font-size:3px; font-family:Arial" x="141" y="290">Avg: 6.1 km</text><text fill="#FFFFFF" style="font-size:3px; font-family:Arial" x="167" y="285">Min: 4.7 km</text><text fill="#FFFFFF" style="font-size:3px; font-family:Arial" x="167" y="290">Max: 11.5 km</text><polyline fill="none" points="57.65624774276512,43.90205254945613 56.47166721476242,42.148744006000925 55.63196456205333,40.308618619063054 55.092155713937245,39.805184628712595 53.75762828363804,39.683665856617154 52.73798934818478,38.50319327737088 52.27315395115875,36.95815063996997 51.58339820068795,35.899180745036574 50.758690238173585,33.0 48.37453449203167,34.02426709323481 47.264927415177226,34.14578989931033 44.38594689150341,35.222130971582374 43.156382292858325,36.801909593705204 43.156382292858325,37.201191982865566 38.17814513738267,43.537504732987145 38.148155756876804,43.90205254945613 36.78363894618815,45.77685758010193 35.59905841824366,46.87048432840675 35.38913275511004,46.67953413180658 34.54943010228453,47.40861555036099 33.99462656385731,47.07879339001374 33.97963187372079,47.391256505216006 33.90465842251433,46.939920710603474 34.684382314328104,47.4954107497324 34.564424792537466,48.12033488074667 32.765061965270434,50.11660495607066 29.691150468657725,50.81095428694971 29.691150468657725,50.49849743799132 29.4812248054659,50.88038906453585 28.6415221526986,51.07133455715666 27.90678233152721,50.863030372784124 26.677217732940335,50.96718249676633 26.467292069690302,50.77623688755557 25.972467292216606,51.05397588486085 24.487992959737312,50.533214893890545 24.293061986740213,48.25920659879921 23.723263758118264,47.75579608262342 20.919256685650907,48.467513963914826 19.86962836969178,49.109793404335505 21.069203587889206,54.30001687769254 22.958534556499217,60.09760482031561 26.94712215696927,75.68415458066738 27.501925695396494,77.29827044832928 32.21025842684321,86.82644975546282 32.81004603591282,87.0 34.87931328738341,86.34050813173235 36.28881416871445,86.75702960825583 38.867900887853466,86.21902250959829 38.822916817094665,85.19506882863061 39.51267256756546,85.00416153058177 40.75723185646348,85.57688278408023 41.70189734076848,85.12564801772533 42.09175928670447,85.69836886343546 44.52089910354698,86.23637760372367 45.94539467518916,85.97605100576766 47.384884936967865,84.90003018702555 47.63979467086028,82.86945628585818 48.71941236726707,81.37688228192565 48.43451325292699,79.88429522064689 48.77939112816239,79.15535260779143 48.044651306991,78.33962741977302 47.57981591002317,77.12471033509064 47.3998796272208,75.31967469053052 48.37453449203167,74.53864373234683 49.859008824510965,75.14611256439821 50.68371678702533,75.09404389209521 50.89364245021716,73.96588542372047 50.54876457498176,72.57737245154567 50.26386546064168,72.45587702876946 50.54876457498176,72.31702501109976 50.2188813899993,72.21288592365454 50.48878581402823,72.36909453097905 50.5187751945341,71.55333689358667 50.12891324859811,70.65079198312014 48.35953980172053,70.52929518818564 47.53483183926437,69.90445316168189 47.87970971444156,67.54391818330623 49.28921059588902,65.13127882459958 50.368828292237595,63.93362502937089 50.86365306971129,63.76005131789134 51.92827607592335,62.284667638348765 53.802612354338635,60.49683266523061 55.467022969562095,58.41389449729468 54.987192882283125,57.441847979673184 53.50271854980383,57.424489955810714 53.30778757680673,56.85167417670891 53.87758580542868,55.48038010172604 54.537352175451815,54.85548294195905 55.152134474832565,54.94227435106586 55.40704420860857,54.629825071577216 54.88223005074542,53.43209753015253 55.58698049135273,51.956624501908664 56.246746861434076,51.574735285452334 56.8015503998613,51.80039719851629 56.72657694865484,51.38379035657272 58.390987563936505,50.62000850281038 58.540934466174804,50.15132248977898 59.995419418264646,49.266023172662244 60.13037163030822,47.99882203464222 58.226045971387066,44.37075573972834 57.926152166794054,44.23188085469883" stroke="#4DD2FF" stroke-linecap="round" stroke-linejoin="round" stroke-width="0.5"><title>2025-06-02 11.5km</title><desc>1748829019000</desc></polyline><polyline fill="none" points="127.0,62.52526042512909 126.01082431303803,57.47473957488546 97.48209825146478,60.13018051245308 85.65695253945887,58.776429758392624 73.0,59.32313765732397 85.81432139873505,58.724362278400804 96.17818484583404,60.07811330842378 125.96586178173311,57.50077344360761 126.97751873440575,62.36906024579366" stroke="#4DD2FF" stroke-linecap="round" stroke-linejoin="round" stroke-width="0.5"><title>2025-06-01 4.9km</title><desc>1748740054000</desc></polyline><polyline fill="none" points="187.0,86.02232001558878 186.80446590227075,86.43743954933598 186.41339770669583,86.1355344800977 185.10983705485705,78.88973897023243 143.91732045868412,82.47491592838196 140.10440555226523,71.7947601393098 139.9414604707854,58.35921495690127 139.02896801452152,53.301889057736844 133.0,33.56256045063492 136.97585998789873,46.77255269527086 138.05129752575886,48.81062380759977 139.81110440567136,56.39667878113687 141.57091128558386,56.887313800427364 139.74592637305614,56.849572668230394 140.10440555226523,70.54935089201899 141.34278817137238,75.64418041871977 143.4936632468598,80.9653719663911 144.04767652379815,81.30501989441109 161.71092335542198,79.49356067826739 162.19975859986152,80.92763328854926 176.24562462279573,79.56903832257376" stroke="#4DD2FF" stroke-linecap="round" stroke-linejoin="round" stroke-width="0.5"><title>2025-05-31 5.5km</title><desc>1748696141000</desc></polyline><polyline fill="none" points="63.21298701292835,134.9026923807687 61.98571428563446,126.9845856007596 17.55844155838713,130.96396149884094 13.45584415574558,119.26935582832084 13.0,105.17852423156728 28.077922077616677,105.34095740679186 13.210389610379934,105.09730761923129 13.490909090731293,119.06632144819014 14.577922077849507,123.41123459718074 17.312987012788653,129.66457782071666 56.655844155699015,125.88821995112812 60.162337662186474,125.68518894407316 60.337662337580696,127.1876159455569 67.0,126.65973683391348" stroke="#4DD2FF" stroke-linecap="round" stroke-linejoin="round" stroke-width="0.5"><title>2025-05-29 5.0km</title><desc>1748526381000</desc></polyline><polyline fill="none" points="105.7337559426669,114.69858123373706 104.53565768594854,104.88757920823991 124.81774960365146,103.89655789319659 127.0,111.87422215638799 124.64659270970151,104.09476231771987 104.45007923920639,105.03623223118484 105.00633914396167,109.94175649210229 104.23613312211819,105.08578322871472 75.3961965132039,107.76152959797764 79.71790808229707,129.4147130761412 81.38668779702857,134.46863540587947 80.27416798705235,135.1623069201887 82.02852614875883,139.81979003062588 79.67511885869317,133.67586674931226 73.85578446881846,107.86063103270135 83.95404120441526,106.42365825417801 102.22503961948678,105.28398716857191 102.01109350239858,103.84700677436194 75.1822503961157,105.68039480573498 73.68462757510133,100.18020996940322 73.0,100.77482754626544 73.34231378743425,106.0768021196127 93.58161648153327,104.09476231771987" stroke="#4DD2FF" stroke-linecap="round" stroke-linejoin="round" stroke-width="0.5"><title>2025-05-27 6.0km</title><desc>1748352132000</desc></polyline><polyline fill="none" points="179.80410022777505,124.0240803231718 180.0193621868384,123.88163822500792 179.327448747179,120.4273817872745 161.13781321182614,122.17232398800843 159.03132118459325,122.20793487185438 151.45102505700197,121.31766059798247 133.33826879272237,122.11890764864802 133.0,116.20739850247628 135.15261958999326,115.9759196768282 138.12015945336316,116.18959244986763 138.1355353075196,121.31766059798247 151.8969248291687,120.76568826979201 160.2613895216491,121.5847433565068 179.2966970387497,119.69734977696498 186.6771070615505,119.43026413289772 187.0,120.01785201078746 186.78473804099485,120.08907464958611 179.97323462419445,120.37396491430991" stroke="#4DD2FF" stroke-linecap="round" stroke-linejoin="round" stroke-width="0.5"><title>2025-05-25 7.6km</title><desc>1748179850000</desc></polyline><polyline fill="none" points="66.96461336826906,182.98117899322824 66.82306684134528,181.81330836557026 66.1330275228247,181.81330836557026 65.69069462642074,179.6209714972356 65.33682830922771,179.12922910382622 48.262778505915776,180.58396353333956 45.467234600218944,181.09619146036857 34.249672345933504,180.05124510472524 13.300786369596608,180.99374597940187 13.0,177.4286107201042 18.20183486235328,177.0188210067572 18.166448230622336,180.01026670563442 18.856487549142912,180.09222349550691 33.559633027529344,179.45705749980698 44.211009174236096,180.3790719970857 66.3276539973449,178.24818764079828 67.0,182.75580097935745" stroke="#4DD2FF" stroke-linecap="round" stroke-linejoin="round" stroke-width="0.5"><title>2025-05-24 6.6km</title><desc>1748094255000</desc></polyline><polyline fill="none" points="127.0,182.40607443155022 126.41257050773129,177.59392556846433 104.1772763900226,179.48352398829593 101.08783239324111,180.0126089574478 97.56325543916319,180.06299794297956 87.40290088637266,178.82846483844332 73.0,179.40794032877602 87.33763094281312,178.80327022112033 97.43271555192769,180.08819243199832 120.47300564066973,178.14820926867833" stroke="#4DD2FF" stroke-linecap="round" stroke-linejoin="round" stroke-width="0.5"><title>2025-05-18 4.7km</title><desc>1747565909000</desc></polyline><polyline fill="none" points="179.98139135405654,181.93345048304764 179.39393071859377,178.47830691029958 163.73346693383064,179.8030850184441 161.1208130546729,180.2685452249425 159.01832235895563,180.2506429320929 151.86057829944184,179.31972119075363 133.10821643285453,180.1790337425773 133.0,179.64196389030258 143.55883194960188,178.9616730534326 150.71657600917388,178.83635603294533 159.08016032062005,180.1790337425773 179.59490409388673,178.35298954491736 186.50529630685924,178.0665495169378 186.78356713423273,178.10235454599024 186.82994560548104,178.35298954491736 187.0,178.24557458917843" stroke="#4DD2FF" stroke-linecap="round" stroke-linejoin="round" stroke-width="0.5"><title>2025-05-17 5.7km</title><desc>1747487200000</desc></polyline><polyline fill="none" points="64.04906262457371,237.76758248523402 56.897885919432156,238.14173428727372 53.40845632215496,238.76531935278035 37.382927802042104,239.98754147219006 27.34543278813362,238.6904892288294 13.0,239.26418626120721 27.151575588271953,238.74037598070572 36.99521340243518,239.9625982245925 65.59992022323422,237.46826063180924 66.54766653373372,242.30725238240848 67.0,242.53173936819076" stroke="#4DD2FF" stroke-linecap="round" stroke-linejoin="round" stroke-width="0.5"><title>2025-05-11 5.0km</title><desc>1746965499000</desc></polyline><polyline fill="none" points="127.0,241.94013224099763 126.12840746040456,238.05986775900237 101.62697274016682,240.28037430431868 91.67144906730391,239.13647979118105 73.0,239.92150607745862 91.2065997129539,239.1589091524802 100.50358680053614,240.28037430431868 126.2833572452655,238.1047266988171" stroke="#4DD2FF" stroke-linecap="round" stroke-linejoin="round" stroke-width="0.5"><title>2025-05-10 5.3km</title><desc>1746870058000</desc></polyline><polyline fill="none" points="186.88209606986493,239.0897678265028 186.74454148474615,238.70291642776283 187.0,238.99874402824207 185.95851528388448,239.18079158756882 161.88646288216114,241.29708357222262 151.68777292582672,240.09102715767222 133.0,240.86472447458073 151.58951965067536,240.09102715767222 156.3646288209129,240.47787615128618 160.70742358081043,241.2743278510752 180.41703056776896,239.4993744592648" stroke="#4DD2FF" stroke-linecap="round" stroke-linejoin="round" stroke-width="0.5"><title>2025-05-05 5.4km</title><desc>1746434825000</desc></polyline></svg>