<?xml version="1.0" encoding="utf-8" ?>
<svg baseProfile="full" height="300mm" version="1.1" viewBox="0,0,200,300" width="200mm" xmlns="http://www.w3.org/2000/svg" xmlns:ev="http://www.w3.org/2001/xml-events" xmlns:xlink="http://www.w3.org/1999/xlink"><defs /><rect fill="#222222" height="300" width="200" x="0" y="0" /><text fill="#FFFFFF" style="font-size:12px; font-family:Arial; font-weight:bold;" x="10" y="20">Over 3km Runs</text><text fill="#FFFFFF" style="font-size:4px; font-family:Arial" x="10" y="280">Runner</text><text fill="#FFFFFF" style="font-size:9px; font-family:Arial" x="10" y="290">tang-hi</text><text fill="#FFFFFF" style="font-size:4px; font-family:Arial" x="65" y="280">SPECIAL TRACKS</text><rect fill="yellow" height="2.6" width="2.6" x="65" y="283" /><text fill="#FFFFFF" style="font-size:3px; font-family:Arial" x="70" y="285.5">Over 20.0 km</text><rect fill="red" height="2.6" width="2.6" x="65" y="287" /><text fill="#FFFFFF" style="font-size:3px; font-family:Arial" x="70" y="289.5">Over 40.0 km</text><text fill="#FFFFFF" style="font-size:4px; font-family:Arial" x="120" y="280">STATISTICS</text><text fill="#FFFFFF" style="font-size:3px; font-family:Arial" x="120" y="285">Number: 88</text><text fill="#FFFFFF" style="font-size:3px; font-family:Arial" x="120" y="290">Weekly: 3.8</text><text fill="#FFFFFF" style="font-size:3px; font-family:Arial" x="141" y="285">Total: 457.9 km</text><text fill="#FFFFFF" style="font-size:3px; font-family:Arial" x="141" y="290">Avg: 5.2 km</text><text fill="#FFFFFF" style="font-size:3px; font-family:Arial" x="167" y="285">Min: 3.0 km</text><text fill="#FFFFFF" style="font-size:3px; font-family:Arial" x="167" y="290">Max: 11.5 km</text><polyline fill="none" points="21.55346084566554,31.090909090911737 21.468953312985832,31.661327689311292 21.57458772882819,32.09321335780987 21.525291668076534,32.573989007854834 21.13092318235431,35.09190254358691 20.92669664506684,35.6134022618935 20.814019934885437,37.21047405739955 20.285847855731845,40.24971163072769 20.335143916483503,40.64081158900808 19.83514101486071,44.258395821882004 20.468947509827558,50.710978982097004 20.814019934885437,50.727272727272066 20.87035828997614,50.57248201457696 20.19429802868399,44.09544508544059 20.659089458320523,40.63266369266785 20.78585075729643,40.48600141685165 21.208388420607662,36.82750565787137 21.504164784942986,35.67858948827052 21.426699546631426,35.43413711618632 21.729518205364002,33.24218088763155 21.98304080334492,32.288783461503044" stroke="#4DD2FF" stroke-linecap="round" stroke-linejoin="round" stroke-width="0.5"><title>2025-10-12 5.0km</title><desc>1760269757000</desc></polyline><polyline fill="none" points="44.17365116448491,31.090909090911737 44.18777090325602,32.536844821006525 43.77829847825342,35.28976921272988 43.61592148212367,35.61651955948764 43.60180174332345,36.46606424709171 42.98759310579044,40.20722156215197 43.02289245283464,40.607466078137804 42.535761464445386,44.04621954108006 42.535761464445386,45.00185651139327 43.16408984074951,50.727272727272066 43.573562265752116,50.66193504042894 42.874635195476,44.19324135242641 44.06775312352693,35.82890657285316 44.20189064205624,35.632857041971874 44.13835181746981,35.338781849393854 44.47722554852953,32.904451453796355" stroke="#4DD2FF" stroke-linecap="round" stroke-linejoin="round" stroke-width="0.5"><title>2025-10-11 5.0km</title><desc>1760186515000</desc></polyline><polyline fill="none" points="66.7413058996608,31.090909090911737 66.76231940940488,31.81226424639317 66.85337795165833,31.9500504441894 66.80434642892214,32.77676263281319 66.39808524039108,35.45946572367393 66.25099067215342,35.718815922911745 66.25099067215342,36.472547653691436 65.71164392190985,40.11143185687979 65.59957186991232,40.33024588441913 65.63459438612335,40.840809615081525 65.17229717166629,44.163446150945674 65.38943677241332,47.22663239666872 65.82371597390738,50.727272727272066 66.3000221948896,50.686756934956065 65.59957186991232,45.37090661939874 65.53653134065098,44.090511712063744 65.99882855513715,40.79218463863799 66.13191411690786,40.508538352063624 66.61522484113812,36.545489056181395 66.83936894513317,35.7593393153802 66.76932391268201,35.508093950258626 67.03549503613613,33.68451516713685" stroke="#4DD2FF" stroke-linecap="round" stroke-linejoin="round" stroke-width="0.5"><title>2025-10-10 5.0km</title><desc>1760093219000</desc></polyline><polyline fill="none" points="88.98678110417677,50.727272727272066 90.23576661699917,41.51868321366055 90.14655336609576,39.65002224032651 89.51313928462332,34.601368453782925 89.79862168751424,35.05565432619915 89.7897003624239,33.88896151599329 90.48556371952873,34.06448252988048 89.78077903733356,33.87863674100663 89.7450937369722,34.53942022281262 89.95028421405004,35.0246803539776 89.54882458498469,35.26214723274461 89.60235253552673,35.77837766211451 89.14736495586112,35.830000560730696 88.73698400164722,32.71193040754588 88.27307509689126,31.865285559710173 88.33552437258186,31.689760744397063 88.76374797691824,31.813660645530035 88.73698400164722,31.21480972277641 88.55855749984039,31.090909090911737 86.91703368304297,31.35936026890704 88.54963617469184,31.142534372556838 88.7548266518279,31.32838516918855 88.77266930200858,31.782685684425815 88.34444569761399,31.669110746152 88.29983907216229,31.85496057898854 88.82619725255063,33.042326481998316 89.18305025622249,36.986346612095076 89.67372313624946,39.97007158731867 89.73617241188185,41.36382311358466 88.80835460236995,48.032917567237746" stroke="#4DD2FF" stroke-linecap="round" stroke-linejoin="round" stroke-width="0.5"><title>2025-10-08 5.0km</title><desc>1759920144000</desc></polyline><polyline fill="none" points="112.01020444225287,31.090909090911737 111.99854045634856,32.23813044113922 112.1968282177113,32.292117084085476 112.09185234404868,33.641776026939624 111.4270051443018,38.163033571865526 111.19372542499332,38.70287493536307 111.03042962163454,41.280587200584705 110.41223836567951,45.39672560454346 110.13230270263739,46.27391894478933 110.17895864642924,46.98916461308545 109.65407927823253,50.72727272727934 110.1439666885417,46.287414181715576 110.27227053412935,46.07149022642989 110.96044570585946,46.07149022642989 111.90522856859025,39.431657296358026 112.17350024578627,38.75685895107745 112.06852437212365,38.35197829862591 112.73337157187052,33.46632113988744 112.94332331913756,33.27736946384539" stroke="#4DD2FF" stroke-linecap="round" stroke-linejoin="round" stroke-width="0.5"><title>2025-10-07 3.0km</title><desc>1759844077000</desc></polyline><polyline fill="none" points="134.5783569313062,31.09090909090446 134.66275936862803,31.139741492857866 134.5642898583901,31.758282673814392 134.676826441515,31.798976005120494 134.60649107708014,32.67794691479503 134.21964657260105,35.3066634674542 134.05787523434265,35.66474821059819 133.93830511474516,37.341214583029796 133.55146061029518,39.95350245467125 133.41782341781072,40.23018839342694 133.46705817294423,40.63707774410432 132.98877769467072,43.84329353814246 132.96064354889677,45.015076436815434 133.5936618289561,50.727272727272066 134.00864047923824,50.670315514478716 133.68509780275053,47.7817180737693 133.74136609429843,47.553880606617895 133.34748805337586,45.36498050800583 133.3193539075728,44.41291236515826 134.83156424332992,33.735954661882715" stroke="#4DD2FF" stroke-linecap="round" stroke-linejoin="round" stroke-width="0.5"><title>2025-10-06 5.0km</title><desc>1759755043000</desc></polyline><polyline fill="none" points="160.5678247276228,50.61443046329077 160.63524843356572,50.727272727272066 161.3191174516105,50.56929352400766 161.48286073765485,50.27590295005939 160.68340822361642,48.49297352719441 160.80862367758527,48.32370651587553 159.42162172548706,45.32199325230613 158.7473846655339,44.430490598220786 158.5065857155132,43.57283539341006 158.5065857155132,42.04935178565211 160.0862268275232,41.631800600247516 160.09585878555663,41.32710004757246 156.7246734854998,38.415472776207025 154.64417055738159,35.95519818599132 154.2492602794082,35.22161901164509 152.12059756129747,32.60326420897036 151.50415224931203,31.090909090911737 152.37102846929338,32.84027312778926 153.98919741337886,34.71375352926407 154.7019623053493,35.89876919917151 157.10031984746456,38.61861216026591 158.4006341774948,39.465022066186066 159.89358766755322,41.13525110168848 159.75874025555095,41.41738178420201 158.1598352275323,41.778507961076684 158.41026613552822,42.26376932221319 158.39100221951958,43.47127050133713 158.58364137954777,44.272502003361296 159.60462892759824,45.931370495767624 160.5678247276228,48.199577202387445 157.27369509148411,49.36187326051004" stroke="#4DD2FF" stroke-linecap="round" stroke-linejoin="round" stroke-width="0.5"><title>2025-10-04 5.0km</title><desc>1759568734000</desc></polyline><polyline fill="none" points="178.8753539387253,31.641186193555768 178.89075073527056,31.406642292284232 178.38265644793864,31.271328207381885 175.83448661281727,31.090909090911737 178.35186285478994,31.289370097889332 178.9138459301612,31.46076786566846 178.89075073527056,31.72237431559188 179.37574982777005,32.3357931645005 179.2679722516623,32.462084728467744 179.34495623462135,32.76879202765849 179.52971779362997,32.976269864411734 182.3473315690062,40.21963373035396 178.95233792165527,41.473403391799366 179.34495623462135,43.21421824317804 180.08400247077225,45.568320247104566 180.40733519906644,47.38120475821779 180.96161987620872,48.6529065463983 180.7460647239932,48.878383593175386 180.92312788471463,49.18503141317342 181.06939745231648,49.96968401324557 180.97701667278307,49.77126680131187 180.7383663256769,49.69911497258727 180.49201758028357,49.82538063251559 180.4227319956699,50.05987350133364 180.7691599188547,50.673159472491534 181.05400065574213,50.727272727272066 181.23876221475075,50.52885729069385 181.2233654181764,50.24927111361467 180.91542948642746,49.74420987274061 180.69217593592475,49.68107700579276 180.5151127751742,49.78930474886147 180.44582719053142,50.15006289333542 180.7768583171419,50.673159472491534 181.10788944375236,50.700216104210995 181.26185740961228,50.312403556854406 180.98471507109934,49.81636166304088 180.60749355470762,49.70813395454752 180.43043039395707,50.09594926964928 180.59979515642044,50.48376280844968 180.86154069838813,50.71825385389093 181.14638143524644,50.673159472491534 181.26955580792855,50.44768720535649 181.06939745231648,49.906551314430544 180.75376312225126,49.69911497258727 180.46892238542205,49.83439960100077 180.50741437688703,50.29436572074337 180.8692390966753,50.727272727272066 181.23106381646357,50.54689507686999 181.23876221475075,50.28534680123266 180.88463589327876,49.73519089462934 180.60749355470762,49.71715293552552 180.4535255888477,49.852437535111676 180.5459063683811,50.32142247346928" stroke="#4DD2FF" stroke-linecap="round" stroke-linejoin="round" stroke-width="0.5"><title>2025-10-02 5.0km</title><desc>1759403720000</desc></polyline><polyline fill="none" points="20.499945665273117,72.54545454545587 20.963128960196627,69.60653280482074 21.187000886071473,69.4725370703236 21.665623624168802,65.96177603806427 21.719661675189855,64.30907916941942 21.20244032924529,60.99465827257518 20.93225007384899,58.0106791556027 20.816454250132665,57.563966974499635 20.461347057367675,56.992172068676155 20.553983716323273,56.849222760793054 20.916810630704276,56.91176311160234 20.746976755879587,55.169550971579156 20.376430119911674,54.71388978946197 20.422748449404025,53.77575638484268 20.090800421399763,52.90909090909554 20.43046817102004,53.8472335682236 20.376430119911674,54.687086116930004 20.746976755879587,55.169550971579156 20.916810630704276,56.91176311160234 20.546263994736364,56.858157099333766 20.499945665273117,56.992172068676155 20.94768951702281,57.98387648877542 21.727381396805868,64.56815262449527 21.603865851502633,66.57817934545892 20.801014806958847,71.9022946602563 20.677499261655612,71.91122746864858 20.608021767402533,72.1702785176094" stroke="#4DD2FF" stroke-linecap="round" stroke-linejoin="round" stroke-width="0.5"><title>2025-09-30 5.0km</title><desc>1759224370000</desc></polyline><polyline fill="none" points="43.212362438149285,72.54545454545587 43.25820104620652,71.9266363569186 43.433915710425936,71.80287219098682 44.19789251126349,66.73723059642361 44.343048103444744,64.82759280186292 43.571431534568546,58.29383894163766 43.42627594238729,57.701444563717814 43.09776591800619,57.135571538470685 43.15124429410207,57.02946993626392 43.54087246253039,57.09136255327758 43.357518030301435,55.278774807396985 42.99080916590174,54.88088463478198 43.029008005949436,53.94362503191951 42.662299141520634,52.90909090908826 43.00608870189171,53.74025604824419 42.99844893391128,54.87204261027364 43.36515779834008,55.31414273465634 43.55615199854947,57.05599534895009 43.46447478243499,57.12672974322777 43.15124429410207,57.01178632329538 43.10540568604483,57.11788794708991 43.55615199854947,58.16121368525637 43.77006550275837,60.8225218019943 44.31248903137748,64.09378564645158 44.35068787142518,65.40225673339592 43.44919524641591,71.97967808839894 43.2734805822256,72.0327197875522 43.189443134120665,72.44821197875717" stroke="#4DD2FF" stroke-linecap="round" stroke-linejoin="round" stroke-width="0.5"><title>2025-09-28 5.0km</title><desc>1759056716000</desc></polyline><polyline fill="none" points="66.6976654776081,52.90909090909554 66.74714625877095,53.59615823942295 66.8531765040243,53.60433757706778 66.78955835683155,54.42226714583376 66.36543737564352,57.1540916745289 66.21699503224227,57.47307112940325 66.21699503224227,58.25006707700231 65.58081356046023,62.11039892848203 65.63736302463803,62.46207250488078 65.13548653016915,65.93783339004585 65.16376126225805,67.24631626735936 65.77166800198029,72.48003521062492 66.19578898319742,72.54545454545587 65.84942351520294,69.63424271971599 65.9130416623957,69.45433291883091 65.53840146231232,67.0091553232487 65.51012673025252,65.92965530521906 66.64818469647435,57.8411227761535 66.81783308894956,57.530323718288855 66.7542149417568,57.29313415638171 67.07230567766237,54.81487038691557" stroke="#4DD2FF" stroke-linecap="round" stroke-linejoin="round" stroke-width="0.5"><title>2025-09-27 5.0km</title><desc>1758971882000</desc></polyline><polyline fill="none" points="88.40281038635294,72.54545454545587 88.47934585172334,71.95208845979505 88.67833806169801,71.73953843145136 89.55084236696712,65.0616610485522 88.71660579435411,58.00239336039522 88.29566073481692,57.14319626377255 88.35688910711906,57.02804549343273 88.66303096860065,57.160911753402615 88.73191288745147,57.09890752395586 88.56353486361331,55.35391325380624 88.1885110832809,54.875583846842346 88.2267788159952,53.89234292769834 87.84410148911411,52.90909090908826 88.23443236251478,53.87462677332951 88.21147172292694,54.91987371708092 88.59414904977893,55.41591872534627 88.74721998054883,57.090049773294595 88.35688910711906,57.02804549343273 88.33392846753122,57.16976949684613 88.78548771320493,58.23269217291818 89.10693666775478,61.5985284235212 89.5584959134867,64.69852572438685 89.45899980849936,66.45218963836669 88.65537742208107,71.79267598711886" stroke="#4DD2FF" stroke-linecap="round" stroke-linejoin="round" stroke-width="0.5"><title>2025-09-25 5.0km</title><desc>1758803583000</desc></polyline><polyline fill="none" points="111.88186794397188,52.90909090908826 111.8889366305666,54.430446399215725 111.27396089554531,57.9801640705773 111.2668922089506,59.07612822794181 110.70846596677438,62.07768502814724 110.75087808643002,62.45389406585309 110.2490013371571,66.12592911095999 110.48933668187237,69.23353397689061 110.90638919183402,72.54545454545587 111.30930432857713,72.48003521058126 110.60950435424456,66.07686070410273 112.348401260213,54.32411603606306" stroke="#4DD2FF" stroke-linecap="round" stroke-linejoin="round" stroke-width="0.5"><title>2025-09-23 5.1km</title><desc>1758638106000</desc></polyline><polyline fill="none" points="133.74412947852397,72.54545454545587 133.65294482803438,72.51028367345134 133.67574099067133,71.78048485358886 133.84291284994106,71.62221441780275 134.20765145207406,69.45915611437522 134.739561913535,64.80751828308712 133.9189000587503,57.99228528296226 133.49337168957572,57.11286126321647 133.58455634012353,57.0073297799172 133.94169622135814,57.042506955323915 133.7745243620302,55.301219597415184 133.4097857599263,54.887878560432 133.42498320166487,53.832530781131936 133.02984971605474,52.90909090908826 133.44018064346164,53.91168231132906 133.4173844807956,54.89667307115451 133.7821230829286,55.2836306573663 133.75932692029164,55.872858201692 133.9568936631258,57.0337126628001 133.5921550609928,56.989741186844185 133.53136529398034,57.1040669778522 133.98728854663204,58.168169013864826 134.30643482346204,61.54506729142304 134.76235807614285,64.5525063311652 134.63317982124863,66.487060980362 133.94929494222743,71.0155083988866" stroke="#4DD2FF" stroke-linecap="round" stroke-linejoin="round" stroke-width="0.5"><title>2025-09-21 5.0km</title><desc>1758459157000</desc></polyline><polyline fill="none" points="146.69530063023558,56.59063849881932 146.67532467533601,57.16850570263341 147.30456725368276,57.13383375317062 147.47436287009623,57.27252148748812 147.83393005776452,57.14539107080782 150.43080419069156,57.13383375317062 150.6605276716873,57.27252148748812 152.4783395648119,57.26096418277302 152.74801495554857,57.38809447027597 153.3872455113451,57.22629226150457 156.74320592940785,57.22629226150457 158.49110198038397,57.26096418277302 158.680873551697,57.41120905274147 159.95933466329006,57.318750694728806 166.31168831168907,57.5152246157013 165.68244573334232,62.25361051120126 165.3428545005736,62.773665235545195 158.71083748404635,62.738994994564564 158.34128231892828,68.86390695573209 158.67088557424722,63.143480481965526 164.49387641862268,63.17815059966961 165.35284247802338,63.3399443426315 165.66246977844276,62.32295127848192 165.90218123688828,60.38139381758083" stroke="#4DD2FF" stroke-linecap="round" stroke-linejoin="round" stroke-width="0.5"><title>2025-09-20 5.0km</title><desc>1758380898000</desc></polyline><polyline fill="none" points="179.7720329662261,52.90909090908826 179.64563884501695,53.06347086414462 179.65266074065585,53.615986155760766 179.7579891749774,53.68098770378856 179.69479211440193,54.477252379088895 179.27347837708658,57.247866653400706 179.06984340402414,57.979097813004046 179.10495288216043,58.539703841131995 178.6134201886307,61.87888442709664 178.49404796306044,62.04949575030332 178.54320123238722,62.43946312256594 178.06571233010618,65.89221629880922 178.10082180821337,67.200161525172 178.68363914481597,72.54545454545587 179.03473392594606,72.53733127075975 179.11197477777023,72.43985190999229 178.81003326602513,69.28795524994348 178.44489469367545,67.07018034779321 178.44489469367545,65.72973713777901 179.56839799319278,57.80035303583281 179.72287969687022,57.52411032169766 179.65968263626564,57.296615605358966 180.1161058517173,54.29037464695284" stroke="#4DD2FF" stroke-linecap="round" stroke-linejoin="round" stroke-width="0.5"><title>2025-09-18 5.2km</title><desc>1758195038000</desc></polyline><polyline fill="none" points="20.477054662827868,94.19552045725868 20.461761344398838,94.36363636363967 20.637634506594623,94.32824356822675 20.714101098827086,93.69117079072748 20.882327601808356,93.5761432646832 21.654640183609445,88.28471278966754 21.7693400720309,86.76270333307912 20.951147534826305,79.86023343254783 20.515287958958652,78.96641204421758 20.591754551249323,78.79826640076499 20.958794194069924,78.87791437764099 20.80586100954679,77.16989178376389 20.41588138905354,76.70969343512115 20.45411468515522,75.73618890934449 20.04884174617473,74.72727272727934 20.477054662827868,75.77158926471748 20.45411468515522,76.71854342630104 20.80586100954679,77.14334194516414 20.96644085328444,78.88676414835209 20.591754551249323,78.81596595749579 20.5382279366313,78.95756228161918 20.905267579451902,79.60359258722019 21.042907445546007,80.25846772880323 21.287600540788844,83.02835808902455 21.76169341278728,86.1432732613248 21.7693400720309,87.52371138750459 21.379360451479442,90.36415944304463 21.21878060774179,91.33750038655126 21.027614127116976,91.51447029815608 20.828800987248542,93.32839115403476 20.652927825052757,93.77080514279078" stroke="#4DD2FF" stroke-linecap="round" stroke-linejoin="round" stroke-width="0.5"><title>2025-09-16 5.1km</title><desc>1758026219000</desc></polyline><polyline fill="none" points="44.329076499532675,74.72727272727207 44.15331090273685,74.80862633670768 44.13221903113299,75.32928747958795 44.25877026084345,75.4757228159724 44.209555893728975,76.27297717114561 43.79474908526754,79.0633049013486 43.654136607801775,79.30735226527031 43.49946288263891,81.43866763223923 43.02841108315624,83.8953042864232 43.06356420251541,84.33456250145537 42.57845115533564,88.09256209429441 43.23932979934034,94.36363636363967 43.62601411232026,94.28230261499994 42.944043596682604,87.79160325372504 43.344789157417836,84.83889303670003 43.54164662581752,84.12306810605514 43.92833093882655,80.75535132605728 44.13221903113299,79.52699425687024 44.251739636965794,79.33989185759128 44.20252526982222,78.92501106498094 44.434535857639275,77.37122272168926" stroke="#4DD2FF" stroke-linecap="round" stroke-linejoin="round" stroke-width="0.5"><title>2025-09-14 5.0km</title><desc>1757842188000</desc></polyline><polyline fill="none" points="66.64044645050308,74.72727272727207 66.7604642912047,75.78926195726672 66.28039292845642,79.00782055946911 66.07565661196713,79.73483753280743 66.13213559583528,80.03707860981376 65.77208207375952,82.74086041045666 65.51086677340209,83.88442656575353 65.54616613837425,84.31734379562113 65.05903490260243,87.9357872399487 65.29907058397657,91.07218439489952 65.71560308989137,94.36363636363967 66.13213559583528,94.27379703054612 65.41202855168376,87.97662653039879 67.14875730522908,75.99348904714134" stroke="#4DD2FF" stroke-linecap="round" stroke-linejoin="round" stroke-width="0.5"><title>2025-09-13 5.1km</title><desc>1757760467000</desc></polyline><polyline fill="none" points="89.44809166534105,74.72727272727207 89.41286558212596,76.26803287323855 89.01833345019259,78.96632988983765 88.863338684052,79.29240193394071 88.68720826800563,81.24065478775447 88.22926918626763,83.92248197623121 88.27154048610828,84.24853388282645 87.77837532118428,87.74535730088246 87.7924657544645,88.6501049859362 88.41949003562331,94.36363636363967 88.83515781752067,94.30658456521633 88.55334915179992,91.19312494623591 88.1658622364921,88.90278044563456 88.13768136993167,87.97358290391276 89.27196124929469,79.7733557804022 89.4410464487155,79.30870550136024 89.38468471559463,79.09675886647165 89.62422208141652,77.42562155931228" stroke="#4DD2FF" stroke-linecap="round" stroke-linejoin="round" stroke-width="0.5"><title>2025-09-11 5.0km</title><desc>1757592265000</desc></polyline><polyline fill="none" points="110.90596008955617,94.28421732076094 111.05848094748217,94.20479820526089 111.08135907616816,93.63121354790928 111.25675806280924,93.5076717412303 111.36352266336326,92.88113558719488 111.59992999315728,90.64851225531311 112.07274465277442,87.99223343476478 112.13375299592735,86.15661786388955 111.33301849174313,79.77578679515864 110.89833404662204,78.95498194611719 110.97459447558504,78.81376742607972 111.3482705775532,78.84024516608042 111.18049763381714,77.17213177052327 110.80682153184898,76.68669592405786 110.8602038321551,75.8040783378965 110.46364960150095,74.72727272727207 110.85257778925006,75.68933739241038 110.81444757478312,76.73082656774932 111.18049763381714,77.13682743686513 111.34064453467727,78.86672289802664 110.96696843270911,78.81376742607972 110.89833404662204,78.92850424111384 111.15761950513115,79.27271377619036 111.37114870626829,79.92582555214176 111.69906855083536,83.43842352007778 112.13375299592735,86.28017013010685 112.07274465277442,88.09813314902567 111.15761950513115,94.31069034313987 110.9898465613951,94.36363636363967" stroke="#4DD2FF" stroke-linecap="round" stroke-linejoin="round" stroke-width="0.5"><title>2025-09-09 5.2km</title><desc>1757417515000</desc></polyline><polyline fill="none" points="134.58301182102878,74.72727272727934 134.52665014512604,75.34684121085593 134.68868996333913,75.3876021275646 134.5900570305239,76.39031415790669 134.2166609277192,78.87665984702471 134.03348548107897,79.37391973966442 133.80099356803112,81.89277907036012 133.39237141780904,83.97138984905177 133.42759746522643,84.40340807683242 132.9555684296356,87.74535730302159 132.94147801067447,88.7397641130301 133.21624118066393,91.29093179869233 133.58963728343952,94.31473482462752 133.99825943363248,94.36363636363967 133.98416901467135,94.04577582774073 134.20257050875807,93.84201841206959 134.20257050875807,93.72791403339943 133.86440045339987,93.483404104496 133.32191932291607,87.95728109877382 134.39279116489342,80.22985168195737 134.62528307797038,79.42283038231835 134.5548309831065,79.11306247532775 134.8507297815231,76.96910970668978" stroke="#4DD2FF" stroke-linecap="round" stroke-linejoin="round" stroke-width="0.5"><title>2025-09-07 5.0km</title><desc>1757247375000</desc></polyline><polyline fill="none" points="155.97604954172857,94.30107867245533 156.15368401774322,94.36363636363967 156.20002344623208,93.73805744967831 156.4239973507356,93.39845560434333 157.16542820696486,88.4383318293767 157.30444649254787,86.54358006862458 156.46261354113813,79.65241686195077 156.01466573221842,78.80327376788046 156.0918981130235,78.6870746011773 156.46261354113813,78.74964340232691 156.30042554135434,77.0066387096158 155.93743335132604,76.53289299891185 155.97604954172857,75.63902621348825 155.68256649447721,74.72727272727207 155.97604954172857,75.54963903495809 155.94515658941236,76.52395437604719 156.30814877944067,76.95300724788831 156.4857832553971,78.73176660653553 156.07645163687994,78.66025938704115 156.0378354464483,78.78539698299574 156.32359525558422,79.21443881667074 156.5089529696852,79.8669359247142 156.7869895407348,82.89696176983125 157.29672325446154,86.3648277948887 157.29672325446154,87.42839847225696 156.7638198265049,91.2356972940106 156.37765792221762,93.66656243330362 156.20002344623208,93.91679473629483" stroke="#4DD2FF" stroke-linecap="round" stroke-linejoin="round" stroke-width="0.5"><title>2025-09-04 5.0km</title><desc>1756985562000</desc></polyline><polyline fill="none" points="179.6712671565183,74.77641054882406 179.75619760507834,74.72727272727207 179.80574036680628,74.84192759759753 179.77743021727656,75.33330376590311 179.8552831285051,75.33330376590311 179.79866282944568,76.21777331975318 179.41647581063444,78.70733921588544 179.16168446477968,79.70641969884309 179.1970721516991,80.09949715033144 178.58840393656283,83.85001477829792 178.62379162354046,84.19393997573934 178.14251908130245,87.58398127969122 178.18498430561158,89.24619583368622 178.76534237121814,94.35544871815364 179.09798662830144,94.36363636363967 179.16876200214028,94.26538456282287 178.83611774505698,91.36690259062743 178.92104819367523,91.17857953647763 178.6945669973502,90.11413661484403 178.48931841316517,87.87057244046446 178.8785829693661,84.81627707998268 179.08383155355114,84.03835494910163 179.46601857233327,80.63997551654757 179.6783446938789,79.40342118847911 179.79866282944568,79.23963773568539 179.72788745557773,79.01852954657807 180.03929910052102,76.70095166187093" stroke="#4DD2FF" stroke-linecap="round" stroke-linejoin="round" stroke-width="0.5"><title>2025-09-02 5.1km</title><desc>1756811867000</desc></polyline><polyline fill="none" points="21.479096994909924,96.54545454544859 21.450596690614475,97.98825422385562 21.072967658779817,100.61820592146978 20.837840148364194,101.5168219171901 20.844965224445332,102.21757060493837 20.26783406260074,105.72946699874592 19.81895427001291,109.69459460755752 19.847454574279254,110.89810853840027 20.41033558404888,115.5059181873221 20.96609151767916,116.1818181818162 20.837840148364194,116.11587696662173 20.73808908337378,115.33282094230526 20.524336801172467,113.28859699256282 20.581337409763364,113.08252317405277 20.203708377928706,110.66729903037049 20.18945822576643,109.50499832040805 21.336595473461784,101.39315975595673 21.4933471470722,101.06339307134476 21.578848059900338,99.63713672912127 21.99922754819272,97.36167008645862" stroke="#4DD2FF" stroke-linecap="round" stroke-linejoin="round" stroke-width="0.5"><title>2025-08-31 5.1km</title><desc>1756640573000</desc></polyline><polyline fill="none" points="44.13835162500618,96.54545454545587 44.201890430180356,98.13026409017766 43.76417866096017,100.86684620344022 43.61592144879978,101.1119087145562 43.545322776335524,101.60203149617882 43.481783971132245,102.85183106771728 43.08643140539061,105.55557936253899 42.980533396679675,105.7352814656333 43.02289260015823,106.12735738768242 42.54282162745949,109.49259710999468 42.57106109644519,110.88112586451462 43.12879060886917,115.72445325976878 43.66534051951021,116.1818181818162 43.5523826435965,116.00213941538095 43.277047821029555,112.87403112911124 42.93111432599835,110.79128061160736 42.93111432599835,109.24756013566366 43.47472410390037,105.94765616066434 43.87713653690298,102.50058217023616 44.201890430180356,101.15275239378389 44.15247135946993,100.84233991125075 44.47016538551543,98.47336307381192" stroke="#4DD2FF" stroke-linecap="round" stroke-linejoin="round" stroke-width="0.5"><title>2025-08-30 5.0km</title><desc>1756550382000</desc></polyline><polyline fill="none" points="65.70698542211903,116.17298590728024 65.97413684253115,116.1818181818162 66.82902138793725,110.23749445854628 66.95114775153343,108.25007414229913 66.44737650160096,104.69910335030727 66.23365536524216,102.01369573360716 66.10389610391576,101.42183486580325 65.71461831982015,100.81230229494395 65.76804860393167,100.67096079813928 66.1649592856993,100.73279773128161 65.97413684253115,98.93950879927434 65.62302354708663,98.57731294517725 65.64592224030639,97.50838466826099 65.25664445621078,96.54545454545587 65.6535551380075,97.5525555187487 65.6077577516553,98.53314261574997 65.97413684253115,98.96601087566523 66.14969349023886,100.7151300405967 65.76804860393167,100.6797946484221 65.71461831982015,100.79463462042622 66.0352000243438,101.29816193637816 66.24128826297238,102.1462013456694 66.4626422970614,104.92877251730533 66.95114775153343,108.12641093161801 66.85955297888722,109.99900642044668 66.080997410696,115.34274809448834" stroke="#4DD2FF" stroke-linecap="round" stroke-linejoin="round" stroke-width="0.5"><title>2025-08-28 5.0km</title><desc>1756381580000</desc></polyline><polyline fill="none" points="89.36569198244251,96.54545454545587 89.52739616730832,97.38339276384067 89.49927370037767,98.14810542593477 89.06337546301074,100.88148672121315 88.90870189489215,101.166208573537 88.8876100446796,102.0610420901794 88.26891577229253,105.70535167290654 88.31813008943573,106.16901309856621 87.84707876839093,109.23561845224322 87.81192568474216,110.48012241150718 87.92441555243568,110.61026549969392 87.8822318520397,111.13896962114086 88.41655872366391,115.7507483734953 89.00713052912033,116.1818181818162 88.81730387738207,116.0110172144341 88.16345652131713,110.62653337084339 88.13533405441558,109.57724891545513 88.6204466088966,106.15274432205479 88.73996709336643,105.98192196914897 88.85245696105994,104.55025364077301 89.34460013228818,101.73564924107632 89.30944704861031,101.35331095383299 89.44302876648726,101.17434346873051 89.38678383265506,100.9302962535221 89.59067171788774,99.53107786240435" stroke="#4DD2FF" stroke-linecap="round" stroke-linejoin="round" stroke-width="0.5"><title>2025-08-26 5.0km</title><desc>1756206850000</desc></polyline><polyline fill="none" points="111.91643993367325,96.54545454544859 111.93055967387045,97.21532630881848 112.0435175957391,97.23983370652422 111.97997876469162,98.07308078357892 111.58462603832595,100.78515853307908 111.45048850614694,101.08740249636321 111.28811149354442,102.92534808380879 110.80098045567865,105.69444011284213 110.72332188443397,106.97684866068448 110.36326850863406,109.38641451187868 110.42680733968155,111.207835028501 110.97041733842343,116.06747719502891 110.99159694876289,116.1818181818162 111.41518915561028,116.1328149216497 111.1116147407156,112.9638740553055 110.73744162466028,110.8076161188219 110.70214227409451,109.71312974778994 111.15397396139451,106.37240386733902 111.31635097402614,105.90681491575378 111.85996097273892,101.45499497464334 112.02233798537054,101.12824618803279 111.96585902446532,100.86684620276355 112.23413408876513,98.83279853354179" stroke="#4DD2FF" stroke-linecap="round" stroke-linejoin="round" stroke-width="0.5"><title>2025-08-24 5.0km</title><desc>1756042259000</desc></polyline><polyline fill="none" points="133.6457708241942,116.1818181818162 133.86481226212345,115.86499098421336 134.62363438640023,110.69602239916276 134.7644467393984,108.42375390271627 134.34983258898137,105.80740482351393 133.93521843859344,101.81483472132822 133.48148974575452,100.89135764109233 133.5910104647337,100.76460513743223 133.92739553010324,100.8008201568955 133.75529154314427,99.02626688061719 133.37979193526553,98.60073099042347 133.44237520321622,97.68627464261226 133.01993814433808,96.54545454544859 133.41890647777473,97.51424715125177 133.39543775224593,98.60978496669122 133.77093736015377,99.0534286768816 133.95086425560294,100.8098739094421 133.85698935366236,100.90041138443485 133.5284271966957,100.78271264900104 133.5284271966957,100.9094651268606 133.83352062816266,101.46174167452409 134.00562461509253,102.13171190449793 134.2090202360414,104.59426186595374 134.7722696478595,108.5142836369123 134.64710311189992,110.57833660969482 133.78658317716327,116.1094006360072" stroke="#4DD2FF" stroke-linecap="round" stroke-linejoin="round" stroke-width="0.5"><title>2025-08-23 5.0km</title><desc>1755956696000</desc></polyline><polyline fill="none" points="157.18674656416988,96.54545454545587 157.19385671871714,97.08845948099042 157.2862887281517,97.18718725987128 157.25073795532808,98.0099140689781 156.8241286810371,100.65903760200308 156.66770528047346,100.99634214258549 156.3050873973698,104.37753686159704 156.12022337852977,105.49634393435554 155.99935075081885,105.61151437330409 156.05623198742978,106.01460962009878 155.54430085830973,109.88915753903711 156.1984350788116,116.05021198279428 156.2197655425116,116.14891665209143 156.60371388934436,116.1818181818162 155.89980858680792,109.72463697886269 156.95922161790077,102.02470097331388 157.09431455473532,101.18556114776584 157.2222973370226,101.02924982739933 157.16541610044078,100.71662628155173 157.44271212868625,98.57759069337044" stroke="#4DD2FF" stroke-linecap="round" stroke-linejoin="round" stroke-width="0.5"><title>2025-08-21 5.0km</title><desc>1755781186000</desc></polyline><polyline fill="none" points="179.63827690965263,96.54545454544859 179.6594653413631,98.06554397585569 179.23569670747383,100.79509482470894 179.08737768561696,101.08112024084403 179.02381239054375,101.56327506878733 179.10150330673787,101.8002653655567 178.44466192426626,105.67373194798711 178.4870387876581,106.08231459592935 178.020893290377,109.43261404932855 178.04914453264792,110.84623514234409 178.64242062007543,116.1818181818162 179.05206363281468,116.10828268784098 178.76955121022183,113.01156034155429 178.40228506087442,110.8053793898871 178.38109662916395,109.24467411466321 178.8401793158555,106.1231727465929 178.96024709547055,105.94339672843489 179.44758102443302,101.8819859956784 179.68065377307357,101.09746451961837 179.68771658360492,100.19852425540012 180.16092489144648,97.19108743687684" stroke="#4DD2FF" stroke-linecap="round" stroke-linejoin="round" stroke-width="0.5"><title>2025-08-19 5.3km</title><desc>1755607955000</desc></polyline><polyline fill="none" points="20.696326767734718,137.90328006757773 21.038269137730822,138.0 21.038269137730822,137.3493365539689 21.16744736637338,137.05917425059306 21.327020472381264,135.05438993222197 21.790542351664044,132.02074638622435 21.744950035674265,130.033432367738 21.228237121045822,126.70062186448195 20.992676821741043,123.95689257211052 20.848301154386718,123.23576978862548 20.475963907141704,122.61137813141977 20.55954981976538,122.46187523475237 20.924288347741822,122.54102385929582 20.76471524173394,120.89647644377692 20.36958183645038,120.360013035679 20.3999767137866,119.32225470257254 20.02763946648338,118.36363636363967 20.430371591151925,119.36622776595323 20.384779275103938,120.35121852585871 20.7419190837536,120.73817611209961 20.924288347741822,122.53222957125399 20.54435238111182,122.47946382424561 20.50635878444882,122.59378956875298 20.947084505751263,123.60512611176091 21.17504608570016,126.25213360378984 21.737351316347485,130.13895461375068 21.729752596991602,131.0446819314384 21.16744736637338,134.94008065464004 21.000275541038718,135.01921786289313 20.8938934704056,135.28300803431193 20.696326767734718,136.57556824936182" stroke="#4DD2FF" stroke-linecap="round" stroke-linejoin="round" stroke-width="0.5"><title>2025-08-17 5.0km</title><desc>1755429603000</desc></polyline><polyline fill="none" points="43.22407626186032,137.9558386183926 43.124848581355764,138.0 43.23934205889236,137.88518036113965 43.369101333461,135.94205577730463 43.47596191248158,135.2619519098589 43.8270752436365,134.97047719467082 43.819442345091375,134.29919837495981 44.29268205226981,131.63169708967325 44.36137813879759,130.43041149339842 43.529392201977316,123.46086076278152 43.09431698732078,122.6128164384645 43.178278870880604,122.51564416432666 43.544657998980256,122.54214570442127 43.38436713043484,120.82836280305492 43.01798800230608,120.36899256832112 43.040886697825044,119.37073733689613 42.65160887420643,118.36363636363967 43.063785393344006,119.38840567081206 43.01035510379006,120.32482222542603 43.37673423191882,120.7576906173781 43.5599237960123,122.53331185862044 43.17064597236458,122.48914261617028 43.11721568283974,122.6216502761672 43.575189592986135,123.56686572125182 44.36137813879759,130.01525746294647 44.353745240252465,131.06638828943687 43.842341040610336,134.82915576874802 43.46069611547864,137.26691816009406 43.300405246933224,137.3905709521423 43.24697495740838,137.76152827275655" stroke="#4DD2FF" stroke-linecap="round" stroke-linejoin="round" stroke-width="0.5"><title>2025-08-16 5.1km</title><desc>1755350047000</desc></polyline><polyline fill="none" points="65.98935110497405,137.9469824871412 65.71444310751394,138.0 65.84426077298122,137.86745615726977 66.21080476959469,135.12817150763294 66.41698576766066,135.0221329475753 66.37116776808398,134.73052624068805 66.92098376300419,131.48744027711655 66.95916542931809,130.0823600253134 66.13444143693778,123.4808299363358 65.72207944077672,122.6500797908302 65.80607910666731,122.49099906990159 66.14207777022966,122.54402600922913 65.97407843844849,120.80295792689867 65.6151707750978,120.39640908769798 65.66862510793726,119.52143883055396 65.24099044522154,118.36363636363967 65.63807977488614,119.29164720144036 65.63044344165246,120.35221888188244 65.97407843844849,120.76760592942446 66.17262310328078,122.53518818824523 65.77553377361619,122.49983689537476 65.73735210727318,122.62356635756441 66.06571443757275,123.15383348624164 66.20316843633191,123.68409737983893 66.44753110074089,126.52095426262531 66.92862009626697,129.7200400510992 66.96680176258087,131.00140879673563 66.38644043460954,134.72168965853052 66.43225843418622,134.98678673217364 66.18789576980635,136.347605653762 65.98935110497405,136.79826177129144" stroke="#4DD2FF" stroke-linecap="round" stroke-linejoin="round" stroke-width="0.5"><title>2025-08-14 4.9km</title><desc>1755170321000</desc></polyline><polyline fill="none" points="89.50340090770624,118.38006358767598 89.33304291692912,118.36363636363967 89.38273066427791,119.8502866210838 88.97103218661505,122.64281540213415 88.82196894471417,122.93848927271756 88.82196894471417,123.71052150341711 88.4031722174841,126.65895973635634 88.26830547483405,127.4638072027883 88.16183173059835,127.52950868311746 88.22571597713977,127.94014172558673 87.73593675374286,131.31546631884703 87.77852625143714,132.75260556097783 88.37477921901154,137.93430702521437 88.779379447049,138.0 88.0837509848352,131.4961366556454 89.24076567194425,123.29986697932327 89.40402541309595,122.96312871309783 89.33304291692912,122.67566810783319 89.66666064882884,120.34309282734466" stroke="#4DD2FF" stroke-linecap="round" stroke-linejoin="round" stroke-width="0.5"><title>2025-08-12 5.0km</title><desc>1754999139000</desc></polyline><polyline fill="none" points="111.82818569830852,118.42942777861754 111.92057894924073,118.36363636363967 111.92768612242071,119.7534686369836 111.48704138715402,122.58240261507308 111.33779075104394,122.86200118596753 111.18854011490475,124.76160120120767 110.71946668706369,127.51635320042988 110.24328608607175,131.48796497927833 110.28592912497697,132.7049001980995 110.78343124542153,136.82425463577238 111.30225488531869,138.0 110.60575191667886,131.53730054653715 111.65761354274582,123.94749236726057 111.91347177608986,122.8948950719714 111.84950721776113,122.66463758910686 112.1480084900395,120.44426396481867 112.35411651135655,119.60544029967423" stroke="#4DD2FF" stroke-linecap="round" stroke-linejoin="round" stroke-width="0.5"><title>2025-08-10 5.0km</title><desc>1754830447000</desc></polyline><polyline fill="none" points="133.61687512666686,138.0 134.68023948161863,131.67045650671207 134.74909041108913,130.1831683630735 134.18298276889254,126.26120938023814 133.91522915428504,123.40152071518241 133.48682337097125,122.64010170925758 133.54802419719636,122.48073409792414 133.93817946410854,122.5604179400616 133.76987719212775,120.80735656731122 133.40267223498086,120.37351269829378 133.42562254477525,119.38186145102372 133.03546727786306,118.36363636363967 133.44092275138246,119.41727776147309 133.41032233825536,120.38236667642195 133.76987719212775,120.8162105013107 133.95347967065754,122.53385666745453 133.56332440371625,122.51614914787206 133.51742378406925,122.61354046096676 133.95347967065754,123.5520329863648 134.30538442122634,127.0314500256136 134.71848999799113,129.5634574738724 134.75674051433452,130.9710801264373 133.86932853463804,137.25641313759115 133.62452522988315,137.5131283669616" stroke="#4DD2FF" stroke-linecap="round" stroke-linejoin="round" stroke-width="0.5"><title>2025-08-09 5.0km</title><desc>1754735080000</desc></polyline><polyline fill="none" points="157.08315461402526,118.3636363636324 157.12577977936598,119.74466659722384 156.84871620466583,121.91480933663843 156.49350649348344,123.41085869400558 156.4153603570594,124.7671432719435 155.93937934405403,127.54540070320218 155.96779612099635,127.9728164577682 155.4847109138209,131.22767777222907 155.47050252536428,132.34547873520933 156.08146322856192,137.5397630348234 156.55744424147997,138.0 155.86123320763,132.64136464147305 155.8967541787424,130.89069062992348 156.91265395266237,123.90405571629526 157.04052944868454,123.1067190317699 157.1613007504784,122.95053876097518 157.10446719671017,122.61351714946795 157.5165104616317,119.82687003440515" stroke="#4DD2FF" stroke-linecap="round" stroke-linejoin="round" stroke-width="0.5"><title>2025-08-07 5.0km</title><desc>1754570205000</desc></polyline><polyline fill="none" points="179.4312241722073,118.36363636363967 179.47513579559745,118.92256189510226 179.62150787358405,118.98184165587008 179.5702776463295,119.37986181466113 179.96548225689912,119.43914125017182 180.00939388026018,119.80328542889038 179.60687066579703,121.81875234434847 179.48977300341357,122.89421264817793 179.5702776463295,123.18212880009378 179.44586138002342,123.30068222062982 179.2116660552565,124.68097035041137 178.1797429054277,132.18324110718822 178.81646144468687,138.0 178.1724243015342,132.04776590490656 178.6261777433101,128.6184765407088 178.79450563297723,128.15275969939103 179.19702884744038,124.68097035041137 179.40194975663326,123.40229930404894 179.53368462680373,123.17366069215495 179.48245439952007,122.84340381227958 179.8849776139832,119.87950145102513" stroke="#4DD2FF" stroke-linecap="round" stroke-linejoin="round" stroke-width="0.5"><title>2025-08-05 5.0km</title><desc>1754406000000</desc></polyline><polyline fill="none" points="20.611746393929934,159.8181818181838 20.951568696968025,157.00304166247952 21.160096019302728,156.84217378886387 21.4844718540553,154.6614913585945 21.723892113019247,152.90975646773586 21.739338581362972,151.81937325050967 21.175542487646453,147.94929741657688 20.95929193115444,145.37511106401507 20.766211077105254,144.70473766362556 20.472728179040132,144.2846343936617 20.542237286485033,144.15055845931056 20.92067576033878,144.18631206181453 20.743041374662425,142.42542986043554 20.3800493691233,142.04107017191564 20.410942305781646,140.95055213893647 20.078843236871762,140.18181818182347 20.418665539909853,141.0667555241962 20.3800493691233,141.95168395694054 20.758487842977047,142.41649128210702 20.928398994496092,144.17737366254732 20.827996950421948,144.26675761420483 20.457281710754614,144.19525046015042 20.951568696968025,145.2410367929333 21.268221297534183,148.6285840233395 21.739338581362972,151.8461861147298 21.731615347176557,152.95444401606073 20.827996950421948,159.1389816475421 20.781657545478083,159.2909084569328 20.58085345730069,159.29984531988885 20.503621115669375,159.63944543970865 20.28737055917736,159.621571781885" stroke="#4DD2FF" stroke-linecap="round" stroke-linejoin="round" stroke-width="0.5"><title>2025-08-03 5.0km</title><desc>1754221111000</desc></polyline><polyline fill="none" points="53.324675324663986,148.9375991107663 53.264302185110864,149.18792876481893 53.10833824130532,149.20248274718324 50.044401409482816,149.14135597155473 49.96138834262092,149.08896148863278 49.84064206352923,149.13844516945755 49.45073220398626,149.13553436707298 49.41803008673014,149.1035155212776 48.72122343452065,149.14426677334995 48.37910897709662,149.091872295754 47.27478363296541,149.08896148863278 46.79682961157232,149.01328039967484 46.472323986527044,148.92886664148318 46.452199606676004,148.89684756469615 46.00191660759447,148.88229342704471 45.01330644756672,148.70764319849877 43.55932000359462,148.69599981206557 40.5255697415414,149.07440744859196 40.115535502147395,149.26360939238657 39.67531469296955,149.39750539752276 38.493007376935566,150.1164580278528 37.86663605416834,150.43372288414503 37.48175728958449,150.5443281549451 37.25535801630758,150.54723881419886 36.96858560347755,150.4773829104779 36.66420435826876,150.60254128385895 36.561066911541275,150.3987948151953 36.43780508499185,150.48029357653104 36.3371831857512,150.29109966785109 34.624095351216965,151.30400018793443 34.49328688220703,150.97510250815867 33.96502191120817,149.96510107871654 33.91471096158784,149.93017243843315 33.68831168831093,150.04077965323813 33.83672898967052,149.92726171649338 33.90967986662872,149.91852954888236 33.93231979395205,149.8457613819537 34.02287950327445,149.85158284210593 34.14362578236614,149.77008229227795 34.17884344709455,149.81083259617844 34.269403156402404,149.7526178585831 34.23921658663312,149.807921862106" stroke="#4DD2FF" stroke-linecap="round" stroke-linejoin="round" stroke-width="0.5"><title>2025-08-02 8.3km</title><desc>1754134728000</desc></polyline><polyline fill="none" points="66.62876469042385,140.18181818182347 66.52308645154699,140.2062749231991 66.45967950820341,140.8666041219185 66.98807070267503,140.8666041219185 66.98807070267503,141.39649399285554 65.22676672105445,153.05318595386052 65.23381193698151,154.2839685907893 65.966514393338,159.8181818181838 65.26903801661683,154.43883394350996 65.21972150512738,153.24065737522324 66.2624134622456,145.79036902576627 66.52308645154699,144.77955452018068 66.45263429227634,144.55130432119768 66.78375944079016,142.14648598204076" stroke="#4DD2FF" stroke-linecap="round" stroke-linejoin="round" stroke-width="0.5"><title>2025-07-31 5.0km</title><desc>1753965181000</desc></polyline><polyline fill="none" points="88.3125138504256,159.8181818181838 88.397199659521,159.10550508318556 88.61276353726862,158.84715833600785 89.39803194897831,153.43951890712196 89.4827177580737,151.44386423379183 89.08238484227331,149.02050818218413 88.65895579676726,145.02004220275558 88.25092417103588,144.23596510481002 88.33560998016037,144.12013493873383 88.67435321660014,144.1646850207253 88.52807772811502,142.3915742681129 88.13544352227473,141.9638838912142 88.18163578180247,140.97484189851093 87.87368738502846,140.1818181818162 88.18933449170436,140.99266257374256 88.1585396520095,141.9817043652656 88.52807772811502,142.4450354184155 88.7051480562659,144.1468649906601 88.60506482730852,144.23596510481002 88.29711643056362,144.1112249196085 88.26632159089786,144.24487511125335 88.72824418602977,145.2695198080546 88.99769903317792,148.2631956738478 89.52891001757234,152.08532961988385 88.97460290341405,156.70017832829762 88.56657127774088,159.25694937411026 88.42029578925576,159.31930871200166" stroke="#4DD2FF" stroke-linecap="round" stroke-linejoin="round" stroke-width="0.5"><title>2025-07-29 5.0km</title><desc>1753797916000</desc></polyline><polyline fill="none" points="112.14092730655102,140.18181818182347 112.1267722476332,141.68050826260878 111.80120589162107,143.97353204624233 111.54641483040177,144.73512908650446 111.37655412295135,146.8315310877224 110.90235964790918,149.33731507939228 110.95897988372599,149.7795041698846 110.49186293815728,152.88294825141202 110.52017305610934,154.52878964951378 111.10053047328256,159.8181818181838 110.55556070347666,155.22478212446003 110.45647529081907,153.48069552944798 110.90943717741175,149.46833432198036 111.53933730092831,145.46396252693376 111.47563953563804,145.25923469797272 111.77997330322978,144.01447830670077 112.1267722476332,141.2464642752966" stroke="#4DD2FF" stroke-linecap="round" stroke-linejoin="round" stroke-width="0.5"><title>2025-07-27 5.0km</title><desc>1753616848000</desc></polyline><polyline fill="none" points="134.4569571467291,140.1818181818162 134.4778585101012,141.9070464507313 134.094666848192,144.63186328607117 133.94139018340502,144.92207495017647 133.72540942850173,147.29209714786703 133.33525064543937,149.45246388043597 133.3631191299355,149.8635717850484 132.85451928776456,153.2168430153106 133.48852731022635,159.8181818181838 133.90655457778485,159.75370253086294 133.60696836936404,156.52161115403578 133.26557943416992,154.256650751704 133.25164519195096,153.04757069929474 134.21310790730058,146.2683207328446 134.5335954791226,144.9140135294001 134.46392426788225,144.5996174800821 134.93768850443303,141.72968826525903" stroke="#4DD2FF" stroke-linecap="round" stroke-linejoin="round" stroke-width="0.5"><title>2025-07-26 5.2km</title><desc>1753529066000</desc></polyline><polyline fill="none" points="157.171254093264,140.18181818182347 157.08653564329143,140.6066155572771 157.1994935765979,141.15394732809364 157.06535603079828,142.44465525767737 156.7688414559234,144.4541972471343 156.61352429763065,144.7401036117226 156.5923446851375,145.59781660610315 155.96401618121308,149.36347683210624 156.0134352769819,149.72287987014715 155.54748380219098,153.1452965170247 155.6110226396413,154.9667142594044 156.16875243527465,159.8181818181838 156.57116507264436,159.77734577013325 156.25347088527633,156.81259330129978 156.3240695935674,156.6574104108513 155.9216569562268,154.3541344199548 155.91459708535695,153.2596468263655 157.4395291848341,142.58352766104508" stroke="#4DD2FF" stroke-linecap="round" stroke-linejoin="round" stroke-width="0.5"><title>2025-07-24 5.0km</title><desc>1753356656000</desc></polyline><polyline fill="none" points="178.74649914656766,159.78275709061563 178.8459953527199,159.8181818181838 179.18275174268638,157.01958397674025 179.40470481792,156.87788042981265 179.35112993771327,156.60332915194158 179.92514651152305,153.05179756018333 179.96341428314918,151.98010997210076 179.38939770928118,148.19809884697315 179.15213752543787,145.3991277599489 178.69292426639004,144.43363902463898 178.76180625523557,144.291915006841 179.13683041676995,144.3627770445528 178.93783800452366,142.5823508760368 178.6087351688475,142.22803286898124 178.6393493861251,141.27136705066368 178.2184038986452,140.1818181818162 178.60108161452808,141.05877321968728 178.59342806020868,142.19260098902305 178.94549155884306,142.56463500990503 179.14448397111846,144.309630521675 179.0449877649953,144.40706578885874 178.77711336384527,144.30077276471275 178.69292426639004,144.40706578885874 178.96079866748187,144.78794806032238 179.15213752543787,145.4257006931075 179.49654746972374,148.95097129204805 179.94045362016186,151.829541238425 179.93280006587156,153.00751321017015 179.09856264520204,158.80857144015317" stroke="#4DD2FF" stroke-linecap="round" stroke-linejoin="round" stroke-width="0.5"><title>2025-07-22 5.0km</title><desc>1753184035000</desc></polyline><polyline fill="none" points="11.09090909094084,175.05678496471955 11.09090909094084,171.9058197735867 13.178596442216076,163.08296392700868 30.061633282108232,166.16398688071058 30.727272727293894,166.89922692251275 28.45804734574631,180.51838970190147 13.299621795886196,178.13770084473072 12.75500770425424,177.4374951092177 14.63090068649035,163.81821054400643 15.29654013167601,163.39806981215952 19.32063314213883,164.06329240102787 30.69701638899278,166.58412423965638 28.70009805308655,180.23830951366108 28.064714946202002,180.55339970937348 12.99705841159448,177.99765981148812 13.178596442216076,173.51631669385824 14.66115702490788,163.8882339495467 15.14525843958836,163.46809330306132 22.58831769169774,164.72851370551507 14.993976747617126,163.53811677973135 14.146799271809869,167.38938607877935 14.90320773224812,168.12462350548594" stroke="#4DD2FF" stroke-linecap="round" stroke-linejoin="round" stroke-width="0.5"><title>2025-07-20 4.9km</title><desc>1753020627000</desc></polyline><polyline fill="none" points="44.63513398531359,162.0 44.48699992249021,163.00397040413372 43.93678768904647,164.41603762413433 43.471223491535056,166.53817289373546 43.34425143763656,168.21135541240074 42.90690325209289,171.01079751398356 42.80814721022034,171.1005739265529 42.85752523117117,171.50048581839656 42.39901503661531,174.80580382451444 42.37785302766133,175.89938528417406 43.00565929399454,181.62820321827894 42.935119264089735,180.5020575764138 43.012713297008304,181.63636363636033 43.41479146759957,181.55475941819168 42.73760718028643,175.1648919148065 43.81686963819084,167.28090699540917 44.04259773393278,166.57082069081662 44.07081374590052,165.6158671444573" stroke="#4DD2FF" stroke-linecap="round" stroke-linejoin="round" stroke-width="0.5"><title>2025-07-20 5.0km</title><desc>1752942252000</desc></polyline><polyline fill="none" points="66.95060081747943,162.00878684191412 66.82910058955895,162.0 66.63925648335135,162.96654725762346 66.85188188229222,163.09834831939952 66.83669435378397,163.37952324656362 66.57091260515153,165.17199191819964 66.42663108443958,165.47951957437908 66.0545366363076,168.98525757402967 65.74319230215042,170.41738535251352 65.77356735916692,170.83911171302316 65.23441009756061,174.87176621252001 65.96341146531631,181.63636363636033 65.28756644731038,175.99630737002735 65.27237891883124,174.2919189667591 65.77356735916692,170.8918273635354 65.75078606637544,170.42617133932072 66.30513085646089,167.08743208640954 66.41903732015635,165.47073308509425 66.57091260515153,165.1544188762491 66.9733821102418,162.28117849819682" stroke="#4DD2FF" stroke-linecap="round" stroke-linejoin="round" stroke-width="0.5"><title>2025-07-17 5.0km</title><desc>1752765839000</desc></polyline><polyline fill="none" points="97.12636012642179,181.22200390596117 97.56862056872342,180.6078989355301 98.51948051946238,172.59880947700003 84.30080730083864,171.95909485967422 81.73569673579186,172.16380371409468 82.04527904524002,171.95909485967422 81.58090558089316,169.06756451298133 78.94945594947785,164.92212679384102 78.88311688310932,162.5934867776523 79.1926991926739,162.41435973042098 91.55387855391018,162.61907634537783 90.66935766942333,170.67966074909782 90.1165321165463,171.03790295537328 82.39908739901148,170.78201571719546 81.55879255873151,168.09518401479 79.39171639166307,165.33155577916477 79.12636012630537,163.87296197995602 82.20007020002231,163.64265692341723 91.15584415581543,163.94973028535605 91.28852228855249,165.8689303119172 90.4924534924794,172.11262651610014 89.29835029831156,172.18939230915566" stroke="#4DD2FF" stroke-linecap="round" stroke-linejoin="round" stroke-width="0.5"><title>2025-07-15 4.1km</title><desc>1752589649000</desc></polyline><polyline fill="none" points="112.08782879443606,161.99999999999272 112.14766784626408,163.39347423296567 111.68391519473516,166.30152094725054 111.51935780222993,166.6390556539045 111.51187792076962,167.49586851865024 110.85364835086511,171.51152307588927 110.88356787679368,171.96154153473617 110.38241581784678,175.69141074043728 110.98080633595237,181.63636363636033 110.63673178805038,179.28266186005203 110.37493593638646,175.5010269390259 111.496918157849,167.43528607395274 111.42959922453156,167.1583372066525 111.6539956688066,166.3621041981969 112.09530867595458,163.48002467564947 112.04294950558688,163.17709774151444 112.22246666104184,162.25965531190013 112.05790926856571,162.05193112570123" stroke="#4DD2FF" stroke-linecap="round" stroke-linejoin="round" stroke-width="0.5"><title>2025-07-13 5.0km</title><desc>1752418082000</desc></polyline><polyline fill="none" points="133.7255717116641,181.63636363636033 133.62480269360822,181.62739416160184 133.6868143970205,180.91880277700693 134.027878765919,178.76608519825822 134.22941680208896,178.58668969672 134.57823263385217,176.14687467394106 134.76426774411811,173.6262596418601 134.25267119082855,170.1188071873621 133.98912145127542,167.1853575356945 133.83409219267196,166.61121530464152 133.50853074964834,166.0908956804269 133.57829391604173,165.95632976096385 133.95036413660273,166.01015615339566 133.78758341510547,164.30563778064243 133.41551319451537,163.83913227539597 133.43876758331317,162.77154308658646 133.17521784376004,162.03588587456034 133.01243712220457,162.03588587456034 133.15196345493314,161.99999999999272 133.41551319451537,162.654914913408 133.40776173159247,163.84810355839 133.74882610043278,164.16209788792912 133.78758341510547,164.34152271732455 133.95036413660273,165.98324296127976 133.57054245311883,165.96530082864774 133.48527636087965,166.06398251299106 133.82634072977817,166.55738927893253 133.98136998835253,167.10461901021336 134.29917996842414,170.59425008726248 134.779770669993,173.56346760099404 134.77201920707012,174.711657858752 133.82634072977817,181.16994974132103" stroke="#4DD2FF" stroke-linecap="round" stroke-linejoin="round" stroke-width="0.5"><title>2025-07-12 5.1km</title><desc>1752325602000</desc></polyline><polyline fill="none" points="156.37519650664763,181.63636363636033 156.18437394706416,181.62753136183892 156.61181648049387,178.68633403154672 156.78737323527457,178.59800824803824 157.27587898774073,175.32105823651364 157.35220801157993,173.66928726759215 156.90186677101883,170.7101538153438 156.55838616378605,167.11489190032444 156.10041202083812,166.18734318493807 156.16147523987456,166.09017084166408 156.5431203590415,166.15200779995212 156.3675636042317,164.35871813884296 156.0240829969989,163.97885400122323 156.00881719225436,162.78624649600533 155.62717207311653,161.99999999999272 156.03171589938574,162.88342253505107 156.0240829969989,163.97001993176673 156.37519650664763,164.36755216879828 156.56601906617288,166.1255062517739 156.19963975180872,166.08133698687743 156.1156778256409,166.22267855551763 156.57365196855972,167.18556187264767 156.90949967337656,170.6924870443545 157.35984091393766,173.60745565911202 157.28351189012756,175.27689364588878 156.55075326139922,180.15252892537683" stroke="#4DD2FF" stroke-linecap="round" stroke-linejoin="round" stroke-width="0.5"><title>2025-07-10 5.0km</title><desc>1752149320000</desc></polyline><polyline fill="none" points="176.33712650591042,162.0 176.38311869936297,163.224032832004 176.71656210214132,163.05107236516778 177.4294411012088,163.2905560276413 178.1998103420483,163.224032832004 179.06216396996751,163.5433438628388 183.51190868974663,164.12874539702898 183.6383872217848,164.30170444036776 182.61506091675255,170.83406721212668 182.12064483674476,170.87397881411016 182.02866044978146,171.04692894872278 181.85618972423254,172.20435858612473 181.9826682562707,172.70989935606485 181.2008009670535,177.1133430115442 175.4747728780494,176.94040088757174 175.2793060556869,176.8073683291732 174.54343095998047,181.6363636363676 175.31380020081997,176.88718788042024 177.54442158486927,176.92709763777384 178.2917947290116,176.6344258011959 178.3952771644108,176.94040088757174 181.23529511218658,177.03352359810378 183.21295943204314,164.64762184169376 183.1554691902129,164.1952681330731 177.2339742788463,163.1575096025481" stroke="#4DD2FF" stroke-linecap="round" stroke-linejoin="round" stroke-width="0.5"><title>2025-07-08 5.1km</title><desc>1751976330000</desc></polyline><polyline fill="none" points="11.265806750452612,203.27574838337023 11.223665668978356,203.45454545454413 11.49055918538943,203.3407655232586 11.574841348454356,202.43052315952082 12.06648729974404,202.02416328903928 12.16481649002526,201.6015479286434 13.583566235087346,191.76729827182135 13.709989479684737,188.79252181619813 13.37286082742503,186.59797912654176 14.145447322283871,186.56546715658624 14.342105702788103,186.85807464807294 17.053181948431302,187.24821713716665 19.230471161252353,187.21570529945893 20.817785232444294,187.84968494316854 25.874715016921982,188.597452574395 26.8018188108108,183.81818181817653 30.59451614925638,184.66350541099382 27.20918259897735,183.86695060849888 26.57706637593219,186.67925902243587 26.47873718565097,188.62996413122164 17.01104086684063,187.36200851724425 14.342105702788103,186.87433060414332 14.103306240809616,186.516699189262 13.330719745892566,186.64674706904043 13.639754343836103,187.9472200498567 13.695942452584859,190.7594567086926 12.108628381218296,201.6503112964856" stroke="#4DD2FF" stroke-linecap="round" stroke-linejoin="round" stroke-width="0.5"><title>2025-07-06 5.0km</title><desc>1751807521000</desc></polyline><polyline fill="none" points="36.67711269162828,202.23740515198733 37.52788493357366,196.18737708397384 34.77447658684105,195.99047918783617 33.90823575871764,196.2947758436494 35.03744255256606,196.18737708397384 34.88275669043651,196.0083790056524 37.72897655435372,196.16947728434752 37.9300681752502,195.99047918783617 37.83725665794918,195.43558393268904 38.99740062415367,188.11438283865573 38.88912052067462,184.462618652964 40.88456814276287,184.2657076480973 53.10475125431549,186.27060940559022 53.08928266807925,185.6798817953677 39.64708124531899,183.81818181817653 39.863641452393495,188.2396871287201 38.456000106583815,198.19214313308476 38.842714762024116,198.8007283117622 38.486937278998084,199.46300979351508 38.56428021006286,200.8949612415745 38.0228796924348,201.0202564394276 37.77538231300423,203.45454545454413 36.52242682944052,203.3113529143011 36.599769760563504,202.25530433500535" stroke="#4DD2FF" stroke-linecap="round" stroke-linejoin="round" stroke-width="0.5"><title>2025-07-05 4.8km</title><desc>1751729502000</desc></polyline><polyline fill="none" points="69.26437936903676,203.45454545454413 69.45871329150395,203.31252216211578 69.48939759499626,202.50772023378522 69.75532822572859,201.3360133669048 69.89852164225886,201.28867142757372 70.08262746356195,199.57251313341112 66.08343990152935,199.40681375251734 66.33914243109757,198.51913448324922 66.71758217480965,194.51857594955072 66.75849457952427,191.59500394958013 66.615301162994,191.20439970263396 66.76872268068837,188.8133996919787 66.75849457952427,183.81818181817653 61.388741459173616,185.7476397185601 61.27623234613566,186.0198919399263 61.31714475096669,185.78315091396507 64.21169738529716,184.68229881932348 64.26283789123408,187.12073138687265 64.54922472429462,187.73624998144805 66.68689787125913,187.73624998144805 66.69712597242324,190.86114034333877 66.92214419844095,190.96766921830567 67.00396900787018,191.34643776222947 70.74745404033456,191.5831674765068 70.93155986163765,192.51824514272448 70.91110365925124,194.2226711910771 69.62236291042063,203.01663974666735" stroke="#4DD2FF" stroke-linecap="round" stroke-linejoin="round" stroke-width="0.5"><title>2025-07-03 5.2km</title><desc>1751545471000</desc></polyline><polyline fill="none" points="88.35719914105721,203.45454545454413 88.82364521161071,200.57883392557414 89.01481163394055,200.44610648515663 89.50419767518179,196.81814476146246 89.54243095961283,195.56159593992925 88.70894535817206,188.88919480302138 88.30367254282464,188.04847137299657 88.38778576863115,187.93342437718093 88.73188532885979,187.99537277843046 88.57130553407478,186.27850076284085 88.1966193463013,185.80060252626572 88.20426600318751,184.71204674594628 87.84487312921556,183.81818181817653 88.23485263079056,184.7916976306151 88.1966193463013,185.81830250775965 88.54071890650084,186.15460147202975 88.59424550476251,186.42894966457243 88.73188532885979,187.98652300951653 88.35719914105721,187.95997369739052 88.30367254282464,188.0750206581215 88.71659201508737,188.88919480302138 89.11421817354858,192.67677439249383 89.55772427338525,195.5350489382181 89.42773110620328,197.51720280344307 88.5865988478763,203.15370623498166" stroke="#4DD2FF" stroke-linecap="round" stroke-linejoin="round" stroke-width="0.5"><title>2025-07-01 5.0km</title><desc>1751376396000</desc></polyline><polyline fill="none" points="110.60862492321758,203.45454545454413 110.75042143871542,203.2795296244076 110.72206213563913,202.63415629172232 110.94893656042404,202.41538479235896 111.10963927797275,201.5621716965543 111.35541990486672,198.55399464698712 111.69573154207319,197.3835175841523 112.07385558343958,194.30958730415296 111.97932457312709,192.54832790037472 111.44995091517922,189.40862007929536 111.0907330759801,185.60146471064218 110.52354701393051,184.1901573764626 111.02456136868568,184.28862127959292 111.04346757073654,183.8181818181838 111.04346757073654,184.2667404199965 110.60862492321758,184.17921693722747 110.53300011495594,184.28862127959292 110.89221795421327,184.82470094900782 111.10963927797275,185.57958411805885 111.5066695214482,189.82433578408381 112.07385558343958,193.5985233124229 112.02659007825423,195.35976552956708 110.83549934800249,203.0826364754539" stroke="#4DD2FF" stroke-linecap="round" stroke-linejoin="round" stroke-width="0.5"><title>2025-06-30 4.1km</title><desc>1751292736000</desc></polyline><polyline fill="none" points="124.29838454225683,194.8468388659021 124.07792207790771,193.25342535303207 124.15394361733343,193.08615924635524 130.0684193854686,192.80444717664068 131.0110864744638,192.89248229713849 132.546721571096,192.74282253893762 134.8501742160006,192.76923310334678 143.71428571426077,192.2058059777628 141.0687361418968,192.39068090846558 140.4529616724758,192.59316252140707 139.31263858091552,192.54034127682098 133.54260373770376,192.83966123562277 128.17548305349192,192.9364998237288 128.01583782068337,193.0773557581051 128.388343363913,195.06692129496514 128.21349382321932,195.04931472128374 128.00063351279823,194.01052052153682" stroke="#4DD2FF" stroke-linecap="round" stroke-linejoin="round" stroke-width="0.5"><title>2025-06-26 5.0km</title><desc>1750950176000</desc></polyline><polyline fill="none" points="166.31168831168907,194.4400263329735 165.9946318482689,192.83270093974716 157.5468385220738,193.60781112269615 156.6449890260701,193.61597013732535 153.38987600128166,193.20801838657644 146.67532467533601,193.49358483039396 153.1644136272953,193.1998593303506 156.65203472523717,193.6241291511542 162.66201613243902,193.07747338723857" stroke="#4DD2FF" stroke-linecap="round" stroke-linejoin="round" stroke-width="0.5"><title>2025-06-24 5.0km</title><desc>1750769966000</desc></polyline><polyline fill="none" points="188.90909090908826,194.42273320027743 188.64029342413414,192.8499940724505 180.27927691905643,193.64455883254413 179.26067592349136,193.6773242210329 175.9643699240114,193.2513731289655 169.2727272727352,193.54626258698408 175.78752947339672,193.2513731289655 179.2536023054563,193.6773242210329 186.3342939481081,193.04658814652066" stroke="#4DD2FF" stroke-linecap="round" stroke-linejoin="round" stroke-width="0.5"><title>2025-06-22 5.0km</title><desc>1750563938000</desc></polyline><polyline fill="none" points="21.580138624762185,225.27272727272793 20.565267874568235,219.20956247045615 20.55104071451933,217.55635294703825 20.64114606147632,216.86429668508572 20.58423742130981,215.08468260670634 20.603206968022278,214.7770890279353 20.707539475057274,214.6013204798728 20.603206968022278,214.51892877548016 20.59846458132961,213.39289618193288 19.446064617368393,206.46041094194516 19.15677902966854,205.63636363636397 19.450807004002854,206.35603231431742 20.58423742130981,213.27754517208814 20.64588844816899,216.6500869923584 20.565267874568235,217.5618454214855 20.560525487875566,219.15463938084213 21.33827690393082,223.8119184359566 21.44735179762938,224.13044403977256 22.66140278853709,224.06454234520425" stroke="#4DD2FF" stroke-linecap="round" stroke-linejoin="round" stroke-width="0.5"><title>2025-06-21 8.0km</title><desc>1750517001000</desc></polyline><polyline fill="none" points="45.49865930038504,225.27272727272066 43.83529756963253,215.04422753019026 40.9082966944552,214.98449696709577 35.63453740841942,214.4767861974251 35.7376916242647,213.9392081702972 35.53138319251593,212.90884477031068 35.81505728617776,206.17397213823278 35.776374455192126,205.6960980118165 35.51848891557893,205.63636363635305 35.19613199093146,213.92427541918005 35.68611451634206,213.98400641456828 35.711903070274275,214.49171889228455 43.87398040055996,215.02929489171947 44.86683972820174,221.42032507355907 45.17630237585399,222.27144590528042 51.816855022043455,222.06239914157777" stroke="#4DD2FF" stroke-linecap="round" stroke-linejoin="round" stroke-width="0.5"><title>2025-06-19 5.0km</title><desc>1750345525000</desc></polyline><polyline fill="none" points="75.92207792209229,215.94612956552373 75.74184076796519,214.87508141457147 70.18294748730841,215.40236931826075 69.46674195368541,215.4188469820947 67.08571428572759,215.14421859336653 58.263579898368334,215.5451755709837 57.49994353472721,215.67150386373032 56.28571428571013,216.0340094945168 57.99796725012129,215.57263826850976 61.09994353473303,215.4353246409264" stroke="#4DD2FF" stroke-linecap="round" stroke-linejoin="round" stroke-width="0.5"><title>2025-06-17 5.1km</title><desc>1750166247000</desc></polyline><polyline fill="none" points="79.56023287051357,222.86457340772904 78.88311688310932,218.51277066301554 94.18593819969101,218.0619025874039 91.69753694586689,208.24055744035286 94.71070309000788,208.4169932146615 98.51948051946238,208.04451750135922 92.51007613079855,208.39738924772246 94.72763098974247,217.23857554809365 88.1596059112926,217.5522243596497" stroke="#4DD2FF" stroke-linecap="round" stroke-linejoin="round" stroke-width="0.5"><title>2025-06-16 3.2km</title><desc>1750084948000</desc></polyline><polyline fill="none" points="121.11688311686157,216.36227837131446 120.81600335150142,214.54681253776653 111.16409719310468,215.43621199338668 110.29312945119455,215.445381014164 106.4767071637907,214.97775976380944 101.48051948050852,215.21615521475906 106.31834939253167,214.96859069538186 110.28521156264469,215.42704297169985 118.47230833684443,214.73936368111754" stroke="#4DD2FF" stroke-linecap="round" stroke-linejoin="round" stroke-width="0.5"><title>2025-06-15 4.6km</title><desc>1749956754000</desc></polyline><polyline fill="none" points="143.71428571426077,216.2442695138161 143.47524655793677,214.66482139526488 135.06669270579005,215.4382663862052 134.18787227809662,215.45454935816815 130.4897959183436,215.0393325365876 124.07792207790771,215.33242698763934 130.61634605992003,215.0393325365876 134.13162777072284,215.45454935816815 135.96660482374136,215.36499297137198 136.3111024313548,215.2510119702274 140.76847964065382,214.85207718540187" stroke="#4DD2FF" stroke-linecap="round" stroke-linejoin="round" stroke-width="0.5"><title>2025-06-14 5.1km</title><desc>1749906363000</desc></polyline><polyline fill="none" points="166.31168831171817,216.62045664162724 166.07560756077874,215.02839227797813 157.93776520510437,215.81638774621388 156.84068406841834,215.82442847575294 153.50777934939833,215.42239099591825 147.23080879519694,215.7198989280805 147.147486177244,215.5349616967942 147.18220393470256,214.29667515269102 146.67532467533601,214.28863426746102 147.20303458921262,214.31275692069175 147.147486177244,215.52692093776568 147.2516394496779,215.7198989280805 153.68136813683668,215.4143502254301 156.99344220140483,215.83246920446254 163.58981612452772,215.23745306725323 163.58287257299526,214.91582085427217 165.70065577988862,214.80324926997127" stroke="#4DD2FF" stroke-linecap="round" stroke-linejoin="round" stroke-width="0.5"><title>2025-06-12 5.9km</title><desc>1749735885000</desc></polyline><polyline fill="none" points="188.90909090905916,221.6319669145014 188.28312228311552,218.4803150758089 171.08259308250854,220.00887424060784 169.46323946322082,215.58073864293692 169.2727272727061,210.04933060398616 172.48421848414,209.9074970261281 175.21942921931623,210.0808491591597 175.3691173691186,209.57655150510254 175.08334908331744,209.46623617399018 169.35437535430538,209.27712399458687 169.4768474767916,215.42315140916617 169.95312795304926,217.21963635200518 170.89208089199383,219.4573340165516 178.512568512524,218.7954831506213 178.66225666220998,219.39430072279356 188.24229824228678,218.46455665517715 188.8274428274599,221.58469261147548" stroke="#4DD2FF" stroke-linecap="round" stroke-linejoin="round" stroke-width="0.5"><title>2025-06-10 5.3km</title><desc>1749559786000</desc></polyline><polyline fill="none" points="11.606492532242555,232.0446277277806 11.135101957363077,230.13406678776664 11.090909090882633,228.6499552931782 24.45188569877064,228.3087783765659 25.05585487280041,230.5434745394159 24.61392620886909,230.52641590313578 24.481347609660588,230.8334710909112 24.76123576349346,232.41991392127238 24.687580986181274,233.49459245691833 25.17370251653483,235.64392882896936 26.425833731191233,235.59275447417167 28.281934119935613,242.73995454012766 28.31139603088377,243.06404468568508 27.840005455946084,243.2005035066686 28.267203164461534,243.08110204442346 28.414512719085906,243.35401954725967 28.031507876934484,243.42224885353062 28.164086476142984,244.05336861770775 29.047943804122042,246.30491163564147 29.666643933742307,246.23668350420485 30.727272727235686,245.65674326453882 29.607720111845993,245.8955424300657 27.619041123893112,237.96381648290844 27.383345836482476,237.28149992214458 26.853031439706683,237.28149992214458 26.455295642081182,235.541580103687 26.028097933565732,235.71216127771186 25.15897156111896,235.59275447417167 24.672850030707195,233.63105907880527 24.569733342446852,231.1064085627586 23.75953079177998,228.24054290979984 11.135101957363077,228.68407294657663 11.665416354080662,232.14697859123407" stroke="#4DD2FF" stroke-linecap="round" stroke-linejoin="round" stroke-width="0.5"><title>2025-06-08 5.0km</title><desc>1749355299000</desc></polyline><polyline fill="none" points="53.324675324663986,238.08075969265337 52.979312145122094,236.4646948528025 46.65000326302834,236.9952247848123 44.74698166153394,237.26456940517528 43.689747438475024,237.26456940517528 40.34183906545513,236.85647114199674 33.68831168831093,237.1503021011158 40.02466879852,236.85647114199674 43.654506297723856,237.27273134921415 51.28773738825112,236.58712514905346" stroke="#4DD2FF" stroke-linecap="round" stroke-linejoin="round" stroke-width="0.5"><title>2025-06-07 5.3km</title><desc>1749293029000</desc></polyline><polyline fill="none" points="75.92207792206318,238.05062502653163 75.63216401892714,236.49482951891696 66.67311730398796,237.31367301521823 63.0385869081947,236.89606387490494 56.28571428571013,237.17447020964028 63.01030262498534,236.87968700163765 66.24178198468871,237.31367301521823 73.16436030660407,236.68316426207457" stroke="#4DD2FF" stroke-linecap="round" stroke-linejoin="round" stroke-width="0.5"><title>2025-06-05 5.1km</title><desc>1749128617000</desc></polyline><polyline fill="none" points="79.15799161465839,237.14843680100603 78.88311688310932,235.34800352909951 78.98619490742567,235.2684256014618 86.6912772267242,234.9998496166736 88.1429594027868,240.32149525884597 95.7535535330826,240.2220279077519 98.51948051949148,240.05293317826 96.24317414872348,240.13250720508222 95.82227221599896,234.2239592866099 88.53809182942496,234.6516944622781 86.97474179364508,234.60195791024307 87.11217915941961,234.9998496166736 83.07495653952355,235.11921681227977" stroke="#4DD2FF" stroke-linecap="round" stroke-linejoin="round" stroke-width="0.5"><title>2025-06-03 5.2km</title><desc>1748952979000</desc></polyline><polyline fill="none" points="117.71915502331103,231.4189281998042 117.28839846767369,230.7813614567276 116.98305204851204,230.11222495238326 116.78675792191643,229.9291580468016 116.30147522001062,229.88496940240293 115.9306974252977,229.45570664631305 115.76166637183633,228.89387295998677 115.51084609891404,228.50879299819644 115.21095229437924,227.45454545454413 114.3439865685068,227.82700621572076 113.9404930860037,227.87119632701797 112.8935910773871,228.26259308057342 112.44647667789832,228.8370580340743 112.44647667789832,228.98225163013194 110.63620862134849,231.28636535744954 110.62530339209479,231.4189281998042 110.12911546093528,232.10067548367078 109.69835890532704,232.49835793760212 109.62202230052208,232.4289215024728 109.31667588133132,232.69404201831276 109.11492914007977,232.57410668727607 109.10947652548202,232.68772963826268 109.08221345231868,232.5236075311259 109.36574941297295,232.72560390899162 109.32212849595817,232.95284904754226 108.66781474059098,233.67876543856983 107.55002874182537,233.93125610434072 107.55002874182537,233.81763543199486 107.47369213702041,233.95650511437634 107.16834571782965,234.0259398389644 106.90116760105593,233.95019286282695 106.45405320156715,233.98806636245718 106.37771659673308,233.9186315954721 106.19778031404712,234.01962759449816 105.65797146584373,233.8302599614144 105.58708747566561,233.0033478541045 105.37988811981631,232.82028948459265 104.36024918436306,233.0790959868791 103.97856616039644,233.31265214703308 104.41477533063153,235.2000061373401 105.1018047737598,237.30821993466088 106.5522002648504,242.9760562111478 106.75394700610195,243.56300743575775 108.46606799933943,247.02779991107673 108.68417258447153,247.0909090909081 109.43663340318017,246.85109386608383 109.94917917822022,247.0025562211813 110.88702889424167,246.80691727621524 110.87067105033202,246.4345704831394 111.1214913232543,246.3651496474813 111.57405833739904,246.57341192148306 111.91757305897772,246.4093265518968 112.05934103930485,246.6175886776109 112.94266460905783,246.81322821953654 113.46066299875383,246.71856400209435 113.98411400304758,246.32728370437326 114.07680845170398,245.58889319485752 114.4693967049534,245.046139011607 114.3657970270142,244.5033800802339 114.49120716346079,244.23831003919622 114.22402904665796,243.9416826980996 114.0549979932257,243.49989466730403 113.98956661764532,242.84351806928316 114.3439865685068,242.55950681176182 114.8837954166811,242.78040456887175 115.183689221245,242.76147050621512 115.26002582602086,242.35123106317405 115.13461568957428,241.84631725510917 115.03101601163507,241.80213710137104 115.13461568957428,241.75164545858206 115.01465816775453,241.71377669950743 115.11280523103778,241.7705798294446 115.12371046032058,241.47394068857466 114.98194247999345,241.14574253931642 114.33853395385086,241.10156188661495 114.03864014931605,240.87434660424697 114.16405028573354,240.0159702484707 114.6765960608027,239.13864684530563 115.069184314023,238.70313637431173 115.24912059676717,238.6400186610481 115.63625623538974,238.1035155048521 116.31783306389116,237.45339369644353 116.92307328761672,236.69596163538154 116.7485896194994,236.34249017442926 116.20878077132511,236.33617816575133 116.13789678114699,236.1278815188016 116.3450961370254,235.62922912789872 116.58501118066488,235.40199379707337 116.80856838042382,235.4335543094785 116.90126282908022,235.31993638966378 116.71042131714057,234.88439910187662 116.9666942046315,234.34786345524117 117.20660924830008,234.20899464925242 117.40835598952253,234.2910535267365 117.3810929163883,234.13956012966082 117.98633314008475,233.86182127374923 118.04085928638233,233.69138999628194 118.56976290530292,233.36946297187387 118.61883643697365,232.90866255805304 117.92635437916033,231.58936572353923 117.81730208659428,231.53886576534205" stroke="#4DD2FF" stroke-linecap="round" stroke-linejoin="round" stroke-width="0.5"><title>2025-06-02 11.5km</title><desc>1748829019000</desc></polyline><polyline fill="none" points="143.71428571428987,238.1910037909547 143.3545854644908,236.35445075449388 132.98050326027442,237.32006564088806 128.68045027408516,236.82779263940756 124.07792207790771,237.02659551174293 128.73767531383783,236.8088590103216 132.50635293097002,237.30113211214484 143.33823545312043,236.363917615854 143.70611070861924,238.13420372573455" stroke="#4DD2FF" stroke-linecap="round" stroke-linejoin="round" stroke-width="0.5"><title>2025-06-01 4.9km</title><desc>1748740054000</desc></polyline><polyline fill="none" points="166.31168831168907,246.7353890965751 166.24058500339743,246.88634165430267 166.09837838681415,246.77655799276545 165.62435633165296,244.14172326189873 150.64525938755833,245.44542397395708 149.25874487613328,241.56173095974373 149.19949211925268,236.67607816614327 148.86767668061657,234.83705056644976 146.67532467533601,227.65911289113865 148.12109194364166,232.4627464346413 148.51216013921658,233.20386320276884 149.15208991372492,235.9624286476901 149.79201968823327,236.1408413819736 149.12838881096104,236.1271173339046 149.25874487613328,241.1088548698317 149.70906582853058,242.9615201522538 150.4912022196222,244.89649889686552 150.6926615930861,245.02000723432866 157.11566044093342,244.36129479209194 157.29341871163342,244.8827757412946 162.40100635634735,244.3887412082113" stroke="#4DD2FF" stroke-linecap="round" stroke-linejoin="round" stroke-width="0.5"><title>2025-05-31 5.5km</title><desc>1748696141000</desc></polyline><polyline fill="none" points="187.53199527744437,242.69188813846267 187.0857142857276,239.81257658210234 170.9303423849051,241.25962236321357 169.4384887839551,237.00703848303237 169.2727272727061,231.8830997205805 174.75560802826658,231.9421663297544 169.34923258557683,231.85356640700775 169.45123966940446,236.9332077993604 169.84651711926563,238.5131762171659 170.8410861864686,240.78711920753994 185.14757969300263,239.41389816405717 186.422668240848,239.34006870693702 186.48642266826937,239.8864057983883 188.90909090905916,239.69444975779334" stroke="#4DD2FF" stroke-linecap="round" stroke-linejoin="round" stroke-width="0.5"><title>2025-05-29 5.0km</title><desc>1748526381000</desc></polyline><polyline fill="none" points="22.994093070097733,257.163120448633 22.558420976740308,253.5954833484575 29.93372712866403,253.23511196117033 30.727272727235686,256.1360807841411 29.871488258126192,253.3071862973593 22.527301541529596,253.64953899316606 22.72957787057385,255.43336599713075 22.449502953502815,253.66755753771577 11.962253277597483,254.64055621744774 13.533784757193644,262.51444111860474 14.14061374438461,264.3522310566914 13.736061086237896,264.604475243701 14.374009508639574,266.2981054656848 13.518225039588287,264.0639515452058 11.402103443222586,254.67659310280578 15.074196801579092,254.1540575469844 21.718196225294378,253.73963169766648 21.64039763720939,253.21709337249922 11.884454689512495,253.88377992936876 11.339864572742954,251.88371271615324 11.090909090882633,252.09993728956033 11.215386831841897,254.0279280435061 18.57513326604385,253.3071862973593" stroke="#4DD2FF" stroke-linecap="round" stroke-linejoin="round" stroke-width="0.5"><title>2025-05-27 6.0km</title><desc>1748352132000</desc></polyline><polyline fill="none" points="50.70798449841095,260.5542110266106 50.786261574423406,260.50241390000883 50.53465668729041,259.2463206499233 43.92024376534391,259.8808450865545 43.15424666451872,259.8937944988611 40.39777534539462,259.57005839927297 33.81131852202816,259.86142096315234 33.68831168831093,257.71178127363237 34.471082448319066,257.6276071552129 35.55018785316497,257.7053063454114 35.555779072863515,259.57005839927297 40.559920717118075,259.36934118901627 43.60154424162465,259.66717940236776 50.523474247864215,258.9808544643565 53.20725971067441,258.8837324119668 53.32467532469309,259.09740073119974 53.246398248680634,259.1232998725791 50.76948791529867,259.22689633247865" stroke="#4DD2FF" stroke-linecap="round" stroke-linejoin="round" stroke-width="0.5"><title>2025-05-25 7.6km</title><desc>1748179850000</desc></polyline><polyline fill="none" points="75.9092100559792,260.17497417935374 75.85773859167239,259.7502939511178 75.6068152031221,259.7502939511178 75.44596687713056,258.95308054445195 75.31728821631987,258.77426512866805 69.10854283330264,259.3032594666729 68.0919814130757,259.4895241674094 64.01286786605488,259.10954367445083 56.39509114739485,259.4522712652397 56.28571428571013,258.1558584436789 58.17729059929843,258.00684400246246 58.16442273321445,259.0946424384165 58.41534612176474,259.1244449074584 63.76194447753369,258.89347545447526 67.63517216723994,259.22875345349166 75.67758846658398,258.4538864148344 75.92207792206318,260.0930185379475" stroke="#4DD2FF" stroke-linecap="round" stroke-linejoin="round" stroke-width="0.5"><title>2025-05-24 6.6km</title><desc>1748094255000</desc></polyline><polyline fill="none" points="98.51948051949148,259.9658452478325 98.30586979503278,258.2159729339837 90.2203082976921,258.90309963210166 89.09687411700725,259.0954941663367 87.8152097701095,259.1138174338048 84.12053538727923,258.6648963048865 78.88311688310932,258.87561466500483 84.09680086231674,258.655734625856 87.76774072021362,259.1229790661746 96.1460280251631,258.4175306431498" stroke="#4DD2FF" stroke-linecap="round" stroke-linejoin="round" stroke-width="0.5"><title>2025-05-18 4.7km</title><desc>1747565909000</desc></polyline><polyline fill="none" points="118.56466179108247,259.7939819938365 118.35103974182857,258.53756614919985 112.65632563826512,259.01930364306827 111.7062696822104,259.1885618999804 110.94172761103255,259.18205197530915 108.33891158938059,258.8435349784522 101.51987091061892,259.1560122700321 101.48051948050852,258.96071414192556 105.32009473489597,258.71333565579334 107.92291075654794,258.66776583016326 110.96421414255747,259.1560122700321 118.42412096919725,258.4919961981541 120.93699086480774,258.3878361879797 121.03818025661167,258.4008561985429 121.05504515522625,258.4919961981541 121.11688311686157,258.45293621424935" stroke="#4DD2FF" stroke-linecap="round" stroke-linejoin="round" stroke-width="0.5"><title>2025-05-17 5.7km</title><desc>1747487200000</desc></polyline><polyline fill="none" points="142.64121757776593,258.2791209037241 140.04078968497925,258.41517610446317 138.77190619509201,258.6419343101079 132.94444127866882,259.086378717162 129.29444309178507,258.6147233559459 124.07792207790771,258.8233404586208 129.22394956459175,258.6328639929852 132.80345422425307,259.07730844531034 143.20516579548712,258.1702765933878 143.54980081744725,259.9299099572454 143.71428571426077,260.01154158843565" stroke="#4DD2FF" stroke-linecap="round" stroke-linejoin="round" stroke-width="0.5"><title>2025-05-11 5.0km</title><desc>1746965499000</desc></polyline><polyline fill="none" points="166.31168831171817,259.79641172399715 165.99474557006033,258.38540645781904 157.08513294451404,259.1928633833886 153.4649425180396,258.776901742247 146.67532467533601,259.0623658463446 153.29590638916125,258.7850578736252 156.67662896643742,259.1928633833886 166.05109094639192,258.4017187995705" stroke="#4DD2FF" stroke-linecap="round" stroke-linejoin="round" stroke-width="0.5"><title>2025-05-10 5.3km</title><desc>1746870058000</desc></polyline><polyline fill="none" points="188.86621675267816,258.75991557327507 188.81619690355728,258.619242337365 188.90909090911737,258.7268160102685 188.53036919413717,258.79301512274833 179.77689559353166,259.5625758444439 176.0682810639264,259.1240098755152 169.2727272727352,259.40535435439233 176.03255260025617,259.1240098755152 177.76895593490917,259.2646822368333 179.34815402940148,259.5543010367546 186.5152838428039,258.908863439734" stroke="#4DD2FF" stroke-linecap="round" stroke-linejoin="round" stroke-width="0.5"><title>2025-05-05 5.4km</title><desc>1746434825000</desc></polyline></svg>