<?xml version="1.0" encoding="utf-8" ?>
<svg baseProfile="full" height="300mm" version="1.1" viewBox="0,0,200,300" width="200mm" xmlns="http://www.w3.org/2000/svg" xmlns:ev="http://www.w3.org/2001/xml-events" xmlns:xlink="http://www.w3.org/1999/xlink"><defs /><rect fill="#222222" height="300" width="200" x="0" y="0" /><text fill="#FFFFFF" style="font-size:12px; font-family:Arial; font-weight:bold;" x="10" y="20">Over 3km Runs</text><text fill="#FFFFFF" style="font-size:4px; font-family:Arial" x="10" y="280">Runner</text><text fill="#FFFFFF" style="font-size:9px; font-family:Arial" x="10" y="290">tang-hi</text><text fill="#FFFFFF" style="font-size:4px; font-family:Arial" x="65" y="280">SPECIAL TRACKS</text><rect fill="yellow" height="2.6" width="2.6" x="65" y="283" /><text fill="#FFFFFF" style="font-size:3px; font-family:Arial" x="70" y="285.5">Over 20.0 km</text><rect fill="red" height="2.6" width="2.6" x="65" y="287" /><text fill="#FFFFFF" style="font-size:3px; font-family:Arial" x="70" y="289.5">Over 40.0 km</text><text fill="#FFFFFF" style="font-size:4px; font-family:Arial" x="120" y="280">STATISTICS</text><text fill="#FFFFFF" style="font-size:3px; font-family:Arial" x="120" y="285">Number: 20</text><text fill="#FFFFFF" style="font-size:3px; font-family:Arial" x="120" y="290">Weekly: 3.3</text><text fill="#FFFFFF" style="font-size:3px; font-family:Arial" x="141" y="285">Total: 114.9 km</text><text fill="#FFFFFF" style="font-size:3px; font-family:Arial" x="141" y="290">Avg: 5.7 km</text><text fill="#FFFFFF" style="font-size:3px; font-family:Arial" x="167" y="285">Min: 4.6 km</text><text fill="#FFFFFF" style="font-size:3px; font-family:Arial" x="167" y="290">Max: 11.5 km</text><polyline fill="none" points="52.75,54.37219914083835 52.12943548394833,50.6278008591471 32.2223790322314,52.462187236349564 30.426008064532652,52.48109834171191 22.554637096764054,51.516629512858344 12.25,52.008320130436914 22.22802419355139,51.49771830921236 30.409677419404034,52.44327612912457 47.29556451627286,51.024937592301285" stroke="#4DD2FF" stroke-linecap="round" stroke-linejoin="round" stroke-width="0.5"><title>2025-06-15 4.6km</title><desc>1749956754000</desc></polyline><polyline fill="none" points="97.75,54.12880587224208 97.25698174012359,50.871194127743365 79.91433942003641,52.4664244215528 78.10177228791872,52.5000080512109 70.47448979591718,51.643623356721946 57.25,52.24813066200295 70.73549946292769,51.643623356721946 77.98576799145667,52.5000080512109 81.77040816331282,52.31529800345015 82.48093447904103,52.08021218859358 91.67427497316385,51.25740919489181" stroke="#4DD2FF" stroke-linecap="round" stroke-linejoin="round" stroke-width="0.5"><title>2025-06-14 5.1km</title><desc>1749906363000</desc></polyline><polyline fill="none" points="142.75,54.90469182335073 142.2630834511947,51.62105907330988 125.47878359263996,53.24629972655384 123.21605374821229,53.262883731222246 116.34193776518805,52.43368142907275 103.3956859971513,53.04729153915832 103.22383309761062,52.66585849963303 103.29543847241439,50.11189250240568 102.25,50.09530817663472 103.33840169728501,50.145061148912646 103.22383309761062,52.64927443412307 103.43864922208013,53.04729153915832 116.69996463926509,52.41709733994503 123.53111739747692,53.279467734188074 137.13613861391786,52.0522469511925 137.12181753886398,51.388880511934985 141.4897454031161,51.156701619314845" stroke="#4DD2FF" stroke-linecap="round" stroke-linejoin="round" stroke-width="0.5"><title>2025-06-12 5.9km</title><desc>1749735885000</desc></polyline><polyline fill="none" points="187.75,65.24093176116003 186.45893970900215,58.740649843850406 150.98284823272843,61.893303121236386 147.64293139288202,52.76027345104376 147.25,41.35174437070964 153.87370062363334,41.05921261635376 159.51507276494522,41.4167513907596 159.82380457385443,40.37663747926126 159.234407484415,40.149112108832924 147.41839916829485,39.75906823881087 147.67099792091176,52.43524978138157 148.65332640323322,56.140499975997955 150.5899168398464,60.75575140910223 166.30717255710624,59.39068399815005 166.61590436578263,60.625745240744436 186.37474012479652,58.7081481012865 187.58160083170515,65.14342851116089" stroke="#4DD2FF" stroke-linecap="round" stroke-linejoin="round" stroke-width="0.5"><title>2025-06-10 5.3km</title><desc>1749559786000</desc></polyline><polyline fill="none" points="13.3133908478776,90.46704468855751 12.341147787170485,86.52651274978416 12.25,83.46553279217915 39.80701425380539,82.7618554016808 41.05270067520905,87.37091623755987 40.14122280583251,87.33573280021665 39.86777944501955,87.96903412500978 40.445048762252554,91.24107246263884 40.29313578410074,93.45759694240405 41.29576144053135,97.89060320975841 43.87828207074199,97.7850561029918 47.70648912235629,112.52615623903694 47.76725431380328,113.1945921642473 46.79501125297975,113.47603848253493 47.67610652674921,113.22977296664612 47.97993248316925,113.79266531625763 47.18998499622103,113.933388260426 47.463428357150406,115.23507277402678 49.28638409613632,119.87888024852145 50.56245311337989,119.73815972742159 52.75,118.54203298312495 50.440922730835155,119.03455626204959 46.33927231817506,102.67537149600685 45.85315078787971,101.26809358943137 44.75937734451145,101.26809358943137 43.93904726195615,97.67950896389084 43.05795198807027,98.03133263529162 41.26537884492427,97.7850561029918 40.26275318849366,93.73905935004586 40.05007501889486,88.53196766070323 38.379032258177176,82.62111975150765 12.341147787170485,83.53590045234887 13.434921230422333,90.6781433444412" stroke="#4DD2FF" stroke-linecap="round" stroke-linejoin="round" stroke-width="0.5"><title>2025-06-08 5.0km</title><desc>1749355299000</desc></polyline><polyline fill="none" points="97.75,102.91656686610077 97.03768844215665,99.58343313391379 83.98348887288012,100.67765111869085 80.05850681976881,101.23317439817765 77.87796123477165,101.23317439817765 70.97290021536173,100.39147173038509 57.25,100.99749808356864 70.31873653980438,100.39147173038509 77.80527638195781,101.25000840776192 93.54881550610298,99.8359456199396" stroke="#4DD2FF" stroke-linecap="round" stroke-linejoin="round" stroke-width="0.5"><title>2025-06-07 5.3km</title><desc>1749293029000</desc></polyline><polyline fill="none" points="142.75,102.8544141172315 142.152052574791,99.64558588278305 123.67401872522896,101.33445059390215 116.17779978387989,100.47313174200826 102.25,101.04734480740444 116.11946344975149,100.43935444088129 122.78438962914515,101.33445059390215 137.06220741808647,100.03402629053744" stroke="#4DD2FF" stroke-linecap="round" stroke-linejoin="round" stroke-width="0.5"><title>2025-06-05 5.1km</title><desc>1749128617000</desc></polyline><polyline fill="none" points="147.81692913384177,100.99365090206265 147.25,97.28025727876229 147.46259842510335,97.11612780300493 163.354330708622,96.56218983438157 166.34842519683298,107.53808397136163 182.04527559049893,107.33293255974422 187.75,106.98417468016851 183.05511811026372,107.14829611047753 182.18700787401758,94.96191602862382 167.16338582674507,95.84411982844176 163.93897637794726,95.74153818987543 164.22244094486814,96.56218983438157 155.89566929126158,96.80838467532885" stroke="#4DD2FF" stroke-linecap="round" stroke-linejoin="round" stroke-width="0.5"><title>2025-06-03 5.2km</title><desc>1748952979000</desc></polyline><polyline fill="none" points="45.74218580703018,137.92653941209574 44.85375041101361,136.61155800450797 44.22397342149634,135.23146396429365 43.81911678542383,134.85388847153808 42.81822121271398,134.76274939245923 42.05349201109493,133.87739495802816 41.70486546336906,132.71861297998112 41.18754865048686,131.9243855587847 40.56901767855743,129.75 38.78090086899465,130.51820031992975 37.94869556138292,130.60934242448275 35.78946016856935,131.41659822868678 34.86728671961464,132.60143219528254 34.86728671961464,132.90089398715645 31.133608852978796,137.65312854974763 31.1111168176285,137.92653941209574 30.08772920962656,139.3326431850801 29.19929381366819,140.1528632463087 29.041849566274323,140.00965059885493 28.412072576698847,140.55646166277438 27.99596992286388,140.30909504251758 27.98472390527604,140.54344237891928 27.92849381681299,140.2049405329526 28.513286735746078,140.62155806230294 28.4233185944031,141.09025116056 27.07379647390917,142.587453717053 24.76836285146419,143.10821571521228 24.76836285146419,142.87387307848985 24.61091860407032,143.1602917984128 23.981141614494845,143.30350091787113 23.430086748616304,143.14727277959173 22.507913299661595,143.22538687257475 22.35046905220952,143.08217766566668 21.97935046913335,143.2904819136529 20.865994719788432,142.89991117042518 20.719796490040608,141.1944049490994 20.292447818559594,140.8168470619712 18.189442514209077,141.35063547294703 17.402221277239732,141.83234505326254 18.301902690902352,145.72501265827304 19.718900917388964,150.07320361524035 22.71034161769785,161.76311593550054 23.12644427153282,162.97370283625787 26.6576938200742,170.1198373166044 27.10753452690551,170.25 28.659484965493903,169.7553810988029 29.71661062655039,170.0677722061955 31.650925665860996,169.66426688219508 31.617187612806447,168.8963016214766 32.13450442563044,168.75312114793633 33.0679238922894,169.18266208806745 33.77642300556181,168.84423601329036 34.06881946499925,169.27377664758387 35.89067432761658,169.67728320279275 36.95904600637732,169.48203825432574 38.0386637027259,168.6750226402728 38.22984600311611,167.15209221439727 39.03955927543575,166.03266171144787 38.825884939637035,164.9132214154888 39.084543346078135,164.3665144558472 38.533488480199594,163.75472056483704 38.18486193247372,162.84353275131434 38.04990972037194,161.48975601790153 38.78090086899465,160.9039827992674 39.89425661833957,161.35958442330593 40.512787590269,161.32053291907505 40.67023183760466,160.47441406780126 40.41157343122177,159.43302933866653 40.197899095423054,159.34190777158074 40.41157343122177,159.23776875832846 40.16416104248492,159.1596644427409 40.36658936046297,159.27682089823793 40.38908139587147,158.66500267019 40.09668493643403,157.9880939873401 38.7696548512904,157.89697139115015 38.151123879419174,157.42833987126505 38.409782285802066,155.65793863747967 39.466907946858555,153.84845911844604 40.27662121911999,152.95021877202817 40.647739802254364,152.8200384884185 41.44620705692796,151.7135007287652 42.85195926571032,150.37262449892296 44.10026722715702,148.81042087297828 43.74039466166869,148.08138598476216 42.62703891232377,148.06836746686167 42.480840682575945,147.63875563253532 42.90818935405696,146.6102850762909 43.403014131530654,146.1416122064693 43.864100856066216,146.20670576330303 44.055283156456426,145.9723688036902 43.66167253802996,145.0740731476253 44.1902353685,143.96746837643877 44.6850601460319,143.68105146408925 45.10116279986687,143.85029789889813 45.044932711462025,143.5378427674368 46.29324067290872,142.96500637711142 46.405700849602,142.61349186733423 47.49656456365483,141.94951737950032 47.59777872270206,140.9991165259853 46.169534478511196,138.27806680480717 45.94461412506644,138.17391064102412" stroke="#4DD2FF" stroke-linecap="round" stroke-linejoin="round" stroke-width="0.5"><title>2025-06-02 11.5km</title><desc>1748829019000</desc></polyline><polyline fill="none" points="97.75,151.89394531885046 97.00811823480763,148.1060546811641 75.61157368862769,150.09763538434345 66.74271440459415,149.08232231879083 57.25,149.49235324299661 66.86074104905128,149.04327170881152 74.63363863446284,150.05858498132147 96.97439633635804,148.12558008272026 97.73313905083342,151.7767951843416" stroke="#4DD2FF" stroke-linecap="round" stroke-linejoin="round" stroke-width="0.5"><title>2025-06-01 4.9km</title><desc>1748740054000</desc></polyline><polyline fill="none" points="142.75,169.51674001172069 142.60334942664485,169.8280796620238 142.31004827993456,169.60165086010238 141.33237779105548,164.1673042277107 110.43799034401309,166.85618694633013 107.57830416411161,158.84607010451145 107.45609535300173,148.76941121771233 106.77172601083294,144.97641679336084 102.25,130.1719203380053 105.23189499089494,140.07941452148953 106.03847314429004,141.60796785575803 107.3583283041371,147.29750908591086 108.67818346410058,147.6654853503569 107.309444779763,147.63717950120918 107.57830416411161,157.9120131690579 108.50709112850018,161.7331353140762 110.12024743505754,165.7240289748297 110.53575739287771,165.9787649208447 123.78319251653738,164.6201705087442 124.14981894986704,165.69572496644105 134.68421846698038,164.6767787419667" stroke="#4DD2FF" stroke-linecap="round" stroke-linejoin="round" stroke-width="0.5"><title>2025-05-31 5.5km</title><desc>1748696141000</desc></polyline><polyline fill="none" points="184.90974025975447,161.17701928556198 183.98928571434226,155.23843920056242 150.66883116890676,158.22297112413798 147.5918831169838,149.4520168712479 147.25,138.88389317368274 158.55844155838713,139.0057180550939 147.40779220790137,138.82298071443802 147.61818181816489,149.2997410861426 148.43344155850355,152.55842594790738 150.4847402597079,157.24843336554477 179.99188311689068,154.41616496336064 182.62175324675627,154.2638917080476 182.75324675336014,155.3907119591604 187.75,154.9948026254424" stroke="#4DD2FF" stroke-linecap="round" stroke-linejoin="round" stroke-width="0.5"><title>2025-05-29 5.0km</title><desc>1748526381000</desc></polyline><polyline fill="none" points="36.800316957058385,194.7739359253028 35.901743264636025,187.41568440617993 51.11331220285501,186.6724184198829 52.75,192.65566661726916 50.98494453239255,186.8210717382899 35.837559429463,187.52717417338863 36.254754358087666,191.20631736906944 35.677099841530435,187.56433742152876 14.047147384961136,189.57114719846868 17.288431061664596,205.81103480709135 18.54001584777143,209.6014765544096 17.70562599040568,210.1217301901197 19.02139461156912,213.6148425229767 17.2563391441945,209.00690006196965 12.891838351730257,189.64547327451874 20.465530903311446,188.56774369062623 34.1687797147315,187.71299037642893 34.008320126798935,186.63525508076418 13.886687797144987,188.01029610430123 12.763470681384206,183.88515747705242 12.25,184.33112065971363 12.506735340692103,188.30760158970952 27.68621236132458,186.8210717382899" stroke="#4DD2FF" stroke-linecap="round" stroke-linejoin="round" stroke-width="0.5"><title>2025-05-27 6.0km</title><desc>1748352132000</desc></polyline><polyline fill="none" points="92.35307517083129,201.76806024237885 92.51452164014336,201.66122866875958 91.9955865603406,199.07053634045587 78.35335990891326,200.37924299100996 76.77349088841584,200.40595115389442 71.08826879278058,199.7382454484905 57.50370159454178,200.33918073649693 57.25,195.9055488768645 58.8644646924804,195.73193975762115 61.090119589993265,195.89219433740072 61.101651480654255,199.7382454484905 71.42269362189109,199.32426620234037 77.69604214123683,199.9385575173801 91.97252277907683,198.52301233273465 97.50783029611921,198.3226980996842 97.75,198.7633890080906 97.58855353074614,198.81680598719686 92.47992596816039,199.03047368573607" stroke="#4DD2FF" stroke-linecap="round" stroke-linejoin="round" stroke-width="0.5"><title>2025-05-25 7.6km</title><desc>1748179850000</desc></polyline><polyline fill="none" points="142.7234600262018,200.98588424491754 142.61730013106717,200.10998127417406 142.09977064217674,200.10998127417406 141.76802096981555,198.4657286229194 141.5026212319499,198.0969218278624 128.69708387943683,199.18797265000467 126.60042595019331,199.5721435952728 118.18725425947923,198.78843382853665 102.47558977722656,199.49530948455504 102.25,196.82145804008178 106.15137614682317,196.5141157550679 106.12483617296675,198.75770002922218 106.64236566185718,198.8191676216229 117.66972477064701,198.34279312484432 125.65825688070618,199.03430399781791 142.24574049806688,197.4361407305987 142.75,200.8168507345108" stroke="#4DD2FF" stroke-linecap="round" stroke-linejoin="round" stroke-width="0.5"><title>2025-05-24 6.6km</title><desc>1748094255000</desc></polyline><polyline fill="none" points="187.75,200.55455582366267 187.30942788079847,196.94544417633733 170.63295729254605,198.36264299121103 168.31587429490173,198.75945671807858 165.6724415794015,198.79724845722376 158.0521756648086,197.8713486288325 147.25,198.3059552465711 158.00322320708074,197.85245266582933 165.57453666394576,198.81614432398055 182.8547542304732,197.3611569515051" stroke="#4DD2FF" stroke-linecap="round" stroke-linejoin="round" stroke-width="0.5"><title>2025-05-18 4.7km</title><desc>1747565909000</desc></polyline><polyline fill="none" points="47.48604351555696,248.950087862293 47.045448038959876,246.3587301827356 35.300100200402085,247.35231376384036 33.34060979104834,247.70140891871415 31.763741769245826,247.6879821990733 26.39543372456683,246.9897908930725 12.3311623246409,247.63427530694753 12.25,247.23147291773057 20.169123962230515,246.72125479007082 25.537432006851304,246.62726702471264 31.810120240494143,247.63427530694753 47.19617807044415,246.26474215870257 52.378972230129875,246.049912137707 52.5876753507182,246.07676590949995 52.62245920411078,246.26474215870257 52.75,246.18418094189838" stroke="#4DD2FF" stroke-linecap="round" stroke-linejoin="round" stroke-width="0.5"><title>2025-05-17 5.7km</title><desc>1747487200000</desc></polyline><polyline fill="none" points="95.53679696848849,245.8256868639437 90.17341443960322,246.10630071547348 87.55634224170353,246.57398951459618 75.53719585156068,247.4906561041571 68.00907459110022,246.51786692164023 57.25,246.94813969591632 67.86368169129128,246.55528198553657 75.24641005182639,247.47194866846257 96.69994016748387,245.6011954738642 97.41074990032939,249.23043928682455 97.75,249.39880452615034" stroke="#4DD2FF" stroke-linecap="round" stroke-linejoin="round" stroke-width="0.5"><title>2025-05-11 5.0km</title><desc>1746965499000</desc></polyline><polyline fill="none" points="142.75,248.95509918074822 142.09630559530342,246.04490081923723 123.72022955515422,247.71028072823538 116.25358680053614,246.85235984338215 102.25,247.44112955809396 115.90494978474453,246.86918186434195 122.8776901003439,247.71028072823538 142.21251793397823,246.0785450241092" stroke="#4DD2FF" stroke-linecap="round" stroke-linejoin="round" stroke-width="0.5"><title>2025-05-10 5.3km</title><desc>1746870058000</desc></polyline><polyline fill="none" points="187.6615720523987,246.81732586988073 187.5584061135305,246.52718732082576 187.75,246.74905802118883 186.96888646291336,246.88559369067661 168.91484716162086,248.47281267917424 161.26582969434094,247.5682703682687 147.25,248.14854335594282 161.19213973800652,247.5682703682687 164.7734716157429,247.85840711346827 168.03056768566603,248.4557458883064 182.8127729257685,247.1245308444486" stroke="#4DD2FF" stroke-linecap="round" stroke-linejoin="round" stroke-width="0.5"><title>2025-05-05 5.4km</title><desc>1746434825000</desc></polyline></svg>