<?xml version="1.0" encoding="utf-8" ?>
<svg baseProfile="full" height="300mm" version="1.1" viewBox="0,0,200,300" width="200mm" xmlns="http://www.w3.org/2000/svg" xmlns:ev="http://www.w3.org/2001/xml-events" xmlns:xlink="http://www.w3.org/1999/xlink"><defs /><rect fill="#222222" height="300" width="200" x="0" y="0" /><text fill="#FFFFFF" style="font-size:12px; font-family:Arial; font-weight:bold;" x="10" y="20">Over 3km Runs</text><text fill="#FFFFFF" style="font-size:4px; font-family:Arial" x="10" y="280">Runner</text><text fill="#FFFFFF" style="font-size:9px; font-family:Arial" x="10" y="290">tang-hi</text><text fill="#FFFFFF" style="font-size:4px; font-family:Arial" x="65" y="280">SPECIAL TRACKS</text><rect fill="yellow" height="2.6" width="2.6" x="65" y="283" /><text fill="#FFFFFF" style="font-size:3px; font-family:Arial" x="70" y="285.5">Over 20.0 km</text><rect fill="red" height="2.6" width="2.6" x="65" y="287" /><text fill="#FFFFFF" style="font-size:3px; font-family:Arial" x="70" y="289.5">Over 40.0 km</text><text fill="#FFFFFF" style="font-size:4px; font-family:Arial" x="120" y="280">STATISTICS</text><text fill="#FFFFFF" style="font-size:3px; font-family:Arial" x="120" y="285">Number: 67</text><text fill="#FFFFFF" style="font-size:3px; font-family:Arial" x="120" y="290">Weekly: 3.7</text><text fill="#FFFFFF" style="font-size:3px; font-family:Arial" x="141" y="285">Total: 353.9 km</text><text fill="#FFFFFF" style="font-size:3px; font-family:Arial" x="141" y="290">Avg: 5.3 km</text><text fill="#FFFFFF" style="font-size:3px; font-family:Arial" x="167" y="285">Min: 3.2 km</text><text fill="#FFFFFF" style="font-size:3px; font-family:Arial" x="167" y="290">Max: 11.5 km</text><polyline fill="none" points="22.755598717427347,31.19999999999709 22.69360087395762,31.881525331940793 22.871844673965825,31.926362340309424 22.76334844788653,33.02934557369008 22.35261273480137,35.76432583171845 22.151119743473828,36.31131171362358 21.895378639135743,39.082056977385946 21.445894273900194,41.36852883395477 21.484642926050583,41.843748884508386 20.965410986886127,45.51989303332084 20.94991152602597,46.61374052432802 21.252151013031835,49.420024978557194 21.662886726058787,52.74620830708591 22.11237109132344,52.80000000000291 22.09687163043418,52.450353410509706 22.337113273941213,52.22622025326564 22.337113273941213,52.10070543673646 21.965126213035546,51.83174451493687 21.368396969512105,45.75300920864538 22.546355995698832,37.25283685014438 22.80209710006602,36.36511342055019 22.724599795707036,36.02436872285034 23.05008847397403,33.666020677359484" stroke="#4DD2FF" stroke-linecap="round" stroke-linejoin="round" stroke-width="0.5"><title>2025-09-07 5.0km</title><desc>1757247375000</desc></polyline><polyline fill="none" points="47.43079735303763,52.73118653970596 47.62619527665083,52.80000000000291 47.67716864799149,52.11186319465196 47.923539942945354,51.7383011647762 48.73911388480337,46.282165012322366 48.892033998912666,44.19793807549286 47.96601775239105,36.61765854815167 47.47327516254154,35.68360114467214 47.55823078146204,35.55578206129576 47.96601775239105,35.624607742567605 47.78761095262598,33.70730258058029 47.38831954356283,33.18618229880667 47.43079735303763,32.20292883484217 47.10796600105823,31.200000000004366 47.43079735303763,32.10460293845972 47.396815105486894,33.176349813657 47.79610651449184,33.64830797268223 47.991504438075935,35.60494326719345 47.541239657701226,35.52628532574454 47.49876184819732,35.66393668130331 47.81309763828176,36.13588269834145 48.01699112376082,36.85362951719435 48.3228313519503,40.18665794681874 48.88353843704681,44.00131057438557 48.88353843704681,45.17123831948993 48.29734466629452,49.35926702341385 47.87256657157559,52.03321867663908 47.67716864799149,52.30847420992359" stroke="#4DD2FF" stroke-linecap="round" stroke-linejoin="round" stroke-width="0.5"><title>2025-09-04 5.0km</title><desc>1756985562000</desc></polyline><polyline fill="none" points="74.63839387215558,31.254051603697008 74.7318173655949,31.19999999999709 74.78631440349272,31.326120357356558 74.75517323901295,31.866634142497787 74.84081144136144,31.866634142497787 74.77852911237278,32.83955065172631 74.35812339172116,35.57807313747617 74.07785291125765,36.67706166872085 74.11677936685737,37.10944686536095 73.44724433022202,41.23501625612698 73.48617078587995,41.613333973313274 72.9567709894327,45.34237940765888 73.00348273618147,47.17081541704829 73.64187660833704,52.79099358996609 74.00778529111994,52.80000000000291 74.0856382023776,52.69192301910516 73.71972951956559,49.503592849687266 73.81315301306313,49.29643749012757 73.56402369707939,48.12555027632334 73.33825025448459,45.657629684501444 73.76644126631436,42.29790478797804 73.99221470890916,41.44219044400961 74.41262042956077,37.70397306820087 74.64617916324642,36.34376330731902 74.77852911237278,36.16360150925175 74.70067620114423,35.92038250123005 75.0432290105673,33.37104682804784" stroke="#4DD2FF" stroke-linecap="round" stroke-linejoin="round" stroke-width="0.5"><title>2025-09-02 5.1km</title><desc>1756811867000</desc></polyline><polyline fill="none" points="100.62700669438345,31.200000000004366 100.59565635965555,32.787079646252096 100.18026442461996,35.68002651362622 99.92162416319479,36.66850410892221 99.92946174685494,37.43932766544458 99.29461746884044,41.30241369862779 98.80084969699965,45.664054068322 98.83220003169845,46.98791939225339 99.45136914242175,52.056510006063036 100.0627006694267,52.80000000000291 99.92162416319479,52.727464663294086 99.81189799169078,51.86610303654743 99.57677048127516,49.6174566918271 99.63947115070187,49.39077549146896 99.22407921572449,46.734028933416994 99.20840404834598,45.455498152463406 100.47025502077304,36.532475731561135 100.64268186173285,36.16973237849015 100.73673286588746,34.60085040204285 101.19915030300035,32.09783709511248" stroke="#4DD2FF" stroke-linecap="round" stroke-linejoin="round" stroke-width="0.5"><title>2025-08-31 5.1km</title><desc>1756640573000</desc></polyline><polyline fill="none" points="126.69504393037641,31.200000000004366 126.76493661609129,32.943290499199065 126.283453669952,35.953530823782785 126.12037073654938,36.22309958601545 126.04271219685324,36.76223464580107 125.97281951113837,38.137014174491924 125.53793168879929,41.11113729879435 125.42144387922599,41.308809612201 125.46803900305531,41.740093126456486 124.9399609330867,45.44185682100215 124.97102434898261,46.96923845096899 125.58452681262861,52.29689858575148 126.17473171435995,52.80000000000291 126.0504780508345,52.60235335692414 125.74760974603123,49.16143424202164 125.36708290147362,46.870408672766644 125.36708290147362,45.172316149233666 125.96505365718622,41.542421776735864 126.40770733347745,37.75064038726123 126.76493661609129,36.26802763316664 126.71057563830982,35.9265739023831 127.06003906694241,33.32069938119821" stroke="#4DD2FF" stroke-linecap="round" stroke-linejoin="round" stroke-width="0.5"><title>2025-08-30 5.0km</title><desc>1756550382000</desc></polyline><polyline fill="none" points="151.56339825008763,52.790284498012625 151.85726481254096,52.80000000000291 152.79763781250222,46.26124390440236 152.9319768124551,44.075081556533405 152.37782843751484,40.16901368534309 152.14273518751725,37.215065306969336 152.0000000000582,36.56401835239376 151.57179443756468,35.89353252444562 151.63056775007863,35.73805687796266 152.0671695000492,35.806077504414134 151.85726481254096,33.833459679211956 151.47104018754908,33.43504423969716 151.49622875006753,32.25922313508636 151.068023187574,31.200000000004366 151.50462493757368,32.307811070626485 151.45424781256588,33.38645687732787 151.85726481254096,33.86261196323903 152.0503771250369,35.786643044659286 151.63056775007863,35.74777411326795 151.57179443756468,35.87409808247321 151.92443431256106,36.427978130021074 152.1511313750234,37.360821480237064 152.39462081252714,40.42164976904314 152.9319768124551,43.939052024790726 152.83122256252682,45.99890706250153 151.97481143751065,51.877022903943725" stroke="#4DD2FF" stroke-linecap="round" stroke-linejoin="round" stroke-width="0.5"><title>2025-08-28 5.0km</title><desc>1756381580000</desc></polyline><polyline fill="none" points="178.73083260923158,31.200000000004366 178.90870721259853,32.12173204022838 178.87777249896317,32.962915968535526 178.39828443786246,35.96963539333956 178.22814351294073,36.282829430900165 178.2049424777215,37.26714629920025 177.5243787780637,41.27588684019429 177.5785145269474,41.78591440842865 177.0603580737661,45.159180297465355 177.02168968177284,46.52813465266081 177.14542853622697,46.67129204966477 177.09902646578848,47.252866583257855 177.6867860245693,52.325823210849194 178.33641501059174,52.80000000000291 178.12760569364764,52.61211893588188 177.40837360199657,46.689186707932095 177.37743888839032,45.534973806999915 177.91106269831653,41.76801875426463 178.04253523124498,41.58011416606314 178.16627408569911,40.00527900485031 178.70763157404144,36.90921416519268 178.66896318201907,36.48864204921847 178.81590307169245,36.29177781560429 178.75403364445083,36.02332587887213 178.97831031822716,34.48418564865278" stroke="#4DD2FF" stroke-linecap="round" stroke-linejoin="round" stroke-width="0.5"><title>2025-08-26 5.0km</title><desc>1756206850000</desc></polyline><polyline fill="none" points="22.679512498463737,55.200000000004366 22.69504421268357,55.93685893970542 22.81929792673327,55.963817077179556 22.749405212613055,56.880388861944084 22.314517213584622,59.86367438639718 22.16696592819062,60.1961427460119 21.98835121432785,62.21788289219694 21.45250707268133,65.26388412413507 21.367082644312177,66.67453352676239 20.97102393093519,69.32505596307601 21.040916645055404,71.32861853135546 21.63888764369767,76.67422491453908 21.662185215071077,76.80000000000291 22.128136642597383,76.74609641382267 21.79420478621614,73.26026146084041 21.382614358561113,70.88837773071282 21.343785072909668,69.6844427225733 21.84079992896295,66.00964425408165 22.019414642854827,65.49749640733353 22.617385641438887,60.600494472113496 22.79600035533076,60.241070806834614 22.733873498335015,59.95353082304791 23.028976069093915,57.7160783868967" stroke="#4DD2FF" stroke-linecap="round" stroke-linejoin="round" stroke-width="0.5"><title>2025-08-24 5.0km</title><desc>1756042259000</desc></polyline><polyline fill="none" points="47.724633620877285,76.80000000000291 47.965579202602385,76.4514900826398 48.80028353934176,70.76562463909067 48.95517712761648,68.26612929299154 48.49910156219266,65.38814530587115 48.04302599673974,60.99631819346541 47.54392443463439,59.98049340520811 47.66439722548239,59.84106565118418 48.034420797397615,59.88090217259014 47.84510641175439,57.92889356867818 47.43205684307031,57.460804089467274 47.50089843783644,56.45490210688149 47.036217673070496,55.200000000004366 47.47508283983916,56.265671866385674 47.44926724175457,57.47076346336689 47.862316810467746,57.95877154457412 48.0602363954531,59.890861300395045 47.956974003318464,59.99045252288488 47.595555630658055,59.8609839139026 47.595555630658055,60.00041163955029 47.93115840526298,60.607915841981594 48.1204727908771,61.34488309494918 48.34420797394705,64.05368805256148 48.96378232695861,68.36571200061007 48.826099137368146,70.63617027067085 47.879527209152,76.72034069961228" stroke="#4DD2FF" stroke-linecap="round" stroke-linejoin="round" stroke-width="0.5"><title>2025-08-23 5.0km</title><desc>1755956696000</desc></polyline><polyline fill="none" points="74.76256407774054,55.200000000004366 74.77038524774252,55.79730542909965 74.87206045811763,55.90590598586277 74.83295460799127,56.810905475882464 74.36368440630031,59.72494136221212 74.19161866567447,60.0959763568535 73.79273899423424,63.81529054776183 73.58938857354224,65.04597832779837 73.45642868304276,65.17266581064177 73.51899804332061,65.61607058211666 72.95587380128563,69.87807329295174 73.67542144385516,76.65523318108171 73.69888495391933,76.76380831730785 74.12122813542373,76.80000000000291 73.34693230266566,69.69710067675624 74.51228663683287,61.22717107065546 74.66088886736543,60.30411726255261 74.8016699278669,60.13217481014726 74.73910056764726,59.78828890971636 75.04412619871437,57.435349762716214" stroke="#4DD2FF" stroke-linecap="round" stroke-linejoin="round" stroke-width="0.5"><title>2025-08-21 5.0km</title><desc>1755781186000</desc></polyline><polyline fill="none" points="100.60210460060625,55.200000000004366 100.62541187551687,56.872098373445624 100.15926637823577,59.87460430718056 99.99611545418156,60.189232264936436 99.92619362959522,60.71960257567116 100.0116536374262,60.98029190211673 99.28912811671034,65.24110514279164 99.33574266644428,65.6905460555281 98.82298261942924,69.37587545426504 98.85405898591853,70.93085865658213 99.50666268207715,76.80000000000291 99.9572699960845,76.71911095663381 99.64650633124984,73.31271637571626 99.24251356697641,70.88591732888017 99.2192062920949,69.16914152613754 99.72419724744395,65.73549002125947 99.85627180500887,65.53773640128202 100.39233912687632,61.070184595249884 100.64871915036929,60.20721097158821 100.65648824197706,59.218376680946676 101.17701738059986,55.910196180564526" stroke="#4DD2FF" stroke-linecap="round" stroke-linejoin="round" stroke-width="0.5"><title>2025-08-19 5.3km</title><desc>1755607955000</desc></polyline><polyline fill="none" points="125.76595944454311,76.69360807433259 126.14209605150972,76.80000000000291 126.14209605150972,76.08427020936506 126.28419210304855,75.76509167564654 126.4597225196485,73.55982892544125 126.96959658685955,70.22282102485042 126.91944503926788,68.03677560450888 126.35106083319988,64.37068405092577 126.09194450394716,61.352581829320116 125.93313126984867,60.55934676749166 125.52356029787916,59.87251594456029 125.61550480176811,59.708062758225424 126.01671718255966,59.79512624522613 125.84118676593062,57.98612408815097 125.40654002013616,57.3960143392469 125.43997438519727,56.254480172821786 125.03040341314045,55.19999999999709 125.47340875028749,56.302850542546366 125.42325720263761,57.38634037844167 125.81611099213478,57.81199372330593 126.01671718255966,59.78545252837648 125.59878761926666,59.72741020666581 125.55699466291117,59.85316852563119 126.0417929563555,60.96563872293336 126.29255069428473,63.87734696416737 126.9110864480026,68.15285007512284 126.90272785670822,69.14915012458368 126.28419210304855,73.43408872010332 126.10030309518334,73.52113964918681 125.98328281746944,73.81130883774313 125.76595944454311,75.23312507429364" stroke="#4DD2FF" stroke-linecap="round" stroke-linejoin="round" stroke-width="0.5"><title>2025-08-17 5.0km</title><desc>1755429603000</desc></polyline><polyline fill="none" points="151.6893410308985,76.75142248022894 151.5801905823173,76.80000000000291 151.70613340759883,76.67369839725143 151.84886860963888,74.53626135503146 151.96641524657025,73.7881471008368 152.3526399108232,73.46752491413645 152.34424372244393,72.72911821245361 152.86480740032857,69.79486679863476 152.94037309550913,68.47345264273463 152.02518856502138,60.806946839053126 151.54660582888755,59.87409808230586 151.63896390079753,59.76720858075714 152.0419809417217,59.79636027485685 151.8656609863392,57.911199083355314 151.46264394535683,57.40589182515396 151.48783251046552,56.30781107058283 151.05962690446177,55.19999999999709 151.513021075516,56.327246237888176 151.45424775700667,57.35730444797082 151.85726479795994,57.83345967911009 152.05877331845113,59.78664304447739 151.63056771244737,59.73805687778804 151.57179439393803,59.883815303779556 152.07556569512235,60.92355229337409 152.94037309550913,68.01678320924111 152.93197690712987,69.17302711837692 152.36943228752352,73.31207134562283 151.94962286986993,75.99360997610347 151.77330291445833,76.12962804735434 151.7145295959781,76.53768110003148" stroke="#4DD2FF" stroke-linecap="round" stroke-linejoin="round" stroke-width="0.5"><title>2025-08-16 5.1km</title><desc>1755350047000</desc></polyline><polyline fill="none" points="177.87400050120777,76.74168073586043 177.57160170399584,76.80000000000291 177.71440113600693,76.6542017729953 178.1175995322992,73.6409886584006 178.34439863014268,73.52434624233865 178.2939988306025,73.20357886476268 178.89879642502638,69.63618430482893 178.94079625798622,68.09059602784691 178.03359986635041,60.828912929966464 177.58000167057617,59.91508776991395 177.67240130304708,59.74009897688666 178.04199983298895,59.79842861014913 177.85720056801802,57.8832537195849 177.46240213833516,57.43604999646777 177.52120190445567,56.47358271361736 177.05080377546255,55.200000000004366 177.48760203810525,56.220811921586574 177.47920207152492,57.38744077007141 177.85720056801802,57.844366522367636 178.07559969931026,59.788707007071935 177.63880143669667,59.749820584911504 177.59680160373682,59.88592299332231 177.95800016704015,60.46921683487017 178.10919956566067,61.05250711782719 178.3779984965222,64.1730496888922 178.9071963916358,67.69204405620985 178.94919622456655,69.10154967640847 178.31079876379226,73.19385862438503 178.36119856333244,73.48546540539246 178.09239963252912,74.98236621914111 177.87400050120777,75.47808794841694" stroke="#4DD2FF" stroke-linecap="round" stroke-linejoin="round" stroke-width="0.5"><title>2025-08-14 4.9km</title><desc>1755170321000</desc></polyline><polyline fill="none" points="22.882312427042052,79.2180699464443 22.69491863719304,79.19999999999709 22.749575159250526,80.83531528319145 22.296706833847566,83.90709694234101 22.132737267762423,84.23233819998859 22.132737267762423,85.08157365376246 21.67206086780061,88.32485570999415 21.52370745089138,89.21018792306131 21.406586332217557,89.28245955142484 21.47685900342185,89.73415589814249 20.938101857696893,93.44701295073173 20.984950305137318,95.02786611707415 21.640828569506994,100.72773772773508 22.085888820321998,100.80000000000291 21.32069751189556,93.64575032120774 22.593413667724235,84.62985367725923 22.772999382956186,84.25944158440689 22.69491863719304,83.94323491860996 23.061898142303107,81.37740211007622" stroke="#4DD2FF" stroke-linecap="round" stroke-linejoin="round" stroke-width="0.5"><title>2025-08-12 5.0km</title><desc>1754999139000</desc></polyline><polyline fill="none" points="48.5824328395538,79.27237055647856 48.684065415582154,79.19999999999709 48.691883306077216,80.72881550067541 48.20717409727513,83.84064287657384 48.04299839754822,84.14820130456064 47.878822697821306,86.2377613213248 47.36284192718449,89.26798852047068 46.83904326611082,93.63676147720253 46.885950608877465,94.97539021790726 47.43320294137811,99.50668009934452 48.00390894524753,100.80000000000291 47.237755679758266,93.69103060119232 48.39480346845812,85.34224160398298 48.676247525116196,84.18438457915909 48.60588651095168,83.931101348011 48.934237910434604,81.48869036129327 49.16095673391828,80.56598432963801" stroke="#4DD2FF" stroke-linecap="round" stroke-linejoin="round" stroke-width="0.5"><title>2025-08-10 5.0km</title><desc>1754830447000</desc></polyline><polyline fill="none" points="73.69284835361759,100.80000000000291 74.86254914407618,93.8375021573811 74.938285166485,92.20148519938084 74.3155667600513,87.88733031826268 74.0210377840267,84.74167278670211 73.54979142238153,83.90411188018334 73.61711233120877,83.72880750771583 74.04628312482964,83.81645973406557 73.86115062562749,81.88809222404961 73.45722517278045,81.4108639681217 73.48247051355429,80.32004759612755 73.05329971993342,79.20000000000437 73.49930074080476,80.35900553761894 73.46564028636203,81.42060334406415 73.86115062562749,81.8978315514396 74.0631133519928,83.78724233420508 73.63394255837193,83.76776406266436 73.58345187676605,83.87489450706926 74.0631133519928,84.90723628499836 74.45020857764757,88.73459502817423 74.90462471207138,91.51980322126474 74.94670028006658,93.06818813908467 73.97054710242082,99.98205445134954 73.70126346717007,100.26444120366068" stroke="#4DD2FF" stroke-linecap="round" stroke-linejoin="round" stroke-width="0.5"><title>2025-08-09 5.0km</title><desc>1754735080000</desc></polyline><polyline fill="none" points="100.6486129325931,79.20000000000437 100.6955006144708,80.71913325694186 100.39073068226571,83.10629027030518 100.0,84.75194456340978 99.91403924991027,86.24385759914003 99.39046013561892,89.29994077352603 99.42171859022346,89.77009810354502 98.89032486235374,93.35044554945489 98.87469563505147,94.58002660873171 99.54675240858342,100.29373933830357 100.07033152278746,100.80000000000291 99.3044993855292,94.9055011056189 99.34357245377032,92.9797596929202 100.46106220508227,85.29446128792188 100.60172525071539,84.41739093494834 100.73457368268282,84.24559263707488 100.67205677353195,83.87486886441911 101.12530436494853,80.80955703785003" stroke="#4DD2FF" stroke-linecap="round" stroke-linejoin="round" stroke-width="0.5"><title>2025-08-07 5.0km</title><desc>1754570205000</desc></polyline><polyline fill="none" points="126.37434658943675,79.20000000000437 126.42264937519212,79.81481808461103 126.58365866096574,79.88002582146146 126.52730541097117,80.31784799612797 126.96203048259486,80.38305537519045 127.01033326832112,80.7836139717765 126.56755773240002,83.00062757878186 126.43875030378695,84.18363391300227 126.52730541097117,84.50034168010461 126.39044751803158,84.63075044270226 126.13283266080543,86.14906738545687 124.99771719597629,94.40156521791505 125.69810758918175,100.80000000000291 124.98966673170798,94.25254249540012 125.48879551765276,90.48032419478113 125.67395619631861,89.96803566932795 126.11673173221061,86.14906738545687 126.34214473233442,84.74252923445601 126.48705308951321,84.49102676137409 126.43069983948953,84.12774419350899 126.87347537538153,80.86745159613201" stroke="#4DD2FF" stroke-linecap="round" stroke-linejoin="round" stroke-width="0.5"><title>2025-08-05 5.0km</title><desc>1754406000000</desc></polyline><polyline fill="none" points="151.6729210333142,100.80000000000291 152.04672556667356,97.70334582872601 152.27610562121845,97.5263911677539 152.63291903946083,95.12764049445104 152.8962813242979,93.20073211450654 152.91327243947308,92.001310575557 152.29309673639364,87.74422715823312 152.05522112426115,84.91262217042095 151.84283218480414,84.17521142999612 151.52000099694123,83.71309783302422 151.59646101511316,83.56561430524016 152.0127433363523,83.6049432679938 151.81734551209956,81.66797284648055 151.41805430600652,81.24517718910647 151.4520365363569,80.04560735283303 151.08672756055603,79.20000000000437 151.4605320938863,80.17343107661873 151.41805430600652,81.14685235264187 151.83433662727475,81.65814041031263 152.02123889393988,83.59511102880788 151.91079664547578,83.69343337562896 151.50300988182425,83.61477550616837 152.04672556667356,84.76514047222736 152.39504342729924,88.49144242567854 152.91327243947308,92.03080472620059 152.90477688188548,93.24988841766753 151.91079664547578,100.05287981229776 151.85982330000843,100.21999930262973 151.63893880302203,100.22982985187991 151.5539832272043,100.60338998368388 151.31610761507181,100.58372896008223" stroke="#4DD2FF" stroke-linecap="round" stroke-linejoin="round" stroke-width="0.5"><title>2025-08-03 5.0km</title><desc>1754221111000</desc></polyline><polyline fill="none" points="188.8000000000029,88.83135902184404 188.73358954649302,89.10672164130119 188.562029208304,89.12273102190375 185.19169869330653,89.05549156871166 185.10038431975408,88.99785763749787 184.96756341274886,89.05228968640586 184.5386625672545,89.04908780378173 184.50269023826695,89.01386707340862 183.7362029208307,89.0586934506864 183.3598770176759,89.00105952533158 182.1451191391243,88.99785763749787 181.6193697155977,88.91460843964342 181.26241352804936,88.82175330563405 181.24027671021759,88.7865323211663 180.74496541121334,88.77052276974973 179.6574942351872,88.5784075183492 178.05810914681933,88.56559979327358 174.72098385856953,88.9818481934526 174.26994619522884,89.18997033162668 173.7857033051405,89.3372559372765 172.4851652574871,90.12810383063879 171.79615680246206,90.47709517256044 171.37279016140383,90.59876097044253 171.1237509608036,90.60196269562039 170.80830130669347,90.52512120152642 170.47348193696234,90.66279541224685 170.36003074556356,90.43867429671627 170.2244427363621,90.52832293418578 170.1137586472032,90.32020963463765 168.2293620292039,91.43440020672824 168.08547271329735,91.07261275897508 167.50438124519133,89.96161118659074 167.44903920061188,89.92318968227846 167.1999999999971,90.04485761856267 167.36325903149555,89.91998788814271 167.4435049961612,89.91038250377278 167.46840891621832,89.83033752015035 167.56802459647588,89.83674112631888 167.70084550346655,89.74709052150865 167.7395849346649,89.79191585579792 167.8392006149079,89.72787964444433 167.80599538816023,89.78871404831807" stroke="#4DD2FF" stroke-linecap="round" stroke-linejoin="round" stroke-width="0.5"><title>2025-08-02 8.3km</title><desc>1754134728000</desc></polyline><polyline fill="none" points="22.577355445188005,103.20000000000437 22.46110938239144,103.22690241551754 22.391361744725145,103.95326453410962 22.972592058649752,103.95326453410962 22.972592058649752,104.53614339214255 21.03515767888166,117.35850454924366 21.04290741638397,118.71236544987187 21.84888011837029,124.80000000000291 21.081656104011927,118.8827173378595 21.027407941350248,117.5647231127441 22.17436909416574,109.36940592834435 22.46110938239144,108.25750997219438 22.383612007222837,108.0064347533189 22.74784967058804,105.3611345802492" stroke="#4DD2FF" stroke-linecap="round" stroke-linejoin="round" stroke-width="0.5"><title>2025-07-31 5.0km</title><desc>1753965181000</desc></polyline><polyline fill="none" points="47.57233666401589,124.80000000000291 47.66549105400918,124.0160555915063 47.90261131952866,123.73187416961446 48.766406572423875,117.78347079783998 48.85956096241716,115.58825065717247 48.419194755057106,112.9225590003989 47.953422805003356,108.52204642302968 47.5045880167163,107.65956161529175 47.59774240673869,107.5321484326123 47.97035996679915,107.58115352279856 47.80945692950627,105.63073169493146 47.37755930304411,105.16027228034363 47.428370788518805,104.07232608836784 47.08962755210814,103.20000000000437 47.4368393694167,104.09192883111973 47.402965045766905,105.17987480179727 47.80945692950627,105.68953896026505 48.00423429044895,107.56155148972903 47.89414273860166,107.65956161529175 47.55539950216189,107.52234741157008 47.5215251785412,107.66936262237869 48.029640033171745,108.7964717888608 48.326040365034714,112.08951524123404 48.91037244789186,116.29386258187151 48.30063462231192,121.37019616112957 47.85179983408307,124.18264431152056 47.69089679676108,124.25123958320182" stroke="#4DD2FF" stroke-linecap="round" stroke-linejoin="round" stroke-width="0.5"><title>2025-07-29 5.0km</title><desc>1753797916000</desc></polyline><polyline fill="none" points="74.9264486086613,103.20000000000437 74.9108780438255,104.84855908886675 74.5527550522238,107.37088525087165 74.2724848848884,108.20864199515927 74.0856381066842,110.51468419648882 73.5640241841611,113.27104658733151 73.6263064435334,113.75745458687015 73.11247780342819,117.17124307655467 73.143618933158,118.98166861446953 73.782012092066,124.80000000000291 73.1825453452766,119.74726033690968 73.0735513913387,117.82876508239133 73.5718094666081,113.41516775418131 74.2646996024705,109.01035877962568 74.1946320606512,108.7851581677678 74.52939920499921,107.41592613737157 74.9108780438255,104.37111070282845" stroke="#4DD2FF" stroke-linecap="round" stroke-linejoin="round" stroke-width="0.5"><title>2025-07-27 5.0km</title><desc>1753616848000</desc></polyline><polyline fill="none" points="100.6169385756948,103.20000000000437 100.63993007541285,105.09775109581096 100.21841924730688,108.09504961468338 100.04981491604121,108.4142824451992 99.81223608565051,111.02130686266173 99.3830614242761,113.3977102684803 99.41371675723349,113.84992896355106 98.85425693081925,117.53852731685038 99.55166575554176,124.80000000000291 100.01149574987357,124.72907278395724 99.68195092061069,121.1737722694379 99.3064230918826,118.68231582688168 99.29109542543301,117.3523277692293 100.3487044123176,109.89515280613705 100.70124074135674,108.40541488234157 100.62460240896326,108.05957922809466 101.14574306918075,104.90265709179221" stroke="#4DD2FF" stroke-linecap="round" stroke-linejoin="round" stroke-width="0.5"><title>2025-07-26 5.2km</title><desc>1753529066000</desc></polyline><polyline fill="none" points="126.74552235973533,103.19999999999709 126.65233206475386,103.66727711300337 126.77658579137642,104.26934206089936 126.62903449102305,105.68912078344874 126.30286845864612,107.89961697184481 126.13201958453283,108.21411397289194 126.10872201077291,109.15759826671274 125.41756065646769,113.29982451531396 125.47192166183959,113.69516785716405 124.95937503955793,117.45982616872061 125.02926776075037,119.46338568533974 125.64277053595288,124.80000000000291 126.0854244370421,124.75508034713857 125.73596083093435,121.49385263142904 125.81361941006617,121.32315145192842 125.37096550897695,118.78954786194663 125.36319965103758,117.58561150899914 127.04062496044207,105.84188042714231" stroke="#4DD2FF" stroke-linecap="round" stroke-linejoin="round" stroke-width="0.5"><title>2025-07-24 5.0km</title><desc>1753356656000</desc></polyline><polyline fill="none" points="151.6211490612768,124.76103279968083 151.73059488800936,124.80000000000291 152.10102691699285,121.72154237441282 152.34517529973527,121.56566847279464 152.28624293149915,121.2636620671401 152.91766116270446,117.35697731620894 152.9597557114903,116.17812096931448 152.32833748022676,112.01790873167192 152.06735127800494,108.93904053595179 151.56221669304068,107.87700292711088 151.63798688078532,107.72110650752438 152.05051345849643,107.7990547490117 151.83162180500221,105.84058596364048 151.46960868575843,105.45083615588374 151.50328432477545,104.39850375573587 151.0402442885097,103.20000000000437 151.46118977601873,104.16465054165747 151.45277086627902,105.41186108793045 151.84004071477102,105.82109851090354 152.05893236826523,107.74059357384249 151.94948654150357,107.84777236774244 151.65482470026473,107.73085004118911 151.56221669304068,107.84777236774244 151.85687853425043,108.26674286636262 152.06735127800494,108.96827076242334 152.44620221672812,112.84606842125504 152.93449898218387,116.0124953622726 152.92608007247327,117.30826453118789 152.0084189097688,123.68942858416995" stroke="#4DD2FF" stroke-linecap="round" stroke-linejoin="round" stroke-width="0.5"><title>2025-07-22 5.0km</title><desc>1753184035000</desc></polyline><polyline fill="none" points="167.19999999995343,117.5624634611886 167.19999999995343,114.096401750925 169.49645608628634,104.39126031968044 188.06779661017936,107.78038556876709 188.79999999993015,108.58914961473783 186.3038520802511,123.57022867209162 169.6295839753002,120.95147092919797 169.03050847456325,120.18124462015112 171.0939907549182,105.20003159838961 171.826194144669,104.73787679336965 176.2526964561548,105.46962164112483 188.76671802764758,108.24253666360164 186.5701078582788,123.26214046502719 185.87118644057773,123.60873968029045 169.29676425259095,120.79742579261074 169.49645608628634,115.86794836321496 171.12727272731718,105.27705734450137 171.659784283489,104.81490263334126 179.8471494606929,106.20136507603456 171.49337442219257,104.89192845771322 170.56147919874638,109.12832468663692 171.39352850534488,109.93708585601416" stroke="#4DD2FF" stroke-linecap="round" stroke-linejoin="round" stroke-width="0.5"><title>2025-07-20 4.9km</title><desc>1753020627000</desc></polyline><polyline fill="none" points="23.2415045266971,127.20000000000437 23.078557057568105,128.30436744455073 22.47332360080327,129.8576413865594 21.961202983540716,132.19199018311338 21.821533724258188,134.03249095365027 21.340450720163062,137.11187726538628 21.231819074077066,137.21063131921255 21.286134897149168,137.6505344002362 20.781773683120264,141.28638420697098 20.758495473273797,142.48932381260238 21.44908236624906,148.7910235401141 21.371488333359594,147.5522633340588 21.45684176957002,148.8000000000029 21.89912775720586,148.71023536001303 21.154225041158497,141.6813811062966 22.341413744841702,133.00899769496027 22.589714650181122,132.227902759907 22.62075226334855,131.17745385890885" stroke="#4DD2FF" stroke-linecap="round" stroke-linejoin="round" stroke-width="0.5"><title>2025-07-20 5.0km</title><desc>1752942252000</desc></polyline><polyline fill="none" points="48.93137518494041,127.2096655261048 48.79772493423661,127.20000000000437 48.58889641740825,128.2632019833909 48.82278435624903,128.40818315134675 48.806078074878315,128.7174755712258 48.513718151370995,130.6891911100247 48.355008478596574,131.02747153181554 47.945704585668864,134.8837833314392 47.6032258180785,136.45912388776924 47.63663838079083,136.92302288432984 47.043565393047174,141.35894283377274 47.84546689756098,148.8000000000029 47.10203737774282,142.59593810703518 47.08533109643031,140.72111086343648 47.63663838079083,136.98101009989477 47.611578958749305,136.4687884732557 48.22135822783457,132.7961752950505 48.346655337896664,131.01780639360368 48.513718151370995,130.66986076388275 48.95643460698193,127.50929634802014" stroke="#4DD2FF" stroke-linecap="round" stroke-linejoin="round" stroke-width="0.5"><title>2025-07-17 5.0km</title><desc>1752765839000</desc></polyline><polyline fill="none" points="83.26756756764371,148.34420429656166 83.75405405415222,147.66868882908602 84.79999999993015,138.85869042470586 69.15945945947897,138.15500434566638 66.3378378378693,138.3801840855158 66.67837837827392,138.15500434566638 66.16756756755058,134.97432096430566 63.27297297294717,130.41433947323821 63.199999999953434,127.85283545544371 63.54054054047447,127.65579570346745 77.13783783791587,127.88098397993599 76.16486486489885,136.74762682401342 75.5567567567341,137.14169325091643 67.06756756757386,136.86021728892229 66.14324324321933,133.904702416301 63.759459459455684,130.864711357106 63.46756756748073,129.26025817796472 66.84864864859264,129.00692261577933 76.69999999995343,129.34470331392367 76.84594594594091,131.45582334313076 75.97027027036529,138.32388916771743 74.65675675671082,138.40833154009306" stroke="#4DD2FF" stroke-linecap="round" stroke-linejoin="round" stroke-width="0.5"><title>2025-07-15 4.1km</title><desc>1752589649000</desc></polyline><polyline fill="none" points="100.86804024531739,127.20000000000437 100.93386320231366,128.73282165628189 100.42373528561438,131.9316730419887 100.24272215389647,132.30296121930587 100.23449428426102,133.24545537052472 99.51044175738934,137.66267538349348 99.54335323590203,138.15769568821997 98.99208597108372,142.26055181449192 99.65031554098823,148.8000000000029 99.2718335382815,146.21092804607179 98.98385810144828,142.05112963294232 100.21803854504833,133.1788146813633 100.14398771841661,132.87417092733085 100.3908238071017,131.99831461803115 100.87626811495284,128.82802714322315 100.81867302756291,128.49480751567899 101.01614189855172,127.48562084310106 100.83512876686291,127.25712423828372" stroke="#4DD2FF" stroke-linecap="round" stroke-linejoin="round" stroke-width="0.5"><title>2025-07-13 5.0km</title><desc>1752418082000</desc></polyline><polyline fill="none" points="125.81241459710873,148.8000000000029 125.70156867726473,148.79013357777148 125.76978155100369,148.01068305471563 126.14495235678623,145.64269371809496 126.36664419656154,145.44535866640217 126.75034161153599,142.76156214134244 126.95498023281107,139.988885606057 126.39222402419546,136.1306879061085 126.1023193106812,132.90389328927267 125.93178712623194,132.2723368351144 125.57366953892051,131.69998524848052 125.65040902190958,131.55196273707406 126.05968626454705,131.6111717687454 125.88062747090589,129.73620155871322 125.47135022823932,129.2230455029421 125.49693005593144,128.04869739525748 125.20702534241718,127.2394744620251 125.02796654871781,127.2394744620251 125.18144551469595,127.20000000000437 125.47135022823932,127.92040640475898 125.46282361901831,129.23291391423845 125.83799442477175,129.57830767673295 125.88062747090589,129.77567498906865 126.05968626454705,131.5815672574172 125.64188241271768,131.56183091152343 125.54808971122839,131.6703807642989 125.92326051704003,132.21312820682942 126.09379270146019,132.81508091124851 126.4433836795506,136.65367509600037 126.97203345128219,139.91981436109927 126.96350684206118,141.18282364463812 125.92326051704003,148.28694471546623" stroke="#4DD2FF" stroke-linecap="round" stroke-linejoin="round" stroke-width="0.5"><title>2025-07-12 5.1km</title><desc>1752325602000</desc></polyline><polyline fill="none" points="151.86985901440494,148.8000000000029 151.65995419886895,148.79028449803445 152.13014098565327,145.55496743470576 152.3232534159324,145.4578090728537 152.86060974362772,141.85316406017955 152.94457166985376,140.03621599436156 152.44919630521326,136.7811691968891 152.0713676372543,132.82638109036634 151.56759608001448,131.80607750343916 151.63476562098367,131.69918792584212 152.05457525205566,131.7672085799568 151.8614628217765,129.79458995274035 151.48363415381755,129.376739401363 151.4668417685898,128.06487114561605 151.04703213754692,127.20000000000437 151.49203034641687,128.1717647885671 151.48363415381755,129.36702192495432 151.86985901440494,129.80430738568975 152.07976382991183,131.73805687696586 151.6767465840967,131.6894706855819 151.58438846530044,131.84494641108176 152.08816002251115,132.90411805992335 152.4575924978417,136.76173574879795 152.95296786242398,139.96820122503414 152.86900593625614,141.80458301048202 152.06297144465498,147.16778181793052" stroke="#4DD2FF" stroke-linecap="round" stroke-linejoin="round" stroke-width="0.5"><title>2025-07-10 5.0km</title><desc>1752149320000</desc></polyline><polyline fill="none" points="174.97083915647818,127.20000000001164 175.02143056935165,128.5464361152117 175.38821831234964,128.35617960168747 176.1723852113355,128.61961163040542 177.01979137631133,128.5464361152117 177.9683803669759,128.89767824913724 182.86309955868637,129.54161993673188 183.00222594395746,129.7318748844118 181.87656700843945,136.91747393333935 181.33270932047162,136.9613766955299 181.23152649478288,137.15162184360088 181.04180869663833,138.42479444474156 181.1809350819094,138.98088929167716 180.32088106375886,143.824677312703 174.0222501658718,143.634440976326 173.8072366612614,143.4881051620905 172.99777405598434,148.8000000000029 173.84518022090197,143.57590666846954 176.29886374337366,143.61980740157014 177.12097420194186,143.29786838132713 177.2348048808053,143.634440976326 180.3588246233994,143.7368759579258 182.53425537527073,130.11238402586605 182.47101610922255,129.61479494637751 175.9573717067833,128.47326056279417" stroke="#4DD2FF" stroke-linecap="round" stroke-linejoin="round" stroke-width="0.5"><title>2025-07-08 5.1km</title><desc>1751976330000</desc></polyline><polyline fill="none" points="11.392387425468769,172.60332322170143 11.346032235829625,172.8000000000029 11.639615103893448,172.67484207559028 11.732325483229943,171.67357547547726 12.273136029660236,171.22657961794175 12.381298138934653,170.76170272151649 13.941922858532052,159.9440280990093 14.080988427565899,156.6717739978194 13.710146910103504,154.25777703919448 14.559992054419126,154.22201387224777 14.77631627296796,154.54388211289188 17.75850014318712,154.9730388508906 20.153518277278636,154.93727582940483 21.899563755607232,155.63465343748976 27.46218651853269,156.45719783182722 28.48200069181621,151.1999999999971 32.65396776411217,152.12985595209466 28.930100858793594,151.25364566934877 28.23477301344974,154.34718492468528 28.126610904117115,156.49296054434672 17.71214495348977,155.09820936896722 14.77631627296796,154.56176366456202 14.513636864779983,154.1683691081853 13.663791720406152,154.31142177594302 14.003729778109118,155.741942054854 14.065536697744392,158.83540237956913 12.31949121929938,170.81534242613998" stroke="#4DD2FF" stroke-linecap="round" stroke-linejoin="round" stroke-width="0.5"><title>2025-07-06 5.0km</title><desc>1751807521000</desc></polyline><polyline fill="none" points="40.48768110363744,171.46114566719916 41.423530569823924,164.80611479237268 38.39478138840059,164.5895271066256 37.44191647745902,164.92425342802017 38.684043950692285,164.80611479237268 38.51388950232649,164.60921690623218 41.644731352629606,164.78642501278955 41.86593213560991,164.5895271066256 41.76383946661372,163.9791423259594 43.03999782941537,155.9258211225242 42.92088971560588,151.9088805182546 45.115882099897135,151.6922784128983 58.55808352259919,153.89767034615215 58.541068077785894,153.247869974919 43.754646512679756,151.1999999999971 43.992862740473356,156.06365584160085 42.44445726007689,167.01135744639032 42.869843381107785,167.680801142953 42.47848814976169,168.4093107728695 42.563565373944584,169.98445736573194 41.968024804547895,170.1222820833791 41.69577768718591,172.8000000000029 40.31752665521344,172.64248820573266 40.402603879454546,171.48083476851752" stroke="#4DD2FF" stroke-linecap="round" stroke-linejoin="round" stroke-width="0.5"><title>2025-07-05 4.8km</title><desc>1751729502000</desc></polyline><polyline fill="none" points="77.47653159161564,172.8000000000029 77.69029890629463,172.64377437834628 77.72405164019438,171.75849225716956 78.01657533395337,170.4696147036011 78.17408809217159,170.417538570342 78.37660449557006,168.5297644467646 73.97749817738077,168.3474951277749 74.25877095985925,167.37104793159233 74.67505467793671,162.97043354451307 74.72005832317518,159.75450434455706 74.56254556495696,159.32483967291773 74.73130923439749,156.69473966119403 74.72005832317518,151.20000000001164 68.81332989077782,153.32240369042847 68.68956986645935,153.62188113393495 68.73457351169782,153.36146600537177 71.91858140949626,152.15052870126965 71.97483596601523,154.83280452557665 72.28986148239346,155.5098749796016 74.64130194403697,155.5098749796016 74.65255285537569,158.94725437769375 74.90007290389622,159.06443614015006 74.99008019431494,159.48108153846988 79.10791373002576,159.74148422417056 79.31043013348244,160.77006965701003 79.287928310805,162.6449383102008 77.87031348713208,172.31830372134573" stroke="#4DD2FF" stroke-linecap="round" stroke-linejoin="round" stroke-width="0.5"><title>2025-07-03 5.2km</title><desc>1751545471000</desc></polyline><polyline fill="none" points="99.62149048372521,172.8000000000029 100.13458116131369,169.63671731814247 100.34486422588816,169.49071713368176 100.88318887123023,165.4999592376189 100.92524548413348,164.1177555339309 100.00841132254573,156.7781142833337 99.5626112256723,155.85331851030787 99.65513577405363,155.72676681490702 100.03364529029932,155.7949100562837 99.85700751605327,153.90635083913367 99.44485270947916,153.38066277890175 99.453264032054,152.18325142054528 99.05793187068775,151.20000000000437 99.48690932241152,152.27086739368679 99.44485270947916,153.4001327585429 99.82336222572485,153.7700616192451 99.88224148380687,154.07184463103476 100.03364529029932,155.78517531047692 99.62149048372521,155.75597106714122 99.5626112256723,155.8825227239431 100.01682264517876,156.7781142833337 100.45421141947736,160.94445183175412 100.94206812928314,164.08855383204354 100.79907564536552,166.26892308380047 99.87383016123204,172.46907685849146" stroke="#4DD2FF" stroke-linecap="round" stroke-linejoin="round" stroke-width="0.5"><title>2025-07-01 5.0km</title><desc>1751376396000</desc></polyline><polyline fill="none" points="125.24091598694213,172.8000000000029 125.39689215400722,172.60748258684907 125.36569692054763,171.8975719208902 125.61525878787506,171.65692327159195 125.79203177720774,170.71838886621117 126.06239046674455,167.40939411168802 126.43673326767748,166.12186934256897 126.8526697132038,162.74054603456898 126.74868560180767,160.80316069041146 126.16637457808247,157.34948208722926 125.77123495494016,153.16161118170567 125.147330286738,151.60917311411322 125.6984460769454,151.71748340755585 125.71924289921299,151.1999999999971 125.71924289921299,151.69341446199542 125.24091598694213,151.59713863095385 125.15772869781358,151.71748340755585 125.5528683210141,152.3071710439035 125.79203177720774,153.13754252986837 126.22876504494343,157.80676936249802 126.8526697132038,161.9583756436623 126.80067765747663,163.89574208252452 125.49047785421135,172.39090012299857" stroke="#4DD2FF" stroke-linecap="round" stroke-linejoin="round" stroke-width="0.5"><title>2025-06-30 4.1km</title><desc>1751292736000</desc></polyline><polyline fill="none" points="141.4425087107811,163.3315227524945 141.20000000001164,161.57876788833528 141.28362369336537,161.39477517099294 147.78954703832278,161.08489189430838 148.82648083620006,161.18173052685597 150.51567944249837,161.01710479283065 153.04947735188762,161.04615641367855 162.79999999998836,160.4263865755347 159.88989547037636,160.6297489993085 159.21254355402198,160.85247877354414 157.95818815330858,160.79437540450454 151.61114982576692,161.12362735918578 145.70731707316008,161.23014980609878 145.5317073170445,161.385091333912 145.94146341460873,163.57361342445802 145.7491289198515,163.5542461934092 145.51498257837375,162.41157257369196" stroke="#4DD2FF" stroke-linecap="round" stroke-linejoin="round" stroke-width="0.5"><title>2025-06-26 5.0km</title><desc>1750950176000</desc></polyline><polyline fill="none" points="188.80000000001746,162.8840289662694 188.4512378902291,161.1159710337306 179.15866523142904,161.96859223496722 178.16663078582496,161.97756715106516 174.58600645855768,161.52882022524136 167.20000000001164,161.842943313437 174.33799784714938,161.51984526338492 178.17438105490874,161.98654206626816 184.7853606028366,161.3852207259697" stroke="#4DD2FF" stroke-linecap="round" stroke-linejoin="round" stroke-width="0.5"><title>2025-06-24 5.0km</title><desc>1750769966000</desc></polyline><polyline fill="none" points="32.80000000001746,186.86500652030372 32.5043227665592,185.134993479689 23.30720461095916,186.0090147157971 22.186743515863782,186.04505664313183 18.56080691641546,185.57651044185332 11.200000000011642,185.90088884568104 18.366282420727657,185.57651044185332 22.17896253601066,186.04505664313183 29.96772334293928,185.3512469611669" stroke="#4DD2FF" stroke-linecap="round" stroke-linejoin="round" stroke-width="0.5"><title>2025-06-22 5.0km</title><desc>1750563938000</desc></polyline><polyline fill="none" points="48.73815248723258,196.79999999999927 47.62179466203088,190.13051871750213 47.606144785968354,188.31198824174135 47.70526066762977,187.55072635359465 47.642661163408775,185.59315086737843 47.663527664815774,185.25479793072736 47.77829342253972,185.0614525278579 47.663527664815774,184.97082165302345 47.6583110394422,183.7321858001269 46.39067107907613,176.10645203613967 46.072456932626665,175.1999999999971 46.3958877043915,175.99163554574625 47.642661163408775,183.60529968929768 47.71047729300335,187.31509569159243 47.62179466203088,188.3180299636333 47.6165780366573,190.07010331892525 48.47210459431517,195.19311027954973 48.59208697738359,195.54348844374908 49.927543067373335,195.47099657972285" stroke="#4DD2FF" stroke-linecap="round" stroke-linejoin="round" stroke-width="0.5"><title>2025-06-21 8.0km</title><desc>1750517001000</desc></polyline><polyline fill="none" points="76.1913823732757,196.8000000000029 74.36168446938973,185.54865028322092 71.14198350673541,185.48294666381844 65.34084829204949,184.92446481718798 65.45431792951422,184.33312898734584 65.22737865458475,183.1997292473534 65.53942015761277,175.7913693520677 65.49686904350528,175.2657078129996 65.21319494990166,175.20000000001164 64.85860233288258,184.31670296112134 65.39758311078185,184.38240705603675 65.42595052008983,184.9408907815232 74.404235583439,185.53222438090597 75.49638084386243,192.56235758092953 75.83678975625662,193.49859049583029 83.14139766711742,193.26863905573555" stroke="#4DD2FF" stroke-linecap="round" stroke-linejoin="round" stroke-width="0.5"><title>2025-06-19 5.0km</title><desc>1750345525000</desc></polyline><polyline fill="none" points="110.79999999998836,186.54074252207647 110.60173913047765,185.36258955602898 104.48695652175229,185.9426062500861 103.69913043477573,185.9607316803049 101.0800000000163,185.65864045270428 91.37565217391239,186.09969312808244 90.53565217391588,186.23865425010445 89.20000000001164,186.63741044396738 91.08347826087265,186.12990209535928 94.49565217393683,185.97885710501942" stroke="#4DD2FF" stroke-linecap="round" stroke-linejoin="round" stroke-width="0.5"><title>2025-06-17 5.1km</title><desc>1750166247000</desc></polyline><polyline fill="none" points="115.94482758606318,194.1510307485005 115.19999999995343,189.36404772932292 132.0331034482224,188.86809284615447 129.29586206900422,178.06461318439688 132.6103448275244,178.25869253612473 136.79999999993015,177.8489692514995 130.18965517240576,178.2371281724918 132.62896551727317,187.96243310290447 125.40413793094922,188.30744679560303" stroke="#4DD2FF" stroke-linecap="round" stroke-linejoin="round" stroke-width="0.5"><title>2025-06-16 3.2km</title><desc>1750084948000</desc></polyline><polyline fill="none" points="162.80000000001746,186.99850620845245 162.46903225811548,185.00149379155482 151.8519354838645,185.97983319273044 150.89387096776045,185.9899191155855 146.6958064516075,185.47553574019548 141.20000000001164,185.73777073623933 146.52161290321965,185.46544976492441 150.8851612903527,185.96974726887856 159.89096774198697,185.21330004923948" stroke="#4DD2FF" stroke-linecap="round" stroke-linejoin="round" stroke-width="0.5"><title>2025-06-15 4.6km</title><desc>1749956754000</desc></polyline><polyline fill="none" points="188.79999999998836,186.86869646520063 188.53705692803487,185.13130353479937 179.2876476906822,185.98209302483883 178.3209452201845,186.00000429398642 174.25306122447364,185.54326579025656 167.20000000001164,185.86566968640545 174.39226638022228,185.54326579025656 178.25907626209664,186.00000429398642 180.2775510204374,185.90149226850917 180.65649838879472,185.7761131672596 185.55961331899744,185.33728490394424" stroke="#4DD2FF" stroke-linecap="round" stroke-linejoin="round" stroke-width="0.5"><title>2025-06-14 5.1km</title><desc>1749906363000</desc></polyline><polyline fill="none" points="32.80000000001746,211.2825023057885 32.540311174001545,209.5312315057672 23.588684582762653,210.39802652083017 22.381895332422573,210.40687132332096 18.71570014147437,209.96463009550644 11.811032531841192,210.29188882088056 11.719377652101684,210.08845786646998 11.75756718532648,208.7263426679565 11.200000000011642,208.7174976942042 11.780480905261356,208.74403261275438 11.719377652101684,210.0796130315357 11.833946251805173,210.29188882088056 18.906647807656555,209.9557852479702 22.54992927866988,210.41571612490225 29.80594059411669,209.76119837396982 29.79830268744263,209.4074029396943 32.12786421502824,209.2835741969684" stroke="#4DD2FF" stroke-linecap="round" stroke-linejoin="round" stroke-width="0.5"><title>2025-06-12 5.9km</title><desc>1749735885000</desc></polyline><polyline fill="none" points="58.800000000046566,216.7951636059588 58.1114345114911,213.32834658339561 39.19085239083506,215.00976166465261 37.409563409572,210.13881250722625 37.20000000001164,204.05426366438041 40.732640332658775,203.89824672872783 43.7413721413468,204.08893407507276 43.90602910605958,203.53420665560407 43.59168399171904,203.41285979138047 37.28981288976502,203.2048363940412 37.4245322245406,209.96546655007114 37.94844074838329,211.94159998719988 38.9812889812747,214.4030674181995 47.36382536380552,213.67503146568197 47.528482328460086,214.33373079507146 58.066528066585306,213.31101232068613 58.71018711023498,216.74316187262593" stroke="#4DD2FF" stroke-linecap="round" stroke-linejoin="round" stroke-width="0.5"><title>2025-06-10 5.3km</title><desc>1749559786000</desc></polyline><polyline fill="none" points="63.76714178547263,204.24909050056885 63.248612153111026,202.1474734665535 63.20000000001164,200.5149508225004 77.89707426866516,200.13965621423267 78.56144036009209,202.59782199337496 78.07531882979674,202.57905749345082 77.929482370615,202.9168181999994 78.23735933983698,204.66190531340544 78.15633908478776,205.84405170261743 78.6910727682407,208.2083217118634 80.06841710436856,208.15202992159175 82.11012753192335,216.01394999414333 82.14253563398961,216.3704491542594 81.6240060015698,216.52055385735002 82.09392348094843,216.389212248876 82.25596399098868,216.6894215020002 81.83465866465122,216.76447373889096 81.98049512377474,217.4587054794829 82.95273818454007,219.93540279920853 83.63330832711654,219.8603518546297 84.79999999998836,219.22241759099416 83.56849212310044,219.48509667308826 81.3809452363057,210.76019813120365 81.12168042018311,210.00964991436922 80.538334583689,210.00964991436922 80.10082520637661,208.09573811406153 79.63090772693977,208.28337740548886 78.67486871726578,208.15202992159175 78.14013503381284,205.99416498669598 78.02670667675557,203.2170494190359 77.13548387098126,200.06459720079147 63.248612153111026,200.55248024124012 63.831957989546936,204.36167645036767" stroke="#4DD2FF" stroke-linecap="round" stroke-linejoin="round" stroke-width="0.5"><title>2025-06-08 5.0km</title><desc>1749355299000</desc></polyline><polyline fill="none" points="110.80000000001746,210.8888356619209 110.42010050249519,209.11116433808638 103.45786073218915,209.69474726330373 101.36453697056277,209.99102634569863 100.20157932522125,209.99102634569863 96.51888011486153,209.5421182561986 89.20000000001164,209.86533231123758 96.16999282123288,209.5421182561986 100.16281407038332,210.0000044841363 108.55936826992547,209.24583766396972" stroke="#4DD2FF" stroke-linecap="round" stroke-linejoin="round" stroke-width="0.5"><title>2025-06-07 5.3km</title><desc>1749293029000</desc></polyline><polyline fill="none" points="136.80000000001746,210.85568752919062 136.48109470657073,209.14431247080938 126.62614332014346,210.04504031674878 122.62815988477087,209.58567026240053 115.20000000001164,209.8919172306123 122.59704717321438,209.5676557018014 126.15167446888518,210.04504031674878 133.76651062298333,209.3514806882813" stroke="#4DD2FF" stroke-linecap="round" stroke-linejoin="round" stroke-width="0.5"><title>2025-06-05 5.1km</title><desc>1749128617000</desc></polyline><polyline fill="none" points="141.5023622047156,209.8632804811059 141.20000000001164,207.88280388200656 141.31338582676835,207.7952681616007 149.78897637792397,207.49983457833878 151.3858267716132,213.3536447847291 159.75748031493276,213.24423069852492 162.79999999998836,213.05822649609036 160.296062992129,213.14575792558753 159.83307086618152,206.6463552152636 151.82047244091518,207.1168639085081 150.1007874016068,207.06215370126301 150.25196850392967,207.49983457833878 145.81102362205274,207.63113849350339" stroke="#4DD2FF" stroke-linecap="round" stroke-linejoin="round" stroke-width="0.5"><title>2025-06-03 5.2km</title><desc>1748952979000</desc></polyline><polyline fill="none" points="185.06249909711187,203.56082101978245 184.5886668859166,202.85949760240328 184.25278582482133,202.1234474476223 184.0368622855749,201.92207385148504 183.50305131345522,201.87346634264395 183.0951957392972,201.4012773109498 182.90926158046932,200.78326025598653 182.63335928026936,200.35967229801463 182.3034760952578,199.1999999999971 181.34981379681267,199.60970683729101 180.90597096606507,199.65831595972122 179.75437875659554,200.0888523886315 179.26255291714915,200.72076383748208 179.26255291714915,200.8804767931506 177.27125805494143,203.41500189319777 177.2592623027449,203.56082101978245 176.7134555784869,204.31074303203786 176.23962336732075,204.74819373136415 176.15565310203237,204.67181365271972 175.819772040908,204.96344622015022 175.59785062554874,204.83151735600404 175.59185274949414,204.9565026020864 175.56186336898827,204.77596828423702 175.8737529257487,204.99816429989733 175.8257699170208,205.24813395230012 175.10602478610235,206.04664198242972 173.87646018745727,206.32438171478134 173.87646018745727,206.19939897519362 173.792489922198,206.35215562582016 173.45660886107362,206.42853382286557 173.16271293262253,206.34521214911365 172.67088709317613,206.386872998708 172.58691682788776,206.31049475502368 172.38898691689246,206.42159035395161 171.79519718390657,206.21328595755767 171.7172247947019,205.30368263951823 171.48930550322984,205.1023184330552 170.36770267426618,205.38700558556593 169.94785134788253,205.64391736174002 170.4276814351615,207.72000675107847 171.18341382261133,210.03904192813206 172.77884886279935,216.27366183226695 173.0007702781586,216.91930817933462 174.8841033707431,220.73057990218513 175.1240184143826,220.8000000000029 175.95172531495336,220.5362032526973 176.5155256674916,220.70281184330088 177.5471603551414,220.48760900383786 177.52916672683205,220.0780275314537 177.805069027032,220.00166461223125 178.3028927425912,220.2307531136321 178.68075893633068,220.05025920709159 178.8367037146818,220.27934754537273 179.80835964140715,220.49455104149092 180.3781578700873,220.3904204023056 180.95395397479297,219.96001207481459 181.05591786833247,219.14778251434473 181.48776494691265,218.5507529127717 181.37380530117662,217.95371808826167 181.5117564512766,217.66214104311803 181.2178605227964,217.3358509679092 181.03192636399763,216.84988413403335 180.95995185087668,216.12786987621075 181.34981379681267,215.8154574929431 181.94360352979857,216.05844502575928 182.27348671481013,216.0376175568381 182.3574569800985,215.58635416949255 182.21950582999852,215.0309489806241 182.1055461842625,214.98235081150779 182.21950582999852,214.9268100044428 182.08755255601136,214.88515436946182 182.19551432560547,214.94763781239453 182.2075100778311,214.6213347574303 182.05156529945089,214.2603167932466 181.34381592069985,214.2117180752757 181.0139327357174,213.96178126467566 181.15188388578827,213.01756727332395 181.7156842383556,212.05251152983692 182.14753131687758,211.5734500117469 182.34546122790198,211.504020527158 182.77131043036934,210.9138670553366 183.52104494173545,210.19873306609225 184.1868091878423,209.36555779891933 183.9948771529016,208.97673919187218 183.4010874199157,208.96979598232429 183.32311503074015,208.7406696706821 183.5510343221831,208.19215204069042 183.81494087018655,207.94219317677926 184.06085378993885,207.9769097404278 184.16281768344925,207.85193002863525 183.95289202028653,207.37283901206683 184.2347921965411,206.78264980076347 184.49869874457363,206.62989411417948 184.72062015993288,206.72015887941234 184.69063077948522,206.55351614263054 185.35639502556296,206.24800340112415 185.41637378648738,206.06052899591305 185.99816776730586,205.70640926906344 186.05214865211747,205.1995288138569 185.29041838855483,203.74830229589134 185.17046086673508,203.69275234187808" stroke="#4DD2FF" stroke-linecap="round" stroke-linejoin="round" stroke-width="0.5"><title>2025-06-02 11.5km</title><desc>1748829019000</desc></polyline><polyline fill="none" points="32.800000000046566,235.01010417004727 32.404329725250136,232.98989582994545 20.992839300597552,234.05207220497687 16.262781015830114,233.51057190335268 11.200000000011642,233.72925506292086 16.3257285595173,233.48974491135596 20.47127393836854,234.0312453233637 32.38634471275145,233.00030937744305 32.791007493797224,234.9476240983131" stroke="#4DD2FF" stroke-linecap="round" stroke-linejoin="round" stroke-width="0.5"><title>2025-06-01 4.9km</title><desc>1748740054000</desc></polyline><polyline fill="none" points="58.79999999998836,244.40892800624715 58.72178636089666,244.5749758197344 58.56535908265505,244.45421379205072 58.0439348219079,241.5558955880988 41.56692818342708,242.9899663713586 40.041762220847886,238.71790405572392 39.97658418829087,233.34368598276342 39.61158720578533,231.32075562310638 37.20000000001164,223.4250241802656 38.79034399514785,228.70902107811708 39.22051901026862,229.52424952304864 39.92444176226854,232.5586715124664 40.62836451421026,232.75492552017386 39.89837054919917,232.7398290673009 40.041762220847886,238.21974035682797 40.53711526852567,240.25767216749955 41.397465298708994,242.38614878656517 41.61907060950762,242.52200795777026 48.68436934216879,241.79742427130986 48.879903439898044,242.3710533154226 54.498249849071726,241.82761532903532" stroke="#4DD2FF" stroke-linecap="round" stroke-linejoin="round" stroke-width="0.5"><title>2025-05-31 5.5km</title><desc>1748696141000</desc></polyline><polyline fill="none" points="83.28519480518298,239.96107695229875 82.79428571433527,236.79383424030675 65.02337662340142,238.38558459952765 63.38233766233316,233.70774233133125 63.20000000001164,228.071409692624 69.23116883111652,228.13638296272256 63.2841558441869,228.0389230476867 63.396363636362366,233.62652857927606 63.83116883120965,235.3644938388752 64.92519480513874,237.86583112829248 80.66233766230289,236.35528798044834 82.0649350649328,236.27407557763217 82.13506493507884,236.87504637821985 84.79999999998836,236.66389473357412" stroke="#4DD2FF" stroke-linecap="round" stroke-linejoin="round" stroke-width="0.5"><title>2025-05-29 5.0km</title><desc>1748526381000</desc></polyline><polyline fill="none" points="102.29350237711333,231.8794324934861 101.81426307442598,227.9550316833047 109.92709984153043,227.55862315728154 110.79999999998836,230.74968886254646 109.8586370839621,227.6379049270763 101.78003169572912,228.01449289247103 102.00253565760795,229.97670259683218 101.69445324881235,228.0343132914859 90.15847860532813,229.10461183918233 91.88716323289555,237.7658852304594 92.55467511882307,239.78745416236052 92.10966719489079,240.06492276806966 92.81141045951517,241.92791601225326 91.87004754354712,239.47034669971617 89.5423137875623,229.14425241308345 93.5816164817661,228.5694633016683 100.89001584780635,228.11359486742003 100.80443740094779,227.53880270973605 90.07290015846957,228.2721579222998 89.47385103005217,226.0720839877613 89.20000000001164,226.30993101850618 89.33692551503191,228.43072084784217 97.43264659267152,227.6379049270763" stroke="#4DD2FF" stroke-linecap="round" stroke-linejoin="round" stroke-width="0.5"><title>2025-05-27 6.0km</title><desc>1748352132000</desc></polyline><polyline fill="none" points="133.92164009113912,235.60963212927163 134.007744874747,235.5526552900119 133.73097949888324,234.17095271491416 126.45512528475956,234.86892959520628 125.6125284738373,234.88317394875048 122.58041002281243,234.5270642391988 115.33530751711805,234.84756305946212 115.20000000001164,232.48295940099342 116.06104783603223,232.39036787073564 117.2480637813569,232.47583697995287 117.25421412303695,234.5270642391988 122.75876993167913,234.30627530792117 126.1045558086771,234.63389734260272 133.71867881552316,233.87893991079181 136.6708428246202,233.77210565316636 136.80000000001746,234.00714080432226 136.7138952164387,234.03562985983444 133.98929384967778,234.14958596572978" stroke="#4DD2FF" stroke-linecap="round" stroke-linejoin="round" stroke-width="0.5"><title>2025-05-25 7.6km</title><desc>1748179850000</desc></polyline><polyline fill="none" points="162.7858453473018,235.19247159729275 162.72922673658468,234.72532334623247 162.45321100918227,234.72532334623247 162.27627785058576,233.84838859889715 162.1347313237202,233.65169164153485 155.30511140238377,234.23358541334164 154.18689384011668,234.43847658415325 149.69986893839086,234.020498041893 141.32031454789103,234.3974983917651 141.20000000001164,232.9714442880504 143.2807339449646,232.80752840270725 143.26657929227804,234.0041066822596 143.54259501968045,234.0368893982086 149.42385321101756,233.7828229999286 153.68440366972936,234.15162879884156 162.53106159897288,233.29927505632077 162.80000000001746,235.10232039174298" stroke="#4DD2FF" stroke-linecap="round" stroke-linejoin="round" stroke-width="0.5"><title>2025-05-24 6.6km</title><desc>1748094255000</desc></polyline><polyline fill="none" points="188.79999999998836,234.96242977261863 188.56502820309834,233.03757022738137 179.67091055604396,233.79340959531692 178.43513295729645,234.0050435829762 177.02530217566527,234.02519917719474 172.96116035457817,233.53138593537733 167.20000000001164,233.76317613151332 172.9350523771427,233.5213080884423 176.97308622079436,234.03527697279787 186.1892022562679,233.25928370746988" stroke="#4DD2FF" stroke-linecap="round" stroke-linejoin="round" stroke-width="0.5"><title>2025-05-18 4.7km</title><desc>1747565909000</desc></polyline><polyline fill="none" points="29.99255654166336,258.77338019321905 29.75757228746079,257.3913227641242 23.49338677356718,257.9212340073791 22.448325221892446,258.10741808998137 21.607328943617176,258.1002571728386 18.744231319782557,257.7278884763 11.243286573153455,258.0716134970353 11.200000000011642,257.8567855561196 15.423532779852394,257.5846692213745 18.286630403687013,257.53454241318104 21.632064128265483,258.0716134970353 29.83796163756051,257.3411958179713 32.602118522743694,257.22661980678095 32.713426853733836,257.2409418183961 32.73197824222734,257.3411958179713 32.80000000001746,257.2982298356728" stroke="#4DD2FF" stroke-linecap="round" stroke-linejoin="round" stroke-width="0.5"><title>2025-05-17 5.7km</title><desc>1747487200000</desc></polyline><polyline fill="none" points="57.619625049846945,257.10703299409215 54.7591543677554,257.2566937149022 53.36338252888527,257.5061277411078 46.953171120840125,257.9950165888731 42.93817311525345,257.47619569153176 37.20000000001164,257.7056745044756 42.860630235343706,257.496150392275 46.79808536096243,257.985039289837 58.23996808932861,256.9873042527179 58.61906661349349,258.922900952959 58.79999999998836,259.01269574727485" stroke="#4DD2FF" stroke-linecap="round" stroke-linejoin="round" stroke-width="0.5"><title>2025-05-11 5.0km</title><desc>1746965499000</desc></polyline><polyline fill="none" points="84.80000000001746,258.77605289639905 84.45136298416764,257.22394710360095 74.65078909610747,258.11214972172456 70.66857962694485,257.65459191647096 63.20000000001164,257.9686024309849 70.48263988521649,257.66356366098626 74.20143472022028,258.11214972172456 84.5133428981353,257.2418906795283" stroke="#4DD2FF" stroke-linecap="round" stroke-linejoin="round" stroke-width="0.5"><title>2025-05-10 5.3km</title><desc>1746870058000</desc></polyline><polyline fill="none" points="110.75283842795761,257.63590713059966 110.69781659389264,257.4811665711022 110.80000000001746,257.59949761129974 110.38340611354215,257.6723166350275 100.75458515287028,258.5188334288905 96.67510917031905,258.03641086306743 89.20000000001164,258.34588978983084 96.63580786026432,258.03641086306743 98.54585152838263,258.1911504605159 100.28296943232999,258.50973114042426 108.16681222707848,257.7997497837059" stroke="#4DD2FF" stroke-linecap="round" stroke-linejoin="round" stroke-width="0.5"><title>2025-05-05 5.4km</title><desc>1746434825000</desc></polyline></svg>