<?xml version="1.0" encoding="utf-8" ?>
<svg baseProfile="full" height="300mm" version="1.1" viewBox="0,0,200,300" width="200mm" xmlns="http://www.w3.org/2000/svg" xmlns:ev="http://www.w3.org/2001/xml-events" xmlns:xlink="http://www.w3.org/1999/xlink"><defs /><rect fill="#222222" height="300" width="200" x="0" y="0" /><text fill="#FFFFFF" style="font-size:12px; font-family:Arial; font-weight:bold;" x="10" y="20">Over 3km Runs</text><text fill="#FFFFFF" style="font-size:4px; font-family:Arial" x="10" y="280">Runner</text><text fill="#FFFFFF" style="font-size:9px; font-family:Arial" x="10" y="290">tang-hi</text><text fill="#FFFFFF" style="font-size:4px; font-family:Arial" x="65" y="280">SPECIAL TRACKS</text><rect fill="yellow" height="2.6" width="2.6" x="65" y="283" /><text fill="#FFFFFF" style="font-size:3px; font-family:Arial" x="70" y="285.5">Over 20.0 km</text><rect fill="red" height="2.6" width="2.6" x="65" y="287" /><text fill="#FFFFFF" style="font-size:3px; font-family:Arial" x="70" y="289.5">Over 40.0 km</text><text fill="#FFFFFF" style="font-size:4px; font-family:Arial" x="120" y="280">STATISTICS</text><text fill="#FFFFFF" style="font-size:3px; font-family:Arial" x="120" y="285">Number: 48</text><text fill="#FFFFFF" style="font-size:3px; font-family:Arial" x="120" y="290">Weekly: 3.7</text><text fill="#FFFFFF" style="font-size:3px; font-family:Arial" x="141" y="285">Total: 258.2 km</text><text fill="#FFFFFF" style="font-size:3px; font-family:Arial" x="141" y="290">Avg: 5.4 km</text><text fill="#FFFFFF" style="font-size:3px; font-family:Arial" x="167" y="285">Min: 3.2 km</text><text fill="#FFFFFF" style="font-size:3px; font-family:Arial" x="167" y="290">Max: 11.5 km</text><polyline fill="none" points="24.591151291620918,58.5 25.058406958298292,54.6291822859057 25.345132026530337,54.40798895968328 25.791148799296934,51.409550618060166 26.120351655350532,49.00091514312953 26.141590549319517,47.50163821944443 25.366370920441113,42.180283947789576 25.069026405282784,38.64077771301527 24.803540230961516,37.71901428748242 24.400001246132888,37.14137229127664 24.495576268876903,36.95701788154838 25.01592917041853,37.0061790849868 24.771681890124455,34.584966058093414 24.272567882493604,34.05647148637945 24.315045670431573,32.55700919103401 23.858409450680483,31.5 24.32566511729965,32.716788845762494 24.272567882493604,33.933565440791426 24.79292078409344,34.572675512885326 25.026548617403023,36.993888785997115 24.888495806837454,37.116791719534376 24.37876235222211,37.01846938270319 25.058406958298292,38.45642559028056 25.493804284080397,43.11430303208908 26.141590549319517,47.538505907745275 26.130971102335025,49.06236052207532 24.888495806837454,57.56609976536856 24.82477912498871,57.774999128283525 24.548673503741156,57.78728731483716 24.44247903401265,58.25423747959576 24.14513451885432,58.22966120009369" stroke="#4DD2FF" stroke-linecap="round" stroke-linejoin="round" stroke-width="0.5"><title>2025-08-03 5.0km</title><desc>1754221111000</desc></polyline><polyline fill="none" points="68.5,43.53919877730368 68.416986933109,43.883402051626035 68.20253651036182,43.903413777377864 63.989623366622254,43.8193644608873 63.87548039968533,43.74732204687098 63.709454265932436,43.8153621080055 63.17332820905722,43.811359754723526 63.12836279781186,43.767333841758955 62.17025365102745,43.82336681335801 61.69984627208032,43.7513244066613 60.18139892388717,43.74732204687098 59.524212144489866,43.643260549553816 59.078016910047154,43.52719163204165 59.050345887764706,43.48316540145606 58.43120676401304,43.46315346218762 57.07186779398762,43.22300939793422 55.07263643351325,43.20699974158924 50.901229823197355,43.72731024181485 50.33743274403969,43.987462914530624 49.732129131414695,44.17156992159289 48.10645657185523,45.160129788298946 47.24519600305939,45.596368965700094 46.715987701754784,45.74845121305043 46.40468870098994,45.75245336952139 46.01037663334864,45.65640150190666 45.59185242118838,45.82849426530811 45.4500384319399,45.548342870893975 45.28055342043808,45.66040366773086 45.14219830898219,45.40026204329479 42.786702536497614,46.79300025841076 42.6068408916035,46.34076594871658 41.88047655647097,44.95201398323479 41.811299000750296,44.90398710284353 41.5,45.05607202320243 41.70407378936943,44.89998486017794 41.804381245179684,44.88797812971461 41.83551114525471,44.78792190018794 41.960030745583936,44.79592640789633 42.12605687932228,44.683863151884 42.17448116831656,44.73989481974422 42.29900076861668,44.65984955555177 42.25749423519301,44.73589256039486" stroke="#4DD2FF" stroke-linecap="round" stroke-linejoin="round" stroke-width="0.5"><title>2025-08-02 8.3km</title><desc>1754134728000</desc></polyline><polyline fill="none" points="85.72169430652866,31.5 85.57638672803296,31.533628019402386 85.48920218093554,32.44158066763339 86.21574007335585,32.44158066763339 86.21574007335585,33.170179240180005 83.79394709866028,49.1981306865564 83.80363427050179,50.890456812339835 84.8111001480138,58.5 83.85207013005856,51.1033966723262 83.78425992670236,49.45590389092831 85.21796136774356,39.211757410434075 85.57638672803296,37.8218874652448 85.47951500903582,37.508043441644986 85.93481208826415,34.2014182253115" stroke="#4DD2FF" stroke-linecap="round" stroke-linejoin="round" stroke-width="0.5"><title>2025-07-31 5.0km</title><desc>1753965181000</desc></polyline><polyline fill="none" points="114.4654208299471,58.5 114.58186381746782,57.52006948937924 114.8782641493599,57.164842712008976 115.95800821547164,49.72933849729452 116.07445120299235,46.985313321463764 115.5239934437559,43.65319875050045 114.94177850621054,38.152558028792555 114.38073502085172,37.07445201911469 114.49717800837243,36.91518554076174 114.96294995845528,36.9764419034982 114.76182116183918,34.538414618655224 114.22194912878331,33.95034035042772 114.28546348563395,32.59040761045617 113.8620344400988,31.5 114.29604921175633,32.61491103890148 114.25370630715042,33.97484350224113 114.76182116183918,34.61192370032222 115.00529286300298,36.951939362159465 114.86767842323752,37.07445201911469 114.44424937764416,36.90293426446442 114.40190647309646,37.08670327797154 115.0370500414283,38.49558973607782 115.40755045623519,42.61189405153709 116.137965559843,47.86732822734484 115.37579327786807,54.21274520140287 114.81474979250925,57.728305389398884 114.61362099589314,57.81404947900592" stroke="#4DD2FF" stroke-linecap="round" stroke-linejoin="round" stroke-width="0.5"><title>2025-07-29 5.0km</title><desc>1753797916000</desc></polyline><polyline fill="none" points="146.15806076081935,31.5 146.13859755476005,33.56069886108162 145.69094381527975,36.71360656358593 145.34060610609595,37.76080249394727 145.10704763332615,40.64335524561466 144.455030230165,44.08880823416257 144.5328830544022,44.696818233584054 143.8905972542707,48.96405384569516 143.9295236664475,51.22708576808509 144.7275151150534,58.5 143.97818168159574,52.184075421137095 143.84193923918065,49.7859563529928 144.46476183325285,44.26895969273028 145.3308745030663,38.762948474533914 145.24329007579945,38.481447709709755 145.661749006249,36.7699076717181 146.13859755476005,32.9638883785301" stroke="#4DD2FF" stroke-linecap="round" stroke-linejoin="round" stroke-width="0.5"><title>2025-07-27 5.0km</title><desc>1753616848000</desc></polyline><polyline fill="none" points="175.77117321960395,31.5 175.79991259425879,33.872188869761885 175.2730240590754,37.61881201835058 175.06226864503697,38.01785305649537 174.76529510703404,41.276633578323526 174.22882678033784,44.24713783559855 174.26714594650548,44.81241120443883 173.5678211635095,49.42315914606297 174.43958219437627,58.5 175.0143696872983,58.411340979946544 174.60243865073426,53.96721533680102 174.13302886480233,50.85289478359482 174.11386928177672,49.19040971154027 175.43588051537517,39.86894100766949 175.87655092665227,38.00676860292879 175.78075301117497,37.57447403511469 176.43217883643229,33.62832136474026" stroke="#4DD2FF" stroke-linecap="round" stroke-linejoin="round" stroke-width="0.5"><title>2025-07-26 5.2km</title><desc>1753529066000</desc></polyline><polyline fill="none" points="25.93190294969827,61.5 25.815415080927778,62.084096391256026 25.970732239249628,62.8366775761242 25.78629311377881,64.61140097930911 25.378585573285818,67.37452121481329 25.165024480666034,67.76764246611856 25.13590251345886,68.94699783339456 24.27195082057733,74.12478064413881 24.339902077277657,74.61895982145506 23.699218799418304,79.32478271090076 23.786584700923413,81.8292321066765 24.55346316995565,88.5 25.106780546309892,88.44385043392685 24.669951038667932,84.36731578929175 24.767024262575433,84.15393931491417 24.21370688622119,80.98693482742965 24.203999563818797,79.48201438624528 26.300781200581696,64.80235053392971" stroke="#4DD2FF" stroke-linecap="round" stroke-linejoin="round" stroke-width="0.5"><title>2025-07-24 5.0km</title><desc>1753356656000</desc></polyline><polyline fill="none" points="54.52643632655963,88.45129099960468 54.66324361000443,88.5 55.12628364627017,84.65192796802148 55.431469124683645,84.45708559099148 55.357803664403036,84.07957758392149 56.1470764533733,79.19622164525208 56.19969463936286,77.72265121164673 55.41042185027618,72.52238591458445 55.084189097513445,68.67380066993792 54.45277086633723,67.34625365888496 54.5474836009671,67.15138313440548 55.06314182310598,67.24881843626645 54.78952725621639,64.80073245455424 54.337010857183486,64.31354519485467 54.37910540594021,62.998129694664385 53.80030536063714,61.5 54.32648722000886,62.705813177068194 54.31596358283423,64.26482635990396 54.800050893449225,64.77637313862215 55.073665460338816,67.17574196730129 54.93685817689402,67.3097154596835 54.568530875316355,67.16356255148276 54.45277086633723,67.3097154596835 54.82109816779848,67.83342858294782 55.084189097513445,68.71033845302736 55.557752770895604,73.55758552656334 56.16812372772256,77.51561920283712 56.15760009060614,79.13533066398668 55.01052363717463,87.1117857302088" stroke="#4DD2FF" stroke-linecap="round" stroke-linejoin="round" stroke-width="0.5"><title>2025-07-22 5.0km</title><desc>1753184035000</desc></polyline><polyline fill="none" points="71.5,79.45307932648575 71.5,75.12050218868535 74.37057010806166,62.9890753996151 97.58474576286972,67.22548196098069 98.5,68.23643701843685 95.37981510045938,86.9627858401218 74.53697996935807,83.68933866149746 73.78813559329137,82.72655577518162 76.36748844385147,64.00003949800157 77.28274268098176,63.42234599171206 82.81587057025172,64.33702705139876 98.4583975346759,67.8031708295166 95.71263482305221,86.57767558126943 94.8389830510132,87.0109246003849 74.1209553158842,83.49678224077797 74.37057010806166,77.33493545404053 76.4090909094084,64.09632168064127 77.07473035459407,63.518628291698406 87.30893682618625,65.25170634506503 76.86671802797355,63.61491057212697 75.70184899866581,68.91040585830342 76.74191063200124,69.92135732001043" stroke="#4DD2FF" stroke-linecap="round" stroke-linejoin="round" stroke-width="0.5"><title>2025-07-20 4.9km</title><desc>1753020627000</desc></polyline><polyline fill="none" points="116.55188065842958,61.5 116.34819632198196,62.88045930568478 115.59165450104047,64.8220517331938 114.95150372944772,67.73998772888444 114.77691715536639,70.04061369205738 114.17556340026204,73.88984658173285 114.03977384261088,74.01328914901387 114.10766862146556,74.56316800029163 113.47721710393671,79.10798025870463 113.44811934162863,80.61165476574388 114.31135295785498,88.48877942513354 114.21436041675042,86.94032916756987 114.32105221197708,88.5 114.87390969652915,88.38779420001083 113.94278130150633,79.60172638286167 115.42676718108123,68.76124711869488 115.7371433127555,67.7848784498783 115.77594032918569,66.47181732363242" stroke="#4DD2FF" stroke-linecap="round" stroke-linejoin="round" stroke-width="0.5"><title>2025-07-20 5.0km</title><desc>1752942252000</desc></polyline><polyline fill="none" points="146.16421898122644,61.51208190763282 145.99715616781032,61.5 145.73612052178942,62.82900247924408 146.02848044532584,63.0102289391798 146.00759759364882,63.396844464034075 145.64214768924285,65.86148888752359 145.443760598253,66.28433941477124 144.9321307321079,71.10472916430444 144.50403227261268,73.073904859717 144.54579797602491,73.65377860541776 143.80445674131624,79.19867854221957 144.8068336219876,88.5 143.877546722244,80.74492263379216 143.856663870567,78.4013885792956 144.54579797602491,73.72626262486301 144.51447369845118,73.08598559156962 145.27669778483687,68.49521911881311 145.43331917241449,66.27225799200824 145.64214768924285,65.83732595485344 146.19554325874196,61.886620435027" stroke="#4DD2FF" stroke-linecap="round" stroke-linejoin="round" stroke-width="0.5"><title>2025-07-17 5.0km</title><desc>1752765839000</desc></polyline><polyline fill="none" points="186.58445945964195,87.93025537068024 187.19256756769028,87.08586103635025 188.5,76.07336303085322 168.9493243243778,75.19375543203205 165.42229729739483,75.47523010685109 165.84797297301702,75.19375543203205 165.20945945952553,71.21790120535297 161.59121621632949,65.51792434151866 161.5,62.316044319275534 161.9256756757386,62.06974462931976 178.92229729739483,62.35122997488361 177.70608108118176,73.43453352997312 176.94594594603404,73.92711656363099 166.33445945952553,73.57527161113103 165.17905405408237,69.88087802033988 162.1993243243778,66.08088919633883 161.83445945952553,64.07532272240496 166.0608108107699,63.758653269702336 178.375,64.18087914233911 178.55743243254256,66.81977917888435 177.46283783798572,75.40486145962495 175.82094594603404,75.51041442507994" stroke="#4DD2FF" stroke-linecap="round" stroke-linejoin="round" stroke-width="0.5"><title>2025-07-15 4.1km</title><desc>1752589649000</desc></polyline><polyline fill="none" points="26.085050306632183,91.5 26.167329002870247,93.41602707033599 25.529669106996153,97.41459130247677 25.303402692370582,97.87870152412506 25.293117855326273,99.05681921314681 24.388052196707577,104.57834422936139 24.429191544884816,105.19711961026769 23.74010746384738,110.3256897681058 24.562894426228013,118.5 24.089791922830045,115.26366005757882 23.72982262680307,110.06391204116517 25.27254818129586,98.97351835169684 25.179984648013487,98.59271365915629 25.48852975887712,97.49789327252802 26.095335143676493,93.53503392902348 26.023341284424532,93.11850939458964 26.27017737319693,91.85702605386905 26.04391095857136,91.57140529784374" stroke="#4DD2FF" stroke-linecap="round" stroke-linejoin="round" stroke-width="0.5"><title>2025-07-13 5.0km</title><desc>1752418082000</desc></polyline><polyline fill="none" points="54.765518246393185,118.5 54.626960846595466,118.48766697220708 54.71222693880554,117.51335381839453 55.18119044601917,114.55336714761506 55.458305245731026,114.30669833299908 55.93792701442726,110.95195267667441 56.19372529105749,107.48610700756399 55.49028003029525,102.6633598826229 55.12789913837332,98.62986661158357 54.91473390778992,97.84042104388209 54.46708692365792,97.12498156059883 54.563011277408805,96.93995342133712 55.074607830669265,97.01396471092448 54.85078433866147,94.67025194838789 54.339187785284594,94.02880687867582 54.37116256990703,92.56087174406275 54.008781678043306,91.5493430775241 53.784958185919095,91.5493430775241 53.976806893362664,91.5 54.339187785284594,92.40050800594327 54.32852952380199,94.04114239279443 54.79749303095741,94.47288459591073 54.85078433866147,94.71959373632853 55.074607830669265,96.9769590717624 54.55235301586799,96.95228863939701 54.43511213903548,97.08797595536453 54.90407564630732,97.76641025853314 55.11724087683251,98.51885113905155 55.55422959942371,103.31709386999137 56.215041814080905,107.39976795137045 56.2043835525983,108.97852955578855 54.90407564630732,117.85868089432188" stroke="#4DD2FF" stroke-linecap="round" stroke-linejoin="round" stroke-width="0.5"><title>2025-07-12 5.1km</title><desc>1752325602000</desc></polyline><polyline fill="none" points="84.83732376794796,118.5 84.57494274852797,118.48785562253761 85.16267623199383,114.44370929338038 85.40406676987186,114.32226134106168 86.07576217950555,109.81645507521898 86.18071458727354,107.54526999294467 85.56149538146565,103.47646149610227 85.08920954656787,98.5329763629561 84.4594951000181,97.2575968792953 84.54345702618593,97.12398490729538 85.06821906502591,97.20901072494598 84.82682852714788,94.74323744091816 84.3545426922501,94.22092425169103 84.33355221070815,92.58108893202007 83.80879017192638,91.5 84.36503793299198,92.71470598570158 84.3545426922501,94.20877740618016 84.83732376794796,94.75538423210673 85.09970478736795,97.17257109619823 84.59593323006993,97.11183835697011 84.48048558161827,97.30618301384675 85.11020002810983,98.63014757489873 85.57199062226573,103.45216968598834 86.19120982801542,107.46025153128721 86.08625742030563,109.75572876309889 85.07871430576779,116.45972727240587" stroke="#4DD2FF" stroke-linecap="round" stroke-linejoin="round" stroke-width="0.5"><title>2025-07-10 5.0km</title><desc>1752149320000</desc></polyline><polyline fill="none" points="111.21354894561227,91.5 111.27678821166046,93.1830451440037 111.7352728904225,92.94522450209479 112.71548151422758,93.27451453798858 113.77473922038916,93.1830451440037 114.96047545870533,93.62209781139973 121.07887444837252,94.42702492090757 121.25278242997592,94.66484360549657 119.84570876054931,103.64684241666691 119.16588665056042,103.70172086940147 119.03940811846405,103.93952730449382 118.80226087081246,105.53099305590149 118.97616885241587,106.22611161459645 117.90110132971313,112.28084664086055 110.02781270735431,112.04305122040387 109.75904582662042,111.86013145260222 108.74721756996587,118.5 109.80647527612746,111.96988333557965 112.87357967923163,112.02475925194449 113.90121775242733,111.62233547664073 114.04350610106485,112.04305122040387 117.94853077922016,112.1710949473927 120.66781921905931,95.14048003232165 120.58877013658639,94.51849368296098 112.44671463343548,93.0915757034818" stroke="#4DD2FF" stroke-linecap="round" stroke-linejoin="round" stroke-width="0.5"><title>2025-07-08 5.1km</title><desc>1751976330000</desc></polyline><polyline fill="none" points="131.7404842817923,118.25415402713406 131.6825402948307,118.5 132.04951887985226,118.34355259449512 132.16540685400832,117.09196934434294 132.84142003708985,116.53322452242719 132.97662267368287,115.95212840189924 134.92740357317962,102.43003512376163 135.10123553453013,98.33971749727789 134.63768363767304,95.3222212989931 135.69999006809667,95.27751734030608 135.9703953412827,95.67985264111485 139.6981251790421,96.2162985636096 142.69189784664195,96.17159478676331 144.87445469456725,97.04331679685856 151.82773314823862,98.07149728978402 153.10250086477026,91.5 158.3174597051693,92.66231994012196 153.6626260735793,91.56705708669324 152.79346626682673,95.43398115586024 152.6582636302337,98.11620068043703 139.64018119184766,96.3727617112163 135.9703953412827,95.7022045807098 135.64204608101863,95.21046138522797 134.579739650595,95.38927721993241 135.0046622226946,97.17742756856023 135.0819208722096,101.04425297446141 132.89936402416788,116.01917803267133" stroke="#4DD2FF" stroke-linecap="round" stroke-linejoin="round" stroke-width="0.5"><title>2025-07-06 5.0km</title><desc>1751807521000</desc></polyline><polyline fill="none" points="165.6096013794886,116.82643208399531 166.77941321220715,108.50764349047677 162.99347673542798,108.23690888327837 161.802395596751,108.65531678503612 163.3550549382344,108.50764349047677 163.14236187783536,108.26152113279386 167.05591419071425,108.48303126599058 167.33241516945418,108.23690888327837 167.20479933312163,107.47392790745653 168.79999728663824,97.4072764031589 168.6511121444637,92.38610064782551 171.39485262474045,92.11534801613016 188.19760440313257,94.8720879327011 188.17633509717416,94.0598374686524 169.69330814073328,91.5 169.99107842554804,97.57956980200834 168.055571575067,111.26419680798426 168.5873042262392,112.1010014286876 168.09811018710025,113.0116384660796 168.20445671735797,114.9805717071722 167.4600310055539,115.15285260422388 167.11972210893873,118.5 165.39690831897315,118.30311025716946 165.50325484923087,116.85104346064327" stroke="#4DD2FF" stroke-linecap="round" stroke-linejoin="round" stroke-width="0.5"><title>2025-07-05 4.8km</title><desc>1751729502000</desc></polyline><polyline fill="none" points="29.345664489548653,148.5 29.612873632926494,148.3047179729183 29.655064550228417,147.19811532145832 30.020719167485368,145.58701837950503 30.217610115243588,145.5219232129166 30.470755619520787,143.16220555844484 24.97187272174051,142.93436890971498 25.32346369989682,141.7138099144795 25.843818347435445,136.21304193063406 25.90007290401263,132.1931304306927 25.70318195625441,131.6560495911399 25.914136543055065,128.36842457647435 25.90007290401263,121.5 18.51666236348683,124.15300461303559 18.36196233308874,124.52735141740413 18.418216889665928,124.20183250671835 22.398226761899423,122.68816087656887 22.468544957519043,126.04100565695262 22.862326853035484,126.88734372450563 25.801627430075314,126.88734372450563 25.815691069234163,131.18406797210628 26.125091129913926,131.3305451751803 26.237600242893677,131.85135192307644 31.38489216263406,132.17685528020957 31.63803766691126,133.46258707126253 31.609910388535354,135.80617288773647 29.837891858944204,147.89787965167488" stroke="#4DD2FF" stroke-linecap="round" stroke-linejoin="round" stroke-width="0.5"><title>2025-07-03 5.2km</title><desc>1751545471000</desc></polyline><polyline fill="none" points="54.52686310466379,148.5 55.16822645161301,144.54589664766536 55.43108028237475,144.36339641709492 56.10398608905962,139.37494904701452 56.15655685518868,137.64719441740453 55.010514153167605,128.4726428541544 54.4532640320831,127.31664813787938 54.56891971756704,127.15845851862105 55.04205661290325,127.24363757034735 54.82125939504476,124.88293854891526 54.30606588686351,124.22582847361628 54.31658004008932,122.72906427567796 53.82241483835969,121.5 54.35863665299257,122.83858424209757 54.30606588686351,124.25016594817134 54.77920278214151,124.71257702404546 54.8528018547222,125.08980578878982 55.04205661290325,127.23146913808887 54.52686310466379,127.19496383392107 54.4532640320831,127.35315340491798 55.021028306451626,128.4726428541544 55.56776427431032,133.68056478968356 56.1775851615821,137.6106922900508 55.99884455668507,140.33615385473968 54.84228770149639,148.08634607310523" stroke="#4DD2FF" stroke-linecap="round" stroke-linejoin="round" stroke-width="0.5"><title>2025-07-01 5.0km</title><desc>1751376396000</desc></polyline><polyline fill="none" points="84.05114498367766,148.5 84.24611519253813,148.25935323357407 84.20712115080096,147.3719649011182 84.51907348487293,147.07115408949903 84.74003972153878,145.8979860827676 85.07798808347434,141.7617426396173 85.5459165846114,140.1523366782203 86.06583714153385,135.9256825432094 85.93585700233234,133.50395086301432 85.20796822267585,129.18685260904022 84.7140436937334,123.9520139771339 83.93416285846615,122.01146639265062 84.62305759621086,122.14685425945208 84.64905362407444,121.5 84.64905362407444,122.11676807749609 84.05114498367766,121.99642328869959 83.94716087233974,122.14685425945208 84.44108540134039,122.88396380489576 84.74003972153878,123.92192816233728 85.2859563062666,129.75846170312434 86.06583714153385,134.94796955458878 86.00084707187489,137.36967760315747 84.36309731780784,147.98862515375367" stroke="#4DD2FF" stroke-linecap="round" stroke-linejoin="round" stroke-width="0.5"><title>2025-06-30 4.1km</title><desc>1751292736000</desc></polyline><polyline fill="none" points="101.80313588847639,136.66440344061994 101.5,134.4734598604191 101.60452961671399,134.24346896374482 109.73693379794713,133.85611486788548 111.03310104529373,133.97716315856815 113.14459930313751,133.77138099104195 116.31184668990318,133.80769551710546 128.5,133.03298321942566 124.86236933799228,133.28718624914472 124.01567944255657,133.56559846693563 122.4477351916139,133.4929692556325 114.51393728225958,133.90453419898404 107.13414634147193,134.03768725762347 106.91463414632017,134.23136416738998 107.42682926828275,136.96701678057434 107.18641114985803,136.94280774176877 106.89372822298901,135.51446571711858" stroke="#4DD2FF" stroke-linecap="round" stroke-linejoin="round" stroke-width="0.5"><title>2025-06-26 5.0km</title><desc>1750950176000</desc></polyline><polyline fill="none" points="158.5,136.10503620783857 158.06404736277182,133.89496379215416 146.4483315392863,134.96074029371084 145.20828848227393,134.971958938826 140.73250807315344,134.41102528154443 131.5,134.80367914179078 140.42249730892945,134.3998065792257 145.2179763186141,134.9831775828352 153.48170075350208,134.23152590745303" stroke="#4DD2FF" stroke-linecap="round" stroke-linejoin="round" stroke-width="0.5"><title>2025-06-24 5.0km</title><desc>1750769966000</desc></polyline><polyline fill="none" points="188.5,136.08125815037783 188.130403458199,133.9187418496149 176.6340057636844,135.01126839474455 175.233429394837,135.05632080390933 170.7010086455266,134.47063805232028 161.5,134.8761110570922 170.4578530259314,134.47063805232028 175.2237031700206,135.05632080390933 184.959654178645,134.18905870145682" stroke="#4DD2FF" stroke-linecap="round" stroke-linejoin="round" stroke-width="0.5"><title>2025-06-22 5.0km</title><desc>1750563938000</desc></polyline><polyline fill="none" points="25.922690609033452,178.5 24.527243327524047,170.1631483968813 24.507680982438615,167.8899853021794 24.63157583452994,166.9384079419906 24.55332645427552,164.4914385842203 24.579409581026994,164.06849741340557 24.722866778174648,163.82681565982057 24.579409581026994,163.71352706628386 24.572888799302746,162.16523225016135 22.988338848837884,152.63306504517823 22.59057116578333,151.5 22.994859630503925,152.48954443218827 24.55332645427552,162.00662461162574 24.638096616225084,166.64386961449054 24.527243327524047,167.89753745454072 24.5207225457998,170.08762914865656 25.590130742872134,176.4913878494408 25.740108721714932,176.92936055468454 27.409428834187565,176.8387457246572" stroke="#4DD2FF" stroke-linecap="round" stroke-linejoin="round" stroke-width="0.5"><title>2025-06-21 8.0km</title><desc>1750517001000</desc></polyline><polyline fill="none" points="57.73922796652187,178.5 55.452105586766265,164.43581285400433 51.42747938341927,164.35368332975486 44.176060365047306,163.65558102146315 44.31789741187822,162.91641123416775 44.03422331821639,161.49966155918082 44.4242751969723,152.23921169007372 44.37108630430885,151.58213476624223 44.01649368740618,151.5 43.57325291610323,162.89587870138348 44.24697888852097,162.97800882003503 44.28243815014139,163.67611347688944 55.50529447931331,164.41528047611064 56.870476054842584,173.20294697614736 57.29598719533533,174.3732381197624 66.42674708389677,174.0857988196658" stroke="#4DD2FF" stroke-linecap="round" stroke-linejoin="round" stroke-width="0.5"><title>2025-06-19 5.0km</title><desc>1750345525000</desc></polyline><polyline fill="none" points="98.5,165.6759281525956 98.25217391308979,164.20323694503895 90.60869565219036,164.92825781260763 89.62391304346966,164.95091460038384 86.35000000000582,164.5733005658767 74.2195652173832,165.12461641010304 73.16956521739485,165.29831781263056 71.5,165.79676305496105 73.85434782606899,165.1623776191991 78.11956521740649,164.973571381277" stroke="#4DD2FF" stroke-linecap="round" stroke-linejoin="round" stroke-width="0.5"><title>2025-06-17 5.1km</title><desc>1750166247000</desc></polyline><polyline fill="none" points="102.43103448266629,175.1887884356256 101.5,169.20505966164637 122.54137931042351,168.5851160576858 119.11982758634258,155.08076648047427 123.262931034551,155.32336567013408 128.5,154.8112115643744 120.23706896556541,155.2964102156111 123.28620689664967,167.4530413786124 114.25517241389025,167.88430849451106" stroke="#4DD2FF" stroke-linecap="round" stroke-linejoin="round" stroke-width="0.5"><title>2025-06-16 3.2km</title><desc>1750084948000</desc></polyline><polyline fill="none" points="158.5,166.24813276056375 158.08629032265162,163.75186723943625 144.81491935480153,164.97479149090213 143.61733870970784,164.9873988944746 138.36975806450937,164.34441967524617 131.5,164.6722134202937 138.15201612905366,164.3318122061537 143.60645161295542,164.96218408609275 154.86370967747644,164.0166250615439" stroke="#4DD2FF" stroke-linecap="round" stroke-linejoin="round" stroke-width="0.5"><title>2025-06-15 4.6km</title><desc>1749956754000</desc></polyline><polyline fill="none" points="188.5,166.08587058149715 188.1713211600436,163.91412941849558 176.6095596133964,164.97761628103763 175.40118152525974,165.0000053674812 170.31632653065026,164.42908223781706 161.5,164.83208710800682 170.49033297528513,164.42908223781706 175.32384532765718,165.0000053674812 177.84693877556128,164.876865335631 178.32062298600795,164.72014145906724 184.4495166487759,164.17160612992302" stroke="#4DD2FF" stroke-linecap="round" stroke-linejoin="round" stroke-width="0.5"><title>2025-06-14 5.1km</title><desc>1749906363000</desc></polyline><polyline fill="none" points="38.5,196.6031278822411 38.17538896744372,194.4140393822163 26.985855728387833,195.49753315105045 25.477369165455457,195.5085891541603 20.894625176792033,194.95578761938668 12.263790664786939,195.36486102611525 12.149222065054346,195.1105723330984 12.196958981628995,193.40792833494925 11.5,193.39687211776618 12.225601131562144,193.4300407659539 12.149222065054346,195.09951628942508 12.292432814720087,195.36486102611525 21.133309759548865,194.9447315599682 25.68741159827914,195.51964515614236 34.757425742573105,194.70149796747137 34.74787835928146,194.2592536746306 37.659830268705264,194.1044677462196" stroke="#4DD2FF" stroke-linecap="round" stroke-linejoin="round" stroke-width="0.5"><title>2025-06-12 5.9km</title><desc>1749735885000</desc></polyline><polyline fill="none" points="68.5,203.49395450744487 67.63929313933477,199.16043322924816 43.988565488602035,201.26220208083396 41.761954261921346,195.17351563402917 41.5,187.56782958049735 45.915800415794365,187.37280841091706 49.67671517666895,187.61116759384458 49.88253638264723,186.9177583195269 49.4896049896488,186.7660747392365 41.612266112235375,186.50604549255513 41.780665280646645,194.95683318760712 42.435550935566425,197.42699998401804 43.72661122656427,200.50383427276392 54.204781704815105,199.59378933210974 54.410602910560556,200.41716349385388 67.58316008327529,199.13876540087222 68.38773388788104,203.42895234079333" stroke="#4DD2FF" stroke-linecap="round" stroke-linejoin="round" stroke-width="0.5"><title>2025-06-10 5.3km</title><desc>1749559786000</desc></polyline><polyline fill="none" points="72.20892723184079,187.81136312570015 71.56076519133057,185.1843418331846 71.5,183.14368852811458 89.87134283571504,182.6745702677872 90.70180045010056,185.74727749169688 90.09414853714406,185.72382186680625 89.91185296326876,186.14602274999197 90.29669917479623,188.32738164174953 90.19542385591194,189.80506462824997 90.86384096019901,192.76040213982924 92.58552138041705,192.69003740198968 95.13765941490419,202.5174374926719 95.17816954245791,202.96306144281698 94.53000750183128,203.15069232168025 95.11740435112733,202.98651531108771 95.31995498866308,203.36177687748568 94.79332333081402,203.45559217360278 94.97561890468933,204.32338184933178 96.19092273060232,207.4192534990143 97.04163540888112,207.3254398182762 98.5,206.52802198873542 96.96061515377369,206.85637084134214 94.22618154541124,195.95024766400456 93.90210052521434,195.01206239295425 93.17291822959669,195.01206239295425 92.62603150785435,192.6196726425842 92.03863465867471,192.85422175684653 90.84358589653857,192.69003740198968 90.1751687922515,189.99270623335906 90.03338334581349,186.5213117737876 88.91935483866837,182.5807465009857 71.56076519133057,183.1906003015465 72.2899474868318,187.95209556295595" stroke="#4DD2FF" stroke-linecap="round" stroke-linejoin="round" stroke-width="0.5"><title>2025-06-08 5.0km</title><desc>1749355299000</desc></polyline><polyline fill="none" points="128.5,196.11104457739566 128.02512562810443,193.88895542260434 119.3223259152146,194.61843407912238 116.7056712131598,194.988782932116 115.25197415647563,194.988782932116 110.64860014355509,194.4276478202446 101.5,194.83166538903606 110.21249102655565,194.4276478202446 115.20351758797187,195.00000560516492 125.69921033742139,194.05729707995488" stroke="#4DD2FF" stroke-linecap="round" stroke-linejoin="round" stroke-width="0.5"><title>2025-06-07 5.3km</title><desc>1749293029000</desc></polyline><polyline fill="none" points="158.5,196.06960941148282 158.1013683832134,193.9303905885099 145.78267915017204,195.05630039593234 140.78519985597814,194.48208782799338 131.5,194.86489653825993 140.7463089664816,194.45956962725177 145.18959308607737,195.05630039593234 154.70813827874372,194.18935086035344" stroke="#4DD2FF" stroke-linecap="round" stroke-linejoin="round" stroke-width="0.5"><title>2025-06-05 5.1km</title><desc>1749128617000</desc></polyline><polyline fill="none" points="161.8779527558945,194.8291006013751 161.5,192.3535048525082 161.64173228346044,192.24408520200814 172.23622047243407,191.87479322293075 174.23228346457472,199.19205598090775 184.69685039372416,199.05528837315796 188.5,198.8227831201075 185.37007874023402,198.93219740698987 184.7913385826978,190.80794401909225 174.77559055120219,191.39607988562784 172.62598425202304,191.32769212657877 172.8149606299121,191.87479322293075 167.26377952756593,192.03892311688105" stroke="#4DD2FF" stroke-linecap="round" stroke-linejoin="round" stroke-width="0.5"><title>2025-06-03 5.2km</title><desc>1748952979000</desc></polyline><polyline fill="none" points="33.82812387138256,216.95102627472806 33.23583360738121,216.07437200300046 32.81598228102666,215.15430930953153 32.54607785696862,214.9025923143563 31.87881414181902,214.84183292830858 31.36899467409239,214.25159663868544 31.136576975579374,213.479075319985 30.791699100343976,212.9495903725183 30.379345119086793,211.5 29.187267246015836,212.0121335466174 28.632463707588613,212.07289494965516 27.192973445751704,212.6110654857912 26.578191146429162,213.4009547968526 26.578191146429162,213.60059599143278 24.089072568691336,216.76875236649357 24.074077878438402,216.95102627472806 23.391819473094074,217.88842879005097 22.79952920912183,218.43524216420337 22.69456637755502,218.3397670659033 22.274715051142266,218.7043077751805 21.997313281928655,218.53939669500687 21.989815936860396,218.695628252608 21.952329211257165,218.46996035530174 22.342191157164052,218.7477053748662 22.282212396268733,219.06016744037333 21.382530982635217,220.05830247803533 19.845575234328862,220.40547714347485 19.845575234328862,220.24924871899566 19.74061240273295,220.44019453226792 19.3207610763493,220.53566727857833 18.953391165763605,220.43151518639206 18.338608866470167,220.48359124838316 18.23364603484515,220.38811844377778 17.986233646108303,220.52698794243042 17.243996479868656,220.26660744694527 17.146530993370106,219.1296032993996 16.861631879059132,218.8778980413117 15.459628342825454,219.2337569819574 14.93481418484589,219.55489670216775 15.534601793944603,222.15000843884627 16.47926727824961,225.0488024101578 18.473561078484636,232.8420772903337 18.750962847698247,233.64913522416464 21.105129213421606,238.4132248777314 21.40502301795641,238.5 22.439656643691706,238.17025406586617 23.144407084357226,238.37851480412792 24.433950443926733,238.10951125479914 24.411458408547333,237.5975344143153 24.75633628378273,237.50208076529088 25.37861592823174,237.7884413920401 25.85094867038424,237.56282400886266 26.045879643352237,237.84918443171773 27.26044955177349,238.11818880186183 27.97269733759458,237.98802550288383 28.692442468483932,237.45001509351277 28.81989733543014,236.4347281429291 29.359706183633534,235.68844114096282 29.217256626463495,234.94214761032345 29.389695564081194,234.57767630389571 29.0223256534955,234.1698137098865 28.789907955011586,233.56235516754532 28.6999398136104,232.65983734526526 29.187267246015836,232.2693218661734 29.929504412255483,232.5730562821991 30.341858393512666,232.5470219460476 30.44682122510858,231.98294271186023 30.27438228749088,231.28868622577284 30.13193273032084,231.22793851438473 30.27438228749088,231.15851250554988 30.10944069499965,231.10644296182727 30.244392907014117,231.18454726548953 30.25938759726705,230.77666844679334 30.064456624299055,230.32539599156007 29.179769900860265,230.26464759409282 28.767415919632185,229.95222658084094 28.93985485722078,228.77195909165312 29.64460529794451,227.5656394122998 30.184414146118797,226.96681251468544 30.431826534855645,226.88002565894567 30.964138037961675,226.14233381917438 31.901306177169317,225.2484163326153 32.73351148478105,224.20694724864734 32.49359644114156,223.7209239898366 31.751359274901915,223.71224497790536 31.653893788403366,223.42583708835446 31.93879290271434,222.74019005086302 32.26867608772591,222.42774147097953 32.57606723741628,222.47113717553293 32.703522104304284,222.3149125357886 32.44111502537271,221.71604876507627 32.79349024567637,220.97831225095433 33.12337343071704,220.78736764272617 33.40077519993065,220.90019859925815 33.36328847432742,220.69189517828636 34.19549378196825,220.3100042514052 34.2704672330874,220.0756612448895 34.99770970913232,219.63301158633112 35.06518581515411,218.9994110173211 34.11302298569353,217.18537786986417 33.96307608339703,217.11594042734941" stroke="#4DD2FF" stroke-linecap="round" stroke-linejoin="round" stroke-width="0.5"><title>2025-06-02 11.5km</title><desc>1748829019000</desc></polyline><polyline fill="none" points="68.5,226.26263021256455 68.00541215651901,223.73736978744273 53.74104912573239,225.06509025622654 47.828476269729435,224.3882148791963 41.5,224.66156882866198 47.90716069936752,224.3621811392004 53.08909242291702,225.0390566542119 67.98293089086656,223.7503867218038 68.48875936720287,226.18453012289683" stroke="#4DD2FF" stroke-linecap="round" stroke-linejoin="round" stroke-width="0.5"><title>2025-06-01 4.9km</title><desc>1748740054000</desc></polyline><polyline fill="none" points="98.5,238.0111600077944 98.40223295113537,238.218719774668 98.20669885334792,238.06776724004885 97.55491852742853,234.44486948511621 76.95866022934206,236.23745796419098 75.05220277613262,230.8973800696549 74.9707302353927,224.17960747845063 74.51448400726076,221.65094452886842 71.5,211.78128022531746 73.48792999394936,218.38627634763543 74.02564876287943,219.40531190379988 74.90555220283568,223.19833939056844 75.78545564279193,223.44365690021368 74.87296318652807,223.4247863341152 75.05220277613262,230.2746754460095 75.67139408568619,232.82209020935989 76.7468316234299,235.48268598319555 77.02383826189907,235.65250994720554 85.85546167771099,234.7467803391337 86.09987929993076,235.46381664427463 93.12281231139787,234.78451916128688" stroke="#4DD2FF" stroke-linecap="round" stroke-linejoin="round" stroke-width="0.5"><title>2025-05-31 5.5km</title><desc>1748696141000</desc></polyline><polyline fill="none" points="126.60649350646418,232.45134619038436 125.99285714281723,228.4922928003798 103.77922077919357,230.48198074942047 101.72792207787279,224.63467791416042 101.5,217.58926211578364 109.03896103880834,217.67047870339593 101.60519480518997,217.54865380961564 101.74545454536565,224.53316072409507 102.28896103892475,226.70561729859037 103.65649350639433,229.83228891035833 123.32792207784951,227.94410997556406 125.08116883109324,227.84259447203658 125.16883116879035,228.59380797277845 128.5,228.32986841695674" stroke="#4DD2FF" stroke-linecap="round" stroke-linejoin="round" stroke-width="0.5"><title>2025-05-29 5.0km</title><desc>1748526381000</desc></polyline><polyline fill="none" points="147.86687797133345,222.34929061686853 147.26782884297427,217.44378960411996 157.40887480182573,216.9482789465983 158.5,220.937111078194 157.32329635485075,217.04738115885993 147.2250396196032,217.51811611559242 147.50316957198083,219.97087824605114 147.1180665610591,217.54289161435736 132.69809825660195,218.88076479898882 134.85895404114854,229.7073565380706 135.69334389851429,232.23431770293973 135.13708399352618,232.58115346009436 136.01426307437941,234.90989501531294 134.83755942934658,231.83793337465613 131.92789223440923,218.93031551635067 136.97702060220763,218.211829127089 146.1125198097434,217.64199358428596 146.0055467511993,216.92350338718097 132.59112519805785,217.8401974028675 131.84231378755067,215.0901049847016 131.5,215.38741377313272 131.67115689371713,218.03840105980635 141.79080824076664,217.04738115885993" stroke="#4DD2FF" stroke-linecap="round" stroke-linejoin="round" stroke-width="0.5"><title>2025-05-27 6.0km</title><desc>1748352132000</desc></polyline><polyline fill="none" points="184.90205011388753,227.0120401615859 185.0096810934192,226.94081911250396 184.6637243735895,225.21369089363725 175.56890660591307,226.08616199400421 174.51566059229663,226.1039674359272 170.72551252850099,225.65883029899123 161.6691343963612,226.059453824324 161.5,223.10369925123814 162.57630979499663,222.9879598384141 164.06007972668158,223.09479622493382 164.0677676537598,225.65883029899123 170.94846241458436,225.382844134896 175.13069476082455,225.7923716782534 184.64834851937485,224.8486748884825 188.33855353077524,224.71513206644886 188.5,225.00892600539373 188.39236902049743,225.04453732479305 184.98661731209722,225.18698245715495" stroke="#4DD2FF" stroke-linecap="round" stroke-linejoin="round" stroke-width="0.5"><title>2025-05-25 7.6km</title><desc>1748179850000</desc></polyline><polyline fill="none" points="38.48230668413453,256.4905894966141 38.41153342067264,255.90665418278513 38.06651376141235,255.90665418278513 37.84534731321037,254.8104857486178 37.668414154613856,254.5646145519131 29.131389252957888,255.29198176666978 27.733617300109472,255.5480957301843 22.124836172966752,255.02562255236262 11.650393184798304,255.49687298970093 11.5,253.7143053600521 14.10091743117664,253.5094105033786 14.083224115311168,255.0051333528172 14.428243774571456,255.04611174775346 21.779816513764672,254.7285287499035 27.105504587118048,255.18953599854285 38.16382699867245,254.12409382039914 38.5,256.3779004896787" stroke="#4DD2FF" stroke-linecap="round" stroke-linejoin="round" stroke-width="0.5"><title>2025-05-24 6.6km</title><desc>1748094255000</desc></polyline><polyline fill="none" points="68.5,256.2030372157751 68.20628525386564,253.79696278423216 57.0886381950113,254.74176199414796 55.54391619662056,255.0063044787239 53.78162771958159,255.03149897148978 48.70145044318633,254.41423241922166 41.5,254.703970164388 48.66881547140656,254.40163511056016 53.71635777596384,255.04409621599916 65.23650282033486,254.07410463433916" stroke="#4DD2FF" stroke-linecap="round" stroke-linejoin="round" stroke-width="0.5"><title>2025-05-18 4.7km</title><desc>1747565909000</desc></polyline><polyline fill="none" points="94.99069567702827,255.96672524152382 94.69696535929688,254.2391534551498 86.86673346691532,254.90154250922205 85.56040652733645,255.13427261247125 84.50916117947781,255.12532146604644 80.93028914972092,254.6598605953768 71.55410821642727,255.08951687128865 71.5,254.8209819451513 76.77941597480094,254.4808365267163 80.35828800458694,254.41817801647267 84.54008016031003,255.08951687128865 94.79745204694336,254.17649477245868 98.25264815342962,254.0332747584689 98.39178356711636,254.05117727299512 98.41497280274052,254.17649477245868 98.5,254.12278729458922" stroke="#4DD2FF" stroke-linecap="round" stroke-linejoin="round" stroke-width="0.5"><title>2025-05-17 5.7km</title><desc>1747487200000</desc></polyline><polyline fill="none" points="127.02453131228685,253.883791242617 123.44894295971608,254.07086714363686 121.70422816107748,254.38265967639018 113.69146390102105,254.99377073609503 108.67271639406681,254.3452446144147 101.5,254.6320931306036 108.57578779413598,254.37018799035286 113.49760670121759,254.98129911229626 127.79996011161711,253.73413031590462 128.27383326686686,256.15362619120424 128.5,256.2658696840954" stroke="#4DD2FF" stroke-linecap="round" stroke-linejoin="round" stroke-width="0.5"><title>2025-05-11 5.0km</title><desc>1746965499000</desc></polyline><polyline fill="none" points="158.5,255.9700661204988 158.06420373020228,254.0299338795012 145.8134863700834,255.14018715215934 140.83572453365196,254.56823989559052 131.5,254.9607530387293 140.60329985647695,254.5794545762401 145.25179340026807,255.14018715215934 158.14167862263275,254.05236334940855" stroke="#4DD2FF" stroke-linecap="round" stroke-linejoin="round" stroke-width="0.5"><title>2025-05-10 5.3km</title><desc>1746870058000</desc></polyline><polyline fill="none" points="188.44104803493246,254.5448839132514 188.37227074237308,254.35145821388141 188.5,254.49937201412104 187.97925764194224,254.5903957937844 175.94323144108057,255.6485417861113 170.84388646291336,255.0455135788361 161.5,255.43236223729036 170.79475982533768,255.0455135788361 173.18231441045646,255.2389380756431 175.3537117904052,255.6371639255376 185.20851528388448,254.7496872296324" stroke="#4DD2FF" stroke-linecap="round" stroke-linejoin="round" stroke-width="0.5"><title>2025-05-05 5.4km</title><desc>1746434825000</desc></polyline></svg>