<?xml version="1.0" encoding="utf-8" ?>
<svg baseProfile="full" height="300mm" version="1.1" viewBox="0,0,200,300" width="200mm" xmlns="http://www.w3.org/2000/svg" xmlns:ev="http://www.w3.org/2001/xml-events" xmlns:xlink="http://www.w3.org/1999/xlink"><defs /><rect fill="#222222" height="300" width="200" x="0" y="0" /><text fill="#FFFFFF" style="font-size:12px; font-family:Arial; font-weight:bold;" x="10" y="20">Over 3km Runs</text><text fill="#FFFFFF" style="font-size:4px; font-family:Arial" x="10" y="280">Runner</text><text fill="#FFFFFF" style="font-size:9px; font-family:Arial" x="10" y="290">tang-hi</text><text fill="#FFFFFF" style="font-size:4px; font-family:Arial" x="65" y="280">SPECIAL TRACKS</text><rect fill="yellow" height="2.6" width="2.6" x="65" y="283" /><text fill="#FFFFFF" style="font-size:3px; font-family:Arial" x="70" y="285.5">Over 20.0 km</text><rect fill="red" height="2.6" width="2.6" x="65" y="287" /><text fill="#FFFFFF" style="font-size:3px; font-family:Arial" x="70" y="289.5">Over 40.0 km</text><text fill="#FFFFFF" style="font-size:4px; font-family:Arial" x="120" y="280">STATISTICS</text><text fill="#FFFFFF" style="font-size:3px; font-family:Arial" x="120" y="285">Number: 71</text><text fill="#FFFFFF" style="font-size:3px; font-family:Arial" x="120" y="290">Weekly: 3.7</text><text fill="#FFFFFF" style="font-size:3px; font-family:Arial" x="141" y="285">Total: 374.2 km</text><text fill="#FFFFFF" style="font-size:3px; font-family:Arial" x="141" y="290">Avg: 5.3 km</text><text fill="#FFFFFF" style="font-size:3px; font-family:Arial" x="167" y="285">Min: 3.2 km</text><text fill="#FFFFFF" style="font-size:3px; font-family:Arial" x="167" y="290">Max: 11.5 km</text><polyline fill="none" points="22.09828871159698,31.125 21.91703043988673,31.208895909730927 21.895279447286157,31.745827713326435 22.025785402947804,31.89683915396745 21.975033086840995,32.71900770774664 21.547263565618778,35.59653317951597 21.402256948233116,35.84820702356228 21.242749669152545,38.04612599574466 20.75697750094696,40.579532545372786 20.793229155271547,41.032517579624255 20.29295632537105,44.907954659742245 20.9744874270109,51.375 21.373255624785088,51.29112457171868 20.669973530515563,44.597590855402814 21.083242390013766,41.55260844410077 21.286251654324587,40.81441398437164 21.685019852098776,37.34145605500089 21.895279447286157,36.07471282740153 22.01853507204214,35.881763478137145 21.967782755935332,35.453917660765 22.20704367462895,33.85157343174069" stroke="#4DD2FF" stroke-linecap="round" stroke-linejoin="round" stroke-width="0.5"><title>2025-09-14 5.0km</title><desc>1757842188000</desc></polyline><polyline fill="none" points="44.30331754492363,31.125 44.42708594314172,32.22017639342812 43.932012350298464,35.53931495195138 43.72087802391616,36.28905120570562 43.779121976025635,36.600737316366576 43.40781678140047,39.38901229827752 43.138438502908684,40.56831489592878 43.174840973020764,41.01476078923588 42.67248688614927,44.74628059120005 42.92002368255635,47.980690157237404 43.34957282929099,51.375 43.779121976025635,51.28235318775114 43.0365115867462,44.78839610947034 44.82751311385073,32.43078557986155" stroke="#4DD2FF" stroke-linecap="round" stroke-linejoin="round" stroke-width="0.5"><title>2025-09-13 5.1km</title><desc>1757760467000</desc></polyline><polyline fill="none" points="67.02013024414191,31.125 66.9838033458218,32.71390890052862 66.5769420847646,35.49652769889508 66.41710373217938,35.832789494372264 66.23546924063703,37.841925249871565 65.76321956259198,40.607559537980705 65.80681184056448,40.943800566659775 65.29823526425753,44.54989971652685 65.31276602356229,45.482920766749885 65.95938481349731,51.375 66.38804221356986,51.31616533287888 66.09742702706717,48.105410100804875 65.69783114566235,45.74349233455723 65.66876962699462,44.78525736965821 66.83849575259956,36.32877314853977 67.01286486448953,35.84960254827456 66.95474182721227,35.6310325810482 67.20176473571337,33.907672233035555" stroke="#4DD2FF" stroke-linecap="round" stroke-linejoin="round" stroke-width="0.5"><title>2025-09-11 5.0km</title><desc>1757592265000</desc></polyline><polyline fill="none" points="88.34498562806402,51.29309911203018 88.50227276279475,51.2111981491762 88.52586583301309,50.61968897128099 88.70674603799125,50.49228648313874 88.8168470323144,49.846171074292215 89.06064209114993,47.543778263287095 89.5482322088792,44.80449072959891 89.61114706276567,42.91151217214065 88.78538960532751,36.33128013250098 88.33712127129547,35.48482513192721 88.41576483866083,35.33919765814062 88.8011183188064,35.36650282752089 88.62810247056768,33.64626088835212 88.24274899042211,33.14565517168376 88.29779948762734,32.23545578595076 87.88885293726344,31.125 88.2899351308588,32.11712918592093 88.25061334719067,33.19116489798762 88.62810247056768,33.60985329427058 88.79325396209606,35.39380798858474 88.40790048195049,35.33919765814062 88.33712127129547,35.45751999865024 88.60450940034934,35.81248608169699 88.82471138902474,36.48600760064437 89.16287872876273,40.10837425507634 89.61114706276567,43.03892544667178 89.5482322088792,44.91369980993477 88.60450940034934,51.320399416363216 88.43149355216883,51.375" stroke="#4DD2FF" stroke-linecap="round" stroke-linejoin="round" stroke-width="0.5"><title>2025-09-09 5.2km</title><desc>1757417515000</desc></polyline><polyline fill="none" points="111.95837379756267,31.125 111.90025081930798,31.76392999869131 112.06735438181204,31.805964694038266 111.96563916985178,32.840011475331266 111.580574438849,35.404055467231956 111.39167475947761,35.91685473152029 111.15191747416975,38.51442841629614 110.73052588175051,40.65799578183214 110.76685274316696,41.10351457922661 110.28007280020392,44.54989971873147 110.2655420556548,45.57538174155343 110.54889157469734,48.206273417396005 110.93395630567102,51.32457028789213 111.35534789809026,51.375 111.34081715351203,51.047206322349666 111.56604369429988,50.83708148743608 111.56604369429988,50.719411346937704 111.21730582468444,50.467260482750135 110.6578721588885,44.76844613310095 111.76220874596038,36.79953454700444 112.00196603129734,35.96729383175989 111.92931230846443,35.64784567767492 112.2344579443452,33.43689438502042" stroke="#4DD2FF" stroke-linecap="round" stroke-linejoin="round" stroke-width="0.5"><title>2025-09-07 5.0km</title><desc>1757247375000</desc></polyline><polyline fill="none" points="133.21637251848006,51.31048738097161 133.39955807186197,51.375 133.44734560747747,50.72987174498121 133.678318696504,50.37965734197496 134.44291926699225,45.26452969904494 134.58628187398426,43.31056694576546 133.7181416428648,36.20405488889082 133.25619546489906,35.328376073121035 133.33584135762067,35.20854568246432 133.7181416428648,35.27306975865213 133.55088526807958,33.47559616928629 133.17654957211926,32.9870459051308 133.21637251848006,32.06524578265817 132.91371812598663,31.125 133.21637251848006,31.97306525480235 133.18451416140306,32.97782795030071 133.55884985736338,33.42028872438095 133.7420354107162,35.25463431298704 133.31991217911127,35.180892492884595 133.28008923269226,35.30994063871913 133.57477903587278,35.752390029687376 133.7659291785385,36.425277672366065 134.05265439246432,39.54999182513711 134.57831728472956,43.126228663481015 134.57831728472956,44.22303592451499 134.02876062467112,48.14931283444457 133.6305311608594,50.656142509345955 133.44734560747747,50.91419457180018" stroke="#4DD2FF" stroke-linecap="round" stroke-linejoin="round" stroke-width="0.5"><title>2025-09-04 5.0km</title><desc>1756985562000</desc></polyline><polyline fill="none" points="156.84849425515858,31.1756733784714 156.9360787802434,31.125 156.98716975326533,31.24323783502041 156.9579749115801,31.74996950858622 157.03826072625816,31.74996950858622 156.97987104285858,32.66207873599342 156.5857406797295,35.229443566378905 156.3229871043004,36.259745314426254 156.3594806564215,36.66510643628135 155.7317915595777,40.53282774012041 155.768285111757,40.88750059997983 155.27197280258406,44.383480694683385 155.31576506517013,46.09763945348823 155.9142593202996,51.36655649058957 156.25729871043586,51.375 156.33028581470717,51.273677830409724 155.98724642460002,48.28461829658772 156.07483094974305,48.090410146993236 155.8412722160283,46.99270338405768 155.62960961359204,44.67902782922465 156.03103868715698,41.52928573873214 156.24270128959324,40.72705354126083 156.63683165272232,37.22247475144104 156.85579296553624,35.947278100611584 156.97987104285858,35.778376414920785 156.90688393855817,35.55035859490454 157.22802719741594,33.160356401298486" stroke="#4DD2FF" stroke-linecap="round" stroke-linejoin="round" stroke-width="0.5"><title>2025-09-02 5.1km</title><desc>1756811867000</desc></polyline><polyline fill="none" points="179.3378187759372,31.125 179.30842783715343,32.61288716836134 178.91899789805757,35.32502485652367 178.67652265296783,36.2517226021082 178.68387038767105,36.974369686351565 178.08870387700154,40.5960128424631 177.6257965909317,44.685050689047785 177.65518752968637,45.92617443023482 178.23565857100766,50.67797813067591 178.80878187753842,51.375 178.67652265296783,51.306998121828656 178.573654367181,50.499471596762305 178.35322232617182,48.391365648581996 178.41200420376845,48.17885202324396 178.0225742647017,45.68815212507616 178.00787879529526,44.48952951793035 179.19086408196017,36.12419599833083 179.35251424537273,35.784124104822695 179.44068706175312,34.31329725190881 179.87420340903918,31.966722276665678" stroke="#4DD2FF" stroke-linecap="round" stroke-linejoin="round" stroke-width="0.5"><title>2025-08-31 5.1km</title><desc>1756640573000</desc></polyline><polyline fill="none" points="21.901603684702422,58.3125 21.967128077551024,59.946834842994576 21.51573781555635,62.768935147287266 21.36284756549867,63.02165586187766 21.290042684500804,63.527094980432594 21.224518291652203,64.81595078857936 20.81681095820386,67.60419121761515 20.70760363675072,67.78950901143253 20.751286565326154,68.1938373060475 20.256213374756044,71.66424076968542 20.285335327120265,73.09616104778252 20.8604938868084,78.09084242413519 21.41381098216516,78.5625 21.297323172620963,78.37720627211093 21.01338413686608,75.1513446018871 20.656640220084228,73.00350813071418 20.656640220084228,71.41154638989974 21.217237803561147,68.00852041568578 21.632225625100546,64.45372536304785 21.967128077551024,63.06377590608463 21.916164660884533,62.74366303347779 22.243786625214852,60.30065566986741" stroke="#4DD2FF" stroke-linecap="round" stroke-linejoin="round" stroke-width="0.5"><title>2025-08-30 5.0km</title><desc>1756550382000</desc></polyline><polyline fill="none" points="43.34068585943896,78.55339171688684 43.61618576172623,78.5625 44.49778544920264,72.43241616037994 44.623728261649376,70.3828889592478 44.10421416015015,66.72095033001096 43.88381423827377,63.95162372528284 43.750000000029104,63.34126720536733 43.348557285178686,62.7126867416664 43.403657265676884,62.56692832308909 43.812971406267025,62.63069766038825 43.61618576172623,60.78136844925757 43.25410017580725,60.40785397472064 43.27771445317194,59.30552168914437 42.876271738350624,58.3125 43.28558587896987,59.35107287871506 43.2383573242696,60.36230332249397 43.61618576172623,60.808698715532955 43.79722855470027,62.61247785436717 43.403657265676884,62.5760382311928 43.348557285178686,62.69446695231454 43.67915716799325,63.21372949689248 43.8916856640717,64.0882701377268 44.119957011716906,66.95779665847658 44.623728261649376,70.25536127323721 44.52927115233615,72.18647537109064 43.72638572266442,77.69720897244406" stroke="#4DD2FF" stroke-linecap="round" stroke-linejoin="round" stroke-width="0.5"><title>2025-08-28 5.0km</title><desc>1756381580000</desc></polyline><polyline fill="none" points="66.93515557117644,58.3125 67.10191301180748,59.17662378771638 67.07291171781253,59.965233720497054 66.62339166051243,62.78403318124765 66.46388454339467,63.07765259146254 66.4421335728548,64.0004496554975 65.80410510447109,67.7586439126826 65.85485736903502,68.23679475789686 65.36908569416846,71.39923152887059 65.33283407666022,72.68262623687042 65.44883925272734,72.8168362965589 65.4053373116767,73.36206242180197 65.95636189804645,78.1179592601693 66.56538907243521,78.5625 66.36963033780921,78.38636150238744 65.69535025188816,72.83361253868497 65.6663489578932,71.75153794405924 66.16662127969903,68.22001758211991 66.28987677930854,68.04385703067965 66.40588195534656,66.56744906704989 66.91340460069478,63.66488827986177 66.87715298315743,63.27060192114004 67.01490912970621,63.08604170212493 66.9569065416872,62.834368011441256 67.16716592333978,61.39142404560698" stroke="#4DD2FF" stroke-linecap="round" stroke-linejoin="round" stroke-width="0.5"><title>2025-08-26 5.0km</title><desc>1756206850000</desc></polyline><polyline fill="none" points="89.38704296731157,58.3125 89.40160394940176,59.00330525597383 89.51809180632699,59.02857850986038 89.45256738681928,59.887864558077126 89.04485988774104,62.6846947372469 88.90653055769508,62.9963838243857 88.73907926341053,64.89176521143963 88.2367253806442,67.747391366378 88.1566399790463,69.06987518133974 87.78533493523719,71.55473996538058 87.8508593547449,73.4330798731462 88.41145716595929,78.44458585738175 88.43329863913823,78.5625 88.87012810242595,78.51196538795921 88.5570669870649,75.24399511954107 88.1712009611656,73.0203541225419 88.13479850586737,71.89166505241883 88.60074993339367,68.44654148819973 88.76820122767822,67.96640288187336 89.32879903886351,63.375463567608676 89.49625033311895,63.03850388141291 89.43800640469999,62.7689351466106 89.71466506476281,60.67132348771702" stroke="#4DD2FF" stroke-linecap="round" stroke-linejoin="round" stroke-width="0.5"><title>2025-08-24 5.0km</title><desc>1756042259000</desc></polyline><polyline fill="none" points="110.99184401956154,78.5625 111.21773050245247,78.23577195247344 112.00026581811835,72.90527309913887 112.1454785571259,70.5619962121782 111.71790771454107,67.86388622425147 111.29033687195624,63.74654830637155 110.82242915747338,62.79421256737987 110.93537239890429,62.66349904797971 111.28226949757664,62.70084578679962 111.10478726102156,60.87083772063488 110.71755329036387,60.43200383387739 110.78209228545893,59.48897072520049 110.3464540684945,58.3125 110.75789016232011,59.31156737473066 110.73368803912308,60.441340746903734 111.12092200980987,60.898848323035054 111.30647162074456,62.710182469112624 111.20966312810197,62.80354924020503 110.87083340372192,62.68217241928505 110.87083340372192,62.812885912077036 111.18546100493404,63.38242110185092 111.36294324146002,64.07332790151122 111.57269497556263,66.6128325492682 112.1535459315055,70.65535500057013 112.02446794128628,72.78390962874983 111.13705675859819,78.48781940588378" stroke="#4DD2FF" stroke-linecap="round" stroke-linejoin="round" stroke-width="0.5"><title>2025-08-23 5.0km</title><desc>1755956696000</desc></polyline><polyline fill="none" points="134.4649038228672,58.3125 134.47223616973497,58.87247383977956 134.56755667948164,58.974286861746805 134.53089494499727,59.82272388364072 134.0909541308938,62.55463252706977 133.92964249904617,62.902477834548336 133.55569280710188,66.3893348885249 133.36505178769585,67.54310468230688 133.24040189033258,67.66187419746711 133.29906066559488,68.07756617073028 132.77113168869982,72.07319371213816 133.44570760359056,78.4267811072641 133.4677046443103,78.52857029747247 133.8636513769743,78.5625 133.13774903371814,71.9035318844617 134.23026872202172,63.962972878733126 134.36958331314963,63.09760993364034 134.50156555735157,62.93641388450487 134.44290678217658,62.61402085285954 134.72886831130018,60.4081404025419" stroke="#4DD2FF" stroke-linecap="round" stroke-linejoin="round" stroke-width="0.5"><title>2025-08-21 5.0km</title><desc>1755781186000</desc></polyline><polyline fill="none" points="156.81447306307382,58.3125 156.83632363329525,59.880092225110275 156.39931222959422,62.69494153798587 156.24635823830613,62.98990524838155 156.18080652775825,63.48712741469353 156.2609252850816,63.731523658236256 155.5835576094105,67.72603607136989 155.62725874979515,68.14738692705578 155.14654620570946,71.60238323837984 155.17568029928952,73.06017999054893 155.78749626444187,78.5625 156.20994062133832,78.48666652184329 155.91859968553763,75.29317160223582 155.53985646902584,73.01804749582516 155.5180058988335,71.40857018075621 155.99143491950235,68.18952189493575 156.11525481721037,68.00412787620735 156.61781793145929,63.81579805804358 156.85817420348758,63.00676028586895 156.86545772687532,62.079728138392966 157.35345379431965,58.978308919286064" stroke="#4DD2FF" stroke-linecap="round" stroke-linejoin="round" stroke-width="0.5"><title>2025-08-19 5.3km</title><desc>1755607955000</desc></polyline><polyline fill="none" points="178.53058697926463,78.4627575696868 178.8832150483213,78.5625 178.8832150483213,77.8915033212761 179.01643009661348,77.59227344591636 179.18098986218683,75.52483961760299 179.65899680019356,72.39639471079136 179.61197972431546,70.34697712922207 179.0791195311176,66.9100162977411 178.8361979724723,64.08054546498897 178.68731056549586,63.336887594516156 178.30333777927444,62.692983698019816 178.38953575165942,62.53880883583042 178.76567235865514,62.620430854898586 178.60111259308178,60.92449133264017 178.1936312688922,60.371263443041244 178.22497598614427,59.30107516202406 177.84100319983554,58.3125 178.25632070339634,59.34642238363449 178.20930362748913,60.36219410478225 178.57760405514273,60.76124411559431 178.76567235865514,62.61136174535204 178.3738633930625,62.55694706874783 178.3346824964974,62.674845492772874 178.7891808965942,63.71778630274639 179.0242662759265,66.44751277890464 179.60414354500244,70.45579694542539 179.59630736568943,71.38982824179402 179.01643009661348,75.4069581750955 178.8440341517271,75.48856842110399 178.73432764137397,75.76060203537781 178.53058697926463,77.09355475714983" stroke="#4DD2FF" stroke-linecap="round" stroke-linejoin="round" stroke-width="0.5"><title>2025-08-17 5.0km</title><desc>1755429603000</desc></polyline><polyline fill="none" points="20.95875721646007,105.70445857521554 20.856428670929745,105.75 20.97450006962754,105.63159224742412 21.108314321551006,103.62774502034154 21.218514293665066,102.92638790704223 21.580599916400388,102.62580460699974 21.57272848978755,101.9335483241739 22.0607569378044,99.18268762372463 22.131599777058,97.94386185256735 21.273614279692993,90.75651266161731 20.82494296459481,89.88196695216175 20.91152865701588,89.78175804446073 21.289357132889563,89.8090877576833 21.12405717468937,88.04174914064788 20.74622869878658,87.5680235860782 20.769842978566885,86.5385728786714 20.368400222942,85.5 20.793457258318085,86.55679334802699 20.738357272202848,87.522472919969 21.116185748076532,87.96886844917026 21.30509998605703,89.79997785419982 20.903657230432145,89.75442832292174 20.84855724434601,89.89107684729242 21.320842839195393,90.86583027504093 22.131599777058,97.51573425866081 22.123728350445163,98.59971292347473 21.59634276953875,102.48006688652094 21.2027714404976,104.99400935259473 21.037471482297406,105.12152629439515 20.982371496240376,105.50407603127678" stroke="#4DD2FF" stroke-linecap="round" stroke-linejoin="round" stroke-width="0.5"><title>2025-08-16 5.1km</title><desc>1755350047000</desc></polyline><polyline fill="none" points="43.631875469873194,105.69532568986324 43.34837659751065,105.75 43.4822510649974,105.61331416218309 43.860249561519595,102.78842686724238 44.07287371577695,102.67907460218703 44.025623903697124,102.37835518571228 44.59262164845131,99.03392278576939 44.63199649186572,97.58493377610284 43.781499874719884,90.77710587184265 43.35625156617607,89.92039478429069 43.442876221612096,89.7563427908317 43.78937484341441,89.81102682201163 43.61612553251325,88.0155503621063 43.24600200468558,87.5962968716849 43.301126785430824,86.69398379400809 42.860128539497964,85.5 43.269626910740044,86.45701117647695 43.26175194204552,87.55072572193603 43.61612553251325,87.9790936147183 43.82087471810519,89.80191281912266 43.41137634689221,89.76545679834817 43.37200150350691,89.89305280624103 43.7106251566147,90.4398907826835 43.85237459282507,90.98672542296117 44.104373590496834,93.91223408333462 44.600496617145836,97.21129130269401 44.63987146053114,98.53270282162703 44.041373841057066,102.36924246035778 44.08862365313689,102.64262381754816 43.836624655494234,104.04596833043615 43.631875469873194,104.51070745163452" stroke="#4DD2FF" stroke-linecap="round" stroke-linejoin="round" stroke-width="0.5"><title>2025-08-14 4.9km</title><desc>1755170321000</desc></polyline><polyline fill="none" points="67.07716790036648,85.51694057478744 66.9014862223994,85.5 66.9527267118101,87.03310807799426 66.52816265673027,89.91290338344697 66.37444118855637,90.21781706249021 66.37444118855637,91.01397530040413 65.94255706356489,94.05455222811725 65.8034757352143,94.88455117787089 65.69367468648124,94.95230582946533 65.75955531571526,95.37577115451131 65.2544704915781,98.85657464131509 65.29839091107715,100.3386244847643 65.91327678391826,105.68225411975436 66.33052076905733,105.75 65.61315391742392,99.0428909261318 66.80632531348965,90.5904878224319 66.97468692154507,90.2432264853851 66.9014862223994,89.9467827362023 67.24552950839279,87.54131447819964" stroke="#4DD2FF" stroke-linecap="round" stroke-linejoin="round" stroke-width="0.5"><title>2025-08-12 5.0km</title><desc>1754999139000</desc></polyline><polyline fill="none" points="89.29603078708169,85.56784739669092 89.39131132711191,85.5 89.39864059945103,86.9332645318791 88.94422571620089,89.8506026967807 88.79031099771964,90.13893872302287 88.6363962792093,92.09790123873972 88.15266430674819,94.93873923794308 87.66160306197708,99.03446388487646 87.70557869583718,100.28942832928442 88.21862775753834,104.5375125931314 88.75366463616956,105.75 88.03539594978793,99.0853411886128 89.1201282516704,91.25835150372586 89.38398205480189,90.17286054295982 89.31801860401174,89.93540751375986 89.62584804103244,87.64564721370698 89.83839693805203,86.78061030903336" stroke="#4DD2FF" stroke-linecap="round" stroke-linejoin="round" stroke-width="0.5"><title>2025-08-10 5.0km</title><desc>1754830447000</desc></polyline><polyline fill="none" points="110.96204533151467,105.75 112.05863982258597,99.2226582725416 112.12964234358515,97.68889237441908 111.54584383754991,93.64437217336672 111.26972292253049,90.69531823752914 110.8279294584936,89.91010488766915 110.8910428105155,89.7457570384795 111.29339042952051,89.82793100068375 111.11982871152577,88.02008646004106 110.74114859948168,87.57268497010955 110.7648161064717,86.55004462136276 110.36246848743758,85.5 110.78059444451355,86.58656769151276 110.74903776848805,87.58181563505786 111.11982871152577,88.02921707947098 111.30916876750416,89.80053968831635 110.90682114849915,89.78227880874329 110.85948613449,89.8827136003747 111.30916876750416,90.85053401718324 111.6720705415355,94.43868283891061 112.09808566755964,97.04981551993114 112.13753151256242,98.5014263803896 111.22238790852134,104.98317604813928 110.96993450049195,105.24791362843098" stroke="#4DD2FF" stroke-linecap="round" stroke-linejoin="round" stroke-width="0.5"><title>2025-08-09 5.0km</title><desc>1754735080000</desc></polyline><polyline fill="none" points="134.3580746242951,85.5 134.4020318260591,86.92418742838345 134.1163100146514,89.16214712840883 133.75,90.70494802819303 133.66941179678543,92.10361649918923 133.17855637715547,94.96869447517383 133.20786117835087,95.40946697207255 132.70967955846572,98.76604270260577 132.69502715786803,99.91877494568325 133.32508038304513,105.2753806296605 133.81593580261688,105.75 133.0979681739409,100.22390728651953 133.1345991754206,98.41852471210586 134.18224581726827,91.21355745742767 134.31411742253113,90.39130400151043 134.4386628275097,90.2302430972486 134.3800532251771,89.88268956038519 134.80497284216108,87.00895972298167" stroke="#4DD2FF" stroke-linecap="round" stroke-linejoin="round" stroke-width="0.5"><title>2025-08-07 5.0km</title><desc>1754570205000</desc></polyline><polyline fill="none" points="156.6009499275824,85.5 156.64623378921533,86.07639195431693 156.797179994639,86.13752420761011 156.74434882277274,86.54798249636224 157.15190357741085,86.60911441423377 157.19718743901467,86.98463809853274 156.7820853741141,89.06308835509844 156.66132840976934,90.17215679342917 156.74434882277274,90.46907032508898 156.61604454813641,90.59132854002382 156.374530619476,92.01475067385763 155.31035987118958,99.75146739178308 155.96697586483788,105.75 155.30281256095623,99.6117585894317 155.77074579778127,96.07530393260095 155.94433393402142,95.59503343998949 156.35943599892198,92.01475067385763 156.5707606865326,90.69612115729251 156.70661227140226,90.46033758878184 156.6537810995069,90.11976018140558 157.06888316440745,87.06323587136285" stroke="#4DD2FF" stroke-linecap="round" stroke-linejoin="round" stroke-width="0.5"><title>2025-08-05 5.0km</title><desc>1754406000000</desc></polyline><polyline fill="none" points="178.44336346868658,105.75 178.79380521870917,102.84688671442564 179.0088490198832,102.68099171976792 179.34336159945815,100.43216296354512 179.59026374149835,98.62568635734351 179.60619291197509,97.50122866457968 179.02477819033084,93.51021296084218 178.80176980397664,90.85558328476327 178.60265517322114,90.16426071561727 178.30000093459967,89.73102921845566 178.37168220162857,89.59276341115765 178.7619468778139,89.62963431374374 178.57876141756424,87.81372454357188 178.20442591185565,87.4173536147864 178.23628425280913,86.29275689327187 177.8938070879958,85.5 178.2442488379893,86.41259163432551 178.20442591185565,87.32517408059357 178.59469058804098,87.80450663466763 178.76991146302316,89.6204165895033 178.666371855099,89.71259378964896 178.28407176418114,89.63885203702375 178.79380521870917,90.71731919270678 179.12035321304575,94.21072727406863 179.60619291197509,97.52887943080714 179.59822832673672,98.67177039155649 178.666371855099,105.04957482402824 178.61858434372698,105.20624934621446 178.41150512779132,105.21546548612969 178.33185927549493,105.56567810969864 178.10885088911164,105.54724590006663" stroke="#4DD2FF" stroke-linecap="round" stroke-linejoin="round" stroke-width="0.5"><title>2025-08-03 5.0km</title><desc>1754221111000</desc></polyline><polyline fill="none" points="31.375,121.71689908297776 31.31274019983539,121.97505153872044 31.15190238278592,121.9900603330334 27.99221752496669,121.92702334566638 27.90661029977491,121.87299153515414 27.78209069946024,121.92402158100413 27.37999615680019,121.92101981604355 27.34627209836617,121.88800038131922 26.627690238281502,121.9300251100176 26.27488470406388,121.87599330499688 25.136049192922655,121.87299153515414 24.6431591083674,121.79494541216627 24.308512682531727,121.70789372403124 24.28775941581989,121.67487405109387 23.82340507300978,121.65986509664071 22.803900845494354,121.47975704845157 21.3044773251313,121.46774980619193 18.175922367401654,121.85798268136205 17.753074558029766,122.05309718589888 17.299096848568297,122.19117744119649 16.079842428895063,122.9325973412233 15.433897002294543,123.25977672427507 15.036990776323364,123.37383840978873 14.80351652574609,123.37684002714195 14.507782475018757,123.3048011264309 14.193889315894921,123.43387069898199 14.087528823962202,123.22375715317139 13.9604150653322,123.30780275079815 13.856648731743917,123.11269653247291 12.090026902369573,124.15725019380807 11.95513066870626,123.81807446153834 11.410357417364139,122.776510487427 11.358474250562722,122.74049032713447 11.125,122.85455401740182 11.278055342030711,122.73748864513436 11.353285933888401,122.72848359728596 11.376633358944673,122.65344142514004 11.470023059184314,122.65944480592407 11.594542659498984,122.575397363913 11.630860876248335,122.61742111480999 11.724250576473423,122.55738716666565 11.693120676398394,122.61441942029705" stroke="#4DD2FF" stroke-linecap="round" stroke-linejoin="round" stroke-width="0.5"><title>2025-08-02 8.3km</title><desc>1754134728000</desc></polyline><polyline fill="none" points="44.29127072985284,112.6875 44.182290046010166,112.71272101454815 44.1169016356871,113.39368550072686 44.66180505498778,113.39368550072686 44.66180505498778,113.94013443012955 42.84546032396611,125.96109801491548 42.85272570286179,127.23034260925488 43.60832511098124,132.9375 42.88905259751482,127.39004750423919 42.83819494501222,126.15442791819805 43.913471025793115,118.47131805781828 44.182290046010166,117.42891559893178 44.109636256762315,117.1935325812301 44.45110906616901,114.71356366897817" stroke="#4DD2FF" stroke-linecap="round" stroke-linejoin="round" stroke-width="0.5"><title>2025-07-31 5.0km</title><desc>1753965181000</desc></polyline><polyline fill="none" points="65.84906562248943,132.9375 65.93639786314452,132.20255211703625 66.15869811206358,131.93613203401037 66.96850616164738,126.35950387296907 67.05583840227337,124.30148499109782 66.64299508286058,121.80239906287898 66.20633387970156,117.67691852159624 65.78555126566789,116.8683390143342 65.87288350632298,116.74888915557676 66.22221246888512,116.79483142762183 66.07136587140849,114.96631096399506 65.66646184661658,114.52525526282261 65.71409761425457,113.50530570784758 65.39652583008865,112.6875 65.72203690884635,113.52368327917793 65.69027973039192,114.54363262667903 66.07136587140849,115.02144277524349 66.25396964728134,116.7764545216196 66.15075881744269,116.8683390143342 65.83318703327677,116.73970069834468 65.80142985488055,116.87752745848411 66.27778753111488,117.93419230205473 66.5556628422346,121.02142053865828 67.10347416991135,124.96299617050681 66.53184495840105,129.72205890105397 66.11106234442559,132.35872904204734 65.96021574694896,132.42303710925626" stroke="#4DD2FF" stroke-linecap="round" stroke-linejoin="round" stroke-width="0.5"><title>2025-07-29 5.0km</title><desc>1753797916000</desc></polyline><polyline fill="none" points="89.61854557064362,112.6875 89.60394816609914,114.23302414581121 89.26820786148892,116.5977049226858 89.00545457960106,117.38310187045136 88.83028572503827,119.54501643420372 88.3412726726383,122.12910617562011 88.3996622908453,122.58511367518076 87.91794794073212,125.78554038426228 87.94714274985017,127.48281432606018 88.54563633631915,132.9375 87.9836362611968,128.20055656584736 87.88145442938549,126.40196726474096 88.34857137495419,122.26421976953861 88.99815587734338,118.13471135589498 88.93246755684959,117.92358578227868 89.24631175468676,116.63993075377948 89.60394816609914,113.78541628389212" stroke="#4DD2FF" stroke-linecap="round" stroke-linejoin="round" stroke-width="0.5"><title>2025-07-27 5.0km</title><desc>1753616848000</desc></polyline><polyline fill="none" points="111.82837991471752,112.6875 111.84993444569409,114.46664165232505 111.4547680443502,117.27660901376657 111.29670148377772,117.57588979237335 111.07397133027553,120.01997518374264 110.67162008525338,122.24785337670619 110.70035945987911,122.67180840333458 110.17586587264668,126.12986935954541 110.82968664579676,132.9375 111.26077726547373,132.8710057349599 110.95182898803614,129.53791150260076 110.5997716486454,127.20217108770157 110.58540196131798,125.95530728365702 111.57691038653138,118.9642057557503 111.90741319500376,117.56757645220205 111.83556475839578,117.24335552634147 112.32413412735332,114.28374102355883" stroke="#4DD2FF" stroke-linecap="round" stroke-linejoin="round" stroke-width="0.5"><title>2025-07-26 5.2km</title><desc>1753529066000</desc></polyline><polyline fill="none" points="134.4489272122737,112.6875 134.36156131071039,113.12557229344384 134.47804917942267,113.69000818209315 134.33971983531956,115.02105073448183 134.03393917999347,117.0933909111045 133.87376836049953,117.38823184958892 133.8519268851087,118.27274837504228 133.2039631154621,122.1560854831041 133.2549265579728,122.52671986608766 132.77441409957828,126.05608703317557 132.83993852572166,127.93442408000556 133.41509737746674,132.9375 133.83008540974697,132.89538782544696 133.50246327900095,129.83798684196518 133.57526819696068,129.67795448618563 133.16028016468044,127.30270112057042 133.1529996728641,126.17401078968396 134.72558590042172,115.1642629004491" stroke="#4DD2FF" stroke-linecap="round" stroke-linejoin="round" stroke-width="0.5"><title>2025-07-24 5.0km</title><desc>1753356656000</desc></polyline><polyline fill="none" points="155.89482724491972,132.90096824969805 155.99743270751787,132.9375 156.34471273468807,130.05144597600884 156.57360184349818,129.90531419324543 156.51835274827317,129.62218318793748 157.11030734004453,125.95966623393906 157.1497709795076,124.85448840873141 156.55781638770713,120.95428943594015 156.31314182313508,118.06785050244798 155.83957814972382,117.07219024415826 155.91061270073988,116.92603735080047 156.29735636734404,116.99911382719438 156.09214544217684,115.16304934091022 155.75275814288761,114.79765889613918 155.7843290544697,113.81109727099829 155.3502290204924,112.6875 155.74486541500664,113.59185988279933 155.73697268712567,114.76111976992979 156.10003817008692,115.14477985396661 156.3052490952541,116.94430647547415 156.20264363265596,117.04478659475717 155.92639815647271,116.93517191361025 155.83957814972382,117.04478659475717 156.11582362584886,117.43757143720723 156.31314182313508,118.0952538397687 156.66831457818625,121.73068914492615 157.12609279580647,124.69921440212784 157.1182000679546,125.91399799798819 156.25789272788097,131.89633929765841" stroke="#4DD2FF" stroke-linecap="round" stroke-linejoin="round" stroke-width="0.5"><title>2025-07-22 5.0km</title><desc>1753184035000</desc></polyline><polyline fill="none" points="168.625,126.15230949484976 168.625,122.90287664148491 170.77792758098803,113.8043065496895 188.1885593221523,116.98161147072096 188.875,117.73982776381308 186.53486132528633,131.78458938008407 170.90273497696035,129.3295039961231 170.34110169508494,128.6074168313644 172.2756163328886,114.56252962347935 172.96205701073632,114.12925949378405 177.111902927747,114.81527028852724 188.84379815112334,117.41487812213018 186.78447611723095,131.49575668593752 186.12923728814349,131.8206934502814 170.59071648691315,129.1850866805762 170.77792758098803,124.56370159052312 172.3068181819981,114.6347412604664 172.80604776588734,114.20147121875198 180.48170261958148,115.50127975878422 172.65003852092195,114.27368292908068 171.77638674899936,118.24530439369846 172.55643297394272,119.00351799000055" stroke="#4DD2FF" stroke-linecap="round" stroke-linejoin="round" stroke-width="0.5"><title>2025-07-20 4.9km</title><desc>1753020627000</desc></polyline><polyline fill="none" points="22.41391049377853,139.875 22.26114724148647,140.91034447926359 21.693740875751246,142.366538799899 21.213627797056688,144.55499079666333 21.082687866466586,146.28046026904485 20.63167255013832,149.16738493629964 20.52983038194361,149.25996686176222 20.58075146607007,149.67237600022054 20.10791282792343,153.08098519402847 20.086089506192366,154.20874107431155 20.73351471836213,160.11658456885198 20.66077031250461,158.95524687568104 20.740789158968255,160.125 21.155432272382313,160.0408456500154 20.45708597608609,153.45129478714807 21.570075385796372,145.32093533901934 21.802857484522974,144.58865883741237 21.83195524686016,143.60386299272795" stroke="#4DD2FF" stroke-linecap="round" stroke-linejoin="round" stroke-width="0.5"><title>2025-07-20 5.0km</title><desc>1752942252000</desc></polyline><polyline fill="none" points="44.62316423584707,139.88406143071916 44.49786712578498,139.875 44.302090391283855,140.8717518594276 44.521360333950724,141.00767170438485 44.50569819516386,141.29763334801828 44.23161076687393,143.14611666563724 44.08282044864609,143.46325456107297 43.69909804902272,147.07854687322106 43.3780242044304,148.55542864478048 43.40934848197503,148.99033395405422 42.85334255595808,153.1490089066574 43.605125216417946,160.125 42.908160041610245,154.30869197534048 42.89249790285248,152.55104143446806 43.40934848197503,149.04469696864544 43.38585527378018,148.5644891936754 43.95752333855489,145.12141433910438 44.074989379238104,143.4541934939989 44.23161076687393,143.12799446612917 44.64665744401282,140.1649653262648" stroke="#4DD2FF" stroke-linecap="round" stroke-linejoin="round" stroke-width="0.5"><title>2025-07-17 5.0km</title><desc>1752765839000</desc></polyline><polyline fill="none" points="74.93834459467325,159.69769152801018 75.3944256757386,159.06439577726997 76.375,150.80502227315446 61.71199324319605,150.14531657402404 59.06672297301702,150.35642258013831 59.38597972970456,150.14531657402404 58.90709459455684,147.16342590402928 56.1934121621307,142.88844325614627 56.125,140.48703323944937 56.44425675668754,140.30230847198982 69.19172297301702,140.5134224811627 68.27956081088632,148.8259001474944 67.70945945940912,149.19533742271597 59.75084459455684,148.93145370835555 58.88429054047447,146.16065851526218 56.64949324319605,143.31066689724685 56.37584459455684,141.80649204182555 59.54560810804833,141.56898995226948 68.78125,141.88565935677616 68.9180743242614,143.8648343841778 68.09712837846018,150.30364609471872 66.86570945940912,150.38281081881723" stroke="#4DD2FF" stroke-linecap="round" stroke-linejoin="round" stroke-width="0.5"><title>2025-07-15 4.1km</title><desc>1752589649000</desc></polyline><polyline fill="none" points="89.56378772997414,139.875 89.62549675215269,141.31202030275017 89.14725183026167,144.31094347685575 88.97755201926338,144.65902614309016 88.9698383914947,145.5426144098601 88.29103914753068,149.6837581720174 88.32189365863451,150.14783970770077 87.80508059787098,153.99426732608117 88.42217081965646,160.125 88.06734394212253,157.69774504318048 87.7973669701023,153.79793403087388 88.95441113595734,145.4801387637708 88.88498848601012,145.1945352443654 89.11639731915784,144.37341995439783 89.57150135777192,141.40127544676216 89.51750596333295,141.08888204593677 89.7026330298977,140.14276954039815 89.53293321892852,139.9285539733828" stroke="#4DD2FF" stroke-linecap="round" stroke-linejoin="round" stroke-width="0.5"><title>2025-07-13 5.0km</title><desc>1752418082000</desc></polyline><polyline fill="none" points="111.07413868478034,160.125 110.9702206349175,160.1157502291535 111.03417020407505,159.38501536379044 111.38589283448528,157.16502536070766 111.59372893426917,156.9800237497475 111.95344526082044,154.46396450750763 112.14529396826401,151.86458025567845 111.61771002269234,148.24751991196536 111.34592435375089,145.22239995868586 111.18605043084244,144.63031578290975 110.85031519271433,144.09373617044912 110.92225845804205,143.95496506599738 111.3059558730165,144.01047353319154 111.138088253967,142.25268896128546 110.75439083896345,141.77160515900323 110.77837192744482,140.67065380804706 110.50658625850338,139.91200730814307 110.33871863942477,139.91200730814307 110.482605170022,139.875 110.75439083896345,140.5503810044611 110.74639714282239,141.78085679459764 111.09811977323261,142.10466344693123 111.138088253967,142.28969530225004 111.3059558730165,143.9827193038218 110.914264761901,143.96421647954412 110.82633410429116,144.0659819665234 111.17805673470139,144.57480769389804 111.33793065760983,145.13913835428684 111.66567219956778,148.73782040249353 112.16128136057523,151.79982596352784 112.15328766443417,152.98389716684324 111.17805673470139,159.64401067074505" stroke="#4DD2FF" stroke-linecap="round" stroke-linejoin="round" stroke-width="0.5"><title>2025-07-12 5.1km</title><desc>1752325602000</desc></polyline><polyline fill="none" points="133.62799282599008,160.125 133.43120706142508,160.1158917169014 133.87200717403903,157.08278197003528 134.053050077433,156.99169600579626 134.5568216346437,153.61234130641242 134.6355359404697,151.90895249471214 134.1711215361429,148.85734612208034 133.8169071599259,145.14973227222072 133.34462132499903,144.19319765947148 133.407592769654,144.09298868047335 133.801164298784,144.15675804370403 133.62012139539002,142.30742808069044 133.26590701920213,141.9156931887701 133.25016415806022,140.68581669901323 132.85659262895933,139.875 133.2737784497731,140.78602948927437 133.26590701920213,141.90658305463876 133.62799282599008,142.3165381740837 133.82477859052597,144.1294283221505 133.446949922567,144.08387876772758 133.36036418622825,144.2296372603887 133.83265002109692,145.2226106811795 134.17899296671385,148.8391272644949 134.64340737101156,151.84518864846905 134.56469306524377,153.56679657232598 133.80903572935495,158.59479545430077" stroke="#4DD2FF" stroke-linecap="round" stroke-linejoin="round" stroke-width="0.5"><title>2025-07-10 5.0km</title><desc>1752149320000</desc></polyline><polyline fill="none" points="153.4101617091801,139.875 153.45759115874534,141.1372838580137 153.80145466781687,140.95891837657837 154.53661113564158,141.20588590350235 155.33105441526277,141.1372838580137 156.22035659401445,141.46657335855707 160.80915583629394,142.07026869068795 160.9395868224674,142.24863270414062 159.88428157038288,148.98513181251474 159.37441498792032,149.02629065206565 159.27955608884804,149.20464547838492 159.10169565310935,150.39824479194067 159.2321266392828,150.91958371095825 158.42582599725574,155.46063498065632 152.52085953048663,155.28228841531381 152.3192843699362,155.14509858946258 151.5604131774744,160.125 152.3548564570956,155.22741250168474 154.65518475940917,155.26856943896564 155.42591331433505,154.96675160749874 155.53262957575498,155.28228841531381 158.46139808441512,155.37832121056272 160.5008644143236,142.60536002424487 160.4415776024107,142.1388702622353 154.33503597509116,141.06868177762954" stroke="#4DD2FF" stroke-linecap="round" stroke-linejoin="round" stroke-width="0.5"><title>2025-07-08 5.1km</title><desc>1751976330000</desc></polyline><polyline fill="none" points="168.80536321137333,159.9406155203469 168.7619052210939,160.125 169.0371391599183,160.00766444586043 169.12405514053535,159.06897700825357 169.6310650278465,158.64991839180584 169.73246700526215,158.21409630140988 171.1955526798847,148.07252634281758 171.3259266508394,145.00478812295478 170.97826272825478,142.74166597424482 171.7749925510725,142.70813800522592 171.97779650596203,143.0098894808325 174.77359388425248,143.41222392269992 177.01892338495236,143.37869609006157 178.65584102092544,144.03248759763665 183.87079986114986,144.80362296733074 184.8268756486359,139.875 188.73809477884788,140.74673995508056 185.24696955515537,139.92529281500902 184.59509970014915,142.82548586689518 184.49369772261707,144.83715051032777 174.73013589391485,143.52957128340495 171.97779650596203,143.0266534355178 171.73153456073487,142.6578460389137 170.93480473791715,142.79195791494567 171.25349666702095,144.1330706764129 171.3114406541572,147.03318973083515 169.6745230181259,158.26438352449622" stroke="#4DD2FF" stroke-linecap="round" stroke-linejoin="round" stroke-width="0.5"><title>2025-07-06 5.0km</title><desc>1751807521000</desc></polyline><polyline fill="none" points="14.207201034587342,186.0573240629892 15.084559909126256,179.8182326178503 12.245107551570982,179.61518166244787 11.351796697592363,179.92898758876254 12.516291203675792,179.8182326178503 12.35677140840562,179.63364084958448 15.29193564306479,179.79977344948566 15.499311377119739,179.61518166244787 15.40359949984122,179.04294593058876 16.59999796503689,171.49295730235463 16.488334108318668,167.72707548586186 18.54613946855534,167.52401101209398 31.14820330234943,169.5915659495222 31.132251322851516,168.9823781014711 17.269981105579063,167.0625 17.493308819131926,171.62217735149898 16.04167868127115,181.8856476059882 16.440478169708513,182.51325107150478 16.073582640383393,183.19622884955606 16.153342537989374,184.6729287803755 15.595023254223634,184.80213945315336 15.339791581674945,187.3125 14.047681239200756,187.16483269286982 14.127441136923153,186.0757825954788" stroke="#4DD2FF" stroke-linecap="round" stroke-linejoin="round" stroke-width="0.5"><title>2025-07-05 4.8km</title><desc>1751729502000</desc></polyline><polyline fill="none" points="47.00924836716149,187.3125 47.20965522469487,187.16603847968508 47.24129841267131,186.33608649109374 47.515539375599474,185.12776378462877 47.663207586389035,185.07894240968744 47.853066714596935,183.30915416883363 43.72890454129083,183.13827668228623 43.99259777489351,182.22285743585962 44.38286376057658,178.09728144797555 44.42505467799492,175.0823478230086 44.27738646714715,174.67953719334764 44.435602407262195,172.21381843235577 44.42505467799492,167.0625 38.887496772629675,169.05225345976942 38.771471749816556,169.3330135630531 38.813662667234894,169.08887438003148 41.798670071410015,167.95362065742665 41.851408718153834,170.4682542427181 42.14674513973296,171.10300779337558 44.35122057254193,171.10300779337558 44.36176830192562,174.32555097907607 44.593818347435445,174.43540888138523 44.678200182155706,174.82601394230733 48.53866912191734,175.07014146015717 48.72852825012524,176.03444030343962 48.70743279141607,177.79212966580235 47.3784188941936,186.8609097387598" stroke="#4DD2FF" stroke-linecap="round" stroke-linejoin="round" stroke-width="0.5"><title>2025-07-03 5.2km</title><desc>1751545471000</desc></polyline><polyline fill="none" points="65.89514732849784,187.3125 66.37616983873886,184.3469224857472 66.57331021176651,184.21004731281573 67.07798956678016,180.46871178525907 67.11741764139151,179.17289581305522 66.25788561490481,172.29198214061762 65.83994802407688,171.42498610340408 65.92668978817528,171.30634388896578 66.28154245967744,171.3702281777587 66.11594454629812,169.59970391168463 65.72954941514763,169.10687135520857 65.73743503005244,167.98429820675665 65.36681112876977,167.0625 65.76897748975898,168.06643818157318 65.72954941514763,169.1251244611267 66.08440208659158,169.47193276802864 66.13960139104165,169.75485434159054 66.28154245967744,171.36110185356665 65.89514732849784,171.33372287543898 65.83994802407688,171.45236505368666 66.26577122983872,172.29198214061762 66.67582320576184,176.19792359226267 67.13318887120113,179.14551921753446 66.99913341752836,181.1896153910493 66.13171577613684,187.00225955482892" stroke="#4DD2FF" stroke-linecap="round" stroke-linejoin="round" stroke-width="0.5"><title>2025-07-01 5.0km</title><desc>1751376396000</desc></polyline><polyline fill="none" points="88.038358737831,187.3125 88.1845863944618,187.13201492517692 88.15534086310072,186.466473675835 88.38930511369836,186.240865567117 88.55502979119774,185.36098956206843 88.80849106266396,182.2588069797057 89.15943743853131,181.0517525086616 89.54937785619404,177.88176190740342 89.45189275179291,176.06546314726438 88.90597616706509,172.82763945678016 88.53553277032916,168.90151048285043 87.95062214386417,167.44609979447705 88.4672931972309,167.5476406945818 88.48679021809949,167.0625 88.48679021809949,167.5250760581257 88.038358737831,167.43481746652105 87.96037065429846,167.5476406945818 88.3308140510344,168.10047285366454 88.55502979119774,168.87894612175296 88.96446722972905,173.25634627733962 89.54937785619404,177.14847716593795 89.50063530396437,178.9647582023681 88.27232298837043,186.92896886531526" stroke="#4DD2FF" stroke-linecap="round" stroke-linejoin="round" stroke-width="0.5"><title>2025-06-30 4.1km</title><desc>1751292736000</desc></polyline><polyline fill="none" points="101.35235191634274,178.4358025804613 101.125,176.7925948953125 101.20339721255004,176.62010172280134 107.30270034843124,176.32958615091047 108.2748257839412,176.42037236892065 109.85844947735313,176.266035743276 112.23388501739828,176.29327163782 121.375,175.71223741456197 118.64677700347966,175.90288968684763 118.01175958191743,176.11169885019626 116.83580139372498,176.0572269417171 110.88545296166558,176.36590064923075 105.35060975607485,176.4657654432158 105.18597560975468,176.61102312553703 105.5701219511975,178.66276258543076 105.38980836234987,178.64460580631567 105.1702961672272,177.5733492878353" stroke="#4DD2FF" stroke-linecap="round" stroke-linejoin="round" stroke-width="0.5"><title>2025-06-26 5.0km</title><desc>1750950176000</desc></polyline><polyline fill="none" points="143.875,178.01627715588256 143.54803552207886,176.35872284411744 134.83624865443562,177.15805522028677 133.90621636170545,177.16646920412313 130.54938105487963,176.74576896116196 123.625,177.04025935634854 130.3168729816971,176.73735493442655 133.91348223897512,177.17488318713004 140.1112755651411,176.6111444305934" stroke="#4DD2FF" stroke-linecap="round" stroke-linejoin="round" stroke-width="0.5"><title>2025-06-24 5.0km</title><desc>1750769966000</desc></polyline><polyline fill="none" points="166.375,177.9984436127852 166.0978025936347,176.3765563872148 157.4755043227633,177.19595129606023 156.4250720460841,177.22974060293927 153.0257564841304,176.79047853924567 146.125,177.09458329282643 152.843389769434,176.79047853924567 156.4177773775009,177.22974060293927 163.7197406339692,176.5792940261017" stroke="#4DD2FF" stroke-linecap="round" stroke-linejoin="round" stroke-width="0.5"><title>2025-06-22 5.0km</title><desc>1750563938000</desc></polyline><polyline fill="none" points="179.44201795678237,187.3125 178.39543249562848,181.05986129766097 178.3807607368508,179.35498897663638 178.473681875912,178.64130595649476 178.41499484071392,176.80607893816705 178.43455718577025,176.4888730600578 178.54215008363826,176.30761174486906 178.43455718577025,176.2226452997129 178.4296665994916,175.06142418762101 177.2412541366357,167.91229878388185 176.9429283743375,167.0625 177.24614472288522,167.80465832413756 178.41499484071392,174.94246845871749 178.47857246219064,178.42040221087154 178.39543249562848,179.36065309090918 178.39054190934985,181.00322186149424 179.1925980571832,185.8060408870806 179.30508154130075,186.13452041601704 180.5570716256625,186.06655929348926" stroke="#4DD2FF" stroke-linecap="round" stroke-linejoin="round" stroke-width="0.5"><title>2025-06-21 8.0km</title><desc>1750517001000</desc></polyline><polyline fill="none" points="23.304420974920504,214.5 21.589079190045595,203.95185964051052 18.570609537593555,203.8902624973125 13.132045273843687,203.366685766101 13.23842305893777,202.81230842562218 13.025667488691397,201.74974616938562 13.318206397758331,194.80440876755165 13.278314728289843,194.3116010746744 13.012370265554637,194.25 12.679939687077422,202.79690902603033 13.185234166390728,202.85850661502627 13.211828612606041,203.38208510767436 21.628970859514084,203.93646035708662 22.652857041102834,210.52721023210324 22.971990396501496,211.4049285898218 29.82006031292258,211.18934911474935" stroke="#4DD2FF" stroke-linecap="round" stroke-linejoin="round" stroke-width="0.5"><title>2025-06-19 5.0km</title><desc>1750345525000</desc></polyline><polyline fill="none" points="53.875,204.8819461144485 53.689130434795516,203.77742770878103 47.956521739135496,204.32119335945754 47.21793478258769,204.33818595028788 44.76250000001164,204.054975424413 35.664673913037404,204.46846230758092 34.877173913031584,204.59873835947656 33.625,204.9725722912226 35.390760869544465,204.49678321440297 38.58967391305487,204.35517853595957" stroke="#4DD2FF" stroke-linecap="round" stroke-linejoin="round" stroke-width="0.5"><title>2025-06-17 5.1km</title><desc>1750166247000</desc></polyline><polyline fill="none" points="56.823275861970615,212.01659132672648 56.125,207.52879474624933 71.90603448275942,207.06383704327163 69.33987068966962,196.93557486037025 72.44719827582594,197.1175242526224 76.375,196.73340867328807 70.17780172417406,197.09730766170833 72.46465517242905,206.21478103398113 65.69137931033038,206.5382313708833" stroke="#4DD2FF" stroke-linecap="round" stroke-linejoin="round" stroke-width="0.5"><title>2025-06-16 3.2km</title><desc>1750084948000</desc></polyline><polyline fill="none" points="98.875,205.31109957041917 98.56471774197416,203.43890042957355 88.6111895161157,204.35609361817478 87.71300403226633,204.36554917085596 83.77731854838203,203.88331475642917 78.625,204.12916006521846 83.6140120967757,203.87385915460618 87.70483870970202,204.34663806456228 96.14778225813643,203.63746879615064" stroke="#4DD2FF" stroke-linecap="round" stroke-linejoin="round" stroke-width="0.5"><title>2025-06-15 4.6km</title><desc>1749956754000</desc></polyline><polyline fill="none" points="121.375,205.18940293612104 121.1284908700618,203.56059706387168 112.4571697100182,204.3582122107764 111.55088614395936,204.37500402560545 107.73724489795859,203.94681167836097 101.125,204.24906533100147 107.86774973146385,203.94681167836097 111.49288399572833,204.37500402560545 113.38520408165641,204.28264900172508 113.74046723952051,204.1651060942968 118.33713748658192,203.7537045974459" stroke="#4DD2FF" stroke-linecap="round" stroke-linejoin="round" stroke-width="0.5"><title>2025-06-14 5.1km</title><desc>1749906363000</desc></polyline><polyline fill="none" points="143.875,205.57734591167537 143.63154172559734,203.93552953665494 135.23939179631998,204.74814986327692 134.10802687410614,204.75644186561112 130.67096888259402,204.34184071453637 124.19784299857565,204.64864576957916 124.11191654880531,204.45792924981652 124.1477192362072,203.18094625120284 123.625,203.17265408831736 124.1692008486425,203.19753057445632 124.11191654880531,204.44963721706154 124.21932461104007,204.64864576957916 130.84998231963255,204.33354866997252 134.26555869873846,204.76473386709404 141.06806930695893,204.15112347559625 141.060908769432,203.8194402559675 143.24487270155805,203.70335080965742" stroke="#4DD2FF" stroke-linecap="round" stroke-linejoin="round" stroke-width="0.5"><title>2025-06-12 5.9km</title><desc>1749735885000</desc></polyline><polyline fill="none" points="166.375,210.74546588058 165.72946985450108,207.4953249219252 147.99142411636421,209.0716515606182 146.321465696441,204.50513672552188 146.125,198.80087218535482 149.43685031181667,198.65460630817688 152.2575363824726,198.8333756953798 152.41190228692722,198.31331873963063 152.1172037422075,198.19955605441646 146.20919958414743,198.00453411940543 146.33549896045588,204.3426248906908 146.8266632016166,206.19524998799898 147.7949584199232,208.50287570455112 155.65358627855312,207.82034199907503 155.8079521828913,208.43787262037222 165.68737006239826,207.47907405064325 166.29080041585257,210.69671425558045" stroke="#4DD2FF" stroke-linecap="round" stroke-linejoin="round" stroke-width="0.5"><title>2025-06-10 5.3km</title><desc>1749559786000</desc></polyline><polyline fill="none" points="169.1566954239388,198.98352234427875 168.67057389358524,197.01325637489208 168.625,195.48276639608957 182.4035071269027,195.1309277008404 183.02635033760453,197.43545811877993 182.57061140291626,197.41786640010832 182.43388972250978,197.7345170625049 182.72252438112628,199.37053623131942 182.64656789205037,200.47879847120203 183.14788072026568,202.6953016048792 184.439141035371,202.6425280514959 186.35324456117814,210.01307811951847 186.38362715690164,210.34729608212365 185.89750562648987,210.48801924126747 186.3380532633746,210.36488648332306 186.48996624158463,210.6463326581288 186.0949924981105,210.716694130213 186.2317141785752,211.3675363870134 187.14319204806816,213.68944012426073 187.78122655668994,213.6190798637108 188.875,213.02101649156248 187.72046136541758,213.2672781310248 185.66963615908753,205.08768574800342 185.42657539393986,204.3840467947157 184.87968867225572,204.3840467947157 184.46952363097807,202.58975448194542 184.02897599403514,202.7656663176458 183.13268942246214,202.6425280514959 182.63137659424683,200.61952967502293 182.52503750944743,198.01598383035162 181.6895161290886,195.06055987575382 168.67057389358524,195.51795022617443 169.21746061521117,199.0890716722206" stroke="#4DD2FF" stroke-linecap="round" stroke-linejoin="round" stroke-width="0.5"><title>2025-06-08 5.0km</title><desc>1749355299000</desc></polyline><polyline fill="none" points="31.375,232.39578343305038 31.018844221078325,230.7292165669569 24.491744436440058,231.27632555934542 22.529253409884404,231.55408719908883 21.438980617385823,231.55408719908883 17.986450107680866,231.13323586519255 11.125,231.43624904178432 17.65936826990219,231.13323586519255 21.402638190978905,231.56250420388096 29.27440775305149,230.8554728099698" stroke="#4DD2FF" stroke-linecap="round" stroke-linejoin="round" stroke-width="0.5"><title>2025-06-07 5.3km</title><desc>1749293029000</desc></polyline><polyline fill="none" points="53.875,232.36470705861575 53.57602628739551,230.76029294139153 44.33700936261448,231.60472529695107 40.588899891939946,231.17406587100413 33.625,231.46117240370222 40.559731724875746,231.15717722044064 43.892194814572576,231.60472529695107 51.03110370904324,230.95451314526872" stroke="#4DD2FF" stroke-linecap="round" stroke-linejoin="round" stroke-width="0.5"><title>2025-06-05 5.1km</title><desc>1749128617000</desc></polyline><polyline fill="none" points="56.408464566920884,231.43432545103133 56.125,229.57762863938115 56.231299212551676,229.49556390150246 64.177165354311,229.21859491719079 65.67421259841649,234.70654198568081 73.52263779524947,234.6039662798721 76.375,234.42958734008425 74.02755905513186,234.51164805523877 73.59350393700879,228.4184580143119 66.08169291337254,228.85955991422088 64.46948818897363,228.8082690949377 64.61122047243407,229.21859491719079 60.44783464563079,229.34169233766443" stroke="#4DD2FF" stroke-linecap="round" stroke-linejoin="round" stroke-width="0.5"><title>2025-06-03 5.2km</title><desc>1748952979000</desc></polyline><polyline fill="none" points="95.37109290351509,225.52576970604787 94.9268752055068,224.86827900225398 94.61198671074817,224.17823198214683 94.40955839271192,223.98944423576904 93.90911060635699,223.9438746962296 93.52674600554747,223.50119747901408 93.35243273168453,222.92180648999056 93.09377432524343,222.52469277939235 92.78450883927871,221.4375 91.89045043449732,221.82160015996487 91.47434778069146,221.86717121224137 90.39473008428467,222.2707991143434 89.93364335980732,222.86321609764127 89.93364335980732,223.01294699357823 88.0668044264894,225.38906427487382 88.05555840881425,225.52576970604787 87.54386460481328,226.22882159254004 87.0996469068341,226.63893162315435 87.02092478313716,226.56732529942747 86.70603628834942,226.8407308313872 86.49798496143194,226.7170475212588 86.49236195263802,226.83422118945964 86.4642469084065,226.6649702664763 86.75664336787304,226.87327903115147 86.71165929720155,227.10762558028 86.03689823695458,227.8562268585265 84.8841814257321,228.11660785760614 84.8841814257321,227.99943653924493 84.80545930203516,228.1426458992064 84.49057080724742,228.21425045893557 84.21504337430815,228.13613638979587 83.7539566498308,228.17519343628737 83.67523452610476,228.10358883283334 83.48967523456668,228.20774095682646 82.93299735989422,228.0124555852126 82.8598982450203,227.1597024745497 82.6462239092798,226.9709235309856 81.59472125710454,227.23781773647352 81.20111063861987,227.47867252663127 81.65095134545118,229.42500632913652 82.35945045869448,231.59910180762017 83.85517080884892,237.44405796775027 84.06322213576641,238.04935141812894 85.8288469100371,241.6224186583022 86.05376726345276,241.6875 86.82974248274695,241.44019054940145 87.3583053132752,241.59638610309776 88.3254628329305,241.39463344109754 88.30859380640322,241.0106508107383 88.56725221281522,240.93906057396816 89.0339619461447,241.15383104403372 89.3882115027809,240.98461800664518 89.53440973249963,241.19938832379194 90.44533716380829,241.40114160139638 90.97952300318866,241.30351912716287 91.51933185136295,240.9000113201364 91.61492300155805,240.13854610719864 92.01977963771787,239.57883085572394 91.91294246981852,239.0191107077444 92.04227167303907,238.7457572279236 91.7667442400998,238.43986028241852 91.59243096623686,237.98426637565717 91.52495486018597,237.30737800895076 91.89045043449732,237.0144913996337 92.44712830916978,237.24229221165297 92.7563937951345,237.22276645953752 92.83511591880233,236.79970703390063 92.70578671561088,236.27901466933326 92.59894954771153,236.23345388579037 92.70578671561088,236.18138437916423 92.58208052124246,236.14233222137045 92.68329468023148,236.20091044911896 92.69454069793574,235.895001335095 92.54834246821702,235.55654699367005 91.8848274256452,235.51098569557507 91.57556193970959,235.27666993563253 91.70489114290103,234.39146931873984 92.23345397342928,233.48672955922302 92.63831060956,233.03760938601408 92.82386990112718,232.97251924420925 93.22310352846398,232.4192503643826 93.92597963285516,231.74881224946148 94.55013361357851,230.96771043648914 94.37019733083434,230.60319299238108 93.81351945616188,230.59668373343084 93.74042034128797,230.38187781626766 93.95409467702848,229.86764253814545 94.20150706576533,229.63330610323464 94.43205042803311,229.66585288165152 94.52764157822821,229.5486844018451 94.33083626901498,229.09953657381266 94.59511768425,228.5462341882194 94.84253007301595,228.40302573204463 95.05058139993344,228.48764894944907 95.02246635573101,228.3314213837184 95.64662033645436,228.0450031885557 95.702850424801,227.86924593366712 96.24828228182741,227.53725868975016 96.29888936135103,227.06205826299265 95.5847672392556,225.70153340240358 95.47230706253322,225.64945532051206" stroke="#4DD2FF" stroke-linecap="round" stroke-linejoin="round" stroke-width="0.5"><title>2025-06-02 11.5km</title><desc>1748829019000</desc></polyline><polyline fill="none" points="121.375,232.50947265942523 121.00405911740381,230.61552734058205 110.30578684431384,231.61131769217172 105.87135720229708,231.10366115939541 101.125,231.3086766214983 105.93037052452564,231.08413585440576 109.81681931723142,231.59179249066074 120.98719816817902,230.62529004136013 121.36656952541671,232.4508975921708" stroke="#4DD2FF" stroke-linecap="round" stroke-linejoin="round" stroke-width="0.5"><title>2025-06-01 4.9km</title><desc>1748740054000</desc></polyline><polyline fill="none" points="143.875,241.32087000586034 143.80167471332243,241.4765398310119 143.65502413996728,241.3633254300512 143.16618889552774,238.64615211385535 127.71899517200654,239.99059347316506 126.28915208205581,235.98553505225573 126.22804767650086,230.94720560885617 125.88586300541647,229.05070839668042 123.625,221.64846016900265 125.11594749544747,226.60220726074476 125.51923657214502,227.36648392787902 126.17916415206855,230.21125454295543 126.83909173205029,230.39524267517845 126.1547223898815,230.3810897506046 126.28915208205581,235.51850658452895 126.75354556425009,237.4290676570381 127.56012371752877,239.42451448741485 127.76787869643886,239.55188246042235 134.3915962582687,238.8725852543721 134.57490947493352,239.41036248322052 139.8421092334902,238.90088937098335" stroke="#4DD2FF" stroke-linecap="round" stroke-linejoin="round" stroke-width="0.5"><title>2025-05-31 5.5km</title><desc>1748696141000</desc></polyline><polyline fill="none" points="164.95487012987724,237.151009642781 164.49464285717113,234.1817196002812 147.83441558445338,235.673985562069 146.2959415584919,231.28850843562395 146.125,226.00444658684137 151.77922077919357,226.06535902754695 146.20389610395068,225.973990357219 146.30909090908244,231.2123705430713 146.71672077925177,232.8417129739537 147.74237012985395,235.18671668277238 162.49594155844534,233.77058248168032 163.81087662337814,233.6944458540238 163.87662337668007,234.2578559795802 166.375,234.0599013127212" stroke="#4DD2FF" stroke-linecap="round" stroke-linejoin="round" stroke-width="0.5"><title>2025-05-29 5.0km</title><desc>1748526381000</desc></polyline><polyline fill="none" points="180.9001584785292,229.5744679626514 180.450871632318,225.89534220308997 188.0566561014275,225.52370920994144 188.875,228.51533330863458 187.99247226619627,225.59803586914495 180.4187797147315,225.95108708669432 180.62737717904383,227.79065868453472 180.33854992076522,225.96966871076438 169.52357369248057,226.97307359923434 171.1442155308323,235.09301740354567 171.77000792388571,236.9882382772048 171.35281299520284,237.24836509505985 172.01069730578456,238.99492126148834 171.12816957209725,236.69095003098482 168.94591917586513,227.01023663725937 172.73276545165572,226.47137184531312 179.58438985736575,226.04399518821447 179.50416006339947,225.5051275403821 169.4433438985725,226.19264805215062 168.8817353406921,224.1300787385262 168.625,224.35306032985682 168.75336767034605,226.34130079485476 176.3431061806623,225.59803586914495" stroke="#4DD2FF" stroke-linecap="round" stroke-linejoin="round" stroke-width="0.5"><title>2025-05-27 6.0km</title><desc>1748352132000</desc></polyline><polyline fill="none" points="28.676537585415645,260.2590301211894 28.75726082007168,260.2056143343798 28.4977932801703,258.91026817022794 21.67667995445663,259.564621495505 20.886745444207918,259.5779755769472 18.04413439639029,259.24412272424524 11.25185079727089,259.54459036824846 11.125,257.32777443843224 11.932232346240198,257.2409698788106 13.045059794996632,257.32109716870036 13.050825740327127,259.24412272424524 18.211346810945543,259.0371331011702 21.348021070618415,259.34427875869005 28.486261389538413,258.6365061663673 31.253915148059605,258.5363490498421 31.375,258.7566945040453 31.29427676537307,258.78340299359843 28.739962984080194,258.89023684286803" stroke="#4DD2FF" stroke-linecap="round" stroke-linejoin="round" stroke-width="0.5"><title>2025-05-25 7.6km</title><desc>1748179850000</desc></polyline><polyline fill="none" points="53.861730013100896,259.86794212245877 53.808650065533584,259.42999063708703 53.54988532108837,259.42999063708703 53.384010484907776,258.6078643114597 53.251310615974944,258.4234609139312 46.848541939718416,258.96898632500233 45.800212975096656,259.1610717976364 41.593627129739616,258.7692169142683 33.73779488861328,259.1226547422775 33.625,257.7857290200409 35.575688073411584,257.63205787753395 35.562418086483376,258.7538500146111 35.82118283092859,258.78458381081145 41.334862385323504,258.54639656242216 45.32912844035309,258.89215199890896 53.62287024903344,258.09307036529935 53.875,259.7834253672554" stroke="#4DD2FF" stroke-linecap="round" stroke-linejoin="round" stroke-width="0.5"><title>2025-05-24 6.6km</title><desc>1748094255000</desc></polyline><polyline fill="none" points="76.375,259.65227791183133 76.15471394039923,257.84772208816867 67.81647864627303,258.5563214956055 66.65793714745087,258.7547283590393 65.33622078970075,258.7736242286119 61.5260878324043,258.31067431441625 56.125,258.52797762328555 61.50161160354037,258.30122633291467 65.28726833197288,258.7830721619903 73.9273771152366,258.05557847575255" stroke="#4DD2FF" stroke-linecap="round" stroke-linejoin="round" stroke-width="0.5"><title>2025-05-18 4.7km</title><desc>1747565909000</desc></polyline><polyline fill="none" points="96.24302175777848,259.4750439311465 96.02272401947994,258.1793650913678 90.15005010020104,258.6761568819202 89.17030489552417,258.8507044593571 88.38187088462291,258.84399109953665 85.69771686228341,258.49489544653625 78.66558116232045,258.81713765347376 78.625,258.6157364588653 82.58456198111526,258.3606273950354 85.26871600342565,258.3136335123563 88.40506012024707,258.81713765347376 96.09808903522207,258.1323710793513 98.68948611506494,258.0249560688535 98.7938376753591,258.03838295475 98.81122960205539,258.1323710793513 98.875,258.0920904709492" stroke="#4DD2FF" stroke-linecap="round" stroke-linejoin="round" stroke-width="0.5"><title>2025-05-17 5.7km</title><desc>1747487200000</desc></polyline><polyline fill="none" points="120.26839848424424,257.91284343197185 117.58670721980161,258.05315035773674 116.27817112085177,258.2869947572981 110.26859792578034,258.74532805207855 106.50453729555011,258.2589334608201 101.125,258.47406984795816 106.43184084564564,258.2776409927683 110.1232050259132,258.7359743342313 120.84997008374194,257.8005977369321 121.2053749501647,259.6152196434123 121.375,259.69940226307517" stroke="#4DD2FF" stroke-linecap="round" stroke-linejoin="round" stroke-width="0.5"><title>2025-05-11 5.0km</title><desc>1746965499000</desc></polyline><polyline fill="none" points="143.875,259.4775495903741 143.5481527976517,258.0224504096186 134.3601147775771,258.8551403641177 130.62679340026807,258.4261799216911 123.625,258.720564779047 130.45247489237227,258.434590932171 133.93884505017195,258.8551403641177 143.60625896698912,258.0392725120546" stroke="#4DD2FF" stroke-linecap="round" stroke-linejoin="round" stroke-width="0.5"><title>2025-05-10 5.3km</title><desc>1746870058000</desc></polyline><polyline fill="none" points="166.33078602619935,258.40866293494037 166.27920305676525,258.2635936604129 166.375,258.3745290105944 165.98444323145668,258.4427968453383 156.95742358081043,259.2364063395871 153.13291484717047,258.78413518413436 146.125,259.0742716779714 153.09606986900326,258.78413518413436 154.88673580787145,258.92920355673414 156.515283842833,259.2278729441532 163.90638646288426,258.5622654222243" stroke="#4DD2FF" stroke-linecap="round" stroke-linejoin="round" stroke-width="0.5"><title>2025-05-05 5.4km</title><desc>1746434825000</desc></polyline></svg>