<?xml version="1.0" encoding="utf-8" ?>
<svg baseProfile="full" height="300mm" version="1.1" viewBox="0,0,200,300" width="200mm" xmlns="http://www.w3.org/2000/svg" xmlns:ev="http://www.w3.org/2001/xml-events" xmlns:xlink="http://www.w3.org/1999/xlink"><defs /><rect fill="#222222" height="300" width="200" x="0" y="0" /><text fill="#FFFFFF" style="font-size:12px; font-family:Arial; font-weight:bold;" x="10" y="20">Over 3km Runs</text><text fill="#FFFFFF" style="font-size:4px; font-family:Arial" x="10" y="280">Runner</text><text fill="#FFFFFF" style="font-size:9px; font-family:Arial" x="10" y="290">tang-hi</text><text fill="#FFFFFF" style="font-size:4px; font-family:Arial" x="65" y="280">SPECIAL TRACKS</text><rect fill="yellow" height="2.6" width="2.6" x="65" y="283" /><text fill="#FFFFFF" style="font-size:3px; font-family:Arial" x="70" y="285.5">Over 20.0 km</text><rect fill="red" height="2.6" width="2.6" x="65" y="287" /><text fill="#FFFFFF" style="font-size:3px; font-family:Arial" x="70" y="289.5">Over 40.0 km</text><text fill="#FFFFFF" style="font-size:4px; font-family:Arial" x="120" y="280">STATISTICS</text><text fill="#FFFFFF" style="font-size:3px; font-family:Arial" x="120" y="285">Number: 87</text><text fill="#FFFFFF" style="font-size:3px; font-family:Arial" x="120" y="290">Weekly: 3.8</text><text fill="#FFFFFF" style="font-size:3px; font-family:Arial" x="141" y="285">Total: 452.9 km</text><text fill="#FFFFFF" style="font-size:3px; font-family:Arial" x="141" y="290">Avg: 5.2 km</text><text fill="#FFFFFF" style="font-size:3px; font-family:Arial" x="167" y="285">Min: 3.0 km</text><text fill="#FFFFFF" style="font-size:3px; font-family:Arial" x="167" y="290">Max: 11.5 km</text><polyline fill="none" points="21.576248567085713,31.090909090911737 21.590368305856828,32.536844821006525 21.180895880854223,35.28976921272988 21.01851888472447,35.61651955948764 21.004399145924253,36.46606424709171 20.390190508391242,40.20722156215197 20.425489855435444,40.607466078137804 19.93835886704619,44.04621954108006 19.93835886704619,45.00185651139327 20.566687243350316,50.727272727272066 20.97615966835292,50.66193504042894 20.277232598076807,44.19324135242641 21.47035052612773,35.82890657285316 21.604488044657046,35.632857041971874 21.540949220070615,35.338781849393854 21.879822951130336,32.904451453796355" stroke="#4DD2FF" stroke-linecap="round" stroke-linejoin="round" stroke-width="0.5"><title>2025-10-11 5.0km</title><desc>1760186515000</desc></polyline><polyline fill="none" points="44.143903302261606,31.090909090911737 44.164916812005686,31.81226424639317 44.255975354259135,31.9500504441894 44.20694383152295,32.77676263281319 43.80068264299189,35.45946572367393 43.653588074754225,35.718815922911745 43.653588074754225,36.472547653691436 43.11424132451066,40.11143185687979 43.00216927251313,40.33024588441913 43.03719178872416,40.840809615081525 42.57489457426709,44.163446150945674 42.79203417501412,47.22663239666872 43.22631337650819,50.727272727272066 43.70261959749041,50.686756934956065 43.00216927251313,45.37090661939874 42.939128743251786,44.090511712063744 43.401425957737956,40.79218463863799 43.53451151950867,40.508538352063624 44.01782224373892,36.545489056181395 44.24196634773398,35.7593393153802 44.171921315282816,35.508093950258626 44.43809243873693,33.68451516713685" stroke="#4DD2FF" stroke-linecap="round" stroke-linejoin="round" stroke-width="0.5"><title>2025-10-10 5.0km</title><desc>1760093219000</desc></polyline><polyline fill="none" points="66.38937850674847,50.727272727272066 67.63836401957087,41.51868321366055 67.54915076866746,39.65002224032651 66.91573668719502,34.601368453782925 67.20121909008594,35.05565432619915 67.1922977649956,33.88896151599329 67.88816112210043,34.06448252988048 67.18337643990526,33.87863674100663 67.1476911395439,34.53942022281262 67.35288161662174,35.0246803539776 66.95142198755639,35.26214723274461 67.00494993809843,35.77837766211451 66.54996235843282,35.830000560730696 66.13958140421892,32.71193040754588 65.67567249946296,31.865285559710173 65.73812177515356,31.689760744397063 66.16634537948994,31.813660645530035 66.13958140421892,31.21480972277641 65.96115490241209,31.090909090911737 64.31963108561467,31.35936026890704 65.95223357726354,31.142534372556838 66.1574240543996,31.32838516918855 66.17526670458028,31.782685684425815 65.74704310018569,31.669110746152 65.70243647473399,31.85496057898854 66.22879465512233,33.042326481998316 66.58564765879419,36.986346612095076 67.07632053882116,39.97007158731867 67.13876981445355,41.36382311358466 66.21095200494165,48.032917567237746" stroke="#4DD2FF" stroke-linecap="round" stroke-linejoin="round" stroke-width="0.5"><title>2025-10-08 5.0km</title><desc>1759920144000</desc></polyline><polyline fill="none" points="89.41280184488278,31.090909090911737 89.40113785897847,32.23813044113922 89.59942562034121,32.292117084085476 89.49444974667858,33.641776026939624 88.82960254693171,38.163033571865526 88.59632282762323,38.70287493536307 88.43302702426445,41.280587200584705 87.81483576830942,45.39672560454346 87.5349001052673,46.27391894478933 87.58155604905915,46.98916461308545 87.05667668086244,50.72727272727934 87.5465640911716,46.287414181715576 87.67486793675926,46.07149022642989 88.36304310848936,46.07149022642989 89.30782597122015,39.431657296358026 89.57609764841618,38.75685895107745 89.47112177475356,38.35197829862591 90.13596897450043,33.46632113988744 90.34592072176747,33.27736946384539" stroke="#4DD2FF" stroke-linecap="round" stroke-linejoin="round" stroke-width="0.5"><title>2025-10-07 3.0km</title><desc>1759844077000</desc></polyline><polyline fill="none" points="111.98095433387789,31.09090909090446 112.06535677119973,31.139741492857866 111.96688726096181,31.758282673814392 112.0794238440867,31.798976005120494 112.00908847965184,32.67794691479503 111.62224397517275,35.3066634674542 111.46047263691435,35.66474821059819 111.34090251731686,37.341214583029796 110.95405801286688,39.95350245467125 110.82042082038242,40.23018839342694 110.86965557551594,40.63707774410432 110.39137509724242,43.84329353814246 110.36324095146847,45.015076436815434 110.9962592315278,50.727272727272066 111.41123788180994,50.670315514478716 111.08769520532223,47.7817180737693 111.14396349687013,47.553880606617895 110.75008545594756,45.36498050800583 110.7219513101445,44.41291236515826 112.23416164590162,33.735954661882715" stroke="#4DD2FF" stroke-linecap="round" stroke-linejoin="round" stroke-width="0.5"><title>2025-10-06 5.0km</title><desc>1759755043000</desc></polyline><polyline fill="none" points="137.9704221302527,50.61443046329077 138.03784583619563,50.727272727272066 138.72171485424042,50.56929352400766 138.88545814028475,50.27590295005939 138.08600562624633,48.49297352719441 138.21122108021518,48.32370651587553 136.82421912811697,45.32199325230613 136.1499820681638,44.430490598220786 135.90918311814312,43.57283539341006 135.90918311814312,42.04935178565211 137.4888242301531,41.631800600247516 137.49845618818654,41.32710004757246 134.12727088812971,38.415472776207025 132.0467679600115,35.95519818599132 131.6518576820381,35.22161901164509 129.52319496392738,32.60326420897036 128.90674965194194,31.090909090911737 129.7736258719233,32.84027312778926 131.39179481600877,34.71375352926407 132.1045597079792,35.89876919917151 134.50291725009447,38.61861216026591 135.8032315801247,39.465022066186066 137.29618507018313,41.13525110168848 137.16133765818086,41.41738178420201 135.56243263016222,41.778507961076684 135.81286353815813,42.26376932221319 135.7935996221495,43.47127050133713 135.98623878217768,44.272502003361296 137.00722633022815,45.931370495767624 137.9704221302527,48.199577202387445 134.67629249411402,49.36187326051004" stroke="#4DD2FF" stroke-linecap="round" stroke-linejoin="round" stroke-width="0.5"><title>2025-10-04 5.0km</title><desc>1759568734000</desc></polyline><polyline fill="none" points="156.27795134132612,31.641186193555768 156.29334813787136,31.406642292284232 155.78525385053945,31.271328207381885 153.23708401541808,31.090909090911737 155.75446025739075,31.289370097889332 156.316443332762,31.46076786566846 156.29334813787136,31.72237431559188 156.77834723037085,32.3357931645005 156.6705696542631,32.462084728467744 156.74755363722215,32.76879202765849 156.93231519623077,32.976269864411734 159.749928971607,40.21963373035396 156.35493532425608,41.473403391799366 156.74755363722215,43.21421824317804 157.48659987337305,45.568320247104566 157.80993260166724,47.38120475821779 158.36421727880952,48.6529065463983 158.148662126594,48.878383593175386 158.32572528731544,49.18503141317342 158.47199485491728,49.96968401324557 158.37961407538387,49.77126680131187 158.1409637282777,49.69911497258727 157.89461498288438,49.82538063251559 157.8253293982707,50.05987350133364 158.17175732145552,50.673159472491534 158.45659805834293,50.727272727272066 158.64135961735155,50.52885729069385 158.6259628207772,50.24927111361467 158.31802688902826,49.74420987274061 158.09477333852556,49.68107700579276 157.917710177775,49.78930474886147 157.84842459313222,50.15006289333542 158.1794557197427,50.673159472491534 158.51048684635316,50.700216104210995 158.66445481221308,50.312403556854406 158.38731247370015,49.81636166304088 158.01009095730842,49.70813395454752 157.83302779655787,50.09594926964928 158.00239255902125,50.48376280844968 158.26413810098893,50.71825385389093 158.54897883784724,50.673159472491534 158.67215321052936,50.44768720535649 158.47199485491728,49.906551314430544 158.15636052485206,49.69911497258727 157.87151978802285,49.83439960100077 157.91001177948783,50.29436572074337 158.2718364992761,50.727272727272066 158.63366121906438,50.54689507686999 158.64135961735155,50.28534680123266 158.28723329587956,49.73519089462934 158.01009095730842,49.71715293552552 157.8561229914485,49.852437535111676 157.94850377098192,50.32142247346928" stroke="#4DD2FF" stroke-linecap="round" stroke-linejoin="round" stroke-width="0.5"><title>2025-10-02 5.0km</title><desc>1759403720000</desc></polyline><polyline fill="none" points="178.6817638470966,50.727272727272066 179.1449471420201,47.78835098663694 179.36881906789495,47.654355252139794 179.84744180599228,44.14359421988047 179.90147985701333,42.49089735123562 179.38425851106877,39.17647645439138 179.11406825567246,36.1924973374189 178.99827243195614,35.74578515631583 178.64316523919115,35.17399025049235 178.73580189814675,35.03104094260925 179.09862881252775,35.09358129341854 178.92879493770306,33.35136915339535 178.55824830173515,32.89570797127817 178.6045666312275,31.957574566658877 178.27261860322324,31.090909090911737 178.6122863528435,32.0290517500398 178.55824830173515,32.8689042987462 178.92879493770306,33.35136915339535 179.09862881252775,35.09358129341854 178.72808217655984,35.039975281149964 178.6817638470966,35.17399025049235 179.12950769884628,36.16569467059162 179.90919957862934,42.74997080631147 179.7856840333261,44.75999752727512 178.98283298878232,50.0841128420725 178.85931744347909,50.093045650464774 178.789839949226,50.3520966994256" stroke="#4DD2FF" stroke-linecap="round" stroke-linejoin="round" stroke-width="0.5"><title>2025-09-30 5.0km</title><desc>1759224370000</desc></polyline><polyline fill="none" points="20.61495984075009,72.54545454545587 20.660798448807327,71.9266363569186 20.83651311302674,71.80287219098682 21.600489913864294,66.73723059642361 21.74564550604555,64.82759280186292 20.97402893716935,58.29383894163766 20.828873344988097,57.701444563717814 20.500363320606994,57.135571538470685 20.553841696702875,57.02946993626392 20.943469865131192,57.09136255327758 20.76011543290224,55.278774807396985 20.39340656850254,54.88088463478198 20.43160540855024,53.94362503191951 20.06489654412144,52.90909090908826 20.408686104492517,53.74025604824419 20.40104633651208,54.87204261027364 20.767755200940883,55.31414273465634 20.95874940115027,57.05599534895009 20.867072185035795,57.12672974322777 20.553841696702875,57.01178632329538 20.508003088645637,57.11788794708991 20.95874940115027,58.16121368525637 21.172662905359175,60.8225218019943 21.715086433978286,64.09378564645158 21.753285274025984,65.40225673339592 20.851792649016716,71.97967808839894 20.676077984826406,72.0327197875522 20.59204053672147,72.44821197875717" stroke="#4DD2FF" stroke-linecap="round" stroke-linejoin="round" stroke-width="0.5"><title>2025-09-28 5.0km</title><desc>1759056716000</desc></polyline><polyline fill="none" points="44.1002628801798,52.90909090909554 44.149743661342654,53.59615823942295 44.255773906596005,53.60433757706778 44.19215575940325,54.42226714583376 43.768034778215224,57.1540916745289 43.61959243481397,57.47307112940325 43.61959243481397,58.25006707700231 42.98341096303193,62.11039892848203 43.039960427209735,62.46207250488078 42.53808393274085,65.93783339004585 42.56635866482975,67.24631626735936 43.17426540455199,72.48003521062492 43.59838638576912,72.54545454545587 43.252020917774644,69.63424271971599 43.3156390649674,69.45433291883091 42.94099886488402,67.0091553232487 42.91272413282422,65.92965530521906 44.050782099046046,57.8411227761535 44.220430491521256,57.530323718288855 44.1568123443285,57.29313415638171 44.47490308023407,54.81487038691557" stroke="#4DD2FF" stroke-linecap="round" stroke-linejoin="round" stroke-width="0.5"><title>2025-09-27 5.0km</title><desc>1758971882000</desc></polyline><polyline fill="none" points="65.80540778895374,72.54545454545587 65.88194325432414,71.95208845979505 66.08093546429882,71.73953843145136 66.95343976956792,65.0616610485522 66.11920319695491,58.00239336039522 65.69825813741772,57.14319626377255 65.75948650971986,57.02804549343273 66.06562837120146,57.160911753402615 66.13451029005228,57.09890752395586 65.96613226621412,55.35391325380624 65.5911084858817,54.875583846842346 65.62937621859601,53.89234292769834 65.24669889171491,52.90909090908826 65.63702976511559,53.87462677332951 65.61406912552775,54.91987371708092 65.99674645237974,55.41591872534627 66.14981738314964,57.090049773294595 65.75948650971986,57.02804549343273 65.73652587013203,57.16976949684613 66.18808511580573,58.23269217291818 66.50953407035558,61.5985284235212 66.9610933160875,64.69852572438685 66.86159721110016,66.45218963836669 66.05797482468188,71.79267598711886" stroke="#4DD2FF" stroke-linecap="round" stroke-linejoin="round" stroke-width="0.5"><title>2025-09-25 5.0km</title><desc>1758803583000</desc></polyline><polyline fill="none" points="89.28446534657269,52.90909090908826 89.29153403316741,54.430446399215725 88.67655829814612,57.9801640705773 88.6694896115514,59.07612822794181 88.11106336937519,62.07768502814724 88.15347548903082,62.45389406585309 87.6515987397579,66.12592911095999 87.89193408447318,69.23353397689061 88.30898659443483,72.54545454545587 88.71190173117793,72.48003521058126 88.01210175684537,66.07686070410273 89.7509986628138,54.32411603606306" stroke="#4DD2FF" stroke-linecap="round" stroke-linejoin="round" stroke-width="0.5"><title>2025-09-23 5.1km</title><desc>1758638106000</desc></polyline><polyline fill="none" points="111.14672688112478,72.54545454545587 111.05554223063518,72.51028367345134 111.07833839327213,71.78048485358886 111.24551025254186,71.62221441780275 111.61024885467486,69.45915611437522 112.1421593161358,64.80751828308712 111.3214974613511,57.99228528296226 110.89596909217653,57.11286126321647 110.98715374272433,57.0073297799172 111.34429362395895,57.042506955323915 111.17712176463101,55.301219597415184 110.81238316252711,54.887878560432 110.82758060426568,53.832530781131936 110.43244711865555,52.90909090908826 110.84277804606245,53.91168231132906 110.8199818833964,54.89667307115451 111.1847204855294,55.2836306573663 111.16192432289245,55.872858201692 111.35949106572662,57.0337126628001 110.99475246359361,56.989741186844185 110.93396269658115,57.1040669778522 111.38988594923285,58.168169013864826 111.70903222606285,61.54506729142304 112.16495547874365,64.5525063311652 112.03577722384944,66.487060980362 111.35189234482823,71.0155083988866" stroke="#4DD2FF" stroke-linecap="round" stroke-linejoin="round" stroke-width="0.5"><title>2025-09-21 5.0km</title><desc>1758459157000</desc></polyline><polyline fill="none" points="124.09789803280728,56.59063849881932 124.07792207790771,57.16850570263341 124.70716465625446,57.13383375317062 124.87696027266793,57.27252148748812 125.23652746033622,57.14539107080782 127.83340159326326,57.13383375317062 128.063125074259,57.27252148748812 129.8809369673836,57.26096418277302 130.15061235812027,57.38809447027597 130.7898429139168,57.22629226150457 134.14580333197955,57.22629226150457 135.89369938295567,57.26096418277302 136.0834709542687,57.41120905274147 137.36193206586177,57.318750694728806 143.71428571426077,57.5152246157013 143.08504313591402,62.25361051120126 142.7454519031453,62.773665235545195 136.11343488661805,62.738994994564564 135.74387972149998,68.86390695573209 136.07348297681892,63.143480481965526 141.89647382119438,63.17815059966961 142.75543988059508,63.3399443426315 143.06506718101446,62.32295127848192 143.30477863945998,60.38139381758083" stroke="#4DD2FF" stroke-linecap="round" stroke-linejoin="round" stroke-width="0.5"><title>2025-09-20 5.0km</title><desc>1758380898000</desc></polyline><polyline fill="none" points="157.1746303688269,52.90909090908826 157.04823624761775,53.06347086414462 157.05525814325665,53.615986155760766 157.16058657757821,53.68098770378856 157.09738951700274,54.477252379088895 156.67607577968738,57.247866653400706 156.47244080662495,57.979097813004046 156.50755028476124,58.539703841131995 156.0160175912315,61.87888442709664 155.89664536566124,62.04949575030332 155.94579863498802,62.43946312256594 155.46830973270698,65.89221629880922 155.50341921081417,67.200161525172 156.08623654741677,72.54545454545587 156.43733132854686,72.53733127075975 156.51457218037103,72.43985190999229 156.21263066862593,69.28795524994348 155.84749209627626,67.07018034779321 155.84749209627626,65.72973713777901 156.97099539579358,57.80035303583281 157.12547709947103,57.52411032169766 157.06228003886645,57.296615605358966 157.5187032543181,54.29037464695284" stroke="#4DD2FF" stroke-linecap="round" stroke-linejoin="round" stroke-width="0.5"><title>2025-09-18 5.2km</title><desc>1758195038000</desc></polyline><polyline fill="none" points="178.65887284465134,72.37733863907488 178.6435795262223,72.54545454545587 178.8194526884181,72.51006175004295 178.89591928065056,71.87298897254368 179.06414578363183,71.7579614464994 179.83645836543292,66.46653097148373 179.95115825385437,64.94452151489531 179.13296571664978,58.04205161436403 178.69710614078213,57.148230226033775 178.7735727330728,56.980084582581185 179.1406123758934,57.05973255945719 178.98767919137026,55.351709965580085 178.597699570877,54.89151161693735 178.6359328669787,53.91800709116069 178.2306599279982,52.90909090909554 178.65887284465134,53.953407446533674 178.6359328669787,54.90036160811724 178.98767919137026,55.325160126980336 179.1482590351079,57.06858233016828 178.7735727330728,56.99778413931199 178.72004611845477,57.13938046343537 179.08708576127538,57.78541076903639 179.22472562736948,58.44028591061942 179.46941872261232,61.21017627084075 179.94351159461075,64.32509144314099 179.95115825385437,65.70552956932079 179.56117863330292,68.54597762486083 179.40059878956527,69.51931856836745 179.20943230894045,69.69628847997228 179.01061916907202,71.51020933585096 178.83474600687623,71.95262332460698" stroke="#4DD2FF" stroke-linecap="round" stroke-linejoin="round" stroke-width="0.5"><title>2025-09-16 5.1km</title><desc>1758026219000</desc></polyline><polyline fill="none" points="21.73167390213348,74.72727272727207 21.555908305337653,74.80862633670768 21.534816433733795,75.32928747958795 21.661367663444253,75.4757228159724 21.61215329632978,76.27297717114561 21.197346487868344,79.0633049013486 21.05673401040258,79.30735226527031 20.902060285239713,81.43866763223923 20.431008485757047,83.8953042864232 20.466161605116213,84.33456250145537 19.981048557936447,88.09256209429441 20.641927201941144,94.36363636363967 21.028611514921067,94.28230261499994 20.34664099928341,87.79160325372504 20.74738656001864,84.83889303670003 20.944244028418325,84.12306810605514 21.330928341427352,80.75535132605728 21.534816433733795,79.52699425687024 21.6543370395666,79.33989185759128 21.605122672423022,78.92501106498094 21.83713326024008,77.37122272168926" stroke="#4DD2FF" stroke-linecap="round" stroke-linejoin="round" stroke-width="0.5"><title>2025-09-14 5.0km</title><desc>1757842188000</desc></polyline><polyline fill="none" points="44.04304385307478,74.72727272727207 44.1630616937764,75.78926195726672 43.68299033102812,79.00782055946911 43.478254014538834,79.73483753280743 43.53473299840698,80.03707860981376 43.17467947633122,82.74086041045666 42.913464175973786,83.88442656575353 42.94876354094595,84.31734379562113 42.461632305174135,87.9357872399487 42.70166798654827,91.07218439489952 43.118200492463075,94.36363636363967 43.53473299840698,94.27379703054612 42.81462595425546,87.97662653039879 44.55135470780078,75.99348904714134" stroke="#4DD2FF" stroke-linecap="round" stroke-linejoin="round" stroke-width="0.5"><title>2025-09-13 5.1km</title><desc>1757760467000</desc></polyline><polyline fill="none" points="66.85068906794186,74.72727272727207 66.81546298472676,76.26803287323855 66.42093085279339,78.96632988983765 66.2659360866528,79.29240193394071 66.08980567060644,81.24065478775447 65.63186658886843,83.92248197623121 65.67413788870908,84.24853388282645 65.18097272378509,87.74535730088246 65.1950631570653,88.6501049859362 65.82208743822412,94.36363636363967 66.23775522012147,94.30658456521633 65.95594655440073,91.19312494623591 65.56845963909291,88.90278044563456 65.54027877253247,87.97358290391276 66.6745586518955,79.7733557804022 66.8436438513163,79.30870550136024 66.78728211819544,79.09675886647165 67.02681948401732,77.42562155931228" stroke="#4DD2FF" stroke-linecap="round" stroke-linejoin="round" stroke-width="0.5"><title>2025-09-11 5.0km</title><desc>1757592265000</desc></polyline><polyline fill="none" points="88.30855749212787,94.28421732076094 88.46107835005387,94.20479820526089 88.48395647873986,93.63121354790928 88.65935546538094,93.5076717412303 88.76612006593496,92.88113558719488 89.00252739572898,90.64851225531311 89.47534205534612,87.99223343476478 89.53635039849905,86.15661786388955 88.73561589431483,79.77578679515864 88.30093144919374,78.95498194611719 88.37719187815674,78.81376742607972 88.7508679801249,78.84024516608042 88.58309503638884,77.17213177052327 88.20941893442068,76.68669592405786 88.2628012347268,75.8040783378965 87.86624700407265,74.72727272727207 88.25517519182176,75.68933739241038 88.21704497735482,76.73082656774932 88.58309503638884,77.13682743686513 88.74324193724897,78.86672289802664 88.36956583528081,78.81376742607972 88.30093144919374,78.92850424111384 88.56021690770285,79.27271377619036 88.77374610883999,79.92582555214176 89.10166595340706,83.43842352007778 89.53635039849905,86.28017013010685 89.47534205534612,88.09813314902567 88.56021690770285,94.31069034313987 88.3924439639668,94.36363636363967" stroke="#4DD2FF" stroke-linecap="round" stroke-linejoin="round" stroke-width="0.5"><title>2025-09-09 5.2km</title><desc>1757417515000</desc></polyline><polyline fill="none" points="111.98560922362958,74.72727272727934 111.92924754772685,75.34684121085593 112.09128736593993,75.3876021275646 111.9926544331247,76.39031415790669 111.61925833032001,78.87665984702471 111.43608288367977,79.37391973966442 111.20359097063192,81.89277907036012 110.79496882040985,83.97138984905177 110.83019486782723,84.40340807683242 110.35816583223641,87.74535730302159 110.34407541327528,88.7397641130301 110.61883858326473,91.29093179869233 110.99223468604032,94.31473482462752 111.40085683623329,94.36363636363967 111.38676641727216,94.04577582774073 111.60516791135888,93.84201841206959 111.60516791135888,93.72791403339943 111.26699785600067,93.483404104496 110.72451672551688,87.95728109877382 111.79538856749423,80.22985168195737 112.02788048057118,79.42283038231835 111.95742838570732,79.11306247532775 112.25332718412392,76.96910970668978" stroke="#4DD2FF" stroke-linecap="round" stroke-linejoin="round" stroke-width="0.5"><title>2025-09-07 5.0km</title><desc>1757247375000</desc></polyline><polyline fill="none" points="133.37864694432938,94.30107867245533 133.55628142034402,94.36363636363967 133.60262084883288,93.73805744967831 133.8265947533364,93.39845560434333 134.56802560956567,88.4383318293767 134.70704389514867,86.54358006862458 133.86521094373893,79.65241686195077 133.41726313481922,78.80327376788046 133.4944955156243,78.6870746011773 133.86521094373893,78.74964340232691 133.70302294395515,77.0066387096158 133.34003075392684,76.53289299891185 133.37864694432938,75.63902621348825 133.08516389707802,74.72727272727207 133.37864694432938,75.54963903495809 133.34775399201317,76.52395437604719 133.71074618204148,76.95300724788831 133.8883806579979,78.73176660653553 133.47904903948074,78.66025938704115 133.4404328490491,78.78539698299574 133.72619265818503,79.21443881667074 133.911550372286,79.8669359247142 134.1895869433356,82.89696176983125 134.69932065706234,86.3648277948887 134.69932065706234,87.42839847225696 134.16641722910572,91.2356972940106 133.78025532481843,93.66656243330362 133.60262084883288,93.91679473629483" stroke="#4DD2FF" stroke-linecap="round" stroke-linejoin="round" stroke-width="0.5"><title>2025-09-04 5.0km</title><desc>1756985562000</desc></polyline><polyline fill="none" points="157.0738645591191,74.77641054882406 157.15879500767915,74.72727272727207 157.20833776940708,74.84192759759753 157.18002761987736,75.33330376590311 157.2578805311059,75.33330376590311 157.20126023204648,76.21777331975318 156.81907321323524,78.70733921588544 156.5642818673805,79.70641969884309 156.5996695542999,80.09949715033144 155.99100133916363,83.85001477829792 156.02638902614126,84.19393997573934 155.54511648390326,87.58398127969122 155.58758170821238,89.24619583368622 156.16793977381894,94.35544871815364 156.50058403090225,94.36363636363967 156.5713594047411,94.26538456282287 156.23871514765779,91.36690259062743 156.32364559627604,91.17857953647763 156.097164399951,90.11413661484403 155.89191581576597,87.87057244046446 156.2811803719669,84.81627707998268 156.48642895615194,84.03835494910163 156.86861597493407,80.63997551654757 157.0809420964797,79.40342118847911 157.20126023204648,79.23963773568539 157.13048485817853,79.01852954657807 157.44189650312182,76.70095166187093" stroke="#4DD2FF" stroke-linecap="round" stroke-linejoin="round" stroke-width="0.5"><title>2025-09-02 5.1km</title><desc>1756811867000</desc></polyline><polyline fill="none" points="179.6609151767043,74.72727272727207 179.63241487240884,76.1700724056791 179.2547858405742,78.80002410329325 179.01965833015856,79.69864009901357 179.0267834062397,80.39938878676185 178.4496522443951,83.9112851805694 178.00077245180728,87.87641278938099 178.02927275607362,89.07992672022374 178.59215376584325,93.68773636914557 179.14790969947353,94.36363636363967 179.01965833015856,94.2976951484452 178.91990726516815,93.51463912412873 178.70615498296684,91.47041517438629 178.76315559155773,91.26434135587624 178.38552655972308,88.84911721219396 178.3712764075608,87.68681650223152 179.51841365525615,79.5749779377802 179.67516532886657,79.24521125316824 179.7606662416947,77.81895491094474 180.1810457299871,75.54348826828209" stroke="#4DD2FF" stroke-linecap="round" stroke-linejoin="round" stroke-width="0.5"><title>2025-08-31 5.1km</title><desc>1756640573000</desc></polyline><polyline fill="none" points="21.540949027606985,96.54545454545587 21.60448783278116,98.13026409017766 21.166776063560974,100.86684620344022 21.018518851400586,101.1119087145562 20.94792017893633,101.60203149617882 20.88438137373305,102.85183106771728 20.489028807991417,105.55557936253899 20.38313079928048,105.7352814656333 20.425490002759034,106.12735738768242 19.945419030060293,109.49259710999468 19.973658499045996,110.88112586451462 20.53138801146997,115.72445325976878 21.067937922111014,116.1818181818162 20.954980046197306,116.00213941538095 20.67964522363036,112.87403112911124 20.333711728599155,110.79128061160736 20.333711728599155,109.24756013566366 20.877321506501175,105.94765616066434 21.279733939503785,102.50058217023616 21.60448783278116,101.15275239378389 21.555068762070732,100.84233991125075 21.872762788116233,98.47336307381192" stroke="#4DD2FF" stroke-linecap="round" stroke-linejoin="round" stroke-width="0.5"><title>2025-08-30 5.0km</title><desc>1756550382000</desc></polyline><polyline fill="none" points="43.10958282471984,116.17298590728024 43.376734245131956,116.1818181818162 44.23161879053805,110.23749445854628 44.35374515413423,108.25007414229913 43.84997390420176,104.69910335030727 43.63625276784296,102.01369573360716 43.50649350651656,101.42183486580325 43.11721572242095,100.81230229494395 43.17064600653248,100.67096079813928 43.5675566883001,100.73279773128161 43.376734245131956,98.93950879927434 43.025620949687436,98.57731294517725 43.048519642907195,97.50838466826099 42.65924185881158,96.54545454545587 43.05615254060831,97.5525555187487 43.010355154256104,98.53314261574997 43.376734245131956,98.96601087566523 43.552290892839665,100.7151300405967 43.17064600653248,100.6797946484221 43.11721572242095,100.79463462042622 43.4377974269446,101.29816193637816 43.64388566557318,102.1462013456694 43.8652396996622,104.92877251730533 44.35374515413423,108.12641093161801 44.26215038148803,109.99900642044668 43.483594813296804,115.34274809448834" stroke="#4DD2FF" stroke-linecap="round" stroke-linejoin="round" stroke-width="0.5"><title>2025-08-28 5.0km</title><desc>1756381580000</desc></polyline><polyline fill="none" points="66.76828938504332,96.54545454545587 66.92999356990913,97.38339276384067 66.90187110297848,98.14810542593477 66.46597286561155,100.88148672121315 66.31129929749295,101.166208573537 66.29020744728041,102.0610420901794 65.67151317489333,105.70535167290654 65.72072749203653,106.16901309856621 65.24967617099173,109.23561845224322 65.21452308734297,110.48012241150718 65.32701295503648,110.61026549969392 65.2848292546405,111.13896962114086 65.81915612626472,115.7507483734953 66.40972793172114,116.1818181818162 66.21990127998288,116.0110172144341 65.56605392391793,110.62653337084339 65.53793145701638,109.57724891545513 66.0230440114974,106.15274432205479 66.14256449596724,105.98192196914897 66.25505436366075,104.55025364077301 66.74719753488898,101.73564924107632 66.71204445121111,101.35331095383299 66.84562616908806,101.17434346873051 66.78938123525586,100.9302962535221 66.99326912048855,99.53107786240435" stroke="#4DD2FF" stroke-linecap="round" stroke-linejoin="round" stroke-width="0.5"><title>2025-08-26 5.0km</title><desc>1756206850000</desc></polyline><polyline fill="none" points="89.31903733627405,96.54545454544859 89.33315707647125,97.21532630881848 89.44611499833991,97.23983370652422 89.38257616729243,98.07308078357892 88.98722344092675,100.78515853307908 88.85308590874774,101.08740249636321 88.69070889614522,102.92534808380879 88.20357785827946,105.69444011284213 88.12591928703478,106.97684866068448 87.76586591123487,109.38641451187868 87.82940474228235,111.207835028501 88.37301474102424,116.06747719502891 88.3941943513637,116.1818181818162 88.81778655821108,116.1328149216497 88.5142121433164,112.9638740553055 88.14003902726108,110.8076161188219 88.10473967669532,109.71312974778994 88.55657136399532,106.37240386733902 88.71894837662694,105.90681491575378 89.26255837533972,101.45499497464334 89.42493538797135,101.12824618803279 89.36845642706612,100.86684620276355 89.63673149136594,98.83279853354179" stroke="#4DD2FF" stroke-linecap="round" stroke-linejoin="round" stroke-width="0.5"><title>2025-08-24 5.0km</title><desc>1756042259000</desc></polyline><polyline fill="none" points="111.04836822679499,116.1818181818162 111.26740966472425,115.86499098421336 112.02623178900103,110.69602239916276 112.16704414199921,108.42375390271627 111.75242999158218,105.80740482351393 111.33781584119424,101.81483472132822 110.88408714835532,100.89135764109233 110.9936078673345,100.76460513743223 111.32999293270404,100.8008201568955 111.15788894574507,99.02626688061719 110.78238933786633,98.60073099042347 110.84497260581702,97.68627464261226 110.42253554693889,96.54545454544859 110.82150388037553,97.51424715125177 110.79803515484673,98.60978496669122 111.17353476275457,99.0534286768816 111.35346165820374,100.8098739094421 111.25958675626316,100.90041138443485 110.9310245992965,100.78271264900104 110.9310245992965,100.9094651268606 111.23611803076346,101.46174167452409 111.40822201769333,102.13171190449793 111.6116176386422,104.59426186595374 112.1748670504603,108.5142836369123 112.04970051450073,110.57833660969482 111.18918057976407,116.1094006360072" stroke="#4DD2FF" stroke-linecap="round" stroke-linejoin="round" stroke-width="0.5"><title>2025-08-23 5.0km</title><desc>1755956696000</desc></polyline><polyline fill="none" points="134.58934396677068,96.54545454545587 134.59645412131795,97.08845948099042 134.6888861307525,97.18718725987128 134.65333535792888,98.0099140689781 134.2267260836379,100.65903760200308 134.07030268307426,100.99634214258549 133.7076847999706,104.37753686159704 133.52282078113058,105.49634393435554 133.40194815341965,105.61151437330409 133.4588293900306,106.01460962009878 132.94689826091053,109.88915753903711 133.6010324814124,116.05021198279428 133.6223629451124,116.14891665209143 134.00631129194517,116.1818181818162 133.30240598940873,109.72463697886269 134.36181902050157,102.02470097331388 134.49691195733612,101.18556114776584 134.62489473962341,101.02924982739933 134.56801350304158,100.71662628155173 134.84530953128706,98.57759069337044" stroke="#4DD2FF" stroke-linecap="round" stroke-linejoin="round" stroke-width="0.5"><title>2025-08-21 5.0km</title><desc>1755781186000</desc></polyline><polyline fill="none" points="157.04087431225344,96.54545454544859 157.0620627439639,98.06554397585569 156.63829411007464,100.79509482470894 156.48997508821776,101.08112024084403 156.42640979314456,101.56327506878733 156.50410070933867,101.8002653655567 155.84725932686706,105.67373194798711 155.8896361902589,106.08231459592935 155.4234906929778,109.43261404932855 155.45174193524872,110.84623514234409 156.04501802267623,116.1818181818162 156.45466103541548,116.10828268784098 156.17214861282264,113.01156034155429 155.80488246347522,110.8053793898871 155.78369403176475,109.24467411466321 156.2427767184563,106.1231727465929 156.36284449807135,105.94339672843489 156.85017842703382,101.8819859956784 157.08325117567438,101.09746451961837 157.09031398620573,100.19852425540012 157.5635222940473,97.19108743687684" stroke="#4DD2FF" stroke-linecap="round" stroke-linejoin="round" stroke-width="0.5"><title>2025-08-19 5.3km</title><desc>1755607955000</desc></polyline><polyline fill="none" points="178.8781449495582,116.08509824939392 179.2200873195543,116.1818181818162 179.2200873195543,115.5311547357851 179.34926554819685,115.24099243240926 179.50883865420474,113.23620811403816 179.97236053348752,110.20256456804054 179.92676821749774,108.21525054955418 179.4100553028693,104.88244004629814 179.17449500356452,102.13871075392672 179.0301193362102,101.41758797044167 178.65778208896518,100.79319631323597 178.74136800158885,100.64369341656857 179.1061065295653,100.72284204111202 178.9465334235574,99.07829462559312 178.55140001827385,98.5418312174952 178.58179489561007,97.50407288438873 178.20945764830685,96.54545454545587 178.6121897729754,97.54804594776942 178.5665974569274,98.53303670767491 178.92373726557707,98.9199942939158 179.1061065295653,100.71404775307019 178.7261705629353,100.66128200606181 178.6881769662723,100.77560775056918 179.12890268757474,101.78694429357711 179.35686426752363,104.43395178560604 179.91916949817096,108.32077279556688 179.91157077881508,109.22650011325459 179.34926554819685,113.12189883645624 179.1820937228622,113.20103604470933 179.07571165222907,113.46482621612813 178.8781449495582,114.75738643117802" stroke="#4DD2FF" stroke-linecap="round" stroke-linejoin="round" stroke-width="0.5"><title>2025-08-17 5.0km</title><desc>1755429603000</desc></polyline><polyline fill="none" points="20.626673664461123,137.9558386183926 20.527445983956568,138.0 20.641939461493166,137.88518036113965 20.771698736061808,135.94205577730463 20.878559315082384,135.2619519098589 21.229672646237304,134.97047719467082 21.22203974769218,134.29919837495981 21.695279454870615,131.63169708967325 21.763975541398395,130.43041149339842 20.93198960457812,123.46086076278152 20.496914389921585,122.6128164384645 20.580876273481408,122.51564416432666 20.94725540158106,122.54214570442127 20.786964533035643,120.82836280305492 20.420585404906888,120.36899256832112 20.44348410042585,119.37073733689613 20.054206276807236,118.36363636363967 20.46638279594481,119.38840567081206 20.412952506390866,120.32482222542603 20.77933163451962,120.7576906173781 20.962521198613103,122.53331185862044 20.573243374965386,122.48914261617028 20.519813085440546,122.6216502761672 20.97778699558694,123.56686572125182 21.763975541398395,130.01525746294647 21.75634264285327,131.06638828943687 21.24493844321114,134.82915576874802 20.863293518079445,137.26691816009406 20.703002649534028,137.3905709521423 20.649572360009188,137.76152827275655" stroke="#4DD2FF" stroke-linecap="round" stroke-linejoin="round" stroke-width="0.5"><title>2025-08-16 5.1km</title><desc>1755350047000</desc></polyline><polyline fill="none" points="43.39194850757485,137.9469824871412 43.11704051011475,138.0 43.24685817558202,137.86745615726977 43.61340217219549,135.12817150763294 43.81958317026147,135.0221329475753 43.77376517068478,134.73052624068805 44.32358116560499,131.48744027711655 44.361762831918895,130.0823600253134 43.53703883953858,123.4808299363358 43.12467684337753,122.6500797908302 43.208676509268116,122.49099906990159 43.544675172830466,122.54402600922913 43.37667584104929,120.80295792689867 43.0177681776986,120.39640908769798 43.071222510538064,119.52143883055396 42.643587847822346,118.36363636363967 43.04067717748694,119.29164720144036 43.033040844253264,120.35221888188244 43.37667584104929,120.76760592942446 43.57522050588159,122.53518818824523 43.17813117621699,122.49983689537476 43.139949509873986,122.62356635756441 43.468311840173556,123.15383348624164 43.60576583893271,123.68409737983893 43.85012850334169,126.52095426262531 44.33121749886777,129.7200400510992 44.369399165181676,131.00140879673563 43.789037837210344,134.72168965853052 43.83485583678703,134.98678673217364 43.59049317240715,136.347605653762 43.39194850757485,136.79826177129144" stroke="#4DD2FF" stroke-linecap="round" stroke-linejoin="round" stroke-width="0.5"><title>2025-08-14 4.9km</title><desc>1755170321000</desc></polyline><polyline fill="none" points="66.90599831030704,118.38006358767598 66.73564031952992,118.36363636363967 66.78532806687872,119.8502866210838 66.37362958921585,122.64281540213415 66.22456634731498,122.93848927271756 66.22456634731498,123.71052150341711 65.8057696200849,126.65895973635634 65.67090287743486,127.4638072027883 65.56442913319916,127.52950868311746 65.62831337974058,127.94014172558673 65.13853415634367,131.31546631884703 65.18112365403795,132.75260556097783 65.77737662161235,137.93430702521437 66.1819768496498,138.0 65.48634838743601,131.4961366556454 66.64336307454505,123.29986697932327 66.80662281569676,122.96312871309783 66.73564031952992,122.67566810783319 67.06925805142964,120.34309282734466" stroke="#4DD2FF" stroke-linecap="round" stroke-linejoin="round" stroke-width="0.5"><title>2025-08-12 5.0km</title><desc>1754999139000</desc></polyline><polyline fill="none" points="89.23078310090932,118.42942777861754 89.32317635184154,118.36363636363967 89.33028352502151,119.7534686369836 88.88963878975483,122.58240261507308 88.74038815364474,122.86200118596753 88.59113751750556,124.76160120120767 88.12206408966449,127.51635320042988 87.64588348867255,131.48796497927833 87.68852652757778,132.7049001980995 88.18602864802233,136.82425463577238 88.7048522879195,138.0 88.00834931927966,131.53730054653715 89.06021094534663,123.94749236726057 89.31606917869067,122.8948950719714 89.25210462036193,122.66463758910686 89.5506058926403,120.44426396481867 89.75671391395736,119.60544029967423" stroke="#4DD2FF" stroke-linecap="round" stroke-linejoin="round" stroke-width="0.5"><title>2025-08-10 5.0km</title><desc>1754830447000</desc></polyline><polyline fill="none" points="111.01947252926766,138.0 112.08283688421943,131.67045650671207 112.15168781368993,130.1831683630735 111.58558017149335,126.26120938023814 111.31782655688585,123.40152071518241 110.88942077357206,122.64010170925758 110.95062159979716,122.48073409792414 111.34077686670935,122.5604179400616 111.17247459472856,120.80735656731122 110.80526963758166,120.37351269829378 110.82821994737606,119.38186145102372 110.43806468046387,118.36363636363967 110.84352015398326,119.41727776147309 110.81291974085616,120.38236667642195 111.17247459472856,120.8162105013107 111.35607707325835,122.53385666745453 110.96592180631706,122.51614914787206 110.92002118667006,122.61354046096676 111.35607707325835,123.5520329863648 111.70798182382714,127.0314500256136 112.12108740059193,129.5634574738724 112.15933791693533,130.9710801264373 111.27192593723885,137.25641313759115 111.02712263248395,137.5131283669616" stroke="#4DD2FF" stroke-linecap="round" stroke-linejoin="round" stroke-width="0.5"><title>2025-08-09 5.0km</title><desc>1754735080000</desc></polyline><polyline fill="none" points="134.48575201662607,118.3636363636324 134.5283771819668,119.74466659722384 134.25131360726664,121.91480933663843 133.89610389608424,123.41085869400558 133.8179577596602,124.7671432719435 133.34197674665484,127.54540070320218 133.37039352359716,127.9728164577682 132.8873083164217,131.22767777222907 132.8730999279651,132.34547873520933 133.48406063116272,137.5397630348234 133.96004164408077,138.0 133.2638306102308,132.64136464147305 133.29935158134322,130.89069062992348 134.31525135526317,123.90405571629526 134.44312685128534,123.1067190317699 134.5638981530792,122.95053876097518 134.50706459931098,122.61351714946795 134.9191078642325,119.82687003440515" stroke="#4DD2FF" stroke-linecap="round" stroke-linejoin="round" stroke-width="0.5"><title>2025-08-07 5.0km</title><desc>1754570205000</desc></polyline><polyline fill="none" points="156.8338215748081,118.36363636363967 156.87773319819826,118.92256189510226 157.02410527618486,118.98184165587008 156.9728750489303,119.37986181466113 157.36807965949993,119.43914125017182 157.41199128286098,119.80328542889038 157.00946806839784,121.81875234434847 156.89237040601438,122.89421264817793 156.9728750489303,123.18212880009378 156.84845878262422,123.30068222062982 156.6142634578573,124.68097035041137 155.5823403080285,132.18324110718822 156.21905884728767,138.0 155.575021704135,132.04776590490656 156.0287751459109,128.6184765407088 156.19710303557804,128.15275969939103 156.59962625004118,124.68097035041137 156.80454715923406,123.40229930404894 156.93628202940454,123.17366069215495 156.88505180212087,122.84340381227958 157.28757501658401,119.87950145102513" stroke="#4DD2FF" stroke-linecap="round" stroke-linejoin="round" stroke-width="0.5"><title>2025-08-05 5.0km</title><desc>1754406000000</desc></polyline><polyline fill="none" points="178.7935645757243,138.0 179.1333868787624,135.18485984429572 179.3419142010971,135.02399197068007 179.66629003584967,132.8433095404107 179.90571029481362,131.09157464955206 179.92115676315734,130.00119143232587 179.35736066944082,126.13111559839308 179.1411101129488,123.55692924583127 178.94802925889962,122.88655584544176 178.6545463608345,122.46645257547789 178.7240554682794,122.33237664112676 179.10249394213315,122.36813024363073 178.9248595564568,120.60724804225174 178.56186755091767,120.22288835373183 178.59276048757602,119.13237032075267 178.26066141866613,118.36363636363967 178.60048372170422,119.2485737060124 178.56186755091767,120.13350213875674 178.94030602477142,120.59830946392321 179.11021717629046,122.35919184436352 179.00981513221632,122.44857579602103 178.63909989254898,122.37706864196662 179.1333868787624,123.4228549747495 179.45003947932855,126.8104022051557 179.92115676315734,130.028004296546 179.91343352897093,131.13626219787693 179.00981513221632,137.3207998293583 178.96347572727245,137.472726638749 178.76267163909506,137.48166350170504 178.68543929746374,137.82126362152485 178.46918874097173,137.8033899637012" stroke="#4DD2FF" stroke-linecap="round" stroke-linejoin="round" stroke-width="0.5"><title>2025-08-03 5.0km</title><desc>1754221111000</desc></polyline><polyline fill="none" points="30.72727272726479,148.9375991107663 30.66689958771167,149.18792876481893 30.510935643906123,149.20248274718324 27.44699881208362,149.14135597155473 27.363985745221726,149.08896148863278 27.243239466130035,149.13844516945755 26.853329606587067,149.13553436707298 26.820627489330946,149.1035155212776 26.123820837121457,149.14426677334995 25.781706379697425,149.091872295754 24.677381035566214,149.08896148863278 24.199427014173125,149.01328039967484 23.87492138912785,148.92886664148318 23.85479700927681,148.89684756469615 23.40451401019527,148.88229342704471 22.415903850167524,148.70764319849877 20.961917406195425,148.69599981206557 17.928167144142208,149.07440744859196 17.5181329047482,149.26360939238657 17.077912095570355,149.39750539752276 15.89560477953637,150.1164580278528 15.269233456769143,150.43372288414503 14.884354692185298,150.5443281549451 14.657955418908386,150.54723881419886 14.371183006078354,150.4773829104779 14.066801760869566,150.60254128385895 13.963664314142079,150.3987948151953 13.840402487592655,150.48029357653104 13.739780588352005,150.29109966785109 12.02669275381777,151.30400018793443 11.895884284807835,150.97510250815867 11.367619313808973,149.96510107871654 11.317308364188648,149.93017243843315 11.090909090911737,150.04077965323813 11.239326392271323,149.92726171649338 11.312277269229526,149.91852954888236 11.334917196552851,149.8457613819537 11.425476905875257,149.85158284210593 11.546223184966948,149.77008229227795 11.581440849695355,149.81083259617844 11.672000559003209,149.7526178585831 11.641813989233924,149.807921862106" stroke="#4DD2FF" stroke-linecap="round" stroke-linejoin="round" stroke-width="0.5"><title>2025-08-02 8.3km</title><desc>1754134728000</desc></polyline><polyline fill="none" points="44.031362093024654,140.18181818182347 43.92568385414779,140.2062749231991 43.86227691080421,140.8666041219185 44.390668105275836,140.8666041219185 44.390668105275836,141.39649399285554 42.62936412365525,153.05318595386052 42.636409339582315,154.2839685907893 43.36911179593881,159.8181818181838 42.67163541921764,154.43883394350996 42.622318907728186,153.24065737522324 43.66501086484641,145.79036902576627 43.92568385414779,144.77955452018068 43.85523169487715,144.55130432119768 44.18635684339097,142.14648598204076" stroke="#4DD2FF" stroke-linecap="round" stroke-linejoin="round" stroke-width="0.5"><title>2025-07-31 5.0km</title><desc>1753965181000</desc></polyline><polyline fill="none" points="65.71511125302641,159.8181818181838 65.7997970621218,159.10550508318556 66.01536093986942,158.84715833600785 66.80062935157912,153.43951890712196 66.88531516067451,151.44386423379183 66.48498224487412,149.02050818218413 66.06155319936806,145.02004220275558 65.65352157363668,144.23596510481002 65.73820738276117,144.12013493873383 66.07695061920094,144.1646850207253 65.93067513071583,142.3915742681129 65.53804092487553,141.9638838912142 65.58423318440327,140.97484189851093 65.27628478762927,140.1818181818162 65.59193189430516,140.99266257374256 65.5611370546103,141.9817043652656 65.93067513071583,142.4450354184155 66.1077454588667,144.1468649906601 66.00766222990933,144.23596510481002 65.69971383316442,144.1112249196085 65.66891899349866,144.24487511125335 66.13084158863057,145.2695198080546 66.40029643577873,148.2631956738478 66.93150742017315,152.08532961988385 66.37720030601486,156.70017832829762 65.96916868034168,159.25694937411026 65.82289319185656,159.31930871200166" stroke="#4DD2FF" stroke-linecap="round" stroke-linejoin="round" stroke-width="0.5"><title>2025-07-29 5.0km</title><desc>1753797916000</desc></polyline><polyline fill="none" points="89.54352470915182,140.18181818182347 89.529369650234,141.68050826260878 89.20380329422187,143.97353204624233 88.94901223300258,144.73512908650446 88.77915152555215,146.8315310877224 88.30495705050998,149.33731507939228 88.36157728632679,149.7795041698846 87.89446034075809,152.88294825141202 87.92277045871015,154.52878964951378 88.50312787588337,159.8181818181838 87.95815810607746,155.22478212446003 87.85907269341988,153.48069552944798 88.31203458001255,149.46833432198036 88.94193470352911,145.46396252693376 88.87823693823884,145.25923469797272 89.18257070583059,144.01447830670077 89.529369650234,141.2464642752966" stroke="#4DD2FF" stroke-linecap="round" stroke-linejoin="round" stroke-width="0.5"><title>2025-07-27 5.0km</title><desc>1753616848000</desc></polyline><polyline fill="none" points="111.85955454932991,140.1818181818162 111.88045591270202,141.9070464507313 111.4972642507928,144.63186328607117 111.34398758600582,144.92207495017647 111.12800683110254,147.29209714786703 110.73784804804018,149.45246388043597 110.76571653253632,149.8635717850484 110.25711669036536,153.2168430153106 110.89112471282715,159.8181818181838 111.30915198038565,159.75370253086294 111.00956577196484,156.52161115403578 110.66817683677073,154.256650751704 110.65424259455176,153.04757069929474 111.61570530990139,146.2683207328446 111.9361928817234,144.9140135294001 111.86652167048305,144.5996174800821 112.34028590703383,141.72968826525903" stroke="#4DD2FF" stroke-linecap="round" stroke-linejoin="round" stroke-width="0.5"><title>2025-07-26 5.2km</title><desc>1753529066000</desc></polyline><polyline fill="none" points="134.5738514958648,140.18181818182347 134.48913304589223,140.6066155572771 134.6020909791987,141.15394732809364 134.4679534333991,142.44465525767737 134.1714388585242,144.4541972471343 134.01612170023145,144.7401036117226 133.9949420877383,145.59781660610315 133.3666135838139,149.36347683210624 133.4160326795827,149.72287987014715 132.9500812047918,153.1452965170247 133.0136200422421,154.9667142594044 133.57134983787546,159.8181818181838 133.97376247524517,159.77734577013325 133.65606828787713,156.81259330129978 133.7266669961682,156.6574104108513 133.3242543588276,154.3541344199548 133.31719448795775,153.2596468263655 134.8421265874349,142.58352766104508" stroke="#4DD2FF" stroke-linecap="round" stroke-linejoin="round" stroke-width="0.5"><title>2025-07-24 5.0km</title><desc>1753356656000</desc></polyline><polyline fill="none" points="156.14909654916846,159.78275709061563 156.24859275532071,159.8181818181838 156.58534914528718,157.01958397674025 156.8073022205208,156.87788042981265 156.75372734031407,156.60332915194158 157.32774391412386,153.05179756018333 157.36601168574998,151.98010997210076 156.791995111882,148.19809884697315 156.55473492803867,145.3991277599489 156.09552166899084,144.43363902463898 156.16440365783637,144.291915006841 156.53942781937076,144.3627770445528 156.34043540712446,142.5823508760368 156.0113325714483,142.22803286898124 156.0419467887259,141.27136705066368 155.621001301246,140.1818181818162 156.0036790171289,141.05877321968728 155.99602546280948,142.19260098902305 156.34808896144386,142.56463500990503 156.54708137371927,144.309630521675 156.44758516759612,144.40706578885874 156.17971076644608,144.30077276471275 156.09552166899084,144.40706578885874 156.36339607008267,144.78794806032238 156.55473492803867,145.4257006931075 156.89914487232454,148.95097129204805 157.34305102276267,151.829541238425 157.33539746847237,153.00751321017015 156.50116004780284,158.80857144015317" stroke="#4DD2FF" stroke-linecap="round" stroke-linejoin="round" stroke-width="0.5"><title>2025-07-22 5.0km</title><desc>1753184035000</desc></polyline><polyline fill="none" points="169.2727272727061,153.23860314654303 169.2727272727061,150.08763795541017 171.36041462398134,141.26478210883215 188.2434514638735,144.34580506253405 188.90909090905916,145.08104510433623 186.63986552751157,158.70020788372494 171.48143997765146,156.3195190265542 170.9368258860195,155.61931329104118 172.81271886825562,142.0000287258299 173.47835831344128,141.579887993983 177.5024513239041,142.24511058285134 188.87883457075804,144.76594242147985 186.88191623485181,158.42012769548455 186.24653312796727,158.73521789119695 171.17887659335975,156.1794779933116 171.36041462398134,151.69813487568172 172.84297520667315,142.07005213137018 173.32707662135363,141.6499114848848 180.770135873463,142.91033188733854 173.1757949293824,141.71993496155483 172.32861745357513,145.57120426060283 173.08502591401339,146.30644168730942" stroke="#4DD2FF" stroke-linecap="round" stroke-linejoin="round" stroke-width="0.5"><title>2025-07-20 4.9km</title><desc>1753020627000</desc></polyline><polyline fill="none" points="22.03773138791439,162.0 21.889597325091017,163.00397040413372 21.339385091647273,164.41603762413433 20.87382089413586,166.53817289373546 20.746848840237362,168.21135541240074 20.309500654693693,171.01079751398356 20.210744612821145,171.1005739265529 20.26012263377197,171.50048581839656 19.801612439216115,174.80580382451444 19.780450430262135,175.89938528417406 20.408256696595345,181.62820321827894 20.33771666669054,180.5020575764138 20.41531069960911,181.63636363636033 20.817388870200375,181.55475941819168 20.140204582887236,175.1648919148065 21.219467040791642,167.28090699540917 21.445195136533584,166.57082069081662 21.473411148501327,165.6158671444573" stroke="#4DD2FF" stroke-linecap="round" stroke-linejoin="round" stroke-width="0.5"><title>2025-07-20 5.0km</title><desc>1752942252000</desc></polyline><polyline fill="none" points="44.35319822008023,162.00878684191412 44.23169799215975,162.0 44.04185388595215,162.96654725762346 44.25447928489302,163.09834831939952 44.23929175638477,163.37952324656362 43.97351000775234,165.17199191819964 43.82922848704038,165.47951957437908 43.45713403890841,168.98525757402967 43.14578970475122,170.41738535251352 43.17616476176772,170.83911171302316 42.63700750016142,174.87176621252001 43.36600886791712,181.63636363636033 42.69016384991119,175.99630737002735 42.67497632143204,174.2919189667591 43.17616476176772,170.8918273635354 43.153383468976244,170.42617133932072 43.707728259061696,167.08743208640954 43.82163472275715,165.47073308509425 43.97351000775234,165.1544188762491 44.375979512842605,162.28117849819682" stroke="#4DD2FF" stroke-linecap="round" stroke-linejoin="round" stroke-width="0.5"><title>2025-07-17 5.0km</title><desc>1752765839000</desc></polyline><polyline fill="none" points="74.52895752899349,181.22200390596117 74.97121797129512,180.6078989355301 75.92207792203408,172.59880947700003 61.70340470341034,171.95909485967422 59.13829413836356,172.16380371409468 59.44787644781172,171.95909485967422 58.98350298346486,169.06756451298133 56.35205335204955,164.92212679384102 56.285714285681024,162.5934867776523 56.5952965952456,162.41435973042098 68.95647595648188,162.61907634537783 68.07195507199503,170.67966074909782 67.519129519118,171.03790295537328 59.80168480158318,170.78201571719546 58.96138996130321,168.09518401479 56.79431379423477,165.33155577916477 56.52895752887707,163.87296197995602 59.60266760259401,163.64265692341723 68.55844155838713,163.94973028535605 68.69111969112419,165.8689303119172 67.8950508950511,172.11262651610014 66.70094770088326,172.18939230915566" stroke="#4DD2FF" stroke-linecap="round" stroke-linejoin="round" stroke-width="0.5"><title>2025-07-15 4.1km</title><desc>1752589649000</desc></polyline><polyline fill="none" points="89.49042619703687,161.99999999999272 89.55026524886489,163.39347423296567 89.08651259733597,166.30152094725054 88.92195520483074,166.6390556539045 88.91447532337043,167.49586851865024 88.25624575346592,171.51152307588927 88.28616527939448,171.96154153473617 87.78501322044758,175.69141074043728 88.38340373855317,181.63636363636033 88.03932919065119,179.28266186005203 87.77753333898727,175.5010269390259 88.8995155604498,167.43528607395274 88.83219662713236,167.1583372066525 89.0565930714074,166.3621041981969 89.49790607855539,163.48002467564947 89.44554690818768,163.17709774151444 89.62506406364264,162.25965531190013 89.46050667116651,162.05193112570123" stroke="#4DD2FF" stroke-linecap="round" stroke-linejoin="round" stroke-width="0.5"><title>2025-07-13 5.0km</title><desc>1752418082000</desc></polyline><polyline fill="none" points="111.12816911426489,181.63636363636033 111.02740009620902,181.62739416160184 111.0894117996213,180.91880277700693 111.43047616851982,178.76608519825822 111.63201420468977,178.58668969672 111.98083003645297,176.14687467394106 112.16686514671892,173.6262596418601 111.65526859342935,170.1188071873621 111.39171885387623,167.1853575356945 111.23668959527276,166.61121530464152 110.91112815224915,166.0908956804269 110.98089131864253,165.95632976096385 111.35296153920353,166.01015615339566 111.19018081770628,164.30563778064243 110.81811059711617,163.83913227539597 110.84136498591397,162.77154308658646 110.57781524636084,162.03588587456034 110.41503452480538,162.03588587456034 110.55456085753394,161.99999999999272 110.81811059711617,162.654914913408 110.81035913419328,163.84810355839 111.15142350303358,164.16209788792912 111.19018081770628,164.34152271732455 111.35296153920353,165.98324296127976 110.97313985571964,165.96530082864774 110.88787376348046,166.06398251299106 111.22893813237897,166.55738927893253 111.38396739095333,167.10461901021336 111.70177737102495,170.59425008726248 112.18236807259382,173.56346760099404 112.17461660967092,174.711657858752 111.22893813237897,181.16994974132103" stroke="#4DD2FF" stroke-linecap="round" stroke-linejoin="round" stroke-width="0.5"><title>2025-07-12 5.1km</title><desc>1752325602000</desc></polyline><polyline fill="none" points="133.77779390924843,181.63636363636033 133.58697134966496,181.62753136183892 134.01441388309468,178.68633403154672 134.18997063787538,178.59800824803824 134.67847639034153,175.32105823651364 134.75480541418074,173.66928726759215 134.30446417361964,170.7101538153438 133.96098356638686,167.11489190032444 133.50300942343893,166.18734318493807 133.56407264247537,166.09017084166408 133.9457177616423,166.15200779995212 133.7701610068325,164.35871813884296 133.42668039959972,163.97885400122323 133.41141459485516,162.78624649600533 133.02976947571733,161.99999999999272 133.43431330198655,162.88342253505107 133.42668039959972,163.97001993176673 133.77779390924843,164.36755216879828 133.9686164687737,166.1255062517739 133.60223715440952,166.08133698687743 133.5182752282417,166.22267855551763 133.97624937116052,167.18556187264767 134.31209707597736,170.6924870443545 134.76243831653846,173.60745565911202 134.68610929272836,175.27689364588878 133.95335066400003,180.15252892537683" stroke="#4DD2FF" stroke-linecap="round" stroke-linejoin="round" stroke-width="0.5"><title>2025-07-10 5.0km</title><desc>1752149320000</desc></polyline><polyline fill="none" points="153.73972390854033,162.0 153.78571610199288,163.224032832004 154.11915950477123,163.05107236516778 154.8320385038387,163.2905560276413 155.6024077446782,163.224032832004 156.46476137259742,163.5433438628388 160.91450609237654,164.12874539702898 161.0409846244147,164.30170444036776 160.01765831938246,170.83406721212668 159.52324223937467,170.87397881411016 159.43125785241136,171.04692894872278 159.25878712686244,172.20435858612473 159.3852656589006,172.70989935606485 158.60339836968342,177.1133430115442 152.87737028067932,176.94040088757174 152.6819034583168,176.8073683291732 151.94602836261038,181.6363636363676 152.71639760344988,176.88718788042024 154.94701898749918,176.92709763777384 155.6943921316415,176.6344258011959 155.7978745670407,176.94040088757174 158.63789251481649,177.03352359810378 160.61555683467304,164.64762184169376 160.5580665928428,164.1952681330731 154.6365716814762,163.1575096025481" stroke="#4DD2FF" stroke-linecap="round" stroke-linejoin="round" stroke-width="0.5"><title>2025-07-08 5.1km</title><desc>1751976330000</desc></polyline><polyline fill="none" points="169.44762493221788,181.4575665651937 169.40548385074362,181.6363636363676 169.6723773671547,181.52258370508207 169.75665953021962,180.6123413413443 170.2483054815093,180.20598147086275 170.34663467179053,179.7833661104669 171.7653844168526,169.94911645364482 171.89180766145,166.9743399980216 171.5546790091903,164.77979730836523 172.32726550404914,164.7472853384097 172.52392388455337,165.03989282989642 175.23500013019657,165.43003531899012 177.41228934301762,165.3975234812824 178.99960341420956,166.031503124992 184.05653319868725,166.77927075621847 184.98363699257607,162.0 188.77633433102164,162.8453235928173 185.39100078074262,162.04876879032236 184.75888455769746,164.86107720425935 184.66055536741624,166.81178231304511 175.1928590486059,165.54382669906772 172.52392388455337,165.0561487859668 172.28512442257488,164.69851737108547 171.51253792765783,164.8285652508639 171.82157252560137,166.12903823168017 171.87776063435012,168.94127489051607 170.29044656298356,179.83212947830907" stroke="#4DD2FF" stroke-linecap="round" stroke-linejoin="round" stroke-width="0.5"><title>2025-07-06 5.0km</title><desc>1751807521000</desc></polyline><polyline fill="none" points="14.079710094199982,202.23740515198733 14.93048233614536,196.18737708397384 12.177073989412747,195.99047918783617 11.310833161289338,196.2947758436494 12.440039955137763,196.18737708397384 12.285354093008209,196.0083790056524 15.131573956925422,196.16947728434752 15.3326655778219,195.99047918783617 15.239854060520884,195.43558393268904 16.39999802672537,188.11438283865573 16.291717923246324,184.462618652964 18.287165545334574,184.2657076480973 30.50734865688719,186.27060940559022 30.49188007065095,185.6798817953677 17.049678647890687,183.81818181817653 17.266238854965195,188.2396871287201 15.858597509155516,198.19214313308476 16.245312164595816,198.8007283117622 15.889534681569785,199.46300979351508 15.966877612634562,200.8949612415745 15.4254770950065,201.0202564394276 15.17797971557593,203.45454545454413 13.92502423201222,203.3113529143011 14.002367163135204,202.25530433500535" stroke="#4DD2FF" stroke-linecap="round" stroke-linejoin="round" stroke-width="0.5"><title>2025-07-05 4.8km</title><desc>1751729502000</desc></polyline><polyline fill="none" points="46.66697677166667,203.45454545454413 46.86131069413386,203.31252216211578 46.89199499762617,202.50772023378522 47.1579256283585,201.3360133669048 47.301119044888765,201.28867142757372 47.48522486619186,199.57251313341112 43.486037304159254,199.40681375251734 43.74173983372748,198.51913448324922 44.12017957743956,194.51857594955072 44.161091982154176,191.59500394958013 44.01789856562391,191.20439970263396 44.17132008331828,188.8133996919787 44.161091982154176,183.81818181817653 38.791338861803524,185.7476397185601 38.678829748765565,186.0198919399263 38.7197421535966,185.78315091396507 41.614294787927065,184.68229881932348 41.66543529386399,187.12073138687265 41.951822126924526,187.73624998144805 44.08949527388904,187.73624998144805 44.099723375053145,190.86114034333877 44.324741601070855,190.96766921830567 44.40656641050009,191.34643776222947 48.15005144296447,191.5831674765068 48.33415726426756,192.51824514272448 48.31370106188115,194.2226711910771 47.02496031305054,203.01663974666735" stroke="#4DD2FF" stroke-linecap="round" stroke-linejoin="round" stroke-width="0.5"><title>2025-07-03 5.2km</title><desc>1751545471000</desc></polyline><polyline fill="none" points="65.75979654365801,203.45454545454413 66.22624261421151,200.57883392557414 66.41740903654136,200.44610648515663 66.90679507778259,196.81814476146246 66.94502836221363,195.56159593992925 66.11154276077286,188.88919480302138 65.70626994542545,188.04847137299657 65.79038317123195,187.93342437718093 66.1344827314606,187.99537277843046 65.97390293667559,186.27850076284085 65.59921674890211,185.80060252626572 65.60686340578832,184.71204674594628 65.24747053181636,183.81818181817653 65.63745003339136,184.7916976306151 65.59921674890211,185.81830250775965 65.94331630910165,186.15460147202975 65.99684290736332,186.42894966457243 66.1344827314606,187.98652300951653 65.75979654365801,187.95997369739052 65.70626994542545,188.0750206581215 66.11918941768818,188.88919480302138 66.51681557614938,192.67677439249383 66.96032167598605,195.5350489382181 66.83032850880409,197.51720280344307 65.98919625047711,203.15370623498166" stroke="#4DD2FF" stroke-linecap="round" stroke-linejoin="round" stroke-width="0.5"><title>2025-07-01 5.0km</title><desc>1751376396000</desc></polyline><polyline fill="none" points="88.01122232584748,203.45454545454413 88.15301884134533,203.2795296244076 88.12465953826904,202.63415629172232 88.35153396305395,202.41538479235896 88.51223668060265,201.5621716965543 88.75801730749663,198.55399464698712 89.0983289447031,197.3835175841523 89.47645298606949,194.30958730415296 89.381921975757,192.54832790037472 88.85254831780912,189.40862007929536 88.49333047861,185.60146471064218 87.92614441656042,184.1901573764626 88.42715877131559,184.28862127959292 88.44606497336645,183.8181818181838 88.44606497336645,184.2667404199965 88.01122232584748,184.17921693722747 87.93559751758585,184.28862127959292 88.29481535684317,184.82470094900782 88.51223668060265,185.57958411805885 88.90926692407811,189.82433578408381 89.47645298606949,193.5985233124229 89.42918748088414,195.35976552956708 88.2380967506324,203.0826364754539" stroke="#4DD2FF" stroke-linecap="round" stroke-linejoin="round" stroke-width="0.5"><title>2025-06-30 4.1km</title><desc>1751292736000</desc></polyline><polyline fill="none" points="101.70098194485763,194.8468388659021 101.48051948050852,193.25342535303207 101.55654101993423,193.08615924635524 107.47101678806939,192.80444717664068 108.41368387706461,192.89248229713849 109.94931897369679,192.74282253893762 112.2527716186014,192.76923310334678 121.11688311686157,192.2058059777628 118.47133354449761,192.39068090846558 117.8555590750766,192.59316252140707 116.71523598351632,192.54034127682098 110.94520114030456,192.83966123562277 105.57808045609272,192.9364998237288 105.41843522328418,193.0773557581051 105.79094076651381,195.06692129496514 105.61609122582013,195.04931472128374 105.40323091539904,194.01052052153682" stroke="#4DD2FF" stroke-linecap="round" stroke-linejoin="round" stroke-width="0.5"><title>2025-06-26 5.0km</title><desc>1750950176000</desc></polyline><polyline fill="none" points="143.71428571426077,194.4400263329735 143.3972292508406,192.83270093974716 134.9494359246455,193.60781112269615 134.0475864286418,193.61597013732535 130.79247340385336,193.20801838657644 124.07792207790771,193.49358483039396 130.567011029867,193.1998593303506 134.05463212780887,193.6241291511542 140.06461353501072,193.07747338723857" stroke="#4DD2FF" stroke-linecap="round" stroke-linejoin="round" stroke-width="0.5"><title>2025-06-24 5.0km</title><desc>1750769966000</desc></polyline><polyline fill="none" points="166.31168831168907,194.42273320027743 166.04289082673495,192.8499940724505 157.68187432165723,193.64455883254413 156.66327332609217,193.6773242210329 153.3669673266122,193.2513731289655 146.67532467533601,193.54626258698408 153.19012687599752,193.2513731289655 156.6561997080571,193.6773242210329 163.7368913507089,193.04658814652066" stroke="#4DD2FF" stroke-linecap="round" stroke-linejoin="round" stroke-width="0.5"><title>2025-06-22 5.0km</title><desc>1750563938000</desc></polyline><polyline fill="none" points="179.76195680658566,203.45454545454413 178.7470860563917,197.39138065227235 178.7328588963428,195.73817112885445 178.8229642432998,195.04611486690192 178.76605560313328,193.26650078852254 178.78502514984575,192.9589072097515 178.88935765688075,192.783138661689 178.78502514984575,192.70074695729636 178.78028276315308,191.57471436374908 177.62788279919187,184.64222912376135 177.33859721149202,183.81818181818016 177.63262518582633,184.53785049613361 178.76605560313328,191.45936335390434 178.82770662999246,194.8319051741746 178.7470860563917,195.74366360330168 178.74234366969904,197.33645756265832 179.5200950857543,201.9937366177728 179.62916997945285,202.31226222158875 180.84322097036056,202.24636052702044" stroke="#4DD2FF" stroke-linecap="round" stroke-linejoin="round" stroke-width="0.5"><title>2025-06-21 8.0km</title><desc>1750517001000</desc></polyline><polyline fill="none" points="22.90125670301495,225.27272727272066 21.23789497226244,215.04422753019026 18.31089409708511,214.98449696709577 13.037134811049327,214.4767861974251 13.140289026894607,213.9392081702972 12.93398059514584,212.90884477031068 13.21765468880767,206.17397213823278 13.178971857822035,205.6960980118165 12.921086318208836,205.63636363635305 12.59872939356137,213.92427541918005 13.088711918971967,213.98400641456828 13.114500472904183,214.49171889228455 21.276577803189866,215.02929489171947 22.269437130831648,221.42032507355907 22.5788997784839,222.27144590528042 29.219452424673364,222.06239914157777" stroke="#4DD2FF" stroke-linecap="round" stroke-linejoin="round" stroke-width="0.5"><title>2025-06-19 5.0km</title><desc>1750345525000</desc></polyline><polyline fill="none" points="53.32467532469309,215.94612956552373 53.14443817056599,214.87508141457147 47.585544889909215,215.40236931826075 46.86933935628622,215.4188469820947 44.488311688328395,215.14421859336653 35.66617730096914,215.5451755709837 34.90254093732801,215.67150386373032 33.68831168831093,216.0340094945168 35.400564652722096,215.57263826850976 38.50254093733383,215.4353246409264" stroke="#4DD2FF" stroke-linecap="round" stroke-linejoin="round" stroke-width="0.5"><title>2025-06-17 5.1km</title><desc>1750166247000</desc></polyline><polyline fill="none" points="56.96283027314348,222.86457340772904 56.28571428573923,218.51277066301554 71.58853560232092,218.0619025874039 69.1001343484968,208.24055744035286 72.11330049263779,208.4169932146615 75.92207792209229,208.04451750135922 69.91267353342846,208.39738924772246 72.13022839237237,217.23857554809365 65.56220331392251,217.5522243596497" stroke="#4DD2FF" stroke-linecap="round" stroke-linejoin="round" stroke-width="0.5"><title>2025-06-16 3.2km</title><desc>1750084948000</desc></polyline><polyline fill="none" points="98.51948051946238,216.36227837131446 98.21860075410223,214.54681253776653 88.56669459570548,215.43621199338668 87.69572685379535,215.445381014164 83.87930456639151,214.97775976380944 78.88311688310932,215.21615521475906 83.72094679513248,214.96859069538186 87.6878089652455,215.42704297169985 95.87490573944524,214.73936368111754" stroke="#4DD2FF" stroke-linecap="round" stroke-linejoin="round" stroke-width="0.5"><title>2025-06-15 4.6km</title><desc>1749956754000</desc></polyline><polyline fill="none" points="121.11688311686157,216.2442695138161 120.87784396053758,214.66482139526488 112.46929010839085,215.4382663862052 111.59046968069742,215.45454935816815 107.8923933209444,215.0393325365876 101.48051948050852,215.33242698763934 108.01894346252084,215.0393325365876 111.53422517332365,215.45454935816815 113.36920222634217,215.36499297137198 113.71369983395562,215.2510119702274 118.17107704325463,214.85207718540187" stroke="#4DD2FF" stroke-linecap="round" stroke-linejoin="round" stroke-width="0.5"><title>2025-06-14 5.1km</title><desc>1749906363000</desc></polyline><polyline fill="none" points="143.71428571428987,216.62045664162724 143.47820496335044,215.02839227797813 135.34036260767607,215.81638774621388 134.24328147099004,215.82442847575294 130.91037675197003,215.42239099591825 124.63340619776864,215.7198989280805 124.55008357981569,215.5349616967942 124.58480133727426,214.29667515269102 124.07792207790771,214.28863426746102 124.60563199178432,214.31275692069175 124.55008357981569,215.52692093776568 124.6542368522496,215.7198989280805 131.08396553940838,215.4143502254301 134.39603960397653,215.83246920446254 140.99241352709942,215.23745306725323 140.98546997556696,214.91582085427217 143.10325318246032,214.80324926997127" stroke="#4DD2FF" stroke-linecap="round" stroke-linejoin="round" stroke-width="0.5"><title>2025-06-12 5.9km</title><desc>1749735885000</desc></polyline><polyline fill="none" points="166.31168831168907,221.6319669145014 165.68571968574543,218.4803150758089 148.48519048513845,220.00887424060784 146.86583686585072,215.58073864293692 146.67532467533601,210.04933060398616 149.8868158867699,209.9074970261281 152.62202662194613,210.0808491591597 152.77171477174852,209.57655150510254 152.48594648594735,209.46623617399018 146.75697275693528,209.27712399458687 146.8794448794215,215.42315140916617 147.35572535567917,217.21963635200518 148.29467829462374,219.4573340165516 155.91516591515392,218.7954831506213 156.0648540648399,219.39430072279356 165.6448956449167,218.46455665517715 166.2300402300898,221.58469261147548" stroke="#4DD2FF" stroke-linecap="round" stroke-linejoin="round" stroke-width="0.5"><title>2025-06-10 5.3km</title><desc>1749559786000</desc></polyline><polyline fill="none" points="169.78831071406603,210.22644590960408 169.31692013918655,208.31588496959012 169.2727272727061,206.83177347500168 182.6337038805941,206.49059655838937 183.23767305462388,208.72529272123938 182.79574439069256,208.70823408495926 182.66316579148406,209.01528927273466 182.94305394531693,210.60173210309586 182.86939916800475,211.6764106387418 183.3555206983583,213.82574701079284 184.6076519130147,213.77457265599514 186.4637523017591,220.92177272195113 186.49321421270724,221.24586286750855 186.02182363776956,221.38232168849208 186.449021346285,221.26292022624693 186.59633090090938,221.53583772908314 186.21332605875796,221.6040670353541 186.34590465796646,222.23518679953122 187.22976198594552,224.48672981746495 187.84846211556578,224.41850168602832 188.90909090905916,223.8385614463623 187.78953829366947,224.07736061188916 185.80085930571659,216.14563466473192 185.56516401830595,215.46331810396805 185.03484962153016,215.46331810396805 184.63711382390466,213.72339828551048 184.2099161153892,213.89397945953533 183.34078974294243,213.77457265599514 182.85466821253067,211.81287726062874 182.75155152427033,209.28822674458206 181.94134897360345,206.42236109162332 169.31692013918655,206.8658911284001 169.84723453590414,210.32879677305755" stroke="#4DD2FF" stroke-linecap="round" stroke-linejoin="round" stroke-width="0.5"><title>2025-06-08 5.0km</title><desc>1749355299000</desc></polyline><polyline fill="none" points="30.72727272726479,238.08075969265337 30.3819095477229,236.4646948528025 24.052600665629143,236.9952247848123 22.14957906413474,237.26456940517528 21.09234484107583,237.26456940517528 17.744436468055937,236.85647114199674 11.090909090911737,237.1503021011158 17.4272662011208,236.85647114199674 21.05710370032466,237.27273134921415 28.69033479085192,236.58712514905346" stroke="#4DD2FF" stroke-linecap="round" stroke-linejoin="round" stroke-width="0.5"><title>2025-06-07 5.3km</title><desc>1749293029000</desc></polyline><polyline fill="none" points="53.324675324663986,238.05062502653163 53.034761421527946,236.49482951891696 44.07571470658877,237.31367301521823 40.44118431079551,236.89606387490494 33.68831168831093,237.17447020964028 40.41290002758615,236.87968700163765 43.64437938728952,237.31367301521823 50.56695770920487,236.68316426207457" stroke="#4DD2FF" stroke-linecap="round" stroke-linejoin="round" stroke-width="0.5"><title>2025-06-05 5.1km</title><desc>1749128617000</desc></polyline><polyline fill="none" points="56.56058901725919,237.14843680100603 56.28571428571013,235.34800352909951 56.388792310026474,235.2684256014618 64.093874629325,234.9998496166736 65.5455568053876,240.32149525884597 73.1561509356834,240.2220279077519 75.92207792209229,240.05293317826 73.64577155132429,240.13250720508222 73.22486961859977,234.2239592866099 65.94068923202576,234.6516944622781 64.37733919624588,234.60195791024307 64.51477656202042,234.9998496166736 60.47755394212436,235.11921681227977" stroke="#4DD2FF" stroke-linecap="round" stroke-linejoin="round" stroke-width="0.5"><title>2025-06-03 5.2km</title><desc>1748952979000</desc></polyline><polyline fill="none" points="95.12175242591184,231.4189281998042 94.69099587027449,230.7813614567276 94.38564945111284,230.11222495238326 94.18935532451724,229.9291580468016 93.70407262261142,229.88496940240293 93.3332948278985,229.45570664631305 93.16426377443713,228.89387295998677 92.91344350151485,228.50879299819644 92.61354969698004,227.45454545454413 91.74658397110761,227.82700621572076 91.3430904886045,227.87119632701797 90.2961884799879,228.26259308057342 89.84907408049912,228.8370580340743 89.84907408049912,228.98225163013194 88.03880602394929,231.28636535744954 88.0279007946956,231.4189281998042 87.53171286353609,232.10067548367078 87.10095630792785,232.49835793760212 87.02461970312288,232.4289215024728 86.71927328393213,232.69404201831276 86.51752654268057,232.57410668727607 86.51207392808283,232.68772963826268 86.48481085491949,232.5236075311259 86.76834681557375,232.72560390899162 86.72472589855897,232.95284904754226 86.07041214319179,233.67876543856983 84.95262614442618,233.93125610434072 84.95262614442618,233.81763543199486 84.87628953962121,233.95650511437634 84.57094312043046,234.0259398389644 84.30376500365674,233.95019286282695 83.85665060416795,233.98806636245718 83.78031399933388,233.9186315954721 83.60037771664793,234.01962759449816 83.06056886844453,233.8302599614144 82.98968487826642,233.0033478541045 82.78248552241712,232.82028948459265 81.76284658696386,233.0790959868791 81.38116356299724,233.31265214703308 81.81737273323233,235.2000061373401 82.5044021763606,237.30821993466088 83.9547976674512,242.9760562111478 84.15654440870276,243.56300743575775 85.86866540194023,247.02779991107673 86.08676998707233,247.0909090909081 86.83923080578097,246.85109386608383 87.35177658082102,247.0025562211813 88.28962629684247,246.80691727621524 88.27326845293283,246.4345704831394 88.52408872585511,246.3651496474813 88.97665573999984,246.57341192148306 89.32017046157853,246.4093265518968 89.46193844190566,246.6175886776109 90.34526201165863,246.81322821953654 90.86326040135464,246.71856400209435 91.38671140564838,246.32728370437326 91.47940585430479,245.58889319485752 91.8719941075542,245.046139011607 91.768394429615,244.5033800802339 91.89380456606159,244.23831003919622 91.62662644925877,243.9416826980996 91.4575953958265,243.49989466730403 91.39216402024613,242.84351806928316 91.74658397110761,242.55950681176182 92.2863928192819,242.78040456887175 92.58628662384581,242.76147050621512 92.66262322862167,242.35123106317405 92.53721309217508,241.84631725510917 92.43361341423588,241.80213710137104 92.53721309217508,241.75164545858206 92.41725557035534,241.71377669950743 92.51540263363859,241.7705798294446 92.52630786292139,241.47394068857466 92.38453988259425,241.14574253931642 91.74113135645166,241.10156188661495 91.44123755191686,240.87434660424697 91.56664768833434,240.0159702484707 92.0791934634035,239.13864684530563 92.47178171662381,238.70313637431173 92.65171799936797,238.6400186610481 93.03885363799054,238.1035155048521 93.72043046649196,237.45339369644353 94.32567069021752,236.69596163538154 94.1511870221002,236.34249017442926 93.61137817392591,236.33617816575133 93.5404941837478,236.1278815188016 93.7476935396262,235.62922912789872 93.98760858326568,235.40199379707337 94.21116578302463,235.4335543094785 94.30386023168103,235.31993638966378 94.11301871974138,234.88439910187662 94.3692916072323,234.34786345524117 94.60920665090089,234.20899464925242 94.81095339212334,234.2910535267365 94.7836903189891,234.13956012966082 95.38893054268556,233.86182127374923 95.44345668898313,233.69138999628194 95.97236030790373,233.36946297187387 96.02143383957446,232.90866255805304 95.32895178176113,231.58936572353923 95.21989948919509,231.53886576534205" stroke="#4DD2FF" stroke-linecap="round" stroke-linejoin="round" stroke-width="0.5"><title>2025-06-02 11.5km</title><desc>1748829019000</desc></polyline><polyline fill="none" points="121.11688311689068,238.1910037909547 120.75718286709161,236.35445075449388 110.38310066287522,237.32006564088806 106.08304767668596,236.82779263940756 101.48051948050852,237.02659551174293 106.14027271643863,236.8088590103216 109.90895033357083,237.30113211214484 120.74083285572124,236.363917615854 121.10870811122004,238.13420372573455" stroke="#4DD2FF" stroke-linecap="round" stroke-linejoin="round" stroke-width="0.5"><title>2025-06-01 4.9km</title><desc>1748740054000</desc></polyline><polyline fill="none" points="143.71428571426077,246.7353890965751 143.64318240596913,246.88634165430267 143.50097578938585,246.77655799276545 143.02695373422466,244.14172326189873 128.04785679013003,245.44542397395708 126.66134227870498,241.56173095974373 126.60208952182438,236.67607816614327 126.27027408318827,234.83705056644976 124.07792207790771,227.65911289113865 125.52368934621336,232.4627464346413 125.91475754178828,233.20386320276884 126.55468731629662,235.9624286476901 127.19461709080497,236.1408413819736 126.53098621353274,236.1271173339046 126.66134227870498,241.1088548698317 127.11166323110228,242.9615201522538 127.89379962219391,244.89649889686552 128.0952589956578,245.02000723432866 134.51825784350513,244.36129479209194 134.69601611420512,244.8827757412946 139.80360375891905,244.3887412082113" stroke="#4DD2FF" stroke-linecap="round" stroke-linejoin="round" stroke-width="0.5"><title>2025-05-31 5.5km</title><desc>1748696141000</desc></polyline><polyline fill="none" points="164.93459268007427,242.69188813846267 164.4883116883575,239.81257658210234 148.332939787535,241.25962236321357 146.84108618658502,237.00703848303237 146.67532467533601,231.8830997205805 152.1582054308965,231.9421663297544 146.75182998820674,231.85356640700775 146.85383707203437,236.9332077993604 147.24911452189554,238.5131762171659 148.2436835890985,240.78711920753994 162.55017709563253,239.41389816405717 163.8252656434779,239.34006870693702 163.88902007089928,239.8864057983883 166.31168831168907,239.69444975779334" stroke="#4DD2FF" stroke-linecap="round" stroke-linejoin="round" stroke-width="0.5"><title>2025-05-29 5.0km</title><desc>1748526381000</desc></polyline><polyline fill="none" points="181.1759112519212,235.3449386304419 180.74023915856378,231.7773015302664 188.1155453104875,231.41693014297925 188.90909090905916,234.31789896595 188.05330643994967,231.48900447916822 180.70911972335307,231.83135717497498 180.91139605239732,233.61518417893967 180.6313211353263,231.8493757195247 170.14407145942096,232.82237439925666 171.71560293901712,240.69625930041366 172.32243192620808,242.5340492385003 171.91787926806137,242.78629342550994 172.55582769046305,244.4799236474937 171.70004322141176,242.2457697270147 169.58392162504606,232.8584112846147 173.25601498340257,232.33587572879333 179.90001440711785,231.9214498794754 179.82221581903286,231.39891155430814 170.06627287133597,232.06559811117768 169.52168275456643,230.06553089796216 169.2727272727061,230.28175547136925 169.39720501366537,232.20974622531503 176.75695144786732,231.48900447916822" stroke="#4DD2FF" stroke-linecap="round" stroke-linejoin="round" stroke-width="0.5"><title>2025-05-27 6.0km</title><desc>1748352132000</desc></polyline><polyline fill="none" points="28.110581901011756,260.5542110266106 28.18885897702421,260.50241390000883 27.937254089891212,259.2463206499233 21.322841167944716,259.8808450865545 20.556844067119528,259.8937944988611 17.800372747995425,259.57005839927297 11.213915924628964,259.86142096315234 11.090909090911737,257.71178127363237 11.87367985091987,257.6276071552129 12.952785255765775,257.7053063454114 12.95837647546432,259.57005839927297 17.96251811971888,259.36934118901627 21.004141644225456,259.66717940236776 27.92607165046502,258.9808544643565 30.60985711327521,258.8837324119668 30.727272727293894,259.09740073119974 30.64899565128144,259.1232998725791 28.172085317899473,259.22689633247865" stroke="#4DD2FF" stroke-linecap="round" stroke-linejoin="round" stroke-width="0.5"><title>2025-05-25 7.6km</title><desc>1748179850000</desc></polyline><polyline fill="none" points="53.311807458580006,260.17497417935374 53.26033599427319,259.7502939511178 53.0094126057229,259.7502939511178 52.84856427973136,258.95308054445195 52.71988561892067,258.77426512866805 46.51114023590344,259.3032594666729 45.494578815676505,259.4895241674094 41.41546526865568,259.10954367445083 33.797688549995655,259.4522712652397 33.68831168831093,258.1558584436789 35.579888001899235,258.00684400246246 35.567020135815255,259.0946424384165 35.817943524365546,259.1244449074584 41.16454188013449,258.89347545447526 45.03776956984075,259.22875345349166 53.08018586918479,258.4538864148344 53.324675324663986,260.0930185379475" stroke="#4DD2FF" stroke-linecap="round" stroke-linejoin="round" stroke-width="0.5"><title>2025-05-24 6.6km</title><desc>1748094255000</desc></polyline><polyline fill="none" points="75.92207792209229,259.9658452478325 75.70846719763358,258.2159729339837 67.6229057002929,258.90309963210166 66.49947151960805,259.0954941663367 65.21780717271031,259.1138174338048 61.52313278988004,258.6648963048865 56.28571428571013,258.87561466500483 61.499398264917545,258.655734625856 65.17033812281443,259.1229790661746 73.54862542776391,258.4175306431498" stroke="#4DD2FF" stroke-linecap="round" stroke-linejoin="round" stroke-width="0.5"><title>2025-05-18 4.7km</title><desc>1747565909000</desc></polyline><polyline fill="none" points="95.96725919368328,259.7939819938365 95.75363714442938,258.53756614919985 90.05892304086592,259.01930364306827 89.10886708481121,259.1885618999804 88.34432501363335,259.18205197530915 85.74150899198139,258.8435349784522 78.92246831321972,259.1560122700321 78.88311688310932,258.96071414192556 82.72269213749678,258.71333565579334 85.32550815914874,258.66776583016326 88.36681154515827,259.1560122700321 95.82671837179805,258.4919961981541 98.33958826740854,258.3878361879797 98.44077765921247,258.4008561985429 98.45764255782706,258.4919961981541 98.51948051946238,258.45293621424935" stroke="#4DD2FF" stroke-linecap="round" stroke-linejoin="round" stroke-width="0.5"><title>2025-05-17 5.7km</title><desc>1747487200000</desc></polyline><polyline fill="none" points="120.04381498036673,258.2791209037241 117.44338708758005,258.41517610446317 116.17450359769282,258.6419343101079 110.34703868126962,259.086378717162 106.69704049438587,258.6147233559459 101.48051948050852,258.8233404586208 106.62654696719255,258.6328639929852 110.20605162685388,259.07730844531034 120.60776319808792,258.1702765933878 120.95239822004805,259.9299099572454 121.11688311686157,260.01154158843565" stroke="#4DD2FF" stroke-linecap="round" stroke-linejoin="round" stroke-width="0.5"><title>2025-05-11 5.0km</title><desc>1746965499000</desc></polyline><polyline fill="none" points="143.71428571428987,259.79641172399715 143.39734297263203,258.38540645781904 134.48773034708574,259.1928633833886 130.8675399206113,258.776901742247 124.07792207790771,259.0623658463446 130.69850379173295,258.7850578736252 134.07922636900912,259.1928633833886 143.45368834896362,258.4017187995705" stroke="#4DD2FF" stroke-linecap="round" stroke-linejoin="round" stroke-width="0.5"><title>2025-05-10 5.3km</title><desc>1746870058000</desc></polyline><polyline fill="none" points="166.26881415527896,258.75991557327507 166.2187943061581,258.619242337365 166.31168831171817,258.7268160102685 165.93296659673797,258.79301512274833 157.17949299613247,259.5625758444439 153.4708784665272,259.1240098755152 146.67532467533601,259.40535435439233 153.43515000285697,259.1240098755152 155.17155333750998,259.2646822368333 156.7507514320023,259.5543010367546 163.91788124540471,258.908863439734" stroke="#4DD2FF" stroke-linecap="round" stroke-linejoin="round" stroke-width="0.5"><title>2025-05-05 5.4km</title><desc>1746434825000</desc></polyline></svg>