<?xml version="1.0" encoding="utf-8" ?>
<svg baseProfile="full" height="300mm" version="1.1" viewBox="0,0,200,300" width="200mm" xmlns="http://www.w3.org/2000/svg" xmlns:ev="http://www.w3.org/2001/xml-events" xmlns:xlink="http://www.w3.org/1999/xlink"><defs /><rect fill="#222222" height="300" width="200" x="0" y="0" /><text fill="#FFFFFF" style="font-size:12px; font-family:Arial; font-weight:bold;" x="10" y="20">Over 3km Runs</text><text fill="#FFFFFF" style="font-size:4px; font-family:Arial" x="10" y="280">Runner</text><text fill="#FFFFFF" style="font-size:9px; font-family:Arial" x="10" y="290">tang-hi</text><text fill="#FFFFFF" style="font-size:4px; font-family:Arial" x="65" y="280">SPECIAL TRACKS</text><rect fill="yellow" height="2.6" width="2.6" x="65" y="283" /><text fill="#FFFFFF" style="font-size:3px; font-family:Arial" x="70" y="285.5">Over 20.0 km</text><rect fill="red" height="2.6" width="2.6" x="65" y="287" /><text fill="#FFFFFF" style="font-size:3px; font-family:Arial" x="70" y="289.5">Over 40.0 km</text><text fill="#FFFFFF" style="font-size:4px; font-family:Arial" x="120" y="280">STATISTICS</text><text fill="#FFFFFF" style="font-size:3px; font-family:Arial" x="120" y="285">Number: 50</text><text fill="#FFFFFF" style="font-size:3px; font-family:Arial" x="120" y="290">Weekly: 3.6</text><text fill="#FFFFFF" style="font-size:3px; font-family:Arial" x="141" y="285">Total: 268.2 km</text><text fill="#FFFFFF" style="font-size:3px; font-family:Arial" x="141" y="290">Avg: 5.4 km</text><text fill="#FFFFFF" style="font-size:3px; font-family:Arial" x="167" y="285">Min: 3.2 km</text><text fill="#FFFFFF" style="font-size:3px; font-family:Arial" x="167" y="290">Max: 11.5 km</text><polyline fill="none" points="24.054014369554352,31.33333333333576 24.106111793866148,33.021259174383886 23.76747853588313,35.67365585589141 23.333333333343035,37.50216062600521 23.23782138878596,39.15984177681821 22.656066817376995,42.55548974835983 22.690798433613963,43.07788678171346 22.100360958167585,47.05605061050301 22.082995150063653,48.42225178748049 22.829724898416316,54.7708214870072 23.411479469767073,55.33333333333576 22.56055487281992,48.78389011735271 22.603969393094303,46.644177436573955 23.845624672307167,38.104956986579055 24.001916945242556,37.13043437216402 24.149526314111426,36.93954737452441 24.080063081695698,36.527632071571134 24.583671516622417,33.121730042061245" stroke="#4DD2FF" stroke-linecap="round" stroke-linejoin="round" stroke-width="0.5"><title>2025-08-07 5.0km</title><desc>1754570205000</desc></polyline><polyline fill="none" points="54.415940654987935,31.33333333333576 54.469610416912474,32.016464538450236 54.64850962336641,32.08891757939273 54.585894901130814,32.5753866623636 55.06892275850987,32.64783930575504 55.1225925203762,33.09290441308258 54.6306197027443,35.55625286530994 54.48750033759279,36.87070434776979 54.585894901130814,37.22260186677158 54.433830575610045,37.367500491876854 54.14759184536524,39.05451931717107 52.88635243999306,48.22396135322924 53.66456398804439,55.33333333333576 52.877407479682006,48.05838055044296 53.43199501966592,43.86702688308287 53.63772910705302,43.29781741035549 54.12970192468492,39.05451931717107 54.380160813743714,37.491699149388296 54.54117009951733,37.21225195707666 54.47855537728174,36.808604659447155 54.97052819491364,33.18605732902506" stroke="#4DD2FF" stroke-linecap="round" stroke-linejoin="round" stroke-width="0.5"><title>2025-08-05 5.0km</title><desc>1754406000000</desc></polyline><polyline fill="none" points="84.30324559257133,55.33333333333576 84.71858396293828,51.892606476358196 84.97345069021685,51.69599018638837 85.3699100438389,49.03071166049631 85.6625348047819,46.889702349442814 85.68141382164322,45.55701175061404 84.99232970707817,40.826919064696995 84.72802347136894,37.68069130046206 84.49203576089349,36.86134603332175 84.13333444105228,36.34788648113317 84.2182900167536,36.184015894708864 84.68082592927385,36.22771474221372 84.46371723565971,34.075525384971115 84.02006034000078,33.60575243233325 84.05781837372342,32.27289705869043 83.65191951172892,31.33333333333576 84.06725788209587,32.41492341845151 84.02006034000078,33.4965026140344 84.48259625252103,34.06460045590211 84.69026543770451,36.216790031998244 84.56755182828056,36.32603708402894 84.11445542424917,36.23863945128687 84.71858396293828,37.5168227469112 85.10560380807146,41.65715825074585 85.68141382164322,45.58978302910691 85.67197431321256,46.94432046407019 84.56755182828056,54.50319979144115 84.5109147777548,54.68888811402576 84.2654875589069,54.69981094652758 84.17109247465851,55.11487775963906 83.90678623894928,55.09303217785782" stroke="#4DD2FF" stroke-linecap="round" stroke-linejoin="round" stroke-width="0.5"><title>2025-08-03 5.0km</title><desc>1754221111000</desc></polyline><polyline fill="none" points="127.33333333332848,42.03484335760368 127.25954394054133,42.34080182366961 127.06892134255031,42.3585900243379 123.32410965921008,42.28387952079356 123.22264924415504,42.21984181944208 123.07507045860984,42.280321873786306 122.59851396360318,42.27676422642617 122.55854470917257,42.23763008156675 121.70689213424339,42.287437167429744 121.28875224184594,42.223399472590245 119.93902126567264,42.21984181944208 119.35485523953685,42.12734271071531 118.95823725337686,42.024170339595 118.93364078912418,41.9850359124066 118.38329490134493,41.967247521944955 117.17499359464273,41.75378613149951 115.39789905201178,41.73955532586115 111.68998206505785,42.202053548280674 111.1888291057985,42.43330036847328 110.65078145013831,42.59695104142156 109.2057391749695,43.475670922933205 108.44017422493198,43.86343908062554 107.9697668459994,43.99862330049291 107.69305662310217,44.002180772909924 107.34255700741778,43.91680133503178 106.97053548551048,44.06977268027549 106.84447860617365,43.820749218575656 106.69382526261325,43.920358815761574 106.57084294132073,43.68912181626729 104.47706892131828,44.92711134081037 104.31719190365402,44.52512528774969 103.6715347168647,43.290679096211534 103.61004355622572,43.24798853586617 103.33333333332848,43.38317513173752 103.51473225721566,43.244430986826046 103.60389444016619,43.233758337526524 103.63156546244863,43.144819466833724 103.74224955162208,43.151934584799164 103.88982833716727,43.05232280167547 103.9328721496131,43.102128728663956 104.043556238772,43.03097738271754 104.0066615423857,43.09857116479907" stroke="#4DD2FF" stroke-linecap="round" stroke-linejoin="round" stroke-width="0.5"><title>2025-08-02 8.3km</title><desc>1754134728000</desc></polyline><polyline fill="none" points="146.6415060501895,31.33333333333576 146.5123437582224,31.363224906133837 146.4348463830247,32.170293926785234 147.0806578429474,32.170293926785234 147.0806578429474,32.8179371023798 144.9279529765481,47.06500505471922 144.93656379598542,48.56929494430369 145.83208902043407,55.33333333333576 144.97961789334659,48.75857481984713 144.9193421570526,47.29413679193385 146.19374343796517,38.18822880926746 146.5123437582224,36.95278885799053 146.4262355635874,36.673816392576555 146.83094407842145,33.734593978049816" stroke="#4DD2FF" stroke-linecap="round" stroke-linejoin="round" stroke-width="0.5"><title>2025-07-31 5.0km</title><desc>1753965181000</desc></polyline><polyline fill="none" points="176.19148518220754,55.33333333333576 176.29499005997786,54.4622839905569 176.5584570217179,54.14652685511828 177.51822952489601,47.5371897753721 177.62173440266633,45.09805628575123 177.13243861671071,42.1361766671107 176.6149142278009,37.24671824781399 176.11620890744962,36.28840179476538 176.21971378527815,36.146831591788214 176.63373329641763,36.20128169199597 176.4549521438894,34.034146327692724 175.97506589227123,33.51141364482464 176.03152309835423,32.30258454263094 175.6551417245646,31.33333333333576 176.0409326326917,32.324365367909195 176.00329449528363,33.53319422421191 176.4549521438894,34.09948773361975 176.6713714338257,36.179501655249624 176.54904748732224,36.28840179476538 176.1726661135326,36.13594156841282 176.13502797612455,36.29929180264298 176.6996000368381,37.55163532095321 177.0289337389404,41.21057249025762 177.67819160874933,45.88206953541521 177.0007051358698,51.52244017902558 176.50199981563492,54.64738256834971 176.32321866304846,54.723599536890106" stroke="#4DD2FF" stroke-linecap="round" stroke-linejoin="round" stroke-width="0.5"><title>2025-07-29 5.0km</title><desc>1753797916000</desc></polyline><polyline fill="none" points="24.362720676290337,58.0 24.34542004868854,59.831732320963056 23.947505613585236,62.63431694540486 23.636094316549134,63.5651577723911 23.42848678518203,66.12742688498838 22.848915760143427,69.19005176369683 22.918118270579726,69.73050509651512 22.34719755934202,73.52360341839085 22.381798814603826,75.53518734940008 23.091124546714127,82.0 22.425050383637426,76.38584481878206 22.30394599036663,74.25418342487683 22.85756607397343,69.35018639353075 23.627444002748234,64.45595419958408 23.549591178481933,64.20573129751574 23.921554672182538,62.6843623748573 24.34542004868854,59.301234114245744" stroke="#4DD2FF" stroke-linecap="round" stroke-linejoin="round" stroke-width="0.5"><title>2025-07-27 5.0km</title><desc>1753616848000</desc></polyline><polyline fill="none" points="54.68548730632756,58.0 54.71103341714479,60.10861232867319 54.24268805255997,63.43894401631405 54.05534990670276,63.79364716132841 53.79137342851027,66.69034095850657 53.31451269364334,69.33078918720275 53.34857417468447,69.83325440394401 52.72695214537089,73.93169701872102 53.50185083950055,82.0 54.012773055408616,81.92119198216824 53.64661213400541,77.97085807715484 53.22935899099684,75.20257314097398 53.21232825049083,73.7248086324762 54.38744934703573,65.43905867348076 54.77915637928527,63.78379431371286 54.69400267660967,63.39953247565427 55.27304785462911,59.89184121310245" stroke="#4DD2FF" stroke-linecap="round" stroke-linejoin="round" stroke-width="0.5"><title>2025-07-26 5.2km</title><desc>1753529066000</desc></polyline><polyline fill="none" points="85.49502484416007,58.0 85.3914800719358,58.519196792229195 85.52953976820572,59.188157845448586 85.36559387890156,60.76568975938426 85.0031871762767,63.221796635385545 84.8133550939092,63.571237747659325 84.78746890087496,64.61955362968001 84.01951184050995,69.22202723923692 84.07991295758984,69.6612976190736 83.51041671060375,73.84425129857846 83.58807528970647,76.07042853926396 84.26974503995734,82.0 84.76158270781161,81.95008927460003 84.3732898121525,78.32650292381004 84.45957712229574,78.13683494659199 83.96773945441237,75.32171984660818 83.95911072337185,73.98401278777601 85.82291662271018,60.93542269682803" stroke="#4DD2FF" stroke-linecap="round" stroke-linejoin="round" stroke-width="0.5"><title>2025-07-24 5.0km</title><desc>1753356656000</desc></polyline><polyline fill="none" points="114.91238784580491,81.9567031107581 115.03399432002334,82.0 115.44558546331245,78.57949152712536 115.71686144411797,78.40629830310354 115.65138103498612,78.07073563015001 116.35295684746234,73.72997479578044 116.3997285682708,72.42013441034942 115.69815275579458,67.79767636852193 115.40816808666568,64.37671170660906 114.84690743673127,63.196669919008855 114.93109653418651,63.0234516750279 115.38945939828409,63.11006083223765 115.14624644996366,60.93398440404417 114.74400965083623,60.50092906208738 114.781427027483,59.33167083970329 114.26693809835706,58.0 114.73465530667454,59.071833935173345 114.72530096251285,60.45762343102979 115.15560079418356,60.912331678773626 115.39881374250399,63.04510397093691 115.27720726834377,63.16419151971786 114.9498052225099,63.03427782354265 114.84690743673127,63.16419151971786 115.17430948244873,63.629714295952 115.40816808666568,64.40918973602675 115.82911357411649,68.71785380139045 116.37166553572752,72.23610595807986 116.36231119162403,73.675849479092 115.34268767747562,80.76603176019125" stroke="#4DD2FF" stroke-linecap="round" stroke-linejoin="round" stroke-width="0.5"><title>2025-07-22 5.0km</title><desc>1753184035000</desc></polyline><polyline fill="none" points="134.0,73.9582927346346 134.0,70.10711305658333 136.55161787383258,59.323622577416245 157.18644067808054,63.0893172986398 158.0,63.987944016378606 155.2265023116488,80.63358741343836 136.69953775056638,77.72385658801068 136.03389830538072,76.86804957792629 138.32665639463812,60.22225733156665 139.14021571655758,59.70875199264265 144.05855161813088,60.5218018234591 157.96302003087476,63.602818515122635 155.52234206488356,80.29126718334737 154.74576271208934,80.67637742255465 136.32973805861548,77.55269532513921 136.55161787383258,72.07549818136613 138.36363636376336,60.30784149389365 138.95531587069854,59.79433625927777 148.05238828994334,61.33485008450225 138.7704160248395,59.87992050856701 137.73497688770294,64.58702742960304 138.65947611723095,65.48565095113008" stroke="#4DD2FF" stroke-linecap="round" stroke-linejoin="round" stroke-width="0.5"><title>2025-07-20 4.9km</title><desc>1753020627000</desc></polyline><polyline fill="none" points="178.0461161407875,58.0 177.86506339733023,59.227074938389705 177.19258177868323,60.95293487395247 176.62355887060403,63.54665575901163 176.4683708047378,65.59165661516454 175.93383413352421,69.01319696154678 175.8131323045527,69.12292368801718 175.87348321906757,69.61170488915377 175.31308187014656,73.65153800773987 175.28721719252644,74.98813756955497 176.05453596249572,81.99002615568315 175.96832037041895,80.61362592672958 176.06315752174123,82.0 176.55458639690187,81.90026151112397 175.72691671241773,74.09042345143826 177.0460152720625,64.45444188328838 177.32190516687115,63.5865586221189 177.35639140373678,62.41939317656943" stroke="#4DD2FF" stroke-linecap="round" stroke-linejoin="round" stroke-width="0.5"><title>2025-07-20 5.0km</title><desc>1752942252000</desc></polyline><polyline fill="none" points="24.368194649927318,84.67740614011564 24.21969437133521,84.66666666666424 23.98766268597683,85.84800220376928 24.24753817357123,86.00909239038447 24.228975638689008,86.35275063469453 23.904131279268768,88.54354567779956 23.72778719838243,88.91941281312756 23.273005095135886,93.20420370159991 22.892473131185398,94.95458209752542 22.929598200833425,95.47002542703558 22.270628214464523,100.39882537085941 23.161629886133596,108.66666666666424 22.33559708634857,101.77326456337323 22.317034551524557,99.69012318159366 22.929598200833425,95.53445566654409 22.901754398539197,94.96532052583643 23.579286919732112,90.88463921672519 23.718505930970423,88.9086737706748 23.904131279268768,88.52206751541962 24.39603845216334,85.01032927558117" stroke="#4DD2FF" stroke-linecap="round" stroke-linejoin="round" stroke-width="0.5"><title>2025-07-17 5.0km</title><desc>1752765839000</desc></polyline><polyline fill="none" points="64.29729729739483,108.16022699617315 64.83783783798572,107.40965425453032 66.0,97.62076713852002 48.62162162165623,96.83889371735859 45.486486486624926,97.08909342830884 45.86486486485228,96.83889371735859 45.29729729727842,93.30480107141193 42.081081081181765,88.23815497022588 42.0,85.39203939490835 42.37837837834377,85.17310633716988 57.486486486624926,85.42331553323311 56.40540540544316,95.27514091553167 55.729729729820974,95.71299250097945 46.29729729727842,95.4002414321003 45.27027027029544,92.11633601805079 42.62162162165623,88.73856817450724 42.29729729727842,86.95584241993492 46.05405405408237,86.6743584619544 57.0,87.04967034875881 57.162162162247114,89.39535927010002 56.18918918934651,97.02654351966339 54.729729729820974,97.12036837782944" stroke="#4DD2FF" stroke-linecap="round" stroke-linejoin="round" stroke-width="0.5"><title>2025-07-15 4.1km</title><desc>1752589649000</desc></polyline><polyline fill="none" points="85.63115582807222,84.66666666666424 85.70429244695697,86.36980184030108 85.13748365064384,89.92408115776198 84.93635794869624,90.33662357700086 84.92721587140113,91.38383930057898 84.12271306372713,96.29186153721093 84.15928137319861,96.841884098023 83.54676219006069,101.40061312721082 84.27812837884994,108.66666666666424 83.8575928202481,105.78992005118198 83.53762011270737,101.16792181436904 84.9089317166945,91.30979409039719 84.82665302039823,90.97130103036761 85.10091534117237,89.99812735336309 85.64029790548375,86.47558571468835 85.57630336389411,86.10534168408049 85.79571322060656,84.98402315899875 85.59458751865895,84.73013804253424" stroke="#4DD2FF" stroke-linecap="round" stroke-linejoin="round" stroke-width="0.5"><title>2025-07-13 5.0km</title><desc>1752418082000</desc></polyline><polyline fill="none" points="115.12490510789212,108.66666666666424 115.00174297473859,108.65570397529518 115.0775350566837,107.78964783856645 115.49439150752733,105.15854857565137 115.7407157739508,104.93928740710544 116.16704623505939,101.95729126815422 116.39442248089472,98.87653956227587 115.76913780468749,94.58965322899894 115.44702145631891,91.00432587695832 115.25754125136882,90.30259648344509 114.85963282099692,89.66665027608542 114.944898913207,89.5021808189631 115.39965140505228,89.56796863193449 115.20069718989544,87.48466839855973 114.74594469805015,86.91449500326416 114.77436672878684,85.6096637724986 114.45225038041826,84.71052718001738 114.25329616526142,84.71052718001738 114.42382834968157,84.66666666666424 114.74594469805015,85.46711822750513 114.73647068778519,86.92545990470535 115.15332713862881,87.30923075191822 115.20069718989544,87.52852776562213 115.39965140505228,89.53507473045465 114.93542490300024,89.5131454572329 114.83121079026023,89.63375640476443 115.24806724110385,90.23680911869451 115.43754744605394,90.90564545692905 115.82598186616087,95.17075010665576 116.41337050142465,98.7997937345499 116.40389649115968,100.20313738292316 115.24806724110385,108.09660523939237" stroke="#4DD2FF" stroke-linecap="round" stroke-linejoin="round" stroke-width="0.5"><title>2025-07-12 5.1km</title><desc>1752325602000</desc></polyline><polyline fill="none" points="145.85539890488144,108.66666666666424 145.62217133207014,108.65587166447949 146.14460109517677,105.06107492744923 146.35917046212126,104.9531211920621 146.9562330484623,100.94796006686374 147.04952407762175,98.92912888262072 146.4991070057731,95.31241021875758 146.07929737475934,90.91820121151977 145.5195512000355,89.7845305593728 145.59418402326992,89.66576436204195 146.06063916895073,89.74134286661865 145.84606980194803,87.54954439192807 145.42626017087605,87.08526600150799 145.40760196506744,85.62763460623682 144.94114681950305,84.66666666666424 145.43558927380946,85.74640532062767 145.42626017087605,87.07446880549833 145.85539890488144,87.56034153965447 146.08862647769274,89.7089520855152 145.64082953787874,89.65496742841788 145.5382094059023,89.82771823453368 146.09795558056794,91.00457562213705 146.50843610870652,95.29081749865873 147.05885318049695,98.85355691669974 146.96556215139572,100.89398112276103 146.06996827182593,106.85309090880764" stroke="#4DD2FF" stroke-linecap="round" stroke-linejoin="round" stroke-width="0.5"><title>2025-07-10 5.0km</title><desc>1752149320000</desc></polyline><polyline fill="none" points="173.30093239614507,84.66666666667152 173.35714507708326,86.16270679468289 173.76468701375416,85.95131066853355 174.63598356820876,86.2440129226743 175.57754597370513,86.16270679468289 176.63153374107787,86.55297583236825 182.07011062081438,87.26846659637522 182.22469549335074,87.47986098268302 180.97396334272344,95.46385992593423 180.36967702273978,95.51264077280939 180.2572516608634,95.72402427067573 180.04645410738885,97.13866049415083 180.20103897992522,97.7565436574223 179.24542340420885,103.13853034743806 172.24694462877233,102.92715664036223 172.00804073479958,102.76456129120197 171.1086378400214,108.66666666667152 172.05020024545956,102.86211852051201 174.77651527046692,102.9108971128444 175.6899713355233,102.5531870903651 175.81644986761967,102.92715664036223 179.28758291492704,103.04097328658099 181.70472819474526,87.90264891763218 181.63446234364528,87.34977216264815 174.397079674236,86.08140062533494" stroke="#4DD2FF" stroke-linecap="round" stroke-linejoin="round" stroke-width="0.5"><title>2025-07-08 5.1km</title><desc>1751976330000</desc></polyline><polyline fill="none" points="11.547097139467951,135.11480357966502 11.495591373182833,135.33333333332848 11.821794559946284,135.19426897287485 11.92480609251652,134.08175052830484 12.525706699700095,133.58508846437326 12.645886821090244,133.0685585794563 14.379914287361316,121.04892010999902 14.534431586274877,117.4130822198058 14.122385455761105,114.73086337688437 15.066657838353422,114.69112652471813 15.307018081191927,115.04875790320511 18.620555714704096,115.52559872320853 21.281686974863987,115.48586203267041 23.22173750633374,116.26072604164074 29.40242946514627,117.17466425758903 30.535556324350182,111.33333333332848 35.171075293561444,112.36650661342719 31.0334453987889,111.39293963261298 30.260858903930057,114.83020547186607 30.140678782423493,117.21440060483292 18.56904994836077,115.66467707663833 15.307018081191927,115.06862629395619 15.015152072068304,114.63152123132022 14.07087968941778,114.79046863994154 14.44858864240814,116.37993561649637 14.517262997571379,119.81711375506711 12.577212465985212,133.12815825126017" stroke="#4DD2FF" stroke-linecap="round" stroke-linejoin="round" stroke-width="0.5"><title>2025-07-06 5.0km</title><desc>1751807521000</desc></polyline><polyline fill="none" points="45.65297900408041,133.84571740798128 46.69281174428761,126.45123865819187 43.32753487606533,126.21058567400905 42.26879608607851,126.58250380889513 43.6489377230173,126.45123865819187 43.45987722487189,126.23246322912746 46.93859039188828,126.42936112530879 47.18436903960537,126.21058567400905 47.07093274069484,125.53238036217226 48.488886477192864,116.5842456916871 48.35654412850272,112.12097835361783 50.795424555428326,111.88030934765993 65.7312039140379,114.33074482905795 65.71229786425829,113.60874441656051 49.28294056968298,111.33333333332848 49.54762526717968,116.7373953795468 47.827174733392894,128.90150827376056 48.299825979047455,129.64533460326493 47.86498683306854,130.454789747615 47.959517082199454,132.20495262858458 47.297805338399485,132.35809120374324 46.99530854134355,135.33333333332848 45.46391850581858,135.15832022858376 45.558448754949495,133.86759418722067" stroke="#4DD2FF" stroke-linecap="round" stroke-linejoin="round" stroke-width="0.5"><title>2025-07-05 4.8km</title><desc>1751729502000</desc></polyline><polyline fill="none" points="88.52947954629781,135.33333333332848 88.76699878484942,135.1597493092413 88.80450182245113,134.17610250794678 89.12952814891469,132.74401633732487 89.30454232468037,132.6861539670208 89.52956055069808,130.5886271630443 84.64166464156006,130.38610569751472 84.95418995548971,129.3011643684149 85.41672742000083,124.4115928272222 85.46673147025285,120.83833816059632 85.29171729448717,120.3609329698811 85.47923248272855,117.43859962352144 85.46673147025285,111.33333333332848 78.90369987866143,113.69155965601385 78.76618874055566,114.02431237100973 78.8161927908659,113.7349622281763 82.35397934395587,112.3894763347198 82.4164844067418,115.3697828061704 82.76651275827317,116.12208331064903 85.3792243822827,116.12208331064903 85.39172539487481,119.94139375296072 85.66674767108634,120.07159571125521 85.76675577153219,120.53453504272329 90.34212636679877,120.82387136017496 90.56714459281648,121.96674406332022 90.54214256763225,124.04993145575281 88.96701498574112,134.79811524592515" stroke="#4DD2FF" stroke-linecap="round" stroke-linejoin="round" stroke-width="0.5"><title>2025-07-03 5.2km</title><desc>1751545471000</desc></polyline><polyline fill="none" points="114.912767204165,135.33333333333576 115.48286795703461,131.8185747979296 115.7165158065618,131.65635237075185 116.31465430138633,127.22217693068524 116.36138387129176,125.68639503769373 115.3426792473183,117.53123809258977 114.84734580630902,116.50368723367137 114.95015086006606,116.36307423878316 115.3707169892732,116.43878895141825 115.17445279564708,114.3403898212564 114.71650301059708,113.75629197655508 114.72584892454324,112.42583491171536 114.28659096744377,111.33333333333576 114.76323258050252,112.52318599297723 114.71650301059708,113.77792528726422 115.13706913968781,114.18895735470869 115.20249053760199,114.52427181226085 115.3707169892732,116.42797256719496 114.912767204165,116.39552340793307 114.84734580630902,116.53613635992951 115.35202516132267,117.53123809258977 115.83801268832758,122.16050203527993 116.3800756992423,125.65394870226737 116.22119516157545,128.07658120421547 115.19314462359762,134.96564095387293" stroke="#4DD2FF" stroke-linecap="round" stroke-linejoin="round" stroke-width="0.5"><title>2025-07-01 5.0km</title><desc>1751376396000</desc></polyline><polyline fill="none" points="145.15657331887633,135.33333333332848 145.3298801711644,135.11942509650544 145.29521880071843,134.3306354676606 145.57250976434443,134.0632480795466 145.76892419694923,133.02043207356473 146.06932274089195,129.34377123520244 146.48525918636005,127.9131881584035 146.9474107925198,124.15616226062411 146.83187289099442,122.00351187822525 146.18486064241733,118.16609120802605 145.74581661669072,113.5129013130063 145.0525892075384,111.78797012678115 145.6649400855531,111.90831489728589 145.68804766586982,111.33333333332848 145.68804766586982,111.88157162444259 145.15657331887633,111.77459847883438 145.06414299766766,111.90831489728589 145.50318702345248,112.56352338210854 145.76892419694923,113.4861583665188 146.2541833833675,118.67418818055012 146.9474107925198,123.28708404851204 146.8896418416989,125.43971342501754 145.43386428250233,134.8787779144477" stroke="#4DD2FF" stroke-linecap="round" stroke-linejoin="round" stroke-width="0.5"><title>2025-06-30 4.1km</title><desc>1751292736000</desc></polyline><polyline fill="none" points="164.93612078978913,124.81280305832479 164.66666666668607,122.86529765371233 164.7595818815753,122.66086130110489 171.98838559817523,122.3165465492275 173.14053426246392,122.4241450298432 175.01742160279537,122.24122754759446 177.83275261323433,122.27350712631596 188.66666666668607,121.58487397282443 185.43321718933294,121.81083222146117 184.68060394894565,122.05830974838318 183.28687572589843,121.99375044945191 176.23461091757054,122.3595859546549 169.67479674797505,122.47794422900188 169.47967479674844,122.65010148212605 169.93495934957173,125.08179269384709 169.72125435539056,125.06027354823891 169.46109175373567,123.79063619299268" stroke="#4DD2FF" stroke-linecap="round" stroke-linejoin="round" stroke-width="0.5"><title>2025-06-26 5.0km</title><desc>1750950176000</desc></polyline><polyline fill="none" points="35.333333333343035,150.98225440696842 34.94581987801939,149.01774559303158 24.620739146019332,149.96510248330014 23.51847865091986,149.97507461228815 19.54000717616873,149.4764669169308 11.333333333343035,149.8254925704823 19.264442052401137,149.46649473709112 23.527090061019408,149.9850467403012 30.87262289202772,149.31691191774007" stroke="#4DD2FF" stroke-linecap="round" stroke-linejoin="round" stroke-width="0.5"><title>2025-06-24 5.0km</title><desc>1750769966000</desc></polyline><polyline fill="none" points="66.0,150.96111835589545 65.6714697405987,149.03888164410455 55.4524495677324,150.0100163508905 54.2074927953945,150.050062936818 50.1786743515695,149.5294560465045 42.0,149.8898764951955 49.962536023027496,149.5294560465045 54.198847262217896,150.050062936818 62.8530259365798,149.27916329018626" stroke="#4DD2FF" stroke-linecap="round" stroke-linejoin="round" stroke-width="0.5"><title>2025-06-22 5.0km</title><desc>1750563938000</desc></polyline><polyline fill="none" points="85.48683609691216,162.0 84.2464385133353,154.5894652416755 84.22904976218706,152.56887582415948 84.3391785195854,151.7230292817767 84.2696235149051,149.54794540820149 84.2928085164749,149.1719977008106 84.4203260250506,148.95716947540495 84.2928085164749,148.85646850336343 84.28701226605335,147.4802064445903 82.87852342118276,139.00716892904893 82.52495214735973,138.0 82.88431967154611,138.87959505083563 84.2696235149051,147.33922187700227 84.34497476997785,151.46121743510594 84.2464385133353,152.5755888484855 84.24064226294286,154.52233702103695 85.19122732701362,160.21456697728718 85.32454108598176,160.6038760486117 86.8083811859542,160.52332953303267" stroke="#4DD2FF" stroke-linecap="round" stroke-linejoin="round" stroke-width="0.5"><title>2025-06-21 8.0km</title><desc>1750517001000</desc></polyline><polyline fill="none" points="117.768202636973,162.0 115.73520496604033,149.49850031468668 112.15775945194764,149.42549629311543 105.71205365791684,148.80496090797533 105.83813103282591,148.14792109704285 105.58597628294956,146.8885880526068 105.93268906406593,138.65707705785462 105.88541004835861,138.07300868110906 105.57021661108593,138.0 105.17622481432045,148.12966995679017 105.77509234537138,148.2026745066978 105.80661168904044,148.82321197947022 115.78248398163123,149.48024931210966 116.9959787154221,157.29150842323725 117.37421084032394,158.33176721757627 125.49044185236562,158.07626561747747" stroke="#4DD2FF" stroke-linecap="round" stroke-linejoin="round" stroke-width="0.5"><title>2025-06-19 5.0km</title><desc>1750345525000</desc></polyline><polyline fill="none" points="158.0,150.6008250245286 157.7797101449396,149.29176617336634 150.9855072463688,149.93622916676395 150.11014492751565,149.95636853367614 147.19999999998254,149.62071161411586 136.41739130433416,150.11077014231705 135.4840579709853,150.26517138900817 134.0,150.70823382663366 136.09275362314656,150.14433566151274 139.8840579710086,149.97650789446925" stroke="#4DD2FF" stroke-linecap="round" stroke-linejoin="round" stroke-width="0.5"><title>2025-06-17 5.1km</title><desc>1750166247000</desc></polyline><polyline fill="none" points="165.4942528734682,159.05670083167206 164.66666666662786,153.73783081036527 183.37011494254693,153.1867698290589 180.32873563223984,141.18290353822522 184.01149425283074,141.3985472623608 188.66666666662786,140.9432991683425 181.32183908042498,141.37458685833553 184.0321839080425,152.18048122545588 176.0045977011323,152.5638297729165" stroke="#4DD2FF" stroke-linecap="round" stroke-linejoin="round" stroke-width="0.5"><title>2025-06-16 3.2km</title><desc>1750084948000</desc></polyline><polyline fill="none" points="35.33333333331393,177.77611800938757 34.96559139783494,175.55721532394818 23.168817204248626,176.64425910302816 22.104301075218245,176.65546568397986 17.439784946211148,176.0839286002156 11.33333333331393,176.3753008180429 17.246236559120007,176.07272196102713 22.094623655895703,176.63305252097052 32.1010752688162,175.79255561026366" stroke="#4DD2FF" stroke-linecap="round" stroke-linejoin="round" stroke-width="0.5"><title>2025-06-15 4.6km</title><desc>1749956754000</desc></polyline><polyline fill="none" points="66.0,177.6318849613308 65.70784103116603,175.70144837199769 55.430719656316796,176.6467700275898 54.35660580021795,176.66667143775703 49.83673469387577,176.15918421139213 42.0,176.51741076266626 49.9914070891391,176.15918421139213 54.28786251344718,176.66667143775703 56.53061224494013,176.55721363167686 56.95166487645474,176.41790351917007 62.39957035446423,175.930316559934" stroke="#4DD2FF" stroke-linecap="round" stroke-linejoin="round" stroke-width="0.5"><title>2025-06-14 5.1km</title><desc>1749906363000</desc></polyline><polyline fill="none" points="96.66666666665697,178.09166922865552 96.37812352663605,176.14581278419064 86.4318717585993,177.10891835648363 85.09099481377052,177.1187459148059 81.01744460160262,176.62736677278735 73.34559170203283,176.99098757876345 73.24375294672791,176.76495318497473 73.286185761448,175.25149185329064 72.66666666665697,175.24166410468024 73.31164545027423,175.27114734751376 73.24375294672791,176.75512559060007 73.37105139085907,176.99098757876345 81.22960867514485,176.61753916442103 85.27769919851562,177.12857347212412 93.33993399344035,176.40133152664202 93.33144743044977,176.0082254885565 95.91984912776388,175.87063799663156" stroke="#4DD2FF" stroke-linecap="round" stroke-linejoin="round" stroke-width="0.5"><title>2025-06-12 5.9km</title><desc>1749735885000</desc></polyline><polyline fill="none" points="127.33333333331393,184.2168484510621 126.5682605683105,180.36482953710947 105.54539154533995,182.23306851630332 103.56618156615878,176.82090278581018 103.33333333331393,170.06029296043562 107.25848925847095,169.8869408097089 110.60152460145764,170.09881563897943 110.78447678452358,169.48245183957624 110.4352044351981,169.34762199044053 103.43312543304637,169.11648488228093 103.58281358279055,176.62829616676026 104.16493416490266,178.82399998579058 105.31254331249511,181.55896379800106 114.62647262646351,180.75003496187855 114.80942480941303,181.48192310564627 126.51836451841518,180.34556924522622 127.23354123358149,184.15906874736538" stroke="#4DD2FF" stroke-linecap="round" stroke-linejoin="round" stroke-width="0.5"><title>2025-06-10 5.3km</title><desc>1749559786000</desc></polyline><polyline fill="none" points="134.63015753938816,170.2767672228365 134.05401350348257,167.94163718505297 134.0,166.1277231360873 150.33008252072614,165.7107291269058 151.0682670667302,168.44202443707036 150.5281320330687,168.42117499270535 150.36609152285382,168.79646466665145 150.7081770442892,170.73545034822018 150.61815453867894,172.04894633621734 151.212303075823,174.67591301318316 152.74268567143008,174.61336657954962 155.01125281327404,183.34883332681784 155.04726181551814,183.7449435047165 154.47111777949613,183.9117265081586 154.993248312152,183.7657913876319 155.17329332325608,184.09935722443333 154.70517629408278,184.18274859875964 154.86721680418123,184.95411719940603 155.94748687173706,187.70600311023009 156.70367591897957,187.62261317179946 158.0,186.91379732331552 156.63165791449137,187.2056629700819 154.20105026254896,177.51133125688648 153.91297824459616,176.67738879373064 153.26481620408595,176.67738879373064 152.77869467367418,174.55082012673665 152.25656414101832,174.75930822829832 151.19429857470095,174.61336657954962 150.6001500375569,172.21573887408886 150.47411852970254,169.13005491002696 149.48387096775696,165.6273302230984 134.05401350348257,166.16942249026033 134.70217554387636,170.4018627226178" stroke="#4DD2FF" stroke-linecap="round" stroke-linejoin="round" stroke-width="0.5"><title>2025-06-08 5.0km</title><desc>1749355299000</desc></polyline><polyline fill="none" points="188.66666666665697,177.65426184657554 188.24455611387384,175.67907148676022 180.50873414688976,176.32749695922394 178.18281885614851,176.65669593965868 176.89064369467087,176.65669593965868 172.79875568317948,176.1579091735548 164.66666666665697,176.51703590137186 172.4111031347129,176.1579091735548 176.84757118931157,176.6666716490363 186.17707585546304,175.82870851551706" stroke="#4DD2FF" stroke-linecap="round" stroke-linejoin="round" stroke-width="0.5"><title>2025-06-07 5.3km</title><desc>1749293029000</desc></polyline><polyline fill="none" points="35.333333333343035,204.28409725465463 34.97899411842809,202.3825694120169 24.029048133495962,203.38337812972895 19.586844316421775,202.87296695822442 11.333333333343035,203.21324136735348 19.552274636924267,202.85295077978662 23.50186052097706,203.38337812972895 31.96278958109906,202.61275632031902" stroke="#4DD2FF" stroke-linecap="round" stroke-linejoin="round" stroke-width="0.5"><title>2025-06-05 5.1km</title><desc>1749128617000</desc></polyline><polyline fill="none" points="42.335958005220164,203.18142275678838 42.0,200.98089320224244 42.12598425196484,200.88363129067875 51.543307086627465,200.55537175371865 53.317585301818326,207.0596053163681 62.619422572199255,206.9380341094802 66.0,206.7313627734402 63.21784776909044,206.8286199173308 62.703412073489744,199.6070613503034 53.800524934369605,200.12984878723364 51.88976377953077,200.06905966807972 52.057742782111745,200.55537175371865 47.123359580058604,200.70126499279286" stroke="#4DD2FF" stroke-linecap="round" stroke-linejoin="round" stroke-width="0.5"><title>2025-06-03 5.2km</title><desc>1748952979000</desc></polyline><polyline fill="none" points="92.51388788566692,196.1786900219886 91.98740765100229,195.3994417804497 91.6142064720334,194.58160827514075 91.37429142839392,194.357859834985 90.78116812606459,194.30385149183712 90.32799526586314,193.77919701216888 90.12140175607055,193.09251139555272 89.81484364473727,192.62185810891242 89.44830677250866,191.33333333333576 88.38868199643912,191.7885631525569 87.89552329562139,191.84257328858803 86.6159763962205,192.32094709848752 86.06950324127683,193.02307093054696 86.06950324127683,193.20052977016894 83.85695339436643,196.01666877022217 83.84362478082767,196.1786900219886 83.23717286495958,197.01193670227076 82.71069263032405,197.49799303485634 82.61739233558183,197.41312628080777 82.24419115655473,197.73716246683762 81.99761180614587,197.59057484001096 81.9909474994347,197.72944733565964 81.95762596555869,197.52885364916438 82.30416991747916,197.77573811099865 82.25085546335322,198.0534821692272 81.4511386512022,198.94071331381565 80.08495576382848,199.24931301642937 80.08495576382848,199.11044330577715 79.99165546908625,199.28017291758442 79.61845429008827,199.3650375809666 79.29190325844684,199.27245794346527 78.74543010350317,199.3187477763422 78.65212980873184,199.23388306114066 78.4322076854296,199.35732261550584 77.77244131543557,199.12587328618247 77.68580532743363,198.11520293280046 77.43256167025538,197.8914649256185 76.1863363047305,198.20778398396942 75.71983483096119,198.4932415130461 76.2529793723952,200.80000750120234 77.0926820251043,203.37671325348492 78.86538762532291,210.30406870252045 79.11196697573178,211.0214535326013 81.20455930082244,215.25619989132247 81.47113157151034,215.33333333333576 82.3908059054811,215.04022583633196 83.01725074165734,215.22534649256704 84.16351150569972,214.9862322264962 84.14351858536247,214.53114170162007 84.45007669669576,214.44629401359998 85.00321415840881,214.7008367929302 85.42306548479246,214.50028800788277 85.59633746076724,214.75483060597617 86.67595515711582,214.99394560166547 87.30906430009054,214.87824489145714 87.94883774977643,214.40001341645984 88.06213096482679,213.49753612705535 88.54196105210576,212.83416990308615 88.41533922351664,212.17079787584953 88.56861827918328,211.84682338124549 88.24206724754185,211.48427885324054 88.03547373777837,210.94431570448796 87.9555020565167,210.14207764024468 88.38868199643912,209.7949527699384 89.04844836643315,210.06493891751597 89.41498523869086,210.04179728538293 89.50828553343308,209.54039352166 89.35500647776644,208.92327664513869 89.22838464917731,208.8692786794636 89.35500647776644,208.8075666716104 89.20839172889828,208.76128263273858 89.32834925065981,208.8307086804416 89.34167786425678,208.46814973048458 89.168405888282,208.0670186591742 88.38201768966974,208.0130200836502 88.01548081744113,207.7353125163063 88.16875987307867,206.68618585925287 88.79520470928401,205.6139016998277 89.27503479653387,205.08161112416565 89.49495691986522,205.0044672524018 89.96812270040391,204.34874117260188 90.80116104637273,203.55414785121684 91.54089909759932,202.6283975543629 91.32764128100825,202.19637687986688 90.66787491101422,202.18866220259224 90.58123892304138,201.93407741187548 90.83448258019052,201.32461337855057 91.12771207798505,201.0468813075422 91.40094865547144,201.0854552671517 91.5142418704927,200.9465889207131 91.2809911336517,200.41426556896477 91.59421355172526,199.75849977863254 91.88744304951979,199.58877123798447 92.13402239992865,199.68906542157492 92.10070086608175,199.5039068251499 92.84043891727924,199.16444822347694 92.90708198497305,198.95614332879632 93.55351974142832,198.5626769656301 93.61349850235274,197.9994764598523 92.76713154281606,196.38700255099684 92.63384540745756,196.32528037987504" stroke="#4DD2FF" stroke-linecap="round" stroke-linejoin="round" stroke-width="0.5"><title>2025-06-02 11.5km</title><desc>1748829019000</desc></polyline><polyline fill="none" points="127.33333333331393,204.45567130005657 126.8936996946577,202.21099536660768 114.21426588954637,203.39119133885833 108.9586455730605,202.78952433705854 103.33333333331393,203.032505625466 109.02858728833962,202.76638323484076 113.63474882039009,203.36805035929137 126.8737163474434,202.22256597493106 127.32334165973589,204.3862489981184" stroke="#4DD2FF" stroke-linecap="round" stroke-linejoin="round" stroke-width="0.5"><title>2025-06-01 4.9km</title><desc>1748740054000</desc></polyline><polyline fill="none" points="158.0,214.89880889582855 157.91309595655184,215.08330646637478 157.73928786959732,214.94912643560383 157.15992757992353,211.72877287567826 138.8521424260689,213.32218485706835 137.1575135787134,208.57544895081082 137.08509354258422,202.60409553641512 136.67954133974854,200.35639513678325 134.0,191.58336020029674 135.76704888348468,197.45446786457615 136.24502112256596,198.36027724783344 137.02715751359938,201.73185723608185 137.8092939046328,201.94991724463762 136.99818949907785,201.93314340812503 137.1575135787134,208.021933729804 137.70790585392388,210.28630240833445 138.66385033191182,212.65127642951848 138.91007845499553,212.80223106419726 146.76041038020048,211.99713807924127 146.97767048876267,212.63450368381746 153.2202776101185,212.030683698933" stroke="#4DD2FF" stroke-linecap="round" stroke-linejoin="round" stroke-width="0.5"><title>2025-05-31 5.5km</title><desc>1748696141000</desc></polyline><polyline fill="none" points="186.9835497835884,209.95675216922245 186.43809523817617,206.43759360033437 166.6926406926941,208.2062051105895 164.86926406930434,203.0086025903729 164.66666666668607,196.7460107695806 171.3679653679137,196.8182032918994 164.76017316017533,196.7099144974345 164.88484848482767,202.91836508808774 165.36796536803013,204.84943759875023 166.5835497835069,207.62870125364861 184.06926406925777,205.95031997827755 185.6277056277031,205.86008397514524 185.70562770566903,206.52782930912508 188.66666666668607,206.29321637062822" stroke="#4DD2FF" stroke-linecap="round" stroke-linejoin="round" stroke-width="0.5"><title>2025-05-29 5.0km</title><desc>1748526381000</desc></polyline><polyline fill="none" points="25.881669307942502,227.64381388164475 25.349181193858385,223.2833685369842 34.363444268354215,222.84291461919202 35.33333333337214,226.38854318059748 34.2873745377874,222.93100547452923 25.311146328574978,223.34943654718518 25.558372952975333,225.52966955203738 25.216059165424667,223.37145921276533 12.398309561540373,224.56067982131208 14.319070258876309,234.18431692272134 15.060750132077374,236.4305046248337 14.566296883276664,236.7388030756265 15.346011621761136,238.80879556915897 14.300052826176398,236.07816299967817 11.713681986206211,224.60472490341635 16.201796090928838,223.96607033518376 24.322239830973558,223.45954985269054 24.227152667706832,222.82089189971157 12.303222398390062,223.63573102476948 11.637612255639397,221.19120443084103 11.333333333372138,221.45547890945454 11.485472794505768,223.81191205314826 20.480718436301686,222.93100547452923" stroke="#4DD2FF" stroke-linecap="round" stroke-linejoin="round" stroke-width="0.5"><title>2025-05-27 6.0km</title><desc>1748352132000</desc></polyline><polyline fill="none" points="62.80182232343941,231.7884801436303 62.897494305245345,231.7251725444512 62.58997722095228,230.1899474610109 54.50569476079545,230.96547732800536 53.56947608201881,230.9813043874965 50.20045558086713,230.58562693244312 42.15034168565762,230.94173673273326 42.0,228.3143993344347 42.95671981776832,228.2115198563697 44.27562642368139,228.30648553327774 44.28246013665921,230.58562693244312 50.398633257398615,230.34030589768372 54.1161731207103,230.7043303806713 62.57630979499663,229.86548878976464 65.8564920273202,229.7467840590689 66.0,230.00793422701827 65.90432801822317,230.03958873314696 62.87699316628277,230.16620662857895" stroke="#4DD2FF" stroke-linecap="round" stroke-linejoin="round" stroke-width="0.5"><title>2025-05-25 7.6km</title><desc>1748179850000</desc></polyline><polyline fill="none" points="96.65093927478301,231.32496844143316 96.5880297072872,230.80591482914315 96.28134556571604,230.80591482914315 96.08475316729164,229.83154288765945 95.92747924855212,229.61299071281246 88.33901266928297,230.25953934815334 87.09654871124076,230.48719620460906 82.11096548708156,230.02277560210496 72.80034949761466,230.44166487974144 72.66666666665697,228.8571603200544 74.97859327215701,228.67503155855957 74.96286588028306,230.0045629802844 75.26955002185423,230.04098822022934 81.8042813455686,229.75869222213805 86.53822629965725,230.16847644315567 96.36784622105188,229.22141672924045 96.66666666665697,231.2248004352732" stroke="#4DD2FF" stroke-linecap="round" stroke-linejoin="round" stroke-width="0.5"><title>2025-05-24 6.6km</title><desc>1748094255000</desc></polyline><polyline fill="none" points="127.33333333331393,231.0693664140199 127.07225355895935,228.9306335859801 117.18990061781369,229.7704551058996 115.81681439699605,230.00560398108064 114.25033575075213,230.02799908576708 109.73462261620443,229.47931770596915 103.33333333331393,229.73686236834328 109.70561375236139,229.4681200982668 114.19231802312424,230.0391966364332 124.43244695139583,229.17698189718067" stroke="#4DD2FF" stroke-linecap="round" stroke-linejoin="round" stroke-width="0.5"><title>2025-05-18 4.7km</title><desc>1747565909000</desc></polyline><polyline fill="none" points="154.88061837959685,230.859311325803 154.61952476383885,229.32369196013315 147.65931863727747,229.91248223041475 146.49813913542312,230.11935343331425 145.5636988262122,230.11139685870876 142.38247924420284,229.69765386255312 134.0480961923895,230.07957055226143 134.0,229.84087284013367 138.692814199836,229.53852135707712 141.87403378184536,229.4828249035345 145.59118236473296,230.07957055226143 154.70884626396582,229.26799535330065 157.78013169195037,229.140688674197 157.90380761525012,229.1566020204409 157.92442026911885,229.26799535330065 158.0,229.22025537297304" stroke="#4DD2FF" stroke-linecap="round" stroke-linejoin="round" stroke-width="0.5"><title>2025-05-17 5.7km</title><desc>1747487200000</desc></polyline><polyline fill="none" points="187.35513894428732,229.00781443788583 184.1768381863949,229.1741041276764 182.62598058767617,229.451253045685 175.50352346757427,229.994462876537 171.04241457249736,229.4179952128179 164.66666666668607,229.67297167165088 170.95625581702916,229.44016710254073 175.33120595663786,229.98337698871183 188.04440898814937,228.87478250302956 188.46562957053538,231.02544550329912 188.66666666668607,231.1252174969777" stroke="#4DD2FF" stroke-linecap="round" stroke-linejoin="round" stroke-width="0.5"><title>2025-05-11 5.0km</title><desc>1746965499000</desc></polyline><polyline fill="none" points="35.333333333343035,257.528947662664 34.945958871307084,255.8043856706645 24.056432329001836,256.79127746858285 19.6317551410757,256.282879907194 11.333333333343035,256.6317804788705 19.425155428034486,256.2928485122102 23.55714968914981,256.79127746858285 35.01482544239843,255.8243229772488" stroke="#4DD2FF" stroke-linecap="round" stroke-linejoin="round" stroke-width="0.5"><title>2025-05-10 5.3km</title><desc>1746870058000</desc></polyline><polyline fill="none" points="65.94759825326037,256.2621190340069 65.88646288210293,256.09018507901055 66.0,256.22166401256254 65.53711790393572,256.30257403892756 54.83842794763041,257.2431482543252 50.305676855903585,256.7071231812006 42.0,257.0509886553773 50.26200873363996,256.7071231812006 52.38427947598393,256.8790560672496 54.31441048037959,257.2330346004819 63.074235807871446,256.44416642634314" stroke="#4DD2FF" stroke-linecap="round" stroke-linejoin="round" stroke-width="0.5"><title>2025-05-05 5.4km</title><desc>1746434825000</desc></polyline></svg>