<?xml version="1.0" encoding="utf-8" ?>
<svg baseProfile="full" height="300mm" version="1.1" viewBox="0,0,200,300" width="200mm" xmlns="http://www.w3.org/2000/svg" xmlns:ev="http://www.w3.org/2001/xml-events" xmlns:xlink="http://www.w3.org/1999/xlink"><defs /><rect fill="#222222" height="300" width="200" x="0" y="0" /><text fill="#FFFFFF" style="font-size:12px; font-family:Arial; font-weight:bold;" x="10" y="20">Over 3km Runs</text><text fill="#FFFFFF" style="font-size:4px; font-family:Arial" x="10" y="280">Runner</text><text fill="#FFFFFF" style="font-size:9px; font-family:Arial" x="10" y="290">tang-hi</text><text fill="#FFFFFF" style="font-size:4px; font-family:Arial" x="65" y="280">SPECIAL TRACKS</text><rect fill="yellow" height="2.6" width="2.6" x="65" y="283" /><text fill="#FFFFFF" style="font-size:3px; font-family:Arial" x="70" y="285.5">Over 20.0 km</text><rect fill="red" height="2.6" width="2.6" x="65" y="287" /><text fill="#FFFFFF" style="font-size:3px; font-family:Arial" x="70" y="289.5">Over 40.0 km</text><text fill="#FFFFFF" style="font-size:4px; font-family:Arial" x="120" y="280">STATISTICS</text><text fill="#FFFFFF" style="font-size:3px; font-family:Arial" x="120" y="285">Number: 52</text><text fill="#FFFFFF" style="font-size:3px; font-family:Arial" x="120" y="290">Weekly: 3.7</text><text fill="#FFFFFF" style="font-size:3px; font-family:Arial" x="141" y="285">Total: 278.3 km</text><text fill="#FFFFFF" style="font-size:3px; font-family:Arial" x="141" y="290">Avg: 5.4 km</text><text fill="#FFFFFF" style="font-size:3px; font-family:Arial" x="167" y="285">Min: 3.2 km</text><text fill="#FFFFFF" style="font-size:3px; font-family:Arial" x="167" y="290">Max: 11.5 km</text><polyline fill="none" points="23.980480932834325,31.41374506275315 24.093406017316738,31.33333333333576 24.10209256230155,33.03201722297672 23.563526774785714,36.48960319619073 23.381109330628533,36.83133478285163 23.19869188647135,39.153068134808564 22.62537991910358,42.519987244966615 22.0433814067801,47.374179419115535 22.095500676572556,48.86154468655877 22.70355882376316,53.89631122149149 23.337676605849992,55.33333333333576 22.486395199754043,47.4344784457644 23.772003853839124,38.15804622664291 24.084719472390134,36.871538421291916 24.006540567730553,36.59011260890111 24.37137545607402,33.87632262365514 24.62328525990597,32.85109369959537" stroke="#4DD2FF" stroke-linecap="round" stroke-linejoin="round" stroke-width="0.5"><title>2025-08-10 5.0km</title><desc>1754830447000</desc></polyline><polyline fill="none" points="53.658720392908435,55.33333333333576 54.958387937862426,47.597224619319604 55.04253907391103,45.779427999317704 54.35062973340973,40.985922575848235 54.02337531559169,37.49074754078174 53.499768247129396,36.56012431131967 53.57456925691804,36.365341675242234 54.05142569425516,36.462733037857106 53.84572291740915,34.32010247116705 53.39691685867729,33.789848853470176 53.424967237282544,32.57783066236152 52.948110799945425,31.33333333333576 53.443667489802465,32.62111726402509 53.40626698487904,33.80067038229754 53.84572291740915,34.33092394605046 54.07012594671687,36.43026926022867 53.593269509321544,36.408626736294536 53.537168751994614,36.52766056341352 54.07012594671687,37.674706983336364 54.50023175292881,41.927327809091366 55.005138568987604,45.022003579186276 55.051889200054575,46.74243126565125 53.96727455826476,54.42450494594959 53.66807051911019,54.73826800406823" stroke="#4DD2FF" stroke-linecap="round" stroke-linejoin="round" stroke-width="0.5"><title>2025-08-09 5.0km</title><desc>1754735080000</desc></polyline><polyline fill="none" points="85.38734770286828,31.33333333333576 85.43944512718008,33.021259174383886 85.10081186919706,35.67365585589141 84.66666666665697,37.50216062600521 84.57115472209989,39.15984177681821 83.98940015069093,42.55548974835983 84.0241317669279,43.07788678171346 83.43369429148152,47.05605061050301 83.41632848337758,48.42225178748049 84.16305823173025,54.7708214870072 84.744812803081,55.33333333333576 83.89388820613385,48.78389011735271 83.93730272640823,46.644177436573955 85.1789580056211,38.104956986579055 85.33525027855649,37.13043437216402 85.48285964742536,36.93954737452441 85.41339641500963,36.527632071571134 85.91700484993635,33.121730042061245" stroke="#4DD2FF" stroke-linecap="round" stroke-linejoin="round" stroke-width="0.5"><title>2025-08-07 5.0km</title><desc>1754570205000</desc></polyline><polyline fill="none" points="115.74927398830187,31.33333333333576 115.8029437502264,32.016464538450236 115.98184295668034,32.08891757939273 115.91922823444474,32.5753866623636 116.4022560918238,32.64783930575504 116.45592585369013,33.09290441308258 115.96395303605823,35.55625286530994 115.82083367090672,36.87070434776979 115.91922823444474,37.22260186677158 115.76716390892398,37.367500491876854 115.48092517867917,39.05451931717107 114.21968577330699,48.22396135322924 114.99789732135832,55.33333333333576 114.21074081299594,48.05838055044296 114.76532835297985,43.86702688308287 114.97106244036695,43.29781741035549 115.46303525799885,39.05451931717107 115.71349414705765,37.491699149388296 115.87450343283126,37.21225195707666 115.81188871059567,36.808604659447155 116.30386152822757,33.18605732902506" stroke="#4DD2FF" stroke-linecap="round" stroke-linejoin="round" stroke-width="0.5"><title>2025-08-05 5.0km</title><desc>1754406000000</desc></polyline><polyline fill="none" points="145.63657892588526,55.33333333333576 146.0519172962522,51.892606476358196 146.30678402353078,51.69599018638837 146.70324337715283,49.03071166049631 146.99586813809583,46.889702349442814 147.01474715495715,45.55701175061404 146.3256630403921,40.826919064696995 146.06135680468287,37.68069130046206 145.82536909420742,36.86134603332175 145.46666777436621,36.34788648113317 145.55162335006753,36.184015894708864 146.01415926258778,36.22771474221372 145.79705056897365,34.075525384971115 145.3533936733147,33.60575243233325 145.39115170703735,32.27289705869043 144.98525284504285,31.33333333333576 145.4005912154098,32.41492341845151 145.3533936733147,33.4965026140344 145.81592958583497,34.06460045590211 146.02359877101844,36.216790031998244 145.9008851615945,36.32603708402894 145.4477887575631,36.23863945128687 146.0519172962522,37.5168227469112 146.4389371413854,41.65715825074585 147.01474715495715,45.58978302910691 147.0053076465265,46.94432046407019 145.9008851615945,54.50319979144115 145.84424811106874,54.68888811402576 145.59882089222083,54.69981094652758 145.50442580797244,55.11487775963906 145.2401195722632,55.09303217785782" stroke="#4DD2FF" stroke-linecap="round" stroke-linejoin="round" stroke-width="0.5"><title>2025-08-03 5.0km</title><desc>1754221111000</desc></polyline><polyline fill="none" points="188.66666666667152,42.03484335760368 188.59287727388437,42.34080182366961 188.40225467589335,42.3585900243379 184.65744299255311,42.28387952079356 184.55598257749807,42.21984181944208 184.40840379195288,42.280321873786306 183.93184729694622,42.27676422642617 183.8918780425156,42.23763008156675 183.04022546758642,42.287437167429744 182.62208557518898,42.223399472590245 181.27235459901567,42.21984181944208 180.68818857287988,42.12734271071531 180.2915705867199,42.024170339595 180.26697412246722,41.9850359124066 179.71662823468796,41.967247521944955 178.50832692798576,41.75378613149951 176.73123238535482,41.73955532586115 173.02331539840088,42.202053548280674 172.52216243914154,42.43330036847328 171.98411478348135,42.59695104142156 170.53907250831253,43.475670922933205 169.773507558275,43.86343908062554 169.30310017934244,43.99862330049291 169.0263899564452,44.002180772909924 168.67589034076082,43.91680133503178 168.30386881885352,44.06977268027549 168.1778119395167,43.820749218575656 168.02715859595628,43.920358815761574 167.90417627466377,43.68912181626729 165.8104022546613,44.92711134081037 165.65052523699705,44.52512528774969 165.00486805020773,43.290679096211534 164.94337688956875,43.24798853586617 164.66666666667152,43.38317513173752 164.8480655905587,43.244430986826046 164.93722777350922,43.233758337526524 164.96489879579167,43.144819466833724 165.07558288496512,43.151934584799164 165.2231616705103,43.05232280167547 165.26620548295614,43.102128728663956 165.37688957211503,43.03097738271754 165.33999487572873,43.09857116479907" stroke="#4DD2FF" stroke-linecap="round" stroke-linejoin="round" stroke-width="0.5"><title>2025-08-02 8.3km</title><desc>1754134728000</desc></polyline><polyline fill="none" points="23.974839383532526,58.0 23.84567709156545,58.02989157279808 23.76817971636774,58.836960593449476 24.413991176290438,58.836960593449476 24.413991176290438,59.48460376904404 22.261286309891148,73.73167172138346 22.269897129328456,75.23596161096793 23.165422353777103,82.0 22.31295122668962,75.42524148651137 22.25267549039563,73.9608034585981 23.527076771308202,64.8548954759317 23.84567709156545,63.61945552465477 23.759568896930432,63.340483059240796 24.164277411764488,60.40126064471406" stroke="#4DD2FF" stroke-linecap="round" stroke-linejoin="round" stroke-width="0.5"><title>2025-07-31 5.0km</title><desc>1753965181000</desc></polyline><polyline fill="none" points="53.524818515521474,82.0 53.628323393291794,81.12895065722114 53.891790355031844,80.81319352178252 54.851562858209945,74.20385644203634 54.955067735980265,71.76472295241547 54.465771950024646,68.80284333377494 53.94824756111484,63.91338491447823 53.44954224076355,62.95506846142962 53.553047118592076,62.813498258452455 53.96706662973156,62.867948358660215 53.78828547720332,60.700812994356966 53.30839922558516,60.178080311488884 53.36485643166816,58.96925120929518 52.98847505787853,58.0 53.37426596600562,58.991032034573436 53.33662782859756,60.19986089087615 53.78828547720332,60.766154400283995 54.00470476713963,62.846168321913865 53.88238082063617,62.95506846142962 53.505999446846545,62.80260823507706 53.46836130943848,62.965958469307225 54.03293337015202,64.21830198761745 54.362267072254326,67.87723915692186 55.01152494206326,72.54873620207945 54.334038469183724,78.18910684568982 53.83533314894885,81.31404923501395 53.656551996362396,81.39026620355435" stroke="#4DD2FF" stroke-linecap="round" stroke-linejoin="round" stroke-width="0.5"><title>2025-07-29 5.0km</title><desc>1753797916000</desc></polyline><polyline fill="none" points="85.69605400963337,58.0 85.67875338203157,59.831732320963056 85.28083894692827,62.63431694540486 84.96942764989217,63.5651577723911 84.76182011852507,66.12742688498838 84.18224909348646,69.19005176369683 84.25145160392276,69.73050509651512 83.68053089268506,73.52360341839085 83.71513214794686,75.53518734940008 84.42445788005716,82.0 83.75838371698046,76.38584481878206 83.63727932370966,74.25418342487683 84.19089940731646,69.35018639353075 84.96077733609127,64.45595419958408 84.88292451182497,64.20573129751574 85.25488800552557,62.6843623748573 85.67875338203157,59.301234114245744" stroke="#4DD2FF" stroke-linecap="round" stroke-linejoin="round" stroke-width="0.5"><title>2025-07-27 5.0km</title><desc>1753616848000</desc></polyline><polyline fill="none" points="116.01882063964149,58.0 116.04436675045872,60.10861232867319 115.5760213858739,63.43894401631405 115.38868324001669,63.79364716132841 115.1247067618242,66.69034095850657 114.64784602695727,69.33078918720275 114.6819075079984,69.83325440394401 114.06028547868482,73.93169701872102 114.83518417281448,82.0 115.34610638872255,81.92119198216824 114.97994546731934,77.97085807715484 114.56269232431077,75.20257314097398 114.54566158380476,73.7248086324762 115.72078268034966,65.43905867348076 116.1124897125992,63.78379431371286 116.0273360099236,63.39953247565427 116.60638118794304,59.89184121310245" stroke="#4DD2FF" stroke-linecap="round" stroke-linejoin="round" stroke-width="0.5"><title>2025-07-26 5.2km</title><desc>1753529066000</desc></polyline><polyline fill="none" points="146.8283581775031,58.0 146.72481340527884,58.519196792229195 146.86287310154876,59.188157845448586 146.6989272122446,60.76568975938426 146.33652050961973,63.221796635385545 146.14668842725223,63.571237747659325 146.120802234218,64.61955362968001 145.35284517385298,69.22202723923692 145.41324629093288,69.6612976190736 144.84375004394678,73.84425129857846 144.9214086230495,76.07042853926396 145.60307837330038,82.0 146.09491604115465,81.95008927460003 145.70662314549554,78.32650292381004 145.79291045563878,78.13683494659199 145.3010727877554,75.32171984660818 145.29244405671488,73.98401278777601 147.15624995605322,60.93542269682803" stroke="#4DD2FF" stroke-linecap="round" stroke-linejoin="round" stroke-width="0.5"><title>2025-07-24 5.0km</title><desc>1753356656000</desc></polyline><polyline fill="none" points="176.24572117911885,81.9567031107581 176.36732765333727,82.0 176.77891879662639,78.57949152712536 177.0501947774319,78.40629830310354 176.98471436830005,78.07073563015001 177.68629018077627,73.72997479578044 177.73306190158473,72.42013441034942 177.0314860891085,67.79767636852193 176.7415014199796,64.37671170660906 176.1802407700452,63.196669919008855 176.26442986750044,63.0234516750279 176.72279273159802,63.11006083223765 176.4795797832776,60.93398440404417 176.07734298415016,60.50092906208738 176.11476036079694,59.33167083970329 175.600271431671,58.0 176.06798863998847,59.071833935173345 176.05863429582678,60.45762343102979 176.4889341274975,60.912331678773626 176.73214707581792,63.04510397093691 176.6105406016577,63.16419151971786 176.28313855582383,63.03427782354265 176.1802407700452,63.16419151971786 176.50764281576267,63.629714295952 176.7415014199796,64.40918973602675 177.16244690743042,68.71785380139045 177.70499886904145,72.23610595807986 177.69564452493796,73.675849479092 176.67602101078955,80.76603176019125" stroke="#4DD2FF" stroke-linecap="round" stroke-linejoin="round" stroke-width="0.5"><title>2025-07-22 5.0km</title><desc>1753184035000</desc></polyline><polyline fill="none" points="11.333333333255723,100.62495940132067 11.333333333255723,96.7737797232694 13.884951207088307,85.99028924410231 34.51977401133627,89.75598396532587 35.33333333325572,90.65461068306467 32.559835644904524,107.30025408012443 14.032871083822101,104.39052325469675 13.36723163863644,103.53471624461235 15.659989727893844,86.88892399825272 16.4735490498133,86.37541865932872 21.3918849513866,87.18846849014517 35.29635336413048,90.2694851818087 32.85567539813928,106.95793385003344 32.07909604534507,107.34304408924072 13.663071391871199,104.21936199182528 13.884951207088307,98.7421648480522 15.696969697019085,86.97450816057972 16.288649203954265,86.46100292596384 25.38572162319906,88.00151675118832 16.10374935809523,86.54658717525308 15.068310220958665,91.25369409628911 15.992809450486675,92.15231761781615" stroke="#4DD2FF" stroke-linecap="round" stroke-linejoin="round" stroke-width="0.5"><title>2025-07-20 4.9km</title><desc>1753020627000</desc></polyline><polyline fill="none" points="55.379449474130524,84.66666666666424 55.19839673067327,85.89374160505395 54.52591511202627,87.61960154061671 53.95689220394706,90.21332242567587 53.80170413808082,92.25832328182878 53.26716746686725,95.67986362821102 53.146465637895744,95.78959035468142 53.2068165524106,96.27837155581801 52.646415203489596,100.31820467440411 52.620550525869476,101.6548042362192 53.387869295838755,108.6566928223474 53.301653703761986,107.28029259339382 53.39649085508427,108.66666666666424 53.8879197302449,108.56692817778821 53.06025004576077,100.7570901181025 54.37934860540554,91.12110854995262 54.65523850021418,90.25322528878314 54.689724737079814,89.08605984323367" stroke="#4DD2FF" stroke-linecap="round" stroke-linejoin="round" stroke-width="0.5"><title>2025-07-20 5.0km</title><desc>1752942252000</desc></polyline><polyline fill="none" points="85.70152798329946,84.67740614011564 85.55302770470735,84.66666666666424 85.32099601934897,85.84800220376928 85.58087150694337,86.00909239038447 85.56230897206115,86.35275063469453 85.2374646126409,88.54354567779956 85.06112053175457,88.91941281312756 84.60633842850802,93.20420370159991 84.22580646455754,94.95458209752542 84.26293153420556,95.47002542703558 83.60396154783666,100.39882537085941 84.49496321950573,108.66666666666424 83.66893041972071,101.77326456337323 83.6503678848967,99.69012318159366 84.26293153420556,95.53445566654409 84.23508773191134,94.96532052583643 84.91262025310425,90.88463921672519 85.05183926434256,88.9086737706748 85.2374646126409,88.52206751541962 85.72937178553548,85.01032927558117" stroke="#4DD2FF" stroke-linecap="round" stroke-linejoin="round" stroke-width="0.5"><title>2025-07-17 5.0km</title><desc>1752765839000</desc></polyline><polyline fill="none" points="125.63063063076697,108.16022699617315 126.17117117135786,107.40965425453032 127.33333333337214,97.62076713852002 109.95495495502837,96.83889371735859 106.81981981999706,97.08909342830884 107.19819819822442,96.83889371735859 106.63063063065056,93.30480107141193 103.4144144145539,88.23815497022588 103.33333333337214,85.39203939490835 103.7117117117159,85.17310633716988 118.81981981999706,85.42331553323311 117.7387387388153,95.27514091553167 117.06306306319311,95.71299250097945 107.63063063065056,95.4002414321003 106.60360360366758,92.11633601805079 103.95495495502837,88.73856817450724 103.63063063065056,86.95584241993492 107.38738738745451,86.6743584619544 118.33333333337214,87.04967034875881 118.49549549561925,89.39535927010002 117.52252252271865,97.02654351966339 116.06306306319311,97.12036837782944" stroke="#4DD2FF" stroke-linecap="round" stroke-linejoin="round" stroke-width="0.5"><title>2025-07-15 4.1km</title><desc>1752589649000</desc></polyline><polyline fill="none" points="146.96448916144436,84.66666666666424 147.0376257803291,86.36980184030108 146.47081698401598,89.92408115776198 146.26969128206838,90.33662357700086 146.26054920477327,91.38383930057898 145.45604639709927,96.29186153721093 145.49261470657075,96.841884098023 144.88009552343283,101.40061312721082 145.61146171222208,108.66666666666424 145.19092615362024,105.78992005118198 144.8709534460795,101.16792181436904 146.24226505006664,91.30979409039719 146.15998635377036,90.97130103036761 146.4342486745445,89.99812735336309 146.9736312388559,86.47558571468835 146.90963669726625,86.10534168408049 147.1290465539787,84.98402315899875 146.9279208520311,84.73013804253424" stroke="#4DD2FF" stroke-linecap="round" stroke-linejoin="round" stroke-width="0.5"><title>2025-07-13 5.0km</title><desc>1752418082000</desc></polyline><polyline fill="none" points="176.45823844120605,108.66666666666424 176.33507630805252,108.65570397529518 176.41086838999763,107.78964783856645 176.82772484084126,105.15854857565137 177.07404910726473,104.93928740710544 177.50037956837332,101.95729126815422 177.72775581420865,98.87653956227587 177.10247113800142,94.58965322899894 176.78035478963284,91.00432587695832 176.59087458468275,90.30259648344509 176.19296615431085,89.66665027608542 176.27823224652093,89.5021808189631 176.7329847383662,89.56796863193449 176.53403052320937,87.48466839855973 176.07927803136408,86.91449500326416 176.10770006210078,85.6096637724986 175.7855837137322,84.71052718001738 175.58662949857535,84.71052718001738 175.7571616829955,84.66666666666424 176.07927803136408,85.46711822750513 176.06980402109912,86.92545990470535 176.48666047194274,87.30923075191822 176.53403052320937,87.52852776562213 176.7329847383662,89.53507473045465 176.26875823631417,89.5131454572329 176.16454412357416,89.63375640476443 176.58140057441778,90.23680911869451 176.77088077936787,90.90564545692905 177.1593151994748,95.17075010665576 177.74670383473858,98.7997937345499 177.73722982447362,100.20313738292316 176.58140057441778,108.09660523939237" stroke="#4DD2FF" stroke-linecap="round" stroke-linejoin="round" stroke-width="0.5"><title>2025-07-12 5.1km</title><desc>1752325602000</desc></polyline><polyline fill="none" points="23.18873223819537,135.33333333333576 22.95550466538407,135.322538331151 23.4779344284907,131.72774159412074 23.692503795435186,131.61978785873362 24.28956638177624,127.61462673353526 24.382857410935685,125.59579554929223 23.832440339087043,121.9790768854291 23.412630708073266,117.58486787819129 22.852884533349425,116.45119722604431 22.92751735658385,116.33243102871347 23.39397250226466,116.40800953329017 23.179403135261964,114.21621105859958 22.75959350418998,113.7519326681795 22.740935298381373,112.29430127290834 22.274480152816977,111.33333333333576 22.768922607123386,112.41307198729919 22.75959350418998,113.74113547216984 23.18873223819537,114.22700820632599 23.421959811006673,116.37561875218671 22.974162871192675,116.3216340950894 22.87154273921624,116.4943849012052 23.431288913881872,117.67124228880857 23.84176944202045,121.95748416533024 24.392186513810884,125.52022358337126 24.298895484709647,127.56064778943255 23.40330160513986,133.51975757547916" stroke="#4DD2FF" stroke-linecap="round" stroke-linejoin="round" stroke-width="0.5"><title>2025-07-10 5.0km</title><desc>1752149320000</desc></polyline><polyline fill="none" points="50.634265729459,111.33333333332848 50.69047841039719,112.82937346133986 51.098020347068086,112.61797733519052 51.96931690152269,112.91067958933127 52.91087930701906,112.82937346133986 53.964867074391805,113.21964249902521 59.403443954128306,113.93513326303218 59.55802882666467,114.14652764933999 58.30729667603737,122.1305265925912 57.70301035605371,122.17930743946636 57.590584994177334,122.39069093733269 57.379787440702785,123.80532716080779 57.534372313239146,124.42321032407926 56.57875673752278,129.80519701409503 49.58027796208626,129.5938233070192 49.34137406811351,129.43122795785894 48.44197117333533,135.33333333332848 49.383533578773495,129.52878518716898 52.10984860378085,129.57756377950136 53.02330466883723,129.21985375702207 53.1497832009336,129.5938233070192 56.620916248240974,129.70763995323796 59.03806152805919,114.56931558428914 58.96779567695921,114.01643882930512 51.73041300754994,112.7480672919919" stroke="#4DD2FF" stroke-linecap="round" stroke-linejoin="round" stroke-width="0.5"><title>2025-07-08 5.1km</title><desc>1751976330000</desc></polyline><polyline fill="none" points="72.88043047278188,135.11480357966502 72.82892470649676,135.33333333332848 73.15512789326021,135.19426897287485 73.25813942583045,134.08175052830484 73.85904003301403,133.58508846437326 73.97922015440417,133.0685585794563 75.71324762067525,121.04892010999902 75.86776491958881,117.4130822198058 75.45571878907504,114.73086337688437 76.39999117166735,114.69112652471813 76.64035141450586,115.04875790320511 79.95388904801803,115.52559872320853 82.61502030817792,115.48586203267041 84.55507083964767,116.26072604164074 90.7357627984602,117.17466425758903 91.86888965766411,111.33333333332848 96.50440862687537,112.36650661342719 92.36677873210283,111.39293963261298 91.59419223724399,114.83020547186607 91.47401211573742,117.21440060483292 79.9023832816747,115.66467707663833 76.64035141450586,115.06862629395619 76.34848540538223,114.63152123132022 75.40421302273171,114.79046863994154 75.78192197572207,116.37993561649637 75.85059633088531,119.81711375506711 73.91054579929914,133.12815825126017" stroke="#4DD2FF" stroke-linecap="round" stroke-linejoin="round" stroke-width="0.5"><title>2025-07-06 5.0km</title><desc>1751807521000</desc></polyline><polyline fill="none" points="106.98631233733613,133.84571740798128 108.02614507754333,126.45123865819187 104.66086820932105,126.21058567400905 103.60212941933423,126.58250380889513 104.98227105627302,126.45123865819187 104.79321055812761,126.23246322912746 108.271923725144,126.42936112530879 108.5177023728611,126.21058567400905 108.40426607395057,125.53238036217226 109.82221981044859,116.5842456916871 109.68987746175844,112.12097835361783 112.12875788868405,111.88030934765993 127.06453724729363,114.33074482905795 127.04563119751401,113.60874441656051 110.6162739029387,111.33333333332848 110.8809586004354,116.7373953795468 109.16050806664862,128.90150827376056 109.63315931230318,129.64533460326493 109.19832016632427,130.454789747615 109.29285041545518,132.20495262858458 108.63113867165521,132.35809120374324 108.32864187459927,135.33333333332848 106.7972518390743,135.15832022858376 106.89178208820522,133.86759418722067" stroke="#4DD2FF" stroke-linecap="round" stroke-linejoin="round" stroke-width="0.5"><title>2025-07-05 4.8km</title><desc>1751729502000</desc></polyline><polyline fill="none" points="149.86281287961174,135.33333333332848 150.10033211816335,135.1597493092413 150.13783515576506,134.17610250794678 150.46286148222862,132.74401633732487 150.6378756579943,132.6861539670208 150.862893884012,130.5886271630443 145.974997974874,130.38610569751472 146.28752328880364,129.3011643684149 146.75006075331476,124.4115928272222 146.80006480356678,120.83833816059632 146.6250506278011,120.3609329698811 146.81256581604248,117.43859962352144 146.80006480356678,111.33333333332848 140.23703321197536,113.69155965601385 140.0995220738696,114.02431237100973 140.14952612417983,113.7349622281763 143.6873126772698,112.3894763347198 143.74981774005573,115.3697828061704 144.0998460915871,116.12208331064903 146.71255771559663,116.12208331064903 146.72505872818874,119.94139375296072 147.00008100440027,120.07159571125521 147.10008910484612,120.53453504272329 151.6754597001127,120.82387136017496 151.9004779261304,121.96674406332022 151.87547590094618,124.04993145575281 150.30034831905505,134.79811524592515" stroke="#4DD2FF" stroke-linecap="round" stroke-linejoin="round" stroke-width="0.5"><title>2025-07-03 5.2km</title><desc>1751545471000</desc></polyline><polyline fill="none" points="176.24610053747892,135.33333333333576 176.81620129034854,131.8185747979296 177.04984913987573,131.65635237075185 177.64798763470026,127.22217693068524 177.6947172046057,125.68639503769373 176.67601258063223,117.53123809258977 176.18067913962295,116.50368723367137 176.28348419338,116.36307423878316 176.70405032258714,116.43878895141825 176.50778612896102,114.3403898212564 176.049836343911,113.75629197655508 176.05918225785717,112.42583491171536 175.6199243007577,111.33333333333576 176.09656591381645,112.52318599297723 176.049836343911,113.77792528726422 176.47040247300174,114.18895735470869 176.53582387091592,114.52427181226085 176.70405032258714,116.42797256719496 176.24610053747892,116.39552340793307 176.18067913962295,116.53613635992951 176.6853584946366,117.53123809258977 177.1713460216415,122.16050203527993 177.71340903255623,125.65394870226737 177.55452849488938,128.07658120421547 176.52647795691155,134.96564095387293" stroke="#4DD2FF" stroke-linecap="round" stroke-linejoin="round" stroke-width="0.5"><title>2025-07-01 5.0km</title><desc>1751376396000</desc></polyline><polyline fill="none" points="22.489906652190257,162.0 22.663213504478335,161.78609176317696 22.62855213403236,160.99730213433213 22.905843097658362,160.72991474621813 23.10225753026316,159.68709874023625 23.40265607420588,156.01043790187396 23.818592519673984,154.57985482507502 24.280744125833735,150.82282892729563 24.16520622430835,148.67017854489677 23.518193975731265,144.83275787469756 23.07914995000465,140.1795679796778 22.385922540852334,138.45463679345266 22.99827341886703,138.5749815639574 23.021380999183748,138.0 23.021380999183748,138.5482382911141 22.489906652190257,138.4412651455059 22.39747633098159,138.5749815639574 22.836520356766414,139.23019004878006 23.10225753026316,140.1528250331903 23.58751671668142,145.34085484722164 24.280744125833735,149.95375071518356 24.222975175012834,152.10638009168906 22.767197615816258,161.54544458111923" stroke="#4DD2FF" stroke-linecap="round" stroke-linejoin="round" stroke-width="0.5"><title>2025-06-30 4.1km</title><desc>1751292736000</desc></polyline><polyline fill="none" points="42.26945412310306,151.47946972498903 42.0,149.53196432037657 42.09291521488922,149.32752796776913 49.32171893148916,148.98321321589174 50.47386759577785,149.09081169650744 52.3507549361093,148.9078942142587 55.166085946548264,148.9401737929802 66.0,148.25154063948867 62.76655052264687,148.4774988881254 62.013937282259576,148.72497641504742 60.62020905921236,148.66041711611615 53.567944250884466,149.02625262131914 47.00813008128898,149.14461089566612 46.81300813006237,149.3167681487903 47.26829268288566,151.74845936051133 47.05458768870449,151.72694021490315 46.7944250870496,150.45730285965692" stroke="#4DD2FF" stroke-linecap="round" stroke-linejoin="round" stroke-width="0.5"><title>2025-06-26 5.0km</title><desc>1750950176000</desc></polyline><polyline fill="none" points="96.66666666665697,150.98225440696842 96.27915321133332,149.01774559303158 85.95407247933326,149.96510248330014 84.85181198423379,149.97507461228815 80.87334050948266,149.4764669169308 72.66666666665697,149.8254925704823 80.59777538571507,149.46649473709112 84.86042339433334,149.9850467403012 92.20595622534165,149.31691191774007" stroke="#4DD2FF" stroke-linecap="round" stroke-linejoin="round" stroke-width="0.5"><title>2025-06-24 5.0km</title><desc>1750769966000</desc></polyline><polyline fill="none" points="127.33333333334303,150.96111835589545 127.00480307394173,149.03888164410455 116.78578290107544,150.0100163508905 115.54082612873754,150.050062936818 111.51200768491253,149.5294560465045 103.33333333334303,149.8898764951955 111.29586935637053,149.5294560465045 115.53218059556093,150.050062936818 124.18635926992283,149.27916329018626" stroke="#4DD2FF" stroke-linecap="round" stroke-linejoin="round" stroke-width="0.5"><title>2025-06-22 5.0km</title><desc>1750563938000</desc></polyline><polyline fill="none" points="146.8201694302552,162.0 145.57977184667834,154.5894652416755 145.5623830955301,152.56887582415948 145.67251185292844,151.7230292817767 145.60295684824814,149.54794540820149 145.62614184981794,149.1719977008106 145.75365935839363,148.95716947540495 145.62614184981794,148.85646850336343 145.6203455993964,147.4802064445903 144.2118567545258,139.00716892904893 143.85828548070276,138.0 144.21765300488914,138.87959505083563 145.60295684824814,147.33922187700227 145.6783081033209,151.46121743510594 145.57977184667834,152.5755888484855 145.5739755962859,154.52233702103695 146.52456066035666,160.21456697728718 146.6578744193248,160.6038760486117 148.14171451929724,160.52332953303267" stroke="#4DD2FF" stroke-linecap="round" stroke-linejoin="round" stroke-width="0.5"><title>2025-06-21 8.0km</title><desc>1750517001000</desc></polyline><polyline fill="none" points="179.10153597028693,162.0 177.06853829935426,149.49850031468668 173.49109278526157,149.42549629311543 167.04538699123077,148.80496090797533 167.17146436613984,148.14792109704285 166.9193096162635,146.8885880526068 167.26602239737986,138.65707705785462 167.21874338167254,138.07300868110906 166.90354994439986,138.0 166.50955814763438,148.12966995679017 167.1084256786853,148.2026745066978 167.13994502235437,148.82321197947022 177.11581731494516,149.48024931210966 178.32931204873603,157.29150842323725 178.70754417363787,158.33176721757627 186.82377518567955,158.07626561747747" stroke="#4DD2FF" stroke-linecap="round" stroke-linejoin="round" stroke-width="0.5"><title>2025-06-19 5.0km</title><desc>1750345525000</desc></polyline><polyline fill="none" points="35.333333333343035,177.26749169119284 35.113043478282634,175.95843284003058 28.318840579711832,176.6028958334282 27.443478260858683,176.62303520034038 24.533333333325572,176.2873782807801 13.750724637677195,176.7774368089813 12.81739130432834,176.93183805567242 11.333333333343035,177.3749004932979 13.426086956489598,176.81100232817698 17.217391304351622,176.6431745611335" stroke="#4DD2FF" stroke-linecap="round" stroke-linejoin="round" stroke-width="0.5"><title>2025-06-17 5.1km</title><desc>1750166247000</desc></polyline><polyline fill="none" points="42.82758620684035,185.72336749832903 42.0,180.40449747702223 60.70344827591907,179.85343649571587 57.66206896561198,167.84957020488218 61.34482758620288,168.06521392901777 66.0,167.60996583499946 58.65517241379712,168.0412535249925 61.365517241414636,178.84714789211284 53.337931034504436,179.23049643957347" stroke="#4DD2FF" stroke-linecap="round" stroke-linejoin="round" stroke-width="0.5"><title>2025-06-16 3.2km</title><desc>1750084948000</desc></polyline><polyline fill="none" points="96.66666666668607,177.77611800938757 96.29892473120708,175.55721532394818 84.50215053762076,176.64425910302816 83.43763440859038,176.65546568397986 78.77311827958329,176.0839286002156 72.66666666668607,176.3753008180429 78.57956989249215,176.07272196102713 83.42795698926784,176.63305252097052 93.43440860218834,175.79255561026366" stroke="#4DD2FF" stroke-linecap="round" stroke-linejoin="round" stroke-width="0.5"><title>2025-06-15 4.6km</title><desc>1749956754000</desc></polyline><polyline fill="none" points="127.33333333334303,177.6318849613308 127.04117436450906,175.70144837199769 116.76405298965983,176.6467700275898 115.68993913356098,176.66667143775703 111.1700680272188,176.15918421139213 103.33333333334303,176.51741076266626 111.32474042248214,176.15918421139213 115.62119584679022,176.66667143775703 117.86394557828316,176.55721363167686 118.28499820979778,176.41790351917007 123.73290368780727,175.930316559934" stroke="#4DD2FF" stroke-linecap="round" stroke-linejoin="round" stroke-width="0.5"><title>2025-06-14 5.1km</title><desc>1749906363000</desc></polyline><polyline fill="none" points="158.0,178.09166922865552 157.71145685997908,176.14581278419064 147.76520509194233,177.10891835648363 146.42432814711356,177.1187459148059 142.35077793494565,176.62736677278735 134.67892503537587,176.99098757876345 134.57708628007094,176.76495318497473 134.61951909479103,175.25149185329064 134.0,175.24166410468024 134.64497878361726,175.27114734751376 134.57708628007094,176.75512559060007 134.7043847242021,176.99098757876345 142.56294200848788,176.61753916442103 146.61103253185865,177.12857347212412 154.6732673267834,176.40133152664202 154.6647807637928,176.0082254885565 157.25318246110692,175.87063799663156" stroke="#4DD2FF" stroke-linecap="round" stroke-linejoin="round" stroke-width="0.5"><title>2025-06-12 5.9km</title><desc>1749735885000</desc></polyline><polyline fill="none" points="188.66666666668607,184.2168484510621 187.90159390168265,180.36482953710947 166.8787248787121,182.23306851630332 164.8995148995309,176.82090278581018 164.66666666668607,170.06029296043562 168.59182259184308,169.8869408097089 171.93485793482978,170.09881563897943 172.11781011789571,169.48245183957624 171.76853776857024,169.34762199044053 164.7664587664185,169.11648488228093 164.9161469161627,176.62829616676026 165.4982674982748,178.82399998579058 166.64587664586725,181.55896379800106 175.95980595983565,180.75003496187855 176.14275814278517,181.48192310564627 187.85169785178732,180.34556924522622 188.56687456695363,184.15906874736538" stroke="#4DD2FF" stroke-linecap="round" stroke-linejoin="round" stroke-width="0.5"><title>2025-06-10 5.3km</title><desc>1749559786000</desc></polyline><polyline fill="none" points="11.963490872760303,196.94343388950801 11.387346836854704,194.6083038517245 11.333333333372138,192.79438980275881 27.663415854098275,192.3773957935773 28.401600400102325,195.10869110374188 27.861465366440825,195.08784165937686 27.69942485622596,195.46313133332296 28.041510377661325,197.4021170148917 27.951487872051075,198.71561300288886 28.54563640919514,201.34257967985468 30.07601900480222,201.28003324622114 32.34458614664618,210.01549999348936 32.38059514889028,210.41161017138802 31.804451112868264,210.57839317483013 32.32658164552413,210.43245805430342 32.506626656628214,210.76602389110485 32.038509627454914,210.84941526543116 32.200550137553364,211.62078386607755 33.280820205109194,214.3726697769016 34.03700925235171,214.28927983847097 35.33333333337214,213.58046398998704 33.96499124786351,213.87232963675342 31.5343835959211,204.177997923558 31.2463115779683,203.34405546040216 30.598149537458085,203.34405546040216 30.11202800704632,201.21748679340817 29.589897474390455,201.42597489496984 28.52763190807309,201.28003324622114 27.933483370929025,198.88240554076037 27.807451863074675,195.79672157669847 26.817204301129095,192.29399688976991 11.387346836854704,192.83608915693185 12.035508877248503,197.06852938928932" stroke="#4DD2FF" stroke-linecap="round" stroke-linejoin="round" stroke-width="0.5"><title>2025-06-08 5.0km</title><desc>1749355299000</desc></polyline><polyline fill="none" points="66.0,204.32092851323978 65.57788944721688,202.34573815342446 57.8420674802328,202.99416362588818 55.51615218949155,203.32336260632292 54.223977028013906,203.32336260632292 50.132089016522514,202.82457584021904 42.0,203.1837025680361 49.74443646805594,202.82457584021904 54.1809045226546,203.33333831570053 63.51040918880608,202.4953751821813" stroke="#4DD2FF" stroke-linecap="round" stroke-linejoin="round" stroke-width="0.5"><title>2025-06-07 5.3km</title><desc>1749293029000</desc></polyline><polyline fill="none" points="96.66666666665697,204.28409725465463 96.31232745174202,202.3825694120169 85.3623814668099,203.38337812972895 80.9201776497357,202.87296695822442 72.66666666665697,203.21324136735348 80.8856079702382,202.85295077978662 84.83519385429099,203.38337812972895 93.29612291441299,202.61275632031902" stroke="#4DD2FF" stroke-linecap="round" stroke-linejoin="round" stroke-width="0.5"><title>2025-06-05 5.1km</title><desc>1749128617000</desc></polyline><polyline fill="none" points="103.6692913385341,203.18142275678838 103.33333333331393,200.98089320224244 103.45931758527877,200.88363129067875 112.8766404199414,200.55537175371865 114.65091863513226,207.0596053163681 123.95275590551319,206.9380341094802 127.33333333331393,206.7313627734402 124.55118110240437,206.8286199173308 124.03674540680367,199.6070613503034 115.13385826768354,200.12984878723364 113.2230971128447,200.06905966807972 113.39107611542568,200.55537175371865 108.45669291337254,200.70126499279286" stroke="#4DD2FF" stroke-linecap="round" stroke-linejoin="round" stroke-width="0.5"><title>2025-06-03 5.2km</title><desc>1748952979000</desc></polyline><polyline fill="none" points="153.84722121900995,196.1786900219886 153.32074098434532,195.3994417804497 152.94753980537644,194.58160827514075 152.70762476173695,194.357859834985 152.11450145940762,194.30385149183712 151.66132859920617,193.77919701216888 151.4547350894136,193.09251139555272 151.1481769780803,192.62185810891242 150.7816401058517,191.33333333333576 149.72201532978215,191.7885631525569 149.22885662896442,191.84257328858803 147.94930972956354,192.32094709848752 147.40283657461987,193.02307093054696 147.40283657461987,193.20052977016894 145.19028672770946,196.01666877022217 145.1769581141707,196.1786900219886 144.5705061983026,197.01193670227076 144.04402596366708,197.49799303485634 143.95072566892486,197.41312628080777 143.57752448989777,197.73716246683762 143.3309451394889,197.59057484001096 143.32428083277773,197.72944733565964 143.29095929890173,197.52885364916438 143.6375032508222,197.77573811099865 143.58418879669625,198.0534821692272 142.78447198454523,198.94071331381565 141.4182890971715,199.24931301642937 141.4182890971715,199.11044330577715 141.3249888024293,199.28017291758442 140.9517876234313,199.3650375809666 140.62523659178987,199.27245794346527 140.0787634368462,199.3187477763422 139.98546314207488,199.23388306114066 139.76554101877264,199.35732261550584 139.1057746487786,199.12587328618247 139.01913866077666,198.11520293280046 138.76589500359842,197.8914649256185 137.51966963807354,198.20778398396942 137.05316816430422,198.4932415130461 137.58631270573824,200.80000750120234 138.42601535844733,203.37671325348492 140.19872095866594,210.30406870252045 140.4453003090748,211.0214535326013 142.53789263416547,215.25619989132247 142.80446490485338,215.33333333333576 143.72413923882414,215.04022583633196 144.35058407500037,215.22534649256704 145.49684483904275,214.9862322264962 145.4768519187055,214.53114170162007 145.7834100300388,214.44629401359998 146.33654749175184,214.7008367929302 146.7563988181355,214.50028800788277 146.92967079411028,214.75483060597617 148.00928849045886,214.99394560166547 148.64239763343357,214.87824489145714 149.28217108311947,214.40001341645984 149.39546429816983,213.49753612705535 149.8752943854488,212.83416990308615 149.74867255685967,212.17079787584953 149.90195161252632,211.84682338124549 149.5754005808849,211.48427885324054 149.3688070711214,210.94431570448796 149.28883538985974,210.14207764024468 149.72201532978215,209.7949527699384 150.38178169977618,210.06493891751597 150.7483185720339,210.04179728538293 150.84161886677612,209.54039352166 150.68833981110947,208.92327664513869 150.56171798252035,208.8692786794636 150.68833981110947,208.8075666716104 150.5417250622413,208.76128263273858 150.66168258400285,208.8307086804416 150.67501119759982,208.46814973048458 150.50173922162503,208.0670186591742 149.71535102301277,208.0130200836502 149.34881415078416,207.7353125163063 149.5020932064217,206.68618585925287 150.12853804262704,205.6139016998277 150.6083681298769,205.08161112416565 150.82829025320825,205.0044672524018 151.30145603374694,204.34874117260188 152.13449437971576,203.55414785121684 152.87423243094236,202.6283975543629 152.6609746143513,202.19637687986688 152.00120824435726,202.18866220259224 151.91457225638442,201.93407741187548 152.16781591353356,201.32461337855057 152.4610454113281,201.0468813075422 152.73428198881447,201.0854552671517 152.84757520383573,200.9465889207131 152.61432446699473,200.41426556896477 152.9275468850683,199.75849977863254 153.22077638286282,199.58877123798447 153.4673557332717,199.68906542157492 153.4340341994248,199.5039068251499 154.17377225062228,199.16444822347694 154.24041531831608,198.95614332879632 154.88685307477135,198.5626769656301 154.94683183569578,197.9994764598523 154.1004648761591,196.38700255099684 153.9671787408006,196.32528037987504" stroke="#4DD2FF" stroke-linecap="round" stroke-linejoin="round" stroke-width="0.5"><title>2025-06-02 11.5km</title><desc>1748829019000</desc></polyline><polyline fill="none" points="188.66666666668607,204.45567130005657 188.22703302802984,202.21099536660768 175.5475992229185,203.39119133885833 170.29197890643263,202.78952433705854 164.66666666668607,203.032505625466 170.36192062171176,202.76638323484076 174.96808215376223,203.36805035929137 188.20704968081554,202.22256597493106 188.65667499310803,204.3862489981184" stroke="#4DD2FF" stroke-linecap="round" stroke-linejoin="round" stroke-width="0.5"><title>2025-06-01 4.9km</title><desc>1748740054000</desc></polyline><polyline fill="none" points="35.33333333331393,241.56547556250007 35.24642928986577,241.7499731330463 35.07262120291125,241.61579310227535 34.493260913237464,238.39543954234978 16.185475759382825,239.98885152373987 14.490846912027337,235.24211561748234 14.418426875898149,229.27076220308663 14.01287467306247,227.02306180345477 11.33333333331393,218.25002686696826 13.100382216798607,224.12113453124766 13.57835445587989,225.02694391450495 14.360490846913308,228.39852390275337 15.142627237946726,228.61658391130914 14.331522832391784,228.59981007479655 14.490846912027337,234.68860039647552 15.041239187237807,236.95296907500597 15.997183665225748,239.31794309619 16.24341178830946,239.46889773086878 24.093743713514414,238.66380474591278 24.3110038220766,239.30117035048897 30.55361094343243,238.6973503656045" stroke="#4DD2FF" stroke-linecap="round" stroke-linejoin="round" stroke-width="0.5"><title>2025-05-31 5.5km</title><desc>1748696141000</desc></polyline><polyline fill="none" points="64.31688311690232,236.62341883589397 63.771428571490105,233.10426026700588 44.02597402600804,234.87287177726103 42.20259740261827,229.67526925704442 42.0,223.41267743625212 48.70129870122764,223.48486995857093 42.09350649348926,223.37658116410603 42.2181818181416,229.58503175475926 42.70129870134406,231.51610426542175 43.91688311682083,234.29536792032013 61.4025974025717,232.61698664494907 62.96103896101704,232.52675064181676 63.03896103898296,233.1944959757966 66.0,232.95988303729973" stroke="#4DD2FF" stroke-linecap="round" stroke-linejoin="round" stroke-width="0.5"><title>2025-05-29 5.0km</title><desc>1748526381000</desc></polyline><polyline fill="none" points="87.21500264119823,227.64381388164475 86.68251452711411,223.2833685369842 95.69677760160994,222.84291461919202 96.66666666662786,226.38854318059748 95.62070787104312,222.93100547452923 86.6444796618307,223.34943654718518 86.89170628623106,225.52966955203738 86.54939249868039,223.37145921276533 73.7316428947961,224.56067982131208 75.65240359213203,234.18431692272134 76.3940834653331,236.4305046248337 75.89963021653239,236.7388030756265 76.67934495501686,238.80879556915897 75.63338615943212,236.07816299967817 73.04701531946193,224.60472490341635 77.53512942418456,223.96607033518376 85.65557316422928,223.45954985269054 85.56048600096256,222.82089189971157 73.63655573164579,223.63573102476948 72.97094558889512,221.19120443084103 72.66666666662786,221.45547890945454 72.81880612776149,223.81191205314826 81.81405176955741,222.93100547452923" stroke="#4DD2FF" stroke-linecap="round" stroke-linejoin="round" stroke-width="0.5"><title>2025-05-27 6.0km</title><desc>1748352132000</desc></polyline><polyline fill="none" points="124.13515565678244,231.7884801436303 124.23082763858838,231.7251725444512 123.92331055429531,230.1899474610109 115.83902809413848,230.96547732800536 114.90280941536184,230.9813043874965 111.53378891421016,230.58562693244312 103.48367501900066,230.94173673273326 103.33333333334303,228.3143993344347 104.29005315111135,228.2115198563697 105.60895975702442,228.30648553327774 105.61579347000225,230.58562693244312 111.73196659074165,230.34030589768372 115.44950645405333,230.7043303806713 123.90964312833967,229.86548878976464 127.18982536066324,229.7467840590689 127.33333333334303,230.00793422701827 127.2376613515662,230.03958873314696 124.21032649962581,230.16620662857895" stroke="#4DD2FF" stroke-linecap="round" stroke-linejoin="round" stroke-width="0.5"><title>2025-05-25 7.6km</title><desc>1748179850000</desc></polyline><polyline fill="none" points="157.98427260812605,231.32496844143316 157.92136304063024,230.80591482914315 157.61467889905907,230.80591482914315 157.41808650063467,229.83154288765945 157.26081258189515,229.61299071281246 149.672346002626,230.25953934815334 148.4298820445838,230.48719620460906 143.4442988204246,230.02277560210496 134.1336828309577,230.44166487974144 134.0,228.8571603200544 136.31192660550005,228.67503155855957 136.2961992136261,230.0045629802844 136.60288335519726,230.04098822022934 143.13761467891163,229.75869222213805 147.8715596330003,230.16847644315567 157.7011795543949,229.22141672924045 158.0,231.2248004352732" stroke="#4DD2FF" stroke-linecap="round" stroke-linejoin="round" stroke-width="0.5"><title>2025-05-24 6.6km</title><desc>1748094255000</desc></polyline><polyline fill="none" points="188.66666666668607,231.0693664140199 188.40558689233148,228.9306335859801 178.52323395118583,229.7704551058996 177.1501477303682,230.00560398108064 175.58366908412427,230.02799908576708 171.06795594957657,229.47931770596915 164.66666666668607,229.73686236834328 171.03894708573353,229.4681200982668 175.52565135649638,230.0391966364332 185.76578028476797,229.17698189718067" stroke="#4DD2FF" stroke-linecap="round" stroke-linejoin="round" stroke-width="0.5"><title>2025-05-18 4.7km</title><desc>1747565909000</desc></polyline><polyline fill="none" points="32.21395171293989,257.52597799246723 31.95285809718189,255.9903586267974 24.9926519706205,256.579148897079 23.83147246876615,256.7860200999785 22.897032159555238,256.778063525373 19.715812577545876,256.36432052921737 11.381429525732528,256.74623721892567 11.333333333343035,256.5075395067979 16.026147533179028,256.20518802374136 19.20736711518839,256.14949157019873 22.924515698075993,256.74623721892567 32.04217959730886,255.9346620199649 35.11346502529341,255.80735534086125 35.23714094859315,255.82326868710516 35.25775360246189,255.9346620199649 35.333333333343035,255.88692203963728" stroke="#4DD2FF" stroke-linecap="round" stroke-linejoin="round" stroke-width="0.5"><title>2025-05-17 5.7km</title><desc>1747487200000</desc></polyline><polyline fill="none" points="64.68847227760125,255.67448110455007 61.51017151970882,255.84077079434064 59.9593139209901,256.11791971234925 52.8368568008882,256.66112954320124 48.375747905811295,256.08466187948216 42.0,256.3396383383151 48.28958915034309,256.10683376920497 52.66453928995179,256.65004365537607 65.3777423214633,255.5414491696938 65.79896290384931,257.69211216996337 66.0,257.79188416364195" stroke="#4DD2FF" stroke-linecap="round" stroke-linejoin="round" stroke-width="0.5"><title>2025-05-11 5.0km</title><desc>1746965499000</desc></polyline><polyline fill="none" points="96.66666666665697,257.528947662664 96.27929220462102,255.8043856706645 85.38976566231577,256.79127746858285 80.96508847438963,256.282879907194 72.66666666665697,256.6317804788705 80.75848876134842,256.2928485122102 84.89048302246374,256.79127746858285 96.34815877571236,255.8243229772488" stroke="#4DD2FF" stroke-linecap="round" stroke-linejoin="round" stroke-width="0.5"><title>2025-05-10 5.3km</title><desc>1746870058000</desc></polyline><polyline fill="none" points="127.2809315866034,256.2621190340069 127.21979621544597,256.09018507901055 127.33333333334303,256.22166401256254 126.87045123727876,256.30257403892756 116.17176128097344,257.2431482543252 111.63901018924662,256.7071231812006 103.33333333334303,257.0509886553773 111.595342066983,256.7071231812006 113.71761280932697,256.8790560672496 115.64774381372263,257.2330346004819 124.40756914121448,256.44416642634314" stroke="#4DD2FF" stroke-linecap="round" stroke-linejoin="round" stroke-width="0.5"><title>2025-05-05 5.4km</title><desc>1746434825000</desc></polyline></svg>