<?xml version="1.0" encoding="utf-8" ?>
<svg baseProfile="full" height="300mm" version="1.1" viewBox="0,0,200,300" width="200mm" xmlns="http://www.w3.org/2000/svg" xmlns:ev="http://www.w3.org/2001/xml-events" xmlns:xlink="http://www.w3.org/1999/xlink"><defs /><rect fill="#222222" height="300" width="200" x="0" y="0" /><text fill="#FFFFFF" style="font-size:12px; font-family:Arial; font-weight:bold;" x="10" y="20">Over 3km Runs</text><text fill="#FFFFFF" style="font-size:4px; font-family:Arial" x="10" y="280">Runner</text><text fill="#FFFFFF" style="font-size:9px; font-family:Arial" x="10" y="290">tang-hi</text><text fill="#FFFFFF" style="font-size:4px; font-family:Arial" x="65" y="280">SPECIAL TRACKS</text><rect fill="yellow" height="2.6" width="2.6" x="65" y="283" /><text fill="#FFFFFF" style="font-size:3px; font-family:Arial" x="70" y="285.5">Over 20.0 km</text><rect fill="red" height="2.6" width="2.6" x="65" y="287" /><text fill="#FFFFFF" style="font-size:3px; font-family:Arial" x="70" y="289.5">Over 40.0 km</text><text fill="#FFFFFF" style="font-size:4px; font-family:Arial" x="120" y="280">STATISTICS</text><text fill="#FFFFFF" style="font-size:3px; font-family:Arial" x="120" y="285">Number: 89</text><text fill="#FFFFFF" style="font-size:3px; font-family:Arial" x="120" y="290">Weekly: 3.7</text><text fill="#FFFFFF" style="font-size:3px; font-family:Arial" x="141" y="285">Total: 462.9 km</text><text fill="#FFFFFF" style="font-size:3px; font-family:Arial" x="141" y="290">Avg: 5.2 km</text><text fill="#FFFFFF" style="font-size:3px; font-family:Arial" x="167" y="285">Min: 3.0 km</text><text fill="#FFFFFF" style="font-size:3px; font-family:Arial" x="167" y="290">Max: 11.5 km</text><polyline fill="none" points="19.765606336994097,49.0 19.772603162768064,48.45754932039563 19.954520632571075,48.23085241978697 20.64020955716842,43.56723019464698 20.75215876934817,41.470130522611726 20.017492064420367,35.68055330423522 19.625669821805786,34.878886363199854 19.71662855669274,34.741225571553514 20.038482541713165,34.78981176049274 19.884552374947816,33.21884330229659 19.541707912634593,32.7896558077191 19.58368886722019,31.979861782201624 19.219853927614167,31.0 19.56969521570136,31.834097983009997 19.562698389956495,32.80585160422925 19.884552374947816,33.21884330229659 20.031485715939198,34.78171406438196 19.75161268550437,34.72503016865085 19.639663473324617,34.814104843833775 20.038482541713165,35.63196765874454 20.269377791817533,38.15028456867003 20.780146072385833,41.704943655393436 20.780146072385833,42.56322025186091 20.283371443365468,46.19055128774198 20.07346667049569,47.34025120863953 19.758609511249233,47.79364943283872 19.835574594617356,48.36848990065482 19.660653950588312,48.96761498844717" stroke="#4DD2FF" stroke-linecap="round" stroke-linejoin="round" stroke-width="0.5"><title>2025-10-14 5.0km</title><desc>1760442162000</desc></polyline><polyline fill="none" points="43.447815299005015,31.0 43.37035006072256,31.522883715202624 43.46718160857563,31.918778911327536 43.42199355288176,32.35948992386693 43.060489107621834,34.66757733162376 42.87328144846833,35.14561874006904 42.76999446412083,36.60960121928656 42.285836724884575,39.39556899483432 42.331024780578446,39.75407728993014 41.872688787436346,43.070196170061536 42.453678074496565,48.98506406692468 42.76999446412083,49.0 42.82163795628003,48.85810851336282 42.201916050107684,42.920824661661754 42.62797486060299,39.74660838495038 42.74417271799757,39.61216796544613 43.13149890938075,36.25854685304512 43.40262724334025,35.205373697586765 43.33161744158133,34.98129235650413 43.60920121206436,32.971999146997405 43.84159692688263,32.0980515063784" stroke="#4DD2FF" stroke-linecap="round" stroke-linejoin="round" stroke-width="0.5"><title>2025-10-12 5.0km</title><desc>1760269757000</desc></polyline><polyline fill="none" points="66.325846900756,31.0 66.33878999465378,32.32544108592265 65.96344027173473,34.84895511166542 65.81459469193942,35.14847626286064 65.80165159804164,35.92722555983346 65.23862701366306,39.35661976530537 65.2709847484366,39.723510571617226 64.82444800907979,42.87570124598278 64.82444800907979,43.75170180210989 65.40041568735614,49.0 65.7757654102752,48.94010712039017 65.13508226250997,43.01047123972239 66.2287736965809,35.34316435844812 66.35173308855155,35.16345228847058 66.29348916601157,34.89388336194679 66.60412341949996,32.66241383264423" stroke="#4DD2FF" stroke-linecap="round" stroke-linejoin="round" stroke-width="0.5"><title>2025-10-11 5.0km</title><desc>1760186515000</desc></polyline><polyline fill="none" points="89.15572088418412,31.0 89.17498326813802,31.661242225862225 89.25845359853702,31.787546240506344 89.21350803601672,32.54536574674421 88.84110194654204,35.00451024670474 88.70626525898115,35.24224792933819 88.70626525898115,35.933168682553514 88.21186407125788,39.26881253547617 88.10913135690498,39.4693920607242 88.14123533014208,39.93740881382837 87.71746288353461,42.983158971699595 87.9165075175697,45.79107969695178 88.31459678558167,49.0 88.75121082150145,48.962860523708514 88.10913135690498,44.08999773445248 88.05134420510149,42.91630240272934 88.47511665173806,39.89283591874846 88.59711175001576,39.63282682272256 89.04014658054803,36.000031634837796 89.24561200922471,35.27939437243913 89.18140406277962,35.049086121071014 89.4253942593059,33.37747223654151" stroke="#4DD2FF" stroke-linecap="round" stroke-linejoin="round" stroke-width="0.5"><title>2025-10-10 5.0km</title><desc>1760093219000</desc></polyline><polyline fill="none" points="111.69026363125886,49.0 112.83516701799817,40.558792945848836 112.75338820467005,38.84585372029687 112.17275862995302,34.21792108262889 112.43445083263214,34.63434979901649 112.42627295129932,33.564881389655056 113.06414769531693,33.72577565238316 112.41809506996651,33.55541701258335 112.38538354463526,34.161135204238235 112.57347481528996,34.60595699114492 112.20547015528427,34.823634963344375 112.25453744331026,35.29684619026375 111.8374654952786,35.344167180664954 111.4612829539401,32.48593620691099 111.03603312454652,31.709845096396748 111.09327829393442,31.54894734903064 111.48581659793854,31.66252225840435 111.4612829539401,31.113575579205644 111.29772532725474,31.0 109.79299516184255,31.246080246499332 111.28954744589282,31.04732317484013 111.47763871657662,31.21768640508526 111.49399447927135,31.634128544050327 111.10145617523813,31.530018183970242 111.06056676857406,31.700380530732218 111.54306176726823,32.78879927516391 111.87017702060984,36.40415106108412 112.31996049394365,39.139232288369385 112.37720566330245,40.41683785411442 111.5267060045735,46.53017443662975" stroke="#4DD2FF" stroke-linecap="round" stroke-linejoin="round" stroke-width="0.5"><title>2025-10-08 5.0km</title><desc>1759920144000</desc></polyline><polyline fill="none" points="134.93792550062062,31.0 134.92723351350287,32.051619571044284 135.1089972947957,32.10110732708563 135.0127694106195,33.33829469135526 134.40332614415092,37.48278077421128 134.18948640150484,37.97763535741251 134.0397985817399,40.34053826719901 133.47312326380052,44.113665137498174 133.2165155726252,44.91775903272355 133.25928352109622,45.57340089532954 132.7781441002735,49.0 133.22720755974296,44.93012966657989 133.34481941821286,44.73219937422982 133.97564665891696,44.73219937422982 134.84169761644443,38.64568585500092 135.087613320502,38.02712070514826 134.9913854363258,37.655980107076175 135.6008287027944,33.177461044899246 135.79328447108855,33.00425534185342" stroke="#4DD2FF" stroke-linecap="round" stroke-linejoin="round" stroke-width="0.5"><title>2025-10-07 3.0km</title><desc>1759844077000</desc></polyline><polyline fill="none" points="157.7682557584485,31.0 157.84562465932686,31.04476303512638 157.75536094160634,31.611759117666224 157.85851947613992,31.64906133803015 157.79404539207462,32.45478467189969 157.43943792962818,34.86444151183241 157.2911475362198,35.19268585972168 157.1815415932797,36.7294467011161 156.82693413086236,39.12404391678865 156.70443337105098,39.37767269397591 156.7495652299549,39.750654598763504 156.31114145819447,42.68968574330211 156.28535182456835,43.76382006708445 156.86561858127243,49.0 157.2460156773741,48.94778922160913 156.94943489058642,46.29990823429398 157.00101415783865,46.09105722273671 156.6399592870148,44.0845654656805 156.61416965335957,43.21183633473265 158.00036246114178,33.42462510673067" stroke="#4DD2FF" stroke-linecap="round" stroke-linejoin="round" stroke-width="0.5"><title>2025-10-06 5.0km</title><desc>1759755043000</desc></polyline><polyline fill="none" points="183.73479171463987,48.89656125801412 183.7965967784403,49.0 184.42347671161406,48.855185730339144 184.57357472385047,48.58624437088292 183.84074325265829,46.9518923999276 183.95552408549702,46.79673097288469 182.68410562939243,44.04516048127698 182.0660549910972,43.22794971503754 181.84532262024004,42.44176577728649 181.84532262024004,41.04523913684534 183.29332697292557,40.66248388355598 183.3021562678041,40.38317504360748 180.21190307603683,37.714183378186135 178.30477539193816,35.458931670495076 177.94277430378133,34.786484094001935 175.99150014552288,32.386325524894346 175.42642527620774,31.0 176.22106181120034,32.6035837004747 177.70438334328355,34.32094073515327 178.35775116091827,35.407205099239945 180.55624557455303,37.9003944802389 181.74820037704194,38.67627022733359 183.11674107628642,40.207313509883534 182.99313094862737,40.46593330218457 181.527468006243,40.79696563098696 181.75702967192046,41.24178854535421 181.73937108222162,42.34866462622449 181.91595697891898,43.0831268364127 182.85186223126948,44.60375628779002 183.73479171463987,46.682945768850914 180.71517288155155,47.74838382213784" stroke="#4DD2FF" stroke-linecap="round" stroke-linejoin="round" stroke-width="0.5"><title>2025-10-04 5.0km</title><desc>1759568734000</desc></polyline><polyline fill="none" points="19.802407777140616,51.50442067741824 19.81652150733862,51.28942210126115 19.350768410600722,51.16538419009885 17.014946061739465,51.0 19.32254095020471,51.18192258972704 19.83769210265018,51.339037210193055 19.81652150733862,51.578843122624676 20.26110400876496,52.141143734123034 20.16230789734982,52.25691100109543 20.232876548398053,52.538059358681494 20.402241310832324,52.728247375707724 22.985053938260535,59.36799758615962 19.872976428159745,60.51728644247487 20.232876548398053,62.113033389570774 20.910335598193342,64.27096022650949 21.206723932467867,65.93277102836146 21.71481821985799,67.0984976675245 21.517225996998604,67.30518496040895 21.67953389431932,67.5862787954029 21.81361433127313,68.30554367879813 21.72893195002689,68.12366123453103 21.510169131855946,68.05752205820318 21.28434944860055,68.17326557980414 21.220837662694976,68.38821737621765 21.53839659228106,68.95039618311421 21.799500601075124,69.0 21.968865363509394,68.81811918313178 21.95475163331139,68.56183185413829 21.67247702923487,68.09885905000556 21.46782794126193,68.04098725530639 21.305520043883007,68.14019601978362 21.24200825797743,68.47089098555443 21.54545345736551,68.95039618311421 21.84889865675359,68.97519809551886 21.990035958820954,68.61970326044684 21.735988815140445,68.16499819111777 21.390202425129246,68.06578945832734 21.227894527779426,68.42128683051124 21.383145560044795,68.77678257440857 21.623078973498195,68.99173269939638 21.88418298229226,68.95039618311421 21.99709282393451,68.74371327157132 21.81361433127313,68.24767203822557 21.52428286205395,68.05752205820318 21.263178853318095,68.181532967581 21.298463178798556,68.60316857734142 21.63013583861175,69.0 21.96180849839584,68.83465382046415 21.968865363509394,68.59490123445721 21.644249568809755,68.09059165341023 21.390202425129246,68.07405685756385 21.249065123090986,68.1980677405154 21.333747504337225,68.62797060067533" stroke="#4DD2FF" stroke-linecap="round" stroke-linejoin="round" stroke-width="0.5"><title>2025-10-02 5.0km</title><desc>1759403720000</desc></polyline><polyline fill="none" points="42.48209305029013,69.0 42.9066777373082,66.30598840441962 43.11189366935287,66.18315898112633 43.55063117927057,62.964961368226795 43.600166059390176,61.449989238630224 43.1260464922525,58.411770083192096 42.87837209147983,55.67645589262975 42.77222591973259,55.266969726624666 42.44671099304105,54.74282439627859 42.531627930438844,54.61178753072454 42.8642192685802,54.669116185636085 42.70853821665514,53.07208839061059 42.36887046703487,52.65439897367469 42.41132893573376,51.79444335276639 42.107043243420776,51.0 42.41840534721268,51.859964104201936 42.36887046703487,52.629828940516745 42.70853821665514,53.07208839061059 42.8642192685802,54.669116185636085 42.524551518959925,54.619977341055346 42.48209305029013,54.74282439627859 42.892524914379464,55.65188678137201 43.607242470869096,61.68747323912248 43.49401988767204,63.52999773333431 42.758073096803855,68.41043677189737 42.6448505136359,68.41862517959089 42.58116281058756,68.65608864113892" stroke="#4DD2FF" stroke-linecap="round" stroke-linejoin="round" stroke-width="0.5"><title>2025-09-30 5.0km</title><desc>1759224370000</desc></polyline><polyline fill="none" points="65.44466556832776,69.0 65.48668429238023,68.4327499938372 65.64775606789044,68.31929950841004 66.34806813532487,63.67579471338831 66.48112742815283,61.925293401713134 65.77381224001874,55.936019029832096 65.64075294719078,55.392990850079514 65.33961875818204,54.87427391026722 65.38864060293417,54.77701410824375 65.7457997573365,54.83374900717172 65.57772486112663,53.17221024011815 65.24157506873598,52.80747758188954 65.27659067211789,51.94832294592197 64.94044087972725,51.0 65.2555813100771,51.76190137755475 65.24857818940654,52.79937239275023 65.58472798179719,53.2046308400968 65.75980599864852,54.801329069872736 65.67576855054358,54.86616893129394 65.38864060293417,54.76080412969168 65.3466218788817,54.85806395149848 65.75980599864852,55.81444587815349 65.95589337754063,58.25397831849841 66.45311494544148,61.25263684258243 66.48813054882339,62.45206867228262 65.66176230923156,68.48137158103782 65.50069053369225,68.5299931385889 65.42365620628698,68.9108609805262" stroke="#4DD2FF" stroke-linecap="round" stroke-linejoin="round" stroke-width="0.5"><title>2025-09-28 5.0km</title><desc>1759056716000</desc></polyline><polyline fill="none" points="89.11571716397884,51.0 89.16107454668963,51.6298117194674 89.25826893819612,51.63730944564304 89.1999523032573,52.38707821701246 88.81117473717313,54.89125070165028 88.67510258906987,55.18364853528328 88.67510258906987,55.895894820583635 88.0919362399145,59.43453235110064 88.14377324873931,59.75689979613526 87.68371979548829,62.94301394087233 87.70963829991524,64.14245657841093 88.26688614464365,68.94003227640496 88.65566371075693,69.0 88.33816203175229,66.33138915974268 88.39647866669111,66.1664718422544 88.05305848328862,63.925059046312526 88.02713997889077,62.93551736311201 89.07035978126805,55.521029211471614 89.22587080768426,55.236130075099936 89.16755417277454,55.01870631001657 89.45913734735223,52.746964521342306" stroke="#4DD2FF" stroke-linecap="round" stroke-linejoin="round" stroke-width="0.5"><title>2025-09-27 5.0km</title><desc>1758971882000</desc></polyline><polyline fill="none" points="111.15495713986456,69.0 111.22511464980198,68.45608108815213 111.4075241755927,68.26124356216314 112.20731978875119,62.13985596117709 111.4426029305614,55.66886058036471 111.05673662596382,54.88126324179029 111.11286263389047,54.775708368979394 111.39349267361104,54.897502440617245 111.45663443254307,54.84066523029469 111.30228791071568,53.241087149319355 110.95851611206308,52.802618526271544 110.99359486706089,51.90131435039075 110.64280731740291,51.0 111.00061061800807,51.885074542224174 110.97956336505013,52.84321757399448 111.3303509147081,53.29792549823469 111.47066593455384,54.83254562551883 111.11286263389047,54.775708368979394 111.09181538096163,54.905622038779256 111.50574468949344,55.87996782517439 111.80040623116656,58.96531772155868 112.21433553975658,61.80698191402189 112.12313077683211,63.414507168505224 111.38647692263476,68.30995298819471" stroke="#4DD2FF" stroke-linecap="round" stroke-linejoin="round" stroke-width="0.5"><title>2025-09-25 5.0km</title><desc>1758803583000</desc></polyline><polyline fill="none" points="134.82028371057822,51.0 134.82676333995187,52.39457586595381 134.26303558284417,55.64848373136192 134.25655595347052,56.65311754227878 133.7446652314684,59.40454460914043 133.78354300782667,59.749402893707156 133.3234893209883,63.11543501838605 133.54379672033247,65.96407281215215 133.92609485445428,69.0 134.2954337297997,68.94003227636858 133.65395041997544,63.07045564542932 135.24793925046106,52.29710636640084" stroke="#4DD2FF" stroke-linecap="round" stroke-linejoin="round" stroke-width="0.5"><title>2025-09-23 5.1km</title><desc>1758638106000</desc></polyline><polyline fill="none" points="157.0035472601012,69.0 156.91996133045177,68.96776003399282 156.94085781287868,68.29877778245282 157.0940986838832,68.15369654965616 157.42844240250997,66.17089310484153 157.91602699217037,61.90689175949956 157.16375362529652,55.65959484272025 156.77368595355074,54.85345615795086 156.85727188320016,54.756718964919855 157.18465010769432,54.78896470904874 157.0314092366316,53.19278463096998 156.69706551803392,52.813888680393575 156.71099650629913,51.84648654937337 156.34879081114195,51.0 156.72492749462253,51.91904211871588 156.70403101216652,52.82195031522133 157.0383747307933,53.176661435914866 157.0174782483955,53.71678668488312 157.19858109598863,54.78090327423706 156.86423737733276,54.7405960879405 156.80851342424285,54.84539472969482 157.22644307251903,55.82082159604761 157.518993826292,58.91631168380263 157.93692347456818,61.67313080356689 157.81851007425576,63.44647256533062 157.19161560182692,67.5975493656515" stroke="#4DD2FF" stroke-linecap="round" stroke-linejoin="round" stroke-width="0.5"><title>2025-09-21 5.0km</title><desc>1758459157000</desc></polyline><polyline fill="none" points="171.01831129199127,54.37475195724983 171.0,54.90446356074972 171.5768056968809,54.87268094040337 171.73245167854475,54.99981136353017 172.0620549339219,54.8832751482405 174.44252288911957,54.87268094040337 174.653102746699,54.99981136353017 176.3194303154014,54.989217167545576 176.56663275690516,55.105753264419036 177.1525940997526,54.95743457304343 180.2288911496289,54.95743457304343 181.83112919633277,54.989217167545576 182.00508647004608,55.126941631679074 183.17700915568275,55.04218813683838 189.0,55.22228923106013 188.4231943032355,59.56580963526358 188.11190233984962,60.0425264659134 182.03255340800388,60.01074541168782 181.6937945066602,65.62524804275017 181.99593082407955,60.381523775133246 187.3336724313558,60.4133047163632 188.12105798581615,60.56161564741342 188.40488301118603,59.62937200527813 188.6246185147902,57.849610999452125" stroke="#4DD2FF" stroke-linecap="round" stroke-linejoin="round" stroke-width="0.5"><title>2025-09-20 5.0km</title><desc>1758380898000</desc></polyline><polyline fill="none" points="20.624363552371506,71.0 20.508502274606144,71.14151495879923 20.51493901226786,71.6479873094504 20.611490077048074,71.7075720618086 20.55355943820905,72.43748134750058 20.16735517900088,74.97721109895065 19.980689787043957,75.64750632859068 20.01287347532343,76.16139518770797 19.562301839585416,79.22231072484283 19.45287729948177,79.37870443778229 19.497934463026468,79.73617452901817 19.06023630258278,82.90119827391027 19.092419990862254,84.10014806473919 19.626669216086157,89.0 19.948506098793587,88.99255366486614 20.019310212956043,88.90319758416445 19.74253049385152,86.01395897911425 19.407820135878865,83.98099865214317 19.407820135878865,82.7522590429653 20.437698160414584,75.48365694951644 20.579306388797704,75.23043446155498 20.521375749929575,75.021897638253 20.93976369741722,72.2661767597092" stroke="#4DD2FF" stroke-linecap="round" stroke-linejoin="round" stroke-width="0.5"><title>2025-09-18 5.2km</title><desc>1758195038000</desc></polyline><polyline fill="none" points="42.46110963143292,88.8458937524847 42.447090756177204,89.0 42.608307821530616,88.96755660420604 42.678402197750984,88.38357322482625 42.83260982547654,88.27813132595475 43.540563025453594,83.4276533905213 43.64570458984235,82.03247805531282 42.89569476406905,75.70521397983248 42.496156819514,74.8858777071946 42.566251195792574,74.73174420068972 42.90270420172601,74.80475484616909 42.76251544925617,73.23906746844295 42.40503413043916,72.8172189821853 42.440081318549346,71.92483983356215 42.06858112447662,71.0 42.46110963143292,71.95729015932011 42.440081318549346,72.8253314741014 42.76251544925617,73.21473011639318 42.909713639324764,74.8128671359882 42.566251195792574,74.74796879437054 42.51718513239757,74.87776542481879 42.85363813833101,75.46995987161063 42.979808015574235,76.07026208472962 43.20411001954926,78.60932824826159 43.63869515218539,81.46466715620772 43.64570458984235,82.73006877187436 43.28822327099624,85.33381282278424 43.14102508092765,86.22604202100047 42.965789140347624,86.38826443997095 42.78354376211064,88.05102522452944 42.62232669675723,88.45657138088427" stroke="#4DD2FF" stroke-linecap="round" stroke-linejoin="round" stroke-width="0.5"><title>2025-09-16 5.1km</title><desc>1758026219000</desc></polyline><polyline fill="none" points="66.468320124608,71.0 66.30720166087849,71.07457414198143 66.28786744520767,71.55184685628774 66.4038727391453,71.68607924797107 66.35875956926611,72.41689574021439 65.97851999485283,74.97469615956652 65.84962522381102,75.19840624316566 65.70784097578144,77.1521119962199 65.27604349292233,79.40402892921702 65.30826718563912,79.80668229299772 64.86358022573404,83.25151525310503 65.46938564939774,89.0 65.82384626966086,88.92544406375237 65.19870663029724,82.97563631591038 65.56605672763544,80.26898528364109 65.74650940703577,79.61281243054691 66.1009700272698,76.52573871555069 66.28786744520767,75.39974473546317 66.39742800054955,75.22823420279019 66.35231483069947,74.84792680956889 66.56499120287481,73.4236208282091" stroke="#4DD2FF" stroke-linecap="round" stroke-linejoin="round" stroke-width="0.5"><title>2025-09-14 5.0km</title><desc>1757842188000</desc></polyline><polyline fill="none" points="89.06326638913015,71.0 89.17328274311149,71.97349012749328 88.73321732724435,74.92383551284001 88.54554237046978,75.59026773840014 88.59731477234163,75.8673220589917 88.26726571045583,78.34578870957921 88.0278183517803,79.39405768526922 88.0601761029975,79.79089847931755 87.61363913689274,83.10780496994994 87.83367184482631,85.98283569532214 88.21549330855487,89.0 88.59731477234163,88.91764727800182 87.93721664854093,83.14524098618858 89.52921800594777,72.16069829320622" stroke="#4DD2FF" stroke-linecap="round" stroke-linejoin="round" stroke-width="0.5"><title>2025-09-13 5.1km</title><desc>1757760467000</desc></polyline><polyline fill="none" points="112.11313164560124,71.0 112.08084106931346,72.4123634671414 111.71918661505333,74.88580239901785 111.57710807942203,75.18470177277777 111.41565519804135,76.97060022211372 110.99587770644575,79.42894181154406 111.03462639800273,79.72782272592303 110.58255833014846,82.93324419247801 110.59547456062865,83.76259623710939 111.17024681836483,89.0 111.55127561843256,88.9477025181186 111.29295100818854,86.09369786738534 110.9377546691685,83.99421540850017 110.91192220814992,83.14245099525579 111.95167876424966,75.62557613203535 112.10667353036115,75.19964670958143 112.05500860832399,75.00536229426507 112.27458452701103,73.4734864293714" stroke="#4DD2FF" stroke-linecap="round" stroke-linejoin="round" stroke-width="0.5"><title>2025-09-11 5.0km</title><desc>1757592265000</desc></polyline><polyline fill="none" points="133.92570151062682,88.92719921069511 134.06551229706383,88.85439835482248 134.0864839150454,88.32861241891078 134.24726631946396,88.21536576279323 134.34513386996696,87.64104095492803 134.5618405889545,85.59446956736792 134.9952540269005,83.15954731519741 135.0511783414695,81.476899708563 134.3171717126388,75.6278045622239 133.91871097128023,74.87540011727106 133.9886163645133,74.74595347390277 134.33115279130288,74.77022473557736 134.1773609262018,73.2411207896439 133.8348244994122,72.79613793038152 133.8837582746928,71.98707180973724 133.52025022992166,71.0 133.87676773534622,71.8818926097083 133.8418150387588,72.8365910204302 134.1773609262018,73.20875848379364 134.3241622519854,74.7944959898523 133.9816258251958,74.74595347390277 133.91871097128023,74.85112888769072 134.15638930822024,75.1666542948442 134.35212440928444,75.765340089456 134.65271760014002,78.98522156006948 135.0511783414695,81.59015595259552 134.9952540269005,83.25662205327535 134.15638930822024,88.95146614787518 134.00259744314826,89.0" stroke="#4DD2FF" stroke-linecap="round" stroke-linejoin="round" stroke-width="0.5"><title>2025-09-09 5.2km</title><desc>1757417515000</desc></polyline><polyline fill="none" points="157.77252274070634,71.0 157.72085787114338,71.56793777661369 157.86939437116962,71.60530195025785 157.77898084942717,72.52445464474295 157.43670108853257,74.80360485976416 157.26879026240204,75.25942642801965 157.05567267545848,77.5683808144895 156.68110237110523,79.47377402829443 156.71339291456388,79.8697907370879 156.28069963192684,82.93324419442797 156.26778341454337,83.84478377026971 156.51964965369552,86.18335414879402 156.86192941459012,88.95517358923826 157.23649971894338,89.0 157.2235835015308,88.70862784209021 157.4237848711491,88.52185021105834 157.4237848711491,88.41725453061372 157.11379565371317,88.1931204291177 156.6165212841006,83.12750767386751 157.59815380594227,76.04403070845001 157.81127139291493,75.30426118378819 157.7466903059394,75.02030726904195 158.01793087116675,73.05501723112684" stroke="#4DD2FF" stroke-linecap="round" stroke-linejoin="round" stroke-width="0.5"><title>2025-09-07 5.0km</title><desc>1757247375000</desc></polyline><polyline fill="none" points="179.5256644608744,88.94265544975497 179.68849606389995,89.0 179.73097387334565,88.4265526622039 179.9362832858169,88.11525097064441 180.61592823735555,83.56847084360197 180.74336166577996,81.83161506291071 179.97168146035983,75.51471545678942 179.56106263547554,74.73633428722678 179.6318589845905,74.62981838441192 179.97168146035983,74.68717311880027 179.82300912719802,73.08941881715145 179.49026628633146,72.65515191567101 179.5256644608744,71.83577402903029 179.25663833422004,71.0 179.5256644608744,71.75383578204492 179.49734592126333,72.6469581780475 179.8300887621008,73.04025664390065 179.99292036509723,74.6707860559909 179.61769971478498,74.60523777145136 179.58230154018383,74.71994723441458 179.84424803190632,75.11323558195 180.01415926983464,75.71135793098802 180.26902612665435,78.48888162234653 180.7362820308772,81.66775881198555 180.7362820308772,82.6426985995713 180.24778722194606,86.13272251950548 179.8938054763421,88.36101556386711 179.73097387334565,88.59039517493511" stroke="#4DD2FF" stroke-linecap="round" stroke-linejoin="round" stroke-width="0.5"><title>2025-09-04 5.0km</title><desc>1756985562000</desc></polyline><polyline fill="none" points="20.53199489347753,91.04504300308326 20.60984780464787,91.0 20.655262002896052,91.10510029779834 20.62931103250594,91.55552845207421 20.70067620111513,91.55552845207421 20.6487742603058,92.36629220977193 20.298436159762787,94.6483942812265 20.064877426048042,95.56421805726859 20.097316139028408,95.92453905446746 19.539370275160763,99.3625135467737 19.57180898822844,99.67777831109561 19.130642491189064,102.7853161730527 19.16956894681789,104.30901284753782 19.701563840266317,108.9924946582978 20.006487742590252,109.0 20.071365168638295,108.90993584925309 19.766441266285256,106.25299404140969 19.844294177542906,106.08036457510025 19.636686414218275,105.10462523026945 19.448541878722608,103.04802473708696 19.80536772191408,100.24825398997928 19.993512257409748,99.53515870333649 20.343850357981864,96.41997755683406 20.53848263603868,95.28646942276828 20.6487742603058,95.13633459104312 20.58389683428686,94.93365208435716 20.869357508810936,92.80920569004229" stroke="#4DD2FF" stroke-linecap="round" stroke-linejoin="round" stroke-width="0.5"><title>2025-09-02 5.1km</title><desc>1756811867000</desc></polyline><polyline fill="none" points="43.37964843577356,91.0 43.35352315683849,92.32256637187675 43.007363210985204,94.73335542801942 42.79182965977816,95.55708675743517 42.79836097950465,96.19943972120382 42.269324081164086,99.41867808219104 41.85785093798768,103.0533783902647 41.88397621686454,104.15659949354449 42.39995047583943,108.38042500505253 42.90939341497142,109.0 42.79182965977816,108.93955388607719 42.70039118351997,108.22175253045862 42.504451591550605,106.34788057651895 42.55670214939164,106.15897957621928 42.21054220356746,103.94502411117719 42.19747956408537,102.87958179371344 43.24902204112732,95.44372977629973 43.39271107525565,95.14144364873937 43.47108691203175,93.8340420017048 43.856434776302194,91.74819757926161" stroke="#4DD2FF" stroke-linecap="round" stroke-linejoin="round" stroke-width="0.5"><title>2025-08-31 5.1km</title><desc>1756640573000</desc></polyline><polyline fill="none" points="66.29348898958415,91.0 66.3517328943417,92.45274208266346 65.95049710589228,94.9612756864808 65.8145946614095,95.18591632167227 65.74987921165302,95.6351955381615 65.69163530689548,96.78084514540387 65.32922878826503,99.2592810823262 65.23215561363031,99.42400801015901 65.27098488347838,99.78341093871131 64.8309198251809,102.86821401750058 64.85680600508931,104.14103204247658 65.3680580581422,108.58074882145593 65.8598954762274,109.0 65.75635075665195,108.83529446410103 65.50396050262498,105.96786186834652 65.18685479884152,104.05867389396735 65.18685479884152,102.64359679102199 65.68516376192565,99.61868481394049 66.05404182549682,96.4588669893783 66.3517328943417,95.22335636096977 66.3064320795238,94.9388115853144 66.59765160339884,92.7672494843282" stroke="#4DD2FF" stroke-linecap="round" stroke-linejoin="round" stroke-width="0.5"><title>2025-08-30 5.0km</title><desc>1756550382000</desc></polyline><polyline fill="none" points="88.20759377983632,108.99190374834143 88.4524825818662,109.0 89.23612674849574,103.55103658699954 89.34807591512799,101.72923463044572 88.88628560269717,98.47417807111924 88.69037456100341,96.0125544224793 88.57142857147846,95.47001529365662 88.214590602729,94.91127710370347 88.26356836315244,94.78171406496404 88.62740315479459,94.83839792034269 88.4524825818662,93.1945497326742 88.1306287276966,92.8625368664143 88.15161919649108,91.88268594590772 87.79478122774162,91.0 88.15861601938377,91.92317589218874 88.11663508188212,92.8220473977708 88.4524825818662,93.21884330269677 88.61340950895101,94.82220253721607 88.26356836315244,94.78981176106026 88.214590602729,94.8950817353907 88.50845716521144,95.35664844168059 88.6973713839543,96.13401790019998 88.90027924854076,98.68470814086322 89.34807591512799,101.61587668731954 89.2641140401829,103.33242255208461 88.55043810268398,108.23085241995432" stroke="#4DD2FF" stroke-linecap="round" stroke-linejoin="round" stroke-width="0.5"><title>2025-08-28 5.0km</title><desc>1756381580000</desc></polyline><polyline fill="none" points="112.0375986029394,91.0 112.18582743906882,91.76811003351759 112.1600485110539,92.46909664043778 111.76047512679361,94.97469616110902 111.61869102268247,95.2356911924071 111.59935682668583,96.05595524932869 111.03222041032859,99.39657236682251 111.07733353436925,99.82159534034872 110.64553649007576,102.63265024788416 110.61331283004256,103.77344554387673 110.71642854210222,103.89274337471579 110.67776015007985,104.37738881937548 111.16755978239235,108.60485267570039 111.70891727073467,109.0 111.53490950661944,108.84343244656338 110.935549430229,103.90765558993735 110.90977050224319,102.94581150582962 111.35445701051503,99.80668229520961 111.46401745462208,99.65009513837867 111.56713316665264,98.33773250403465 112.01826440697187,95.75767847098177 111.98604074693867,95.407201707676 112.10849065499497,95.2431481796666 112.05693279896514,95.0194382323898 112.24383002708782,93.7368213738664" stroke="#4DD2FF" stroke-linecap="round" stroke-linejoin="round" stroke-width="0.5"><title>2025-08-26 5.0km</title><desc>1756206850000</desc></polyline><polyline fill="none" points="134.85197470107232,91.0 134.86491779627977,91.61404911642603 134.96846255796845,91.63651423098781 134.9102186295204,92.40032405162492 134.54781196368276,94.88639532199886 134.42485255919746,95.16345228834689 134.27600696429727,96.84823574349866 133.82947017959668,99.38657010345196 133.75828315594117,100.56211127230199 133.42823422813672,102.77087996923365 133.48647815658478,104.440515442795 133.98478732211515,108.89518742878863 134.00420196491177,109.0 134.3924948211934,108.95508034485101 134.11421827418962,106.05021788403246 133.77122625114862,104.07364810892614 133.73886851311545,103.07036893548502 134.15304755981197,100.0080368784038 134.30189315471216,99.5812470061137 134.80020232021343,95.50041206009337 134.94904791514273,95.20089233903127 134.89727553431294,94.9612756858769 135.14319434325444,93.09673198908422" stroke="#4DD2FF" stroke-linecap="round" stroke-linejoin="round" stroke-width="0.5"><title>2025-08-24 5.0km</title><desc>1756042259000</desc></polyline><polyline fill="none" points="156.91338516026735,109.0 157.11417314503342,108.70957506886043 157.80976009229198,103.97135386590526 157.93883808254031,101.88844107749173 157.5587751113344,99.49012108822353 157.1787121401576,95.83026516121754 156.7627941717219,94.98374450433766 156.86318816410494,94.8675547093153 157.1715411407058,94.90075181049178 157.0137791526504,93.27407797389606 156.66957117876154,92.8840034078894 156.72693917437573,92.04575175572973 156.33970520374714,91.0 156.7054261760495,91.88805988865352 156.683913177636,92.89230288613908 157.02812115155393,93.29897628714389 157.19305413906113,94.90905108365405 157.10700214561075,94.9920437690671 156.80582016840344,94.88415326158429 156.80582016840344,95.00034303295979 157.08548914722633,95.5065965349786 157.24325113525265,96.1207359124528 157.42969712114427,98.3780733771273 157.94600908196298,101.97142666717264 157.8312730906764,103.86347522555297 157.04246315048658,108.9336172496769" stroke="#4DD2FF" stroke-linecap="round" stroke-linejoin="round" stroke-width="0.5"><title>2025-08-23 5.0km</title><desc>1755956696000</desc></polyline><polyline fill="none" points="180.63547006476438,91.0 180.64198770644725,91.49775452424365 180.72671704844106,91.58825498821534 180.69412883999757,92.34242122989963 180.30307033855934,94.77078446850646 180.15968222139054,95.07998029737064 179.8272824951855,98.17940878979425 179.6578238112852,99.20498193983076 179.54702390253078,99.31055484219542 179.5991650360811,99.68005881842691 179.12989483439014,103.23172774412524 179.72951786985504,108.87936098423233 179.74907079493278,108.96984026442078 180.10102344618645,109.0 179.4557769188832,103.08091723063262 180.4269055306795,96.02264255887712 180.55074072279967,95.25343105212232 180.66805827320786,95.11014567511302 180.61591713971575,94.82357409142423 180.87010516558075,92.86279146892048" stroke="#4DD2FF" stroke-linecap="round" stroke-linejoin="round" stroke-width="0.5"><title>2025-08-21 5.0km</title><desc>1755781186000</desc></polyline><polyline fill="none" points="20.50175383381429,111.0 20.521176562906476,112.3934153112059 20.13272198184859,114.89550358931592 19.996762878465233,115.15769355411612 19.938494691305095,115.59966881306173 20.00971136451699,115.81690991843061 19.40760676388163,119.36758761899546 19.446452222007792,119.74212171293766 19.01915218285285,122.8132295452233 19.04504915489815,124.1090488804839 19.58888556837337,129.0 19.9643916633795,128.9325924638615 19.705421942693647,126.09393031309446 19.368761305784574,124.07159777406196 19.349338576721493,122.64095127178007 19.77016437286511,119.77957501771743 19.880226504144957,119.61478033440653 20.32694927236298,115.89182049604278 20.540599291940453,115.17267580965563 20.547073534951778,114.34864723412466 20.98084781714715,111.59183015047165" stroke="#4DD2FF" stroke-linecap="round" stroke-linejoin="round" stroke-width="0.5"><title>2025-08-19 5.3km</title><desc>1755607955000</desc></polyline><polyline fill="none" points="42.66210906091146,128.91134006194625 42.97555623340304,129.0 42.97555623340304,128.4035585078018 43.09396960964659,128.13757639637333 43.24024495683261,126.29985743787256 43.665140012832126,123.5190175207099 43.623347056505736,121.69731300375861 43.149693551444216,118.64223670910724 42.93376327707665,116.12715152443707 42.80141891533276,115.46612230624305 42.460109772044234,114.89376328713115 42.53673019193229,114.75671896518907 42.871073842572514,114.82927187102177 42.7247984954156,113.32177007346036 42.36259287392022,112.83001194937242 42.39045484477538,111.87873347735876 42.04914570142864,111.0 42.41831681568874,111.91904211878864 42.37652385933325,112.82195031536685 42.70390201723785,113.17666143608949 42.871073842572514,114.82121044032101 42.52279920651927,114.77284183888696 42.48797174289939,114.87764043802599 42.89197032075026,115.80469893578265 43.10093510238221,118.23112247014069 43.61638156379922,121.79404172927025 43.609416071063606,122.62429177048762 43.09396960964659,126.19507393342064 42.94072876978316,126.26761637432355 42.843211871688254,126.50942403145018 42.66210906091146,127.69427089524834" stroke="#4DD2FF" stroke-linecap="round" stroke-linejoin="round" stroke-width="0.5"><title>2025-08-17 5.0km</title><desc>1755429603000</desc></polyline><polyline fill="none" points="65.45540324001922,128.9595187335217 65.36444453289732,129.0 65.4693968872889,128.89474866437376 65.58834288897924,127.11355112918682 65.68629841975053,126.49012258402945 66.00815230663284,126.2229374284434 66.00115548298345,125.60759851037437 66.43495854787761,123.1623889988623 66.49792996054748,122.06121053561219 65.73527618512162,115.67245569921215 65.33645723835798,114.89508173525246 65.41342229826842,114.80600715063338 65.74926983239129,114.83030022904859 65.60233653621981,113.25933256946155 65.26648900206783,112.83824318762345 65.28747947298689,111.92317589215236 64.93064146800316,111.0 65.30846994387684,111.93937186490803 65.25949217844754,112.79775370663992 65.59533971257042,113.19454973259417 65.76326347966096,114.82220253706328 65.40642547464813,114.78171406481852 65.35744770924794,114.9031794198163 65.77725712690153,115.7696269111475 66.49792996054748,121.6806526743676 66.4909331368981,122.64418926530925 66.0221459538734,126.09339278801781 65.67230477248086,128.32800831341592 65.52537147633848,128.4413567061274 65.47639371093828,128.78140091669047" stroke="#4DD2FF" stroke-linecap="round" stroke-linejoin="round" stroke-width="0.5"><title>2025-08-16 5.1km</title><desc>1755350047000</desc></polyline><polyline fill="none" points="88.46642898907885,128.9514006132158 88.21442999140709,129.0 88.33342951806844,128.8785014774985 88.6694281816599,126.36749054866232 88.85842742986279,126.27028853527736 88.81642759690294,126.00298238729738 89.32042559224647,123.03015358735865 89.35542545304634,121.7421633565391 88.59942846003105,115.69076077497448 88.22142996356706,114.92923980825435 88.29842965726857,114.78341581407585 88.60642843222013,114.8320238417873 88.4524290447589,113.23604476632318 88.12343035335653,112.86337499705405 88.17243015844724,112.06131892801204 87.7804317176342,111.0 88.14443026983645,111.85067660131608 88.13743029767647,112.82286730838678 88.4524290447589,113.20363876863848 88.63442832086002,114.82392250589328 88.27042976865778,114.79151715409535 88.2354299078579,114.9049358277698 88.53642871062038,115.39101402905362 88.66242820947082,115.87708926485357 88.88642731850268,118.47754140741017 89.32742556443554,121.41003671350336 89.36242542520631,122.5846247303416 88.83042754125199,125.99488218698389 88.87242737418273,126.2378878378222 88.64842826517997,127.48530518261396 88.46642898907885,127.89840662368078" stroke="#4DD2FF" stroke-linecap="round" stroke-linejoin="round" stroke-width="0.5"><title>2025-08-14 4.9km</title><desc>1755170321000</desc></polyline><polyline fill="none" points="112.16383178444812,111.01505828869995 112.00767029289273,111.0 112.0532173946267,112.36276273598924 111.67582712342846,114.92258078528539 111.53918581837206,115.19361516665231 111.53918581837206,115.90131137813296 111.15528881837963,118.60404642499634 111.03166097096982,119.34182326922019 110.93406003876589,119.40204962618736 110.99262059808825,119.7784632484545 110.54365630997927,122.87251079228008 110.58269668286084,124.18988843089755 111.12926190314465,128.93978143978165 111.50014544549049,129.0 110.86248602182604,123.03812526767433 111.92308281833539,115.52487806438148 112.07273758103838,115.2162013203415 112.00767029289273,114.95269576551073 112.31348654715111,112.81450175839564" stroke="#4DD2FF" stroke-linecap="round" stroke-linejoin="round" stroke-width="0.5"><title>2025-08-12 5.0km</title><desc>1754999139000</desc></polyline><polyline fill="none" points="134.7710749853286,111.0603087970594 134.85576879867585,111.0 134.86228370742174,112.27401291723072 134.4583593667776,114.86720239714487 134.32154628366698,115.12350108713872 134.18473320055637,116.86480110110278 133.75474922501598,119.38999043372314 133.31825034078793,123.03063456433301 133.35733979311772,124.14615851492272 133.81338340352522,127.9222334161168 134.28897174008307,129.0 133.65051068548928,123.0758588343233 134.61471717606764,116.11853466997854 134.84925388995907,115.15365381597076 134.79061971147894,114.94258445667947 135.06424587772926,112.90724196774681 135.25317823063233,112.1383202746947" stroke="#4DD2FF" stroke-linecap="round" stroke-linejoin="round" stroke-width="0.5"><title>2025-08-10 5.0km</title><desc>1754830447000</desc></polyline><polyline fill="none" points="156.8868974375364,129.0 157.86164809626644,123.19791846448061 157.92476144828834,121.83457099948282 157.40582944292692,118.23944193188072 157.16038862956339,115.6180606555863 156.76768332818756,114.92009323348611 156.8237840855436,114.77400625642622 157.18142641356098,114.84704977838555 157.02714933088282,113.24007685336983 156.69054478686303,112.842386640099 156.71158257083152,111.93337299676932 156.35394024281413,111.0 156.72560776019236,111.965837948017 156.6975573814998,112.85050278672134 157.02714933088282,113.24819295953057 157.1954516028636,114.82270194516605 156.83780927484622,114.80647005221545 156.79573370685102,114.89574542255286 157.1954516028636,115.75603023749863 157.51803095758078,118.94549585680943 157.89671106959577,121.26650268438243 157.9317740429251,122.55682344923116 157.11831306153908,128.3183787094531 156.89391003217315,128.55370100304572" stroke="#4DD2FF" stroke-linecap="round" stroke-linejoin="round" stroke-width="0.5"><title>2025-08-09 5.0km</title><desc>1754735080000</desc></polyline><polyline fill="none" points="180.5405107771512,111.0 180.57958384539234,112.2659443807861 180.32560890191235,114.2552418919222 180.0,115.62662046950572 179.92836604159675,116.86988133261912 179.49205011304002,119.41661731127533 179.51809882521047,119.80841508629237 179.07527071863296,122.79203795787907 179.0622463625332,123.81668884061219 179.62229367380496,128.5781161152554 180.05860960233258,129.0 179.42041615460766,124.08791758801817 179.452977044828,122.48313307743229 180.38421850424493,116.07871773993975 180.5014377089392,115.34782577912847 180.61214473558357,115.2046605308933 180.56004731127177,114.89572405368381 180.9377536374668,112.34129753154411" stroke="#4DD2FF" stroke-linecap="round" stroke-linejoin="round" stroke-width="0.5"><title>2025-08-07 5.0km</title><desc>1754570205000</desc></polyline><polyline fill="none" points="20.311955491197295,131.0 20.352207812626148,131.51234840384132 20.4863822174666,131.56668818454636 20.439421175804455,131.93153999677452 20.801692068809643,131.9858794793181 20.841944390238496,132.31967830981012 20.472964777000016,134.1671896489861 20.365625253121834,135.15302826082916 20.439421175804455,135.41695140008233 20.325372931692982,135.52562536891492 20.110693883965723,136.7908894878783 19.164764329965692,143.66797101492557 19.748422990960535,149.0 19.1580556097324,143.54378541283222 19.57399626469123,140.4002701623176 19.728296830231557,139.97336305776844 20.09727644349914,136.7908894878783 20.28512061026413,135.6187743620394 20.40587757457979,135.4091889678093 20.358916532888543,135.10645349458355 20.727896146156127,132.38954299677425" stroke="#4DD2FF" stroke-linecap="round" stroke-linejoin="round" stroke-width="0.5"><title>2025-08-05 5.0km</title><desc>1754406000000</desc></polyline><polyline fill="none" points="42.58457705154433,149.0 42.89608082934865,146.41945485727047 43.087230874807574,146.27199263979128 43.38457538999501,144.27303374537587 43.60404396071681,142.66727676208393 43.6182032233628,141.66775881296053 43.10139013745356,138.12018929852638 42.90316046070075,135.76051847534836 42.7261696778005,135.14600952499313 42.45714368793415,134.76091486085352 42.52086036972469,134.63801192102983 42.867762304114876,134.6707860566603 42.70493078388972,133.0566440387338 42.37218811214552,132.7043143242554 42.4005066374375,131.7046727940251 42.096082490927074,131.0 42.40758626870229,131.8111925638441 42.37218811214552,132.62237696052762 42.71909004653571,133.0484503419284 42.87484193540877,134.6625925240005 42.782806728355354,134.74452781302534 42.44298442531726,134.6789795884688 42.89608082934865,135.63761706018704 43.186345713213086,138.7428686880594 43.6182032233628,141.69233727183018 43.6111235920398,142.70824034805264 42.782806728355354,148.37739984357904 42.74032894047559,148.51666608552478 42.55625852631056,148.52485820989386 42.48546221313882,148.83615831973293 42.287232536386,148.81977413339337" stroke="#4DD2FF" stroke-linecap="round" stroke-linejoin="round" stroke-width="0.5"><title>2025-08-03 5.0km</title><desc>1754221111000</desc></polyline><polyline fill="none" points="74.71428571428987,139.02613251820185 74.65894366969587,139.25560136774948 74.5159767212026,139.2689425182507 71.70736795870471,139.21290964059153 71.63127264741343,139.16488136458065 71.52058855825453,139.210241405337 71.16317118699953,139.2075731698169 71.1331942461693,139.17822256117142 70.49445481497969,139.2155778755714 70.1808498956816,139.16754960444086 69.16855166356254,139.16488136458065 68.73042714394978,139.09550703303648 68.43296365432616,139.0181277546926 68.41451630613301,138.98877693430404 68.00175689029857,138.9754356414578 67.09553091028647,138.8153395986228 65.76271000329871,138.80466649439222 62.98177226308326,139.1515401612105 62.605907543649664,139.32497527635496 62.20237180190452,139.44771328106253 61.118590095531545,140.10675319219808 60.54441638299613,140.39757931046734 60.19161084879306,140.49896747536695 59.984078181616496,140.50163557968153 59.721203469860484,140.4376010012711 59.44218732843001,140.5523295102048 59.347644668931025,140.36556191392992 59.234654661253444,140.44026911182118 59.1424179202877,140.26684136219774 57.57208740529313,141.19533350560596 57.45217964203039,140.89384396581227 56.967936751942034,139.96800932215774 56.92181838146644,139.9359914018969 56.71428571428987,140.03738134880223 56.850334907197976,139.93332324011863 56.91720654441451,139.92531875314307 56.93795981112635,139.8586146001253 57.020972878017346,139.86395093859755 57.13165696717624,139.78924210125479 57.163939826510614,139.82659654649797 57.24695289337251,139.77323303703452 57.21928187109006,139.82392837359657" stroke="#4DD2FF" stroke-linecap="round" stroke-linejoin="round" stroke-width="0.5"><title>2025-08-02 8.3km</title><desc>1754134728000</desc></polyline><polyline fill="none" points="89.05255810907693,131.0 88.9556863901089,131.02241867959674 88.89756335871061,131.62772044508893 89.38192195363808,131.62772044508893 89.38192195363808,132.1134528267794 87.76739330383134,142.7987537910376 87.77385141843115,143.92697120822413 88.44549533675308,149.0 87.8061419914302,144.0689311148817 87.76093518920243,142.97060259394493 88.71673614991596,136.14117160694877 88.9556863901089,135.21459164348926 88.8911052441108,135.00536229442514 89.19463663024362,132.80094548353372" stroke="#4DD2FF" stroke-linecap="round" stroke-linejoin="round" stroke-width="0.5"><title>2025-07-31 5.0km</title><desc>1753965181000</desc></polyline><polyline fill="none" points="111.07218531524995,149.0 111.1498139736068,148.34671299291222 111.34741419486818,148.1098951413369 112.0672435722663,143.15289233152726 112.14487223062315,141.3235422143116 111.77790039114188,139.1021325003312 111.38975709941587,135.43503868585685 111.01572810916696,134.71630134607403 111.0933567675529,134.61012369384116 111.40387140092207,134.6509612689988 111.26978553651134,133.02560974576772 110.90987084779772,132.6335602336112 110.95221375237452,131.72693840696593 110.66992772198864,131.0 110.95927090311307,131.7432740259319 110.93104230004246,132.64989566816075 111.26978553651134,133.07461580021481 111.43210000396357,134.63462624143722 111.34035704410053,134.71630134607403 111.05807101374376,134.60195617630234 111.02984241070226,134.7244688519786 111.45327145623742,135.66372649071127 111.70027173278504,138.4079293676914 112.18721513517085,141.91155215155595 111.6791002805112,146.141830134271 111.30507129032048,148.48553692626592 111.17098542588064,148.54269965266576" stroke="#4DD2FF" stroke-linecap="round" stroke-linejoin="round" stroke-width="0.5"><title>2025-07-29 5.0km</title><desc>1753797916000</desc></polyline><polyline fill="none" points="135.05775479294243,131.0 135.04477932222653,132.37379924071865 134.74634349590633,134.47573770905728 134.51278502313653,135.17386832929333 134.35707937460393,137.0955701637431 133.92240110583953,139.39253882277262 133.97430298867403,139.79787882238452 133.54611245522392,142.6427025637895 133.57206339668483,144.15139051205188 134.10405769577483,149.0 133.60450207343092,144.78938361408655 133.51367377850693,143.19063756865944 133.92888884121203,139.51263979514624 134.50629728779313,135.84196564968443 134.44790766958613,135.654298473135 134.72688028987614,134.51327178114298 135.04477932222653,131.9759255856843" stroke="#4DD2FF" stroke-linecap="round" stroke-linejoin="round" stroke-width="0.5"><title>2025-07-27 5.0km</title><desc>1753616848000</desc></polyline><polyline fill="none" points="157.65697262261529,131.0 157.6761322056991,132.58145924651035 157.32487318228232,135.07920801223372 157.18436957290396,135.3452353709945 156.98638721424504,137.51775571887993 156.62874166309484,139.49809189040388 156.65428777388297,139.87494080296165 156.18807125187595,142.94877276403713 156.7692452724732,149.0 157.15243693441153,148.94089398662618 156.87781624335912,145.97814355786977 156.56487638610997,143.9019298557323 156.55210333073046,142.79360647435533 157.43344415313913,136.57929400511057 157.72722442730446,135.33784573528828 157.6633591503196,135.04964935674798 158.09764303383417,132.41888090982684" stroke="#4DD2FF" stroke-linecap="round" stroke-linejoin="round" stroke-width="0.5"><title>2025-07-26 5.2km</title><desc>1753529066000</desc></polyline><polyline fill="none" points="180.62126863311278,131.0 180.54361005398096,131.38939759416826 180.64715482614702,131.8911183840828 180.52419540917617,133.07426731954183 180.25239038220025,134.91634747653734 180.11001632045372,135.17842831074086 180.09060167564894,135.9646652222582 179.5146338804043,139.41652042942587 179.5599347181851,139.74597321430338 179.13281253294554,142.88318847393384 179.19105646730168,144.55282140445343 179.70230877996073,149.0 180.07118703087326,148.96256695595366 179.77996735912166,146.24487719286117 179.84468284173636,146.10262620994035 179.47580459082383,143.99128988495067 179.46933304253616,142.9880095908302 180.86718746705446,133.20156702262466" stroke="#4DD2FF" stroke-linecap="round" stroke-linejoin="round" stroke-width="0.5"><title>2025-07-24 5.0km</title><desc>1753356656000</desc></polyline><polyline fill="none" points="19.68429088438279,168.96752733306494 19.775495740002953,169.0 20.08418909748434,166.43461864534038 20.287646083103027,166.30472372732038 20.238535776239587,166.05305172260705 20.7647176355822,162.79748109682987 20.799796426232206,161.81510080776206 20.273614566860488,158.34825727638236 20.056126064999262,155.78253377995134 19.635180577548454,154.89750243924937 19.69832240062533,154.76758875626547 20.04209454872762,154.83254562417278 19.859684837487293,153.2004883030313 19.558007238112623,152.87569679656008 19.586070270626806,151.99875312977383 19.200203573767794,151.0 19.550991480005905,151.80387545137637 19.543975721870083,152.84321757326688 19.866700595623115,153.18424875907658 20.04911030686344,154.78382797820086 19.957905451243278,154.8731436397793 19.71235391686787,154.77570836765517 19.635180577548454,154.8731436397793 19.880732111865655,155.22228572196036 20.056126064999262,155.80689230201097 20.371835180587368,159.03839035103738 20.77874915182474,161.6770794685508 20.771733393718023,162.75688710931718 20.007015758106718,168.07452382013435" stroke="#4DD2FF" stroke-linecap="round" stroke-linejoin="round" stroke-width="0.5"><title>2025-07-22 5.0km</title><desc>1753184035000</desc></polyline><polyline fill="none" points="33.85714285715949,162.9687195509905 33.85714285715949,160.0803347924666 35.77085626241751,151.99271693307674 51.24697336566169,154.81698797398712 51.85714285715949,155.49095801229123 49.777019590721466,167.9751905600715 35.881796170026064,165.792892441008 35.3825665860204,165.15103718347382 37.10213515302166,152.6666929986677 37.71230464451946,152.2815639944747 41.40105657069944,152.89135136760888 51.82940788031556,155.2021138863638 49.99889940582216,167.71845038753236 49.416464891051874,168.00728306692326 35.604446401121095,165.66452149386168 35.77085626241751,161.55662363601732 37.12987012998201,152.7308811204275 37.57362976006698,152.3457521944656 44.396434074500576,153.5011375633767 37.43495487573091,152.4099403814471 36.658375522936694,155.94027057220228 37.3517499450827,156.6142382133403" stroke="#4DD2FF" stroke-linecap="round" stroke-linejoin="round" stroke-width="0.5"><title>2025-07-20 4.9km</title><desc>1753020627000</desc></polyline><polyline fill="none" points="66.74887281988049,151.0 66.61308326228755,151.920306203785 66.10872204831685,153.21470115546254 65.68195486723562,155.15999181925145 65.56556381785776,156.69374246137158 65.16466131445486,159.2598977211528 65.07413494269713,159.34219276600925 65.11939812859055,159.7087786668635 64.69909711691434,162.7386535058031 64.67969860869925,163.74110317716259 65.25518768618349,168.99251961675327 65.19052599210409,167.96021944504173 65.26165385561762,169.0 65.63022551196627,168.92519613334298 65.00947324861772,163.06781758857687 65.99879716834403,155.84083141246083 66.20571458945051,155.18991896658554 66.23157926709973,154.31454488242161" stroke="#4DD2FF" stroke-linecap="round" stroke-linejoin="round" stroke-width="0.5"><title>2025-07-20 5.0km</title><desc>1752942252000</desc></polyline><polyline fill="none" points="89.34757455889485,151.00805460508855 89.23619934995077,151.0 89.06217558591743,151.88600165282696 89.25708220162778,152.00681929278653 89.24316030048067,152.26456297602272 88.99952703088638,153.9076592583515 88.86726897023618,154.1895596098475 88.52618239281583,157.4031527761981 88.24078341983841,158.71593657314224 88.26862722210353,159.1025190702785 87.77439973229775,162.79911902814638 88.44265098604956,169.0 87.82312638621079,163.8299484225281 87.80920448512188,162.26759238619707 88.26862722210353,159.15084174990625 88.24774437036831,158.72399039437732 88.7558937612921,155.66347941254207 88.86030801967718,154.18150532800064 88.99952703088638,153.89155063656654 89.36845741057186,151.25774695668224" stroke="#4DD2FF" stroke-linecap="round" stroke-linejoin="round" stroke-width="0.5"><title>2025-07-17 5.0km</title><desc>1752765839000</desc></polyline><polyline fill="none" points="119.15154440153856,168.62017024712986 119.55694980698172,168.05724069090502 120.42857142852154,160.71557535391185 107.3947876447346,160.12917028802622 105.04343629337382,160.3168200712389 105.32722007716075,160.12917028802622 104.90154440142214,157.4786008035735 102.48938223929144,153.67861622768396 102.42857142852154,151.54402954618854 102.71235521230847,151.3798297528847 114.04343629337382,151.5674866499321 113.23262548260391,158.9563556866633 112.72586872579996,159.28474437574914 105.65154440142214,159.05018107409705 104.88127413124312,156.58725201355992 102.8947876447346,154.05392613090225 102.65154440142214,152.7168818149512 105.469111968996,152.50576884645852 113.67857142852154,152.7872527615691 113.80019305017777,154.54651945258956 113.07046332047321,160.26990763975482 111.97586872579996,160.34027628338663" stroke="#4DD2FF" stroke-linecap="round" stroke-linejoin="round" stroke-width="0.5"><title>2025-07-15 4.1km</title><desc>1752589649000</desc></polyline><polyline fill="none" points="135.00908115680795,151.0 135.06393362098606,152.277351380224 134.63882702373667,154.94306086831784 134.48798274729052,155.25246768275247 134.48112618926098,156.03787947543606 133.87774908353458,159.71889615291002 133.90517531562364,160.1314130735118 133.44578592825565,163.5504598454063 133.99431056986214,169.0 133.67890890093986,166.84244003838103 133.4389293702552,163.37594136077678 134.467413073231,155.9823455677979 134.40570405105245,155.7284757727757 134.6114007916185,154.99859551501868 135.0159377148375,152.35668928601808 134.96794180868892,152.07900626306218 135.13249920116505,151.2380173692436 134.981654924748,151.04760353190068" stroke="#4DD2FF" stroke-linecap="round" stroke-linejoin="round" stroke-width="0.5"><title>2025-07-13 5.0km</title><desc>1752418082000</desc></polyline><polyline fill="none" points="156.9865359737596,169.0 156.89416437389445,168.9917779814714 156.95100843536784,168.34223587893212 157.26365077350056,166.3689114317458 157.44839397331816,166.20446555533272 157.76814181913505,163.96796845112112 157.9386740035261,161.65740467171418 157.46971049634158,158.44223992175102 157.2281232350797,155.75324440772238 157.08601308136713,155.2269473625929 156.78758175860276,154.74998770706588 156.85153132778942,154.62663561422232 157.19259569662972,154.6759764739545 157.0433800352621,153.11350129892526 156.70231566636357,152.68587125244812 156.7236321894743,151.7072478293776 156.4820449281833,151.0328953850185 156.33282926678658,151.0328953850185 156.4607284051017,151.0 156.70231566636357,151.60033867062884 156.6952101587085,152.69409492853447 157.00785249681212,152.98192306394049 157.0433800352621,153.14639582422387 157.19259569662972,154.65130604784645 156.84442582010524,154.63485909293377 156.76626523555024,154.72531730357878 157.07890757371206,155.17760683902452 157.22101772739552,155.67923409270588 157.51234354247572,158.8780625799991 157.95288501889445,161.59984530091606 157.94577951123938,162.65235303719965 157.07890757371206,168.57245392954792" stroke="#4DD2FF" stroke-linecap="round" stroke-linejoin="round" stroke-width="0.5"><title>2025-07-12 5.1km</title><desc>1752325602000</desc></polyline><polyline fill="none" points="179.89154917869018,169.0 179.71662849906716,168.99190374835598 180.10845082136802,166.29580619558692 180.26937784662005,166.21484089404112 180.71717478634673,163.2109700501387 180.78714305823087,161.69684666195826 180.37433025435894,158.98430766406818 180.05947303105495,155.68865090863255 179.63966340001207,154.83839791952778 179.6956380174961,154.74932327152783 180.04547937671305,154.8060071499567 179.88455235149013,153.16215829394787 179.56969512818614,152.81394950112735 179.55570147384424,151.72072595467762 179.20586011462728,151.0 179.5766919553571,151.8098039904653 179.56969512818614,152.8058516041201 179.89154917869018,153.1702561547354 180.066469858255,154.78171406413458 179.73062215340906,154.7412255713134 179.65365705444128,154.87078867589298 180.07346668545506,155.75343171659915 180.3813270815299,158.96811312399223 180.79413988537272,161.6401676875248 180.7241716135468,163.1704858420635 180.052476203884,167.6398181816039" stroke="#4DD2FF" stroke-linecap="round" stroke-linejoin="round" stroke-width="0.5"><title>2025-07-10 5.0km</title><desc>1752149320000</desc></polyline><polyline fill="none" points="17.475699297094252,171.0 17.517858807754237,172.1220300960049 17.823515260301065,171.96348300139653 18.476987676112913,172.1830096919948 19.183159480278846,172.1220300960049 19.973650305822957,172.4147318742689 24.052582965581678,172.95134994727414 24.16852161998395,173.109895737005 23.23047250707168,179.09789494444703 22.777257767040282,179.1344805796034 22.692938745662104,179.29301820299588 22.53484058054164,180.35399537060584 22.65077923494391,180.81740774305945 21.934067553142086,184.85389776057855 16.68520847155014,184.6953674802644 16.506030551099684,184.57342096840148 15.831478380016051,189.0 16.537650184123777,184.646588890384 18.582386452821083,184.68317283462966 19.267478501598816,184.4148903177629 19.362337400729302,184.6953674802644 21.96568718616618,184.78072996492847 23.778546146058943,173.42698668821686 23.725846757704858,173.01232912197884 18.297809755662456,172.0610504689903" stroke="#4DD2FF" stroke-linecap="round" stroke-linejoin="round" stroke-width="0.5"><title>2025-07-08 5.1km</title><desc>1751976330000</desc></polyline><polyline fill="none" points="34.01746571168769,188.83610268475604 33.978836386988405,189.0 34.22348877706099,188.89570172964886 34.300747426459566,188.06131289622863 34.75142288184725,187.68881634827994 34.84155797288986,187.30141893458494 36.142078572593164,178.2866900825029 36.25796654674923,175.55981166484708 35.9489319488639,173.54814753265237 36.657136235851794,173.51834489352768 36.83740641793702,173.7865684274002 39.32255964312935,174.1441990424064 41.31840808823472,174.11439652449917 42.773445986851584,174.6955445312342 47.40896495594643,175.3809981931845 48.25881010032026,171.0 51.735449327214155,171.77487996006676 48.63222690613475,171.04470472445246 48.05278703500517,173.62265410390683 47.96265194390435,175.4108004536247 39.28393031837186,174.24850780746783 36.83740641793702,173.8014697204635 36.61850691115251,173.47364092349017 35.910302624164615,173.59285147994524 36.19358433887828,174.78495171236864 36.245090105279814,177.3628353163076 34.790052206546534,187.34611868843785" stroke="#4DD2FF" stroke-linecap="round" stroke-linejoin="round" stroke-width="0.5"><title>2025-07-06 5.0km</title><desc>1751807521000</desc></polyline><polyline fill="none" points="59.45401996729197,187.88428805598232 60.23389452241827,182.33842899363663 57.70993687125156,182.15793925551407 56.91588277881965,182.43687785667134 57.95098900649464,182.33842899363663 57.809193632914685,182.17434742185287 60.41822850814788,182.32202084397431 60.60256249393569,182.15793925551407 60.5174852697528,181.64928527163283 61.58095057209721,174.93818426875805 61.481693810608704,171.590733765217 63.31085413083201,171.4102320107486 74.5126886497601,173.24805862178619 74.49850911239628,172.70655831242038 62.1764911414939,171.0 62.37500466464553,175.05304653466737 61.08466676430544,184.17613120531314 61.439155198517255,184.7340009524487 61.11302583909128,185.34109231071488 61.18392352591036,186.65371447143843 60.68763971806038,186.76856840281107 60.460767120239325,189.0 59.3122245935956,188.86874017144146 59.38312228047289,187.90069564041914" stroke="#4DD2FF" stroke-linecap="round" stroke-linejoin="round" stroke-width="0.5"><title>2025-07-05 4.8km</title><desc>1751729502000</desc></polyline><polyline fill="none" points="91.46853823109996,189.0 91.64667766005732,188.86981198194553 91.6748049382586,188.13207688097464 91.91857468313538,187.05801225300092 92.04983531491598,187.01461547528015 92.21859898447292,185.4414703723014 88.5526770526194,185.28957927314332 88.78707103803754,184.4758732763221 89.13397413637722,180.80869462042756 89.17147717409534,178.12875362045452 89.04021654225653,177.77069972742174 89.18085293343756,175.578949717652 89.17147717409534,171.0 84.24920348043088,172.7686697420213 84.14607012685155,173.01823427827185 84.18357316456968,172.80122167114314 86.83691307937261,171.79210725105077 86.88379187649116,174.02733710464236 87.14631314011058,174.59156248300133 89.10584685811773,174.59156248300133 89.11522261757636,177.4560453147351 89.32148932473501,177.55369678345596 89.39649540005485,177.90090128205338 92.82802334649023,178.11790352014214 92.99678701604716,178.97505804750836 92.9780354971299,180.53744859182916 91.79668981069699,188.59858643445477" stroke="#4DD2FF" stroke-linecap="round" stroke-linejoin="round" stroke-width="0.5"><title>2025-07-03 5.2km</title><desc>1751545471000</desc></polyline><polyline fill="none" points="111.11314683168894,189.0 111.54072239634115,186.36393109844357 111.71595828348654,186.2422642780657 112.16456215461949,182.9166326980121 112.19960933201946,181.76479627827212 111.43558086405392,175.6484285694387 111.06408078331151,174.87776542525535 111.14118457361474,174.77230567908555 111.45660917050554,174.82909171356732 111.30941102528595,173.25529236594593 110.96594868649845,172.81721898241085 110.97295812197262,171.81937618378288 110.64351465416257,171.0 111.00099586392753,171.89238949473656 110.96594868649845,172.83344396545 111.28137328336015,173.14171801602788 111.33043933173758,173.39320385919564 111.45660917050554,174.82097942539258 111.11314683168894,174.7966425559498 111.06408078331151,174.90210226994532 111.4425902995572,175.6484285694387 111.80708094482543,179.12037652645813 112.21362820299692,181.74046152670053 112.09446779973223,183.55743590315979 111.3234298962634,188.72423071540106" stroke="#4DD2FF" stroke-linecap="round" stroke-linejoin="round" stroke-width="0.5"><title>2025-07-01 5.0km</title><desc>1751376396000</desc></polyline><polyline fill="none" points="133.65314427486737,189.0 133.78312441409798,188.83956882237544 133.7571283862344,188.24797660073818 133.96509660896845,188.04743605965632 134.11240743342205,187.26532405517355 134.3377063413791,184.50782842640183 134.64965867548017,183.43489111880626 134.99627238008543,180.6171216954681 134.9096189539414,179.00263390867622 134.42435976749402,176.12456840601953 134.09507674819906,172.63467598475108 133.57515619136393,171.34097759509314 134.0344193498604,171.43123617296078 134.0517500351125,171.0 134.0517500351125,171.4111787183283 133.65314427486737,171.33094885912578 133.58382153394632,171.43123617296078 133.9131045532704,171.92264253658504 134.11240743342205,172.6146187748891 134.4763518232212,176.50564113540895 134.99627238008543,179.96531303638767 134.95294566699886,181.5797850687668 133.86111249760143,188.6590834358285" stroke="#4DD2FF" stroke-linecap="round" stroke-linejoin="round" stroke-width="0.5"><title>2025-06-30 4.1km</title><desc>1751292736000</desc></polyline><polyline fill="none" points="148.3449477351969,181.10960229374177 148.14285714286962,179.64897324027697 148.21254355402198,179.49564597582503 153.63414634147193,179.2374099119188 154.498257839703,179.31810877237876 155.9059233449516,179.1809206606922 158.01742160279537,179.20513034473697 166.14285714286962,178.68865547961468 163.71777003485477,178.85812416609406 163.1533101045643,179.04373231128557 162.10801393727888,178.99531283708347 156.81881533103297,179.26968946598936 151.8989547038218,179.35845817174413 151.7526132404164,179.4875761115909 152.0940766550484,181.31134452038532 151.93379790941253,181.2952051611719 151.73867595818592,180.34297714474087" stroke="#4DD2FF" stroke-linecap="round" stroke-linejoin="round" stroke-width="0.5"><title>2025-06-26 5.0km</title><desc>1750950176000</desc></polyline><polyline fill="none" points="189.0,180.73669080522814 188.70936490851454,179.26330919477186 180.9655543595145,179.97382686247875 180.13885898818262,179.98130595921975 177.1550053821411,179.60735018770356 171.0,179.86911942786537 176.9483315392863,179.59987105282198 180.14531754577183,179.9887850552259 185.6544671690208,179.48768393830687" stroke="#4DD2FF" stroke-linecap="round" stroke-linejoin="round" stroke-width="0.5"><title>2025-06-24 5.0km</title><desc>1750769966000</desc></polyline><polyline fill="none" points="29.0,200.7208387669234 28.753602305456297,199.27916123308387 21.0893371757993,200.00751226317516 20.1556195965386,200.0375472026135 17.1340057636844,199.64709203488746 11.0,199.91740737140208 16.9719020172779,199.64709203488746 20.149135446670698,200.0375472026135 26.6397694524494,199.45937246764515" stroke="#4DD2FF" stroke-linecap="round" stroke-linejoin="round" stroke-width="0.5"><title>2025-06-22 5.0km</title><desc>1750563938000</desc></polyline><polyline fill="none" points="43.472269929843605,209.0 42.54197174217552,203.44209893125299 42.52893017878523,201.9266568681196 42.611526746841264,201.2922719613307 42.55936049333832,199.6609590561493 42.576749244501116,199.37899827560614 42.672387375932885,199.21787710654826 42.576749244501116,199.14235137752257 42.5724020566995,198.1101548334409 41.51603542306111,191.75537669678306 41.25085696767201,191.0 41.52038261081907,191.6596962881231 42.55936049333832,198.00441640774807 42.61587393464288,201.09591307632945 42.54197174217552,201.93169163636412 42.537624554359354,203.39175276577225 43.25056335241243,207.66092523296174 43.35054867163126,207.95290703645878 44.46342874663242,207.89249714976904" stroke="#4DD2FF" stroke-linecap="round" stroke-linejoin="round" stroke-width="0.5"><title>2025-06-21 8.0km</title><desc>1750517001000</desc></polyline><polyline fill="none" points="67.54043769201962,209.0 66.01568943879101,199.62387523600773 63.332605303265154,199.56912221983657 58.498325957683846,199.10372068098513 58.59288398886565,198.6109408227785 58.403767926443834,197.66644103945873 58.66380251228111,191.49280779338733 58.628343250544276,191.05475651082816 58.391948172589764,191.0 58.09645432501566,198.597252467589 58.54560497327475,198.65200588002335 58.569244481041096,199.11740898460266 66.05114870052785,199.6101869840786 66.9612697508419,205.46863131743157 67.24494384450372,206.24882541317493 73.33211710356409,206.05719921311538" stroke="#4DD2FF" stroke-linecap="round" stroke-linejoin="round" stroke-width="0.5"><title>2025-06-19 5.0km</title><desc>1750345525000</desc></polyline><polyline fill="none" points="97.57142857143481,200.4506187684019 97.40621118016134,199.4688246300284 92.31055900623323,199.95217187507296 91.6540372670861,199.9672764002571 89.47142857144354,199.7155337105869 81.38447204969998,200.0830776067378 80.68447204970289,200.19887854175613 79.57142857143481,200.53117536997524 81.14099378882383,200.10825174613638 83.9844720497058,199.98238092085376" stroke="#4DD2FF" stroke-linecap="round" stroke-linejoin="round" stroke-width="0.5"><title>2025-06-17 5.1km</title><desc>1750166247000</desc></polyline><polyline fill="none" points="103.04926108371001,206.7925256237504 102.42857142857974,202.8033731077594 116.45615763548994,202.39007737179054 114.17512315278873,193.38717765365436 116.93719211826101,193.54891044675605 120.42857142857974,193.2074743762496 114.91995073895669,193.53094014374074 116.95270935964072,201.63536091908463 110.93201970442897,201.9228723296692" stroke="#4DD2FF" stroke-linecap="round" stroke-linejoin="round" stroke-width="0.5"><title>2025-06-16 3.2km</title><desc>1750084948000</desc></polyline><polyline fill="none" points="143.28571428571013,200.8320885070425 143.00990783414454,199.1679114929575 134.16232718891115,199.98319432727294 133.36394009218202,199.99159926299035 129.86555299538304,199.5629464501617 125.28571428571013,199.7814756135267 129.72039170505013,199.5545414707667 133.356682027661,199.97478939073335 140.86152073735138,199.34441670769593" stroke="#4DD2FF" stroke-linecap="round" stroke-linejoin="round" stroke-width="0.5"><title>2025-06-15 4.6km</title><desc>1749956754000</desc></polyline><polyline fill="none" points="166.14285714286962,200.7239137209981 165.9237379162223,199.27608627899463 158.2158968851145,199.98507752069418 157.41031149303308,200.00000357831595 154.02040816328372,199.61938815854228 148.14285714286962,199.8880580719997 154.13641245971667,199.61938815854228 157.358754027955,200.00000357831595 159.04081632656744,199.917910223754 159.35660580018885,199.81342763937573 163.4425349087105,199.44773741994868" stroke="#4DD2FF" stroke-linecap="round" stroke-linejoin="round" stroke-width="0.5"><title>2025-06-14 5.1km</title><desc>1749906363000</desc></polyline><polyline fill="none" points="189.0,201.06875192149164 188.7835926449916,199.60935958814662 181.32390381896403,200.33168876736454 180.31824611034244,200.33905943610444 177.2630834512238,199.97052507959597 171.50919377652463,200.2432406840744 171.43281471007504,200.0737148887274 171.464639321086,198.93861888996616 171.0,198.93124807850836 171.4837340877275,198.9533605106335 171.43281471007504,200.06634419295006 171.52828854316613,200.2432406840744 177.4222065063659,199.96315437331214 180.45827439890127,200.3464301040949 186.50495049508754,199.80099864498334 186.4985855728737,199.50616911642283 188.43988684585202,199.4029784974773" stroke="#4DD2FF" stroke-linecap="round" stroke-linejoin="round" stroke-width="0.5"><title>2025-06-12 5.9km</title><desc>1749735885000</desc></polyline><polyline fill="none" points="29.0,225.66263633829658 28.426195426203776,222.7736221528321 12.659043658990413,224.1748013872275 11.174636174633633,220.11567708935763 11.0,215.0452197203267 13.943866943824105,214.91520560727804 16.45114345109323,215.07411172923457 16.588357588392682,214.6118388796749 16.32640332635492,214.51071649281948 11.074844074784778,214.33736366170342 11.18711018707836,219.97122212506656 11.62370062363334,221.61799998933566 12.48440748435678,223.66922284850443 19.46985446981853,223.06252622140164 19.607068607001565,223.61144232923107 28.388773388811387,222.7591769339051 28.925155925157014,225.61930156052404" stroke="#4DD2FF" stroke-linecap="round" stroke-linejoin="round" stroke-width="0.5"><title>2025-06-10 5.3km</title><desc>1749559786000</desc></polyline><polyline fill="none" points="34.32976101170061,215.2075754171383 33.897652984713204,213.45622788878973 33.85714285715949,212.0957923520764 46.10470474767499,211.78304684518662 46.65834315720713,213.83151832780277 46.253241881961,213.8158812445472 46.13171149935806,214.0973484999995 46.38827564031817,215.55158776117605 46.32075876113959,216.5367097521812 46.766370163997635,218.506934759891 47.914157110790256,218.4600249346695 49.61558246705681,225.0116249951243 49.64258921879809,225.30870762854465 49.21048119175248,225.43379488112987 49.60207909124438,225.3243435407203 49.737112849601544,225.57451791832864 49.38602507766336,225.63706144907337 49.5075554602663,226.21558789956907 50.317758010933176,228.2795023326762 50.884899796394166,228.2169598788605 51.85714285715949,227.68534799250483 50.830886293028016,227.90424722757598 49.007930554042105,220.6334984426794 48.791876540577505,220.00804159529798 48.30575501022395,220.00804159529798 47.941163862415124,218.41311509505613 47.549565962923225,218.56948117123102 46.7528667881852,218.4600249346695 46.30725538532715,216.66180415557756 46.21273175440729,214.34754118253477 45.470046082977206,211.7204976673238 33.897652984713204,212.12706686770252 34.38377451506676,215.30139704197063" stroke="#4DD2FF" stroke-linecap="round" stroke-linejoin="round" stroke-width="0.5"><title>2025-06-08 5.0km</title><desc>1749355299000</desc></polyline><polyline fill="none" points="74.71428571428987,220.74069638492801 74.39770279970253,219.2593036150647 68.59583632444264,219.7456227194125 66.85139985641581,219.992521954744 65.88226848529303,219.992521954744 62.81335247665993,219.61843188016064 56.71428571428987,219.8877769260289 62.52261306531727,219.61843188016064 65.84996410625172,220.00000373677904 72.84709260589443,219.37153138663416" stroke="#4DD2FF" stroke-linecap="round" stroke-linejoin="round" stroke-width="0.5"><title>2025-06-07 5.3km</title><desc>1749293029000</desc></polyline><polyline fill="none" points="97.57142857142026,220.71307294099097 97.3056741602195,219.28692705900903 89.09321467150585,220.0375335972858 85.76156180872931,219.65472521866468 79.57142857142026,219.9099310255042 85.73563454908435,219.6397130848345 88.6978239621385,220.0375335972858 95.04352075723,219.45956724023563" stroke="#4DD2FF" stroke-linecap="round" stroke-linejoin="round" stroke-width="0.5"><title>2025-06-05 5.1km</title><desc>1749128617000</desc></polyline><polyline fill="none" points="102.68053993250942,219.8860670675931 102.42857142857974,218.23566990168183 102.52305961755337,218.16272346800542 109.5860517435649,217.91652881528717 110.91676040497259,222.79470398727426 117.89313835772919,222.70352558211016 120.42857142857974,222.5485220800765 118.34195725538302,222.6214649379981 117.9561304837116,217.20529601272574 111.2789651293715,217.5973865904234 109.84589426324237,217.5517947510598 109.9718785151781,217.91652881528717 106.2710911136237,218.02594874459464" stroke="#4DD2FF" stroke-linecap="round" stroke-linejoin="round" stroke-width="0.5"><title>2025-06-03 5.2km</title><desc>1748952979000</desc></polyline><polyline fill="none" points="140.17113019994576,214.6340175164878 139.77627002395457,214.04958133533364 139.4963691397279,213.43620620635193 139.31643285701284,213.2683948762351 138.87159038023674,213.22788861886875 138.53171073508565,212.8343977591212 138.37676560276304,212.31938354665908 138.14684701926308,211.96639358167886 137.87194436506252,211.0 137.07722578302491,211.3414223644104 136.70735675742617,211.38192996643556 135.74769658286823,211.740710323862 135.3378417166532,212.26730319790295 135.3378417166532,212.40039732762307 133.67842933148495,214.5125015776648 133.66843287131633,214.6340175164878 133.2135939344298,215.25895252669943 132.8187337584386,215.6234947761368 132.74875853740377,215.5598447106022 132.4688576531189,215.80287185012276 132.28392314031953,215.69293113000458 132.27892491026432,215.7970855017411 132.25393375984277,215.6466402368642 132.5138417238195,215.83180358324535 132.4738558832032,216.04011162691313 131.8740682741045,216.70553498535446 130.84943110856693,216.93698476231657 130.84943110856693,216.83283247932923 130.779455887503,216.96012968818104 130.49955500327633,217.02377818571767 130.25464172955253,216.9543434575935 129.8447868633375,216.98906083225302 129.77481164224446,216.92541229585186 129.60987004978233,217.01799196162392 129.11504527227953,216.8444049646314 129.0500682812708,216.08640219959852 128.8601355383871,215.91859869421023 127.92546651422163,216.15583798797525 127.57559040893102,216.36993113478093 127.97544881500653,218.1000056258963 128.6052258045238,220.03253494010642 129.93475500468048,225.2280515268867 130.11968951750896,225.76609014944552 131.68913376130513,228.94214991849003 131.88906296432833,229.0 132.57881871482823,228.78016937724533 133.04865234193858,228.91900986941982 133.90834791498492,228.73967416986488 133.89335322473198,228.39835627621142 134.12327180820284,228.3347205101927 134.53812490450218,228.52562759469583 134.85301339928992,228.37521600590844 134.98296738127829,228.5661229544785 135.79268065353972,228.74545920124 136.26751251076348,228.65868366858558 136.74734259801335,228.30001006234306 136.83231250930112,227.62315209528606 137.19218507478945,227.12562742731097 137.09721870333306,226.62809840687987 137.2121779950685,226.38511753593048 136.9672647213447,226.11320913992677 136.81231958902208,225.70823677836233 136.75234082809766,225.10655823017805 137.07722578302491,224.84621457745016 137.5720505605277,225.04870418813516 137.84695321469917,225.03134796403174 137.9169284357631,224.65529514124137 137.80196914402768,224.1924574838522 137.7070027725713,224.1519590095886 137.80196914402768,224.10567500370234 137.69200808234746,224.0709619745503 137.78197622369044,224.12303151032393 137.79197268388816,223.8511122978598 137.6620187018998,223.55026399437338 137.0722275529406,223.50976506273219 136.79732489876915,223.30148438722608 136.91228419050458,222.5146393944342 137.38211781764403,221.7104262748653 137.74199038310326,221.31120834312242 137.9069319755945,221.2533504392959 138.2618063109985,220.7615558794496 138.88658507046057,220.165610888409 139.4413886088878,219.47129816576853 139.28144524645177,219.1472826598947 138.78662046894897,219.14149665194054 138.72164347796934,218.95055805890297 138.91157622085302,218.49346003390747 139.13149834418437,218.28516098064938 139.33642577729188,218.3140914503565 139.42139568857965,218.20994169052938 139.2464576359489,217.81069917671994 139.48137444947497,217.31887483397077 139.70129657283542,217.1915784284829 139.8862310856348,217.26679906617574 139.86123993524234,217.12793011885879 140.41604347366956,216.87333616760588 140.46602577442536,216.71710749659178 140.95085409178864,216.42200772422075 140.99583816246013,215.99960734488195 140.36106294282945,214.790251913244 140.26109834128874,214.74396028490082" stroke="#4DD2FF" stroke-linecap="round" stroke-linejoin="round" stroke-width="0.5"><title>2025-06-02 11.5km</title><desc>1748829019000</desc></polyline><polyline fill="none" points="166.14285714286962,220.8417534750406 165.813131913892,219.1582465249594 156.30355656001484,220.04339350415103 152.36184132267954,219.59214325279754 148.14285714286962,219.77437921910314 152.41429760912433,219.57478742613603 155.86891875817673,220.02603776947217 165.79814440346672,219.1669244812001 166.13536338767153,220.7896867485979" stroke="#4DD2FF" stroke-linecap="round" stroke-linejoin="round" stroke-width="0.5"><title>2025-06-01 4.9km</title><desc>1748740054000</desc></polyline><polyline fill="none" points="189.0,228.67410667186778 188.93482196744299,228.81247984978108 188.80446590221254,228.7118448267065 188.36994568497175,226.29657965675142 174.63910681958077,227.49163864280126 173.3681351841078,223.93158671310812 173.31382015696727,219.4530716523077 173.0096560048405,217.7672963525838 171.0,211.18752015021892 172.32528666267172,215.59085089842847 172.68376584193902,216.27020793587872 173.2703681352432,218.79889292705775 173.85697042854736,218.9624379334782 173.24864212435205,218.9498575560865 173.3681351841078,223.51645029734937 173.78092939045746,225.2147268062472 174.49788774893386,226.98845732213522 174.68255884130485,227.1016732981443 180.57030778517947,226.4978535594273 180.7332528666011,226.97587776285945 185.41520820761798,226.5230127741961" stroke="#4DD2FF" stroke-linecap="round" stroke-linejoin="round" stroke-width="0.5"><title>2025-05-31 5.5km</title><desc>1748696141000</desc></polyline><polyline fill="none" points="27.737662337662186,244.96756412692775 27.328571428603027,242.32819520025805 12.519480519520584,243.65465383294213 11.151948051934596,239.75645194278331 11.0,235.0595080771891 16.025974025949836,235.11365246893547 11.070129870146047,235.0324358730868 11.163636363635305,239.68877381607308 11.525974026008043,241.13707819906995 12.43766233761562,243.22152594024374 25.55194805195788,241.96273998371908 26.720779220806435,241.89506298136257 26.779220779251773,242.395871981862 29.0,242.2199122779857" stroke="#4DD2FF" stroke-linecap="round" stroke-linejoin="round" stroke-width="0.5"><title>2025-05-29 5.0km</title><desc>1748526381000</desc></polyline><polyline fill="none" points="44.76839483814547,238.23286041124084 44.36902875255328,234.9625264027418 51.12972605845425,234.632185964394 51.85714285715949,237.2914073854481 51.072673760470934,234.69825410589692 44.340502603619825,235.01207741038525 44.52592257189099,236.6472521640244 44.269187231198885,235.02859440956672 34.655875028285664,235.92050986597314 36.09644555125851,243.13823769203736 36.652705456188414,244.82287846862164 36.28186551958788,245.05410230671987 36.866651573451236,246.6065966768656 36.08218247682089,244.55862224975135 34.14240434684325,235.95354367756227 37.50848992529791,235.47455275138782 43.59882273036055,235.09466238951427 43.52750735799782,234.61566892477276 34.58455965592293,235.22679826857348 34.08535204891814,233.39340332311986 33.85714285715949,233.59160918208363 33.97124745306792,235.3589340398612 40.717681684414856,234.69825410589692" stroke="#4DD2FF" stroke-linecap="round" stroke-linejoin="round" stroke-width="0.5"><title>2025-05-27 6.0km</title><desc>1748352132000</desc></polyline><polyline fill="none" points="72.31565245689126,241.34136010772636 72.38740644324571,241.2938794083384 72.1567686299968,240.14246059575817 66.09355678490829,240.72410799600402 65.39139277581125,240.73597829062055 62.864627399947494,240.43922019933234 56.827041978540365,240.70630254955176 56.71428571428987,238.7357995008242 57.43182557763066,238.65863989227728 58.42100553208729,238.7298641499583 58.42613081680611,240.43922019933234 63.01326065734611,240.2552294232628 65.80141555482987,240.52824778550348 72.14651806053007,239.8991165923253 74.6066547347873,239.81008804430166 74.71428571428987,240.0059506702637 74.64253172796452,240.02969154986204 72.37203058900195,240.12465497143785" stroke="#4DD2FF" stroke-linecap="round" stroke-linejoin="round" stroke-width="0.5"><title>2025-05-25 7.6km</title><desc>1748179850000</desc></polyline><polyline fill="none" points="97.55963302752934,240.9937263310785 97.51245085190749,240.60443612185918 97.28243774574366,240.60443612185918 97.13499344690354,239.87365716575005 97.0170380078489,239.70974303461117 91.32568807341158,240.19465451112046 90.39384010486538,240.3653971534659 86.65465268676053,240.01708170158236 79.67169069463853,240.3312486598079 79.57142857142026,239.14287024004443 81.30537352556712,239.0062736689215 81.2935779816471,240.00342223521875 81.52359108781093,240.03074116517382 86.4246395805967,239.81901916660718 89.97509829618502,240.12635733236675 97.34731323723099,239.4160625469376 97.57142857142026,240.9186003264549" stroke="#4DD2FF" stroke-linecap="round" stroke-linejoin="round" stroke-width="0.5"><title>2025-05-24 6.6km</title><desc>1748094255000</desc></polyline><polyline fill="none" points="120.42857142857974,240.80202481051674 120.2327615978138,239.19797518949053 112.82099689194001,239.82784132943198 111.79118222632678,240.00420298581594 110.61632324164384,240.02099931432895 107.22953839073307,239.60948827948596 102.42857142857974,239.8026467762611 107.20778174285078,239.60109007370193 110.57280994590838,240.02939747733035 118.25290664212662,239.38273642289278" stroke="#4DD2FF" stroke-linecap="round" stroke-linejoin="round" stroke-width="0.5"><title>2025-05-18 4.7km</title><desc>1747565909000</desc></polyline><polyline fill="none" points="140.94617807041504,240.64448349435042 140.75035785857472,239.4927689701035 135.53020326365368,239.9343616728147 134.65931863727747,240.08951507498568 133.958488405362,240.08354764403703 131.5725737188477,239.77324039691666 125.32178642999497,240.05967791419607 125.28571428571013,239.88065463010207 128.80532493558712,239.6538910178133 131.19123962210142,239.61211867765087 133.97910105923074,240.05967791419607 140.81734898366267,239.4509965149773 143.1208130546438,239.35551650564958 143.21356999714044,239.3674515153325 143.22902948752744,239.4509965149773 143.28571428571013,239.41519152972978" stroke="#4DD2FF" stroke-linecap="round" stroke-linejoin="round" stroke-width="0.5"><title>2025-05-17 5.7km</title><desc>1747487200000</desc></polyline><polyline fill="none" points="165.15921135109966,239.2558608284089 162.77548578268033,239.38057809575548 161.61234258362674,239.58843978426012 156.27049974357942,239.9958471573991 152.9246680722572,239.5634964096098 148.14285714286962,239.7547287537309 152.86004900565604,239.58012532689463 156.141261610348,239.9875327415284 165.6761638839962,239.1560868772649 165.99207932080026,240.76908412746707 166.14285714286962,240.84391312272783" stroke="#4DD2FF" stroke-linecap="round" stroke-linejoin="round" stroke-width="0.5"><title>2025-05-11 5.0km</title><desc>1746965499000</desc></polyline><polyline fill="none" points="189.0,240.64671074700163 188.70946915345849,239.35328925299837 180.54232424672227,240.09345810143714 177.22381635577767,239.71215993039368 171.0,239.97383535915287 177.06886657100404,239.71963638415764 180.16786226682598,240.09345810143714 188.76111908175517,239.3682422329366" stroke="#4DD2FF" stroke-linecap="round" stroke-linejoin="round" stroke-width="0.5"><title>2025-05-10 5.3km</title><desc>1746870058000</desc></polyline><polyline fill="none" points="28.960698689945275,259.69658927550336 28.914847161562648,259.5676388092543 29.0,259.66624800941645 28.652838427951792,259.72693052919203 20.62882096073008,260.4323611907457 17.229257641913136,260.03034238589316 11.0,260.28824149152933 17.196506550215418,260.03034238589316 18.788209606980672,260.1592920504336 20.235807860270143,260.42477595036326 26.805676855903585,259.83312481975736" stroke="#4DD2FF" stroke-linecap="round" stroke-linejoin="round" stroke-width="0.5"><title>2025-05-05 5.4km</title><desc>1746434825000</desc></polyline></svg>