<?xml version="1.0" encoding="utf-8" ?>
<svg baseProfile="full" height="300mm" version="1.1" viewBox="0,0,200,300" width="200mm" xmlns="http://www.w3.org/2000/svg" xmlns:ev="http://www.w3.org/2001/xml-events" xmlns:xlink="http://www.w3.org/1999/xlink"><defs /><rect fill="#222222" height="300" width="200" x="0" y="0" /><text fill="#FFFFFF" style="font-size:12px; font-family:Arial; font-weight:bold;" x="10" y="20">Over 3km Runs</text><text fill="#FFFFFF" style="font-size:4px; font-family:Arial" x="10" y="280">Runner</text><text fill="#FFFFFF" style="font-size:9px; font-family:Arial" x="10" y="290">tang-hi</text><text fill="#FFFFFF" style="font-size:4px; font-family:Arial" x="65" y="280">SPECIAL TRACKS</text><rect fill="yellow" height="2.6" width="2.6" x="65" y="283" /><text fill="#FFFFFF" style="font-size:3px; font-family:Arial" x="70" y="285.5">Over 20.0 km</text><rect fill="red" height="2.6" width="2.6" x="65" y="287" /><text fill="#FFFFFF" style="font-size:3px; font-family:Arial" x="70" y="289.5">Over 40.0 km</text><text fill="#FFFFFF" style="font-size:4px; font-family:Arial" x="120" y="280">STATISTICS</text><text fill="#FFFFFF" style="font-size:3px; font-family:Arial" x="120" y="285">Number: 41</text><text fill="#FFFFFF" style="font-size:3px; font-family:Arial" x="120" y="290">Weekly: 3.4</text><text fill="#FFFFFF" style="font-size:3px; font-family:Arial" x="141" y="285">Total: 219.6 km</text><text fill="#FFFFFF" style="font-size:3px; font-family:Arial" x="141" y="290">Avg: 5.4 km</text><text fill="#FFFFFF" style="font-size:3px; font-family:Arial" x="167" y="285">Min: 3.2 km</text><text fill="#FFFFFF" style="font-size:3px; font-family:Arial" x="167" y="290">Max: 11.5 km</text><polyline fill="none" points="24.526436326559633,58.45129099960468 24.66324361000443,58.5 25.126283646270167,54.65192796802148 25.431469124683645,54.45708559099148 25.357803664403036,54.07957758392149 26.1470764533733,49.19622164525208 26.19969463936286,47.722651211646735 25.41042185027618,42.52238591458445 25.084189097513445,38.67380066993792 24.452770866337232,37.34625365888496 24.547483600967098,37.15138313440548 25.06314182310598,37.24881843626645 24.789527256216388,34.800732454554236 24.337010857183486,34.31354519485467 24.37910540594021,32.998129694664385 23.80030536063714,31.5 24.326487220008858,32.705813177068194 24.31596358283423,34.264826359903964 24.800050893449225,34.77637313862215 25.073665460338816,37.17574196730129 24.93685817689402,37.3097154596835 24.568530875316355,37.163562551482755 24.452770866337232,37.3097154596835 24.821098167798482,37.83342858294782 25.084189097513445,38.71033845302736 25.557752770895604,43.557585526563344 26.16812372772256,47.515619202837115 26.157600090606138,49.13533066398668 25.01052363717463,57.111785730208794" stroke="#4DD2FF" stroke-linecap="round" stroke-linejoin="round" stroke-width="0.5"><title>2025-07-22 5.0km</title><desc>1753184035000</desc></polyline><polyline fill="none" points="41.5,49.45307932648575 41.5,45.12050218868535 44.370570108061656,32.9890753996151 67.58474576286972,37.22548196098069 68.5,38.236437018436845 65.37981510045938,56.962785840121796 44.53697996935807,53.68933866149746 43.78813559329137,52.72655577518162 46.36748844385147,34.00003949800157 47.282742680981755,33.42234599171206 52.81587057025172,34.33702705139876 68.4583975346759,37.8031708295166 65.71263482305221,56.57767558126943 64.8389830510132,57.0109246003849 44.1209553158842,53.496782240777975 44.370570108061656,47.33493545404053 46.409090909408405,34.09632168064127 47.07473035459407,33.518628291698406 57.308936826186255,35.25170634506503 46.86671802797355,33.61491057212697 45.70184899866581,38.91040585830342 46.741910632001236,39.92135732001043" stroke="#4DD2FF" stroke-linecap="round" stroke-linejoin="round" stroke-width="0.5"><title>2025-07-20 4.9km</title><desc>1753020627000</desc></polyline><polyline fill="none" points="86.55188065842958,31.5 86.34819632198196,32.88045930568478 85.59165450104047,34.8220517331938 84.95150372944772,37.739987728884444 84.77691715536639,40.04061369205738 84.17556340026204,43.889846581732854 84.03977384261088,44.01328914901387 84.10766862146556,44.563168000291626 83.47721710393671,49.10798025870463 83.44811934162863,50.61165476574388 84.31135295785498,58.488779425133544 84.21436041675042,56.94032916756987 84.32105221197708,58.5 84.87390969652915,58.38779420001083 83.94278130150633,49.60172638286167 85.42676718108123,38.76124711869488 85.7371433127555,37.784878449878306 85.77594032918569,36.47181732363242" stroke="#4DD2FF" stroke-linecap="round" stroke-linejoin="round" stroke-width="0.5"><title>2025-07-20 5.0km</title><desc>1752942252000</desc></polyline><polyline fill="none" points="116.16421898122644,31.51208190763282 115.99715616781032,31.5 115.73612052178942,32.82900247924408 116.02848044532584,33.0102289391798 116.00759759364882,33.396844464034075 115.64214768924285,35.86148888752359 115.443760598253,36.28433941477124 114.93213073210791,41.104729164304445 114.50403227261268,43.073904859717004 114.54579797602491,43.653778605417756 113.80445674131624,49.19867854221957 114.80683362198761,58.5 113.877546722244,50.74492263379216 113.85666387056699,48.4013885792956 114.54579797602491,43.72626262486301 114.51447369845118,43.085985591569624 115.27669778483687,38.49521911881311 115.43331917241449,36.272257992008235 115.64214768924285,35.83732595485344 116.19554325874196,31.886620435026998" stroke="#4DD2FF" stroke-linecap="round" stroke-linejoin="round" stroke-width="0.5"><title>2025-07-17 5.0km</title><desc>1752765839000</desc></polyline><polyline fill="none" points="156.58445945964195,57.93025537068024 157.19256756769028,57.08586103635025 158.5,46.073363030853216 138.9493243243778,45.19375543203205 135.42229729739483,45.475230106851086 135.84797297301702,45.19375543203205 135.20945945952553,41.21790120535297 131.59121621632949,35.517924341518665 131.5,32.316044319275534 131.9256756757386,32.06974462931976 148.92229729739483,32.35122997488361 147.70608108118176,43.43453352997312 146.94594594603404,43.92711656363099 136.33445945952553,43.57527161113103 135.17905405408237,39.88087802033988 132.1993243243778,36.08088919633883 131.83445945952553,34.07532272240496 136.0608108107699,33.758653269702336 148.375,34.18087914233911 148.55743243254256,36.819779178884346 147.46283783798572,45.404861459624954 145.82094594603404,45.510414425079944" stroke="#4DD2FF" stroke-linecap="round" stroke-linejoin="round" stroke-width="0.5"><title>2025-07-15 4.1km</title><desc>1752589649000</desc></polyline><polyline fill="none" points="176.08505030663218,31.5 176.16732900287025,33.416027070335986 175.52966910699615,37.414591302476765 175.30340269237058,37.87870152412506 175.29311785532627,39.05681921314681 174.38805219670758,44.57834422936139 174.42919154488482,45.19711961026769 173.74010746384738,50.3256897681058 174.562894426228,58.5 174.08979192283005,55.26366005757882 173.72982262680307,50.06391204116517 175.27254818129586,38.97351835169684 175.1799846480135,38.59271365915629 175.48852975887712,37.49789327252802 176.0953351436765,33.535033929023484 176.02334128442453,33.11850939458964 176.27017737319693,31.85702605386905 176.04391095857136,31.57140529784374" stroke="#4DD2FF" stroke-linecap="round" stroke-linejoin="round" stroke-width="0.5"><title>2025-07-13 5.0km</title><desc>1752418082000</desc></polyline><polyline fill="none" points="24.765518246393185,93.5 24.626960846595466,93.48766697220708 24.712226938805543,92.51335381839453 25.181190446019173,89.55336714761506 25.458305245731026,89.30669833299908 25.93792701442726,85.95195267667441 26.19372529105749,82.48610700756399 25.490280030295253,77.6633598826229 25.127899138373323,73.62986661158357 24.914733907789923,72.84042104388209 24.467086923657916,72.12498156059883 24.563011277408805,71.93995342133712 25.074607830669265,72.01396471092448 24.85078433866147,69.67025194838789 24.339187785284594,69.02880687867582 24.37116256990703,67.56087174406275 24.008781678043306,66.5493430775241 23.784958185919095,66.5493430775241 23.976806893362664,66.5 24.339187785284594,67.40050800594327 24.32852952380199,69.04114239279443 24.797493030957412,69.47288459591073 24.85078433866147,69.71959373632853 25.074607830669265,71.9769590717624 24.552353015867993,71.95228863939701 24.435112139035482,72.08797595536453 24.90407564630732,72.76641025853314 25.11724087683251,73.51885113905155 25.554229599423707,78.31709386999137 26.215041814080905,82.39976795137045 26.2043835525983,83.97852955578855 24.90407564630732,92.85868089432188" stroke="#4DD2FF" stroke-linecap="round" stroke-linejoin="round" stroke-width="0.5"><title>2025-07-12 5.1km</title><desc>1752325602000</desc></polyline><polyline fill="none" points="54.837323767947964,93.5 54.574942748527974,93.48785562253761 55.16267623199383,89.44370929338038 55.40406676987186,89.32226134106168 56.075762179505546,84.81645507521898 56.18071458727354,82.54526999294467 55.56149538146565,78.47646149610227 55.08920954656787,73.5329763629561 54.4594951000181,72.2575968792953 54.54345702618593,72.12398490729538 55.068219065025914,72.20901072494598 54.82682852714788,69.74323744091816 54.35454269225011,69.22092425169103 54.33355221070815,67.58108893202007 53.808790171926375,66.5 54.36503793299198,67.71470598570158 54.35454269225011,69.20877740618016 54.837323767947964,69.75538423210673 55.099704787367955,72.17257109619823 54.59593323006993,72.11183835697011 54.48048558161827,72.30618301384675 55.11020002810983,73.63014757489873 55.57199062226573,78.45216968598834 56.19120982801542,82.46025153128721 56.08625742030563,84.75572876309889 55.07871430576779,91.45972727240587" stroke="#4DD2FF" stroke-linecap="round" stroke-linejoin="round" stroke-width="0.5"><title>2025-07-10 5.0km</title><desc>1752149320000</desc></polyline><polyline fill="none" points="81.21354894561227,66.5 81.27678821166046,68.1830451440037 81.7352728904225,67.94522450209479 82.71548151422758,68.27451453798858 83.77473922038916,68.1830451440037 84.96047545870533,68.62209781139973 91.07887444837252,69.42702492090757 91.25278242997592,69.66484360549657 89.84570876054931,78.64684241666691 89.16588665056042,78.70172086940147 89.03940811846405,78.93952730449382 88.80226087081246,80.53099305590149 88.97616885241587,81.22611161459645 87.90110132971313,87.28084664086055 80.02781270735431,87.04305122040387 79.75904582662042,86.86013145260222 78.74721756996587,93.5 79.80647527612746,86.96988333557965 82.87357967923163,87.02475925194449 83.90121775242733,86.62233547664073 84.04350610106485,87.04305122040387 87.94853077922016,87.1710949473927 90.66781921905931,70.14048003232165 90.58877013658639,69.51849368296098 82.44671463343548,68.0915757034818" stroke="#4DD2FF" stroke-linecap="round" stroke-linejoin="round" stroke-width="0.5"><title>2025-07-08 5.1km</title><desc>1751976330000</desc></polyline><polyline fill="none" points="101.7404842817923,93.25415402713406 101.68254029483069,93.5 102.04951887985226,93.34355259449512 102.16540685400832,92.09196934434294 102.84142003708985,91.53322452242719 102.97662267368287,90.95212840189924 104.92740357317962,77.43003512376163 105.10123553453013,73.33971749727789 104.63768363767304,70.3222212989931 105.69999006809667,70.27751734030608 105.97039534128271,70.67985264111485 109.69812517904211,71.2162985636096 112.69189784664195,71.17159478676331 114.87445469456725,72.04331679685856 121.82773314823862,73.07149728978402 123.10250086477026,66.5 128.3174597051693,67.66231994012196 123.6626260735793,66.56705708669324 122.79346626682673,70.43398115586024 122.6582636302337,73.11620068043703 109.64018119184766,71.3727617112163 105.97039534128271,70.7022045807098 105.64204608101863,70.21046138522797 104.579739650595,70.38927721993241 105.0046622226946,72.17742756856023 105.0819208722096,76.04425297446141 102.89936402416788,91.01917803267133" stroke="#4DD2FF" stroke-linecap="round" stroke-linejoin="round" stroke-width="0.5"><title>2025-07-06 5.0km</title><desc>1751807521000</desc></polyline><polyline fill="none" points="135.6096013794886,91.82643208399531 136.77941321220715,83.50764349047677 132.99347673542798,83.23690888327837 131.802395596751,83.65531678503612 133.3550549382344,83.50764349047677 133.14236187783536,83.26152113279386 137.05591419071425,83.48303126599058 137.33241516945418,83.23690888327837 137.20479933312163,82.47392790745653 138.79999728663824,72.4072764031589 138.6511121444637,67.38610064782551 141.39485262474045,67.11534801613016 158.19760440313257,69.8720879327011 158.17633509717416,69.0598374686524 139.69330814073328,66.5 139.99107842554804,72.57956980200834 138.055571575067,86.26419680798426 138.5873042262392,87.1010014286876 138.09811018710025,88.0116384660796 138.20445671735797,89.9805717071722 137.4600310055539,90.15285260422388 137.11972210893873,93.5 135.39690831897315,93.30311025716946 135.50325484923087,91.85104346064327" stroke="#4DD2FF" stroke-linecap="round" stroke-linejoin="round" stroke-width="0.5"><title>2025-07-05 4.8km</title><desc>1751729502000</desc></polyline><polyline fill="none" points="179.34566448954865,93.5 179.6128736329265,93.3047179729183 179.65506455022842,92.19811532145832 180.02071916748537,90.58701837950503 180.2176101152436,90.52192321291659 180.4707556195208,88.16220555844484 174.9718727217405,87.93436890971498 175.32346369989682,86.7138099144795 175.84381834743544,81.21304193063406 175.90007290401263,77.19313043069269 175.7031819562544,76.65604959113989 175.91413654305506,73.36842457647435 175.90007290401263,66.5 168.51666236348683,69.15300461303559 168.36196233308874,69.52735141740413 168.41821688966593,69.20183250671835 172.39822676189942,67.68816087656887 172.46854495751904,71.04100565695262 172.86232685303548,71.88734372450563 175.8016274300753,71.88734372450563 175.81569106923416,76.18406797210628 176.12509112991393,76.3305451751803 176.23760024289368,76.85135192307644 181.38489216263406,77.17685528020957 181.63803766691126,78.46258707126253 181.60991038853535,80.80617288773647 179.8378918589442,92.89787965167488" stroke="#4DD2FF" stroke-linecap="round" stroke-linejoin="round" stroke-width="0.5"><title>2025-07-03 5.2km</title><desc>1751545471000</desc></polyline><polyline fill="none" points="24.52686310466379,128.5 25.16822645161301,124.54589664766536 25.43108028237475,124.36339641709492 26.103986089059617,119.37494904701452 26.156556855188683,117.64719441740453 25.010514153167605,108.4726428541544 24.453264032083098,107.31664813787938 24.56891971756704,107.15845851862105 25.042056612903252,107.24363757034735 24.821259395044763,104.88293854891526 24.306065886863507,104.22582847361628 24.31658004008932,102.72906427567796 23.82241483835969,101.5 24.358636652992573,102.83858424209757 24.306065886863507,104.25016594817134 24.77920278214151,104.71257702404546 24.852801854722202,105.08980578878982 25.042056612903252,107.23146913808887 24.52686310466379,107.19496383392107 24.453264032083098,107.35315340491798 25.021028306451626,108.4726428541544 25.56776427431032,113.68056478968356 26.1775851615821,117.61069229005079 25.99884455668507,120.33615385473968 24.84228770149639,128.08634607310523" stroke="#4DD2FF" stroke-linecap="round" stroke-linejoin="round" stroke-width="0.5"><title>2025-07-01 5.0km</title><desc>1751376396000</desc></polyline><polyline fill="none" points="54.05114498367766,128.5 54.24611519253813,128.25935323357407 54.20712115080096,127.37196490111819 54.51907348487293,127.07115408949903 54.74003972153878,125.8979860827676 55.07798808347434,121.7617426396173 55.545916584611405,120.15233667822031 56.06583714153385,115.9256825432094 55.93585700233234,113.50395086301432 55.207968222675845,109.18685260904022 54.7140436937334,103.9520139771339 53.93416285846615,102.01146639265062 54.623057596210856,102.14685425945208 54.64905362407444,101.5 54.64905362407444,102.11676807749609 54.05114498367766,101.99642328869959 53.94716087233974,102.14685425945208 54.44108540134039,102.88396380489576 54.74003972153878,103.92192816233728 55.2859563062666,109.75846170312434 56.06583714153385,114.94796955458878 56.00084707187489,117.36967760315747 54.36309731780784,127.98862515375367" stroke="#4DD2FF" stroke-linecap="round" stroke-linejoin="round" stroke-width="0.5"><title>2025-06-30 4.1km</title><desc>1751292736000</desc></polyline><polyline fill="none" points="71.80313588847639,116.66440344061994 71.5,114.4734598604191 71.60452961671399,114.24346896374482 79.73693379794713,113.85611486788548 81.03310104529373,113.97716315856815 83.14459930313751,113.77138099104195 86.31184668990318,113.80769551710546 98.5,113.03298321942566 94.86236933799228,113.28718624914472 94.01567944255657,113.56559846693563 92.4477351916139,113.49296925563249 84.51393728225958,113.90453419898404 77.13414634147193,114.03768725762347 76.91463414632017,114.23136416738998 77.42682926828275,116.96701678057434 77.18641114985803,116.94280774176877 76.89372822298901,115.51446571711858" stroke="#4DD2FF" stroke-linecap="round" stroke-linejoin="round" stroke-width="0.5"><title>2025-06-26 5.0km</title><desc>1750950176000</desc></polyline><polyline fill="none" points="128.5,116.10503620783857 128.06404736277182,113.89496379215416 116.4483315392863,114.96074029371084 115.20828848227393,114.97195893882599 110.73250807315344,114.41102528154443 101.5,114.80367914179078 110.42249730892945,114.3998065792257 115.21797631861409,114.9831775828352 123.48170075350208,114.23152590745303" stroke="#4DD2FF" stroke-linecap="round" stroke-linejoin="round" stroke-width="0.5"><title>2025-06-24 5.0km</title><desc>1750769966000</desc></polyline><polyline fill="none" points="158.5,116.08125815037783 158.130403458199,113.91874184961489 146.6340057636844,115.01126839474455 145.233429394837,115.05632080390933 140.7010086455266,114.47063805232028 131.5,114.8761110570922 140.4578530259314,114.47063805232028 145.2237031700206,115.05632080390933 154.959654178645,114.18905870145682" stroke="#4DD2FF" stroke-linecap="round" stroke-linejoin="round" stroke-width="0.5"><title>2025-06-22 5.0km</title><desc>1750563938000</desc></polyline><polyline fill="none" points="175.92269060903345,128.5 174.52724332752405,120.1631483968813 174.50768098243861,117.88998530217941 174.63157583452994,116.93840794199059 174.55332645427552,114.4914385842203 174.579409581027,114.06849741340557 174.72286677817465,113.82681565982057 174.579409581027,113.71352706628386 174.57288879930275,112.16523225016135 172.98833884883788,102.63306504517823 172.59057116578333,101.5 172.99485963050392,102.48954443218827 174.55332645427552,112.00662461162574 174.63809661622508,116.64386961449054 174.52724332752405,117.89753745454072 174.5207225457998,120.08762914865656 175.59013074287213,126.4913878494408 175.74010872171493,126.92936055468454 177.40942883418757,126.8387457246572" stroke="#4DD2FF" stroke-linecap="round" stroke-linejoin="round" stroke-width="0.5"><title>2025-06-21 8.0km</title><desc>1750517001000</desc></polyline><polyline fill="none" points="27.739227966521867,163.5 25.452105586766265,149.43581285400433 21.427479383419268,149.35368332975486 14.176060365047306,148.65558102146315 14.31789741187822,147.91641123416775 14.034223318216391,146.49966155918082 14.424275196972303,137.23921169007372 14.371086304308847,136.58213476624223 14.016493687406182,136.5 13.573252916103229,147.89587870138348 14.246978888520971,147.97800882003503 14.282438150141388,148.67611347688944 25.505294479313307,149.41528047611064 26.870476054842584,158.20294697614736 27.29598719533533,159.3732381197624 36.42674708389677,159.0857988196658" stroke="#4DD2FF" stroke-linecap="round" stroke-linejoin="round" stroke-width="0.5"><title>2025-06-19 5.0km</title><desc>1750345525000</desc></polyline><polyline fill="none" points="68.5,150.6759281525956 68.25217391308979,149.20323694503895 60.60869565219036,149.92825781260763 59.623913043469656,149.95091460038384 56.35000000000582,149.5733005658767 44.219565217383206,150.12461641010304 43.16956521739485,150.29831781263056 41.5,150.79676305496105 43.85434782606899,150.1623776191991 48.11956521740649,149.973571381277" stroke="#4DD2FF" stroke-linecap="round" stroke-linejoin="round" stroke-width="0.5"><title>2025-06-17 5.1km</title><desc>1750166247000</desc></polyline><polyline fill="none" points="72.43103448266629,160.1887884356256 71.5,154.20505966164637 92.54137931042351,153.5851160576858 89.11982758634258,140.08076648047427 93.262931034551,140.32336567013408 98.5,139.8112115643744 90.23706896556541,140.2964102156111 93.28620689664967,152.4530413786124 84.25517241389025,152.88430849451106" stroke="#4DD2FF" stroke-linecap="round" stroke-linejoin="round" stroke-width="0.5"><title>2025-06-16 3.2km</title><desc>1750084948000</desc></polyline><polyline fill="none" points="128.5,151.24813276056375 128.08629032265162,148.75186723943625 114.81491935480153,149.97479149090213 113.61733870970784,149.9873988944746 108.36975806450937,149.34441967524617 101.5,149.6722134202937 108.15201612905366,149.3318122061537 113.60645161295542,149.96218408609275 124.86370967747644,149.0166250615439" stroke="#4DD2FF" stroke-linecap="round" stroke-linejoin="round" stroke-width="0.5"><title>2025-06-15 4.6km</title><desc>1749956754000</desc></polyline><polyline fill="none" points="158.5,151.08587058149715 158.1713211600436,148.91412941849558 146.6095596133964,149.97761628103763 145.40118152525974,150.0000053674812 140.31632653065026,149.42908223781706 131.5,149.83208710800682 140.49033297528513,149.42908223781706 145.32384532765718,150.0000053674812 147.84693877556128,149.876865335631 148.32062298600795,149.72014145906724 154.4495166487759,149.17160612992302" stroke="#4DD2FF" stroke-linecap="round" stroke-linejoin="round" stroke-width="0.5"><title>2025-06-14 5.1km</title><desc>1749906363000</desc></polyline><polyline fill="none" points="188.5,151.6031278822411 188.17538896744372,149.4140393822163 176.98585572838783,150.49753315105045 175.47736916545546,150.5085891541603 170.89462517679203,149.95578761938668 162.26379066478694,150.36486102611525 162.14922206505435,150.1105723330984 162.196958981629,148.40792833494925 161.5,148.39687211776618 162.22560113156214,148.4300407659539 162.14922206505435,150.09951628942508 162.2924328147201,150.36486102611525 171.13330975954887,149.9447315599682 175.68741159827914,150.51964515614236 184.7574257425731,149.70149796747137 184.74787835928146,149.2592536746306 187.65983026870526,149.1044677462196" stroke="#4DD2FF" stroke-linecap="round" stroke-linejoin="round" stroke-width="0.5"><title>2025-06-12 5.9km</title><desc>1749735885000</desc></polyline><polyline fill="none" points="38.5,193.49395450744487 37.63929313933477,189.16043322924816 13.988565488602035,191.26220208083396 11.761954261921346,185.17351563402917 11.5,177.56782958049735 15.915800415794365,177.37280841091706 19.67671517666895,177.61116759384458 19.88253638264723,176.9177583195269 19.489604989648797,176.7660747392365 11.612266112235375,176.50604549255513 11.780665280646645,184.95683318760712 12.435550935566425,187.42699998401804 13.726611226564273,190.50383427276392 24.204781704815105,189.59378933210974 24.410602910560556,190.41716349385388 37.58316008327529,189.13876540087222 38.38773388788104,193.42895234079333" stroke="#4DD2FF" stroke-linecap="round" stroke-linejoin="round" stroke-width="0.5"><title>2025-06-10 5.3km</title><desc>1749559786000</desc></polyline><polyline fill="none" points="42.20892723184079,177.81136312570015 41.560765191330574,175.1843418331846 41.5,173.14368852811458 59.87134283571504,172.6745702677872 60.70180045010056,175.74727749169688 60.094148537144065,175.72382186680625 59.91185296326876,176.14602274999197 60.29669917479623,178.32738164174953 60.19542385591194,179.80506462824997 60.86384096019901,182.76040213982924 62.58552138041705,182.69003740198968 65.13765941490419,192.5174374926719 65.17816954245791,192.96306144281698 64.53000750183128,193.15069232168025 65.11740435112733,192.98651531108771 65.31995498866308,193.36177687748568 64.79332333081402,193.45559217360278 64.97561890468933,194.32338184933178 66.19092273060232,197.4192534990143 67.04163540888112,197.3254398182762 68.5,196.52802198873542 66.96061515377369,196.85637084134214 64.22618154541124,185.95024766400456 63.90210052521434,185.01206239295425 63.17291822959669,185.01206239295425 62.62603150785435,182.6196726425842 62.03863465867471,182.85422175684653 60.84358589653857,182.69003740198968 60.1751687922515,179.99270623335906 60.03338334581349,176.5213117737876 58.91935483866837,172.5807465009857 41.560765191330574,173.1906003015465 42.28994748683181,177.95209556295595" stroke="#4DD2FF" stroke-linecap="round" stroke-linejoin="round" stroke-width="0.5"><title>2025-06-08 5.0km</title><desc>1749355299000</desc></polyline><polyline fill="none" points="98.5,186.11104457739566 98.02512562810443,183.88895542260434 89.3223259152146,184.61843407912238 86.7056712131598,184.988782932116 85.25197415647563,184.988782932116 80.64860014355509,184.4276478202446 71.5,184.83166538903606 80.21249102655565,184.4276478202446 85.20351758797187,185.00000560516492 95.69921033742139,184.05729707995488" stroke="#4DD2FF" stroke-linecap="round" stroke-linejoin="round" stroke-width="0.5"><title>2025-06-07 5.3km</title><desc>1749293029000</desc></polyline><polyline fill="none" points="128.5,186.06960941148282 128.1013683832134,183.9303905885099 115.78267915017204,185.05630039593234 110.78519985597814,184.48208782799338 101.5,184.86489653825993 110.74630896648159,184.45956962725177 115.18959308607737,185.05630039593234 124.70813827874372,184.18935086035344" stroke="#4DD2FF" stroke-linecap="round" stroke-linejoin="round" stroke-width="0.5"><title>2025-06-05 5.1km</title><desc>1749128617000</desc></polyline><polyline fill="none" points="131.8779527558945,184.8291006013751 131.5,182.3535048525082 131.64173228346044,182.24408520200814 142.23622047243407,181.87479322293075 144.23228346457472,189.19205598090775 154.69685039372416,189.05528837315796 158.5,188.8227831201075 155.37007874023402,188.93219740698987 154.7913385826978,180.80794401909225 144.77559055120219,181.39607988562784 142.62598425202304,181.32769212657877 142.8149606299121,181.87479322293075 137.26377952756593,182.03892311688105" stroke="#4DD2FF" stroke-linecap="round" stroke-linejoin="round" stroke-width="0.5"><title>2025-06-03 5.2km</title><desc>1748952979000</desc></polyline><polyline fill="none" points="183.82812387138256,176.95102627472806 183.2358336073812,176.07437200300046 182.81598228102666,175.15430930953153 182.54607785696862,174.9025923143563 181.87881414181902,174.84183292830858 181.3689946740924,174.25159663868544 181.13657697557937,173.479075319985 180.79169910034398,172.9495903725183 180.3793451190868,171.5 179.18726724601584,172.0121335466174 178.6324637075886,172.07289494965516 177.1929734457517,172.6110654857912 176.57819114642916,173.4009547968526 176.57819114642916,173.60059599143278 174.08907256869134,176.76875236649357 174.0740778784384,176.95102627472806 173.39181947309407,177.88842879005097 172.79952920912183,178.43524216420337 172.69456637755502,178.3397670659033 172.27471505114227,178.7043077751805 171.99731328192865,178.53939669500687 171.9898159368604,178.695628252608 171.95232921125717,178.46996035530174 172.34219115716405,178.7477053748662 172.28221239626873,179.06016744037333 171.38253098263522,180.05830247803533 169.84557523432886,180.40547714347485 169.84557523432886,180.24924871899566 169.74061240273295,180.44019453226792 169.3207610763493,180.53566727857833 168.9533911657636,180.43151518639206 168.33860886647017,180.48359124838316 168.23364603484515,180.38811844377778 167.9862336461083,180.52698794243042 167.24399647986866,180.26660744694527 167.1465309933701,179.1296032993996 166.86163187905913,178.8778980413117 165.45962834282545,179.2337569819574 164.9348141848459,179.55489670216775 165.5346017939446,182.15000843884627 166.4792672782496,185.0488024101578 168.47356107848464,192.8420772903337 168.75096284769825,193.64913522416464 171.1051292134216,198.4132248777314 171.4050230179564,198.5 172.4396566436917,198.17025406586617 173.14440708435723,198.37851480412792 174.43395044392673,198.10951125479914 174.41145840854733,197.5975344143153 174.75633628378273,197.50208076529088 175.37861592823174,197.7884413920401 175.85094867038424,197.56282400886266 176.04587964335224,197.84918443171773 177.2604495517735,198.11818880186183 177.97269733759458,197.98802550288383 178.69244246848393,197.45001509351277 178.81989733543014,196.4347281429291 179.35970618363353,195.68844114096282 179.2172566264635,194.94214761032345 179.3896955640812,194.57767630389571 179.0223256534955,194.1698137098865 178.78990795501159,193.56235516754532 178.6999398136104,192.65983734526526 179.18726724601584,192.2693218661734 179.92950441225548,192.5730562821991 180.34185839351267,192.5470219460476 180.44682122510858,191.98294271186023 180.27438228749088,191.28868622577284 180.13193273032084,191.22793851438473 180.27438228749088,191.15851250554988 180.10944069499965,191.10644296182727 180.24439290701412,191.18454726548953 180.25938759726705,190.77666844679334 180.06445662429905,190.32539599156007 179.17976990086026,190.26464759409282 178.76741591963219,189.95222658084094 178.93985485722078,188.77195909165312 179.6446052979445,187.5656394122998 180.1844141461188,186.96681251468544 180.43182653485565,186.88002565894567 180.96413803796167,186.14233381917438 181.90130617716932,185.2484163326153 182.73351148478105,184.20694724864734 182.49359644114156,183.7209239898366 181.75135927490192,183.71224497790536 181.65389378840337,183.42583708835446 181.93879290271434,182.74019005086302 182.2686760877259,182.42774147097953 182.57606723741628,182.47113717553293 182.70352210430428,182.3149125357886 182.4411150253727,181.71604876507627 182.79349024567637,180.97831225095433 183.12337343071704,180.78736764272617 183.40077519993065,180.90019859925815 183.36328847432742,180.69189517828636 184.19549378196825,180.3100042514052 184.2704672330874,180.0756612448895 184.99770970913232,179.63301158633112 185.0651858151541,178.9994110173211 184.11302298569353,177.18537786986417 183.96307608339703,177.11594042734941" stroke="#4DD2FF" stroke-linecap="round" stroke-linejoin="round" stroke-width="0.5"><title>2025-06-02 11.5km</title><desc>1748829019000</desc></polyline><polyline fill="none" points="38.5,221.26263021256455 38.005412156519014,218.73736978744273 23.74104912573239,220.06509025622654 17.828476269729435,219.3882148791963 11.5,219.66156882866198 17.907160699367523,219.3621811392004 23.08909242291702,220.0390566542119 37.982930890866555,218.7503867218038 38.488759367202874,221.18453012289683" stroke="#4DD2FF" stroke-linecap="round" stroke-linejoin="round" stroke-width="0.5"><title>2025-06-01 4.9km</title><desc>1748740054000</desc></polyline><polyline fill="none" points="68.5,233.0111600077944 68.40223295113537,233.218719774668 68.20669885334792,233.06776724004885 67.55491852742853,229.44486948511621 46.95866022934206,231.23745796419098 45.05220277613262,225.8973800696549 44.97073023539269,219.17960747845063 44.51448400726076,216.65094452886842 41.5,206.78128022531746 43.487929993949365,213.38627634763543 44.02564876287943,214.40531190379988 44.90555220283568,218.19833939056844 45.78545564279193,218.44365690021368 44.87296318652807,218.4247863341152 45.05220277613262,225.2746754460095 45.67139408568619,227.82209020935989 46.7468316234299,230.48268598319555 47.02383826189907,230.65250994720554 55.85546167771099,229.7467803391337 56.09987929993076,230.46381664427463 63.122812311397865,229.78451916128688" stroke="#4DD2FF" stroke-linecap="round" stroke-linejoin="round" stroke-width="0.5"><title>2025-05-31 5.5km</title><desc>1748696141000</desc></polyline><polyline fill="none" points="96.60649350646418,227.45134619038436 95.99285714281723,223.4922928003798 73.77922077919357,225.48198074942047 71.72792207787279,219.63467791416042 71.5,212.58926211578364 79.03896103880834,212.67047870339593 71.60519480518997,212.54865380961564 71.74545454536565,219.53316072409507 72.28896103892475,221.70561729859037 73.65649350639433,224.83228891035833 93.32792207784951,222.94410997556406 95.08116883109324,222.84259447203658 95.16883116879035,223.59380797277845 98.5,223.32986841695674" stroke="#4DD2FF" stroke-linecap="round" stroke-linejoin="round" stroke-width="0.5"><title>2025-05-29 5.0km</title><desc>1748526381000</desc></polyline><polyline fill="none" points="117.86687797133345,217.34929061686853 117.26782884297427,212.44378960411996 127.40887480182573,211.9482789465983 128.5,215.937111078194 127.32329635485075,212.04738115885993 117.2250396196032,212.51811611559242 117.50316957198083,214.97087824605114 117.1180665610591,212.54289161435736 102.69809825660195,213.88076479898882 104.85895404114854,224.7073565380706 105.69334389851429,227.23431770293973 105.13708399352618,227.58115346009436 106.01426307437941,229.90989501531294 104.83755942934658,226.83793337465613 101.92789223440923,213.93031551635067 106.97702060220763,213.211829127089 116.11251980974339,212.64199358428596 116.00554675119929,211.92350338718097 102.59112519805785,212.8401974028675 101.84231378755067,210.0901049847016 101.5,210.38741377313272 101.67115689371713,213.03840105980635 111.79080824076664,212.04738115885993" stroke="#4DD2FF" stroke-linecap="round" stroke-linejoin="round" stroke-width="0.5"><title>2025-05-27 6.0km</title><desc>1748352132000</desc></polyline><polyline fill="none" points="154.90205011388753,222.0120401615859 155.0096810934192,221.94081911250396 154.6637243735895,220.21369089363725 145.56890660591307,221.08616199400421 144.51566059229663,221.1039674359272 140.72551252850099,220.65883029899123 131.6691343963612,221.059453824324 131.5,218.10369925123814 132.57630979499663,217.9879598384141 134.06007972668158,218.09479622493382 134.0677676537598,220.65883029899123 140.94846241458436,220.382844134896 145.13069476082455,220.7923716782534 154.64834851937485,219.8486748884825 158.33855353077524,219.71513206644886 158.5,220.00892600539373 158.39236902049743,220.04453732479305 154.98661731209722,220.18698245715495" stroke="#4DD2FF" stroke-linecap="round" stroke-linejoin="round" stroke-width="0.5"><title>2025-05-25 7.6km</title><desc>1748179850000</desc></polyline><polyline fill="none" points="188.48230668413453,221.49058949661412 188.41153342067264,220.90665418278513 188.06651376141235,220.90665418278513 187.84534731321037,219.8104857486178 187.66841415461386,219.5646145519131 179.1313892529579,220.29198176666978 177.73361730010947,220.5480957301843 172.12483617296675,220.02562255236262 161.6503931847983,220.49687298970093 161.5,218.7143053600521 164.10091743117664,218.5094105033786 164.08322411531117,220.0051333528172 164.42824377457146,220.04611174775346 171.77981651376467,219.7285287499035 177.10550458711805,220.18953599854285 188.16382699867245,219.12409382039914 188.5,221.37790048967872" stroke="#4DD2FF" stroke-linecap="round" stroke-linejoin="round" stroke-width="0.5"><title>2025-05-24 6.6km</title><desc>1748094255000</desc></polyline><polyline fill="none" points="38.5,256.2030372157751 38.206285253865644,253.79696278423216 27.0886381950113,254.74176199414796 25.543916196620557,255.0063044787239 23.781627719581593,255.03149897148978 18.70145044318633,254.41423241922166 11.5,254.703970164388 18.66881547140656,254.40163511056016 23.716357775963843,255.04409621599916 35.23650282033486,254.07410463433916" stroke="#4DD2FF" stroke-linecap="round" stroke-linejoin="round" stroke-width="0.5"><title>2025-05-18 4.7km</title><desc>1747565909000</desc></polyline><polyline fill="none" points="64.99069567702827,255.96672524152382 64.69696535929688,254.2391534551498 56.86673346691532,254.90154250922205 55.560406527336454,255.13427261247125 54.509161179477815,255.12532146604644 50.93028914972092,254.6598605953768 41.55410821642727,255.08951687128865 41.5,254.8209819451513 46.77941597480094,254.4808365267163 50.35828800458694,254.41817801647267 54.540080160310026,255.08951687128865 64.79745204694336,254.17649477245868 68.25264815342962,254.0332747584689 68.39178356711636,254.05117727299512 68.41497280274052,254.17649477245868 68.5,254.12278729458922" stroke="#4DD2FF" stroke-linecap="round" stroke-linejoin="round" stroke-width="0.5"><title>2025-05-17 5.7km</title><desc>1747487200000</desc></polyline><polyline fill="none" points="97.02453131228685,253.883791242617 93.44894295971608,254.07086714363686 91.70422816107748,254.38265967639018 83.69146390102105,254.99377073609503 78.67271639406681,254.3452446144147 71.5,254.6320931306036 78.57578779413598,254.37018799035286 83.49760670121759,254.98129911229626 97.79996011161711,253.73413031590462 98.27383326686686,256.15362619120424 98.5,256.2658696840954" stroke="#4DD2FF" stroke-linecap="round" stroke-linejoin="round" stroke-width="0.5"><title>2025-05-11 5.0km</title><desc>1746965499000</desc></polyline><polyline fill="none" points="128.5,255.9700661204988 128.06420373020228,254.0299338795012 115.81348637008341,255.14018715215934 110.83572453365196,254.56823989559052 101.5,254.9607530387293 110.60329985647695,254.5794545762401 115.25179340026807,255.14018715215934 128.14167862263275,254.05236334940855" stroke="#4DD2FF" stroke-linecap="round" stroke-linejoin="round" stroke-width="0.5"><title>2025-05-10 5.3km</title><desc>1746870058000</desc></polyline><polyline fill="none" points="158.44104803493246,254.5448839132514 158.37227074237308,254.35145821388141 158.5,254.49937201412104 157.97925764194224,254.5903957937844 145.94323144108057,255.6485417861113 140.84388646291336,255.0455135788361 131.5,255.43236223729036 140.79475982533768,255.0455135788361 143.18231441045646,255.2389380756431 145.3537117904052,255.6371639255376 155.20851528388448,254.7496872296324" stroke="#4DD2FF" stroke-linecap="round" stroke-linejoin="round" stroke-width="0.5"><title>2025-05-05 5.4km</title><desc>1746434825000</desc></polyline></svg>