<?xml version="1.0" encoding="utf-8" ?>
<svg baseProfile="full" height="300mm" version="1.1" viewBox="0,0,200,300" width="200mm" xmlns="http://www.w3.org/2000/svg" xmlns:ev="http://www.w3.org/2001/xml-events" xmlns:xlink="http://www.w3.org/1999/xlink"><defs /><rect fill="#222222" height="300" width="200" x="0" y="0" /><text fill="#FFFFFF" style="font-size:12px; font-family:Arial; font-weight:bold;" x="10" y="20">Over 3km Runs</text><text fill="#FFFFFF" style="font-size:4px; font-family:Arial" x="10" y="280">Runner</text><text fill="#FFFFFF" style="font-size:9px; font-family:Arial" x="10" y="290">tang-hi</text><text fill="#FFFFFF" style="font-size:4px; font-family:Arial" x="65" y="280">SPECIAL TRACKS</text><rect fill="yellow" height="2.6" width="2.6" x="65" y="283" /><text fill="#FFFFFF" style="font-size:3px; font-family:Arial" x="70" y="285.5">Over 20.0 km</text><rect fill="red" height="2.6" width="2.6" x="65" y="287" /><text fill="#FFFFFF" style="font-size:3px; font-family:Arial" x="70" y="289.5">Over 40.0 km</text><text fill="#FFFFFF" style="font-size:4px; font-family:Arial" x="120" y="280">STATISTICS</text><text fill="#FFFFFF" style="font-size:3px; font-family:Arial" x="120" y="285">Number: 37</text><text fill="#FFFFFF" style="font-size:3px; font-family:Arial" x="120" y="290">Weekly: 3.4</text><text fill="#FFFFFF" style="font-size:3px; font-family:Arial" x="141" y="285">Total: 199.7 km</text><text fill="#FFFFFF" style="font-size:3px; font-family:Arial" x="141" y="290">Avg: 5.4 km</text><text fill="#FFFFFF" style="font-size:3px; font-family:Arial" x="167" y="285">Min: 3.2 km</text><text fill="#FFFFFF" style="font-size:3px; font-family:Arial" x="167" y="290">Max: 11.5 km</text><polyline fill="none" points="36.58445945964195,57.93025537068024 37.192567567690276,57.08586103635025 38.5,46.073363030853216 18.949324324377812,45.19375543203205 15.422297297394834,45.475230106851086 15.847972973017022,45.19375543203205 15.209459459525533,41.21790120535297 11.591216216329485,35.517924341518665 11.5,32.316044319275534 11.925675675738603,32.06974462931976 28.922297297394834,32.35122997488361 27.706081081181765,43.43453352997312 26.945945946034044,43.92711656363099 16.334459459525533,43.57527161113103 15.179054054082371,39.88087802033988 12.199324324377812,36.08088919633883 11.834459459525533,34.07532272240496 16.060810810769908,33.758653269702336 28.375,34.18087914233911 28.557432432542555,36.819779178884346 27.462837837985717,45.404861459624954 25.820945946034044,45.510414425079944" stroke="#4DD2FF" stroke-linecap="round" stroke-linejoin="round" stroke-width="0.5"><title>2025-07-15 4.1km</title><desc>1752589649000</desc></polyline><polyline fill="none" points="63.58505030663218,31.5 63.66732900287025,33.416027070335986 63.02966910699615,37.414591302476765 62.80340269237058,37.87870152412506 62.79311785532627,39.05681921314681 61.88805219670758,44.57834422936139 61.929191544884816,45.19711961026769 61.24010746384738,50.3256897681058 62.06289442622801,58.5 61.589791922830045,55.26366005757882 61.22982262680307,50.06391204116517 62.77254818129586,38.97351835169684 62.67998464801349,38.59271365915629 62.98852975887712,37.49789327252802 63.59533514367649,33.535033929023484 63.52334128442453,33.11850939458964 63.77017737319693,31.85702605386905 63.54391095857136,31.57140529784374" stroke="#4DD2FF" stroke-linecap="round" stroke-linejoin="round" stroke-width="0.5"><title>2025-07-13 5.0km</title><desc>1752418082000</desc></polyline><polyline fill="none" points="99.76551824639319,58.5 99.62696084659547,58.48766697220708 99.71222693880554,57.513353818394535 100.18119044601917,54.55336714761506 100.45830524573103,54.306698332999076 100.93792701442726,50.95195267667441 101.19372529105749,47.48610700756399 100.49028003029525,42.6633598826229 100.12789913837332,38.629866611583566 99.91473390778992,37.84042104388209 99.46708692365792,37.124981560598826 99.5630112774088,36.93995342133712 100.07460783066927,37.01396471092448 99.85078433866147,34.670251948387886 99.3391877852846,34.02880687867582 99.37116256990703,32.56087174406275 99.0087816780433,31.5493430775241 98.7849581859191,31.5493430775241 98.97680689336266,31.5 99.3391877852846,32.400508005943266 99.32852952380199,34.04114239279443 99.79749303095741,34.47288459591073 99.85078433866147,34.719593736328534 100.07460783066927,36.976959071762394 99.552353015868,36.95228863939701 99.43511213903548,37.08797595536453 99.90407564630732,37.76641025853314 100.11724087683251,38.51885113905155 100.5542295994237,43.31709386999137 101.2150418140809,47.39976795137045 101.2043835525983,48.978529555788555 99.90407564630732,57.85868089432188" stroke="#4DD2FF" stroke-linecap="round" stroke-linejoin="round" stroke-width="0.5"><title>2025-07-12 5.1km</title><desc>1752325602000</desc></polyline><polyline fill="none" points="137.33732376794796,58.5 137.07494274852797,58.48785562253761 137.66267623199383,54.44370929338038 137.90406676987186,54.322261341061676 138.57576217950555,49.81645507521898 138.68071458727354,47.54526999294467 138.06149538146565,43.476461496102274 137.58920954656787,38.532976362956106 136.9594951000181,37.257596879295306 137.04345702618593,37.12398490729538 137.56821906502591,37.20901072494598 137.32682852714788,34.743237440918165 136.8545426922501,34.22092425169103 136.83355221070815,32.581088932020066 136.30879017192638,31.5 136.86503793299198,32.714705985701585 136.8545426922501,34.20877740618016 137.33732376794796,34.755384232106735 137.59970478736795,37.172571096198226 137.09593323006993,37.11183835697011 136.98048558161827,37.30618301384675 137.61020002810983,38.63014757489873 138.07199062226573,43.45216968598834 138.69120982801542,47.46025153128721 138.58625742030563,49.75572876309889 137.5787143057678,56.45972727240587" stroke="#4DD2FF" stroke-linecap="round" stroke-linejoin="round" stroke-width="0.5"><title>2025-07-10 5.0km</title><desc>1752149320000</desc></polyline><polyline fill="none" points="171.21354894561227,31.5 171.27678821166046,33.1830451440037 171.7352728904225,32.94522450209479 172.71548151422758,33.27451453798858 173.77473922038916,33.1830451440037 174.96047545870533,33.622097811399726 181.07887444837252,34.42702492090757 181.25278242997592,34.66484360549657 179.84570876054931,43.646842416666914 179.16588665056042,43.70172086940147 179.03940811846405,43.93952730449382 178.80226087081246,45.53099305590149 178.97616885241587,46.22611161459645 177.90110132971313,52.280846640860545 170.02781270735431,52.04305122040387 169.75904582662042,51.86013145260222 168.74721756996587,58.5 169.80647527612746,51.96988333557965 172.87357967923163,52.02475925194449 173.90121775242733,51.62233547664073 174.04350610106485,52.04305122040387 177.94853077922016,52.1710949473927 180.6678192190593,35.14048003232165 180.5887701365864,34.51849368296098 172.44671463343548,33.091575703481794" stroke="#4DD2FF" stroke-linecap="round" stroke-linejoin="round" stroke-width="0.5"><title>2025-07-08 5.1km</title><desc>1751976330000</desc></polyline><polyline fill="none" points="11.740484281792305,88.25415402713406 11.682540294830687,88.5 12.049518879852258,88.34355259449512 12.165406854008324,87.09196934434294 12.841420037089847,86.53322452242719 12.976622673682868,85.95212840189924 14.927403573179618,72.43003512376163 15.101235534530133,68.33971749727789 14.637683637673035,65.3222212989931 15.699990068096668,65.27751734030608 15.97039534128271,65.67985264111485 19.69812517904211,66.2162985636096 22.69189784664195,66.17159478676331 24.87445469456725,67.04331679685856 31.82773314823862,68.07149728978402 33.10250086477026,61.5 38.31745970516931,62.66231994012196 33.662626073579304,61.56705708669324 32.79346626682673,65.43398115586024 32.658263630233705,68.11620068043703 19.64018119184766,66.3727617112163 15.97039534128271,65.7022045807098 15.642046081018634,65.21046138522797 14.579739650595002,65.38927721993241 15.004662222694606,67.17742756856023 15.081920872209594,71.04425297446141 12.89936402416788,86.01917803267133" stroke="#4DD2FF" stroke-linecap="round" stroke-linejoin="round" stroke-width="0.5"><title>2025-07-06 5.0km</title><desc>1751807521000</desc></polyline><polyline fill="none" points="53.109601379488595,86.82643208399531 54.279413212207146,78.50764349047677 50.493476735427976,78.23690888327837 49.30239559675101,78.65531678503612 50.85505493823439,78.50764349047677 50.642361877835356,78.26152113279386 54.55591419071425,78.48303126599058 54.83241516945418,78.23690888327837 54.70479933312163,77.47392790745653 56.299997286638245,67.4072764031589 56.151112144463696,62.386100647825515 58.89485262474045,62.115348016130156 75.69760440313257,64.8720879327011 75.67633509717416,64.0598374686524 57.19330814073328,61.5 57.49107842554804,67.57956980200834 55.555571575067006,81.26419680798426 56.08730422623921,82.1010014286876 55.59811018710025,83.0116384660796 55.70445671735797,84.9805717071722 54.9600310055539,85.15285260422388 54.61972210893873,88.5 52.896908318973146,88.30311025716946 53.00325484923087,86.85104346064327" stroke="#4DD2FF" stroke-linecap="round" stroke-linejoin="round" stroke-width="0.5"><title>2025-07-05 4.8km</title><desc>1751729502000</desc></polyline><polyline fill="none" points="104.34566448954865,88.5 104.6128736329265,88.3047179729183 104.65506455022842,87.19811532145832 105.02071916748537,85.58701837950503 105.21761011524359,85.52192321291659 105.47075561952079,83.16220555844484 99.97187272174051,82.93436890971498 100.32346369989682,81.7138099144795 100.84381834743544,76.21304193063406 100.90007290401263,72.19313043069269 100.70318195625441,71.65604959113989 100.91413654305506,68.36842457647435 100.90007290401263,61.5 93.51666236348683,64.15300461303559 93.36196233308874,64.52735141740413 93.41821688966593,64.20183250671835 97.39822676189942,62.68816087656887 97.46854495751904,66.04100565695262 97.86232685303548,66.88734372450563 100.80162743007531,66.88734372450563 100.81569106923416,71.18406797210628 101.12509112991393,71.3305451751803 101.23760024289368,71.85135192307644 106.38489216263406,72.17685528020957 106.63803766691126,73.46258707126253 106.60991038853535,75.80617288773647 104.8378918589442,87.89787965167488" stroke="#4DD2FF" stroke-linecap="round" stroke-linejoin="round" stroke-width="0.5"><title>2025-07-03 5.2km</title><desc>1751545471000</desc></polyline><polyline fill="none" points="137.0268631046638,88.5 137.668226451613,84.54589664766536 137.93108028237475,84.36339641709492 138.60398608905962,79.37494904701452 138.65655685518868,77.64719441740453 137.5105141531676,68.4726428541544 136.9532640320831,67.31664813787938 137.06891971756704,67.15845851862105 137.54205661290325,67.24363757034735 137.32125939504476,64.88293854891526 136.8060658868635,64.22582847361628 136.81658004008932,62.729064275677956 136.3224148383597,61.5 136.85863665299257,62.83858424209757 136.8060658868635,64.25016594817134 137.2792027821415,64.71257702404546 137.3528018547222,65.08980578878982 137.54205661290325,67.23146913808887 137.0268631046638,67.19496383392107 136.9532640320831,67.35315340491798 137.52102830645163,68.4726428541544 138.06776427431032,73.68056478968356 138.6775851615821,77.61069229005079 138.49884455668507,80.33615385473968 137.3422877014964,88.08634607310523" stroke="#4DD2FF" stroke-linecap="round" stroke-linejoin="round" stroke-width="0.5"><title>2025-07-01 5.0km</title><desc>1751376396000</desc></polyline><polyline fill="none" points="174.05114498367766,88.5 174.24611519253813,88.25935323357407 174.20712115080096,87.37196490111819 174.51907348487293,87.07115408949903 174.74003972153878,85.8979860827676 175.07798808347434,81.7617426396173 175.5459165846114,80.15233667822031 176.06583714153385,75.9256825432094 175.93585700233234,73.50395086301432 175.20796822267585,69.18685260904022 174.7140436937334,63.9520139771339 173.93416285846615,62.01146639265062 174.62305759621086,62.146854259452084 174.64905362407444,61.5 174.64905362407444,62.11676807749609 174.05114498367766,61.99642328869959 173.94716087233974,62.146854259452084 174.4410854013404,62.88396380489576 174.74003972153878,63.92192816233728 175.2859563062666,69.75846170312434 176.06583714153385,74.94796955458878 176.0008470718749,77.36967760315747 174.36309731780784,87.98862515375367" stroke="#4DD2FF" stroke-linecap="round" stroke-linejoin="round" stroke-width="0.5"><title>2025-06-30 4.1km</title><desc>1751292736000</desc></polyline><polyline fill="none" points="11.80313588847639,106.66440344061994 11.5,104.4734598604191 11.60452961671399,104.24346896374482 19.73693379794713,103.85611486788548 21.033101045293733,103.97716315856815 23.14459930313751,103.77138099104195 26.311846689903177,103.80769551710546 38.5,103.03298321942566 34.86236933799228,103.28718624914472 34.015679442556575,103.56559846693563 32.4477351916139,103.49296925563249 24.513937282259576,103.90453419898404 17.134146341471933,104.03768725762347 16.914634146320168,104.23136416738998 17.426829268282745,106.96701678057434 17.18641114985803,106.94280774176877 16.89372822298901,105.51446571711858" stroke="#4DD2FF" stroke-linecap="round" stroke-linejoin="round" stroke-width="0.5"><title>2025-06-26 5.0km</title><desc>1750950176000</desc></polyline><polyline fill="none" points="76.0,106.10503620783857 75.56404736277182,103.89496379215416 63.9483315392863,104.96074029371084 62.70828848227393,104.97195893882599 58.23250807315344,104.41102528154443 49.0,104.80367914179078 57.92249730892945,104.3998065792257 62.71797631861409,104.9831775828352 70.98170075350208,104.23152590745303" stroke="#4DD2FF" stroke-linecap="round" stroke-linejoin="round" stroke-width="0.5"><title>2025-06-24 5.0km</title><desc>1750769966000</desc></polyline><polyline fill="none" points="113.5,106.08125815037783 113.130403458199,103.91874184961489 101.6340057636844,105.01126839474455 100.233429394837,105.05632080390933 95.7010086455266,104.47063805232028 86.5,104.8761110570922 95.4578530259314,104.47063805232028 100.2237031700206,105.05632080390933 109.959654178645,104.18905870145682" stroke="#4DD2FF" stroke-linecap="round" stroke-linejoin="round" stroke-width="0.5"><title>2025-06-22 5.0km</title><desc>1750563938000</desc></polyline><polyline fill="none" points="138.42269060903345,118.5 137.02724332752405,110.1631483968813 137.00768098243861,107.88998530217941 137.13157583452994,106.93840794199059 137.05332645427552,104.4914385842203 137.079409581027,104.06849741340557 137.22286677817465,103.82681565982057 137.079409581027,103.71352706628386 137.07288879930275,102.16523225016135 135.48833884883788,92.63306504517823 135.09057116578333,91.5 135.49485963050392,92.48954443218827 137.05332645427552,102.00662461162574 137.13809661622508,106.64386961449054 137.02724332752405,107.89753745454072 137.0207225457998,110.08762914865656 138.09013074287213,116.4913878494408 138.24010872171493,116.92936055468454 139.90942883418757,116.8387457246572" stroke="#4DD2FF" stroke-linecap="round" stroke-linejoin="round" stroke-width="0.5"><title>2025-06-21 8.0km</title><desc>1750517001000</desc></polyline><polyline fill="none" points="177.73922796652187,118.5 175.45210558676627,104.43581285400433 171.42747938341927,104.35368332975486 164.1760603650473,103.65558102146315 164.31789741187822,102.91641123416775 164.0342233182164,101.49966155918082 164.4242751969723,92.23921169007372 164.37108630430885,91.58213476624223 164.01649368740618,91.5 163.57325291610323,102.89587870138348 164.24697888852097,102.97800882003503 164.2824381501414,103.67611347688944 175.5052944793133,104.41528047611064 176.87047605484258,113.20294697614736 177.29598719533533,114.37323811976239 186.42674708389677,114.0857988196658" stroke="#4DD2FF" stroke-linecap="round" stroke-linejoin="round" stroke-width="0.5"><title>2025-06-19 5.0km</title><desc>1750345525000</desc></polyline><polyline fill="none" points="38.5,135.6759281525956 38.25217391308979,134.20323694503895 30.608695652190363,134.92825781260763 29.623913043469656,134.95091460038384 26.35000000000582,134.5733005658767 14.219565217383206,135.12461641010304 13.169565217394847,135.29831781263056 11.5,135.79676305496105 13.854347826068988,135.1623776191991 18.11956521740649,134.973571381277" stroke="#4DD2FF" stroke-linecap="round" stroke-linejoin="round" stroke-width="0.5"><title>2025-06-17 5.1km</title><desc>1750166247000</desc></polyline><polyline fill="none" points="49.93103448266629,145.1887884356256 49.0,139.20505966164637 70.04137931042351,138.5851160576858 66.61982758634258,125.08076648047427 70.762931034551,125.32336567013408 76.0,124.81121156437439 67.73706896556541,125.2964102156111 70.78620689664967,137.4530413786124 61.75517241389025,137.88430849451106" stroke="#4DD2FF" stroke-linecap="round" stroke-linejoin="round" stroke-width="0.5"><title>2025-06-16 3.2km</title><desc>1750084948000</desc></polyline><polyline fill="none" points="113.5,136.24813276056375 113.08629032265162,133.75186723943625 99.81491935480153,134.97479149090213 98.61733870970784,134.9873988944746 93.36975806450937,134.34441967524617 86.5,134.6722134202937 93.15201612905366,134.3318122061537 98.60645161295542,134.96218408609275 109.86370967747644,134.0166250615439" stroke="#4DD2FF" stroke-linecap="round" stroke-linejoin="round" stroke-width="0.5"><title>2025-06-15 4.6km</title><desc>1749956754000</desc></polyline><polyline fill="none" points="151.0,136.08587058149715 150.6713211600436,133.91412941849558 139.1095596133964,134.97761628103763 137.90118152525974,135.0000053674812 132.81632653065026,134.42908223781706 124.0,134.83208710800682 132.99033297528513,134.42908223781706 137.82384532765718,135.0000053674812 140.34693877556128,134.876865335631 140.82062298600795,134.72014145906724 146.9495166487759,134.17160612992302" stroke="#4DD2FF" stroke-linecap="round" stroke-linejoin="round" stroke-width="0.5"><title>2025-06-14 5.1km</title><desc>1749906363000</desc></polyline><polyline fill="none" points="188.5,136.6031278822411 188.17538896744372,134.4140393822163 176.98585572838783,135.49753315105045 175.47736916545546,135.5085891541603 170.89462517679203,134.95578761938668 162.26379066478694,135.36486102611525 162.14922206505435,135.1105723330984 162.196958981629,133.40792833494925 161.5,133.39687211776618 162.22560113156214,133.4300407659539 162.14922206505435,135.09951628942508 162.2924328147201,135.36486102611525 171.13330975954887,134.9447315599682 175.68741159827914,135.51964515614236 184.7574257425731,134.70149796747137 184.74787835928146,134.2592536746306 187.65983026870526,134.1044677462196" stroke="#4DD2FF" stroke-linecap="round" stroke-linejoin="round" stroke-width="0.5"><title>2025-06-12 5.9km</title><desc>1749735885000</desc></polyline><polyline fill="none" points="38.5,173.49395450744487 37.63929313933477,169.16043322924816 13.988565488602035,171.26220208083396 11.761954261921346,165.17351563402917 11.5,157.56782958049735 15.915800415794365,157.37280841091706 19.67671517666895,157.61116759384458 19.88253638264723,156.9177583195269 19.489604989648797,156.7660747392365 11.612266112235375,156.50604549255513 11.780665280646645,164.95683318760712 12.435550935566425,167.42699998401804 13.726611226564273,170.50383427276392 24.204781704815105,169.59378933210974 24.410602910560556,170.41716349385388 37.58316008327529,169.13876540087222 38.38773388788104,173.42895234079333" stroke="#4DD2FF" stroke-linecap="round" stroke-linejoin="round" stroke-width="0.5"><title>2025-06-10 5.3km</title><desc>1749559786000</desc></polyline><polyline fill="none" points="49.70892723184079,157.81136312570015 49.060765191330574,155.1843418331846 49.0,153.14368852811458 67.37134283571504,152.6745702677872 68.20180045010056,155.74727749169688 67.59414853714406,155.72382186680625 67.41185296326876,156.14602274999197 67.79669917479623,158.32738164174953 67.69542385591194,159.80506462824997 68.36384096019901,162.76040213982924 70.08552138041705,162.69003740198968 72.63765941490419,172.5174374926719 72.67816954245791,172.96306144281698 72.03000750183128,173.15069232168025 72.61740435112733,172.98651531108771 72.81995498866308,173.36177687748568 72.29332333081402,173.45559217360278 72.47561890468933,174.32338184933178 73.69092273060232,177.4192534990143 74.54163540888112,177.3254398182762 76.0,176.52802198873542 74.46061515377369,176.85637084134214 71.72618154541124,165.95024766400456 71.40210052521434,165.01206239295425 70.67291822959669,165.01206239295425 70.12603150785435,162.6196726425842 69.53863465867471,162.85422175684653 68.34358589653857,162.69003740198968 67.6751687922515,159.99270623335906 67.53338334581349,156.5213117737876 66.41935483866837,152.5807465009857 49.060765191330574,153.1906003015465 49.78994748683181,157.95209556295595" stroke="#4DD2FF" stroke-linecap="round" stroke-linejoin="round" stroke-width="0.5"><title>2025-06-08 5.0km</title><desc>1749355299000</desc></polyline><polyline fill="none" points="113.5,166.11104457739566 113.02512562810443,163.88895542260434 104.3223259152146,164.61843407912238 101.7056712131598,164.988782932116 100.25197415647563,164.988782932116 95.64860014355509,164.4276478202446 86.5,164.83166538903606 95.21249102655565,164.4276478202446 100.20351758797187,165.00000560516492 110.69921033742139,164.05729707995488" stroke="#4DD2FF" stroke-linecap="round" stroke-linejoin="round" stroke-width="0.5"><title>2025-06-07 5.3km</title><desc>1749293029000</desc></polyline><polyline fill="none" points="151.0,166.06960941148282 150.6013683832134,163.9303905885099 138.28267915017204,165.05630039593234 133.28519985597814,164.48208782799338 124.0,164.86489653825993 133.2463089664816,164.45956962725177 137.68959308607737,165.05630039593234 147.20813827874372,164.18935086035344" stroke="#4DD2FF" stroke-linecap="round" stroke-linejoin="round" stroke-width="0.5"><title>2025-06-05 5.1km</title><desc>1749128617000</desc></polyline><polyline fill="none" points="161.8779527558945,164.8291006013751 161.5,162.3535048525082 161.64173228346044,162.24408520200814 172.23622047243407,161.87479322293075 174.23228346457472,169.19205598090775 184.69685039372416,169.05528837315796 188.5,168.8227831201075 185.37007874023402,168.93219740698987 184.7913385826978,160.80794401909225 174.77559055120219,161.39607988562784 172.62598425202304,161.32769212657877 172.8149606299121,161.87479322293075 167.26377952756593,162.03892311688105" stroke="#4DD2FF" stroke-linecap="round" stroke-linejoin="round" stroke-width="0.5"><title>2025-06-03 5.2km</title><desc>1748952979000</desc></polyline><polyline fill="none" points="33.82812387138256,186.95102627472806 33.23583360738121,186.07437200300046 32.81598228102666,185.15430930953153 32.54607785696862,184.9025923143563 31.87881414181902,184.84183292830858 31.36899467409239,184.25159663868544 31.136576975579374,183.479075319985 30.791699100343976,182.9495903725183 30.379345119086793,181.5 29.187267246015836,182.0121335466174 28.632463707588613,182.07289494965516 27.192973445751704,182.6110654857912 26.578191146429162,183.4009547968526 26.578191146429162,183.60059599143278 24.089072568691336,186.76875236649357 24.074077878438402,186.95102627472806 23.391819473094074,187.88842879005097 22.79952920912183,188.43524216420337 22.69456637755502,188.3397670659033 22.274715051142266,188.7043077751805 21.997313281928655,188.53939669500687 21.989815936860396,188.695628252608 21.952329211257165,188.46996035530174 22.342191157164052,188.7477053748662 22.282212396268733,189.06016744037333 21.382530982635217,190.05830247803533 19.845575234328862,190.40547714347485 19.845575234328862,190.24924871899566 19.74061240273295,190.44019453226792 19.3207610763493,190.53566727857833 18.953391165763605,190.43151518639206 18.338608866470167,190.48359124838316 18.23364603484515,190.38811844377778 17.986233646108303,190.52698794243042 17.243996479868656,190.26660744694527 17.146530993370106,189.1296032993996 16.861631879059132,188.8778980413117 15.459628342825454,189.2337569819574 14.93481418484589,189.55489670216775 15.534601793944603,192.15000843884627 16.47926727824961,195.0488024101578 18.473561078484636,202.8420772903337 18.750962847698247,203.64913522416464 21.105129213421606,208.4132248777314 21.40502301795641,208.5 22.439656643691706,208.17025406586617 23.144407084357226,208.37851480412792 24.433950443926733,208.10951125479914 24.411458408547333,207.5975344143153 24.75633628378273,207.50208076529088 25.37861592823174,207.7884413920401 25.85094867038424,207.56282400886266 26.045879643352237,207.84918443171773 27.26044955177349,208.11818880186183 27.97269733759458,207.98802550288383 28.692442468483932,207.45001509351277 28.81989733543014,206.4347281429291 29.359706183633534,205.68844114096282 29.217256626463495,204.94214761032345 29.389695564081194,204.57767630389571 29.0223256534955,204.1698137098865 28.789907955011586,203.56235516754532 28.6999398136104,202.65983734526526 29.187267246015836,202.2693218661734 29.929504412255483,202.5730562821991 30.341858393512666,202.5470219460476 30.44682122510858,201.98294271186023 30.27438228749088,201.28868622577284 30.13193273032084,201.22793851438473 30.27438228749088,201.15851250554988 30.10944069499965,201.10644296182727 30.244392907014117,201.18454726548953 30.25938759726705,200.77666844679334 30.064456624299055,200.32539599156007 29.179769900860265,200.26464759409282 28.767415919632185,199.95222658084094 28.93985485722078,198.77195909165312 29.64460529794451,197.5656394122998 30.184414146118797,196.96681251468544 30.431826534855645,196.88002565894567 30.964138037961675,196.14233381917438 31.901306177169317,195.2484163326153 32.73351148478105,194.20694724864734 32.49359644114156,193.7209239898366 31.751359274901915,193.71224497790536 31.653893788403366,193.42583708835446 31.93879290271434,192.74019005086302 32.26867608772591,192.42774147097953 32.57606723741628,192.47113717553293 32.703522104304284,192.3149125357886 32.44111502537271,191.71604876507627 32.79349024567637,190.97831225095433 33.12337343071704,190.78736764272617 33.40077519993065,190.90019859925815 33.36328847432742,190.69189517828636 34.19549378196825,190.3100042514052 34.2704672330874,190.0756612448895 34.99770970913232,189.63301158633112 35.06518581515411,188.9994110173211 34.11302298569353,187.18537786986417 33.96307608339703,187.11594042734941" stroke="#4DD2FF" stroke-linecap="round" stroke-linejoin="round" stroke-width="0.5"><title>2025-06-02 11.5km</title><desc>1748829019000</desc></polyline><polyline fill="none" points="76.0,196.26263021256455 75.50541215651901,193.73736978744273 61.24104912573239,195.06509025622654 55.328476269729435,194.3882148791963 49.0,194.66156882866198 55.40716069936752,194.3621811392004 60.58909242291702,195.0390566542119 75.48293089086656,193.7503867218038 75.98875936720287,196.18453012289683" stroke="#4DD2FF" stroke-linecap="round" stroke-linejoin="round" stroke-width="0.5"><title>2025-06-01 4.9km</title><desc>1748740054000</desc></polyline><polyline fill="none" points="113.5,208.0111600077944 113.40223295113537,208.218719774668 113.20669885334792,208.06776724004885 112.55491852742853,204.44486948511621 91.95866022934206,206.23745796419098 90.05220277613262,200.8973800696549 89.9707302353927,194.17960747845063 89.51448400726076,191.65094452886842 86.5,181.78128022531746 88.48792999394936,188.38627634763543 89.02564876287943,189.40531190379988 89.90555220283568,193.19833939056844 90.78545564279193,193.44365690021368 89.87296318652807,193.4247863341152 90.05220277613262,200.2746754460095 90.67139408568619,202.82209020935989 91.7468316234299,205.48268598319555 92.02383826189907,205.65250994720554 100.85546167771099,204.7467803391337 101.09987929993076,205.46381664427463 108.12281231139787,204.78451916128688" stroke="#4DD2FF" stroke-linecap="round" stroke-linejoin="round" stroke-width="0.5"><title>2025-05-31 5.5km</title><desc>1748696141000</desc></polyline><polyline fill="none" points="149.10649350646418,202.45134619038436 148.49285714281723,198.4922928003798 126.27922077919357,200.48198074942047 124.22792207787279,194.63467791416042 124.0,187.58926211578364 131.53896103880834,187.67047870339593 124.10519480518997,187.54865380961564 124.24545454536565,194.53316072409507 124.78896103892475,196.70561729859037 126.15649350639433,199.83228891035833 145.8279220778495,197.94410997556406 147.58116883109324,197.84259447203658 147.66883116879035,198.59380797277845 151.0,198.32986841695674" stroke="#4DD2FF" stroke-linecap="round" stroke-linejoin="round" stroke-width="0.5"><title>2025-05-29 5.0km</title><desc>1748526381000</desc></polyline><polyline fill="none" points="177.86687797133345,192.34929061686853 177.26782884297427,187.44378960411996 187.40887480182573,186.9482789465983 188.5,190.937111078194 187.32329635485075,187.04738115885993 177.2250396196032,187.51811611559242 177.50316957198083,189.97087824605114 177.1180665610591,187.54289161435736 162.69809825660195,188.88076479898882 164.85895404114854,199.7073565380706 165.69334389851429,202.23431770293973 165.13708399352618,202.58115346009436 166.01426307437941,204.90989501531294 164.83755942934658,201.83793337465613 161.92789223440923,188.93031551635067 166.97702060220763,188.211829127089 176.1125198097434,187.64199358428596 176.0055467511993,186.92350338718097 162.59112519805785,187.8401974028675 161.84231378755067,185.0901049847016 161.5,185.38741377313272 161.67115689371713,188.03840105980635 171.79080824076664,187.04738115885993" stroke="#4DD2FF" stroke-linecap="round" stroke-linejoin="round" stroke-width="0.5"><title>2025-05-27 6.0km</title><desc>1748352132000</desc></polyline><polyline fill="none" points="34.902050113887526,227.0120401615859 35.0096810934192,226.94081911250396 34.6637243735895,225.21369089363725 25.56890660591307,226.08616199400421 24.515660592296626,226.1039674359272 20.725512528500985,225.65883029899123 11.669134396361187,226.059453824324 11.5,223.10369925123814 12.576309794996632,222.9879598384141 14.060079726681579,223.09479622493382 14.067767653759802,225.65883029899123 20.948462414584355,225.382844134896 25.130694760824554,225.7923716782534 34.64834851937485,224.8486748884825 38.33855353077524,224.71513206644886 38.5,225.00892600539373 38.392369020497426,225.04453732479305 34.98661731209722,225.18698245715495" stroke="#4DD2FF" stroke-linecap="round" stroke-linejoin="round" stroke-width="0.5"><title>2025-05-25 7.6km</title><desc>1748179850000</desc></polyline><polyline fill="none" points="75.98230668413453,226.49058949661412 75.91153342067264,225.90665418278513 75.56651376141235,225.90665418278513 75.34534731321037,224.8104857486178 75.16841415461386,224.5646145519131 66.63138925295789,225.29198176666978 65.23361730010947,225.5480957301843 59.62483617296675,225.02562255236262 49.150393184798304,225.49687298970093 49.0,223.7143053600521 51.60091743117664,223.5094105033786 51.58322411531117,225.0051333528172 51.928243774571456,225.04611174775346 59.27981651376467,224.7285287499035 64.60550458711805,225.18953599854285 75.66382699867245,224.12409382039914 76.0,226.37790048967872" stroke="#4DD2FF" stroke-linecap="round" stroke-linejoin="round" stroke-width="0.5"><title>2025-05-24 6.6km</title><desc>1748094255000</desc></polyline><polyline fill="none" points="113.5,226.2030372157751 113.20628525386564,223.79696278423216 102.0886381950113,224.74176199414796 100.54391619662056,225.0063044787239 98.78162771958159,225.03149897148978 93.70145044318633,224.41423241922166 86.5,224.703970164388 93.66881547140656,224.40163511056016 98.71635777596384,225.04409621599916 110.23650282033486,224.07410463433916" stroke="#4DD2FF" stroke-linecap="round" stroke-linejoin="round" stroke-width="0.5"><title>2025-05-18 4.7km</title><desc>1747565909000</desc></polyline><polyline fill="none" points="147.49069567702827,225.96672524152382 147.19696535929688,224.2391534551498 139.36673346691532,224.90154250922205 138.06040652733645,225.13427261247125 137.00916117947781,225.12532146604644 133.43028914972092,224.6598605953768 124.05410821642727,225.08951687128865 124.0,224.8209819451513 129.27941597480094,224.4808365267163 132.85828800458694,224.41817801647267 137.04008016031003,225.08951687128865 147.29745204694336,224.17649477245868 150.75264815342962,224.0332747584689 150.89178356711636,224.05117727299512 150.91497280274052,224.17649477245868 151.0,224.12278729458922" stroke="#4DD2FF" stroke-linecap="round" stroke-linejoin="round" stroke-width="0.5"><title>2025-05-17 5.7km</title><desc>1747487200000</desc></polyline><polyline fill="none" points="187.02453131228685,223.883791242617 183.44894295971608,224.07086714363686 181.70422816107748,224.38265967639018 173.69146390102105,224.99377073609503 168.6727163940668,224.3452446144147 161.5,224.6320931306036 168.57578779413598,224.37018799035286 173.4976067012176,224.98129911229626 187.7999601116171,223.73413031590462 188.27383326686686,226.15362619120424 188.5,226.26586968409538" stroke="#4DD2FF" stroke-linecap="round" stroke-linejoin="round" stroke-width="0.5"><title>2025-05-11 5.0km</title><desc>1746965499000</desc></polyline><polyline fill="none" points="38.5,255.9700661204988 38.06420373020228,254.0299338795012 25.81348637008341,255.14018715215934 20.835724533651955,254.56823989559052 11.5,254.9607530387293 20.60329985647695,254.5794545762401 25.25179340026807,255.14018715215934 38.14167862263275,254.05236334940855" stroke="#4DD2FF" stroke-linecap="round" stroke-linejoin="round" stroke-width="0.5"><title>2025-05-10 5.3km</title><desc>1746870058000</desc></polyline><polyline fill="none" points="75.94104803493246,254.5448839132514 75.87227074237308,254.35145821388141 76.0,254.49937201412104 75.47925764194224,254.5903957937844 63.44323144108057,255.6485417861113 58.34388646291336,255.0455135788361 49.0,255.43236223729036 58.29475982533768,255.0455135788361 60.682314410456456,255.2389380756431 62.853711790405214,255.6371639255376 72.70851528388448,254.7496872296324" stroke="#4DD2FF" stroke-linecap="round" stroke-linejoin="round" stroke-width="0.5"><title>2025-05-05 5.4km</title><desc>1746434825000</desc></polyline></svg>