<?xml version="1.0" encoding="utf-8" ?>
<svg baseProfile="full" height="300mm" version="1.1" viewBox="0,0,200,300" width="200mm" xmlns="http://www.w3.org/2000/svg" xmlns:ev="http://www.w3.org/2001/xml-events" xmlns:xlink="http://www.w3.org/1999/xlink"><defs /><rect fill="#222222" height="300" width="200" x="0" y="0" /><text fill="#FFFFFF" style="font-size:12px; font-family:Arial; font-weight:bold;" x="10" y="20">Over 3km Runs</text><text fill="#FFFFFF" style="font-size:4px; font-family:Arial" x="10" y="280">Runner</text><text fill="#FFFFFF" style="font-size:9px; font-family:Arial" x="10" y="290">tang-hi</text><text fill="#FFFFFF" style="font-size:4px; font-family:Arial" x="65" y="280">SPECIAL TRACKS</text><rect fill="yellow" height="2.6" width="2.6" x="65" y="283" /><text fill="#FFFFFF" style="font-size:3px; font-family:Arial" x="70" y="285.5">Over 20.0 km</text><rect fill="red" height="2.6" width="2.6" x="65" y="287" /><text fill="#FFFFFF" style="font-size:3px; font-family:Arial" x="70" y="289.5">Over 40.0 km</text><text fill="#FFFFFF" style="font-size:4px; font-family:Arial" x="120" y="280">STATISTICS</text><text fill="#FFFFFF" style="font-size:3px; font-family:Arial" x="120" y="285">Number: 61</text><text fill="#FFFFFF" style="font-size:3px; font-family:Arial" x="120" y="290">Weekly: 3.6</text><text fill="#FFFFFF" style="font-size:3px; font-family:Arial" x="141" y="285">Total: 323.7 km</text><text fill="#FFFFFF" style="font-size:3px; font-family:Arial" x="141" y="290">Avg: 5.3 km</text><text fill="#FFFFFF" style="font-size:3px; font-family:Arial" x="167" y="285">Min: 3.2 km</text><text fill="#FFFFFF" style="font-size:3px; font-family:Arial" x="167" y="290">Max: 11.5 km</text><polyline fill="none" points="23.64017779560527,31.285714285717404 23.83075772775919,32.273284328810405 23.79761339176912,33.174552823424165 23.283876183413668,36.39603792142589 23.10158233527909,36.73160296167043 23.076724083250156,37.78622817771247 22.347548690799158,42.081307328779076 22.405551278876374,42.62776543759537 21.8503836504824,46.24197889013885 21.80895323047298,47.7087156992784 21.941530574520584,47.86209862463875 21.89181407049182,48.485214196341985 22.521556454885285,53.920524868764915 23.21758751134621,54.42857142857247 22.993863243202213,54.22727028844383 22.22325743068359,47.88127147278283 22.19011309472262,46.64461479320744 22.761852891067974,42.608591522417555 22.902716319193132,42.407265177920635 23.035293663240736,40.71994179090689 23.61531954363454,37.402729462701245 23.573889123566914,36.952116481304984 23.731324719672557,36.741190516717324 23.665036047634203,36.45356344164611 23.905332483787788,34.8044846235498" stroke="#4DD2FF" stroke-linecap="round" stroke-linejoin="round" stroke-width="0.5"><title>2025-08-26 5.0km</title><desc>1756206850000</desc></polyline><polyline fill="none" points="49.299477676919196,31.285714285717404 49.31611879929551,32.07520600682619 49.44924777862616,32.1040897255516 49.37436272777268,33.08613092351152 48.90841130024637,36.28250827113516 48.7503206373367,36.63872437072132 48.55894772961619,38.80487452735542 47.98482900642557,42.06844727585849 47.89330283316667,43.57985735010152 47.468954211712116,46.41970281757676 47.5438392625656,48.56637699787825 48.18452247537789,54.29381240843213 48.20948415901512,54.42857142857247 48.708717831323156,54.3708175862339 48.35093369949027,50.63599442232953 47.90994395560119,48.09469042576529 47.868341149558546,46.80476005990204 48.400857066735625,42.86747598651709 48.59222997445613,42.31874615071138 49.23291318723932,37.07195836297615 49.42428609498893,36.68686157875345 49.357721605338156,36.37878302469471 49.6739029311575,33.98151255738776" stroke="#4DD2FF" stroke-linecap="round" stroke-linejoin="round" stroke-width="0.5"><title>2025-08-24 5.0km</title><desc>1756042259000</desc></polyline><polyline fill="none" points="73.99067887949059,54.42857142857247 74.24883485992905,54.055167945683934 75.14316093496745,47.963169256159745 75.30911835096776,45.2851385282047 74.82046595943393,42.20158425628324 74.3318135679001,37.49605520728073 73.7970618942054,36.40767150557076 73.92613988439552,36.258284626266686 74.32259371149121,36.300966613489436 74.11975686968071,34.20952882358688 73.67720376042416,33.70800438157312 73.75096261192812,32.63025225736783 73.2530903639854,31.285714285710128 73.72330304264324,32.42750557112595 73.69564347324194,33.71867513932375 74.13819658261491,34.24154094061669 74.3502532808343,36.31163710755936 74.23961500352016,36.41834198879951 73.85238103283336,36.27962562203902 73.85238103283336,36.429012470944144 74.21195543417707,37.07990983068885 74.41479227592936,37.86951760172815 74.65450854349183,40.77180862773821 75.31833820743486,45.3918342863617 75.17082050431054,47.824468147147854 74.1566362954909,54.343222178154974" stroke="#4DD2FF" stroke-linecap="round" stroke-linejoin="round" stroke-width="0.5"><title>2025-08-23 5.0km</title><desc>1755956696000</desc></polyline><polyline fill="none" points="100.81703294042381,31.285714285717404 100.82541276540724,31.925684388319496 100.934350490832,32.042042127708555 100.89245136571117,33.01168443844654 100.3896618638828,36.133865745221556 100.20530571319978,36.53140323948173 99.77793463668786,40.516382729736506 99.56005918592564,41.83497677977721 99.41760216039256,41.97071336853696 99.4846407606965,42.44578990940499 98.88129335851409,47.01222138530284 99.65223726126715,54.27346412258339 99.67737673633383,54.38979462568386 100.12988728797063,54.42857142857247 99.30028460998437,46.818322153667395 100.54887853947002,37.74339757569396 100.70809521502815,36.75441135273286 100.85893206557375,36.570187296580116 100.79189346532803,36.20173811754648 101.11870664148591,33.68073188862036" stroke="#4DD2FF" stroke-linecap="round" stroke-linejoin="round" stroke-width="0.5"><title>2025-08-21 5.0km</title><desc>1755781186000</desc></polyline><polyline fill="none" points="126.35939778634929,31.285714285717404 126.38436986660236,33.07724825726473 125.88492826238507,36.294218900548 125.71012370087556,36.63132028385735 125.63520746026188,37.19957418822014 125.7267717543582,37.478884180840396 124.95263726788107,42.04404122442065 125.00258142829989,42.52558505949128 124.45319566366379,46.47415227242891 124.48649177059997,48.140205703479296 125.18571001649252,54.42857142857247 125.66850356719806,54.34190459638921 125.33554249774897,50.69219611683366 124.90269310743315,48.09205428093992 124.8777210272383,46.25265163514268 125.41878276510397,42.573739308492804 125.5602912196191,42.36186042994814 126.13464906447916,37.57519778062124 126.40934194679721,36.65058318384399 126.41766597353853,35.59111787244183 126.97537576488685,32.04663876489212" stroke="#4DD2FF" stroke-linecap="round" stroke-linejoin="round" stroke-width="0.5"><title>2025-08-19 5.3km</title><desc>1755607955000</desc></polyline><polyline fill="none" points="151.1778136906214,54.314580079648294 151.5808171980898,54.42857142857247 151.5808171980898,53.66171808146464 151.73306296759984,53.31974108105351 151.92113127111224,50.956959562980046 152.46742491453188,47.381593955200515 152.41369111352833,45.03940243340185 151.80470803560456,41.11144719742879 151.52708339714445,37.87776624570688 151.35692636063322,37.02787153660029 150.91810031922068,36.29198136917694 151.01661228766898,36.11578152667062 151.44648269563913,36.20906383417605 151.25841439212672,34.27084723731241 150.7927214502124,33.63858679205441 150.82854398415657,32.41551447088568 150.38971794268582,31.285714285717404 150.86436651821714,32.4673398670202 150.81063271715539,33.62822183404933 151.23154749162495,34.084278989255836 151.44648269563913,36.19869913755247 150.9987010206678,36.13651093572116 150.95392285316484,36.271251991747704 151.4733495961409,37.46318434600835 151.74201860110043,40.58287174732686 152.40473548002774,45.163767937636294 152.39577984652715,46.23123227633914 151.73306296759984,50.82223791439901 151.53603903058683,50.915506766985345 151.41066016163677,51.22640232615231 151.1778136906214,52.74977686531929" stroke="#4DD2FF" stroke-linecap="round" stroke-linejoin="round" stroke-width="0.5"><title>2025-08-17 5.0km</title><desc>1755429603000</desc></polyline><polyline fill="none" points="176.81000824738294,54.3765240859575 176.69306133821374,54.42857142857247 176.8280000796076,54.29324828276731 176.9809306532261,52.00313716610253 177.10687347850762,51.20158617947163 177.5206856187433,50.85806240799866 177.51168970263097,50.066912370486534 178.06943650037283,46.92307156996685 178.15039974520914,45.50727068864944 177.16984489111928,37.2931573275564 176.65707767382264,36.29367651676148 176.7560327508836,36.17915205081226 177.18783672328573,36.21038600877364 176.99892248533433,34.1905704464516 176.567118512874,33.649169812662876 176.59410626121098,32.47265471848368 176.1353145405301,31.285714285717404 176.62109400948975,32.493478112024604 176.55812259681989,33.597111908537045 176.989926569222,34.107278227616916 177.20582855551038,36.199974690513045 176.74703683477128,36.14791808334121 176.6840654221014,36.30408782547602 177.22382038767682,37.418091742903925 178.15039974520914,45.01798200990015 178.14140382909682,46.25681476968748 177.53867745090974,50.69150501317199 177.08888164628297,53.56458211725112 176.89996740833158,53.710315765019914 176.83699599571992,54.14751546431944" stroke="#4DD2FF" stroke-linecap="round" stroke-linejoin="round" stroke-width="0.5"><title>2025-08-16 5.1km</title><desc>1755350047000</desc></polyline><polyline fill="none" points="22.72214339405764,81.15180078841513 22.398144682811107,81.2142857142826 22.551144074241165,81.05807332820405 22.983142355980817,77.82963070541882 23.226141389401164,77.70465668821271 23.172141604183707,77.36097735509975 23.820139026734978,73.53876889802632 23.86513884778833,71.88278145840013 22.893142713874113,64.10240671067731 22.407144646975212,63.12330832490261 22.506144253187813,62.93582033237908 22.902142678096425,62.99831636801537 22.704143465671223,60.94634327098174 22.281145148153882,60.46719642478274 22.34414489759365,59.43598147886951 21.840146902250126,58.07142857142753 22.30814504076261,59.165155630260415 22.299145076598506,60.415115110787156 22.704143465671223,60.90467841681675 22.938142534927465,62.98790036471473 22.47014439641498,62.946236340969335 22.425144575361628,63.09206034998351 22.812143036047928,63.717018037357775 22.974142391700298,64.34197191194835 23.262141246232204,67.68541038095282 23.82913899095729,71.455761488789 23.874138811952434,72.9659460818657 23.190141532570124,77.35056281183643 23.24414131778758,77.66299864862958 22.95614246337209,79.26682094907301 22.72214339405764,79.79795137330075" stroke="#4DD2FF" stroke-linecap="round" stroke-linejoin="round" stroke-width="0.5"><title>2025-08-14 4.9km</title><desc>1755170321000</desc></polyline><polyline fill="none" points="49.516763314721175,58.090789228328504 49.31598425414995,58.07142857142753 49.374544813501416,59.823552089132136 48.88932875057799,63.11474672393524 48.713647072640015,63.463219499986735 48.713647072640015,64.37311462903017 48.220065215515206,67.84805968927685 48.06111512595089,68.79662991756777 47.93562821310479,68.8740638051022 48.010920360829914,69.35802417658124 47.433680561807705,73.33608530435595 47.48387532695779,75.02985655401426 48.18660203876789,81.13686185114784 48.66345230748993,81.2142857142826 47.84360447706422,73.54901820129453 49.207228929706616,63.88912893991801 49.39964219604735,63.49225884043699 49.31598425414995,63.153465984229115 49.70917658103281,60.40435940365569" stroke="#4DD2FF" stroke-linecap="round" stroke-linejoin="round" stroke-width="0.5"><title>2025-08-12 5.0km</title><desc>1754999139000</desc></polyline><polyline fill="none" points="74.90974947094219,58.148968453358975 75.01864151668269,58.071428571420256 75.02701782793156,59.709445179287286 74.50768653280102,63.04354593918106 74.33178399736062,63.37307282631082 74.15588146194932,65.6118871299841 73.60304492199793,68.85855912906845 73.04183207082679,73.53938729699439 73.09208993808716,74.9736323763209 73.67843172288849,79.8285858207164 74.28990244132001,81.2142857142826 73.46902394259814,73.5975327869819 74.7087180019007,64.65240171854384 75.01026520549203,63.411840620523435 74.93487840457237,63.140465730008145 75.28668347548228,60.52359681566304 75.52959650062257,59.53498321031657" stroke="#4DD2FF" stroke-linecap="round" stroke-linejoin="round" stroke-width="0.5"><title>2025-08-10 5.0km</title><desc>1754830447000</desc></polyline><polyline fill="none" points="99.67090895026922,81.2142857142826 100.92415979719954,73.75446659719455 101.00530553550925,72.00159128505038 100.33810724288924,67.37928248385288 100.02254048286704,64.00893512860785 99.51763366680825,63.11154844304838 99.58976321195951,62.92372232969501 100.04958906228421,63.01763542935805 99.85123281314736,60.951527382901986 99.41845554223983,60.44021139441611 99.445504121657,59.27147956727276 98.98567827133229,58.07142857142753 99.46353650797391,59.313220218878996 99.42747173539829,60.45064644006925 99.85123281314736,60.961962376539304 100.06762144854292,62.98633107235946 99.60779559821822,62.965461495703494 99.55369843938388,63.08024411471706 100.06762144854292,64.18632459107175 100.48236633313354,68.28706610161316 100.96924076293362,71.27121773706313 101.0143217286095,72.93020157758292 99.9684433239745,80.33791548358568 99.67992514336947,80.64047271820164" stroke="#4DD2FF" stroke-linecap="round" stroke-linejoin="round" stroke-width="0.5"><title>2025-08-09 5.0km</title><desc>1754735080000</desc></polyline><polyline fill="none" points="126.40922814203077,58.07142857142753 126.45946494405507,59.69907134672394 126.13292573101353,62.25673957532854 125.71428571426077,64.01994060364814 125.62218491060776,65.61841885621834 125.06120728814858,68.89279368591815 125.09469848952722,69.39653368236759 124.52534806678887,73.23262023155257 124.5086024661141,74.55002850935125 125.22866329489625,80.67186357675382 125.78964091726812,81.2142857142826 124.96910648449557,74.89875118459167 125.01097048618249,72.83545681383839 126.20828093399177,64.6012085227776 126.35899134003557,63.661490287442575 126.50132894571288,63.47742068257503 126.43434654304292,63.08021664044645 126.91996896243654,59.79595396912919" stroke="#4DD2FF" stroke-linecap="round" stroke-linejoin="round" stroke-width="0.5"><title>2025-08-07 5.0km</title><desc>1754570205000</desc></polyline><polyline fill="none" points="151.82965706009418,58.071428571420256 151.88141004482168,58.73016223349987 152.05391999389394,58.80002766584221 151.99354151176522,59.26912285298749 152.4593183741963,59.33898790197418 152.5110713588947,59.76815782689664 152.03666899900418,62.14352954868082 151.89866103974055,63.41103633534658 151.99354151176522,63.75036608581286 151.84690805501305,63.89008976002515 151.570892136544,65.51685791298223 150.35469699569512,74.35881987632456 151.1051152741129,81.2142857142826 150.3460714982357,74.19915267363103 150.88085234034224,70.15749020867952 151.0792387817346,69.6086096457002 151.55364114162512,65.51685791298223 151.79515507034375,64.00985275118728 151.95041402446805,63.74038581574132 151.89003554231022,63.35115449302975 152.36443790220073,59.857983852984034" stroke="#4DD2FF" stroke-linecap="round" stroke-linejoin="round" stroke-width="0.5"><title>2025-08-05 5.0km</title><desc>1754406000000</desc></polyline><polyline fill="none" points="176.79241539281793,81.2142857142826 177.19292024994502,77.8964419593467 177.43868459411897,77.70684767972853 177.82098468509503,75.13675767261884 178.10315856174566,73.07221297982323 178.1213633279549,71.78711847380328 177.4568893603864,67.22595766952873 177.20202263310784,64.19209518258867 176.97446305514313,63.402012246413506 176.62857249670196,62.9068905353779 176.71049394475995,62.74887246989965 177.15651071752654,62.79101064427232 176.94715590577107,60.71568519264838 176.51934389927192,60.26268984546914 176.5557534317486,58.97743644945149 176.16435095772613,58.07142857142753 176.56485581485322,59.114390439222916 176.51934389927192,60.15734180639265 176.9653606720385,60.705150439614954 177.16561310063116,62.78047610228532 177.0472821200965,62.88582147387933 176.61036773049273,62.8015451851752 177.19292024994502,64.03407907738438 177.56611795775825,68.02654545607948 178.1213633279549,71.81871934949595 178.11226094485028,73.12488044749625 177.0472821200965,80.41379979888734 176.99266782141058,80.59285639566951 176.75600586034125,80.60338912700536 176.66498202912044,81.00363212537195 176.41011530184187,80.98256674293225" stroke="#4DD2FF" stroke-linecap="round" stroke-linejoin="round" stroke-width="0.5"><title>2025-08-03 5.0km</title><desc>1754221111000</desc></polyline><polyline fill="none" points="34.42857142856519,95.17645609483225 34.357417371240444,95.47148747282336 34.17360272316728,95.48864038060856 30.562534314245568,95.41659810933561 30.46469748544041,95.35484746874863 30.322389370805467,95.41316752115017 29.86285275062255,95.40973693262276 29.82431096956134,95.37200043579287 29.003074558029766,95.42002869716453 28.599868233213783,95.35827806285306 27.298341934772907,95.35484746874863 26.735038980987156,95.26565189961912 26.35258592289756,95.1661642560357 26.328867903794162,95.12842748696494 25.79817722630105,95.1112743961603 24.63302953769744,94.90543662680284 22.919402657294995,94.89171406422247 19.343911277028383,95.33769449298416 18.860656637742068,95.56068249816963 18.341824969786103,95.71848850422612 16.94839134729409,96.56582553282715 16.210168002624414,96.93974482774502 15.756560887210071,97.07010103976063 15.48973317227501,97.07353145959132 15.1517514000152,96.99120128735012 14.793016361029004,97.13870937026513 14.671461513091344,96.89857960362497 14.526188646093942,96.99463171519892 14.407598550562398,96.7716531799706 12.388602174134576,97.96542879292247 12.234435049947933,97.57779938461681 11.611837048403686,96.38744055706047 11.55254200064519,96.34627465958329 11.285714285710128,96.47663316274702 11.460634676594054,96.34284416586888 11.546612495876616,96.332552682612 11.573295267357025,96.24679020016265 11.680026353351423,96.25365120677088 11.822334467986366,96.15759698733018 11.86384100142459,96.20562413121297 11.970572087389883,96.13701390476126 11.934995058734785,96.20219362319767" stroke="#4DD2FF" stroke-linecap="round" stroke-linejoin="round" stroke-width="0.5"><title>2025-08-02 8.3km</title><desc>1754134728000</desc></polyline><polyline fill="none" points="49.190023691247916,84.85714285714494 49.065474338276545,84.8859668737714 48.99074472647044,85.6642120008255 49.6134914913855,85.6642120008255 49.6134914913855,86.28872506300831 47.53766894162982,100.02696915990236 47.54597223183373,101.47753441057284 48.40951441254583,108.0 47.58748868285329,101.66005429056531 47.529365651425906,100.24791762079258 48.75825260087731,91.46722063751076 49.065474338276545,90.2759035416384 48.98244143629563,90.0068943785518 49.37269607561757,87.17264419311687" stroke="#4DD2FF" stroke-linecap="round" stroke-linejoin="round" stroke-width="0.5"><title>2025-07-31 5.0km</title><desc>1753965181000</desc></polyline><polyline fill="none" points="73.82750356860925,108.0 73.92731184361037,107.16005956231675 74.18136927101295,106.85557946743211 75.10686418478144,100.48229014053504 75.20667245978257,98.13026856125362 74.7348515233025,95.27417035756662 74.23581014829688,90.5593354532466 73.75491573225008,89.63524458780739 73.8547240072512,89.49873046350694 74.25395710737212,89.55123591727897 74.08156099595362,87.46149824455642 73.61881353904027,86.95743458607467 73.6732544163242,85.7917779518175 73.31031523441197,84.85714285713766 73.68232789589092,85.81278089048283 73.64603397762403,86.9784372876311 74.08156099595362,87.52450602884346 74.2902510255226,89.53023373898759 74.17229579138802,89.63524458780739 73.809356609534,89.48822936953366 73.77306269132532,89.64574566682859 74.31747146416456,90.85336263091449 74.63504324830137,94.38162347274192 75.26111333706649,98.88628133771999 74.60782280965941,104.32521017263207 74.12692839367082,107.33854747662554 73.95453228231054,107.4120424105713" stroke="#4DD2FF" stroke-linecap="round" stroke-linejoin="round" stroke-width="0.5"><title>2025-07-29 5.0km</title><desc>1753797916000</desc></polyline><polyline fill="none" points="100.9926235092571,84.85714285714494 100.97594076121459,86.62345616664243 100.59223755594576,89.32594848307053 100.2919480909477,90.2235449948057 100.09175511426292,92.69430449623906 99.5328830544313,95.64754991499649 99.59961404663045,96.168701343071 99.04908336079097,99.82633186773455 99.0824488569342,101.76607351550047 99.76644152717199,108.0 99.12415572704049,102.58635036097257 99.0073764907138,100.53081973113149 99.54122442848166,95.80196545090439 100.28360671692644,91.0825272638831 100.20853435064782,90.84124089403485 100.56721343388199,89.37420657575422 100.97594076121459,86.11190432445437" stroke="#4DD2FF" stroke-linecap="round" stroke-linejoin="round" stroke-width="0.5"><title>2025-07-27 5.0km</title><desc>1753616848000</desc></polyline><polyline fill="none" points="126.3752913311182,84.85714285713766 126.3999250808265,86.89044760265097 125.94830633641686,90.10183887286985 125.7676588386239,90.44387404841837 125.51311009179335,93.23711449569964 125.05328009746154,95.78326100193954 125.0861250970338,96.26778103237302 124.48670385446167,100.21985069661605 125.2339275952254,108.0 125.72660258915857,107.92400655423262 125.37351884349482,104.11475600297126 124.97116759847268,101.44533838593634 124.95474509868654,100.02035118131607 126.08789758465718,92.03052086371463 126.46561508002924,90.43437308822467 126.38350258104037,90.06383488723804 126.94186757411808,86.68141831262619" stroke="#4DD2FF" stroke-linecap="round" stroke-linejoin="round" stroke-width="0.5"><title>2025-07-26 5.2km</title><desc>1753529066000</desc></polyline><polyline fill="none" points="152.22734538541408,84.85714285714494 152.12749864079524,85.35779690679192 152.26062763363007,86.00286649382178 152.10253695465508,87.52405798226391 151.75307334854733,89.89244675555528 151.57002098340308,90.22940782809746 151.54505929726292,91.2402838571943 150.80452927478473,95.67838340926392 150.86277320908266,96.1019655612472 150.31361611379543,100.13552803792118 150.3885011722159,102.28219894858194 151.0458255742269,108.0 151.52009761109366,107.95187180051289 151.14567231884575,104.45769924796332 151.22887793934206,104.27480512706825 150.7546059024753,101.56022985208256 150.74628534039948,100.27029804535414 152.54352674333495,87.68772902908677" stroke="#4DD2FF" stroke-linecap="round" stroke-linejoin="round" stroke-width="0.5"><title>2025-07-24 5.0km</title><desc>1753356656000</desc></polyline><polyline fill="none" points="176.73694542277372,107.95824942822946 176.8542088085669,108.0 177.25110026821494,104.70165254401218 177.51268782117404,104.53464479227841 177.44954599806806,104.21106650050206 178.12606553151272,100.02533283879166 178.17116683372296,98.7622724671237 177.4946473002783,94.30490221249784 177.21501922642346,91.00611485994159 176.67380359972594,89.86821742189932 176.75498594372766,89.70118554377405 177.19697870552773,89.78470151680085 176.96245193394134,87.68634210390155 176.57458073471207,87.2687530241601 176.61066177656176,86.14125402399804 176.11454745201627,84.85714285714494 176.5655604742933,85.8906970089156 176.55654021387454,87.22699402277794 176.9714721944183,87.66546269024548 177.2059989660047,89.7220645434063 177.0887355802115,89.83689896544092 176.7730264645652,89.71162504413223 176.67380359972594,89.83689896544092 176.98951271525584,90.28579592824099 177.21501922642346,91.03743295973982 177.62093094649026,95.19221616562572 178.14410605235025,98.58481645957363 178.1350857919315,99.97314056912728 177.15187740331749,106.81010205446364" stroke="#4DD2FF" stroke-linecap="round" stroke-linejoin="round" stroke-width="0.5"><title>2025-07-22 5.0km</title><desc>1753184035000</desc></polyline><polyline fill="none" points="11.285714285681024,127.0312108512735 11.285714285681024,123.31757330457913 13.74620294966735,112.91920748539269 33.644067796645686,116.55041310942033 34.42857142863795,117.41694601581548 31.7541272288654,133.46810214867583 13.888839973602444,130.662290281296 13.246973365778103,129.83704780729022 15.457847237586975,113.78574814114836 16.24235086934641,113.29058227862697 20.9850319174584,114.07459461549297 34.392912172712386,117.04557499673683 32.03940127696842,133.13800764110056 31.29055690066889,133.50936394318705 13.532247413648292,130.49724192067515 13.74620294966735,125.21565896060201 15.493506493745372,113.86827572627226 16.06405458948575,113.3731099643046 24.836231565335765,114.85860543861054 15.88575830962509,113.45563763327664 14.887299141613767,117.99463359283982 15.77878054161556,118.86116341716843" stroke="#4DD2FF" stroke-linecap="round" stroke-linejoin="round" stroke-width="0.5"><title>2025-07-20 4.9km</title><desc>1753020627000</desc></polyline><polyline fill="none" points="49.901611992914695,111.64285714286234 49.72702541886247,112.82610797630332 49.0785610009043,114.4903300570295 48.529860339534935,116.99141805333784 48.380214704578975,118.96338316462788 47.864768628787715,122.26272564149258 47.74837757940986,122.36853355630592 47.80657310411334,122.8398582859736 47.26618608908029,126.73541165032657 47.24124514995492,128.0242755135041 47.981159678136464,134.77609665012278 47.89802321433672,133.4488535722121 47.989473324560095,134.7857142857174 48.46335116846603,134.6895378857298 47.66524111555191,127.15862261388975 48.93722901237197,117.86678324460081 49.20326569664758,117.0298958141866 49.236520282167476,115.90441484883922" stroke="#4DD2FF" stroke-linecap="round" stroke-linejoin="round" stroke-width="0.5"><title>2025-07-20 5.0km</title><desc>1752942252000</desc></polyline><polyline fill="none" points="75.2836162695894,111.65321306368423 75.14041957235895,111.64285714286234 74.9166747329291,112.78200212506636 75.16726895311149,112.93733909072762 75.14936936594313,113.268723826317 74.83612659072969,115.38127618930594 74.66608051280491,115.7437194983795 74.22754062752938,119.87548214082926 73.86059909081087,121.56334702261665 73.89639826514758,122.06038166178769 73.26096292113652,126.81315303618612 74.12014310451923,134.7857142857174 73.32361147616757,128.138505114679 73.30571188899921,126.12976163939311 73.89639826514758,122.12251082131115 73.86954888439504,121.5737019356311 74.52288381551625,117.63875924469903 74.65713071916252,115.73336399315303 74.83612659072969,115.36056510415801 75.31046565034194,111.97424608716392" stroke="#4DD2FF" stroke-linecap="round" stroke-linejoin="round" stroke-width="0.5"><title>2025-07-17 5.0km</title><desc>1752765839000</desc></polyline><polyline fill="none" points="109.92953667952679,134.29736174631398 110.45077220071107,133.5735951740062 111.57142857136205,124.1343111692986 94.81370656366926,123.38036179888877 91.79054054047447,123.62162580588483 92.15540540521033,123.38036179888877 91.60810810793191,119.97248674745788 88.50675675668754,115.08679229274276 88.42857142852154,112.34232370223617 88.79343629337382,112.13120968226576 103.36196911195293,112.3724828356062 102.31949806946795,121.87245731143048 101.66795366781298,122.29467134026345 92.57239382225089,121.99308995238971 91.58204633195419,118.82646687456872 89.02799227787182,115.56933359685354 88.7152509650914,113.85027661922504 92.33783783763647,113.57884565973654 102.8928571427241,113.94075355058885 103.04922779917251,116.20266786761931 102.11100386094768,123.56130982254399 100.70366795361042,123.65178379291319" stroke="#4DD2FF" stroke-linecap="round" stroke-linejoin="round" stroke-width="0.5"><title>2025-07-15 4.1km</title><desc>1752589649000</desc></polyline><polyline fill="none" points="126.64432883425616,111.64285714286234 126.71485343103996,113.28516606029734 126.16828780603828,116.71250683069957 125.97434516483918,117.11031559211551 125.96552959026303,118.12013075413415 125.18975902575767,122.85286648230976 125.22502132417867,123.38324538023153 124.63437782612164,127.77916265837848 125.33962379390141,134.7857142857174 124.93410736240912,132.01170862078288 124.62556225154549,127.55478174957534 125.94789844111074,118.04873001574015 125.86855826969258,117.72232599357085 126.13302550761728,116.78390851931908 126.65314440889051,113.38717193916818 126.59143538668286,113.03015090965346 126.80300917703426,111.9488794747449 126.60906653589336,111.70406168387126" stroke="#4DD2FF" stroke-linecap="round" stroke-linejoin="round" stroke-width="0.5"><title>2025-07-13 5.0km</title><desc>1752418082000</desc></polyline><polyline fill="none" points="151.22758706833702,134.7857142857174 151.10882358276285,134.77514311904088 151.18190880469047,133.940017558627 151.58387752517592,131.4028861265324 151.82140449632425,131.1914557140044 152.23250886949245,128.31595943715365 152.45176453515887,125.34523457792238 151.8488114545471,121.21145132797392 151.53819926147116,117.75417138136254 151.35548620671034,117.07750375190517 150.97178879170679,116.46426990909094 151.05400966637535,116.30567436115234 151.4925209977664,116.36911260937632 151.30067229026463,114.36021595576312 150.86216095881537,113.81040589600889 150.88956791709643,112.55217578063457 150.5789557240205,111.68515120931261 150.3871070165187,111.68515120931261 150.55154876579763,111.64285714286234 150.86216095881537,112.41472114795761 150.85302530613262,113.82097919382795 151.25499402655987,114.19104393935413 151.30067229026463,114.40250891686446 151.4925209977664,116.33739349008829 151.0448740136344,116.31624740520056 150.94438183348393,116.4325508188922 151.3463505539694,117.0140659358949 151.5290636087302,117.65901526204834 151.9036253709346,121.77179474571312 152.47003584064078,125.27122967260948 152.46090018795803,126.62445390497305 151.3463505539694,134.2360121951424" stroke="#4DD2FF" stroke-linecap="round" stroke-linejoin="round" stroke-width="0.5"><title>2025-07-12 5.1km</title><desc>1752325602000</desc></polyline><polyline fill="none" points="177.00342037260998,134.7857142857174 176.77852235594764,134.775304819319 177.28229391318746,131.30889368004136 177.48920008848654,131.20479543520196 178.06493901100475,127.34267577876017 178.1548982177046,125.39594570823829 177.62413889844902,121.90839556809078 177.21932246850338,117.67112259681744 176.67956722859526,116.57794018225104 176.75153459393186,116.46341563482565 177.20133062719833,116.53629490709864 176.99442445189925,114.42277494935843 176.5896080219536,113.97507793002296 176.57161618064856,112.56950479887018 176.1218201473821,111.64285714285506 176.59860394260613,112.68403370203305 176.5896080219536,113.9646663481617 177.00342037260998,114.43318648466811 177.2283183892141,116.50506093960576 176.7965141972527,116.45300430597126 176.69755907001672,116.61958544044319 177.23731430986663,117.75441220706125 177.63313481910154,121.88757401656767 178.16389413835714,125.32307274110644 178.07393493171548,127.29062465408788 177.21032654785085,133.03690909063153" stroke="#4DD2FF" stroke-linecap="round" stroke-linejoin="round" stroke-width="0.5"><title>2025-07-10 5.0km</title><desc>1752149320000</desc></polyline><polyline fill="none" points="19.61161338200327,138.42857142857974 19.665818467154168,139.87118155200733 20.058805334672797,139.6673352875223 20.898984155093785,139.9495838897128 21.806919331778772,139.87118155200733 22.823264678940177,140.24751240978367 28.067606670083478,140.9374499322148 28.216670654306654,141.14129451900953 27.0106075090589,148.8401506428636 26.427902843395714,148.88718931663607 26.319492672977503,149.09102340386016 26.11622360360343,150.45513690507505 26.265287587826606,151.05095281251124 25.343801139795687,156.24072569217242 18.595268034900073,156.03690104607085 18.364896422834136,155.88011267366528 17.497615060012322,161.5714285714348 18.40555023669731,155.9741857162153 21.03449686797103,156.02122221596073 21.915329502138775,155.67628755142505 22.037290943786502,156.03690104607085 25.38445495365886,156.14665281206544 27.715273616369814,141.54898288485128 27.647517259931192,141.0158517282689 20.668612543027848,139.7927791744296" stroke="#4DD2FF" stroke-linecap="round" stroke-linejoin="round" stroke-width="0.5"><title>2025-07-08 5.1km</title><desc>1751976330000</desc></polyline><polyline fill="none" points="37.20612938440172,161.36070345182088 37.15646310982993,161.5714285714348 37.47101618273882,161.43733079527738 37.57034873205703,160.3645451522898 38.14978860318661,159.88562101921707 38.26567657745909,159.3875386301952 39.93777449132176,147.79717296321178 40.086773315269966,144.29118642624235 39.68944311799714,141.7047611134185 40.599991486931685,141.6664434345439 40.831767435360234,142.01130226381065 44.02696443913737,142.47111305451836 46.593055297096726,142.43279553150933 48.46381830959581,143.1799858258746 54.423771269852296,144.06128339124552 55.5164293127018,138.4285714285652 59.98639403301058,139.42484566295752 55.99653663445497,138.4860489314451 55.25154251442291,141.80055527645163 55.135654540150426,144.09960058322758 43.97729816444917,142.60522432389553 40.831767435360234,142.03046106916736 40.550325212301686,141.6089669016219 39.63977684330894,141.7622376170766 40.00399619084783,143.29493791591085 40.07021789049031,146.60935969238926 38.199454877816606,159.4450097422814" stroke="#4DD2FF" stroke-linecap="round" stroke-linejoin="round" stroke-width="0.5"><title>2025-07-06 5.0km</title><desc>1751807521000</desc></polyline><polyline fill="none" points="66.23680118238553,160.13694178627338 67.23949703900144,153.00655156325956 63.99440863041673,152.77449332852848 62.97348194010556,153.13312867288187 64.30433280428406,153.00655156325956 64.12202446674928,152.79558954239474 67.47649787785485,152.98545537084283 67.71349871670827,152.77449332852848 67.6041137141874,152.12050963495858 68.97142624575645,143.4919512027118 68.84381040954031,139.18808626956888 71.1955879641464,138.95601258525858 85.59794663125649,141.3189325137355 85.57971579756122,140.62271783026517 69.73712126351893,138.42857142857974 69.99235293618403,143.6396312588622 68.33334706432652,155.3693115497008 68.78911790822167,156.08657265316288 68.36980873183347,156.86711868521525 68.46096290065907,158.5547757489985 67.82288371911272,158.70244508933683 67.53119037905708,161.5714285714348 66.05449284485076,161.4026659347146 66.14564701367635,160.15803725198202" stroke="#4DD2FF" stroke-linecap="round" stroke-linejoin="round" stroke-width="0.5"><title>2025-07-05 4.8km</title><desc>1751729502000</desc></polyline><polyline fill="none" points="103.72485527675599,161.5714285714348 103.95389168534894,161.40404397679958 103.9900553287589,160.45552741840947 104.30347357213032,159.07458718244743 104.47223724162905,159.01879132536124 104.68921910243807,156.99617619295896 99.97589090437395,156.8008876369131 100.27725459990324,155.75469421241723 100.72327286924701,151.03975022627856 100.77149106055731,147.5941117977345 100.60272739105858,147.13375679240562 100.78354560834123,144.31579249413335 100.77149106055731,138.42857142857974 94.44285345444223,140.70257538260194 94.31025342835346,141.02344407206692 94.35847161972197,140.74442786291183 97.76990865304833,139.44699503706943 97.83018139220076,142.32086199168407 98.16770873114001,143.04629462100274 100.68710922577884,143.04629462100274 100.69916377362097,146.72920111895655 100.96436382568209,146.85475300731196 101.06080020824447,147.30115879121877 105.4727647107793,147.58016166875314 105.68974657164654,148.68221748966607 105.66563747590408,150.69100533235178 104.14676445053192,161.05532541572757" stroke="#4DD2FF" stroke-linecap="round" stroke-linejoin="round" stroke-width="0.5"><title>2025-07-03 5.2km</title><desc>1751545471000</desc></polyline><polyline fill="none" points="125.30873980408069,161.57142857142753 125.85847981576808,158.1821971265672 126.0837830992532,158.02576835751097 126.6605595049914,153.7499563260135 126.70562016166514,152.2690237863426 125.72329784568865,144.40512244642014 125.24565488472581,143.41426983246492 125.34478832938476,143.2786787302466 125.75033423968125,143.35168934601097 125.56107948155841,141.32823304192425 125.11948504595784,140.76499583452824 125.12849717726931,139.48205509343825 124.70492700434988,138.42857142857247 125.16454570263159,139.5759293503652 125.11948504595784,140.78585652699985 125.52503095619613,141.18220887774805 125.58811587555101,141.50554781896062 125.75033423968125,143.34125926121487 125.30873980408069,143.30996900050377 125.24565488472581,143.44556006135826 125.73230997700011,144.40512244642014 126.20094080665149,148.86905553401448 126.72364442428807,152.23773624861497 126.5704381915275,154.57384616120544 125.57910374423955,161.21686806265643" stroke="#4DD2FF" stroke-linecap="round" stroke-linejoin="round" stroke-width="0.5"><title>2025-07-01 5.0km</title><desc>1751376396000</desc></polyline><polyline fill="none" points="150.61526712891646,161.57142857142753 150.78238445078023,161.36515991448687 150.7489609863842,160.6045413438187 151.01634870137786,160.34670350528177 151.2057483327808,159.34113092808548 151.4954183573136,155.79577940538002 151.8964999297168,154.41628858132754 152.34214612131473,150.79344217989274 152.23073457344435,148.71767216829903 151.606829905184,145.01730223631603 151.18346602324164,140.5302976946914 150.51499673584476,138.86697119369637 151.10547793965088,138.98301793666906 151.12776024924824,138.42857142857247 151.12776024924824,138.9572297807099 150.61526712891646,138.8540771045955 150.52613789064344,138.98301793666906 150.9495017725858,139.61482611847168 151.2057483327808,140.50450985343195 151.67367683397606,145.5072528883902 152.34214612131473,149.95540247535973 152.28644034737954,152.0311522312768 150.88265484385192,161.13310727464705" stroke="#4DD2FF" stroke-linecap="round" stroke-linejoin="round" stroke-width="0.5"><title>2025-06-30 4.1km</title><desc>1751292736000</desc></polyline><polyline fill="none" points="165.8312593329465,151.42663152053137 165.57142857142026,149.5486798803613 165.6610253857798,149.35154482606595 172.63165754108923,149.01952702961717 173.74265803879825,149.12328270734724 175.55251368839527,148.94689799232583 178.26729716273258,148.97802472894546 188.71428571426077,148.31398561665264 185.59631657542195,148.5318739278373 184.87058237934252,148.770512971656 183.5266301642405,148.7082593619707 176.72623195615597,149.06102931341593 170.4006968640606,149.17516050653649 170.21254355396377,149.3411692863374 170.6515679442091,151.68601438335463 170.44549527124036,151.66526377865375 170.19462419109186,150.4409706146762" stroke="#4DD2FF" stroke-linecap="round" stroke-linejoin="round" stroke-width="0.5"><title>2025-06-26 5.0km</title><desc>1750950176000</desc></polyline><polyline fill="none" points="34.428571428579744,177.73288817815046 34.05489773952286,175.83854039327707 24.098569890804356,176.7520631088919 23.03567584193661,176.76167909042124 19.19929263414815,176.28087881275133 11.285714285710128,176.61743926439522 18.933569121960318,176.27126278219657 23.043979701702483,176.77129507100472 30.127172074455302,176.1270222063904" stroke="#4DD2FF" stroke-linecap="round" stroke-linejoin="round" stroke-width="0.5"><title>2025-06-24 5.0km</title><desc>1750769966000</desc></polyline><polyline fill="none" points="60.142857142869616,177.71250698604126 59.82606010703603,175.85892158539355 49.97200494032586,176.7953729097935 48.77151090983534,176.83398926050722 44.88657883903943,176.3319754734257 37.0,176.67952376323228 44.67815973650431,176.3319754734257 48.76317414571531,176.83398926050722 57.10827501027961,176.0906217441152" stroke="#4DD2FF" stroke-linecap="round" stroke-linejoin="round" stroke-width="0.5"><title>2025-06-22 5.0km</title><desc>1750563938000</desc></polyline><polyline fill="none" points="75.07659195060842,188.3571428571413 73.88049428074737,181.2112700544676 73.86372655638843,179.26284454472625 73.96992214390775,178.44720680742103 73.90285124653019,176.34980450076182 73.92520821231301,175.9872834972084 74.04817152416217,175.7801277084218 73.92520821231301,175.68302319967188 73.91961897086003,174.35591335728168 72.56143329903716,166.1854843244364 72.22048957066727,165.21428571428623 72.56702254043194,166.0624666561598 73.90285124653019,174.21996395281894 73.97551138536073,178.1947453838511 73.88049428074737,179.26931781817984 73.87490503929439,181.1465392702812 74.79154063676833,186.6354752995212 74.92009319007047,187.01088047544545 76.35093900075299,186.93321062113318" stroke="#4DD2FF" stroke-linecap="round" stroke-linejoin="round" stroke-width="0.5"><title>2025-06-21 8.0km</title><desc>1750517001000</desc></polyline><polyline fill="none" points="102.34790968568996,188.35714285714494 100.38751907442929,176.30212530343852 96.93783947156044,176.23172856836754 90.72233745583799,175.63335516126244 90.84391206735745,174.9997810578643 90.60076284426032,173.78542419358564 90.93509302608436,165.84789573436137 90.8895025466336,165.2846869424975 90.58556601783494,165.21428571428987 90.20564535667654,174.98218174405338 90.78312476159772,175.05257898860145 90.81351841444848,175.65095440877485 100.43310955376364,176.2845261223847 101.60326518991496,183.81681169383228 101.96798902458977,184.81991838836984 109.79435464338167,184.57354184542783" stroke="#4DD2FF" stroke-linecap="round" stroke-linejoin="round" stroke-width="0.5"><title>2025-06-19 5.0km</title><desc>1750345525000</desc></polyline><polyline fill="none" points="137.28571428571013,177.36508127365596 137.0732919255097,176.1027745243191 130.52173913046136,176.72422098223615 129.67763975154958,176.74364108604277 126.87142857143772,176.41997191361224 116.47391304347548,176.89252835151638 115.5739130434813,177.04141526796957 114.14285714286962,177.46865404710843 116.1608695652103,176.92489510217274 119.81677018635673,176.7630611839486" stroke="#4DD2FF" stroke-linecap="round" stroke-linejoin="round" stroke-width="0.5"><title>2025-06-17 5.1km</title><desc>1750166247000</desc></polyline><polyline fill="none" points="140.6551724136807,185.5189615162526 139.8571428571595,180.3900511385582 157.8926108374726,179.85867090658576 154.9598522168817,168.2835141261312 158.51108374388423,168.49145628869883 163.0,168.05246705516765 155.91748768475372,168.46835161338095 158.53103448287584,178.88832118167193 150.79014778323472,179.25797870957467" stroke="#4DD2FF" stroke-linecap="round" stroke-linejoin="round" stroke-width="0.5"><title>2025-06-16 3.2km</title><desc>1750084948000</desc></polyline><polyline fill="none" points="188.71428571426077,177.85554236619646 188.35967741935747,175.71588620523107 176.98421658982988,176.76410699220287 175.95771889400203,176.77491333812213 171.45979262667242,176.223788293064 165.57142857142026,176.50475436024863 171.27315668197116,176.21298189098889 175.9483870967524,176.75330064522132 185.59746543783695,175.94282148132334" stroke="#4DD2FF" stroke-linecap="round" stroke-linejoin="round" stroke-width="0.5"><title>2025-06-15 4.6km</title><desc>1749956754000</desc></polyline><polyline fill="none" points="34.42857142855064,204.5021747841456 34.14684670860879,202.64068235871673 24.236765382869635,203.55224252660992 23.20101273592445,203.57143317213195 18.84256559764617,203.08207048955956 11.285714285710128,203.42750323543441 18.99171397878672,203.08207048955956 23.13472456650925,203.57143317213195 25.29737609330914,203.46588457340113 25.70339113083901,203.3315498220618 30.956728556076996,202.86137668279844" stroke="#4DD2FF" stroke-linecap="round" stroke-linejoin="round" stroke-width="0.5"><title>2025-06-14 5.1km</title><desc>1749906363000</desc></polyline><polyline fill="none" points="60.142857142869616,204.9455381847729 59.86461911498918,203.0691766133241 50.273590624390636,203.9978855580339 48.98060214187717,204.0073621321353 45.05253586586332,203.5335322451865 37.65467771267868,203.8841665938089 37.556476055819076,203.6662048569342 37.597393412841484,202.2067957156687 37.0,202.19731895808218 37.62194382704911,202.2257492279532 37.556476055819076,203.65672824807552 37.679228126915405,203.8841665938089 45.25712265106267,203.52405562283093 49.1606385128689,204.0168387052545 56.93493635082268,203.3155696863978 56.92675287940074,202.93650314967817 59.4227116589318,202.8038294967555" stroke="#4DD2FF" stroke-linecap="round" stroke-linejoin="round" stroke-width="0.5"><title>2025-06-12 5.9km</title><desc>1749735885000</desc></polyline><polyline fill="none" points="85.85714285715949,210.85196100638132 85.11939411942149,207.13751419649634 64.84734184731496,208.93903035500261 62.938817938789725,203.7201562577393 62.71428571426077,197.20099678327097 66.49925749923568,197.0338357807923 69.72289872280089,197.23814365186263 69.89931689936202,196.64379284529423 69.56251856248127,196.51377834791492 62.810513810429256,196.29089613647375 62.954855954798404,203.53442844651 63.5161865161499,205.6517142720113 64.62280962278601,208.28900080521998 73.60409860406071,207.50896228465717 73.78051678044721,208.21471156615007 85.07128007133724,207.11894177217619 85.76091476093279,210.7962448635226" stroke="#4DD2FF" stroke-linecap="round" stroke-linejoin="round" stroke-width="0.5"><title>2025-06-10 5.3km</title><desc>1749559786000</desc></polyline><polyline fill="none" points="89.03622334159445,197.40973982203286 88.48065587837482,195.15800728560134 88.42857142857974,193.40887588124315 104.17543671641033,193.00677451524825 104.88725752866594,195.6405235643324 104.36641303187935,195.62041874298302 104.21015968284337,195.98230521428923 104.54002786410274,197.85204140722635 104.45322044799104,199.1186268242309 105.02614939457271,201.65177326272533 106.50187546893721,201.5914606302831 108.68942235561553,210.01494642230682 108.72414532210678,210.3969098081434 108.16857785882894,210.55773627573217 108.67206087242812,210.41701312379155 108.84567570465151,210.73866589499812 108.39427714073099,210.8190790059598 108.55053048976697,211.56289872800699 109.59221948345657,214.21650299915927 110.32140177907422,214.13609127281234 111.57142857142026,213.45259027607972 110.25195584614994,213.73403214973223 107.90815561031923,204.38592656915716 107.63037187873852,203.58176776539767 107.0053584825364,203.58176776539767 106.53659843537025,201.53114797935996 106.03311542177107,201.7321900773095 105.00878791132709,201.5914606302831 104.43585896480363,199.2794624857488 104.31432858220069,196.3039815203956 103.35944700462278,192.92635414371034 88.48065587837482,193.44908597276662 89.10566927451873,197.53036762539705" stroke="#4DD2FF" stroke-linecap="round" stroke-linejoin="round" stroke-width="0.5"><title>2025-06-08 5.0km</title><desc>1749355299000</desc></polyline><polyline fill="none" points="137.28571428571013,204.5237524949116 136.8786791098246,202.61910464794346 129.4191364987928,203.24437206782022 127.17628961132141,203.56181394181476 125.93026356273913,203.56181394181476 121.98451440877398,203.08084098878317 114.14285714286962,203.427141762033 121.61070659419056,203.08084098878317 125.88872936111875,203.57143337585876 134.88503743207548,202.76339749710314" stroke="#4DD2FF" stroke-linecap="round" stroke-linejoin="round" stroke-width="0.5"><title>2025-06-07 5.3km</title><desc>1749293029000</desc></polyline><polyline fill="none" points="163.0,204.48823663841904 162.6583157570276,202.6546205044433 152.0994392715511,203.61968605366565 147.81588559079682,203.12750385257823 139.85714285713038,203.45562560422695 147.78255054270267,203.1082025376527 151.5910797880788,203.61968605366565 159.74983281033929,202.8765864517336" stroke="#4DD2FF" stroke-linecap="round" stroke-linejoin="round" stroke-width="0.5"><title>2025-06-05 5.1km</title><desc>1749128617000</desc></polyline><polyline fill="none" points="165.89538807643112,203.42494337260723 165.57142857142026,201.30300415929378 165.6929133858066,201.2092158874293 174.77390326210298,200.89267990535882 176.48481439816533,207.16461941220768 185.4544431946124,207.04739003413852 188.71428571426077,206.8480998172381 186.0314960629912,206.94188349170145 185.53543307085056,199.9782377306401 176.95050618669484,200.4823541876831 175.1079865017091,200.4237361084961 175.26996625418542,200.89267990535882 170.51181102357805,201.0333626716092" stroke="#4DD2FF" stroke-linecap="round" stroke-linejoin="round" stroke-width="0.5"><title>2025-06-03 5.2km</title><desc>1748952979000</desc></polyline><polyline fill="none" points="30.42410617545829,223.45802252119756 29.916428806318436,222.70660457400663 29.556556240888312,221.91797940817196 29.325209591683233,221.70222198373813 28.753269264416303,221.65014250997774 28.31628114922205,221.14422569030285 28.117065979080508,220.48206455999025 27.82145637171925,220.02822031930555 27.468010102049448,218.7857142857174 26.446229068009416,219.2246858971048 25.970683177933097,219.27676709970547 24.73683438205626,219.73805613067816 24.209878125519026,220.41510411159106 24.209878125519026,220.5862251355211 22.07634791600867,223.3017877427119 22.063495324371615,223.45802252119756 21.478702405525837,224.26151039147226 20.97102503638598,224.73020756932237 20.881056895043002,224.64837177077425 20.52118432955467,224.9608352358773 20.28341138450196,224.81948288143758 20.27698508874164,224.95339564509777 20.244853609649,224.75996601882798 20.579020991863217,224.9980331784609 20.5276106253732,225.26585780603637 19.756455127964728,226.12140212403028 18.43906448656344,226.41898040869273 18.43906448656344,226.28507033056667 18.349096345191356,226.44873817051848 17.98922377973213,226.5305719530661 17.67433528494439,226.44129873119527 17.14737902840716,226.48593535575492 17.05741088700597,226.4041015232433 16.845343125256477,226.52313252208842 16.209139839891577,226.29994924024504 16.12559799430892,225.3253742566303 15.881398753466783,225.1096268925612 14.679681436682586,225.4146488416809 14.22984072988038,225.6899114590051 14.74394439480966,227.91429294758564 15.553657667071093,230.39897349442617 17.263052352995146,237.07892339171667 17.500825298018754,237.77068733500346 19.51868218294112,241.85419275234744 19.77573401539121,241.92857142857247 20.662562837445876,241.64593205646088 21.26663464374724,241.8244412606873 22.37195752336993,241.59386678982992 22.35267863588524,241.15502949798974 22.648288243246498,241.07321208453504 23.181670795631362,241.31866405032633 23.58652743176208,241.12527772188332 23.753611122869188,241.3707295129061 24.794671044364804,241.60130468731222 25.4051691465138,241.48973614533315 26.022093544423115,241.0285843658712 26.131340573221678,240.15833840822597 26.594033871690044,239.51866383511515 26.471934251254424,238.87898366599256 26.619739054935053,238.56657968906075 26.304850560147315,238.21698317991104 26.105635390005773,237.69630442932976 26.02851984021254,236.92271772451932 26.446229068009416,236.5879901710141 27.08243235334521,236.84833395617898 27.435878623015014,236.82601881090523 27.525846764387097,236.34252232445579 27.37804196070647,235.74744533638295 27.25594234027085,235.6953758694799 27.37804196070647,235.63586786190717 27.23666345284437,235.5912368244244 27.352336777432356,235.65818337041856 27.365189369098516,235.30857295439637 27.198105677991407,234.92176799276785 26.439802772161784,234.86969793780008 26.08635650255019,234.60190849786886 26.234161306201713,233.5902506499915 26.838233112503076,232.55626235339878 27.30092641094234,232.0429821554426 27.51299417275004,231.9685934219524 27.96926117539988,231.33628613072506 28.772548151871888,230.5700711422396 29.485866986971814,229.6773833559928 29.28022552098264,229.26079199129163 28.64402223561774,229.25335283821187 28.560480390064185,229.0078603614529 28.80467963090632,228.4201629007439 29.087436646630522,228.15234983227128 29.350914774928242,228.18954615046096 29.4601618036977,228.05563931639335 29.23524145031115,227.54232751292875 29.537277353432728,226.90998192939878 29.820034369186033,226.74631512233464 30.05780731420964,226.84302737079997 30.025675835146103,226.66448158139247 30.73899467024603,226.33714650120965 30.803257628373103,226.13628106705437 31.426608322100947,225.75686707400018 31.484444984409492,225.21378087199264 30.668305416300427,223.65889531703579 30.539779500075383,223.59937750916288" stroke="#4DD2FF" stroke-linecap="round" stroke-linejoin="round" stroke-width="0.5"><title>2025-06-02 11.5km</title><desc>1748829019000</desc></polyline><polyline fill="none" points="60.14285714289872,231.43939732505532 59.71892470563762,229.27488838923455 47.49232782208128,230.41293450532976 42.424408231221605,229.83275561073242 37.0,230.06705899599183 42.49185202806257,229.81044097645645 46.933507791138254,230.3906199893172 59.69965504936408,229.28604576154612 60.13322231476195,231.37245439105027" stroke="#4DD2FF" stroke-linecap="round" stroke-linejoin="round" stroke-width="0.5"><title>2025-06-01 4.9km</title><desc>1748740054000</desc></polyline><polyline fill="none" points="85.85714285710128,241.50956572096038 85.7733425294864,241.68747409257048 85.60574187419843,241.55808620575408 85.04707302345196,238.4527452729526 67.39313733938616,239.98924968359643 65.75903095089598,235.41204005970212 65.68919734458905,229.65394926724548 65.29812914901413,227.4865238818893 62.71428571426077,219.02681162170484 64.41822570905788,224.68823686940596 64.87912751099793,225.56169591755315 65.63333045953186,228.8128623347875 66.38753340800758,229.0231344858912 65.60539701697417,229.00695971495588 65.75903095089598,234.8782932394388 66.28976635908475,237.06179160802276 67.21156996284844,239.34230227131047 67.44900422444334,239.48786566904164 75.01896715228213,238.7115260049759 75.22846797131933,239.3261285522458 81.24812483828282,238.74387356682564" stroke="#4DD2FF" stroke-linecap="round" stroke-linejoin="round" stroke-width="0.5"><title>2025-05-31 5.5km</title><desc>1748696141000</desc></polyline><polyline fill="none" points="109.9484230055823,236.74401102033153 109.42244897963246,233.3505366860336 90.3821892393753,235.05598349950742 88.6239332096884,230.044009640711 88.42857142857974,224.00508181353507 94.89053803333081,224.07469603148638 88.51873840449844,223.97027469395834 88.63896103895968,229.95699490637344 89.104823747708,231.81910054165928 90.27699443412712,234.4991047803196 107.13821892393753,232.88066569334478 108.64100185531424,232.79365240460902 108.71614100190345,233.4375496909488 111.57142857142026,233.21131578597124" stroke="#4DD2FF" stroke-linecap="round" stroke-linejoin="round" stroke-width="0.5"><title>2025-05-29 5.0km</title><desc>1748526381000</desc></polyline><polyline fill="none" points="128.1716096897144,228.08510624300106 127.65813900833018,223.88039108923113 136.35046411585063,223.45566766848788 137.28571428568102,226.87466663842497 136.2771111613838,223.54061242185708 127.62146253115498,223.94409952762362 127.85985963314306,226.04646706802305 127.52977133798413,223.96533566943253 115.16979850572534,225.11208411339612 117.02196060668211,234.392019889754 117.73715191299561,236.5579866025073 117.26035770878661,236.85527439434372 118.01222549227532,238.85133858454356 117.00362236809451,236.21822860682732 114.50962191517465,225.15455615684914 118.83744623046368,224.53871068033914 126.66787412262056,224.05028021507314 126.57618292956613,223.43443147469952 115.07810731267091,224.22016920243914 114.43626896070782,221.8629471297172 114.14285714284051,222.1177832340909 114.28956305177417,224.3900580512418 122.96354992070701,223.54061242185708" stroke="#4DD2FF" stroke-linecap="round" stroke-linejoin="round" stroke-width="0.5"><title>2025-05-27 6.0km</title><desc>1748352132000</desc></polyline><polyline fill="none" points="159.91604295474826,232.0817487099339 160.0082980800653,232.02070209643716 159.7117637487827,230.54030648025946 151.91620566221536,231.2881388520109 151.0134233648132,231.30340065937344 147.76472502443357,230.9218545420008 140.00211519689765,231.26524613513902 139.85714285713038,228.7317422153501 140.77969410998048,228.63253700435598 142.05149690856342,228.72411104994535 142.0580865603697,230.9218545420008 147.9558249267866,230.68529497276904 151.5405955092574,231.03631858136214 159.69858444517013,230.22743561870448 162.86161731206812,230.11297034267773 163.0,230.3647937189089 162.90774487471208,230.3953177069634 159.98852912464645,230.51741353470425" stroke="#4DD2FF" stroke-linecap="round" stroke-linejoin="round" stroke-width="0.5"><title>2025-05-25 7.6km</title><desc>1748179850000</desc></polyline><polyline fill="none" points="188.69912001496414,231.63479099710094 188.6384572177485,231.13427501382102 188.34272608123138,231.13427501382102 188.15315483987797,230.19470207025006 188.00149784679525,229.9839553302154 180.68404793107766,230.6074129428671 179.4859576858289,230.8269391973081 174.67843100539176,230.37910504489264 165.70033701555803,230.78303399118158 165.57142857142026,229.25511888005713 167.8007863695966,229.07949471718894 167.78562067027087,230.36154287384852 168.0813518067589,230.39666721237154 174.38269986893283,230.1244532142082 178.94757536039106,230.5196022844757 188.42613742745016,229.60636613177485 188.71428571426077,231.53820041973086" stroke="#4DD2FF" stroke-linecap="round" stroke-linejoin="round" stroke-width="0.5"><title>2025-05-24 6.6km</title><desc>1748094255000</desc></polyline><polyline fill="none" points="34.428571428579744,258.1740318992306 34.1768159319181,256.1116823864795 24.647404167160857,256.92151028068474 23.323356739943847,257.148260981754 21.812823759682942,257.1698562612728 17.458386094192974,256.6407706450409 11.285714285739232,256.8891172837539 17.43041326123057,256.62997295189416 21.756878093699925,257.1806538994133 31.631288131698966,256.34923254371097" stroke="#4DD2FF" stroke-linecap="round" stroke-linejoin="round" stroke-width="0.5"><title>2025-05-18 4.7km</title><desc>1747565909000</desc></polyline><polyline fill="none" points="57.13488200888969,257.9714787784542 56.88311316512409,256.49070296156424 50.17148582878872,257.0584650079036 49.05177702344372,257.25794795355614 48.1507095824345,257.25027554233384 45.083104985475074,256.8513090817505 37.046378471219214,257.2195858896812 37.0,256.98941309584916 41.52521369268652,256.6978598800415 44.59281828964595,256.6441525855553 48.17721156598418,257.2195858896812 56.96924461165327,256.4369955192524 59.93084127435577,256.3142355072632 60.050100200402085,256.3295805197122 60.06997668807162,256.4369955192524 60.14285714284051,256.3909605382287" stroke="#4DD2FF" stroke-linecap="round" stroke-linejoin="round" stroke-width="0.5"><title>2025-05-17 5.7km</title><desc>1747487200000</desc></polyline><polyline fill="none" points="84.59245541057317,256.18610677938705 81.52766539400909,256.3464575516846 80.03219556668773,256.6137082940477 73.1641119151609,257.13751777379366 68.8623283377965,256.5816382409248 62.71428571426077,256.82750839765504 68.77924668072956,256.60301827744115 72.99794860102702,257.1268278105417 85.2571086671087,256.057825985059 85.66328565729782,258.13167959245766 85.85714285715949,258.2278883006511" stroke="#4DD2FF" stroke-linecap="round" stroke-linejoin="round" stroke-width="0.5"><title>2025-05-11 5.0km</title><desc>1746965499000</desc></polyline><polyline fill="none" points="111.57142857142026,257.97434238900314 111.19788891161443,256.31137189672154 100.69727403152501,257.26301755900204 96.4306210288778,256.77277705336746 88.42857142857974,257.10921689034876 96.23139987699687,256.7823896367772 100.21582291449886,257.26301755900204 111.2642959622899,256.3305971566442" stroke="#4DD2FF" stroke-linecap="round" stroke-linejoin="round" stroke-width="0.5"><title>2025-05-10 5.3km</title><desc>1746870058000</desc></polyline><polyline fill="none" points="137.23518402993795,256.75275763992977 137.17623206487042,256.5869641833269 137.28571428571013,256.71374744067725 136.83936369308503,256.79176782324066 126.52276980664465,257.6987501023832 122.15190268246806,257.1818687818595 114.14285714286962,257.5134533462551 122.10979413602035,257.1818687818595 124.15626949467696,257.3476612076993 126.01746724892291,257.6889976504608 134.4644416718802,256.92830333968595" stroke="#4DD2FF" stroke-linecap="round" stroke-linejoin="round" stroke-width="0.5"><title>2025-05-05 5.4km</title><desc>1746434825000</desc></polyline></svg>