<?xml version="1.0" encoding="utf-8" ?>
<svg baseProfile="full" height="300mm" version="1.1" viewBox="0,0,200,300" width="200mm" xmlns="http://www.w3.org/2000/svg" xmlns:ev="http://www.w3.org/2001/xml-events" xmlns:xlink="http://www.w3.org/1999/xlink"><defs /><rect fill="#222222" height="300" width="200" x="0" y="0" /><text fill="#FFFFFF" style="font-size:12px; font-family:Arial; font-weight:bold;" x="10" y="20">Over 3km Runs</text><text fill="#FFFFFF" style="font-size:4px; font-family:Arial" x="10" y="280">Runner</text><text fill="#FFFFFF" style="font-size:9px; font-family:Arial" x="10" y="290">tang-hi</text><text fill="#FFFFFF" style="font-size:4px; font-family:Arial" x="65" y="280">SPECIAL TRACKS</text><rect fill="yellow" height="2.6" width="2.6" x="65" y="283" /><text fill="#FFFFFF" style="font-size:3px; font-family:Arial" x="70" y="285.5">Over 20.0 km</text><rect fill="red" height="2.6" width="2.6" x="65" y="287" /><text fill="#FFFFFF" style="font-size:3px; font-family:Arial" x="70" y="289.5">Over 40.0 km</text><text fill="#FFFFFF" style="font-size:4px; font-family:Arial" x="120" y="280">STATISTICS</text><text fill="#FFFFFF" style="font-size:3px; font-family:Arial" x="120" y="285">Number: 54</text><text fill="#FFFFFF" style="font-size:3px; font-family:Arial" x="120" y="290">Weekly: 3.6</text><text fill="#FFFFFF" style="font-size:3px; font-family:Arial" x="141" y="285">Total: 288.1 km</text><text fill="#FFFFFF" style="font-size:3px; font-family:Arial" x="141" y="290">Avg: 5.3 km</text><text fill="#FFFFFF" style="font-size:3px; font-family:Arial" x="167" y="285">Min: 3.2 km</text><text fill="#FFFFFF" style="font-size:3px; font-family:Arial" x="167" y="290">Max: 11.5 km</text><polyline fill="none" points="23.19333389023086,55.26853415095684 22.85733522666851,55.33333333333576 23.016001262236387,55.17133530332649 23.463999480300117,51.82332073154976 23.715998477942776,51.69371804704133 23.65999870066298,51.337309849732264 24.33199602778768,47.373538116473355 24.378662508854177,45.65621780871152 23.370666518167127,37.587681033299305 22.86666852288181,36.572319744343986 22.96933478116989,36.377887752096285 23.379999814438634,36.442698455721256 23.174667297804262,34.314726355092716 22.73600237595383,33.8178333294054 22.801335449388716,32.748425237346964 22.278670861618593,31.33333333333576 22.764002264593728,32.467568801759626 22.75466896838043,33.763823077853885 23.174667297804262,34.27151835818222 23.417332999233622,36.43189667451952 22.932001596316695,36.38868953879137 22.8853351152502,36.53991443702398 23.286666852305643,37.188018705412105 23.45466618408682,37.836119019804755 23.753331662795972,41.30338854320871 24.34132932405919,45.21338228467357 24.387995805067476,46.77949964045547 23.67866529308958,51.32650958265003 23.734665070369374,51.65051711710112 23.43599959166022,53.3137402434877 23.19333389023086,53.86454216490529" stroke="#4DD2FF" stroke-linecap="round" stroke-linejoin="round" stroke-width="0.5"><title>2025-08-14 4.9km</title><desc>1755170321000</desc></polyline><polyline fill="none" points="54.98034714118694,31.353411051597504 54.77213181913248,31.33333333333576 54.83286128807231,33.150350314652314 54.3296742598468,36.56344104704476 54.14748585308553,36.92482022220793 54.14748585308553,37.868415170843946 53.635623186448356,41.472061899992696 53.47078605653951,42.45576435895782 53.3406514802773,42.53606616824982 53.41873222604045,43.03795099793933 52.82011317522847,47.16334772303526 52.87216700572753,48.91985124119674 53.60092063280172,55.25304191970645 54.095432022586465,55.33333333333576 53.24521945769084,47.38416702356335 54.659348519693594,37.36650408583955 54.85888820330729,36.95493509378866 54.77213181913248,36.603594354011875 55.17988682477153,33.75266901119903" stroke="#4DD2FF" stroke-linecap="round" stroke-linejoin="round" stroke-width="0.5"><title>2025-08-12 5.0km</title><desc>1754999139000</desc></polyline><polyline fill="none" points="85.31381426614826,31.41374506275315 85.42673935063067,31.33333333333576 85.43542589561548,33.03201722297672 84.89686010809965,36.48960319619073 84.71444266394246,36.83133478285163 84.53202521978528,39.153068134808564 83.95871325241751,42.519987244966615 83.37671474009403,47.374179419115535 83.42883400988649,48.86154468655877 84.03689215707709,53.89631122149149 84.67100993916392,55.33333333333576 83.81972853306797,47.4344784457644 85.10533718715305,38.15804622664291 85.41805280570406,36.871538421291916 85.33987390104448,36.59011260890111 85.70470878938795,33.87632262365514 85.9566185932199,32.85109369959537" stroke="#4DD2FF" stroke-linecap="round" stroke-linejoin="round" stroke-width="0.5"><title>2025-08-10 5.0km</title><desc>1754830447000</desc></polyline><polyline fill="none" points="114.99205372622237,55.33333333333576 116.29172127117636,47.597224619319604 116.37587240722496,45.779427999317704 115.68396306672366,40.985922575848235 115.35670864890562,37.49074754078174 114.83310158044333,36.56012431131967 114.90790259023197,36.365341675242234 115.38475902756909,36.462733037857106 115.17905625072308,34.32010247116705 114.73025019199122,33.789848853470176 114.75830057059648,32.57783066236152 114.28144413325936,31.33333333333576 114.7770008231164,32.62111726402509 114.73960031819297,33.80067038229754 115.17905625072308,34.33092394605046 115.4034592800308,36.43026926022867 114.92660284263548,36.408626736294536 114.87050208530854,36.52766056341352 115.4034592800308,37.674706983336364 115.83356508624274,41.927327809091366 116.33847190230154,45.022003579186276 116.3852225333685,46.74243126565125 115.3006078915787,54.42450494594959 115.00140385242412,54.73826800406823" stroke="#4DD2FF" stroke-linecap="round" stroke-linejoin="round" stroke-width="0.5"><title>2025-08-09 5.0km</title><desc>1754735080000</desc></polyline><polyline fill="none" points="146.72068103621132,31.33333333333576 146.7727784605231,33.021259174383886 146.4341452025401,35.67365585589141 146.0,37.50216062600521 145.90448805544293,39.15984177681821 145.32273348403396,42.55548974835983 145.35746510027093,43.07788678171346 144.76702762482455,47.05605061050301 144.74966181672062,48.42225178748049 145.49639156507328,54.7708214870072 146.07814613642404,55.33333333333576 145.2272215394769,48.78389011735271 145.27063605975127,46.644177436573955 146.51229133896413,38.104956986579055 146.66858361189952,37.13043437216402 146.8161929807684,36.93954737452441 146.74672974835266,36.527632071571134 147.25033818327938,33.121730042061245" stroke="#4DD2FF" stroke-linecap="round" stroke-linejoin="round" stroke-width="0.5"><title>2025-08-07 5.0km</title><desc>1754570205000</desc></polyline><polyline fill="none" points="177.0826073216158,31.33333333333576 177.13627708354034,32.016464538450236 177.31517628999427,32.08891757939273 177.25256156775868,32.5753866623636 177.73558942513773,32.64783930575504 177.78925918700406,33.09290441308258 177.29728636937216,35.55625286530994 177.15416700422065,36.87070434776979 177.25256156775868,37.22260186677158 177.1004972422379,37.367500491876854 176.8142585119931,39.05451931717107 175.55301910662092,48.22396135322924 176.33123065467225,55.33333333333576 175.54407414630987,48.05838055044296 176.09866168629378,43.86702688308287 176.30439577368088,43.29781741035549 176.79636859131278,39.05451931717107 177.04682748037158,37.491699149388296 177.2078367661452,37.21225195707666 177.1452220439096,36.808604659447155 177.6371948615415,33.18605732902506" stroke="#4DD2FF" stroke-linecap="round" stroke-linejoin="round" stroke-width="0.5"><title>2025-08-05 5.0km</title><desc>1754406000000</desc></polyline><polyline fill="none" points="22.96991225919919,82.0 23.385250629566144,78.55927314302244 23.640117356844712,78.36265685305261 24.03657671046676,75.69737832716055 24.32920147140976,73.55636901610706 24.34808048827108,72.22367841727828 23.65899637370603,67.49358573136124 23.394690137996804,64.3473579671263 23.158702427521348,63.52801269998599 22.800001107680146,63.014553147797415 22.88495668338146,62.850682561373105 23.347492595901713,62.89438140887796 23.130383902287576,60.74219205163536 22.686727006628644,60.27241909899749 22.724485040351283,58.939563725354674 22.31858617835678,58.0 22.733924548723735,59.08159008511575 22.686727006628644,60.16316928069864 23.149262919148896,60.73126712256635 23.356932104332373,62.883456698662485 23.23421849490842,62.99270375069318 22.781122090877034,62.90530611795111 23.385250629566144,64.18348941357544 23.772270474699326,68.32382491741009 24.34808048827108,72.25644969577115 24.33864097984042,73.61098713073443 23.23421849490842,81.16986645810539 23.177581444382668,81.35555478069 22.93215422553476,81.36647761319182 22.83775914128637,81.7815444263033 22.573452905577142,81.75969884452206" stroke="#4DD2FF" stroke-linecap="round" stroke-linejoin="round" stroke-width="0.5"><title>2025-08-03 5.0km</title><desc>1754221111000</desc></polyline><polyline fill="none" points="66.0,68.70151002426792 65.92621060721285,69.00746849033385 65.73558800922183,69.02525669100214 61.9907763258816,68.9505461874578 61.889315910826554,68.88650848610632 61.74173712528136,68.94698854045055 61.2651806302747,68.94343089309041 61.22521137584408,68.90429674823099 60.37355880091491,68.95410383409398 59.95541890851746,68.89006613925449 58.60568793234415,68.88650848610632 58.02152190620836,68.79400937737955 57.62490392004838,68.69083700625924 57.6003074557957,68.65170257907084 57.04996156801644,68.6339141886092 55.841660261314246,68.42045279816375 54.0645657186833,68.40622199252539 50.356648731729365,68.86872021494491 49.85549577247002,69.09996703513752 49.31744811680983,69.2636177080858 47.87240584164101,70.14233758959745 47.1068408916035,70.53010574728978 46.63643351267092,70.66528996715715 46.35972328977368,70.66884743957417 46.0092236740893,70.58346800169602 45.637202152182,70.73643934693973 45.51114527284517,70.4874158852399 45.36049192928476,70.58702548242582 45.23750960799225,70.35578848293153 43.143735587989795,71.59377800747461 42.98385857032554,71.19179195441393 42.338201383536216,69.95734576287578 42.276710222897236,69.91465520253041 42.0,70.04984179840176 42.18139892388717,69.91109765349029 42.270561106837704,69.90042500419077 42.29823212912015,69.81148613349797 42.4089162182936,69.8186012514634 42.55649500383879,69.71898946833971 42.59953881628462,69.7687953953282 42.710222905443516,69.69764404938178 42.67332820905722,69.76523783146331" stroke="#4DD2FF" stroke-linecap="round" stroke-linejoin="round" stroke-width="0.5"><title>2025-08-02 8.3km</title><desc>1754134728000</desc></polyline><polyline fill="none" points="85.30817271684646,58.0 85.17901042487938,58.02989157279808 85.10151304968167,58.836960593449476 85.74732450960437,58.836960593449476 85.74732450960437,59.48460376904404 83.59461964320508,73.73167172138346 83.60323046264239,75.23596161096793 84.49875568709103,82.0 83.64628456000355,75.42524148651137 83.58600882370956,73.9608034585981 84.86041010462213,64.8548954759317 85.17901042487938,63.61945552465477 85.09290223024436,63.340483059240796 85.49761074507842,60.40126064471406" stroke="#4DD2FF" stroke-linecap="round" stroke-linejoin="round" stroke-width="0.5"><title>2025-07-31 5.0km</title><desc>1753965181000</desc></polyline><polyline fill="none" points="114.8581518488354,82.0 114.96165672660572,81.12895065722114 115.22512368834578,80.81319352178252 116.18489619152388,74.20385644203634 116.2884010692942,71.76472295241547 115.79910528333858,68.80284333377494 115.28158089442877,63.91338491447823 114.78287557407748,62.95506846142962 114.886380451906,62.813498258452455 115.30039996304549,62.867948358660215 115.12161881051725,60.700812994356966 114.6417325588991,60.178080311488884 114.69818976498209,58.96925120929518 114.32180839119246,58.0 114.70759929931955,58.991032034573436 114.66996116191149,60.19986089087615 115.12161881051725,60.766154400283995 115.33803810045356,62.846168321913865 115.2157141539501,62.95506846142962 114.83933278016048,62.80260823507706 114.80169464275241,62.965958469307225 115.36626670346595,64.21830198761745 115.69560040556826,67.87723915692186 116.34485827537719,72.54873620207945 115.66737180249766,78.18910684568982 115.16866648226278,81.31404923501395 114.98988532967633,81.39026620355435" stroke="#4DD2FF" stroke-linecap="round" stroke-linejoin="round" stroke-width="0.5"><title>2025-07-29 5.0km</title><desc>1753797916000</desc></polyline><polyline fill="none" points="147.0293873429764,58.0 147.0120867153746,59.831732320963056 146.6141722802713,62.63431694540486 146.3027609832352,63.5651577723911 146.0951534518681,66.12742688498838 145.5155824268295,69.19005176369683 145.5847849372658,69.73050509651512 145.0138642260281,73.52360341839085 145.0484654812899,75.53518734940008 145.7577912134002,82.0 145.0917170503235,76.38584481878206 144.9706126570527,74.25418342487683 145.5242327406595,69.35018639353075 146.2941106694343,64.45595419958408 146.216257845168,64.20573129751574 146.5882213388686,62.6843623748573 147.0120867153746,59.301234114245744" stroke="#4DD2FF" stroke-linecap="round" stroke-linejoin="round" stroke-width="0.5"><title>2025-07-27 5.0km</title><desc>1753616848000</desc></polyline><polyline fill="none" points="177.35215397298452,58.0 177.37770008380176,60.10861232867319 176.90935471921694,63.43894401631405 176.72201657335972,63.79364716132841 176.45804009516723,66.69034095850657 175.9811793603003,69.33078918720275 176.01524084134144,69.83325440394401 175.39361881202785,73.93169701872102 176.1685175061575,82.0 176.67943972206558,81.92119198216824 176.31327880066237,77.97085807715484 175.8960256576538,75.20257314097398 175.8789949171478,73.7248086324762 177.0541160136927,65.43905867348076 177.44582304594223,63.78379431371286 177.36066934326664,63.39953247565427 177.93971452128608,59.89184121310245" stroke="#4DD2FF" stroke-linecap="round" stroke-linejoin="round" stroke-width="0.5"><title>2025-07-26 5.2km</title><desc>1753529066000</desc></polyline><polyline fill="none" points="24.161691510817036,84.66666666666424 24.058146738592768,85.18586345889344 24.196206434862688,85.85482451211283 24.03226054555853,87.4323564260485 23.669853842933662,89.88846330204979 23.48002176056616,90.23790441432357 23.45413556753192,91.28622029634425 22.686178507166915,95.88869390590116 22.746579624246806,96.32796428573783 22.177083377260715,100.5109179652427 22.254741956363432,102.7370952059282 22.936411706614308,108.66666666666424 23.428249374468578,108.61675594126427 23.039956478809472,104.99316959047428 23.126243788952706,104.80350161325623 22.634406121069333,101.98838651327242 22.625777390028816,100.65067945444025 24.489583289367147,87.60208936349227" stroke="#4DD2FF" stroke-linecap="round" stroke-linejoin="round" stroke-width="0.5"><title>2025-07-24 5.0km</title><desc>1753356656000</desc></polyline><polyline fill="none" points="53.579054512490984,108.62336977742234 53.70066098670941,108.66666666666424 54.112252129998524,105.2461581937896 54.383528110804036,105.07296496976778 54.318047701672185,104.73740229681425 55.01962351414841,100.39664146244468 55.06639523495687,99.08680107701366 54.36481942248065,94.46434303518618 54.07483475335175,91.0433783732733 53.51357410341734,89.8633365856731 53.59776320087258,89.69011834169214 54.05612606497016,89.77672749890189 53.812913116649725,87.60065107070841 53.4106763175223,87.16759572875162 53.448093694169074,85.99833750636753 52.93360476504313,84.66666666666424 53.40132197336061,85.73850060183759 53.391967629198916,87.12429009769403 53.822267460869625,87.57899834543787 54.06548040919006,89.71177063760115 53.94387393502984,89.8308581863821 53.616471889195964,89.7009444902069 53.51357410341734,89.8308581863821 53.840976149134804,90.29638096261624 54.07483475335175,91.07585640269099 54.49578024080256,95.38452046805469 55.038332202413585,98.9027726247441 55.0289778583101,100.34251614575624 54.00935434416169,107.4326984268555" stroke="#4DD2FF" stroke-linecap="round" stroke-linejoin="round" stroke-width="0.5"><title>2025-07-22 5.0km</title><desc>1753184035000</desc></polyline><polyline fill="none" points="72.66666666674428,100.62495940132067 72.66666666674428,96.7737797232694 75.21828454057686,85.99028924410231 95.85310734482482,89.75598396532587 96.66666666674428,90.65461068306467 93.89316897839308,107.30025408012443 75.36620441731066,104.39052325469675 74.700564972125,103.53471624461235 76.9933230613824,86.88892399825272 77.80688238330185,86.37541865932872 82.72521828487515,87.18846849014517 96.62968669761904,90.2694851818087 94.18900873162784,106.95793385003344 93.41242937883362,107.34304408924072 74.99640472535975,104.21936199182528 75.21828454057686,98.7421648480522 77.03030303050764,86.97450816057972 77.62198253744282,86.46100292596384 86.71905495668761,88.00151675118832 77.43708269158378,86.54658717525308 76.40164355444722,91.25369409628911 77.32614278397523,92.15231761781615" stroke="#4DD2FF" stroke-linecap="round" stroke-linejoin="round" stroke-width="0.5"><title>2025-07-20 4.9km</title><desc>1753020627000</desc></polyline><polyline fill="none" points="116.71278280747356,84.66666666666424 116.5317300640163,85.89374160505395 115.8592484453693,87.61960154061671 115.2902255372901,90.21332242567587 115.13503747142386,92.25832328182878 114.60050080021028,95.67986362821102 114.47979897123878,95.78959035468142 114.54014988575364,96.27837155581801 113.97974853683263,100.31820467440411 113.95388385921251,101.6548042362192 114.72120262918179,108.6566928223474 114.63498703710502,107.28029259339382 114.7298241884273,108.66666666666424 115.22125306358794,108.56692817778821 114.3935833791038,100.7570901181025 115.71268193874857,91.12110854995262 115.98857183355722,90.25322528878314 116.02305807042285,89.08605984323367" stroke="#4DD2FF" stroke-linecap="round" stroke-linejoin="round" stroke-width="0.5"><title>2025-07-20 5.0km</title><desc>1752942252000</desc></polyline><polyline fill="none" points="147.0348613166134,84.67740614011564 146.88636103802128,84.66666666666424 146.6543293526629,85.84800220376928 146.9142048402573,86.00909239038447 146.89564230537508,86.35275063469453 146.57079794595484,88.54354567779956 146.3944538650685,88.91941281312756 145.93967176182196,93.20420370159991 145.55913979787147,94.95458209752542 145.5962648675195,95.47002542703558 144.9372948811506,100.39882537085941 145.82829655281967,108.66666666666424 145.00226375303464,101.77326456337323 144.98370121821063,99.69012318159366 145.5962648675195,95.53445566654409 145.56842106522527,94.96532052583643 146.24595358641818,90.88463921672519 146.3851725976565,88.9086737706748 146.57079794595484,88.52206751541962 147.0627051188494,85.01032927558117" stroke="#4DD2FF" stroke-linecap="round" stroke-linejoin="round" stroke-width="0.5"><title>2025-07-17 5.0km</title><desc>1752765839000</desc></polyline><polyline fill="none" points="186.9639639640227,108.16022699617315 187.50450450461358,107.40965425453032 188.66666666662786,97.62076713852002 171.2882882882841,96.83889371735859 168.1531531532528,97.08909342830884 168.53153153148014,96.83889371735859 167.96396396390628,93.30480107141193 164.74774774780963,88.23815497022588 164.66666666662786,85.39203939490835 165.04504504497163,85.17310633716988 180.1531531532528,85.42331553323311 179.07207207207102,95.27514091553167 178.39639639644884,95.71299250097945 168.96396396390628,95.4002414321003 167.9369369369233,92.11633601805079 165.2882882882841,88.73856817450724 164.96396396390628,86.95584241993492 168.72072072071023,86.6743584619544 179.66666666662786,87.04967034875881 179.82882882887498,89.39535927010002 178.85585585597437,97.02654351966339 177.39639639644884,97.12036837782944" stroke="#4DD2FF" stroke-linecap="round" stroke-linejoin="round" stroke-width="0.5"><title>2025-07-15 4.1km</title><desc>1752589649000</desc></polyline><polyline fill="none" points="24.297822494758293,111.33333333333576 24.37095911364304,113.0364685069726 23.804150317329913,116.59074782443349 23.60302461538231,117.00329024367238 23.5938825380872,118.0505059672505 22.789379730413202,122.95852820388245 22.82594803988468,123.50855076469452 22.21342885674676,128.06727979388234 22.94479504553601,135.33333333333576 22.52425948693417,132.4565867178535 22.204286779393442,127.83458848104056 23.575598383380566,117.97646075706871 23.493319687084295,117.63796769703913 23.767582007858437,116.6647940200346 24.306964572169818,113.14225238135987 24.24297003058018,112.772008350752 24.462379887292627,111.65068982567027 24.261254185345024,111.39680470920575" stroke="#4DD2FF" stroke-linecap="round" stroke-linejoin="round" stroke-width="0.5"><title>2025-07-13 5.0km</title><desc>1752418082000</desc></polyline><polyline fill="none" points="53.79157177451998,135.33333333333576 53.66840964136645,135.3223706419667 53.74420172331156,134.45631450523797 54.16105817415519,131.82521524232288 54.40738244057866,131.60595407377696 54.83371290168725,128.62395793482574 55.06108914752258,125.54320622894738 54.43580447131535,121.25631989567046 54.11368812294677,117.67099254362984 53.92420791799668,116.9692631501166 53.52629948762478,116.33331694275694 53.61156557983486,116.16884748563461 54.06631807168014,116.23463529860601 53.8673638565233,114.15133506523125 53.412611364678014,113.58116166993568 53.441033395414706,112.27633043917012 53.118917047046125,111.3771938466889 52.91996283188928,111.3771938466889 53.09049501630943,111.33333333333576 53.412611364678014,112.13378489417664 53.40313735441305,113.59212657137687 53.81999380525667,113.97589741858974 53.8673638565233,114.19519443229365 54.06631807168014,116.20174139712617 53.6020915696281,116.17981212390441 53.49787745688809,116.30042307143594 53.914733907731716,116.90347578536603 54.1042141126818,117.57231212360057 54.492648532788735,121.83741677332728 55.08003716805251,125.46646040122141 55.07056315778755,126.86980404959468 53.914733907731716,134.7632719060639" stroke="#4DD2FF" stroke-linecap="round" stroke-linejoin="round" stroke-width="0.5"><title>2025-07-12 5.1km</title><desc>1752325602000</desc></polyline><polyline fill="none" points="84.52206557156751,135.33333333333576 84.28883799875621,135.322538331151 84.81126776186284,131.72774159412074 85.02583712880732,131.61978785873362 85.62289971514838,127.61462673353526 85.71619074430782,125.59579554929223 85.16577367245918,121.9790768854291 84.7459640414454,117.58486787819129 84.18621786672156,116.45119722604431 84.26085068995599,116.33243102871347 84.7273058356368,116.40800953329017 84.5127364686341,114.21621105859958 84.09292683756212,113.7519326681795 84.07426863175351,112.29430127290834 83.60781348618912,111.33333333333576 84.10225594049552,112.41307198729919 84.09292683756212,113.74113547216984 84.52206557156751,114.22700820632599 84.75529314437881,116.37561875218671 84.30749620456481,116.3216340950894 84.20487607258838,116.4943849012052 84.76462224725401,117.67124228880857 85.17510277539259,121.95748416533024 85.72551984718302,125.52022358337126 85.63222881808178,127.56064778943255 84.736634938512,133.51975757547916" stroke="#4DD2FF" stroke-linecap="round" stroke-linejoin="round" stroke-width="0.5"><title>2025-07-10 5.0km</title><desc>1752149320000</desc></polyline><polyline fill="none" points="111.96759906277293,111.33333333332848 112.02381174371112,112.82937346133986 112.43135368038202,112.61797733519052 113.30265023483662,112.91067958933127 114.24421264033299,112.82937346133986 115.29820040770574,113.21964249902521 120.73677728744224,113.93513326303218 120.8913621599786,114.14652764933999 119.6406300093513,122.1305265925912 119.03634368936764,122.17930743946636 118.92391832749126,122.39069093733269 118.71312077401672,123.80532716080779 118.86770564655308,124.42321032407926 117.91209007083671,129.80519701409503 110.91361129540019,129.5938233070192 110.67470740142744,129.43122795785894 109.77530450664926,135.33333333332848 110.71686691208743,129.52878518716898 113.44318193709478,129.57756377950136 114.35663800215116,129.21985375702207 114.48311653424753,129.5938233070192 117.9542495815549,129.70763995323796 120.37139486137312,114.56931558428914 120.30112901027314,114.01643882930512 113.06374634086387,112.7480672919919" stroke="#4DD2FF" stroke-linecap="round" stroke-linejoin="round" stroke-width="0.5"><title>2025-07-08 5.1km</title><desc>1751976330000</desc></polyline><polyline fill="none" points="134.2137638060958,135.11480357966502 134.1622580398107,135.33333333332848 134.48846122657415,135.19426897287485 134.59147275914438,134.08175052830484 135.19237336632796,133.58508846437326 135.3125534877181,133.0685585794563 137.04658095398918,121.04892010999902 137.20109825290274,117.4130822198058 136.78905212238897,114.73086337688437 137.73332450498128,114.69112652471813 137.9736847478198,115.04875790320511 141.28722238133196,115.52559872320853 143.94835364149185,115.48586203267041 145.8884041729616,116.26072604164074 152.06909613177413,117.17466425758903 153.20222299097804,111.33333333332848 157.8377419601893,112.36650661342719 153.70011206541676,111.39293963261298 152.92752557055792,114.83020547186607 152.80734544905135,117.21440060483292 141.23571661498863,115.66467707663833 137.9736847478198,115.06862629395619 137.68181873869617,114.63152123132022 136.73754635604564,114.79046863994154 137.115255309036,116.37993561649637 137.18392966419924,119.81711375506711 135.24387913261307,133.12815825126017" stroke="#4DD2FF" stroke-linecap="round" stroke-linejoin="round" stroke-width="0.5"><title>2025-07-06 5.0km</title><desc>1751807521000</desc></polyline><polyline fill="none" points="168.31964567070827,133.84571740798128 169.35947841091547,126.45123865819187 165.9942015426932,126.21058567400905 164.93546275270637,126.58250380889513 166.31560438964516,126.45123865819187 166.12654389149975,126.23246322912746 169.60525705851614,126.42936112530879 169.85103570623323,126.21058567400905 169.7375994073227,125.53238036217226 171.15555314382073,116.5842456916871 171.02321079513058,112.12097835361783 173.4620912220562,111.88030934765993 188.39787058066577,114.33074482905795 188.37896453088615,113.60874441656051 171.94960723631084,111.33333333332848 172.21429193380754,116.7373953795468 170.49384140002076,128.90150827376056 170.96649264567532,129.64533460326493 170.5316534996964,130.454789747615 170.62618374882732,132.20495262858458 169.96447200502735,132.35809120374324 169.6619752079714,135.33333333332848 168.13058517244644,135.15832022858376 168.22511542157736,133.86759418722067" stroke="#4DD2FF" stroke-linecap="round" stroke-linejoin="round" stroke-width="0.5"><title>2025-07-05 4.8km</title><desc>1751729502000</desc></polyline><polyline fill="none" points="27.19614621292567,162.0 27.43366545147728,161.82641597591282 27.47116848907899,160.8427691746183 27.79619481554255,159.41068300399638 27.97120899130823,159.35282063369232 28.19622721732594,157.2552938297158 23.308331308187917,157.05277236418624 23.62085662211757,155.96783103508642 24.083394086628687,151.0782594938937 24.133398136880714,147.50500482726784 23.958383961115032,147.02759963655262 24.14589914935641,144.10526629019296 24.133398136880714,138.0 17.57036654528929,140.35822632268537 17.432855407183524,140.69097903768125 17.48285945749376,140.40162889484782 21.020646010583732,139.05614300139132 21.083151073369663,142.03644947284192 21.433179424901027,142.78874997732055 24.045891048910562,142.78874997732055 24.058392061502673,146.60806041963224 24.333414337714203,146.73826237792673 24.43342243816005,147.2012017093948 29.008793033426628,147.49053802684648 29.233811259444337,148.63341072999174 29.208809234260116,150.71659812242433 27.633681652368978,161.46478191259666" stroke="#4DD2FF" stroke-linecap="round" stroke-linejoin="round" stroke-width="0.5"><title>2025-07-03 5.2km</title><desc>1751545471000</desc></polyline><polyline fill="none" points="53.57943387085106,162.0 54.14953462372068,158.48524146459386 54.38318247324787,158.3230190374161 54.981320968072396,153.88884359734948 55.02805053797783,152.35306170435797 54.00934591400437,144.19790475925402 53.51401247299509,143.1703539003356 53.61681752675213,143.0297409054474 54.037383655959275,143.1054556180825 53.841119462333154,141.00705648792064 53.38316967728315,140.42295864321932 53.39251559122931,139.0925015783796 52.95325763412984,138.0 53.42989924718859,139.18985265964147 53.38316967728315,140.44459195392847 53.80373580637388,140.85562402137293 53.86915720428806,141.1909384789251 54.037383655959275,143.0946392338592 53.57943387085106,143.0621900745973 53.51401247299509,143.20280302659376 54.01869182800874,144.19790475925402 54.50467935501365,148.82716870194417 55.04674236592837,152.3206153689316 54.88786182826152,154.7432478708797 53.85981129028369,161.63230762053718" stroke="#4DD2FF" stroke-linecap="round" stroke-linejoin="round" stroke-width="0.5"><title>2025-07-01 5.0km</title><desc>1751376396000</desc></polyline><polyline fill="none" points="83.82323998550419,162.0 83.99654683779227,161.78609176317696 83.96188546734629,160.99730213433213 84.2391764309723,160.72991474621813 84.43559086357709,159.68709874023625 84.73598940751981,156.01043790187396 85.15192585298792,154.57985482507502 85.61407745914767,150.82282892729563 85.49853955762228,148.67017854489677 84.8515273090452,144.83275787469756 84.41248328331858,140.1795679796778 83.71925587416627,138.45463679345266 84.33160675218096,138.5749815639574 84.35471433249768,138.0 84.35471433249768,138.5482382911141 83.82323998550419,138.4412651455059 83.73080966429552,138.5749815639574 84.16985369008034,139.23019004878006 84.43559086357709,140.1528250331903 84.92085004999535,145.34085484722164 85.61407745914767,149.95375071518356 85.55630850832677,152.10638009168906 84.10053094913019,161.54544458111923" stroke="#4DD2FF" stroke-linecap="round" stroke-linejoin="round" stroke-width="0.5"><title>2025-06-30 4.1km</title><desc>1751292736000</desc></polyline><polyline fill="none" points="103.60278745641699,151.47946972498903 103.33333333331393,149.53196432037657 103.42624854820315,149.32752796776913 110.65505226480309,148.98321321589174 111.80720092909178,149.09081169650744 113.68408826942323,148.9078942142587 116.4994192798622,148.9401737929802 127.33333333331393,148.25154063948867 124.0998838559608,148.4774988881254 123.3472706155735,148.72497641504742 121.95354239252629,148.66041711611615 114.9012775841984,149.02625262131914 108.34146341460291,149.14461089566612 108.1463414633763,149.3167681487903 108.60162601619959,151.74845936051133 108.38792102201842,151.72694021490315 108.12775842036353,150.45730285965692" stroke="#4DD2FF" stroke-linecap="round" stroke-linejoin="round" stroke-width="0.5"><title>2025-06-26 5.0km</title><desc>1750950176000</desc></polyline><polyline fill="none" points="158.0,150.98225440696842 157.61248654467636,149.01774559303158 147.2874058126763,149.96510248330014 146.18514531757683,149.97507461228815 142.2066738428257,149.4764669169308 134.0,149.8254925704823 141.9311087190581,149.46649473709112 146.19375672767637,149.9850467403012 153.5392895586847,149.31691191774007" stroke="#4DD2FF" stroke-linecap="round" stroke-linejoin="round" stroke-width="0.5"><title>2025-06-24 5.0km</title><desc>1750769966000</desc></polyline><polyline fill="none" points="188.66666666665697,150.96111835589545 188.33813640725566,149.03888164410455 178.11911623438937,150.0100163508905 176.87415946205147,150.050062936818 172.84534101822646,149.5294560465045 164.66666666665697,149.8898764951955 172.62920268968446,149.5294560465045 176.86551392887486,150.050062936818 185.51969260323676,149.27916329018626" stroke="#4DD2FF" stroke-linecap="round" stroke-linejoin="round" stroke-width="0.5"><title>2025-06-22 5.0km</title><desc>1750563938000</desc></polyline><polyline fill="none" points="24.153502763569122,188.66666666666424 22.91310517999227,181.25613190833974 22.895716428844025,179.23554249082372 23.005845186242368,178.38969594844093 22.93629018156207,176.21461207486573 22.95947518313187,175.83866436747485 23.086992691707565,175.6238361420692 22.95947518313187,175.52313517002767 22.953678932710318,174.14687311125454 21.545190087839728,165.67383559571317 21.191618814016692,164.66666666666424 21.550986338203074,165.54626171749987 22.93629018156207,174.00588854366652 23.011641436634818,178.12788410177018 22.91310517999227,179.24225551514974 22.90730892959982,181.1890036877012 23.857893993670586,186.88123364395142 23.99120775263873,187.27054271527595 25.47504785261117,187.1899961996969" stroke="#4DD2FF" stroke-linecap="round" stroke-linejoin="round" stroke-width="0.5"><title>2025-06-21 8.0km</title><desc>1750517001000</desc></polyline><polyline fill="none" points="56.43486930365907,188.66666666667152 54.4018716327264,176.1651669813582 50.82442611863371,176.09216295978695 44.37872032460291,175.47162757464685 44.50479769951198,174.81458776371437 44.25264294963563,173.5552547192783 44.599355730751995,165.32374372452614 44.55207671504468,164.73967534778058 44.236883277771994,164.66666666667152 43.84289148100652,174.79633662346168 44.441759012057446,174.86934117336932 44.47327835572651,175.48987864614173 54.4491506483173,176.14691597878118 55.66264538210817,183.95817508990876 56.04087750701001,184.9984338842478 64.15710851905169,184.742932284149" stroke="#4DD2FF" stroke-linecap="round" stroke-linejoin="round" stroke-width="0.5"><title>2025-06-19 5.0km</title><desc>1750345525000</desc></polyline><polyline fill="none" points="96.66666666665697,177.26749169119284 96.44637681159656,175.95843284003058 89.65217391302576,176.6028958334282 88.77681159417261,176.62303520034038 85.8666666666395,176.2873782807801 75.08405797099113,176.7774368089813 74.15072463764227,176.93183805567242 72.66666666665697,177.3749004932979 74.75942028980353,176.81100232817698 78.55072463766555,176.6431745611335" stroke="#4DD2FF" stroke-linecap="round" stroke-linejoin="round" stroke-width="0.5"><title>2025-06-17 5.1km</title><desc>1750166247000</desc></polyline><polyline fill="none" points="104.16091954021249,185.72336749832903 103.33333333337214,180.40449747702223 122.03678160929121,179.85343649571587 118.99540229898412,167.84957020488218 122.67816091957502,168.06521392901777 127.33333333337214,167.60996583499946 119.98850574716926,168.0412535249925 122.69885057478677,178.84714789211284 114.67126436787657,179.23049643957347" stroke="#4DD2FF" stroke-linecap="round" stroke-linejoin="round" stroke-width="0.5"><title>2025-06-16 3.2km</title><desc>1750084948000</desc></polyline><polyline fill="none" points="158.0,177.77611800938757 157.632258064521,175.55721532394818 145.8354838709347,176.64425910302816 144.77096774190431,176.65546568397986 140.10645161289722,176.0839286002156 134.0,176.3753008180429 139.91290322580608,176.07272196102713 144.76129032258177,176.63305252097052 154.76774193550227,175.79255561026366" stroke="#4DD2FF" stroke-linecap="round" stroke-linejoin="round" stroke-width="0.5"><title>2025-06-15 4.6km</title><desc>1749956754000</desc></polyline><polyline fill="none" points="188.66666666665697,177.6318849613308 188.374507697823,175.70144837199769 178.09738632297376,176.6467700275898 177.02327246687491,176.66667143775703 172.50340136053273,176.15918421139213 164.66666666665697,176.51741076266626 172.65807375579607,176.15918421139213 176.95452918010415,176.66667143775703 179.1972789115971,176.55721363167686 179.6183315431117,176.41790351917007 185.0662370211212,175.930316559934" stroke="#4DD2FF" stroke-linecap="round" stroke-linejoin="round" stroke-width="0.5"><title>2025-06-14 5.1km</title><desc>1749906363000</desc></polyline><polyline fill="none" points="35.333333333343035,204.75833589531976 35.044790193322115,202.81247945085488 25.09853842528537,203.77558502314787 23.75766148045659,203.78541258147015 19.68411126828869,203.2940334394516 12.012258368718904,203.6576542454277 11.910419613413978,203.43161985163897 11.952852428134065,201.9181585199549 11.333333333343035,201.90833077134448 11.978312116960296,201.937814014178 11.910419613413978,203.42179225726431 12.037718057545135,203.6576542454277 19.896275341830915,203.28420583108527 23.94436586520169,203.79524013878836 32.00660066012642,203.06799819330627 31.99811409713584,202.67489215522073 34.58651579444995,202.5373046632958" stroke="#4DD2FF" stroke-linecap="round" stroke-linejoin="round" stroke-width="0.5"><title>2025-06-12 5.9km</title><desc>1749735885000</desc></polyline><polyline fill="none" points="66.0,210.88351511773362 65.23492723499658,207.031496203781 44.21205821202602,208.89973518297484 42.232848232844844,203.4875694524817 42.0,196.72695962710714 45.925155925157014,196.55360747638042 49.26819126814371,196.76548230565095 49.451143451209646,196.14911850624776 49.10187110188417,196.01428865711205 42.09979209973244,195.78315154895245 42.24948024947662,203.29496283343178 42.83160083158873,205.4906666524621 43.97920997918118,208.22563046467258 53.29313929314958,207.41670162855007 53.4760914760991,208.1485897723178 65.18503118510125,207.01223591189773 65.90020790026756,210.8257354140369" stroke="#4DD2FF" stroke-linecap="round" stroke-linejoin="round" stroke-width="0.5"><title>2025-06-10 5.3km</title><desc>1749559786000</desc></polyline><polyline fill="none" points="73.29682420601603,196.94343388950801 72.72068017011043,194.6083038517245 72.66666666662786,192.79438980275881 88.996749187354,192.3773957935773 89.73493373335805,195.10869110374188 89.19479869969655,195.08784165937686 89.03275818948168,195.46313133332296 89.37484371091705,197.4021170148917 89.2848212053068,198.71561300288886 89.87896974245086,201.34257967985468 91.40935233805794,201.28003324622114 93.6779194799019,210.01549999348936 93.713928482146,210.41161017138802 93.13778444612399,210.57839317483013 93.65991497877985,210.43245805430342 93.83995998988394,210.76602389110485 93.37184296071064,210.84941526543116 93.53388347080909,211.62078386607755 94.61415353836492,214.3726697769016 95.37034258560743,214.28927983847097 96.66666666662786,213.58046398998704 95.29832458111923,213.87232963675342 92.86771692917682,204.177997923558 92.57964491122402,203.34405546040216 91.93148287071381,203.34405546040216 91.44536134030204,201.21748679340817 90.92323080764618,201.42597489496984 89.86096524132881,201.28003324622114 89.26681670418475,198.88240554076037 89.1407851963304,195.79672157669847 88.15053763438482,192.29399688976991 72.72068017011043,192.83608915693185 73.36884221050423,197.06852938928932" stroke="#4DD2FF" stroke-linecap="round" stroke-linejoin="round" stroke-width="0.5"><title>2025-06-08 5.0km</title><desc>1749355299000</desc></polyline><polyline fill="none" points="127.33333333334303,204.32092851323978 126.91122278055991,202.34573815342446 119.17540081357583,202.99416362588818 116.84948552283458,203.32336260632292 115.55731036135694,203.32336260632292 111.46542234986555,202.82457584021904 103.33333333334303,203.1837025680361 111.07776980139897,202.82457584021904 115.51423785599764,203.33333831570053 124.84374252214911,202.4953751821813" stroke="#4DD2FF" stroke-linecap="round" stroke-linejoin="round" stroke-width="0.5"><title>2025-06-07 5.3km</title><desc>1749293029000</desc></polyline><polyline fill="none" points="158.0,204.28409725465463 157.64566078508506,202.3825694120169 146.69571480015293,203.38337812972895 142.25351098307874,202.87296695822442 134.0,203.21324136735348 142.21894130358123,202.85295077978662 146.16852718763403,203.38337812972895 154.62945624775602,202.61275632031902" stroke="#4DD2FF" stroke-linecap="round" stroke-linejoin="round" stroke-width="0.5"><title>2025-06-05 5.1km</title><desc>1749128617000</desc></polyline><polyline fill="none" points="165.00262467190623,203.18142275678838 164.66666666668607,200.98089320224244 164.7926509186509,200.88363129067875 174.20997375331353,200.55537175371865 175.9842519685044,207.0596053163681 185.28608923888532,206.9380341094802 188.66666666668607,206.7313627734402 185.8845144357765,206.8286199173308 185.3700787401758,199.6070613503034 176.46719160105567,200.12984878723364 174.55643044621684,200.06905966807972 174.72440944879781,200.55537175371865 169.79002624674467,200.70126499279286" stroke="#4DD2FF" stroke-linecap="round" stroke-linejoin="round" stroke-width="0.5"><title>2025-06-03 5.2km</title><desc>1748952979000</desc></polyline><polyline fill="none" points="31.180554552352987,222.84535668865283 30.654074317688355,222.06610844711395 30.28087313871947,221.248274941805 30.040958095079986,221.02452650164923 29.447834792750655,220.97051815850136 28.994661932549207,220.44586367883312 28.788068422756623,219.75917806221696 28.481510311423335,219.28852477557666 28.114973439194728,218.0 27.055348663125187,218.45522981922113 26.562189962307457,218.50923995525227 25.282643062906573,218.98761376515176 24.736169907962903,219.6897375972112 24.736169907962903,219.86719643683318 22.523620061052497,222.6833354368864 22.510291447513737,222.84535668865283 21.903839531645644,223.678603368935 21.377359297010116,224.16465970152058 21.284059002267895,224.07979294747201 20.910857823240804,224.40382913350186 20.66427847283194,224.2572415066752 20.657614166120766,224.39611400232388 20.62429263224476,224.19552031582862 20.970836584165227,224.4424047776629 20.917522130039288,224.72014883589145 20.11780531788827,225.6073799804799 18.751622430514544,225.9159796830936 18.751622430514544,225.7771099724414 18.658322135772323,225.94683958424866 18.285120956774335,226.03170424763084 17.958569925132906,225.9391246101295 17.412096770189237,225.98541444300645 17.318796475417912,225.9005497278049 17.098874352115672,226.02398928217008 16.43910798212164,225.7925399528467 16.352471994119696,224.7818695994647 16.09922833694145,224.55813159228273 14.853002971416572,224.87445065063366 14.38650149764726,225.15990817971033 14.919646039081272,227.46667416786659 15.759348691790365,230.04337992014916 17.53205429200898,236.9707353691847 17.778633642417844,237.68812019926554 19.871225967508508,241.9228665579867 20.13779823819641,242.0 21.05747257216717,241.7068925029962 21.683917408343405,241.89201315923128 22.830178172385786,241.65289889316045 22.81018525204854,241.1978083682843 23.11674336338183,241.11296068026422 23.66988082509488,241.36750345959445 24.08973215147853,241.16695467454701 24.263004127453314,241.4214972726404 25.342621823801892,241.66061226832971 25.97573096677661,241.54491155812138 26.6155044164625,241.06668008312408 26.72879763151286,240.1642027937196 27.20862771879183,239.5008365697504 27.08200589020271,238.83746454251377 27.235284945869353,238.51349004790973 26.908733914227923,238.15094551990478 26.702140404464444,237.6109823711522 26.622168723202776,236.80874430690892 27.055348663125187,236.46161943660263 27.71511503311922,236.73160558418022 28.08165190537693,236.70846395204717 28.17495220011915,236.20706018832425 28.021673144452507,235.58994331180293 27.895051315863384,235.53594534612785 28.021673144452507,235.47423333827464 27.875058395584347,235.42794929940283 27.99501591734588,235.49737534710584 28.00834453094285,235.13481639714882 27.835072554968065,234.73368532583845 27.048684356355807,234.67968675031443 26.6821474841272,234.40197918297054 26.83542653976474,233.35285252591711 27.461871375970077,232.28056836649193 27.941701463219943,231.7482777908299 28.161623586551286,231.67113391906605 28.63478936708998,231.01540783926612 29.467827713058796,230.22081451788108 30.20756576428539,229.29506422102713 29.994307947694324,228.86304354653112 29.334541577700293,228.85532886925648 29.247905589727452,228.60074407853972 29.501149246876594,227.9912800452148 29.79437874467112,227.71354797420645 30.067615322157508,227.75212193381594 30.180908537178766,227.61325558737735 29.947657800337765,227.080932235629 30.26088021841133,226.42516644529678 30.554109716205858,226.25543790464872 30.800689066614723,226.35573208823917 30.76736753276782,226.17057349181414 31.507105583965313,225.83111489014118 31.573748651659116,225.62280999546056 32.22018640811439,225.22934363229433 32.28016516903881,224.66614312651654 31.43379820950213,223.05366921766108 31.300512074143626,222.99194704653928" stroke="#4DD2FF" stroke-linecap="round" stroke-linejoin="round" stroke-width="0.5"><title>2025-06-02 11.5km</title><desc>1748829019000</desc></polyline><polyline fill="none" points="66.0,231.1223379667208 65.56036636134377,228.87766203327192 52.88093255623244,230.05785800552258 47.62531223974656,229.45619100372278 42.0,229.69917229213024 47.69525395502569,229.433049901505 52.301415487076156,230.03471702595562 65.54038301412947,228.8892326415953 65.99000832642196,231.05291566478263" stroke="#4DD2FF" stroke-linecap="round" stroke-linejoin="round" stroke-width="0.5"><title>2025-06-01 4.9km</title><desc>1748740054000</desc></polyline><polyline fill="none" points="96.66666666668607,241.56547556250007 96.57976262323791,241.7499731330463 96.40595453628339,241.61579310227535 95.8265942466096,238.39543954234978 77.51880909275496,239.98885152373987 75.82418024539948,235.24211561748234 75.75176020927029,229.27076220308663 75.34620800643461,227.02306180345477 72.66666666668607,218.25002686696826 74.43371555017075,224.12113453124766 74.91168778925203,225.02694391450495 75.69382418028545,228.39852390275337 76.47596057131886,228.61658391130914 75.66485616576392,228.59981007479655 75.82418024539948,234.68860039647552 76.37457252060995,236.95296907500597 77.33051699859789,239.31794309619 77.5767451216816,239.46889773086878 85.42707704688655,238.66380474591278 85.64433715544874,239.30117035048897 91.88694427680457,238.6973503656045" stroke="#4DD2FF" stroke-linecap="round" stroke-linejoin="round" stroke-width="0.5"><title>2025-05-31 5.5km</title><desc>1748696141000</desc></polyline><polyline fill="none" points="125.65021645021625,236.62341883589397 125.10476190480404,233.10426026700588 105.35930735932197,234.87287177726103 103.5359307359322,229.67526925704442 103.33333333331393,223.41267743625212 110.03463203454157,223.48486995857093 103.42683982680319,223.37658116410603 103.55151515145553,229.58503175475926 104.03463203465799,231.51610426542175 105.25021645013476,234.29536792032013 122.73593073588563,232.61698664494907 124.29437229433097,232.52675064181676 124.37229437229689,233.1944959757966 127.33333333331393,232.95988303729973" stroke="#4DD2FF" stroke-linecap="round" stroke-linejoin="round" stroke-width="0.5"><title>2025-05-29 5.0km</title><desc>1748526381000</desc></polyline><polyline fill="none" points="148.54833597457036,227.64381388164475 148.01584786048625,223.2833685369842 157.03011093498208,222.84291461919202 158.0,226.38854318059748 156.95404120441526,222.93100547452923 147.97781299520284,223.34943654718518 148.2250396196032,225.52966955203738 147.88272583205253,223.37145921276533 135.06497622816823,224.56067982131208 136.98573692550417,234.18431692272134 137.72741679870524,236.4305046248337 137.23296354990453,236.7388030756265 138.012678288389,238.80879556915897 136.96671949280426,236.07816299967817 134.38034865283407,224.60472490341635 138.8684627575567,223.96607033518376 146.98890649760142,223.45954985269054 146.8938193343347,222.82089189971157 134.96988906501792,223.63573102476948 134.30427892226726,221.19120443084103 134.0,221.45547890945454 134.15213946113363,223.81191205314826 143.14738510292955,222.93100547452923" stroke="#4DD2FF" stroke-linecap="round" stroke-linejoin="round" stroke-width="0.5"><title>2025-05-27 6.0km</title><desc>1748352132000</desc></polyline><polyline fill="none" points="185.46848899009638,231.7884801436303 185.5641609719023,231.7251725444512 185.25664388760924,230.1899474610109 177.17236142745242,230.96547732800536 176.23614274867577,230.9813043874965 172.8671222475241,230.58562693244312 164.8170083523146,230.94173673273326 164.66666666665697,228.3143993344347 165.62338648442528,228.2115198563697 166.94229309033835,228.30648553327774 166.94912680331618,230.58562693244312 173.06529992405558,230.34030589768372 176.78283978736727,230.7043303806713 185.2429764616536,229.86548878976464 188.52315869397717,229.7467840590689 188.66666666665697,230.00793422701827 188.57099468488013,230.03958873314696 185.54365983293974,230.16620662857895" stroke="#4DD2FF" stroke-linecap="round" stroke-linejoin="round" stroke-width="0.5"><title>2025-05-25 7.6km</title><desc>1748179850000</desc></polyline><polyline fill="none" points="35.31760594146908,257.9916351081047 35.254696373973275,257.47258149581467 34.94801223240211,257.47258149581467 34.75141983397771,256.49820955433097 34.59414591523819,256.279657379484 27.005679335969035,256.92620601482486 25.763215377926826,257.1538628712806 20.777632153767627,256.6894422687765 11.46701616430073,257.10833154641296 11.333333333343035,255.5238269867259 13.645259938843083,255.34169822523108 13.62953254696913,256.6712296469559 13.936216688540298,256.70765488690085 20.470948012254667,256.42535888880957 25.204892966343323,256.8351431098272 35.03451288773795,255.88808339591196 35.333333333343035,257.8914671019447" stroke="#4DD2FF" stroke-linecap="round" stroke-linejoin="round" stroke-width="0.5"><title>2025-05-24 6.6km</title><desc>1748094255000</desc></polyline><polyline fill="none" points="66.0,257.73603308068414 65.73892022564542,255.59730025264435 55.85656728449976,256.43712177256384 54.48348106368212,256.6722706477449 52.9170024174382,256.6946657524313 48.4012892828905,256.1459843726334 42.0,256.4035290350075 48.372280419047456,256.13478676493105 52.85898468981031,256.70586330309743 63.0991136180819,255.8436485638449" stroke="#4DD2FF" stroke-linecap="round" stroke-linejoin="round" stroke-width="0.5"><title>2025-05-18 4.7km</title><desc>1747565909000</desc></polyline><polyline fill="none" points="93.54728504625382,257.52597799246723 93.28619143049582,255.9903586267974 86.32598530393443,256.579148897079 85.16480580208008,256.7860200999785 84.23036549286917,256.778063525373 81.0491459108598,256.36432052921737 72.71476285904646,256.74623721892567 72.66666666665697,256.5075395067979 77.35948086649296,256.20518802374136 80.54070044850232,256.14949157019873 84.25784903138992,256.74623721892567 93.37551293062279,255.9346620199649 96.44679835860734,255.80735534086125 96.57047428190708,255.82326868710516 96.59108693577582,255.9346620199649 96.66666666665697,255.88692203963728" stroke="#4DD2FF" stroke-linecap="round" stroke-linejoin="round" stroke-width="0.5"><title>2025-05-17 5.7km</title><desc>1747487200000</desc></polyline><polyline fill="none" points="126.02180561091518,255.67448110455007 122.84350485302275,255.84077079434064 121.29264725430403,256.11791971234925 114.17019013420213,256.66112954320124 109.70908123912523,256.08466187948216 103.33333333331393,256.3396383383151 109.62292248365702,256.10683376920497 113.99787262326572,256.65004365537607 126.71107565477723,255.5414491696938 127.13229623716325,257.69211216996337 127.33333333331393,257.79188416364195" stroke="#4DD2FF" stroke-linecap="round" stroke-linejoin="round" stroke-width="0.5"><title>2025-05-11 5.0km</title><desc>1746965499000</desc></polyline><polyline fill="none" points="158.0,257.528947662664 157.61262553796405,255.8043856706645 146.7230989956588,256.79127746858285 142.29842180773267,256.282879907194 134.0,256.6317804788705 142.09182209469145,256.2928485122102 146.22381635580678,256.79127746858285 157.6814921090554,255.8243229772488" stroke="#4DD2FF" stroke-linecap="round" stroke-linejoin="round" stroke-width="0.5"><title>2025-05-10 5.3km</title><desc>1746870058000</desc></polyline><polyline fill="none" points="188.61426491991733,256.2621190340069 188.5531295487599,256.09018507901055 188.66666666665697,256.22166401256254 188.2037845705927,256.30257403892756 177.50509461428737,257.2431482543252 172.97234352256055,256.7071231812006 164.66666666665697,257.0509886553773 172.92867540029692,256.7071231812006 175.0509461426409,256.8790560672496 176.98107714703656,257.2330346004819 185.7409024745284,256.44416642634314" stroke="#4DD2FF" stroke-linecap="round" stroke-linejoin="round" stroke-width="0.5"><title>2025-05-05 5.4km</title><desc>1746434825000</desc></polyline></svg>