<?xml version="1.0" encoding="utf-8" ?>
<svg baseProfile="full" height="300mm" version="1.1" viewBox="0,0,200,300" width="200mm" xmlns="http://www.w3.org/2000/svg" xmlns:ev="http://www.w3.org/2001/xml-events" xmlns:xlink="http://www.w3.org/1999/xlink"><defs /><rect fill="#222222" height="300" width="200" x="0" y="0" /><text fill="#FFFFFF" style="font-size:12px; font-family:Arial; font-weight:bold;" x="10" y="20">Over 3km Runs</text><text fill="#FFFFFF" style="font-size:4px; font-family:Arial" x="10" y="280">Runner</text><text fill="#FFFFFF" style="font-size:9px; font-family:Arial" x="10" y="290">tang-hi</text><text fill="#FFFFFF" style="font-size:4px; font-family:Arial" x="65" y="280">SPECIAL TRACKS</text><rect fill="yellow" height="2.6" width="2.6" x="65" y="283" /><text fill="#FFFFFF" style="font-size:3px; font-family:Arial" x="70" y="285.5">Over 20.0 km</text><rect fill="red" height="2.6" width="2.6" x="65" y="287" /><text fill="#FFFFFF" style="font-size:3px; font-family:Arial" x="70" y="289.5">Over 40.0 km</text><text fill="#FFFFFF" style="font-size:4px; font-family:Arial" x="120" y="280">STATISTICS</text><text fill="#FFFFFF" style="font-size:3px; font-family:Arial" x="120" y="285">Number: 70</text><text fill="#FFFFFF" style="font-size:3px; font-family:Arial" x="120" y="290">Weekly: 3.7</text><text fill="#FFFFFF" style="font-size:3px; font-family:Arial" x="141" y="285">Total: 369.2 km</text><text fill="#FFFFFF" style="font-size:3px; font-family:Arial" x="141" y="290">Avg: 5.3 km</text><text fill="#FFFFFF" style="font-size:3px; font-family:Arial" x="167" y="285">Min: 3.2 km</text><text fill="#FFFFFF" style="font-size:3px; font-family:Arial" x="167" y="290">Max: 11.5 km</text><polyline fill="none" points="22.59020538124605,31.19999999999709 22.72222500600037,32.368188152991934 22.19414650698309,35.90860261541093 21.96893655884196,36.70832128608163 22.031063441099832,37.04078647078859 21.63500456683687,40.01494645149796 21.34766773643787,41.272869222324516 21.386497037892696,41.74907817518397 20.850652678549523,45.72936596393993 21.114691928058164,49.179402834386565 21.572877684578998,52.80000000000291 22.031063441099832,52.70117673360073 21.2389456925157,45.77428918343503 23.149347321421374,32.592837951851834" stroke="#4DD2FF" stroke-linecap="round" stroke-linejoin="round" stroke-width="0.5"><title>2025-09-13 5.1km</title><desc>1757760467000</desc></polyline><polyline fill="none" points="48.82147226043162,31.200000000004366 48.782723568874644,32.89483616056532 48.34873822375084,35.86296287882578 48.178243981004925,36.2216421273406 47.98450052336557,38.36472026653064 47.48076753341593,41.31473017385724 47.527265963261016,41.67338727110473 46.984784281870816,45.51989303097071 47.00028375844704,46.51511548453709 47.69001046771882,52.80000000000291 48.14724502779427,52.73724302174378 47.83725549551309,49.312437440865324 47.411019888706505,46.793058490198746 47.380020935466746,45.77094119430694 48.62772880279226,36.75069135844387 48.8137225221144,36.23957605149917 48.75172461569309,36.00643475312245 49.01521571810008,34.168183715242776" stroke="#4DD2FF" stroke-linecap="round" stroke-linejoin="round" stroke-width="0.5"><title>2025-09-11 5.0km</title><desc>1757592265000</desc></polyline><polyline fill="none" points="73.56798466990585,52.71263905284286 73.73575761364191,52.625278025792795 73.76092355520814,51.99433490270167 73.95386244051042,51.85843891535478 74.07130350111402,51.169249145918 74.33135156388744,48.713363480848784 74.85144768943428,45.79145677824272 74.91855686693452,43.77227965028578 74.03774891232024,36.753365474673046 73.55959602270741,35.85048014073254 73.64348249454633,35.695144168690604 74.05452620671713,35.724269682694285 73.86997596861329,33.88934494757996 73.4589322564425,33.3553655164651 73.5176527867734,32.38448617168615 73.08144313306548,31.200000000004366 73.50926413957495,32.25827113165724 73.46732090364094,33.40390922452207 73.86997596861329,33.85051018055674 74.04613755954779,35.75339518783585 73.635093847377,35.695144168690604 73.55959602270741,35.82135466523323 73.84481002704706,36.19998515381303 74.07969214828336,36.91840810735448 74.4404039773217,40.78226587209065 74.91855686693452,43.90818714312627 74.85144768943428,45.90794646393624 73.84481002704706,52.74175937745895 73.66025978894322,52.80000000000291" stroke="#4DD2FF" stroke-linecap="round" stroke-linejoin="round" stroke-width="0.5"><title>2025-09-09 5.2km</title><desc>1757417515000</desc></polyline><polyline fill="none" points="100.75559871742735,31.19999999999709 100.69360087395762,31.881525331940793 100.87184467396582,31.926362340309424 100.76334844788653,33.02934557369008 100.35261273480137,35.76432583171845 100.15111974347383,36.31131171362358 99.89537863913574,39.082056977385946 99.4458942739002,41.36852883395477 99.48464292605058,41.843748884508386 98.96541098688613,45.51989303332084 98.94991152602597,46.61374052432802 99.25215101303183,49.420024978557194 99.66288672605879,52.74620830708591 100.11237109132344,52.80000000000291 100.09687163043418,52.450353410509706 100.33711327394121,52.22622025326564 100.33711327394121,52.10070543673646 99.96512621303555,51.83174451493687 99.3683969695121,45.75300920864538 100.54635599569883,37.25283685014438 100.80209710006602,36.36511342055019 100.72459979570704,36.02436872285034 101.05008847397403,33.666020677359484" stroke="#4DD2FF" stroke-linecap="round" stroke-linejoin="round" stroke-width="0.5"><title>2025-09-07 5.0km</title><desc>1757247375000</desc></polyline><polyline fill="none" points="125.43079735303763,52.73118653970596 125.62619527665083,52.80000000000291 125.6771686479915,52.11186319465196 125.92353994294535,51.7383011647762 126.73911388480337,46.282165012322366 126.89203399891267,44.19793807549286 125.96601775239105,36.61765854815167 125.47327516254154,35.68360114467214 125.55823078146204,35.55578206129576 125.96601775239105,35.624607742567605 125.78761095262598,33.70730258058029 125.38831954356283,33.18618229880667 125.43079735303763,32.20292883484217 125.10796600105823,31.200000000004366 125.43079735303763,32.10460293845972 125.3968151054869,33.176349813657 125.79610651449184,33.64830797268223 125.99150443807594,35.60494326719345 125.54123965770123,35.52628532574454 125.49876184819732,35.66393668130331 125.81309763828176,36.13588269834145 126.01699112376082,36.85362951719435 126.3228313519503,40.18665794681874 126.88353843704681,44.00131057438557 126.88353843704681,45.17123831948993 126.29734466629452,49.35926702341385 125.87256657157559,52.03321867663908 125.6771686479915,52.30847420992359" stroke="#4DD2FF" stroke-linecap="round" stroke-linejoin="round" stroke-width="0.5"><title>2025-09-04 5.0km</title><desc>1756985562000</desc></polyline><polyline fill="none" points="152.63839387215558,31.254051603697008 152.7318173655949,31.19999999999709 152.78631440349272,31.326120357356558 152.75517323901295,31.866634142497787 152.84081144136144,31.866634142497787 152.77852911237278,32.83955065172631 152.35812339172116,35.57807313747617 152.07785291125765,36.67706166872085 152.11677936685737,37.10944686536095 151.44724433022202,41.23501625612698 151.48617078587995,41.613333973313274 150.9567709894327,45.34237940765888 151.00348273618147,47.17081541704829 151.64187660833704,52.79099358996609 152.00778529111994,52.80000000000291 152.0856382023776,52.69192301910516 151.7197295195656,49.503592849687266 151.81315301306313,49.29643749012757 151.5640236970794,48.12555027632334 151.3382502544846,45.657629684501444 151.76644126631436,42.29790478797804 151.99221470890916,41.44219044400961 152.41262042956077,37.70397306820087 152.64617916324642,36.34376330731902 152.77852911237278,36.16360150925175 152.70067620114423,35.92038250123005 153.0432290105673,33.37104682804784" stroke="#4DD2FF" stroke-linecap="round" stroke-linejoin="round" stroke-width="0.5"><title>2025-09-02 5.1km</title><desc>1756811867000</desc></polyline><polyline fill="none" points="178.62700669438345,31.200000000004366 178.59565635965555,32.787079646252096 178.18026442461996,35.68002651362622 177.9216241631948,36.66850410892221 177.92946174685494,37.43932766544458 177.29461746884044,41.30241369862779 176.80084969699965,45.664054068322 176.83220003169845,46.98791939225339 177.45136914242175,52.056510006063036 178.0627006694267,52.80000000000291 177.9216241631948,52.727464663294086 177.81189799169078,51.86610303654743 177.57677048127516,49.6174566918271 177.63947115070187,49.39077549146896 177.2240792157245,46.734028933416994 177.20840404834598,45.455498152463406 178.47025502077304,36.532475731561135 178.64268186173285,36.16973237849015 178.73673286588746,34.60085040204285 179.19915030300035,32.09783709511248" stroke="#4DD2FF" stroke-linecap="round" stroke-linejoin="round" stroke-width="0.5"><title>2025-08-31 5.1km</title><desc>1756640573000</desc></polyline><polyline fill="none" points="22.695043930376414,55.200000000004366 22.76493661609129,56.943290499199065 22.283453669951996,59.953530823782785 22.120370736549376,60.22309958601545 22.042712196853245,60.76223464580107 21.97281951113837,62.137014174491924 21.53793168879929,65.11113729879435 21.42144387922599,65.308809612201 21.46803900305531,65.74009312645649 20.939960933086695,69.44185682100215 20.97102434898261,70.96923845096899 21.58452681262861,76.29689858575148 22.17473171435995,76.80000000000291 22.0504780508345,76.60235335692414 21.74760974603123,73.16143424202164 21.367082901473623,70.87040867276664 21.367082901473623,69.17231614923367 21.965053657186218,65.54242177673586 22.407707333477447,61.75064038726123 22.76493661609129,60.26802763316664 22.71057563830982,59.9265739023831 23.06003906694241,57.32069938119821" stroke="#4DD2FF" stroke-linecap="round" stroke-linejoin="round" stroke-width="0.5"><title>2025-08-30 5.0km</title><desc>1756550382000</desc></polyline><polyline fill="none" points="47.56339825008763,76.79028449801262 47.85726481254096,76.80000000000291 48.79763781250222,70.26124390440236 48.931976812455105,68.0750815565334 48.377828437514836,64.16901368534309 48.142735187517246,61.215065306969336 48.00000000005821,60.56401835239376 47.57179443756468,59.89353252444562 47.630567750078626,59.73805687796266 48.067169500049204,59.806077504414134 47.85726481254096,57.833459679211956 47.47104018754908,57.43504423969716 47.49622875006753,56.25922313508636 47.068023187574,55.200000000004366 47.50462493757368,56.307811070626485 47.45424781256588,57.38645687732787 47.85726481254096,57.86261196323903 48.0503771250369,59.786643044659286 47.630567750078626,59.74777411326795 47.57179443756468,59.87409808247321 47.92443431256106,60.427978130021074 48.1511313750234,61.360821480237064 48.39462081252714,64.42164976904314 48.931976812455105,67.93905202479073 48.83122256252682,69.99890706250153 47.97481143751065,75.87702290394373" stroke="#4DD2FF" stroke-linecap="round" stroke-linejoin="round" stroke-width="0.5"><title>2025-08-28 5.0km</title><desc>1756381580000</desc></polyline><polyline fill="none" points="74.73083260923158,55.200000000004366 74.90870721259853,56.12173204022838 74.87777249896317,56.962915968535526 74.39828443786246,59.96963539333956 74.22814351294073,60.282829430900165 74.20494247772149,61.26714629920025 73.52437877806369,65.27588684019429 73.5785145269474,65.78591440842865 73.06035807376611,69.15918029746535 73.02168968177284,70.52813465266081 73.14542853622697,70.67129204966477 73.09902646578848,71.25286658325786 73.6867860245693,76.3258232108492 74.33641501059174,76.80000000000291 74.12760569364764,76.61211893588188 73.40837360199657,70.6891867079321 73.37743888839032,69.53497380699991 73.91106269831653,65.76801875426463 74.04253523124498,65.58011416606314 74.16627408569911,64.00527900485031 74.70763157404144,60.90921416519268 74.66896318201907,60.48864204921847 74.81590307169245,60.29177781560429 74.75403364445083,60.02332587887213 74.97831031822716,58.48418564865278" stroke="#4DD2FF" stroke-linecap="round" stroke-linejoin="round" stroke-width="0.5"><title>2025-08-26 5.0km</title><desc>1756206850000</desc></polyline><polyline fill="none" points="100.67951249846374,55.200000000004366 100.69504421268357,55.93685893970542 100.81929792673327,55.963817077179556 100.74940521261306,56.880388861944084 100.31451721358462,59.86367438639718 100.16696592819062,60.1961427460119 99.98835121432785,62.21788289219694 99.45250707268133,65.26388412413507 99.36708264431218,66.67453352676239 98.97102393093519,69.32505596307601 99.0409166450554,71.32861853135546 99.63888764369767,76.67422491453908 99.66218521507108,76.80000000000291 100.12813664259738,76.74609641382267 99.79420478621614,73.26026146084041 99.38261435856111,70.88837773071282 99.34378507290967,69.6844427225733 99.84079992896295,66.00964425408165 100.01941464285483,65.49749640733353 100.61738564143889,60.600494472113496 100.79600035533076,60.241070806834614 100.73387349833502,59.95353082304791 101.02897606909391,57.7160783868967" stroke="#4DD2FF" stroke-linecap="round" stroke-linejoin="round" stroke-width="0.5"><title>2025-08-24 5.0km</title><desc>1756042259000</desc></polyline><polyline fill="none" points="125.72463362087728,76.80000000000291 125.96557920260238,76.4514900826398 126.80028353934176,70.76562463909067 126.95517712761648,68.26612929299154 126.49910156219266,65.38814530587115 126.04302599673974,60.99631819346541 125.54392443463439,59.98049340520811 125.66439722548239,59.84106565118418 126.03442079739762,59.88090217259014 125.84510641175439,57.92889356867818 125.43205684307031,57.460804089467274 125.50089843783644,56.45490210688149 125.0362176730705,55.200000000004366 125.47508283983916,56.265671866385674 125.44926724175457,57.47076346336689 125.86231681046775,57.95877154457412 126.0602363954531,59.890861300395045 125.95697400331846,59.99045252288488 125.59555563065805,59.8609839139026 125.59555563065805,60.00041163955029 125.93115840526298,60.607915841981594 126.1204727908771,61.34488309494918 126.34420797394705,64.05368805256148 126.96378232695861,68.36571200061007 126.82609913736815,70.63617027067085 125.879527209152,76.72034069961228" stroke="#4DD2FF" stroke-linecap="round" stroke-linejoin="round" stroke-width="0.5"><title>2025-08-23 5.0km</title><desc>1755956696000</desc></polyline><polyline fill="none" points="152.76256407774054,55.200000000004366 152.77038524774252,55.79730542909965 152.87206045811763,55.90590598586277 152.83295460799127,56.810905475882464 152.3636844063003,59.72494136221212 152.19161866567447,60.0959763568535 151.79273899423424,63.81529054776183 151.58938857354224,65.04597832779837 151.45642868304276,65.17266581064177 151.5189980433206,65.61607058211666 150.95587380128563,69.87807329295174 151.67542144385516,76.65523318108171 151.69888495391933,76.76380831730785 152.12122813542373,76.80000000000291 151.34693230266566,69.69710067675624 152.51228663683287,61.22717107065546 152.66088886736543,60.30411726255261 152.8016699278669,60.13217481014726 152.73910056764726,59.78828890971636 153.04412619871437,57.435349762716214" stroke="#4DD2FF" stroke-linecap="round" stroke-linejoin="round" stroke-width="0.5"><title>2025-08-21 5.0km</title><desc>1755781186000</desc></polyline><polyline fill="none" points="178.60210460060625,55.200000000004366 178.62541187551687,56.872098373445624 178.15926637823577,59.87460430718056 177.99611545418156,60.189232264936436 177.92619362959522,60.71960257567116 178.0116536374262,60.98029190211673 177.28912811671034,65.24110514279164 177.33574266644428,65.6905460555281 176.82298261942924,69.37587545426504 176.85405898591853,70.93085865658213 177.50666268207715,76.80000000000291 177.9572699960845,76.71911095663381 177.64650633124984,73.31271637571626 177.2425135669764,70.88591732888017 177.2192062920949,69.16914152613754 177.72419724744395,65.73549002125947 177.85627180500887,65.53773640128202 178.39233912687632,61.070184595249884 178.6487191503693,60.20721097158821 178.65648824197706,59.218376680946676 179.17701738059986,55.910196180564526" stroke="#4DD2FF" stroke-linecap="round" stroke-linejoin="round" stroke-width="0.5"><title>2025-08-19 5.3km</title><desc>1755607955000</desc></polyline><polyline fill="none" points="21.765959444543114,100.69360807433259 22.142096051509725,100.80000000000291 22.142096051509725,100.08427020936506 22.284192103048554,99.76509167564654 22.459722519648494,97.55982892544125 22.969596586859552,94.22282102485042 22.919445039267885,92.03677560450888 22.35106083319988,88.37068405092577 22.09194450394716,85.35258182932012 21.933131269848673,84.55934676749166 21.523560297879158,83.87251594456029 21.61550480176811,83.70806275822542 22.01671718255966,83.79512624522613 21.841186765930615,81.98612408815097 21.406540020136163,81.3960143392469 21.439974385197274,80.25448017282179 21.030403413140448,79.19999999999709 21.47340875028749,80.30285054254637 21.423257202637615,81.38634037844167 21.81611099213478,81.81199372330593 22.01671718255966,83.78545252837648 21.59878761926666,83.72741020666581 21.556994662911166,83.85316852563119 22.041792956355494,84.96563872293336 22.292550694284728,87.87734696416737 22.911086448002607,92.15285007512284 22.902727856708225,93.14915012458368 22.284192103048554,97.43408872010332 22.100303095183335,97.52113964918681 21.983282817469444,97.81130883774313 21.765959444543114,99.23312507429364" stroke="#4DD2FF" stroke-linecap="round" stroke-linejoin="round" stroke-width="0.5"><title>2025-08-17 5.0km</title><desc>1755429603000</desc></polyline><polyline fill="none" points="47.689341030898504,100.75142248022894 47.5801905823173,100.80000000000291 47.70613340759883,100.67369839725143 47.848868609638885,98.53626135503146 47.96641524657025,97.7881471008368 48.3526399108232,97.46752491413645 48.344243722443935,96.72911821245361 48.86480740032857,93.79486679863476 48.94037309550913,92.47345264273463 48.02518856502138,84.80694683905313 47.54660582888755,83.87409808230586 47.638963900797535,83.76720858075714 48.041980941721704,83.79636027485685 47.86566098633921,81.91119908335531 47.46264394535683,81.40589182515396 47.48783251046552,80.30781107058283 47.059626904461766,79.19999999999709 47.51302107551601,80.32724623788818 47.45424775700667,81.35730444797082 47.85726479795994,81.83345967911009 48.05877331845113,83.78664304447739 47.63056771244737,83.73805687778804 47.571794393938035,83.88381530377956 48.07556569512235,84.92355229337409 48.94037309550913,92.01678320924111 48.931976907129865,93.17302711837692 48.36943228752352,97.31207134562283 47.94962286986993,99.99360997610347 47.77330291445833,100.12962804735434 47.71452959597809,100.53768110003148" stroke="#4DD2FF" stroke-linecap="round" stroke-linejoin="round" stroke-width="0.5"><title>2025-08-16 5.1km</title><desc>1755350047000</desc></polyline><polyline fill="none" points="73.87400050120777,100.74168073586043 73.57160170399584,100.80000000000291 73.71440113600693,100.6542017729953 74.11759953229921,97.6409886584006 74.34439863014268,97.52434624233865 74.2939988306025,97.20357886476268 74.89879642502638,93.63618430482893 74.94079625798622,92.09059602784691 74.03359986635041,84.82891292996646 73.58000167057617,83.91508776991395 73.67240130304708,83.74009897688666 74.04199983298895,83.79842861014913 73.85720056801802,81.8832537195849 73.46240213833516,81.43604999646777 73.52120190445567,80.47358271361736 73.05080377546255,79.20000000000437 73.48760203810525,80.22081192158657 73.47920207152492,81.38744077007141 73.85720056801802,81.84436652236764 74.07559969931026,83.78870700707193 73.63880143669667,83.7498205849115 73.59680160373682,83.88592299332231 73.95800016704015,84.46921683487017 74.10919956566067,85.05250711782719 74.3779984965222,88.1730496888922 74.90719639163581,91.69204405620985 74.94919622456655,93.10154967640847 74.31079876379226,97.19385862438503 74.36119856333244,97.48546540539246 74.09239963252912,98.98236621914111 73.87400050120777,99.47808794841694" stroke="#4DD2FF" stroke-linecap="round" stroke-linejoin="round" stroke-width="0.5"><title>2025-08-14 4.9km</title><desc>1755170321000</desc></polyline><polyline fill="none" points="100.88231242704205,79.2180699464443 100.69491863719304,79.19999999999709 100.74957515925053,80.83531528319145 100.29670683384757,83.90709694234101 100.13273726776242,84.23233819998859 100.13273726776242,85.08157365376246 99.67206086780061,88.32485570999415 99.52370745089138,89.21018792306131 99.40658633221756,89.28245955142484 99.47685900342185,89.73415589814249 98.93810185769689,93.44701295073173 98.98495030513732,95.02786611707415 99.640828569507,100.72773772773508 100.085888820322,100.80000000000291 99.32069751189556,93.64575032120774 100.59341366772423,84.62985367725923 100.77299938295619,84.25944158440689 100.69491863719304,83.94323491860996 101.06189814230311,81.37740211007622" stroke="#4DD2FF" stroke-linecap="round" stroke-linejoin="round" stroke-width="0.5"><title>2025-08-12 5.0km</title><desc>1754999139000</desc></polyline><polyline fill="none" points="126.5824328395538,79.27237055647856 126.68406541558215,79.19999999999709 126.69188330607722,80.72881550067541 126.20717409727513,83.84064287657384 126.04299839754822,84.14820130456064 125.8788226978213,86.2377613213248 125.36284192718449,89.26798852047068 124.83904326611082,93.63676147720253 124.88595060887747,94.97539021790726 125.43320294137811,99.50668009934452 126.00390894524753,100.80000000000291 125.23775567975827,93.69103060119232 126.39480346845812,85.34224160398298 126.6762475251162,84.18438457915909 126.60588651095168,83.931101348011 126.9342379104346,81.48869036129327 127.16095673391828,80.56598432963801" stroke="#4DD2FF" stroke-linecap="round" stroke-linejoin="round" stroke-width="0.5"><title>2025-08-10 5.0km</title><desc>1754830447000</desc></polyline><polyline fill="none" points="151.6928483536176,100.80000000000291 152.86254914407618,93.8375021573811 152.938285166485,92.20148519938084 152.3155667600513,87.88733031826268 152.0210377840267,84.74167278670211 151.54979142238153,83.90411188018334 151.61711233120877,83.72880750771583 152.04628312482964,83.81645973406557 151.8611506256275,81.88809222404961 151.45722517278045,81.4108639681217 151.4824705135543,80.32004759612755 151.05329971993342,79.20000000000437 151.49930074080476,80.35900553761894 151.46564028636203,81.42060334406415 151.8611506256275,81.8978315514396 152.0631133519928,83.78724233420508 151.63394255837193,83.76776406266436 151.58345187676605,83.87489450706926 152.0631133519928,84.90723628499836 152.45020857764757,88.73459502817423 152.90462471207138,91.51980322126474 152.94670028006658,93.06818813908467 151.97054710242082,99.98205445134954 151.70126346717007,100.26444120366068" stroke="#4DD2FF" stroke-linecap="round" stroke-linejoin="round" stroke-width="0.5"><title>2025-08-09 5.0km</title><desc>1754735080000</desc></polyline><polyline fill="none" points="178.6486129325931,79.20000000000437 178.6955006144708,80.71913325694186 178.3907306822657,83.10629027030518 178.0,84.75194456340978 177.91403924991027,86.24385759914003 177.39046013561892,89.29994077352603 177.42171859022346,89.77009810354502 176.89032486235374,93.35044554945489 176.87469563505147,94.58002660873171 177.54675240858342,100.29373933830357 178.07033152278746,100.80000000000291 177.3044993855292,94.9055011056189 177.34357245377032,92.9797596929202 178.46106220508227,85.29446128792188 178.6017252507154,84.41739093494834 178.73457368268282,84.24559263707488 178.67205677353195,83.87486886441911 179.12530436494853,80.80955703785003" stroke="#4DD2FF" stroke-linecap="round" stroke-linejoin="round" stroke-width="0.5"><title>2025-08-07 5.0km</title><desc>1754570205000</desc></polyline><polyline fill="none" points="22.374346589436755,103.20000000000437 22.422649375192123,103.81481808461103 22.58365866096574,103.88002582146146 22.527305410971167,104.31784799612797 22.962030482594855,104.38305537519045 23.01033326832112,104.7836139717765 22.56755773240002,107.00062757878186 22.438750303786946,108.18363391300227 22.527305410971167,108.50034168010461 22.39044751803158,108.63075044270226 22.132832660805434,110.14906738545687 20.997717195976293,118.40156521791505 21.698107589181745,124.80000000000291 20.989666731707985,118.25254249540012 21.48879551765276,114.48032419478113 21.673956196318613,113.96803566932795 22.11673173221061,110.14906738545687 22.342144732334418,108.74252923445601 22.48705308951321,108.49102676137409 22.430699839489534,108.12774419350899 22.87347537538153,104.86745159613201" stroke="#4DD2FF" stroke-linecap="round" stroke-linejoin="round" stroke-width="0.5"><title>2025-08-05 5.0km</title><desc>1754406000000</desc></polyline><polyline fill="none" points="47.672921033314196,124.80000000000291 48.04672556667356,121.70334582872601 48.27610562121845,121.5263911677539 48.63291903946083,119.12764049445104 48.89628132429789,117.20073211450654 48.913272439473076,116.001310575557 48.293096736393636,111.74422715823312 48.05522112426115,108.91262217042095 47.84283218480414,108.17521142999612 47.520000996941235,107.71309783302422 47.596461015113164,107.56561430524016 48.01274333635229,107.6049432679938 47.817345512099564,105.66797284648055 47.418054306006525,105.24517718910647 47.4520365363569,104.04560735283303 47.08672756055603,103.20000000000437 47.460532093886286,104.17343107661873 47.418054306006525,105.14685235264187 47.83433662727475,105.65814041031263 48.02123889393988,107.59511102880788 47.910796645475784,107.69343337562896 47.503009881824255,107.61477550616837 48.04672556667356,108.76514047222736 48.39504342729924,112.49144242567854 48.913272439473076,116.03080472620059 48.90477688188548,117.24988841766753 47.910796645475784,124.05287981229776 47.85982330000843,124.21999930262973 47.63893880302203,124.22982985187991 47.5539832272043,124.60338998368388 47.316107615071815,124.58372896008223" stroke="#4DD2FF" stroke-linecap="round" stroke-linejoin="round" stroke-width="0.5"><title>2025-08-03 5.0km</title><desc>1754221111000</desc></polyline><polyline fill="none" points="84.80000000000291,112.83135902184404 84.73358954649302,113.10672164130119 84.56202920830401,113.12273102190375 81.19169869330653,113.05549156871166 81.10038431975408,112.99785763749787 80.96756341274886,113.05228968640586 80.5386625672545,113.04908780378173 80.50269023826695,113.01386707340862 79.73620292083069,113.0586934506864 79.3598770176759,113.00105952533158 78.14511913912429,112.99785763749787 77.61936971559771,112.91460843964342 77.26241352804936,112.82175330563405 77.24027671021759,112.7865323211663 76.74496541121334,112.77052276974973 75.65749423518719,112.5784075183492 74.05810914681933,112.56559979327358 70.72098385856953,112.9818481934526 70.26994619522884,113.18997033162668 69.78570330514049,113.3372559372765 68.4851652574871,114.12810383063879 67.79615680246206,114.47709517256044 67.37279016140383,114.59876097044253 67.12375096080359,114.60196269562039 66.80830130669347,114.52512120152642 66.47348193696234,114.66279541224685 66.36003074556356,114.43867429671627 66.2244427363621,114.52832293418578 66.11375864720321,114.32020963463765 64.22936202920391,115.43440020672824 64.08547271329735,115.07261275897508 63.504381245191325,113.96161118659074 63.44903920061188,113.92318968227846 63.19999999999709,114.04485761856267 63.363259031495545,113.91998788814271 63.44350499616121,113.91038250377278 63.46840891621832,113.83033752015035 63.56802459647588,113.83674112631888 63.70084550346655,113.74709052150865 63.73958493466489,113.79191585579792 63.839200614907895,113.72787964444433 63.80599538816023,113.78871404831807" stroke="#4DD2FF" stroke-linecap="round" stroke-linejoin="round" stroke-width="0.5"><title>2025-08-02 8.3km</title><desc>1754134728000</desc></polyline><polyline fill="none" points="100.577355445188,103.20000000000437 100.46110938239144,103.22690241551754 100.39136174472515,103.95326453410962 100.97259205864975,103.95326453410962 100.97259205864975,104.53614339214255 99.03515767888166,117.35850454924366 99.04290741638397,118.71236544987187 99.84888011837029,124.80000000000291 99.08165610401193,118.8827173378595 99.02740794135025,117.5647231127441 100.17436909416574,109.36940592834435 100.46110938239144,108.25750997219438 100.38361200722284,108.0064347533189 100.74784967058804,105.3611345802492" stroke="#4DD2FF" stroke-linecap="round" stroke-linejoin="round" stroke-width="0.5"><title>2025-07-31 5.0km</title><desc>1753965181000</desc></polyline><polyline fill="none" points="125.57233666401589,124.80000000000291 125.66549105400918,124.0160555915063 125.90261131952866,123.73187416961446 126.76640657242388,117.78347079783998 126.85956096241716,115.58825065717247 126.4191947550571,112.9225590003989 125.95342280500336,108.52204642302968 125.5045880167163,107.65956161529175 125.59774240673869,107.5321484326123 125.97035996679915,107.58115352279856 125.80945692950627,105.63073169493146 125.37755930304411,105.16027228034363 125.4283707885188,104.07232608836784 125.08962755210814,103.20000000000437 125.4368393694167,104.09192883111973 125.4029650457669,105.17987480179727 125.80945692950627,105.68953896026505 126.00423429044895,107.56155148972903 125.89414273860166,107.65956161529175 125.55539950216189,107.52234741157008 125.5215251785412,107.66936262237869 126.02964003317175,108.7964717888608 126.32604036503471,112.08951524123404 126.91037244789186,116.29386258187151 126.30063462231192,121.37019616112957 125.85179983408307,124.18264431152056 125.69089679676108,124.25123958320182" stroke="#4DD2FF" stroke-linecap="round" stroke-linejoin="round" stroke-width="0.5"><title>2025-07-29 5.0km</title><desc>1753797916000</desc></polyline><polyline fill="none" points="152.9264486086613,103.20000000000437 152.9108780438255,104.84855908886675 152.5527550522238,107.37088525087165 152.2724848848884,108.20864199515927 152.0856381066842,110.51468419648882 151.5640241841611,113.27104658733151 151.6263064435334,113.75745458687015 151.1124778034282,117.17124307655467 151.143618933158,118.98166861446953 151.782012092066,124.80000000000291 151.1825453452766,119.74726033690968 151.0735513913387,117.82876508239133 151.5718094666081,113.41516775418131 152.2646996024705,109.01035877962568 152.1946320606512,108.7851581677678 152.5293992049992,107.41592613737157 152.9108780438255,104.37111070282845" stroke="#4DD2FF" stroke-linecap="round" stroke-linejoin="round" stroke-width="0.5"><title>2025-07-27 5.0km</title><desc>1753616848000</desc></polyline><polyline fill="none" points="178.6169385756948,103.20000000000437 178.63993007541285,105.09775109581096 178.21841924730688,108.09504961468338 178.0498149160412,108.4142824451992 177.8122360856505,111.02130686266173 177.3830614242761,113.3977102684803 177.4137167572335,113.84992896355106 176.85425693081925,117.53852731685038 177.55166575554176,124.80000000000291 178.01149574987357,124.72907278395724 177.6819509206107,121.1737722694379 177.3064230918826,118.68231582688168 177.291095425433,117.3523277692293 178.3487044123176,109.89515280613705 178.70124074135674,108.40541488234157 178.62460240896326,108.05957922809466 179.14574306918075,104.90265709179221" stroke="#4DD2FF" stroke-linecap="round" stroke-linejoin="round" stroke-width="0.5"><title>2025-07-26 5.2km</title><desc>1753529066000</desc></polyline><polyline fill="none" points="22.745522359735332,127.19999999999709 22.652332064753864,127.66727711300337 22.77658579137642,128.26934206089936 22.62903449102305,129.68912078344874 22.302868458646117,131.8996169718448 22.132019584532827,132.21411397289194 22.108722010772908,133.15759826671274 21.417560656467685,137.29982451531396 21.471921661839588,137.69516785716405 20.959375039557926,141.4598261687206 21.029267760750372,143.46338568533974 21.642770535952877,148.8000000000029 22.085424437042093,148.75508034713857 21.735960830934346,145.49385263142904 21.813619410066167,145.32315145192842 21.37096550897695,142.78954786194663 21.363199651037576,141.58561150899914 23.040624960442074,129.8418804271423" stroke="#4DD2FF" stroke-linecap="round" stroke-linejoin="round" stroke-width="0.5"><title>2025-07-24 5.0km</title><desc>1753356656000</desc></polyline><polyline fill="none" points="47.62114906127681,148.76103279968083 47.730594888009364,148.8000000000029 48.10102691699285,145.72154237441282 48.345175299735274,145.56566847279464 48.286242931499146,145.2636620671401 48.91766116270446,141.35697731620894 48.95975571149029,140.17812096931448 48.328337480226764,136.01790873167192 48.067351278004935,132.9390405359518 47.56221669304068,131.87700292711088 47.63798688078532,131.72110650752438 48.050513458496425,131.7990547490117 47.831621805002214,129.84058596364048 47.46960868575843,129.45083615588374 47.50328432477545,128.39850375573587 47.04024428850971,127.20000000000437 47.46118977601873,128.16465054165747 47.452770866279025,129.41186108793045 47.84004071477102,129.82109851090354 48.05893236826523,131.7405935738425 47.949486541503575,131.84777236774244 47.654824700264726,131.73085004118911 47.56221669304068,131.84777236774244 47.85687853425043,132.26674286636262 48.067351278004935,132.96827076242334 48.446202216728125,136.84606842125504 48.93449898218387,140.0124953622726 48.92608007247327,141.3082645311879 48.00841890976881,147.68942858416995" stroke="#4DD2FF" stroke-linecap="round" stroke-linejoin="round" stroke-width="0.5"><title>2025-07-22 5.0km</title><desc>1753184035000</desc></polyline><polyline fill="none" points="63.199999999953434,141.5624634611886 63.199999999953434,138.096401750925 65.49645608628634,128.39126031968044 84.06779661017936,131.7803855687671 84.79999999993015,132.58914961473783 82.30385208025109,147.57022867209162 65.62958397530019,144.95147092919797 65.03050847456325,144.18124462015112 67.0939907549182,129.20003159838961 67.82619414466899,128.73787679336965 72.25269645615481,129.46962164112483 84.76671802764758,132.24253666360164 82.57010785827879,147.2621404650272 81.87118644057773,147.60873968029045 65.29676425259095,144.79742579261074 65.49645608628634,139.86794836321496 67.12727272731718,129.27705734450137 67.65978428348899,128.81490263334126 75.84714946069289,130.20136507603456 67.49337442219257,128.89192845771322 66.56147919874638,133.12832468663692 67.39352850534488,133.93708585601416" stroke="#4DD2FF" stroke-linecap="round" stroke-linejoin="round" stroke-width="0.5"><title>2025-07-20 4.9km</title><desc>1753020627000</desc></polyline><polyline fill="none" points="101.2415045266971,127.20000000000437 101.0785570575681,128.30436744455073 100.47332360080327,129.8576413865594 99.96120298354072,132.19199018311338 99.82153372425819,134.03249095365027 99.34045072016306,137.11187726538628 99.23181907407707,137.21063131921255 99.28613489714917,137.6505344002362 98.78177368312026,141.28638420697098 98.7584954732738,142.48932381260238 99.44908236624906,148.7910235401141 99.3714883333596,147.5522633340588 99.45684176957002,148.8000000000029 99.89912775720586,148.71023536001303 99.1542250411585,141.6813811062966 100.3414137448417,133.00899769496027 100.58971465018112,132.227902759907 100.62075226334855,131.17745385890885" stroke="#4DD2FF" stroke-linecap="round" stroke-linejoin="round" stroke-width="0.5"><title>2025-07-20 5.0km</title><desc>1752942252000</desc></polyline><polyline fill="none" points="126.9313751849404,127.2096655261048 126.79772493423661,127.20000000000437 126.58889641740825,128.2632019833909 126.82278435624903,128.40818315134675 126.80607807487831,128.7174755712258 126.513718151371,130.6891911100247 126.35500847859657,131.02747153181554 125.94570458566886,134.8837833314392 125.6032258180785,136.45912388776924 125.63663838079083,136.92302288432984 125.04356539304717,141.35894283377274 125.84546689756098,148.8000000000029 125.10203737774282,142.59593810703518 125.08533109643031,140.72111086343648 125.63663838079083,136.98101009989477 125.6115789587493,136.4687884732557 126.22135822783457,132.7961752950505 126.34665533789666,131.01780639360368 126.513718151371,130.66986076388275 126.95643460698193,127.50929634802014" stroke="#4DD2FF" stroke-linecap="round" stroke-linejoin="round" stroke-width="0.5"><title>2025-07-17 5.0km</title><desc>1752765839000</desc></polyline><polyline fill="none" points="161.2675675676437,148.34420429656166 161.75405405415222,147.66868882908602 162.79999999993015,138.85869042470586 147.15945945947897,138.15500434566638 144.3378378378693,138.3801840855158 144.67837837827392,138.15500434566638 144.16756756755058,134.97432096430566 141.27297297294717,130.41433947323821 141.19999999995343,127.85283545544371 141.54054054047447,127.65579570346745 155.13783783791587,127.88098397993599 154.16486486489885,136.74762682401342 153.5567567567341,137.14169325091643 145.06756756757386,136.86021728892229 144.14324324321933,133.904702416301 141.75945945945568,130.864711357106 141.46756756748073,129.26025817796472 144.84864864859264,129.00692261577933 154.69999999995343,129.34470331392367 154.8459459459409,131.45582334313076 153.9702702703653,138.32388916771743 152.65675675671082,138.40833154009306" stroke="#4DD2FF" stroke-linecap="round" stroke-linejoin="round" stroke-width="0.5"><title>2025-07-15 4.1km</title><desc>1752589649000</desc></polyline><polyline fill="none" points="178.8680402453174,127.20000000000437 178.93386320231366,128.73282165628189 178.42373528561438,131.9316730419887 178.24272215389647,132.30296121930587 178.23449428426102,133.24545537052472 177.51044175738934,137.66267538349348 177.54335323590203,138.15769568821997 176.99208597108372,142.26055181449192 177.65031554098823,148.8000000000029 177.2718335382815,146.21092804607179 176.98385810144828,142.05112963294232 178.21803854504833,133.1788146813633 178.1439877184166,132.87417092733085 178.3908238071017,131.99831461803115 178.87626811495284,128.82802714322315 178.8186730275629,128.49480751567899 179.01614189855172,127.48562084310106 178.8351287668629,127.25712423828372" stroke="#4DD2FF" stroke-linecap="round" stroke-linejoin="round" stroke-width="0.5"><title>2025-07-13 5.0km</title><desc>1752418082000</desc></polyline><polyline fill="none" points="21.812414597108727,172.8000000000029 21.70156867726473,172.79013357777148 21.76978155100369,172.01068305471563 22.144952356786234,169.64269371809496 22.366644196561538,169.44535866640217 22.750341611535987,166.76156214134244 22.954980232811067,163.988885606057 22.392224024195457,160.1306879061085 22.102319310681196,156.90389328927267 21.93178712623194,156.2723368351144 21.573669538920512,155.69998524848052 21.65040902190958,155.55196273707406 22.059686264547054,155.6111717687454 21.880627470905893,153.73620155871322 21.471350228239316,153.2230455029421 21.496930055931443,152.04869739525748 21.207025342417182,151.2394744620251 21.027966548717814,151.2394744620251 21.18144551469595,151.20000000000437 21.471350228239316,151.92040640475898 21.46282361901831,153.23291391423845 21.83799442477175,153.57830767673295 21.880627470905893,153.77567498906865 22.059686264547054,155.5815672574172 21.641882412717678,155.56183091152343 21.548089711228386,155.6703807642989 21.923260517040035,156.21312820682942 22.09379270146019,156.81508091124851 22.443383679550607,160.65367509600037 22.972033451282186,163.91981436109927 22.96350684206118,165.18282364463812 21.923260517040035,172.28694471546623" stroke="#4DD2FF" stroke-linecap="round" stroke-linejoin="round" stroke-width="0.5"><title>2025-07-12 5.1km</title><desc>1752325602000</desc></polyline><polyline fill="none" points="47.86985901440494,172.8000000000029 47.659954198868945,172.79028449803445 48.13014098565327,169.55496743470576 48.32325341593241,169.4578090728537 48.86060974362772,165.85316406017955 48.94457166985376,164.03621599436156 48.44919630521326,160.7811691968891 48.0713676372543,156.82638109036634 47.56759608001448,155.80607750343916 47.63476562098367,155.69918792584212 48.054575252055656,155.7672085799568 47.86146282177651,153.79458995274035 47.48363415381755,153.376739401363 47.4668417685898,152.06487114561605 47.04703213754692,151.20000000000437 47.49203034641687,152.1717647885671 47.48363415381755,153.36702192495432 47.86985901440494,153.80430738568975 48.079763829911826,155.73805687696586 47.67674658409669,155.6894706855819 47.584388465300435,155.84494641108176 48.08816002251115,156.90411805992335 48.45759249784169,160.76173574879795 48.952967862423975,163.96820122503414 48.869005936256144,165.80458301048202 48.06297144465498,171.16778181793052" stroke="#4DD2FF" stroke-linecap="round" stroke-linejoin="round" stroke-width="0.5"><title>2025-07-10 5.0km</title><desc>1752149320000</desc></polyline><polyline fill="none" points="70.97083915647818,151.20000000001164 71.02143056935165,152.5464361152117 71.38821831234964,152.35617960168747 72.1723852113355,152.61961163040542 73.01979137631133,152.5464361152117 73.96838036697591,152.89767824913724 78.86309955868637,153.54161993673188 79.00222594395746,153.7318748844118 77.87656700843945,160.91747393333935 77.33270932047162,160.9613766955299 77.23152649478288,161.15162184360088 77.04180869663833,162.42479444474156 77.18093508190941,162.98088929167716 76.32088106375886,167.824677312703 70.02225016587181,167.634440976326 69.80723666126141,167.4881051620905 68.99777405598434,172.8000000000029 69.84518022090197,167.57590666846954 72.29886374337366,167.61980740157014 73.12097420194186,167.29786838132713 73.23480488080531,167.634440976326 76.35882462339941,167.7368759579258 78.53425537527073,154.11238402586605 78.47101610922255,153.61479494637751 71.9573717067833,152.47326056279417" stroke="#4DD2FF" stroke-linecap="round" stroke-linejoin="round" stroke-width="0.5"><title>2025-07-08 5.1km</title><desc>1751976330000</desc></polyline><polyline fill="none" points="89.39238742546877,172.60332322170143 89.34603223582963,172.8000000000029 89.63961510389345,172.67484207559028 89.73232548322994,171.67357547547726 90.27313602966024,171.22657961794175 90.38129813893465,170.76170272151649 91.94192285853205,159.9440280990093 92.0809884275659,156.6717739978194 91.7101469101035,154.25777703919448 92.55999205441913,154.22201387224777 92.77631627296796,154.54388211289188 95.75850014318712,154.9730388508906 98.15351827727864,154.93727582940483 99.89956375560723,155.63465343748976 105.46218651853269,156.45719783182722 106.48200069181621,151.1999999999971 110.65396776411217,152.12985595209466 106.9301008587936,151.25364566934877 106.23477301344974,154.34718492468528 106.12661090411711,156.49296054434672 95.71214495348977,155.09820936896722 92.77631627296796,154.56176366456202 92.51363686477998,154.1683691081853 91.66379172040615,154.31142177594302 92.00372977810912,155.741942054854 92.06553669774439,158.83540237956913 90.31949121929938,170.81534242613998" stroke="#4DD2FF" stroke-linecap="round" stroke-linejoin="round" stroke-width="0.5"><title>2025-07-06 5.0km</title><desc>1751807521000</desc></polyline><polyline fill="none" points="118.48768110363744,171.46114566719916 119.42353056982392,164.80611479237268 116.39478138840059,164.5895271066256 115.44191647745902,164.92425342802017 116.68404395069228,164.80611479237268 116.51388950232649,164.60921690623218 119.6447313526296,164.78642501278955 119.86593213560991,164.5895271066256 119.76383946661372,163.9791423259594 121.03999782941537,155.9258211225242 120.92088971560588,151.9088805182546 123.11588209989714,151.6922784128983 136.5580835225992,153.89767034615215 136.5410680777859,153.247869974919 121.75464651267976,151.1999999999971 121.99286274047336,156.06365584160085 120.44445726007689,167.01135744639032 120.86984338110778,167.680801142953 120.47848814976169,168.4093107728695 120.56356537394458,169.98445736573194 119.9680248045479,170.1222820833791 119.69577768718591,172.8000000000029 118.31752665521344,172.64248820573266 118.40260387945455,171.48083476851752" stroke="#4DD2FF" stroke-linecap="round" stroke-linejoin="round" stroke-width="0.5"><title>2025-07-05 4.8km</title><desc>1751729502000</desc></polyline><polyline fill="none" points="155.47653159161564,172.8000000000029 155.69029890629463,172.64377437834628 155.72405164019438,171.75849225716956 156.01657533395337,170.4696147036011 156.1740880921716,170.417538570342 156.37660449557006,168.5297644467646 151.97749817738077,168.3474951277749 152.25877095985925,167.37104793159233 152.6750546779367,162.97043354451307 152.72005832317518,159.75450434455706 152.56254556495696,159.32483967291773 152.7313092343975,156.69473966119403 152.72005832317518,151.20000000001164 146.81332989077782,153.32240369042847 146.68956986645935,153.62188113393495 146.73457351169782,153.36146600537177 149.91858140949626,152.15052870126965 149.97483596601523,154.83280452557665 150.28986148239346,155.5098749796016 152.64130194403697,155.5098749796016 152.6525528553757,158.94725437769375 152.90007290389622,159.06443614015006 152.99008019431494,159.48108153846988 157.10791373002576,159.74148422417056 157.31043013348244,160.77006965701003 157.287928310805,162.6449383102008 155.87031348713208,172.31830372134573" stroke="#4DD2FF" stroke-linecap="round" stroke-linejoin="round" stroke-width="0.5"><title>2025-07-03 5.2km</title><desc>1751545471000</desc></polyline><polyline fill="none" points="177.6214904837252,172.8000000000029 178.1345811613137,169.63671731814247 178.34486422588816,169.49071713368176 178.88318887123023,165.4999592376189 178.92524548413348,164.1177555339309 178.00841132254573,156.7781142833337 177.5626112256723,155.85331851030787 177.65513577405363,155.72676681490702 178.03364529029932,155.7949100562837 177.85700751605327,153.90635083913367 177.44485270947916,153.38066277890175 177.453264032054,152.18325142054528 177.05793187068775,151.20000000000437 177.48690932241152,152.27086739368679 177.44485270947916,153.4001327585429 177.82336222572485,153.7700616192451 177.88224148380687,154.07184463103476 178.03364529029932,155.78517531047692 177.6214904837252,155.75597106714122 177.5626112256723,155.8825227239431 178.01682264517876,156.7781142833337 178.45421141947736,160.94445183175412 178.94206812928314,164.08855383204354 178.79907564536552,166.26892308380047 177.87383016123204,172.46907685849146" stroke="#4DD2FF" stroke-linecap="round" stroke-linejoin="round" stroke-width="0.5"><title>2025-07-01 5.0km</title><desc>1751376396000</desc></polyline><polyline fill="none" points="21.240915986942127,196.8000000000029 21.39689215400722,196.60748258684907 21.365696920547634,195.8975719208902 21.615258787875064,195.65692327159195 21.79203177720774,194.71838886621117 22.062390466744546,191.40939411168802 22.436733267677482,190.12186934256897 22.852669713203795,186.74054603456898 22.748685601807665,184.80316069041146 22.16637457808247,181.34948208722926 21.771234954940155,177.16161118170567 21.147330286737997,175.60917311411322 21.6984460769454,175.71748340755585 21.719242899212986,175.1999999999971 21.719242899212986,175.69341446199542 21.240915986942127,175.59713863095385 21.15772869781358,175.71748340755585 21.552868321014103,176.3071710439035 21.79203177720774,177.13754252986837 22.22876504494343,181.80676936249802 22.852669713203795,185.9583756436623 22.800677657476626,187.89574208252452 21.49047785421135,196.39090012299857" stroke="#4DD2FF" stroke-linecap="round" stroke-linejoin="round" stroke-width="0.5"><title>2025-06-30 4.1km</title><desc>1751292736000</desc></polyline><polyline fill="none" points="37.44250871078111,187.3315227524945 37.20000000001164,185.57876788833528 37.28362369336537,185.39477517099294 43.78954703832278,185.08489189430838 44.82648083620006,185.18173052685597 46.51567944249837,185.01710479283065 49.04947735188762,185.04615641367855 58.79999999998836,184.4263865755347 55.88989547037636,184.6297489993085 55.21254355402198,184.85247877354414 53.95818815330858,184.79437540450454 47.611149825766915,185.12362735918578 41.707317073160084,185.23014980609878 41.53170731704449,185.385091333912 41.941463414608734,187.57361342445802 41.7491289198515,187.5542461934092 41.51498257837375,186.41157257369196" stroke="#4DD2FF" stroke-linecap="round" stroke-linejoin="round" stroke-width="0.5"><title>2025-06-26 5.0km</title><desc>1750950176000</desc></polyline><polyline fill="none" points="84.80000000001746,186.8840289662694 84.4512378902291,185.1159710337306 75.15866523142904,185.96859223496722 74.16663078582496,185.97756715106516 70.58600645855768,185.52882022524136 63.20000000001164,185.842943313437 70.33799784714938,185.51984526338492 74.17438105490874,185.98654206626816 80.78536060283659,185.3852207259697" stroke="#4DD2FF" stroke-linecap="round" stroke-linejoin="round" stroke-width="0.5"><title>2025-06-24 5.0km</title><desc>1750769966000</desc></polyline><polyline fill="none" points="110.80000000001746,186.86500652030372 110.5043227665592,185.134993479689 101.30720461095916,186.0090147157971 100.18674351586378,186.04505664313183 96.56080691641546,185.57651044185332 89.20000000001164,185.90088884568104 96.36628242072766,185.57651044185332 100.17896253601066,186.04505664313183 107.96772334293928,185.3512469611669" stroke="#4DD2FF" stroke-linecap="round" stroke-linejoin="round" stroke-width="0.5"><title>2025-06-22 5.0km</title><desc>1750563938000</desc></polyline><polyline fill="none" points="126.73815248723258,196.79999999999927 125.62179466203088,190.13051871750213 125.60614478596835,188.31198824174135 125.70526066762977,187.55072635359465 125.64266116340877,185.59315086737843 125.66352766481577,185.25479793072736 125.77829342253972,185.0614525278579 125.66352766481577,184.97082165302345 125.6583110394422,183.7321858001269 124.39067107907613,176.10645203613967 124.07245693262666,175.1999999999971 124.3958877043915,175.99163554574625 125.64266116340877,183.60529968929768 125.71047729300335,187.31509569159243 125.62179466203088,188.3180299636333 125.6165780366573,190.07010331892525 126.47210459431517,195.19311027954973 126.59208697738359,195.54348844374908 127.92754306737334,195.47099657972285" stroke="#4DD2FF" stroke-linecap="round" stroke-linejoin="round" stroke-width="0.5"><title>2025-06-21 8.0km</title><desc>1750517001000</desc></polyline><polyline fill="none" points="154.1913823732757,196.8000000000029 152.36168446938973,185.54865028322092 149.14198350673541,185.48294666381844 143.3408482920495,184.92446481718798 143.45431792951422,184.33312898734584 143.22737865458475,183.1997292473534 143.53942015761277,175.7913693520677 143.49686904350528,175.2657078129996 143.21319494990166,175.20000000001164 142.85860233288258,184.31670296112134 143.39758311078185,184.38240705603675 143.42595052008983,184.9408907815232 152.404235583439,185.53222438090597 153.49638084386243,192.56235758092953 153.83678975625662,193.49859049583029 161.14139766711742,193.26863905573555" stroke="#4DD2FF" stroke-linecap="round" stroke-linejoin="round" stroke-width="0.5"><title>2025-06-19 5.0km</title><desc>1750345525000</desc></polyline><polyline fill="none" points="188.79999999998836,186.54074252207647 188.60173913047765,185.36258955602898 182.4869565217523,185.9426062500861 181.69913043477573,185.9607316803049 179.0800000000163,185.65864045270428 169.37565217391239,186.09969312808244 168.53565217391588,186.23865425010445 167.20000000001164,186.63741044396738 169.08347826087265,186.12990209535928 172.49565217393683,185.97885710501942" stroke="#4DD2FF" stroke-linecap="round" stroke-linejoin="round" stroke-width="0.5"><title>2025-06-17 5.1km</title><desc>1750166247000</desc></polyline><polyline fill="none" points="11.944827586063184,218.1510307485005 11.199999999953434,213.36404772932292 28.03310344822239,212.86809284615447 25.295862069004215,202.06461318439688 28.610344827524386,202.25869253612473 32.79999999993015,201.8489692514995 26.189655172405764,202.2371281724918 28.628965517273173,211.96243310290447 21.40413793094922,212.30744679560303" stroke="#4DD2FF" stroke-linecap="round" stroke-linejoin="round" stroke-width="0.5"><title>2025-06-16 3.2km</title><desc>1750084948000</desc></polyline><polyline fill="none" points="58.80000000001746,210.99850620845245 58.469032258115476,209.00149379155482 47.85193548386451,209.97983319273044 46.89387096776045,209.9899191155855 42.695806451607496,209.47553574019548 37.20000000001164,209.73777073623933 42.52161290321965,209.46544976492441 46.8851612903527,209.96974726887856 55.89096774198697,209.21330004923948" stroke="#4DD2FF" stroke-linecap="round" stroke-linejoin="round" stroke-width="0.5"><title>2025-06-15 4.6km</title><desc>1749956754000</desc></polyline><polyline fill="none" points="84.79999999998836,210.86869646520063 84.53705692803487,209.13130353479937 75.2876476906822,209.98209302483883 74.32094522018451,210.00000429398642 70.25306122447364,209.54326579025656 63.20000000001164,209.86566968640545 70.39226638022228,209.54326579025656 74.25907626209664,210.00000429398642 76.27755102043739,209.90149226850917 76.65649838879472,209.7761131672596 81.55961331899744,209.33728490394424" stroke="#4DD2FF" stroke-linecap="round" stroke-linejoin="round" stroke-width="0.5"><title>2025-06-14 5.1km</title><desc>1749906363000</desc></polyline><polyline fill="none" points="110.80000000001746,211.2825023057885 110.54031117400154,209.5312315057672 101.58868458276265,210.39802652083017 100.38189533242257,210.40687132332096 96.71570014147437,209.96463009550644 89.81103253184119,210.29188882088056 89.71937765210168,210.08845786646998 89.75756718532648,208.7263426679565 89.20000000001164,208.7174976942042 89.78048090526136,208.74403261275438 89.71937765210168,210.0796130315357 89.83394625180517,210.29188882088056 96.90664780765655,209.9557852479702 100.54992927866988,210.41571612490225 107.80594059411669,209.76119837396982 107.79830268744263,209.4074029396943 110.12786421502824,209.2835741969684" stroke="#4DD2FF" stroke-linecap="round" stroke-linejoin="round" stroke-width="0.5"><title>2025-06-12 5.9km</title><desc>1749735885000</desc></polyline><polyline fill="none" points="136.80000000004657,216.7951636059588 136.1114345114911,213.32834658339561 117.19085239083506,215.00976166465261 115.409563409572,210.13881250722625 115.20000000001164,204.05426366438041 118.73264033265878,203.89824672872783 121.7413721413468,204.08893407507276 121.90602910605958,203.53420665560407 121.59168399171904,203.41285979138047 115.28981288976502,203.2048363940412 115.4245322245406,209.96546655007114 115.94844074838329,211.94159998719988 116.9812889812747,214.4030674181995 125.36382536380552,213.67503146568197 125.52848232846009,214.33373079507146 136.0665280665853,213.31101232068613 136.71018711023498,216.74316187262593" stroke="#4DD2FF" stroke-linecap="round" stroke-linejoin="round" stroke-width="0.5"><title>2025-06-10 5.3km</title><desc>1749559786000</desc></polyline><polyline fill="none" points="141.76714178547263,204.24909050056885 141.24861215311103,202.1474734665535 141.20000000001164,200.5149508225004 155.89707426866516,200.13965621423267 156.5614403600921,202.59782199337496 156.07531882979674,202.57905749345082 155.929482370615,202.9168181999994 156.23735933983698,204.66190531340544 156.15633908478776,205.84405170261743 156.6910727682407,208.2083217118634 158.06841710436856,208.15202992159175 160.11012753192335,216.01394999414333 160.1425356339896,216.3704491542594 159.6240060015698,216.52055385735002 160.09392348094843,216.389212248876 160.25596399098868,216.6894215020002 159.83465866465122,216.76447373889096 159.98049512377474,217.4587054794829 160.95273818454007,219.93540279920853 161.63330832711654,219.8603518546297 162.79999999998836,219.22241759099416 161.56849212310044,219.48509667308826 159.3809452363057,210.76019813120365 159.1216804201831,210.00964991436922 158.538334583689,210.00964991436922 158.1008252063766,208.09573811406153 157.63090772693977,208.28337740548886 156.67486871726578,208.15202992159175 156.14013503381284,205.99416498669598 156.02670667675557,203.2170494190359 155.13548387098126,200.06459720079147 141.24861215311103,200.55248024124012 141.83195798954694,204.36167645036767" stroke="#4DD2FF" stroke-linecap="round" stroke-linejoin="round" stroke-width="0.5"><title>2025-06-08 5.0km</title><desc>1749355299000</desc></polyline><polyline fill="none" points="188.80000000001746,210.8888356619209 188.4201005024952,209.11116433808638 181.45786073218915,209.69474726330373 179.36453697056277,209.99102634569863 178.20157932522125,209.99102634569863 174.51888011486153,209.5421182561986 167.20000000001164,209.86533231123758 174.16999282123288,209.5421182561986 178.16281407038332,210.0000044841363 186.55936826992547,209.24583766396972" stroke="#4DD2FF" stroke-linecap="round" stroke-linejoin="round" stroke-width="0.5"><title>2025-06-07 5.3km</title><desc>1749293029000</desc></polyline><polyline fill="none" points="32.80000000001746,234.85568752919062 32.48109470657073,233.14431247080938 22.626143320143456,234.04504031674878 18.628159884770866,233.58567026240053 11.200000000011642,233.8919172306123 18.597047173214378,233.5676557018014 22.151674468885176,234.04504031674878 29.766510622983333,233.3514806882813" stroke="#4DD2FF" stroke-linecap="round" stroke-linejoin="round" stroke-width="0.5"><title>2025-06-05 5.1km</title><desc>1749128617000</desc></polyline><polyline fill="none" points="37.50236220471561,233.8632804811059 37.20000000001164,231.88280388200656 37.313385826768354,231.7952681616007 45.78897637792397,231.49983457833878 47.38582677161321,237.3536447847291 55.757480314932764,237.24423069852492 58.79999999998836,237.05822649609036 56.29606299212901,237.14575792558753 55.833070866181515,230.6463552152636 47.82047244091518,231.1168639085081 46.100787401606794,231.06215370126301 46.251968503929675,231.49983457833878 41.811023622052744,231.63113849350339" stroke="#4DD2FF" stroke-linecap="round" stroke-linejoin="round" stroke-width="0.5"><title>2025-06-03 5.2km</title><desc>1748952979000</desc></polyline><polyline fill="none" points="81.06249909711187,227.56082101978245 80.58866688591661,226.85949760240328 80.25278582482133,226.1234474476223 80.0368622855749,225.92207385148504 79.50305131345522,225.87346634264395 79.0951957392972,225.4012773109498 78.90926158046932,224.78326025598653 78.63335928026936,224.35967229801463 78.30347609525779,223.1999999999971 77.34981379681267,223.60970683729101 76.90597096606507,223.65831595972122 75.75437875659554,224.0888523886315 75.26255291714915,224.72076383748208 75.26255291714915,224.8804767931506 73.27125805494143,227.41500189319777 73.2592623027449,227.56082101978245 72.7134555784869,228.31074303203786 72.23962336732075,228.74819373136415 72.15565310203237,228.67181365271972 71.81977204090799,228.96344622015022 71.59785062554874,228.83151735600404 71.59185274949414,228.9565026020864 71.56186336898827,228.77596828423702 71.8737529257487,228.99816429989733 71.8257699170208,229.24813395230012 71.10602478610235,230.04664198242972 69.87646018745727,230.32438171478134 69.87646018745727,230.19939897519362 69.792489922198,230.35215562582016 69.45660886107362,230.42853382286557 69.16271293262253,230.34521214911365 68.67088709317613,230.386872998708 68.58691682788776,230.31049475502368 68.38898691689246,230.42159035395161 67.79519718390657,230.21328595755767 67.7172247947019,229.30368263951823 67.48930550322984,229.1023184330552 66.36770267426618,229.38700558556593 65.94785134788253,229.64391736174002 66.4276814351615,231.72000675107847 67.18341382261133,234.03904192813206 68.77884886279935,240.27366183226695 69.0007702781586,240.91930817933462 70.8841033707431,244.73057990218513 71.12401841438259,244.8000000000029 71.95172531495336,244.5362032526973 72.5155256674916,244.70281184330088 73.54716035514139,244.48760900383786 73.52916672683205,244.0780275314537 73.805069027032,244.00166461223125 74.30289274259121,244.2307531136321 74.68075893633068,244.05025920709159 74.83670371468179,244.27934754537273 75.80835964140715,244.49455104149092 76.3781578700873,244.3904204023056 76.95395397479297,243.96001207481459 77.05591786833247,243.14778251434473 77.48776494691265,242.5507529127717 77.37380530117662,241.95371808826167 77.5117564512766,241.66214104311803 77.2178605227964,241.3358509679092 77.03192636399763,240.84988413403335 76.95995185087668,240.12786987621075 77.34981379681267,239.8154574929431 77.94360352979857,240.05844502575928 78.27348671481013,240.0376175568381 78.3574569800985,239.58635416949255 78.21950582999852,239.0309489806241 78.1055461842625,238.98235081150779 78.21950582999852,238.9268100044428 78.08755255601136,238.88515436946182 78.19551432560547,238.94763781239453 78.2075100778311,238.6213347574303 78.05156529945089,238.2603167932466 77.34381592069985,238.2117180752757 77.01393273571739,237.96178126467566 77.15188388578827,237.01756727332395 77.7156842383556,236.05251152983692 78.14753131687758,235.5734500117469 78.34546122790198,235.504020527158 78.77131043036934,234.9138670553366 79.52104494173545,234.19873306609225 80.1868091878423,233.36555779891933 79.99487715290161,232.97673919187218 79.40108741991571,232.96979598232429 79.32311503074015,232.7406696706821 79.55103432218311,232.19215204069042 79.81494087018655,231.94219317677926 80.06085378993885,231.9769097404278 80.16281768344925,231.85193002863525 79.95289202028653,231.37283901206683 80.2347921965411,230.78264980076347 80.49869874457363,230.62989411417948 80.72062015993288,230.72015887941234 80.69063077948522,230.55351614263054 81.35639502556296,230.24800340112415 81.41637378648738,230.06052899591305 81.99816776730586,229.70640926906344 82.05214865211747,229.1995288138569 81.29041838855483,227.74830229589134 81.17046086673508,227.69275234187808" stroke="#4DD2FF" stroke-linecap="round" stroke-linejoin="round" stroke-width="0.5"><title>2025-06-02 11.5km</title><desc>1748829019000</desc></polyline><polyline fill="none" points="110.80000000004657,235.01010417004727 110.40432972525014,232.98989582994545 98.99283930059755,234.05207220497687 94.26278101583011,233.51057190335268 89.20000000001164,233.72925506292086 94.3257285595173,233.48974491135596 98.47127393836854,234.0312453233637 110.38634471275145,233.00030937744305 110.79100749379722,234.9476240983131" stroke="#4DD2FF" stroke-linecap="round" stroke-linejoin="round" stroke-width="0.5"><title>2025-06-01 4.9km</title><desc>1748740054000</desc></polyline><polyline fill="none" points="136.79999999998836,244.40892800624715 136.72178636089666,244.5749758197344 136.56535908265505,244.45421379205072 136.0439348219079,241.5558955880988 119.56692818342708,242.9899663713586 118.04176222084789,238.71790405572392 117.97658418829087,233.34368598276342 117.61158720578533,231.32075562310638 115.20000000001164,223.4250241802656 116.79034399514785,228.70902107811708 117.22051901026862,229.52424952304864 117.92444176226854,232.5586715124664 118.62836451421026,232.75492552017386 117.89837054919917,232.7398290673009 118.04176222084789,238.21974035682797 118.53711526852567,240.25767216749955 119.397465298709,242.38614878656517 119.61907060950762,242.52200795777026 126.6843693421688,241.79742427130986 126.87990343989804,242.3710533154226 132.49824984907173,241.82761532903532" stroke="#4DD2FF" stroke-linecap="round" stroke-linejoin="round" stroke-width="0.5"><title>2025-05-31 5.5km</title><desc>1748696141000</desc></polyline><polyline fill="none" points="161.28519480518298,239.96107695229875 160.79428571433527,236.79383424030675 143.02337662340142,238.38558459952765 141.38233766233316,233.70774233133125 141.20000000001164,228.071409692624 147.23116883111652,228.13638296272256 141.2841558441869,228.0389230476867 141.39636363636237,233.62652857927606 141.83116883120965,235.3644938388752 142.92519480513874,237.86583112829248 158.6623376623029,236.35528798044834 160.0649350649328,236.27407557763217 160.13506493507884,236.87504637821985 162.79999999998836,236.66389473357412" stroke="#4DD2FF" stroke-linecap="round" stroke-linejoin="round" stroke-width="0.5"><title>2025-05-29 5.0km</title><desc>1748526381000</desc></polyline><polyline fill="none" points="180.29350237711333,231.8794324934861 179.81426307442598,227.9550316833047 187.92709984153043,227.55862315728154 188.79999999998836,230.74968886254646 187.8586370839621,227.6379049270763 179.78003169572912,228.01449289247103 180.00253565760795,229.97670259683218 179.69445324881235,228.0343132914859 168.15847860532813,229.10461183918233 169.88716323289555,237.7658852304594 170.55467511882307,239.78745416236052 170.1096671948908,240.06492276806966 170.81141045951517,241.92791601225326 169.87004754354712,239.47034669971617 167.5423137875623,229.14425241308345 171.5816164817661,228.5694633016683 178.89001584780635,228.11359486742003 178.8044374009478,227.53880270973605 168.07290015846957,228.2721579222998 167.47385103005217,226.0720839877613 167.20000000001164,226.30993101850618 167.3369255150319,228.43072084784217 175.43264659267152,227.6379049270763" stroke="#4DD2FF" stroke-linecap="round" stroke-linejoin="round" stroke-width="0.5"><title>2025-05-27 6.0km</title><desc>1748352132000</desc></polyline><polyline fill="none" points="29.921640091139125,259.60963212927163 30.007744874747004,259.5526552900119 29.730979498883244,258.17095271491416 22.45512528475956,258.8689295952063 21.6125284738373,258.8831739487505 18.58041002281243,258.5270642391988 11.335307517118054,258.8475630594621 11.200000000011642,256.4829594009934 12.06104783603223,256.39036787073564 13.248063781356905,256.4758369799529 13.254214123036945,258.5270642391988 18.758769931679126,258.30627530792117 22.104555808677105,258.6338973426027 29.718678815523162,257.8789399107918 32.670842824620195,257.77210565316636 32.80000000001746,258.00714080432226 32.71389521643869,258.03562985983444 29.98929384967778,258.1495859657298" stroke="#4DD2FF" stroke-linecap="round" stroke-linejoin="round" stroke-width="0.5"><title>2025-05-25 7.6km</title><desc>1748179850000</desc></polyline><polyline fill="none" points="58.7858453473018,259.19247159729275 58.72922673658468,258.72532334623247 58.45321100918227,258.72532334623247 58.27627785058576,257.84838859889715 58.13473132372019,257.65169164153485 51.30511140238377,258.23358541334164 50.18689384011668,258.43847658415325 45.699868938390864,258.020498041893 37.32031454789103,258.3974983917651 37.20000000001164,256.9714442880504 39.280733944964595,256.80752840270725 39.26657929227804,258.0041066822596 39.54259501968045,258.0368893982086 45.42385321101756,257.7828229999286 49.68440366972936,258.15162879884156 58.53106159897288,257.29927505632077 58.80000000001746,259.102320391743" stroke="#4DD2FF" stroke-linecap="round" stroke-linejoin="round" stroke-width="0.5"><title>2025-05-24 6.6km</title><desc>1748094255000</desc></polyline><polyline fill="none" points="84.79999999998836,258.96242977261863 84.56502820309834,257.03757022738137 75.67091055604396,257.7934095953169 74.43513295729645,258.0050435829762 73.02530217566527,258.02519917719474 68.96116035457817,257.53138593537733 63.20000000001164,257.7631761315133 68.93505237714271,257.5213080884423 72.97308622079436,258.0352769727979 82.18920225626789,257.2592837074699" stroke="#4DD2FF" stroke-linecap="round" stroke-linejoin="round" stroke-width="0.5"><title>2025-05-18 4.7km</title><desc>1747565909000</desc></polyline><polyline fill="none" points="107.99255654166336,258.77338019321905 107.75757228746079,257.3913227641242 101.49338677356718,257.9212340073791 100.44832522189245,258.10741808998137 99.60732894361718,258.1002571728386 96.74423131978256,257.7278884763 89.24328657315345,258.0716134970353 89.20000000001164,257.8567855561196 93.4235327798524,257.5846692213745 96.28663040368701,257.53454241318104 99.63206412826548,258.0716134970353 107.83796163756051,257.3411958179713 110.6021185227437,257.22661980678095 110.71342685373384,257.2409418183961 110.73197824222734,257.3411958179713 110.80000000001746,257.2982298356728" stroke="#4DD2FF" stroke-linecap="round" stroke-linejoin="round" stroke-width="0.5"><title>2025-05-17 5.7km</title><desc>1747487200000</desc></polyline><polyline fill="none" points="135.61962504984695,257.10703299409215 132.7591543677554,257.2566937149022 131.36338252888527,257.5061277411078 124.95317112084012,257.9950165888731 120.93817311525345,257.47619569153176 115.20000000001164,257.7056745044756 120.8606302353437,257.496150392275 124.79808536096243,257.985039289837 136.2399680893286,256.9873042527179 136.6190666134935,258.922900952959 136.79999999998836,259.01269574727485" stroke="#4DD2FF" stroke-linecap="round" stroke-linejoin="round" stroke-width="0.5"><title>2025-05-11 5.0km</title><desc>1746965499000</desc></polyline><polyline fill="none" points="162.80000000001746,258.77605289639905 162.45136298416764,257.22394710360095 152.65078909610747,258.11214972172456 148.66857962694485,257.65459191647096 141.20000000001164,257.9686024309849 148.48263988521649,257.66356366098626 152.20143472022028,258.11214972172456 162.5133428981353,257.2418906795283" stroke="#4DD2FF" stroke-linecap="round" stroke-linejoin="round" stroke-width="0.5"><title>2025-05-10 5.3km</title><desc>1746870058000</desc></polyline><polyline fill="none" points="188.7528384279576,257.63590713059966 188.69781659389264,257.4811665711022 188.80000000001746,257.59949761129974 188.38340611354215,257.6723166350275 178.75458515287028,258.5188334288905 174.67510917031905,258.03641086306743 167.20000000001164,258.34588978983084 174.63580786026432,258.03641086306743 176.54585152838263,258.1911504605159 178.28296943233,258.50973114042426 186.16681222707848,257.7997497837059" stroke="#4DD2FF" stroke-linecap="round" stroke-linejoin="round" stroke-width="0.5"><title>2025-05-05 5.4km</title><desc>1746434825000</desc></polyline></svg>