<?xml version="1.0" encoding="utf-8" ?>
<svg baseProfile="full" height="300mm" version="1.1" viewBox="0,0,200,300" width="200mm" xmlns="http://www.w3.org/2000/svg" xmlns:ev="http://www.w3.org/2001/xml-events" xmlns:xlink="http://www.w3.org/1999/xlink"><defs /><rect fill="#222222" height="300" width="200" x="0" y="0" /><text fill="#FFFFFF" style="font-size:12px; font-family:Arial; font-weight:bold;" x="10" y="20">Over 3km Runs</text><text fill="#FFFFFF" style="font-size:4px; font-family:Arial" x="10" y="280">Runner</text><text fill="#FFFFFF" style="font-size:9px; font-family:Arial" x="10" y="290">tang-hi</text><text fill="#FFFFFF" style="font-size:4px; font-family:Arial" x="65" y="280">SPECIAL TRACKS</text><rect fill="yellow" height="2.6" width="2.6" x="65" y="283" /><text fill="#FFFFFF" style="font-size:3px; font-family:Arial" x="70" y="285.5">Over 20.0 km</text><rect fill="red" height="2.6" width="2.6" x="65" y="287" /><text fill="#FFFFFF" style="font-size:3px; font-family:Arial" x="70" y="289.5">Over 40.0 km</text><text fill="#FFFFFF" style="font-size:4px; font-family:Arial" x="120" y="280">STATISTICS</text><text fill="#FFFFFF" style="font-size:3px; font-family:Arial" x="120" y="285">Number: 43</text><text fill="#FFFFFF" style="font-size:3px; font-family:Arial" x="120" y="290">Weekly: 3.6</text><text fill="#FFFFFF" style="font-size:3px; font-family:Arial" x="141" y="285">Total: 229.8 km</text><text fill="#FFFFFF" style="font-size:3px; font-family:Arial" x="141" y="290">Avg: 5.3 km</text><text fill="#FFFFFF" style="font-size:3px; font-family:Arial" x="167" y="285">Min: 3.2 km</text><text fill="#FFFFFF" style="font-size:3px; font-family:Arial" x="167" y="290">Max: 11.5 km</text><polyline fill="none" points="25.771173219603952,31.5 25.799912594258785,33.872188869761885 25.273024059075397,37.61881201835058 25.062268645036966,38.01785305649537 24.765295107034035,41.276633578323526 24.22882678033784,44.24713783559855 24.26714594650548,44.81241120443883 23.567821163509507,49.42315914606297 24.43958219437627,58.5 25.014369687298313,58.411340979946544 24.602438650734257,53.96721533680102 24.133028864802327,50.85289478359482 24.113869281776715,49.19040971154027 25.435880515375175,39.86894100766949 25.87655092665227,38.00676860292879 25.780753011174966,37.57447403511469 26.432178836432286,33.62832136474026" stroke="#4DD2FF" stroke-linecap="round" stroke-linejoin="round" stroke-width="0.5"><title>2025-07-26 5.2km</title><desc>1753529066000</desc></polyline><polyline fill="none" points="55.93190294969827,31.5 55.81541508092778,32.084096391256026 55.97073223924963,32.8366775761242 55.78629311377881,34.61140097930911 55.37858557328582,37.374521214813285 55.165024480666034,37.76764246611856 55.13590251345886,38.94699783339456 54.27195082057733,44.12478064413881 54.33990207727766,44.618959821455064 53.699218799418304,49.32478271090076 53.78658470092341,51.8292321066765 54.55346316995565,58.5 55.10678054630989,58.443850433926855 54.66995103866793,54.36731578929175 54.76702426257543,54.15393931491417 54.21370688622119,50.98693482742965 54.2039995638188,49.48201438624528 56.300781200581696,34.80235053392971" stroke="#4DD2FF" stroke-linecap="round" stroke-linejoin="round" stroke-width="0.5"><title>2025-07-24 5.0km</title><desc>1753356656000</desc></polyline><polyline fill="none" points="84.52643632655963,58.45129099960468 84.66324361000443,58.5 85.12628364627017,54.65192796802148 85.43146912468364,54.45708559099148 85.35780366440304,54.07957758392149 86.1470764533733,49.19622164525208 86.19969463936286,47.722651211646735 85.41042185027618,42.52238591458445 85.08418909751344,38.67380066993792 84.45277086633723,37.34625365888496 84.5474836009671,37.15138313440548 85.06314182310598,37.24881843626645 84.78952725621639,34.800732454554236 84.33701085718349,34.31354519485467 84.37910540594021,32.998129694664385 83.80030536063714,31.5 84.32648722000886,32.705813177068194 84.31596358283423,34.264826359903964 84.80005089344922,34.77637313862215 85.07366546033882,37.17574196730129 84.93685817689402,37.3097154596835 84.56853087531636,37.163562551482755 84.45277086633723,37.3097154596835 84.82109816779848,37.83342858294782 85.08418909751344,38.71033845302736 85.5577527708956,43.557585526563344 86.16812372772256,47.515619202837115 86.15760009060614,49.13533066398668 85.01052363717463,57.111785730208794" stroke="#4DD2FF" stroke-linecap="round" stroke-linejoin="round" stroke-width="0.5"><title>2025-07-22 5.0km</title><desc>1753184035000</desc></polyline><polyline fill="none" points="101.5,49.45307932648575 101.5,45.12050218868535 104.37057010806166,32.9890753996151 127.58474576286972,37.22548196098069 128.5,38.236437018436845 125.37981510045938,56.962785840121796 104.53697996935807,53.68933866149746 103.78813559329137,52.72655577518162 106.36748844385147,34.00003949800157 107.28274268098176,33.42234599171206 112.81587057025172,34.33702705139876 128.4583975346759,37.8031708295166 125.71263482305221,56.57767558126943 124.8389830510132,57.0109246003849 104.1209553158842,53.496782240777975 104.37057010806166,47.33493545404053 106.4090909094084,34.09632168064127 107.07473035459407,33.518628291698406 117.30893682618625,35.25170634506503 106.86671802797355,33.61491057212697 105.70184899866581,38.91040585830342 106.74191063200124,39.92135732001043" stroke="#4DD2FF" stroke-linecap="round" stroke-linejoin="round" stroke-width="0.5"><title>2025-07-20 4.9km</title><desc>1753020627000</desc></polyline><polyline fill="none" points="146.55188065842958,31.5 146.34819632198196,32.88045930568478 145.59165450104047,34.8220517331938 144.95150372944772,37.739987728884444 144.7769171553664,40.04061369205738 144.17556340026204,43.889846581732854 144.03977384261088,44.01328914901387 144.10766862146556,44.563168000291626 143.4772171039367,49.10798025870463 143.44811934162863,50.61165476574388 144.31135295785498,58.488779425133544 144.21436041675042,56.94032916756987 144.32105221197708,58.5 144.87390969652915,58.38779420001083 143.94278130150633,49.60172638286167 145.42676718108123,38.76124711869488 145.7371433127555,37.784878449878306 145.7759403291857,36.47181732363242" stroke="#4DD2FF" stroke-linecap="round" stroke-linejoin="round" stroke-width="0.5"><title>2025-07-20 5.0km</title><desc>1752942252000</desc></polyline><polyline fill="none" points="176.16421898122644,31.51208190763282 175.99715616781032,31.5 175.73612052178942,32.82900247924408 176.02848044532584,33.0102289391798 176.00759759364882,33.396844464034075 175.64214768924285,35.86148888752359 175.443760598253,36.28433941477124 174.9321307321079,41.104729164304445 174.50403227261268,43.073904859717004 174.54579797602491,43.653778605417756 173.80445674131624,49.19867854221957 174.8068336219876,58.5 173.877546722244,50.74492263379216 173.856663870567,48.4013885792956 174.54579797602491,43.72626262486301 174.51447369845118,43.085985591569624 175.27669778483687,38.49521911881311 175.43331917241449,36.272257992008235 175.64214768924285,35.83732595485344 176.19554325874196,31.886620435026998" stroke="#4DD2FF" stroke-linecap="round" stroke-linejoin="round" stroke-width="0.5"><title>2025-07-17 5.0km</title><desc>1752765839000</desc></polyline><polyline fill="none" points="36.58445945964195,87.93025537068024 37.192567567690276,87.08586103635025 38.5,76.07336303085322 18.949324324377812,75.19375543203205 15.422297297394834,75.47523010685109 15.847972973017022,75.19375543203205 15.209459459525533,71.21790120535297 11.591216216329485,65.51792434151866 11.5,62.316044319275534 11.925675675738603,62.06974462931976 28.922297297394834,62.35122997488361 27.706081081181765,73.43453352997312 26.945945946034044,73.92711656363099 16.334459459525533,73.57527161113103 15.179054054082371,69.88087802033988 12.199324324377812,66.08088919633883 11.834459459525533,64.07532272240496 16.060810810769908,63.758653269702336 28.375,64.18087914233911 28.557432432542555,66.81977917888435 27.462837837985717,75.40486145962495 25.820945946034044,75.51041442507994" stroke="#4DD2FF" stroke-linecap="round" stroke-linejoin="round" stroke-width="0.5"><title>2025-07-15 4.1km</title><desc>1752589649000</desc></polyline><polyline fill="none" points="56.08505030663218,61.5 56.16732900287025,63.416027070335986 55.52966910699615,67.41459130247677 55.30340269237058,67.87870152412506 55.29311785532627,69.05681921314681 54.38805219670758,74.57834422936139 54.429191544884816,75.19711961026769 53.74010746384738,80.3256897681058 54.56289442622801,88.5 54.089791922830045,85.26366005757882 53.72982262680307,80.06391204116517 55.27254818129586,68.97351835169684 55.17998464801349,68.59271365915629 55.48852975887712,67.49789327252802 56.09533514367649,63.535033929023484 56.02334128442453,63.11850939458964 56.27017737319693,61.85702605386905 56.04391095857136,61.57140529784374" stroke="#4DD2FF" stroke-linecap="round" stroke-linejoin="round" stroke-width="0.5"><title>2025-07-13 5.0km</title><desc>1752418082000</desc></polyline><polyline fill="none" points="84.76551824639319,88.5 84.62696084659547,88.48766697220708 84.71222693880554,87.51335381839453 85.18119044601917,84.55336714761506 85.45830524573103,84.30669833299908 85.93792701442726,80.95195267667441 86.19372529105749,77.48610700756399 85.49028003029525,72.6633598826229 85.12789913837332,68.62986661158357 84.91473390778992,67.84042104388209 84.46708692365792,67.12498156059883 84.5630112774088,66.93995342133712 85.07460783066927,67.01396471092448 84.85078433866147,64.67025194838789 84.3391877852846,64.02880687867582 84.37116256990703,62.56087174406275 84.0087816780433,61.5493430775241 83.7849581859191,61.5493430775241 83.97680689336266,61.5 84.3391877852846,62.400508005943266 84.32852952380199,64.04114239279443 84.79749303095741,64.47288459591073 84.85078433866147,64.71959373632853 85.07460783066927,66.9769590717624 84.552353015868,66.95228863939701 84.43511213903548,67.08797595536453 84.90407564630732,67.76641025853314 85.11724087683251,68.51885113905155 85.5542295994237,73.31709386999137 86.2150418140809,77.39976795137045 86.2043835525983,78.97852955578855 84.90407564630732,87.85868089432188" stroke="#4DD2FF" stroke-linecap="round" stroke-linejoin="round" stroke-width="0.5"><title>2025-07-12 5.1km</title><desc>1752325602000</desc></polyline><polyline fill="none" points="114.83732376794796,88.5 114.57494274852797,88.48785562253761 115.16267623199383,84.44370929338038 115.40406676987186,84.32226134106168 116.07576217950555,79.81645507521898 116.18071458727354,77.54526999294467 115.56149538146565,73.47646149610227 115.08920954656787,68.5329763629561 114.4594951000181,67.2575968792953 114.54345702618593,67.12398490729538 115.06821906502591,67.20901072494598 114.82682852714788,64.74323744091816 114.3545426922501,64.22092425169103 114.33355221070815,62.581088932020066 113.80879017192638,61.5 114.36503793299198,62.714705985701585 114.3545426922501,64.20877740618016 114.83732376794796,64.75538423210673 115.09970478736795,67.17257109619823 114.59593323006993,67.11183835697011 114.48048558161827,67.30618301384675 115.11020002810983,68.63014757489873 115.57199062226573,73.45216968598834 116.19120982801542,77.46025153128721 116.08625742030563,79.75572876309889 115.07871430576779,86.45972727240587" stroke="#4DD2FF" stroke-linecap="round" stroke-linejoin="round" stroke-width="0.5"><title>2025-07-10 5.0km</title><desc>1752149320000</desc></polyline><polyline fill="none" points="141.21354894561227,61.5 141.27678821166046,63.1830451440037 141.7352728904225,62.94522450209479 142.71548151422758,63.27451453798858 143.77473922038916,63.1830451440037 144.96047545870533,63.622097811399726 151.07887444837252,64.42702492090757 151.25278242997592,64.66484360549657 149.84570876054931,73.64684241666691 149.16588665056042,73.70172086940147 149.03940811846405,73.93952730449382 148.80226087081246,75.53099305590149 148.97616885241587,76.22611161459645 147.90110132971313,82.28084664086055 140.02781270735431,82.04305122040387 139.75904582662042,81.86013145260222 138.74721756996587,88.5 139.80647527612746,81.96988333557965 142.87357967923163,82.02475925194449 143.90121775242733,81.62233547664073 144.04350610106485,82.04305122040387 147.94853077922016,82.1710949473927 150.6678192190593,65.14048003232165 150.5887701365864,64.51849368296098 142.44671463343548,63.091575703481794" stroke="#4DD2FF" stroke-linecap="round" stroke-linejoin="round" stroke-width="0.5"><title>2025-07-08 5.1km</title><desc>1751976330000</desc></polyline><polyline fill="none" points="161.7404842817923,88.25415402713406 161.6825402948307,88.5 162.04951887985226,88.34355259449512 162.16540685400832,87.09196934434294 162.84142003708985,86.53322452242719 162.97662267368287,85.95212840189924 164.92740357317962,72.43003512376163 165.10123553453013,68.33971749727789 164.63768363767304,65.3222212989931 165.69999006809667,65.27751734030608 165.9703953412827,65.67985264111485 169.6981251790421,66.2162985636096 172.69189784664195,66.17159478676331 174.87445469456725,67.04331679685856 181.82773314823862,68.07149728978402 183.10250086477026,61.5 188.3174597051693,62.66231994012196 183.6626260735793,61.56705708669324 182.79346626682673,65.43398115586024 182.6582636302337,68.11620068043703 169.64018119184766,66.3727617112163 165.9703953412827,65.7022045807098 165.64204608101863,65.21046138522797 164.579739650595,65.38927721993241 165.0046622226946,67.17742756856023 165.0819208722096,71.04425297446141 162.89936402416788,86.01917803267133" stroke="#4DD2FF" stroke-linecap="round" stroke-linejoin="round" stroke-width="0.5"><title>2025-07-06 5.0km</title><desc>1751807521000</desc></polyline><polyline fill="none" points="15.609601379488595,116.82643208399531 16.779413212207146,108.50764349047677 12.993476735427976,108.23690888327837 11.802395596751012,108.65531678503612 13.355054938234389,108.50764349047677 13.142361877835356,108.26152113279386 17.055914190714248,108.48303126599058 17.33241516945418,108.23690888327837 17.204799333121628,107.47392790745653 18.799997286638245,97.4072764031589 18.651112144463696,92.38610064782551 21.39485262474045,92.11534801613016 38.19760440313257,94.8720879327011 38.17633509717416,94.0598374686524 19.69330814073328,91.5 19.99107842554804,97.57956980200834 18.055571575067006,111.26419680798426 18.587304226239212,112.1010014286876 18.098110187100247,113.0116384660796 18.20445671735797,114.9805717071722 17.4600310055539,115.15285260422388 17.11972210893873,118.5 15.396908318973146,118.30311025716946 15.50325484923087,116.85104346064327" stroke="#4DD2FF" stroke-linecap="round" stroke-linejoin="round" stroke-width="0.5"><title>2025-07-05 4.8km</title><desc>1751729502000</desc></polyline><polyline fill="none" points="59.34566448954865,118.5 59.612873632926494,118.3047179729183 59.65506455022842,117.19811532145832 60.02071916748537,115.58701837950503 60.21761011524359,115.52192321291659 60.47075561952079,113.16220555844484 54.97187272174051,112.93436890971498 55.32346369989682,111.7138099144795 55.843818347435445,106.21304193063406 55.90007290401263,102.19313043069269 55.70318195625441,101.65604959113989 55.914136543055065,98.36842457647435 55.90007290401263,91.5 48.51666236348683,94.15300461303559 48.36196233308874,94.52735141740413 48.41821688966593,94.20183250671835 52.39822676189942,92.68816087656887 52.46854495751904,96.04100565695262 52.86232685303548,96.88734372450563 55.801627430075314,96.88734372450563 55.81569106923416,101.18406797210628 56.125091129913926,101.3305451751803 56.23760024289368,101.85135192307644 61.38489216263406,102.17685528020957 61.63803766691126,103.46258707126253 61.609910388535354,105.80617288773647 59.837891858944204,117.89787965167488" stroke="#4DD2FF" stroke-linecap="round" stroke-linejoin="round" stroke-width="0.5"><title>2025-07-03 5.2km</title><desc>1751545471000</desc></polyline><polyline fill="none" points="84.52686310466379,118.5 85.16822645161301,114.54589664766536 85.43108028237475,114.36339641709492 86.10398608905962,109.37494904701452 86.15655685518868,107.64719441740453 85.0105141531676,98.4726428541544 84.4532640320831,97.31664813787938 84.56891971756704,97.15845851862105 85.04205661290325,97.24363757034735 84.82125939504476,94.88293854891526 84.30606588686351,94.22582847361628 84.31658004008932,92.72906427567796 83.82241483835969,91.5 84.35863665299257,92.83858424209757 84.30606588686351,94.25016594817134 84.77920278214151,94.71257702404546 84.8528018547222,95.08980578878982 85.04205661290325,97.23146913808887 84.52686310466379,97.19496383392107 84.4532640320831,97.35315340491798 85.02102830645163,98.4726428541544 85.56776427431032,103.68056478968356 86.1775851615821,107.61069229005079 85.99884455668507,110.33615385473968 84.84228770149639,118.08634607310523" stroke="#4DD2FF" stroke-linecap="round" stroke-linejoin="round" stroke-width="0.5"><title>2025-07-01 5.0km</title><desc>1751376396000</desc></polyline><polyline fill="none" points="114.05114498367766,118.5 114.24611519253813,118.25935323357407 114.20712115080096,117.37196490111819 114.51907348487293,117.07115408949903 114.74003972153878,115.8979860827676 115.07798808347434,111.7617426396173 115.5459165846114,110.15233667822031 116.06583714153385,105.9256825432094 115.93585700233234,103.50395086301432 115.20796822267585,99.18685260904022 114.7140436937334,93.9520139771339 113.93416285846615,92.01146639265062 114.62305759621086,92.14685425945208 114.64905362407444,91.5 114.64905362407444,92.11676807749609 114.05114498367766,91.99642328869959 113.94716087233974,92.14685425945208 114.44108540134039,92.88396380489576 114.74003972153878,93.92192816233728 115.2859563062666,99.75846170312434 116.06583714153385,104.94796955458878 116.00084707187489,107.36967760315747 114.36309731780784,117.98862515375367" stroke="#4DD2FF" stroke-linecap="round" stroke-linejoin="round" stroke-width="0.5"><title>2025-06-30 4.1km</title><desc>1751292736000</desc></polyline><polyline fill="none" points="131.8031358884764,106.66440344061994 131.5,104.4734598604191 131.604529616714,104.24346896374482 139.73693379794713,103.85611486788548 141.03310104529373,103.97716315856815 143.1445993031375,103.77138099104195 146.31184668990318,103.80769551710546 158.5,103.03298321942566 154.86236933799228,103.28718624914472 154.01567944255657,103.56559846693563 152.4477351916139,103.49296925563249 144.51393728225958,103.90453419898404 137.13414634147193,104.03768725762347 136.91463414632017,104.23136416738998 137.42682926828275,106.96701678057434 137.18641114985803,106.94280774176877 136.893728222989,105.51446571711858" stroke="#4DD2FF" stroke-linecap="round" stroke-linejoin="round" stroke-width="0.5"><title>2025-06-26 5.0km</title><desc>1750950176000</desc></polyline><polyline fill="none" points="188.5,106.10503620783857 188.06404736277182,103.89496379215416 176.4483315392863,104.96074029371084 175.20828848227393,104.97195893882599 170.73250807315344,104.41102528154443 161.5,104.80367914179078 170.42249730892945,104.3998065792257 175.2179763186141,104.9831775828352 183.48170075350208,104.23152590745303" stroke="#4DD2FF" stroke-linecap="round" stroke-linejoin="round" stroke-width="0.5"><title>2025-06-24 5.0km</title><desc>1750769966000</desc></polyline><polyline fill="none" points="38.5,136.08125815037783 38.130403458199,133.9187418496149 26.6340057636844,135.01126839474455 25.233429394837003,135.05632080390933 20.7010086455266,134.47063805232028 11.5,134.8761110570922 20.4578530259314,134.47063805232028 25.2237031700206,135.05632080390933 34.959654178644996,134.18905870145682" stroke="#4DD2FF" stroke-linecap="round" stroke-linejoin="round" stroke-width="0.5"><title>2025-06-22 5.0km</title><desc>1750563938000</desc></polyline><polyline fill="none" points="55.92269060903345,148.5 54.52724332752405,140.1631483968813 54.507680982438615,137.8899853021794 54.63157583452994,136.9384079419906 54.55332645427552,134.4914385842203 54.579409581026994,134.06849741340557 54.72286677817465,133.82681565982057 54.579409581026994,133.71352706628386 54.572888799302746,132.16523225016135 52.988338848837884,122.63306504517823 52.59057116578333,121.5 52.994859630503925,122.48954443218827 54.55332645427552,132.00662461162574 54.638096616225084,136.64386961449054 54.52724332752405,137.89753745454072 54.5207225457998,140.08762914865656 55.590130742872134,146.4913878494408 55.74010872171493,146.92936055468454 57.409428834187565,146.8387457246572" stroke="#4DD2FF" stroke-linecap="round" stroke-linejoin="round" stroke-width="0.5"><title>2025-06-21 8.0km</title><desc>1750517001000</desc></polyline><polyline fill="none" points="87.73922796652187,148.5 85.45210558676627,134.43581285400433 81.42747938341927,134.35368332975486 74.1760603650473,133.65558102146315 74.31789741187822,132.91641123416775 74.03422331821639,131.49966155918082 74.4242751969723,122.23921169007372 74.37108630430885,121.58213476624223 74.01649368740618,121.5 73.57325291610323,132.89587870138348 74.24697888852097,132.97800882003503 74.28243815014139,133.67611347688944 85.5052944793133,134.41528047611064 86.87047605484258,143.20294697614736 87.29598719533533,144.3732381197624 96.42674708389677,144.0857988196658" stroke="#4DD2FF" stroke-linecap="round" stroke-linejoin="round" stroke-width="0.5"><title>2025-06-19 5.0km</title><desc>1750345525000</desc></polyline><polyline fill="none" points="128.5,135.6759281525956 128.2521739130898,134.20323694503895 120.60869565219036,134.92825781260763 119.62391304346966,134.95091460038384 116.35000000000582,134.5733005658767 104.2195652173832,135.12461641010304 103.16956521739485,135.29831781263056 101.5,135.79676305496105 103.85434782606899,135.1623776191991 108.11956521740649,134.973571381277" stroke="#4DD2FF" stroke-linecap="round" stroke-linejoin="round" stroke-width="0.5"><title>2025-06-17 5.1km</title><desc>1750166247000</desc></polyline><polyline fill="none" points="132.4310344826663,145.1887884356256 131.5,139.20505966164637 152.5413793104235,138.5851160576858 149.11982758634258,125.08076648047427 153.262931034551,125.32336567013408 158.5,124.81121156437439 150.2370689655654,125.2964102156111 153.28620689664967,137.4530413786124 144.25517241389025,137.88430849451106" stroke="#4DD2FF" stroke-linecap="round" stroke-linejoin="round" stroke-width="0.5"><title>2025-06-16 3.2km</title><desc>1750084948000</desc></polyline><polyline fill="none" points="188.5,136.24813276056375 188.08629032265162,133.75186723943625 174.81491935480153,134.97479149090213 173.61733870970784,134.9873988944746 168.36975806450937,134.34441967524617 161.5,134.6722134202937 168.15201612905366,134.3318122061537 173.60645161295542,134.96218408609275 184.86370967747644,134.0166250615439" stroke="#4DD2FF" stroke-linecap="round" stroke-linejoin="round" stroke-width="0.5"><title>2025-06-15 4.6km</title><desc>1749956754000</desc></polyline><polyline fill="none" points="38.5,166.08587058149715 38.17132116004359,163.91412941849558 26.609559613396414,164.97761628103763 25.401181525259744,165.0000053674812 20.316326530650258,164.42908223781706 11.5,164.83208710800682 20.490332975285128,164.42908223781706 25.32384532765718,165.0000053674812 27.846938775561284,164.876865335631 28.320622986007947,164.72014145906724 34.4495166487759,164.17160612992302" stroke="#4DD2FF" stroke-linecap="round" stroke-linejoin="round" stroke-width="0.5"><title>2025-06-14 5.1km</title><desc>1749906363000</desc></polyline><polyline fill="none" points="68.5,166.6031278822411 68.17538896744372,164.4140393822163 56.98585572838783,165.49753315105045 55.47736916545546,165.5085891541603 50.89462517679203,164.95578761938668 42.26379066478694,165.36486102611525 42.149222065054346,165.1105723330984 42.196958981628995,163.40792833494925 41.5,163.39687211776618 42.225601131562144,163.4300407659539 42.149222065054346,165.09951628942508 42.29243281472009,165.36486102611525 51.133309759548865,164.9447315599682 55.68741159827914,165.51964515614236 64.7574257425731,164.70149796747137 64.74787835928146,164.2592536746306 67.65983026870526,164.1044677462196" stroke="#4DD2FF" stroke-linecap="round" stroke-linejoin="round" stroke-width="0.5"><title>2025-06-12 5.9km</title><desc>1749735885000</desc></polyline><polyline fill="none" points="98.5,173.49395450744487 97.63929313933477,169.16043322924816 73.98856548860203,171.26220208083396 71.76195426192135,165.17351563402917 71.5,157.56782958049735 75.91580041579437,157.37280841091706 79.67671517666895,157.61116759384458 79.88253638264723,156.9177583195269 79.4896049896488,156.7660747392365 71.61226611223537,156.50604549255513 71.78066528064664,164.95683318760712 72.43555093556643,167.42699998401804 73.72661122656427,170.50383427276392 84.2047817048151,169.59378933210974 84.41060291056056,170.41716349385388 97.58316008327529,169.13876540087222 98.38773388788104,173.42895234079333" stroke="#4DD2FF" stroke-linecap="round" stroke-linejoin="round" stroke-width="0.5"><title>2025-06-10 5.3km</title><desc>1749559786000</desc></polyline><polyline fill="none" points="102.20892723184079,157.81136312570015 101.56076519133057,155.1843418331846 101.5,153.14368852811458 119.87134283571504,152.6745702677872 120.70180045010056,155.74727749169688 120.09414853714406,155.72382186680625 119.91185296326876,156.14602274999197 120.29669917479623,158.32738164174953 120.19542385591194,159.80506462824997 120.86384096019901,162.76040213982924 122.58552138041705,162.69003740198968 125.13765941490419,172.5174374926719 125.17816954245791,172.96306144281698 124.53000750183128,173.15069232168025 125.11740435112733,172.98651531108771 125.31995498866308,173.36177687748568 124.79332333081402,173.45559217360278 124.97561890468933,174.32338184933178 126.19092273060232,177.4192534990143 127.04163540888112,177.3254398182762 128.5,176.52802198873542 126.96061515377369,176.85637084134214 124.22618154541124,165.95024766400456 123.90210052521434,165.01206239295425 123.17291822959669,165.01206239295425 122.62603150785435,162.6196726425842 122.03863465867471,162.85422175684653 120.84358589653857,162.69003740198968 120.1751687922515,159.99270623335906 120.03338334581349,156.5213117737876 118.91935483866837,152.5807465009857 101.56076519133057,153.1906003015465 102.2899474868318,157.95209556295595" stroke="#4DD2FF" stroke-linecap="round" stroke-linejoin="round" stroke-width="0.5"><title>2025-06-08 5.0km</title><desc>1749355299000</desc></polyline><polyline fill="none" points="158.5,166.11104457739566 158.02512562810443,163.88895542260434 149.3223259152146,164.61843407912238 146.7056712131598,164.988782932116 145.25197415647563,164.988782932116 140.6486001435551,164.4276478202446 131.5,164.83166538903606 140.21249102655565,164.4276478202446 145.20351758797187,165.00000560516492 155.6992103374214,164.05729707995488" stroke="#4DD2FF" stroke-linecap="round" stroke-linejoin="round" stroke-width="0.5"><title>2025-06-07 5.3km</title><desc>1749293029000</desc></polyline><polyline fill="none" points="188.5,166.06960941148282 188.1013683832134,163.9303905885099 175.78267915017204,165.05630039593234 170.78519985597814,164.48208782799338 161.5,164.86489653825993 170.7463089664816,164.45956962725177 175.18959308607737,165.05630039593234 184.70813827874372,164.18935086035344" stroke="#4DD2FF" stroke-linecap="round" stroke-linejoin="round" stroke-width="0.5"><title>2025-06-05 5.1km</title><desc>1749128617000</desc></polyline><polyline fill="none" points="11.877952755894512,194.8291006013751 11.5,192.3535048525082 11.641732283460442,192.24408520200814 22.23622047243407,191.87479322293075 24.23228346457472,199.19205598090775 34.69685039372416,199.05528837315796 38.5,198.8227831201075 35.37007874023402,198.93219740698987 34.79133858269779,190.80794401909225 24.775590551202185,191.39607988562784 22.625984252023045,191.32769212657877 22.814960629912093,191.87479322293075 17.26377952756593,192.03892311688105" stroke="#4DD2FF" stroke-linecap="round" stroke-linejoin="round" stroke-width="0.5"><title>2025-06-03 5.2km</title><desc>1748952979000</desc></polyline><polyline fill="none" points="63.82812387138256,186.95102627472806 63.23583360738121,186.07437200300046 62.81598228102666,185.15430930953153 62.54607785696862,184.9025923143563 61.87881414181902,184.84183292830858 61.36899467409239,184.25159663868544 61.13657697557937,183.479075319985 60.791699100343976,182.9495903725183 60.37934511908679,181.5 59.187267246015836,182.0121335466174 58.63246370758861,182.07289494965516 57.192973445751704,182.6110654857912 56.57819114642916,183.4009547968526 56.57819114642916,183.60059599143278 54.089072568691336,186.76875236649357 54.0740778784384,186.95102627472806 53.391819473094074,187.88842879005097 52.79952920912183,188.43524216420337 52.69456637755502,188.3397670659033 52.274715051142266,188.7043077751805 51.997313281928655,188.53939669500687 51.989815936860396,188.695628252608 51.952329211257165,188.46996035530174 52.34219115716405,188.7477053748662 52.28221239626873,189.06016744037333 51.38253098263522,190.05830247803533 49.84557523432886,190.40547714347485 49.84557523432886,190.24924871899566 49.74061240273295,190.44019453226792 49.3207610763493,190.53566727857833 48.953391165763605,190.43151518639206 48.33860886647017,190.48359124838316 48.23364603484515,190.38811844377778 47.9862336461083,190.52698794243042 47.243996479868656,190.26660744694527 47.146530993370106,189.1296032993996 46.86163187905913,188.8778980413117 45.459628342825454,189.2337569819574 44.93481418484589,189.55489670216775 45.5346017939446,192.15000843884627 46.47926727824961,195.0488024101578 48.473561078484636,202.8420772903337 48.75096284769825,203.64913522416464 51.105129213421606,208.4132248777314 51.40502301795641,208.5 52.439656643691706,208.17025406586617 53.144407084357226,208.37851480412792 54.43395044392673,208.10951125479914 54.41145840854733,207.5975344143153 54.75633628378273,207.50208076529088 55.37861592823174,207.7884413920401 55.85094867038424,207.56282400886266 56.04587964335224,207.84918443171773 57.26044955177349,208.11818880186183 57.97269733759458,207.98802550288383 58.69244246848393,207.45001509351277 58.81989733543014,206.4347281429291 59.359706183633534,205.68844114096282 59.217256626463495,204.94214761032345 59.389695564081194,204.57767630389571 59.0223256534955,204.1698137098865 58.789907955011586,203.56235516754532 58.6999398136104,202.65983734526526 59.187267246015836,202.2693218661734 59.92950441225548,202.5730562821991 60.341858393512666,202.5470219460476 60.44682122510858,201.98294271186023 60.27438228749088,201.28868622577284 60.13193273032084,201.22793851438473 60.27438228749088,201.15851250554988 60.10944069499965,201.10644296182727 60.24439290701412,201.18454726548953 60.25938759726705,200.77666844679334 60.064456624299055,200.32539599156007 59.179769900860265,200.26464759409282 58.767415919632185,199.95222658084094 58.93985485722078,198.77195909165312 59.64460529794451,197.5656394122998 60.1844141461188,196.96681251468544 60.431826534855645,196.88002565894567 60.964138037961675,196.14233381917438 61.90130617716932,195.2484163326153 62.73351148478105,194.20694724864734 62.49359644114156,193.7209239898366 61.751359274901915,193.71224497790536 61.653893788403366,193.42583708835446 61.93879290271434,192.74019005086302 62.26867608772591,192.42774147097953 62.57606723741628,192.47113717553293 62.703522104304284,192.3149125357886 62.44111502537271,191.71604876507627 62.79349024567637,190.97831225095433 63.12337343071704,190.78736764272617 63.40077519993065,190.90019859925815 63.36328847432742,190.69189517828636 64.19549378196825,190.3100042514052 64.2704672330874,190.0756612448895 64.99770970913232,189.63301158633112 65.06518581515411,188.9994110173211 64.11302298569353,187.18537786986417 63.96307608339703,187.11594042734941" stroke="#4DD2FF" stroke-linecap="round" stroke-linejoin="round" stroke-width="0.5"><title>2025-06-02 11.5km</title><desc>1748829019000</desc></polyline><polyline fill="none" points="98.5,196.26263021256455 98.00541215651901,193.73736978744273 83.74104912573239,195.06509025622654 77.82847626972944,194.3882148791963 71.5,194.66156882866198 77.90716069936752,194.3621811392004 83.08909242291702,195.0390566542119 97.98293089086656,193.7503867218038 98.48875936720287,196.18453012289683" stroke="#4DD2FF" stroke-linecap="round" stroke-linejoin="round" stroke-width="0.5"><title>2025-06-01 4.9km</title><desc>1748740054000</desc></polyline><polyline fill="none" points="128.5,208.0111600077944 128.40223295113537,208.218719774668 128.20669885334792,208.06776724004885 127.55491852742853,204.44486948511621 106.95866022934206,206.23745796419098 105.05220277613262,200.8973800696549 104.9707302353927,194.17960747845063 104.51448400726076,191.65094452886842 101.5,181.78128022531746 103.48792999394936,188.38627634763543 104.02564876287943,189.40531190379988 104.90555220283568,193.19833939056844 105.78545564279193,193.44365690021368 104.87296318652807,193.4247863341152 105.05220277613262,200.2746754460095 105.67139408568619,202.82209020935989 106.7468316234299,205.48268598319555 107.02383826189907,205.65250994720554 115.85546167771099,204.7467803391337 116.09987929993076,205.46381664427463 123.12281231139787,204.78451916128688" stroke="#4DD2FF" stroke-linecap="round" stroke-linejoin="round" stroke-width="0.5"><title>2025-05-31 5.5km</title><desc>1748696141000</desc></polyline><polyline fill="none" points="156.60649350646418,202.45134619038436 155.99285714281723,198.4922928003798 133.77922077919357,200.48198074942047 131.7279220778728,194.63467791416042 131.5,187.58926211578364 139.03896103880834,187.67047870339593 131.60519480518997,187.54865380961564 131.74545454536565,194.53316072409507 132.28896103892475,196.70561729859037 133.65649350639433,199.83228891035833 153.3279220778495,197.94410997556406 155.08116883109324,197.84259447203658 155.16883116879035,198.59380797277845 158.5,198.32986841695674" stroke="#4DD2FF" stroke-linecap="round" stroke-linejoin="round" stroke-width="0.5"><title>2025-05-29 5.0km</title><desc>1748526381000</desc></polyline><polyline fill="none" points="177.86687797133345,192.34929061686853 177.26782884297427,187.44378960411996 187.40887480182573,186.9482789465983 188.5,190.937111078194 187.32329635485075,187.04738115885993 177.2250396196032,187.51811611559242 177.50316957198083,189.97087824605114 177.1180665610591,187.54289161435736 162.69809825660195,188.88076479898882 164.85895404114854,199.7073565380706 165.69334389851429,202.23431770293973 165.13708399352618,202.58115346009436 166.01426307437941,204.90989501531294 164.83755942934658,201.83793337465613 161.92789223440923,188.93031551635067 166.97702060220763,188.211829127089 176.1125198097434,187.64199358428596 176.0055467511993,186.92350338718097 162.59112519805785,187.8401974028675 161.84231378755067,185.0901049847016 161.5,185.38741377313272 161.67115689371713,188.03840105980635 171.79080824076664,187.04738115885993" stroke="#4DD2FF" stroke-linecap="round" stroke-linejoin="round" stroke-width="0.5"><title>2025-05-27 6.0km</title><desc>1748352132000</desc></polyline><polyline fill="none" points="34.902050113887526,227.0120401615859 35.0096810934192,226.94081911250396 34.6637243735895,225.21369089363725 25.56890660591307,226.08616199400421 24.515660592296626,226.1039674359272 20.725512528500985,225.65883029899123 11.669134396361187,226.059453824324 11.5,223.10369925123814 12.576309794996632,222.9879598384141 14.060079726681579,223.09479622493382 14.067767653759802,225.65883029899123 20.948462414584355,225.382844134896 25.130694760824554,225.7923716782534 34.64834851937485,224.8486748884825 38.33855353077524,224.71513206644886 38.5,225.00892600539373 38.392369020497426,225.04453732479305 34.98661731209722,225.18698245715495" stroke="#4DD2FF" stroke-linecap="round" stroke-linejoin="round" stroke-width="0.5"><title>2025-05-25 7.6km</title><desc>1748179850000</desc></polyline><polyline fill="none" points="68.48230668413453,226.49058949661412 68.41153342067264,225.90665418278513 68.06651376141235,225.90665418278513 67.84534731321037,224.8104857486178 67.66841415461386,224.5646145519131 59.13138925295789,225.29198176666978 57.73361730010947,225.5480957301843 52.12483617296675,225.02562255236262 41.650393184798304,225.49687298970093 41.5,223.7143053600521 44.10091743117664,223.5094105033786 44.08322411531117,225.0051333528172 44.428243774571456,225.04611174775346 51.77981651376467,224.7285287499035 57.10550458711805,225.18953599854285 68.16382699867245,224.12409382039914 68.5,226.37790048967872" stroke="#4DD2FF" stroke-linecap="round" stroke-linejoin="round" stroke-width="0.5"><title>2025-05-24 6.6km</title><desc>1748094255000</desc></polyline><polyline fill="none" points="98.5,226.2030372157751 98.20628525386564,223.79696278423216 87.0886381950113,224.74176199414796 85.54391619662056,225.0063044787239 83.78162771958159,225.03149897148978 78.70145044318633,224.41423241922166 71.5,224.703970164388 78.66881547140656,224.40163511056016 83.71635777596384,225.04409621599916 95.23650282033486,224.07410463433916" stroke="#4DD2FF" stroke-linecap="round" stroke-linejoin="round" stroke-width="0.5"><title>2025-05-18 4.7km</title><desc>1747565909000</desc></polyline><polyline fill="none" points="124.99069567702827,225.96672524152382 124.69696535929688,224.2391534551498 116.86673346691532,224.90154250922205 115.56040652733645,225.13427261247125 114.50916117947781,225.12532146604644 110.93028914972092,224.6598605953768 101.55410821642727,225.08951687128865 101.5,224.8209819451513 106.77941597480094,224.4808365267163 110.35828800458694,224.41817801647267 114.54008016031003,225.08951687128865 124.79745204694336,224.17649477245868 128.25264815342962,224.0332747584689 128.39178356711636,224.05117727299512 128.41497280274052,224.17649477245868 128.5,224.12278729458922" stroke="#4DD2FF" stroke-linecap="round" stroke-linejoin="round" stroke-width="0.5"><title>2025-05-17 5.7km</title><desc>1747487200000</desc></polyline><polyline fill="none" points="157.02453131228685,223.883791242617 153.44894295971608,224.07086714363686 151.70422816107748,224.38265967639018 143.69146390102105,224.99377073609503 138.6727163940668,224.3452446144147 131.5,224.6320931306036 138.57578779413598,224.37018799035286 143.4976067012176,224.98129911229626 157.7999601116171,223.73413031590462 158.27383326686686,226.15362619120424 158.5,226.26586968409538" stroke="#4DD2FF" stroke-linecap="round" stroke-linejoin="round" stroke-width="0.5"><title>2025-05-11 5.0km</title><desc>1746965499000</desc></polyline><polyline fill="none" points="188.5,225.9700661204988 188.06420373020228,224.0299338795012 175.8134863700834,225.14018715215934 170.83572453365196,224.56823989559052 161.5,224.9607530387293 170.60329985647695,224.5794545762401 175.25179340026807,225.14018715215934 188.14167862263275,224.05236334940855" stroke="#4DD2FF" stroke-linecap="round" stroke-linejoin="round" stroke-width="0.5"><title>2025-05-10 5.3km</title><desc>1746870058000</desc></polyline><polyline fill="none" points="38.441048034932464,254.5448839132514 38.372270742373075,254.35145821388141 38.5,254.49937201412104 37.97925764194224,254.5903957937844 25.94323144108057,255.6485417861113 20.84388646291336,255.0455135788361 11.5,255.43236223729036 20.794759825337678,255.0455135788361 23.182314410456456,255.2389380756431 25.353711790405214,255.6371639255376 35.20851528388448,254.7496872296324" stroke="#4DD2FF" stroke-linecap="round" stroke-linejoin="round" stroke-width="0.5"><title>2025-05-05 5.4km</title><desc>1746434825000</desc></polyline></svg>