<?xml version="1.0" encoding="utf-8" ?>
<svg baseProfile="full" height="300mm" version="1.1" viewBox="0,0,200,300" width="200mm" xmlns="http://www.w3.org/2000/svg" xmlns:ev="http://www.w3.org/2001/xml-events" xmlns:xlink="http://www.w3.org/1999/xlink"><defs /><rect fill="#222222" height="300" width="200" x="0" y="0" /><text fill="#FFFFFF" style="font-size:12px; font-family:Arial; font-weight:bold;" x="10" y="20">Over 3km Runs</text><text fill="#FFFFFF" style="font-size:4px; font-family:Arial" x="10" y="280">Runner</text><text fill="#FFFFFF" style="font-size:9px; font-family:Arial" x="10" y="290">tang-hi</text><text fill="#FFFFFF" style="font-size:4px; font-family:Arial" x="65" y="280">SPECIAL TRACKS</text><rect fill="yellow" height="2.6" width="2.6" x="65" y="283" /><text fill="#FFFFFF" style="font-size:3px; font-family:Arial" x="70" y="285.5">Over 20.0 km</text><rect fill="red" height="2.6" width="2.6" x="65" y="287" /><text fill="#FFFFFF" style="font-size:3px; font-family:Arial" x="70" y="289.5">Over 40.0 km</text><text fill="#FFFFFF" style="font-size:4px; font-family:Arial" x="120" y="280">STATISTICS</text><text fill="#FFFFFF" style="font-size:3px; font-family:Arial" x="120" y="285">Number: 83</text><text fill="#FFFFFF" style="font-size:3px; font-family:Arial" x="120" y="290">Weekly: 3.6</text><text fill="#FFFFFF" style="font-size:3px; font-family:Arial" x="141" y="285">Total: 434.8 km</text><text fill="#FFFFFF" style="font-size:3px; font-family:Arial" x="141" y="290">Avg: 5.2 km</text><text fill="#FFFFFF" style="font-size:3px; font-family:Arial" x="167" y="285">Min: 3.2 km</text><text fill="#FFFFFF" style="font-size:3px; font-family:Arial" x="167" y="290">Max: 11.5 km</text><polyline fill="none" points="21.591343944281107,31.09090909090446 21.67574638160295,31.139741492857866 21.57727687136503,31.758282673814392 21.689813454489922,31.798976005120494 21.619478090055054,32.67794691479503 21.232633585575968,35.3066634674542 21.070862247317564,35.66474821059819 20.95129212772008,37.341214583029796 20.564447623270098,39.95350245467125 20.43081043078564,40.23018839342694 20.480045185919153,40.63707774410432 20.001764707645634,43.84329353814246 19.973630561871687,45.015076436815434 20.60664884193102,50.727272727272066 21.021627492213156,50.670315514478716 20.69808481572545,47.7817180737693 20.754353107273346,47.553880606617895 20.360475066350773,45.36498050800583 20.332340920547722,44.41291236515826 21.84455125630484,33.735954661882715" stroke="#4DD2FF" stroke-linecap="round" stroke-linejoin="round" stroke-width="0.5"><title>2025-10-06 5.0km</title><desc>1759755043000</desc></polyline><polyline fill="none" points="47.58081174065592,50.61443046329077 47.64823544659885,50.727272727272066 48.332104464643635,50.56929352400766 48.49584775068797,50.27590295005939 47.69639523664955,48.49297352719441 47.8216106906184,48.32370651587553 46.43460873852018,45.32199325230613 45.760371678567026,44.430490598220786 45.519572728546336,43.57283539341006 45.519572728546336,42.04935178565211 47.09921384055633,41.631800600247516 47.108845798589755,41.32710004757246 43.73766049853293,38.415472776207025 41.65715757041471,35.95519818599132 41.262247292441316,35.22161901164509 39.1335845743306,32.60326420897036 38.517139262345154,31.090909090911737 39.384015482326504,32.84027312778926 41.002184426411986,34.71375352926407 41.71494931838242,35.89876919917151 44.11330686049769,38.61861216026591 45.41362119052792,39.465022066186066 46.906574680586345,41.13525110168848 46.77172726858407,41.41738178420201 45.17282224056544,41.778507961076684 45.42325314856134,42.26376932221319 45.4039892325527,43.47127050133713 45.5966283925809,44.272502003361296 46.61761594063137,45.931370495767624 47.58081174065592,48.199577202387445 44.28668210451724,49.36187326051004" stroke="#4DD2FF" stroke-linecap="round" stroke-linejoin="round" stroke-width="0.5"><title>2025-10-04 5.0km</title><desc>1759568734000</desc></polyline><polyline fill="none" points="65.88834095170023,31.641186193555768 65.90373774824548,31.406642292284232 65.39564346091356,31.271328207381885 62.84747362579219,31.090909090911737 65.36484986776486,31.289370097889332 65.9268329431361,31.46076786566846 65.90373774824548,31.72237431559188 66.38873684074497,32.3357931645005 66.2809592646372,32.462084728467744 66.35794324759627,32.76879202765849 66.54270480660489,32.976269864411734 69.36031858198112,40.21963373035396 65.96532493463019,41.473403391799366 66.35794324759627,43.21421824317804 67.09698948374717,45.568320247104566 67.42032221204136,47.38120475821779 67.97460688918363,48.6529065463983 67.7590517369681,48.878383593175386 67.93611489768955,49.18503141317342 68.0823844652914,49.96968401324557 67.99000368575798,49.77126680131187 67.75135333865182,49.69911497258727 67.50500459325849,49.82538063251559 67.43571900864481,50.05987350133364 67.78214693182963,50.673159472491534 68.06698766871705,50.727272727272066 68.25174922772567,50.52885729069385 68.23635243115132,50.24927111361467 67.92841649940237,49.74420987274061 67.70516294889967,49.68107700579276 67.52809978814912,49.78930474886147 67.45881420350634,50.15006289333542 67.7898453301168,50.673159472491534 68.12087645672727,50.700216104210995 68.2748444225872,50.312403556854406 67.99770208407426,49.81636166304088 67.62048056768253,49.70813395454752 67.44341740693199,50.09594926964928 67.61278216939536,50.48376280844968 67.87452771136304,50.71825385389093 68.15936844822136,50.673159472491534 68.28254282090347,50.44768720535649 68.0823844652914,49.906551314430544 67.76675013522618,49.69911497258727 67.48190939839697,49.83439960100077 67.52040138986195,50.29436572074337 67.88222610965022,50.727272727272066 68.24405082943849,50.54689507686999 68.25174922772567,50.28534680123266 67.89762290625367,49.73519089462934 67.62048056768253,49.71715293552552 67.46651260182261,49.852437535111676 67.55889338135603,50.32142247346928" stroke="#4DD2FF" stroke-linecap="round" stroke-linejoin="round" stroke-width="0.5"><title>2025-10-02 5.0km</title><desc>1759403720000</desc></polyline><polyline fill="none" points="88.2921534574707,50.727272727272066 88.75533675239421,47.78835098663694 88.97920867826906,47.654355252139794 89.45783141636639,44.14359421988047 89.51186946738744,42.49089735123562 88.99464812144288,39.17647645439138 88.72445786604658,36.1924973374189 88.60866204233025,35.74578515631583 88.25355484956526,35.17399025049235 88.34619150852086,35.03104094260925 88.70901842290186,35.09358129341854 88.53918454807717,33.35136915339535 88.16863791210926,32.89570797127817 88.21495624160161,31.957574566658877 87.88300821359735,31.090909090911737 88.22267596321763,32.0290517500398 88.16863791210926,32.8689042987462 88.53918454807717,33.35136915339535 88.70901842290186,35.09358129341854 88.33847178693395,35.039975281149964 88.2921534574707,35.17399025049235 88.7398973092204,36.16569467059162 89.51958918900345,42.74997080631147 89.39607364370022,44.75999752727512 88.59322259915643,50.0841128420725 88.4697070538532,50.093045650464774 88.40022955960012,50.3520966994256" stroke="#4DD2FF" stroke-linecap="round" stroke-linejoin="round" stroke-width="0.5"><title>2025-09-30 5.0km</title><desc>1759224370000</desc></polyline><polyline fill="none" points="111.00457023037598,50.727272727272066 111.05040883843321,50.108454538734804 111.22612350265263,49.984690372803016 111.99010030349018,44.91904877823981 112.13525589567143,43.00941098367912 111.36363932679524,36.47565712345386 111.21848373461398,35.88326274553401 110.88997371023288,35.31738972028688 110.94345208632876,35.21128811808012 111.33308025475708,35.273180735093774 111.14972582252813,33.46059298921318 110.78301695812843,33.062702816598176 110.82121579817613,32.12544321373571 110.45450693374733,31.09090909090446 110.7982964941184,31.92207423006039 110.79065672613797,33.053860792089836 111.15736559056677,33.49596091647254 111.34835979077616,35.23781353076629 111.25668257466168,35.30854792504397 110.94345208632876,35.19360450511158 110.89761347827152,35.29970612890611 111.34835979077616,36.34303186707257 111.56227329498506,39.004339983810496 112.10469682360417,42.275603828267776 112.14289566365187,43.58407491521211 111.2414030386426,50.16149627021514 111.0656883744523,50.21453796936839 110.98165092634736,50.63003016057337" stroke="#4DD2FF" stroke-linecap="round" stroke-linejoin="round" stroke-width="0.5"><title>2025-09-28 5.0km</title><desc>1759056716000</desc></polyline><polyline fill="none" points="134.48987326980568,31.090909090911737 134.53935405096854,31.777976421239146 134.6453842962219,31.78615575888398 134.58176614902914,32.604085327649955 134.1576451678411,35.3359098563451 134.00920282443985,35.65488931121945 134.00920282443985,36.43188525881851 133.37302135265782,40.292217110298225 133.42957081683562,40.64389068669698 132.92769432236673,44.11965157186205 132.95596905445564,45.42813444917556 133.56387579417787,50.66185339244112 133.987996775395,50.727272727272066 133.64163130740053,47.81606090153218 133.7052494545933,47.63615110064711 133.3306092545099,45.1909735050649 133.3023345224501,44.111473487035255 134.44039248867193,36.022940957969695 134.61004088114714,35.71214190010505 134.5464227339544,35.47495233819791 134.86451346985996,32.99668856873177" stroke="#4DD2FF" stroke-linecap="round" stroke-linejoin="round" stroke-width="0.5"><title>2025-09-27 5.0km</title><desc>1758971882000</desc></polyline><polyline fill="none" points="156.19501817855053,50.727272727272066 156.27155364392092,50.13390664161125 156.4705458538956,49.92135661326756 157.3430501591647,43.24347923036839 156.5088135865517,36.184211542211415 156.0878685270145,35.32501444558875 156.14909689931665,35.209863675248926 156.45523876079824,35.34272993521881 156.52412067964906,35.280725705772056 156.3557426558109,33.53573143562244 155.9807188754785,33.057402028658544 156.0189866081928,32.074161109514534 155.6363092813117,31.09090909090446 156.02664015471237,32.05644495514571 156.00367951512453,33.101691898897116 156.38635684197652,33.59773690716247 156.53942777274642,35.27186795511079 156.14909689931665,35.209863675248926 156.1261362597288,35.35158767866233 156.57769550540252,36.414510354734375 156.89914445995237,39.7803466053374 157.35070370568428,42.88034390620305 157.25120760069694,44.63400782018289 156.44758521427866,49.97449416893505" stroke="#4DD2FF" stroke-linecap="round" stroke-linejoin="round" stroke-width="0.5"><title>2025-09-25 5.0km</title><desc>1758803583000</desc></polyline><polyline fill="none" points="179.67407573619857,31.09090909090446 179.6811444227933,32.61226458103192 179.066168687772,36.1619822523935 179.05910000117728,37.257946409758006 178.50067375900107,40.25950320996344 178.5430858786567,40.63571224766929 178.0412091293838,44.307747292776185 178.28154447409906,47.41535215870681 178.6985969840607,50.727272727272066 179.10151212080382,50.66185339239746 178.40171214647125,44.258678885918926 180.1406090524397,32.50593421787926" stroke="#4DD2FF" stroke-linecap="round" stroke-linejoin="round" stroke-width="0.5"><title>2025-09-23 5.1km</title><desc>1758638106000</desc></polyline><polyline fill="none" points="20.757116491527995,72.54545454545587 20.6659318410384,72.51028367345134 20.68872800367535,71.78048485358886 20.85589986294508,71.62221441780275 21.220638465078082,69.45915611437522 21.75254892653902,64.80751828308712 20.931887071754318,57.99228528296226 20.506358702579746,57.11286126321647 20.59754335312755,57.0073297799172 20.954683234362165,57.042506955323915 20.787511375034228,55.301219597415184 20.42277277293033,54.887878560432 20.437970214668894,53.832530781131936 20.042836729058763,52.90909090908826 20.453167656465666,53.91168231132906 20.430371493799612,54.89667307115451 20.795110095932614,55.2836306573663 20.772313933295663,55.872858201692 20.969880676129833,57.0337126628001 20.60514207399683,56.989741186844185 20.544352306984365,57.1040669778522 21.000275559636066,58.168169013864826 21.319421836466063,61.54506729142304 21.775345089146867,64.5525063311652 21.646166834252654,66.487060980362 20.962281955231447,71.0155083988866" stroke="#4DD2FF" stroke-linecap="round" stroke-linejoin="round" stroke-width="0.5"><title>2025-09-21 5.0km</title><desc>1758459157000</desc></polyline><polyline fill="none" points="33.7082876432105,56.59063849881932 33.68831168831093,57.16850570263341 34.31755426665768,57.13383375317062 34.48734988307115,57.27252148748812 34.84691707073944,57.14539107080782 37.44379120366648,57.13383375317062 37.67351468466222,57.27252148748812 39.49132657778682,57.26096418277302 39.76100196852349,57.38809447027597 40.40023252432002,57.22629226150457 43.75619294238277,57.22629226150457 45.50408899335889,57.26096418277302 45.69386056467192,57.41120905274147 46.97232167626498,57.318750694728806 53.324675324663986,57.5152246157013 52.69543274631724,62.25361051120126 52.35584151354851,62.773665235545195 45.72382449702127,62.738994994564564 45.3542693319032,68.86390695573209 45.68387258722214,63.143480481965526 51.506863431597594,63.17815059966961 52.365829490998294,63.3399443426315 52.67545679141767,62.32295127848192 52.9151682498632,60.38139381758083" stroke="#4DD2FF" stroke-linecap="round" stroke-linejoin="round" stroke-width="0.5"><title>2025-09-20 5.0km</title><desc>1758380898000</desc></polyline><polyline fill="none" points="66.78501997920102,52.90909090908826 66.65862585799186,53.06347086414462 66.66564775363076,53.615986155760766 66.77097618795233,53.68098770378856 66.70777912737685,54.477252379088895 66.2864653900615,57.247866653400706 66.08283041699906,57.979097813004046 66.11793989513535,58.539703841131995 65.62640720160562,61.87888442709664 65.50703497603536,62.04949575030332 65.55618824536214,62.43946312256594 65.0786993430811,65.89221629880922 65.11380882118829,67.200161525172 65.69662615779089,72.54545454545587 66.04772093892097,72.53733127075975 66.12496179074515,72.43985190999229 65.82302027900005,69.28795524994348 65.45788170665037,67.07018034779321 65.45788170665037,65.72973713777901 66.5813850061677,57.80035303583281 66.73586670984514,57.52411032169766 66.67266964924056,57.296615605358966 67.12909286469221,54.29037464695284" stroke="#4DD2FF" stroke-linecap="round" stroke-linejoin="round" stroke-width="0.5"><title>2025-09-18 5.2km</title><desc>1758195038000</desc></polyline><polyline fill="none" points="88.26926245502545,72.37733863907488 88.25396913659642,72.54545454545587 88.42984229879221,72.51006175004295 88.50630889102467,71.87298897254368 88.67453539400594,71.7579614464994 89.44684797580703,66.46653097148373 89.56154786422849,64.94452151489531 88.74335532702389,58.04205161436403 88.30749575115624,57.148230226033775 88.38396234344691,56.980084582581185 88.75100198626751,57.05973255945719 88.59806880174438,55.351709965580085 88.20808918125113,54.89151161693735 88.2463224773528,53.91800709116069 87.84104953837232,52.90909090909554 88.26926245502545,53.953407446533674 88.2463224773528,54.90036160811724 88.59806880174438,55.325160126980336 88.75864864548203,57.06858233016828 88.38396234344691,56.99778413931199 88.33043572882889,57.13938046343537 88.69747537164949,57.78541076903639 88.8351152377436,58.44028591061942 89.07980833298643,61.21017627084075 89.55390120498487,64.32509144314099 89.56154786422849,65.70552956932079 89.17156824367703,68.54597762486083 89.01098839993938,69.51931856836745 88.81982191931456,69.69628847997228 88.62100877944613,71.51020933585096 88.44513561725034,71.95262332460698" stroke="#4DD2FF" stroke-linecap="round" stroke-linejoin="round" stroke-width="0.5"><title>2025-09-16 5.1km</title><desc>1758026219000</desc></polyline><polyline fill="none" points="112.12128429173026,52.90909090908826 111.94551869493444,52.99044451852387 111.92442682333058,53.511105661404144 112.05097805304104,53.6575409977886 112.00176368592656,54.45479535296181 111.58695687746513,57.2451230831648 111.44634439999936,57.48917044708651 111.2916706748365,59.62048581405543 110.82061887535383,62.077122468239395 110.855771994713,62.516380683271564 110.37065894753323,66.2743802761106 111.03153759153793,72.54545454545587 111.41822190451785,72.46412079681613 110.73625138888019,65.97342143554124 111.13699694961542,63.020711218516226 111.33385441801511,62.30488628787134 111.72053873102413,58.93716950787348 111.92442682333058,57.70881243868644 112.04394742916338,57.52171003940748 111.9947330620198,57.10682924679713 112.22674364983686,55.55304090350546" stroke="#4DD2FF" stroke-linecap="round" stroke-linejoin="round" stroke-width="0.5"><title>2025-09-14 5.0km</title><desc>1757842188000</desc></polyline><polyline fill="none" points="134.43265424270066,52.90909090908826 134.55267208340229,53.971080139082915 134.072600720654,57.18963874128531 133.86786440416472,57.91665571462363 133.92434338803287,58.21889679162996 133.5642898659571,60.92267859227286 133.30307456559967,62.066244747569726 133.33837393057183,62.499161977437325 132.85124269480002,66.11760542176489 133.09127837617416,69.25400257671572 133.50781088208896,72.54545454545587 133.92434338803287,72.45561521236232 133.20423634388135,66.15844471221499 134.94096509742667,54.175307228957536" stroke="#4DD2FF" stroke-linecap="round" stroke-linejoin="round" stroke-width="0.5"><title>2025-09-13 5.1km</title><desc>1757760467000</desc></polyline><polyline fill="none" points="157.24029945756774,52.90909090908826 157.20507337435265,54.44985105505475 156.81054124241928,57.14814807165385 156.6555464762787,57.47422011575691 156.47941606023232,59.42247296957066 156.02147697849432,62.10430015804741 156.06374827833497,62.43035206464265 155.57058311341098,65.92717548269866 155.5846735466912,66.8319231677524 156.21169782785,72.54545454545587 156.62736560974736,72.48840274703252 156.3455569440266,69.37494312805211 155.9580700287188,67.08459862745076 155.92988916215836,66.15540108572895 157.06416904152138,57.955173962218396 157.2332542409422,57.490523683176434 157.17689250782132,57.27857704828784 157.4164298736432,55.60743974112847" stroke="#4DD2FF" stroke-linecap="round" stroke-linejoin="round" stroke-width="0.5"><title>2025-09-11 5.0km</title><desc>1757592265000</desc></polyline><polyline fill="none" points="178.69816788175376,72.46603550257714 178.85068873967975,72.38661638707708 178.87356686836574,71.81303172972548 179.04896585500683,71.6894899230465 179.15573045556084,71.06295376901107 179.39213778535486,68.8303304371293 179.864952444972,66.17405161658098 179.92596078812494,64.33843604570575 179.12522628394072,57.957604976974835 178.69054183881963,57.136800127933384 178.76680226778262,56.99558560789592 179.14047836975078,57.02206334789662 178.97270542601473,55.35394995233946 178.59902932404657,54.868514105874056 178.65241162435268,53.985896519712696 178.25585739369853,52.90909090908826 178.64478558144765,53.87115557422658 178.6066553669807,54.912644749565516 178.97270542601473,55.31864561868133 179.13285232687485,57.048541079842835 178.7591762249067,56.99558560789592 178.69054183881963,57.11032242293004 178.94982729732874,57.454531958006555 179.16335649846587,58.10764373395796 179.49127634303295,61.620241701893974 179.92596078812494,64.46198831192305 179.864952444972,66.27995133084187 178.94982729732874,72.49250852495607 178.78205435359268,72.54545454545587" stroke="#4DD2FF" stroke-linecap="round" stroke-linejoin="round" stroke-width="0.5"><title>2025-09-09 5.2km</title><desc>1757417515000</desc></polyline><polyline fill="none" points="21.595998834003694,74.72727272727934 21.53963715810096,75.34684121085593 21.701676976314047,75.3876021275646 21.603044043498812,76.39031415790669 21.22964794069412,78.87665984702471 21.046472494053887,79.37391973966442 20.813980581006035,81.89277907036012 20.405358430783963,83.97138984905177 20.440584478201345,84.40340807683242 19.968555442610523,87.74535730302159 19.95446502364939,88.7397641130301 20.229228193638846,91.29093179869233 20.602624296414433,94.31473482462752 21.0112464466074,94.36363636363967 20.99715602764627,94.04577582774073 21.21555752173299,93.84201841206959 21.21555752173299,93.72791403339943 20.877387466374785,93.483404104496 20.33490633589099,87.95728109877382 21.405778177868342,80.22985168195737 21.638270090945298,79.42283038231835 21.56781799608143,79.11306247532775 21.863716794498032,76.96910970668978" stroke="#4DD2FF" stroke-linecap="round" stroke-linejoin="round" stroke-width="0.5"><title>2025-09-07 5.0km</title><desc>1757247375000</desc></polyline><polyline fill="none" points="42.98903655470349,94.30107867245533 43.166671030718135,94.36363636363967 43.213010459207,93.73805744967831 43.43698436371051,93.39845560434333 44.17841521993978,88.4383318293767 44.317433505522786,86.54358006862458 43.47560055411304,79.65241686195077 43.027652745193336,78.80327376788046 43.10488512599841,78.6870746011773 43.47560055411304,78.74964340232691 43.31341255432926,77.0066387096158 42.95042036430095,76.53289299891185 42.98903655470349,75.63902621348825 42.69555350745213,74.72727272727207 42.98903655470349,75.54963903495809 42.95814360238728,76.52395437604719 43.32113579241559,76.95300724788831 43.49877026837203,78.73176660653553 43.089438649854856,78.66025938704115 43.050822459423216,78.78539698299574 43.33658226855914,79.21443881667074 43.521939982660115,79.8669359247142 43.79997655370971,82.89696176983125 44.30971026743646,86.3648277948887 44.30971026743646,87.42839847225696 43.77680683947983,91.2356972940106 43.39064493519254,93.66656243330362 43.213010459207,93.91679473629483" stroke="#4DD2FF" stroke-linecap="round" stroke-linejoin="round" stroke-width="0.5"><title>2025-09-04 5.0km</title><desc>1756985562000</desc></polyline><polyline fill="none" points="66.68425416949322,74.77641054882406 66.76918461805326,74.72727272727207 66.8187273797812,74.84192759759753 66.79041723025148,75.33330376590311 66.86827014148002,75.33330376590311 66.8116498424206,76.21777331975318 66.42946282360936,78.70733921588544 66.1746714777546,79.70641969884309 66.21005916467402,80.09949715033144 65.60139094953774,83.85001477829792 65.63677863651537,84.19393997573934 65.15550609427737,87.58398127969122 65.1979713185865,89.24619583368622 65.77832938419306,94.35544871815364 66.11097364127636,94.36363636363967 66.1817490151152,94.26538456282287 65.8491047580319,91.36690259062743 65.93403520665015,91.17857953647763 65.70755401032511,90.11413661484403 65.50230542614008,87.87057244046446 65.89156998234103,84.81627707998268 66.09681856652605,84.03835494910163 66.47900558530819,80.63997551654757 66.69133170685382,79.40342118847911 66.8116498424206,79.23963773568539 66.74087446855265,79.01852954657807 67.05228611349594,76.70095166187093" stroke="#4DD2FF" stroke-linecap="round" stroke-linejoin="round" stroke-width="0.5"><title>2025-09-02 5.1km</title><desc>1756811867000</desc></polyline><polyline fill="none" points="89.27130478710751,74.72727272727207 89.24280448281206,76.1700724056791 88.8651754509774,78.80002410329325 88.63004794056178,79.69864009901357 88.63717301664292,80.39938878676185 88.06004185479833,83.9112851805694 87.6111620622105,87.87641278938099 87.63966236647684,89.07992672022374 88.20254337624647,93.68773636914557 88.75829930987675,94.36363636363967 88.63004794056178,94.2976951484452 88.53029687557137,93.51463912412873 88.31654459337005,91.47041517438629 88.37354520196095,91.26434135587624 87.99591617012629,88.84911721219396 87.98166601796402,87.68681650223152 89.12880326565937,79.5749779377802 89.28555493926979,79.24521125316824 89.37105585209792,77.81895491094474 89.79143534039031,75.54348826828209" stroke="#4DD2FF" stroke-linecap="round" stroke-linejoin="round" stroke-width="0.5"><title>2025-08-31 5.1km</title><desc>1756640573000</desc></polyline><polyline fill="none" points="111.93055941723287,74.72727272727934 111.99409822240705,76.31208227200113 111.55638645318686,79.04866438526369 111.40812924102647,79.29372689637967 111.33753056856222,79.7838496780023 111.27399176335894,81.03364924954076 110.8786391976173,83.73739754436247 110.77274118890637,83.91709964745678 110.81510039238492,84.3091755695059 110.33502941968618,87.67441529181815 110.36326888867188,89.06294404633809 110.92099840109586,93.90627144159225 111.4575483117369,94.36363636363967 111.34459043582319,94.18395759720443 111.06925561325625,91.05584931093472 110.72332211822504,88.97309879343084 110.72332211822504,87.42937831748714 111.26693189612706,84.12947434248781 111.66934432912967,80.68240035205963 111.99409822240705,79.33457057560736 111.94467915169662,79.02415809307422 112.26237317774212,76.6551812556354" stroke="#4DD2FF" stroke-linecap="round" stroke-linejoin="round" stroke-width="0.5"><title>2025-08-30 5.0km</title><desc>1756550382000</desc></polyline><polyline fill="none" points="133.49919321434572,94.35480408910371 133.76634463475784,94.36363636363967 134.62122918016394,88.41931264036975 134.74335554376012,86.4318923241226 134.23958429382765,82.88092153213074 134.02586315746885,80.19551391543064 133.89610389614245,79.60365304762672 133.50682611204684,78.99412047676742 133.56025639615837,78.85277897996275 133.957167077926,78.91461591310508 133.76634463475784,77.12132698109781 133.41523133931332,76.75913112700073 133.43813003253308,75.69020285008446 133.04885224843747,74.72727272727934 133.4457629302342,75.73437370057218 133.399965543882,76.71496079757344 133.76634463475784,77.1478290574887 133.94190128246555,78.89694822242018 133.56025639615837,78.86161283024558 133.50682611204684,78.9764528022497 133.82740781657049,79.47998011820164 134.03349605519907,80.32801952749287 134.25485008928808,83.1105906991288 134.74335554376012,86.30822911344148 134.6517607711139,88.18082460227015 133.8732052029227,93.52456627631182" stroke="#4DD2FF" stroke-linecap="round" stroke-linejoin="round" stroke-width="0.5"><title>2025-08-28 5.0km</title><desc>1756381580000</desc></polyline><polyline fill="none" points="157.1578997746401,74.72727272727934 157.3196039595059,75.56521094566415 157.29148149257526,76.32992360775825 156.85558325520833,79.06330490303662 156.70090968708973,79.34802675536048 156.6798178368772,80.24286027200287 156.06112356449012,83.88716985473002 156.1103378816333,84.35083128038968 155.63928656058852,87.41743663406669 155.60413347693975,88.66194059333066 155.71662334463326,88.7920836815174 155.67443964423728,89.32078780296433 156.2087665158615,93.93256655531877 156.79933832131792,94.36363636363967 156.60951166957966,94.19283539625758 155.95566431351472,88.80835155266686 155.92754184661317,87.7590670972786 156.4126544010942,84.33456250387826 156.53217488556402,84.16374015097244 156.64466475325753,82.73207182259648 157.13680792448577,79.91746742289979 157.1016548408079,79.53512913565646 157.23523655868485,79.35616165055399 157.17899162485264,79.11211443534557 157.38287951008533,77.71289604422782" stroke="#4DD2FF" stroke-linecap="round" stroke-linejoin="round" stroke-width="0.5"><title>2025-08-26 5.0km</title><desc>1756206850000</desc></polyline><polyline fill="none" points="179.70864772587083,74.72727272727207 179.72276746606803,75.39714449064195 179.8357253879367,75.4216518883477 179.7721865568892,76.25489896540239 179.37683383052354,78.96697671490256 179.24269629834453,79.26922067818668 179.080319285742,81.10716626563226 178.59318824787624,83.8762582946656 178.51552967663156,85.15866684250796 178.15547630083165,87.56823269370216 178.21901513187913,89.38965321032447 178.76262513062102,94.24929537685239 178.78380474096048,94.36363636363967 179.20739694780787,94.31463310347317 178.90382253291318,91.14569223712897 178.52964941685786,88.98943430064537 178.4943500662921,87.89494792961341 178.9461817535921,84.55422204916249 179.10855876622372,84.08863309757726 179.6521687649365,79.63681315646681 179.81454577756813,79.31006436985626 179.7580668166629,79.04866438458703 180.02634188096272,77.01461671536526" stroke="#4DD2FF" stroke-linecap="round" stroke-linejoin="round" stroke-width="0.5"><title>2025-08-24 5.0km</title><desc>1756042259000</desc></polyline><polyline fill="none" points="20.65875783719821,116.1818181818162 20.877799275127472,115.86499098421336 21.636621399404248,110.69602239916276 21.77743375240243,108.42375390271627 21.362819601985393,105.80740482351393 20.94820545159746,101.81483472132822 20.494476758758537,100.89135764109233 20.60399747773772,100.76460513743223 20.940382543107262,100.8008201568955 20.76827855614829,99.02626688061719 20.39277894826955,98.60073099042347 20.455362216220237,97.68627464261226 20.032925157342106,96.54545454544859 20.431893490778748,97.51424715125177 20.408424765249947,98.60978496669122 20.783924373157788,99.0534286768816 20.96385126860696,100.8098739094421 20.86997636666638,100.90041138443485 20.541414209699724,100.78271264900104 20.541414209699724,100.9094651268606 20.84650764116668,101.46174167452409 21.01861162809655,102.13171190449793 21.22200724904542,104.59426186595374 21.785256660863524,108.5142836369123 21.660090124903945,110.57833660969482 20.799570190167287,116.1094006360072" stroke="#4DD2FF" stroke-linecap="round" stroke-linejoin="round" stroke-width="0.5"><title>2025-08-23 5.0km</title><desc>1755956696000</desc></polyline><polyline fill="none" points="44.1997335771448,96.54545454545587 44.20684373169206,97.08845948099042 44.29927574112662,97.18718725987128 44.263724968302995,98.0099140689781 43.83711569401203,100.65903760200308 43.680692293448374,100.99634214258549 43.31807441034471,104.37753686159704 43.13321039150469,105.49634393435554 43.01233776379377,105.61151437330409 43.0692190004047,106.01460962009878 42.55728787128464,109.88915753903711 43.21142209178652,116.05021198279428 43.23275255548651,116.14891665209143 43.61670090231928,116.1818181818162 42.91279559978284,109.72463697886269 43.972208630875684,102.02470097331388 44.10730156771024,101.18556114776584 44.23528434999753,101.02924982739933 44.1784031134157,100.71662628155173 44.45569914166117,98.57759069337044" stroke="#4DD2FF" stroke-linecap="round" stroke-linejoin="round" stroke-width="0.5"><title>2025-08-21 5.0km</title><desc>1755781186000</desc></polyline><polyline fill="none" points="66.65126392265665,96.54545454544859 66.67245235436712,98.06554397585569 66.24868372047786,100.79509482470894 66.10036469862098,101.08112024084403 66.03679940354778,101.56327506878733 66.11449031974189,101.8002653655567 65.45764893727028,105.67373194798711 65.50002580066212,106.08231459592935 65.03388030338101,109.43261404932855 65.06213154565194,110.84623514234409 65.65540763307945,116.1818181818162 66.0650506458187,116.10828268784098 65.78253822322586,113.01156034155429 65.41527207387844,110.8053793898871 65.39408364216797,109.24467411466321 65.85316632885952,106.1231727465929 65.97323410847457,105.94339672843489 66.46056803743704,101.8819859956784 66.6936407860776,101.09746451961837 66.70070359660895,100.19852425540012 67.1739119044505,97.19108743687684" stroke="#4DD2FF" stroke-linecap="round" stroke-linejoin="round" stroke-width="0.5"><title>2025-08-19 5.3km</title><desc>1755607955000</desc></polyline><polyline fill="none" points="88.48853455996141,116.08509824939392 88.83047692995751,116.1818181818162 88.83047692995751,115.5311547357851 88.95965515860007,115.24099243240926 89.11922826460795,113.23620811403816 89.58275014389073,110.20256456804054 89.53715782790096,108.21525054955418 89.02044491327251,104.88244004629814 88.78488461396773,102.13871075392672 88.64050894661341,101.41758797044167 88.2681716993684,100.79319631323597 88.35175761199207,100.64369341656857 88.71649613996851,100.72284204111202 88.55692303396063,99.07829462559312 88.16178962867707,98.5418312174952 88.19218450601329,97.50407288438873 87.81984725871007,96.54545454545587 88.22257938337862,97.54804594776942 88.17698706733063,98.53303670767491 88.53412687598029,98.9199942939158 88.71649613996851,100.71404775307019 88.33656017333851,100.66128200606181 88.29856657667551,100.77560775056918 88.73929229797795,101.78694429357711 88.96725387792685,104.43395178560604 89.52955910857418,108.32077279556688 89.5219603892183,109.22650011325459 88.95965515860007,113.12189883645624 88.79248333326541,113.20103604470933 88.68610126263229,113.46482621612813 88.48853455996141,114.75738643117802" stroke="#4DD2FF" stroke-linecap="round" stroke-linejoin="round" stroke-width="0.5"><title>2025-08-17 5.0km</title><desc>1755429603000</desc></polyline><polyline fill="none" points="111.0162840540579,116.13765680020879 110.91705637355335,116.1818181818162 111.03154985108995,116.06699854295584 111.16130912565859,114.12387395912083 111.26816970467917,113.4437700916751 111.61928303583409,113.15229537648702 111.61165013728896,112.48101655677601 112.0848898444674,109.81351527148945 112.15358593099518,108.61222967521462 111.3215999941749,101.64267894459772 110.88652477951837,100.7946346202807 110.97048666307819,100.69746234614286 111.33686579117784,100.72396388623747 111.17657492263243,99.01018098487111 110.81019579450367,98.55081075013732 110.83309449002263,97.55255551871232 110.44381666640402,96.54545454545587 110.85599318554159,97.57022385262826 110.80256289598765,98.50664040724223 111.1689420241164,98.9395087991943 111.35213158820989,100.71513004043663 110.96285376456217,100.67096079798648 110.90942347503733,100.8034684579834 111.36739738518372,101.74868390306801 112.15358593099518,108.19707564476266 112.14595303245005,109.24820647125307 111.63454883280792,113.01097395056422 111.25290390767623,115.44873634191026 111.09261303913081,115.5723891339585 111.03918274960597,115.94334645457275" stroke="#4DD2FF" stroke-linecap="round" stroke-linejoin="round" stroke-width="0.5"><title>2025-08-16 5.1km</title><desc>1755350047000</desc></polyline><polyline fill="none" points="133.78155889717164,116.12880066895741 133.50665089971153,116.1818181818162 133.6364685651788,116.04927433908597 134.00301256179227,113.30998968944914 134.20919355985825,113.2039511293915 134.16337556028157,112.91234442250425 134.71319155520177,109.66925845893275 134.75137322151568,108.26417820712959 133.92664922913536,101.66264811815199 133.5142872329743,100.8318979726464 133.5982868988649,100.67281725171779 133.93428556242725,100.72584419104533 133.76628623064607,98.98477610871487 133.40737856729538,98.57822726951417 133.46083290013485,97.70325701237016 133.03319823741913,96.54545454545587 133.43028756708372,97.47346538325655 133.42265123385005,98.53403706369863 133.76628623064607,98.94942411124066 133.96483089547837,100.71700637006143 133.56774156581378,100.68165507719095 133.52955989947077,100.80538453938061 133.85792222977034,101.33565166805784 133.9953762285295,101.86591556165513 134.23973889293848,104.7027724444415 134.72082788846456,107.9018582329154 134.75900955477846,109.18322697855183 134.17864822680713,112.90350784034672 134.2244662263838,113.16860491398984 133.98010356200393,114.5294238355782 133.78155889717164,114.98007995310763" stroke="#4DD2FF" stroke-linecap="round" stroke-linejoin="round" stroke-width="0.5"><title>2025-08-14 4.9km</title><desc>1755170321000</desc></polyline><polyline fill="none" points="157.29560869993293,96.56188176949217 157.1252507091558,96.54545454545587 157.1749384565046,98.0321048029 156.76323997884174,100.82463358395034 156.61417673694086,101.12030745453376 156.61417673694086,101.89233968523331 156.1953800097108,104.84077791817253 156.06051326706074,105.6456253846045 155.95403952282504,105.71132686493365 156.01792376936646,106.12195990740292 155.52814454596955,109.49728450066323 155.57073404366383,110.93442374279402 156.16698701123823,116.11612520703056 156.5715872392757,116.1818181818162 155.8759587770619,109.67795483746158 157.03297346417094,101.48168516113947 157.19623320532264,101.14494689491403 157.1252507091558,100.85748628964939 157.45886844105553,98.52491100916086" stroke="#4DD2FF" stroke-linecap="round" stroke-linejoin="round" stroke-width="0.5"><title>2025-08-12 5.0km</title><desc>1754999139000</desc></polyline><polyline fill="none" points="179.6203934905061,96.61124596043373 179.71278674143832,96.54545454545587 179.7198939146183,97.9352868187998 179.2792491793516,100.76422079688928 179.12999854324153,101.04381936778373 178.98074790710234,102.94341938302387 178.51167447926127,105.69817138224607 178.03549387826934,109.66978316109453 178.07813691717456,110.88671837991569 178.5756390376191,115.00607281758857 179.09446267751628,116.1818181818162 178.39795970887644,109.71911872835335 179.4498213349434,102.12931054907676 179.70567956828745,101.0767132537876 179.64171500995872,100.84645577092306 179.9402162822371,98.62608214663487 180.14632430355414,97.78725848149043" stroke="#4DD2FF" stroke-linecap="round" stroke-linejoin="round" stroke-width="0.5"><title>2025-08-10 5.0km</title><desc>1754830447000</desc></polyline><polyline fill="none" points="20.629862139641773,138.0 21.693226494593546,131.67045650671207 21.762077424064046,130.1831683630735 21.19596978186746,126.26120938023814 20.92821616725996,123.40152071518241 20.49981038394617,122.64010170925758 20.561011210171273,122.48073409792414 20.95116647708346,122.5604179400616 20.78286420510267,120.80735656731122 20.415659247955773,120.37351269829378 20.43860955775017,119.38186145102372 20.04845429083798,118.36363636363967 20.453909764357377,119.41727776147309 20.423309351230273,120.38236667642195 20.78286420510267,120.8162105013107 20.96646668363246,122.53385666745453 20.57631141669117,122.51614914787206 20.53041079704417,122.61354046096676 20.96646668363246,123.5520329863648 21.318371434201254,127.0314500256136 21.731477010966046,129.5634574738724 21.769727527309442,130.9710801264373 20.88231554761296,137.25641313759115 20.637512242858065,137.5131283669616" stroke="#4DD2FF" stroke-linecap="round" stroke-linejoin="round" stroke-width="0.5"><title>2025-08-09 5.0km</title><desc>1754735080000</desc></polyline><polyline fill="none" points="44.09614162700018,118.3636363636324 44.1387667923409,119.74466659722384 43.86170321764075,121.91480933663843 43.506493506458355,123.41085869400558 43.42834737003432,124.7671432719435 42.95236635702895,127.54540070320218 42.98078313397127,127.9728164577682 42.49769792679581,131.22767777222907 42.4834895383392,132.34547873520933 43.09445024153683,137.5397630348234 43.57043125445489,138.0 42.87422022060491,132.64136464147305 42.90974119171733,130.89069062992348 43.925640965637285,123.90405571629526 44.053516461659456,123.1067190317699 44.17428776345332,122.95053876097518 44.11745420968509,122.61351714946795 44.529497474606615,119.82687003440515" stroke="#4DD2FF" stroke-linecap="round" stroke-linejoin="round" stroke-width="0.5"><title>2025-08-07 5.0km</title><desc>1754570205000</desc></polyline><polyline fill="none" points="66.44421118521132,118.36363636363967 66.48812280860147,118.92256189510226 66.63449488658807,118.98184165587008 66.58326465933351,119.37986181466113 66.97846926990314,119.43914125017182 67.0223808932642,119.80328542889038 66.61985767880105,121.81875234434847 66.5027600164176,122.89421264817793 66.58326465933351,123.18212880009378 66.45884839302744,123.30068222062982 66.22465306826052,124.68097035041137 65.19272991843172,132.18324110718822 65.82944845769089,138.0 65.18541131453821,132.04776590490656 65.63916475631413,128.6184765407088 65.80749264598126,128.15275969939103 66.2100158604444,124.68097035041137 66.41493676963728,123.40229930404894 66.54667163980776,123.17366069215495 66.49544141252409,122.84340381227958 66.89796462698723,119.87950145102513" stroke="#4DD2FF" stroke-linecap="round" stroke-linejoin="round" stroke-width="0.5"><title>2025-08-05 5.0km</title><desc>1754406000000</desc></polyline><polyline fill="none" points="88.40395418612752,138.0 88.74377648916561,135.18485984429572 88.95230381150031,135.02399197068007 89.27667964625289,132.8433095404107 89.51609990521683,131.09157464955206 89.53154637356056,130.00119143232587 88.96775027984404,126.13111559839308 88.75149972335203,123.55692924583127 88.55841886930284,122.88655584544176 88.26493597123772,122.46645257547789 88.33444507868262,122.33237664112676 88.71288355253637,122.36813024363073 88.53524916686001,120.60724804225174 88.17225716132089,120.22288835373183 88.20315009797923,119.13237032075267 87.87105102906935,118.36363636363967 88.21087333210744,119.2485737060124 88.17225716132089,120.13350213875674 88.55069563517463,120.59830946392321 88.72060678669368,122.35919184436352 88.62020474261953,122.44857579602103 88.2494895029522,122.37706864196662 88.74377648916561,123.4228549747495 89.06042908973177,126.8104022051557 89.53154637356056,130.028004296546 89.52382313937414,131.13626219787693 88.62020474261953,137.3207998293583 88.57386533767567,137.472726638749 88.37306124949828,137.48166350170504 88.29582890786696,137.82126362152485 88.07957835137495,137.8033899637012" stroke="#4DD2FF" stroke-linecap="round" stroke-linejoin="round" stroke-width="0.5"><title>2025-08-03 5.0km</title><desc>1754221111000</desc></polyline><polyline fill="none" points="121.11688311687612,127.11941729258433 121.056509977323,127.36974694663695 120.90054603351746,127.38430092900126 117.83660920169496,127.32317415337275 117.75359613483306,127.27077967045079 117.63284985574137,127.32026335127557 117.2429399961984,127.317352548891 117.21023787894228,127.2853337030956 116.51343122673279,127.32608495516797 116.17131676930876,127.27369047757202 115.06699142517755,127.27077967045079 114.58903740378446,127.19509858149286 114.26453177873918,127.1106848233012 114.24440739888814,127.07866574651416 113.7941243998066,127.06411160886273 112.80551423977886,126.88946138031679 111.35152779580676,126.87781799388358 108.31777753375354,127.25622563040997 107.90774329435953,127.44542757420459 107.46752248518169,127.57932357934078 106.2852151691477,128.2982762096708 105.65884384638048,128.61554106596304 105.27396508179663,128.72614633676312 105.04756580851972,128.72905699601688 104.76079339568969,128.65920109229592 104.4564121504809,128.78435946567697 104.35327470375341,128.5806129970133 104.23001287720399,128.66211175834906 104.12939097796334,128.4729178496691 102.4163031434291,129.48581836975245 102.28549467441917,129.1569206899767 101.75722970342031,128.14691926053456 101.70691875379998,128.11199062025116 101.48051948052307,128.22259783505615 101.62893678188266,128.1090798983114 101.70188765884086,128.10034773070038 101.72452758616419,128.02757956377172 101.81508729548659,128.03340102392394 101.93583357457828,127.95190047409596 101.97105123930669,127.99265077799646 102.06161094861454,127.93443604040112 102.03142437884526,127.98974004392403" stroke="#4DD2FF" stroke-linecap="round" stroke-linejoin="round" stroke-width="0.5"><title>2025-08-02 8.3km</title><desc>1754134728000</desc></polyline><polyline fill="none" points="134.42097248262144,118.36363636363967 134.31529424374457,118.38809310501529 134.251887300401,119.0484223037347 134.78027849487262,119.0484223037347 134.78027849487262,119.57831217467174 133.01897451325203,131.23500413567672 133.0260197291791,132.4657867726055 133.7587221855356,138.0 133.06124580881442,132.62065212532616 133.01192929732497,131.42247555703943 134.0546212544432,123.97218720758246 134.31529424374457,122.96137270199688 134.24484208447393,122.73312250301387 134.57596723298775,120.32830416385696" stroke="#4DD2FF" stroke-linecap="round" stroke-linejoin="round" stroke-width="0.5"><title>2025-07-31 5.0km</title><desc>1753965181000</desc></polyline><polyline fill="none" points="156.1047216426232,138.0 156.18940745171858,137.28732326500176 156.4049713294662,137.02897651782405 157.1902397411759,131.62133708893816 157.2749255502713,129.62568241560803 156.8745926344709,127.20232636400033 156.45116358896485,123.20186038457177 156.04313196323346,122.41778328662622 156.12781777235796,122.30195312055002 156.46656100879773,122.3465032025415 156.3202855203126,120.57339244992909 155.9276513144723,120.1457020730304 155.97384357400006,119.15666008032713 155.66589517722605,118.3636363636324 155.98154228390194,119.17448075555876 155.95074744420708,120.16352254708181 156.3202855203126,120.6268536002317 156.49735584846349,122.3286831724763 156.3972726195061,122.41778328662622 156.0893242227612,122.2930431014247 156.05852938309545,122.42669329306955 156.52045197822736,123.45133798987081 156.7899068253755,126.445013855664 157.32111780976993,130.26714780170005 156.76681069561164,134.88199651011382 156.35877906993846,137.43876755592646 156.21250358145335,137.50112689381785" stroke="#4DD2FF" stroke-linecap="round" stroke-linejoin="round" stroke-width="0.5"><title>2025-07-29 5.0km</title><desc>1753797916000</desc></polyline><polyline fill="none" points="179.9331350987777,118.36363636363967 179.9189800398599,119.86232644442498 179.59341368384776,122.15535022805852 179.33862262262846,122.91694726832065 179.16876191517804,125.0133492695386 178.69456744013587,127.51913326120848 178.75118767595268,127.9613223517008 178.28407073038397,131.06476643322821 178.31238084833603,132.71060783132998 178.89273826550925,138.0 178.34776849570335,133.40660030627623 178.24868308304576,131.66251371126418 178.70164496963844,127.65015250379656 179.331545093155,123.64578070874995 179.26784732786473,123.44105287978891 179.57218109545647,122.19629648851696 179.9189800398599,119.4282824571128" stroke="#4DD2FF" stroke-linecap="round" stroke-linejoin="round" stroke-width="0.5"><title>2025-07-27 5.0km</title><desc>1753616848000</desc></polyline><polyline fill="none" points="21.469944159704028,140.1818181818162 21.490845523076132,141.9070464507313 21.10765386116691,144.63186328607117 20.954377196379937,144.92207495017647 20.738396441476652,147.29209714786703 20.34823765841429,149.45246388043597 20.37610614291043,149.8635717850484 19.86750630073948,153.2168430153106 20.501514323201263,159.8181818181838 20.919541590759763,159.75370253086294 20.619955382338958,156.52161115403578 20.27856644714484,154.256650751704 20.264632204925874,153.04757069929474 21.2260949202755,146.2683207328446 21.546582492097514,144.9140135294001 21.476911280857166,144.5996174800821 21.950675517407944,141.72968826525903" stroke="#4DD2FF" stroke-linecap="round" stroke-linejoin="round" stroke-width="0.5"><title>2025-07-26 5.2km</title><desc>1753529066000</desc></polyline><polyline fill="none" points="44.184241106238915,140.18181818182347 44.099522656266345,140.6066155572771 44.212480589572806,141.15394732809364 44.0783430437732,142.44465525767737 43.78182846889831,144.4541972471343 43.626511310605565,144.7401036117226 43.60533169811242,145.59781660610315 42.977003194188,149.36347683210624 43.02642228995683,149.72287987014715 42.5604708151659,153.1452965170247 42.62400965261622,154.9667142594044 43.18173944824957,159.8181818181838 43.58415208561928,159.77734577013325 43.26645789825125,156.81259330129978 43.33705660654232,156.6574104108513 42.934643969201716,154.3541344199548 42.92758409833186,153.2596468263655 44.45251619780902,142.58352766104508" stroke="#4DD2FF" stroke-linecap="round" stroke-linejoin="round" stroke-width="0.5"><title>2025-07-24 5.0km</title><desc>1753356656000</desc></polyline><polyline fill="none" points="65.75948615957168,159.78275709061563 65.85898236572393,159.8181818181838 66.1957387556904,157.01958397674025 66.41769183092401,156.87788042981265 66.36411695071729,156.60332915194158 66.93813352452707,153.05179756018333 66.9764012961532,151.98010997210076 66.4023847222852,148.19809884697315 66.16512453844189,145.3991277599489 65.70591127939406,144.43363902463898 65.77479326823959,144.291915006841 66.14981742977398,144.3627770445528 65.95082501752768,142.5823508760368 65.62172218185151,142.22803286898124 65.65233639912913,141.27136705066368 65.23139091164921,140.1818181818162 65.6140686275321,141.05877321968728 65.6064150732127,142.19260098902305 65.95847857184708,142.56463500990503 66.15747098412248,144.309630521675 66.05797477799933,144.40706578885874 65.7901003768493,144.30077276471275 65.70591127939406,144.40706578885874 65.97378568048589,144.78794806032238 66.16512453844189,145.4257006931075 66.50953448272776,148.95097129204805 66.95344063316588,151.829541238425 66.94578707887558,153.00751321017015 66.11154965820606,158.80857144015317" stroke="#4DD2FF" stroke-linecap="round" stroke-linejoin="round" stroke-width="0.5"><title>2025-07-22 5.0km</title><desc>1753184035000</desc></polyline><polyline fill="none" points="78.88311688310932,153.23860314654303 78.88311688310932,150.08763795541017 80.97080423438456,141.26478210883215 97.85384107427672,144.34580506253405 98.51948051946238,145.08104510433623 96.25025513791479,158.70020788372494 81.09182958805468,156.3195190265542 80.54721549642272,155.61931329104118 82.42310847865883,142.0000287258299 83.0887479238445,141.579887993983 87.11284093430731,142.24511058285134 98.48922418116126,144.76594242147985 96.49230584525503,158.42012769548455 95.85692273837049,158.73521789119695 80.78926620376296,156.1794779933116 80.97080423438456,151.69813487568172 82.45336481707636,142.07005213137018 82.93746623175684,141.6499114848848 90.38052548386622,142.91033188733854 82.78618453978561,141.71993496155483 81.93900706397835,145.57120426060283 82.6954155244166,146.30644168730942" stroke="#4DD2FF" stroke-linecap="round" stroke-linejoin="round" stroke-width="0.5"><title>2025-07-20 4.9km</title><desc>1753020627000</desc></polyline><polyline fill="none" points="112.42734177751117,140.18181818182347 112.2792077146878,141.1857885859572 111.72899548124406,142.5978558059578 111.26343128373264,144.71999107555894 111.13645922983414,146.3931735942242 110.69911104429048,149.19261569580704 110.60035500241793,149.28239210837637 110.64973302336875,149.68230400022003 110.1912228288129,152.98762200633792 110.17006081985892,154.08120346599753 110.79786708619213,159.8100214001024 110.72732705628732,158.68387575823726 110.80492108920589,159.8181818181838 111.20699925979716,159.73657760001515 110.52981497248402,153.34671009662998 111.60907743038842,145.46272517723264 111.83480552613037,144.7526388726401 111.86302153809811,143.79768532628077" stroke="#4DD2FF" stroke-linecap="round" stroke-linejoin="round" stroke-width="0.5"><title>2025-07-20 5.0km</title><desc>1752942252000</desc></polyline><polyline fill="none" points="134.74280860970612,140.1906050237376 134.62130838178564,140.18181818182347 134.43146427557804,141.14836543944693 134.6440896745189,141.280166501223 134.62890214601066,141.5613414283871 134.36312039737822,143.3538101000231 134.21883887666627,143.66133775620256 133.8467444285343,147.16707575585315 133.5354000943771,148.599203534337 133.5657751513936,149.02092989484663 133.0266178897873,153.0535843943435 133.755619257543,159.8181818181838 133.07977423953707,154.17812555185083 133.06458671105793,152.4737371485826 133.5657751513936,149.0736455453589 133.54299385860213,148.6079895211442 134.09733864868758,145.269250268233 134.21124511238304,143.65255126691773 134.36312039737822,143.33623705807258 134.7655899024685,140.4629966800203" stroke="#4DD2FF" stroke-linecap="round" stroke-linejoin="round" stroke-width="0.5"><title>2025-07-17 5.0km</title><desc>1752765839000</desc></polyline><polyline fill="none" points="164.91856791859027,159.4038220877701 165.3608283608919,158.78971711733902 166.31168831163086,150.78062765880895 152.09301509300712,150.14091304148315 149.52790452796035,150.3456218959036 149.8374868374085,150.14091304148315 149.37311337306164,147.24938269479026 146.74166374164633,143.10394497564994 146.6753246752778,140.7753049594612 146.98490698484238,140.5961779122299 159.34608634607866,140.80089452718676 158.46156546159182,148.86147893090674 157.90873990871478,149.2197211371822 150.19129519117996,148.96383389900438 149.3510003509,146.27700219659891 147.18392418383155,143.5133739609737 146.91856791847385,142.05478016176494 149.9922779921908,141.82447510522616 158.9480519479839,142.13154846716498 159.08073008072097,144.05074849372613 158.28466128464788,150.29444469790906 157.09055809048004,150.3712104909646" stroke="#4DD2FF" stroke-linecap="round" stroke-linejoin="round" stroke-width="0.5"><title>2025-07-15 4.1km</title><desc>1752589649000</desc></polyline><polyline fill="none" points="179.88003658663365,140.1818181818162 179.93987563846167,141.57529241478915 179.47612298693275,144.483339129074 179.31156559442752,144.82087383572798 179.3040857129672,145.6776867004737 178.6458561430627,149.69334125771275 178.67577566899126,150.14335971655964 178.17462361004436,153.87322892226075 178.77301412814995,159.8181818181838 178.42893958024797,157.4644800418755 178.16714372858405,153.68284512084938 179.28912595004658,145.6171042557762 179.22180701672914,145.34015538847598 179.4462034610042,144.54392238002038 179.88751646815217,141.66184285747295 179.83515729778446,141.35891592333792 180.01467445323942,140.4414734937236 179.8501170607633,140.2337493075247" stroke="#4DD2FF" stroke-linecap="round" stroke-linejoin="round" stroke-width="0.5"><title>2025-07-13 5.0km</title><desc>1752418082000</desc></polyline><polyline fill="none" points="20.73855872466811,181.63636363636033 20.63778970661224,181.62739416160184 20.69980141002452,180.91880277700693 21.040865778923035,178.76608519825822 21.242403815092985,178.58668969672 21.59121964685619,176.14687467394106 21.777254757122137,173.6262596418601 21.265658203832572,170.1188071873621 21.002108464279445,167.1853575356945 20.847079205675982,166.61121530464152 20.521517762652365,166.0908956804269 20.59128092904575,165.95632976096385 20.96335114960675,166.01015615339566 20.800570428109495,164.30563778064243 20.42850020751939,163.83913227539597 20.451754596317187,162.77154308658646 20.18820485676406,162.03588587456034 20.025424135208596,162.03588587456034 20.16495046793716,161.99999999999272 20.42850020751939,162.654914913408 20.420748744596494,163.84810355839 20.7618131134368,164.16209788792912 20.800570428109495,164.34152271732455 20.96335114960675,165.98324296127976 20.583529466122855,165.96530082864774 20.498263373883674,166.06398251299106 20.83932774278219,166.55738927893253 20.994357001356548,167.10461901021336 21.312166981428163,170.59425008726248 21.792757682997035,173.56346760099404 21.785006220074138,174.711657858752 20.83932774278219,181.16994974132103" stroke="#4DD2FF" stroke-linecap="round" stroke-linejoin="round" stroke-width="0.5"><title>2025-07-12 5.1km</title><desc>1752325602000</desc></polyline><polyline fill="none" points="43.388183519622544,181.63636363636033 43.19736096003908,181.62753136183892 43.62480349346879,178.68633403154672 43.80036024824949,178.59800824803824 44.28886600071564,175.32105823651364 44.36519502455485,173.66928726759215 43.91485378399375,170.7101538153438 43.57137317676097,167.11489190032444 43.11339903381304,166.18734318493807 43.17446225284948,166.09017084166408 43.55610737201641,166.15200779995212 43.38055061720661,164.35871813884296 43.03707000997383,163.97885400122323 43.02180420522927,162.78624649600533 42.640159086091444,161.99999999999272 43.04470291236066,162.88342253505107 43.03707000997383,163.97001993176673 43.388183519622544,164.36755216879828 43.5790060791478,166.1255062517739 43.212626764783636,166.08133698687743 43.128664838615805,166.22267855551763 43.586638981534634,167.18556187264767 43.922486686351476,170.6924870443545 44.37282792691258,173.60745565911202 44.296498903102474,175.27689364588878 43.56374027437414,180.15252892537683" stroke="#4DD2FF" stroke-linecap="round" stroke-linejoin="round" stroke-width="0.5"><title>2025-07-10 5.0km</title><desc>1752149320000</desc></polyline><polyline fill="none" points="63.35011351888534,162.0 63.396105712337885,163.224032832004 63.72954911511624,163.05107236516778 64.44242811418371,163.2905560276413 65.21279735502321,163.224032832004 66.07515098294243,163.5433438628388 70.52489570272155,164.12874539702898 70.65137423475971,164.30170444036776 69.62804792972747,170.83406721212668 69.13363184971968,170.87397881411016 69.04164746275637,171.04692894872278 68.86917673720745,172.20435858612473 68.99565526924562,172.70989935606485 68.21378798002843,177.1133430115442 62.487759891024325,176.94040088757174 62.29229306866182,176.8073683291732 61.55641797295539,181.6363636363676 62.32678721379489,176.88718788042024 64.55740859784419,176.92709763777384 65.30478174198652,176.6344258011959 65.40826417738572,176.94040088757174 68.2482821251615,177.03352359810378 70.22594644501805,164.64762184169376 70.16845620318782,164.1952681330731 64.24696129182121,163.1575096025481" stroke="#4DD2FF" stroke-linecap="round" stroke-linejoin="round" stroke-width="0.5"><title>2025-07-08 5.1km</title><desc>1751976330000</desc></polyline><polyline fill="none" points="79.0580145426211,181.4575665651937 79.01587346114684,181.6363636363676 79.28276697755791,181.52258370508207 79.36704914062284,180.6123413413443 79.85869509191252,180.20598147086275 79.95702428219374,179.7833661104669 81.37577402725583,169.94911645364482 81.50219727185322,166.9743399980216 81.16506861959351,164.77979730836523 81.93765511445235,164.7472853384097 82.13431349495659,165.03989282989642 84.84538974059979,165.43003531899012 87.02267895342084,165.3975234812824 88.60999302461278,166.031503124992 93.66692280909047,166.77927075621847 94.59402660297928,162.0 98.38672394142486,162.8453235928173 95.00139039114583,162.04876879032236 94.36927416810067,164.86107720425935 94.27094497781945,166.81178231304511 84.80324865900911,165.54382669906772 82.13431349495659,165.0561487859668 81.8955140329781,164.69851737108547 81.12292753806105,164.8285652508639 81.43196213600459,166.12903823168017 81.48815024475334,168.94127489051607 79.90083617338678,179.83212947830907" stroke="#4DD2FF" stroke-linecap="round" stroke-linejoin="round" stroke-width="0.5"><title>2025-07-06 5.0km</title><desc>1751807521000</desc></polyline><polyline fill="none" points="104.46932048385497,180.4192233338108 105.32009272580035,174.36919526579732 102.56668437906774,174.17229736965965 101.70044355094433,174.47659402547288 102.82965034479275,174.36919526579732 102.6749644826632,174.19019718747586 105.52118434658041,174.351295466171 105.72227596747689,174.17229736965965 105.62946445017587,173.61740211451252 106.78960841638036,166.2962010204792 106.68132831290131,162.64443683478748 108.67677593498956,162.44752582992078 120.89695904654218,164.4524275874137 120.88149046030594,163.86169997719117 107.43928903754568,162.0 107.65584924462019,166.42150531054358 106.2482078988105,176.37396131490823 106.6349225542508,176.9825464935857 106.27914507122478,177.64482797533856 106.35648800228955,179.07677942339797 105.81508748466149,179.20207462125109 105.56759010523092,181.6363636363676 104.31463462166721,181.49317109612457 104.3919775527902,180.43712251682882" stroke="#4DD2FF" stroke-linecap="round" stroke-linejoin="round" stroke-width="0.5"><title>2025-07-05 4.8km</title><desc>1751729502000</desc></polyline><polyline fill="none" points="137.05658716126345,181.63636363636033 137.25092108373065,181.49434034393198 137.28160538722295,180.68953841560142 137.54753601795528,179.517831548721 137.69072943448555,179.47048960938992 137.87483525578864,177.75433131522732 133.87564769375604,177.58863193433353 134.13135022332426,176.70095266506542 134.50978996703634,172.70039413136692 134.55070237175096,169.77682213139633 134.4075089552207,169.38621788445016 134.56093047291506,166.9952178737949 134.55070237175096,161.99999999999272 129.1809492514003,163.9294579003763 129.06844013836235,164.2017101217425 129.10935254319338,163.96496909578127 132.00390517752385,162.86411700113968 132.05504568346078,165.30254956868885 132.3414325165213,165.91806816326425 134.47910566348583,165.91806816326425 134.48933376464993,169.04295852515497 134.71435199066764,169.14948740012187 134.79617680009687,169.52825594404567 138.53966183256125,169.76498565832298 138.72376765386434,170.70006332454068 138.70331145147793,172.4044893728933 137.41457070264732,181.19845792848355" stroke="#4DD2FF" stroke-linecap="round" stroke-linejoin="round" stroke-width="0.5"><title>2025-07-03 5.2km</title><desc>1751545471000</desc></polyline><polyline fill="none" points="156.1494069332548,181.63636363636033 156.6158530038083,178.76065210739034 156.80701942613814,178.62792466697283 157.29640546737937,174.99996294327866 157.33463875181042,173.74341412174545 156.50115315036965,167.07101298483758 156.09588033502223,166.23028955481277 156.17999356082873,166.11524255899712 156.52409312105738,166.17719096024666 156.36351332627237,164.46031894465705 155.9888271384989,163.98242070808192 155.9964737953851,162.89386492776248 155.63708092141314,161.99999999999272 156.02706042298814,162.9735158124313 155.9888271384989,164.00012068957585 156.33292669869843,164.33641965384595 156.3864532969601,164.61076784638863 156.52409312105738,166.16834119133273 156.1494069332548,166.14179187920672 156.09588033502223,166.2568388399377 156.50879980728496,167.07101298483758 156.90642596574617,170.85859257431002 157.34993206558283,173.7168671200343 157.21993889840087,175.69902098525927 156.3788066400739,181.33552441679785" stroke="#4DD2FF" stroke-linecap="round" stroke-linejoin="round" stroke-width="0.5"><title>2025-07-01 5.0km</title><desc>1751376396000</desc></polyline><polyline fill="none" points="178.40083271544427,181.63636363636033 178.5426292309421,181.46134780622378 178.51426992786583,180.81597447353852 178.74114435265074,180.59720297417516 178.90184707019944,179.74398987837048 179.1476276970934,176.73581282880332 179.48793933429988,175.56533576596848 179.86606337566627,172.49140548596915 179.77153236535378,170.7301460821909 179.2421587074059,167.59043826111156 178.8829408682068,163.78328289245837 178.3157548061572,162.3719755582788 178.81676916091237,162.47043946140911 178.83567536296323,162.0 178.83567536296323,162.4485586018127 178.40083271544427,162.36103511904366 178.32520790718263,162.47043946140911 178.68442574643996,163.00651913082402 178.90184707019944,163.76140229987504 179.2988773136749,168.0061539659 179.86606337566627,171.7803414942391 179.81879787048092,173.54158371138328 178.62770714022918,181.2644546572701" stroke="#4DD2FF" stroke-linecap="round" stroke-linejoin="round" stroke-width="0.5"><title>2025-06-30 4.1km</title><desc>1751292736000</desc></polyline><polyline fill="none" points="11.311371555260848,194.8468388659021 11.090909090911737,193.25342535303207 11.166930630337447,193.08615924635524 17.08140639847261,192.80444717664068 18.02407348746783,192.89248229713849 19.559708584100008,192.74282253893762 21.863161229004618,192.76923310334678 30.72727272726479,192.2058059777628 28.08172315490083,192.39068090846558 27.465948685479816,192.59316252140707 26.32562559391954,192.54034127682098 20.55559075070778,192.83966123562277 15.188470066495938,192.9364998237288 15.028824833687395,193.0773557581051 15.40133037691703,195.06692129496514 15.226480836223345,195.04931472128374 15.013620525802253,194.01052052153682" stroke="#4DD2FF" stroke-linecap="round" stroke-linejoin="round" stroke-width="0.5"><title>2025-06-26 5.0km</title><desc>1750950176000</desc></polyline><polyline fill="none" points="53.324675324663986,194.4400263329735 53.00761886124383,192.83270093974716 44.55982553504873,193.60781112269615 43.657976039045025,193.61597013732535 40.40286301425658,193.20801838657644 33.68831168831093,193.49358483039396 40.17740064027021,193.1998593303506 43.66502173821209,193.6241291511542 49.67500314541394,193.07747338723857" stroke="#4DD2FF" stroke-linecap="round" stroke-linejoin="round" stroke-width="0.5"><title>2025-06-24 5.0km</title><desc>1750769966000</desc></polyline><polyline fill="none" points="75.92207792206318,194.42273320027743 75.65328043710906,192.8499940724505 67.29226393203135,193.64455883254413 66.27366293646628,193.6773242210329 62.977356936986325,193.2513731289655 56.28571428571013,193.54626258698408 62.800516486371635,193.2513731289655 66.26658931843122,193.6773242210329 73.34728096108302,193.04658814652066" stroke="#4DD2FF" stroke-linecap="round" stroke-linejoin="round" stroke-width="0.5"><title>2025-06-22 5.0km</title><desc>1750563938000</desc></polyline><polyline fill="none" points="89.37234641695977,203.45454545454413 88.35747566676582,197.39138065227235 88.34324850671692,195.73817112885445 88.4333538536739,195.04611486690192 88.3764452135074,193.26650078852254 88.39541476021986,192.9589072097515 88.49974726725486,192.783138661689 88.39541476021986,192.70074695729636 88.3906723735272,191.57471436374908 87.23827240956598,184.64222912376135 86.94898682186613,183.81818181818016 87.24301479620044,184.53785049613361 88.3764452135074,191.45936335390434 88.43809624036658,194.8319051741746 88.35747566676582,195.74366360330168 88.35273328007315,197.33645756265832 89.1304846961284,201.9937366177728 89.23955958982697,202.31226222158875 90.45361058073468,202.24636052702044" stroke="#4DD2FF" stroke-linecap="round" stroke-linejoin="round" stroke-width="0.5"><title>2025-06-21 8.0km</title><desc>1750517001000</desc></polyline><polyline fill="none" points="113.29086709261173,203.45454545454413 111.62750536185922,193.22604571201373 108.7005044866819,193.16631514891924 103.42674520064611,192.65860437924857 103.52989941649139,192.12102635212068 103.32359098474262,191.09066295213415 103.60726507840445,184.35579032005626 103.56858224741882,183.87791619363998 103.31069670780562,183.81818181817653 102.98833978315815,192.10609360100352 103.47832230856875,192.16582459639176 103.50411086250097,192.67353707410803 111.66618819278665,193.21111307354295 112.65904752042843,199.60214325538254 112.96851016808068,200.4532640871039 119.60906281427015,200.24421732340124" stroke="#4DD2FF" stroke-linecap="round" stroke-linejoin="round" stroke-width="0.5"><title>2025-06-19 5.0km</title><desc>1750345525000</desc></polyline><polyline fill="none" points="143.71428571428987,194.12794774734357 143.53404856016277,193.0568995963913 137.975155279506,193.5841875000806 137.258949745883,193.60066516391453 134.87792207792518,193.32603677518637 126.05578769056592,193.72699375280354 125.2921513269248,193.85332204555016 124.07792207790771,194.21582767633663 125.79017504231888,193.7544564503296 128.89215132693062,193.61714282274625" stroke="#4DD2FF" stroke-linecap="round" stroke-linejoin="round" stroke-width="0.5"><title>2025-06-17 5.1km</title><desc>1750166247000</desc></polyline><polyline fill="none" points="147.35244066274026,201.0463915895525 146.67532467533601,196.69458884483902 161.9781459919177,196.24372076922737 159.48974473809358,186.42237562217633 162.50291088223457,186.59881139648496 166.31168831168907,186.2263356831827 160.30228392302524,186.57920742954593 162.51983878196916,195.42039372991712 155.9518137035193,195.73404254147317" stroke="#4DD2FF" stroke-linecap="round" stroke-linejoin="round" stroke-width="0.5"><title>2025-06-16 3.2km</title><desc>1750084948000</desc></polyline><polyline fill="none" points="188.90909090908826,194.54409655313793 188.6082111437281,192.72863071959 178.95630498533137,193.61803017521015 178.08533724342124,193.6271991959875 174.2689149560174,193.15957794563292 169.2727272727352,193.39797339658253 174.11055718475836,193.15040887720534 178.07741935487138,193.60886115352332 186.26451612907113,192.921181862941" stroke="#4DD2FF" stroke-linecap="round" stroke-linejoin="round" stroke-width="0.5"><title>2025-06-15 4.6km</title><desc>1749956754000</desc></polyline><polyline fill="none" points="30.72727272726479,216.2442695138161 30.488233570940793,214.66482139526488 22.07967971879407,215.4382663862052 21.20085929110064,215.45454935816815 17.50278293134761,215.0393325365876 11.090909090911737,215.33242698763934 17.629333072924055,215.0393325365876 21.144614783726865,215.45454935816815 22.979591836745385,215.36499297137198 23.324089444358833,215.2510119702274 27.781466653657844,214.85207718540187" stroke="#4DD2FF" stroke-linecap="round" stroke-linejoin="round" stroke-width="0.5"><title>2025-06-14 5.1km</title><desc>1749906363000</desc></polyline><polyline fill="none" points="53.32467532469309,216.62045664162724 53.08859457375365,215.02839227797813 44.95075221807929,215.81638774621388 43.85367108139326,215.82442847575294 40.52076636237325,215.42239099591825 34.24379580817185,215.7198989280805 34.16047319021891,215.5349616967942 34.195190947677474,214.29667515269102 33.68831168831093,214.28863426746102 34.21602160218754,214.31275692069175 34.16047319021891,215.52692093776568 34.264626462652814,215.7198989280805 40.6943551498116,215.4143502254301 44.00642921437975,215.83246920446254 50.60280313750263,215.23745306725323 50.595859585970175,214.91582085427217 52.71364279286354,214.80324926997127" stroke="#4DD2FF" stroke-linecap="round" stroke-linejoin="round" stroke-width="0.5"><title>2025-06-12 5.9km</title><desc>1749735885000</desc></polyline><polyline fill="none" points="75.92207792209229,221.6319669145014 75.29610929614864,218.4803150758089 58.09558009554166,220.00887424060784 56.47622647625394,215.58073864293692 56.28571428573923,210.04933060398616 59.49720549717313,209.9074970261281 62.23241623234935,210.0808491591597 62.38210438215174,209.57655150510254 62.09633609635057,209.46623617399018 56.3673623673385,209.27712399458687 56.489834489824716,215.42315140916617 56.96611496608239,217.21963635200518 57.905067905026954,219.4573340165516 65.52555552555714,218.7954831506213 65.67524367524311,219.39430072279356 75.2552852553199,218.46455665517715 75.84042984049302,221.58469261147548" stroke="#4DD2FF" stroke-linecap="round" stroke-linejoin="round" stroke-width="0.5"><title>2025-06-10 5.3km</title><desc>1749559786000</desc></polyline><polyline fill="none" points="79.39870032446925,210.22644590960408 78.92730974958977,208.31588496959012 78.88311688310932,206.83177347500168 92.24409349099733,206.49059655838937 92.8480626650271,208.72529272123938 92.40613400109578,208.70823408495926 92.27355540188728,209.01528927273466 92.55344355572015,210.60173210309586 92.47978877840796,211.6764106387418 92.96591030876152,213.82574701079284 94.21804152341792,213.77457265599514 96.0741419121623,220.92177272195113 96.10360382311046,221.24586286750855 95.63221324817277,221.38232168849208 96.05941095668823,221.26292022624693 96.2067205113126,221.53583772908314 95.82371566916117,221.6040670353541 95.95629426836967,222.23518679953122 96.84015159634873,224.48672981746495 97.458851725969,224.41850168602832 98.51948051946238,223.8385614463623 97.39992790407268,224.07736061188916 95.4112489161198,216.14563466473192 95.17555362870917,215.46331810396805 94.64523923193337,215.46331810396805 94.24750343430787,213.72339828551048 93.82030572579242,213.89397945953533 92.95117935334565,213.77457265599514 92.46505782293389,211.81287726062874 92.36194113467354,209.28822674458206 91.55173858400667,206.42236109162332 78.92730974958977,206.8658911284001 79.45762414630735,210.32879677305755" stroke="#4DD2FF" stroke-linecap="round" stroke-linejoin="round" stroke-width="0.5"><title>2025-06-08 5.0km</title><desc>1749355299000</desc></polyline><polyline fill="none" points="121.11688311686157,216.26257787446957 120.77151993731968,214.6465130346187 114.44221105522593,215.1770429666285 112.53918945373152,215.44638758699148 111.48195523067261,215.44638758699148 108.13404685765272,215.03828932381293 101.48051948050852,215.332120282932 107.81687659071758,215.03828932381293 111.44671408992144,215.45454953103035 119.0799451804487,214.76894333086966" stroke="#4DD2FF" stroke-linecap="round" stroke-linejoin="round" stroke-width="0.5"><title>2025-06-07 5.3km</title><desc>1749293029000</desc></polyline><polyline fill="none" points="143.71428571426077,216.2324432083551 143.42437181112473,214.67664770074043 134.46532509618555,215.4954911970417 130.8307947003923,215.0778820567284 124.07792207790771,215.35628839146375 130.80251041718293,215.06150518346112 134.0339897768863,215.4954911970417 140.95656809880165,214.86498244389804" stroke="#4DD2FF" stroke-linecap="round" stroke-linejoin="round" stroke-width="0.5"><title>2025-06-05 5.1km</title><desc>1749128617000</desc></polyline><polyline fill="none" points="146.95019940688508,215.33025498282223 146.67532467533601,213.5298217109157 146.77840269965236,213.45024378327798 154.4834850189509,213.1816677984898 155.9351671950135,218.50331344066217 163.5457613253093,218.4038460895681 166.31168831171817,218.2347513600762 164.03538194095017,218.31432538689842 163.61448000822566,212.4057774684261 156.33029962165165,212.8335126440943 154.76694958587177,212.78377609205927 154.9043869516463,213.1816677984898 150.86716433175025,213.30103499409597" stroke="#4DD2FF" stroke-linecap="round" stroke-linejoin="round" stroke-width="0.5"><title>2025-06-03 5.2km</title><desc>1748952979000</desc></polyline><polyline fill="none" points="185.51136281553772,209.60074638162405 185.08060625990038,208.96317963854744 184.77525984073873,208.2940431342031 184.57896571414312,208.11097622862144 184.0936830122373,208.06678758422277 183.72290521752439,207.63752482813288 183.55387416406302,207.0756911418066 183.30305389114073,206.69061118001628 183.00316008660593,205.63636363636397 182.1361943607335,206.0088243975406 181.7327008782304,206.0530145088378 180.6857988696138,206.44441126239326 180.238684470125,207.01887621589412 180.238684470125,207.16406981195178 178.42841641357518,209.46818353926938 178.41751118432148,209.60074638162405 177.92132325316197,210.28249366549062 177.49056669755373,210.68017611942196 177.41423009274877,210.61073968429264 177.108883673558,210.8758602001326 176.90713693230646,210.7559248690959 176.9016843177087,210.86954782008252 176.87442124454537,210.70542571294573 177.15795720519964,210.90742209081145 177.11433628818486,211.1346672293621 176.46002253281767,211.86058362038966 175.34223653405206,212.11307428616055 175.34223653405206,211.9994536138147 175.2658999292471,212.13832329619618 174.96055351005634,212.20775802078424 174.69337539328262,212.1320110446468 174.24626099379384,212.169884544277 174.16992438895977,212.10044977729194 173.9899881062738,212.201445776318 173.45017925807042,212.01207814323425 173.3792952678923,211.18516603592434 173.172095912043,211.00210766641248 172.15245697658975,211.26091416869895 171.77077395262313,211.4944703288529 172.20698312285822,213.38182431915993 172.8940125659865,215.49003811648072 174.3444080570771,221.15787439296764 174.54615479832864,221.7448256175776 176.25827579156612,225.20961809289656 176.47638037669822,225.27272727272793 177.22884119540686,225.03291204790366 177.7413869704469,225.18437440300113 178.67923668646836,224.98873545803508 178.6628788425587,224.61638866495923 178.913699115481,224.54696782930114 179.36626612962573,224.7552301033029 179.7097808512044,224.59114473371665 179.85154883153155,224.79940685943075 180.73487240128452,224.99504640135638 181.25287079098052,224.9003821839142 181.77632179527427,224.5091018861931 181.86901624393067,223.77071137667735 182.2616044971801,223.22795719342685 182.1580048192409,222.68519826205375 182.28341495568748,222.42012822101606 182.01623683888465,222.12350087991945 181.8472057854524,221.68171284912387 181.781774409872,221.025336251103 182.1361943607335,220.74132499358166 182.6760032089078,220.96222275069158 182.9758970134717,220.94328868803495 183.05223361824756,220.5330492449939 182.92682348180097,220.028135436929 182.82322380386177,219.98395528319088 182.92682348180097,219.9334636404019 182.80686595998122,219.89559488132727 182.90501302326447,219.95239801126445 182.91591825254727,219.6557588703945 182.77415027222014,219.32756072113625 182.13074174607755,219.28338006843478 181.83084794154274,219.0561647860668 181.95625807796023,218.19778843029053 182.46880385302939,217.32046502712546 182.8613921062497,216.88495455613156 183.04132838899386,216.82183684286792 183.42846402761643,216.28533368667195 184.11004085611785,215.63521187826336 184.7152810798434,214.87777981720137 184.5407974117261,214.5243083562491 184.0009885635518,214.51799634757117 183.93010457337368,214.30969970062142 184.13730392925208,213.81104730971856 184.37721897289157,213.5838119788932 184.6007761726505,213.61537249129833 184.69347062130691,213.50175457148362 184.50262910936726,213.06621728369646 184.75890199685819,212.529681637061 184.99881704052677,212.39081283107225 185.20056378174922,212.47287170855634 185.173300708615,212.32137831148066 185.77854093231144,212.04363945556906 185.83306707860902,211.87320817810178 186.3619706975296,211.5512811536937 186.41104422920034,211.09048073987287 185.71856217138702,209.77118390535907 185.60950987882097,209.7206839471619" stroke="#4DD2FF" stroke-linecap="round" stroke-linejoin="round" stroke-width="0.5"><title>2025-06-02 11.5km</title><desc>1748829019000</desc></polyline><polyline fill="none" points="30.727272727293894,238.1910037909547 30.367572477494832,236.35445075449388 19.99349027327844,237.32006564088806 15.693437287089182,236.82779263940756 11.090909090911737,237.02659551174293 15.750662326841848,236.8088590103216 19.519339943974046,237.30113211214484 30.351222466124455,236.363917615854 30.719097721623257,238.13420372573455" stroke="#4DD2FF" stroke-linecap="round" stroke-linejoin="round" stroke-width="0.5"><title>2025-06-01 4.9km</title><desc>1748740054000</desc></polyline><polyline fill="none" points="53.324675324663986,246.7353890965751 53.253572016372345,246.88634165430267 53.111365399789065,246.77655799276545 52.63734334462788,244.14172326189873 37.658246400533244,245.44542397395708 36.271731889108196,241.56173095974373 36.2124791322276,236.67607816614327 35.88066369359149,234.83705056644976 33.68831168831093,227.65911289113865 35.13407895661658,232.4627464346413 35.525147152191494,233.20386320276884 36.16507692669984,235.9624286476901 36.805006701208185,236.1408413819736 36.14137582393596,236.1271173339046 36.271731889108196,241.1088548698317 36.7220528415055,242.9615201522538 37.50418923259713,244.89649889686552 37.705648606061004,245.02000723432866 44.12864745390834,244.36129479209194 44.30640572460834,244.8827757412946 49.41399336932227,244.3887412082113" stroke="#4DD2FF" stroke-linecap="round" stroke-linejoin="round" stroke-width="0.5"><title>2025-05-31 5.5km</title><desc>1748696141000</desc></polyline><polyline fill="none" points="74.54498229047749,242.69188813846267 74.09870129876072,239.81257658210234 57.943329397938214,241.25962236321357 56.451475796988234,237.00703848303237 56.28571428573923,231.8830997205805 61.768595041299704,231.9421663297544 56.362219598609954,231.85356640700775 56.464226682437584,236.9332077993604 56.85950413229875,238.5131762171659 57.85407319950173,240.78711920753994 72.16056670603575,239.41389816405717 73.43565525388112,239.34006870693702 73.4994096813025,239.8864057983883 75.92207792209229,239.69444975779334" stroke="#4DD2FF" stroke-linecap="round" stroke-linejoin="round" stroke-width="0.5"><title>2025-05-29 5.0km</title><desc>1748526381000</desc></polyline><polyline fill="none" points="90.78630086232442,235.3449386304419 90.350628768967,231.7773015302664 97.72593492089072,231.41693014297925 98.51948051946238,234.31789896595 97.66369605035288,231.48900447916822 90.31950933375629,231.83135717497498 90.52178566280054,233.61518417893967 90.2417107457295,231.8493757195247 79.75446106982417,232.82237439925666 81.32599254942033,240.69625930041366 81.9328215366113,242.5340492385003 81.52826887846459,242.78629342550994 82.16621730086626,244.4799236474937 81.31043283181498,242.2457697270147 79.19431123544928,232.8584112846147 82.86640459380578,232.33587572879333 89.51040401752107,231.9214498794754 89.43260542943608,231.39891155430814 79.67666248173919,232.06559811117768 79.13207236496964,230.06553089796216 78.88311688310932,230.28175547136925 79.00759462406859,232.20974622531503 86.36734105827054,231.48900447916822" stroke="#4DD2FF" stroke-linecap="round" stroke-linejoin="round" stroke-width="0.5"><title>2025-05-27 6.0km</title><desc>1748352132000</desc></polyline><polyline fill="none" points="118.50019229060854,238.73602920842677 118.578469366621,238.68423208182503 118.326864479488,237.4281388317395 111.7124515575415,238.06266326837067 110.94645445671631,238.0756126806773 108.18998313759221,237.75187658108916 101.60352631422575,238.04323914496854 101.48051948050852,235.89359945544857 102.26329024051665,235.8094253370291 103.34239564536256,235.88712452722757 103.3479868650611,237.75187658108916 108.35212850931566,237.55115937083247 111.39375203382224,237.84899758418396 118.3156820400618,237.16267264617272 120.999467502872,237.06555059378297 121.11688311689068,237.27921891301594 121.03860604087822,237.30511805439528 118.56169570749626,237.40871451429484" stroke="#4DD2FF" stroke-linecap="round" stroke-linejoin="round" stroke-width="0.5"><title>2025-05-25 7.6km</title><desc>1748179850000</desc></polyline><polyline fill="none" points="143.7014178481768,238.3567923611772 143.64994638386997,237.93211213294126 143.39902299531968,237.93211213294126 143.23817466932815,237.13489872627542 143.10949600851745,236.95608331049152 136.90075062550022,237.48507764849637 135.8841892052733,237.67134234923287 131.80507565825246,237.2913618562743 124.18729893959244,237.63408944706316 124.07792207790771,236.33767662550235 125.96949839149602,236.18866218428593 125.95663052541204,237.27646062023996 126.20755391396233,237.30626308928186 131.55415226973128,237.07529363629874 135.42737995943753,237.41057163531514 143.46979625878157,236.6357045966579 143.71428571426077,238.27483671977097" stroke="#4DD2FF" stroke-linecap="round" stroke-linejoin="round" stroke-width="0.5"><title>2025-05-24 6.6km</title><desc>1748094255000</desc></polyline><polyline fill="none" points="166.31168831171817,238.14766342965595 166.09807758725947,236.3977911158072 158.0125160899188,237.08491781392513 156.88908190923394,237.2773123481602 155.6074175623362,237.29563561562827 151.91274317950592,236.84671448670997 146.67532467533601,237.0574328468283 151.88900865454343,236.83755280767946 155.55994851244031,237.30479724799807 163.9382358173898,236.59934882497328" stroke="#4DD2FF" stroke-linecap="round" stroke-linejoin="round" stroke-width="0.5"><title>2025-05-18 4.7km</title><desc>1747565909000</desc></polyline><polyline fill="none" points="186.35686958330916,237.97580017565633 186.14324753405526,236.71938433101968 180.4485334304918,237.2011218248881 179.4984774744371,237.37038008180025 178.73393540325924,237.36387015712899 176.13111938160728,237.02535316027206 169.3120787028456,237.33783045185191 169.2727272727352,237.1425323237454 173.11230252712267,236.89515383761318 175.71511854877463,236.8495840119831 178.75642193478416,237.33783045185191 186.21632876142394,236.67381437997392 188.72919865703443,236.56965436979954 188.83038804883836,236.58267438036273 188.84725294745294,236.67381437997392 188.90909090908826,236.63475439606918" stroke="#4DD2FF" stroke-linecap="round" stroke-linejoin="round" stroke-width="0.5"><title>2025-05-17 5.7km</title><desc>1747487200000</desc></polyline><polyline fill="none" points="29.65420459076995,258.2791209037241 27.053776697983267,258.41517610446317 25.784893208096037,258.6419343101079 19.95742829167284,259.086378717162 16.30743010478909,258.6147233559459 11.090909090911737,258.8233404586208 16.23693657759577,258.6328639929852 19.816441237257095,259.07730844531034 30.21815280849114,258.1702765933878 30.56278783045127,259.9299099572454 30.72727272726479,260.01154158843565" stroke="#4DD2FF" stroke-linecap="round" stroke-linejoin="round" stroke-width="0.5"><title>2025-05-11 5.0km</title><desc>1746965499000</desc></polyline><polyline fill="none" points="53.32467532469309,259.79641172399715 53.00773258303525,258.38540645781904 44.09811995748896,259.1928633833886 40.477929531014524,258.776901742247 33.68831168831093,259.0623658463446 40.308893402136164,258.7850578736252 43.68961597941234,259.1928633833886 53.06407795936684,258.4017187995705" stroke="#4DD2FF" stroke-linecap="round" stroke-linejoin="round" stroke-width="0.5"><title>2025-05-10 5.3km</title><desc>1746870058000</desc></polyline><polyline fill="none" points="75.87920376565307,258.75991557327507 75.8291839165322,258.619242337365 75.92207792209229,258.7268160102685 75.54335620711208,258.79301512274833 66.78988260650658,259.5625758444439 63.081268076901324,259.1240098755152 56.28571428571013,259.40535435439233 63.045539613231085,259.1240098755152 64.78194294788409,259.2646822368333 66.3611410423764,259.5543010367546 73.52827085577883,258.908863439734" stroke="#4DD2FF" stroke-linecap="round" stroke-linejoin="round" stroke-width="0.5"><title>2025-05-05 5.4km</title><desc>1746434825000</desc></polyline></svg>