<?xml version="1.0" encoding="utf-8" ?>
<svg baseProfile="full" height="300mm" version="1.1" viewBox="0,0,200,300" width="200mm" xmlns="http://www.w3.org/2000/svg" xmlns:ev="http://www.w3.org/2001/xml-events" xmlns:xlink="http://www.w3.org/1999/xlink"><defs /><rect fill="#222222" height="300" width="200" x="0" y="0" /><text fill="#FFFFFF" style="font-size:12px; font-family:Arial; font-weight:bold;" x="10" y="20">Over 3km Runs</text><text fill="#FFFFFF" style="font-size:4px; font-family:Arial" x="10" y="280">Runner</text><text fill="#FFFFFF" style="font-size:9px; font-family:Arial" x="10" y="290">tang-hi</text><text fill="#FFFFFF" style="font-size:4px; font-family:Arial" x="65" y="280">SPECIAL TRACKS</text><rect fill="yellow" height="2.6" width="2.6" x="65" y="283" /><text fill="#FFFFFF" style="font-size:3px; font-family:Arial" x="70" y="285.5">Over 20.0 km</text><rect fill="red" height="2.6" width="2.6" x="65" y="287" /><text fill="#FFFFFF" style="font-size:3px; font-family:Arial" x="70" y="289.5">Over 40.0 km</text><text fill="#FFFFFF" style="font-size:4px; font-family:Arial" x="120" y="280">STATISTICS</text><text fill="#FFFFFF" style="font-size:3px; font-family:Arial" x="120" y="285">Number: 49</text><text fill="#FFFFFF" style="font-size:3px; font-family:Arial" x="120" y="290">Weekly: 3.5</text><text fill="#FFFFFF" style="font-size:3px; font-family:Arial" x="141" y="285">Total: 263.2 km</text><text fill="#FFFFFF" style="font-size:3px; font-family:Arial" x="141" y="290">Avg: 5.4 km</text><text fill="#FFFFFF" style="font-size:3px; font-family:Arial" x="167" y="285">Min: 3.2 km</text><text fill="#FFFFFF" style="font-size:3px; font-family:Arial" x="167" y="290">Max: 11.5 km</text><polyline fill="none" points="23.749273988301866,31.33333333333576 23.802943750226405,32.016464538450236 23.98184295668034,32.08891757939273 23.919228234444745,32.5753866623636 24.4022560918238,32.64783930575504 24.455925853690132,33.09290441308258 23.96395303605823,35.55625286530994 23.820833670906723,36.87070434776979 23.919228234444745,37.22260186677158 23.767163908923976,37.367500491876854 23.480925178679172,39.05451931717107 22.219685773306992,48.22396135322924 22.997897321358323,55.33333333333576 22.210740812995937,48.05838055044296 22.76532835297985,43.86702688308287 22.97106244036695,43.29781741035549 23.463035257998854,39.05451931717107 23.713494147057645,37.491699149388296 23.87450343283126,37.21225195707666 23.811888710595667,36.808604659447155 24.30386152822757,33.18605732902506" stroke="#4DD2FF" stroke-linecap="round" stroke-linejoin="round" stroke-width="0.5"><title>2025-08-05 5.0km</title><desc>1754406000000</desc></polyline><polyline fill="none" points="53.63657892588526,55.33333333333576 54.05191729625221,51.892606476358196 54.30678402353078,51.69599018638837 54.70324337715283,49.03071166049631 54.99586813809583,46.889702349442814 55.01474715495715,45.55701175061404 54.3256630403921,40.826919064696995 54.06135680468287,37.68069130046206 53.82536909420742,36.86134603332175 53.466667774366215,36.34788648113317 53.55162335006753,36.184015894708864 54.01415926258778,36.22771474221372 53.797050568973646,34.075525384971115 53.35339367331471,33.60575243233325 53.39115170703735,32.27289705869043 52.98525284504285,31.33333333333576 53.400591215409804,32.41492341845151 53.35339367331471,33.4965026140344 53.815929585834965,34.06460045590211 54.02359877101844,36.216790031998244 53.90088516159449,36.32603708402894 53.4477887575631,36.23863945128687 54.05191729625221,37.5168227469112 54.438937141385395,41.65715825074585 55.01474715495715,45.58978302910691 55.00530764652649,46.94432046407019 53.90088516159449,54.50319979144115 53.84424811106874,54.68888811402576 53.59882089222083,54.69981094652758 53.50442580797244,55.11487775963906 53.24011957226321,55.09303217785782" stroke="#4DD2FF" stroke-linecap="round" stroke-linejoin="round" stroke-width="0.5"><title>2025-08-03 5.0km</title><desc>1754221111000</desc></polyline><polyline fill="none" points="96.66666666667152,42.03484335760368 96.59287727388437,42.34080182366961 96.40225467589335,42.3585900243379 92.65744299255311,42.28387952079356 92.55598257749807,42.21984181944208 92.40840379195288,42.280321873786306 91.93184729694622,42.27676422642617 91.8918780425156,42.23763008156675 91.04022546758642,42.287437167429744 90.62208557518898,42.223399472590245 89.27235459901567,42.21984181944208 88.68818857287988,42.12734271071531 88.2915705867199,42.024170339595 88.26697412246722,41.9850359124066 87.71662823468796,41.967247521944955 86.50832692798576,41.75378613149951 84.73123238535482,41.73955532586115 81.02331539840088,42.202053548280674 80.52216243914154,42.43330036847328 79.98411478348135,42.59695104142156 78.53907250831253,43.475670922933205 77.77350755827501,43.86343908062554 77.30310017934244,43.99862330049291 77.0263899564452,44.002180772909924 76.67589034076082,43.91680133503178 76.30386881885352,44.06977268027549 76.17781193951669,43.820749218575656 76.02715859595628,43.920358815761574 75.90417627466377,43.68912181626729 73.81040225466131,44.92711134081037 73.65052523699705,44.52512528774969 73.00486805020773,43.290679096211534 72.94337688956875,43.24798853586617 72.66666666667152,43.38317513173752 72.84806559055869,43.244430986826046 72.93722777350922,43.233758337526524 72.96489879579167,43.144819466833724 73.07558288496512,43.151934584799164 73.22316167051031,43.05232280167547 73.26620548295614,43.102128728663956 73.37688957211503,43.03097738271754 73.33999487572873,43.09857116479907" stroke="#4DD2FF" stroke-linecap="round" stroke-linejoin="round" stroke-width="0.5"><title>2025-08-02 8.3km</title><desc>1754134728000</desc></polyline><polyline fill="none" points="115.97483938353253,31.33333333333576 115.84567709156545,31.363224906133837 115.76817971636774,32.170293926785234 116.41399117629044,32.170293926785234 116.41399117629044,32.8179371023798 114.26128630989115,47.06500505471922 114.26989712932846,48.56929494430369 115.1654223537771,55.33333333333576 114.31295122668962,48.75857481984713 114.25267549039563,47.29413679193385 115.5270767713082,38.18822880926746 115.84567709156545,36.95278885799053 115.75956889693043,36.673816392576555 116.16427741176449,33.734593978049816" stroke="#4DD2FF" stroke-linecap="round" stroke-linejoin="round" stroke-width="0.5"><title>2025-07-31 5.0km</title><desc>1753965181000</desc></polyline><polyline fill="none" points="145.52481851552147,55.33333333333576 145.6283233932918,54.4622839905569 145.89179035503184,54.14652685511828 146.85156285820995,47.5371897753721 146.95506773598026,45.09805628575123 146.46577195002465,42.1361766671107 145.94824756111484,37.24671824781399 145.44954224076355,36.28840179476538 145.55304711859208,36.146831591788214 145.96706662973156,36.20128169199597 145.78828547720332,34.034146327692724 145.30839922558516,33.51141364482464 145.36485643166816,32.30258454263094 144.98847505787853,31.33333333333576 145.37426596600562,32.324365367909195 145.33662782859756,33.53319422421191 145.78828547720332,34.09948773361975 146.00470476713963,36.179501655249624 145.88238082063617,36.28840179476538 145.50599944684654,36.13594156841282 145.46836130943848,36.29929180264298 146.03293337015202,37.55163532095321 146.36226707225433,41.21057249025762 147.01152494206326,45.88206953541521 146.33403846918372,51.52244017902558 145.83533314894885,54.64738256834971 145.6565519963624,54.723599536890106" stroke="#4DD2FF" stroke-linecap="round" stroke-linejoin="round" stroke-width="0.5"><title>2025-07-29 5.0km</title><desc>1753797916000</desc></polyline><polyline fill="none" points="177.69605400963337,31.33333333333576 177.67875338203157,33.165065654298814 177.28083894692827,35.96765027874062 176.96942764989217,36.89849110572686 176.76182011852507,39.46076021832414 176.18224909348646,42.52338509703259 176.25145160392276,43.063838429850875 175.68053089268506,46.85693675172661 175.71513214794686,48.868520682735834 176.42445788005716,55.33333333333576 175.75838371698046,49.71917815211782 175.63727932370966,47.58751675821259 176.19089940731646,42.68351972686651 176.96077733609127,37.78928753291984 176.88292451182497,37.5390646308515 177.25488800552557,36.01769570819306 177.67875338203157,32.6345674475815" stroke="#4DD2FF" stroke-linecap="round" stroke-linejoin="round" stroke-width="0.5"><title>2025-07-27 5.0km</title><desc>1753616848000</desc></polyline><polyline fill="none" points="24.01882063964149,58.0 24.04436675045872,60.10861232867319 23.5760213858739,63.43894401631405 23.38868324001669,63.79364716132841 23.1247067618242,66.69034095850657 22.647846026957268,69.33078918720275 22.681907507998403,69.83325440394401 22.06028547868482,73.93169701872102 22.83518417281448,82.0 23.346106388722546,81.92119198216824 22.97994546731934,77.97085807715484 22.562692324310774,75.20257314097398 22.54566158380476,73.7248086324762 23.720782680349657,65.43905867348076 24.1124897125992,63.78379431371286 24.0273360099236,63.39953247565427 24.606381187943043,59.89184121310245" stroke="#4DD2FF" stroke-linecap="round" stroke-linejoin="round" stroke-width="0.5"><title>2025-07-26 5.2km</title><desc>1753529066000</desc></polyline><polyline fill="none" points="54.828358177503105,58.0 54.72481340527884,58.519196792229195 54.86287310154876,59.188157845448586 54.6989272122446,60.76568975938426 54.33652050961973,63.221796635385545 54.14668842725223,63.571237747659325 54.12080223421799,64.61955362968001 53.352845173852984,69.22202723923692 53.413246290932875,69.6612976190736 52.843750043946784,73.84425129857846 52.9214086230495,76.07042853926396 53.60307837330038,82.0 54.09491604115465,81.95008927460003 53.70662314549554,78.32650292381004 53.792910455638776,78.13683494659199 53.3010727877554,75.32171984660818 53.292444056714885,73.98401278777601 55.156249956053216,60.93542269682803" stroke="#4DD2FF" stroke-linecap="round" stroke-linejoin="round" stroke-width="0.5"><title>2025-07-24 5.0km</title><desc>1753356656000</desc></polyline><polyline fill="none" points="84.24572117911885,81.9567031107581 84.36732765333727,82.0 84.77891879662639,78.57949152712536 85.0501947774319,78.40629830310354 84.98471436830005,78.07073563015001 85.68629018077627,73.72997479578044 85.73306190158473,72.42013441034942 85.03148608910851,67.79767636852193 84.74150141997961,64.37671170660906 84.1802407700452,63.196669919008855 84.26442986750044,63.0234516750279 84.72279273159802,63.11006083223765 84.47957978327759,60.93398440404417 84.07734298415016,60.50092906208738 84.11476036079694,59.33167083970329 83.60027143167099,58.0 84.06798863998847,59.071833935173345 84.05863429582678,60.45762343102979 84.48893412749749,60.912331678773626 84.73214707581792,63.04510397093691 84.6105406016577,63.16419151971786 84.28313855582383,63.03427782354265 84.1802407700452,63.16419151971786 84.50764281576267,63.629714295952 84.74150141997961,64.40918973602675 85.16244690743042,68.71785380139045 85.70499886904145,72.23610595807986 85.69564452493796,73.675849479092 84.67602101078955,80.76603176019125" stroke="#4DD2FF" stroke-linecap="round" stroke-linejoin="round" stroke-width="0.5"><title>2025-07-22 5.0km</title><desc>1753184035000</desc></polyline><polyline fill="none" points="103.33333333325572,73.9582927346346 103.33333333325572,70.10711305658333 105.8849512070883,59.323622577416245 126.51977401133627,63.0893172986398 127.33333333325572,63.987944016378606 124.55983564490452,80.63358741343836 106.0328710838221,77.72385658801068 105.36723163863644,76.86804957792629 107.65998972789384,60.22225733156665 108.4735490498133,59.70875199264265 113.3918849513866,60.5218018234591 127.29635336413048,63.602818515122635 124.85567539813928,80.29126718334737 124.07909604534507,80.67637742255465 105.6630713918712,77.55269532513921 105.8849512070883,72.07549818136613 107.69696969701909,60.30784149389365 108.28864920395426,59.79433625927777 117.38572162319906,61.33485008450225 108.10374935809523,59.87992050856701 107.06831022095867,64.58702742960304 107.99280945048667,65.48565095113008" stroke="#4DD2FF" stroke-linecap="round" stroke-linejoin="round" stroke-width="0.5"><title>2025-07-20 4.9km</title><desc>1753020627000</desc></polyline><polyline fill="none" points="147.37944947413052,58.0 147.19839673067327,59.227074938389705 146.52591511202627,60.95293487395247 145.95689220394706,63.54665575901163 145.80170413808082,65.59165661516454 145.26716746686725,69.01319696154678 145.14646563789574,69.12292368801718 145.2068165524106,69.61170488915377 144.6464152034896,73.65153800773987 144.62055052586948,74.98813756955497 145.38786929583875,81.99002615568315 145.30165370376199,80.61362592672958 145.39649085508427,82.0 145.8879197302449,81.90026151112397 145.06025004576077,74.09042345143826 146.37934860540554,64.45444188328838 146.65523850021418,63.5865586221189 146.6897247370798,62.41939317656943" stroke="#4DD2FF" stroke-linecap="round" stroke-linejoin="round" stroke-width="0.5"><title>2025-07-20 5.0km</title><desc>1752942252000</desc></polyline><polyline fill="none" points="177.70152798329946,58.010739473451395 177.55302770470735,58.0 177.32099601934897,59.18133553710504 177.58087150694337,59.342425723720226 177.56230897206115,59.68608396803029 177.2374646126409,61.876879011135316 177.06112053175457,62.25274614646332 176.60633842850802,66.53753703493567 176.22580646455754,68.28791543086118 176.26293153420556,68.80335876037134 175.60396154783666,73.73215870419517 176.49496321950573,82.0 175.6689304197207,75.10659789670899 175.6503678848967,73.02345651492942 176.26293153420556,68.86778899987985 176.23508773191134,68.29865385917219 176.91262025310425,64.21797255006095 177.05183926434256,62.242007104010554 177.2374646126409,61.85540084875538 177.72937178553548,58.34366260891693" stroke="#4DD2FF" stroke-linecap="round" stroke-linejoin="round" stroke-width="0.5"><title>2025-07-17 5.0km</title><desc>1752765839000</desc></polyline><polyline fill="none" points="33.63063063076697,108.16022699617315 34.171171171357855,107.40965425453032 35.33333333337214,97.62076713852002 17.95495495502837,96.83889371735859 14.819819819997065,97.08909342830884 15.198198198224418,96.83889371735859 14.630630630650558,93.30480107141193 11.414414414553903,88.23815497022588 11.333333333372138,85.39203939490835 11.711711711715907,85.17310633716988 26.819819819997065,85.42331553323311 25.7387387388153,95.27514091553167 25.063063063193113,95.71299250097945 15.630630630650558,95.4002414321003 14.60360360366758,92.11633601805079 11.95495495502837,88.73856817450724 11.630630630650558,86.95584241993492 15.38738738745451,86.6743584619544 26.33333333337214,87.04967034875881 26.495495495619252,89.39535927010002 25.522522522718646,97.02654351966339 24.063063063193113,97.12036837782944" stroke="#4DD2FF" stroke-linecap="round" stroke-linejoin="round" stroke-width="0.5"><title>2025-07-15 4.1km</title><desc>1752589649000</desc></polyline><polyline fill="none" points="54.96448916144436,84.66666666666424 55.03762578032911,86.36980184030108 54.47081698401598,89.92408115776198 54.26969128206838,90.33662357700086 54.26054920477327,91.38383930057898 53.45604639709927,96.29186153721093 53.49261470657075,96.841884098023 52.88009552343283,101.40061312721082 53.61146171222208,108.66666666666424 53.19092615362024,105.78992005118198 52.87095344607951,101.16792181436904 54.242265050066635,91.30979409039719 54.159986353770364,90.97130103036761 54.434248674544506,89.99812735336309 54.97363123885589,86.47558571468835 54.90963669726625,86.10534168408049 55.1290465539787,84.98402315899875 54.92792085203109,84.73013804253424" stroke="#4DD2FF" stroke-linecap="round" stroke-linejoin="round" stroke-width="0.5"><title>2025-07-13 5.0km</title><desc>1752418082000</desc></polyline><polyline fill="none" points="84.45823844120605,108.66666666666424 84.33507630805252,108.65570397529518 84.41086838999763,107.78964783856645 84.82772484084126,105.15854857565137 85.07404910726473,104.93928740710544 85.50037956837332,101.95729126815422 85.72775581420865,98.87653956227587 85.10247113800142,94.58965322899894 84.78035478963284,91.00432587695832 84.59087458468275,90.30259648344509 84.19296615431085,89.66665027608542 84.27823224652093,89.5021808189631 84.73298473836621,89.56796863193449 84.53403052320937,87.48466839855973 84.07927803136408,86.91449500326416 84.10770006210078,85.6096637724986 83.7855837137322,84.71052718001738 83.58662949857535,84.71052718001738 83.7571616829955,84.66666666666424 84.07927803136408,85.46711822750513 84.06980402109912,86.92545990470535 84.48666047194274,87.30923075191822 84.53403052320937,87.52852776562213 84.73298473836621,89.53507473045465 84.26875823631417,89.5131454572329 84.16454412357416,89.63375640476443 84.58140057441778,90.23680911869451 84.77088077936787,90.90564545692905 85.1593151994748,95.17075010665576 85.74670383473858,98.7997937345499 85.73722982447362,100.20313738292316 84.58140057441778,108.09660523939237" stroke="#4DD2FF" stroke-linecap="round" stroke-linejoin="round" stroke-width="0.5"><title>2025-07-12 5.1km</title><desc>1752325602000</desc></polyline><polyline fill="none" points="115.18873223819537,108.66666666666424 114.95550466538407,108.65587166447949 115.4779344284907,105.06107492744923 115.69250379543519,104.9531211920621 116.28956638177624,100.94796006686374 116.38285741093569,98.92912888262072 115.83244033908704,95.31241021875758 115.41263070807327,90.91820121151977 114.85288453334942,89.7845305593728 114.92751735658385,89.66576436204195 115.39397250226466,89.74134286661865 115.17940313526196,87.54954439192807 114.75959350418998,87.08526600150799 114.74093529838137,85.62763460623682 114.27448015281698,84.66666666666424 114.76892260712339,85.74640532062767 114.75959350418998,87.07446880549833 115.18873223819537,87.56034153965447 115.42195981100667,89.7089520855152 114.97416287119268,89.65496742841788 114.87154273921624,89.82771823453368 115.43128891388187,91.00457562213705 115.84176944202045,95.29081749865873 116.39218651381088,98.85355691669974 116.29889548470965,100.89398112276103 115.40330160513986,106.85309090880764" stroke="#4DD2FF" stroke-linecap="round" stroke-linejoin="round" stroke-width="0.5"><title>2025-07-10 5.0km</title><desc>1752149320000</desc></polyline><polyline fill="none" points="142.634265729459,84.66666666667152 142.6904784103972,86.16270679468289 143.0980203470681,85.95131066853355 143.9693169015227,86.2440129226743 144.91087930701906,86.16270679468289 145.9648670743918,86.55297583236825 151.4034439541283,87.26846659637522 151.55802882666467,87.47986098268302 150.30729667603737,95.46385992593423 149.7030103560537,95.51264077280939 149.59058499417733,95.72402427067573 149.37978744070278,97.13866049415083 149.53437231323915,97.7565436574223 148.57875673752278,103.13853034743806 141.58027796208626,102.92715664036223 141.3413740681135,102.76456129120197 140.44197117333533,108.66666666667152 141.3835335787735,102.86211852051201 144.10984860378085,102.9108971128444 145.02330466883723,102.5531870903651 145.1497832009336,102.92715664036223 148.62091624824097,103.04097328658099 151.0380615280592,87.90264891763218 150.9677956769592,87.34977216264815 143.73041300754994,86.08140062533494" stroke="#4DD2FF" stroke-linecap="round" stroke-linejoin="round" stroke-width="0.5"><title>2025-07-08 5.1km</title><desc>1751976330000</desc></polyline><polyline fill="none" points="164.88043047278188,108.44813691300806 164.82892470649676,108.66666666667152 165.15512789326021,108.52760230621789 165.25813942583045,107.41508386164787 165.85904003301403,106.91842179771629 165.97922015440417,106.40189191279933 167.71324762067525,94.38225344334205 167.8677649195888,90.74641555314884 167.45571878907504,88.0641967102274 168.39999117166735,88.02445985806116 168.64035141450586,88.38209123654815 171.95388904801803,88.85893205655157 174.61502030817792,88.81919536601345 176.55507083964767,89.59405937498377 182.7357627984602,90.50799759093206 183.8688896576641,84.66666666667152 188.50440862687537,85.69983994677023 184.36677873210283,84.72627296595601 183.594192237244,88.1635388052091 183.47401211573742,90.54773393817595 171.9023832816747,88.99801040998136 168.64035141450586,88.40195962729922 168.34848540538223,87.96485456466326 167.4042130227317,88.12380197328457 167.78192197572207,89.7132689498394 167.8505963308853,93.15044708841015 165.91054579929914,106.46149158460321" stroke="#4DD2FF" stroke-linecap="round" stroke-linejoin="round" stroke-width="0.5"><title>2025-07-06 5.0km</title><desc>1751807521000</desc></polyline><polyline fill="none" points="14.98631233733613,133.84571740798128 16.026145077543333,126.45123865819187 12.660868209321052,126.21058567400905 11.602129419334233,126.58250380889513 12.98227105627302,126.45123865819187 12.793210558127612,126.23246322912746 16.271923725144006,126.42936112530879 16.517702372861095,126.21058567400905 16.404266073950566,125.53238036217226 17.822219810448587,116.5842456916871 17.689877461758442,112.12097835361783 20.12875788868405,111.88030934765993 35.06453724729363,114.33074482905795 35.04563119751401,113.60874441656051 18.6162739029387,111.33333333332848 18.880958600435406,116.7373953795468 17.160508066648617,128.90150827376056 17.633159312303178,129.64533460326493 17.198320166324265,130.454789747615 17.292850415455177,132.20495262858458 16.631138671655208,132.35809120374324 16.32864187459927,135.33333333332848 14.797251839074306,135.15832022858376 14.891782088205218,133.86759418722067" stroke="#4DD2FF" stroke-linecap="round" stroke-linejoin="round" stroke-width="0.5"><title>2025-07-05 4.8km</title><desc>1751729502000</desc></polyline><polyline fill="none" points="57.86281287961174,135.33333333332848 58.10033211816335,135.1597493092413 58.13783515576506,134.17610250794678 58.46286148222862,132.74401633732487 58.6378756579943,132.6861539670208 58.86289388401201,130.5886271630443 53.974997974873986,130.38610569751472 54.28752328880364,129.3011643684149 54.750060753314756,124.4115928272222 54.800064803566784,120.83833816059632 54.6250506278011,120.3609329698811 54.81256581604248,117.43859962352144 54.800064803566784,111.33333333332848 48.23703321197536,113.69155965601385 48.09952207386959,114.02431237100973 48.14952612417983,113.7349622281763 51.6873126772698,112.3894763347198 51.74981774005573,115.3697828061704 52.0998460915871,116.12208331064903 54.71255771559663,116.12208331064903 54.72505872818874,119.94139375296072 55.00008100440027,120.07159571125521 55.10008910484612,120.53453504272329 59.6754597001127,120.82387136017496 59.90047792613041,121.96674406332022 59.875475900946185,124.04993145575281 58.30034831905505,134.79811524592515" stroke="#4DD2FF" stroke-linecap="round" stroke-linejoin="round" stroke-width="0.5"><title>2025-07-03 5.2km</title><desc>1751545471000</desc></polyline><polyline fill="none" points="84.24610053747892,135.33333333333576 84.81620129034854,131.8185747979296 85.04984913987573,131.65635237075185 85.64798763470026,127.22217693068524 85.6947172046057,125.68639503769373 84.67601258063223,117.53123809258977 84.18067913962295,116.50368723367137 84.28348419337999,116.36307423878316 84.70405032258714,116.43878895141825 84.50778612896102,114.3403898212564 84.04983634391101,113.75629197655508 84.05918225785717,112.42583491171536 83.6199243007577,111.33333333333576 84.09656591381645,112.52318599297723 84.04983634391101,113.77792528726422 84.47040247300174,114.18895735470869 84.53582387091592,114.52427181226085 84.70405032258714,116.42797256719496 84.24610053747892,116.39552340793307 84.18067913962295,116.53613635992951 84.6853584946366,117.53123809258977 85.17134602164151,122.16050203527993 85.71340903255623,125.65394870226737 85.55452849488938,128.07658120421547 84.52647795691155,134.96564095387293" stroke="#4DD2FF" stroke-linecap="round" stroke-linejoin="round" stroke-width="0.5"><title>2025-07-01 5.0km</title><desc>1751376396000</desc></polyline><polyline fill="none" points="114.48990665219026,135.33333333332848 114.66321350447834,135.11942509650544 114.62855213403236,134.3306354676606 114.90584309765836,134.0632480795466 115.10225753026316,133.02043207356473 115.40265607420588,129.34377123520244 115.81859251967398,127.9131881584035 116.28074412583373,124.15616226062411 116.16520622430835,122.00351187822525 115.51819397573126,118.16609120802605 115.07914995000465,113.5129013130063 114.38592254085233,111.78797012678115 114.99827341886703,111.90831489728589 115.02138099918375,111.33333333332848 115.02138099918375,111.88157162444259 114.48990665219026,111.77459847883438 114.39747633098159,111.90831489728589 114.83652035676641,112.56352338210854 115.10225753026316,113.4861583665188 115.58751671668142,118.67418818055012 116.28074412583373,123.28708404851204 116.22297517501283,125.43971342501754 114.76719761581626,134.8787779144477" stroke="#4DD2FF" stroke-linecap="round" stroke-linejoin="round" stroke-width="0.5"><title>2025-06-30 4.1km</title><desc>1751292736000</desc></polyline><polyline fill="none" points="134.26945412310306,124.81280305832479 134.0,122.86529765371233 134.09291521488922,122.66086130110489 141.32171893148916,122.3165465492275 142.47386759577785,122.4241450298432 144.3507549361093,122.24122754759446 147.16608594654826,122.27350712631596 158.0,121.58487397282443 154.76655052264687,121.81083222146117 154.01393728225958,122.05830974838318 152.62020905921236,121.99375044945191 145.56794425088447,122.3595859546549 139.00813008128898,122.47794422900188 138.81300813006237,122.65010148212605 139.26829268288566,125.08179269384709 139.0545876887045,125.06027354823891 138.7944250870496,123.79063619299268" stroke="#4DD2FF" stroke-linecap="round" stroke-linejoin="round" stroke-width="0.5"><title>2025-06-26 5.0km</title><desc>1750950176000</desc></polyline><polyline fill="none" points="188.66666666665697,124.31558774030418 188.27915321133332,122.35107892636734 177.95407247933326,123.2984358166359 176.8518119842338,123.30840794562391 172.87334050948266,122.80980025026656 164.66666666665697,123.15882590381807 172.59777538571507,122.79982807042688 176.86042339433334,123.31838007363694 184.20595622534165,122.65024525107583" stroke="#4DD2FF" stroke-linecap="round" stroke-linejoin="round" stroke-width="0.5"><title>2025-06-24 5.0km</title><desc>1750769966000</desc></polyline><polyline fill="none" points="35.333333333343035,150.96111835589545 35.00480307394173,149.03888164410455 24.785782901075436,150.0100163508905 23.540826128737535,150.050062936818 19.512007684912533,149.5294560465045 11.333333333343035,149.8898764951955 19.29586935637053,149.5294560465045 23.53218059556093,150.050062936818 32.18635926992283,149.27916329018626" stroke="#4DD2FF" stroke-linecap="round" stroke-linejoin="round" stroke-width="0.5"><title>2025-06-22 5.0km</title><desc>1750563938000</desc></polyline><polyline fill="none" points="54.82016943025519,162.0 53.57977184667834,154.5894652416755 53.562383095530095,152.56887582415948 53.67251185292844,151.7230292817767 53.60295684824814,149.54794540820149 53.62614184981794,149.1719977008106 53.753659358393634,148.95716947540495 53.62614184981794,148.85646850336343 53.62034559939639,147.4802064445903 52.2118567545258,139.00716892904893 51.85828548070276,138.0 52.217653004889144,138.87959505083563 53.60295684824814,147.33922187700227 53.67830810332089,151.46121743510594 53.57977184667834,152.5755888484855 53.57397559628589,154.52233702103695 54.524560660356656,160.21456697728718 54.6578744193248,160.6038760486117 56.14171451929724,160.52332953303267" stroke="#4DD2FF" stroke-linecap="round" stroke-linejoin="round" stroke-width="0.5"><title>2025-06-21 8.0km</title><desc>1750517001000</desc></polyline><polyline fill="none" points="87.10153597028693,162.0 85.06853829935426,149.49850031468668 81.49109278526157,149.42549629311543 75.04538699123077,148.80496090797533 75.17146436613984,148.14792109704285 74.91930961626349,146.8885880526068 75.26602239737986,138.65707705785462 75.21874338167254,138.07300868110906 74.90354994439986,138.0 74.50955814763438,148.12966995679017 75.10842567868531,148.2026745066978 75.13994502235437,148.82321197947022 85.11581731494516,149.48024931210966 86.32931204873603,157.29150842323725 86.70754417363787,158.33176721757627 94.82377518567955,158.07626561747747" stroke="#4DD2FF" stroke-linecap="round" stroke-linejoin="round" stroke-width="0.5"><title>2025-06-19 5.0km</title><desc>1750345525000</desc></polyline><polyline fill="none" points="127.33333333334303,150.6008250245286 127.11304347828263,149.29176617336634 120.31884057971183,149.93622916676395 119.44347826085868,149.95636853367614 116.53333333332557,149.62071161411586 105.7507246376772,150.11077014231705 104.81739130432834,150.26517138900817 103.33333333334303,150.70823382663366 105.4260869564896,150.14433566151274 109.21739130435162,149.97650789446925" stroke="#4DD2FF" stroke-linecap="round" stroke-linejoin="round" stroke-width="0.5"><title>2025-06-17 5.1km</title><desc>1750166247000</desc></polyline><polyline fill="none" points="134.82758620684035,159.05670083167206 134.0,153.73783081036527 152.70344827591907,153.1867698290589 149.66206896561198,141.18290353822522 153.34482758620288,141.3985472623608 158.0,140.9432991683425 150.65517241379712,141.37458685833553 153.36551724141464,152.18048122545588 145.33793103450444,152.5638297729165" stroke="#4DD2FF" stroke-linecap="round" stroke-linejoin="round" stroke-width="0.5"><title>2025-06-16 3.2km</title><desc>1750084948000</desc></polyline><polyline fill="none" points="188.66666666668607,151.10945134272333 188.29892473120708,148.89054865728394 176.50215053762076,149.97759243636392 175.43763440859038,149.9887990173156 170.7731182795833,149.41726193355134 164.66666666668607,149.70863415137865 170.57956989249215,149.4060552943629 175.42795698926784,149.96638585430628 185.43440860218834,149.12588894359942" stroke="#4DD2FF" stroke-linecap="round" stroke-linejoin="round" stroke-width="0.5"><title>2025-06-15 4.6km</title><desc>1749956754000</desc></polyline><polyline fill="none" points="35.333333333343035,177.6318849613308 35.04117436450906,175.70144837199769 24.76405298965983,176.6467700275898 23.689939133560983,176.66667143775703 19.170068027218804,176.15918421139213 11.333333333343035,176.51741076266626 19.324740422482137,176.15918421139213 23.621195846790215,176.66667143775703 25.863945578283165,176.55721363167686 26.284998209797777,176.41790351917007 31.732903687807266,175.930316559934" stroke="#4DD2FF" stroke-linecap="round" stroke-linejoin="round" stroke-width="0.5"><title>2025-06-14 5.1km</title><desc>1749906363000</desc></polyline><polyline fill="none" points="66.0,178.09166922865552 65.71145685997908,176.14581278419064 55.765205091942335,177.10891835648363 54.424328147113556,177.1187459148059 50.350777934945654,176.62736677278735 42.67892503537587,176.99098757876345 42.577086280070944,176.76495318497473 42.61951909479103,175.25149185329064 42.0,175.24166410468024 42.64497878361726,175.27114734751376 42.577086280070944,176.75512559060007 42.7043847242021,176.99098757876345 50.56294200848788,176.61753916442103 54.611032531858655,177.12857347212412 62.67326732678339,176.40133152664202 62.664780763792805,176.0082254885565 65.25318246110692,175.87063799663156" stroke="#4DD2FF" stroke-linecap="round" stroke-linejoin="round" stroke-width="0.5"><title>2025-06-12 5.9km</title><desc>1749735885000</desc></polyline><polyline fill="none" points="96.66666666668607,184.2168484510621 95.90159390168265,180.36482953710947 74.87872487871209,182.23306851630332 72.89951489953091,176.82090278581018 72.66666666668607,170.06029296043562 76.59182259184308,169.8869408097089 79.93485793482978,170.09881563897943 80.11781011789571,169.48245183957624 79.76853776857024,169.34762199044053 72.76645876641851,169.11648488228093 72.91614691616269,176.62829616676026 73.4982674982748,178.82399998579058 74.64587664586725,181.55896379800106 83.95980595983565,180.75003496187855 84.14275814278517,181.48192310564627 95.85169785178732,180.34556924522622 96.56687456695363,184.15906874736538" stroke="#4DD2FF" stroke-linecap="round" stroke-linejoin="round" stroke-width="0.5"><title>2025-06-10 5.3km</title><desc>1749559786000</desc></polyline><polyline fill="none" points="103.9634908727603,170.2767672228365 103.3873468368547,167.94163718505297 103.33333333337214,166.1277231360873 119.66341585409828,165.7107291269058 120.40160040010232,168.44202443707036 119.86146536644083,168.42117499270535 119.69942485622596,168.79646466665145 120.04151037766133,170.73545034822018 119.95148787205108,172.04894633621734 120.54563640919514,174.67591301318316 122.07601900480222,174.61336657954962 124.34458614664618,183.34883332681784 124.38059514889028,183.7449435047165 123.80445111286826,183.9117265081586 124.32658164552413,183.7657913876319 124.50662665662821,184.09935722443333 124.03850962745491,184.18274859875964 124.20055013755336,184.95411719940603 125.2808202051092,187.70600311023009 126.03700925235171,187.62261317179946 127.33333333337214,186.91379732331552 125.96499124786351,187.2056629700819 123.5343835959211,177.51133125688648 123.2463115779683,176.67738879373064 122.59814953745808,176.67738879373064 122.11202800704632,174.55082012673665 121.58989747439045,174.75930822829832 120.52763190807309,174.61336657954962 119.93348337092903,172.21573887408886 119.80745186307468,169.13005491002696 118.8172043011291,165.6273302230984 103.3873468368547,166.16942249026033 104.0355088772485,170.4018627226178" stroke="#4DD2FF" stroke-linecap="round" stroke-linejoin="round" stroke-width="0.5"><title>2025-06-08 5.0km</title><desc>1749355299000</desc></polyline><polyline fill="none" points="158.0,177.65426184657554 157.57788944721688,175.67907148676022 149.8420674802328,176.32749695922394 147.51615218949155,176.65669593965868 146.2239770280139,176.65669593965868 142.1320890165225,176.1579091735548 134.0,176.51703590137186 141.74443646805594,176.1579091735548 146.1809045226546,176.6666716490363 155.51040918880608,175.82870851551706" stroke="#4DD2FF" stroke-linecap="round" stroke-linejoin="round" stroke-width="0.5"><title>2025-06-07 5.3km</title><desc>1749293029000</desc></polyline><polyline fill="none" points="188.66666666665697,177.61743058799038 188.31232745174202,175.71590274535265 177.3623814668099,176.7167114630647 172.9201776497357,176.20630029156018 164.66666666665697,176.54657470068923 172.8856079702382,176.18628411312238 176.835193854291,176.7167114630647 185.296122914413,175.94608965365478" stroke="#4DD2FF" stroke-linecap="round" stroke-linejoin="round" stroke-width="0.5"><title>2025-06-05 5.1km</title><desc>1749128617000</desc></polyline><polyline fill="none" points="11.669291338534094,203.18142275678838 11.33333333331393,200.98089320224244 11.459317585278768,200.88363129067875 20.876640419941396,200.55537175371865 22.650918635132257,207.0596053163681 31.952755905513186,206.9380341094802 35.33333333331393,206.7313627734402 32.55118110240437,206.8286199173308 32.036745406803675,199.6070613503034 23.133858267683536,200.12984878723364 21.223097112844698,200.06905966807972 21.391076115425676,200.55537175371865 16.456692913372535,200.70126499279286" stroke="#4DD2FF" stroke-linecap="round" stroke-linejoin="round" stroke-width="0.5"><title>2025-06-03 5.2km</title><desc>1748952979000</desc></polyline><polyline fill="none" points="61.84722121900995,196.1786900219886 61.32074098434532,195.3994417804497 60.94753980537644,194.58160827514075 60.70762476173695,194.357859834985 60.11450145940762,194.30385149183712 59.66132859920617,193.77919701216888 59.45473508941359,193.09251139555272 59.1481769780803,192.62185810891242 58.78164010585169,191.33333333333576 57.72201532978215,191.7885631525569 57.22885662896442,191.84257328858803 55.94930972956354,192.32094709848752 55.40283657461987,193.02307093054696 55.40283657461987,193.20052977016894 53.19028672770946,196.01666877022217 53.1769581141707,196.1786900219886 52.57050619830261,197.01193670227076 52.04402596366708,197.49799303485634 51.95072566892486,197.41312628080777 51.57752448989777,197.73716246683762 51.330945139488904,197.59057484001096 51.32428083277773,197.72944733565964 51.290959298901726,197.52885364916438 51.63750325082219,197.77573811099865 51.58418879669625,198.0534821692272 50.784471984545235,198.94071331381565 49.41828909717151,199.24931301642937 49.41828909717151,199.11044330577715 49.32498880242929,199.28017291758442 48.9517876234313,199.3650375809666 48.62523659178987,199.27245794346527 48.0787634368462,199.3187477763422 47.98546314207488,199.23388306114066 47.76554101877264,199.35732261550584 47.105774648778606,199.12587328618247 47.01913866077666,198.11520293280046 46.765895003598416,197.8914649256185 45.51966963807354,198.20778398396942 45.053168164304225,198.4932415130461 45.58631270573824,200.80000750120234 46.42601535844733,203.37671325348492 48.198720958665945,210.30406870252045 48.44530030907481,211.0214535326013 50.53789263416547,215.25619989132247 50.804464904853376,215.33333333333576 51.72413923882414,215.04022583633196 52.35058407500037,215.22534649256704 53.49684483904275,214.9862322264962 53.476851918705506,214.53114170162007 53.783410030038795,214.44629401359998 54.336547491751844,214.7008367929302 54.756398818135494,214.50028800788277 54.92967079411028,214.75483060597617 56.00928849045886,214.99394560166547 56.642397633433575,214.87824489145714 57.282171083119465,214.40001341645984 57.39546429816983,213.49753612705535 57.8752943854488,212.83416990308615 57.748672556859674,212.17079787584953 57.90195161252632,211.84682338124549 57.57540058088489,211.48427885324054 57.36880707112141,210.94431570448796 57.28883538985974,210.14207764024468 57.72201532978215,209.7949527699384 58.381781699776184,210.06493891751597 58.748318572033895,210.04179728538293 58.841618866776116,209.54039352166 58.68833981110947,208.92327664513869 58.56171798252035,208.8692786794636 58.68833981110947,208.8075666716104 58.54172506224131,208.76128263273858 58.66168258400285,208.8307086804416 58.675011197599815,208.46814973048458 58.50173922162503,208.0670186591742 57.71535102301277,208.0130200836502 57.348814150784165,207.7353125163063 57.502093206421705,206.68618585925287 58.12853804262704,205.6139016998277 58.60836812987691,205.08161112416565 58.82829025320825,205.0044672524018 59.301456033746945,204.34874117260188 60.13449437971576,203.55414785121684 60.87423243094236,202.6283975543629 60.66097461435129,202.19637687986688 60.00120824435726,202.18866220259224 59.91457225638442,201.93407741187548 60.16781591353356,201.32461337855057 60.46104541132809,201.0468813075422 60.73428198881447,201.0854552671517 60.84757520383573,200.9465889207131 60.61432446699473,200.41426556896477 60.927546885068296,199.75849977863254 61.22077638286282,199.58877123798447 61.46735573327169,199.68906542157492 61.43403419942479,199.5039068251499 62.17377225062228,199.16444822347694 62.24041531831608,198.95614332879632 62.88685307477135,198.5626769656301 62.946831835695775,197.9994764598523 62.100464876159094,196.38700255099684 61.96717874080059,196.32528037987504" stroke="#4DD2FF" stroke-linecap="round" stroke-linejoin="round" stroke-width="0.5"><title>2025-06-02 11.5km</title><desc>1748829019000</desc></polyline><polyline fill="none" points="96.66666666668607,204.45567130005657 96.22703302802984,202.21099536660768 83.5475992229185,203.39119133885833 78.29197890643263,202.78952433705854 72.66666666668607,203.032505625466 78.36192062171176,202.76638323484076 82.96808215376223,203.36805035929137 96.20704968081554,202.22256597493106 96.65667499310803,204.3862489981184" stroke="#4DD2FF" stroke-linecap="round" stroke-linejoin="round" stroke-width="0.5"><title>2025-06-01 4.9km</title><desc>1748740054000</desc></polyline><polyline fill="none" points="127.33333333331393,214.89880889582855 127.24642928986577,215.08330646637478 127.07262120291125,214.94912643560383 126.49326091323746,211.72877287567826 108.18547575938283,213.32218485706835 106.49084691202734,208.57544895081082 106.41842687589815,202.60409553641512 106.01287467306247,200.35639513678325 103.33333333331393,191.58336020029674 105.10038221679861,197.45446786457615 105.57835445587989,198.36027724783344 106.36049084691331,201.73185723608185 107.14262723794673,201.94991724463762 106.33152283239178,201.93314340812503 106.49084691202734,208.021933729804 107.0412391872378,210.28630240833445 107.99718366522575,212.65127642951848 108.24341178830946,212.80223106419726 116.09374371351441,211.99713807924127 116.3110038220766,212.63450368381746 122.55361094343243,212.030683698933" stroke="#4DD2FF" stroke-linecap="round" stroke-linejoin="round" stroke-width="0.5"><title>2025-05-31 5.5km</title><desc>1748696141000</desc></polyline><polyline fill="none" points="156.31688311690232,209.95675216922245 155.7714285714901,206.43759360033437 136.02597402600804,208.2062051105895 134.20259740261827,203.0086025903729 134.0,196.7460107695806 140.70129870122764,196.8182032918994 134.09350649348926,196.7099144974345 134.2181818181416,202.91836508808774 134.70129870134406,204.84943759875023 135.91688311682083,207.62870125364861 153.4025974025717,205.95031997827755 154.96103896101704,205.86008397514524 155.03896103898296,206.52782930912508 158.0,206.29321637062822" stroke="#4DD2FF" stroke-linecap="round" stroke-linejoin="round" stroke-width="0.5"><title>2025-05-29 5.0km</title><desc>1748526381000</desc></polyline><polyline fill="none" points="179.21500264119823,200.97714721498778 178.6825145271141,196.61670187032723 187.69677760160994,196.17624795253505 188.66666666662786,199.72187651394051 187.62070787104312,196.26433880787226 178.6444796618307,196.6827698805282 178.89170628623106,198.8630028853804 178.5493924986804,196.70479254610837 165.7316428947961,197.8940131546551 167.65240359213203,207.51765025606437 168.3940834653331,209.76383795817674 167.8996302165324,210.07213640896953 168.67934495501686,212.142128902502 167.63338615943212,209.4114963330212 165.04701531946193,197.9380582367594 169.53512942418456,197.2994036685268 177.65557316422928,196.79288318603358 177.56048600096256,196.1542252330546 165.63655573164579,196.96906435811252 164.97094558889512,194.52453776418406 164.66666666662786,194.78881224279758 164.8188061277615,197.1452453864913 173.8140517695574,196.26433880787226" stroke="#4DD2FF" stroke-linecap="round" stroke-linejoin="round" stroke-width="0.5"><title>2025-05-27 6.0km</title><desc>1748352132000</desc></polyline><polyline fill="none" points="32.135155656782445,231.7884801436303 32.23082763858838,231.7251725444512 31.923310554295313,230.1899474610109 23.839028094138484,230.96547732800536 22.902809415361844,230.9813043874965 19.533788914210163,230.58562693244312 11.483675019000657,230.94173673273326 11.333333333343035,228.3143993344347 12.290053151111351,228.2115198563697 13.608959757024422,228.30648553327774 13.615793470002245,230.58562693244312 19.73196659074165,230.34030589768372 23.449506454053335,230.7043303806713 31.909643128339667,229.86548878976464 35.189825360663235,229.7467840590689 35.333333333343035,230.00793422701827 35.2376613515662,230.03958873314696 32.21032649962581,230.16620662857895" stroke="#4DD2FF" stroke-linecap="round" stroke-linejoin="round" stroke-width="0.5"><title>2025-05-25 7.6km</title><desc>1748179850000</desc></polyline><polyline fill="none" points="65.98427260812605,231.32496844143316 65.92136304063024,230.80591482914315 65.61467889905907,230.80591482914315 65.41808650063467,229.83154288765945 65.26081258189515,229.61299071281246 57.672346002626,230.25953934815334 56.42988204458379,230.48719620460906 51.44429882042459,230.02277560210496 42.133682830957696,230.44166487974144 42.0,228.8571603200544 44.31192660550005,228.67503155855957 44.296199213626096,230.0045629802844 44.602883355197264,230.04098822022934 51.13761467891163,229.75869222213805 55.87155963300029,230.16847644315567 65.70117955439491,229.22141672924045 66.0,231.2248004352732" stroke="#4DD2FF" stroke-linecap="round" stroke-linejoin="round" stroke-width="0.5"><title>2025-05-24 6.6km</title><desc>1748094255000</desc></polyline><polyline fill="none" points="96.66666666668607,231.0693664140199 96.40558689233148,228.9306335859801 86.52323395118583,229.7704551058996 85.15014773036819,230.00560398108064 83.58366908412427,230.02799908576708 79.06795594957657,229.47931770596915 72.66666666668607,229.73686236834328 79.03894708573353,229.4681200982668 83.52565135649638,230.0391966364332 93.76578028476797,229.17698189718067" stroke="#4DD2FF" stroke-linecap="round" stroke-linejoin="round" stroke-width="0.5"><title>2025-05-18 4.7km</title><desc>1747565909000</desc></polyline><polyline fill="none" points="124.21395171293989,230.859311325803 123.95285809718189,229.32369196013315 116.9926519706205,229.91248223041475 115.83147246876615,230.11935343331425 114.89703215955524,230.11139685870876 111.71581257754588,229.69765386255312 103.38142952573253,230.07957055226143 103.33333333334303,229.84087284013367 108.02614753317903,229.53852135707712 111.20736711518839,229.4828249035345 114.924515698076,230.07957055226143 124.04217959730886,229.26799535330065 127.11346502529341,229.140688674197 127.23714094859315,229.1566020204409 127.25775360246189,229.26799535330065 127.33333333334303,229.22025537297304" stroke="#4DD2FF" stroke-linecap="round" stroke-linejoin="round" stroke-width="0.5"><title>2025-05-17 5.7km</title><desc>1747487200000</desc></polyline><polyline fill="none" points="156.68847227760125,229.00781443788583 153.51017151970882,229.1741041276764 151.9593139209901,229.451253045685 144.8368568008882,229.994462876537 140.3757479058113,229.4179952128179 134.0,229.67297167165088 140.2895891503431,229.44016710254073 144.6645392899518,229.98337698871183 157.3777423214633,228.87478250302956 157.79896290384931,231.02544550329912 158.0,231.1252174969777" stroke="#4DD2FF" stroke-linecap="round" stroke-linejoin="round" stroke-width="0.5"><title>2025-05-11 5.0km</title><desc>1746965499000</desc></polyline><polyline fill="none" points="188.66666666665697,230.86228099599975 188.27929220462102,229.13771900400025 177.38976566231577,230.1246108019186 172.96508847438963,229.61621324052976 164.66666666665697,229.96511381220625 172.75848876134842,229.62618184554594 176.89048302246374,230.1246108019186 188.34815877571236,229.15765631058457" stroke="#4DD2FF" stroke-linecap="round" stroke-linejoin="round" stroke-width="0.5"><title>2025-05-10 5.3km</title><desc>1746870058000</desc></polyline><polyline fill="none" points="35.2809315866034,256.2621190340069 35.21979621544597,256.09018507901055 35.333333333343035,256.22166401256254 34.87045123727876,256.30257403892756 24.171761280973442,257.2431482543252 19.63901018924662,256.7071231812006 11.333333333343035,257.0509886553773 19.595342066982994,256.7071231812006 21.717612809326965,256.8790560672496 23.647743813722627,257.2330346004819 32.40756914121448,256.44416642634314" stroke="#4DD2FF" stroke-linecap="round" stroke-linejoin="round" stroke-width="0.5"><title>2025-05-05 5.4km</title><desc>1746434825000</desc></polyline></svg>