<?xml version="1.0" encoding="utf-8" ?>
<svg baseProfile="full" height="300mm" version="1.1" viewBox="0,0,200,300" width="200mm" xmlns="http://www.w3.org/2000/svg" xmlns:ev="http://www.w3.org/2001/xml-events" xmlns:xlink="http://www.w3.org/1999/xlink"><defs /><rect fill="#222222" height="300" width="200" x="0" y="0" /><text fill="#FFFFFF" style="font-size:12px; font-family:Arial; font-weight:bold;" x="10" y="20">Over 3km Runs</text><text fill="#FFFFFF" style="font-size:4px; font-family:Arial" x="10" y="280">Runner</text><text fill="#FFFFFF" style="font-size:9px; font-family:Arial" x="10" y="290">tang-hi</text><text fill="#FFFFFF" style="font-size:4px; font-family:Arial" x="65" y="280">SPECIAL TRACKS</text><rect fill="yellow" height="2.6" width="2.6" x="65" y="283" /><text fill="#FFFFFF" style="font-size:3px; font-family:Arial" x="70" y="285.5">Over 20.0 km</text><rect fill="red" height="2.6" width="2.6" x="65" y="287" /><text fill="#FFFFFF" style="font-size:3px; font-family:Arial" x="70" y="289.5">Over 40.0 km</text><text fill="#FFFFFF" style="font-size:4px; font-family:Arial" x="120" y="280">STATISTICS</text><text fill="#FFFFFF" style="font-size:3px; font-family:Arial" x="120" y="285">Number: 79</text><text fill="#FFFFFF" style="font-size:3px; font-family:Arial" x="120" y="290">Weekly: 3.8</text><text fill="#FFFFFF" style="font-size:3px; font-family:Arial" x="141" y="285">Total: 414.7 km</text><text fill="#FFFFFF" style="font-size:3px; font-family:Arial" x="141" y="290">Avg: 5.2 km</text><text fill="#FFFFFF" style="font-size:3px; font-family:Arial" x="167" y="285">Min: 3.2 km</text><text fill="#FFFFFF" style="font-size:3px; font-family:Arial" x="167" y="290">Max: 11.5 km</text><polyline fill="none" points="20.946677335799905,51.375 20.99394840034074,50.736843743070494 21.175154147815192,50.60921194695402 21.96300522366073,45.385269052560034 22.112696928117657,43.41595507692546 21.316967341466807,36.67802140855929 21.167275637038983,36.067114706333086 20.828499674389604,35.483558149047894 20.883649249735754,35.37414087176876 21.28545329842018,35.43796763307182 21.096369040198624,33.56873652013019 20.718200523755513,33.15841227961937 20.75759307757835,32.19186331416131 20.379424561135238,31.125 20.733957545249723,31.982139049745456 20.726079034502618,33.149293941845826 21.104247550974833,33.60520969510981 21.30121031991439,35.40149520360137 21.20666819080361,35.474440047706594 20.883649249735754,35.35590464589768 20.836378185165813,35.46532194543397 21.30121031991439,36.54125161292177 21.52180862115347,39.285725608307985 22.081182885041926,42.65921644790069 22.120575438864762,44.00857725631795 21.190911169309402,50.79154302866664 21.00970542183495,50.84624228090979 20.923041803500382,51.27471860309015" stroke="#4DD2FF" stroke-linecap="round" stroke-linejoin="round" stroke-width="0.5"><title>2025-09-28 5.0km</title><desc>1759056716000</desc></polyline><polyline fill="none" points="44.36232466661022,31.125 44.41335172217805,31.833538184400823 44.52269541262649,31.84197312634933 44.45708919831668,32.6854629941372 44.01971443646471,35.5026570393602 43.866633269848535,35.83160460219369 43.866633269848535,36.63288167315477 43.210571127041476,40.61384889499459 43.268887761980295,40.97651227065944 42.751327627076535,44.560890683482285 42.78048594453139,45.91026365071593 43.40738976988359,51.307536310952855 43.84476453176467,51.375 43.487575142877176,48.37281280470779 43.553181357186986,48.187280822538014 43.16683365084464,45.66569142710068 43.13767533341888,44.55245703350374 44.311297611071495,36.211157862904656 44.48624751580064,35.89064633448288 44.420641301519936,35.64604459876864 44.748672372923465,33.09033508650464" stroke="#4DD2FF" stroke-linecap="round" stroke-linejoin="round" stroke-width="0.5"><title>2025-09-27 5.0km</title><desc>1758971882000</desc></polyline><polyline fill="none" points="65.94218392518815,51.375 66.02111112384591,50.76309122416569 66.22632184039685,50.54389900743263 67.12609190520016,43.657337956326955 66.26578543972573,36.377468152910296 65.83168584704981,35.49142114701681 65.89482760598185,35.37267191510182 66.21053640064201,35.50969024569349 66.28157087945146,35.445748384081526 66.1079310423811,33.64622304298973 65.72118776891148,33.15294584205549 65.76065136826946,32.138978644186864 65.36601537492243,31.125 65.76854408811778,32.12070885999856 65.74486592854373,33.1986197707447 66.13950192186167,33.71016618551948 66.2973563192063,35.43661382870778 65.89482760598185,35.37267191510182 65.8711494464078,35.518824793623935 66.33681991853518,36.61496380331664 66.66831415292108,40.08598243675078 67.13398462504847,43.282854653276445 67.03137926678755,45.091320564570196 66.2026436807937,50.59869711171632" stroke="#4DD2FF" stroke-linecap="round" stroke-linejoin="round" stroke-width="0.5"><title>2025-09-25 5.0km</title><desc>1758803583000</desc></polyline><polyline fill="none" points="89.35139060296933,31.125 89.3586801860074,32.69389784919622 88.72448645925033,36.35454419778398 88.71719687621226,37.484757235062716 88.14131981396349,40.5801126852748 88.18505731236655,40.968078255413275 87.6674969146843,44.75486439567612 87.91534273893922,47.959581913666625 88.34542813981534,51.375 88.76093437458621,51.3075363109092 88.03926565105212,44.704262601109804 89.8325030853448,32.58424466219731" stroke="#4DD2FF" stroke-linecap="round" stroke-linejoin="round" stroke-width="0.5"><title>2025-09-23 5.1km</title><desc>1758638106000</desc></polyline><polyline fill="none" points="111.09327638190007,51.375 110.99924221105175,51.33873003824556 111.02275075376383,50.58612500526215 111.19514673366211,50.42290861836227 111.57128341708449,48.192254742949444 112.11981608046335,43.395253229435184 111.27350854274118,36.367044198057556 110.83468241203809,35.460138177695626 110.92871658288641,35.351308835539385 111.29701708542416,35.38758529768529 111.12462110549677,33.59188270983577 110.7484844220744,33.16562476544641 110.76415678387275,32.07729736804322 110.35667537682457,31.125 110.77982914572931,32.158922383554454 110.75632060298813,33.17469410462945 111.1324572864396,33.573744115405134 111.10894874372752,34.1813850204926 111.31268944725161,35.37851618351124 110.93655276380014,35.333170598933066 110.87386331657763,35.45106907090667 111.34403417087742,36.54842429554992 111.67315376884653,40.0308506442816 112.14332462317543,43.13227215401275 112.01010954781668,45.12728163599968 111.30485326633789,49.79724303635885" stroke="#4DD2FF" stroke-linecap="round" stroke-linejoin="round" stroke-width="0.5"><title>2025-09-21 5.0km</title><desc>1758459157000</desc></polyline><polyline fill="none" points="123.6456002034829,34.921595951906056 123.625,35.517521505840705 124.27390640898375,35.48176605795743 124.44900813838467,35.62478778397781 124.81981180066941,35.49368454177602 127.49783825024497,35.48176605795743 127.73474059003638,35.62478778397781 129.60935910482658,35.61286931348877 129.8874618515256,35.74397242247505 130.54666836222168,35.577113894680224 134.00750254333252,35.577113894680224 135.81002034590347,35.61286931348877 136.0057222787873,35.76780933563714 137.32413530012127,35.672461653943174 143.875,35.875075384945376 143.22609359113267,40.76153583967243 142.87589013233082,41.29784227415803 136.03662258398253,41.26208858814789 135.65551882004365,47.578404048093944 135.99542217707494,41.67921424702945 142.000381485268,41.71496780591406 142.88619023404317,41.88181760333828 143.20549338759156,40.83304350593971 143.45269582915353,38.83081237438455" stroke="#4DD2FF" stroke-linecap="round" stroke-linejoin="round" stroke-width="0.5"><title>2025-09-20 5.0km</title><desc>1758380898000</desc></polyline><polyline fill="none" points="156.95240899643977,31.125 156.8220650589501,31.284204328650958 156.8293063888268,31.85398572312988 156.93792633671546,31.92101856953377 156.87275436797063,32.742166515934514 156.4382745763869,35.59936248631857 156.2282760104281,36.353444619664515 156.2644826597534,36.93156958617328 155.75758956951904,40.37509956544818 155.63448696190608,40.551042492508714 155.6851762708975,40.95319634514453 155.19276584041654,44.51384805815178 155.22897248974186,45.86266657283704 155.83000286811148,51.375 156.19206936113187,51.36662287297804 156.271723989601,51.26609728218318 155.96034680560115,48.01570385150262 155.58379765285645,45.728623483664705 155.58379765285645,44.3462914233387 156.74241043048096,36.16911406820873 156.90171968741925,35.88423876924935 156.8365477186744,35.64963484303007 157.30723415958346,32.549448854675575" stroke="#4DD2FF" stroke-linecap="round" stroke-linejoin="round" stroke-width="0.5"><title>2025-09-18 5.2km</title><desc>1758195038000</desc></polyline><polyline fill="none" points="178.3044626210467,51.20163047154347 178.28869138640584,51.375 178.47006058492116,51.338501179729064 178.54891675818362,50.68151987792953 178.7224003393785,50.5628977417 179.5188476893527,45.10611006434192 179.6371319492755,43.53653781222965 178.79337089529145,36.41836572730972 178.34389070767793,35.49661242059665 178.4227468809695,35.32321222577593 178.80125651264098,35.4053492019375 178.64354416611604,33.64395090199832 178.24137768245419,33.169371354961186 178.28080576905631,32.16544481275196 177.8628680507536,31.125 178.3044626210467,32.201951429233304 178.28080576905631,33.17849790836772 178.64354416611604,33.61657138094597 178.8091421299614,35.414475527984905 178.4227468809695,35.34146489365958 178.3675475596392,35.48748610291659 178.74605719131068,36.153704855561955 178.88799830322387,36.829044845319004 179.14033805768122,39.68549427929247 179.62924633192597,42.89775055073551 179.6371319492755,44.32132736835774 179.23496546558454,47.250539425636816 179.06936750173918,48.254297273626435 178.87222706858302,48.436797494963685 178.66720101807732,50.30740337759198 178.485831819562,50.76364280349662" stroke="#4DD2FF" stroke-linecap="round" stroke-linejoin="round" stroke-width="0.5"><title>2025-09-16 5.1km</title><desc>1758026219000</desc></polyline><polyline fill="none" points="22.09828871159698,55.29166666666424 21.91703043988673,55.37556257639517 21.895279447286157,55.912494379990676 22.025785402947804,56.06350582063169 21.975033086840995,56.88567437441088 21.547263565618778,59.763199846180214 21.402256948233116,60.01487369022652 21.242749669152545,62.2127926624089 20.75697750094696,64.74619921203703 20.793229155271547,65.1991842462885 20.29295632537105,69.07462132640649 20.9744874270109,75.54166666666424 21.373255624785088,75.45779123838292 20.669973530515563,68.76425752206706 21.083242390013766,65.71927511076501 21.286251654324587,64.98108065103588 21.685019852098776,61.50812272166513 21.895279447286157,60.24137949406577 22.01853507204214,60.04843014480139 21.967782755935332,59.62058432742924 22.20704367462895,58.01824009840493" stroke="#4DD2FF" stroke-linecap="round" stroke-linejoin="round" stroke-width="0.5"><title>2025-09-14 5.0km</title><desc>1757842188000</desc></polyline><polyline fill="none" points="44.30331754492363,55.29166666666424 44.42708594314172,56.38684306009236 43.932012350298464,59.705981618615624 43.72087802391616,60.45571787236986 43.779121976025635,60.76740398303082 43.40781678140047,63.55567896494176 43.138438502908684,64.73498156259302 43.174840973020764,65.18142745590012 42.67248688614927,68.91294725786429 42.92002368255635,72.14735682390165 43.34957282929099,75.54166666666424 43.779121976025635,75.44901985441538 43.0365115867462,68.95506277613458 44.82751311385073,56.59745224652579" stroke="#4DD2FF" stroke-linecap="round" stroke-linejoin="round" stroke-width="0.5"><title>2025-09-13 5.1km</title><desc>1757760467000</desc></polyline><polyline fill="none" points="67.02013024414191,55.29166666666424 66.9838033458218,56.880575567192864 66.5769420847646,59.66319436555932 66.41710373217938,59.999456161036505 66.23546924063703,62.008591916535806 65.76321956259198,64.77422620464495 65.80681184056448,65.11046723332402 65.29823526425753,68.7165663831911 65.31276602356229,69.64958743341413 65.95938481349731,75.54166666666424 66.38804221356986,75.48283199954312 66.09742702706717,72.27207676746912 65.69783114566235,69.91015900122147 65.66876962699462,68.95192403632245 66.83849575259956,60.49543981520401 67.01286486448953,60.0162692149388 66.95474182721227,59.797699247712444 67.20176473571337,58.0743388996998" stroke="#4DD2FF" stroke-linecap="round" stroke-linejoin="round" stroke-width="0.5"><title>2025-09-11 5.0km</title><desc>1757592265000</desc></polyline><polyline fill="none" points="88.34498562806402,75.45976577869442 88.50227276279475,75.37786481584044 88.52586583301309,74.78635563794523 88.70674603799125,74.65895314980298 88.8168470323144,74.01283774095646 89.06064209114993,71.71044492995134 89.5482322088792,68.97115739626315 89.61114706276567,67.07817883880489 88.78538960532751,60.49794679916522 88.33712127129547,59.65149179859145 88.41576483866083,59.50586432480486 88.8011183188064,59.53316949418513 88.62810247056768,57.81292755501636 88.24274899042211,57.312321838348 88.29779948762734,56.402122452615004 87.88885293726344,55.29166666666424 88.2899351308588,56.28379585258517 88.25061334719067,57.35783156465186 88.62810247056768,57.77651996093482 88.79325396209606,59.56047465524898 88.40790048195049,59.50586432480486 88.33712127129547,59.62418666531448 88.60450940034934,59.97915274836123 88.82471138902474,60.65267426730861 89.16287872876273,64.27504092174058 89.61114706276567,67.20559211333602 89.5482322088792,69.08036647659901 88.60450940034934,75.48706608302746 88.43149355216883,75.54166666666424" stroke="#4DD2FF" stroke-linecap="round" stroke-linejoin="round" stroke-width="0.5"><title>2025-09-09 5.2km</title><desc>1757417515000</desc></polyline><polyline fill="none" points="111.95837379756267,55.29166666666424 111.90025081930798,55.93059666535555 112.06735438181204,55.97263136070251 111.96563916985178,57.00667814199551 111.580574438849,59.5707221338962 111.39167475947761,60.08352139818453 111.15191747416975,62.68109508296038 110.73052588175051,64.82466244849638 110.76685274316696,65.27018124589085 110.28007280020392,68.71656638539571 110.2655420556548,69.74204840821767 110.54889157469734,72.37294008406025 110.93395630567102,75.49123695455637 111.35534789809026,75.54166666666424 111.34081715351203,75.21387298901391 111.56604369429988,75.00374815410032 111.56604369429988,74.88607801360195 111.21730582468444,74.63392714941438 110.6578721588885,68.9351127997652 111.76220874596038,60.96620121366868 112.00196603129734,60.13396049842413 111.92931230846443,59.814512344339164 112.2344579443452,57.603561051684665" stroke="#4DD2FF" stroke-linecap="round" stroke-linejoin="round" stroke-width="0.5"><title>2025-09-07 5.0km</title><desc>1757247375000</desc></polyline><polyline fill="none" points="133.21637251848006,75.47715404763585 133.39955807186197,75.54166666666424 133.44734560747747,74.89653841164545 133.678318696504,74.5463240086392 134.44291926699225,69.43119636570918 134.58628187398426,67.4772336124297 133.7181416428648,60.370721555555065 133.25619546489906,59.495042739785276 133.33584135762067,59.37521234912856 133.7181416428648,59.43973642531637 133.55088526807958,57.64226283595053 133.17654957211926,57.15371257179504 133.21637251848006,56.23191244932241 132.91371812598663,55.29166666666424 133.21637251848006,56.13973192146659 133.18451416140306,57.14449461696495 133.55884985736338,57.586955391045194 133.7420354107162,59.42130097965128 133.31991217911127,59.34755915954884 133.28008923269226,59.47660730538337 133.57477903587278,59.91905669635162 133.7659291785385,60.591944339030306 134.05265439246432,63.716658491801354 134.57831728472956,67.29289533014526 134.57831728472956,68.38970259117923 134.02876062467112,72.31597950110881 133.6305311608594,74.8228091760102 133.44734560747747,75.08086123846442" stroke="#4DD2FF" stroke-linecap="round" stroke-linejoin="round" stroke-width="0.5"><title>2025-09-04 5.0km</title><desc>1756985562000</desc></polyline><polyline fill="none" points="156.84849425515858,55.34234004513564 156.9360787802434,55.29166666666424 156.98716975326533,55.40990450168465 156.9579749115801,55.91663617525046 157.03826072625816,55.91663617525046 156.97987104285858,56.82874540265766 156.5857406797295,59.396110233043146 156.3229871043004,60.426411981090496 156.3594806564215,60.83177310294559 155.7317915595777,64.69949440678465 155.768285111757,65.05416726664407 155.27197280258406,68.55014736134763 155.31576506517013,70.26430612015247 155.9142593202996,75.53322315725381 156.25729871043586,75.54166666666424 156.33028581470717,75.44034449707397 155.98724642460002,72.45128496325196 156.07483094974305,72.25707681365748 155.8412722160283,71.15937005072192 155.62960961359204,68.84569449588889 156.03103868715698,65.69595240539638 156.24270128959324,64.89372020792507 156.63683165272232,61.38914141810528 156.85579296553624,60.113944767275825 156.97987104285858,59.94504308158503 156.90688393855817,59.71702526156878 157.22802719741594,57.32702306796273" stroke="#4DD2FF" stroke-linecap="round" stroke-linejoin="round" stroke-width="0.5"><title>2025-09-02 5.1km</title><desc>1756811867000</desc></polyline><polyline fill="none" points="179.3378187759372,55.29166666666424 179.30842783715343,56.77955383502558 178.91899789805757,59.49169152318791 178.67652265296783,60.418389268772444 178.68387038767105,61.14103635301581 178.08870387700154,64.76267950912734 177.6257965909317,68.85171735571203 177.65518752968637,70.09284109689906 178.23565857100766,74.84464479734015 178.80878187753842,75.54166666666424 178.67652265296783,75.4736647884929 178.573654367181,74.66613826342655 178.35322232617182,72.55803231524624 178.41200420376845,72.3455186899082 178.0225742647017,69.8548187917404 178.00787879529526,68.65619618459459 179.19086408196017,60.290862664995075 179.35251424537273,59.950790771486936 179.44068706175312,58.47996391857305 179.87420340903918,56.13338894332992" stroke="#4DD2FF" stroke-linecap="round" stroke-linejoin="round" stroke-width="0.5"><title>2025-08-31 5.1km</title><desc>1756640573000</desc></polyline><polyline fill="none" points="21.901603684702422,79.45833333333576 21.967128077551024,81.09266817633033 21.51573781555635,83.91476848062302 21.36284756549867,84.16748919521342 21.290042684500804,84.67292831376835 21.224518291652203,85.96178412191512 20.81681095820386,88.75002455095091 20.70760363675072,88.93534234476829 20.751286565326154,89.33967063938326 20.256213374756044,92.81007410302118 20.285335327120265,94.24199438111827 20.8604938868084,99.23667575747095 21.41381098216516,99.70833333333576 21.297323172620963,99.52303960544668 21.01338413686608,96.29717793522286 20.656640220084228,94.14934146404994 20.656640220084228,92.5573797232355 21.217237803561147,89.15435374902154 21.632225625100546,85.59955869638361 21.967128077551024,84.20960923942039 21.916164660884533,83.88949636681355 22.243786625214852,81.44648900320317" stroke="#4DD2FF" stroke-linecap="round" stroke-linejoin="round" stroke-width="0.5"><title>2025-08-30 5.0km</title><desc>1756550382000</desc></polyline><polyline fill="none" points="43.34068585943896,99.6992250502226 43.61618576172623,99.70833333333576 44.49778544920264,93.5782494937157 44.623728261649376,91.52872229258355 44.10421416015015,87.86678366334672 43.88381423827377,85.0974570586186 43.750000000029104,84.48710053870309 43.348557285178686,83.85852007500216 43.403657265676884,83.71276165642485 43.812971406267025,83.77653099372401 43.61618576172623,81.92720178259333 43.25410017580725,81.5536873080564 43.27771445317194,80.45135502248013 42.876271738350624,79.45833333333576 43.28558587896987,80.49690621205082 43.2383573242696,81.50813665582973 43.61618576172623,81.95453204886871 43.79722855470027,83.75831118770293 43.403657265676884,83.72187156452856 43.348557285178686,83.8403002856503 43.67915716799325,84.35956283022824 43.8916856640717,85.23410347106255 44.119957011716906,88.10362999181234 44.623728261649376,91.40119460657297 44.52927115233615,93.3323087044264 43.72638572266442,98.84304230577982" stroke="#4DD2FF" stroke-linecap="round" stroke-linejoin="round" stroke-width="0.5"><title>2025-08-28 5.0km</title><desc>1756381580000</desc></polyline><polyline fill="none" points="66.93515557117644,79.45833333333576 67.10191301180748,80.32245712105214 67.07291171781253,81.11106705383281 66.62339166051243,83.92986651458341 66.46388454339467,84.2234859247983 66.4421335728548,85.14628298883326 65.80410510447109,88.90447724601836 65.85485736903502,89.38262809123262 65.36908569416846,92.54506486220635 65.33283407666022,93.82845957020618 65.44883925272734,93.96266962989466 65.4053373116767,94.50789575513772 65.95636189804645,99.26379259350506 66.56538907243521,99.70833333333576 66.36963033780921,99.5321948357232 65.69535025188816,93.97944587202073 65.6663489578932,92.897371277395 66.16662127969903,89.36585091545567 66.28987677930854,89.1896903640154 66.40588195534656,87.71328240038565 66.91340460069478,84.81072161319753 66.87715298315743,84.4164352544758 67.01490912970621,84.23187503546069 66.9569065416872,83.98020134477702 67.16716592333978,82.53725737894274" stroke="#4DD2FF" stroke-linecap="round" stroke-linejoin="round" stroke-width="0.5"><title>2025-08-26 5.0km</title><desc>1756206850000</desc></polyline><polyline fill="none" points="89.38704296731157,79.45833333333576 89.40160394940176,80.14913858930959 89.51809180632699,80.17441184319614 89.45256738681928,81.03369789141288 89.04485988774104,83.83052807058266 88.90653055769508,84.14221715772146 88.73907926341053,86.03759854477539 88.2367253806442,88.89322469971376 88.1566399790463,90.2157085146755 87.78533493523719,92.70057329871634 87.8508593547449,94.57891320648196 88.41145716595929,99.59041919071751 88.43329863913823,99.70833333333576 88.87012810242595,99.65779872129497 88.5570669870649,96.38982845287683 88.1712009611656,94.16618745587766 88.13479850586737,93.03749838575459 88.60074993339367,89.59237482153549 88.76820122767822,89.11223621520912 89.32879903886351,84.52129690094444 89.49625033311895,84.18433721474867 89.43800640469999,83.91476847994636 89.71466506476281,81.81715682105278" stroke="#4DD2FF" stroke-linecap="round" stroke-linejoin="round" stroke-width="0.5"><title>2025-08-24 5.0km</title><desc>1756042259000</desc></polyline><polyline fill="none" points="110.99184401956154,99.70833333333576 111.21773050245247,99.3816052858092 112.00026581811835,94.05110643247463 112.1454785571259,91.70782954551396 111.71790771454107,89.00971955758723 111.29033687195624,84.89238163970731 110.82242915747338,83.94004590071563 110.93537239890429,83.80933238131547 111.28226949757664,83.84667912013538 111.10478726102156,82.01667105397064 110.71755329036387,81.57783716721315 110.78209228545893,80.63480405853625 110.3464540684945,79.45833333333576 110.75789016232011,80.45740070806642 110.73368803912308,81.58717408023949 111.12092200980987,82.04468165637081 111.30647162074456,83.85601580244838 111.20966312810197,83.94938257354079 110.87083340372192,83.82800575262081 110.87083340372192,83.9587192454128 111.18546100493404,84.52825443518668 111.36294324146002,85.21916123484698 111.57269497556263,87.75866588260396 112.1535459315055,91.80118833390588 112.02446794128628,93.92974296208558 111.13705675859819,99.63365273921954" stroke="#4DD2FF" stroke-linecap="round" stroke-linejoin="round" stroke-width="0.5"><title>2025-08-23 5.0km</title><desc>1755956696000</desc></polyline><polyline fill="none" points="134.4649038228672,79.45833333333576 134.47223616973497,80.01830717311532 134.56755667948164,80.12012019508256 134.53089494499727,80.96855721697648 134.0909541308938,83.70046586040553 133.92964249904617,84.0483111678841 133.55569280710188,87.53516822186066 133.36505178769585,88.68893801564263 133.24040189033258,88.80770753080287 133.29906066559488,89.22339950406604 132.77113168869982,93.21902704547392 133.44570760359056,99.57261444059986 133.4677046443103,99.67440363080823 133.8636513769743,99.70833333333576 133.13774903371814,93.04936521779746 134.23026872202172,85.10880621206888 134.36958331314963,84.2434432669761 134.50156555735157,84.08224721784063 134.44290678217658,83.7598541861953 134.72886831130018,81.55397373587766" stroke="#4DD2FF" stroke-linecap="round" stroke-linejoin="round" stroke-width="0.5"><title>2025-08-21 5.0km</title><desc>1755781186000</desc></polyline><polyline fill="none" points="156.81447306307382,79.45833333333576 156.83632363329525,81.02592555844603 156.39931222959422,83.84077487132163 156.24635823830613,84.1357385817173 156.18080652775825,84.63296074802929 156.2609252850816,84.87735699157201 155.5835576094105,88.87186940470565 155.62725874979515,89.29322026039154 155.14654620570946,92.7482165717156 155.17568029928952,94.20601332388469 155.78749626444187,99.70833333333576 156.20994062133832,99.63249985517905 155.91859968553763,96.43900493557157 155.53985646902584,94.16388082916092 155.5180058988335,92.55440351409197 155.99143491950235,89.33535522827151 156.11525481721037,89.14996120954311 156.61781793145929,84.96163139137934 156.85817420348758,84.15259361920471 156.86545772687532,83.22556147172872 157.35345379431965,80.12414225262182" stroke="#4DD2FF" stroke-linecap="round" stroke-linejoin="round" stroke-width="0.5"><title>2025-08-19 5.3km</title><desc>1755607955000</desc></polyline><polyline fill="none" points="178.53058697926463,99.60859090302256 178.8832150483213,99.70833333333576 178.8832150483213,99.03733665461186 179.01643009661348,98.73810677925212 179.18098986218683,96.67067295093875 179.65899680019356,93.54222804412711 179.61197972431546,91.49281046255783 179.0791195311176,88.05584963107685 178.8361979724723,85.22637879832473 178.68731056549586,84.48272092785191 178.30333777927444,83.83881703135557 178.38953575165942,83.68464216916618 178.76567235865514,83.76626418823435 178.60111259308178,82.07032466597593 178.1936312688922,81.517096776377 178.22497598614427,80.44690849535982 177.84100319983554,79.45833333333576 178.25632070339634,80.49225571697025 178.20930362748913,81.508027438118 178.57760405514273,81.90707744893007 178.76567235865514,83.7571950786878 178.3738633930625,83.70278040208359 178.3346824964974,83.82067882610863 178.7891808965942,84.86361963608215 179.0242662759265,87.5933461122404 179.60414354500244,91.60163027876115 179.59630736568943,92.53566157512978 179.01643009661348,96.55279150843126 178.8440341517271,96.63440175443975 178.73432764137397,96.90643536871357 178.53058697926463,98.23938809048559" stroke="#4DD2FF" stroke-linecap="round" stroke-linejoin="round" stroke-width="0.5"><title>2025-08-17 5.0km</title><desc>1755429603000</desc></polyline><polyline fill="none" points="20.95875721646007,123.82945857521554 20.856428670929745,123.875 20.97450006962754,123.75659224742412 21.108314321551006,121.75274502034154 21.218514293665066,121.05138790704223 21.580599916400388,120.75080460699974 21.57272848978755,120.0585483241739 22.0607569378044,117.30768762372463 22.131599777058,116.06886185256735 21.273614279692993,108.88151266161731 20.82494296459481,108.00696695216175 20.91152865701588,107.90675804446073 21.289357132889563,107.9340877576833 21.12405717468937,106.16674914064788 20.74622869878658,105.6930235860782 20.769842978566885,104.6635728786714 20.368400222942,103.625 20.793457258318085,104.68179334802699 20.738357272202848,105.647472919969 21.116185748076532,106.09386844917026 21.30509998605703,107.92497785419982 20.903657230432145,107.87942832292174 20.84855724434601,108.01607684729242 21.320842839195393,108.99083027504093 22.131599777058,115.64073425866081 22.123728350445163,116.72471292347473 21.59634276953875,120.60506688652094 21.2027714404976,123.11900935259473 21.037471482297406,123.24652629439515 20.982371496240376,123.62907603127678" stroke="#4DD2FF" stroke-linecap="round" stroke-linejoin="round" stroke-width="0.5"><title>2025-08-16 5.1km</title><desc>1755350047000</desc></polyline><polyline fill="none" points="43.631875469873194,123.82032568986324 43.34837659751065,123.875 43.4822510649974,123.73831416218309 43.860249561519595,120.91342686724238 44.07287371577695,120.80407460218703 44.025623903697124,120.50335518571228 44.59262164845131,117.15892278576939 44.63199649186572,115.70993377610284 43.781499874719884,108.90210587184265 43.35625156617607,108.04539478429069 43.442876221612096,107.8813427908317 43.78937484341441,107.93602682201163 43.61612553251325,106.1405503621063 43.24600200468558,105.7212968716849 43.301126785430824,104.81898379400809 42.860128539497964,103.625 43.269626910740044,104.58201117647695 43.26175194204552,105.67572572193603 43.61612553251325,106.1040936147183 43.82087471810519,107.92691281912266 43.41137634689221,107.89045679834817 43.37200150350691,108.01805280624103 43.7106251566147,108.5648907826835 43.85237459282507,109.11172542296117 44.104373590496834,112.03723408333462 44.600496617145836,115.33629130269401 44.63987146053114,116.65770282162703 44.041373841057066,120.49424246035778 44.08862365313689,120.76762381754816 43.836624655494234,122.17096833043615 43.631875469873194,122.63570745163452" stroke="#4DD2FF" stroke-linecap="round" stroke-linejoin="round" stroke-width="0.5"><title>2025-08-14 4.9km</title><desc>1755170321000</desc></polyline><polyline fill="none" points="67.07716790036648,103.64194057478744 66.9014862223994,103.625 66.9527267118101,105.15810807799426 66.52816265673027,108.03790338344697 66.37444118855637,108.34281706249021 66.37444118855637,109.13897530040413 65.94255706356489,112.17955222811725 65.8034757352143,113.00955117787089 65.69367468648124,113.07730582946533 65.75955531571526,113.50077115451131 65.2544704915781,116.98157464131509 65.29839091107715,118.4636244847643 65.91327678391826,123.80725411975436 66.33052076905733,123.875 65.61315391742392,117.1678909261318 66.80632531348965,108.7154878224319 66.97468692154507,108.3682264853851 66.9014862223994,108.0717827362023 67.24552950839279,105.66631447819964" stroke="#4DD2FF" stroke-linecap="round" stroke-linejoin="round" stroke-width="0.5"><title>2025-08-12 5.0km</title><desc>1754999139000</desc></polyline><polyline fill="none" points="89.29603078708169,103.69284739669092 89.39131132711191,103.625 89.39864059945103,105.0582645318791 88.94422571620089,107.9756026967807 88.79031099771964,108.26393872302287 88.6363962792093,110.22290123873972 88.15266430674819,113.06373923794308 87.66160306197708,117.15946388487646 87.70557869583718,118.41442832928442 88.21862775753834,122.6625125931314 88.75366463616956,123.875 88.03539594978793,117.2103411886128 89.1201282516704,109.38335150372586 89.38398205480189,108.29786054295982 89.31801860401174,108.06040751375986 89.62584804103244,105.77064721370698 89.83839693805203,104.90561030903336" stroke="#4DD2FF" stroke-linecap="round" stroke-linejoin="round" stroke-width="0.5"><title>2025-08-10 5.0km</title><desc>1754830447000</desc></polyline><polyline fill="none" points="110.96204533151467,123.875 112.05863982258597,117.3476582725416 112.12964234358515,115.81389237441908 111.54584383754991,111.76937217336672 111.26972292253049,108.82031823752914 110.8279294584936,108.03510488766915 110.8910428105155,107.8707570384795 111.29339042952051,107.95293100068375 111.11982871152577,106.14508646004106 110.74114859948168,105.69768497010955 110.7648161064717,104.67504462136276 110.36246848743758,103.625 110.78059444451355,104.71156769151276 110.74903776848805,105.70681563505786 111.11982871152577,106.15421707947098 111.30916876750416,107.92553968831635 110.90682114849915,107.90727880874329 110.85948613449,108.0077136003747 111.30916876750416,108.97553401718324 111.6720705415355,112.56368283891061 112.09808566755964,115.17481551993114 112.13753151256242,116.6264263803896 111.22238790852134,123.10817604813928 110.96993450049195,123.37291362843098" stroke="#4DD2FF" stroke-linecap="round" stroke-linejoin="round" stroke-width="0.5"><title>2025-08-09 5.0km</title><desc>1754735080000</desc></polyline><polyline fill="none" points="134.3580746242951,103.625 134.4020318260591,105.04918742838345 134.1163100146514,107.28714712840883 133.75,108.82994802819303 133.66941179678543,110.22861649918923 133.17855637715547,113.09369447517383 133.20786117835087,113.53446697207255 132.70967955846572,116.89104270260577 132.69502715786803,118.04377494568325 133.32508038304513,123.4003806296605 133.81593580261688,123.875 133.0979681739409,118.34890728651953 133.1345991754206,116.54352471210586 134.18224581726827,109.33855745742767 134.31411742253113,108.51630400151043 134.4386628275097,108.3552430972486 134.3800532251771,108.00768956038519 134.80497284216108,105.13395972298167" stroke="#4DD2FF" stroke-linecap="round" stroke-linejoin="round" stroke-width="0.5"><title>2025-08-07 5.0km</title><desc>1754570205000</desc></polyline><polyline fill="none" points="156.6009499275824,103.625 156.64623378921533,104.20139195431693 156.797179994639,104.26252420761011 156.74434882277274,104.67298249636224 157.15190357741085,104.73411441423377 157.19718743901467,105.10963809853274 156.7820853741141,107.18808835509844 156.66132840976934,108.29715679342917 156.74434882277274,108.59407032508898 156.61604454813641,108.71632854002382 156.374530619476,110.13975067385763 155.31035987118958,117.87646739178308 155.96697586483788,123.875 155.30281256095623,117.7367585894317 155.77074579778127,114.20030393260095 155.94433393402142,113.72003343998949 156.35943599892198,110.13975067385763 156.5707606865326,108.82112115729251 156.70661227140226,108.58533758878184 156.6537810995069,108.24476018140558 157.06888316440745,105.18823587136285" stroke="#4DD2FF" stroke-linecap="round" stroke-linejoin="round" stroke-width="0.5"><title>2025-08-05 5.0km</title><desc>1754406000000</desc></polyline><polyline fill="none" points="178.44336346868658,123.875 178.79380521870917,120.97188671442564 179.0088490198832,120.80599171976792 179.34336159945815,118.55716296354512 179.59026374149835,116.75068635734351 179.60619291197509,115.62622866457968 179.02477819033084,111.63521296084218 178.80176980397664,108.98058328476327 178.60265517322114,108.28926071561727 178.30000093459967,107.85602921845566 178.37168220162857,107.71776341115765 178.7619468778139,107.75463431374374 178.57876141756424,105.93872454357188 178.20442591185565,105.5423536147864 178.23628425280913,104.41775689327187 177.8938070879958,103.625 178.2442488379893,104.53759163432551 178.20442591185565,105.45017408059357 178.59469058804098,105.92950663466763 178.76991146302316,107.7454165895033 178.666371855099,107.83759378964896 178.28407176418114,107.76385203702375 178.79380521870917,108.84231919270678 179.12035321304575,112.33572727406863 179.60619291197509,115.65387943080714 179.59822832673672,116.79677039155649 178.666371855099,123.17457482402824 178.61858434372698,123.33124934621446 178.41150512779132,123.34046548612969 178.33185927549493,123.69067810969864 178.10885088911164,123.67224590006663" stroke="#4DD2FF" stroke-linecap="round" stroke-linejoin="round" stroke-width="0.5"><title>2025-08-03 5.0km</title><desc>1754221111000</desc></polyline><polyline fill="none" points="31.375,136.82106574964382 31.31274019983539,137.0792182053865 31.15190238278592,137.09422699969946 27.99221752496669,137.03119001233244 27.90661029977491,136.9771582018202 27.78209069946024,137.0281882476702 27.37999615680019,137.0251864827096 27.34627209836617,136.99216704798528 26.627690238281502,137.03419177668366 26.27488470406388,136.98015997166294 25.136049192922655,136.9771582018202 24.6431591083674,136.89911207883233 24.308512682531727,136.8120603906973 24.28775941581989,136.77904071775993 23.82340507300978,136.76403176330678 22.803900845494354,136.58392371511763 21.3044773251313,136.571916472858 18.175922367401654,136.9621493480281 17.753074558029766,137.15726385256494 17.299096848568297,137.29534410786255 16.079842428895063,138.03676400788936 15.433897002294543,138.36394339094113 15.036990776323364,138.4780050764548 14.80351652574609,138.481006693808 14.507782475018757,138.40896779309696 14.193889315894921,138.53803736564805 14.087528823962202,138.32792381983745 13.9604150653322,138.4119694174642 13.856648731743917,138.21686319913897 12.090026902369573,139.26141686047413 11.95513066870626,138.9222411282044 11.410357417364139,137.88067715409306 11.358474250562722,137.84465699380053 11.125,137.95872068406788 11.278055342030711,137.84165531180042 11.353285933888401,137.83265026395202 11.376633358944673,137.7576080918061 11.470023059184314,137.76361147259013 11.594542659498984,137.67956403057906 11.630860876248335,137.72158778147605 11.724250576473423,137.6615538333317 11.693120676398394,137.71858608696311" stroke="#4DD2FF" stroke-linecap="round" stroke-linejoin="round" stroke-width="0.5"><title>2025-08-02 8.3km</title><desc>1754134728000</desc></polyline><polyline fill="none" points="44.29127072985284,127.79166666666424 44.182290046010166,127.81688768121239 44.1169016356871,128.4978521673911 44.66180505498778,128.4978521673911 44.66180505498778,129.0443010967938 42.84546032396611,141.06526468157972 42.85272570286179,142.33450927591912 43.60832511098124,148.04166666666424 42.88905259751482,142.49421417090343 42.83819494501222,141.2585945848623 43.913471025793115,133.57548472448252 44.182290046010166,132.53308226559602 44.109636256762315,132.29769924789434 44.45110906616901,129.8177303356424" stroke="#4DD2FF" stroke-linecap="round" stroke-linejoin="round" stroke-width="0.5"><title>2025-07-31 5.0km</title><desc>1753965181000</desc></polyline><polyline fill="none" points="65.84906562248943,148.04166666666424 65.93639786314452,147.3067187837005 66.15869811206358,147.0402987006746 66.96850616164738,141.4636705396333 67.05583840227337,139.40565165776206 66.64299508286058,136.90656572954322 66.20633387970156,132.78108518826048 65.78555126566789,131.97250568099844 65.87288350632298,131.853055822241 66.22221246888512,131.89899809428607 66.07136587140849,130.0704776306593 65.66646184661658,129.62942192948685 65.71409761425457,128.60947237451182 65.39652583008865,127.79166666666424 65.72203690884635,128.62784994584217 65.69027973039192,129.64779929334327 66.07136587140849,130.12560944190773 66.25396964728134,131.88062118828384 66.15075881744269,131.97250568099844 65.83318703327677,131.84386736500892 65.80142985488055,131.98169412514835 66.27778753111488,133.03835896871897 66.5556628422346,136.12558720532252 67.10347416991135,140.06716283717105 66.53184495840105,144.8262255677182 66.11106234442559,147.46289570871159 65.96021574694896,147.5272037759205" stroke="#4DD2FF" stroke-linecap="round" stroke-linejoin="round" stroke-width="0.5"><title>2025-07-29 5.0km</title><desc>1753797916000</desc></polyline><polyline fill="none" points="89.61854557064362,127.79166666666424 89.60394816609914,129.33719081247546 89.26820786148892,131.70187158935005 89.00545457960106,132.4872685371156 88.83028572503827,134.64918310086796 88.3412726726383,137.23327284228435 88.3996622908453,137.689280341845 87.91794794073212,140.88970705092652 87.94714274985017,142.58698099272442 88.54563633631915,148.04166666666424 87.9836362611968,143.3047232325116 87.88145442938549,141.5061339314052 88.34857137495419,137.36838643620285 88.99815587734338,133.23887802255922 88.93246755684959,133.02775244894292 89.24631175468676,131.74409742044372 89.60394816609914,128.88958295055636" stroke="#4DD2FF" stroke-linecap="round" stroke-linejoin="round" stroke-width="0.5"><title>2025-07-27 5.0km</title><desc>1753616848000</desc></polyline><polyline fill="none" points="111.82837991471752,127.79166666666424 111.84993444569409,129.5708083189893 111.4547680443502,132.38077568043082 111.29670148377772,132.6800564590376 111.07397133027553,135.1241418504069 110.67162008525338,137.35202004337043 110.70035945987911,137.77597506999882 110.17586587264668,141.23403602620965 110.82968664579676,148.04166666666424 111.26077726547373,147.97517240162415 110.95182898803614,144.642078169265 110.5997716486454,142.3063377543658 110.58540196131798,141.05947395032126 111.57691038653138,134.06837242241454 111.90741319500376,132.6717431188663 111.83556475839578,132.34752219300572 112.32413412735332,129.38790769022307" stroke="#4DD2FF" stroke-linecap="round" stroke-linejoin="round" stroke-width="0.5"><title>2025-07-26 5.2km</title><desc>1753529066000</desc></polyline><polyline fill="none" points="134.4489272122737,127.79166666666424 134.36156131071039,128.22973896010808 134.47804917942267,128.7941748487574 134.33971983531956,130.12521740114607 134.03393917999347,132.19755757776875 133.87376836049953,132.49239851625316 133.8519268851087,133.37691504170652 133.2039631154621,137.26025214976835 133.2549265579728,137.6308865327519 132.77441409957828,141.1602536998398 132.83993852572166,143.0385907466698 133.41509737746674,148.04166666666424 133.83008540974697,147.9995544921112 133.50246327900095,144.94215350862942 133.57526819696068,144.78212115284987 133.16028016468044,142.40686778723466 133.1529996728641,141.2781774563482 134.72558590042172,130.26842956711334" stroke="#4DD2FF" stroke-linecap="round" stroke-linejoin="round" stroke-width="0.5"><title>2025-07-24 5.0km</title><desc>1753356656000</desc></polyline><polyline fill="none" points="155.89482724491972,148.0051349163623 155.99743270751787,148.04166666666424 156.34471273468807,145.15561264267308 156.57360184349818,145.00948085990967 156.51835274827317,144.72634985460172 157.11030734004453,141.0638329006033 157.1497709795076,139.95865507539565 156.55781638770713,136.0584561026044 156.31314182313508,133.17201716911222 155.83957814972382,132.1763569108225 155.91061270073988,132.0302040174647 156.29735636734404,132.10328049385862 156.09214544217684,130.26721600757446 155.75275814288761,129.90182556280342 155.7843290544697,128.91526393766253 155.3502290204924,127.79166666666424 155.74486541500664,128.69602654946357 155.73697268712567,129.86528643659403 156.10003817008692,130.24894652063085 156.3052490952541,132.0484731421384 156.20264363265596,132.1489532614214 155.92639815647271,132.0393385802745 155.83957814972382,132.1489532614214 156.11582362584886,132.54173810387147 156.31314182313508,133.19942050643294 156.66831457818625,136.8348558115904 157.12609279580647,139.80338106879208 157.1182000679546,141.01816466465243 156.25789272788097,147.00050596432266" stroke="#4DD2FF" stroke-linecap="round" stroke-linejoin="round" stroke-width="0.5"><title>2025-07-22 5.0km</title><desc>1753184035000</desc></polyline><polyline fill="none" points="168.625,141.25647616150673 168.625,138.00704330814187 170.77792758098803,128.90847321634647 188.1885593221523,132.08577813737793 188.875,132.84399443047005 186.53486132528633,146.88875604674104 170.90273497696035,144.43367066278006 170.34110169508494,143.71158349802135 172.2756163328886,129.66669629013631 172.96205701073632,129.233426160441 177.111902927747,129.9194369551842 188.84379815112334,132.51904478878714 186.78447611723095,146.5999233525945 186.12923728814349,146.92486011693836 170.59071648691315,144.28925334723317 170.77792758098803,139.6678682571801 172.3068181819981,129.73890792712336 172.80604776588734,129.30563788540894 180.48170261958148,130.6054464254412 172.65003852092195,129.37784959573764 171.77638674899936,133.34947106035543 172.55643297394272,134.1076846566575" stroke="#4DD2FF" stroke-linecap="round" stroke-linejoin="round" stroke-width="0.5"><title>2025-07-20 4.9km</title><desc>1753020627000</desc></polyline><polyline fill="none" points="22.41391049377853,151.95833333333576 22.26114724148647,152.99367781259934 21.693740875751246,154.44987213323475 21.213627797056688,156.6383241299991 21.082687866466586,158.3637936023806 20.63167255013832,161.2507182696354 20.52983038194361,161.34330019509798 20.58075146607007,161.7557093335563 20.10791282792343,165.16431852736423 20.086089506192366,166.2920744076473 20.73351471836213,172.19991790218774 20.66077031250461,171.0385802090168 20.740789158968255,172.20833333333576 21.155432272382313,172.12417898335116 20.45708597608609,165.53462812048383 21.570075385796372,157.4042686723551 21.802857484522974,156.67199217074813 21.83195524686016,155.6871963260637" stroke="#4DD2FF" stroke-linecap="round" stroke-linejoin="round" stroke-width="0.5"><title>2025-07-20 5.0km</title><desc>1752942252000</desc></polyline><polyline fill="none" points="44.62316423584707,151.96739476405492 44.49786712578498,151.95833333333576 44.302090391283855,152.95508519276336 44.521360333950724,153.0910050377206 44.50569819516386,153.38096668135404 44.23161076687393,155.229449998973 44.08282044864609,155.54658789440873 43.69909804902272,159.16188020655682 43.3780242044304,160.63876197811624 43.40934848197503,161.07366728738998 42.85334255595808,165.23234223999316 43.605125216417946,172.20833333333576 42.908160041610245,166.39202530867624 42.89249790285248,164.63437476780382 43.40934848197503,161.1280303019812 43.38585527378018,160.64782252701116 43.95752333855489,157.20474767244013 44.074989379238104,155.53752682733466 44.23161076687393,155.21132779946493 44.64665744401282,152.24829865960055" stroke="#4DD2FF" stroke-linecap="round" stroke-linejoin="round" stroke-width="0.5"><title>2025-07-17 5.0km</title><desc>1752765839000</desc></polyline><polyline fill="none" points="74.93834459467325,171.78102486135322 75.3944256757386,171.147729110613 76.375,162.8883556064975 61.71199324319605,162.22864990736707 59.06672297301702,162.43975591348135 59.38597972970456,162.22864990736707 58.90709459455684,159.24675923737232 56.1934121621307,154.9717765894893 56.125,152.5703665727924 56.44425675668754,152.38564180533285 69.19172297301702,152.59675581450574 68.27956081088632,160.90923348083743 67.70945945940912,161.278670756059 59.75084459455684,161.01478704169858 58.88429054047447,158.24399184860522 56.64949324319605,155.39400023058988 56.37584459455684,153.88982537516858 59.54560810804833,153.6523232856125 68.78125,153.9689926901192 68.9180743242614,155.94816771752085 68.09712837846018,162.38697942806175 66.86570945940912,162.46614415216027" stroke="#4DD2FF" stroke-linecap="round" stroke-linejoin="round" stroke-width="0.5"><title>2025-07-15 4.1km</title><desc>1752589649000</desc></polyline><polyline fill="none" points="89.56378772997414,151.95833333333576 89.62549675215269,153.39535363608593 89.14725183026167,156.3942768101915 88.97755201926338,156.74235947642592 88.9698383914947,157.62594774319587 88.29103914753068,161.76709150535316 88.32189365863451,162.23117304103653 87.80508059787098,166.07760065941693 88.42217081965646,172.20833333333576 88.06734394212253,169.78107837651623 87.7973669701023,165.88126736420963 88.95441113595734,157.56347209710657 88.88498848601012,157.27786857770116 89.11639731915784,156.4567532877336 89.57150135777192,153.48460878009791 89.51750596333295,153.17221537927253 89.7026330298977,152.2261028737339 89.53293321892852,152.01188730671856" stroke="#4DD2FF" stroke-linecap="round" stroke-linejoin="round" stroke-width="0.5"><title>2025-07-13 5.0km</title><desc>1752418082000</desc></polyline><polyline fill="none" points="111.07413868478034,172.20833333333576 110.9702206349175,172.19908356248925 111.03417020407505,171.4683486971262 111.38589283448528,169.24835869404342 111.59372893426917,169.06335708308325 111.95344526082044,166.54729784084338 112.14529396826401,163.9479135890142 111.61771002269234,160.3308532453011 111.34592435375089,157.3057332920216 111.18605043084244,156.7136491162455 110.85031519271433,156.17706950378488 110.92225845804205,156.03829839933314 111.3059558730165,156.0938068665273 111.138088253967,154.33602229462122 110.75439083896345,153.854938492339 110.77837192744482,152.75398714138282 110.50658625850338,151.99534064147883 110.33871863942477,151.99534064147883 110.482605170022,151.95833333333576 110.75439083896345,152.63371433779685 110.74639714282239,153.8641901279334 111.09811977323261,154.18799678026699 111.138088253967,154.3730286355858 111.3059558730165,156.06605263715755 110.914264761901,156.04754981287988 110.82633410429116,156.14931529985915 111.17805673470139,156.6581410272338 111.33793065760983,157.2224716876226 111.66567219956778,160.82115373582928 112.16128136057523,163.8831592968636 112.15328766443417,165.067230500179 111.17805673470139,171.7273440040808" stroke="#4DD2FF" stroke-linecap="round" stroke-linejoin="round" stroke-width="0.5"><title>2025-07-12 5.1km</title><desc>1752325602000</desc></polyline><polyline fill="none" points="133.62799282599008,172.20833333333576 133.43120706142508,172.19922505023715 133.87200717403903,169.16611530337104 134.053050077433,169.07502933913202 134.5568216346437,165.69567463974818 134.6355359404697,163.9922858280479 134.1711215361429,160.9406794554161 133.8169071599259,157.23306560555648 133.34462132499903,156.27653099280724 133.407592769654,156.1763220138091 133.801164298784,156.2400913770398 133.62012139539002,154.3907614140262 133.26590701920213,153.99902652210585 133.25016415806022,152.769150032349 132.85659262895933,151.95833333333576 133.2737784497731,152.86936282261013 133.26590701920213,153.98991638797452 133.62799282599008,154.39987150741945 133.82477859052597,156.21276165548625 133.446949922567,156.16721210106334 133.36036418622825,156.31297059372446 133.83265002109692,157.30594401451526 134.17899296671385,160.92246059783065 134.64340737101156,163.9285219818048 134.56469306524377,165.65012990566174 133.80903572935495,170.67812878763652" stroke="#4DD2FF" stroke-linecap="round" stroke-linejoin="round" stroke-width="0.5"><title>2025-07-10 5.0km</title><desc>1752149320000</desc></polyline><polyline fill="none" points="153.4101617091801,151.95833333332848 153.45759115874534,153.22061719134217 153.80145466781687,153.04225170990685 154.53661113564158,153.28921923683083 155.33105441526277,153.22061719134217 156.22035659401445,153.54990669188555 160.80915583629394,154.15360202401644 160.9395868224674,154.3319660374691 159.88428157038288,161.06846514584322 159.37441498792032,161.10962398539414 159.27955608884804,161.2879788117134 159.10169565310935,162.48157812526915 159.2321266392828,163.00291704428673 158.42582599725574,167.5439683139848 152.52085953048663,167.3656217486423 152.3192843699362,167.22843192279106 151.5604131774744,172.20833333332848 152.3548564570956,167.31074583501322 154.65518475940917,167.35190277229412 155.42591331433505,167.05008494082722 155.53262957575498,167.3656217486423 158.46139808441512,167.4616545438912 160.5008644143236,154.68869335757336 160.4415776024107,154.22220359556377 154.33503597509116,153.15201511095802" stroke="#4DD2FF" stroke-linecap="round" stroke-linejoin="round" stroke-width="0.5"><title>2025-07-08 5.1km</title><desc>1751976330000</desc></polyline><polyline fill="none" points="168.80536321137333,172.0239488536754 168.7619052210939,172.20833333332848 169.0371391599183,172.0909977791889 169.12405514053535,171.15231034158205 169.6310650278465,170.73325172513432 169.73246700526215,170.29742963473836 171.1955526798847,160.15585967614606 171.3259266508394,157.08812145628326 170.97826272825478,154.8249993075733 171.7749925510725,154.7914713385544 171.97779650596203,155.09322281416098 174.77359388425248,155.4955572560284 177.01892338495236,155.46202942339005 178.65584102092544,156.11582093096513 183.87079986114986,156.88695630065922 184.8268756486359,151.95833333332848 188.73809477884788,152.83007328840904 185.24696955515537,152.0086261483375 184.59509970014915,154.90881920022366 184.49369772261707,156.92048384365626 174.73013589391485,155.61290461673343 171.97779650596203,155.10998676884628 171.73153456073487,154.7411793722422 170.93480473791715,154.87529124827415 171.25349666702095,156.21640400974138 171.3114406541572,159.11652306416363 169.6745230181259,170.3477168578247" stroke="#4DD2FF" stroke-linecap="round" stroke-linejoin="round" stroke-width="0.5"><title>2025-07-06 5.0km</title><desc>1751807521000</desc></polyline><polyline fill="none" points="14.207201034587342,195.1198240629892 15.084559909126256,188.8807326178503 12.245107551570982,188.67768166244787 11.351796697592363,188.99148758876254 12.516291203675792,188.8807326178503 12.35677140840562,188.69614084958448 15.29193564306479,188.86227344948566 15.499311377119739,188.67768166244787 15.40359949984122,188.10544593058876 16.59999796503689,180.55545730235463 16.488334108318668,176.78957548586186 18.54613946855534,176.58651101209398 31.14820330234943,178.6540659495222 31.132251322851516,178.0448781014711 17.269981105579063,176.125 17.493308819131926,180.68467735149898 16.04167868127115,190.9481476059882 16.440478169708513,191.57575107150478 16.073582640383393,192.25872884955606 16.153342537989374,193.7354287803755 15.595023254223634,193.86463945315336 15.339791581674945,196.375 14.047681239200756,196.22733269286982 14.127441136923153,195.1382825954788" stroke="#4DD2FF" stroke-linecap="round" stroke-linejoin="round" stroke-width="0.5"><title>2025-07-05 4.8km</title><desc>1751729502000</desc></polyline><polyline fill="none" points="47.00924836716149,196.375 47.20965522469487,196.22853847968508 47.24129841267131,195.39858649109374 47.515539375599474,194.19026378462877 47.663207586389035,194.14144240968744 47.853066714596935,192.37165416883363 43.72890454129083,192.20077668228623 43.99259777489351,191.28535743585962 44.38286376057658,187.15978144797555 44.42505467799492,184.1448478230086 44.27738646714715,183.74203719334764 44.435602407262195,181.27631843235577 44.42505467799492,176.125 38.887496772629675,178.11475345976942 38.771471749816556,178.3955135630531 38.813662667234894,178.15137438003148 41.798670071410015,177.01612065742665 41.851408718153834,179.5307542427181 42.14674513973296,180.16550779337558 44.35122057254193,180.16550779337558 44.36176830192562,183.38805097907607 44.593818347435445,183.49790888138523 44.678200182155706,183.88851394230733 48.53866912191734,184.13264146015717 48.72852825012524,185.09694030343962 48.70743279141607,186.85462966580235 47.3784188941936,195.9234097387598" stroke="#4DD2FF" stroke-linecap="round" stroke-linejoin="round" stroke-width="0.5"><title>2025-07-03 5.2km</title><desc>1751545471000</desc></polyline><polyline fill="none" points="65.89514732849784,196.375 66.37616983873886,193.4094224857472 66.57331021176651,193.27254731281573 67.07798956678016,189.53121178525907 67.11741764139151,188.23539581305522 66.25788561490481,181.35448214061762 65.83994802407688,180.48748610340408 65.92668978817528,180.36884388896578 66.28154245967744,180.4327281777587 66.11594454629812,178.66220391168463 65.72954941514763,178.16937135520857 65.73743503005244,177.04679820675665 65.36681112876977,176.125 65.76897748975898,177.12893818157318 65.72954941514763,178.1876244611267 66.08440208659158,178.53443276802864 66.13960139104165,178.81735434159054 66.28154245967744,180.42360185356665 65.89514732849784,180.39622287543898 65.83994802407688,180.51486505368666 66.26577122983872,181.35448214061762 66.67582320576184,185.26042359226267 67.13318887120113,188.20801921753446 66.99913341752836,190.2521153910493 66.13171577613684,196.06475955482892" stroke="#4DD2FF" stroke-linecap="round" stroke-linejoin="round" stroke-width="0.5"><title>2025-07-01 5.0km</title><desc>1751376396000</desc></polyline><polyline fill="none" points="88.038358737831,196.375 88.1845863944618,196.19451492517692 88.15534086310072,195.528973675835 88.38930511369836,195.303365567117 88.55502979119774,194.42348956206843 88.80849106266396,191.3213069797057 89.15943743853131,190.1142525086616 89.54937785619404,186.94426190740342 89.45189275179291,185.12796314726438 88.90597616706509,181.89013945678016 88.53553277032916,177.96401048285043 87.95062214386417,176.50859979447705 88.4672931972309,176.6101406945818 88.48679021809949,176.125 88.48679021809949,176.5875760581257 88.038358737831,176.49731746652105 87.96037065429846,176.6101406945818 88.3308140510344,177.16297285366454 88.55502979119774,177.94144612175296 88.96446722972905,182.31884627733962 89.54937785619404,186.21097716593795 89.50063530396437,188.0272582023681 88.27232298837043,195.99146886531526" stroke="#4DD2FF" stroke-linecap="round" stroke-linejoin="round" stroke-width="0.5"><title>2025-06-30 4.1km</title><desc>1751292736000</desc></polyline><polyline fill="none" points="101.35235191634274,187.4983025804613 101.125,185.8550948953125 101.20339721255004,185.68260172280134 107.30270034843124,185.39208615091047 108.2748257839412,185.48287236892065 109.85844947735313,185.328535743276 112.23388501739828,185.35577163782 121.375,184.77473741456197 118.64677700347966,184.96538968684763 118.01175958191743,185.17419885019626 116.83580139372498,185.1197269417171 110.88545296166558,185.42840064923075 105.35060975607485,185.5282654432158 105.18597560975468,185.67352312553703 105.5701219511975,187.72526258543076 105.38980836234987,187.70710580631567 105.1702961672272,186.6358492878353" stroke="#4DD2FF" stroke-linecap="round" stroke-linejoin="round" stroke-width="0.5"><title>2025-06-26 5.0km</title><desc>1750950176000</desc></polyline><polyline fill="none" points="143.875,187.07877715588256 143.54803552207886,185.42122284411744 134.83624865443562,186.22055522028677 133.90621636170545,186.22896920412313 130.54938105487963,185.80826896116196 123.625,186.10275935634854 130.3168729816971,185.79985493442655 133.91348223897512,186.23738318713004 140.1112755651411,185.6736444305934" stroke="#4DD2FF" stroke-linecap="round" stroke-linejoin="round" stroke-width="0.5"><title>2025-06-24 5.0km</title><desc>1750769966000</desc></polyline><polyline fill="none" points="166.375,187.0609436127852 166.0978025936347,185.4390563872148 157.4755043227633,186.25845129606023 156.4250720460841,186.29224060293927 153.0257564841304,185.85297853924567 146.125,186.15708329282643 152.843389769434,185.85297853924567 156.4177773775009,186.29224060293927 163.7197406339692,185.6417940261017" stroke="#4DD2FF" stroke-linecap="round" stroke-linejoin="round" stroke-width="0.5"><title>2025-06-22 5.0km</title><desc>1750563938000</desc></polyline><polyline fill="none" points="179.44201795678237,196.375 178.39543249562848,190.12236129766097 178.3807607368508,188.41748897663638 178.473681875912,187.70380595649476 178.41499484071392,185.86857893816705 178.43455718577025,185.5513730600578 178.54215008363826,185.37011174486906 178.43455718577025,185.2851452997129 178.4296665994916,184.12392418762101 177.2412541366357,176.97479878388185 176.9429283743375,176.125 177.24614472288522,176.86715832413756 178.41499484071392,184.00496845871749 178.47857246219064,187.48290221087154 178.39543249562848,188.42315309090918 178.39054190934985,190.06572186149424 179.1925980571832,194.8685408870806 179.30508154130075,195.19702041601704 180.5570716256625,195.12905929348926" stroke="#4DD2FF" stroke-linecap="round" stroke-linejoin="round" stroke-width="0.5"><title>2025-06-21 8.0km</title><desc>1750517001000</desc></polyline><polyline fill="none" points="23.304420974920504,220.54166666667152 21.589079190045595,209.99352630718204 18.570609537593555,209.93192916398402 13.132045273843687,209.40835243277252 13.23842305893777,208.8539750922937 13.025667488691397,207.79141283605713 13.318206397758331,200.84607543422317 13.278314728289843,200.35326774134592 13.012370265554637,200.29166666667152 12.679939687077422,208.83857569270185 13.185234166390728,208.9001732816978 13.211828612606041,209.42375177434587 21.628970859514084,209.97812702375813 22.652857041102834,216.56887689877476 22.971990396501496,217.4465952564933 29.82006031292258,217.23101578142087" stroke="#4DD2FF" stroke-linecap="round" stroke-linejoin="round" stroke-width="0.5"><title>2025-06-19 5.0km</title><desc>1750345525000</desc></polyline><polyline fill="none" points="53.875,210.92361278111275 53.689130434795516,209.81909437544527 47.956521739135496,210.36286002612178 47.21793478258769,210.37985261695212 44.76250000001164,210.09664209107723 35.664673913037404,210.51012897424516 34.877173913031584,210.6404050261408 33.625,211.01423895788685 35.390760869544465,210.5384498810672 38.58967391305487,210.3968452026238" stroke="#4DD2FF" stroke-linecap="round" stroke-linejoin="round" stroke-width="0.5"><title>2025-06-17 5.1km</title><desc>1750166247000</desc></polyline><polyline fill="none" points="56.823275861970615,218.05825799338345 56.125,213.5704614129063 71.90603448275942,213.1055037099286 69.33987068966962,202.97724152702722 72.44719827582594,203.15919091927935 76.375,202.77507533994503 70.17780172417406,203.1389743283653 72.46465517242905,212.2564477006381 65.69137931033038,212.57989803754026" stroke="#4DD2FF" stroke-linecap="round" stroke-linejoin="round" stroke-width="0.5"><title>2025-06-16 3.2km</title><desc>1750084948000</desc></polyline><polyline fill="none" points="98.875,211.3527662370907 98.56471774197416,209.48056709624507 88.6111895161157,210.3977602848463 87.71300403226633,210.40721583752747 83.77731854838203,209.9249814231007 78.625,210.17082673188997 83.6140120967757,209.9155258212777 87.70483870970202,210.3883047312338 96.14778225813643,209.67913546282216" stroke="#4DD2FF" stroke-linecap="round" stroke-linejoin="round" stroke-width="0.5"><title>2025-06-15 4.6km</title><desc>1749956754000</desc></polyline><polyline fill="none" points="121.375,211.23106960279256 121.1284908700618,209.6022637305432 112.4571697100182,210.39987887744792 111.55088614395936,210.41667069227697 107.73724489795859,209.9884783450325 101.125,210.290731997673 107.86774973146385,209.9884783450325 111.49288399572833,210.41667069227697 113.38520408165641,210.3243156683966 113.74046723952051,210.2067727609683 118.33713748658192,209.79537126411742" stroke="#4DD2FF" stroke-linecap="round" stroke-linejoin="round" stroke-width="0.5"><title>2025-06-14 5.1km</title><desc>1749906363000</desc></polyline><polyline fill="none" points="143.875,211.61901257834688 143.63154172559734,209.97719620332646 135.23939179631998,210.78981652994844 134.10802687410614,210.79810853228264 130.67096888259402,210.3835073812079 124.19784299857565,210.69031243625068 124.11191654880531,210.49959591648803 124.1477192362072,209.22261291787436 123.625,209.21432075498888 124.1692008486425,209.23919724112784 124.11191654880531,210.49130388373305 124.21932461104007,210.69031243625068 130.84998231963255,210.37521533664403 134.26555869873846,210.80640053376555 141.06806930695893,210.19279014226777 141.060908769432,209.861106922639 143.24487270155805,209.74501747632894" stroke="#4DD2FF" stroke-linecap="round" stroke-linejoin="round" stroke-width="0.5"><title>2025-06-12 5.9km</title><desc>1749735885000</desc></polyline><polyline fill="none" points="166.375,216.78713254725153 165.72946985450108,213.53699158859672 147.99142411636421,215.1133182272897 146.321465696441,210.5468033921934 146.125,204.84253885202634 149.43685031181667,204.6962729748484 152.2575363824726,204.87504236205132 152.41190228692722,204.35498540630215 152.1172037422075,204.24122272108798 146.20919958414743,204.04620078607695 146.33549896045588,210.3842915573623 146.8266632016166,212.2369166546705 147.7949584199232,214.54454237122263 155.65358627855312,213.86200866574654 155.8079521828913,214.47953928704374 165.68737006239826,213.52074071731477 166.29080041585257,216.73838092225196" stroke="#4DD2FF" stroke-linecap="round" stroke-linejoin="round" stroke-width="0.5"><title>2025-06-10 5.3km</title><desc>1749559786000</desc></polyline><polyline fill="none" points="169.1566954239388,205.02518901095027 168.67057389358524,203.0549230415636 168.625,201.5244330627611 182.4035071269027,201.17259436751192 183.02635033760453,203.47712478545145 182.57061140291626,203.45953306677984 182.43388972250978,203.7761837291764 182.72252438112628,205.41220289799094 182.64656789205037,206.52046513787354 183.14788072026568,208.73696827155072 184.439141035371,208.68419471816742 186.35324456117814,216.05474478618999 186.38362715690164,216.38896274879517 185.89750562648987,216.52968590793898 186.3380532633746,216.40655314999458 186.48996624158463,216.68799932480033 186.0949924981105,216.75836079688452 186.2317141785752,217.4092030536849 187.14319204806816,219.73110679093224 187.78122655668994,219.6607465303823 188.875,219.062683158234 187.72046136541758,219.3089447976963 185.66963615908753,211.12935241467494 185.42657539393986,210.4257134613872 184.87968867225572,210.4257134613872 184.46952363097807,208.63142114861694 184.02897599403514,208.80733298431733 183.13268942246214,208.68419471816742 182.63137659424683,206.66119634169445 182.52503750944743,204.05765049702313 181.6895161290886,201.10222654242534 168.67057389358524,201.55961689284595 169.21746061521117,205.13073833889212" stroke="#4DD2FF" stroke-linecap="round" stroke-linejoin="round" stroke-width="0.5"><title>2025-06-08 5.0km</title><desc>1749355299000</desc></polyline><polyline fill="none" points="31.375,235.41661676637887 31.018844221078325,233.75004990028538 24.491744436440058,234.2971588926739 22.529253409884404,234.5749205324173 21.438980617385823,234.5749205324173 17.986450107680866,234.15406919852103 11.125,234.4570823751128 17.65936826990219,234.15406919852103 21.402638190978905,234.58333753720945 29.27440775305149,233.87630614329828" stroke="#4DD2FF" stroke-linecap="round" stroke-linejoin="round" stroke-width="0.5"><title>2025-06-07 5.3km</title><desc>1749293029000</desc></polyline><polyline fill="none" points="53.875,235.38554039194423 53.57602628739551,233.78112627472 44.33700936261448,234.62555863027956 40.588899891939946,234.19489920433261 33.625,234.4820057370307 40.559731724875746,234.17801055376913 43.892194814572576,234.62555863027956 51.03110370904324,233.9753464785972" stroke="#4DD2FF" stroke-linecap="round" stroke-linejoin="round" stroke-width="0.5"><title>2025-06-05 5.1km</title><desc>1749128617000</desc></polyline><polyline fill="none" points="56.408464566920884,234.4551587843671 56.125,232.5984619727169 56.231299212551676,232.51639723483822 64.177165354311,232.23942825052654 65.67421259841649,237.72737531901657 73.52263779524947,237.62479961320787 76.375,237.45042067342 74.02755905513186,237.53248138857452 73.59350393700879,231.43929134764767 66.08169291337254,231.88039324755664 64.46948818897363,231.82910242827347 64.61122047243407,232.23942825052654 60.44783464563079,232.36252567100018" stroke="#4DD2FF" stroke-linecap="round" stroke-linejoin="round" stroke-width="0.5"><title>2025-06-03 5.2km</title><desc>1748952979000</desc></polyline><polyline fill="none" points="95.37109290351509,228.54660303938 94.9268752055068,227.8891123355861 94.61198671074817,227.19906531547895 94.40955839271192,227.01027756910116 93.90911060635699,226.96470802956173 93.52674600554747,226.5220308123462 93.35243273168453,225.94263982332268 93.09377432524343,225.54552611272447 92.78450883927871,224.45833333333212 91.89045043449732,224.842433493297 91.47434778069146,224.8880045455735 90.39473008428467,225.2916324476755 89.93364335980732,225.8840494309734 89.93364335980732,226.03378032691035 88.0668044264894,228.40989760820594 88.05555840881425,228.54660303938 87.54386460481328,229.24965492587216 87.0996469068341,229.65976495648647 87.02092478313716,229.5881586327596 86.70603628834942,229.8615641647193 86.49798496143194,229.7378808545909 86.49236195263802,229.85505452279176 86.4642469084065,229.68580359980842 86.75664336787304,229.8941123644836 86.71165929720155,230.12845891361212 86.03689823695458,230.87706019185862 84.8841814257321,231.13744119093826 84.8841814257321,231.02026987257705 84.80545930203516,231.16347923253852 84.49057080724742,231.2350837922677 84.21504337430815,231.156969723128 83.7539566498308,231.1960267696195 83.67523452610476,231.12442216616546 83.48967523456668,231.22857429015858 82.93299735989422,231.0332889185447 82.8598982450203,230.18053580788182 82.6462239092798,229.99175686431772 81.59472125710454,230.25865106980564 81.20111063861987,230.4995058599634 81.65095134545118,232.44583966246864 82.35945045869448,234.6199351409523 83.85517080884892,240.4648913010824 84.06322213576641,241.07018475146106 85.8288469100371,244.64325199163432 86.05376726345276,244.70833333333212 86.82974248274695,244.46102388273357 87.3583053132752,244.61721943642988 88.3254628329305,244.41546677442966 88.30859380640322,244.03148414407042 88.56725221281522,243.95989390730028 89.0339619461447,244.17466437736584 89.3882115027809,244.0054513399773 89.53440973249963,244.22022165712406 90.44533716380829,244.4219749347285 90.97952300318866,244.324352460495 91.51933185136295,243.92084465346852 91.61492300155805,243.15937944053076 92.01977963771787,242.59966418905606 91.91294246981852,242.03994404107652 92.04227167303907,241.76659056125573 91.7667442400998,241.46069361575064 91.59243096623686,241.0050997089893 91.52495486018597,240.32821134228288 91.89045043449732,240.03532473296582 92.44712830916978,240.2631255449851 92.7563937951345,240.24359979286965 92.83511591880233,239.82054036723275 92.70578671561088,239.29984800266539 92.59894954771153,239.2542872191225 92.70578671561088,239.20221771249635 92.58208052124246,239.16316555470257 92.68329468023148,239.22174378245109 92.69454069793574,238.91583466842712 92.54834246821702,238.57738032700217 91.8848274256452,238.5318190289072 91.57556193970959,238.29750326896465 91.70489114290103,237.41230265207196 92.23345397342928,236.50756289255514 92.63831060956,236.0584427193462 92.82386990112718,235.99335257754137 93.22310352846398,235.44008369771473 93.92597963285516,234.7696455827936 94.55013361357851,233.98854376982126 94.37019733083434,233.6240263257132 93.81351945616188,233.61751706676296 93.74042034128797,233.40271114959978 93.95409467702848,232.88847587147757 94.20150706576533,232.65413943656677 94.43205042803311,232.68668621498364 94.52764157822821,232.56951773517721 94.33083626901498,232.12036990714478 94.59511768425,231.5670675215515 94.84253007301595,231.42385906537675 95.05058139993344,231.5084822827812 95.02246635573101,231.35225471705053 95.64662033645436,231.06583652188783 95.702850424801,230.89007926699924 96.24828228182741,230.55809202308228 96.29888936135103,230.08289159632477 95.5847672392556,228.7223667357357 95.47230706253322,228.67028865384418" stroke="#4DD2FF" stroke-linecap="round" stroke-linejoin="round" stroke-width="0.5"><title>2025-06-02 11.5km</title><desc>1748829019000</desc></polyline><polyline fill="none" points="121.375,235.5303059927537 121.00405911740381,233.63636067391053 110.30578684431384,234.6321510255002 105.87135720229708,234.1244944927239 101.125,234.3295099548268 105.93037052452564,234.10496918773424 109.81681931723142,234.61262582398922 120.98719816817902,233.6461233746886 121.36656952541671,235.4717309254993" stroke="#4DD2FF" stroke-linecap="round" stroke-linejoin="round" stroke-width="0.5"><title>2025-06-01 4.9km</title><desc>1748740054000</desc></polyline><polyline fill="none" points="143.875,244.34170333918883 143.80167471332243,244.4973731643404 143.65502413996728,244.38415876337967 143.16618889552774,241.66698544718383 127.71899517200654,243.01142680649355 126.28915208205581,239.0063683855842 126.22804767650086,233.96803894218465 125.88586300541647,232.0715417300089 123.625,224.66929350233113 125.11594749544747,229.62304059407325 125.51923657214502,230.3873172612075 126.17916415206855,233.2320878762839 126.83909173205029,233.41607600850693 126.1547223898815,233.40192308393307 126.28915208205581,238.53933991785743 126.75354556425009,240.4499009903666 127.56012371752877,242.44534782074334 127.76787869643886,242.57271579375083 134.3915962582687,241.89341858770058 134.57490947493352,242.431195816549 139.8421092334902,241.92172270431183" stroke="#4DD2FF" stroke-linecap="round" stroke-linejoin="round" stroke-width="0.5"><title>2025-05-31 5.5km</title><desc>1748696141000</desc></polyline><polyline fill="none" points="164.95487012987724,240.17184297612403 164.49464285717113,237.20255293362425 147.83441558445338,238.69481889541203 146.2959415584919,234.309341768967 146.125,229.0252799201844 151.77922077919357,229.08619236088998 146.20389610395068,228.99482369056204 146.30909090908244,234.23320387641434 146.71672077925177,235.86254630729672 147.74237012985395,238.20755001611542 162.49594155844534,236.79141581502336 163.81087662337814,236.71527918736683 163.87662337668007,237.27868931292323 166.375,237.08073464606423" stroke="#4DD2FF" stroke-linecap="round" stroke-linejoin="round" stroke-width="0.5"><title>2025-05-29 5.0km</title><desc>1748526381000</desc></polyline><polyline fill="none" points="180.9001584785292,232.59530129597988 180.450871632318,228.91617553641845 188.0566561014275,228.54454254326993 188.875,231.53616664196306 187.99247226619627,228.61886920247343 180.4187797147315,228.9719204200228 180.62737717904383,230.8114920178632 180.33854992076522,228.99050204409286 169.52357369248057,229.99390693256282 171.1442155308323,238.11385073687416 171.77000792388571,240.00907161053328 171.35281299520284,240.26919842838834 172.01069730578456,242.01575459481683 171.12816957209725,239.7117833643133 168.94591917586513,230.03106997058785 172.73276545165572,229.4922051786416 179.58438985736575,229.06482852154295 179.50416006339947,228.52596087371057 169.4433438985725,229.2134813854791 168.8817353406921,227.1509120718547 168.625,227.3738936631853 168.75336767034605,229.36213412818324 176.3431061806623,228.61886920247343" stroke="#4DD2FF" stroke-linecap="round" stroke-linejoin="round" stroke-width="0.5"><title>2025-05-27 6.0km</title><desc>1748352132000</desc></polyline><polyline fill="none" points="28.676537585415645,260.2590301211894 28.75726082007168,260.2056143343798 28.4977932801703,258.91026817022794 21.67667995445663,259.564621495505 20.886745444207918,259.5779755769472 18.04413439639029,259.24412272424524 11.25185079727089,259.54459036824846 11.125,257.32777443843224 11.932232346240198,257.2409698788106 13.045059794996632,257.32109716870036 13.050825740327127,259.24412272424524 18.211346810945543,259.0371331011702 21.348021070618415,259.34427875869005 28.486261389538413,258.6365061663673 31.253915148059605,258.5363490498421 31.375,258.7566945040453 31.29427676537307,258.78340299359843 28.739962984080194,258.89023684286803" stroke="#4DD2FF" stroke-linecap="round" stroke-linejoin="round" stroke-width="0.5"><title>2025-05-25 7.6km</title><desc>1748179850000</desc></polyline><polyline fill="none" points="53.861730013100896,259.86794212245877 53.808650065533584,259.42999063708703 53.54988532108837,259.42999063708703 53.384010484907776,258.6078643114597 53.251310615974944,258.4234609139312 46.848541939718416,258.96898632500233 45.800212975096656,259.1610717976364 41.593627129739616,258.7692169142683 33.73779488861328,259.1226547422775 33.625,257.7857290200409 35.575688073411584,257.63205787753395 35.562418086483376,258.7538500146111 35.82118283092859,258.78458381081145 41.334862385323504,258.54639656242216 45.32912844035309,258.89215199890896 53.62287024903344,258.09307036529935 53.875,259.7834253672554" stroke="#4DD2FF" stroke-linecap="round" stroke-linejoin="round" stroke-width="0.5"><title>2025-05-24 6.6km</title><desc>1748094255000</desc></polyline><polyline fill="none" points="76.375,259.65227791183133 76.15471394039923,257.84772208816867 67.81647864627303,258.5563214956055 66.65793714745087,258.7547283590393 65.33622078970075,258.7736242286119 61.5260878324043,258.31067431441625 56.125,258.52797762328555 61.50161160354037,258.30122633291467 65.28726833197288,258.7830721619903 73.9273771152366,258.05557847575255" stroke="#4DD2FF" stroke-linecap="round" stroke-linejoin="round" stroke-width="0.5"><title>2025-05-18 4.7km</title><desc>1747565909000</desc></polyline><polyline fill="none" points="96.24302175777848,259.4750439311465 96.02272401947994,258.1793650913678 90.15005010020104,258.6761568819202 89.17030489552417,258.8507044593571 88.38187088462291,258.84399109953665 85.69771686228341,258.49489544653625 78.66558116232045,258.81713765347376 78.625,258.6157364588653 82.58456198111526,258.3606273950354 85.26871600342565,258.3136335123563 88.40506012024707,258.81713765347376 96.09808903522207,258.1323710793513 98.68948611506494,258.0249560688535 98.7938376753591,258.03838295475 98.81122960205539,258.1323710793513 98.875,258.0920904709492" stroke="#4DD2FF" stroke-linecap="round" stroke-linejoin="round" stroke-width="0.5"><title>2025-05-17 5.7km</title><desc>1747487200000</desc></polyline><polyline fill="none" points="120.26839848424424,257.91284343197185 117.58670721980161,258.05315035773674 116.27817112085177,258.2869947572981 110.26859792578034,258.74532805207855 106.50453729555011,258.2589334608201 101.125,258.47406984795816 106.43184084564564,258.2776409927683 110.1232050259132,258.7359743342313 120.84997008374194,257.8005977369321 121.2053749501647,259.6152196434123 121.375,259.69940226307517" stroke="#4DD2FF" stroke-linecap="round" stroke-linejoin="round" stroke-width="0.5"><title>2025-05-11 5.0km</title><desc>1746965499000</desc></polyline><polyline fill="none" points="143.875,259.4775495903741 143.5481527976517,258.0224504096186 134.3601147775771,258.8551403641177 130.62679340026807,258.4261799216911 123.625,258.720564779047 130.45247489237227,258.434590932171 133.93884505017195,258.8551403641177 143.60625896698912,258.0392725120546" stroke="#4DD2FF" stroke-linecap="round" stroke-linejoin="round" stroke-width="0.5"><title>2025-05-10 5.3km</title><desc>1746870058000</desc></polyline><polyline fill="none" points="166.33078602619935,258.40866293494037 166.27920305676525,258.2635936604129 166.375,258.3745290105944 165.98444323145668,258.4427968453383 156.95742358081043,259.2364063395871 153.13291484717047,258.78413518413436 146.125,259.0742716779714 153.09606986900326,258.78413518413436 154.88673580787145,258.92920355673414 156.515283842833,259.2278729441532 163.90638646288426,258.5622654222243" stroke="#4DD2FF" stroke-linecap="round" stroke-linejoin="round" stroke-width="0.5"><title>2025-05-05 5.4km</title><desc>1746434825000</desc></polyline></svg>