<?xml version="1.0" encoding="utf-8" ?>
<svg baseProfile="full" height="300mm" version="1.1" viewBox="0,0,200,300" width="200mm" xmlns="http://www.w3.org/2000/svg" xmlns:ev="http://www.w3.org/2001/xml-events" xmlns:xlink="http://www.w3.org/1999/xlink"><defs /><rect fill="#222222" height="300" width="200" x="0" y="0" /><text fill="#FFFFFF" style="font-size:12px; font-family:Arial; font-weight:bold;" x="10" y="20">Over 3km Runs</text><text fill="#FFFFFF" style="font-size:4px; font-family:Arial" x="10" y="280">Runner</text><text fill="#FFFFFF" style="font-size:9px; font-family:Arial" x="10" y="290">tang-hi</text><text fill="#FFFFFF" style="font-size:4px; font-family:Arial" x="65" y="280">SPECIAL TRACKS</text><rect fill="yellow" height="2.6" width="2.6" x="65" y="283" /><text fill="#FFFFFF" style="font-size:3px; font-family:Arial" x="70" y="285.5">Over 20.0 km</text><rect fill="red" height="2.6" width="2.6" x="65" y="287" /><text fill="#FFFFFF" style="font-size:3px; font-family:Arial" x="70" y="289.5">Over 40.0 km</text><text fill="#FFFFFF" style="font-size:4px; font-family:Arial" x="120" y="280">STATISTICS</text><text fill="#FFFFFF" style="font-size:3px; font-family:Arial" x="120" y="285">Number: 19</text><text fill="#FFFFFF" style="font-size:3px; font-family:Arial" x="120" y="290">Weekly: 3.2</text><text fill="#FFFFFF" style="font-size:3px; font-family:Arial" x="141" y="285">Total: 110.2 km</text><text fill="#FFFFFF" style="font-size:3px; font-family:Arial" x="141" y="290">Avg: 5.8 km</text><text fill="#FFFFFF" style="font-size:3px; font-family:Arial" x="167" y="285">Min: 4.7 km</text><text fill="#FFFFFF" style="font-size:3px; font-family:Arial" x="167" y="290">Max: 11.5 km</text><polyline fill="none" points="52.75,54.12880587224208 52.25698174012359,50.871194127743365 34.91433942003641,52.4664244215528 33.10177228791872,52.5000080512109 25.47448979591718,51.643623356721946 12.25,52.24813066200295 25.73549946292769,51.643623356721946 32.98576799145667,52.5000080512109 36.77040816331282,52.31529800345015 37.480934479041025,52.08021218859358 46.67427497316385,51.25740919489181" stroke="#4DD2FF" stroke-linecap="round" stroke-linejoin="round" stroke-width="0.5"><title>2025-06-14 5.1km</title><desc>1749906363000</desc></polyline><polyline fill="none" points="97.75,54.90469182335073 97.26308345119469,51.62105907330988 80.47878359263996,53.24629972655384 78.21605374821229,53.262883731222246 71.34193776518805,52.43368142907275 58.395685997151304,53.04729153915832 58.22383309761062,52.66585849963303 58.29543847241439,50.11189250240568 57.25,50.09530817663472 58.33840169728501,50.145061148912646 58.22383309761062,52.64927443412307 58.43864922208013,53.04729153915832 71.69996463926509,52.41709733994503 78.53111739747692,53.279467734188074 92.13613861391786,52.0522469511925 92.12181753886398,51.388880511934985 96.4897454031161,51.156701619314845" stroke="#4DD2FF" stroke-linecap="round" stroke-linejoin="round" stroke-width="0.5"><title>2025-06-12 5.9km</title><desc>1749735885000</desc></polyline><polyline fill="none" points="142.75,65.24093176116003 141.45893970900215,58.740649843850406 105.98284823272843,61.893303121236386 102.64293139288202,52.76027345104376 102.25,41.35174437070964 108.87370062363334,41.05921261635376 114.51507276494522,41.4167513907596 114.82380457385443,40.37663747926126 114.23440748441499,40.149112108832924 102.41839916829485,39.75906823881087 102.67099792091176,52.43524978138157 103.65332640323322,56.140499975997955 105.58991683984641,60.75575140910223 121.30717255710624,59.39068399815005 121.61590436578263,60.625745240744436 141.37474012479652,58.7081481012865 142.58160083170515,65.14342851116089" stroke="#4DD2FF" stroke-linecap="round" stroke-linejoin="round" stroke-width="0.5"><title>2025-06-10 5.3km</title><desc>1749559786000</desc></polyline><polyline fill="none" points="148.3133908478776,41.71704468855751 147.34114778717048,37.77651274978416 147.25,34.71553279217915 174.8070142538054,34.011855401680805 176.05270067520905,38.62091623755987 175.1412228058325,38.58573280021665 174.86777944501955,39.219034125009784 175.44504876225255,42.49107246263884 175.29313578410074,44.70759694240405 176.29576144053135,49.14060320975841 178.878282070742,49.0350561029918 182.7064891223563,63.776156239036936 182.76725431380328,64.4445921642473 181.79501125297975,64.72603848253493 182.6761065267492,64.47977296664612 182.97993248316925,65.04266531625763 182.18998499622103,65.183388260426 182.4634283571504,66.48507277402678 184.28638409613632,71.12888024852145 185.5624531133799,70.98815972742159 187.75,69.79203298312495 185.44092273083515,70.28455626204959 181.33927231817506,53.925371496006846 180.8531507878797,52.51809358943137 179.75937734451145,52.51809358943137 178.93904726195615,48.92950896389084 178.05795198807027,49.28133263529162 176.26537884492427,49.0350561029918 175.26275318849366,44.98905935004586 175.05007501889486,39.78196766070323 173.37903225817718,33.87111975150765 147.34114778717048,34.78590045234887 148.43492123042233,41.928143344441196" stroke="#4DD2FF" stroke-linecap="round" stroke-linejoin="round" stroke-width="0.5"><title>2025-06-08 5.0km</title><desc>1749355299000</desc></polyline><polyline fill="none" points="52.75,102.91656686610077 52.03768844215665,99.58343313391379 38.983488872880116,100.67765111869085 35.05850681976881,101.23317439817765 32.87796123477165,101.23317439817765 25.972900215361733,100.39147173038509 12.25,100.99749808356864 25.318736539804377,100.39147173038509 32.80527638195781,101.25000840776192 48.54881550610298,99.8359456199396" stroke="#4DD2FF" stroke-linecap="round" stroke-linejoin="round" stroke-width="0.5"><title>2025-06-07 5.3km</title><desc>1749293029000</desc></polyline><polyline fill="none" points="97.75,102.8544141172315 97.15205257479101,99.64558588278305 78.67401872522896,101.33445059390215 71.17779978387989,100.47313174200826 57.25,101.04734480740444 71.11946344975149,100.43935444088129 77.78438962914515,101.33445059390215 92.06220741808647,100.03402629053744" stroke="#4DD2FF" stroke-linecap="round" stroke-linejoin="round" stroke-width="0.5"><title>2025-06-05 5.1km</title><desc>1749128617000</desc></polyline><polyline fill="none" points="102.81692913384177,100.99365090206265 102.25,97.28025727876229 102.46259842510335,97.11612780300493 118.354330708622,96.56218983438157 121.34842519683298,107.53808397136163 137.04527559049893,107.33293255974422 142.75,106.98417468016851 138.05511811026372,107.14829611047753 137.18700787401758,94.96191602862382 122.16338582674507,95.84411982844176 118.93897637794726,95.74153818987543 119.22244094486814,96.56218983438157 110.89566929126158,96.80838467532885" stroke="#4DD2FF" stroke-linecap="round" stroke-linejoin="round" stroke-width="0.5"><title>2025-06-03 5.2km</title><desc>1748952979000</desc></polyline><polyline fill="none" points="180.74218580703018,89.17653941209574 179.8537504110136,87.86155800450797 179.22397342149634,86.48146396429365 178.81911678542383,86.10388847153808 177.81822121271398,86.01274939245923 177.05349201109493,85.12739495802816 176.70486546336906,83.96861297998112 176.18754865048686,83.1743855587847 175.56901767855743,81.0 173.78090086899465,81.76820031992975 172.94869556138292,81.85934242448275 170.78946016856935,82.66659822868678 169.86728671961464,83.85143219528254 169.86728671961464,84.15089398715645 166.1336088529788,88.90312854974763 166.1111168176285,89.17653941209574 165.08772920962656,90.58264318508009 164.1992938136682,91.4028632463087 164.04184956627432,91.25965059885493 163.41207257669885,91.80646166277438 162.99596992286388,91.55909504251758 162.98472390527604,91.79344237891928 162.928493816813,91.4549405329526 163.51328673574608,91.87155806230294 163.4233185944031,92.34025116056 162.07379647390917,93.837453717053 159.7683628514642,94.35821571521228 159.7683628514642,94.12387307848985 159.61091860407032,94.4102917984128 158.98114161449485,94.55350091787113 158.4300867486163,94.39727277959173 157.5079132996616,94.47538687257475 157.35046905220952,94.33217766566668 156.97935046913335,94.54048191365291 155.86599471978843,94.14991117042518 155.7197964900406,92.44440494909941 155.2924478185596,92.0668470619712 153.18944251420908,92.60063547294703 152.40222127723973,93.08234505326254 153.30190269090235,96.97501265827304 154.71890091738896,101.32320361524035 157.71034161769785,113.01311593550054 158.12644427153282,114.22370283625787 161.6576938200742,121.36983731660439 162.1075345269055,121.5 163.6594849654939,121.0053810988029 164.7166106265504,121.31777220619551 166.650925665861,120.91426688219508 166.61718761280645,120.1463016214766 167.13450442563044,120.00312114793633 168.0679238922894,120.43266208806745 168.7764230055618,120.09423601329036 169.06881946499925,120.52377664758387 170.89067432761658,120.92728320279275 171.95904600637732,120.73203825432574 173.0386637027259,119.9250226402728 173.2298460031161,118.40209221439727 174.03955927543575,117.28266171144787 173.82588493963704,116.1632214154888 174.08454334607814,115.61651445584721 173.5334884801996,115.00472056483704 173.18486193247372,114.09353275131434 173.04990972037194,112.73975601790153 173.78090086899465,112.1539827992674 174.89425661833957,112.60958442330593 175.512787590269,112.57053291907505 175.67023183760466,111.72441406780126 175.41157343122177,110.68302933866653 175.19789909542305,110.59190777158074 175.41157343122177,110.48776875832846 175.16416104248492,110.4096644427409 175.36658936046297,110.52682089823793 175.38908139587147,109.91500267019 175.09668493643403,109.23809398734011 173.7696548512904,109.14697139115015 173.15112387941917,108.67833987126505 173.40978228580207,106.90793863747967 174.46690794685856,105.09845911844604 175.27662121912,104.20021877202817 175.64773980225436,104.0700384884185 176.44620705692796,102.96350072876521 177.85195926571032,101.62262449892296 179.10026722715702,100.06042087297828 178.7403946616687,99.33138598476216 177.62703891232377,99.31836746686167 177.48084068257594,98.88875563253532 177.90818935405696,97.8602850762909 178.40301413153065,97.39161220646929 178.86410085606622,97.45670576330303 179.05528315645643,97.22236880369019 178.66167253802996,96.32407314762531 179.1902353685,95.21746837643877 179.6850601460319,94.93105146408925 180.10116279986687,95.10029789889813 180.04493271146202,94.78784276743681 181.29324067290872,94.21500637711142 181.405700849602,93.86349186733423 182.49656456365483,93.19951737950032 182.59777872270206,92.2491165259853 181.1695344785112,89.52806680480717 180.94461412506644,89.42391064102412" stroke="#4DD2FF" stroke-linecap="round" stroke-linejoin="round" stroke-width="0.5"><title>2025-06-02 11.5km</title><desc>1748829019000</desc></polyline><polyline fill="none" points="52.75,151.89394531885046 52.008118234807625,148.1060546811641 30.611573688627686,150.09763538434345 21.742714404594153,149.08232231879083 12.25,149.49235324299661 21.860741049051285,149.04327170881152 29.63363863446284,150.05858498132147 51.97439633635804,148.12558008272026 52.733139050833415,151.7767951843416" stroke="#4DD2FF" stroke-linecap="round" stroke-linejoin="round" stroke-width="0.5"><title>2025-06-01 4.9km</title><desc>1748740054000</desc></polyline><polyline fill="none" points="97.75,169.51674001172069 97.60334942664485,169.8280796620238 97.31004827993456,169.60165086010238 96.33237779105548,164.1673042277107 65.43799034401309,166.85618694633013 62.578304164111614,158.84607010451145 62.45609535300173,148.76941121771233 61.771726010832936,144.97641679336084 57.25,130.1719203380053 60.23189499089494,140.07941452148953 61.03847314429004,141.60796785575803 62.3583283041371,147.29750908591086 63.678183464100584,147.6654853503569 62.309444779763,147.63717950120918 62.578304164111614,157.9120131690579 63.50709112850018,161.7331353140762 65.12024743505754,165.7240289748297 65.53575739287771,165.9787649208447 78.78319251653738,164.6201705087442 79.14981894986704,165.69572496644105 89.68421846698038,164.6767787419667" stroke="#4DD2FF" stroke-linecap="round" stroke-linejoin="round" stroke-width="0.5"><title>2025-05-31 5.5km</title><desc>1748696141000</desc></polyline><polyline fill="none" points="139.90974025975447,161.17701928556198 138.98928571434226,155.23843920056242 105.66883116890676,158.22297112413798 102.59188311698381,149.4520168712479 102.25,138.88389317368274 113.55844155838713,139.0057180550939 102.40779220790137,138.82298071443802 102.61818181816489,149.2997410861426 103.43344155850355,152.55842594790738 105.4847402597079,157.24843336554477 134.99188311689068,154.41616496336064 137.62175324675627,154.2638917080476 137.75324675336014,155.3907119591604 142.75,154.9948026254424" stroke="#4DD2FF" stroke-linecap="round" stroke-linejoin="round" stroke-width="0.5"><title>2025-05-29 5.0km</title><desc>1748526381000</desc></polyline><polyline fill="none" points="171.80031695705839,146.0239359253028 170.90174326463602,138.66568440617993 186.113312202855,137.9224184198829 187.75,143.90566661726916 185.98494453239255,138.0710717382899 170.837559429463,138.77717417338863 171.25475435808767,142.45631736906944 170.67709984153043,138.81433742152876 149.04714738496114,140.82114719846868 152.2884310616646,157.06103480709135 153.54001584777143,160.8514765544096 152.70562599040568,161.3717301901197 154.02139461156912,164.8648425229767 152.2563391441945,160.25690006196965 147.89183835173026,140.89547327451874 155.46553090331145,139.81774369062623 169.1687797147315,138.96299037642893 169.00832012679894,137.88525508076418 148.886687797145,139.26029610430123 147.7634706813842,135.13515747705242 147.25,135.58112065971363 147.5067353406921,139.55760158970952 162.68621236132458,138.0710717382899" stroke="#4DD2FF" stroke-linecap="round" stroke-linejoin="round" stroke-width="0.5"><title>2025-05-27 6.0km</title><desc>1748352132000</desc></polyline><polyline fill="none" points="47.35307517083129,201.76806024237885 47.51452164014336,201.66122866875958 46.9955865603406,199.07053634045587 33.35335990891326,200.37924299100996 31.773490888415836,200.40595115389442 26.088268792780582,199.7382454484905 12.50370159454178,200.33918073649693 12.25,195.9055488768645 13.864464692480396,195.73193975762115 16.090119589993265,195.89219433740072 16.101651480654255,199.7382454484905 26.422693621891085,199.32426620234037 32.69604214123683,199.9385575173801 46.972522779076826,198.52301233273465 52.50783029611921,198.3226980996842 52.75,198.7633890080906 52.58855353074614,198.81680598719686 47.47992596816039,199.03047368573607" stroke="#4DD2FF" stroke-linecap="round" stroke-linejoin="round" stroke-width="0.5"><title>2025-05-25 7.6km</title><desc>1748179850000</desc></polyline><polyline fill="none" points="97.72346002620179,200.98588424491754 97.61730013106717,200.10998127417406 97.09977064217674,200.10998127417406 96.76802096981555,198.4657286229194 96.50262123194989,198.0969218278624 83.69708387943683,199.18797265000467 81.60042595019331,199.5721435952728 73.18725425947923,198.78843382853665 57.47558977722656,199.49530948455504 57.25,196.82145804008178 61.15137614682317,196.5141157550679 61.12483617296675,198.75770002922218 61.642365661857184,198.8191676216229 72.66972477064701,198.34279312484432 80.65825688070618,199.03430399781791 97.24574049806688,197.4361407305987 97.75,200.8168507345108" stroke="#4DD2FF" stroke-linecap="round" stroke-linejoin="round" stroke-width="0.5"><title>2025-05-24 6.6km</title><desc>1748094255000</desc></polyline><polyline fill="none" points="142.75,200.55455582366267 142.30942788079847,196.94544417633733 125.63295729254605,198.36264299121103 123.31587429490173,198.75945671807858 120.6724415794015,198.79724845722376 113.0521756648086,197.8713486288325 102.25,198.3059552465711 113.00322320708074,197.85245266582933 120.57453666394576,198.81614432398055 137.8547542304732,197.3611569515051" stroke="#4DD2FF" stroke-linecap="round" stroke-linejoin="round" stroke-width="0.5"><title>2025-05-18 4.7km</title><desc>1747565909000</desc></polyline><polyline fill="none" points="182.48604351555696,200.200087862293 182.04544803895988,197.6087301827356 170.30010020040208,198.60231376384036 168.34060979104834,198.95140891871415 166.76374176924583,198.9379821990733 161.39543372456683,198.2397908930725 147.3311623246409,198.88427530694753 147.25,198.48147291773057 155.16912396223051,197.97125479007082 160.5374320068513,197.87726702471264 166.81012024049414,198.88427530694753 182.19617807044415,197.51474215870257 187.37897223012988,197.299912137707 187.5876753507182,197.32676590949995 187.62245920411078,197.51474215870257 187.75,197.43418094189838" stroke="#4DD2FF" stroke-linecap="round" stroke-linejoin="round" stroke-width="0.5"><title>2025-05-17 5.7km</title><desc>1747487200000</desc></polyline><polyline fill="none" points="50.53679696848849,245.8256868639437 45.17341443960322,246.10630071547348 42.55634224170353,246.57398951459618 30.537195851560682,247.4906561041571 23.009074591100216,246.51786692164023 12.25,246.94813969591632 22.863681691291276,246.55528198553657 30.246410051826388,247.47194866846257 51.699940167483874,245.6011954738642 52.41074990032939,249.23043928682455 52.75,249.39880452615034" stroke="#4DD2FF" stroke-linecap="round" stroke-linejoin="round" stroke-width="0.5"><title>2025-05-11 5.0km</title><desc>1746965499000</desc></polyline><polyline fill="none" points="97.75,248.95509918074822 97.09630559530342,246.04490081923723 78.72022955515422,247.71028072823538 71.25358680053614,246.85235984338215 57.25,247.44112955809396 70.90494978474453,246.86918186434195 77.8776901003439,247.71028072823538 97.21251793397823,246.0785450241092" stroke="#4DD2FF" stroke-linecap="round" stroke-linejoin="round" stroke-width="0.5"><title>2025-05-10 5.3km</title><desc>1746870058000</desc></polyline><polyline fill="none" points="142.6615720523987,246.81732586988073 142.5584061135305,246.52718732082576 142.75,246.74905802118883 141.96888646291336,246.88559369067661 123.91484716162086,248.47281267917424 116.26582969434094,247.5682703682687 102.25,248.14854335594282 116.19213973800652,247.5682703682687 119.77347161574289,247.85840711346827 123.03056768566603,248.4557458883064 137.8127729257685,247.1245308444486" stroke="#4DD2FF" stroke-linecap="round" stroke-linejoin="round" stroke-width="0.5"><title>2025-05-05 5.4km</title><desc>1746434825000</desc></polyline></svg>