<?xml version="1.0" encoding="utf-8" ?>
<svg baseProfile="full" height="300mm" version="1.1" viewBox="0,0,200,300" width="200mm" xmlns="http://www.w3.org/2000/svg" xmlns:ev="http://www.w3.org/2001/xml-events" xmlns:xlink="http://www.w3.org/1999/xlink"><defs /><rect fill="#222222" height="300" width="200" x="0" y="0" /><text fill="#FFFFFF" style="font-size:12px; font-family:Arial; font-weight:bold;" x="10" y="20">Over 3km Runs</text><text fill="#FFFFFF" style="font-size:4px; font-family:Arial" x="10" y="280">Runner</text><text fill="#FFFFFF" style="font-size:9px; font-family:Arial" x="10" y="290">tang-hi</text><text fill="#FFFFFF" style="font-size:4px; font-family:Arial" x="65" y="280">SPECIAL TRACKS</text><rect fill="yellow" height="2.6" width="2.6" x="65" y="283" /><text fill="#FFFFFF" style="font-size:3px; font-family:Arial" x="70" y="285.5">Over 20.0 km</text><rect fill="red" height="2.6" width="2.6" x="65" y="287" /><text fill="#FFFFFF" style="font-size:3px; font-family:Arial" x="70" y="289.5">Over 40.0 km</text><text fill="#FFFFFF" style="font-size:4px; font-family:Arial" x="120" y="280">STATISTICS</text><text fill="#FFFFFF" style="font-size:3px; font-family:Arial" x="120" y="285">Number: 44</text><text fill="#FFFFFF" style="font-size:3px; font-family:Arial" x="120" y="290">Weekly: 3.7</text><text fill="#FFFFFF" style="font-size:3px; font-family:Arial" x="141" y="285">Total: 234.8 km</text><text fill="#FFFFFF" style="font-size:3px; font-family:Arial" x="141" y="290">Avg: 5.3 km</text><text fill="#FFFFFF" style="font-size:3px; font-family:Arial" x="167" y="285">Min: 3.2 km</text><text fill="#FFFFFF" style="font-size:3px; font-family:Arial" x="167" y="290">Max: 11.5 km</text><polyline fill="none" points="26.158060760819353,31.5 26.138597554760054,33.56069886108162 25.690943815279752,36.71360656358593 25.340606106095947,37.76080249394727 25.107047633326147,40.64335524561466 24.455030230164994,44.08880823416257 24.53288305440219,44.696818233584054 23.890597254270688,48.96405384569516 23.929523666447494,51.22708576808509 24.727515115053393,58.5 23.978181681595743,52.184075421137095 23.841939239180647,49.7859563529928 24.46476183325285,44.26895969273028 25.330874503066298,38.762948474533914 25.24329007579945,38.481447709709755 25.66174900624901,36.7699076717181 26.138597554760054,32.9638883785301" stroke="#4DD2FF" stroke-linecap="round" stroke-linejoin="round" stroke-width="0.5"><title>2025-07-27 5.0km</title><desc>1753616848000</desc></polyline><polyline fill="none" points="55.77117321960395,31.5 55.799912594258785,33.872188869761885 55.2730240590754,37.61881201835058 55.062268645036966,38.01785305649537 54.765295107034035,41.276633578323526 54.22882678033784,44.24713783559855 54.26714594650548,44.81241120443883 53.56782116350951,49.42315914606297 54.43958219437627,58.5 55.01436968729831,58.411340979946544 54.60243865073426,53.96721533680102 54.13302886480233,50.85289478359482 54.113869281776715,49.19040971154027 55.435880515375175,39.86894100766949 55.87655092665227,38.00676860292879 55.780753011174966,37.57447403511469 56.432178836432286,33.62832136474026" stroke="#4DD2FF" stroke-linecap="round" stroke-linejoin="round" stroke-width="0.5"><title>2025-07-26 5.2km</title><desc>1753529066000</desc></polyline><polyline fill="none" points="85.93190294969827,31.5 85.81541508092778,32.084096391256026 85.97073223924963,32.8366775761242 85.78629311377881,34.61140097930911 85.37858557328582,37.374521214813285 85.16502448066603,37.76764246611856 85.13590251345886,38.94699783339456 84.27195082057733,44.12478064413881 84.33990207727766,44.618959821455064 83.6992187994183,49.32478271090076 83.78658470092341,51.8292321066765 84.55346316995565,58.5 85.10678054630989,58.443850433926855 84.66995103866793,54.36731578929175 84.76702426257543,54.15393931491417 84.21370688622119,50.98693482742965 84.2039995638188,49.48201438624528 86.3007812005817,34.80235053392971" stroke="#4DD2FF" stroke-linecap="round" stroke-linejoin="round" stroke-width="0.5"><title>2025-07-24 5.0km</title><desc>1753356656000</desc></polyline><polyline fill="none" points="114.52643632655963,58.45129099960468 114.66324361000443,58.5 115.12628364627017,54.65192796802148 115.43146912468364,54.45708559099148 115.35780366440304,54.07957758392149 116.1470764533733,49.19622164525208 116.19969463936286,47.722651211646735 115.41042185027618,42.52238591458445 115.08418909751344,38.67380066993792 114.45277086633723,37.34625365888496 114.5474836009671,37.15138313440548 115.06314182310598,37.24881843626645 114.78952725621639,34.800732454554236 114.33701085718349,34.31354519485467 114.37910540594021,32.998129694664385 113.80030536063714,31.5 114.32648722000886,32.705813177068194 114.31596358283423,34.264826359903964 114.80005089344922,34.77637313862215 115.07366546033882,37.17574196730129 114.93685817689402,37.3097154596835 114.56853087531636,37.163562551482755 114.45277086633723,37.3097154596835 114.82109816779848,37.83342858294782 115.08418909751344,38.71033845302736 115.5577527708956,43.557585526563344 116.16812372772256,47.515619202837115 116.15760009060614,49.13533066398668 115.01052363717463,57.111785730208794" stroke="#4DD2FF" stroke-linecap="round" stroke-linejoin="round" stroke-width="0.5"><title>2025-07-22 5.0km</title><desc>1753184035000</desc></polyline><polyline fill="none" points="131.5,49.45307932648575 131.5,45.12050218868535 134.37057010806166,32.9890753996151 157.58474576286972,37.22548196098069 158.5,38.236437018436845 155.37981510045938,56.962785840121796 134.53697996935807,53.68933866149746 133.78813559329137,52.72655577518162 136.36748844385147,34.00003949800157 137.28274268098176,33.42234599171206 142.81587057025172,34.33702705139876 158.4583975346759,37.8031708295166 155.7126348230522,56.57767558126943 154.8389830510132,57.0109246003849 134.1209553158842,53.496782240777975 134.37057010806166,47.33493545404053 136.4090909094084,34.09632168064127 137.07473035459407,33.518628291698406 147.30893682618625,35.25170634506503 136.86671802797355,33.61491057212697 135.7018489986658,38.91040585830342 136.74191063200124,39.92135732001043" stroke="#4DD2FF" stroke-linecap="round" stroke-linejoin="round" stroke-width="0.5"><title>2025-07-20 4.9km</title><desc>1753020627000</desc></polyline><polyline fill="none" points="176.55188065842958,31.5 176.34819632198196,32.88045930568478 175.59165450104047,34.8220517331938 174.95150372944772,37.739987728884444 174.7769171553664,40.04061369205738 174.17556340026204,43.889846581732854 174.03977384261088,44.01328914901387 174.10766862146556,44.563168000291626 173.4772171039367,49.10798025870463 173.44811934162863,50.61165476574388 174.31135295785498,58.488779425133544 174.21436041675042,56.94032916756987 174.32105221197708,58.5 174.87390969652915,58.38779420001083 173.94278130150633,49.60172638286167 175.42676718108123,38.76124711869488 175.7371433127555,37.784878449878306 175.7759403291857,36.47181732363242" stroke="#4DD2FF" stroke-linecap="round" stroke-linejoin="round" stroke-width="0.5"><title>2025-07-20 5.0km</title><desc>1752942252000</desc></polyline><polyline fill="none" points="26.16421898122644,61.51208190763282 25.997156167810317,61.5 25.736120521789417,62.82900247924408 26.02848044532584,63.0102289391798 26.007597593648825,63.396844464034075 25.642147689242847,65.86148888752359 25.443760598252993,66.28433941477124 24.932130732107908,71.10472916430444 24.504032272612676,73.073904859717 24.545797976024915,73.65377860541776 23.804456741316244,79.19867854221957 24.806833621987607,88.5 23.877546722244006,80.74492263379216 23.85666387056699,78.4013885792956 24.545797976024915,73.72626262486301 24.514473698451184,73.08598559156962 25.27669778483687,68.49521911881311 25.433319172414485,66.27225799200824 25.642147689242847,65.83732595485344 26.195543258741964,61.886620435027" stroke="#4DD2FF" stroke-linecap="round" stroke-linejoin="round" stroke-width="0.5"><title>2025-07-17 5.0km</title><desc>1752765839000</desc></polyline><polyline fill="none" points="66.58445945964195,87.93025537068024 67.19256756769028,87.08586103635025 68.5,76.07336303085322 48.94932432437781,75.19375543203205 45.422297297394834,75.47523010685109 45.84797297301702,75.19375543203205 45.20945945952553,71.21790120535297 41.591216216329485,65.51792434151866 41.5,62.316044319275534 41.9256756757386,62.06974462931976 58.922297297394834,62.35122997488361 57.706081081181765,73.43453352997312 56.945945946034044,73.92711656363099 46.33445945952553,73.57527161113103 45.17905405408237,69.88087802033988 42.19932432437781,66.08088919633883 41.83445945952553,64.07532272240496 46.06081081076991,63.758653269702336 58.375,64.18087914233911 58.557432432542555,66.81977917888435 57.46283783798572,75.40486145962495 55.820945946034044,75.51041442507994" stroke="#4DD2FF" stroke-linecap="round" stroke-linejoin="round" stroke-width="0.5"><title>2025-07-15 4.1km</title><desc>1752589649000</desc></polyline><polyline fill="none" points="86.08505030663218,61.5 86.16732900287025,63.416027070335986 85.52966910699615,67.41459130247677 85.30340269237058,67.87870152412506 85.29311785532627,69.05681921314681 84.38805219670758,74.57834422936139 84.42919154488482,75.19711961026769 83.74010746384738,80.3256897681058 84.56289442622801,88.5 84.08979192283005,85.26366005757882 83.72982262680307,80.06391204116517 85.27254818129586,68.97351835169684 85.17998464801349,68.59271365915629 85.48852975887712,67.49789327252802 86.0953351436765,63.535033929023484 86.02334128442453,63.11850939458964 86.27017737319693,61.85702605386905 86.04391095857136,61.57140529784374" stroke="#4DD2FF" stroke-linecap="round" stroke-linejoin="round" stroke-width="0.5"><title>2025-07-13 5.0km</title><desc>1752418082000</desc></polyline><polyline fill="none" points="114.76551824639319,88.5 114.62696084659547,88.48766697220708 114.71222693880554,87.51335381839453 115.18119044601917,84.55336714761506 115.45830524573103,84.30669833299908 115.93792701442726,80.95195267667441 116.19372529105749,77.48610700756399 115.49028003029525,72.6633598826229 115.12789913837332,68.62986661158357 114.91473390778992,67.84042104388209 114.46708692365792,67.12498156059883 114.5630112774088,66.93995342133712 115.07460783066927,67.01396471092448 114.85078433866147,64.67025194838789 114.3391877852846,64.02880687867582 114.37116256990703,62.56087174406275 114.0087816780433,61.5493430775241 113.7849581859191,61.5493430775241 113.97680689336266,61.5 114.3391877852846,62.400508005943266 114.32852952380199,64.04114239279443 114.79749303095741,64.47288459591073 114.85078433866147,64.71959373632853 115.07460783066927,66.9769590717624 114.552353015868,66.95228863939701 114.43511213903548,67.08797595536453 114.90407564630732,67.76641025853314 115.11724087683251,68.51885113905155 115.5542295994237,73.31709386999137 116.2150418140809,77.39976795137045 116.2043835525983,78.97852955578855 114.90407564630732,87.85868089432188" stroke="#4DD2FF" stroke-linecap="round" stroke-linejoin="round" stroke-width="0.5"><title>2025-07-12 5.1km</title><desc>1752325602000</desc></polyline><polyline fill="none" points="144.83732376794796,88.5 144.57494274852797,88.48785562253761 145.16267623199383,84.44370929338038 145.40406676987186,84.32226134106168 146.07576217950555,79.81645507521898 146.18071458727354,77.54526999294467 145.56149538146565,73.47646149610227 145.08920954656787,68.5329763629561 144.4594951000181,67.2575968792953 144.54345702618593,67.12398490729538 145.06821906502591,67.20901072494598 144.82682852714788,64.74323744091816 144.3545426922501,64.22092425169103 144.33355221070815,62.581088932020066 143.80879017192638,61.5 144.36503793299198,62.714705985701585 144.3545426922501,64.20877740618016 144.83732376794796,64.75538423210673 145.09970478736795,67.17257109619823 144.59593323006993,67.11183835697011 144.48048558161827,67.30618301384675 145.11020002810983,68.63014757489873 145.57199062226573,73.45216968598834 146.19120982801542,77.46025153128721 146.08625742030563,79.75572876309889 145.0787143057678,86.45972727240587" stroke="#4DD2FF" stroke-linecap="round" stroke-linejoin="round" stroke-width="0.5"><title>2025-07-10 5.0km</title><desc>1752149320000</desc></polyline><polyline fill="none" points="171.21354894561227,61.5 171.27678821166046,63.1830451440037 171.7352728904225,62.94522450209479 172.71548151422758,63.27451453798858 173.77473922038916,63.1830451440037 174.96047545870533,63.622097811399726 181.07887444837252,64.42702492090757 181.25278242997592,64.66484360549657 179.84570876054931,73.64684241666691 179.16588665056042,73.70172086940147 179.03940811846405,73.93952730449382 178.80226087081246,75.53099305590149 178.97616885241587,76.22611161459645 177.90110132971313,82.28084664086055 170.02781270735431,82.04305122040387 169.75904582662042,81.86013145260222 168.74721756996587,88.5 169.80647527612746,81.96988333557965 172.87357967923163,82.02475925194449 173.90121775242733,81.62233547664073 174.04350610106485,82.04305122040387 177.94853077922016,82.1710949473927 180.6678192190593,65.14048003232165 180.5887701365864,64.51849368296098 172.44671463343548,63.091575703481794" stroke="#4DD2FF" stroke-linecap="round" stroke-linejoin="round" stroke-width="0.5"><title>2025-07-08 5.1km</title><desc>1751976330000</desc></polyline><polyline fill="none" points="11.740484281792305,118.25415402713406 11.682540294830687,118.5 12.049518879852258,118.34355259449512 12.165406854008324,117.09196934434294 12.841420037089847,116.53322452242719 12.976622673682868,115.95212840189924 14.927403573179618,102.43003512376163 15.101235534530133,98.33971749727789 14.637683637673035,95.3222212989931 15.699990068096668,95.27751734030608 15.97039534128271,95.67985264111485 19.69812517904211,96.2162985636096 22.69189784664195,96.17159478676331 24.87445469456725,97.04331679685856 31.82773314823862,98.07149728978402 33.10250086477026,91.5 38.31745970516931,92.66231994012196 33.662626073579304,91.56705708669324 32.79346626682673,95.43398115586024 32.658263630233705,98.11620068043703 19.64018119184766,96.3727617112163 15.97039534128271,95.7022045807098 15.642046081018634,95.21046138522797 14.579739650595002,95.38927721993241 15.004662222694606,97.17742756856023 15.081920872209594,101.04425297446141 12.89936402416788,116.01917803267133" stroke="#4DD2FF" stroke-linecap="round" stroke-linejoin="round" stroke-width="0.5"><title>2025-07-06 5.0km</title><desc>1751807521000</desc></polyline><polyline fill="none" points="45.609601379488595,116.82643208399531 46.779413212207146,108.50764349047677 42.993476735427976,108.23690888327837 41.80239559675101,108.65531678503612 43.35505493823439,108.50764349047677 43.142361877835356,108.26152113279386 47.05591419071425,108.48303126599058 47.33241516945418,108.23690888327837 47.20479933312163,107.47392790745653 48.799997286638245,97.4072764031589 48.651112144463696,92.38610064782551 51.39485262474045,92.11534801613016 68.19760440313257,94.8720879327011 68.17633509717416,94.0598374686524 49.69330814073328,91.5 49.99107842554804,97.57956980200834 48.055571575067006,111.26419680798426 48.58730422623921,112.1010014286876 48.09811018710025,113.0116384660796 48.20445671735797,114.9805717071722 47.4600310055539,115.15285260422388 47.11972210893873,118.5 45.396908318973146,118.30311025716946 45.50325484923087,116.85104346064327" stroke="#4DD2FF" stroke-linecap="round" stroke-linejoin="round" stroke-width="0.5"><title>2025-07-05 4.8km</title><desc>1751729502000</desc></polyline><polyline fill="none" points="89.34566448954865,118.5 89.6128736329265,118.3047179729183 89.65506455022842,117.19811532145832 90.02071916748537,115.58701837950503 90.21761011524359,115.52192321291659 90.47075561952079,113.16220555844484 84.97187272174051,112.93436890971498 85.32346369989682,111.7138099144795 85.84381834743544,106.21304193063406 85.90007290401263,102.19313043069269 85.70318195625441,101.65604959113989 85.91413654305506,98.36842457647435 85.90007290401263,91.5 78.51666236348683,94.15300461303559 78.36196233308874,94.52735141740413 78.41821688966593,94.20183250671835 82.39822676189942,92.68816087656887 82.46854495751904,96.04100565695262 82.86232685303548,96.88734372450563 85.80162743007531,96.88734372450563 85.81569106923416,101.18406797210628 86.12509112991393,101.3305451751803 86.23760024289368,101.85135192307644 91.38489216263406,102.17685528020957 91.63803766691126,103.46258707126253 91.60991038853535,105.80617288773647 89.8378918589442,117.89787965167488" stroke="#4DD2FF" stroke-linecap="round" stroke-linejoin="round" stroke-width="0.5"><title>2025-07-03 5.2km</title><desc>1751545471000</desc></polyline><polyline fill="none" points="114.52686310466379,118.5 115.16822645161301,114.54589664766536 115.43108028237475,114.36339641709492 116.10398608905962,109.37494904701452 116.15655685518868,107.64719441740453 115.0105141531676,98.4726428541544 114.4532640320831,97.31664813787938 114.56891971756704,97.15845851862105 115.04205661290325,97.24363757034735 114.82125939504476,94.88293854891526 114.30606588686351,94.22582847361628 114.31658004008932,92.72906427567796 113.82241483835969,91.5 114.35863665299257,92.83858424209757 114.30606588686351,94.25016594817134 114.77920278214151,94.71257702404546 114.8528018547222,95.08980578878982 115.04205661290325,97.23146913808887 114.52686310466379,97.19496383392107 114.4532640320831,97.35315340491798 115.02102830645163,98.4726428541544 115.56776427431032,103.68056478968356 116.1775851615821,107.61069229005079 115.99884455668507,110.33615385473968 114.84228770149639,118.08634607310523" stroke="#4DD2FF" stroke-linecap="round" stroke-linejoin="round" stroke-width="0.5"><title>2025-07-01 5.0km</title><desc>1751376396000</desc></polyline><polyline fill="none" points="144.05114498367766,118.5 144.24611519253813,118.25935323357407 144.20712115080096,117.37196490111819 144.51907348487293,117.07115408949903 144.74003972153878,115.8979860827676 145.07798808347434,111.7617426396173 145.5459165846114,110.15233667822031 146.06583714153385,105.9256825432094 145.93585700233234,103.50395086301432 145.20796822267585,99.18685260904022 144.7140436937334,93.9520139771339 143.93416285846615,92.01146639265062 144.62305759621086,92.14685425945208 144.64905362407444,91.5 144.64905362407444,92.11676807749609 144.05114498367766,91.99642328869959 143.94716087233974,92.14685425945208 144.4410854013404,92.88396380489576 144.74003972153878,93.92192816233728 145.2859563062666,99.75846170312434 146.06583714153385,104.94796955458878 146.0008470718749,107.36967760315747 144.36309731780784,117.98862515375367" stroke="#4DD2FF" stroke-linecap="round" stroke-linejoin="round" stroke-width="0.5"><title>2025-06-30 4.1km</title><desc>1751292736000</desc></polyline><polyline fill="none" points="161.8031358884764,106.66440344061994 161.5,104.4734598604191 161.604529616714,104.24346896374482 169.73693379794713,103.85611486788548 171.03310104529373,103.97716315856815 173.1445993031375,103.77138099104195 176.31184668990318,103.80769551710546 188.5,103.03298321942566 184.86236933799228,103.28718624914472 184.01567944255657,103.56559846693563 182.4477351916139,103.49296925563249 174.51393728225958,103.90453419898404 167.13414634147193,104.03768725762347 166.91463414632017,104.23136416738998 167.42682926828275,106.96701678057434 167.18641114985803,106.94280774176877 166.893728222989,105.51446571711858" stroke="#4DD2FF" stroke-linecap="round" stroke-linejoin="round" stroke-width="0.5"><title>2025-06-26 5.0km</title><desc>1750950176000</desc></polyline><polyline fill="none" points="38.5,136.10503620783857 38.06404736277182,133.89496379215416 26.4483315392863,134.96074029371084 25.20828848227393,134.971958938826 20.73250807315344,134.41102528154443 11.5,134.80367914179078 20.42249730892945,134.3998065792257 25.21797631861409,134.9831775828352 33.48170075350208,134.23152590745303" stroke="#4DD2FF" stroke-linecap="round" stroke-linejoin="round" stroke-width="0.5"><title>2025-06-24 5.0km</title><desc>1750769966000</desc></polyline><polyline fill="none" points="68.5,136.08125815037783 68.130403458199,133.9187418496149 56.6340057636844,135.01126839474455 55.233429394837,135.05632080390933 50.7010086455266,134.47063805232028 41.5,134.8761110570922 50.4578530259314,134.47063805232028 55.2237031700206,135.05632080390933 64.959654178645,134.18905870145682" stroke="#4DD2FF" stroke-linecap="round" stroke-linejoin="round" stroke-width="0.5"><title>2025-06-22 5.0km</title><desc>1750563938000</desc></polyline><polyline fill="none" points="85.92269060903345,148.5 84.52724332752405,140.1631483968813 84.50768098243861,137.8899853021794 84.63157583452994,136.9384079419906 84.55332645427552,134.4914385842203 84.579409581027,134.06849741340557 84.72286677817465,133.82681565982057 84.579409581027,133.71352706628386 84.57288879930275,132.16523225016135 82.98833884883788,122.63306504517823 82.59057116578333,121.5 82.99485963050392,122.48954443218827 84.55332645427552,132.00662461162574 84.63809661622508,136.64386961449054 84.52724332752405,137.89753745454072 84.5207225457998,140.08762914865656 85.59013074287213,146.4913878494408 85.74010872171493,146.92936055468454 87.40942883418757,146.8387457246572" stroke="#4DD2FF" stroke-linecap="round" stroke-linejoin="round" stroke-width="0.5"><title>2025-06-21 8.0km</title><desc>1750517001000</desc></polyline><polyline fill="none" points="117.73922796652187,148.5 115.45210558676627,134.43581285400433 111.42747938341927,134.35368332975486 104.1760603650473,133.65558102146315 104.31789741187822,132.91641123416775 104.03422331821639,131.49966155918082 104.4242751969723,122.23921169007372 104.37108630430885,121.58213476624223 104.01649368740618,121.5 103.57325291610323,132.89587870138348 104.24697888852097,132.97800882003503 104.28243815014139,133.67611347688944 115.5052944793133,134.41528047611064 116.87047605484258,143.20294697614736 117.29598719533533,144.3732381197624 126.42674708389677,144.0857988196658" stroke="#4DD2FF" stroke-linecap="round" stroke-linejoin="round" stroke-width="0.5"><title>2025-06-19 5.0km</title><desc>1750345525000</desc></polyline><polyline fill="none" points="158.5,135.6759281525956 158.2521739130898,134.20323694503895 150.60869565219036,134.92825781260763 149.62391304346966,134.95091460038384 146.35000000000582,134.5733005658767 134.2195652173832,135.12461641010304 133.16956521739485,135.29831781263056 131.5,135.79676305496105 133.854347826069,135.1623776191991 138.1195652174065,134.973571381277" stroke="#4DD2FF" stroke-linecap="round" stroke-linejoin="round" stroke-width="0.5"><title>2025-06-17 5.1km</title><desc>1750166247000</desc></polyline><polyline fill="none" points="162.4310344826663,145.1887884356256 161.5,139.20505966164637 182.5413793104235,138.5851160576858 179.11982758634258,125.08076648047427 183.262931034551,125.32336567013408 188.5,124.81121156437439 180.2370689655654,125.2964102156111 183.28620689664967,137.4530413786124 174.25517241389025,137.88430849451106" stroke="#4DD2FF" stroke-linecap="round" stroke-linejoin="round" stroke-width="0.5"><title>2025-06-16 3.2km</title><desc>1750084948000</desc></polyline><polyline fill="none" points="38.5,166.24813276056375 38.08629032265162,163.75186723943625 24.814919354801532,164.97479149090213 23.617338709707838,164.9873988944746 18.36975806450937,164.34441967524617 11.5,164.6722134202937 18.152016129053663,164.3318122061537 23.606451612955425,164.96218408609275 34.863709677476436,164.0166250615439" stroke="#4DD2FF" stroke-linecap="round" stroke-linejoin="round" stroke-width="0.5"><title>2025-06-15 4.6km</title><desc>1749956754000</desc></polyline><polyline fill="none" points="68.5,166.08587058149715 68.17132116004359,163.91412941849558 56.609559613396414,164.97761628103763 55.401181525259744,165.0000053674812 50.31632653065026,164.42908223781706 41.5,164.83208710800682 50.49033297528513,164.42908223781706 55.32384532765718,165.0000053674812 57.846938775561284,164.876865335631 58.32062298600795,164.72014145906724 64.4495166487759,164.17160612992302" stroke="#4DD2FF" stroke-linecap="round" stroke-linejoin="round" stroke-width="0.5"><title>2025-06-14 5.1km</title><desc>1749906363000</desc></polyline><polyline fill="none" points="98.5,166.6031278822411 98.17538896744372,164.4140393822163 86.98585572838783,165.49753315105045 85.47736916545546,165.5085891541603 80.89462517679203,164.95578761938668 72.26379066478694,165.36486102611525 72.14922206505435,165.1105723330984 72.196958981629,163.40792833494925 71.5,163.39687211776618 72.22560113156214,163.4300407659539 72.14922206505435,165.09951628942508 72.29243281472009,165.36486102611525 81.13330975954887,164.9447315599682 85.68741159827914,165.51964515614236 94.7574257425731,164.70149796747137 94.74787835928146,164.2592536746306 97.65983026870526,164.1044677462196" stroke="#4DD2FF" stroke-linecap="round" stroke-linejoin="round" stroke-width="0.5"><title>2025-06-12 5.9km</title><desc>1749735885000</desc></polyline><polyline fill="none" points="128.5,173.49395450744487 127.63929313933477,169.16043322924816 103.98856548860203,171.26220208083396 101.76195426192135,165.17351563402917 101.5,157.56782958049735 105.91580041579437,157.37280841091706 109.67671517666895,157.61116759384458 109.88253638264723,156.9177583195269 109.4896049896488,156.7660747392365 101.61226611223537,156.50604549255513 101.78066528064664,164.95683318760712 102.43555093556643,167.42699998401804 103.72661122656427,170.50383427276392 114.2047817048151,169.59378933210974 114.41060291056056,170.41716349385388 127.58316008327529,169.13876540087222 128.38773388788104,173.42895234079333" stroke="#4DD2FF" stroke-linecap="round" stroke-linejoin="round" stroke-width="0.5"><title>2025-06-10 5.3km</title><desc>1749559786000</desc></polyline><polyline fill="none" points="132.2089272318408,157.81136312570015 131.56076519133057,155.1843418331846 131.5,153.14368852811458 149.87134283571504,152.6745702677872 150.70180045010056,155.74727749169688 150.09414853714406,155.72382186680625 149.91185296326876,156.14602274999197 150.29669917479623,158.32738164174953 150.19542385591194,159.80506462824997 150.863840960199,162.76040213982924 152.58552138041705,162.69003740198968 155.1376594149042,172.5174374926719 155.1781695424579,172.96306144281698 154.53000750183128,173.15069232168025 155.11740435112733,172.98651531108771 155.31995498866308,173.36177687748568 154.79332333081402,173.45559217360278 154.97561890468933,174.32338184933178 156.19092273060232,177.4192534990143 157.04163540888112,177.3254398182762 158.5,176.52802198873542 156.9606151537737,176.85637084134214 154.22618154541124,165.95024766400456 153.90210052521434,165.01206239295425 153.1729182295967,165.01206239295425 152.62603150785435,162.6196726425842 152.0386346586747,162.85422175684653 150.84358589653857,162.69003740198968 150.1751687922515,159.99270623335906 150.0333833458135,156.5213117737876 148.91935483866837,152.5807465009857 131.56076519133057,153.1906003015465 132.2899474868318,157.95209556295595" stroke="#4DD2FF" stroke-linecap="round" stroke-linejoin="round" stroke-width="0.5"><title>2025-06-08 5.0km</title><desc>1749355299000</desc></polyline><polyline fill="none" points="188.5,166.11104457739566 188.02512562810443,163.88895542260434 179.3223259152146,164.61843407912238 176.7056712131598,164.988782932116 175.25197415647563,164.988782932116 170.6486001435551,164.4276478202446 161.5,164.83166538903606 170.21249102655565,164.4276478202446 175.20351758797187,165.00000560516492 185.6992103374214,164.05729707995488" stroke="#4DD2FF" stroke-linecap="round" stroke-linejoin="round" stroke-width="0.5"><title>2025-06-07 5.3km</title><desc>1749293029000</desc></polyline><polyline fill="none" points="38.5,196.06960941148282 38.10136838321341,193.9303905885099 25.782679150172044,195.05630039593234 20.785199855978135,194.48208782799338 11.5,194.86489653825993 20.746308966481593,194.45956962725177 25.189593086077366,195.05630039593234 34.70813827874372,194.18935086035344" stroke="#4DD2FF" stroke-linecap="round" stroke-linejoin="round" stroke-width="0.5"><title>2025-06-05 5.1km</title><desc>1749128617000</desc></polyline><polyline fill="none" points="41.87795275589451,194.8291006013751 41.5,192.3535048525082 41.64173228346044,192.24408520200814 52.23622047243407,191.87479322293075 54.23228346457472,199.19205598090775 64.69685039372416,199.05528837315796 68.5,198.8227831201075 65.37007874023402,198.93219740698987 64.79133858269779,190.80794401909225 54.775590551202185,191.39607988562784 52.625984252023045,191.32769212657877 52.81496062991209,191.87479322293075 47.26377952756593,192.03892311688105" stroke="#4DD2FF" stroke-linecap="round" stroke-linejoin="round" stroke-width="0.5"><title>2025-06-03 5.2km</title><desc>1748952979000</desc></polyline><polyline fill="none" points="93.82812387138256,186.95102627472806 93.23583360738121,186.07437200300046 92.81598228102666,185.15430930953153 92.54607785696862,184.9025923143563 91.87881414181902,184.84183292830858 91.36899467409239,184.25159663868544 91.13657697557937,183.479075319985 90.79169910034398,182.9495903725183 90.37934511908679,181.5 89.18726724601584,182.0121335466174 88.63246370758861,182.07289494965516 87.1929734457517,182.6110654857912 86.57819114642916,183.4009547968526 86.57819114642916,183.60059599143278 84.08907256869134,186.76875236649357 84.0740778784384,186.95102627472806 83.39181947309407,187.88842879005097 82.79952920912183,188.43524216420337 82.69456637755502,188.3397670659033 82.27471505114227,188.7043077751805 81.99731328192865,188.53939669500687 81.9898159368604,188.695628252608 81.95232921125717,188.46996035530174 82.34219115716405,188.7477053748662 82.28221239626873,189.06016744037333 81.38253098263522,190.05830247803533 79.84557523432886,190.40547714347485 79.84557523432886,190.24924871899566 79.74061240273295,190.44019453226792 79.3207610763493,190.53566727857833 78.9533911657636,190.43151518639206 78.33860886647017,190.48359124838316 78.23364603484515,190.38811844377778 77.9862336461083,190.52698794243042 77.24399647986866,190.26660744694527 77.1465309933701,189.1296032993996 76.86163187905913,188.8778980413117 75.45962834282545,189.2337569819574 74.93481418484589,189.55489670216775 75.5346017939446,192.15000843884627 76.47926727824961,195.0488024101578 78.47356107848464,202.8420772903337 78.75096284769825,203.64913522416464 81.1051292134216,208.4132248777314 81.40502301795641,208.5 82.4396566436917,208.17025406586617 83.14440708435723,208.37851480412792 84.43395044392673,208.10951125479914 84.41145840854733,207.5975344143153 84.75633628378273,207.50208076529088 85.37861592823174,207.7884413920401 85.85094867038424,207.56282400886266 86.04587964335224,207.84918443171773 87.26044955177349,208.11818880186183 87.97269733759458,207.98802550288383 88.69244246848393,207.45001509351277 88.81989733543014,206.4347281429291 89.35970618363353,205.68844114096282 89.2172566264635,204.94214761032345 89.3896955640812,204.57767630389571 89.0223256534955,204.1698137098865 88.78990795501159,203.56235516754532 88.6999398136104,202.65983734526526 89.18726724601584,202.2693218661734 89.92950441225548,202.5730562821991 90.34185839351267,202.5470219460476 90.44682122510858,201.98294271186023 90.27438228749088,201.28868622577284 90.13193273032084,201.22793851438473 90.27438228749088,201.15851250554988 90.10944069499965,201.10644296182727 90.24439290701412,201.18454726548953 90.25938759726705,200.77666844679334 90.06445662429905,200.32539599156007 89.17976990086026,200.26464759409282 88.76741591963219,199.95222658084094 88.93985485722078,198.77195909165312 89.64460529794451,197.5656394122998 90.1844141461188,196.96681251468544 90.43182653485565,196.88002565894567 90.96413803796167,196.14233381917438 91.90130617716932,195.2484163326153 92.73351148478105,194.20694724864734 92.49359644114156,193.7209239898366 91.75135927490192,193.71224497790536 91.65389378840337,193.42583708835446 91.93879290271434,192.74019005086302 92.26867608772591,192.42774147097953 92.57606723741628,192.47113717553293 92.70352210430428,192.3149125357886 92.44111502537271,191.71604876507627 92.79349024567637,190.97831225095433 93.12337343071704,190.78736764272617 93.40077519993065,190.90019859925815 93.36328847432742,190.69189517828636 94.19549378196825,190.3100042514052 94.2704672330874,190.0756612448895 94.99770970913232,189.63301158633112 95.06518581515411,188.9994110173211 94.11302298569353,187.18537786986417 93.96307608339703,187.11594042734941" stroke="#4DD2FF" stroke-linecap="round" stroke-linejoin="round" stroke-width="0.5"><title>2025-06-02 11.5km</title><desc>1748829019000</desc></polyline><polyline fill="none" points="128.5,196.26263021256455 128.00541215651901,193.73736978744273 113.74104912573239,195.06509025622654 107.82847626972944,194.3882148791963 101.5,194.66156882866198 107.90716069936752,194.3621811392004 113.08909242291702,195.0390566542119 127.98293089086656,193.7503867218038 128.48875936720287,196.18453012289683" stroke="#4DD2FF" stroke-linecap="round" stroke-linejoin="round" stroke-width="0.5"><title>2025-06-01 4.9km</title><desc>1748740054000</desc></polyline><polyline fill="none" points="158.5,208.0111600077944 158.40223295113537,208.218719774668 158.20669885334792,208.06776724004885 157.55491852742853,204.44486948511621 136.95866022934206,206.23745796419098 135.05220277613262,200.8973800696549 134.9707302353927,194.17960747845063 134.51448400726076,191.65094452886842 131.5,181.78128022531746 133.48792999394936,188.38627634763543 134.02564876287943,189.40531190379988 134.90555220283568,193.19833939056844 135.78545564279193,193.44365690021368 134.87296318652807,193.4247863341152 135.05220277613262,200.2746754460095 135.6713940856862,202.82209020935989 136.7468316234299,205.48268598319555 137.02383826189907,205.65250994720554 145.855461677711,204.7467803391337 146.09987929993076,205.46381664427463 153.12281231139787,204.78451916128688" stroke="#4DD2FF" stroke-linecap="round" stroke-linejoin="round" stroke-width="0.5"><title>2025-05-31 5.5km</title><desc>1748696141000</desc></polyline><polyline fill="none" points="186.60649350646418,202.45134619038436 185.99285714281723,198.4922928003798 163.77922077919357,200.48198074942047 161.7279220778728,194.63467791416042 161.5,187.58926211578364 169.03896103880834,187.67047870339593 161.60519480518997,187.54865380961564 161.74545454536565,194.53316072409507 162.28896103892475,196.70561729859037 163.65649350639433,199.83228891035833 183.3279220778495,197.94410997556406 185.08116883109324,197.84259447203658 185.16883116879035,198.59380797277845 188.5,198.32986841695674" stroke="#4DD2FF" stroke-linecap="round" stroke-linejoin="round" stroke-width="0.5"><title>2025-05-29 5.0km</title><desc>1748526381000</desc></polyline><polyline fill="none" points="27.86687797133345,222.34929061686853 27.267828842974268,217.44378960411996 37.40887480182573,216.9482789465983 38.5,220.937111078194 37.323296354850754,217.04738115885993 27.225039619603194,217.51811611559242 27.503169571980834,219.97087824605114 27.118066561059095,217.54289161435736 12.698098256601952,218.88076479898882 14.858954041148536,229.7073565380706 15.693343898514286,232.23431770293973 15.137083993526176,232.58115346009436 16.014263074379414,234.90989501531294 14.837559429346584,231.83793337465613 11.927892234409228,218.93031551635067 16.97702060220763,218.211829127089 26.11251980974339,217.64199358428596 26.00554675119929,216.92350338718097 12.591125198057853,217.8401974028675 11.842313787550665,215.0901049847016 11.5,215.38741377313272 11.671156893717125,218.03840105980635 21.790808240766637,217.04738115885993" stroke="#4DD2FF" stroke-linecap="round" stroke-linejoin="round" stroke-width="0.5"><title>2025-05-27 6.0km</title><desc>1748352132000</desc></polyline><polyline fill="none" points="64.90205011388753,227.0120401615859 65.0096810934192,226.94081911250396 64.6637243735895,225.21369089363725 55.56890660591307,226.08616199400421 54.515660592296626,226.1039674359272 50.725512528500985,225.65883029899123 41.66913439636119,226.059453824324 41.5,223.10369925123814 42.57630979499663,222.9879598384141 44.06007972668158,223.09479622493382 44.0677676537598,225.65883029899123 50.948462414584355,225.382844134896 55.130694760824554,225.7923716782534 64.64834851937485,224.8486748884825 68.33855353077524,224.71513206644886 68.5,225.00892600539373 68.39236902049743,225.04453732479305 64.98661731209722,225.18698245715495" stroke="#4DD2FF" stroke-linecap="round" stroke-linejoin="round" stroke-width="0.5"><title>2025-05-25 7.6km</title><desc>1748179850000</desc></polyline><polyline fill="none" points="98.48230668413453,226.49058949661412 98.41153342067264,225.90665418278513 98.06651376141235,225.90665418278513 97.84534731321037,224.8104857486178 97.66841415461386,224.5646145519131 89.13138925295789,225.29198176666978 87.73361730010947,225.5480957301843 82.12483617296675,225.02562255236262 71.6503931847983,225.49687298970093 71.5,223.7143053600521 74.10091743117664,223.5094105033786 74.08322411531117,225.0051333528172 74.42824377457146,225.04611174775346 81.77981651376467,224.7285287499035 87.10550458711805,225.18953599854285 98.16382699867245,224.12409382039914 98.5,226.37790048967872" stroke="#4DD2FF" stroke-linecap="round" stroke-linejoin="round" stroke-width="0.5"><title>2025-05-24 6.6km</title><desc>1748094255000</desc></polyline><polyline fill="none" points="128.5,226.2030372157751 128.20628525386564,223.79696278423216 117.0886381950113,224.74176199414796 115.54391619662056,225.0063044787239 113.78162771958159,225.03149897148978 108.70145044318633,224.41423241922166 101.5,224.703970164388 108.66881547140656,224.40163511056016 113.71635777596384,225.04409621599916 125.23650282033486,224.07410463433916" stroke="#4DD2FF" stroke-linecap="round" stroke-linejoin="round" stroke-width="0.5"><title>2025-05-18 4.7km</title><desc>1747565909000</desc></polyline><polyline fill="none" points="154.99069567702827,225.96672524152382 154.69696535929688,224.2391534551498 146.86673346691532,224.90154250922205 145.56040652733645,225.13427261247125 144.50916117947781,225.12532146604644 140.93028914972092,224.6598605953768 131.55410821642727,225.08951687128865 131.5,224.8209819451513 136.77941597480094,224.4808365267163 140.35828800458694,224.41817801647267 144.54008016031003,225.08951687128865 154.79745204694336,224.17649477245868 158.25264815342962,224.0332747584689 158.39178356711636,224.05117727299512 158.41497280274052,224.17649477245868 158.5,224.12278729458922" stroke="#4DD2FF" stroke-linecap="round" stroke-linejoin="round" stroke-width="0.5"><title>2025-05-17 5.7km</title><desc>1747487200000</desc></polyline><polyline fill="none" points="187.02453131228685,223.883791242617 183.44894295971608,224.07086714363686 181.70422816107748,224.38265967639018 173.69146390102105,224.99377073609503 168.6727163940668,224.3452446144147 161.5,224.6320931306036 168.57578779413598,224.37018799035286 173.4976067012176,224.98129911229626 187.7999601116171,223.73413031590462 188.27383326686686,226.15362619120424 188.5,226.26586968409538" stroke="#4DD2FF" stroke-linecap="round" stroke-linejoin="round" stroke-width="0.5"><title>2025-05-11 5.0km</title><desc>1746965499000</desc></polyline><polyline fill="none" points="38.5,255.9700661204988 38.06420373020228,254.0299338795012 25.81348637008341,255.14018715215934 20.835724533651955,254.56823989559052 11.5,254.9607530387293 20.60329985647695,254.5794545762401 25.25179340026807,255.14018715215934 38.14167862263275,254.05236334940855" stroke="#4DD2FF" stroke-linecap="round" stroke-linejoin="round" stroke-width="0.5"><title>2025-05-10 5.3km</title><desc>1746870058000</desc></polyline><polyline fill="none" points="68.44104803493246,254.5448839132514 68.37227074237308,254.35145821388141 68.5,254.49937201412104 67.97925764194224,254.5903957937844 55.94323144108057,255.6485417861113 50.84388646291336,255.0455135788361 41.5,255.43236223729036 50.79475982533768,255.0455135788361 53.182314410456456,255.2389380756431 55.353711790405214,255.6371639255376 65.20851528388448,254.7496872296324" stroke="#4DD2FF" stroke-linecap="round" stroke-linejoin="round" stroke-width="0.5"><title>2025-05-05 5.4km</title><desc>1746434825000</desc></polyline></svg>