<?xml version="1.0" encoding="utf-8" ?>
<svg baseProfile="full" height="300mm" version="1.1" viewBox="0,0,200,300" width="200mm" xmlns="http://www.w3.org/2000/svg" xmlns:ev="http://www.w3.org/2001/xml-events" xmlns:xlink="http://www.w3.org/1999/xlink"><defs /><rect fill="#222222" height="300" width="200" x="0" y="0" /><text fill="#FFFFFF" style="font-size:12px; font-family:Arial; font-weight:bold;" x="10" y="20">Over 3km Runs</text><text fill="#FFFFFF" style="font-size:4px; font-family:Arial" x="10" y="280">Runner</text><text fill="#FFFFFF" style="font-size:9px; font-family:Arial" x="10" y="290">tang-hi</text><text fill="#FFFFFF" style="font-size:4px; font-family:Arial" x="65" y="280">SPECIAL TRACKS</text><rect fill="yellow" height="2.6" width="2.6" x="65" y="283" /><text fill="#FFFFFF" style="font-size:3px; font-family:Arial" x="70" y="285.5">Over 20.0 km</text><rect fill="red" height="2.6" width="2.6" x="65" y="287" /><text fill="#FFFFFF" style="font-size:3px; font-family:Arial" x="70" y="289.5">Over 40.0 km</text><text fill="#FFFFFF" style="font-size:4px; font-family:Arial" x="120" y="280">STATISTICS</text><text fill="#FFFFFF" style="font-size:3px; font-family:Arial" x="120" y="285">Number: 94</text><text fill="#FFFFFF" style="font-size:3px; font-family:Arial" x="120" y="290">Weekly: 3.8</text><text fill="#FFFFFF" style="font-size:3px; font-family:Arial" x="141" y="285">Total: 487.8 km</text><text fill="#FFFFFF" style="font-size:3px; font-family:Arial" x="141" y="290">Avg: 5.2 km</text><text fill="#FFFFFF" style="font-size:3px; font-family:Arial" x="167" y="285">Min: 3.0 km</text><text fill="#FFFFFF" style="font-size:3px; font-family:Arial" x="167" y="290">Max: 11.5 km</text><polyline fill="none" points="20.42346941085998,31.0 20.508163293037796,31.70108673811046 20.377865012793336,32.89970355779951 20.10423862421885,34.83704955071153 19.89576137578115,35.50794746092288 19.954395601904253,35.71901521203108 19.368053340702318,39.29199961258564 19.40714282481349,39.631198051596584 18.944583929842338,42.81205020267953 18.951098843856016,43.70899571963673 19.04882255406119,43.96526387659833 18.957613757869694,44.048173973249504 19.543956019042525,49.0 19.88924646176747,49.0 19.915306117822183,48.653307560998655 19.61562007322209,46.264100425643846 19.661224471317837,46.08321094983694 19.315934028592892,43.96526387659833 19.32244894260657,42.638689735220396 19.837127149658045,39.5105943397939 20.22150707646506,36.2919103672466 20.501648379024118,35.08581015760137 20.443014152930118,34.87474060537352 20.723155455489177,32.76401205964066 21.02935641410295,32.22124358529982 21.055416070186766,31.71616379948682" stroke="#4DD2FF" stroke-linecap="round" stroke-linejoin="round" stroke-width="0.5"><title>2025-10-23 5.2km</title><desc>1761220332000</desc></polyline><polyline fill="none" points="42.622609349520644,48.45722904626018 42.67699393100338,47.92232061498362 42.82655153007363,47.788592929668084 43.05768600135343,45.89278147974983 43.152859018940944,45.798383015622676 43.601531816093484,42.368494068970904 43.628724106849404,41.33005734877224 43.20724360042368,38.600161024827685 42.92852262032102,35.610538720633485 42.52063825924415,34.76870317724388 42.56142669534893,34.674291143222945 42.90812840228318,34.737232512037735 42.75177273052395,33.16368293099367 42.439061387005495,32.786026269466674 42.45265753241256,31.873348393346532 42.08556160744047,31.0 42.43226331434562,31.810404694675526 42.4050710236188,32.738819057172805 42.74497465786408,33.13221161293768 42.880936111556366,34.721497174628894 42.54783055000007,34.61134972322179 42.507042113895295,34.75296784622333 42.73137851245701,35.08340912525455 42.91492647497216,35.68134690012084 43.2004455277056,38.68670100298914 43.60832988881157,41.33005734877224 43.492762653157115,43.27318137000111 42.7381765851751,48.44936277256784 42.45945560510154,48.45722904626018 42.527436331962235,48.693216885039874 42.439061387005495,49.0" stroke="#4DD2FF" stroke-linecap="round" stroke-linejoin="round" stroke-width="0.5"><title>2025-10-21 5.1km</title><desc>1761051395000</desc></polyline><polyline fill="none" points="66.72691265234607,31.106521599453117 66.44416616964736,31.0 66.24032568209805,31.281521040968073 66.1679951865226,32.483680063145584 65.64853071831749,35.33682833637431 65.70771021468681,35.51942612497078 65.12249075048021,39.20171985210618 65.1553682484664,39.60493523449986 64.70165877623367,42.89144005118578 65.30660473922035,49.0 65.91812620181008,48.901110716338735 65.6616817174945,48.825041947835416 65.05673575450783,43.08923435230099 65.39866173357586,40.122264999125036 65.59592672155122,39.41473956988193 66.12854218893335,35.24552927513287 66.26662768051028,34.94119826715905 66.21402368371491,34.66729930260772 66.5164966652228,32.44563735180418" stroke="#4DD2FF" stroke-linecap="round" stroke-linejoin="round" stroke-width="0.5"><title>2025-10-19 5.0km</title><desc>1760870639000</desc></polyline><polyline fill="none" points="91.44630145002156,31.63629756296723 91.60437006189022,31.590021502044692 91.67352507961914,31.20824324851128 90.5472862199531,31.0 90.32006259035552,31.150397941702977 89.89525319589302,32.06435019295168 90.0632010960835,32.73534822323563 89.43092664855067,33.383204463090806 89.65815027814824,33.672424753021915 88.68010074208723,32.81633046421484 88.11698131228331,32.469263292667165 87.94903341215104,32.63122811052017 87.63289618841372,32.34200505231274 85.71631426928798,35.77792528907594 85.71631426928798,36.61085930695117 86.09172722249059,37.20085037785611 88.98635867761914,38.88982673395367 87.26736252335832,49.0 88.85792793042492,39.30628262775281 86.02257220481988,37.698291343753226 85.46933206322137,37.02732392444159 85.55824565736111,36.44890041400504 87.58349974715384,32.38828079330415 88.49239426548593,33.07084568625578 88.86780721868854,32.94358814966836 89.66802956635365,33.6492871581213 89.42104736028705,33.325360312832345 90.0632010960835,32.71221042901743 89.84585675469134,32.06435019295168 90.27066614915384,31.185105129508884 90.50776906701503,31.0 91.64388721488649,31.16196700555156 91.66364579135552,31.32393376989785" stroke="#4DD2FF" stroke-linecap="round" stroke-linejoin="round" stroke-width="0.5"><title>2025-10-18 5.0km</title><desc>1760792768000</desc></polyline><polyline fill="none" points="111.85379930803902,31.0 111.98168739210814,31.11098773541744 111.91134894586867,31.72511681359174 111.99447620051797,32.13206696400448 111.57244552313932,34.98065434300952 111.37421899283072,35.72052894018998 111.4445574390702,35.898097725097614 110.87545546502224,39.41978919109533 110.90103308187099,39.78970488326013 110.46621359605342,42.91911647303641 110.49179121287307,44.12497678431828 111.02892116588191,48.963013191380014 111.38061339702108,49.0 111.41258541806019,48.86684740111377 111.10565401634085,45.885644951638824 110.80511701881187,44.01400887784985 110.7987226145924,42.86733061391715 111.10565401634085,40.5961145809124 111.32945816341089,39.39019585456845 111.41897982227965,39.39019585456845 111.30388054664945,39.323610803425254 111.73230562818935,36.23103802994592 111.86019371225848,35.48376988686505 111.98168739210814,35.320997591239575 111.91134894586867,35.084237239090726 112.19909713498782,32.886768496107834 112.39092926107696,32.48722160048783" stroke="#4DD2FF" stroke-linecap="round" stroke-linejoin="round" stroke-width="0.5"><title>2025-10-16 4.6km</title><desc>1760619242000</desc></polyline><polyline fill="none" points="134.05132062270422,49.0 134.0583174484782,48.45754932039563 134.2402349182812,48.23085241978697 134.92592384287855,43.56723019464698 135.0378730550583,41.470130522611726 134.3032063501305,35.68055330423522 133.91138410751591,34.878886363199854 134.00234284240287,34.741225571553514 134.3241968274233,34.78981176049274 134.17026666065794,33.21884330229659 133.82742219834472,32.7896558077191 133.86940315293032,31.979861782201624 133.5055682133243,31.0 133.8554095014115,31.834097983009997 133.84841267566662,32.80585160422925 134.17026666065794,33.21884330229659 134.31720000164933,34.78171406438196 134.0373269712145,34.72503016865085 133.92537775903475,34.814104843833775 134.3241968274233,35.63196765874454 134.55509207752766,38.15028456867003 135.06586035809596,41.704943655393436 135.06586035809596,42.56322025186091 134.5690857290756,46.19055128774198 134.35918095620582,47.34025120863953 134.04432379695936,47.79364943283872 134.12128888032748,48.36848990065482 133.94636823629844,48.96761498844717" stroke="#4DD2FF" stroke-linecap="round" stroke-linejoin="round" stroke-width="0.5"><title>2025-10-14 5.0km</title><desc>1760442162000</desc></polyline><polyline fill="none" points="157.73352958471514,31.0 157.6560643464327,31.522883715202624 157.75289589428576,31.918778911327536 157.7077078385919,32.35948992386693 157.34620339333196,34.66757733162376 157.15899573417846,35.14561874006904 157.05570874983096,36.60960121928656 156.5715510105947,39.39556899483432 156.61673906628857,39.75407728993014 156.15840307314647,43.070196170061536 156.7393923602067,48.98506406692468 157.05570874983096,49.0 157.10735224199016,48.85810851336282 156.4876303358178,42.920824661661754 156.91368914631312,39.74660838495038 157.0298870037077,39.61216796544613 157.41721319509088,36.25854685304512 157.68834152905038,35.205373697586765 157.61733172729146,34.98129235650413 157.8949154977745,32.971999146997405 158.12731121259276,32.0980515063784" stroke="#4DD2FF" stroke-linecap="round" stroke-linejoin="round" stroke-width="0.5"><title>2025-10-12 5.0km</title><desc>1760269757000</desc></polyline><polyline fill="none" points="180.61156118646613,31.0 180.6245042803639,32.32544108592265 180.24915455744485,34.84895511166542 180.10030897764955,35.14847626286064 180.08736588375177,35.92722555983346 179.5243412993732,39.35661976530537 179.55669903414673,39.723510571617226 179.11016229478992,42.87570124598278 179.11016229478992,43.75170180210989 179.68612997306627,49.0 180.06147969598533,48.94010712039017 179.4207965482201,43.01047123972239 180.51448798229103,35.34316435844812 180.63744737426168,35.16345228847058 180.5792034517217,34.89388336194679 180.88983770521008,32.66241383264423" stroke="#4DD2FF" stroke-linecap="round" stroke-linejoin="round" stroke-width="0.5"><title>2025-10-11 5.0km</title><desc>1760186515000</desc></polyline><polyline fill="none" points="20.584292312763864,51.0 20.603554696717765,51.661242225862225 20.68702502711676,51.787546240506344 20.642079464596463,52.54536574674421 20.269673375121783,55.00451024670474 20.13483668756089,55.24224792933819 20.13483668756089,55.933168682553514 19.640435499837622,59.26881253547617 19.537702785484726,59.4693920607242 19.569806758721825,59.93740881382837 19.146034312114352,62.983158971699595 19.345078946149442,65.79107969695178 19.743168214161415,69.0 20.17978225008119,68.96286052370851 19.537702785484726,64.08999773445248 19.47991563368123,62.91630240272934 19.903688080317806,59.89283591874846 20.0256831785955,59.63282682272256 20.46871800912777,56.000031634837796 20.67418343780446,55.27939437243913 20.609975491359364,55.049086121071014 20.853965687885648,53.37747223654151" stroke="#4DD2FF" stroke-linecap="round" stroke-linejoin="round" stroke-width="0.5"><title>2025-10-10 5.0km</title><desc>1760093219000</desc></polyline><polyline fill="none" points="43.1188350598386,69.0 44.26373844657792,60.558792945848836 44.18195963324979,58.84585372029687 43.60133005853277,54.21792108262889 43.86302226121188,54.63434979901649 43.85484437987907,53.564881389655056 44.49271912389668,53.72577565238316 43.846666498546256,53.55541701258335 43.813954973215004,54.161135204238235 44.0020462438697,54.60595699114492 43.63404158386402,54.823634963344375 43.68310887189,55.29684619026375 43.26603692385834,55.344167180664954 42.88985438251984,52.48593620691099 42.464604553126264,51.70984509639675 42.52184972251416,51.54894734903064 42.91438802651828,51.66252225840435 42.88985438251984,51.113575579205644 42.72629675583448,51.0 41.2215665904223,51.24608024649933 42.718118874472566,51.04732317484013 42.906210145156365,51.21768640508526 42.922565907851094,51.63412854405033 42.53002760381787,51.53001818397024 42.48913819715381,51.70038053073222 42.97163319584797,52.78879927516391 43.29874844918959,56.40415106108412 43.7485319225234,59.139232288369385 43.80577709188219,60.41683785411442 42.95527743315324,66.53017443662975" stroke="#4DD2FF" stroke-linecap="round" stroke-linejoin="round" stroke-width="0.5"><title>2025-10-08 5.0km</title><desc>1759920144000</desc></polyline><polyline fill="none" points="66.36649692920037,51.0 66.35580494208261,52.051619571044284 66.53756872337544,52.10110732708563 66.44134083919926,53.33829469135526 65.83189757273067,57.48278077421128 65.61805783008458,57.97763535741251 65.46837001031963,60.34053826719901 64.90169469238026,64.11366513749817 64.64508700120496,64.91775903272355 64.68785494967597,65.57340089532954 64.20671552885324,69.0 64.65577898832271,64.93012966657989 64.77339084679261,64.73219937422982 65.4042180874967,64.73219937422982 66.27026904502418,58.64568585500092 66.51618474908173,58.02712070514826 66.41995686490554,57.655980107076175 67.02940013137413,53.177461044899246 67.2218558996683,53.00425534185342" stroke="#4DD2FF" stroke-linecap="round" stroke-linejoin="round" stroke-width="0.5"><title>2025-10-07 3.0km</title><desc>1759844077000</desc></polyline><polyline fill="none" points="89.19682718702825,51.0 89.2741960879066,51.04476303512638 89.18393237018608,51.611759117666224 89.28709090471966,51.64906133803015 89.22261682065437,52.45478467189969 88.86800935820793,54.86444151183241 88.71971896479954,55.19268585972168 88.61011302185943,56.7294467011161 88.2555055594421,59.12404391678865 88.13300479963073,59.37767269397591 88.17813665853464,59.750654598763504 87.73971288677421,62.68968574330211 87.7139232531481,63.76382006708445 88.29419000985217,69.0 88.67458710595383,68.94778922160913 88.37800631916616,66.29990823429398 88.4295855864184,66.09105722273671 88.06853071559453,64.0845654656805 88.04274108193931,63.21183633473265 89.42893388972152,53.42462510673067" stroke="#4DD2FF" stroke-linecap="round" stroke-linejoin="round" stroke-width="0.5"><title>2025-10-06 5.0km</title><desc>1759755043000</desc></polyline><polyline fill="none" points="115.1633631431614,68.89656125801412 115.22516820696183,69.0 115.8520481401356,68.85518573033914 116.002146152372,68.58624437088292 115.26931468117982,66.9518923999276 115.38409551401855,66.79673097288469 114.11267705791397,64.04516048127698 113.49462641961873,63.22794971503754 113.27389404876158,62.44176577728649 113.27389404876158,61.04523913684534 114.7218984014471,60.66248388355598 114.73072769632563,60.38317504360748 111.64047450455837,57.714183378186135 109.7333468204597,55.458931670495076 109.37134573230287,54.786484094001935 107.42007157404441,52.386325524894346 106.85499670472927,51.0 107.64963323972188,52.6035837004747 109.13295477180509,54.32094073515327 109.7863225894398,55.407205099239945 111.98481700307457,57.9003944802389 113.17677180556348,58.67627022733359 114.54531250480795,60.207313509883534 114.4217023771489,60.46593330218457 112.95603943476453,60.79696563098696 113.185601100442,61.24178854535421 113.16794251074316,62.34866462622449 113.34452840744052,63.0831268364127 114.28043365979102,64.60375628779002 115.1633631431614,66.68294576885091 112.14374431007309,67.74838382213784" stroke="#4DD2FF" stroke-linecap="round" stroke-linejoin="round" stroke-width="0.5"><title>2025-10-04 5.0km</title><desc>1759568734000</desc></polyline><polyline fill="none" points="134.08812206285074,51.50442067741824 134.10223579304875,51.28942210126115 133.63648269631085,51.16538419009885 131.3006603474496,51.0 133.60825523591484,51.18192258972704 134.1234063883603,51.339037210193055 134.10223579304875,51.578843122624676 134.5468182944751,52.141143734123034 134.44802218305995,52.25691100109543 134.51859083410818,52.538059358681494 134.68795559654245,52.728247375707724 137.27076822397066,59.36799758615962 134.15869071386987,60.51728644247487 134.51859083410818,62.113033389570774 135.19604988390347,64.27096022650949 135.492438218178,65.93277102836146 136.00053250556812,67.0984976675245 135.80294028270873,67.30518496040895 135.96524818002945,67.5862787954029 136.09932861698326,68.30554367879813 136.01464623573702,68.12366123453103 135.79588341756607,68.05752205820318 135.57006373431068,68.17326557980414 135.5065519484051,68.38821737621765 135.8241108779912,68.95039618311421 136.08521488678525,69.0 136.25457964921952,68.81811918313178 136.24046591902152,68.56183185413829 135.958191314945,68.09885905000556 135.75354222697206,68.04098725530639 135.59123432959314,68.14019601978362 135.52772254368756,68.47089098555443 135.83116774307564,68.95039618311421 136.13461294246372,68.97519809551886 136.27575024453108,68.61970326044684 136.02170310085057,68.16499819111777 135.67591671083937,68.06578945832734 135.51360881348955,68.42128683051124 135.66885984575492,68.77678257440857 135.90879325920832,68.99173269939638 136.1698972680024,68.95039618311421 136.28280710964464,68.74371327157132 136.09932861698326,68.24767203822557 135.80999714776408,68.05752205820318 135.54889313902822,68.181532967581 135.58417746450868,68.60316857734142 135.91585012432188,69.0 136.24752278410597,68.83465382046415 136.25457964921952,68.59490123445721 135.92996385451988,68.09059165341023 135.67591671083937,68.07405685756385 135.5347794088011,68.1980677405154 135.61946179004735,68.62797060067533" stroke="#4DD2FF" stroke-linecap="round" stroke-linejoin="round" stroke-width="0.5"><title>2025-10-02 5.0km</title><desc>1759403720000</desc></polyline><polyline fill="none" points="156.76780733600026,69.0 157.19239202301833,66.30598840441962 157.397607955063,66.18315898112633 157.8363454649807,62.964961368226795 157.8858803451003,61.449989238630224 157.41176077796263,58.411770083192096 157.16408637718996,55.67645589262975 157.05794020544272,55.266969726624666 156.73242527875118,54.74282439627859 156.81734221614897,54.61178753072454 157.14993355429033,54.669116185636085 156.99425250236527,53.07208839061059 156.654584752745,52.65439897367469 156.6970432214439,51.79444335276639 156.3927575291309,51.0 156.7041196329228,51.859964104201936 156.654584752745,52.629828940516745 156.99425250236527,53.07208839061059 157.14993355429033,54.669116185636085 156.81026580467005,54.619977341055346 156.76780733600026,54.74282439627859 157.1782392000896,55.65188678137201 157.89295675657922,61.68747323912248 157.77973417338217,63.52999773333431 157.04378738251398,68.41043677189737 156.93056479934603,68.41862517959089 156.86687709629769,68.65608864113892" stroke="#4DD2FF" stroke-linecap="round" stroke-linejoin="round" stroke-width="0.5"><title>2025-09-30 5.0km</title><desc>1759224370000</desc></polyline><polyline fill="none" points="179.730379854067,69.0 179.77239857811946,68.4327499938372 179.93347035362967,68.31929950841004 180.6337824210641,63.67579471338831 180.76684171389206,61.925293401713134 180.05952652575797,55.936019029832096 179.92646723293,55.392990850079514 179.62533304392127,54.87427391026722 179.6743548886734,54.77701410824375 180.03151404307573,54.83374900717172 179.86343914686586,53.17221024011815 179.52728935447522,52.80747758188954 179.56230495785712,51.94832294592197 179.22615516546648,51.0 179.54129559581634,51.76190137755475 179.53429247514578,52.79937239275023 179.87044226753642,53.2046308400968 180.04552028438775,54.801329069872736 179.9614828362828,54.86616893129394 179.6743548886734,54.76080412969168 179.63233616462094,54.85806395149848 180.04552028438775,55.81444587815349 180.24160766327986,58.25397831849841 180.73882923118072,61.25263684258243 180.77384483456262,62.45206867228262 179.9474765949708,68.48137158103782 179.78640481943148,68.5299931385889 179.7093704920262,68.9108609805262" stroke="#4DD2FF" stroke-linecap="round" stroke-linejoin="round" stroke-width="0.5"><title>2025-09-28 5.0km</title><desc>1759056716000</desc></polyline><polyline fill="none" points="20.544288592558587,71.0 20.589645975269377,71.6298117194674 20.68684036677587,71.63730944564304 20.62852373183705,72.38707821701246 20.239746165752877,74.89125070165028 20.10367401764961,75.18364853528328 20.10367401764961,75.89589482058364 19.520507668494247,79.43453235110064 19.57234467731905,79.75689979613526 19.11229122406803,82.94301394087233 19.138209728494985,84.14245657841093 19.695457573223393,88.94003227640496 20.08423513933667,89.0 19.766733460332034,86.33138915974268 19.825050095270853,86.1664718422544 19.481629911868367,83.92505904631253 19.455711407470517,82.93551736311201 20.498931209847797,75.52102921147161 20.654442236264003,75.23613007509994 20.596125601354288,75.01870631001657 20.88770877593197,72.7469645213423" stroke="#4DD2FF" stroke-linecap="round" stroke-linejoin="round" stroke-width="0.5"><title>2025-09-27 5.0km</title><desc>1758971882000</desc></polyline><polyline fill="none" points="42.58352856844431,89.0 42.653686078381725,88.45608108815213 42.83609560417244,88.26124356216314 43.635891217330936,82.13985596117709 42.87117435914115,75.66886058036471 42.485308054543566,74.8812632417903 42.541434062470216,74.7757083689794 42.82206410219078,74.89750244061725 42.88520586112281,74.84066523029469 42.73085933929542,73.24108714931936 42.387087540642824,72.80261852627154 42.422166295640636,71.90131435039075 42.071378745982656,71.0 42.42918204658781,71.88507454222417 42.40813479362987,72.84321757399448 42.75892234328785,73.29792549823469 42.89923736313358,74.83254562551883 42.541434062470216,74.7757083689794 42.52038680954138,74.90562203877926 42.934316118073184,75.87996782517439 43.228977659746306,78.96531772155868 43.64290696833632,81.80698191402189 43.55170220541186,83.41450716850522 42.8150483512145,88.30995298819471" stroke="#4DD2FF" stroke-linecap="round" stroke-linejoin="round" stroke-width="0.5"><title>2025-09-25 5.0km</title><desc>1758803583000</desc></polyline><polyline fill="none" points="66.24885513912886,71.0 66.25533476850251,72.39457586595381 65.69160701139481,75.64848373136192 65.68512738202116,76.65311754227878 65.17323666001903,79.40454460914043 65.2121144363773,79.74940289370716 64.75206074953894,83.11543501838605 64.9723681488831,85.96407281215215 65.35466628300492,89.0 65.72400515835034,88.94003227636858 65.08252184852608,83.07045564542932 66.6765106790117,72.29710636640084" stroke="#4DD2FF" stroke-linecap="round" stroke-linejoin="round" stroke-width="0.5"><title>2025-09-23 5.1km</title><desc>1758638106000</desc></polyline><polyline fill="none" points="88.43211868868093,89.0 88.34853275903151,88.96776003399282 88.36942924145842,88.29877778245282 88.52267011246295,88.15369654965616 88.85701383108972,86.17089310484153 89.34459842075012,81.90689175949956 88.59232505387627,75.65959484272025 88.20225738213048,74.85345615795086 88.2858433117799,74.75671896491986 88.61322153627407,74.78896470904874 88.45998066521133,73.19278463096998 88.12563694661367,72.81388868039357 88.13956793487887,71.84648654937337 87.7773622397217,71.0 88.15349892320228,71.91904211871588 88.13260244074627,72.82195031522133 88.46694615937304,73.17666143591487 88.44604967697524,73.71678668488312 88.62715252456837,74.78090327423706 88.2928088059125,74.7405960879405 88.23708485282259,74.84539472969482 88.65501450109878,75.82082159604761 88.94756525487173,78.91631168380263 89.36549490314792,81.67313080356689 89.2470815028355,83.44647256533062 88.62018703040667,87.5975493656515" stroke="#4DD2FF" stroke-linecap="round" stroke-linejoin="round" stroke-width="0.5"><title>2025-09-21 5.0km</title><desc>1758459157000</desc></polyline><polyline fill="none" points="102.44688272057101,74.37475195724983 102.42857142857974,74.90446356074972 103.00537712546065,74.87268094040337 103.16102310712449,74.99981136353017 103.49062636250164,74.8832751482405 105.87109431769932,74.87268094040337 106.08167417527875,74.99981136353017 107.74800174398115,74.98921716754558 107.99520418548491,75.10575326441904 108.58116552833235,74.95743457304343 111.65746257820865,74.95743457304343 113.25970062491251,74.98921716754558 113.43365789862582,75.12694163167907 114.6055805842625,75.04218813683838 120.42857142857974,75.22228923106013 119.85176573181525,79.56580963526358 119.54047376842937,80.0425264659134 113.46112483658362,80.01074541168782 113.12236593523994,85.62524804275017 113.4245022526593,80.38152377513325 118.76224385993555,80.4133047163632 119.5496294143959,80.56161564741342 119.83345443976577,79.62937200527813 120.05318994336994,77.84961099945212" stroke="#4DD2FF" stroke-linecap="round" stroke-linejoin="round" stroke-width="0.5"><title>2025-09-20 5.0km</title><desc>1758380898000</desc></polyline><polyline fill="none" points="134.91007783811074,71.0 134.79421656034538,71.14151495879923 134.8006532980071,71.6479873094504 134.8972043627873,71.7075720618086 134.83927372394828,72.43748134750058 134.4530694647401,74.97721109895065 134.2664040727832,75.64750632859068 134.29858776106266,76.16139518770797 133.84801612532465,79.22231072484283 133.738591585221,79.37870443778229 133.7836487487657,79.73617452901817 133.345950588322,82.90119827391027 133.3781342766015,84.10014806473919 133.9123835018254,89.0 134.23422038453282,88.99255366486614 134.30502449869527,88.90319758416445 134.02824477959075,86.01395897911425 133.6935344216181,83.98099865214317 133.6935344216181,82.7522590429653 134.72341244615382,75.48365694951644 134.86502067453694,75.23043446155498 134.8070900356688,75.021897638253 135.22547798315645,72.2661767597092" stroke="#4DD2FF" stroke-linecap="round" stroke-linejoin="round" stroke-width="0.5"><title>2025-09-18 5.2km</title><desc>1758195038000</desc></polyline><polyline fill="none" points="156.74682391714305,88.8458937524847 156.73280504188733,89.0 156.89402210724074,88.96755660420604 156.9641164834611,88.38357322482625 157.11832411118667,88.27813132595475 157.82627731116372,83.4276533905213 157.93141887555248,82.03247805531282 157.18140904977918,75.70521397983248 156.78187110522413,74.8858777071946 156.8519654815027,74.73174420068972 157.18841848743614,74.80475484616909 157.0482297349663,73.23906746844295 156.6907484161493,72.8172189821853 156.72579560425947,71.92483983356215 156.35429541018675,71.0 156.74682391714305,71.95729015932011 156.72579560425947,72.8253314741014 157.0482297349663,73.21473011639318 157.1954279250349,74.8128671359882 156.8519654815027,74.74796879437054 156.8028994181077,74.87776542481879 157.13935242404114,75.46995987161063 157.26552230128436,76.07026208472962 157.4898243052594,78.60932824826159 157.92440943789552,81.46466715620772 157.93141887555248,82.73006877187436 157.57393755670637,85.33381282278424 157.42673936663778,86.22604202100047 157.25150342605775,86.38826443997095 157.06925804782077,88.05102522452944 156.90804098246736,88.45657138088427" stroke="#4DD2FF" stroke-linecap="round" stroke-linejoin="round" stroke-width="0.5"><title>2025-09-16 5.1km</title><desc>1758026219000</desc></polyline><polyline fill="none" points="180.75403441031813,71.0 180.59291594658862,71.07457414198143 180.5735817309178,71.55184685628774 180.68958702485543,71.68607924797107 180.64447385497624,72.41689574021439 180.26423428056296,74.97469615956652 180.13533950952115,75.19840624316566 179.99355526149157,77.1521119962199 179.56175777863245,79.40402892921702 179.59398147134925,79.80668229299772 179.14929451144417,83.25151525310503 179.75509993510786,89.0 180.109560555371,88.92544406375237 179.48442091600737,82.97563631591038 179.85177101334557,80.26898528364109 180.0322236927459,79.61281243054691 180.38668431297992,76.52573871555069 180.5735817309178,75.39974473546317 180.68314228625968,75.22823420279019 180.6380291164096,74.84792680956889 180.85070548858494,73.4236208282091" stroke="#4DD2FF" stroke-linecap="round" stroke-linejoin="round" stroke-width="0.5"><title>2025-09-14 5.0km</title><desc>1757842188000</desc></polyline><polyline fill="none" points="20.491837817709893,91.0 20.60185417169123,91.97349012749328 20.16178875582409,94.92383551284001 19.97411379904952,95.59026773840014 20.025886200921377,95.8673220589917 19.695837139035575,98.34578870957921 19.45638978036004,99.39405768526922 19.488747531577246,99.79089847931755 19.042210565472487,103.10780496994994 19.262243273406057,105.98283569532214 19.644064737134613,109.0 20.025886200921377,108.91764727800182 19.36578807712067,103.14524098618858 20.957789434527513,92.16069829320622" stroke="#4DD2FF" stroke-linecap="round" stroke-linejoin="round" stroke-width="0.5"><title>2025-09-13 5.1km</title><desc>1757760467000</desc></polyline><polyline fill="none" points="43.54170307418099,91.0 43.50941249789321,92.4123634671414 43.147758043633075,94.88580239901785 43.005679508001776,95.18470177277777 42.844226626621094,96.97060022211372 42.4244491350255,99.42894181154406 42.46319782658247,99.72782272592303 42.0111297587282,102.93324419247801 42.02404598920839,103.76259623710939 42.598818246944575,109.0 42.9798470470123,108.9477025181186 42.72152243676828,106.09369786738534 42.36632609774824,103.99421540850017 42.34049363672966,103.14245099525579 43.38025019282941,95.62557613203535 43.53524495894089,95.19964670958143 43.48358003690373,95.00536229426507 43.70315595559077,93.4734864293714" stroke="#4DD2FF" stroke-linecap="round" stroke-linejoin="round" stroke-width="0.5"><title>2025-09-11 5.0km</title><desc>1757592265000</desc></polyline><polyline fill="none" points="65.35427293920657,108.92719921069511 65.49408372564358,108.85439835482248 65.51505534362514,108.32861241891078 65.6758377480437,108.21536576279323 65.7737052985467,107.64104095492803 65.99041201753425,105.59446956736792 66.42382545548026,103.15954731519741 66.47974977004924,101.476899708563 65.74574314121855,95.6278045622239 65.34728239985998,94.87540011727106 65.41718779309303,94.74595347390277 65.75972421988263,94.77022473557736 65.60593235478154,93.2411207896439 65.26339592799195,92.79613793038152 65.31232970327255,91.98707180973724 64.9488216585014,91.0 65.30533916392596,91.8818926097083 65.27038646733854,92.8365910204302 65.60593235478154,93.20875848379364 65.75273368056514,94.7944959898523 65.41019725377555,94.74595347390277 65.34728239985998,94.85112888769072 65.58496073679999,95.1666542948442 65.78069583786419,95.765340089456 66.08128902871977,98.98522156006948 66.47974977004924,101.59015595259552 66.42382545548026,103.25662205327535 65.58496073679999,108.95146614787518 65.431168871728,109.0" stroke="#4DD2FF" stroke-linecap="round" stroke-linejoin="round" stroke-width="0.5"><title>2025-09-09 5.2km</title><desc>1757417515000</desc></polyline><polyline fill="none" points="89.20109416928608,91.0 89.14942929972312,91.56793777661369 89.29796579974936,91.60530195025785 89.20755227800692,92.52445464474295 88.86527251711232,94.80360485976416 88.69736169098178,95.25942642801965 88.48424410403823,97.5683808144895 88.10967379968497,99.47377402829443 88.14196434314363,99.8697907370879 87.70927106050658,102.93324419442797 87.69635484312312,103.84478377026971 87.94822108227527,106.18335414879402 88.29050084316987,108.95517358923826 88.66507114752312,109.0 88.65215493011056,108.70862784209021 88.85235629972885,108.52185021105834 88.85235629972885,108.41725453061372 88.54236708229291,108.1931204291177 88.04509271268034,103.12750767386751 89.02672523452202,96.04403070845001 89.23984282149468,95.30426118378819 89.17526173451915,95.02030726904195 89.4465022997465,93.05501723112684" stroke="#4DD2FF" stroke-linecap="round" stroke-linejoin="round" stroke-width="0.5"><title>2025-09-07 5.0km</title><desc>1757247375000</desc></polyline><polyline fill="none" points="110.95423588945414,108.94265544975497 111.11706749247969,109.0 111.15954530192539,108.4265526622039 111.36485471439664,108.11525097064441 112.04449966593529,103.56847084360197 112.1719330943597,101.83161506291071 111.40025288893958,95.51471545678942 110.98963406405528,94.73633428722678 111.06043041317025,94.62981838441192 111.40025288893958,94.68717311880027 111.25158055577776,93.08941881715145 110.9188377149112,92.65515191567101 110.95423588945414,91.83577402903029 110.68520976279979,91.0 110.95423588945414,91.75383578204492 110.92591734984308,92.6469581780475 111.25866019068053,93.04025664390065 111.42149179367698,94.6707860559909 111.04627114336472,94.60523777145136 111.01087296876358,94.71994723441458 111.27281946048606,95.11323558195 111.44273069841438,95.71135793098802 111.6975975552341,98.48888162234653 112.16485345945694,101.66775881198555 112.16485345945694,102.6426985995713 111.6763586505258,106.13272251950548 111.32237690492184,108.36101556386711 111.15954530192539,108.59039517493511" stroke="#4DD2FF" stroke-linecap="round" stroke-linejoin="round" stroke-width="0.5"><title>2025-09-04 5.0km</title><desc>1756985562000</desc></polyline><polyline fill="none" points="134.81770917918766,91.04504300308326 134.895562090358,91.0 134.94097628860618,91.10510029779834 134.91502531821607,91.55552845207421 134.98639048682526,91.55552845207421 134.93448854601593,92.36629220977193 134.58415044547291,94.6483942812265 134.35059171175817,95.56421805726859 134.38303042473854,95.92453905446746 133.8250845608709,99.3625135467737 133.85752327393857,99.67777831109561 133.4163567768992,102.7853161730527 133.45528323252802,104.30901284753782 133.98727812597645,108.9924946582978 134.29220202830038,109.0 134.35707945434842,108.90993584925309 134.05215555199538,106.25299404140969 134.13000846325303,106.08036457510025 133.9224006999284,105.10462523026945 133.73425616443274,103.04802473708696 134.0910820076242,100.24825398997928 134.27922654311988,99.53515870333649 134.629564643692,96.41997755683406 134.8241969217488,95.28646942276828 134.93448854601593,95.13633459104312 134.869611119997,94.93365208435716 135.15507179452106,92.80920569004229" stroke="#4DD2FF" stroke-linecap="round" stroke-linejoin="round" stroke-width="0.5"><title>2025-09-02 5.1km</title><desc>1756811867000</desc></polyline><polyline fill="none" points="157.6653627214837,91.0 157.63923744254862,92.32256637187675 157.29307749669533,94.73335542801942 157.0775439454883,95.55708675743517 157.08407526521478,96.19943972120382 156.55503836687421,99.41867808219104 156.1435652236978,103.0533783902647 156.16969050257467,104.15659949354449 156.68566476154956,108.38042500505253 157.19510770068155,109.0 157.0775439454883,108.93955388607719 156.9861054692301,108.22175253045862 156.79016587726073,106.34788057651895 156.84241643510177,106.15897957621928 156.49625648927758,103.94502411117719 156.4831938497955,102.87958179371344 157.53473632683745,95.44372977629973 157.67842536096578,95.14144364873937 157.75680119774188,93.8340420017048 158.14214906201232,91.74819757926161" stroke="#4DD2FF" stroke-linecap="round" stroke-linejoin="round" stroke-width="0.5"><title>2025-08-31 5.1km</title><desc>1756640573000</desc></polyline><polyline fill="none" points="180.57920327529428,91.0 180.63744718005182,92.45274208266346 180.2362113916024,94.9612756864808 180.10030894711963,95.18591632167227 180.03559349736315,95.6351955381615 179.9773495926056,96.78084514540387 179.61494307397516,99.2592810823262 179.51786989934044,99.42400801015901 179.5566991691885,99.78341093871131 179.11663411089103,102.86821401750058 179.14252029079944,104.14103204247658 179.65377234385232,108.58074882145593 180.14560976193752,109.0 180.04206504236208,108.83529446410103 179.7896747883351,105.96786186834652 179.47256908455165,104.05867389396735 179.47256908455165,102.64359679102199 179.97087804763578,99.61868481394049 180.33975611120695,96.4588669893783 180.63744718005182,95.22335636096977 180.59214636523393,94.9388115853144 180.88336588910897,92.7672494843282" stroke="#4DD2FF" stroke-linecap="round" stroke-linejoin="round" stroke-width="0.5"><title>2025-08-30 5.0km</title><desc>1756550382000</desc></polyline><polyline fill="none" points="19.636165208386956,128.99190374834143 19.881054010416847,129.0 20.664698177046375,123.55103658699954 20.776647343678633,121.72923463044572 20.31485703124781,118.47417807111924 20.11894598955405,116.0125544224793 20.000000000029104,115.47001529365662 19.643162031279644,114.91127710370347 19.692139791703084,114.78171406496404 20.055974583345233,114.83839792034269 19.881054010416847,113.1945497326742 19.559200156247243,112.8625368664143 19.580190625041723,111.88268594590772 19.223352656292263,111.0 19.58718744793441,111.92317589218874 19.545206510432763,112.8220473977708 19.881054010416847,113.21884330269677 20.04198093750165,114.82220253721607 19.692139791703084,114.78981176106026 19.643162031279644,114.8950817353907 19.93702859376208,115.35664844168059 20.125942812504945,116.13401790019998 20.328850677091395,118.68470814086322 20.776647343678633,121.61587668731954 20.692685468733544,123.33242255208461 19.979009531234624,128.23085241995432" stroke="#4DD2FF" stroke-linecap="round" stroke-linejoin="round" stroke-width="0.5"><title>2025-08-28 5.0km</title><desc>1756381580000</desc></polyline><polyline fill="none" points="43.46617003151914,111.0 43.61439886764856,111.76811003351759 43.588619939633645,112.46909664043778 43.18904655537335,114.97469616110902 43.04726245126221,115.2356911924071 43.02792825526558,116.05595524932869 42.460791838908335,119.39657236682251 42.50590496294899,119.82159534034872 42.0741079186555,122.63265024788416 42.041884258622304,123.77344554387673 42.144999970681965,123.89274337471579 42.10633157865959,124.37738881937548 42.59613121097209,128.60485267570039 43.13748869931442,129.0 42.963480935199186,128.84343244656338 42.36412085880875,123.90765558993735 42.338341930822935,122.94581150582962 42.78302843909478,119.80668229520961 42.892588883201825,119.65009513837867 42.99570459523238,118.33773250403465 43.44683583555161,115.75767847098177 43.414612175518414,115.407201707676 43.53706208357471,115.2431481796666 43.48550422754488,115.0194382323898 43.67240145566757,113.7368213738664" stroke="#4DD2FF" stroke-linecap="round" stroke-linejoin="round" stroke-width="0.5"><title>2025-08-26 5.0km</title><desc>1756206850000</desc></polyline><polyline fill="none" points="66.28054612965207,111.0 66.29348922485951,111.61404911642603 66.3970339865482,111.63651423098781 66.33879005810013,112.40032405162492 65.9763833922625,114.88639532199886 65.8534239877772,115.16345228834689 65.70457839287701,116.84823574349866 65.25804160817643,119.38657010345196 65.18685458452092,120.56211127230199 64.85680565671646,122.77087996923365 64.91504958516452,124.440515442795 65.4133587506949,128.89518742878863 65.43277339349152,129.0 65.82106624977314,128.955080344851 65.54278970276937,126.05021788403246 65.19979767972836,124.07364810892614 65.16743994169519,123.07036893548502 65.58161898839171,120.0080368784038 65.7304645832919,119.5812470061137 66.22877374879317,115.50041206009337 66.37761934372247,115.20089233903127 66.32584696289268,114.9612756858769 66.57176577183418,113.09673198908422" stroke="#4DD2FF" stroke-linecap="round" stroke-linejoin="round" stroke-width="0.5"><title>2025-08-24 5.0km</title><desc>1756042259000</desc></polyline><polyline fill="none" points="88.3419565888471,129.0 88.54274457361316,128.70957506886043 89.23833152087172,123.97135386590526 89.36740951112006,121.88844107749173 88.98734653991414,119.49012108822353 88.60728356873733,115.83026516121754 88.19136560030165,114.98374450433766 88.29175959268468,114.8675547093153 88.60011256928556,114.90075181049178 88.44235058123013,113.27407797389606 88.09814260734129,112.8840034078894 88.15551060295547,112.04575175572973 87.76827663232689,111.0 88.13399760462926,111.88805988865352 88.11248460621573,112.89230288613908 88.45669258013368,113.29897628714389 88.62162556764088,114.90905108365405 88.5355735741905,114.9920437690671 88.23439159698319,114.88415326158429 88.23439159698319,115.00034303295979 88.51406057580607,115.5065965349786 88.6718225638324,116.1207359124528 88.85826854972402,118.3780733771273 89.37458051054273,121.97142666717264 89.25984451925615,123.86347522555297 88.47103457906633,128.9336172496769" stroke="#4DD2FF" stroke-linecap="round" stroke-linejoin="round" stroke-width="0.5"><title>2025-08-23 5.0km</title><desc>1755956696000</desc></polyline><polyline fill="none" points="112.06404149334412,111.0 112.070559135027,111.49775452424365 112.1552884770208,111.58825498821534 112.12270026857732,112.34242122989963 111.73164176713908,114.77078446850646 111.58825364997028,115.07998029737064 111.25585392376524,118.17940878979425 111.08639523986494,119.20498193983076 110.97559533111053,119.31055484219542 111.02773646466085,119.68005881842691 110.55846626296989,123.23172774412524 111.15808929843479,128.87936098423233 111.17764222351252,128.96984026442078 111.52959487476619,129.0 110.88434834746295,123.08091723063262 111.85547695925925,116.02264255887712 111.97931215137942,115.25343105212232 112.0966297017876,115.11014567511302 112.04448856829549,114.82357409142423 112.2986765941605,112.86279146892048" stroke="#4DD2FF" stroke-linecap="round" stroke-linejoin="round" stroke-width="0.5"><title>2025-08-21 5.0km</title><desc>1755781186000</desc></polyline><polyline fill="none" points="134.78746811952442,111.0 134.8068908486166,112.3934153112059 134.41843626755872,114.89550358931592 134.28247716417536,115.15769355411612 134.22420897701522,115.59966881306173 134.29542565022712,115.81690991843061 133.69332104959176,119.36758761899546 133.73216650771792,119.74212171293766 133.30486646856298,122.8132295452233 133.33076344060828,124.1090488804839 133.8745998540835,129.0 134.25010594908963,128.9325924638615 133.99113622840378,126.09393031309446 133.6544755914947,124.07159777406196 133.63505286243162,122.64095127178007 134.05587865857524,119.77957501771743 134.16594078985509,119.61478033440653 134.6126635580731,115.89182049604278 134.82631357765058,115.17267580965563 134.8327878206619,114.34864723412466 135.26656210285728,111.59183015047165" stroke="#4DD2FF" stroke-linecap="round" stroke-linejoin="round" stroke-width="0.5"><title>2025-08-19 5.3km</title><desc>1755607955000</desc></polyline><polyline fill="none" points="156.9478233466216,128.91134006194625 157.26127051911317,129.0 157.26127051911317,128.4035585078018 157.37968389535672,128.13757639637333 157.52595924254274,126.29985743787256 157.95085429854225,123.5190175207099 157.90906134221586,121.69731300375861 157.43540783715434,118.64223670910724 157.21947756278678,116.12715152443707 157.0871332010429,115.46612230624305 156.74582405775436,114.89376328713115 156.82244447764242,114.75671896518907 157.15678812828264,114.82927187102177 157.01051278112573,113.32177007346036 156.64830715963035,112.83001194937242 156.6761691304855,111.87873347735876 156.33485998713877,111.0 156.70403110139887,111.91904211878864 156.66223814504337,112.82195031536685 156.98961630294798,113.17666143608949 157.15678812828264,114.82121044032101 156.8085134922294,114.77284183888696 156.77368602860952,114.87764043802599 157.1776846064604,115.80469893578265 157.38664938809234,118.23112247014069 157.90209584950935,121.79404172927025 157.89513035677373,122.62429177048762 157.37968389535672,126.19507393342064 157.2264430554933,126.26761637432355 157.12892615739838,126.50942403145018 156.9478233466216,127.69427089524834" stroke="#4DD2FF" stroke-linecap="round" stroke-linejoin="round" stroke-width="0.5"><title>2025-08-17 5.0km</title><desc>1755429603000</desc></polyline><polyline fill="none" points="179.74111752575845,128.9595187335217 179.65015881863656,129.0 179.75511117302813,128.89474866437376 179.87405717471847,127.11355112918682 179.97201270548976,126.49012258402945 180.29386659237207,126.2229374284434 180.28686976872268,125.60759851037437 180.72067283361685,123.1623889988623 180.7836442462867,122.06121053561219 180.02099047086085,115.67245569921215 179.6221715240972,114.89508173525246 179.69913658400765,114.80600715063338 180.03498411813052,114.83030022904859 179.88805082195904,113.25933256946155 179.55220328780706,112.83824318762345 179.57319375872612,111.92317589215236 179.2163557537424,111.0 179.59418422961608,111.93937186490803 179.54520646418678,112.79775370663992 179.88105399830965,113.19454973259417 180.0489777654002,114.82220253706328 179.69213976038736,114.78171406481852 179.64316199498717,114.9031794198163 180.06297141264076,115.7696269111475 180.7836442462867,121.6806526743676 180.77664742263732,122.64418926530925 180.30786023961264,126.09339278801781 179.9580190582201,128.32800831341592 179.8110857620777,128.4413567061274 179.7621079966775,128.78140091669047" stroke="#4DD2FF" stroke-linecap="round" stroke-linejoin="round" stroke-width="0.5"><title>2025-08-16 5.1km</title><desc>1755350047000</desc></polyline><polyline fill="none" points="19.895000417658594,148.9514006132158 19.64300141998683,149.0 19.762000946648186,148.8785014774985 20.09799961023964,146.36749054866232 20.28699885844253,146.27028853527736 20.244999025482684,146.00298238729738 20.74899702082621,143.03015358735865 20.78399688162608,141.7421633565391 20.027999888610793,135.69076077497448 19.650001392146805,134.92923980825435 19.727001085848315,134.78341581407585 20.03499986079987,134.8320238417873 19.881000473338645,133.23604476632318 19.55200178193627,132.86337499705405 19.601001587026985,132.06131892801204 19.209003146213945,131.0 19.573001698416192,131.85067660131608 19.566001726256218,132.82286730838678 19.881000473338645,133.20363876863848 20.06299974943977,134.82392250589328 19.69900119723752,134.79151715409535 19.66400133643765,134.9049358277698 19.96500013920013,135.39101402905362 20.09099963805056,135.87708926485357 20.314998747082427,138.47754140741017 20.755996993015287,141.41003671350336 20.790996853786055,142.5846247303416 20.258998969831737,145.9948821869839 20.30099880276248,146.2378878378222 20.076999693759717,147.48530518261396 19.895000417658594,147.89840662368078" stroke="#4DD2FF" stroke-linecap="round" stroke-linejoin="round" stroke-width="0.5"><title>2025-08-14 4.9km</title><desc>1755170321000</desc></polyline><polyline fill="none" points="43.592403213027865,131.01505828869995 43.43624172147247,131.0 43.48178882320644,132.36276273598924 43.104398552008206,134.9225807852854 42.967757246951805,135.1936151666523 42.967757246951805,135.90131137813296 42.583860246959375,138.60404642499634 42.46023239954957,139.34182326922019 42.362631467345636,139.40204962618736 42.421192026667995,139.7784632484545 41.97222773855901,142.87251079228008 42.011268111440586,144.18988843089755 42.557833331724396,148.93978143978165 42.92871687407023,149.0 42.29105745040579,143.03812526767433 43.35165424691513,135.52487806438148 43.501309009618126,135.2162013203415 43.43624172147247,134.95269576551073 43.74205797573086,132.81450175839564" stroke="#4DD2FF" stroke-linecap="round" stroke-linejoin="round" stroke-width="0.5"><title>2025-08-12 5.0km</title><desc>1754999139000</desc></polyline><polyline fill="none" points="66.19964641390834,131.0603087970594 66.2843402272556,131.0 66.29085513600148,132.27401291723072 65.88693079535733,134.86720239714487 65.75011771224672,135.12350108713872 65.61330462913611,136.86480110110278 65.18332065359573,139.38999043372314 64.74682176936767,143.030634564333 64.78591122169746,144.14615851492272 65.24195483210497,147.9222334161168 65.71754316866281,149.0 65.07908211406902,143.0758588343233 66.04328860464739,136.11853466997854 66.27782531853882,135.15365381597076 66.21919114005868,134.94258445667947 66.49281730630901,132.9072419677468 66.68174965921207,132.1383202746947" stroke="#4DD2FF" stroke-linecap="round" stroke-linejoin="round" stroke-width="0.5"><title>2025-08-10 5.0km</title><desc>1754830447000</desc></polyline><polyline fill="none" points="88.31546886608703,149.0 89.29021952481708,143.1979184644806 89.35333287683898,141.83457099948282 88.83440087147756,138.23944193188072 88.58896005811403,135.6180606555863 88.1962547567382,134.9200932334861 88.25235551409423,134.77400625642622 88.60999784211162,134.84704977838555 88.45572075943346,133.24007685336983 88.11911621541367,132.842386640099 88.14015399938216,131.93337299676932 87.78251167136477,131.0 88.154179188743,131.965837948017 88.12612881005043,132.85050278672134 88.45572075943346,133.24819295953057 88.62402303141425,134.82270194516605 88.26638070339686,134.80647005221545 88.22430513540166,134.89574542255286 88.62402303141425,135.75603023749863 88.94660238613142,138.94549585680943 89.32528249814641,141.26650268438243 89.36034547147574,142.55682344923116 88.54688449008972,148.3183787094531 88.3224814607238,148.55370100304572" stroke="#4DD2FF" stroke-linecap="round" stroke-linejoin="round" stroke-width="0.5"><title>2025-08-09 5.0km</title><desc>1754735080000</desc></polyline><polyline fill="none" points="111.96908220573096,131.0 112.00815527397208,132.2659443807861 111.75418033049209,134.2552418919222 111.42857142857974,135.62662046950572 111.35693747017649,136.86988133261912 110.92062154161977,139.41661731127533 110.94667025379022,139.80841508629237 110.50384214721271,142.79203795787907 110.49081779111293,143.8166888406122 111.0508651023847,148.5781161152554 111.48718103091232,149.0 110.84898758318741,144.08791758801817 110.88154847340775,142.48313307743229 111.81278993282467,136.07871773993975 111.93000913751894,135.34782577912847 112.04071616416331,135.2046605308933 111.98861873985152,134.8957240536838 112.36632506604656,132.34129753154411" stroke="#4DD2FF" stroke-linecap="round" stroke-linejoin="round" stroke-width="0.5"><title>2025-08-07 5.0km</title><desc>1754570205000</desc></polyline><polyline fill="none" points="134.59766977693653,131.0 134.63792209836538,131.51234840384132 134.77209650320583,131.56668818454636 134.7251354615437,131.93153999677452 135.08740635454888,131.9858794793181 135.12765867597773,132.31967830981012 134.75867906273925,134.1671896489861 134.65133953886107,135.15302826082916 134.7251354615437,135.41695140008233 134.6110872174322,135.52562536891492 134.39640816970496,136.7908894878783 133.45047861570492,143.66797101492557 134.03413727669977,149.0 133.44376989547163,143.54378541283222 133.85971055043046,140.4002701623176 134.0140111159708,139.97336305776844 134.38299072923837,136.7908894878783 134.57083489600336,135.6187743620394 134.69159186031902,135.4091889678093 134.64463081862777,135.10645349458355 135.01361043189536,132.38954299677425" stroke="#4DD2FF" stroke-linecap="round" stroke-linejoin="round" stroke-width="0.5"><title>2025-08-05 5.0km</title><desc>1754406000000</desc></polyline><polyline fill="none" points="156.87029133725446,149.0 157.18179511505878,146.41945485727047 157.3729451605177,146.27199263979128 157.67028967570513,144.27303374537587 157.88975824642694,142.66727676208393 157.90391750907293,141.66775881296053 157.3871044231637,138.12018929852638 157.18887474641087,135.76051847534836 157.01188396351063,135.14600952499313 156.74285797364428,134.76091486085352 156.80657465543482,134.63801192102983 157.153476589825,134.6707860566603 156.99064506959985,133.0566440387338 156.65790239785565,132.7043143242554 156.68622092314763,131.7046727940251 156.3817967766372,131.0 156.69330055441242,131.8111925638441 156.65790239785565,132.62237696052762 157.00480433224584,133.0484503419284 157.1605562211189,134.6625925240005 157.06852101406548,134.74452781302534 156.7286987110274,134.6789795884688 157.18179511505878,135.63761706018704 157.4720599989232,138.7428686880594 157.90391750907293,141.69233727183018 157.89683787774993,142.70824034805264 157.06852101406548,148.37739984357904 157.02604322618572,148.51666608552478 156.84197281202069,148.52485820989386 156.77117649884894,148.83615831973293 156.57294682209613,148.81977413339337" stroke="#4DD2FF" stroke-linecap="round" stroke-linejoin="round" stroke-width="0.5"><title>2025-08-03 5.0km</title><desc>1754221111000</desc></polyline><polyline fill="none" points="189.0,139.02613251820185 188.944657955406,139.25560136774948 188.80169100691273,139.2689425182507 185.99308224441484,139.21290964059153 185.91698693312355,139.16488136458065 185.80630284396466,139.210241405337 185.44888547270966,139.2075731698169 185.41890853187942,139.17822256117142 184.78016910068982,139.2155778755714 184.46656418139173,139.16754960444086 183.45426594927267,139.16488136458065 183.0161414296599,139.09550703303648 182.7186779400363,139.0181277546926 182.70023059184314,138.98877693430404 182.2874711760087,138.9754356414578 181.3812451959966,138.8153395986228 180.04842428900884,138.80466649439222 177.26748654879339,139.1515401612105 176.8916218293598,139.32497527635496 176.48808608761465,139.44771328106253 175.40430438124167,140.10675319219808 174.83013066870626,140.39757931046734 174.4773251345032,140.49896747536695 174.26979246732662,140.50163557968153 174.0069177555706,140.4376010012711 173.72790161414014,140.5523295102048 173.63335895464115,140.36556191392992 173.52036894696357,140.44026911182118 173.42813220599783,140.26684136219774 171.85780169100326,141.19533350560596 171.73789392774052,140.89384396581227 171.25365103765216,139.96800932215774 171.20753266717657,139.9359914018969 171.0,140.03738134880223 171.1360491929081,139.93332324011863 171.20292083012464,139.92531875314307 171.22367409683648,139.8586146001253 171.30668716372747,139.86395093859755 171.41737125288637,139.78924210125479 171.44965411222074,139.82659654649797 171.53266717908264,139.77323303703452 171.5049961568002,139.82392837359657" stroke="#4DD2FF" stroke-linecap="round" stroke-linejoin="round" stroke-width="0.5"><title>2025-08-02 8.3km</title><desc>1754134728000</desc></polyline><polyline fill="none" points="20.48112953765667,151.0 20.38425781868864,151.02241867959674 20.326134787290357,151.62772044508893 20.810493382217828,151.62772044508893 20.810493382217828,152.1134528267794 19.195964732411085,162.7987537910376 19.202422847010894,163.92697120822413 19.874066765332827,169.0 19.23471342000994,164.0689311148817 19.189506617782172,162.97060259394493 20.145307578495704,156.14117160694877 20.38425781868864,155.21459164348926 20.319676672690548,155.00536229442514 20.623208058823366,152.80094548353372" stroke="#4DD2FF" stroke-linecap="round" stroke-linejoin="round" stroke-width="0.5"><title>2025-07-31 5.0km</title><desc>1753965181000</desc></polyline><polyline fill="none" points="42.5007567438297,169.0 42.57838540218654,168.34671299291222 42.77598562344792,168.1098951413369 43.49581500084605,163.15289233152726 43.573443659202894,161.3235422143116 43.20647181972163,159.1021325003312 42.81832852799562,155.43503868585685 42.4442995377467,154.71630134607403 42.52192819613265,154.61012369384116 42.832442829501815,154.6509612689988 42.69835696509108,153.02560974576772 42.338442276377464,152.6335602336112 42.38078518095426,151.72693840696593 42.09849915056839,151.0 42.38784233169281,151.7432740259319 42.35961372862221,152.64989566816075 42.69835696509108,153.07461580021481 42.86067143254331,154.63462624143722 42.76892847268027,154.71630134607403 42.4866424423235,154.60195617630234 42.458413839282,154.7244688519786 42.88184288481716,155.66372649071127 43.128843161364784,158.4079293676914 43.61578656375059,161.91155215155595 43.10767170909094,166.141830134271 42.73364271890023,168.48553692626592 42.59955685446039,168.54269965266576" stroke="#4DD2FF" stroke-linecap="round" stroke-linejoin="round" stroke-width="0.5"><title>2025-07-29 5.0km</title><desc>1753797916000</desc></polyline><polyline fill="none" points="66.48632622149307,151.0 66.47335075077717,152.37379924071865 66.17491492445697,154.47573770905728 65.94135645168717,155.17386832929333 65.78565080315457,157.0955701637431 65.35097253439017,159.39253882277262 65.40287441722467,159.79787882238452 64.97468388377456,162.6427025637895 65.00063482523547,164.15139051205188 65.53262912432547,169.0 65.03307350198156,164.78938361408655 64.94224520705757,163.19063756865944 65.35746026976267,159.51263979514624 65.93486871634377,155.84196564968443 65.87647909813677,155.654298473135 66.15545171842678,154.51327178114298 66.47335075077717,151.9759255856843" stroke="#4DD2FF" stroke-linecap="round" stroke-linejoin="round" stroke-width="0.5"><title>2025-07-27 5.0km</title><desc>1753616848000</desc></polyline><polyline fill="none" points="89.08554405119503,151.0 89.10470363427885,152.58145924651035 88.75344461086206,155.07920801223372 88.6129410014837,155.3452353709945 88.41495864282479,157.51775571887993 88.05731309167459,159.49809189040388 88.08285920246271,159.87494080296165 87.6166426804557,162.94877276403713 88.19781670105294,169.0 88.58100836299127,168.94089398662618 88.30638767193886,165.97814355786977 87.99344781468972,163.9019298557323 87.9806747593102,162.79360647435533 88.86201558171888,156.57929400511057 89.15579585588421,155.33784573528828 89.09193057889934,155.04964935674798 89.52621446241392,152.41888090982684" stroke="#4DD2FF" stroke-linecap="round" stroke-linejoin="round" stroke-width="0.5"><title>2025-07-26 5.2km</title><desc>1753529066000</desc></polyline><polyline fill="none" points="112.04984006169252,151.0 111.9721814825607,151.38939759416826 112.07572625472676,151.8911183840828 111.95276683775592,153.07426731954183 111.68096181077999,154.91634747653734 111.53858774903347,155.17842831074086 111.51917310422868,155.9646652222582 110.94320530898403,159.41652042942587 110.98850614676485,159.74597321430338 110.56138396152528,162.88318847393384 110.61962789588142,164.55282140445343 111.13088020854047,169.0 111.499758459453,168.96256695595366 111.2085387877014,166.24487719286117 111.2732542703161,166.10262620994035 110.90437601940357,163.99128988495067 110.89790447111591,162.9880095908302 112.29575889563421,153.20156702262466" stroke="#4DD2FF" stroke-linecap="round" stroke-linejoin="round" stroke-width="0.5"><title>2025-07-24 5.0km</title><desc>1753356656000</desc></polyline><polyline fill="none" points="133.97000517009292,168.96752733306494 134.06121002571308,169.0 134.36990338319447,166.43461864534038 134.57336036881316,166.30472372732038 134.52425006194972,166.05305172260705 135.05043192129233,162.79748109682987 135.08551071194233,161.81510080776206 134.55932885257062,158.34825727638236 134.3418403507094,155.78253377995134 133.92089486325858,154.89750243924937 133.98403668633546,154.76758875626547 134.32780883443775,154.83254562417278 134.14539912319742,153.2004883030313 133.84372152382275,152.87569679656008 133.87178455633693,151.99875312977383 133.48591785947792,151.0 133.83670576571603,151.80387545137637 133.8296900075802,152.84321757326688 134.15241488133324,153.18424875907658 134.33482459257357,154.78382797820086 134.2436197369534,154.8731436397793 133.998068202578,154.77570836765517 133.92089486325858,154.8731436397793 134.16644639757578,155.22228572196036 134.3418403507094,155.80689230201097 134.6575494662975,159.03839035103738 135.06446343753487,161.6770794685508 135.05744767942815,162.75688710931718 134.29273004381685,168.07452382013435" stroke="#4DD2FF" stroke-linecap="round" stroke-linejoin="round" stroke-width="0.5"><title>2025-07-22 5.0km</title><desc>1753184035000</desc></polyline><polyline fill="none" points="148.1428571428405,162.9687195509905 148.1428571428405,160.0803347924666 150.05657054809853,151.99271693307674 165.5326876513427,154.81698797398712 166.1428571428405,155.49095801229123 164.0627338764025,167.9751905600715 150.1675104557071,165.792892441008 149.66828087170143,165.15103718347382 151.3878494387027,152.6666929986677 151.9980189302005,152.2815639944747 155.68677085638046,152.89135136760888 166.11512216599658,155.2021138863638 164.28461369150318,167.71845038753236 163.7021791767329,168.00728306692326 149.89016068680212,165.66452149386168 150.05657054809853,161.55662363601732 151.41558441566303,152.7308811204275 151.859344045748,152.3457521944656 158.6821483601816,153.5011375633767 151.72066916141193,152.4099403814471 150.94408980861772,155.94027057220228 151.63746423076373,156.6142382133403" stroke="#4DD2FF" stroke-linecap="round" stroke-linejoin="round" stroke-width="0.5"><title>2025-07-20 4.9km</title><desc>1753020627000</desc></polyline><polyline fill="none" points="181.03458710559062,151.0 180.89879754799767,151.920306203785 180.39443633402698,153.21470115546254 179.96766915294575,155.15999181925145 179.8512781035679,156.69374246137158 179.450375600165,159.2598977211528 179.35984922840726,159.34219276600925 179.40511241430067,159.7087786668635 178.98481140262447,162.7386535058031 178.96541289440938,163.74110317716259 179.54090197189362,168.99251961675327 179.4762402778142,167.96021944504173 179.54736814132775,169.0 179.9159397976764,168.92519613334298 179.29518753432785,163.06781758857687 180.28451145405415,155.84083141246083 180.49142887516064,155.18991896658554 180.51729355280986,154.31454488242161" stroke="#4DD2FF" stroke-linecap="round" stroke-linejoin="round" stroke-width="0.5"><title>2025-07-20 5.0km</title><desc>1752942252000</desc></polyline><polyline fill="none" points="20.776145987474592,171.00805460508855 20.66477077853051,171.0 20.490747014497174,171.88600165282696 20.685653630207526,172.00681929278653 20.67173172906041,172.26456297602272 20.428098459466128,173.9076592583515 20.295840398815926,174.1895596098475 19.95475382139557,177.4031527761981 19.669354848418152,178.71593657314224 19.697198650683276,179.1025190702785 19.202971160877496,182.79911902814638 19.8712224146293,189.0 19.251697814790532,183.8299484225281 19.237775913701626,182.26759238619707 19.697198650683276,179.15084174990625 19.676315798948053,178.72399039437732 20.184465189871844,175.66347941254207 20.28887944825692,174.18150532800064 20.428098459466128,173.89155063656654 20.797028839151608,171.25774695668224" stroke="#4DD2FF" stroke-linecap="round" stroke-linejoin="round" stroke-width="0.5"><title>2025-07-17 5.0km</title><desc>1752765839000</desc></polyline><polyline fill="none" points="50.58011583017651,188.62017024712986 50.98552123561967,188.05724069090502 51.85714285715949,180.71557535391185 38.82335907337256,180.12917028802622 36.47200772201177,180.3168200712389 36.7557915057987,180.12917028802622 36.330115830060095,177.4786008035735 33.917953667929396,173.67861622768396 33.85714285715949,171.54402954618854 34.14092664094642,171.3798297528847 45.47200772201177,171.5674866499321 44.66119691124186,178.9563556866633 44.15444015443791,179.28474437574914 37.080115830060095,179.05018107409705 36.30984555988107,176.58725201355992 34.32335907337256,174.05392613090225 34.080115830060095,172.7168818149512 36.897683397633955,172.50576884645852 45.10714285715949,172.7872527615691 45.22876447881572,174.54651945258956 44.49903474911116,180.26990763975482 43.40444015443791,180.34027628338663" stroke="#4DD2FF" stroke-linecap="round" stroke-linejoin="round" stroke-width="0.5"><title>2025-07-15 4.1km</title><desc>1752589649000</desc></polyline><polyline fill="none" points="66.4376525853877,171.0 66.4925050495658,172.277351380224 66.06739845231641,174.94306086831784 65.91655417587026,175.25246768275247 65.90969761784072,176.03787947543606 65.30632051211433,179.71889615291002 65.33374674420338,180.1314130735118 64.87435735683539,183.5504598454063 65.42288199844188,189.0 65.1074803295196,186.84244003838103 64.86750079883495,183.37594136077678 65.89598450181074,175.9823455677979 65.8342754796322,175.7284757727757 66.03997222019825,174.99859551501868 66.44450914341724,172.35668928601808 66.39651323726866,172.07900626306218 66.56107062974479,171.2380173692436 66.41022635332774,171.04760353190068" stroke="#4DD2FF" stroke-linecap="round" stroke-linejoin="round" stroke-width="0.5"><title>2025-07-13 5.0km</title><desc>1752418082000</desc></polyline><polyline fill="none" points="88.41510740233934,189.0 88.3227358024742,188.9917779814714 88.37957986394758,188.34223587893212 88.6922222020803,186.3689114317458 88.8769654018979,186.20446555533272 89.1967132477148,183.96796845112112 89.36724543210585,181.65740467171418 88.89828192492132,178.44223992175102 88.65669466365944,175.75324440772238 88.51458450994687,175.2269473625929 88.2161531871825,174.74998770706588 88.28010275636916,174.62663561422232 88.62116712520947,174.6759764739545 88.47195146384183,173.11350129892526 88.13088709494332,172.68587125244812 88.15220361805405,171.7072478293776 87.91061635676306,171.0328953850185 87.76140069536632,171.0328953850185 87.88929983368143,171.0 88.13088709494332,171.60033867062884 88.12378158728825,172.69409492853447 88.43642392539186,172.98192306394049 88.47195146384183,173.14639582422387 88.62116712520947,174.65130604784645 88.27299724868499,174.63485909293377 88.19483666412998,174.72531730357878 88.5074790022918,175.17760683902452 88.64958915597526,175.67923409270588 88.94091497105546,178.8780625799991 89.38145644747419,181.59984530091606 89.37435093981912,182.65235303719965 88.5074790022918,188.57245392954792" stroke="#4DD2FF" stroke-linecap="round" stroke-linejoin="round" stroke-width="0.5"><title>2025-07-12 5.1km</title><desc>1752325602000</desc></polyline><polyline fill="none" points="111.32012060726993,189.0 111.1451999276469,188.99190374835598 111.53702224994777,186.29580619558692 111.69794927519979,186.21484089404112 112.14574621492648,183.2109700501387 112.21571448681061,181.69684666195826 111.80290168293868,178.98430766406818 111.4880444596347,175.68865090863255 111.06823482859181,174.83839791952778 111.12420944607584,174.74932327152783 111.47405080529279,174.8060071499567 111.31312378006987,173.16215829394787 110.99826655676588,172.81394950112735 110.98427290242398,171.72072595467762 110.63443154320703,171.0 111.00526338393684,171.8098039904653 110.99826655676588,172.8058516041201 111.32012060726993,173.1702561547354 111.49504128683475,174.78171406413458 111.1591935819888,174.7412255713134 111.08222848302103,174.87078867589298 111.5020381140348,175.75343171659915 111.80989851010963,178.96811312399223 112.22271131395246,181.6401676875248 112.15274304212653,183.1704858420635 111.48104763246374,187.6398181816039" stroke="#4DD2FF" stroke-linecap="round" stroke-linejoin="round" stroke-width="0.5"><title>2025-07-10 5.0km</title><desc>1752149320000</desc></polyline><polyline fill="none" points="131.76141358277528,171.0 131.80357309343526,172.1220300960049 132.1092295459821,171.96348300139653 132.76270196179394,172.1830096919948 133.46887376595987,172.1220300960049 134.25936459150398,172.4147318742689 138.3382972512627,172.95134994727414 138.45423590566497,173.109895737005 137.5161867927527,179.09789494444703 137.0629720527213,179.1344805796034 136.97865303134313,179.29301820299588 136.82055486622266,180.35399537060584 136.93649352062494,180.81740774305945 136.2197818388231,184.85389776057855 130.97092275723116,184.6953674802644 130.7917448367807,184.57342096840148 130.11719266569708,189.0 130.8233644698048,184.646588890384 132.8681007385021,184.68317283462966 133.55319278727984,184.4148903177629 133.64805168641033,184.6953674802644 136.2514014718472,184.78072996492847 138.06426043173997,173.42698668821686 138.01156104338588,173.01232912197884 132.58352404134348,172.0610504689903" stroke="#4DD2FF" stroke-linecap="round" stroke-linejoin="round" stroke-width="0.5"><title>2025-07-08 5.1km</title><desc>1751976330000</desc></polyline><polyline fill="none" points="148.30317999742692,188.83610268475604 148.26455067272764,189.0 148.50920306280022,188.89570172964886 148.5864617121988,188.06131289622863 149.03713716758648,187.68881634827994 149.1272722586291,187.30141893458494 150.4277928583324,178.2866900825029 150.54368083248846,175.55981166484708 150.23464623460313,173.54814753265237 150.94285052159103,173.51834489352768 151.12312070367625,173.7865684274002 153.60827392886858,174.1441990424064 155.60412237397395,174.11439652449917 157.05916027259082,174.6955445312342 161.69467924168566,175.3809981931845 162.5445243860595,171.0 166.0211636129534,171.77487996006676 162.91794119187398,171.04470472445246 162.3385013207444,173.62265410390683 162.24836622964358,175.4108004536247 153.5696446041111,174.24850780746783 151.12312070367625,173.8014697204635 150.90422119689174,173.47364092349017 150.19601690990385,173.59285147994524 150.4792986246175,174.78495171236864 150.53080439101905,177.3628353163076 149.07576649228577,187.34611868843785" stroke="#4DD2FF" stroke-linecap="round" stroke-linejoin="round" stroke-width="0.5"><title>2025-07-06 5.0km</title><desc>1751807521000</desc></polyline><polyline fill="none" points="173.7397342530312,187.88428805598232 174.5196088081575,182.33842899363663 171.9956511569908,182.15793925551407 171.20159706455888,182.43687785667134 172.23670329223387,182.33842899363663 172.09490791865392,182.17434742185287 174.7039427938871,182.32202084397431 174.88827677967492,182.15793925551407 174.80319955549203,181.64928527163283 175.86666485783644,174.93818426875805 175.76740809634794,171.590733765217 177.59656841657124,171.4102320107486 188.79840293549933,173.24805862178619 188.7842233981355,172.70655831242038 176.46220542723313,171.0 176.66071895038476,175.05304653466737 175.37038105004467,184.17613120531314 175.7248694842565,184.7340009524487 175.3987401248305,185.34109231071488 175.4696378116496,186.65371447143843 174.9733540037996,186.76856840281107 174.74648140597856,189.0 173.59793887933483,188.86874017144146 173.66883656621212,187.90069564041914" stroke="#4DD2FF" stroke-linecap="round" stroke-linejoin="round" stroke-width="0.5"><title>2025-07-05 4.8km</title><desc>1751729502000</desc></polyline><polyline fill="none" points="22.897109659621492,209.0 23.075249088578857,208.86981198194553 23.10337636678014,208.13207688097464 23.34714611165691,207.05801225300092 23.478406743437517,207.01461547528015 23.647170412994456,205.4414703723014 19.981248481140938,205.28957927314332 20.215642466559075,204.4758732763221 20.562545564898755,200.80869462042756 20.60004860261688,198.12875362045452 20.468787970778067,197.77069972742174 20.6094243619591,195.578949717652 20.60004860261688,191.0 15.677774908952415,192.7686697420213 15.574641555373091,193.01823427827185 15.612144593091216,192.80122167114314 18.265484507894143,191.79210725105077 18.312363305012695,194.02733710464236 18.574884568632115,194.59156248300133 20.534418286639266,194.59156248300133 20.5437940460979,197.4560453147351 20.750060753256548,197.55369678345596 20.825066828576382,197.90090128205338 24.256594775011763,198.11790352014214 24.4253584445687,198.97505804750836 24.40660692565143,200.53744859182916 23.225261239218526,208.59858643445477" stroke="#4DD2FF" stroke-linecap="round" stroke-linejoin="round" stroke-width="0.5"><title>2025-07-03 5.2km</title><desc>1751545471000</desc></polyline><polyline fill="none" points="42.54171826023958,209.0 42.96929382489179,206.36393109844357 43.14452971203718,206.2422642780657 43.59313358317013,202.9166326980121 43.6281807605701,201.76479627827212 42.86415229260456,195.6484285694387 42.49265221186215,194.87776542525535 42.56975600216538,194.77230567908555 42.885180599056184,194.82909171356732 42.737982453836594,193.25529236594593 42.39452011504909,192.81721898241085 42.401529550523264,191.81937618378288 42.07208608271321,191.0 42.42956729247817,191.89238949473656 42.39452011504909,192.83344396545 42.709944711910794,193.14171801602788 42.75901076028822,193.39320385919564 42.885180599056184,194.82097942539258 42.54171826023958,194.7966425559498 42.49265221186215,194.90210226994532 42.871161728107836,195.6484285694387 43.23565237337607,199.12037652645813 43.642199631547555,201.74046152670053 43.52303922828287,203.55743590315979 42.752001324814046,208.72423071540106" stroke="#4DD2FF" stroke-linecap="round" stroke-linejoin="round" stroke-width="0.5"><title>2025-07-01 5.0km</title><desc>1751376396000</desc></polyline><polyline fill="none" points="65.08171570341801,209.0 65.21169584264862,208.83956882237544 65.18569981478504,208.24797660073818 65.39366803751909,208.04743605965632 65.54097886197269,207.26532405517355 65.76627776992973,204.50782842640183 66.07823010403081,203.43489111880626 66.42484380863607,200.6171216954681 66.33819038249203,199.00263390867622 65.85293119604466,196.12456840601953 65.5236481767497,192.63467598475108 65.00372761991457,191.34097759509314 65.46299077841104,191.43123617296078 65.48032146366313,191.0 65.48032146366313,191.4111787183283 65.08171570341801,191.33094885912578 65.01239296249696,191.43123617296078 65.34167598182103,191.92264253658504 65.54097886197269,192.6146187748891 65.90492325177183,196.50564113540895 66.42484380863607,199.96531303638767 66.3815170955495,201.5797850687668 65.28968392615207,208.6590834358285" stroke="#4DD2FF" stroke-linecap="round" stroke-linejoin="round" stroke-width="0.5"><title>2025-06-30 4.1km</title><desc>1751292736000</desc></polyline><polyline fill="none" points="79.77351916374755,201.10960229374177 79.57142857142026,199.64897324027697 79.64111498257262,199.49564597582503 85.06271777002257,199.2374099119188 85.92682926825364,199.31810877237876 87.33449477350223,199.1809206606922 89.445993031346,199.20513034473697 97.57142857142026,198.68865547961468 95.1463414634054,198.85812416609406 94.58188153311494,199.04373231128557 93.53658536582952,198.99531283708347 88.2473867595836,199.26968946598936 83.32752613237244,199.35845817174413 83.18118466896703,199.4875761115909 83.52264808359905,201.31134452038532 83.36236933796317,201.2952051611719 83.16724738673656,200.34297714474087" stroke="#4DD2FF" stroke-linecap="round" stroke-linejoin="round" stroke-width="0.5"><title>2025-06-26 5.0km</title><desc>1750950176000</desc></polyline><polyline fill="none" points="120.42857142857974,200.73669080522814 120.13793633709429,199.26330919477186 112.39412578809424,199.97382686247875 111.56743041676236,199.98130595921975 108.58357681072084,199.60735018770356 102.42857142857974,199.86911942786537 108.37690296786604,199.59987105282198 111.57388897435158,199.9887850552259 117.08303859760053,199.48768393830687" stroke="#4DD2FF" stroke-linecap="round" stroke-linejoin="round" stroke-width="0.5"><title>2025-06-24 5.0km</title><desc>1750769966000</desc></polyline><polyline fill="none" points="143.28571428571013,200.7208387669234 143.03931659116643,199.27916123308387 135.37505146150943,200.00751226317516 134.44133388224873,200.0375472026135 131.41972004939453,199.64709203488746 125.28571428571013,199.91740737140208 131.25761630298803,199.64709203488746 134.43484973238083,200.0375472026135 140.92548373815953,199.45937246764515" stroke="#4DD2FF" stroke-linecap="round" stroke-linejoin="round" stroke-width="0.5"><title>2025-06-22 5.0km</title><desc>1750563938000</desc></polyline><polyline fill="none" points="157.75798421555373,209.0 156.82768602788565,203.44209893125299 156.81464446449536,201.9266568681196 156.8972410325514,201.2922719613307 156.84507477904845,199.6609590561493 156.86246353021124,199.37899827560614 156.958101661643,199.21787710654826 156.86246353021124,199.14235137752257 156.85811634240963,198.1101548334409 155.80174970877124,191.75537669678306 155.53657125338214,191.0 155.8060968965292,191.6596962881231 156.84507477904845,198.00441640774807 156.901588220353,201.09591307632945 156.82768602788565,201.93169163636412 156.82333884006948,203.39175276577225 157.53627763812256,207.66092523296174 157.6362629573414,207.95290703645878 158.74914303234254,207.89249714976904" stroke="#4DD2FF" stroke-linecap="round" stroke-linejoin="round" stroke-width="0.5"><title>2025-06-21 8.0km</title><desc>1750517001000</desc></polyline><polyline fill="none" points="181.82615197775885,209.0 180.30140372453025,199.62387523600773 177.6183195890044,199.56912221983657 172.78404024342308,199.10372068098513 172.87859827460488,198.6109408227785 172.68948221218307,197.66644103945873 172.94951679802034,191.49280779338733 172.9140575362835,191.05475651082816 172.677662458329,191.0 172.3821686107549,198.597252467589 172.83131925901398,198.65200588002335 172.85495876678033,199.11740898460266 180.33686298626708,199.6101869840786 181.24698403658113,205.46863131743157 181.53065813024295,206.24882541317493 187.61783138930332,206.05719921311538" stroke="#4DD2FF" stroke-linecap="round" stroke-linejoin="round" stroke-width="0.5"><title>2025-06-19 5.0km</title><desc>1750345525000</desc></polyline><polyline fill="none" points="29.0,220.4506187684019 28.834782608726528,219.4688246300284 23.739130434798426,219.95217187507296 23.082608695651288,219.9672764002571 20.90000000000873,219.7155337105869 12.813043478265172,220.0830776067378 12.113043478268082,220.19887854175613 11.0,220.53117536997524 12.569565217389027,220.10825174613638 15.413043478270993,219.98238092085376" stroke="#4DD2FF" stroke-linecap="round" stroke-linejoin="round" stroke-width="0.5"><title>2025-06-17 5.1km</title><desc>1750166247000</desc></polyline><polyline fill="none" points="34.47783251228975,226.7925256237504 33.85714285715949,222.8033731077594 47.88472906406969,222.39007737179054 45.60369458136847,213.38717765365436 48.36576354684075,213.54891044675605 51.85714285715949,213.2074743762496 46.34852216753643,213.53094014374074 48.381280788220465,221.63536091908463 42.36059113300871,221.9228723296692" stroke="#4DD2FF" stroke-linecap="round" stroke-linejoin="round" stroke-width="0.5"><title>2025-06-16 3.2km</title><desc>1750084948000</desc></polyline><polyline fill="none" points="74.71428571428987,220.8320885070425 74.43847926272429,219.1679114929575 65.5908986174909,219.98319432727294 64.79251152076176,219.99159926299035 61.294124423962785,219.5629464501617 56.71428571428987,219.7814756135267 61.14896313362988,219.5545414707667 64.78525345624075,219.97478939073335 72.29009216593113,219.34441670769593" stroke="#4DD2FF" stroke-linecap="round" stroke-linejoin="round" stroke-width="0.5"><title>2025-06-15 4.6km</title><desc>1749956754000</desc></polyline><polyline fill="none" points="97.57142857142026,220.7239137209981 97.35230934477295,219.27608627899463 89.64446831366513,219.98507752069418 88.83888292158372,220.00000357831595 85.44897959183436,219.61938815854228 79.57142857142026,219.8880580719997 85.5649838882673,219.61938815854228 88.78732545650564,220.00000357831595 90.46938775511808,219.917910223754 90.78517722873949,219.81342763937573 94.87110633726115,219.44773741994868" stroke="#4DD2FF" stroke-linecap="round" stroke-linejoin="round" stroke-width="0.5"><title>2025-06-14 5.1km</title><desc>1749906363000</desc></polyline><polyline fill="none" points="120.42857142857974,221.06875192149164 120.21216407357133,219.60935958814662 112.75247524754377,220.33168876736454 111.74681753892219,220.33905943610444 108.69165487980354,219.97052507959597 102.93776520510437,220.2432406840744 102.86138613865478,220.0737148887274 102.89321074966574,218.93861888996616 102.42857142857974,218.93124807850836 102.91230551630724,218.9533605106335 102.86138613865478,220.06634419295006 102.95685997174587,220.2432406840744 108.85077793494565,219.96315437331214 111.88684582748101,220.3464301040949 117.93352192366729,219.80099864498334 117.92715700145345,219.50616911642283 119.86845827443176,219.4029784974773" stroke="#4DD2FF" stroke-linecap="round" stroke-linejoin="round" stroke-width="0.5"><title>2025-06-12 5.9km</title><desc>1749735885000</desc></polyline><polyline fill="none" points="143.28571428573923,225.66263633829658 142.711909711943,222.7736221528321 126.94475794472964,224.1748013872275 125.46035046037287,220.11567708935763 125.28571428573923,215.0452197203267 128.22958122956334,214.91520560727804 130.73685773683246,215.07411172923457 130.87407187413191,214.6118388796749 130.61211761209415,214.51071649281948 125.36055836052401,214.33736366170342 125.47282447281759,219.97122212506656 125.90941490937257,221.61799998933566 126.77012177009601,223.66922284850443 133.75556875555776,223.06252622140164 133.8927828927408,223.61144232923107 142.67448767455062,222.7591769339051 143.21087021089625,225.61930156052404" stroke="#4DD2FF" stroke-linecap="round" stroke-linejoin="round" stroke-width="0.5"><title>2025-06-10 5.3km</title><desc>1749559786000</desc></polyline><polyline fill="none" points="148.61547529738164,215.2075754171383 148.18336727039423,213.45622788878973 148.1428571428405,212.0957923520764 160.390419033356,211.78304684518662 160.94405744288815,213.83151832780277 160.53895616764203,213.8158812445472 160.4174257850391,214.0973484999995 160.6739899259992,215.55158776117605 160.6064730468206,216.5367097521812 161.05208444967866,218.506934759891 162.19987139647128,218.4600249346695 163.90129675273784,225.0116249951243 163.92830350447912,225.30870762854465 163.4961954774335,225.43379488112987 163.8877933769254,225.3243435407203 164.02282713528257,225.57451791832864 163.6717393633444,225.63706144907337 163.79326974594733,226.21558789956907 164.6034722966142,228.2795023326762 165.1706140820752,228.2169598788605 166.1428571428405,227.68534799250483 165.11660057870904,227.90424722757598 163.29364483972313,220.6334984426794 163.07759082625853,220.00804159529798 162.59146929590497,220.00804159529798 162.22687814809615,218.41311509505613 161.83528024860425,218.56948117123102 161.03858107386623,218.4600249346695 160.59296967100818,216.66180415557756 160.4984460400883,214.34754118253477 159.75576036865823,211.7204976673238 148.18336727039423,212.12706686770252 148.66948880074779,215.30139704197063" stroke="#4DD2FF" stroke-linecap="round" stroke-linejoin="round" stroke-width="0.5"><title>2025-06-08 5.0km</title><desc>1749355299000</desc></polyline><polyline fill="none" points="189.0,220.74069638492801 188.68341708541266,219.2593036150647 182.88155061015277,219.7456227194125 181.13711414212594,219.992521954744 180.16798277100315,219.992521954744 177.09906676237006,219.61843188016064 171.0,219.8877769260289 176.8083273510274,219.61843188016064 180.13567839196185,220.00000373677904 187.13280689160456,219.37153138663416" stroke="#4DD2FF" stroke-linecap="round" stroke-linejoin="round" stroke-width="0.5"><title>2025-06-07 5.3km</title><desc>1749293029000</desc></polyline><polyline fill="none" points="29.0,240.71307294099097 28.73424558879924,239.28692705900903 20.521786100085592,240.0375335972858 17.190133237309055,239.65472521866468 11.0,239.9099310255042 17.164205977664096,239.6397130848345 20.126395390718244,240.0375335972858 26.472092185809743,239.45956724023563" stroke="#4DD2FF" stroke-linecap="round" stroke-linejoin="round" stroke-width="0.5"><title>2025-06-05 5.1km</title><desc>1749128617000</desc></polyline><polyline fill="none" points="34.10911136106006,239.8860670675931 33.857142857130384,238.23566990168183 33.95163104610401,238.16272346800542 41.014623172115535,237.91652881528717 42.34533183352323,242.79470398727426 49.321709786279825,242.70352558211016 51.857142857130384,242.5485220800765 49.77052868393366,242.6214649379981 49.384701912262244,237.20529601272574 42.70753655792214,237.5973865904234 41.27446569179301,237.5517947510598 41.400449943728745,237.91652881528717 37.69966254217434,238.02594874459464" stroke="#4DD2FF" stroke-linecap="round" stroke-linejoin="round" stroke-width="0.5"><title>2025-06-03 5.2km</title><desc>1748952979000</desc></polyline><polyline fill="none" points="71.59970162852551,234.6340175164878 71.20484145253431,234.04958133533364 70.92494056830765,233.43620620635193 70.74500428559259,233.2683948762351 70.30016180881648,233.22788861886875 69.9602821636654,232.8343977591212 69.80533703134279,232.31938354665908 69.57541844784282,231.96639358167886 69.30051579364226,231.0 68.50579721160466,231.3414223644104 68.13592818600591,231.38192996643556 67.17626801144797,231.740710323862 66.76641314523295,232.26730319790295 66.76641314523295,232.40039732762307 65.1070007600647,234.5125015776648 65.09700429989607,234.6340175164878 64.64216536300955,235.25895252669943 64.24730518701836,235.6234947761368 64.17732996598352,235.5598447106022 63.89742908169865,235.80287185012276 63.712494568899274,235.69293113000458 63.70749633884407,235.7970855017411 63.68250518842251,235.6466402368642 63.94241315239924,235.83180358324535 63.90242731178296,236.04011162691313 63.302639702684246,236.70553498535446 62.278002537146676,236.93698476231657 62.278002537146676,236.83283247932923 62.208027316082735,236.96012968818104 61.92812643185607,237.02377818571767 61.683213158132276,236.9543434575935 61.27335829191725,236.98906083225302 61.2033830708242,236.92541229585186 61.038441478362074,237.01799196162392 60.543616700859275,236.8444049646314 60.47863970985054,236.08640219959852 60.288706966966856,235.91859869421023 59.35403794280137,236.15583798797525 59.004161837510765,236.36993113478093 59.404020243586274,238.1000056258963 60.03379723310354,240.03253494010642 61.36332643326023,245.2280515268867 61.5482609460887,245.76609014944552 63.11770518988487,248.94214991849003 63.317634392908076,249.0 64.00739014340797,248.78016937724533 64.47722377051832,248.91900986941982 65.33691934356466,248.73967416986488 65.32192465331173,248.39835627621142 65.55184323678259,248.3347205101927 65.96669633308193,248.52562759469583 66.28158482786966,248.37521600590844 66.41153880985803,248.5661229544785 67.22125208211946,248.74545920124 67.69608393934323,248.65868366858558 68.17591402659309,248.30001006234306 68.26088393788086,247.62315209528606 68.6207565033692,247.12562742731097 68.5257901319128,246.62809840687987 68.64074942364823,246.38511753593048 68.39583614992443,246.11320913992677 68.24089101760183,245.70823677836233 68.1809122566774,245.10655823017805 68.50579721160466,244.84621457745016 69.00062198910746,245.04870418813516 69.27552464327891,245.03134796403174 69.34549986434286,244.65529514124137 69.23054057260742,244.1924574838522 69.13557420115103,244.1519590095886 69.23054057260742,244.10567500370234 69.1205795109272,244.0709619745503 69.21054765227018,244.12303151032393 69.2205441124679,243.8511122978598 69.09059013047954,243.55026399437338 68.50079898152035,243.50976506273219 68.22589632734889,243.30148438722608 68.34085561908432,242.5146393944342 68.81068924622377,241.7104262748653 69.170561811683,241.31120834312242 69.33550340417423,241.2533504392959 69.69037773957825,240.7615558794496 70.31515649904031,240.165610888409 70.86996003746754,239.47129816576853 70.71001667503151,239.1472826598947 70.21519189752871,239.14149665194054 70.15021490654908,238.95055805890297 70.34014764943277,238.49346003390747 70.56006977276411,238.28516098064938 70.76499720587162,238.3140914503565 70.8499671171594,238.20994169052938 70.67502906452864,237.81069917671994 70.90994587805471,237.31887483397077 71.12986800141516,237.1915784284829 71.31480251421453,237.26679906617574 71.28981136382208,237.12793011885879 71.8446149022493,236.87333616760588 71.8945972030051,236.71710749659178 72.37942552036839,236.42200772422075 72.42440959103988,235.99960734488195 71.78963437140919,234.790251913244 71.68966976986849,234.74396028490082" stroke="#4DD2FF" stroke-linecap="round" stroke-linejoin="round" stroke-width="0.5"><title>2025-06-02 11.5km</title><desc>1748829019000</desc></polyline><polyline fill="none" points="97.57142857142026,240.8417534750406 97.24170334244263,239.1582465249594 87.73212798856548,240.04339350415103 83.79041275123018,239.59214325279754 79.57142857142026,239.77437921910314 83.84286903767497,239.57478742613603 87.29749018672737,240.02603776947217 97.22671583201736,239.1669244812001 97.56393481622217,240.7896867485979" stroke="#4DD2FF" stroke-linecap="round" stroke-linejoin="round" stroke-width="0.5"><title>2025-06-01 4.9km</title><desc>1748740054000</desc></polyline><polyline fill="none" points="120.42857142857974,248.67410667186778 120.36339339602273,248.81247984978108 120.23303733079229,248.7118448267065 119.7985171135515,246.29657965675142 106.06767824816052,247.49163864280126 104.79670661268756,243.93158671310812 104.74239158554701,239.4530716523077 104.43822743342025,237.7672963525838 102.42857142857974,231.18752015021892 103.75385809125146,235.59085089842847 104.11233727051876,236.27020793587872 104.69893956382293,238.79889292705775 105.2855418571271,238.9624379334782 104.67721355293179,238.9498575560865 104.79670661268756,243.51645029734937 105.2095008190372,245.2147268062472 105.9264591775136,246.98845732213522 106.1111302698846,247.1016732981443 111.99887921375921,246.4978535594273 112.16182429518085,246.97587776285945 116.84377963619772,246.5230127741961" stroke="#4DD2FF" stroke-linecap="round" stroke-linejoin="round" stroke-width="0.5"><title>2025-05-31 5.5km</title><desc>1748696141000</desc></polyline><polyline fill="none" points="142.02337662340142,244.96756412692775 141.61428571434226,242.32819520025805 126.80519480525982,243.65465383294213 125.43766233767383,239.75645194278331 125.28571428573923,235.0595080771891 130.31168831168907,235.11365246893547 125.35584415588528,235.0324358730868 125.44935064937454,239.68877381607308 125.81168831174728,241.13707819906995 126.72337662335485,243.22152594024374 139.8376623376971,241.96273998371908 141.00649350654567,241.89506298136257 141.064935064991,242.395871981862 143.28571428573923,242.2199122779857" stroke="#4DD2FF" stroke-linecap="round" stroke-linejoin="round" stroke-width="0.5"><title>2025-05-29 5.0km</title><desc>1748526381000</desc></polyline><polyline fill="none" points="159.0541091238265,238.23286041124084 158.6547430382343,234.9625264027418 165.41544034413528,234.632185964394 166.1428571428405,237.2914073854481 165.35838804615196,234.69825410589692 158.62621688930085,235.01207741038525 158.811636857572,236.6472521640244 158.5549015168799,235.02859440956672 148.9415893139667,235.92050986597314 150.38215983693954,243.13823769203736 150.93841974186944,244.82287846862164 150.5675798052689,245.05410230671987 151.15236585913226,246.6065966768656 150.3678967625019,244.55862224975135 148.42811863252427,235.95354367756227 151.79420421097893,235.47455275138782 157.88453701604158,235.09466238951427 157.81322164367884,234.61566892477276 148.87027394160395,235.22679826857348 148.37106633459916,233.39340332311986 148.1428571428405,233.59160918208363 148.25696173874894,235.3589340398612 155.00339597009588,234.69825410589692" stroke="#4DD2FF" stroke-linecap="round" stroke-linejoin="round" stroke-width="0.5"><title>2025-05-27 6.0km</title><desc>1748352132000</desc></polyline><polyline fill="none" points="186.60136674260139,241.34136010772636 186.67312072895584,241.2938794083384 186.44248291570693,240.14246059575817 180.37927107061842,240.72410799600402 179.67710706152138,240.73597829062055 177.15034168565762,240.43922019933234 171.1127562642505,240.70630254955176 171.0,238.7357995008242 171.7175398633408,238.65863989227728 172.70671981779742,238.7298641499583 172.71184510251624,240.43922019933234 177.29897494305624,240.2552294232628 180.08712984054,240.52824778550348 186.4322323462402,239.8991165923253 188.89236902049743,239.81008804430166 189.0,240.0059506702637 188.92824601367465,240.02969154986204 186.65774487471208,240.12465497143785" stroke="#4DD2FF" stroke-linecap="round" stroke-linejoin="round" stroke-width="0.5"><title>2025-05-25 7.6km</title><desc>1748179850000</desc></polyline><polyline fill="none" points="28.988204456109088,260.9937263310785 28.941022280487232,260.6044361218592 28.711009174323408,260.6044361218592 28.56356487548328,259.87365716575005 28.44560943642864,259.70974303461117 22.754259501991328,260.19465451112046 21.82241153344512,260.3653971534659 18.083224115340272,260.01708170158236 11.100262123218272,260.3312486598079 11.0,259.14287024004443 12.733944954146864,259.0062736689215 12.722149410226848,260.00342223521875 12.952162516390672,260.0307411651738 17.853211009176448,259.8190191666072 21.403669724764768,260.12635733236675 28.775884665810736,259.4160625469376 29.0,260.9186003264549" stroke="#4DD2FF" stroke-linecap="round" stroke-linejoin="round" stroke-width="0.5"><title>2025-05-24 6.6km</title><desc>1748094255000</desc></polyline><polyline fill="none" points="51.857142857130384,260.80202481051674 51.661333026364446,259.19797518949053 44.24956832049065,259.827841329432 43.21975365487742,260.00420298581594 42.04489467019448,260.02099931432895 38.65810981928371,259.60948827948596 33.857142857130384,259.8026467762611 38.636353171401424,259.6010900737019 42.001381374459015,260.02939747733035 49.68147807067726,259.3827364228928" stroke="#4DD2FF" stroke-linecap="round" stroke-linejoin="round" stroke-width="0.5"><title>2025-05-18 4.7km</title><desc>1747565909000</desc></polyline><polyline fill="none" points="72.37474949899479,260.6444834943504 72.17892928715446,259.4927689701035 66.95877469223342,259.9343616728147 66.08789006585721,260.0895150749857 65.38705983394175,260.083547644037 63.00114514742745,259.77324039691666 56.750357858574716,260.0596779141961 56.71428571428987,259.8806546301021 60.23389636416687,259.6538910178133 62.619811050681164,259.61211867765087 65.40767248781049,260.0596779141961 72.24592041224241,259.4509965149773 74.54938448322355,259.3555165056496 74.64214142572018,259.3674515153325 74.65760091610719,259.4509965149773 74.71428571428987,259.4151915297298" stroke="#4DD2FF" stroke-linecap="round" stroke-linejoin="round" stroke-width="0.5"><title>2025-05-17 5.7km</title><desc>1747487200000</desc></polyline><polyline fill="none" points="96.5877827796503,259.2558608284089 94.20405721123097,259.3805780957555 93.04091401217738,259.5884397842601 87.69907117213006,259.9958471573991 84.35323950080783,259.5634964096098 79.57142857142026,259.7547287537309 84.28862043420668,259.58012532689463 87.56983303889865,259.9875327415284 97.10473531254684,259.1560868772649 97.4206507493509,260.76908412746707 97.57142857142026,260.8439131227278" stroke="#4DD2FF" stroke-linecap="round" stroke-linejoin="round" stroke-width="0.5"><title>2025-05-11 5.0km</title><desc>1746965499000</desc></polyline><polyline fill="none" points="120.42857142857974,260.64671074700163 120.13804058203823,259.35328925299837 111.97089567530202,260.09345810143714 108.65238778435742,259.7121599303937 102.42857142857974,259.9738353591529 108.49743799958378,259.71963638415764 111.59643369540572,260.09345810143714 120.18969051033491,259.3682422329366" stroke="#4DD2FF" stroke-linecap="round" stroke-linejoin="round" stroke-width="0.5"><title>2025-05-10 5.3km</title><desc>1746870058000</desc></polyline><polyline fill="none" points="143.2464129756554,259.69658927550336 143.20056144727278,259.5676388092543 143.28571428571013,259.66624800941645 142.93855271366192,259.72693052919203 134.9145352464402,260.4323611907457 131.51497192762326,260.03034238589316 125.28571428571013,260.28824149152933 131.48222083592555,260.03034238589316 133.0739238926908,260.1592920504336 134.52152214598027,260.42477595036326 141.0913911416137,259.83312481975736" stroke="#4DD2FF" stroke-linecap="round" stroke-linejoin="round" stroke-width="0.5"><title>2025-05-05 5.4km</title><desc>1746434825000</desc></polyline></svg>