<?xml version="1.0" encoding="utf-8" ?>
<svg baseProfile="full" height="300mm" version="1.1" viewBox="0,0,200,300" width="200mm" xmlns="http://www.w3.org/2000/svg" xmlns:ev="http://www.w3.org/2001/xml-events" xmlns:xlink="http://www.w3.org/1999/xlink"><defs /><rect fill="#222222" height="300" width="200" x="0" y="0" /><text fill="#FFFFFF" style="font-size:12px; font-family:Arial; font-weight:bold;" x="10" y="20">Over 3km Runs</text><text fill="#FFFFFF" style="font-size:4px; font-family:Arial" x="10" y="280">Runner</text><text fill="#FFFFFF" style="font-size:9px; font-family:Arial" x="10" y="290">tang-hi</text><text fill="#FFFFFF" style="font-size:4px; font-family:Arial" x="65" y="280">SPECIAL TRACKS</text><rect fill="yellow" height="2.6" width="2.6" x="65" y="283" /><text fill="#FFFFFF" style="font-size:3px; font-family:Arial" x="70" y="285.5">Over 20.0 km</text><rect fill="red" height="2.6" width="2.6" x="65" y="287" /><text fill="#FFFFFF" style="font-size:3px; font-family:Arial" x="70" y="289.5">Over 40.0 km</text><text fill="#FFFFFF" style="font-size:4px; font-family:Arial" x="120" y="280">STATISTICS</text><text fill="#FFFFFF" style="font-size:3px; font-family:Arial" x="120" y="285">Number: 59</text><text fill="#FFFFFF" style="font-size:3px; font-family:Arial" x="120" y="290">Weekly: 3.7</text><text fill="#FFFFFF" style="font-size:3px; font-family:Arial" x="141" y="285">Total: 313.6 km</text><text fill="#FFFFFF" style="font-size:3px; font-family:Arial" x="141" y="290">Avg: 5.3 km</text><text fill="#FFFFFF" style="font-size:3px; font-family:Arial" x="167" y="285">Min: 3.2 km</text><text fill="#FFFFFF" style="font-size:3px; font-family:Arial" x="167" y="290">Max: 11.5 km</text><polyline fill="none" points="22.562107450910844,54.42857142857247 22.820263431349304,54.055167945683934 23.71458950638771,47.963169256159745 23.88054692238802,45.2851385282047 23.391894530854188,42.20158425628324 22.903242139320355,37.49605520728073 22.368490465625655,36.40767150557076 22.49756845581578,36.258284626266686 22.894022282911465,36.300966613489436 22.69118544110097,34.20952882358688 22.24863233184442,33.70800438157312 22.322391183348373,32.63025225736783 21.82451893540565,31.285714285710128 22.294731614063494,32.42750557112595 22.2670720446622,33.71867513932375 22.709625154035166,34.24154094061669 22.92168185225455,36.31163710755936 22.811043574940413,36.41834198879951 22.42380960425362,36.27962562203902 22.42380960425362,36.429012470944144 22.783384005597327,37.07990983068885 22.986220847349614,37.86951760172815 23.225937114912085,40.77180862773821 23.88976677885512,45.3918342863617 23.742249075730797,47.824468147147854 22.728064866911154,54.343222178154974" stroke="#4DD2FF" stroke-linecap="round" stroke-linejoin="round" stroke-width="0.5"><title>2025-08-23 5.0km</title><desc>1755956696000</desc></polyline><polyline fill="none" points="49.38846151184407,31.285714285717404 49.39684133682749,31.925684388319496 49.50577906225226,32.042042127708555 49.46387993713142,33.01168443844654 48.96109043530305,36.133865745221556 48.776734284620034,36.53140323948173 48.349363208108116,40.516382729736506 48.131487757345894,41.83497677977721 47.98903073181282,41.97071336853696 48.05606933211675,42.44578990940499 47.45272192993434,47.01222138530284 48.2236658326874,54.27346412258339 48.24880530775408,54.38979462568386 48.70131585939089,54.42857142857247 47.87171318140463,46.818322153667395 49.12030711089028,37.74339757569396 49.27952378644841,36.75441135273286 49.43036063699401,36.570187296580116 49.363322036748286,36.20173811754648 49.69013521290617,33.68073188862036" stroke="#4DD2FF" stroke-linecap="round" stroke-linejoin="round" stroke-width="0.5"><title>2025-08-21 5.0km</title><desc>1755781186000</desc></polyline><polyline fill="none" points="74.93082635776955,31.285714285717404 74.95579843802261,33.07724825726473 74.45635683380533,36.294218900548 74.28155227229581,36.63132028385735 74.20663603168214,37.19957418822014 74.29820032577845,37.478884180840396 73.52406583930133,42.04404122442065 73.57400999972015,42.52558505949128 73.02462423508405,46.47415227242891 73.05792034202022,48.140205703479296 73.75713858791278,54.42857142857247 74.23993213861831,54.34190459638921 73.90697106916923,50.69219611683366 73.47412167885341,48.09205428093992 73.44914959865855,46.25265163514268 73.99021133652423,42.573739308492804 74.13171979103936,42.36186042994814 74.70607763589942,37.57519778062124 74.98077051821747,36.65058318384399 74.98909454495879,35.59111787244183 75.5468043363071,32.04663876489212" stroke="#4DD2FF" stroke-linecap="round" stroke-linejoin="round" stroke-width="0.5"><title>2025-08-19 5.3km</title><desc>1755607955000</desc></polyline><polyline fill="none" points="99.74924226204166,54.314580079648294 100.15224576951005,54.42857142857247 100.15224576951005,53.66171808146464 100.30449153902009,53.31974108105351 100.4925598425325,50.956959562980046 101.03885348595213,47.381593955200515 100.98511968494859,45.03940243340185 100.37613660702482,41.11144719742879 100.09851196856471,37.87776624570688 99.92835493205348,37.02787153660029 99.48952889064094,36.29198136917694 99.58804085908923,36.11578152667062 100.01791126705939,36.20906383417605 99.82984296354698,34.27084723731241 99.36415002163267,33.63858679205441 99.39997255557682,32.41551447088568 98.96114651410608,31.285714285717404 99.4357950896374,32.4673398670202 99.38206128857564,33.62822183404933 99.80297606304521,34.084278989255836 100.01791126705939,36.19869913755247 99.57012959208805,36.13651093572116 99.5253514245851,36.271251991747704 100.04477816756116,37.46318434600835 100.31344717252068,40.58287174732686 100.976164051448,45.163767937636294 100.9672084179474,46.23123227633914 100.30449153902009,50.82223791439901 100.10746760200709,50.915506766985345 99.98208873305703,51.22640232615231 99.74924226204166,52.74977686531929" stroke="#4DD2FF" stroke-linecap="round" stroke-linejoin="round" stroke-width="0.5"><title>2025-08-17 5.0km</title><desc>1755429603000</desc></polyline><polyline fill="none" points="125.3814368188032,54.3765240859575 125.264489909634,54.42857142857247 125.39942865102785,54.29324828276731 125.55235922464635,52.00313716610253 125.67830204992788,51.20158617947163 126.09211419016356,50.85806240799866 126.08311827405123,50.066912370486534 126.64086507179309,46.92307156996685 126.7218283166294,45.50727068864944 125.74127346253954,37.2931573275564 125.2285062452429,36.29367651676148 125.32746132230386,36.17915205081226 125.75926529470598,36.21038600877364 125.57035105675459,34.1905704464516 125.13854708429426,33.649169812662876 125.16553483263124,32.47265471848368 124.70674311195035,31.285714285717404 125.19252258091001,32.493478112024604 125.12955116824014,33.597111908537045 125.56135514064226,34.107278227616916 125.77725712693064,36.199974690513045 125.31846540619154,36.14791808334121 125.25549399352167,36.30408782547602 125.79524895909708,37.418091742903925 126.7218283166294,45.01798200990015 126.71283240051707,46.25681476968748 126.11010602233,50.69150501317199 125.66031021770323,53.56458211725112 125.47139597975183,53.710315765019914 125.40842456714017,54.14751546431944" stroke="#4DD2FF" stroke-linecap="round" stroke-linejoin="round" stroke-width="0.5"><title>2025-08-16 5.1km</title><desc>1755350047000</desc></polyline><polyline fill="none" points="151.2935719655361,54.366086502705 150.96957325428957,54.42857142857247 151.12257264571963,54.27235904249392 151.55457092745928,51.043916419708694 151.79756996087963,50.91894240250258 151.74357017566217,50.57526306938962 152.39156759821344,46.75305461231619 152.4365674192668,45.097067172690004 151.46457128535258,37.31669242496719 150.97857321845368,36.33759403919248 151.07757282466628,36.15010604666895 151.4735712495749,36.21260208230524 151.2755720371497,34.160628985271615 150.85257371963235,33.681482139072614 150.91557346907211,32.65026719315938 150.4115754737286,31.285714285717404 150.87957361224107,32.37944134455029 150.87057364807697,33.62940082507703 151.2755720371497,34.11896413110662 151.50957110640593,36.202186079004605 151.04157296789344,36.16052205525921 150.9965731468401,36.306346064273384 151.3835716075264,36.93130375164765 151.54557096317876,37.55625762623822 151.83356981771067,40.89969609524269 152.40056756243575,44.670047203078866 152.4455673834309,46.18023179615557 151.7615701040486,50.5648485261263 151.81556988926604,50.877284362919454 151.52757103485055,52.48110666336288 151.2935719655361,53.01223708759062" stroke="#4DD2FF" stroke-linecap="round" stroke-linejoin="round" stroke-width="0.5"><title>2025-08-14 4.9km</title><desc>1755170321000</desc></polyline><polyline fill="none" points="178.08819188617053,31.305074942618376 177.8874128255993,31.285714285717404 177.94597338495078,33.03783780342201 177.46075732202735,36.32903243822511 177.28507564408937,36.67750521427661 177.28507564408937,37.58740034332004 176.79149378696457,41.062345403566724 176.63254369740025,42.01091563185764 176.50705678455415,42.08834951939207 176.58234893227927,42.57230989087111 176.00510913325706,46.55037101864582 176.05530389840715,48.24414226830413 176.75803061021725,54.351147565437714 177.2348808789393,54.42857142857247 176.41503304851358,46.7633039155844 177.77865750115598,37.10341465420788 177.9710707674967,36.70654455472686 177.8874128255993,36.36775169851899 178.28060515248217,33.61864511794556" stroke="#4DD2FF" stroke-linecap="round" stroke-linejoin="round" stroke-width="0.5"><title>2025-08-12 5.0km</title><desc>1754999139000</desc></polyline><polyline fill="none" points="23.481178042362444,58.148968453358975 23.590070088102948,58.071428571420256 23.598446399351815,59.709445179287286 23.079115104221273,63.04354593918106 22.903212568780873,63.37307282631082 22.727310033369577,65.6118871299841 22.17447349341819,68.85855912906845 21.61326064224704,73.53938729699439 21.663518509507412,74.9736323763209 22.249860294308746,79.8285858207164 22.861331012740266,81.2142857142826 22.040452514018398,73.5975327869819 23.280146573320962,64.65240171854384 23.58169377691229,63.411840620523435 23.50630697599263,63.140465730008145 23.858112046902534,60.52359681566304 24.10102507204283,59.53498321031657" stroke="#4DD2FF" stroke-linecap="round" stroke-linejoin="round" stroke-width="0.5"><title>2025-08-10 5.0km</title><desc>1754830447000</desc></polyline><polyline fill="none" points="48.242337521747686,81.2142857142826 49.495588368678,73.75446659719455 49.576734106987715,72.00159128505038 48.9095358143677,67.37928248385288 48.59396905434551,64.00893512860785 48.089062238286715,63.11154844304838 48.16119178343797,62.92372232969501 48.621017633762676,63.01763542935805 48.422661384625826,60.951527382901986 47.98988411371829,60.44021139441611 48.01693269313546,59.27147956727276 47.557106842810754,58.07142857142753 48.03496507945238,59.313220218878996 47.99890030687675,60.45064644006925 48.422661384625826,60.961962376539304 48.639050020021386,62.98633107235946 48.17922416969668,62.965461495703494 48.12512701086234,63.08024411471706 48.639050020021386,64.18632459107175 49.053794904612005,68.28706610161316 49.54066933441209,71.27121773706313 49.585750300087966,72.93020157758292 48.53987189545296,80.33791548358568 48.25135371484794,80.64047271820164" stroke="#4DD2FF" stroke-linecap="round" stroke-linejoin="round" stroke-width="0.5"><title>2025-08-09 5.0km</title><desc>1754735080000</desc></polyline><polyline fill="none" points="74.98065671345103,58.07142857142753 75.03089351547533,59.69907134672394 74.70435430243379,62.25673957532854 74.28571428568102,64.01994060364814 74.19361348202801,65.61841885621834 73.63263585956884,68.89279368591815 73.66612706094747,69.39653368236759 73.09677663820912,73.23262023155257 73.08003103753435,74.55002850935125 73.8000918663165,80.67186357675382 74.36106948868837,81.2142857142826 73.54053505591583,74.89875118459167 73.58239905760274,72.83545681383839 74.77970950541203,64.6012085227776 74.93041991145583,63.661490287442575 75.07275751713314,63.47742068257503 75.00577511446318,63.08021664044645 75.4913975338568,59.79595396912919" stroke="#4DD2FF" stroke-linecap="round" stroke-linejoin="round" stroke-width="0.5"><title>2025-08-07 5.0km</title><desc>1754570205000</desc></polyline><polyline fill="none" points="100.40108563154354,58.071428571420256 100.45283861627104,58.73016223349987 100.6253485653433,58.80002766584221 100.56497008321458,59.26912285298749 101.03074694564566,59.33898790197418 101.08249993034406,59.76815782689664 100.60809757045354,62.14352954868082 100.4700896111899,63.41103633534658 100.56497008321458,63.75036608581286 100.4183366264624,63.89008976002515 100.14232070799335,65.51685791298223 98.92612556714448,74.35881987632456 99.67654384556226,81.2142857142826 98.91750006968505,74.19915267363103 99.4522809117916,70.15749020867952 99.65066735318396,69.6086096457002 100.12506971307448,65.51685791298223 100.36658364179311,64.00985275118728 100.5218425959174,63.74038581574132 100.46146411375958,63.35115449302975 100.9358664736501,59.857983852984034" stroke="#4DD2FF" stroke-linecap="round" stroke-linejoin="round" stroke-width="0.5"><title>2025-08-05 5.0km</title><desc>1754406000000</desc></polyline><polyline fill="none" points="125.36384396423819,81.2142857142826 125.76434882136527,77.8964419593467 126.01011316553922,77.70684767972853 126.39241325651528,75.13675767261884 126.67458713316591,73.07221297982323 126.69279189937515,71.78711847380328 126.02831793180667,67.22595766952873 125.7734512045281,64.19209518258867 125.54589162656339,63.402012246413506 125.20000106812222,62.9068905353779 125.2819225161802,62.74887246989965 125.7279392889468,62.79101064427232 125.51858447719133,60.71568519264838 125.09077247069217,60.26268984546914 125.12718200316885,58.97743644945149 124.73577952914638,58.07142857142753 125.13628438627347,59.114390439222916 125.09077247069217,60.15734180639265 125.53678924345877,60.705150439614954 125.73704167205142,62.78047610228532 125.61871069151675,62.88582147387933 125.18179630191298,62.8015451851752 125.76434882136527,64.03407907738438 126.13754652917851,68.02654545607948 126.69279189937515,71.81871934949595 126.68368951627053,73.12488044749625 125.61871069151675,80.41379979888734 125.56409639283083,80.59285639566951 125.3274344317615,80.60338912700536 125.2364106005407,81.00363212537195 124.98154387326213,80.98256674293225" stroke="#4DD2FF" stroke-linecap="round" stroke-linejoin="round" stroke-width="0.5"><title>2025-08-03 5.0km</title><desc>1754221111000</desc></polyline><polyline fill="none" points="163.0,68.39074180911848 162.92884594267525,68.68577318710959 162.7450312946021,68.70292609489479 159.13396288568038,68.63088382362184 159.03612605687522,68.56913318303486 158.89381794224028,68.6274532354364 158.43428132205736,68.624022646909 158.39573954099615,68.5862861500791 157.57450312946457,68.63431441145076 157.1712968046486,68.5725637771393 155.86977050620771,68.56913318303486 155.30646755242196,68.47993761390535 154.92401449433237,68.38044997032193 154.90029647522897,68.34271320125117 154.36960579773586,68.32556011044653 153.20445810913225,68.11972234108907 151.4908312287298,68.1059997785087 147.9153398484632,68.55198020727039 147.43208520917688,68.77496821245586 146.9132535412209,68.93277421851235 145.5198199187289,69.78011124711338 144.78159657405922,70.15403054203125 144.32798945864488,70.28438675404686 144.06116174370982,70.28781717387756 143.72317997145,70.20548700163636 143.3644449324638,70.35299508455137 143.24289008452615,70.1128653179112 143.09761721752875,70.20891742948515 142.9790271219972,69.98593889425683 140.96003074556938,71.1797145072087 140.80586362138274,70.79208509890304 140.1832656198385,69.6017262713467 140.12397057208,69.56056037386952 139.85714285714494,69.69091887703325 140.03206324802886,69.55712988015512 140.11804106731142,69.54683839689824 140.14472383879183,69.46107591444888 140.25145492478623,69.46793692105712 140.39376303942117,69.37188270161641 140.4352695728594,69.4199098454992 140.5420006588247,69.3512996190475 140.5064236301696,69.4164793374839" stroke="#4DD2FF" stroke-linecap="round" stroke-linejoin="round" stroke-width="0.5"><title>2025-08-02 8.3km</title><desc>1754134728000</desc></polyline><polyline fill="none" points="177.76145226269728,58.07142857142753 177.6369029097259,58.10025258805399 177.5621732979198,58.8784977151081 178.18492006283486,58.8784977151081 178.18492006283486,59.50301077729091 176.10909751307918,73.24125487418496 176.1174008032831,74.69182012485544 176.9809429839952,81.2142857142826 176.15891725430265,74.87434000484791 176.10079422287527,73.46220333507517 177.32968117232667,64.68150635179336 177.6369029097259,63.490189255920995 177.553870007745,63.2211800928344 177.94412464706693,60.38692990739946" stroke="#4DD2FF" stroke-linecap="round" stroke-linejoin="round" stroke-width="0.5"><title>2025-07-31 5.0km</title><desc>1753965181000</desc></polyline><polyline fill="none" points="22.3989321400295,108.0 22.498740415030625,107.16005956231675 22.75279784243321,106.85557946743211 23.6782927562017,100.48229014053504 23.778101031202823,98.13026856125362 23.30628009472275,95.27417035756662 22.807238719717134,90.5593354532466 22.32634430367034,89.63524458780739 22.426152578671463,89.49873046350694 22.825385678792372,89.55123591727897 22.65298956737388,87.46149824455642 22.19024211046053,86.95743458607467 22.244682987744454,85.7917779518175 21.88174380583223,84.85714285713766 22.253756467311177,85.81278089048283 22.217462549044285,86.9784372876311 22.65298956737388,87.52450602884346 22.86167959694285,89.53023373898759 22.74372436280828,89.63524458780739 22.380785180954263,89.48822936953366 22.344491262745578,89.64574566682859 22.88890003558481,90.85336263091449 23.206471819721628,94.38162347274192 23.832541908486746,98.88628133771999 23.179251381079666,104.32521017263207 22.69835696509108,107.33854747662554 22.525960853730794,107.4120424105713" stroke="#4DD2FF" stroke-linecap="round" stroke-linejoin="round" stroke-width="0.5"><title>2025-07-29 5.0km</title><desc>1753797916000</desc></polyline><polyline fill="none" points="49.56405208070646,84.85714285714494 49.54736933266395,86.62345616664243 49.16366612739512,89.32594848307053 48.86337666239706,90.2235449948057 48.66318368571228,92.69430449623906 48.104311625880655,95.64754991499649 48.17104261807981,96.168701343071 47.62051193224033,99.82633186773455 47.653877428383566,101.76607351550047 48.33787009862135,108.0 47.69558429848985,102.58635036097257 47.578805062163156,100.53081973113149 48.112652999931015,95.80196545090439 48.8550352883758,91.0825272638831 48.779962922097184,90.84124089403485 49.13864200533135,89.37420657575422 49.54736933266395,86.11190432445437" stroke="#4DD2FF" stroke-linecap="round" stroke-linejoin="round" stroke-width="0.5"><title>2025-07-27 5.0km</title><desc>1753616848000</desc></polyline><polyline fill="none" points="74.94671990253846,84.85714285713766 74.97135365224676,86.89044760265097 74.51973490783712,90.10183887286985 74.33908741004416,90.44387404841837 74.0845386632136,93.23711449569964 73.6247086688818,95.78326100193954 73.65755366845406,96.26778103237302 73.05813242588192,100.21985069661605 73.80535616664565,108.0 74.29803116057883,107.92400655423262 73.94494741491508,104.11475600297126 73.54259616989293,101.44533838593634 73.5261736701068,100.02035118131607 74.65932615607744,92.03052086371463 75.0370436514495,90.43437308822467 74.95493115246063,90.06383488723804 75.51329614553833,86.68141831262619" stroke="#4DD2FF" stroke-linecap="round" stroke-linejoin="round" stroke-width="0.5"><title>2025-07-26 5.2km</title><desc>1753529066000</desc></polyline><polyline fill="none" points="100.79877395683434,84.85714285714494 100.6989272122155,85.35779690679192 100.83205620505032,86.00286649382178 100.67396552607534,87.52405798226391 100.32450191996759,89.89244675555528 100.14144955482334,90.22940782809746 100.11648786868318,91.2402838571943 99.37595784620498,95.67838340926392 99.43420178050292,96.1019655612472 98.88504468521569,100.13552803792118 98.95992974363617,102.28219894858194 99.61725414564717,108.0 100.09152618251392,107.95187180051289 99.71710089026601,104.45769924796332 99.80030651076231,104.27480512706825 99.32603447389556,101.56022985208256 99.31771391181974,100.27029804535414 101.1149553147552,87.68772902908677" stroke="#4DD2FF" stroke-linecap="round" stroke-linejoin="round" stroke-width="0.5"><title>2025-07-24 5.0km</title><desc>1753356656000</desc></polyline><polyline fill="none" points="125.30837399419397,107.95824942822946 125.42563737998717,108.0 125.8225288396352,104.70165254401218 126.0841163925943,104.53464479227841 126.02097456948832,104.21106650050206 126.69749410293298,100.02533283879166 126.74259540514322,98.7622724671237 126.06607587169856,94.30490221249784 125.78644779784372,91.00611485994159 125.2452321711462,89.86821742189932 125.32641451514792,89.70118554377405 125.76840727694798,89.78470151680085 125.5338805053616,87.68634210390155 125.14600930613233,87.2687530241601 125.18209034798201,86.14125402399804 124.68597602343652,84.85714285714494 125.13698904571356,85.8906970089156 125.1279687852948,87.22699402277794 125.54290076583857,87.66546269024548 125.77742753742496,89.7220645434063 125.66016415163176,89.83689896544092 125.34445503598545,89.71162504413223 125.2452321711462,89.83689896544092 125.5609412866761,90.28579592824099 125.78644779784372,91.03743295973982 126.19235951791052,95.19221616562572 126.71553462377051,98.58481645957363 126.70651436335174,99.97314056912728 125.72330597473774,106.81010205446364" stroke="#4DD2FF" stroke-linecap="round" stroke-linejoin="round" stroke-width="0.5"><title>2025-07-22 5.0km</title><desc>1753184035000</desc></polyline><polyline fill="none" points="139.85714285704307,100.24549656556337 139.85714285704307,96.531859018869 142.3176315210294,86.13349319968256 162.21549636800773,89.7646988237102 163.0,90.63123173010536 160.32555580022745,106.6823878629657 142.4602685449645,103.87657599558588 141.81840193714015,103.05133352158009 144.02927580894902,87.00003385543823 144.81377944070846,86.50486799291684 149.55646048882045,87.28888032978284 162.96434074407443,90.2598607110267 160.61082984833047,106.35229335539043 159.86198547203094,106.72364965747693 142.10367598501034,103.71152763496502 142.3176315210294,98.42994467489189 144.06493506510742,87.08256144056213 144.6354831608478,86.58739567859448 153.4076601366978,88.07289115290041 144.45718688098714,86.66992334756651 143.45872771297581,91.20891930712969 144.3502091129776,92.0754491314583" stroke="#4DD2FF" stroke-linecap="round" stroke-linejoin="round" stroke-width="0.5"><title>2025-07-20 4.9km</title><desc>1753020627000</desc></polyline><polyline fill="none" points="178.47304056433495,84.85714285714494 178.29845399028272,86.04039369058592 177.64998957232456,87.70461577131209 177.1012889109552,90.20570376762043 176.95164327599923,92.17766887891048 176.43619720020797,95.47701135577518 176.31980615083012,95.58281927058852 176.3780016755336,96.0541440002562 175.83761466050055,99.94969736460916 175.81267372137518,101.2385612277867 176.55258824955672,107.99038236440538 176.46945178575697,106.6631392864947 176.56090189598035,108.0 177.0347797398863,107.9038236000124 176.23666968697216,100.37290832817234 177.50865758379223,91.0810689588834 177.77469426806783,90.2441815284692 177.80794885358773,89.11870056312182" stroke="#4DD2FF" stroke-linecap="round" stroke-linejoin="round" stroke-width="0.5"><title>2025-07-20 5.0km</title><desc>1752942252000</desc></polyline><polyline fill="none" points="23.855044841009658,111.65321306368423 23.711848143779207,111.64285714286234 23.48810330434935,112.78200212506636 23.738697524531744,112.93733909072762 23.720797937363386,113.268723826317 23.407555162149947,115.38127618930594 23.237509084225167,115.7437194983795 22.798969198949635,119.87548214082926 22.43202766223112,121.56334702261665 22.467826836567838,122.06038166178769 21.83239149255678,126.81315303618612 22.691571675939485,134.7857142857174 21.895040047587827,128.138505114679 21.87714046041947,126.12976163939311 22.467826836567838,122.12251082131115 22.4409774558153,121.5737019356311 23.094312386936508,117.63875924469903 23.22855929058278,115.73336399315303 23.407555162149947,115.36056510415801 23.881894221762195,111.97424608716392" stroke="#4DD2FF" stroke-linecap="round" stroke-linejoin="round" stroke-width="0.5"><title>2025-07-17 5.0km</title><desc>1752765839000</desc></polyline><polyline fill="none" points="58.500965251005255,134.29736174631398 59.022200772189535,133.5735951740062 60.14285714284051,124.1343111692986 43.38513513514772,123.38036179888877 40.36196911195293,123.62162580588483 40.726833976688795,123.38036179888877 40.179536679410376,119.97248674745788 37.078185328166,115.08679229274276 37.0,112.34232370223617 37.36486486485228,112.13120968226576 51.933397683431394,112.3724828356062 50.89092664094642,121.87245731143048 50.239382239291444,122.29467134026345 41.14382239372935,121.99308995238971 40.15347490343265,118.82646687456872 37.59942084935028,115.56933359685354 37.286679536569864,113.85027661922504 40.909266409114935,113.57884565973654 51.46428571420256,113.94075355058885 51.62065637065098,116.20266786761931 50.68243243242614,123.56130982254399 49.275096525088884,123.65178379291319" stroke="#4DD2FF" stroke-linecap="round" stroke-linejoin="round" stroke-width="0.5"><title>2025-07-15 4.1km</title><desc>1752589649000</desc></polyline><polyline fill="none" points="75.21575740567641,111.64285714286234 75.28628200246021,113.28516606029734 74.73971637745854,116.71250683069957 74.54577373625943,117.11031559211551 74.53695816168329,118.12013075413415 73.76118759717792,122.85286648230976 73.79644989559893,123.38324538023153 73.20580639754189,127.77916265837848 73.91105236532167,134.7857142857174 73.50553593382938,132.01170862078288 73.19699082296574,127.55478174957534 74.519327012531,118.04873001574015 74.43998684111284,117.72232599357085 74.70445407903753,116.78390851931908 75.22457298031077,113.38717193916818 75.16286395810312,113.03015090965346 75.37443774845451,111.9488794747449 75.18049510731362,111.70406168387126" stroke="#4DD2FF" stroke-linecap="round" stroke-linejoin="round" stroke-width="0.5"><title>2025-07-13 5.0km</title><desc>1752418082000</desc></polyline><polyline fill="none" points="99.79901563975727,134.7857142857174 99.68025215418311,134.77514311904088 99.75333737611072,133.940017558627 100.15530609659618,131.4028861265324 100.3928330677445,131.1914557140044 100.8039374409127,128.31595943715365 101.02319310657913,125.34523457792238 100.42024002596736,121.21145132797392 100.10962783289142,117.75417138136254 99.9269147781306,117.07750375190517 99.54321736312704,116.46426990909094 99.6254382377956,116.30567436115234 100.06394956918666,116.36911260937632 99.87210086168488,114.36021595576312 99.43358953023562,113.81040589600889 99.46099648851668,112.55217578063457 99.15038429544074,111.68515120931261 98.95853558793897,111.68515120931261 99.12297733721789,111.64285714286234 99.43358953023562,112.41472114795761 99.42445387755288,113.82097919382795 99.82642259798013,114.19104393935413 99.87210086168488,114.40250891686446 100.06394956918666,116.33739349008829 99.61630258505465,116.31624740520056 99.51581040490419,116.4325508188922 99.91777912538964,117.0140659358949 100.10049218015047,117.65901526204834 100.47505394235486,121.77179474571312 101.04146441206103,125.27122967260948 101.03232875937829,126.62445390497305 99.91777912538964,134.2360121951424" stroke="#4DD2FF" stroke-linecap="round" stroke-linejoin="round" stroke-width="0.5"><title>2025-07-12 5.1km</title><desc>1752325602000</desc></polyline><polyline fill="none" points="125.57484894403024,134.7857142857174 125.3499509273679,134.775304819319 125.85372248460772,131.30889368004136 126.0606286599068,131.20479543520196 126.63636758242501,127.34267577876017 126.72632678912487,125.39594570823829 126.19556746986927,121.90839556809078 125.79075103992363,117.67112259681744 125.25099580001552,116.57794018225104 125.32296316535212,116.46341563482565 125.77275919861859,116.53629490709864 125.5658530233195,114.42277494935843 125.16103659337386,113.97507793002296 125.14304475206882,112.56950479887018 124.69324871880235,111.64285714285506 125.17003251402639,112.68403370203305 125.16103659337386,113.9646663481617 125.57484894403024,114.43318648466811 125.79974696063437,116.50506093960576 125.36794276867295,116.45300430597126 125.26898764143698,116.61958544044319 125.80874288128689,117.75441220706125 126.2045633905218,121.88757401656767 126.73532270977739,125.32307274110644 126.64536350313574,127.29062465408788 125.78175511927111,133.03690909063153" stroke="#4DD2FF" stroke-linecap="round" stroke-linejoin="round" stroke-width="0.5"><title>2025-07-10 5.0km</title><desc>1752149320000</desc></polyline><polyline fill="none" points="148.18304195342353,111.64285714285506 148.23724703857442,113.08546726628265 148.63023390609305,112.88162100179761 149.47041272651404,113.16386960398813 150.37834790319903,113.08546726628265 151.39469325036043,113.46179812405899 156.63903524150373,114.15173564649012 156.7880992257269,114.35558023328485 155.58203608047916,122.05443635713891 154.99933141481597,122.10147503091139 154.89092124439776,122.30530911813548 154.6876521750237,123.66942261935037 154.83671615924686,124.26523852678656 153.91522971121594,129.45501140644774 147.16669660632033,129.25118676034617 146.9363249942544,129.0943983879406 146.06904363143258,134.78571428571013 146.97697880811756,129.1884714304906 149.60592543939129,129.23550793023605 150.48675807355903,128.89057326570037 150.60871951520676,129.25118676034617 153.95588352507912,129.36093852634076 156.28670218779007,114.7632685991266 156.21894583135145,114.23013744254422 149.2400411144481,113.00706488870492" stroke="#4DD2FF" stroke-linecap="round" stroke-linejoin="round" stroke-width="0.5"><title>2025-07-08 5.1km</title><desc>1751976330000</desc></polyline><polyline fill="none" points="165.77755795582198,134.5749891660962 165.72789168125018,134.78571428571013 166.04244475415908,134.6516165095527 166.14177730347728,133.5788308665651 166.72121717460686,133.0999067334924 166.83710514887935,132.60182434447051 168.50920306274202,121.0114586774871 168.65820188669022,117.50547214051767 168.2608716894174,114.91904682769382 169.17142005835194,114.88072914881923 169.4031960067805,115.22558797808597 172.59839301055763,115.68539876879368 175.16448386851698,115.64708124578465 177.03524688101606,116.39427154014993 182.99519984127255,117.27556910552084 184.08785788412206,111.64285714284051 188.55782260443084,112.63913137723284 184.56796520587523,111.70033464572043 183.82297108584316,115.01484099072695 183.70708311157068,117.3138862975029 172.54872673586942,115.81951003817085 169.4031960067805,115.24474678344268 169.12175378372194,114.82325261589722 168.2112054147292,114.97652333135193 168.57542476226809,116.50922363018617 168.64164646191057,119.82364540666458 166.77088344923686,132.65929545655672" stroke="#4DD2FF" stroke-linecap="round" stroke-linejoin="round" stroke-width="0.5"><title>2025-07-06 5.0km</title><desc>1751807521000</desc></polyline><polyline fill="none" points="14.808229753863998,160.13694178627338 15.810925610479899,153.00655156325956 12.565837201895192,152.77449332852848 11.544910511584021,153.13312867288187 12.875761375762522,153.00655156325956 12.693453038227744,152.79558954239474 16.047926449333318,152.98545537084283 16.284927288186736,152.77449332852848 16.17554228566587,152.12050963495858 17.54285481723491,143.4919512027118 17.415238981018774,139.18808626956888 19.76701653562486,138.95601258525858 34.169375202734955,141.3189325137355 34.151144369039685,140.62271783026517 18.308549834997393,138.42857142857974 18.563781507662497,143.6396312588622 16.90477563580498,155.3693115497008 17.360546479700133,156.08657265316288 16.941237303311937,156.86711868521525 17.032391472137533,158.5547757489985 16.394312290591188,158.70244508933683 16.102618950535543,161.5714285714348 14.62592141632922,161.4026659347146 14.717075585154817,160.15803725198202" stroke="#4DD2FF" stroke-linecap="round" stroke-linejoin="round" stroke-width="0.5"><title>2025-07-05 4.8km</title><desc>1751729502000</desc></polyline><polyline fill="none" points="52.296283848176245,161.5714285714348 52.52532025676919,161.40404397679958 52.561483900179155,160.45552741840947 52.87490214355057,159.07458718244743 53.0436658130493,159.01879132536124 53.26064767385833,156.99617619295896 48.54731947579421,156.8008876369131 48.8486831713235,155.75469421241723 49.29470144066727,151.03975022627856 49.342919631977566,147.5941117977345 49.174155962478835,147.13375679240562 49.354974179761484,144.31579249413335 49.342919631977566,138.42857142857974 43.014282025862485,140.70257538260194 42.88168199977372,141.02344407206692 42.929900191142224,140.74442786291183 46.34133722446859,139.44699503706943 46.40160996362101,142.32086199168407 46.739137302560266,143.04629462100274 49.2585377971991,143.04629462100274 49.27059234504122,146.72920111895655 49.53579239710234,146.85475300731196 49.63222877966473,147.30115879121877 54.04419328219956,147.58016166875314 54.261175143066794,148.68221748966607 54.23706604732433,150.69100533235178 52.718193021952175,161.05532541572757" stroke="#4DD2FF" stroke-linecap="round" stroke-linejoin="round" stroke-width="0.5"><title>2025-07-03 5.2km</title><desc>1751545471000</desc></polyline><polyline fill="none" points="73.88016837550094,161.57142857142753 74.42990838718833,158.1821971265672 74.65521167067345,158.02576835751097 75.23198807641165,153.7499563260135 75.2770487330854,152.2690237863426 74.2947264171089,144.40512244642014 73.81708345614607,143.41426983246492 73.91621690080501,143.2786787302466 74.32176281110151,143.35168934601097 74.13250805297866,141.32823304192425 73.6909136173781,140.76499583452824 73.69992574868957,139.48205509343825 73.27635557577014,138.42857142857247 73.73597427405184,139.5759293503652 73.6909136173781,140.78585652699985 74.09645952761639,141.18220887774805 74.15954444697127,141.50554781896062 74.32176281110151,143.34125926121487 73.88016837550094,143.30996900050377 73.81708345614607,143.44556006135826 74.30373854842037,144.40512244642014 74.77236937807174,148.86905553401448 75.29507299570832,152.23773624861497 75.14186676294776,154.57384616120544 74.1505323156598,161.21686806265643" stroke="#4DD2FF" stroke-linecap="round" stroke-linejoin="round" stroke-width="0.5"><title>2025-07-01 5.0km</title><desc>1751376396000</desc></polyline><polyline fill="none" points="99.18669570033671,161.57142857142753 99.35381302220048,161.36515991448687 99.32038955780445,160.6045413438187 99.58777727279812,160.34670350528177 99.77717690420104,159.34113092808548 100.06684692873387,155.79577940538002 100.46792850113707,154.41628858132754 100.91357469273498,150.79344217989274 100.80216314486461,148.71767216829903 100.17825847660424,145.01730223631603 99.75489459466189,140.5302976946914 99.08642530726502,138.86697119369637 99.67690651107114,138.98301793666906 99.6991888206685,138.42857142857247 99.6991888206685,138.9572297807099 99.18669570033671,138.8540771045955 99.0975664620637,138.98301793666906 99.52093034400605,139.61482611847168 99.77717690420104,140.50450985343195 100.24510540539632,145.5072528883902 100.91357469273498,149.95540247535973 100.8578689187998,152.0311522312768 99.45408341527218,161.13310727464705" stroke="#4DD2FF" stroke-linecap="round" stroke-linejoin="round" stroke-width="0.5"><title>2025-06-30 4.1km</title><desc>1751292736000</desc></polyline><polyline fill="none" points="114.40268790436676,151.42663152053137 114.14285714284051,149.5486798803613 114.23245395720005,149.35154482606595 121.20308611250948,149.01952702961717 122.31408661021851,149.12328270734724 124.12394225981552,148.94689799232583 126.83872573415283,148.97802472894546 137.28571428568102,148.31398561665264 134.1677451468422,148.5318739278373 133.44201095076278,148.770512971656 132.09805873566074,148.7082593619707 125.29766052757623,149.06102931341593 118.97212543548085,149.17516050653649 118.78397212538403,149.3411692863374 119.22299651562935,151.68601438335463 119.01692384266062,151.66526377865375 118.76605276251212,150.4409706146762" stroke="#4DD2FF" stroke-linecap="round" stroke-linejoin="round" stroke-width="0.5"><title>2025-06-26 5.0km</title><desc>1750950176000</desc></polyline><polyline fill="none" points="163.0,150.94717389243306 162.6263263109431,149.05282610755967 152.6699984622246,149.96634882317449 151.60710441335686,149.97596480470384 147.7707212055684,149.49516452703392 139.85714285713038,149.8317249786778 147.50499769338057,149.48554849647917 151.61540827312274,149.9855807852873 158.69860064587556,149.341307920673" stroke="#4DD2FF" stroke-linecap="round" stroke-linejoin="round" stroke-width="0.5"><title>2025-06-24 5.0km</title><desc>1750769966000</desc></polyline><polyline fill="none" points="188.71428571428987,150.92679270032386 188.39748867845628,149.07320729967614 178.54343351174612,150.0096586240761 177.3429394812556,150.04827497478982 173.4580074104597,149.5462611877083 165.57142857142026,149.89380947751488 173.24958830792457,149.5462611877083 177.33460271713557,150.04827497478982 185.67970358169987,149.3049074583978" stroke="#4DD2FF" stroke-linecap="round" stroke-linejoin="round" stroke-width="0.5"><title>2025-06-22 5.0km</title><desc>1750563938000</desc></polyline><polyline fill="none" points="23.648020522028673,188.3571428571413 22.451922852167627,181.2112700544676 22.435155127808684,179.26284454472625 22.541350715328008,178.44720680742103 22.474279817950446,176.34980450076182 22.496636783733265,175.9872834972084 22.619600095582427,175.7801277084218 22.496636783733265,175.68302319967188 22.491047542280285,174.35591335728168 21.13286187045742,166.1854843244364 20.791918142087525,165.21428571428623 21.13845111185219,166.0624666561598 22.474279817950446,174.21996395281894 22.54693995678099,178.1947453838511 22.451922852167627,179.26931781817984 22.446333610714646,181.1465392702812 23.362969208188588,186.6354752995212 23.49152176149073,187.01088047544545 24.922367572173243,186.93321062113318" stroke="#4DD2FF" stroke-linecap="round" stroke-linejoin="round" stroke-width="0.5"><title>2025-06-21 8.0km</title><desc>1750517001000</desc></polyline><polyline fill="none" points="50.91933825711021,188.35714285714494 48.95894764584955,176.30212530343852 45.50926804298069,176.23172856836754 39.29376602725824,175.63335516126244 39.41534063877771,174.9997810578643 39.17219141568057,173.78542419358564 39.506521597504616,165.84789573436137 39.46093111805385,165.2846869424975 39.15699458925519,165.21428571428987 38.7770739280968,174.98218174405338 39.354553333017975,175.05257898860145 39.38494698586874,175.65095440877485 49.0045381251839,176.2845261223847 50.17469376133522,183.81681169383228 50.539417596010026,184.81991838836984 58.36578321480192,184.57354184542783" stroke="#4DD2FF" stroke-linecap="round" stroke-linejoin="round" stroke-width="0.5"><title>2025-06-19 5.0km</title><desc>1750345525000</desc></polyline><polyline fill="none" points="85.85714285713038,177.36508127365596 85.64472049692995,176.1027745243191 79.09316770188161,176.72422098223615 78.24906832296983,176.74364108604277 75.44285714285797,176.41997191361224 65.04534161489573,176.89252835151638 64.14534161490155,177.04141526796957 62.71428571428987,177.46865404710843 64.73229813663056,176.92489510217274 68.38819875777699,176.7630611839486" stroke="#4DD2FF" stroke-linecap="round" stroke-linejoin="round" stroke-width="0.5"><title>2025-06-17 5.1km</title><desc>1750166247000</desc></polyline><polyline fill="none" points="89.22660098504275,185.5189615162526 88.42857142852154,180.3900511385582 106.46403940883465,179.85867090658576 103.53128078824375,168.2835141261312 107.08251231524628,168.49145628869883 111.57142857136205,168.05246705516765 104.48891625611577,168.46835161338095 107.10246305423789,178.88832118167193 99.36157635459676,179.25797870957467" stroke="#4DD2FF" stroke-linecap="round" stroke-linejoin="round" stroke-width="0.5"><title>2025-06-16 3.2km</title><desc>1750084948000</desc></polyline><polyline fill="none" points="137.28571428568102,177.85554236619646 136.93110599077772,175.71588620523107 125.55564516125014,176.76410699220287 124.52914746542228,176.77491333812213 120.03122119809268,176.223788293064 114.14285714284051,176.50475436024863 119.84458525339141,176.21298189098889 124.51981566817267,176.75330064522132 134.1688940092572,175.94282148132334" stroke="#4DD2FF" stroke-linecap="round" stroke-linejoin="round" stroke-width="0.5"><title>2025-06-15 4.6km</title><desc>1749956754000</desc></polyline><polyline fill="none" points="162.9999999999709,177.7164604984282 162.71827528002905,175.85496807299933 152.8081939542899,176.7665282408925 151.7724413073447,176.78571888641454 147.41399416906643,176.29635620384215 139.85714285713038,176.641788949717 147.56314255020698,176.29635620384215 151.7061531379295,176.78571888641454 153.8688046647294,176.68017028768372 154.27481970225926,176.54583553634438 159.52815712749725,176.07566239708103" stroke="#4DD2FF" stroke-linecap="round" stroke-linejoin="round" stroke-width="0.5"><title>2025-06-14 5.1km</title><desc>1749906363000</desc></polyline><polyline fill="none" points="188.71428571428987,178.15982389906276 188.43604768640944,176.28346232761396 178.8450191958109,177.21217127232376 177.55203071329743,177.22164784642518 173.62396443728358,176.74781795947638 166.22610628409893,177.09845230809879 166.12790462723933,176.88049057122407 166.16882198426174,175.42108142995858 165.57142857142026,175.41160467237205 166.19337239846936,175.44003494224307 166.12790462723933,176.8710139623654 166.25065669833566,177.09845230809879 173.82855122248293,176.7383413371208 177.73206708428916,177.23112441954436 185.50636492224294,176.52985540068767 185.498181450821,176.15078886396805 187.99414023035206,176.01811521104537" stroke="#4DD2FF" stroke-linecap="round" stroke-linejoin="round" stroke-width="0.5"><title>2025-06-12 5.9km</title><desc>1749735885000</desc></polyline><polyline fill="none" points="34.42857142863795,210.85196100638132 33.69082269089995,207.13751419649634 13.418770418793429,208.93903035500261 11.510246510268189,203.7201562577393 11.285714285739232,197.20099678327097 15.070686070714146,197.0338357807923 18.294327294279356,197.23814365186263 18.470745470840484,196.64379284529423 18.133947133959737,196.51377834791492 11.38194238190772,196.29089613647375 11.526284526276868,203.53442844651 12.087615087628365,205.6517142720113 13.194238194264472,208.28900080521998 22.175527175539173,207.50896228465717 22.35194535192568,208.21471156615007 33.642708642815705,207.11894177217619 34.332343332411256,210.7962448635226" stroke="#4DD2FF" stroke-linecap="round" stroke-linejoin="round" stroke-width="0.5"><title>2025-06-10 5.3km</title><desc>1749559786000</desc></polyline><polyline fill="none" points="37.607651913014706,197.40973982203286 37.052084449795075,195.15800728560134 37.0,193.40887588124315 52.74686528783059,193.00677451524825 53.4586861000862,195.6405235643324 52.9378416032996,195.62041874298302 52.781588254263625,195.98230521428923 53.111456435522996,197.85204140722635 53.0246490194113,199.1186268242309 53.59757796599297,201.65177326272533 55.07330404035747,201.5914606302831 57.26085092703579,210.01494642230682 57.295573893527035,210.3969098081434 56.740006430249196,210.55773627573217 57.243489443848375,210.41701312379155 57.41710427607177,210.73866589499812 56.96570571215125,210.8190790059598 57.121959061187226,211.56289872800699 58.16364805487683,214.21650299915927 58.89283035049448,214.13609127281234 60.14285714284051,213.45259027607972 58.823384417570196,213.73403214973223 56.47958418173948,204.38592656915716 56.20180045015877,203.58176776539767 55.57678705395665,203.58176776539767 55.10802700679051,201.53114797935996 54.60454399319133,201.7321900773095 53.580216482747346,201.5914606302831 53.007287536223885,199.2794624857488 52.88575715362094,196.3039815203956 51.930875576043036,192.92635414371034 37.052084449795075,193.44908597276662 37.67709784593899,197.53036762539705" stroke="#4DD2FF" stroke-linecap="round" stroke-linejoin="round" stroke-width="0.5"><title>2025-06-08 5.0km</title><desc>1749355299000</desc></polyline><polyline fill="none" points="85.85714285713038,204.5237524949116 85.45010768124484,202.61910464794346 77.99056507021305,203.24437206782022 75.74771818274166,203.56181394181476 74.50169213415938,203.56181394181476 70.55594298019423,203.08084098878317 62.71428571428987,203.427141762033 70.18213516561082,203.08084098878317 74.460157932539,203.57143337585876 83.45646600349573,202.76339749710314" stroke="#4DD2FF" stroke-linecap="round" stroke-linejoin="round" stroke-width="0.5"><title>2025-06-07 5.3km</title><desc>1749293029000</desc></polyline><polyline fill="none" points="111.57142857144936,204.48823663841904 111.22974432847695,202.6546205044433 100.67086784300045,203.61968605366565 96.38731416224618,203.12750385257823 88.42857142857974,203.45562560422695 96.35397911415203,203.1082025376527 100.16250835952815,203.61968605366565 108.32126138178864,202.8765864517336" stroke="#4DD2FF" stroke-linecap="round" stroke-linejoin="round" stroke-width="0.5"><title>2025-06-05 5.1km</title><desc>1749128617000</desc></polyline><polyline fill="none" points="114.46681664785137,203.42494337260723 114.14285714284051,201.30300415929378 114.26434195722686,201.2092158874293 123.34533183352323,200.89267990535882 125.05624296958558,207.16461941220768 134.02587176603265,207.04739003413852 137.28571428568102,206.8480998172381 134.60292463441147,206.94188349170145 134.10686164227081,199.9782377306401 125.5219347581151,200.4823541876831 123.67941507312935,200.4237361084961 123.84139482560568,200.89267990535882 119.0832395949983,201.0333626716092" stroke="#4DD2FF" stroke-linecap="round" stroke-linejoin="round" stroke-width="0.5"><title>2025-06-03 5.2km</title><desc>1748952979000</desc></polyline><polyline fill="none" points="158.99553474687855,196.67230823548016 158.4878573777387,195.92089028828923 158.12798481230857,195.13226512245456 157.8966381631035,194.91650769802072 157.32469783583656,194.86442822426034 156.8877097206423,194.35851140458544 156.68849455050076,193.69635027427285 156.3928849431395,193.24250603358814 156.0394386734697,192.0 155.01765763942967,192.4389716113874 154.54211174935335,192.49105281398806 153.30826295347651,192.95234184496076 152.78130669693928,193.62938982587366 152.78130669693928,193.8005108498037 150.64777648742893,196.5160734569945 150.63492389579187,196.67230823548016 150.0501309769461,197.47579610575485 149.54245360780624,197.94449328360497 149.45248546646326,197.86265748505684 149.09261290097493,198.1751209501599 148.85483995592222,198.03376859572018 148.8484136601619,198.16768135938037 148.81628218106925,197.97425173311058 149.15044956328347,198.2123188927435 149.09903919679346,198.48014352031896 148.32788369938498,199.33568783831288 147.0104930579837,199.63326612297533 147.0104930579837,199.49935604484926 146.9205249166116,199.66302388480108 146.56065235115238,199.7448576673487 146.24576385636465,199.65558444547787 145.71880759982741,199.70022107003751 145.62883945842623,199.6183872375259 145.41677169667673,199.737418236371 144.78056841131183,199.51423495452764 144.69702656572917,198.5396599709129 144.45282732488704,198.3239126068438 143.25111000810284,198.6289345559635 142.80126930130064,198.90419717328768 143.31537296622992,201.12857866186823 144.12508623849135,203.61325920870877 145.8344809244154,210.29320910599927 146.072253869439,210.98497304928605 148.09011075436138,215.06847846663004 148.34716258681146,215.14285714285506 149.23399140886613,214.86021777074347 149.8380632151675,215.0387269749699 150.94338609479018,214.8081525041125 150.9241072073055,214.36931521227234 151.21971681466675,214.28749779881764 151.75309936705162,214.53294976460893 152.15795600318233,214.33956343616592 152.32503969428944,214.5850152271887 153.36609961578506,214.81559040159482 153.97659771793406,214.70402185961575 154.59352211584337,214.2428700801538 154.70276914464193,213.37262412250857 155.1654624431103,212.73294954939774 155.04336282267468,212.09326938027516 155.1911676263553,211.78086540334334 154.87627913156757,211.43126889419364 154.67706396142603,210.91059014361235 154.5999484116328,210.1370034388019 155.01765763942967,209.8022758852967 155.65386092476547,210.06261967046157 156.00730719443527,210.04030452518782 156.09727533580735,209.55680803873838 155.94947053212672,208.96173105066555 155.8273709116911,208.9096615837625 155.94947053212672,208.85015357618977 155.80809202426462,208.805522538707 155.9237653488526,208.87246908470115 155.93661794051877,208.52285866867896 155.76953424941166,208.13605370705045 155.01123134358204,208.08398365208268 154.65778507397044,207.81619421215146 154.80558987762197,206.8045363642741 155.40966168392333,205.77054806768137 155.8723549823626,205.25726786972518 156.0844227441703,205.182879136235 156.54068974682014,204.55057184500765 157.34397672329214,203.7843568565222 158.05729555839207,202.89166907027538 157.8516540924029,202.47507770557422 157.215450807038,202.46763855249446 157.13190896148444,202.2221460757355 157.37610820232658,201.63444861502649 157.65886521805078,201.36663554655388 157.9223433463485,201.40383186474355 158.03159037511796,201.26992503067595 157.8066700217314,200.75661322721135 158.10870592485298,200.12426764368138 158.3914629406063,199.96060083661723 158.6292358856299,200.05731308508257 158.59710440656636,199.87876729567506 159.31042324166629,199.55143221549224 159.37468619979336,199.35056678133697 159.9980368935212,198.97115278828278 160.05587355582975,198.42806658627524 159.23973398772068,196.87318103131838 159.11120807149564,196.81366322344547" stroke="#4DD2FF" stroke-linecap="round" stroke-linejoin="round" stroke-width="0.5"><title>2025-06-02 11.5km</title><desc>1748829019000</desc></polyline><polyline fill="none" points="188.71428571431898,204.65368303933792 188.29035327705787,202.48917410351714 176.06375639350154,203.62722021961235 170.99583680264186,203.04704132501502 165.57142857142026,203.28134471027442 171.06328059948282,203.02472669073904 175.5049363625585,203.6049057035998 188.27108362078434,202.50033147582872 188.7046508861822,204.58674010533286" stroke="#4DD2FF" stroke-linecap="round" stroke-linejoin="round" stroke-width="0.5"><title>2025-06-01 4.9km</title><desc>1748740054000</desc></polyline><polyline fill="none" points="34.428571428579744,241.50956572096038 34.34477110096486,241.68747409257048 34.17717044567689,241.55808620575408 33.61850159493042,238.4527452729526 15.964565910864621,239.98924968359643 14.33045952237444,235.41204005970212 14.26062591606751,229.65394926724548 13.869557720492594,227.4865238818893 11.285714285739232,219.02681162170484 12.989654280536342,224.68823686940596 13.450556082476396,225.56169591755315 14.204759031010326,228.8128623347875 14.958961979486048,229.0231344858912 14.17682558845263,229.00695971495588 14.33045952237444,234.8782932394388 14.861194930563215,237.06179160802276 15.782998534326907,239.34230227131047 16.020432795921806,239.48786566904164 23.590395723760594,238.7115260049759 23.799896542797796,239.3261285522458 29.819553409761284,238.74387356682564" stroke="#4DD2FF" stroke-linecap="round" stroke-linejoin="round" stroke-width="0.5"><title>2025-05-31 5.5km</title><desc>1748696141000</desc></polyline><polyline fill="none" points="58.519851577002555,236.74401102033153 57.99387755105272,233.3505366860336 38.95361781079555,235.05598349950742 37.19536178110866,230.044009640711 37.0,224.00508181353507 43.46196660475107,224.07469603148638 37.09016697591869,223.97027469395834 37.210389610379934,229.95699490637344 37.67625231912825,231.81910054165928 38.848423005547374,234.4991047803196 55.709647495357785,232.88066569334478 57.2124304267345,232.79365240460902 57.28756957332371,233.4375496909488 60.14285714284051,233.21131578597124" stroke="#4DD2FF" stroke-linecap="round" stroke-linejoin="round" stroke-width="0.5"><title>2025-05-29 5.0km</title><desc>1748526381000</desc></polyline><polyline fill="none" points="76.74303826119285,228.08510624300106 76.22956757980864,223.88039108923113 84.92189268732909,223.45566766848788 85.85714285715949,226.87466663842497 84.84853973286226,223.54061242185708 76.19289110263344,223.94409952762362 76.43128820462152,226.04646706802305 76.1011999094626,223.96533566943253 63.7412270772038,225.11208411339612 65.59338917816058,234.392019889754 66.30858048447408,236.5579866025073 65.83178628026508,236.85527439434372 66.58365406375378,238.85133858454356 65.57505093957298,236.21822860682732 63.08105048665311,225.15455615684914 67.40887480194215,224.53871068033914 75.23930269409902,224.05028021507314 75.1476115010446,223.43443147469952 63.64953588414937,224.22016920243914 63.007697532186285,221.8629471297172 62.714285714318976,222.1177832340909 62.86099162325263,224.3900580512418 71.53497849218547,223.54061242185708" stroke="#4DD2FF" stroke-linecap="round" stroke-linejoin="round" stroke-width="0.5"><title>2025-05-27 6.0km</title><desc>1748352132000</desc></polyline><polyline fill="none" points="108.48747152619762,232.0817487099339 108.57972665151465,232.02070209643716 108.28319232023205,230.54030648025946 100.48763423366472,231.2881388520109 99.58485193626257,231.30340065937344 96.33615359588293,230.9218545420008 88.57354376834701,231.26524613513902 88.42857142857974,228.7317422153501 89.35112268142984,228.63253700435598 90.62292548001278,228.72411104994535 90.62951513181906,230.9218545420008 96.52725349823595,230.68529497276904 100.11202408070676,231.03631858136214 108.27001301661949,230.22743561870448 111.43304588351748,230.11297034267773 111.57142857144936,230.3647937189089 111.47917344616144,230.3953177069634 108.55995769609581,230.51741353470425" stroke="#4DD2FF" stroke-linecap="round" stroke-linejoin="round" stroke-width="0.5"><title>2025-05-25 7.6km</title><desc>1748179850000</desc></polyline><polyline fill="none" points="137.2705485864135,231.63479099710094 137.20988578919787,231.13427501382102 136.91415465268074,231.13427501382102 136.72458341132733,230.19470207025006 136.5729264182446,229.9839553302154 129.25547650252702,230.6074129428671 128.05738625727827,230.8269391973081 123.24985957684112,230.37910504489264 114.2717655870074,230.78303399118158 114.14285714286962,229.25511888005713 116.37221494104597,229.07949471718894 116.35704924172023,230.36154287384852 116.65278037820826,230.39666721237154 122.95412844038219,230.1244532142082 127.51900393184042,230.5196022844757 136.99756599889952,229.60636613177485 137.28571428571013,231.53820041973086" stroke="#4DD2FF" stroke-linecap="round" stroke-linejoin="round" stroke-width="0.5"><title>2025-05-24 6.6km</title><desc>1748094255000</desc></polyline><polyline fill="none" points="163.0,231.38831761352048 162.74824450333836,229.3259681007694 153.2188327385811,230.13579599497461 151.8947853113641,230.36254669604386 150.3842523311032,230.38414197556267 146.02981466561323,229.85505635933077 139.8571428571595,230.10340299804375 146.00184183265083,229.84425866618403 150.32830666512018,230.39493961370317 160.20271670311922,229.56351825800084" stroke="#4DD2FF" stroke-linecap="round" stroke-linejoin="round" stroke-width="0.5"><title>2025-05-18 4.7km</title><desc>1747565909000</desc></polyline><polyline fill="none" points="185.70631058030995,231.18576449273678 185.45454173654434,229.70498867584683 178.74291440020897,230.27275072218617 177.62320559486398,230.47223366783874 176.72213815385476,230.46456125661643 173.65453355689533,230.0655947960331 165.61780704263947,230.43387160396378 165.57142857142026,230.20369881013175 170.09664226410678,229.9121455943241 173.1642468610662,229.85843829983787 176.74864013740444,230.43387160396378 185.54067318307352,229.65128123353497 188.50226984577603,229.52852122154582 188.62152877182234,229.54386623399478 188.64140525949188,229.65128123353497 188.71428571426077,229.60524625251128" stroke="#4DD2FF" stroke-linecap="round" stroke-linejoin="round" stroke-width="0.5"><title>2025-05-17 5.7km</title><desc>1747487200000</desc></polyline><polyline fill="none" points="33.16388398205163,256.18610677938705 30.099093965487555,256.3464575516846 28.603624138166197,256.6137082940477 21.735540486639366,257.13751777379366 17.433756909274962,256.5816382409248 11.285714285739232,256.82750839765504 17.35067525220802,256.60301827744115 21.569377172505483,257.1268278105417 33.82853723858716,256.057825985059 34.234714228776284,258.13167959245766 34.42857142863795,258.2278883006511" stroke="#4DD2FF" stroke-linecap="round" stroke-linejoin="round" stroke-width="0.5"><title>2025-05-11 5.0km</title><desc>1746965499000</desc></polyline><polyline fill="none" points="60.14285714284051,257.97434238900314 59.76931748303468,256.31137189672154 49.26870260294527,257.26301755900204 45.00204960029805,256.77277705336746 37.0,257.10921689034876 44.80282844841713,256.7823896367772 48.787251485919114,257.26301755900204 59.83572453371016,256.3305971566442" stroke="#4DD2FF" stroke-linecap="round" stroke-linejoin="round" stroke-width="0.5"><title>2025-05-10 5.3km</title><desc>1746870058000</desc></polyline><polyline fill="none" points="85.80661260135821,256.75275763992977 85.74766063629068,256.5869641833269 85.85714285713038,256.71374744067725 85.41079226450529,256.79176782324066 75.0941983780649,257.6987501023832 70.72333125388832,257.1818687818595 62.71428571428987,257.5134533462551 70.68122270744061,257.1818687818595 72.72769806609722,257.3476612076993 74.58889582034317,257.6889976504608 83.03587024330045,256.92830333968595" stroke="#4DD2FF" stroke-linecap="round" stroke-linejoin="round" stroke-width="0.5"><title>2025-05-05 5.4km</title><desc>1746434825000</desc></polyline></svg>