<?xml version="1.0" encoding="utf-8" ?>
<svg baseProfile="full" height="300mm" version="1.1" viewBox="0,0,200,300" width="200mm" xmlns="http://www.w3.org/2000/svg" xmlns:ev="http://www.w3.org/2001/xml-events" xmlns:xlink="http://www.w3.org/1999/xlink"><defs /><rect fill="#222222" height="300" width="200" x="0" y="0" /><text fill="#FFFFFF" style="font-size:12px; font-family:Arial; font-weight:bold;" x="10" y="20">Over 3km Runs</text><text fill="#FFFFFF" style="font-size:4px; font-family:Arial" x="10" y="280">Runner</text><text fill="#FFFFFF" style="font-size:9px; font-family:Arial" x="10" y="290">tang-hi</text><text fill="#FFFFFF" style="font-size:4px; font-family:Arial" x="65" y="280">SPECIAL TRACKS</text><rect fill="yellow" height="2.6" width="2.6" x="65" y="283" /><text fill="#FFFFFF" style="font-size:3px; font-family:Arial" x="70" y="285.5">Over 20.0 km</text><rect fill="red" height="2.6" width="2.6" x="65" y="287" /><text fill="#FFFFFF" style="font-size:3px; font-family:Arial" x="70" y="289.5">Over 40.0 km</text><text fill="#FFFFFF" style="font-size:4px; font-family:Arial" x="120" y="280">STATISTICS</text><text fill="#FFFFFF" style="font-size:3px; font-family:Arial" x="120" y="285">Number: 40</text><text fill="#FFFFFF" style="font-size:3px; font-family:Arial" x="120" y="290">Weekly: 3.6</text><text fill="#FFFFFF" style="font-size:3px; font-family:Arial" x="141" y="285">Total: 214.6 km</text><text fill="#FFFFFF" style="font-size:3px; font-family:Arial" x="141" y="290">Avg: 5.4 km</text><text fill="#FFFFFF" style="font-size:3px; font-family:Arial" x="167" y="285">Min: 3.2 km</text><text fill="#FFFFFF" style="font-size:3px; font-family:Arial" x="167" y="290">Max: 11.5 km</text><polyline fill="none" points="11.5,49.45307932648575 11.5,45.12050218868535 14.370570108061656,32.9890753996151 37.584745762869716,37.22548196098069 38.5,38.236437018436845 35.37981510045938,56.962785840121796 14.536979969358072,53.68933866149746 13.788135593291372,52.72655577518162 16.36748844385147,34.00003949800157 17.282742680981755,33.42234599171206 22.815870570251718,34.33702705139876 38.458397534675896,37.8031708295166 35.71263482305221,56.57767558126943 34.8389830510132,57.0109246003849 14.120955315884203,53.496782240777975 14.370570108061656,47.33493545404053 16.409090909408405,34.09632168064127 17.074730354594067,33.518628291698406 27.308936826186255,35.25170634506503 16.866718027973548,33.61491057212697 15.70184899866581,38.91040585830342 16.741910632001236,39.92135732001043" stroke="#4DD2FF" stroke-linecap="round" stroke-linejoin="round" stroke-width="0.5"><title>2025-07-20 4.9km</title><desc>1753020627000</desc></polyline><polyline fill="none" points="64.05188065842958,31.5 63.84819632198196,32.88045930568478 63.091654501040466,34.8220517331938 62.45150372944772,37.739987728884444 62.27691715536639,40.04061369205738 61.675563400262035,43.889846581732854 61.539773842610884,44.01328914901387 61.607668621465564,44.563168000291626 60.97721710393671,49.10798025870463 60.948119341628626,50.61165476574388 61.81135295785498,58.488779425133544 61.714360416750424,56.94032916756987 61.821052211977076,58.5 62.373909696529154,58.38779420001083 61.44278130150633,49.60172638286167 62.92676718108123,38.76124711869488 63.23714331275551,37.784878449878306 63.27594032918569,36.47181732363242" stroke="#4DD2FF" stroke-linecap="round" stroke-linejoin="round" stroke-width="0.5"><title>2025-07-20 5.0km</title><desc>1752942252000</desc></polyline><polyline fill="none" points="101.16421898122644,31.51208190763282 100.99715616781032,31.5 100.73612052178942,32.82900247924408 101.02848044532584,33.0102289391798 101.00759759364882,33.396844464034075 100.64214768924285,35.86148888752359 100.443760598253,36.28433941477124 99.93213073210791,41.104729164304445 99.50403227261268,43.073904859717004 99.54579797602491,43.653778605417756 98.80445674131624,49.19867854221957 99.80683362198761,58.5 98.877546722244,50.74492263379216 98.85666387056699,48.4013885792956 99.54579797602491,43.72626262486301 99.51447369845118,43.085985591569624 100.27669778483687,38.49521911881311 100.43331917241449,36.272257992008235 100.64214768924285,35.83732595485344 101.19554325874196,31.886620435026998" stroke="#4DD2FF" stroke-linecap="round" stroke-linejoin="round" stroke-width="0.5"><title>2025-07-17 5.0km</title><desc>1752765839000</desc></polyline><polyline fill="none" points="149.08445945964195,57.93025537068024 149.69256756769028,57.08586103635025 151.0,46.073363030853216 131.4493243243778,45.19375543203205 127.92229729739483,45.475230106851086 128.34797297301702,45.19375543203205 127.70945945952553,41.21790120535297 124.09121621632949,35.517924341518665 124.0,32.316044319275534 124.4256756757386,32.06974462931976 141.42229729739483,32.35122997488361 140.20608108118176,43.43453352997312 139.44594594603404,43.92711656363099 128.83445945952553,43.57527161113103 127.67905405408237,39.88087802033988 124.69932432437781,36.08088919633883 124.33445945952553,34.07532272240496 128.5608108107699,33.758653269702336 140.875,34.18087914233911 141.05743243254256,36.819779178884346 139.96283783798572,45.404861459624954 138.32094594603404,45.510414425079944" stroke="#4DD2FF" stroke-linecap="round" stroke-linejoin="round" stroke-width="0.5"><title>2025-07-15 4.1km</title><desc>1752589649000</desc></polyline><polyline fill="none" points="176.08505030663218,31.5 176.16732900287025,33.416027070335986 175.52966910699615,37.414591302476765 175.30340269237058,37.87870152412506 175.29311785532627,39.05681921314681 174.38805219670758,44.57834422936139 174.42919154488482,45.19711961026769 173.74010746384738,50.3256897681058 174.562894426228,58.5 174.08979192283005,55.26366005757882 173.72982262680307,50.06391204116517 175.27254818129586,38.97351835169684 175.1799846480135,38.59271365915629 175.48852975887712,37.49789327252802 176.0953351436765,33.535033929023484 176.02334128442453,33.11850939458964 176.27017737319693,31.85702605386905 176.04391095857136,31.57140529784374" stroke="#4DD2FF" stroke-linecap="round" stroke-linejoin="round" stroke-width="0.5"><title>2025-07-13 5.0km</title><desc>1752418082000</desc></polyline><polyline fill="none" points="24.765518246393185,88.5 24.626960846595466,88.48766697220708 24.712226938805543,87.51335381839453 25.181190446019173,84.55336714761506 25.458305245731026,84.30669833299908 25.93792701442726,80.95195267667441 26.19372529105749,77.48610700756399 25.490280030295253,72.6633598826229 25.127899138373323,68.62986661158357 24.914733907789923,67.84042104388209 24.467086923657916,67.12498156059883 24.563011277408805,66.93995342133712 25.074607830669265,67.01396471092448 24.85078433866147,64.67025194838789 24.339187785284594,64.02880687867582 24.37116256990703,62.56087174406275 24.008781678043306,61.5493430775241 23.784958185919095,61.5493430775241 23.976806893362664,61.5 24.339187785284594,62.400508005943266 24.32852952380199,64.04114239279443 24.797493030957412,64.47288459591073 24.85078433866147,64.71959373632853 25.074607830669265,66.9769590717624 24.552353015867993,66.95228863939701 24.435112139035482,67.08797595536453 24.90407564630732,67.76641025853314 25.11724087683251,68.51885113905155 25.554229599423707,73.31709386999137 26.215041814080905,77.39976795137045 26.2043835525983,78.97852955578855 24.90407564630732,87.85868089432188" stroke="#4DD2FF" stroke-linecap="round" stroke-linejoin="round" stroke-width="0.5"><title>2025-07-12 5.1km</title><desc>1752325602000</desc></polyline><polyline fill="none" points="62.337323767947964,88.5 62.074942748527974,88.48785562253761 62.66267623199383,84.44370929338038 62.90406676987186,84.32226134106168 63.575762179505546,79.81645507521898 63.68071458727354,77.54526999294467 63.06149538146565,73.47646149610227 62.58920954656787,68.5329763629561 61.9594951000181,67.2575968792953 62.04345702618593,67.12398490729538 62.568219065025914,67.20901072494598 62.32682852714788,64.74323744091816 61.85454269225011,64.22092425169103 61.83355221070815,62.581088932020066 61.308790171926375,61.5 61.86503793299198,62.714705985701585 61.85454269225011,64.20877740618016 62.337323767947964,64.75538423210673 62.599704787367955,67.17257109619823 62.09593323006993,67.11183835697011 61.98048558161827,67.30618301384675 62.61020002810983,68.63014757489873 63.07199062226573,73.45216968598834 63.69120982801542,77.46025153128721 63.58625742030563,79.75572876309889 62.57871430576779,86.45972727240587" stroke="#4DD2FF" stroke-linecap="round" stroke-linejoin="round" stroke-width="0.5"><title>2025-07-10 5.0km</title><desc>1752149320000</desc></polyline><polyline fill="none" points="96.21354894561227,61.5 96.27678821166046,63.1830451440037 96.7352728904225,62.94522450209479 97.71548151422758,63.27451453798858 98.77473922038916,63.1830451440037 99.96047545870533,63.622097811399726 106.07887444837252,64.42702492090757 106.25278242997592,64.66484360549657 104.84570876054931,73.64684241666691 104.16588665056042,73.70172086940147 104.03940811846405,73.93952730449382 103.80226087081246,75.53099305590149 103.97616885241587,76.22611161459645 102.90110132971313,82.28084664086055 95.02781270735431,82.04305122040387 94.75904582662042,81.86013145260222 93.74721756996587,88.5 94.80647527612746,81.96988333557965 97.87357967923163,82.02475925194449 98.90121775242733,81.62233547664073 99.04350610106485,82.04305122040387 102.94853077922016,82.1710949473927 105.66781921905931,65.14048003232165 105.58877013658639,64.51849368296098 97.44671463343548,63.091575703481794" stroke="#4DD2FF" stroke-linecap="round" stroke-linejoin="round" stroke-width="0.5"><title>2025-07-08 5.1km</title><desc>1751976330000</desc></polyline><polyline fill="none" points="124.2404842817923,88.25415402713406 124.18254029483069,88.5 124.54951887985226,88.34355259449512 124.66540685400832,87.09196934434294 125.34142003708985,86.53322452242719 125.47662267368287,85.95212840189924 127.42740357317962,72.43003512376163 127.60123553453013,68.33971749727789 127.13768363767304,65.3222212989931 128.19999006809667,65.27751734030608 128.4703953412827,65.67985264111485 132.1981251790421,66.2162985636096 135.19189784664195,66.17159478676331 137.37445469456725,67.04331679685856 144.32773314823862,68.07149728978402 145.60250086477026,61.5 150.8174597051693,62.66231994012196 146.1626260735793,61.56705708669324 145.29346626682673,65.43398115586024 145.1582636302337,68.11620068043703 132.14018119184766,66.3727617112163 128.4703953412827,65.7022045807098 128.14204608101863,65.21046138522797 127.079739650595,65.38927721993241 127.5046622226946,67.17742756856023 127.5819208722096,71.04425297446141 125.39936402416788,86.01917803267133" stroke="#4DD2FF" stroke-linecap="round" stroke-linejoin="round" stroke-width="0.5"><title>2025-07-06 5.0km</title><desc>1751807521000</desc></polyline><polyline fill="none" points="165.6096013794886,86.82643208399531 166.77941321220715,78.50764349047677 162.99347673542798,78.23690888327837 161.802395596751,78.65531678503612 163.3550549382344,78.50764349047677 163.14236187783536,78.26152113279386 167.05591419071425,78.48303126599058 167.33241516945418,78.23690888327837 167.20479933312163,77.47392790745653 168.79999728663824,67.4072764031589 168.6511121444637,62.386100647825515 171.39485262474045,62.115348016130156 188.19760440313257,64.8720879327011 188.17633509717416,64.0598374686524 169.69330814073328,61.5 169.99107842554804,67.57956980200834 168.055571575067,81.26419680798426 168.5873042262392,82.1010014286876 168.09811018710025,83.0116384660796 168.20445671735797,84.9805717071722 167.4600310055539,85.15285260422388 167.11972210893873,88.5 165.39690831897315,88.30311025716946 165.50325484923087,86.85104346064327" stroke="#4DD2FF" stroke-linecap="round" stroke-linejoin="round" stroke-width="0.5"><title>2025-07-05 4.8km</title><desc>1751729502000</desc></polyline><polyline fill="none" points="29.345664489548653,118.5 29.612873632926494,118.3047179729183 29.655064550228417,117.19811532145832 30.020719167485368,115.58701837950503 30.217610115243588,115.52192321291659 30.470755619520787,113.16220555844484 24.97187272174051,112.93436890971498 25.32346369989682,111.7138099144795 25.843818347435445,106.21304193063406 25.90007290401263,102.19313043069269 25.70318195625441,101.65604959113989 25.914136543055065,98.36842457647435 25.90007290401263,91.5 18.51666236348683,94.15300461303559 18.36196233308874,94.52735141740413 18.418216889665928,94.20183250671835 22.398226761899423,92.68816087656887 22.468544957519043,96.04100565695262 22.862326853035484,96.88734372450563 25.801627430075314,96.88734372450563 25.815691069234163,101.18406797210628 26.125091129913926,101.3305451751803 26.237600242893677,101.85135192307644 31.38489216263406,102.17685528020957 31.63803766691126,103.46258707126253 31.609910388535354,105.80617288773647 29.837891858944204,117.89787965167488" stroke="#4DD2FF" stroke-linecap="round" stroke-linejoin="round" stroke-width="0.5"><title>2025-07-03 5.2km</title><desc>1751545471000</desc></polyline><polyline fill="none" points="62.02686310466379,118.5 62.66822645161301,114.54589664766536 62.93108028237475,114.36339641709492 63.60398608905962,109.37494904701452 63.65655685518868,107.64719441740453 62.510514153167605,98.4726428541544 61.9532640320831,97.31664813787938 62.06891971756704,97.15845851862105 62.54205661290325,97.24363757034735 62.32125939504476,94.88293854891526 61.80606588686351,94.22582847361628 61.81658004008932,92.72906427567796 61.32241483835969,91.5 61.85863665299257,92.83858424209757 61.80606588686351,94.25016594817134 62.27920278214151,94.71257702404546 62.3528018547222,95.08980578878982 62.54205661290325,97.23146913808887 62.02686310466379,97.19496383392107 61.9532640320831,97.35315340491798 62.521028306451626,98.4726428541544 63.06776427431032,103.68056478968356 63.6775851615821,107.61069229005079 63.49884455668507,110.33615385473968 62.34228770149639,118.08634607310523" stroke="#4DD2FF" stroke-linecap="round" stroke-linejoin="round" stroke-width="0.5"><title>2025-07-01 5.0km</title><desc>1751376396000</desc></polyline><polyline fill="none" points="99.05114498367766,118.5 99.24611519253813,118.25935323357407 99.20712115080096,117.37196490111819 99.51907348487293,117.07115408949903 99.74003972153878,115.8979860827676 100.07798808347434,111.7617426396173 100.5459165846114,110.15233667822031 101.06583714153385,105.9256825432094 100.93585700233234,103.50395086301432 100.20796822267585,99.18685260904022 99.7140436937334,93.9520139771339 98.93416285846615,92.01146639265062 99.62305759621086,92.14685425945208 99.64905362407444,91.5 99.64905362407444,92.11676807749609 99.05114498367766,91.99642328869959 98.94716087233974,92.14685425945208 99.44108540134039,92.88396380489576 99.74003972153878,93.92192816233728 100.2859563062666,99.75846170312434 101.06583714153385,104.94796955458878 101.00084707187489,107.36967760315747 99.36309731780784,117.98862515375367" stroke="#4DD2FF" stroke-linecap="round" stroke-linejoin="round" stroke-width="0.5"><title>2025-06-30 4.1km</title><desc>1751292736000</desc></polyline><polyline fill="none" points="124.30313588847639,106.66440344061994 124.0,104.4734598604191 124.10452961671399,104.24346896374482 132.23693379794713,103.85611486788548 133.53310104529373,103.97716315856815 135.6445993031375,103.77138099104195 138.81184668990318,103.80769551710546 151.0,103.03298321942566 147.36236933799228,103.28718624914472 146.51567944255657,103.56559846693563 144.9477351916139,103.49296925563249 137.01393728225958,103.90453419898404 129.63414634147193,104.03768725762347 129.41463414632017,104.23136416738998 129.92682926828275,106.96701678057434 129.68641114985803,106.94280774176877 129.393728222989,105.51446571711858" stroke="#4DD2FF" stroke-linecap="round" stroke-linejoin="round" stroke-width="0.5"><title>2025-06-26 5.0km</title><desc>1750950176000</desc></polyline><polyline fill="none" points="188.5,106.10503620783857 188.06404736277182,103.89496379215416 176.4483315392863,104.96074029371084 175.20828848227393,104.97195893882599 170.73250807315344,104.41102528154443 161.5,104.80367914179078 170.42249730892945,104.3998065792257 175.2179763186141,104.9831775828352 183.48170075350208,104.23152590745303" stroke="#4DD2FF" stroke-linecap="round" stroke-linejoin="round" stroke-width="0.5"><title>2025-06-24 5.0km</title><desc>1750769966000</desc></polyline><polyline fill="none" points="38.5,136.08125815037783 38.130403458199,133.9187418496149 26.6340057636844,135.01126839474455 25.233429394837003,135.05632080390933 20.7010086455266,134.47063805232028 11.5,134.8761110570922 20.4578530259314,134.47063805232028 25.2237031700206,135.05632080390933 34.959654178644996,134.18905870145682" stroke="#4DD2FF" stroke-linecap="round" stroke-linejoin="round" stroke-width="0.5"><title>2025-06-22 5.0km</title><desc>1750563938000</desc></polyline><polyline fill="none" points="63.42269060903345,148.5 62.02724332752405,140.1631483968813 62.007680982438615,137.8899853021794 62.13157583452994,136.9384079419906 62.05332645427552,134.4914385842203 62.079409581026994,134.06849741340557 62.22286677817465,133.82681565982057 62.079409581026994,133.71352706628386 62.072888799302746,132.16523225016135 60.488338848837884,122.63306504517823 60.09057116578333,121.5 60.494859630503925,122.48954443218827 62.05332645427552,132.00662461162574 62.138096616225084,136.64386961449054 62.02724332752405,137.89753745454072 62.0207225457998,140.08762914865656 63.090130742872134,146.4913878494408 63.24010872171493,146.92936055468454 64.90942883418757,146.8387457246572" stroke="#4DD2FF" stroke-linecap="round" stroke-linejoin="round" stroke-width="0.5"><title>2025-06-21 8.0km</title><desc>1750517001000</desc></polyline><polyline fill="none" points="102.73922796652187,148.5 100.45210558676627,134.43581285400433 96.42747938341927,134.35368332975486 89.1760603650473,133.65558102146315 89.31789741187822,132.91641123416775 89.03422331821639,131.49966155918082 89.4242751969723,122.23921169007372 89.37108630430885,121.58213476624223 89.01649368740618,121.5 88.57325291610323,132.89587870138348 89.24697888852097,132.97800882003503 89.28243815014139,133.67611347688944 100.5052944793133,134.41528047611064 101.87047605484258,143.20294697614736 102.29598719533533,144.3732381197624 111.42674708389677,144.0857988196658" stroke="#4DD2FF" stroke-linecap="round" stroke-linejoin="round" stroke-width="0.5"><title>2025-06-19 5.0km</title><desc>1750345525000</desc></polyline><polyline fill="none" points="151.0,135.6759281525956 150.7521739130898,134.20323694503895 143.10869565219036,134.92825781260763 142.12391304346966,134.95091460038384 138.85000000000582,134.5733005658767 126.7195652173832,135.12461641010304 125.66956521739485,135.29831781263056 124.0,135.79676305496105 126.35434782606899,135.1623776191991 130.6195652174065,134.973571381277" stroke="#4DD2FF" stroke-linecap="round" stroke-linejoin="round" stroke-width="0.5"><title>2025-06-17 5.1km</title><desc>1750166247000</desc></polyline><polyline fill="none" points="162.4310344826663,145.1887884356256 161.5,139.20505966164637 182.5413793104235,138.5851160576858 179.11982758634258,125.08076648047427 183.262931034551,125.32336567013408 188.5,124.81121156437439 180.2370689655654,125.2964102156111 183.28620689664967,137.4530413786124 174.25517241389025,137.88430849451106" stroke="#4DD2FF" stroke-linecap="round" stroke-linejoin="round" stroke-width="0.5"><title>2025-06-16 3.2km</title><desc>1750084948000</desc></polyline><polyline fill="none" points="38.5,166.24813276056375 38.08629032265162,163.75186723943625 24.814919354801532,164.97479149090213 23.617338709707838,164.9873988944746 18.36975806450937,164.34441967524617 11.5,164.6722134202937 18.152016129053663,164.3318122061537 23.606451612955425,164.96218408609275 34.863709677476436,164.0166250615439" stroke="#4DD2FF" stroke-linecap="round" stroke-linejoin="round" stroke-width="0.5"><title>2025-06-15 4.6km</title><desc>1749956754000</desc></polyline><polyline fill="none" points="76.0,166.08587058149715 75.67132116004359,163.91412941849558 64.10955961339641,164.97761628103763 62.901181525259744,165.0000053674812 57.81632653065026,164.42908223781706 49.0,164.83208710800682 57.99033297528513,164.42908223781706 62.82384532765718,165.0000053674812 65.34693877556128,164.876865335631 65.82062298600795,164.72014145906724 71.9495166487759,164.17160612992302" stroke="#4DD2FF" stroke-linecap="round" stroke-linejoin="round" stroke-width="0.5"><title>2025-06-14 5.1km</title><desc>1749906363000</desc></polyline><polyline fill="none" points="113.5,166.6031278822411 113.17538896744372,164.4140393822163 101.98585572838783,165.49753315105045 100.47736916545546,165.5085891541603 95.89462517679203,164.95578761938668 87.26379066478694,165.36486102611525 87.14922206505435,165.1105723330984 87.196958981629,163.40792833494925 86.5,163.39687211776618 87.22560113156214,163.4300407659539 87.14922206505435,165.09951628942508 87.29243281472009,165.36486102611525 96.13330975954887,164.9447315599682 100.68741159827914,165.51964515614236 109.7574257425731,164.70149796747137 109.74787835928146,164.2592536746306 112.65983026870526,164.1044677462196" stroke="#4DD2FF" stroke-linecap="round" stroke-linejoin="round" stroke-width="0.5"><title>2025-06-12 5.9km</title><desc>1749735885000</desc></polyline><polyline fill="none" points="151.0,173.49395450744487 150.13929313933477,169.16043322924816 126.48856548860203,171.26220208083396 124.26195426192135,165.17351563402917 124.0,157.56782958049735 128.41580041579437,157.37280841091706 132.17671517666895,157.61116759384458 132.38253638264723,156.9177583195269 131.9896049896488,156.7660747392365 124.11226611223537,156.50604549255513 124.28066528064664,164.95683318760712 124.93555093556643,167.42699998401804 126.22661122656427,170.50383427276392 136.7047817048151,169.59378933210974 136.91060291056056,170.41716349385388 150.0831600832753,169.13876540087222 150.88773388788104,173.42895234079333" stroke="#4DD2FF" stroke-linecap="round" stroke-linejoin="round" stroke-width="0.5"><title>2025-06-10 5.3km</title><desc>1749559786000</desc></polyline><polyline fill="none" points="162.2089272318408,157.81136312570015 161.56076519133057,155.1843418331846 161.5,153.14368852811458 179.87134283571504,152.6745702677872 180.70180045010056,155.74727749169688 180.09414853714406,155.72382186680625 179.91185296326876,156.14602274999197 180.29669917479623,158.32738164174953 180.19542385591194,159.80506462824997 180.863840960199,162.76040213982924 182.58552138041705,162.69003740198968 185.1376594149042,172.5174374926719 185.1781695424579,172.96306144281698 184.53000750183128,173.15069232168025 185.11740435112733,172.98651531108771 185.31995498866308,173.36177687748568 184.79332333081402,173.45559217360278 184.97561890468933,174.32338184933178 186.19092273060232,177.4192534990143 187.04163540888112,177.3254398182762 188.5,176.52802198873542 186.9606151537737,176.85637084134214 184.22618154541124,165.95024766400456 183.90210052521434,165.01206239295425 183.1729182295967,165.01206239295425 182.62603150785435,162.6196726425842 182.0386346586747,162.85422175684653 180.84358589653857,162.69003740198968 180.1751687922515,159.99270623335906 180.0333833458135,156.5213117737876 178.91935483866837,152.5807465009857 161.56076519133057,153.1906003015465 162.2899474868318,157.95209556295595" stroke="#4DD2FF" stroke-linecap="round" stroke-linejoin="round" stroke-width="0.5"><title>2025-06-08 5.0km</title><desc>1749355299000</desc></polyline><polyline fill="none" points="38.5,196.11104457739566 38.02512562810443,193.88895542260434 29.322325915214606,194.61843407912238 26.705671213159803,194.988782932116 25.251974156475626,194.988782932116 20.648600143555086,194.4276478202446 11.5,194.83166538903606 20.212491026555654,194.4276478202446 25.203517587971874,195.00000560516492 35.69921033742139,194.05729707995488" stroke="#4DD2FF" stroke-linecap="round" stroke-linejoin="round" stroke-width="0.5"><title>2025-06-07 5.3km</title><desc>1749293029000</desc></polyline><polyline fill="none" points="76.0,196.06960941148282 75.60136838321341,193.9303905885099 63.282679150172044,195.05630039593234 58.285199855978135,194.48208782799338 49.0,194.86489653825993 58.24630896648159,194.45956962725177 62.689593086077366,195.05630039593234 72.20813827874372,194.18935086035344" stroke="#4DD2FF" stroke-linecap="round" stroke-linejoin="round" stroke-width="0.5"><title>2025-06-05 5.1km</title><desc>1749128617000</desc></polyline><polyline fill="none" points="86.87795275589451,194.8291006013751 86.5,192.3535048525082 86.64173228346044,192.24408520200814 97.23622047243407,191.87479322293075 99.23228346457472,199.19205598090775 109.69685039372416,199.05528837315796 113.5,198.8227831201075 110.37007874023402,198.93219740698987 109.79133858269779,190.80794401909225 99.77559055120219,191.39607988562784 97.62598425202304,191.32769212657877 97.8149606299121,191.87479322293075 92.26377952756593,192.03892311688105" stroke="#4DD2FF" stroke-linecap="round" stroke-linejoin="round" stroke-width="0.5"><title>2025-06-03 5.2km</title><desc>1748952979000</desc></polyline><polyline fill="none" points="146.32812387138256,186.95102627472806 145.7358336073812,186.07437200300046 145.31598228102666,185.15430930953153 145.04607785696862,184.9025923143563 144.37881414181902,184.84183292830858 143.8689946740924,184.25159663868544 143.63657697557937,183.479075319985 143.29169910034398,182.9495903725183 142.8793451190868,181.5 141.68726724601584,182.0121335466174 141.1324637075886,182.07289494965516 139.6929734457517,182.6110654857912 139.07819114642916,183.4009547968526 139.07819114642916,183.60059599143278 136.58907256869134,186.76875236649357 136.5740778784384,186.95102627472806 135.89181947309407,187.88842879005097 135.29952920912183,188.43524216420337 135.19456637755502,188.3397670659033 134.77471505114227,188.7043077751805 134.49731328192865,188.53939669500687 134.4898159368604,188.695628252608 134.45232921125717,188.46996035530174 134.84219115716405,188.7477053748662 134.78221239626873,189.06016744037333 133.88253098263522,190.05830247803533 132.34557523432886,190.40547714347485 132.34557523432886,190.24924871899566 132.24061240273295,190.44019453226792 131.8207610763493,190.53566727857833 131.4533911657636,190.43151518639206 130.83860886647017,190.48359124838316 130.73364603484515,190.38811844377778 130.4862336461083,190.52698794243042 129.74399647986866,190.26660744694527 129.6465309933701,189.1296032993996 129.36163187905913,188.8778980413117 127.95962834282545,189.2337569819574 127.43481418484589,189.55489670216775 128.0346017939446,192.15000843884627 128.9792672782496,195.0488024101578 130.97356107848464,202.8420772903337 131.25096284769825,203.64913522416464 133.6051292134216,208.4132248777314 133.9050230179564,208.5 134.9396566436917,208.17025406586617 135.64440708435723,208.37851480412792 136.93395044392673,208.10951125479914 136.91145840854733,207.5975344143153 137.25633628378273,207.50208076529088 137.87861592823174,207.7884413920401 138.35094867038424,207.56282400886266 138.54587964335224,207.84918443171773 139.7604495517735,208.11818880186183 140.47269733759458,207.98802550288383 141.19244246848393,207.45001509351277 141.31989733543014,206.4347281429291 141.85970618363353,205.68844114096282 141.7172566264635,204.94214761032345 141.8896955640812,204.57767630389571 141.5223256534955,204.1698137098865 141.28990795501159,203.56235516754532 141.1999398136104,202.65983734526526 141.68726724601584,202.2693218661734 142.42950441225548,202.5730562821991 142.84185839351267,202.5470219460476 142.94682122510858,201.98294271186023 142.77438228749088,201.28868622577284 142.63193273032084,201.22793851438473 142.77438228749088,201.15851250554988 142.60944069499965,201.10644296182727 142.74439290701412,201.18454726548953 142.75938759726705,200.77666844679334 142.56445662429905,200.32539599156007 141.67976990086026,200.26464759409282 141.26741591963219,199.95222658084094 141.43985485722078,198.77195909165312 142.1446052979445,197.5656394122998 142.6844141461188,196.96681251468544 142.93182653485565,196.88002565894567 143.46413803796167,196.14233381917438 144.40130617716932,195.2484163326153 145.23351148478105,194.20694724864734 144.99359644114156,193.7209239898366 144.25135927490192,193.71224497790536 144.15389378840337,193.42583708835446 144.43879290271434,192.74019005086302 144.7686760877259,192.42774147097953 145.07606723741628,192.47113717553293 145.20352210430428,192.3149125357886 144.9411150253727,191.71604876507627 145.29349024567637,190.97831225095433 145.62337343071704,190.78736764272617 145.90077519993065,190.90019859925815 145.86328847432742,190.69189517828636 146.69549378196825,190.3100042514052 146.7704672330874,190.0756612448895 147.49770970913232,189.63301158633112 147.5651858151541,188.9994110173211 146.61302298569353,187.18537786986417 146.46307608339703,187.11594042734941" stroke="#4DD2FF" stroke-linecap="round" stroke-linejoin="round" stroke-width="0.5"><title>2025-06-02 11.5km</title><desc>1748829019000</desc></polyline><polyline fill="none" points="188.5,196.26263021256455 188.00541215651901,193.73736978744273 173.7410491257324,195.06509025622654 167.82847626972944,194.3882148791963 161.5,194.66156882866198 167.90716069936752,194.3621811392004 173.08909242291702,195.0390566542119 187.98293089086656,193.7503867218038 188.48875936720287,196.18453012289683" stroke="#4DD2FF" stroke-linecap="round" stroke-linejoin="round" stroke-width="0.5"><title>2025-06-01 4.9km</title><desc>1748740054000</desc></polyline><polyline fill="none" points="38.5,238.0111600077944 38.402232951135375,238.218719774668 38.206698853347916,238.06776724004885 37.554918527428526,234.44486948511621 16.95866022934206,236.23745796419098 15.052202776132617,230.8973800696549 14.970730235392693,224.17960747845063 14.514484007260762,221.65094452886842 11.5,211.78128022531746 13.487929993949365,218.38627634763543 14.025648762879428,219.40531190379988 14.905552202835679,223.19833939056844 15.78545564279193,223.44365690021368 14.872963186528068,223.4247863341152 15.052202776132617,230.2746754460095 15.671394085686188,232.82209020935989 16.746831623429898,235.48268598319555 17.023838261899073,235.65250994720554 25.85546167771099,234.7467803391337 26.099879299930762,235.46381664427463 33.122812311397865,234.78451916128688" stroke="#4DD2FF" stroke-linecap="round" stroke-linejoin="round" stroke-width="0.5"><title>2025-05-31 5.5km</title><desc>1748696141000</desc></polyline><polyline fill="none" points="74.10649350646418,232.45134619038436 73.49285714281723,228.4922928003798 51.279220779193565,230.48198074942047 49.22792207787279,224.63467791416042 49.0,217.58926211578364 56.53896103880834,217.67047870339593 49.10519480518997,217.54865380961564 49.24545454536565,224.53316072409507 49.788961038924754,226.70561729859037 51.15649350639433,229.83228891035833 70.82792207784951,227.94410997556406 72.58116883109324,227.84259447203658 72.66883116879035,228.59380797277845 76.0,228.32986841695674" stroke="#4DD2FF" stroke-linecap="round" stroke-linejoin="round" stroke-width="0.5"><title>2025-05-29 5.0km</title><desc>1748526381000</desc></polyline><polyline fill="none" points="102.86687797133345,222.34929061686853 102.26782884297427,217.44378960411996 112.40887480182573,216.9482789465983 113.5,220.937111078194 112.32329635485075,217.04738115885993 102.2250396196032,217.51811611559242 102.50316957198083,219.97087824605114 102.1180665610591,217.54289161435736 87.69809825660195,218.88076479898882 89.85895404114854,229.7073565380706 90.69334389851429,232.23431770293973 90.13708399352618,232.58115346009436 91.01426307437941,234.90989501531294 89.83755942934658,231.83793337465613 86.92789223440923,218.93031551635067 91.97702060220763,218.211829127089 101.11251980974339,217.64199358428596 101.00554675119929,216.92350338718097 87.59112519805785,217.8401974028675 86.84231378755067,215.0901049847016 86.5,215.38741377313272 86.67115689371713,218.03840105980635 96.79080824076664,217.04738115885993" stroke="#4DD2FF" stroke-linecap="round" stroke-linejoin="round" stroke-width="0.5"><title>2025-05-27 6.0km</title><desc>1748352132000</desc></polyline><polyline fill="none" points="147.40205011388753,227.0120401615859 147.5096810934192,226.94081911250396 147.1637243735895,225.21369089363725 138.06890660591307,226.08616199400421 137.01566059229663,226.1039674359272 133.22551252850099,225.65883029899123 124.16913439636119,226.059453824324 124.0,223.10369925123814 125.07630979499663,222.9879598384141 126.56007972668158,223.09479622493382 126.5677676537598,225.65883029899123 133.44846241458436,225.382844134896 137.63069476082455,225.7923716782534 147.14834851937485,224.8486748884825 150.83855353077524,224.71513206644886 151.0,225.00892600539373 150.89236902049743,225.04453732479305 147.48661731209722,225.18698245715495" stroke="#4DD2FF" stroke-linecap="round" stroke-linejoin="round" stroke-width="0.5"><title>2025-05-25 7.6km</title><desc>1748179850000</desc></polyline><polyline fill="none" points="188.48230668413453,226.49058949661412 188.41153342067264,225.90665418278513 188.06651376141235,225.90665418278513 187.84534731321037,224.8104857486178 187.66841415461386,224.5646145519131 179.1313892529579,225.29198176666978 177.73361730010947,225.5480957301843 172.12483617296675,225.02562255236262 161.6503931847983,225.49687298970093 161.5,223.7143053600521 164.10091743117664,223.5094105033786 164.08322411531117,225.0051333528172 164.42824377457146,225.04611174775346 171.77981651376467,224.7285287499035 177.10550458711805,225.18953599854285 188.16382699867245,224.12409382039914 188.5,226.37790048967872" stroke="#4DD2FF" stroke-linecap="round" stroke-linejoin="round" stroke-width="0.5"><title>2025-05-24 6.6km</title><desc>1748094255000</desc></polyline><polyline fill="none" points="38.5,256.2030372157751 38.206285253865644,253.79696278423216 27.0886381950113,254.74176199414796 25.543916196620557,255.0063044787239 23.781627719581593,255.03149897148978 18.70145044318633,254.41423241922166 11.5,254.703970164388 18.66881547140656,254.40163511056016 23.716357775963843,255.04409621599916 35.23650282033486,254.07410463433916" stroke="#4DD2FF" stroke-linecap="round" stroke-linejoin="round" stroke-width="0.5"><title>2025-05-18 4.7km</title><desc>1747565909000</desc></polyline><polyline fill="none" points="72.49069567702827,255.96672524152382 72.19696535929688,254.2391534551498 64.36673346691532,254.90154250922205 63.060406527336454,255.13427261247125 62.009161179477815,255.12532146604644 58.43028914972092,254.6598605953768 49.05410821642727,255.08951687128865 49.0,254.8209819451513 54.27941597480094,254.4808365267163 57.85828800458694,254.41817801647267 62.040080160310026,255.08951687128865 72.29745204694336,254.17649477245868 75.75264815342962,254.0332747584689 75.89178356711636,254.05117727299512 75.91497280274052,254.17649477245868 76.0,254.12278729458922" stroke="#4DD2FF" stroke-linecap="round" stroke-linejoin="round" stroke-width="0.5"><title>2025-05-17 5.7km</title><desc>1747487200000</desc></polyline><polyline fill="none" points="112.02453131228685,253.883791242617 108.44894295971608,254.07086714363686 106.70422816107748,254.38265967639018 98.69146390102105,254.99377073609503 93.67271639406681,254.3452446144147 86.5,254.6320931306036 93.57578779413598,254.37018799035286 98.49760670121759,254.98129911229626 112.79996011161711,253.73413031590462 113.27383326686686,256.15362619120424 113.5,256.2658696840954" stroke="#4DD2FF" stroke-linecap="round" stroke-linejoin="round" stroke-width="0.5"><title>2025-05-11 5.0km</title><desc>1746965499000</desc></polyline><polyline fill="none" points="151.0,255.9700661204988 150.56420373020228,254.0299338795012 138.3134863700834,255.14018715215934 133.33572453365196,254.56823989559052 124.0,254.9607530387293 133.10329985647695,254.5794545762401 137.75179340026807,255.14018715215934 150.64167862263275,254.05236334940855" stroke="#4DD2FF" stroke-linecap="round" stroke-linejoin="round" stroke-width="0.5"><title>2025-05-10 5.3km</title><desc>1746870058000</desc></polyline><polyline fill="none" points="188.44104803493246,254.5448839132514 188.37227074237308,254.35145821388141 188.5,254.49937201412104 187.97925764194224,254.5903957937844 175.94323144108057,255.6485417861113 170.84388646291336,255.0455135788361 161.5,255.43236223729036 170.79475982533768,255.0455135788361 173.18231441045646,255.2389380756431 175.3537117904052,255.6371639255376 185.20851528388448,254.7496872296324" stroke="#4DD2FF" stroke-linecap="round" stroke-linejoin="round" stroke-width="0.5"><title>2025-05-05 5.4km</title><desc>1746434825000</desc></polyline></svg>