<?xml version="1.0" encoding="utf-8" ?>
<svg baseProfile="full" height="300mm" version="1.1" viewBox="0,0,200,300" width="200mm" xmlns="http://www.w3.org/2000/svg" xmlns:ev="http://www.w3.org/2001/xml-events" xmlns:xlink="http://www.w3.org/1999/xlink"><defs /><rect fill="#222222" height="300" width="200" x="0" y="0" /><text fill="#FFFFFF" style="font-size:12px; font-family:Arial; font-weight:bold;" x="10" y="20">Over 3km Runs</text><text fill="#FFFFFF" style="font-size:4px; font-family:Arial" x="10" y="280">Runner</text><text fill="#FFFFFF" style="font-size:9px; font-family:Arial" x="10" y="290">tang-hi</text><text fill="#FFFFFF" style="font-size:4px; font-family:Arial" x="65" y="280">SPECIAL TRACKS</text><rect fill="yellow" height="2.6" width="2.6" x="65" y="283" /><text fill="#FFFFFF" style="font-size:3px; font-family:Arial" x="70" y="285.5">Over 20.0 km</text><rect fill="red" height="2.6" width="2.6" x="65" y="287" /><text fill="#FFFFFF" style="font-size:3px; font-family:Arial" x="70" y="289.5">Over 40.0 km</text><text fill="#FFFFFF" style="font-size:4px; font-family:Arial" x="120" y="280">STATISTICS</text><text fill="#FFFFFF" style="font-size:3px; font-family:Arial" x="120" y="285">Number: 45</text><text fill="#FFFFFF" style="font-size:3px; font-family:Arial" x="120" y="290">Weekly: 3.5</text><text fill="#FFFFFF" style="font-size:3px; font-family:Arial" x="141" y="285">Total: 239.8 km</text><text fill="#FFFFFF" style="font-size:3px; font-family:Arial" x="141" y="290">Avg: 5.3 km</text><text fill="#FFFFFF" style="font-size:3px; font-family:Arial" x="167" y="285">Min: 3.2 km</text><text fill="#FFFFFF" style="font-size:3px; font-family:Arial" x="167" y="290">Max: 11.5 km</text><polyline fill="none" points="24.465420829947107,58.5 24.58186381746782,57.52006948937924 24.878264149359893,57.164842712008976 25.958008215471637,49.72933849729452 26.07445120299235,46.985313321463764 25.5239934437559,43.65319875050045 24.94177850621054,38.152558028792555 24.380735020851716,37.07445201911469 24.49717800837243,36.91518554076174 24.962949958455283,36.9764419034982 24.76182116183918,34.538414618655224 24.221949128783308,33.95034035042772 24.285463485633954,32.59040761045617 23.862034440098796,31.5 24.296049211756326,32.61491103890148 24.253706307150424,33.97484350224113 24.76182116183918,34.61192370032222 25.00529286300298,36.951939362159465 24.86767842323752,37.07445201911469 24.444249377644155,36.90293426446442 24.40190647309646,37.08670327797154 25.0370500414283,38.49558973607782 25.407550456235185,42.61189405153709 26.137965559842996,47.86732822734484 25.37579327786807,54.21274520140287 24.814749792509247,57.728305389398884 24.613620995893143,57.81404947900592" stroke="#4DD2FF" stroke-linecap="round" stroke-linejoin="round" stroke-width="0.5"><title>2025-07-29 5.0km</title><desc>1753797916000</desc></polyline><polyline fill="none" points="56.15806076081935,31.5 56.138597554760054,33.56069886108162 55.69094381527975,36.71360656358593 55.34060610609595,37.76080249394727 55.10704763332615,40.64335524561466 54.455030230164994,44.08880823416257 54.53288305440219,44.696818233584054 53.89059725427069,48.96405384569516 53.929523666447494,51.22708576808509 54.72751511505339,58.5 53.97818168159574,52.184075421137095 53.84193923918065,49.7859563529928 54.46476183325285,44.26895969273028 55.3308745030663,38.762948474533914 55.24329007579945,38.481447709709755 55.66174900624901,36.7699076717181 56.138597554760054,32.9638883785301" stroke="#4DD2FF" stroke-linecap="round" stroke-linejoin="round" stroke-width="0.5"><title>2025-07-27 5.0km</title><desc>1753616848000</desc></polyline><polyline fill="none" points="85.77117321960395,31.5 85.79991259425879,33.872188869761885 85.2730240590754,37.61881201835058 85.06226864503697,38.01785305649537 84.76529510703404,41.276633578323526 84.22882678033784,44.24713783559855 84.26714594650548,44.81241120443883 83.5678211635095,49.42315914606297 84.43958219437627,58.5 85.01436968729831,58.411340979946544 84.60243865073426,53.96721533680102 84.13302886480233,50.85289478359482 84.11386928177672,49.19040971154027 85.43588051537517,39.86894100766949 85.87655092665227,38.00676860292879 85.78075301117497,37.57447403511469 86.43217883643229,33.62832136474026" stroke="#4DD2FF" stroke-linecap="round" stroke-linejoin="round" stroke-width="0.5"><title>2025-07-26 5.2km</title><desc>1753529066000</desc></polyline><polyline fill="none" points="115.93190294969827,31.5 115.81541508092778,32.084096391256026 115.97073223924963,32.8366775761242 115.78629311377881,34.61140097930911 115.37858557328582,37.374521214813285 115.16502448066603,37.76764246611856 115.13590251345886,38.94699783339456 114.27195082057733,44.12478064413881 114.33990207727766,44.618959821455064 113.6992187994183,49.32478271090076 113.78658470092341,51.8292321066765 114.55346316995565,58.5 115.10678054630989,58.443850433926855 114.66995103866793,54.36731578929175 114.76702426257543,54.15393931491417 114.21370688622119,50.98693482742965 114.2039995638188,49.48201438624528 116.3007812005817,34.80235053392971" stroke="#4DD2FF" stroke-linecap="round" stroke-linejoin="round" stroke-width="0.5"><title>2025-07-24 5.0km</title><desc>1753356656000</desc></polyline><polyline fill="none" points="144.52643632655963,58.45129099960468 144.66324361000443,58.5 145.12628364627017,54.65192796802148 145.43146912468364,54.45708559099148 145.35780366440304,54.07957758392149 146.1470764533733,49.19622164525208 146.19969463936286,47.722651211646735 145.41042185027618,42.52238591458445 145.08418909751344,38.67380066993792 144.45277086633723,37.34625365888496 144.5474836009671,37.15138313440548 145.06314182310598,37.24881843626645 144.7895272562164,34.800732454554236 144.3370108571835,34.31354519485467 144.3791054059402,32.998129694664385 143.80030536063714,31.5 144.32648722000886,32.705813177068194 144.31596358283423,34.264826359903964 144.80005089344922,34.77637313862215 145.07366546033882,37.17574196730129 144.93685817689402,37.3097154596835 144.56853087531636,37.163562551482755 144.45277086633723,37.3097154596835 144.82109816779848,37.83342858294782 145.08418909751344,38.71033845302736 145.5577527708956,43.557585526563344 146.16812372772256,47.515619202837115 146.15760009060614,49.13533066398668 145.01052363717463,57.111785730208794" stroke="#4DD2FF" stroke-linecap="round" stroke-linejoin="round" stroke-width="0.5"><title>2025-07-22 5.0km</title><desc>1753184035000</desc></polyline><polyline fill="none" points="161.5,49.45307932648575 161.5,45.12050218868535 164.37057010806166,32.9890753996151 187.58474576286972,37.22548196098069 188.5,38.236437018436845 185.37981510045938,56.962785840121796 164.53697996935807,53.68933866149746 163.78813559329137,52.72655577518162 166.36748844385147,34.00003949800157 167.28274268098176,33.42234599171206 172.81587057025172,34.33702705139876 188.4583975346759,37.8031708295166 185.7126348230522,56.57767558126943 184.8389830510132,57.0109246003849 164.1209553158842,53.496782240777975 164.37057010806166,47.33493545404053 166.4090909094084,34.09632168064127 167.07473035459407,33.518628291698406 177.30893682618625,35.25170634506503 166.86671802797355,33.61491057212697 165.7018489986658,38.91040585830342 166.74191063200124,39.92135732001043" stroke="#4DD2FF" stroke-linecap="round" stroke-linejoin="round" stroke-width="0.5"><title>2025-07-20 4.9km</title><desc>1753020627000</desc></polyline><polyline fill="none" points="26.55188065842958,61.5 26.34819632198196,62.88045930568478 25.591654501040466,64.8220517331938 24.951503729447722,67.73998772888444 24.77691715536639,70.04061369205738 24.175563400262035,73.88984658173285 24.039773842610884,74.01328914901387 24.107668621465564,74.56316800029163 23.47721710393671,79.10798025870463 23.448119341628626,80.61165476574388 24.31135295785498,88.48877942513354 24.214360416750424,86.94032916756987 24.321052211977076,88.5 24.873909696529154,88.38779420001083 23.94278130150633,79.60172638286167 25.42676718108123,68.76124711869488 25.737143312755506,67.7848784498783 25.775940329185687,66.47181732363242" stroke="#4DD2FF" stroke-linecap="round" stroke-linejoin="round" stroke-width="0.5"><title>2025-07-20 5.0km</title><desc>1752942252000</desc></polyline><polyline fill="none" points="56.16421898122644,61.51208190763282 55.99715616781032,61.5 55.73612052178942,62.82900247924408 56.02848044532584,63.0102289391798 56.007597593648825,63.396844464034075 55.64214768924285,65.86148888752359 55.44376059825299,66.28433941477124 54.93213073210791,71.10472916430444 54.504032272612676,73.073904859717 54.545797976024915,73.65377860541776 53.804456741316244,79.19867854221957 54.80683362198761,88.5 53.877546722244006,80.74492263379216 53.85666387056699,78.4013885792956 54.545797976024915,73.72626262486301 54.514473698451184,73.08598559156962 55.27669778483687,68.49521911881311 55.433319172414485,66.27225799200824 55.64214768924285,65.83732595485344 56.195543258741964,61.886620435027" stroke="#4DD2FF" stroke-linecap="round" stroke-linejoin="round" stroke-width="0.5"><title>2025-07-17 5.0km</title><desc>1752765839000</desc></polyline><polyline fill="none" points="96.58445945964195,87.93025537068024 97.19256756769028,87.08586103635025 98.5,76.07336303085322 78.94932432437781,75.19375543203205 75.42229729739483,75.47523010685109 75.84797297301702,75.19375543203205 75.20945945952553,71.21790120535297 71.59121621632949,65.51792434151866 71.5,62.316044319275534 71.9256756757386,62.06974462931976 88.92229729739483,62.35122997488361 87.70608108118176,73.43453352997312 86.94594594603404,73.92711656363099 76.33445945952553,73.57527161113103 75.17905405408237,69.88087802033988 72.19932432437781,66.08088919633883 71.83445945952553,64.07532272240496 76.06081081076991,63.758653269702336 88.375,64.18087914233911 88.55743243254256,66.81977917888435 87.46283783798572,75.40486145962495 85.82094594603404,75.51041442507994" stroke="#4DD2FF" stroke-linecap="round" stroke-linejoin="round" stroke-width="0.5"><title>2025-07-15 4.1km</title><desc>1752589649000</desc></polyline><polyline fill="none" points="116.08505030663218,61.5 116.16732900287025,63.416027070335986 115.52966910699615,67.41459130247677 115.30340269237058,67.87870152412506 115.29311785532627,69.05681921314681 114.38805219670758,74.57834422936139 114.42919154488482,75.19711961026769 113.74010746384738,80.3256897681058 114.56289442622801,88.5 114.08979192283005,85.26366005757882 113.72982262680307,80.06391204116517 115.27254818129586,68.97351835169684 115.17998464801349,68.59271365915629 115.48852975887712,67.49789327252802 116.0953351436765,63.535033929023484 116.02334128442453,63.11850939458964 116.27017737319693,61.85702605386905 116.04391095857136,61.57140529784374" stroke="#4DD2FF" stroke-linecap="round" stroke-linejoin="round" stroke-width="0.5"><title>2025-07-13 5.0km</title><desc>1752418082000</desc></polyline><polyline fill="none" points="144.76551824639319,88.5 144.62696084659547,88.48766697220708 144.71222693880554,87.51335381839453 145.18119044601917,84.55336714761506 145.45830524573103,84.30669833299908 145.93792701442726,80.95195267667441 146.1937252910575,77.48610700756399 145.49028003029525,72.6633598826229 145.12789913837332,68.62986661158357 144.91473390778992,67.84042104388209 144.46708692365792,67.12498156059883 144.5630112774088,66.93995342133712 145.07460783066927,67.01396471092448 144.85078433866147,64.67025194838789 144.3391877852846,64.02880687867582 144.37116256990703,62.56087174406275 144.0087816780433,61.5493430775241 143.7849581859191,61.5493430775241 143.97680689336266,61.5 144.3391877852846,62.400508005943266 144.328529523802,64.04114239279443 144.7974930309574,64.47288459591073 144.85078433866147,64.71959373632853 145.07460783066927,66.9769590717624 144.552353015868,66.95228863939701 144.43511213903548,67.08797595536453 144.90407564630732,67.76641025853314 145.1172408768325,68.51885113905155 145.5542295994237,73.31709386999137 146.2150418140809,77.39976795137045 146.2043835525983,78.97852955578855 144.90407564630732,87.85868089432188" stroke="#4DD2FF" stroke-linecap="round" stroke-linejoin="round" stroke-width="0.5"><title>2025-07-12 5.1km</title><desc>1752325602000</desc></polyline><polyline fill="none" points="174.83732376794796,88.5 174.57494274852797,88.48785562253761 175.16267623199383,84.44370929338038 175.40406676987186,84.32226134106168 176.07576217950555,79.81645507521898 176.18071458727354,77.54526999294467 175.56149538146565,73.47646149610227 175.08920954656787,68.5329763629561 174.4594951000181,67.2575968792953 174.54345702618593,67.12398490729538 175.06821906502591,67.20901072494598 174.82682852714788,64.74323744091816 174.3545426922501,64.22092425169103 174.33355221070815,62.581088932020066 173.80879017192638,61.5 174.36503793299198,62.714705985701585 174.3545426922501,64.20877740618016 174.83732376794796,64.75538423210673 175.09970478736795,67.17257109619823 174.59593323006993,67.11183835697011 174.48048558161827,67.30618301384675 175.11020002810983,68.63014757489873 175.57199062226573,73.45216968598834 176.19120982801542,77.46025153128721 176.08625742030563,79.75572876309889 175.0787143057678,86.45972727240587" stroke="#4DD2FF" stroke-linecap="round" stroke-linejoin="round" stroke-width="0.5"><title>2025-07-10 5.0km</title><desc>1752149320000</desc></polyline><polyline fill="none" points="21.213548945612274,91.5 21.27678821166046,93.1830451440037 21.735272890422493,92.94522450209479 22.715481514227577,93.27451453798858 23.774739220389165,93.1830451440037 24.960475458705332,93.62209781139973 31.078874448372517,94.42702492090757 31.252782429975923,94.66484360549657 29.845708760549314,103.64684241666691 29.165886650560424,103.70172086940147 29.039408118464053,103.93952730449382 28.80226087081246,105.53099305590149 28.976168852415867,106.22611161459645 27.90110132971313,112.28084664086055 20.027812707354315,112.04305122040387 19.759045826620422,111.86013145260222 18.74721756996587,118.5 19.806475276127458,111.96988333557965 22.873579679231625,112.02475925194449 23.90121775242733,111.62233547664073 24.04350610106485,112.04305122040387 27.948530779220164,112.1710949473927 30.66781921905931,95.14048003232165 30.58877013658639,94.51849368296098 22.446714633435477,93.0915757034818" stroke="#4DD2FF" stroke-linecap="round" stroke-linejoin="round" stroke-width="0.5"><title>2025-07-08 5.1km</title><desc>1751976330000</desc></polyline><polyline fill="none" points="41.740484281792305,118.25415402713406 41.68254029483069,118.5 42.04951887985226,118.34355259449512 42.165406854008324,117.09196934434294 42.84142003708985,116.53322452242719 42.97662267368287,115.95212840189924 44.92740357317962,102.43003512376163 45.10123553453013,98.33971749727789 44.637683637673035,95.3222212989931 45.69999006809667,95.27751734030608 45.97039534128271,95.67985264111485 49.69812517904211,96.2162985636096 52.69189784664195,96.17159478676331 54.87445469456725,97.04331679685856 61.82773314823862,98.07149728978402 63.10250086477026,91.5 68.31745970516931,92.66231994012196 63.662626073579304,91.56705708669324 62.79346626682673,95.43398115586024 62.658263630233705,98.11620068043703 49.64018119184766,96.3727617112163 45.97039534128271,95.7022045807098 45.642046081018634,95.21046138522797 44.579739650595,95.38927721993241 45.004662222694606,97.17742756856023 45.081920872209594,101.04425297446141 42.89936402416788,116.01917803267133" stroke="#4DD2FF" stroke-linecap="round" stroke-linejoin="round" stroke-width="0.5"><title>2025-07-06 5.0km</title><desc>1751807521000</desc></polyline><polyline fill="none" points="75.6096013794886,116.82643208399531 76.77941321220715,108.50764349047677 72.99347673542798,108.23690888327837 71.80239559675101,108.65531678503612 73.35505493823439,108.50764349047677 73.14236187783536,108.26152113279386 77.05591419071425,108.48303126599058 77.33241516945418,108.23690888327837 77.20479933312163,107.47392790745653 78.79999728663824,97.4072764031589 78.6511121444637,92.38610064782551 81.39485262474045,92.11534801613016 98.19760440313257,94.8720879327011 98.17633509717416,94.0598374686524 79.69330814073328,91.5 79.99107842554804,97.57956980200834 78.055571575067,111.26419680798426 78.58730422623921,112.1010014286876 78.09811018710025,113.0116384660796 78.20445671735797,114.9805717071722 77.4600310055539,115.15285260422388 77.11972210893873,118.5 75.39690831897315,118.30311025716946 75.50325484923087,116.85104346064327" stroke="#4DD2FF" stroke-linecap="round" stroke-linejoin="round" stroke-width="0.5"><title>2025-07-05 4.8km</title><desc>1751729502000</desc></polyline><polyline fill="none" points="119.34566448954865,118.5 119.6128736329265,118.3047179729183 119.65506455022842,117.19811532145832 120.02071916748537,115.58701837950503 120.21761011524359,115.52192321291659 120.47075561952079,113.16220555844484 114.97187272174051,112.93436890971498 115.32346369989682,111.7138099144795 115.84381834743544,106.21304193063406 115.90007290401263,102.19313043069269 115.70318195625441,101.65604959113989 115.91413654305506,98.36842457647435 115.90007290401263,91.5 108.51666236348683,94.15300461303559 108.36196233308874,94.52735141740413 108.41821688966593,94.20183250671835 112.39822676189942,92.68816087656887 112.46854495751904,96.04100565695262 112.86232685303548,96.88734372450563 115.80162743007531,96.88734372450563 115.81569106923416,101.18406797210628 116.12509112991393,101.3305451751803 116.23760024289368,101.85135192307644 121.38489216263406,102.17685528020957 121.63803766691126,103.46258707126253 121.60991038853535,105.80617288773647 119.8378918589442,117.89787965167488" stroke="#4DD2FF" stroke-linecap="round" stroke-linejoin="round" stroke-width="0.5"><title>2025-07-03 5.2km</title><desc>1751545471000</desc></polyline><polyline fill="none" points="144.5268631046638,118.5 145.168226451613,114.54589664766536 145.43108028237475,114.36339641709492 146.10398608905962,109.37494904701452 146.15655685518868,107.64719441740453 145.0105141531676,98.4726428541544 144.4532640320831,97.31664813787938 144.56891971756704,97.15845851862105 145.04205661290325,97.24363757034735 144.82125939504476,94.88293854891526 144.3060658868635,94.22582847361628 144.31658004008932,92.72906427567796 143.8224148383597,91.5 144.35863665299257,92.83858424209757 144.3060658868635,94.25016594817134 144.7792027821415,94.71257702404546 144.8528018547222,95.08980578878982 145.04205661290325,97.23146913808887 144.5268631046638,97.19496383392107 144.4532640320831,97.35315340491798 145.02102830645163,98.4726428541544 145.56776427431032,103.68056478968356 146.1775851615821,107.61069229005079 145.99884455668507,110.33615385473968 144.8422877014964,118.08634607310523" stroke="#4DD2FF" stroke-linecap="round" stroke-linejoin="round" stroke-width="0.5"><title>2025-07-01 5.0km</title><desc>1751376396000</desc></polyline><polyline fill="none" points="174.05114498367766,118.5 174.24611519253813,118.25935323357407 174.20712115080096,117.37196490111819 174.51907348487293,117.07115408949903 174.74003972153878,115.8979860827676 175.07798808347434,111.7617426396173 175.5459165846114,110.15233667822031 176.06583714153385,105.9256825432094 175.93585700233234,103.50395086301432 175.20796822267585,99.18685260904022 174.7140436937334,93.9520139771339 173.93416285846615,92.01146639265062 174.62305759621086,92.14685425945208 174.64905362407444,91.5 174.64905362407444,92.11676807749609 174.05114498367766,91.99642328869959 173.94716087233974,92.14685425945208 174.4410854013404,92.88396380489576 174.74003972153878,93.92192816233728 175.2859563062666,99.75846170312434 176.06583714153385,104.94796955458878 176.0008470718749,107.36967760315747 174.36309731780784,117.98862515375367" stroke="#4DD2FF" stroke-linecap="round" stroke-linejoin="round" stroke-width="0.5"><title>2025-06-30 4.1km</title><desc>1751292736000</desc></polyline><polyline fill="none" points="11.80313588847639,136.66440344061994 11.5,134.4734598604191 11.60452961671399,134.24346896374482 19.73693379794713,133.85611486788548 21.033101045293733,133.97716315856815 23.14459930313751,133.77138099104195 26.311846689903177,133.80769551710546 38.5,133.03298321942566 34.86236933799228,133.28718624914472 34.015679442556575,133.56559846693563 32.4477351916139,133.4929692556325 24.513937282259576,133.90453419898404 17.134146341471933,134.03768725762347 16.914634146320168,134.23136416738998 17.426829268282745,136.96701678057434 17.18641114985803,136.94280774176877 16.89372822298901,135.51446571711858" stroke="#4DD2FF" stroke-linecap="round" stroke-linejoin="round" stroke-width="0.5"><title>2025-06-26 5.0km</title><desc>1750950176000</desc></polyline><polyline fill="none" points="68.5,136.10503620783857 68.06404736277182,133.89496379215416 56.4483315392863,134.96074029371084 55.20828848227393,134.971958938826 50.73250807315344,134.41102528154443 41.5,134.80367914179078 50.42249730892945,134.3998065792257 55.21797631861409,134.9831775828352 63.48170075350208,134.23152590745303" stroke="#4DD2FF" stroke-linecap="round" stroke-linejoin="round" stroke-width="0.5"><title>2025-06-24 5.0km</title><desc>1750769966000</desc></polyline><polyline fill="none" points="98.5,136.08125815037783 98.130403458199,133.9187418496149 86.6340057636844,135.01126839474455 85.233429394837,135.05632080390933 80.7010086455266,134.47063805232028 71.5,134.8761110570922 80.4578530259314,134.47063805232028 85.2237031700206,135.05632080390933 94.959654178645,134.18905870145682" stroke="#4DD2FF" stroke-linecap="round" stroke-linejoin="round" stroke-width="0.5"><title>2025-06-22 5.0km</title><desc>1750563938000</desc></polyline><polyline fill="none" points="115.92269060903345,148.5 114.52724332752405,140.1631483968813 114.50768098243861,137.8899853021794 114.63157583452994,136.9384079419906 114.55332645427552,134.4914385842203 114.579409581027,134.06849741340557 114.72286677817465,133.82681565982057 114.579409581027,133.71352706628386 114.57288879930275,132.16523225016135 112.98833884883788,122.63306504517823 112.59057116578333,121.5 112.99485963050392,122.48954443218827 114.55332645427552,132.00662461162574 114.63809661622508,136.64386961449054 114.52724332752405,137.89753745454072 114.5207225457998,140.08762914865656 115.59013074287213,146.4913878494408 115.74010872171493,146.92936055468454 117.40942883418757,146.8387457246572" stroke="#4DD2FF" stroke-linecap="round" stroke-linejoin="round" stroke-width="0.5"><title>2025-06-21 8.0km</title><desc>1750517001000</desc></polyline><polyline fill="none" points="147.73922796652187,148.5 145.45210558676627,134.43581285400433 141.42747938341927,134.35368332975486 134.1760603650473,133.65558102146315 134.31789741187822,132.91641123416775 134.0342233182164,131.49966155918082 134.4242751969723,122.23921169007372 134.37108630430885,121.58213476624223 134.01649368740618,121.5 133.57325291610323,132.89587870138348 134.24697888852097,132.97800882003503 134.2824381501414,133.67611347688944 145.5052944793133,134.41528047611064 146.87047605484258,143.20294697614736 147.29598719533533,144.3732381197624 156.42674708389677,144.0857988196658" stroke="#4DD2FF" stroke-linecap="round" stroke-linejoin="round" stroke-width="0.5"><title>2025-06-19 5.0km</title><desc>1750345525000</desc></polyline><polyline fill="none" points="188.5,135.6759281525956 188.2521739130898,134.20323694503895 180.60869565219036,134.92825781260763 179.62391304346966,134.95091460038384 176.35000000000582,134.5733005658767 164.2195652173832,135.12461641010304 163.16956521739485,135.29831781263056 161.5,135.79676305496105 163.854347826069,135.1623776191991 168.1195652174065,134.973571381277" stroke="#4DD2FF" stroke-linecap="round" stroke-linejoin="round" stroke-width="0.5"><title>2025-06-17 5.1km</title><desc>1750166247000</desc></polyline><polyline fill="none" points="12.431034482666291,175.1887884356256 11.5,169.20505966164637 32.54137931042351,168.5851160576858 29.11982758634258,155.08076648047427 33.262931034551,155.32336567013408 38.5,154.8112115643744 30.237068965565413,155.2964102156111 33.286206896649674,167.4530413786124 24.25517241389025,167.88430849451106" stroke="#4DD2FF" stroke-linecap="round" stroke-linejoin="round" stroke-width="0.5"><title>2025-06-16 3.2km</title><desc>1750084948000</desc></polyline><polyline fill="none" points="68.5,166.24813276056375 68.08629032265162,163.75186723943625 54.81491935480153,164.97479149090213 53.61733870970784,164.9873988944746 48.36975806450937,164.34441967524617 41.5,164.6722134202937 48.15201612905366,164.3318122061537 53.606451612955425,164.96218408609275 64.86370967747644,164.0166250615439" stroke="#4DD2FF" stroke-linecap="round" stroke-linejoin="round" stroke-width="0.5"><title>2025-06-15 4.6km</title><desc>1749956754000</desc></polyline><polyline fill="none" points="98.5,166.08587058149715 98.17132116004359,163.91412941849558 86.60955961339641,164.97761628103763 85.40118152525974,165.0000053674812 80.31632653065026,164.42908223781706 71.5,164.83208710800682 80.49033297528513,164.42908223781706 85.32384532765718,165.0000053674812 87.84693877556128,164.876865335631 88.32062298600795,164.72014145906724 94.4495166487759,164.17160612992302" stroke="#4DD2FF" stroke-linecap="round" stroke-linejoin="round" stroke-width="0.5"><title>2025-06-14 5.1km</title><desc>1749906363000</desc></polyline><polyline fill="none" points="128.5,166.6031278822411 128.17538896744372,164.4140393822163 116.98585572838783,165.49753315105045 115.47736916545546,165.5085891541603 110.89462517679203,164.95578761938668 102.26379066478694,165.36486102611525 102.14922206505435,165.1105723330984 102.196958981629,163.40792833494925 101.5,163.39687211776618 102.22560113156214,163.4300407659539 102.14922206505435,165.09951628942508 102.29243281472009,165.36486102611525 111.13330975954887,164.9447315599682 115.68741159827914,165.51964515614236 124.7574257425731,164.70149796747137 124.74787835928146,164.2592536746306 127.65983026870526,164.1044677462196" stroke="#4DD2FF" stroke-linecap="round" stroke-linejoin="round" stroke-width="0.5"><title>2025-06-12 5.9km</title><desc>1749735885000</desc></polyline><polyline fill="none" points="158.5,173.49395450744487 157.63929313933477,169.16043322924816 133.98856548860203,171.26220208083396 131.76195426192135,165.17351563402917 131.5,157.56782958049735 135.91580041579437,157.37280841091706 139.67671517666895,157.61116759384458 139.88253638264723,156.9177583195269 139.4896049896488,156.7660747392365 131.61226611223537,156.50604549255513 131.78066528064664,164.95683318760712 132.43555093556643,167.42699998401804 133.72661122656427,170.50383427276392 144.2047817048151,169.59378933210974 144.41060291056056,170.41716349385388 157.5831600832753,169.13876540087222 158.38773388788104,173.42895234079333" stroke="#4DD2FF" stroke-linecap="round" stroke-linejoin="round" stroke-width="0.5"><title>2025-06-10 5.3km</title><desc>1749559786000</desc></polyline><polyline fill="none" points="162.2089272318408,157.81136312570015 161.56076519133057,155.1843418331846 161.5,153.14368852811458 179.87134283571504,152.6745702677872 180.70180045010056,155.74727749169688 180.09414853714406,155.72382186680625 179.91185296326876,156.14602274999197 180.29669917479623,158.32738164174953 180.19542385591194,159.80506462824997 180.863840960199,162.76040213982924 182.58552138041705,162.69003740198968 185.1376594149042,172.5174374926719 185.1781695424579,172.96306144281698 184.53000750183128,173.15069232168025 185.11740435112733,172.98651531108771 185.31995498866308,173.36177687748568 184.79332333081402,173.45559217360278 184.97561890468933,174.32338184933178 186.19092273060232,177.4192534990143 187.04163540888112,177.3254398182762 188.5,176.52802198873542 186.9606151537737,176.85637084134214 184.22618154541124,165.95024766400456 183.90210052521434,165.01206239295425 183.1729182295967,165.01206239295425 182.62603150785435,162.6196726425842 182.0386346586747,162.85422175684653 180.84358589653857,162.69003740198968 180.1751687922515,159.99270623335906 180.0333833458135,156.5213117737876 178.91935483866837,152.5807465009857 161.56076519133057,153.1906003015465 162.2899474868318,157.95209556295595" stroke="#4DD2FF" stroke-linecap="round" stroke-linejoin="round" stroke-width="0.5"><title>2025-06-08 5.0km</title><desc>1749355299000</desc></polyline><polyline fill="none" points="38.5,196.11104457739566 38.02512562810443,193.88895542260434 29.322325915214606,194.61843407912238 26.705671213159803,194.988782932116 25.251974156475626,194.988782932116 20.648600143555086,194.4276478202446 11.5,194.83166538903606 20.212491026555654,194.4276478202446 25.203517587971874,195.00000560516492 35.69921033742139,194.05729707995488" stroke="#4DD2FF" stroke-linecap="round" stroke-linejoin="round" stroke-width="0.5"><title>2025-06-07 5.3km</title><desc>1749293029000</desc></polyline><polyline fill="none" points="68.5,196.06960941148282 68.10136838321341,193.9303905885099 55.782679150172044,195.05630039593234 50.785199855978135,194.48208782799338 41.5,194.86489653825993 50.74630896648159,194.45956962725177 55.189593086077366,195.05630039593234 64.70813827874372,194.18935086035344" stroke="#4DD2FF" stroke-linecap="round" stroke-linejoin="round" stroke-width="0.5"><title>2025-06-05 5.1km</title><desc>1749128617000</desc></polyline><polyline fill="none" points="71.87795275589451,194.8291006013751 71.5,192.3535048525082 71.64173228346044,192.24408520200814 82.23622047243407,191.87479322293075 84.23228346457472,199.19205598090775 94.69685039372416,199.05528837315796 98.5,198.8227831201075 95.37007874023402,198.93219740698987 94.79133858269779,190.80794401909225 84.77559055120219,191.39607988562784 82.62598425202304,191.32769212657877 82.8149606299121,191.87479322293075 77.26377952756593,192.03892311688105" stroke="#4DD2FF" stroke-linecap="round" stroke-linejoin="round" stroke-width="0.5"><title>2025-06-03 5.2km</title><desc>1748952979000</desc></polyline><polyline fill="none" points="123.82812387138256,186.95102627472806 123.23583360738121,186.07437200300046 122.81598228102666,185.15430930953153 122.54607785696862,184.9025923143563 121.87881414181902,184.84183292830858 121.36899467409239,184.25159663868544 121.13657697557937,183.479075319985 120.79169910034398,182.9495903725183 120.37934511908679,181.5 119.18726724601584,182.0121335466174 118.63246370758861,182.07289494965516 117.1929734457517,182.6110654857912 116.57819114642916,183.4009547968526 116.57819114642916,183.60059599143278 114.08907256869134,186.76875236649357 114.0740778784384,186.95102627472806 113.39181947309407,187.88842879005097 112.79952920912183,188.43524216420337 112.69456637755502,188.3397670659033 112.27471505114227,188.7043077751805 111.99731328192865,188.53939669500687 111.9898159368604,188.695628252608 111.95232921125717,188.46996035530174 112.34219115716405,188.7477053748662 112.28221239626873,189.06016744037333 111.38253098263522,190.05830247803533 109.84557523432886,190.40547714347485 109.84557523432886,190.24924871899566 109.74061240273295,190.44019453226792 109.3207610763493,190.53566727857833 108.9533911657636,190.43151518639206 108.33860886647017,190.48359124838316 108.23364603484515,190.38811844377778 107.9862336461083,190.52698794243042 107.24399647986866,190.26660744694527 107.1465309933701,189.1296032993996 106.86163187905913,188.8778980413117 105.45962834282545,189.2337569819574 104.93481418484589,189.55489670216775 105.5346017939446,192.15000843884627 106.47926727824961,195.0488024101578 108.47356107848464,202.8420772903337 108.75096284769825,203.64913522416464 111.1051292134216,208.4132248777314 111.40502301795641,208.5 112.4396566436917,208.17025406586617 113.14440708435723,208.37851480412792 114.43395044392673,208.10951125479914 114.41145840854733,207.5975344143153 114.75633628378273,207.50208076529088 115.37861592823174,207.7884413920401 115.85094867038424,207.56282400886266 116.04587964335224,207.84918443171773 117.26044955177349,208.11818880186183 117.97269733759458,207.98802550288383 118.69244246848393,207.45001509351277 118.81989733543014,206.4347281429291 119.35970618363353,205.68844114096282 119.2172566264635,204.94214761032345 119.3896955640812,204.57767630389571 119.0223256534955,204.1698137098865 118.78990795501159,203.56235516754532 118.6999398136104,202.65983734526526 119.18726724601584,202.2693218661734 119.92950441225548,202.5730562821991 120.34185839351267,202.5470219460476 120.44682122510858,201.98294271186023 120.27438228749088,201.28868622577284 120.13193273032084,201.22793851438473 120.27438228749088,201.15851250554988 120.10944069499965,201.10644296182727 120.24439290701412,201.18454726548953 120.25938759726705,200.77666844679334 120.06445662429905,200.32539599156007 119.17976990086026,200.26464759409282 118.76741591963219,199.95222658084094 118.93985485722078,198.77195909165312 119.64460529794451,197.5656394122998 120.1844141461188,196.96681251468544 120.43182653485565,196.88002565894567 120.96413803796167,196.14233381917438 121.90130617716932,195.2484163326153 122.73351148478105,194.20694724864734 122.49359644114156,193.7209239898366 121.75135927490192,193.71224497790536 121.65389378840337,193.42583708835446 121.93879290271434,192.74019005086302 122.26867608772591,192.42774147097953 122.57606723741628,192.47113717553293 122.70352210430428,192.3149125357886 122.44111502537271,191.71604876507627 122.79349024567637,190.97831225095433 123.12337343071704,190.78736764272617 123.40077519993065,190.90019859925815 123.36328847432742,190.69189517828636 124.19549378196825,190.3100042514052 124.2704672330874,190.0756612448895 124.99770970913232,189.63301158633112 125.06518581515411,188.9994110173211 124.11302298569353,187.18537786986417 123.96307608339703,187.11594042734941" stroke="#4DD2FF" stroke-linecap="round" stroke-linejoin="round" stroke-width="0.5"><title>2025-06-02 11.5km</title><desc>1748829019000</desc></polyline><polyline fill="none" points="158.5,196.26263021256455 158.00541215651901,193.73736978744273 143.7410491257324,195.06509025622654 137.82847626972944,194.3882148791963 131.5,194.66156882866198 137.90716069936752,194.3621811392004 143.08909242291702,195.0390566542119 157.98293089086656,193.7503867218038 158.48875936720287,196.18453012289683" stroke="#4DD2FF" stroke-linecap="round" stroke-linejoin="round" stroke-width="0.5"><title>2025-06-01 4.9km</title><desc>1748740054000</desc></polyline><polyline fill="none" points="188.5,208.0111600077944 188.40223295113537,208.218719774668 188.20669885334792,208.06776724004885 187.55491852742853,204.44486948511621 166.95866022934206,206.23745796419098 165.05220277613262,200.8973800696549 164.9707302353927,194.17960747845063 164.51448400726076,191.65094452886842 161.5,181.78128022531746 163.48792999394936,188.38627634763543 164.02564876287943,189.40531190379988 164.90555220283568,193.19833939056844 165.78545564279193,193.44365690021368 164.87296318652807,193.4247863341152 165.05220277613262,200.2746754460095 165.6713940856862,202.82209020935989 166.7468316234299,205.48268598319555 167.02383826189907,205.65250994720554 175.855461677711,204.7467803391337 176.09987929993076,205.46381664427463 183.12281231139787,204.78451916128688" stroke="#4DD2FF" stroke-linecap="round" stroke-linejoin="round" stroke-width="0.5"><title>2025-05-31 5.5km</title><desc>1748696141000</desc></polyline><polyline fill="none" points="36.606493506464176,232.45134619038436 35.99285714281723,228.4922928003798 13.779220779193565,230.48198074942047 11.72792207787279,224.63467791416042 11.5,217.58926211578364 19.03896103880834,217.67047870339593 11.605194805189967,217.54865380961564 11.745454545365646,224.53316072409507 12.288961038924754,226.70561729859037 13.656493506394327,229.83228891035833 33.32792207784951,227.94410997556406 35.08116883109324,227.84259447203658 35.16883116879035,228.59380797277845 38.5,228.32986841695674" stroke="#4DD2FF" stroke-linecap="round" stroke-linejoin="round" stroke-width="0.5"><title>2025-05-29 5.0km</title><desc>1748526381000</desc></polyline><polyline fill="none" points="57.86687797133345,222.34929061686853 57.26782884297427,217.44378960411996 67.40887480182573,216.9482789465983 68.5,220.937111078194 67.32329635485075,217.04738115885993 57.225039619603194,217.51811611559242 57.503169571980834,219.97087824605114 57.118066561059095,217.54289161435736 42.69809825660195,218.88076479898882 44.858954041148536,229.7073565380706 45.693343898514286,232.23431770293973 45.137083993526176,232.58115346009436 46.014263074379414,234.90989501531294 44.837559429346584,231.83793337465613 41.92789223440923,218.93031551635067 46.97702060220763,218.211829127089 56.11251980974339,217.64199358428596 56.00554675119929,216.92350338718097 42.59112519805785,217.8401974028675 41.842313787550665,215.0901049847016 41.5,215.38741377313272 41.671156893717125,218.03840105980635 51.79080824076664,217.04738115885993" stroke="#4DD2FF" stroke-linecap="round" stroke-linejoin="round" stroke-width="0.5"><title>2025-05-27 6.0km</title><desc>1748352132000</desc></polyline><polyline fill="none" points="94.90205011388753,227.0120401615859 95.0096810934192,226.94081911250396 94.6637243735895,225.21369089363725 85.56890660591307,226.08616199400421 84.51566059229663,226.1039674359272 80.72551252850099,225.65883029899123 71.66913439636119,226.059453824324 71.5,223.10369925123814 72.57630979499663,222.9879598384141 74.06007972668158,223.09479622493382 74.0677676537598,225.65883029899123 80.94846241458436,225.382844134896 85.13069476082455,225.7923716782534 94.64834851937485,224.8486748884825 98.33855353077524,224.71513206644886 98.5,225.00892600539373 98.39236902049743,225.04453732479305 94.98661731209722,225.18698245715495" stroke="#4DD2FF" stroke-linecap="round" stroke-linejoin="round" stroke-width="0.5"><title>2025-05-25 7.6km</title><desc>1748179850000</desc></polyline><polyline fill="none" points="128.48230668413453,226.49058949661412 128.41153342067264,225.90665418278513 128.06651376141235,225.90665418278513 127.84534731321037,224.8104857486178 127.66841415461386,224.5646145519131 119.13138925295789,225.29198176666978 117.73361730010947,225.5480957301843 112.12483617296675,225.02562255236262 101.6503931847983,225.49687298970093 101.5,223.7143053600521 104.10091743117664,223.5094105033786 104.08322411531117,225.0051333528172 104.42824377457146,225.04611174775346 111.77981651376467,224.7285287499035 117.10550458711805,225.18953599854285 128.16382699867245,224.12409382039914 128.5,226.37790048967872" stroke="#4DD2FF" stroke-linecap="round" stroke-linejoin="round" stroke-width="0.5"><title>2025-05-24 6.6km</title><desc>1748094255000</desc></polyline><polyline fill="none" points="158.5,226.2030372157751 158.20628525386564,223.79696278423216 147.0886381950113,224.74176199414796 145.54391619662056,225.0063044787239 143.7816277195816,225.03149897148978 138.70145044318633,224.41423241922166 131.5,224.703970164388 138.66881547140656,224.40163511056016 143.71635777596384,225.04409621599916 155.23650282033486,224.07410463433916" stroke="#4DD2FF" stroke-linecap="round" stroke-linejoin="round" stroke-width="0.5"><title>2025-05-18 4.7km</title><desc>1747565909000</desc></polyline><polyline fill="none" points="184.99069567702827,225.96672524152382 184.69696535929688,224.2391534551498 176.86673346691532,224.90154250922205 175.56040652733645,225.13427261247125 174.50916117947781,225.12532146604644 170.93028914972092,224.6598605953768 161.55410821642727,225.08951687128865 161.5,224.8209819451513 166.77941597480094,224.4808365267163 170.35828800458694,224.41817801647267 174.54008016031003,225.08951687128865 184.79745204694336,224.17649477245868 188.25264815342962,224.0332747584689 188.39178356711636,224.05117727299512 188.41497280274052,224.17649477245868 188.5,224.12278729458922" stroke="#4DD2FF" stroke-linecap="round" stroke-linejoin="round" stroke-width="0.5"><title>2025-05-17 5.7km</title><desc>1747487200000</desc></polyline><polyline fill="none" points="37.024531312286854,253.883791242617 33.44894295971608,254.07086714363686 31.70422816107748,254.38265967639018 23.691463901021052,254.99377073609503 18.67271639406681,254.3452446144147 11.5,254.6320931306036 18.575787794135977,254.37018799035286 23.49760670121759,254.98129911229626 37.79996011161711,253.73413031590462 38.27383326686686,256.15362619120424 38.5,256.2658696840954" stroke="#4DD2FF" stroke-linecap="round" stroke-linejoin="round" stroke-width="0.5"><title>2025-05-11 5.0km</title><desc>1746965499000</desc></polyline><polyline fill="none" points="68.5,255.9700661204988 68.06420373020228,254.0299338795012 55.81348637008341,255.14018715215934 50.835724533651955,254.56823989559052 41.5,254.9607530387293 50.60329985647695,254.5794545762401 55.25179340026807,255.14018715215934 68.14167862263275,254.05236334940855" stroke="#4DD2FF" stroke-linecap="round" stroke-linejoin="round" stroke-width="0.5"><title>2025-05-10 5.3km</title><desc>1746870058000</desc></polyline><polyline fill="none" points="98.44104803493246,254.5448839132514 98.37227074237308,254.35145821388141 98.5,254.49937201412104 97.97925764194224,254.5903957937844 85.94323144108057,255.6485417861113 80.84388646291336,255.0455135788361 71.5,255.43236223729036 80.79475982533768,255.0455135788361 83.18231441045646,255.2389380756431 85.35371179040521,255.6371639255376 95.20851528388448,254.7496872296324" stroke="#4DD2FF" stroke-linecap="round" stroke-linejoin="round" stroke-width="0.5"><title>2025-05-05 5.4km</title><desc>1746434825000</desc></polyline></svg>