<?xml version="1.0" encoding="utf-8" ?>
<svg baseProfile="full" height="300mm" version="1.1" viewBox="0,0,200,300" width="200mm" xmlns="http://www.w3.org/2000/svg" xmlns:ev="http://www.w3.org/2001/xml-events" xmlns:xlink="http://www.w3.org/1999/xlink"><defs /><rect fill="#222222" height="300" width="200" x="0" y="0" /><text fill="#FFFFFF" style="font-size:12px; font-family:Arial; font-weight:bold;" x="10" y="20">Over 3km Runs</text><text fill="#FFFFFF" style="font-size:4px; font-family:Arial" x="10" y="280">Runner</text><text fill="#FFFFFF" style="font-size:9px; font-family:Arial" x="10" y="290">tang-hi</text><text fill="#FFFFFF" style="font-size:4px; font-family:Arial" x="65" y="280">SPECIAL TRACKS</text><rect fill="yellow" height="2.6" width="2.6" x="65" y="283" /><text fill="#FFFFFF" style="font-size:3px; font-family:Arial" x="70" y="285.5">Over 20.0 km</text><rect fill="red" height="2.6" width="2.6" x="65" y="287" /><text fill="#FFFFFF" style="font-size:3px; font-family:Arial" x="70" y="289.5">Over 40.0 km</text><text fill="#FFFFFF" style="font-size:4px; font-family:Arial" x="120" y="280">STATISTICS</text><text fill="#FFFFFF" style="font-size:3px; font-family:Arial" x="120" y="285">Number: 57</text><text fill="#FFFFFF" style="font-size:3px; font-family:Arial" x="120" y="290">Weekly: 3.6</text><text fill="#FFFFFF" style="font-size:3px; font-family:Arial" x="141" y="285">Total: 303.6 km</text><text fill="#FFFFFF" style="font-size:3px; font-family:Arial" x="141" y="290">Avg: 5.3 km</text><text fill="#FFFFFF" style="font-size:3px; font-family:Arial" x="167" y="285">Min: 3.2 km</text><text fill="#FFFFFF" style="font-size:3px; font-family:Arial" x="167" y="290">Max: 11.5 km</text><polyline fill="none" points="23.502254929218907,31.285714285717404 23.52722700947197,33.07724825726473 23.02778540525469,36.294218900548 22.852980843745172,36.63132028385735 22.778064603131497,37.19957418822014 22.869628897227813,37.478884180840396 22.09549441075069,42.04404122442065 22.145438571169507,42.52558505949128 21.596052806533407,46.47415227242891 21.629348913469585,48.140205703479296 22.328567159362137,54.42857142857247 22.811360710067675,54.34190459638921 22.47839964061859,50.69219611683366 22.045550250302767,48.09205428093992 22.02057817010791,46.25265163514268 22.561639907973586,42.573739308492804 22.70314836248872,42.36186042994814 23.27750620734878,37.57519778062124 23.55219908966683,36.65058318384399 23.56052311640815,35.59111787244183 24.118232907756465,32.04663876489212" stroke="#4DD2FF" stroke-linecap="round" stroke-linejoin="round" stroke-width="0.5"><title>2025-08-19 5.3km</title><desc>1755607955000</desc></polyline><polyline fill="none" points="48.32067083346192,54.314580079648294 48.7236743409303,54.42857142857247 48.7236743409303,53.66171808146464 48.87592011044035,53.31974108105351 49.06398841395276,50.956959562980046 49.61028205737239,47.381593955200515 49.55654825636884,45.03940243340185 48.947565178445075,41.11144719742879 48.669940539984964,37.87776624570688 48.499783503473736,37.02787153660029 48.0609574620612,36.29198136917694 48.15946943050949,36.11578152667062 48.589339838479646,36.20906383417605 48.401271534967236,34.27084723731241 47.935578593052924,33.63858679205441 47.97140112699708,32.41551447088568 47.53257508552633,31.285714285717404 48.00722366105765,32.4673398670202 47.9534898599959,33.62822183404933 48.37440463446546,34.084278989255836 48.589339838479646,36.19869913755247 48.14155816350831,36.13651093572116 48.09677999600535,36.271251991747704 48.61620673898142,37.46318434600835 48.88487574394094,40.58287174732686 49.54759262286825,45.163767937636294 49.53863698936766,46.23123227633914 48.87592011044035,50.82223791439901 48.67889617342735,50.915506766985345 48.55351730447728,51.22640232615231 48.32067083346192,52.74977686531929" stroke="#4DD2FF" stroke-linecap="round" stroke-linejoin="round" stroke-width="0.5"><title>2025-08-17 5.0km</title><desc>1755429603000</desc></polyline><polyline fill="none" points="73.95286539022345,54.3765240859575 73.83591848105425,54.42857142857247 73.9708572224481,54.29324828276731 74.12378779606661,52.00313716610253 74.24973062134814,51.20158617947163 74.66354276158381,50.85806240799866 74.65454684547149,50.066912370486534 75.21229364321334,46.92307156996685 75.29325688804965,45.50727068864944 74.3127020339598,37.2931573275564 73.79993481666315,36.29367651676148 73.89888989372412,36.17915205081226 74.33069386612624,36.21038600877364 74.14177962817485,34.1905704464516 73.70997565571452,33.649169812662876 73.7369634040515,32.47265471848368 73.2781716833706,31.285714285717404 73.76395115233026,32.493478112024604 73.7009797396604,33.597111908537045 74.13278371206252,34.107278227616916 74.34868569835089,36.199974690513045 73.88989397761179,36.14791808334121 73.82692256494192,36.30408782547602 74.36667753051734,37.418091742903925 75.29325688804965,45.01798200990015 75.28426097193733,46.25681476968748 74.68153459375026,50.69150501317199 74.23173878912348,53.56458211725112 74.04282455117209,53.710315765019914 73.97985313856043,54.14751546431944" stroke="#4DD2FF" stroke-linecap="round" stroke-linejoin="round" stroke-width="0.5"><title>2025-08-16 5.1km</title><desc>1755350047000</desc></polyline><polyline fill="none" points="99.86500053695636,54.366086502705 99.54100182570983,54.42857142857247 99.69400121713988,54.27235904249392 100.12599949887954,51.043916419708694 100.36899853229988,50.91894240250258 100.31499874708243,50.57526306938962 100.9629961696337,46.75305461231619 101.00799599068705,45.097067172690004 100.03599985677283,37.31669242496719 99.55000178987393,36.33759403919248 99.64900139608653,36.15010604666895 100.04499982099514,36.21260208230524 99.84700060856994,34.160628985271615 99.4240022910526,33.681482139072614 99.48700204049237,32.65026719315938 98.98300404514885,31.285714285717404 99.45100218366133,32.37944134455029 99.44200221949723,33.62940082507703 99.84700060856994,34.11896413110662 100.08099967782618,36.202186079004605 99.6130015393137,36.16052205525921 99.56800171826035,36.306346064273384 99.95500017894665,36.93130375164765 100.11699953459902,37.55625762623822 100.40499838913092,40.89969609524269 100.97199613385601,44.670047203078866 101.01699595485115,46.18023179615557 100.33299867546884,50.5648485261263 100.3869984606863,50.877284362919454 100.09899960627081,52.48110666336288 99.86500053695636,53.01223708759062" stroke="#4DD2FF" stroke-linecap="round" stroke-linejoin="round" stroke-width="0.5"><title>2025-08-14 4.9km</title><desc>1755170321000</desc></polyline><polyline fill="none" points="126.65962045759079,31.305074942618376 126.45884139701957,31.285714285717404 126.51740195637103,33.03783780342201 126.0321858934476,36.32903243822511 125.85650421550963,36.67750521427661 125.85650421550963,37.58740034332004 125.36292235838482,41.062345403566724 125.20397226882051,42.01091563185764 125.07848535597441,42.08834951939207 125.15377750369953,42.57230989087111 124.57653770467732,46.55037101864582 124.6267324698274,48.24414226830413 125.3294591816375,54.351147565437714 125.80630945035955,54.42857142857247 124.98646161993383,46.7633039155844 126.35008607257623,37.10341465420788 126.54249933891697,36.70654455472686 126.45884139701957,36.36775169851899 126.85203372390242,33.61864511794556" stroke="#4DD2FF" stroke-linecap="round" stroke-linejoin="round" stroke-width="0.5"><title>2025-08-12 5.0km</title><desc>1754999139000</desc></polyline><polyline fill="none" points="152.0526066137827,31.363254167648847 152.1614986595232,31.285714285710128 152.16987497077207,32.92373089357716 151.65054367564153,36.25783165347093 151.47464114020113,36.58735854060069 151.29873860478983,38.82617284427397 150.74590206483845,42.072844843358325 150.1846892136673,46.75367301128426 150.23494708092767,48.187918090610765 150.821288865729,53.04287153500627 151.43275958416052,54.42857142857247 150.61188108543865,46.81181850127177 151.85157514474122,37.866687432833714 152.15312234833254,36.62612633481331 152.07773554741289,36.35475144429802 152.4295406183228,33.73788252995291 152.6724536434631,32.74926892460644" stroke="#4DD2FF" stroke-linecap="round" stroke-linejoin="round" stroke-width="0.5"><title>2025-08-10 5.0km</title><desc>1754830447000</desc></polyline><polyline fill="none" points="176.81376609316794,54.42857142857247 178.06701694009826,46.96875231148442 178.14816267840797,45.21587699934025 177.48096438578796,40.59356819814275 177.16539762576576,37.22322084289772 176.66049080970697,36.32583415733825 176.73262035485823,36.13800804398488 177.19244620518293,36.231921143647924 176.99408995604608,34.16581309719186 176.56131268513855,33.65449710870598 176.58836126455572,32.485765281562635 176.128535414231,31.285714285717404 176.60639365087263,32.52750593316887 176.570328878297,33.66493215435912 176.99408995604608,34.176248090829176 177.21047859144164,36.200616786649334 176.75065274111694,36.179747209993366 176.6965555822826,36.29452982900693 177.21047859144164,37.400610305361624 177.62522347603226,41.501351815903035 178.11209790583234,44.485503451353 178.15717887150822,46.14448729187279 177.11130046687322,53.55220119787555 176.8227822862682,53.85475843249151" stroke="#4DD2FF" stroke-linecap="round" stroke-linejoin="round" stroke-width="0.5"><title>2025-08-09 5.0km</title><desc>1754735080000</desc></polyline><polyline fill="none" points="23.552085284900386,58.07142857142753 23.602322086924687,59.69907134672394 23.275782873883145,62.25673957532854 22.857142857130384,64.01994060364814 22.765042053477373,65.61841885621834 22.204064431018196,68.89279368591815 22.237555632396834,69.39653368236759 21.66820520965848,73.23262023155257 21.651459608983714,74.55002850935125 22.371520437765867,80.67186357675382 22.932498060137732,81.2142857142826 22.111963627365185,74.89875118459167 22.153827629052103,72.83545681383839 23.35113807686139,64.6012085227776 23.50184848290519,63.661490287442575 23.6441860885825,63.47742068257503 23.577203685912536,63.08021664044645 24.062826105306158,59.79595396912919" stroke="#4DD2FF" stroke-linecap="round" stroke-linejoin="round" stroke-width="0.5"><title>2025-08-07 5.0km</title><desc>1754570205000</desc></polyline><polyline fill="none" points="48.972514202963794,58.071428571420256 49.024267187691294,58.73016223349987 49.19677713676356,58.80002766584221 49.13639865463483,59.26912285298749 49.602175517065916,59.33898790197418 49.65392850176431,59.76815782689664 49.179526141873794,62.14352954868082 49.04151818261016,63.41103633534658 49.13639865463483,63.75036608581286 48.98976519788266,63.89008976002515 48.713749279413605,65.51685791298223 47.49755413856474,74.35881987632456 48.24797241698252,81.2142857142826 47.4889286411053,74.19915267363103 48.02370948321186,70.15749020867952 48.22209592460422,69.6086096457002 48.69649828449474,65.51685791298223 48.93801221321337,64.00985275118728 49.09327116733766,63.74038581574132 49.03289268517983,63.35115449302975 49.50729504507035,59.857983852984034" stroke="#4DD2FF" stroke-linecap="round" stroke-linejoin="round" stroke-width="0.5"><title>2025-08-05 5.0km</title><desc>1754406000000</desc></polyline><polyline fill="none" points="73.93527253565844,81.2142857142826 74.33577739278553,77.8964419593467 74.58154173695948,77.70684767972853 74.96384182793554,75.13675767261884 75.24601570458617,73.07221297982323 75.26422047079541,71.78711847380328 74.59974650322692,67.22595766952873 74.34487977594836,64.19209518258867 74.11732019798364,63.402012246413506 73.77142963954248,62.9068905353779 73.85335108760046,62.74887246989965 74.29936786036706,62.79101064427232 74.09001304861158,60.71568519264838 73.66220104211243,60.26268984546914 73.69861057458911,58.97743644945149 73.30720810056664,58.07142857142753 73.70771295769373,59.114390439222916 73.66220104211243,60.15734180639265 74.10821781487903,60.705150439614954 74.30847024347167,62.78047610228532 74.19013926293701,62.88582147387933 73.75322487333324,62.8015451851752 74.33577739278553,64.03407907738438 74.70897510059876,68.02654545607948 75.26422047079541,71.81871934949595 75.25511808769079,73.12488044749625 74.19013926293701,80.41379979888734 74.13552496425109,80.59285639566951 73.89886300318176,80.60338912700536 73.80783917196095,81.00363212537195 73.55297244468238,80.98256674293225" stroke="#4DD2FF" stroke-linecap="round" stroke-linejoin="round" stroke-width="0.5"><title>2025-08-03 5.0km</title><desc>1754221111000</desc></polyline><polyline fill="none" points="111.57142857142026,68.39074180911848 111.50027451409551,68.68577318710959 111.31645986602234,68.70292609489479 107.70539145710063,68.63088382362184 107.60755462829547,68.56913318303486 107.46524651366053,68.6274532354364 107.00570989347761,68.624022646909 106.9671681124164,68.5862861500791 106.14593170088483,68.63431441145076 105.74272537606885,68.5725637771393 104.44119907762797,68.56913318303486 103.87789612384222,68.47993761390535 103.49544306575262,68.38044997032193 103.47172504664923,68.34271320125117 102.94103436915611,68.32556011044653 101.7758866805525,68.11972234108907 100.06225980015006,68.1059997785087 96.48676841988345,68.55198020727039 96.00351378059713,68.77496821245586 95.48468211264117,68.93277421851235 94.09124849014916,69.78011124711338 93.35302514547948,70.15403054203125 92.89941803006514,70.28438675404686 92.63259031513007,70.28781717387756 92.29460854287026,70.20548700163636 91.93587350388407,70.35299508455137 91.81431865594641,70.1128653179112 91.669045788949,70.20891742948515 91.55045569341746,69.98593889425683 89.53145931698964,71.1797145072087 89.377292192803,70.79208509890304 88.75469419125875,69.6017262713467 88.69539914350025,69.56056037386952 88.42857142856519,69.69091887703325 88.60349181944912,69.55712988015512 88.68946963873168,69.54683839689824 88.71615241021209,69.46107591444888 88.82288349620649,69.46793692105712 88.96519161084143,69.37188270161641 89.00669814427965,69.4199098454992 89.11342923024495,69.3512996190475 89.07785220158985,69.4164793374839" stroke="#4DD2FF" stroke-linecap="round" stroke-linejoin="round" stroke-width="0.5"><title>2025-08-02 8.3km</title><desc>1754134728000</desc></polyline><polyline fill="none" points="126.33288083411753,58.07142857142753 126.20833148114616,58.10025258805399 126.13360186934005,58.8784977151081 126.75634863425512,58.8784977151081 126.75634863425512,59.50301077729091 124.68052608449943,73.24125487418496 124.68882937470335,74.69182012485544 125.55237155541545,81.2142857142826 124.7303458257229,74.87434000484791 124.67222279429552,73.46220333507517 125.90110974374693,64.68150635179336 126.20833148114616,63.490189255920995 126.12529857916525,63.2211800928344 126.51555321848718,60.38692990739946" stroke="#4DD2FF" stroke-linecap="round" stroke-linejoin="round" stroke-width="0.5"><title>2025-07-31 5.0km</title><desc>1753965181000</desc></polyline><polyline fill="none" points="150.97036071144976,81.2142857142826 151.07016898645088,80.37434527659934 151.32422641385347,80.0698651817147 152.24972132762196,73.69657585481764 152.34952960262308,71.34455427553621 151.877708666143,68.48845607184921 151.3786672911374,63.7736211675292 150.8977728750906,62.84953030208999 150.99758115009172,62.71301617778954 151.39681425021263,62.76552163156157 151.22441813879414,60.67578395883902 150.7616706818808,60.171720300357265 150.8161115591647,59.00606366610009 150.45317237725249,58.071428571420256 150.82518503873143,59.02706660476542 150.78889112046454,60.19272300191369 151.22441813879414,60.73879174312606 151.4331081683631,62.744519453270186 151.31515293422854,62.84953030208999 150.95221375237452,62.70251508381625 150.91591983416583,62.860031381111185 151.46032860700507,64.06764834519709 151.77790039114188,67.59590918702452 152.403970479907,72.10056705200259 151.75067995249992,77.53949588691466 151.26978553651134,80.55283319090813 151.09738942515105,80.6263281248539" stroke="#4DD2FF" stroke-linecap="round" stroke-linejoin="round" stroke-width="0.5"><title>2025-07-29 5.0km</title><desc>1753797916000</desc></polyline><polyline fill="none" points="178.13548065212672,58.07142857142753 178.1187979040842,59.83774188092502 177.73509469881537,62.54023419735313 177.43480523381731,63.4378307090883 177.23461225713254,65.90859021052165 176.6757401973009,68.86183562927908 176.74247118950007,69.3829870573536 176.1919405036606,73.04061758201715 176.22530599980382,74.98035922978306 176.9092986700416,81.2142857142826 176.2670128699101,75.80063607525517 176.1502336335834,73.74510544541408 176.68408157135127,69.01625116518699 177.42646385979606,64.29681297816569 177.35139149351744,64.05552660831745 177.7100705767516,62.58849229003681 178.1187979040842,59.32619003873697" stroke="#4DD2FF" stroke-linecap="round" stroke-linejoin="round" stroke-width="0.5"><title>2025-07-27 5.0km</title><desc>1753616848000</desc></polyline><polyline fill="none" points="23.518148473958718,84.85714285713766 23.542782223667018,86.89044760265097 23.091163479257375,90.10183887286985 22.910515981464414,90.44387404841837 22.655967234633863,93.23711449569964 22.19613724030205,95.78326100193954 22.228982239874313,96.26778103237302 21.62956099730218,100.21985069661605 22.376784738065908,108.0 22.869459731999086,107.92400655423262 22.516375986335333,104.11475600297126 22.114024741313187,101.44533838593634 22.097602241527056,100.02035118131607 23.230754727497697,92.03052086371463 23.60847222286975,90.43437308822467 23.526359723880887,90.06383488723804 24.08472471695859,86.68141831262619" stroke="#4DD2FF" stroke-linecap="round" stroke-linejoin="round" stroke-width="0.5"><title>2025-07-26 5.2km</title><desc>1753529066000</desc></polyline><polyline fill="none" points="49.3702025282837,84.85714285714494 49.270355783664854,85.35779690679192 49.40348477649968,86.00286649382178 49.245394097524695,87.52405798226391 48.89593049141695,89.89244675555528 48.7128781262727,90.22940782809746 48.68791644013254,91.2402838571943 47.94738641765434,95.67838340926392 48.00563035195228,96.1019655612472 47.45647325666505,100.13552803792118 47.53135831508553,102.28219894858194 48.188682717096526,108.0 48.66295475396328,107.95187180051289 48.28852946171537,104.45769924796332 48.37173508221167,104.27480512706825 47.89746304534492,101.56022985208256 47.8891424832691,100.27029804535414 49.68638388620457,87.68772902908677" stroke="#4DD2FF" stroke-linecap="round" stroke-linejoin="round" stroke-width="0.5"><title>2025-07-24 5.0km</title><desc>1753356656000</desc></polyline><polyline fill="none" points="73.87980256561423,107.95824942822946 73.99706595140742,108.0 74.39395741105545,104.70165254401218 74.65554496401455,104.53464479227841 74.59240314090857,104.21106650050206 75.26892267435323,100.02533283879166 75.31402397656348,98.7622724671237 74.63750444311881,94.30490221249784 74.35787636926398,91.00611485994159 73.81666074256646,89.86821742189932 73.89784308656817,89.70118554377405 74.33983584836824,89.78470151680085 74.10530907678185,87.68634210390155 73.71743787755258,87.2687530241601 73.75351891940227,86.14125402399804 73.25740459485678,84.85714285714494 73.70841761713382,85.8906970089156 73.69939735671505,87.22699402277794 74.11432933725882,87.66546269024548 74.34885610884521,89.7220645434063 74.23159272305202,89.83689896544092 73.9158836074057,89.71162504413223 73.81666074256646,89.83689896544092 74.13236985809635,90.28579592824099 74.35787636926398,91.03743295973982 74.76378808933077,95.19221616562572 75.28696319519076,98.58481645957363 75.277942934772,99.97314056912728 74.294734546158,106.81010205446364" stroke="#4DD2FF" stroke-linecap="round" stroke-linejoin="round" stroke-width="0.5"><title>2025-07-22 5.0km</title><desc>1753184035000</desc></polyline><polyline fill="none" points="88.42857142863795,100.24549656556337 88.42857142863795,96.531859018869 90.88906009262428,86.13349319968256 110.78692493960261,89.7646988237102 111.57142857159488,90.63123173010536 108.89698437182233,106.6823878629657 91.03169711655937,103.87657599558588 90.38983050873503,103.05133352158009 92.6007043805439,87.00003385543823 93.38520801230334,86.50486799291684 98.12788906041533,87.28888032978284 111.53576931566931,90.2598607110267 109.18225841992535,106.35229335539043 108.43341404362582,106.72364965747693 90.67510455660522,103.71152763496502 90.88906009262428,98.42994467489189 92.6363636367023,87.08256144056213 93.20691173244268,86.58739567859448 101.9790887082927,88.07289115290041 93.02861545258202,86.66992334756651 92.0301562845707,91.20891930712969 92.92163768457249,92.0754491314583" stroke="#4DD2FF" stroke-linecap="round" stroke-linejoin="round" stroke-width="0.5"><title>2025-07-20 4.9km</title><desc>1753020627000</desc></polyline><polyline fill="none" points="127.04446913575521,84.85714285714494 126.86988256170298,86.04039369058592 126.22141814374481,87.70461577131209 125.67271748237545,90.20570376762043 125.52307184741949,92.17766887891048 125.00762577162823,95.47701135577518 124.89123472225037,95.58281927058852 124.94943024695385,96.0541440002562 124.4090432319208,99.94969736460916 124.38410229279543,101.2385612277867 125.12401682097698,107.99038236440538 125.04088035717723,106.6631392864947 125.1323304674006,108.0 125.60620831130655,107.9038236000124 124.80809825839242,100.37290832817234 126.08008615521248,91.0810689588834 126.34612283948809,90.2441815284692 126.37937742500799,89.11870056312182" stroke="#4DD2FF" stroke-linecap="round" stroke-linejoin="round" stroke-width="0.5"><title>2025-07-20 5.0km</title><desc>1752942252000</desc></polyline><polyline fill="none" points="152.4264734124299,84.86749877796683 152.28327671519946,84.85714285714494 152.0595318757696,85.99628783934895 152.310126095952,86.15162480501021 152.29222650878364,86.4830095405996 151.9789837335702,88.59556190358853 151.80893765564542,88.9580052126621 151.3703977703699,93.08976785511186 151.00345623365138,94.77763273689925 151.0392554079881,95.27466737607028 150.40382006397704,100.02743875046872 151.26300024735974,108.0 150.46646861900808,101.35279082896159 150.44856903183972,99.3440473536757 151.0392554079881,95.33679653559375 151.01240602723556,94.7879876499137 151.66574095835676,90.85304495898163 151.79998786200304,88.94764970743563 151.9789837335702,88.57485081844061 152.45332279318245,85.18853180144652" stroke="#4DD2FF" stroke-linecap="round" stroke-linejoin="round" stroke-width="0.5"><title>2025-07-17 5.0km</title><desc>1752765839000</desc></polyline><polyline fill="none" points="187.07239382248372,107.51164746060385 187.593629343668,106.78788088829606 188.71428571431898,97.34859688358847 171.95656370662618,96.59464751317864 168.9333976834314,96.8359115201747 169.29826254816726,96.59464751317864 168.75096525088884,93.18677246174775 165.64961389964446,88.30107800703263 165.57142857147846,85.55660941652604 165.93629343633074,85.34549539655563 180.50482625490986,85.58676854989608 179.46235521242488,95.08674302572035 178.8108108107699,95.50895705455332 169.71525096520782,95.20737566667958 168.72490347491112,92.0407525888586 166.17084942082874,88.78361931114341 165.85810810804833,87.06456233351491 169.4806949805934,86.79313137402642 180.03571428568102,87.15503926487872 180.19208494212944,89.41695358190918 179.2538610039046,96.77559553683386 177.84652509656735,96.86606950720306" stroke="#4DD2FF" stroke-linecap="round" stroke-linejoin="round" stroke-width="0.5"><title>2025-07-15 4.1km</title><desc>1752589649000</desc></polyline><polyline fill="none" points="23.78718597709667,111.64285714286234 23.857710573880468,113.28516606029734 23.31114494887879,116.71250683069957 23.11720230767969,117.11031559211551 23.108386733103544,118.12013075413415 22.33261616859818,122.85286648230976 22.36787846701918,123.38324538023153 21.777234968962148,127.77916265837848 22.482480936741922,134.7857142857174 22.076964505249634,132.01170862078288 21.768419394386,127.55478174957534 23.09075558395125,118.04873001574015 23.011415412533097,117.72232599357085 23.27588265045779,116.78390851931908 23.796001551731024,113.38717193916818 23.734292529523373,113.03015090965346 23.945866319874767,111.9488794747449 23.751923678733874,111.70406168387126" stroke="#4DD2FF" stroke-linecap="round" stroke-linejoin="round" stroke-width="0.5"><title>2025-07-13 5.0km</title><desc>1752418082000</desc></polyline><polyline fill="none" points="48.37044421117753,134.7857142857174 48.251680725603364,134.77514311904088 48.32476594753098,133.940017558627 48.726734668016434,131.4028861265324 48.96426163916476,131.1914557140044 49.37536601233296,128.31595943715365 49.594621677999385,125.34523457792238 48.991668597387616,121.21145132797392 48.681056404311676,117.75417138136254 48.49834334955085,117.07750375190517 48.1146459345473,116.46426990909094 48.19686680921586,116.30567436115234 48.63537814060692,116.36911260937632 48.44352943310514,114.36021595576312 48.00501810165588,113.81040589600889 48.03242505993694,112.55217578063457 47.721812866861,111.68515120931261 47.529964159359224,111.68515120931261 47.694405908638146,111.64285714286234 48.00501810165588,112.41472114795761 47.995882448973134,113.82097919382795 48.39785116940038,114.19104393935413 48.44352943310514,114.40250891686446 48.63537814060692,116.33739349008829 48.18773115647491,116.31624740520056 48.08723897632444,116.4325508188922 48.4892076968099,117.0140659358949 48.671920751570724,117.65901526204834 49.04648251377512,121.77179474571312 49.61289298348129,125.27122967260948 49.603757330798544,126.62445390497305 48.4892076968099,134.2360121951424" stroke="#4DD2FF" stroke-linecap="round" stroke-linejoin="round" stroke-width="0.5"><title>2025-07-12 5.1km</title><desc>1752325602000</desc></polyline><polyline fill="none" points="74.14627751545049,134.7857142857174 73.92137949878816,134.775304819319 74.42515105602797,131.30889368004136 74.63205723132705,131.20479543520196 75.20779615384527,127.34267577876017 75.29775536054512,125.39594570823829 74.76699604128953,121.90839556809078 74.36217961134389,117.67112259681744 73.82242437143577,116.57794018225104 73.89439173677238,116.46341563482565 74.34418777003884,116.53629490709864 74.13728159473976,114.42277494935843 73.73246516479412,113.97507793002296 73.71447332348907,112.56950479887018 73.26467729022261,111.64285714285506 73.74146108544664,112.68403370203305 73.73246516479412,113.9646663481617 74.14627751545049,114.43318648466811 74.37117553205462,116.50506093960576 73.9393713400932,116.45300430597126 73.84041621285724,116.61958544044319 74.38017145270715,117.75441220706125 74.77599196194205,121.88757401656767 75.30675128119765,125.32307274110644 75.216792074556,127.29062465408788 74.35318369069137,133.03690909063153" stroke="#4DD2FF" stroke-linecap="round" stroke-linejoin="round" stroke-width="0.5"><title>2025-07-10 5.0km</title><desc>1752149320000</desc></polyline><polyline fill="none" points="96.75447052484378,111.64285714285506 96.80867560999468,113.08546726628265 97.20166247751331,112.88162100179761 98.0418412979343,113.16386960398813 98.94977647461928,113.08546726628265 99.96612182178069,113.46179812405899 105.21046381292399,114.15173564649012 105.35952779714717,114.35558023328485 104.15346465189941,122.05443635713891 103.57075998623623,122.10147503091139 103.46234981581802,122.30530911813548 103.25908074644394,123.66942261935037 103.40814473066712,124.26523852678656 102.4866582826362,129.45501140644774 95.73812517774059,129.25118676034617 95.50775356567465,129.0943983879406 94.64047220285283,134.78571428571013 95.54840737953782,129.1884714304906 98.17735401081154,129.23550793023605 99.05818664497929,128.89057326570037 99.18014808662701,129.25118676034617 102.52731209649937,129.36093852634076 104.85813075921033,114.7632685991266 104.7903744027717,114.23013744254422 97.81146968586836,113.00706488870492" stroke="#4DD2FF" stroke-linecap="round" stroke-linejoin="round" stroke-width="0.5"><title>2025-07-08 5.1km</title><desc>1751976330000</desc></polyline><polyline fill="none" points="114.34898652724223,134.5749891660962 114.29932025267044,134.78571428571013 114.61387332557933,134.6516165095527 114.71320587489754,133.5788308665651 115.29264574602712,133.0999067334924 115.4085337202996,132.60182434447051 117.08063163416227,121.0114586774871 117.22963045811048,117.50547214051767 116.83230026083766,114.91904682769382 117.7428486297722,114.88072914881923 117.97462457820075,115.22558797808597 121.16982158197789,115.68539876879368 123.73591243993724,115.64708124578465 125.60667545243632,116.39427154014993 131.5666284126928,117.27556910552084 132.65928645554231,111.64285714284051 137.1292511758511,112.63913137723284 133.13939377729548,111.70033464572043 132.39439965726342,115.01484099072695 132.27851168299094,117.3138862975029 121.12015530728968,115.81951003817085 117.97462457820075,115.24474678344268 117.6931823551422,114.82325261589722 116.78263398614945,114.97652333135193 117.14685333368834,116.50922363018617 117.21307503333082,119.82364540666458 115.34231202065712,132.65929545655672" stroke="#4DD2FF" stroke-linecap="round" stroke-linejoin="round" stroke-width="0.5"><title>2025-07-06 5.0km</title><desc>1751807521000</desc></polyline><polyline fill="none" points="143.37965832522605,133.3512275005487 144.38235418184195,126.22083727753488 141.13726577325724,125.9887790428038 140.11633908294607,126.34741438715719 141.44718994712457,126.22083727753488 141.2648816095898,126.00987525667006 144.61935502069537,126.19974108511815 144.85635585954878,125.9887790428038 144.74697085702792,125.3347953492339 146.11428338859696,116.70623691698711 145.98666755238082,112.4023719838442 148.3384451069869,112.1702982995339 162.740803774097,114.53321822801081 162.72257294040173,113.8370035445405 146.87997840635944,111.64285714285506 147.13521007902455,116.85391697313753 145.47620420716703,128.58359726397612 145.93197505106218,129.3008583674382 145.51266587467398,130.08140439949057 145.60382004349958,131.76906146327383 144.96574086195324,131.91673080361215 144.6740475218976,134.78571428571013 143.19734998769127,134.61695164898993 143.28850415651686,133.37232296625734" stroke="#4DD2FF" stroke-linecap="round" stroke-linejoin="round" stroke-width="0.5"><title>2025-07-05 4.8km</title><desc>1751729502000</desc></polyline><polyline fill="none" points="180.8677124196547,134.78571428571013 181.09674882824766,134.6183296910749 181.13291247165762,133.6698131326848 181.44633071502903,132.28887289672275 181.61509438452777,132.23307703963656 181.8320762453368,130.21046190723428 177.11874804727267,130.01517335118842 177.42011174280196,128.96897992669255 177.86613001214573,124.25403594055388 177.91434820345603,120.80839751200983 177.7455845339573,120.34804250668094 177.92640275123995,117.53007820840867 177.91434820345603,111.64285714285506 171.58571059734095,113.91686109687726 171.45311057125218,114.23772978634224 171.5013287626207,113.95871357718715 174.91276579594705,112.66128075134475 174.97303853509948,115.53514770595939 175.31056587403873,116.26058033527806 177.82996636867756,116.26058033527806 177.8420209165197,119.94348683323187 178.1072209685808,120.06903872158728 178.2036573511432,120.51544450549409 182.61562185367802,120.79444738302846 182.83260371454526,121.89650320394139 182.8084946188028,123.9052910466271 181.28962159343064,134.2696111300029" stroke="#4DD2FF" stroke-linecap="round" stroke-linejoin="round" stroke-width="0.5"><title>2025-07-03 5.2km</title><desc>1751545471000</desc></polyline><polyline fill="none" points="22.4515969469212,161.57142857142753 23.00133695860859,158.1821971265672 23.22664024209371,158.02576835751097 23.80341664783191,153.7499563260135 23.84847730450565,152.2690237863426 22.86615498852916,144.40512244642014 22.38851202756632,143.41426983246492 22.487645472225267,143.2786787302466 22.893191382521763,143.35168934601097 22.70393662439892,141.32823304192425 22.262342188798357,140.76499583452824 22.271354320109822,139.48205509343825 21.847784147190396,138.42857142857247 22.307402845472097,139.5759293503652 22.262342188798357,140.78585652699985 22.667888099036645,141.18220887774805 22.730973018391524,141.50554781896062 22.893191382521763,143.34125926121487 22.4515969469212,143.30996900050377 22.38851202756632,143.44556006135826 22.875167119840626,144.40512244642014 23.343797949492,148.86905553401448 23.86650156712858,152.23773624861497 23.713295334368013,154.57384616120544 22.72196088708006,161.21686806265643" stroke="#4DD2FF" stroke-linecap="round" stroke-linejoin="round" stroke-width="0.5"><title>2025-07-01 5.0km</title><desc>1751376396000</desc></polyline><polyline fill="none" points="47.75812427175697,161.57142857142753 47.92524159362074,161.36515991448687 47.8918181292247,160.6045413438187 48.15920584421838,160.34670350528177 48.3486054756213,159.34113092808548 48.63827550015412,155.79577940538002 49.03935707255732,154.41628858132754 49.48500326415524,150.79344217989274 49.373591716284864,148.71767216829903 48.7496870480245,145.01730223631603 48.32632316608215,140.5302976946914 47.65785387868527,138.86697119369637 48.248335082491394,138.98301793666906 48.27061739208875,138.42857142857247 48.27061739208875,138.9572297807099 47.75812427175697,138.8540771045955 47.66899503348395,138.98301793666906 48.0923589154263,139.61482611847168 48.3486054756213,140.50450985343195 48.81653397681657,145.5072528883902 49.48500326415524,149.95540247535973 49.42929749022005,152.0311522312768 48.025511986692436,161.13310727464705" stroke="#4DD2FF" stroke-linecap="round" stroke-linejoin="round" stroke-width="0.5"><title>2025-06-30 4.1km</title><desc>1751292736000</desc></polyline><polyline fill="none" points="62.974116475787014,151.42663152053137 62.71428571426077,149.5486798803613 62.803882528620306,149.35154482606595 69.77451468392974,149.01952702961717 70.88551518163877,149.12328270734724 72.69537083123578,148.94689799232583 75.41015430557309,148.97802472894546 85.85714285710128,148.31398561665264 82.73917371826246,148.5318739278373 82.01343952218303,148.770512971656 80.669487307081,148.7082593619707 73.86908909899648,149.06102931341593 67.5435540069011,149.17516050653649 67.35540069680428,149.3411692863374 67.7944250870496,151.68601438335463 67.58835241408087,151.66526377865375 67.33748133393237,150.4409706146762" stroke="#4DD2FF" stroke-linecap="round" stroke-linejoin="round" stroke-width="0.5"><title>2025-06-26 5.0km</title><desc>1750950176000</desc></polyline><polyline fill="none" points="111.57142857144936,150.94717389243306 111.19775488239247,149.05282610755967 101.24142703367397,149.96634882317449 100.17853298480622,149.97596480470384 96.34214977701777,149.49516452703392 88.42857142857974,149.8317249786778 96.07642626482993,149.48554849647917 100.1868368445721,149.9855807852873 107.27002921732492,149.341307920673" stroke="#4DD2FF" stroke-linecap="round" stroke-linejoin="round" stroke-width="0.5"><title>2025-06-24 5.0km</title><desc>1750769966000</desc></polyline><polyline fill="none" points="137.28571428573923,150.92679270032386 136.96891724990564,149.07320729967614 127.11486208319548,150.0096586240761 125.91436805270496,150.04827497478982 122.02943598190905,149.5462611877083 114.14285714286962,149.89380947751488 121.82101687937393,149.5462611877083 125.90603128858493,150.04827497478982 134.25113215314923,149.3049074583978" stroke="#4DD2FF" stroke-linecap="round" stroke-linejoin="round" stroke-width="0.5"><title>2025-06-22 5.0km</title><desc>1750563938000</desc></polyline><polyline fill="none" points="152.21944909347803,161.57142857142753 151.023351423617,154.42555576875384 151.00658369925804,152.47713025901248 151.11277928677737,151.66149252170726 151.0457083893998,149.56409021504805 151.06806535518263,149.20156921149464 151.1910286670318,148.99441342270802 151.06806535518263,148.8973089139581 151.06247611372964,147.5701990715679 149.70429044190678,139.39977003872264 149.36334671353688,138.42857142857247 149.70987968330155,139.27675237044605 151.0457083893998,147.43424966710518 151.11836852823035,151.40903109813735 151.023351423617,152.48360353246608 151.017762182164,154.36082498456744 151.93439777963795,159.84976101380744 152.0629503329401,160.22516618973168 153.4937961436226,160.14749633541942" stroke="#4DD2FF" stroke-linecap="round" stroke-linejoin="round" stroke-width="0.5"><title>2025-06-21 8.0km</title><desc>1750517001000</desc></polyline><polyline fill="none" points="179.49076682853047,161.5714285714348 177.5303762172698,149.5164110177284 174.08069661440095,149.44601428265742 167.8651945986785,148.84764087555232 167.98676921019796,148.21406677215418 167.74361998710083,146.9997099078755 168.07795016892487,139.06218144865124 168.0323596894741,138.49897265678737 167.72842316067545,138.42857142857974 167.34850249951705,148.19646745834325 167.92598190443823,148.26686470289133 167.956375557289,148.86524012306472 177.57596669660416,149.49881183667458 178.74612233275548,157.03109740812215 179.11084616743028,158.03420410265971 186.93721178622218,157.7878275597177" stroke="#4DD2FF" stroke-linecap="round" stroke-linejoin="round" stroke-width="0.5"><title>2025-06-19 5.0km</title><desc>1750345525000</desc></polyline><polyline fill="none" points="34.42857142855064,177.36508127365596 34.216149068350205,176.1027745243191 27.664596273301868,176.72422098223615 26.82049689439009,176.74364108604277 24.01428571427823,176.41997191361224 13.61677018631599,176.89252835151638 12.71677018632181,177.04141526796957 11.285714285710128,177.46865404710843 13.303726708050817,176.92489510217274 16.959627329197247,176.7630611839486" stroke="#4DD2FF" stroke-linecap="round" stroke-linejoin="round" stroke-width="0.5"><title>2025-06-17 5.1km</title><desc>1750166247000</desc></polyline><polyline fill="none" points="37.798029556521215,185.5189615162526 37.0,180.3900511385582 55.035467980313115,179.85867090658576 52.10270935972221,168.2835141261312 55.65394088672474,168.49145628869883 60.14285714284051,168.05246705516765 53.060344827594236,168.46835161338095 55.67389162571635,178.88832118167193 47.93300492607523,179.25797870957467" stroke="#4DD2FF" stroke-linecap="round" stroke-linejoin="round" stroke-width="0.5"><title>2025-06-16 3.2km</title><desc>1750084948000</desc></polyline><polyline fill="none" points="85.85714285710128,177.85554236619646 85.50253456219798,175.71588620523107 74.1270737326704,176.76410699220287 73.10057603684254,176.77491333812213 68.60264976951294,176.223788293064 62.71428571426077,176.50475436024863 68.41601382481167,176.21298189098889 73.09124423959292,176.75330064522132 82.74032258067746,175.94282148132334" stroke="#4DD2FF" stroke-linecap="round" stroke-linejoin="round" stroke-width="0.5"><title>2025-06-15 4.6km</title><desc>1749956754000</desc></polyline><polyline fill="none" points="111.57142857142026,177.7164604984282 111.28970385147841,175.85496807299933 101.37962252573925,176.7665282408925 100.34386987879407,176.78571888641454 95.98542274051579,176.29635620384215 88.42857142857974,176.641788949717 96.13457112165634,176.29635620384215 100.27758170937886,176.78571888641454 102.44023323617876,176.68017028768372 102.84624827370862,176.54583553634438 108.09958569894661,176.07566239708103" stroke="#4DD2FF" stroke-linecap="round" stroke-linejoin="round" stroke-width="0.5"><title>2025-06-14 5.1km</title><desc>1749906363000</desc></polyline><polyline fill="none" points="137.28571428573923,178.15982389906276 137.0074762578588,176.28346232761396 127.41644776726025,177.21217127232376 126.12345928474679,177.22164784642518 122.19539300873294,176.74781795947638 114.79753485554829,177.09845230809879 114.69933319868869,176.88049057122407 114.7402505557111,175.42108142995858 114.14285714286962,175.41160467237205 114.76480096991872,175.44003494224307 114.69933319868869,176.8710139623654 114.82208526978502,177.09845230809879 122.39997979393229,176.7383413371208 126.30349565573852,177.23112441954436 134.0777934936923,176.52985540068767 134.06961002227035,176.15078886396805 136.56556880180142,176.01811521104537" stroke="#4DD2FF" stroke-linecap="round" stroke-linejoin="round" stroke-width="0.5"><title>2025-06-12 5.9km</title><desc>1749735885000</desc></polyline><polyline fill="none" points="163.0000000000582,184.0662467206712 162.2622512623202,180.3517999107862 141.99019899021368,182.1533160692925 140.08167508168845,176.93444197202916 139.8571428571595,170.41528249756084 143.6421146421344,170.24812149508216 146.8657558656996,170.4524293661525 147.04217404226074,169.8580785595841 146.70537570538,169.7280640622048 139.95337095332798,169.50518185076362 140.09771309769712,176.74871416079986 140.65904365904862,178.86599998630118 141.76566676568473,181.50328651950986 150.74695574695943,180.72324799894704 150.92337392334593,181.42899728043994 162.21413721423596,180.33322748646606 162.9037719038315,184.01053057781246" stroke="#4DD2FF" stroke-linecap="round" stroke-linejoin="round" stroke-width="0.5"><title>2025-06-10 5.3km</title><desc>1749559786000</desc></polyline><polyline fill="none" points="166.17908048443496,170.62402553630818 165.62351302121533,168.37229299987666 165.57142857142026,166.62316159551847 181.31829385925084,166.22106022952357 182.03011467150645,168.85480927860772 181.50927017471986,168.83470445725834 181.35301682568388,169.19659092856455 181.68288500694325,171.06632712150167 181.59607759083156,172.3329125385062 182.16900653741322,174.86605897700065 183.64473261177773,174.80574634455843 185.83227949845605,183.22923213658214 185.8670024649473,183.6111955224187 185.31143500166945,183.7720219900075 185.81491801526863,183.63129883806687 185.98853284749202,183.95295160927344 185.5371342835715,184.0333647202351 185.69338763260748,184.7771844422823 186.7350766262971,187.4307887134346 187.46425892191473,187.35037698708766 188.71428571426077,186.66687599035504 187.39481298899045,186.94831786400755 185.05101275315974,177.60021228343248 184.77322902157903,176.796053479673 184.1482156253769,176.796053479673 183.67945557821076,174.74543369363528 183.17597256461158,174.94647579158482 182.1516450541676,174.80574634455843 181.57871610764414,172.49374820002413 181.4571857250412,169.51826723467093 180.5023041474633,166.14063985798566 165.62351302121533,166.66337168704194 166.24852641735924,170.74465333967237" stroke="#4DD2FF" stroke-linecap="round" stroke-linejoin="round" stroke-width="0.5"><title>2025-06-08 5.0km</title><desc>1749355299000</desc></polyline><polyline fill="none" points="34.42857142855064,204.5237524949116 34.0215362526651,202.61910464794346 26.561993641633308,203.24437206782022 24.31914675416192,203.56181394181476 23.07312070557964,203.56181394181476 19.127371551614488,203.08084098878317 11.285714285710128,203.427141762033 18.753563737031072,203.08084098878317 23.03158650395926,203.57143337585876 32.02789457491599,202.76339749710314" stroke="#4DD2FF" stroke-linecap="round" stroke-linejoin="round" stroke-width="0.5"><title>2025-06-07 5.3km</title><desc>1749293029000</desc></polyline><polyline fill="none" points="60.142857142869616,204.48823663841904 59.80117289989721,202.6546205044433 49.24229641442071,203.61968605366565 44.95874273366644,203.12750385257823 37.0,203.45562560422695 44.92540768557228,203.1082025376527 48.7339369309484,203.61968605366565 56.8926899532089,202.8765864517336" stroke="#4DD2FF" stroke-linecap="round" stroke-linejoin="round" stroke-width="0.5"><title>2025-06-05 5.1km</title><desc>1749128617000</desc></polyline><polyline fill="none" points="63.03824521927163,203.42494337260723 62.71428571426077,201.30300415929378 62.83577052864712,201.2092158874293 71.91676040494349,200.89267990535882 73.62767154100584,207.16461941220768 82.59730033745291,207.04739003413852 85.85714285710128,206.8480998172381 83.17435320583172,206.94188349170145 82.67829021369107,199.9782377306401 74.09336332953535,200.4823541876831 72.2508436445496,200.4237361084961 72.41282339702593,200.89267990535882 67.65466816641856,201.0333626716092" stroke="#4DD2FF" stroke-linecap="round" stroke-linejoin="round" stroke-width="0.5"><title>2025-06-03 5.2km</title><desc>1748952979000</desc></polyline><polyline fill="none" points="107.5669633182988,196.67230823548016 107.05928594915895,195.92089028828923 106.69941338372882,195.13226512245456 106.46806673452375,194.91650769802072 105.89612640725682,194.86442822426034 105.45913829206256,194.35851140458544 105.25992312192102,193.69635027427285 104.96431351455976,193.24250603358814 104.61086724488996,192.0 103.58908621084993,192.4389716113874 103.11354032077361,192.49105281398806 101.87969152489677,192.95234184496076 101.35273526835954,193.62938982587366 101.35273526835954,193.8005108498037 99.21920505884918,196.5160734569945 99.20635246721213,196.67230823548016 98.62155954836635,197.47579610575485 98.1138821792265,197.94449328360497 98.02391403788351,197.86265748505684 97.66404147239518,198.1751209501599 97.42626852734247,198.03376859572018 97.41984223158215,198.16768135938037 97.38771075248951,197.97425173311058 97.72187813470373,198.2123188927435 97.67046776821371,198.48014352031896 96.89931227080524,199.33568783831288 95.58192162940395,199.63326612297533 95.58192162940395,199.49935604484926 95.49195348803187,199.66302388480108 95.13208092257264,199.7448576673487 94.8171924277849,199.65558444547787 94.29023617124767,199.70022107003751 94.20026802984648,199.6183872375259 93.98820026809699,199.737418236371 93.35199698273209,199.51423495452764 93.26845513714943,198.5396599709129 93.0242558963073,198.3239126068438 91.8225385795231,198.6289345559635 91.37269787272089,198.90419717328768 91.88680153765017,201.12857866186823 92.6965148099116,203.61325920870877 94.40590949583566,210.29320910599927 94.64368244085927,210.98497304928605 96.66153932578163,215.06847846663004 96.91859115823172,215.14285714285506 97.80541998028639,214.86021777074347 98.40949178658775,215.0387269749699 99.51481466621044,214.8081525041125 99.49553577872575,214.36931521227234 99.79114538608701,214.28749779881764 100.32452793847187,214.53294976460893 100.72938457460259,214.33956343616592 100.8964682657097,214.5850152271887 101.93752818720532,214.81559040159482 102.54802628935431,214.70402185961575 103.16495068726363,214.2428700801538 103.27419771606219,213.37262412250857 103.73689101453056,212.73294954939774 103.61479139409494,212.09326938027516 103.76259619777557,211.78086540334334 103.44770770298783,211.43126889419364 103.24849253284629,210.91059014361235 103.17137698305305,210.1370034388019 103.58908621084993,209.8022758852967 104.22528949618572,210.06261967046157 104.57873576585553,210.04030452518782 104.66870390722761,209.55680803873838 104.52089910354698,208.96173105066555 104.39879948311136,208.9096615837625 104.52089910354698,208.85015357618977 104.37952059568488,208.805522538707 104.49519392027287,208.87246908470115 104.50804651193903,208.52285866867896 104.34096282083192,208.13605370705045 103.5826599150023,208.08398365208268 103.2292136453907,207.81619421215146 103.37701844904223,206.8045363642741 103.98109025534359,205.77054806768137 104.44378355378285,205.25726786972518 104.65585131559055,205.182879136235 105.11211831824039,204.55057184500765 105.9154052947124,203.7843568565222 106.62872412981233,202.89166907027538 106.42308266382315,202.47507770557422 105.78687937845825,202.46763855249446 105.7033375329047,202.2221460757355 105.94753677374683,201.63444861502649 106.23029378947103,201.36663554655388 106.49377191776875,201.40383186474355 106.60301894653821,201.26992503067595 106.37809859315166,200.75661322721135 106.68013449627324,200.12426764368138 106.96289151202654,199.96060083661723 107.20066445705015,200.05731308508257 107.16853297798662,199.87876729567506 107.88185181308654,199.55143221549224 107.94611477121362,199.35056678133697 108.56946546494146,198.97115278828278 108.62730212725,198.42806658627524 107.81116255914094,196.87318103131838 107.6826366429159,196.81366322344547" stroke="#4DD2FF" stroke-linecap="round" stroke-linejoin="round" stroke-width="0.5"><title>2025-06-02 11.5km</title><desc>1748829019000</desc></polyline><polyline fill="none" points="137.28571428573923,204.65368303933792 136.86178184847813,202.48917410351714 124.63518496492179,203.62722021961235 119.56726537406212,203.04704132501502 114.14285714284051,203.28134471027442 119.63470917090308,203.02472669073904 124.07636493397877,203.6049057035998 136.8425121922046,202.50033147582872 137.27607945760246,204.58674010533286" stroke="#4DD2FF" stroke-linecap="round" stroke-linejoin="round" stroke-width="0.5"><title>2025-06-01 4.9km</title><desc>1748740054000</desc></polyline><polyline fill="none" points="163.0,214.72385143525025 162.91619967238512,214.90175980686035 162.74859901709715,214.77237192004395 162.18993016635068,211.66703098724247 144.53599448228488,213.2035353978863 142.9018880937947,208.626325773992 142.83205448748777,202.86823498153535 142.44098629191285,200.70080959617917 139.8571428571595,192.2410973359947 141.5610828519566,197.90252258369583 142.02198465389665,198.77598163184302 142.77618760243058,202.02714804907737 143.5303905509063,202.23742020018108 142.7482541598729,202.22124542924576 142.9018880937947,208.09257895372866 143.43262350198347,210.27607732231263 144.35442710574716,212.55658798560034 144.59186136734206,212.7021513833315 152.16182429518085,211.92581171926577 152.37132511421805,212.54041426653566 158.39098198118154,211.9581592811155" stroke="#4DD2FF" stroke-linecap="round" stroke-linejoin="round" stroke-width="0.5"><title>2025-05-31 5.5km</title><desc>1748696141000</desc></polyline><polyline fill="none" points="187.0912801484228,209.95829673460685 186.56530612247298,206.5648224003089 167.5250463822158,208.27026921378274 165.76679035252891,203.25829535498633 165.57142857142026,197.2193675278104 172.03339517617133,197.2889817457617 165.66159554733895,197.18456040823366 165.7818181818002,203.17128062064876 166.2476808905485,205.0333862559346 167.41985157696763,207.71339049459493 184.28107606677804,206.0949514076201 185.78385899815476,206.00793811888434 185.85899814474396,206.65183540522412 188.71428571426077,206.42560150024656" stroke="#4DD2FF" stroke-linecap="round" stroke-linejoin="round" stroke-width="0.5"><title>2025-05-29 5.0km</title><desc>1748526381000</desc></polyline><polyline fill="none" points="25.3144668325549,228.08510624300106 24.800996151170693,223.88039108923113 33.49332125869114,223.45566766848788 34.428571428521536,226.87466663842497 33.41996830422431,223.54061242185708 24.764319673995487,223.94409952762362 25.002716775983572,226.04646706802305 24.672628480824642,223.96533566943253 12.312655648565851,225.11208411339612 14.164817749522626,234.392019889754 14.880009055836126,236.5579866025073 14.403214851627126,236.85527439434372 15.155082635115832,238.85133858454356 14.146479510935023,236.21822860682732 11.65247905801516,225.15455615684914 15.980303373304196,224.53871068033914 23.810731265461072,224.05028021507314 23.719040072406642,223.43443147469952 12.220964455511421,224.22016920243914 11.579126103548333,221.8629471297172 11.285714285681024,222.1177832340909 11.432420194614679,224.3900580512418 20.106407063547522,223.54061242185708" stroke="#4DD2FF" stroke-linecap="round" stroke-linejoin="round" stroke-width="0.5"><title>2025-05-27 6.0km</title><desc>1748352132000</desc></polyline><polyline fill="none" points="57.05890009761788,232.0817487099339 57.151155222934904,232.02070209643716 56.8546208916523,230.54030648025946 49.05906280508498,231.2881388520109 48.15628050768282,231.30340065937344 44.90758216730319,230.9218545420008 37.144972339767264,231.26524613513902 37.0,228.7317422153501 37.9225512528501,228.63253700435598 39.19435405143304,228.72411104994535 39.20094370323932,230.9218545420008 45.098682069656206,230.68529497276904 48.683452652127016,231.03631858136214 56.84144158803974,230.22743561870448 60.004474454937736,230.11297034267773 60.142857142869616,230.3647937189089 60.050602017581696,230.3953177069634 57.13138626751606,230.51741353470425" stroke="#4DD2FF" stroke-linecap="round" stroke-linejoin="round" stroke-width="0.5"><title>2025-05-25 7.6km</title><desc>1748179850000</desc></polyline><polyline fill="none" points="85.84197715783375,231.63479099710094 85.78131436061813,231.13427501382102 85.48558322410099,231.13427501382102 85.29601198274759,230.19470207025006 85.14435498966486,229.9839553302154 77.82690507394727,230.6074129428671 76.62881482869852,230.8269391973081 71.82128814826137,230.37910504489264 62.84319415842765,230.78303399118158 62.71428571428987,229.25511888005713 64.94364351246622,229.07949471718894 64.92847781314049,230.36154287384852 65.22420894962852,230.39666721237154 71.52555701180245,230.1244532142082 76.09043250326067,230.5196022844757 85.56899457031977,229.60636613177485 85.85714285713038,231.53820041973086" stroke="#4DD2FF" stroke-linecap="round" stroke-linejoin="round" stroke-width="0.5"><title>2025-05-24 6.6km</title><desc>1748094255000</desc></polyline><polyline fill="none" points="111.57142857142026,231.38831761352048 111.31967307475861,229.3259681007694 101.79026131000137,230.13579599497461 100.46621388278436,230.36254669604386 98.95568090252345,230.38414197556267 94.60124323703349,229.85505635933077 88.42857142857974,230.10340299804375 94.57327040407108,229.84425866618403 98.89973523654044,230.39493961370317 108.77414527453948,229.56351825800084" stroke="#4DD2FF" stroke-linecap="round" stroke-linejoin="round" stroke-width="0.5"><title>2025-05-18 4.7km</title><desc>1747565909000</desc></polyline><polyline fill="none" points="134.2777391517593,231.18576449273678 134.0259703079937,229.70498867584683 127.31434297165833,230.27275072218617 126.19463416631334,230.47223366783874 125.29356672530412,230.46456125661643 122.22596212834469,230.0655947960331 114.18923561408883,230.43387160396378 114.14285714286962,230.20369881013175 118.66807083555614,229.9121455943241 121.73567543251556,229.85843829983787 125.3200687088538,230.43387160396378 134.11210175452288,229.65128123353497 137.0736984172254,229.52852122154582 137.1929573432717,229.54386623399478 137.21283383094124,229.65128123353497 137.28571428571013,229.60524625251128" stroke="#4DD2FF" stroke-linecap="round" stroke-linejoin="round" stroke-width="0.5"><title>2025-05-17 5.7km</title><desc>1747487200000</desc></polyline><polyline fill="none" points="161.73531255347189,229.40039249367692 158.6705225369078,229.56074326597445 157.17505270958645,229.82799400833755 150.30696905805962,230.35180348808353 146.00518548069522,229.79592395521468 139.8571428571595,230.0417941119449 145.92210382362828,229.81730399173102 150.14080574392574,230.3411135248316 162.39996581000742,229.2721116993489 162.80614280019654,231.34596530674753 163.0000000000582,231.44217401494097" stroke="#4DD2FF" stroke-linecap="round" stroke-linejoin="round" stroke-width="0.5"><title>2025-05-11 5.0km</title><desc>1746965499000</desc></polyline><polyline fill="none" points="188.71428571426077,231.18862810328574 188.34074605445494,229.52565761100414 177.84013117436552,230.47730327328463 173.5734781717183,229.98706276765006 165.57142857142026,230.32350260463136 173.3742570198374,229.99667535105982 177.35868005733937,230.47730327328463 188.40715310513042,229.5448828709268" stroke="#4DD2FF" stroke-linecap="round" stroke-linejoin="round" stroke-width="0.5"><title>2025-05-10 5.3km</title><desc>1746870058000</desc></polyline><polyline fill="none" points="34.37804117277847,256.75275763992977 34.31908920771093,256.5869641833269 34.42857142855064,256.71374744067725 33.982220835925546,256.79176782324066 23.66562694948516,257.6987501023832 19.294759825308574,257.1818687818595 11.285714285710128,257.5134533462551 19.252651278860867,257.1818687818595 21.299126637517475,257.3476612076993 23.160324391763425,257.6889976504608 31.607298814720707,256.92830333968595" stroke="#4DD2FF" stroke-linecap="round" stroke-linejoin="round" stroke-width="0.5"><title>2025-05-05 5.4km</title><desc>1746434825000</desc></polyline></svg>