<?xml version="1.0" encoding="utf-8" ?>
<svg baseProfile="full" height="300mm" version="1.1" viewBox="0,0,200,300" width="200mm" xmlns="http://www.w3.org/2000/svg" xmlns:ev="http://www.w3.org/2001/xml-events" xmlns:xlink="http://www.w3.org/1999/xlink"><defs /><rect fill="#222222" height="300" width="200" x="0" y="0" /><text fill="#FFFFFF" style="font-size:12px; font-family:Arial; font-weight:bold;" x="10" y="20">Over 3km Runs</text><text fill="#FFFFFF" style="font-size:4px; font-family:Arial" x="10" y="280">Runner</text><text fill="#FFFFFF" style="font-size:9px; font-family:Arial" x="10" y="290">tang-hi</text><text fill="#FFFFFF" style="font-size:4px; font-family:Arial" x="65" y="280">SPECIAL TRACKS</text><rect fill="yellow" height="2.6" width="2.6" x="65" y="283" /><text fill="#FFFFFF" style="font-size:3px; font-family:Arial" x="70" y="285.5">Over 20.0 km</text><rect fill="red" height="2.6" width="2.6" x="65" y="287" /><text fill="#FFFFFF" style="font-size:3px; font-family:Arial" x="70" y="289.5">Over 40.0 km</text><text fill="#FFFFFF" style="font-size:4px; font-family:Arial" x="120" y="280">STATISTICS</text><text fill="#FFFFFF" style="font-size:3px; font-family:Arial" x="120" y="285">Number: 96</text><text fill="#FFFFFF" style="font-size:3px; font-family:Arial" x="120" y="290">Weekly: 3.8</text><text fill="#FFFFFF" style="font-size:3px; font-family:Arial" x="141" y="285">Total: 497.9 km</text><text fill="#FFFFFF" style="font-size:3px; font-family:Arial" x="141" y="290">Avg: 5.2 km</text><text fill="#FFFFFF" style="font-size:3px; font-family:Arial" x="167" y="285">Min: 3.0 km</text><text fill="#FFFFFF" style="font-size:3px; font-family:Arial" x="167" y="290">Max: 11.5 km</text><polyline fill="none" points="20.546337527717697,31.0 20.48780136401183,31.30856526975549 20.604873691365356,31.767647804270382 20.36422501844936,33.88240109736216 19.98699196364032,35.515461081580725 20.05203214546782,35.7111248396468 19.466670508671086,39.308235695985786 19.48618256323971,39.737168222993205 19.02439727197634,43.048142764368095 19.629270963341696,48.992475829902105 19.915447763574775,49.0 19.980487945431378,48.90970990831556 19.36260621767724,42.8675479677986 19.902439727185993,39.511414570966735 20.221136618376477,36.65180876952945 20.481297345802886,35.206913336100115 20.585361636825837,35.086504111204704 20.51381743676029,34.845685074222274 20.79349021881353,32.79869164972479 20.97560272802366,32.158994603407336" stroke="#4DD2FF" stroke-linecap="round" stroke-linejoin="round" stroke-width="0.5"><title>2025-10-26 5.1km</title><desc>1761476985000</desc></polyline><polyline fill="none" points="43.092813534341985,49.0 43.229931019217474,48.980167116627854 43.28991991883959,48.25626411621488 43.52987551741535,47.95876817567478 44.39542964080465,42.04832748921035 44.46398838321329,39.53925700086256 43.984077186119976,36.69292105444765 43.58129457425093,32.636500880660606 43.10138337709941,31.694276454225474 43.14423259111936,31.585176195825625 43.58129457425093,31.644685442806804 43.47845646060887,31.029754806550045 41.26743701664964,31.426484693060047 41.20744811699842,33.67789623672434 41.27600685946527,31.41656646557385 42.21011972532142,31.13885568621481 43.40132787532639,31.0 43.56415488861967,31.1983652054696 43.555585045862244,31.664521850383608 43.1528024339641,31.545503344335884 43.10138337709941,31.664521850383608 43.40989771814202,32.13067626746488 43.64985331671778,32.934043545494205 43.855529544031015,35.76065359596396 44.446848697640235,39.450000340424594 44.50683759726235,41.056607735059515 43.47845646060887,48.46451073503704" stroke="#4DD2FF" stroke-linecap="round" stroke-linejoin="round" stroke-width="0.5"><title>2025-10-25 5.0km</title><desc>1761405216000</desc></polyline><polyline fill="none" points="66.13775512512075,31.0 66.22244900729856,31.70108673811046 66.0921507270541,32.89970355779951 65.81852433847962,34.83704955071153 65.61004709004192,35.50794746092288 65.66868131616502,35.71901521203108 65.08233905496309,39.29199961258564 65.12142853907426,39.631198051596584 64.6588696441031,42.81205020267953 64.66538455811678,43.70899571963673 64.76310826832196,43.96526387659833 64.67189947213046,44.048173973249504 65.2582417333033,49.0 65.60353217602824,49.0 65.62959183208295,48.653307560998655 65.32990578748286,46.264100425643846 65.3755101855786,46.08321094983694 65.03021974285366,43.96526387659833 65.03673465686734,42.638689735220396 65.55141286391881,39.5105943397939 65.93579279072583,36.2919103672466 66.21593409328489,35.08581015760137 66.15729986719089,34.87474060537352 66.43744116974995,32.76401205964066 66.74364212836372,32.22124358529982 66.76970178444753,31.71616379948682" stroke="#4DD2FF" stroke-linecap="round" stroke-linejoin="round" stroke-width="0.5"><title>2025-10-23 5.2km</title><desc>1761220332000</desc></polyline><polyline fill="none" points="88.33689506378141,48.45722904626018 88.39127964526415,47.92232061498362 88.5408372443344,47.788592929668084 88.7719717156142,45.89278147974983 88.86714473320171,45.798383015622676 89.31581753035425,42.368494068970904 89.34300982111017,41.33005734877224 88.92152931468445,38.600161024827685 88.64280833458179,35.610538720633485 88.23492397350492,34.76870317724388 88.2757124096097,34.674291143222945 88.62241411654395,34.737232512037735 88.46605844478472,33.16368293099367 88.15334710126626,32.786026269466674 88.16694324667333,31.873348393346532 87.79984732170124,31.0 88.14654902860639,31.810404694675526 88.11935673787957,32.738819057172805 88.45926037212485,33.13221161293768 88.59522182581713,34.721497174628894 88.26211626426084,34.61134972322179 88.22132782815606,34.75296784622333 88.44566422671778,35.08340912525455 88.62921218923293,35.68134690012084 88.91473124196636,38.68670100298914 89.32261560307234,41.33005734877224 89.20704836741788,43.27318137000111 88.45246229943587,48.44936277256784 88.1737413193623,48.45722904626018 88.241722046223,48.693216885039874 88.15334710126626,49.0" stroke="#4DD2FF" stroke-linecap="round" stroke-linejoin="round" stroke-width="0.5"><title>2025-10-21 5.1km</title><desc>1761051395000</desc></polyline><polyline fill="none" points="112.44119836663594,31.106521599453117 112.15845188393723,31.0 111.95461139638792,31.281521040968073 111.88228090081248,32.483680063145584 111.36281643260736,35.33682833637431 111.42199592897668,35.51942612497078 110.83677646477008,39.20171985210618 110.86965396275627,39.60493523449986 110.41594449052354,42.89144005118578 111.02089045351022,49.0 111.63241191609995,48.901110716338735 111.37596743178437,48.825041947835416 110.7710214687977,43.08923435230099 111.11294744786574,40.122264999125036 111.3102124358411,39.41473956988193 111.84282790322322,35.24552927513287 111.98091339480015,34.94119826715905 111.92830939800479,34.66729930260772 112.23078237951268,32.44563735180418" stroke="#4DD2FF" stroke-linecap="round" stroke-linejoin="round" stroke-width="0.5"><title>2025-10-19 5.0km</title><desc>1760870639000</desc></polyline><polyline fill="none" points="137.16058716434054,31.63629756296723 137.3186557762092,31.590021502044692 137.38781079393812,31.20824324851128 136.26157193427207,31.0 136.0343483046745,31.150397941702977 135.609538910212,32.06435019295168 135.77748681040248,32.73534822323563 135.14521236286964,33.383204463090806 135.37243599246722,33.672424753021915 134.3943864564062,32.81633046421484 133.8312670266023,32.469263292667165 133.66331912647001,32.63122811052017 133.3471819027327,32.34200505231274 131.43059998360695,35.77792528907594 131.43059998360695,36.61085930695117 131.80601293680957,37.20085037785611 134.7006443919381,38.88982673395367 132.9816482376773,49.0 134.5722136447439,39.30628262775281 131.73685791913886,37.698291343753226 131.18361777754035,37.02732392444159 131.2725313716801,36.44890041400504 133.2977854614728,32.38828079330415 134.2066799798049,33.07084568625578 134.58209293300752,32.94358814966836 135.38231528067263,33.6492871581213 135.13533307460602,33.325360312832345 135.77748681040248,32.71221042901743 135.56014246901032,32.06435019295168 135.98495186347282,31.185105129508884 136.222054781334,31.0 137.35817292920547,31.16196700555156 137.3779315056745,31.32393376989785" stroke="#4DD2FF" stroke-linecap="round" stroke-linejoin="round" stroke-width="0.5"><title>2025-10-18 5.0km</title><desc>1760792768000</desc></polyline><polyline fill="none" points="157.5680850223289,31.0 157.69597310639801,31.11098773541744 157.62563466015854,31.72511681359174 157.70876191480784,32.13206696400448 157.2867312374292,34.98065434300952 157.0885047071206,35.72052894018998 157.15884315336007,35.898097725097614 156.5897411793121,39.41978919109533 156.61531879616086,39.78970488326013 156.1804993103433,42.91911647303641 156.20607692716294,44.12497678431828 156.74320688017178,48.963013191380014 157.09489911131095,49.0 157.12687113235006,48.86684740111377 156.81993973063072,45.885644951638824 156.51940273310174,44.01400887784985 156.51300832888228,42.86733061391715 156.81993973063072,40.5961145809124 157.04374387770076,39.39019585456845 157.13326553656952,39.39019585456845 157.01816626093932,39.323610803425254 157.44659134247922,36.23103802994592 157.57447942654835,35.48376988686505 157.69597310639801,35.320997591239575 157.62563466015854,35.084237239090726 157.9133828492777,32.886768496107834 158.10521497536683,32.48722160048783" stroke="#4DD2FF" stroke-linecap="round" stroke-linejoin="round" stroke-width="0.5"><title>2025-10-16 4.6km</title><desc>1760619242000</desc></polyline><polyline fill="none" points="179.7656063369941,49.0 179.77260316276806,48.45754932039563 179.95452063257108,48.23085241978697 180.64020955716842,43.56723019464698 180.75215876934817,41.470130522611726 180.01749206442037,35.68055330423522 179.6256698218058,34.878886363199854 179.71662855669274,34.741225571553514 180.03848254171317,34.78981176049274 179.88455237494782,33.21884330229659 179.5417079126346,32.7896558077191 179.5836888672202,31.979861782201624 179.21985392761417,31.0 179.56969521570136,31.834097983009997 179.5626983899565,32.80585160422925 179.88455237494782,33.21884330229659 180.0314857159392,34.78171406438196 179.75161268550437,34.72503016865085 179.63966347332462,34.814104843833775 180.03848254171317,35.63196765874454 180.26937779181753,38.15028456867003 180.78014607238583,41.704943655393436 180.78014607238583,42.56322025186091 180.28337144336547,46.19055128774198 180.0734666704957,47.34025120863953 179.75860951124923,47.79364943283872 179.83557459461736,48.36848990065482 179.6606539505883,48.96761498844717" stroke="#4DD2FF" stroke-linecap="round" stroke-linejoin="round" stroke-width="0.5"><title>2025-10-14 5.0km</title><desc>1760442162000</desc></polyline><polyline fill="none" points="20.590672441845527,51.0 20.51320720356307,51.522883715202624 20.61003875141614,51.918778911327536 20.56485069572227,52.35948992386693 20.203346250462346,54.66757733162376 20.016138591308845,55.14561874006904 19.91285160696134,56.60960121928656 19.428693867725087,59.39556899483432 19.473881923418958,59.75407728993014 19.015545930276858,63.070196170061536 19.596535217337077,68.98506406692468 19.91285160696134,69.0 19.96449509912054,68.85810851336282 19.344773192948196,62.920824661661754 19.770832003443502,59.74660838495038 19.887029860838084,59.61216796544613 20.274356052221265,56.25854685304512 20.54548438618076,55.205373697586765 20.47447458442184,54.98129235650413 20.752058354904875,52.971999146997405 20.984454069723142,52.0980515063784" stroke="#4DD2FF" stroke-linecap="round" stroke-linejoin="round" stroke-width="0.5"><title>2025-10-12 5.0km</title><desc>1760269757000</desc></polyline><polyline fill="none" points="43.46870404359652,51.0 43.48164713749429,52.32544108592265 43.10629741457524,54.84895511166542 42.95745183477993,55.14847626286064 42.944508740882156,55.92722555983346 42.381484156503575,59.35661976530537 42.413841891277116,59.723510571617226 41.9673051519203,62.87570124598278 41.9673051519203,63.75170180210989 42.543272830196656,69.0 42.91862255311571,68.94010712039017 42.27793940535048,63.01047123972239 43.371630839421414,55.34316435844812 43.49459023139207,55.16345228847058 43.43634630885208,54.89388336194679 43.74698056234047,52.66241383264423" stroke="#4DD2FF" stroke-linecap="round" stroke-linejoin="round" stroke-width="0.5"><title>2025-10-11 5.0km</title><desc>1760186515000</desc></polyline><polyline fill="none" points="66.29857802705374,51.0 66.31784041100764,51.661242225862225 66.40131074140663,51.787546240506344 66.35636517888634,52.54536574674421 65.98395908941166,55.00451024670474 65.84912240185076,55.24224792933819 65.84912240185076,55.933168682553514 65.3547212141275,59.26881253547617 65.2519884997746,59.4693920607242 65.2840924730117,59.93740881382837 64.86032002640422,62.983158971699595 65.05936466043931,65.79107969695178 65.45745392845129,69.0 65.89406796437106,68.96286052370851 65.2519884997746,64.08999773445248 65.1942013479711,62.91630240272934 65.61797379460768,59.89283591874846 65.73996889288537,59.63282682272256 66.18300372341764,56.000031634837796 66.38846915209433,55.27939437243913 66.32426120564924,55.049086121071014 66.56825140217552,53.37747223654151" stroke="#4DD2FF" stroke-linecap="round" stroke-linejoin="round" stroke-width="0.5"><title>2025-10-10 5.0km</title><desc>1760093219000</desc></polyline><polyline fill="none" points="88.83312077409937,69.0 89.97802416083869,60.558792945848836 89.89624534751056,58.84585372029687 89.31561577279354,54.21792108262889 89.57730797547265,54.63434979901649 89.56913009413984,53.564881389655056 90.20700483815745,53.72577565238316 89.56095221280702,53.55541701258335 89.52824068747577,54.161135204238235 89.71633195813047,54.60595699114492 89.34832729812479,54.823634963344375 89.39739458615077,55.29684619026375 88.9803226381191,55.344167180664954 88.60414009678061,52.48593620691099 88.17889026738703,51.70984509639675 88.23613543677493,51.54894734903064 88.62867374077905,51.66252225840435 88.60414009678061,51.113575579205644 88.44058247009525,51.0 86.93585230468307,51.24608024649933 88.43240458873333,51.04732317484013 88.62049585941713,51.21768640508526 88.63685162211186,51.63412854405033 88.24431331807864,51.53001818397024 88.20342391141457,51.70038053073222 88.68591891010874,52.78879927516391 89.01303416345036,56.40415106108412 89.46281763678417,59.139232288369385 89.52006280614296,60.41683785411442 88.66956314741401,66.53017443662975" stroke="#4DD2FF" stroke-linecap="round" stroke-linejoin="round" stroke-width="0.5"><title>2025-10-08 5.0km</title><desc>1759920144000</desc></polyline><polyline fill="none" points="112.08078264351934,51.0 112.07009065640159,52.051619571044284 112.25185443769442,52.10110732708563 112.15562655351823,53.33829469135526 111.54618328704964,57.48278077421128 111.33234354440356,57.97763535741251 111.18265572463861,60.34053826719901 110.61598040669924,64.11366513749817 110.35937271552393,64.91775903272355 110.40214066399494,65.57340089532954 109.92100124317221,69.0 110.37006470264168,64.93012966657989 110.48767656111158,64.73219937422982 111.11850380181568,64.73219937422982 111.98455475934315,58.64568585500092 112.2304704634007,58.02712070514826 112.13424257922452,57.655980107076175 112.74368584569311,53.177461044899246 112.93614161398727,53.00425534185342" stroke="#4DD2FF" stroke-linecap="round" stroke-linejoin="round" stroke-width="0.5"><title>2025-10-07 3.0km</title><desc>1759844077000</desc></polyline><polyline fill="none" points="134.91111290131812,51.0 134.98848180219647,51.04476303512638 134.89821808447596,51.611759117666224 135.00137661900953,51.64906133803015 134.93690253494424,52.45478467189969 134.5822950724978,54.86444151183241 134.4340046790894,55.19268585972168 134.3243987361493,56.7294467011161 133.96979127373197,59.12404391678865 133.8472905139206,59.37767269397591 133.8924223728245,59.750654598763504 133.4539986010641,62.68968574330211 133.42820896743797,63.76382006708445 134.00847572414204,69.0 134.3888728202437,68.94778922160913 134.09229203345603,66.29990823429398 134.14387130070827,66.09105722273671 133.7828164298844,64.0845654656805 133.75702679622918,63.21183633473265 135.1432196040114,53.42462510673067" stroke="#4DD2FF" stroke-linecap="round" stroke-linejoin="round" stroke-width="0.5"><title>2025-10-06 5.0km</title><desc>1759755043000</desc></polyline><polyline fill="none" points="160.87764885748038,68.89656125801412 160.9394539212808,69.0 161.56633385445457,68.85518573033914 161.71643186669098,68.58624437088292 160.9836003954988,66.9518923999276 161.09838122833753,66.79673097288469 159.82696277223295,64.04516048127698 159.2089121339377,63.22794971503754 158.98817976308055,62.44176577728649 158.98817976308055,61.04523913684534 160.43618411576608,60.66248388355598 160.4450134106446,60.38317504360748 157.35476021887735,57.714183378186135 155.44763253477868,55.458931670495076 155.08563144662185,54.786484094001935 153.1343572883634,52.386325524894346 152.56928241904825,51.0 153.36391895404086,52.6035837004747 154.84724048612406,54.32094073515327 155.50060830375878,55.407205099239945 157.69910271739354,57.9003944802389 158.89105751988245,58.67627022733359 160.25959821912693,60.207313509883534 160.13598809146788,60.46593330218457 158.6703251490835,60.79696563098696 158.89988681476098,61.24178854535421 158.88222822506214,62.34866462622449 159.0588141217595,63.0831268364127 159.99471937411,64.60375628779002 160.87764885748038,66.68294576885091 157.85803002439206,67.74838382213784" stroke="#4DD2FF" stroke-linecap="round" stroke-linejoin="round" stroke-width="0.5"><title>2025-10-04 5.0km</title><desc>1759568734000</desc></polyline><polyline fill="none" points="179.80240777714062,51.50442067741824 179.81652150733862,51.28942210126115 179.35076841060072,51.16538419009885 177.01494606173947,51.0 179.3225409502047,51.18192258972704 179.83769210265018,51.339037210193055 179.81652150733862,51.578843122624676 180.26110400876496,52.141143734123034 180.16230789734982,52.25691100109543 180.23287654839805,52.538059358681494 180.40224131083232,52.728247375707724 182.98505393826053,59.36799758615962 179.87297642815975,60.51728644247487 180.23287654839805,62.113033389570774 180.91033559819334,64.27096022650949 181.20672393246787,65.93277102836146 181.714818219858,67.0984976675245 181.5172259969986,67.30518496040895 181.67953389431932,67.5862787954029 181.81361433127313,68.30554367879813 181.7289319500269,68.12366123453103 181.51016913185595,68.05752205820318 181.28434944860055,68.17326557980414 181.22083766269498,68.38821737621765 181.53839659228106,68.95039618311421 181.79950060107512,69.0 181.9688653635094,68.81811918313178 181.9547516333114,68.56183185413829 181.67247702923487,68.09885905000556 181.46782794126193,68.04098725530639 181.305520043883,68.14019601978362 181.24200825797743,68.47089098555443 181.5454534573655,68.95039618311421 181.8488986567536,68.97519809551886 181.99003595882095,68.61970326044684 181.73598881514044,68.16499819111777 181.39020242512925,68.06578945832734 181.22789452777943,68.42128683051124 181.3831455600448,68.77678257440857 181.6230789734982,68.99173269939638 181.88418298229226,68.95039618311421 181.9970928239345,68.74371327157132 181.81361433127313,68.24767203822557 181.52428286205395,68.05752205820318 181.2631788533181,68.181532967581 181.29846317879856,68.60316857734142 181.63013583861175,69.0 181.96180849839584,68.83465382046415 181.9688653635094,68.59490123445721 181.64424956880976,68.09059165341023 181.39020242512925,68.07405685756385 181.249065123091,68.1980677405154 181.33374750433723,68.62797060067533" stroke="#4DD2FF" stroke-linecap="round" stroke-linejoin="round" stroke-width="0.5"><title>2025-10-02 5.0km</title><desc>1759403720000</desc></polyline><polyline fill="none" points="19.624950193130644,89.0 20.049534880148713,86.30598840441962 20.25475081219338,86.18315898112633 20.69348832211108,82.9649613682268 20.743023202230688,81.44998923863022 20.26890363509301,78.4117700831921 20.021229234320344,75.67645589262975 19.915083062573103,75.26696972662467 19.589568135881564,74.74282439627859 19.674485073279357,74.61178753072454 20.007076411420712,74.66911618563608 19.851395359495655,73.07208839061059 19.51172760987538,72.65439897367469 19.554186078574276,71.7944433527664 19.249900386261288,71.0 19.561262490053196,71.85996410420194 19.51172760987538,72.62982894051675 19.851395359495655,73.07208839061059 20.007076411420712,74.66911618563608 19.667408661800437,74.61997734105535 19.624950193130644,74.74282439627859 20.035382057219977,75.65188678137201 20.750099613709608,81.68747323912248 20.63687703051255,83.52999773333431 19.900930239644367,88.41043677189737 19.787707656476414,88.41862517959089 19.72401995342807,88.65608864113892" stroke="#4DD2FF" stroke-linecap="round" stroke-linejoin="round" stroke-width="0.5"><title>2025-09-30 5.0km</title><desc>1759224370000</desc></polyline><polyline fill="none" points="42.58752271119738,89.0 42.62954143524985,88.4327499938372 42.79061321076006,88.31929950841004 43.49092527819448,83.67579471338831 43.62398457102245,81.92529340171313 42.91666938288836,75.9360190298321 42.78361009006039,75.39299085007951 42.48247590105166,74.87427391026722 42.53149774580379,74.77701410824375 42.888656900206115,74.83374900717172 42.72058200399624,73.17221024011815 42.3844322116056,72.80747758188954 42.41944781498751,71.94832294592197 42.083298022596864,71.0 42.39843845294672,71.76190137755475 42.39143533227616,72.79937239275023 42.7275851246668,73.2046308400968 42.90266314151813,74.80132906987274 42.818625693413196,74.86616893129394 42.53149774580379,74.76080412969168 42.48947902175132,74.85806395149848 42.90266314151813,75.81444587815349 43.09875052041025,78.25397831849841 43.5959720883111,81.25263684258243 43.63098769169301,82.45206867228262 42.80461945210118,88.48137158103782 42.643547676561866,88.5299931385889 42.566513349156594,88.9108609805262" stroke="#4DD2FF" stroke-linecap="round" stroke-linejoin="round" stroke-width="0.5"><title>2025-09-28 5.0km</title><desc>1759056716000</desc></polyline><polyline fill="none" points="66.25857430684846,71.0 66.30393168955925,71.6298117194674 66.40112608106574,71.63730944564304 66.34280944612692,72.38707821701246 65.95403188004275,74.89125070165028 65.81795973193948,75.18364853528328 65.81795973193948,75.89589482058364 65.23479338278412,79.43453235110064 65.28663039160892,79.75689979613526 64.8265769383579,82.94301394087233 64.85249544278486,84.14245657841093 65.40974328751327,88.94003227640496 65.79852085362654,89.0 65.4810191746219,86.33138915974268 65.53933580956073,86.1664718422544 65.19591562615824,83.92505904631253 65.16999712176039,82.93551736311201 66.21321692413767,75.52102921147161 66.36872795055388,75.23613007509994 66.31041131564416,75.01870631001657 66.60199449022184,72.7469645213423" stroke="#4DD2FF" stroke-linecap="round" stroke-linejoin="round" stroke-width="0.5"><title>2025-09-27 5.0km</title><desc>1758971882000</desc></polyline><polyline fill="none" points="88.29781428270508,89.0 88.36797179264249,88.45608108815213 88.55038131843321,88.26124356216314 89.3501769315917,82.13985596117709 88.58546007340192,75.66886058036471 88.19959376880433,74.8812632417903 88.25571977673098,74.7757083689794 88.53634981645155,74.89750244061725 88.59949157538358,74.84066523029469 88.44514505355619,73.24108714931936 88.10137325490359,72.80261852627154 88.1364520099014,71.90131435039075 87.78566446024342,71.0 88.14346776084858,71.88507454222417 88.12242050789064,72.84321757399448 88.47320805754862,73.29792549823469 88.61352307739435,74.83254562551883 88.25571977673098,74.7757083689794 88.23467252380215,74.90562203877926 88.64860183233395,75.87996782517439 88.94326337400707,78.96531772155868 89.35719268259709,81.80698191402189 89.26598791967263,83.41450716850522 88.52933406547527,88.30995298819471" stroke="#4DD2FF" stroke-linecap="round" stroke-linejoin="round" stroke-width="0.5"><title>2025-09-25 5.0km</title><desc>1758803583000</desc></polyline><polyline fill="none" points="111.96314085341874,71.0 111.96962048279238,72.39457586595381 111.40589272568468,75.64848373136192 111.39941309631104,76.65311754227878 110.8875223743089,79.40454460914043 110.92640015066718,79.74940289370716 110.46634646382881,83.11543501838605 110.68665386317298,85.96407281215215 111.06895199729479,89.0 111.43829087264021,88.94003227636858 110.79680756281596,83.07045564542932 112.39079639330157,72.29710636640084" stroke="#4DD2FF" stroke-linecap="round" stroke-linejoin="round" stroke-width="0.5"><title>2025-09-23 5.1km</title><desc>1758638106000</desc></polyline><polyline fill="none" points="134.1464044029708,89.0 134.06281847332139,88.96776003399282 134.0837149557483,88.29877778245282 134.23695582675282,88.15369654965616 134.5712995453796,86.17089310484153 135.05888413504,81.90689175949956 134.30661076816614,75.65959484272025 133.91654309642036,74.85345615795086 134.00012902606977,74.75671896491986 134.32750725056394,74.78896470904874 134.1742663795012,73.19278463096998 133.83992266090354,72.81388868039357 133.85385364916874,71.84648654937337 133.49164795401157,71.0 133.86778463749215,71.91904211871588 133.84688815503614,72.82195031522133 134.1812318736629,73.17666143591487 134.1603353912651,73.71678668488312 134.34143823885825,74.78090327423706 134.00709452020237,74.7405960879405 133.95137056711246,74.84539472969482 134.36930021538865,75.82082159604761 134.6618509691616,78.91631168380263 135.0797806174378,81.67313080356689 134.96136721712537,83.44647256533062 134.33447274469654,87.5975493656515" stroke="#4DD2FF" stroke-linecap="round" stroke-linejoin="round" stroke-width="0.5"><title>2025-09-21 5.0km</title><desc>1758459157000</desc></polyline><polyline fill="none" points="148.16116843483178,74.37475195724983 148.1428571428405,74.90446356074972 148.71966283972142,74.87268094040337 148.87530882138526,74.99981136353017 149.2049120767624,74.8832751482405 151.58538003196009,74.87268094040337 151.79595988953952,74.99981136353017 153.46228745824192,74.98921716754558 153.70948989974568,75.10575326441904 154.29545124259312,74.95743457304343 157.37174829246942,74.95743457304343 158.97398633917328,74.98921716754558 159.1479436128866,75.12694163167907 160.31986629852327,75.04218813683838 166.1428571428405,75.22228923106013 165.56605144607602,79.56580963526358 165.25475948269013,80.0425264659134 159.1754105508444,80.01074541168782 158.8366516495007,85.62524804275017 159.13878796692006,80.38152377513325 164.47652957419632,80.4133047163632 165.26391512865666,80.56161564741342 165.54774015402654,79.62937200527813 165.7674756576307,77.84961099945212" stroke="#4DD2FF" stroke-linecap="round" stroke-linejoin="round" stroke-width="0.5"><title>2025-09-20 5.0km</title><desc>1758380898000</desc></polyline><polyline fill="none" points="180.6243635523715,71.0 180.50850227460614,71.14151495879923 180.51493901226786,71.6479873094504 180.61149007704807,71.7075720618086 180.55355943820905,72.43748134750058 180.16735517900088,74.97721109895065 179.98068978704396,75.64750632859068 180.01287347532343,76.16139518770797 179.56230183958542,79.22231072484283 179.45287729948177,79.37870443778229 179.49793446302647,79.73617452901817 179.06023630258278,82.90119827391027 179.09241999086225,84.10014806473919 179.62666921608616,89.0 179.9485060987936,88.99255366486614 180.01931021295604,88.90319758416445 179.74253049385152,86.01395897911425 179.40782013587886,83.98099865214317 179.40782013587886,82.7522590429653 180.43769816041458,75.48365694951644 180.5793063887977,75.23043446155498 180.52137574992958,75.021897638253 180.93976369741722,72.2661767597092" stroke="#4DD2FF" stroke-linecap="round" stroke-linejoin="round" stroke-width="0.5"><title>2025-09-18 5.2km</title><desc>1758195038000</desc></polyline><polyline fill="none" points="19.60396677427343,108.8458937524847 19.589947899017716,109.0 19.751164964371128,108.96755660420604 19.821259340591496,108.38357322482625 19.97546696831705,108.27813132595475 20.683420168294106,103.4276533905213 20.788561732682865,102.03247805531282 20.03855190690956,95.70521397983248 19.63901396235451,94.8858777071946 19.709108338633087,94.73174420068972 20.045561344566522,94.80475484616909 19.905372592096683,93.23906746844295 19.547891273279674,92.8172189821853 19.58293846138986,91.92483983356215 19.211438267317135,91.0 19.60396677427343,91.95729015932011 19.58293846138986,92.8253314741014 19.905372592096683,93.21473011639318 20.052570782165276,94.8128671359882 19.709108338633087,94.74796879437054 19.660042275238084,94.87776542481879 19.99649528117152,95.46995987161063 20.122665158414748,96.07026208472962 20.346967162389774,98.60932824826159 20.781552295025904,101.46466715620772 20.788561732682865,102.73006877187436 20.431080413836753,105.33381282278424 20.28388222376816,106.22604202100047 20.108646283188136,106.38826443997095 19.92640090495115,108.05102522452944 19.76518383959774,108.45657138088427" stroke="#4DD2FF" stroke-linecap="round" stroke-linejoin="round" stroke-width="0.5"><title>2025-09-16 5.1km</title><desc>1758026219000</desc></polyline><polyline fill="none" points="43.61117726744851,91.0 43.450058803719,91.07457414198143 43.43072458804818,91.55184685628774 43.54672988198581,91.68607924797107 43.501616712106625,92.41689574021439 43.121377137693344,94.97469615956652 42.99248236665153,95.19840624316566 42.85069811862195,97.1521119962199 42.41890063576284,99.40402892921702 42.45112432847964,99.80668229299772 42.00643736857455,103.25151525310503 42.61224279223825,109.0 42.966703412501374,108.92544406375237 42.34156377313775,102.97563631591038 42.70891387047595,100.26898528364109 42.889366549876286,99.61281243054691 43.24382717011031,96.52573871555069 43.43072458804818,95.39974473546317 43.540285143390065,95.22823420279019 43.49517197353998,94.84792680956889 43.70784834571532,93.4236208282091" stroke="#4DD2FF" stroke-linecap="round" stroke-linejoin="round" stroke-width="0.5"><title>2025-09-14 5.0km</title><desc>1757842188000</desc></polyline><polyline fill="none" points="66.20612353199976,91.0 66.3161398859811,91.97349012749328 65.87607447011396,94.92383551284001 65.68839951333939,95.59026773840014 65.74017191521125,95.8673220589917 65.41012285332545,98.34578870957921 65.17067549464991,99.39405768526922 65.20303324586712,99.79089847931755 64.75649627976236,103.10780496994994 64.97652898769593,105.98283569532214 65.35835045142449,109.0 65.74017191521125,108.91764727800182 65.08007379141054,103.14524098618858 66.67207514881738,92.16069829320622" stroke="#4DD2FF" stroke-linecap="round" stroke-linejoin="round" stroke-width="0.5"><title>2025-09-13 5.1km</title><desc>1757760467000</desc></polyline><polyline fill="none" points="89.25598878844175,91.0 89.22369821215398,92.4123634671414 88.86204375789384,94.88580239901785 88.71996522226254,95.18470177277777 88.55851234088186,96.97060022211372 88.13873484928627,99.42894181154406 88.17748354084324,99.72782272592303 87.72541547298897,102.93324419247801 87.73833170346916,103.76259623710939 88.31310396120534,109.0 88.69413276127307,108.9477025181186 88.43580815102905,106.09369786738534 88.08061181200901,103.99421540850017 88.05477935099043,103.14245099525579 89.09453590709018,95.62557613203535 89.24953067320166,95.19964670958143 89.1978657511645,95.00536229426507 89.41744166985154,93.4734864293714" stroke="#4DD2FF" stroke-linecap="round" stroke-linejoin="round" stroke-width="0.5"><title>2025-09-11 5.0km</title><desc>1757592265000</desc></polyline><polyline fill="none" points="111.06855865349644,108.92719921069511 111.20836943993345,108.85439835482248 111.22934105791501,108.32861241891078 111.39012346233358,108.21536576279323 111.48799101283657,107.64104095492803 111.70469773182413,105.59446956736792 112.13811116977013,103.15954731519741 112.19403548433911,101.476899708563 111.46002885550843,95.6278045622239 111.06156811414985,94.87540011727106 111.1314735073829,94.74595347390277 111.4740099341725,94.77022473557736 111.32021806907142,93.2411207896439 110.97768164228182,92.79613793038152 111.02661541756243,91.98707180973724 110.66310737279127,91.0 111.01962487821584,91.8818926097083 110.98467218162841,92.8365910204302 111.32021806907142,93.20875848379364 111.46701939485501,94.7944959898523 111.12448296806542,94.74595347390277 111.06156811414985,94.85112888769072 111.29924645108986,95.1666542948442 111.49498155215406,95.765340089456 111.79557474300964,98.98522156006948 112.19403548433911,101.59015595259552 112.13811116977013,103.25662205327535 111.29924645108986,108.95146614787518 111.14545458601788,109.0" stroke="#4DD2FF" stroke-linecap="round" stroke-linejoin="round" stroke-width="0.5"><title>2025-09-09 5.2km</title><desc>1757417515000</desc></polyline><polyline fill="none" points="134.91537988357595,91.0 134.863715014013,91.56793777661369 135.01225151403924,91.60530195025785 134.9218379922968,92.52445464474295 134.5795582314022,94.80360485976416 134.41164740527165,95.25942642801965 134.1985298183281,97.5683808144895 133.82395951397484,99.47377402829443 133.8562500574335,99.8697907370879 133.42355677479645,102.93324419442797 133.410640557413,103.84478377026971 133.66250679656514,106.18335414879402 134.00478655745974,108.95517358923826 134.379356861813,109.0 134.36644064440043,108.70862784209021 134.56664201401873,108.52185021105834 134.56664201401873,108.41725453061372 134.25665279658278,108.1931204291177 133.75937842697022,103.12750767386751 134.7410109488119,96.04403070845001 134.95412853578455,95.30426118378819 134.88954744880903,95.02030726904195 135.16078801403637,93.05501723112684" stroke="#4DD2FF" stroke-linecap="round" stroke-linejoin="round" stroke-width="0.5"><title>2025-09-07 5.0km</title><desc>1757247375000</desc></polyline><polyline fill="none" points="156.668521603744,108.94265544975497 156.83135320676956,109.0 156.87383101621526,108.4265526622039 157.07914042868651,108.11525097064441 157.75878538022516,103.56847084360197 157.88621880864957,101.83161506291071 157.11453860322945,95.51471545678942 156.70391977834515,94.73633428722678 156.77471612746012,94.62981838441192 157.11453860322945,94.68717311880027 156.96586627006764,93.08941881715145 156.63312342920108,92.65515191567101 156.668521603744,91.83577402903029 156.39949547708966,91.0 156.668521603744,91.75383578204492 156.64020306413295,92.6469581780475 156.9729459049704,93.04025664390065 157.13577750796685,94.6707860559909 156.7605568576546,94.60523777145136 156.72515868305345,94.71994723441458 156.98710517477593,95.11323558195 157.15701641270425,95.71135793098802 157.41188326952397,98.48888162234653 157.8791391737468,101.66775881198555 157.8791391737468,102.6426985995713 157.39064436481567,106.13272251950548 157.0366626192117,108.36101556386711 156.87383101621526,108.59039517493511" stroke="#4DD2FF" stroke-linecap="round" stroke-linejoin="round" stroke-width="0.5"><title>2025-09-04 5.0km</title><desc>1756985562000</desc></polyline><polyline fill="none" points="180.53199489347753,91.04504300308326 180.60984780464787,91.0 180.65526200289605,91.10510029779834 180.62931103250594,91.55552845207421 180.70067620111513,91.55552845207421 180.6487742603058,92.36629220977193 180.2984361597628,94.6483942812265 180.06487742604804,95.56421805726859 180.0973161390284,95.92453905446746 179.53937027516076,99.3625135467737 179.57180898822844,99.67777831109561 179.13064249118906,102.7853161730527 179.1695689468179,104.30901284753782 179.70156384026632,108.9924946582978 180.00648774259025,109.0 180.0713651686383,108.90993584925309 179.76644126628526,106.25299404140969 179.8442941775429,106.08036457510025 179.63668641421827,105.10462523026945 179.4485418787226,103.04802473708696 179.80536772191408,100.24825398997928 179.99351225740975,99.53515870333649 180.34385035798186,96.41997755683406 180.53848263603868,95.28646942276828 180.6487742603058,95.13633459104312 180.58389683428686,94.93365208435716 180.86935750881094,92.80920569004229" stroke="#4DD2FF" stroke-linecap="round" stroke-linejoin="round" stroke-width="0.5"><title>2025-09-02 5.1km</title><desc>1756811867000</desc></polyline><polyline fill="none" points="20.522505578614073,111.0 20.496380299679004,112.32256637187675 20.150220353825716,114.73335542801942 19.93468680261867,115.55708675743517 19.941218122345163,116.19943972120382 19.4121812240046,119.41867808219104 19.00070808082819,123.0533783902647 19.02683335970505,124.15659949354449 19.542807618679944,128.38042500505253 20.05225055781193,129.0 19.93468680261867,128.9395538860772 19.84324832636048,128.22175253045862 19.647308734391117,126.34788057651895 19.699559292232152,126.15897957621928 19.35339934640797,123.94502411117719 19.340336706925882,122.87958179371344 20.39187918396783,115.44372977629973 20.53556821809616,115.14144364873937 20.613944054872263,113.8340420017048 20.999291919142706,111.74819757926161" stroke="#4DD2FF" stroke-linecap="round" stroke-linejoin="round" stroke-width="0.5"><title>2025-08-31 5.1km</title><desc>1756640573000</desc></polyline><polyline fill="none" points="43.436346132453764,111.0 43.49459003721131,112.45274208266346 43.0933542487619,114.9612756864808 42.95745180427912,115.18591632167227 42.89273635452264,115.6351955381615 42.834492449765094,116.78084514540387 42.47208593113464,119.2592810823262 42.37501275649993,119.42400801015901 42.41384202634799,119.78341093871131 41.973776968050515,122.86821401750058 41.99966314795893,124.14103204247658 42.51091520101181,128.58074882145593 43.00275261909701,129.0 42.89920789952157,128.83529446410103 42.64681764549459,125.96786186834652 42.32971194171114,124.05867389396735 42.32971194171114,122.64359679102199 42.82802090479527,119.61868481394049 43.19689896836644,116.4588669893783 43.49459003721131,115.22335636096977 43.44928922239342,114.9388115853144 43.74050874626846,112.7672494843282" stroke="#4DD2FF" stroke-linecap="round" stroke-linejoin="round" stroke-width="0.5"><title>2025-08-30 5.0km</title><desc>1756550382000</desc></polyline><polyline fill="none" points="65.35045092267683,128.99190374834143 65.59533972470672,129.0 66.37898389133625,123.55103658699954 66.4909330579685,121.72923463044572 66.02914274553768,118.47417807111924 65.83323170384392,116.0125544224793 65.71428571431898,115.47001529365662 65.35744774556952,114.91127710370347 65.40642550599296,114.78171406496404 65.7702602976351,114.83839792034269 65.59533972470672,113.1945497326742 65.27348587053712,112.8625368664143 65.2944763393316,111.88268594590772 64.93763837058214,111.0 65.30147316222428,111.92317589218874 65.25949222472264,112.8220473977708 65.59533972470672,113.21884330269677 65.75626665179152,114.82220253721607 65.40642550599296,114.78981176106026 65.35744774556952,114.8950817353907 65.65131430805195,115.35664844168059 65.84022852679482,116.13401790019998 66.04313639138127,118.68470814086322 66.4909330579685,121.61587668731954 66.40697118302342,123.33242255208461 65.6932952455245,128.23085241995432" stroke="#4DD2FF" stroke-linecap="round" stroke-linejoin="round" stroke-width="0.5"><title>2025-08-28 5.0km</title><desc>1756381580000</desc></polyline><polyline fill="none" points="89.18045574580901,111.0 89.32868458193843,111.76811003351759 89.30290565392352,112.46909664043778 88.90333226966322,114.97469616110902 88.76154816555209,115.2356911924071 88.74221396955545,116.05595524932869 88.17507755319821,119.39657236682251 88.22019067723886,119.82159534034872 87.78839363294537,122.63265024788416 87.75616997291218,123.77344554387673 87.85928568497184,123.89274337471579 87.82061729294946,124.37738881937548 88.31041692526196,128.60485267570039 88.85177441360429,129.0 88.67776664948906,128.84343244656338 88.07840657309862,123.90765558993735 88.0526276451128,122.94581150582962 88.49731415338465,119.80668229520961 88.6068745974917,119.65009513837867 88.70999030952225,118.33773250403465 89.16112154984148,115.75767847098177 89.12889788980829,115.407201707676 89.25134779786458,115.2431481796666 89.19978994183475,115.0194382323898 89.38668716995744,113.7368213738664" stroke="#4DD2FF" stroke-linecap="round" stroke-linejoin="round" stroke-width="0.5"><title>2025-08-26 5.0km</title><desc>1756206850000</desc></polyline><polyline fill="none" points="111.99483184394194,111.0 112.00777493914939,111.61404911642603 112.11131970083807,111.63651423098781 112.05307577239,112.40032405162492 111.69066910655238,114.88639532199886 111.56770970206708,115.16345228834689 111.41886410716688,116.84823574349866 110.9723273224663,119.38657010345196 110.90114029881079,120.56211127230199 110.57109137100633,122.77087996923365 110.6293352994544,124.440515442795 111.12764446498477,128.89518742878863 111.14705910778139,129.0 111.53535196406301,128.955080344851 111.25707541705924,126.05021788403246 110.91408339401823,124.07364810892614 110.88172565598506,123.07036893548502 111.29590470268158,120.0080368784038 111.44475029758178,119.5812470061137 111.94305946308305,115.50041206009337 112.09190505801234,115.20089233903127 112.04013267718256,114.9612756858769 112.28605148612405,113.09673198908422" stroke="#4DD2FF" stroke-linecap="round" stroke-linejoin="round" stroke-width="0.5"><title>2025-08-24 5.0km</title><desc>1756042259000</desc></polyline><polyline fill="none" points="134.05624230310787,129.0 134.25703028787393,128.70957506886043 134.9526172351325,123.97135386590526 135.08169522538083,121.88844107749173 134.7016322541749,119.49012108822353 134.3215692829981,115.83026516121754 133.90565131456242,114.98374450433766 134.00604530694545,114.8675547093153 134.31439828354632,114.90075181049178 134.1566362954909,113.27407797389606 133.81242832160206,112.8840034078894 133.86979631721624,112.04575175572973 133.48256234658766,111.0 133.84828331889003,111.88805988865352 133.8267703204765,112.89230288613908 134.17097829439444,113.29897628714389 134.33591128190164,114.90905108365405 134.24985928845126,114.9920437690671 133.94867731124396,114.88415326158429 133.94867731124396,115.00034303295979 134.22834629006684,115.5065965349786 134.38610827809316,116.1207359124528 134.57255426398478,118.3780733771273 135.0888662248035,121.97142666717264 134.97413023351692,123.86347522555297 134.1853202933271,128.9336172496769" stroke="#4DD2FF" stroke-linecap="round" stroke-linejoin="round" stroke-width="0.5"><title>2025-08-23 5.0km</title><desc>1755956696000</desc></polyline><polyline fill="none" points="157.778327207634,111.0 157.78484484931687,111.49775452424365 157.86957419131068,111.58825498821534 157.8369859828672,112.34242122989963 157.44592748142895,114.77078446850646 157.30253936426016,115.07998029737064 156.97013963805512,118.17940878979425 156.8006809541548,119.20498193983076 156.6898810454004,119.31055484219542 156.74202217895072,119.68005881842691 156.27275197725976,123.23172774412524 156.87237501272466,128.87936098423233 156.8919279378024,128.96984026442078 157.24388058905606,129.0 156.59863406175282,123.08091723063262 157.56976267354912,116.02264255887712 157.6935978656693,115.25343105212232 157.81091541607748,115.11014567511302 157.75877428258536,114.82357409142423 158.01296230845037,112.86279146892048" stroke="#4DD2FF" stroke-linecap="round" stroke-linejoin="round" stroke-width="0.5"><title>2025-08-21 5.0km</title><desc>1755781186000</desc></polyline><polyline fill="none" points="180.5017538338143,111.0 180.52117656290648,112.3934153112059 180.1327219818486,114.89550358931592 179.99676287846523,115.15769355411612 179.9384946913051,115.59966881306173 180.009711364517,115.81690991843061 179.40760676388163,119.36758761899546 179.4464522220078,119.74212171293766 179.01915218285285,122.8132295452233 179.04504915489815,124.1090488804839 179.58888556837337,129.0 179.9643916633795,128.9325924638615 179.70542194269365,126.09393031309446 179.36876130578457,124.07159777406196 179.3493385767215,122.64095127178007 179.7701643728651,119.77957501771743 179.88022650414496,119.61478033440653 180.32694927236298,115.89182049604278 180.54059929194045,115.17267580965563 180.54707353495178,114.34864723412466 180.98084781714715,111.59183015047165" stroke="#4DD2FF" stroke-linecap="round" stroke-linejoin="round" stroke-width="0.5"><title>2025-08-19 5.3km</title><desc>1755607955000</desc></polyline><polyline fill="none" points="19.804966203781078,148.91134006194625 20.118413376272656,149.0 20.118413376272656,148.4035585078018 20.236826752516208,148.13757639637333 20.383102099702228,146.29985743787256 20.80799715570174,143.5190175207099 20.766204199375352,141.6973130037586 20.29255069431383,138.64223670910724 20.076620419946266,136.12715152443707 19.944276058202377,135.46612230624305 19.60296691491385,134.89376328713115 19.67958733480191,134.75671896518907 20.01393098544213,134.82927187102177 19.867655638285214,133.32177007346036 19.505450016789837,132.83001194937242 19.533311987644993,131.87873347735876 19.19200284429826,131.0 19.561173958558356,131.91904211878864 19.519381002202863,132.82195031536685 19.846759160107467,133.1766614360895 20.01393098544213,134.821210440321 19.665656349388883,134.77284183888696 19.630828885769006,134.877640438026 20.034827463619877,135.80469893578265 20.243792245251825,138.2311224701407 20.75923870666884,141.79404172927025 20.752273213933222,142.62429177048762 20.236826752516208,146.19507393342064 20.08358591265278,146.26761637432355 19.98606901455787,146.50942403145018 19.804966203781078,147.69427089524834" stroke="#4DD2FF" stroke-linecap="round" stroke-linejoin="round" stroke-width="0.5"><title>2025-08-17 5.0km</title><desc>1755429603000</desc></polyline><polyline fill="none" points="42.59826038288884,148.9595187335217 42.50730167576694,149.0 42.61225403015851,148.89474866437376 42.73120003184886,147.11355112918682 42.829155562620144,146.49012258402945 43.15100944950245,146.2229374284434 43.144012625853065,145.60759851037437 43.57781569074723,143.1623889988623 43.6407871034171,142.0612105356122 42.878133327991236,135.67245569921215 42.479314381227596,134.89508173525246 42.55627944113803,134.80600715063338 42.89212697526091,134.8303002290486 42.745193679089425,133.25933256946155 42.409346144937444,132.83824318762345 42.430336615856504,131.92317589215236 42.073498610872775,131.0 42.45132708674646,131.93937186490803 42.40234932131716,132.79775370663992 42.73819685544004,133.19454973259417 42.90612062253058,134.82220253706328 42.54928261751775,134.78171406481852 42.50030485211755,134.9031794198163 42.92011426977115,135.7696269111475 43.6407871034171,141.6806526743676 43.63379027976771,142.64418926530925 43.16500309674302,146.0933927880178 42.81516191535047,148.32800831341592 42.668228619208094,148.4413567061274 42.6192508538079,148.78140091669047" stroke="#4DD2FF" stroke-linecap="round" stroke-linejoin="round" stroke-width="0.5"><title>2025-08-16 5.1km</title><desc>1755350047000</desc></polyline><polyline fill="none" points="65.60928613194847,148.9514006132158 65.3572871342767,149.0 65.47628666093806,148.8785014774985 65.81228532452951,146.36749054866232 66.0012845727324,146.27028853527736 65.95928473977256,146.00298238729738 66.46328273511608,143.03015358735865 66.49828259591595,141.7421633565391 65.74228560290067,135.69076077497448 65.36428710643668,134.92923980825435 65.44128680013819,134.78341581407585 65.74928557508974,134.8320238417873 65.59528618762852,133.23604476632318 65.26628749622614,132.86337499705405 65.31528730131686,132.06131892801204 64.92328886050382,131.0 65.28728741270606,131.85067660131608 65.28028744054609,132.82286730838678 65.59528618762852,133.20363876863848 65.77728546372964,134.82392250589328 65.4132869115274,134.79151715409535 65.37828705072752,134.9049358277698 65.67928585349,135.39101402905362 65.80528535234043,135.87708926485357 66.0292844613723,138.47754140741017 66.47028270730516,141.41003671350336 66.50528256807593,142.5846247303416 65.97328468412161,145.9948821869839 66.01528451705235,146.2378878378222 65.79128540804959,147.48530518261396 65.60928613194847,147.89840662368078" stroke="#4DD2FF" stroke-linecap="round" stroke-linejoin="round" stroke-width="0.5"><title>2025-08-14 4.9km</title><desc>1755170321000</desc></polyline><polyline fill="none" points="89.30668892731774,131.01505828869995 89.15052743576234,131.0 89.19607453749632,132.36276273598924 88.81868426629808,134.9225807852854 88.68204296124168,135.1936151666523 88.68204296124168,135.90131137813296 88.29814596124925,138.60404642499634 88.17451811383944,139.34182326922019 88.07691718163551,139.40204962618736 88.13547774095787,139.7784632484545 87.68651345284889,142.87251079228008 87.72555382573046,144.18988843089755 88.27211904601427,148.93978143978165 88.6430025883601,149.0 88.00534316469566,143.03812526767433 89.065939961205,135.52487806438148 89.215594723908,135.2162013203415 89.15052743576234,134.95269576551073 89.45634369002073,132.81450175839564" stroke="#4DD2FF" stroke-linecap="round" stroke-linejoin="round" stroke-width="0.5"><title>2025-08-12 5.0km</title><desc>1754999139000</desc></polyline><polyline fill="none" points="111.91393212819821,131.0603087970594 111.99862594154547,131.0 112.00514085029135,132.27401291723072 111.6012165096472,134.86720239714487 111.46440342653659,135.12350108713872 111.32759034342598,136.86480110110278 110.8976063678856,139.38999043372314 110.46110748365754,143.030634564333 110.50019693598733,144.14615851492272 110.95624054639484,147.9222334161168 111.43182888295269,149.0 110.7933678283589,143.0758588343233 111.75757431893726,136.11853466997854 111.99211103282869,135.15365381597076 111.93347685434856,134.94258445667947 112.20710302059888,132.9072419677468 112.39603537350195,132.1383202746947" stroke="#4DD2FF" stroke-linecap="round" stroke-linejoin="round" stroke-width="0.5"><title>2025-08-10 5.0km</title><desc>1754830447000</desc></polyline><polyline fill="none" points="134.0297545803769,149.0 135.00450523910695,143.1979184644806 135.06761859112885,141.83457099948282 134.54868658576743,138.23944193188072 134.3032457724039,135.6180606555863 133.91054047102807,134.9200932334861 133.9666412283841,134.77400625642622 134.3242835564015,134.84704977838555 134.17000647372333,133.24007685336983 133.83340192970354,132.842386640099 133.85443971367204,131.93337299676932 133.49679738565465,131.0 133.86846490303287,131.965837948017 133.8404145243403,132.85050278672134 134.17000647372333,133.24819295953057 134.33830874570413,134.82270194516605 133.98066641768673,134.80647005221545 133.93859084969154,134.89574542255286 134.33830874570413,135.75603023749863 134.6608881004213,138.94549585680943 135.03956821243628,141.26650268438243 135.0746311857656,142.55682344923116 134.2611702043796,148.3183787094531 134.03676717501367,148.55370100304572" stroke="#4DD2FF" stroke-linecap="round" stroke-linejoin="round" stroke-width="0.5"><title>2025-08-09 5.0km</title><desc>1754735080000</desc></polyline><polyline fill="none" points="157.68336792002083,131.0 157.72244098826195,132.2659443807861 157.46846604478196,134.2552418919222 157.14285714286962,135.62662046950572 157.07122318446636,136.86988133261912 156.63490725590964,139.41661731127533 156.6609559680801,139.80841508629237 156.21812786150258,142.79203795787907 156.2051035054028,143.8166888406122 156.76515081667458,148.5781161152554 157.2014667452022,149.0 156.56327329747728,144.08791758801817 156.59583418769762,142.48313307743229 157.52707564711454,136.07871773993975 157.6442948518088,135.34782577912847 157.75500187845319,135.2046605308933 157.7029044541414,134.8957240536838 158.08061078033643,132.34129753154411" stroke="#4DD2FF" stroke-linecap="round" stroke-linejoin="round" stroke-width="0.5"><title>2025-08-07 5.0km</title><desc>1754570205000</desc></polyline><polyline fill="none" points="180.3119554911973,131.0 180.35220781262615,131.51234840384132 180.4863822174666,131.56668818454636 180.43942117580445,131.93153999677452 180.80169206880964,131.9858794793181 180.8419443902385,132.31967830981012 180.47296477700002,134.1671896489861 180.36562525312183,135.15302826082916 180.43942117580445,135.41695140008233 180.32537293169298,135.52562536891492 180.11069388396572,136.7908894878783 179.1647643299657,143.66797101492557 179.74842299096053,149.0 179.1580556097324,143.54378541283222 179.57399626469123,140.4002701623176 179.72829683023156,139.97336305776844 180.09727644349914,136.7908894878783 180.28512061026413,135.6187743620394 180.4058775745798,135.4091889678093 180.35891653288854,135.10645349458355 180.72789614615613,132.38954299677425" stroke="#4DD2FF" stroke-linecap="round" stroke-linejoin="round" stroke-width="0.5"><title>2025-08-05 5.0km</title><desc>1754406000000</desc></polyline><polyline fill="none" points="19.727434194413945,169.0 20.038937972218264,166.41945485727047 20.23008801767719,166.27199263979128 20.527432532864623,164.27303374537587 20.746901103586424,162.66727676208393 20.761060366232414,161.66775881296053 20.24424728032318,158.12018929852638 20.046017603570363,155.76051847534836 19.869026820670115,155.14600952499313 19.600000830803765,154.76091486085352 19.663717512594303,154.63801192102983 20.010619446984492,154.6707860566603 19.847787926759338,153.0566440387338 19.51504525501514,152.7043143242554 19.543363780307118,151.7046727940251 19.23893963379669,151.0 19.550443411571905,151.8111925638441 19.51504525501514,152.62237696052762 19.861947189405328,153.0484503419284 20.017699078278383,154.6625925240005 19.92566387122497,154.74452781302534 19.58584156818688,154.6789795884688 20.038937972218264,155.63761706018704 20.329202856082702,158.7428686880594 20.761060366232414,161.69233727183018 20.75398073490942,162.70824034805264 19.92566387122497,168.37739984357904 19.88318608334521,168.51666608552478 19.699115669180173,168.52485820989386 19.628319356008433,168.83615831973293 19.430089679255616,168.81977413339337" stroke="#4DD2FF" stroke-linecap="round" stroke-linejoin="round" stroke-width="0.5"><title>2025-08-03 5.0km</title><desc>1754221111000</desc></polyline><polyline fill="none" points="51.857142857144936,159.02613251820185 51.80180081255094,159.25560136774948 51.65883386405767,159.2689425182507 48.85022510155977,159.21290964059153 48.77412979026849,159.16488136458065 48.663445701109595,159.210241405337 48.3060283298546,159.2075731698169 48.27605138902436,159.17822256117142 47.637311957834754,159.2155778755714 47.32370703853667,159.16754960444086 46.3114088064176,159.16488136458065 45.87328428680485,159.09550703303648 45.57582079718122,159.0181277546926 45.55737344898807,158.98877693430404 45.14461403315363,158.9754356414578 44.238388053141534,158.8153395986228 42.90556714615377,158.80466649439222 40.12462940593832,159.1515401612105 39.74876468650473,159.32497527635496 39.34522894475958,159.44771328106253 38.26144723838661,160.10675319219808 37.6872735258512,160.39757931046734 37.334467991648125,160.49896747536695 37.12693532447156,160.50163557968153 36.86406061271555,160.4376010012711 36.58504447128507,160.5523295102048 36.49050181178609,160.36556191392992 36.37751180410851,160.44026911182118 36.28527506314276,160.26684136219774 34.714944548148196,161.19533350560596 34.59503678488545,160.89384396581227 34.1107938947971,159.96800932215774 34.0646755243215,159.9359914018969 33.857142857144936,160.03738134880223 33.99319205005304,159.93332324011863 34.060063687269576,159.92531875314307 34.08081695398141,159.8586146001253 34.16383002087241,159.86395093859755 34.274514110031305,159.78924210125479 34.30679696936568,159.82659654649797 34.38981003622757,159.77323303703452 34.362139013945125,159.82392837359657" stroke="#4DD2FF" stroke-linecap="round" stroke-linejoin="round" stroke-width="0.5"><title>2025-08-02 8.3km</title><desc>1754134728000</desc></polyline><polyline fill="none" points="66.19541525194654,151.0 66.09854353297851,151.02241867959674 66.04042050158023,151.62772044508893 66.5247790965077,151.62772044508893 66.5247790965077,152.1134528267794 64.91025044670096,162.7987537910376 64.91670856130077,163.92697120822413 65.5883524796227,169.0 64.94899913429981,164.0689311148817 64.90379233207204,162.97060259394493 65.85959329278558,156.14117160694877 66.09854353297851,155.21459164348926 66.03396238698042,155.00536229442514 66.33749377311324,152.80094548353372" stroke="#4DD2FF" stroke-linecap="round" stroke-linejoin="round" stroke-width="0.5"><title>2025-07-31 5.0km</title><desc>1753965181000</desc></polyline><polyline fill="none" points="88.21504245811957,169.0 88.29267111647641,168.34671299291222 88.4902713377378,168.1098951413369 89.21010071513592,163.15289233152726 89.28772937349277,161.3235422143116 88.9207575340115,159.1021325003312 88.53261424228549,155.43503868585685 88.15858525203657,154.71630134607403 88.23621391042252,154.61012369384116 88.54672854379169,154.6509612689988 88.41264267938095,153.02560974576772 88.05272799066734,152.6335602336112 88.09507089524413,151.72693840696593 87.81278486485826,151.0 88.10212804598268,151.7432740259319 88.07389944291208,152.64989566816075 88.41264267938095,153.07461580021481 88.57495714683319,154.63462624143722 88.48321418697014,154.71630134607403 88.20092815661337,154.60195617630234 88.17269955357187,154.7244688519786 88.59612859910703,155.66372649071127 88.84312887565466,158.4079293676914 89.33007227804046,161.91155215155595 88.82195742338081,166.141830134271 88.4479284331901,168.48553692626592 88.31384256875026,168.54269965266576" stroke="#4DD2FF" stroke-linecap="round" stroke-linejoin="round" stroke-width="0.5"><title>2025-07-29 5.0km</title><desc>1753797916000</desc></polyline><polyline fill="none" points="112.20061193578294,151.0 112.18763646506704,152.37379924071865 111.88920063874684,154.47573770905728 111.65564216597704,155.17386832929333 111.49993651744444,157.0955701637431 111.06525824868004,159.39253882277262 111.11716013151454,159.79787882238452 110.68896959806443,162.6427025637895 110.71492053952534,164.15139051205188 111.24691483861534,169.0 110.74735921627143,164.78938361408655 110.65653092134744,163.19063756865944 111.07174598405254,159.51263979514624 111.64915443063364,155.84196564968443 111.59076481242664,155.654298473135 111.86973743271665,154.51327178114298 112.18763646506704,151.9759255856843" stroke="#4DD2FF" stroke-linecap="round" stroke-linejoin="round" stroke-width="0.5"><title>2025-07-27 5.0km</title><desc>1753616848000</desc></polyline><polyline fill="none" points="134.7998297654849,151.0 134.81898934856872,152.58145924651035 134.46773032515193,155.07920801223372 134.32722671577358,155.3452353709945 134.12924435711466,157.51775571887993 133.77159880596446,159.49809189040388 133.7971449167526,159.87494080296165 133.33092839474557,162.94877276403713 133.91210241534282,169.0 134.29529407728114,168.94089398662618 134.02067338622874,165.97814355786977 133.7077335289796,163.9019298557323 133.69496047360008,162.79360647435533 134.57630129600875,156.57929400511057 134.87008157017408,155.33784573528828 134.8062162931892,155.04964935674798 135.2405001767038,152.41888090982684" stroke="#4DD2FF" stroke-linecap="round" stroke-linejoin="round" stroke-width="0.5"><title>2025-07-26 5.2km</title><desc>1753529066000</desc></polyline><polyline fill="none" points="157.7641257759824,151.0 157.68646719685057,151.38939759416826 157.79001196901663,151.8911183840828 157.6670525520458,153.07426731954183 157.39524752506986,154.91634747653734 157.25287346332334,155.17842831074086 157.23345881851856,155.9646652222582 156.6574910232739,159.41652042942587 156.70279186105472,159.74597321430338 156.27566967581515,162.88318847393384 156.3339136101713,164.55282140445343 156.84516592283035,169.0 157.21404417374288,168.96256695595366 156.92282450199127,166.24487719286117 156.98753998460597,166.10262620994035 156.61866173369344,163.99128988495067 156.61219018540578,162.9880095908302 158.01004460992408,153.20156702262466" stroke="#4DD2FF" stroke-linecap="round" stroke-linejoin="round" stroke-width="0.5"><title>2025-07-24 5.0km</title><desc>1753356656000</desc></polyline><polyline fill="none" points="179.6842908843828,168.96752733306494 179.77549574000295,169.0 180.08418909748434,166.43461864534038 180.28764608310303,166.30472372732038 180.2385357762396,166.05305172260705 180.7647176355822,162.79748109682987 180.7997964262322,161.81510080776206 180.2736145668605,158.34825727638236 180.05612606499926,155.78253377995134 179.63518057754845,154.89750243924937 179.69832240062533,154.76758875626547 180.04209454872762,154.83254562417278 179.8596848374873,153.2004883030313 179.55800723811262,152.87569679656008 179.5860702706268,151.99875312977383 179.2002035737678,151.0 179.5509914800059,151.80387545137637 179.54397572187008,152.84321757326688 179.86670059562312,153.18424875907658 180.04911030686344,154.78382797820086 179.95790545124328,154.8731436397793 179.71235391686787,154.77570836765517 179.63518057754845,154.8731436397793 179.88073211186565,155.22228572196036 180.05612606499926,155.80689230201097 180.37183518058737,159.03839035103738 180.77874915182474,161.6770794685508 180.77173339371802,162.75688710931718 180.00701575810672,168.07452382013435" stroke="#4DD2FF" stroke-linecap="round" stroke-linejoin="round" stroke-width="0.5"><title>2025-07-22 5.0km</title><desc>1753184035000</desc></polyline><polyline fill="none" points="11.0,182.9687195509905 11.0,180.0803347924666 12.913713405258022,171.99271693307674 28.3898305085022,174.81698797398712 29.0,175.49095801229123 26.919876733561978,187.9751905600715 13.024653312866576,185.792892441008 12.525423728860915,185.15103718347382 14.244992295862176,172.6666929986677 14.855161787359975,172.2815639944747 18.54391371353995,172.89135136760888 28.97226502315607,175.2021138863638 27.14175654866267,187.71845038753236 26.559322033892386,188.00728306692326 12.747303543961607,185.66452149386168 12.913713405258022,181.55662363601732 14.272727272822522,172.7308811204275 14.71648690290749,172.3457521944656 21.539291217341088,173.5011375633767 14.577812018571422,172.4099403814471 13.801232665777206,175.94027057220228 14.494607087923214,176.6142382133403" stroke="#4DD2FF" stroke-linecap="round" stroke-linejoin="round" stroke-width="0.5"><title>2025-07-20 4.9km</title><desc>1753020627000</desc></polyline><polyline fill="none" points="43.891729962721,171.0 43.75594040512806,171.920306203785 43.25157919115736,173.21470115546254 42.82481201007613,175.15999181925145 42.70842096069828,176.69374246137158 42.30751845729537,179.2598977211528 42.21699208553764,179.34219276600925 42.26225527143106,179.7087786668635 41.84195425975486,182.7386535058031 41.82255575153977,183.74110317716259 42.398044829024,188.99251961675327 42.3333831349446,187.96021944504173 42.404510998458136,189.0 42.773082654806785,188.92519613334298 42.152330391458236,183.06781758857687 43.14165431118454,175.84083141246083 43.34857173229102,175.18991896658554 43.374436409940245,174.31454488242161" stroke="#4DD2FF" stroke-linecap="round" stroke-linejoin="round" stroke-width="0.5"><title>2025-07-20 5.0km</title><desc>1752942252000</desc></polyline><polyline fill="none" points="66.49043170173536,171.00805460508855 66.37905649279128,171.0 66.20503272875794,171.88600165282696 66.3999393444683,172.00681929278653 66.38601744332118,172.26456297602272 66.1423841737269,173.9076592583515 66.0101261130767,174.1895596098475 65.66903953565634,177.4031527761981 65.38364056267892,178.71593657314224 65.41148436494404,179.1025190702785 64.91725687513826,182.79911902814638 65.58550812889007,189.0 64.9659835290513,183.8299484225281 64.9520616279624,182.26759238619707 65.41148436494404,179.15084174990625 65.39060151320882,178.72399039437732 65.89875090413261,175.66347941254207 66.00316516251769,174.18150532800064 66.1423841737269,173.89155063656654 66.51131455341238,171.25774695668224" stroke="#4DD2FF" stroke-linecap="round" stroke-linejoin="round" stroke-width="0.5"><title>2025-07-17 5.0km</title><desc>1752765839000</desc></polyline><polyline fill="none" points="96.29440154449549,188.62017024712986 96.69980694993865,188.05724069090502 97.57142857147846,180.71557535391185 84.53764478769153,180.12917028802622 82.18629343633074,180.3168200712389 82.47007722011767,180.12917028802622 82.04440154437907,177.4786008035735 79.63223938224837,173.67861622768396 79.57142857147846,171.54402954618854 79.8552123552654,171.3798297528847 91.18629343633074,171.5674866499321 90.37548262556084,178.9563556866633 89.86872586875688,179.28474437574914 82.79440154437907,179.05018107409705 82.02413127420004,176.58725201355992 80.03764478769153,174.05392613090225 79.79440154437907,172.7168818149512 82.61196911195293,172.50576884645852 90.82142857147846,172.7872527615691 90.9430501931347,174.54651945258956 90.21332046343014,180.26990763975482 89.11872586875688,180.34027628338663" stroke="#4DD2FF" stroke-linecap="round" stroke-linejoin="round" stroke-width="0.5"><title>2025-07-15 4.1km</title><desc>1752589649000</desc></polyline><polyline fill="none" points="112.15193829964846,171.0 112.20679076382658,172.277351380224 111.78168416657718,174.94306086831784 111.63083989013103,175.25246768275247 111.62398333210149,176.03787947543606 111.0206062263751,179.71889615291002 111.04803245846415,180.1314130735118 110.58864307109616,183.5504598454063 111.13716771270265,189.0 110.82176604378037,186.84244003838103 110.58178651309572,183.37594136077678 111.61027021607151,175.9823455677979 111.54856119389297,175.7284757727757 111.75425793445902,174.99859551501868 112.158794857678,172.35668928601808 112.11079895152943,172.07900626306218 112.27535634400556,171.2380173692436 112.12451206758851,171.04760353190068" stroke="#4DD2FF" stroke-linecap="round" stroke-linejoin="round" stroke-width="0.5"><title>2025-07-13 5.0km</title><desc>1752418082000</desc></polyline><polyline fill="none" points="134.12939311662922,189.0 134.03702151676407,188.9917779814714 134.09386557823746,188.34223587893212 134.40650791637017,186.3689114317458 134.59125111618778,186.20446555533272 134.91099896200467,183.96796845112112 135.08153114639572,181.65740467171418 134.6125676392112,178.44223992175102 134.3709803779493,175.75324440772238 134.22887022423674,175.2269473625929 133.93043890147237,174.74998770706588 133.99438847065903,174.62663561422232 134.33545283949934,174.6759764739545 134.1862371781317,173.11350129892526 133.8451728092332,172.68587125244812 133.86648933234392,171.7072478293776 133.62490207105293,171.0328953850185 133.4756864096562,171.0328953850185 133.6035855479713,171.0 133.8451728092332,171.60033867062884 133.83806730157812,172.69409492853447 134.15070963968174,172.98192306394049 134.1862371781317,173.14639582422387 134.33545283949934,174.65130604784645 133.98728296297486,174.63485909293377 133.90912237841985,174.72531730357878 134.22176471658167,175.17760683902452 134.36387487026514,175.67923409270588 134.65520068534533,178.8780625799991 135.09574216176406,181.59984530091606 135.088636654109,182.65235303719965 134.22176471658167,188.57245392954792" stroke="#4DD2FF" stroke-linecap="round" stroke-linejoin="round" stroke-width="0.5"><title>2025-07-12 5.1km</title><desc>1752325602000</desc></polyline><polyline fill="none" points="157.0344063215598,189.0 156.85948564193677,188.99190374835598 157.25130796423764,186.29580619558692 157.41223498948966,186.21484089404112 157.86003192921635,183.2109700501387 157.93000020110048,181.69684666195826 157.51718739722855,178.98430766406818 157.20233017392457,175.68865090863255 156.78252054288168,174.83839791952778 156.8384951603657,174.74932327152783 157.18833651958266,174.8060071499567 157.02740949435974,173.16215829394787 156.71255227105576,172.81394950112735 156.69855861671385,171.72072595467762 156.3487172574969,171.0 156.7195490982267,171.8098039904653 156.71255227105576,172.8058516041201 157.0344063215598,173.1702561547354 157.20932700112462,174.78171406413458 156.87347929627867,174.7412255713134 156.7965141973109,174.87078867589298 157.21632382832468,175.75343171659915 157.5241842243995,178.96811312399223 157.93699702824233,181.6401676875248 157.8670287564164,183.1704858420635 157.1953333467536,187.6398181816039" stroke="#4DD2FF" stroke-linecap="round" stroke-linejoin="round" stroke-width="0.5"><title>2025-07-10 5.0km</title><desc>1752149320000</desc></polyline><polyline fill="none" points="177.47569929709425,171.0 177.51785880775424,172.1220300960049 177.82351526030106,171.96348300139653 178.4769876761129,172.1830096919948 179.18315948027885,172.1220300960049 179.97365030582296,172.4147318742689 184.05258296558168,172.95134994727414 184.16852161998395,173.109895737005 183.23047250707168,179.09789494444703 182.77725776704028,179.1344805796034 182.6929387456621,179.29301820299588 182.53484058054164,180.35399537060584 182.6507792349439,180.81740774305945 181.93406755314209,184.85389776057855 176.68520847155014,184.6953674802644 176.50603055109968,184.57342096840148 175.83147838001605,189.0 176.53765018412378,184.646588890384 178.58238645282108,184.68317283462966 179.26747850159882,184.4148903177629 179.3623374007293,184.6953674802644 181.96568718616618,184.78072996492847 183.77854614605894,173.42698668821686 183.72584675770486,173.01232912197884 178.29780975566246,172.0610504689903" stroke="#4DD2FF" stroke-linecap="round" stroke-linejoin="round" stroke-width="0.5"><title>2025-07-08 5.1km</title><desc>1751976330000</desc></polyline><polyline fill="none" points="11.160322854586411,208.83610268475604 11.121693529887125,209.0 11.366345919959713,208.89570172964886 11.443604569358286,208.06131289622863 11.894280024745967,207.68881634827994 11.984415115788579,207.30141893458494 13.284935715491883,198.2866900825029 13.40082368964795,195.55981166484708 13.091789091762621,193.54814753265237 13.799993378750514,193.51834489352768 13.980263560835738,193.7865684274002 16.465416786028072,194.1441990424064 18.46126523113344,194.11439652449917 19.916303129750304,194.6955445312342 24.55182209884515,195.3809981931845 25.40166724321898,191.0 28.878306470112875,191.77487996006676 25.775084049033467,191.04470472445246 25.195644177903887,193.62265410390683 25.105509086803067,195.4108004536247 16.426787461270578,194.24850780746783 13.980263560835738,193.8014697204635 13.761364054051228,193.47364092349017 13.053159767063335,193.59285147994524 13.336441481777001,194.78495171236864 13.387947248178534,197.3628353163076 11.932909349445254,207.34611868843785" stroke="#4DD2FF" stroke-linecap="round" stroke-linejoin="round" stroke-width="0.5"><title>2025-07-06 5.0km</title><desc>1751807521000</desc></polyline><polyline fill="none" points="36.59687711013248,207.88428805598232 37.37675166525878,202.33842899363663 34.85279401409207,202.15793925551407 34.05873992166016,202.43687785667134 35.09384614933515,202.33842899363663 34.9520507757552,202.17434742185287 37.56108565098839,202.32202084397431 37.745419636776205,202.15793925551407 37.66034241259331,201.64928527163283 38.72380771493772,194.93818426875805 38.624550953449216,191.590733765217 40.453711273672525,191.4102320107486 51.655545792600606,193.24805862178619 51.64136625523679,192.70655831242038 39.31934828433441,191.0 39.51786180748604,195.05304653466737 38.22752390714595,204.17613120531314 38.58201234135777,204.7340009524487 38.25588298193179,205.34109231071488 38.32678066875087,206.65371447143843 37.830496860900894,206.76856840281107 37.60362426307984,209.0 36.455081736436114,208.86874017144146 36.5259794233134,207.90069564041914" stroke="#4DD2FF" stroke-linecap="round" stroke-linejoin="round" stroke-width="0.5"><title>2025-07-05 4.8km</title><desc>1751729502000</desc></polyline><polyline fill="none" points="68.61139537394047,209.0 68.78953480289783,208.86981198194553 68.81766208109912,208.13207688097464 69.06143182597589,207.05801225300092 69.1926924577565,207.01461547528015 69.36145612731343,205.4414703723014 65.69553419545991,205.28957927314332 65.92992818087805,204.4758732763221 66.27683127921773,200.80869462042756 66.31433431693586,198.12875362045452 66.18307368509704,197.77069972742174 66.32371007627808,195.578949717652 66.31433431693586,191.0 61.39206062327139,192.7686697420213 61.28892726969207,193.01823427827185 61.32643030741019,192.80122167114314 63.97977022221312,191.79210725105077 64.02664901933167,194.02733710464236 64.28917028295109,194.59156248300133 66.24870400095824,194.59156248300133 66.25807976041688,197.4560453147351 66.46434646757552,197.55369678345596 66.53935254289536,197.90090128205338 69.97088048933074,198.11790352014214 70.13964415888768,198.97505804750836 70.1208926399704,200.53744859182916 68.9395469535375,208.59858643445477" stroke="#4DD2FF" stroke-linecap="round" stroke-linejoin="round" stroke-width="0.5"><title>2025-07-03 5.2km</title><desc>1751545471000</desc></polyline><polyline fill="none" points="88.25600397452945,209.0 88.68357953918166,206.36393109844357 88.85881542632706,206.2422642780657 89.30741929746,202.9166326980121 89.34246647485998,201.76479627827212 88.57843800689443,195.6484285694387 88.20693792615202,194.87776542525535 88.28404171645525,194.77230567908555 88.59946631334606,194.82909171356732 88.45226816812647,193.25529236594593 88.10880582933896,192.81721898241085 88.11581526481314,191.81937618378288 87.78637179700308,191.0 88.14385300676804,191.89238949473656 88.10880582933896,192.83344396545 88.42423042620067,193.14171801602788 88.47329647457809,193.39320385919564 88.59946631334606,194.82097942539258 88.25600397452945,194.7966425559498 88.20693792615202,194.90210226994532 88.58544744239771,195.6484285694387 88.94993808766594,199.12037652645813 89.35648534583743,201.74046152670053 89.23732494257274,203.55743590315979 88.46628703910392,208.72423071540106" stroke="#4DD2FF" stroke-linecap="round" stroke-linejoin="round" stroke-width="0.5"><title>2025-07-01 5.0km</title><desc>1751376396000</desc></polyline><polyline fill="none" points="110.79600141770788,209.0 110.9259815569385,208.83956882237544 110.89998552907491,208.24797660073818 111.10795375180896,208.04743605965632 111.25526457626256,207.26532405517355 111.4805634842196,204.50782842640183 111.79251581832068,203.43489111880626 112.13912952292594,200.6171216954681 112.0524760967819,199.00263390867622 111.56721691033454,196.12456840601953 111.23793389103957,192.63467598475108 110.71801333420444,191.34097759509314 111.17727649270091,191.43123617296078 111.194607177953,191.0 111.194607177953,191.4111787183283 110.79600141770788,191.33094885912578 110.72667867678683,191.43123617296078 111.0559616961109,191.92264253658504 111.25526457626256,192.6146187748891 111.6192089660617,196.50564113540895 112.13912952292594,199.96531303638767 112.09580280983937,201.5797850687668 111.00396964044194,208.6590834358285" stroke="#4DD2FF" stroke-linecap="round" stroke-linejoin="round" stroke-width="0.5"><title>2025-06-30 4.1km</title><desc>1751292736000</desc></polyline><polyline fill="none" points="125.48780487803742,201.10960229374177 125.28571428571013,199.64897324027697 125.35540069686249,199.49564597582503 130.77700348431244,199.2374099119188 131.6411149825435,199.31810877237876 133.0487804877921,199.1809206606922 135.16027874563588,199.20513034473697 143.28571428571013,198.68865547961468 140.86062717769528,198.85812416609406 140.2961672474048,199.04373231128557 139.2508710801194,198.99531283708347 133.96167247387348,199.26968946598936 129.0418118466623,199.35845817174413 128.8954703832569,199.4875761115909 129.23693379788892,201.31134452038532 129.07665505225305,201.2952051611719 128.88153310102643,200.34297714474087" stroke="#4DD2FF" stroke-linecap="round" stroke-linejoin="round" stroke-width="0.5"><title>2025-06-26 5.0km</title><desc>1750950176000</desc></polyline><polyline fill="none" points="166.14285714286962,200.73669080522814 165.85222205138416,199.26330919477186 158.10841150238412,199.97382686247875 157.28171613105224,199.98130595921975 154.29786252501071,199.60735018770356 148.14285714286962,199.86911942786537 154.09118868215592,199.59987105282198 157.28817468864145,199.9887850552259 162.7973243118904,199.48768393830687" stroke="#4DD2FF" stroke-linecap="round" stroke-linejoin="round" stroke-width="0.5"><title>2025-06-24 5.0km</title><desc>1750769966000</desc></polyline><polyline fill="none" points="189.0,200.7208387669234 188.7536023054563,199.27916123308387 181.0893371757993,200.00751226317516 180.1556195965386,200.0375472026135 177.1340057636844,199.64709203488746 171.0,199.91740737140208 176.9719020172779,199.64709203488746 180.1491354466707,200.0375472026135 186.6397694524494,199.45937246764515" stroke="#4DD2FF" stroke-linecap="round" stroke-linejoin="round" stroke-width="0.5"><title>2025-06-22 5.0km</title><desc>1750563938000</desc></polyline><polyline fill="none" points="20.61512707269867,229.0 19.684828885030583,223.44209893125299 19.671787321640295,221.9266568681196 19.754383889696328,221.2922719613307 19.70221763619338,219.6609590561493 19.71960638735618,219.37899827560614 19.81524451878795,219.21787710654826 19.71960638735618,219.14235137752257 19.715259199554566,218.1101548334409 18.658892565916176,211.75537669678306 18.39371411052707,211.0 18.663239753674134,211.6596962881231 19.70221763619338,218.00441640774807 19.75873107749794,221.09591307632945 19.684828885030583,221.93169163636412 19.680481697214418,223.39175276577225 20.393420495267492,227.66092523296174 20.493405814486323,227.95290703645878 21.60628588948748,227.89249714976904" stroke="#4DD2FF" stroke-linecap="round" stroke-linejoin="round" stroke-width="0.5"><title>2025-06-21 8.0km</title><desc>1750517001000</desc></polyline><polyline fill="none" points="44.683294834860135,229.0 43.158546581631526,219.62387523600773 40.47546244610567,219.56912221983657 35.64118310052436,219.10372068098513 35.73574113170616,218.6109408227785 35.546625069284346,217.66644103945873 35.80665965512162,211.49280779338733 35.77120039338479,211.05475651082816 35.534805315430276,211.0 35.23931146785617,218.597252467589 35.68846211611526,218.65200588002335 35.71210162388161,219.11740898460266 43.19400584336836,219.6101869840786 44.104126893682405,225.46863131743157 44.387800987344235,226.24882541317493 50.4749742464046,226.05719921311538" stroke="#4DD2FF" stroke-linecap="round" stroke-linejoin="round" stroke-width="0.5"><title>2025-06-19 5.0km</title><desc>1750345525000</desc></polyline><polyline fill="none" points="74.71428571428987,220.4506187684019 74.5490683230164,219.4688246300284 69.4534161490883,219.95217187507296 68.79689440994116,219.9672764002571 66.6142857142986,219.7155337105869 58.527329192555044,220.0830776067378 57.827329192557954,220.19887854175613 56.71428571428987,220.53117536997524 58.2838509316789,220.10825174613638 61.127329192560865,219.98238092085376" stroke="#4DD2FF" stroke-linecap="round" stroke-linejoin="round" stroke-width="0.5"><title>2025-06-17 5.1km</title><desc>1750166247000</desc></polyline><polyline fill="none" points="80.19211822655052,226.7925256237504 79.57142857142026,222.8033731077594 93.59901477833046,222.39007737179054 91.31798029562924,213.38717765365436 94.08004926110152,213.54891044675605 97.57142857142026,213.2074743762496 92.0628078817972,213.53094014374074 94.09556650248123,221.63536091908463 88.07487684726948,221.9228723296692" stroke="#4DD2FF" stroke-linecap="round" stroke-linejoin="round" stroke-width="0.5"><title>2025-06-16 3.2km</title><desc>1750084948000</desc></polyline><polyline fill="none" points="120.42857142857974,220.8320885070425 120.15276497701416,219.1679114929575 111.30518433178077,219.98319432727294 110.50679723505164,219.99159926299035 107.00841013825266,219.5629464501617 102.42857142857974,219.7814756135267 106.86324884791975,219.5545414707667 110.49953917053062,219.97478939073335 118.004377880221,219.34441670769593" stroke="#4DD2FF" stroke-linecap="round" stroke-linejoin="round" stroke-width="0.5"><title>2025-06-15 4.6km</title><desc>1749956754000</desc></polyline><polyline fill="none" points="143.28571428571013,220.7239137209981 143.06659505906282,219.27608627899463 135.358754027955,219.98507752069418 134.5531686358736,220.00000357831595 131.16326530612423,219.61938815854228 125.28571428571013,219.8880580719997 131.27926960255718,219.61938815854228 134.5016111707955,220.00000357831595 136.18367346940795,219.917910223754 136.49946294302936,219.81342763937573 140.58539205155103,219.44773741994868" stroke="#4DD2FF" stroke-linecap="round" stroke-linejoin="round" stroke-width="0.5"><title>2025-06-14 5.1km</title><desc>1749906363000</desc></polyline><polyline fill="none" points="166.14285714286962,221.06875192149164 165.9264497878612,219.60935958814662 158.46676096183364,220.33168876736454 157.46110325321206,220.33905943610444 154.4059405940934,219.97052507959597 148.65205091939424,220.2432406840744 148.57567185294465,220.0737148887274 148.6074964639556,218.93861888996616 148.14285714286962,218.93124807850836 148.6265912305971,218.9533605106335 148.57567185294465,220.06634419295006 148.67114568603574,220.2432406840744 154.56506364923553,219.96315437331214 157.60113154177088,220.3464301040949 163.64780763795716,219.80099864498334 163.64144271574332,219.50616911642283 165.58274398872163,219.4029784974773" stroke="#4DD2FF" stroke-linecap="round" stroke-linejoin="round" stroke-width="0.5"><title>2025-06-12 5.9km</title><desc>1749735885000</desc></polyline><polyline fill="none" points="189.0,225.66263633829658 188.42619542620378,222.7736221528321 172.6590436589904,224.1748013872275 171.17463617463363,220.11567708935763 171.0,215.0452197203267 173.9438669438241,214.91520560727804 176.45114345109323,215.07411172923457 176.58835758839268,214.6118388796749 176.32640332635492,214.51071649281948 171.07484407478478,214.33736366170342 171.18711018707836,219.97122212506656 171.62370062363334,221.61799998933566 172.48440748435678,223.66922284850443 179.46985446981853,223.06252622140164 179.60706860700157,223.61144232923107 188.3887733888114,222.7591769339051 188.92515592515701,225.61930156052404" stroke="#4DD2FF" stroke-linecap="round" stroke-linejoin="round" stroke-width="0.5"><title>2025-06-10 5.3km</title><desc>1749559786000</desc></polyline><polyline fill="none" points="11.472618154541124,235.2075754171383 11.040510127553716,233.45622788878973 11.0,232.0957923520764 23.2475618905155,231.78304684518662 23.80120030004764,233.83151832780277 23.396099024801515,233.8158812445472 23.274568642198574,234.0973484999995 23.531132783158682,235.55158776117605 23.4636159039801,236.5367097521812 23.909227306838147,238.506934759891 25.05701425363077,238.4600249346695 26.758439609897323,245.0116249951243 26.785446361638606,245.30870762854465 26.35333833459299,245.43379488112987 26.74493623408489,245.3243435407203 26.879969992442057,245.57451791832864 26.528882220503874,245.63706144907337 26.650412603106815,246.21558789956907 27.460615153773688,248.2795023326762 28.027756939234678,248.2169598788605 29.0,247.68534799250483 27.973743435868528,247.90424722757598 26.150787696882617,240.6334984426794 25.934733683418017,240.00804159529798 25.44861215306446,240.00804159529798 25.084021005255636,238.41311509505613 24.692423105763737,238.56948117123102 23.895723931025714,238.4600249346695 23.450112528167665,236.66180415557756 23.3555888972478,234.34754118253477 22.612903225817718,231.7204976673238 11.040510127553716,232.12706686770252 11.526631657907274,235.30139704197063" stroke="#4DD2FF" stroke-linecap="round" stroke-linejoin="round" stroke-width="0.5"><title>2025-06-08 5.0km</title><desc>1749355299000</desc></polyline><polyline fill="none" points="51.857142857130384,240.74069638492801 51.54055994254304,239.2593036150647 45.738693467283156,239.7456227194125 43.99425699925632,239.992521954744 43.02512562813354,239.992521954744 39.95620961950044,239.61843188016064 33.857142857130384,239.8877769260289 39.665470208157785,239.61843188016064 42.99282124909223,240.00000373677904 49.989949748734944,239.37153138663416" stroke="#4DD2FF" stroke-linecap="round" stroke-linejoin="round" stroke-width="0.5"><title>2025-06-07 5.3km</title><desc>1749293029000</desc></polyline><polyline fill="none" points="74.71428571428987,240.71307294099097 74.44853130308911,239.28692705900903 66.23607181437546,240.0375335972858 62.90441895159893,239.65472521866468 56.71428571428987,239.9099310255042 62.87849169195397,239.6397130848345 65.84068110500812,240.0375335972858 72.18637790009961,239.45956724023563" stroke="#4DD2FF" stroke-linecap="round" stroke-linejoin="round" stroke-width="0.5"><title>2025-06-05 5.1km</title><desc>1749128617000</desc></polyline><polyline fill="none" points="79.82339707534993,239.8860670675931 79.57142857142026,238.23566990168183 79.66591676039388,238.16272346800542 86.7289088864054,237.91652881528717 88.0596175478131,242.79470398727426 95.0359955005697,242.70352558211016 97.57142857142026,242.5485220800765 95.48481439822353,242.6214649379981 95.09898762655212,237.20529601272574 88.42182227221201,237.5973865904234 86.98875140608288,237.5517947510598 87.11473565801862,237.91652881528717 83.41394825646421,238.02594874459464" stroke="#4DD2FF" stroke-linecap="round" stroke-linejoin="round" stroke-width="0.5"><title>2025-06-03 5.2km</title><desc>1748952979000</desc></polyline><polyline fill="none" points="117.31398734281538,234.6340175164878 116.91912716682418,234.04958133533364 116.63922628259752,233.43620620635193 116.45928999988246,233.2683948762351 116.01444752310636,233.22788861886875 115.67456787795527,232.8343977591212 115.51962274563266,232.31938354665908 115.2897041621327,231.96639358167886 115.01480150793213,231.0 114.22008292589453,231.3414223644104 113.85021390029578,231.38192996643556 112.89055372573785,231.740710323862 112.48069885952282,232.26730319790295 112.48069885952282,232.40039732762307 110.82128647435457,234.5125015776648 110.81129001418594,234.6340175164878 110.35645107729943,235.25895252669943 109.96159090130823,235.6234947761368 109.89161568027339,235.5598447106022 109.61171479598852,235.80287185012276 109.42678028318915,235.69293113000458 109.42178205313394,235.7970855017411 109.39679090271238,235.6466402368642 109.65669886668911,235.83180358324535 109.61671302607283,236.04011162691313 109.01692541697412,236.70553498535446 107.99228825143655,236.93698476231657 107.99228825143655,236.83283247932923 107.9223130303726,236.96012968818104 107.64241214614594,237.02377818571767 107.39749887242215,236.9543434575935 106.98764400620712,236.98906083225302 106.91766878511407,236.92541229585186 106.75272719265195,237.01799196162392 106.25790241514915,236.8444049646314 106.19292542414041,236.08640219959852 106.00299268125673,235.91859869421023 105.06832365709124,236.15583798797525 104.71844755180064,236.36993113478093 105.11830595787615,238.1000056258963 105.74808294739341,240.03253494010642 107.0776121475501,245.2280515268867 107.26254666037858,245.76609014944552 108.83199090417475,248.94214991849003 109.03192010719795,249.0 109.72167585769785,248.78016937724533 110.1915094848082,248.91900986941982 111.05120505785453,248.73967416986488 111.0362103676016,248.39835627621142 111.26612895107246,248.3347205101927 111.6809820473718,248.52562759469583 111.99587054215954,248.37521600590844 112.1258245241479,248.5661229544785 112.93553779640933,248.74545920124 113.4103696536331,248.65868366858558 113.89019974088296,248.30001006234306 113.97516965217073,247.62315209528606 114.33504221765907,247.12562742731097 114.24007584620267,246.62809840687987 114.3550351379381,246.38511753593048 114.1101218642143,246.11320913992677 113.9551767318917,245.70823677836233 113.89519797096727,245.10655823017805 114.22008292589453,244.84621457745016 114.71490770339733,245.04870418813516 114.98981035756879,245.03134796403174 115.05978557863273,244.65529514124137 114.9448262868973,244.1924574838522 114.8498599154409,244.1519590095886 114.9448262868973,244.10567500370234 114.83486522521707,244.0709619745503 114.92483336656005,244.12303151032393 114.93482982675778,243.8511122978598 114.80487584476941,243.55026399437338 114.21508469581022,243.50976506273219 113.94018204163876,243.30148438722608 114.0551413333742,242.5146393944342 114.52497496051365,241.7104262748653 114.88484752597287,241.31120834312242 115.0497891184641,241.2533504392959 115.40466345386812,240.7615558794496 116.02944221333019,240.165610888409 116.58424575175741,239.47129816576853 116.42430238932138,239.1472826598947 115.92947761181858,239.14149665194054 115.86450062083895,238.95055805890297 116.05443336372264,238.49346003390747 116.27435548705398,238.28516098064938 116.4792829201615,238.3140914503565 116.56425283144927,238.20994169052938 116.38931477881852,237.81069917671994 116.62423159234459,237.31887483397077 116.84415371570503,237.1915784284829 117.0290882285044,237.26679906617574 117.00409707811195,237.12793011885879 117.55890061653918,236.87333616760588 117.60888291729498,236.71710749659178 118.09371123465826,236.42200772422075 118.13869530532975,235.99960734488195 117.50392008569906,234.790251913244 117.40395548415836,234.74396028490082" stroke="#4DD2FF" stroke-linecap="round" stroke-linejoin="round" stroke-width="0.5"><title>2025-06-02 11.5km</title><desc>1748829019000</desc></polyline><polyline fill="none" points="143.28571428571013,240.8417534750406 142.9559890567325,239.1582465249594 133.44641370285535,240.04339350415103 129.50469846552005,239.59214325279754 125.28571428571013,239.77437921910314 129.55715475196484,239.57478742613603 133.01177590101724,240.02603776947217 142.94100154630723,239.1669244812001 143.27822053051204,240.7896867485979" stroke="#4DD2FF" stroke-linecap="round" stroke-linejoin="round" stroke-width="0.5"><title>2025-06-01 4.9km</title><desc>1748740054000</desc></polyline><polyline fill="none" points="166.1428571428405,248.67410667186778 166.0776791102835,248.81247984978108 165.94732304505305,248.7118448267065 165.51280282781227,246.29657965675142 151.7819639624213,247.49163864280126 150.51099232694833,243.93158671310812 150.45667729980778,239.4530716523077 150.15251314768102,237.7672963525838 148.1428571428405,231.18752015021892 149.46814380551223,235.59085089842847 149.82662298477953,236.27020793587872 150.4132252780837,238.79889292705775 150.99982757138787,238.9624379334782 150.39149926719256,238.9498575560865 150.51099232694833,243.51645029734937 150.92378653329797,245.2147268062472 151.64074489177437,246.98845732213522 151.82541598414537,247.1016732981443 157.71316492801998,246.4978535594273 157.87611000944162,246.97587776285945 162.5580653504585,246.5230127741961" stroke="#4DD2FF" stroke-linecap="round" stroke-linejoin="round" stroke-width="0.5"><title>2025-05-31 5.5km</title><desc>1748696141000</desc></polyline><polyline fill="none" points="187.7376623376622,244.96756412692775 187.32857142860303,242.32819520025805 172.51948051952058,243.65465383294213 171.1519480519346,239.75645194278331 171.0,235.0595080771891 176.02597402594984,235.11365246893547 171.07012987014605,235.0324358730868 171.1636363636353,239.68877381607308 171.52597402600804,241.13707819906995 172.43766233761562,243.22152594024374 185.55194805195788,241.96273998371908 186.72077922080643,241.89506298136257 186.77922077925177,242.395871981862 189.0,242.2199122779857" stroke="#4DD2FF" stroke-linecap="round" stroke-linejoin="round" stroke-width="0.5"><title>2025-05-29 5.0km</title><desc>1748526381000</desc></polyline><polyline fill="none" points="21.91125198098598,258.23286041124084 21.51188589539379,254.9625264027418 28.272583201294765,254.632185964394 29.0,257.2914073854481 28.215530903311446,254.69825410589692 21.483359746460337,255.01207741038525 21.6687797147315,256.6472521640244 21.412044374039397,255.02859440956672 11.798732171126176,255.92050986597314 13.239302694099024,263.13823769203736 13.795562599028926,264.82287846862164 13.424722662428394,265.05410230671987 14.009508716291748,266.6065966768656 13.225039619661402,264.55862224975135 11.285261489683762,255.95354367756227 14.65134706813842,255.47455275138782 20.741679873201065,255.09466238951427 20.670364500838332,254.61566892477276 11.727416798763443,255.22679826857348 11.228209191758651,253.39340332311986 11.0,253.59160918208363 11.11410459590843,255.3589340398612 17.86053882725537,254.69825410589692" stroke="#4DD2FF" stroke-linecap="round" stroke-linejoin="round" stroke-width="0.5"><title>2025-05-27 6.0km</title><desc>1748352132000</desc></polyline><polyline fill="none" points="49.45850959973177,261.34136010772636 49.53026358608622,261.2938794083384 49.29962577283732,260.14246059575817 43.2364139277488,260.724107996004 42.53424991865177,260.73597829062055 40.007484542788006,260.43922019933234 33.96989912138088,260.70630254955176 33.857142857130384,258.7357995008242 34.57468272047117,258.6586398922773 35.563862674927805,258.7298641499583 35.56898795964662,260.43922019933234 40.15611780018662,260.2552294232628 42.944272697670385,260.5282477855035 49.28937520337058,259.8991165923253 51.74951187762781,259.81008804430166 51.857142857130384,260.0059506702637 51.785388870805036,260.02969154986204 49.514887731842464,260.12465497143785" stroke="#4DD2FF" stroke-linecap="round" stroke-linejoin="round" stroke-width="0.5"><title>2025-05-25 7.6km</title><desc>1748179850000</desc></polyline><polyline fill="none" points="74.70249017039896,260.9937263310785 74.6553079947771,260.6044361218592 74.42529488861328,260.6044361218592 74.27785058977315,259.87365716575005 74.15989515071851,259.70974303461117 68.4685452162812,260.19465451112046 67.53669724773499,260.3653971534659 63.797509829630144,260.01708170158236 56.814547837508144,260.3312486598079 56.71428571428987,259.14287024004443 58.448230668436736,259.0062736689215 58.43643512451672,260.00342223521875 58.666448230680544,260.0307411651738 63.56749672346632,259.8190191666072 67.11795543905464,260.12635733236675 74.49017038010061,259.4160625469376 74.71428571428987,260.9186003264549" stroke="#4DD2FF" stroke-linecap="round" stroke-linejoin="round" stroke-width="0.5"><title>2025-05-24 6.6km</title><desc>1748094255000</desc></polyline><polyline fill="none" points="97.57142857142026,260.80202481051674 97.37561874065432,259.19797518949053 89.96385403478052,259.827841329432 88.9340393691673,260.00420298581594 87.75918038448435,260.02099931432895 84.37239553357358,259.60948827948596 79.57142857142026,259.8026467762611 84.3506388856913,259.6010900737019 87.71566708874889,260.02939747733035 95.39576378496713,259.3827364228928" stroke="#4DD2FF" stroke-linecap="round" stroke-linejoin="round" stroke-width="0.5"><title>2025-05-18 4.7km</title><desc>1747565909000</desc></polyline><polyline fill="none" points="118.08903521328466,260.6444834943504 117.89321500144433,259.4927689701035 112.67306040652329,259.9343616728147 111.80217578014708,260.0895150749857 111.10134554823162,260.083547644037 108.71543086171732,259.77324039691666 102.46464357286459,260.0596779141961 102.42857142857974,259.8806546301021 105.94818207845674,259.6538910178133 108.33409676497104,259.61211867765087 111.12195820210036,260.0596779141961 117.96020612653228,259.4509965149773 120.26367019751342,259.3555165056496 120.35642714001006,259.3674515153325 120.37188663039706,259.4509965149773 120.42857142857974,259.4151915297298" stroke="#4DD2FF" stroke-linecap="round" stroke-linejoin="round" stroke-width="0.5"><title>2025-05-17 5.7km</title><desc>1747487200000</desc></polyline><polyline fill="none" points="142.30206849394017,259.2558608284089 139.91834292552085,259.3805780957555 138.75519972646725,259.5884397842601 133.41335688641993,259.9958471573991 130.0675252150977,259.5634964096098 125.28571428571013,259.7547287537309 130.00290614849655,259.58012532689463 133.28411875318852,259.9875327415284 142.8190210268367,259.1560868772649 143.13493646364077,260.76908412746707 143.28571428571013,260.8439131227278" stroke="#4DD2FF" stroke-linecap="round" stroke-linejoin="round" stroke-width="0.5"><title>2025-05-11 5.0km</title><desc>1746965499000</desc></polyline><polyline fill="none" points="166.14285714286962,260.64671074700163 165.8523262963281,259.35328925299837 157.6851813895919,260.09345810143714 154.3666734986473,259.7121599303937 148.14285714286962,259.9738353591529 154.21172371387365,259.71963638415764 157.3107194096956,260.09345810143714 165.90397622462478,259.3682422329366" stroke="#4DD2FF" stroke-linecap="round" stroke-linejoin="round" stroke-width="0.5"><title>2025-05-10 5.3km</title><desc>1746870058000</desc></polyline><polyline fill="none" points="188.96069868994527,259.69658927550336 188.91484716156265,259.5676388092543 189.0,259.66624800941645 188.6528384279518,259.72693052919203 180.62882096073008,260.4323611907457 177.22925764191314,260.03034238589316 171.0,260.28824149152933 177.19650655021542,260.03034238589316 178.78820960698067,260.1592920504336 180.23580786027014,260.42477595036326 186.80567685590358,259.83312481975736" stroke="#4DD2FF" stroke-linecap="round" stroke-linejoin="round" stroke-width="0.5"><title>2025-05-05 5.4km</title><desc>1746434825000</desc></polyline></svg>