<?xml version="1.0" encoding="utf-8" ?>
<svg baseProfile="full" height="300mm" version="1.1" viewBox="0,0,200,300" width="200mm" xmlns="http://www.w3.org/2000/svg" xmlns:ev="http://www.w3.org/2001/xml-events" xmlns:xlink="http://www.w3.org/1999/xlink"><defs /><rect fill="#222222" height="300" width="200" x="0" y="0" /><text fill="#FFFFFF" style="font-size:12px; font-family:Arial; font-weight:bold;" x="10" y="20">Over 3km Runs</text><text fill="#FFFFFF" style="font-size:4px; font-family:Arial" x="10" y="280">Runner</text><text fill="#FFFFFF" style="font-size:9px; font-family:Arial" x="10" y="290">tang-hi</text><text fill="#FFFFFF" style="font-size:4px; font-family:Arial" x="65" y="280">SPECIAL TRACKS</text><rect fill="yellow" height="2.6" width="2.6" x="65" y="283" /><text fill="#FFFFFF" style="font-size:3px; font-family:Arial" x="70" y="285.5">Over 20.0 km</text><rect fill="red" height="2.6" width="2.6" x="65" y="287" /><text fill="#FFFFFF" style="font-size:3px; font-family:Arial" x="70" y="289.5">Over 40.0 km</text><text fill="#FFFFFF" style="font-size:4px; font-family:Arial" x="120" y="280">STATISTICS</text><text fill="#FFFFFF" style="font-size:3px; font-family:Arial" x="120" y="285">Number: 90</text><text fill="#FFFFFF" style="font-size:3px; font-family:Arial" x="120" y="290">Weekly: 3.8</text><text fill="#FFFFFF" style="font-size:3px; font-family:Arial" x="141" y="285">Total: 467.5 km</text><text fill="#FFFFFF" style="font-size:3px; font-family:Arial" x="141" y="290">Avg: 5.2 km</text><text fill="#FFFFFF" style="font-size:3px; font-family:Arial" x="167" y="285">Min: 3.0 km</text><text fill="#FFFFFF" style="font-size:3px; font-family:Arial" x="167" y="290">Max: 11.5 km</text><polyline fill="none" points="20.425227879488375,31.0 20.553115963557502,31.11098773541744 20.482777517318027,31.72511681359174 20.565904771967325,32.13206696400448 20.143874094588682,34.98065434300952 19.94564756428008,35.72052894018998 20.015986010519555,35.898097725097614 19.4468840364716,39.41978919109533 19.47246165332035,39.78970488326013 19.03764216750278,42.91911647303641 19.063219784322428,44.12497678431828 19.60034973733127,48.963013191380014 19.95204196847044,49.0 19.98401398950955,48.86684740111377 19.67708258779021,45.885644951638824 19.37654559026123,44.01400887784985 19.370151186041767,42.86733061391715 19.67708258779021,40.5961145809124 19.90088673486025,39.39019585456845 19.990408393729012,39.39019585456845 19.875309118098812,39.323610803425254 20.30373419963871,36.23103802994592 20.43162228370784,35.48376988686505 20.553115963557502,35.320997591239575 20.482777517318027,35.084237239090726 20.770525706437184,32.886768496107834 20.962357832526322,32.48722160048783" stroke="#4DD2FF" stroke-linecap="round" stroke-linejoin="round" stroke-width="0.5"><title>2025-10-16 4.6km</title><desc>1760619242000</desc></polyline><polyline fill="none" points="42.62274919412448,49.0 42.62974601989845,48.45754932039563 42.81166348970146,48.23085241978697 43.4973524142988,43.56723019464698 43.609301626478555,41.470130522611726 42.87463492155075,35.68055330423522 42.48281267893617,34.878886363199854 42.573771413823124,34.741225571553514 42.89562539884355,34.78981176049274 42.7416952320782,33.21884330229659 42.39885076976498,32.7896558077191 42.44083172435057,31.979861782201624 42.07699678474455,31.0 42.42683807283174,31.834097983009997 42.41984124708688,32.80585160422925 42.7416952320782,33.21884330229659 42.88862857306958,34.78171406438196 42.60875554263475,34.72503016865085 42.496806330455,34.814104843833775 42.89562539884355,35.63196765874454 43.12652064894792,38.15028456867003 43.63728892951622,41.704943655393436 43.63728892951622,42.56322025186091 43.14051430049585,46.19055128774198 42.930609527626075,47.34025120863953 42.61575236837962,47.79364943283872 42.69271745174774,48.36848990065482 42.517796807718696,48.96761498844717" stroke="#4DD2FF" stroke-linecap="round" stroke-linejoin="round" stroke-width="0.5"><title>2025-10-14 5.0km</title><desc>1760442162000</desc></polyline><polyline fill="none" points="66.3049581561354,31.0 66.22749291785294,31.522883715202624 66.32432446570601,31.918778911327536 66.27913641001214,32.35948992386693 65.91763196475222,34.66757733162376 65.73042430559872,35.14561874006904 65.62713732125121,36.60960121928656 65.14297958201496,39.39556899483432 65.18816763770883,39.75407728993014 64.72983164456673,43.070196170061536 65.31082093162695,48.98506406692468 65.62713732125121,49.0 65.67878081341041,48.85810851336282 65.05905890723807,42.920824661661754 65.48511771773337,39.74660838495038 65.60131557512796,39.61216796544613 65.98864176651114,36.25854685304512 66.25977010047063,35.205373697586765 66.18876029871171,34.98129235650413 66.46634406919475,32.971999146997405 66.69873978401301,32.0980515063784" stroke="#4DD2FF" stroke-linecap="round" stroke-linejoin="round" stroke-width="0.5"><title>2025-10-12 5.0km</title><desc>1760269757000</desc></polyline><polyline fill="none" points="89.18298975788639,31.0 89.19593285178416,32.32544108592265 88.82058312886511,34.84895511166542 88.6717375490698,35.14847626286064 88.65879445517203,35.92722555983346 88.09576987079345,39.35661976530537 88.12812760556699,39.723510571617226 87.68159086621017,42.87570124598278 87.68159086621017,43.75170180210989 88.25755854448653,49.0 88.63290826740558,48.94010712039017 87.99222511964035,43.01047123972239 89.08591655371129,35.34316435844812 89.20887594568194,35.16345228847058 89.15063202314195,34.89388336194679 89.46126627663034,32.66241383264423" stroke="#4DD2FF" stroke-linecap="round" stroke-linejoin="round" stroke-width="0.5"><title>2025-10-11 5.0km</title><desc>1760186515000</desc></polyline><polyline fill="none" points="112.01286374134361,31.0 112.03212612529751,31.661242225862225 112.1155964556965,31.787546240506344 112.07065089317621,32.54536574674421 111.69824480370153,35.00451024670474 111.56340811614064,35.24224792933819 111.56340811614064,35.933168682553514 111.06900692841737,39.26881253547617 110.96627421406447,39.4693920607242 110.99837818730157,39.93740881382837 110.5746057406941,42.983158971699595 110.77365037472919,45.79107969695178 111.17173964274116,49.0 111.60835367866093,48.962860523708514 110.96627421406447,44.08999773445248 110.90848706226097,42.91630240272934 111.33225950889755,39.89283591874846 111.45425460717524,39.63282682272256 111.89728943770751,36.000031634837796 112.1027548663842,35.27939437243913 112.03854691993911,35.049086121071014 112.28253711646539,33.37747223654151" stroke="#4DD2FF" stroke-linecap="round" stroke-linejoin="round" stroke-width="0.5"><title>2025-10-10 5.0km</title><desc>1760093219000</desc></polyline><polyline fill="none" points="134.54740648838924,49.0 135.69230987512856,40.558792945848836 135.61053106180043,38.84585372029687 135.0299014870834,34.21792108262889 135.29159368976252,34.63434979901649 135.2834158084297,33.564881389655056 135.92129055244732,33.72577565238316 135.2752379270969,33.55541701258335 135.24252640176564,34.161135204238235 135.43061767242034,34.60595699114492 135.06261301241466,34.823634963344375 135.11168030044064,35.29684619026375 134.69460835240898,35.344167180664954 134.31842581107048,32.48593620691099 133.8931759816769,31.709845096396748 133.9504211510648,31.54894734903064 134.34295945506892,31.66252225840435 134.31842581107048,31.113575579205644 134.15486818438512,31.0 132.65013801897294,31.246080246499332 134.1466903030232,31.04732317484013 134.334781573707,31.21768640508526 134.35113733640173,31.634128544050327 133.9585990323685,31.530018183970242 133.91770962570445,31.700380530732218 134.4002046243986,32.78879927516391 134.72731987774023,36.40415106108412 135.17710335107404,39.139232288369385 135.23434852043283,40.41683785411442 134.38384886170388,46.53017443662975" stroke="#4DD2FF" stroke-linecap="round" stroke-linejoin="round" stroke-width="0.5"><title>2025-10-08 5.0km</title><desc>1759920144000</desc></polyline><polyline fill="none" points="157.7950683577801,31.0 157.78437637066236,32.051619571044284 157.9661401519552,32.10110732708563 157.869912267779,33.33829469135526 157.2604690013104,37.48278077421128 157.04662925866432,37.97763535741251 156.89694143889938,40.34053826719901 156.33026612096,44.113665137498174 156.0736584297847,44.91775903272355 156.1164263782557,45.57340089532954 155.63528695743298,49.0 156.08435041690245,44.93012966657989 156.20196227537235,44.73219937422982 156.83278951607645,44.73219937422982 157.69884047360392,38.64568585500092 157.94475617766147,38.02712070514826 157.8485282934853,37.655980107076175 158.45797155995388,33.177461044899246 158.65042732824804,33.00425534185342" stroke="#4DD2FF" stroke-linecap="round" stroke-linejoin="round" stroke-width="0.5"><title>2025-10-07 3.0km</title><desc>1759844077000</desc></polyline><polyline fill="none" points="180.625398615608,31.0 180.70276751648635,31.04476303512638 180.61250379876583,31.611759117666224 180.7156623332994,31.64906133803015 180.6511882492341,32.45478467189969 180.29658078678767,34.86444151183241 180.14829039337928,35.19268585972168 180.03868445043918,36.7294467011161 179.68407698802184,39.12404391678865 179.56157622821047,39.37767269397591 179.60670808711438,39.750654598763504 179.16828431535396,42.68968574330211 179.14249468172784,43.76382006708445 179.72276143843192,49.0 180.10315853453358,48.94778922160913 179.8065777477459,46.29990823429398 179.85815701499814,46.09105722273671 179.49710214417428,44.0845654656805 179.47131251051906,43.21183633473265 180.85750531830126,33.42462510673067" stroke="#4DD2FF" stroke-linecap="round" stroke-linejoin="round" stroke-width="0.5"><title>2025-10-06 5.0km</title><desc>1759755043000</desc></polyline><polyline fill="none" points="23.73479171463987,68.89656125801412 23.79659677844029,69.0 24.423476711614057,68.85518573033914 24.57357472385047,68.58624437088292 23.840743252658285,66.9518923999276 23.955524085497018,66.79673097288469 22.684105629392434,64.04516048127698 22.06605499109719,63.22794971503754 21.84532262024004,62.44176577728649 21.84532262024004,61.04523913684534 23.29332697292557,60.66248388355598 23.302156267804094,60.38317504360748 20.211903076036833,57.714183378186135 18.304775391938165,55.458931670495076 17.942774303781334,54.786484094001935 15.991500145522878,52.386325524894346 15.426425276207738,51.0 16.221061811200343,52.6035837004747 17.704383343283553,54.32094073515327 18.35775116091827,55.407205099239945 20.55624557455303,57.9003944802389 21.74820037704194,58.67627022733359 23.116741076286417,60.207313509883534 22.993130948627368,60.46593330218457 21.527468006242998,60.79696563098696 21.757029671920463,61.24178854535421 21.739371082221624,62.34866462622449 21.915956978918985,63.0831268364127 22.85186223126948,64.60375628779002 23.73479171463987,66.68294576885091 20.715172881551553,67.74838382213784" stroke="#4DD2FF" stroke-linecap="round" stroke-linejoin="round" stroke-width="0.5"><title>2025-10-04 5.0km</title><desc>1759568734000</desc></polyline><polyline fill="none" points="42.6595506343001,51.50442067741824 42.67366436449811,51.28942210126115 42.20791126776021,51.16538419009885 39.87208891889895,51.0 42.1796838073642,51.18192258972704 42.69483495980967,51.339037210193055 42.67366436449811,51.578843122624676 43.11824686592445,52.141143734123034 43.01945075450931,52.25691100109543 43.09001940555754,52.538059358681494 43.25938416799181,52.728247375707724 45.84219679542002,59.36799758615962 42.73011928531923,60.51728644247487 43.09001940555754,62.113033389570774 43.76747845535283,64.27096022650949 44.063866789627355,65.93277102836146 44.57196107701748,67.0984976675245 44.37436885415809,67.30518496040895 44.53667675147881,67.5862787954029 44.67075718843262,68.30554367879813 44.58607480718638,68.12366123453103 44.367311989015434,68.05752205820318 44.14149230576004,68.17326557980414 44.077980519854464,68.38821737621765 44.39553944944055,68.95039618311421 44.65664345823461,69.0 44.82600822066888,68.81811918313178 44.81189449047088,68.56183185413829 44.52961988639436,68.09885905000556 44.32497079842142,68.04098725530639 44.162662901042495,68.14019601978362 44.09915111513692,68.47089098555443 44.402596314525,68.95039618311421 44.70604151391308,68.97519809551886 44.84717881598044,68.61970326044684 44.59313167229993,68.16499819111777 44.247345282288734,68.06578945832734 44.085037384938914,68.42128683051124 44.24028841720428,68.77678257440857 44.48022183065768,68.99173269939638 44.74132583945175,68.95039618311421 44.854235681093996,68.74371327157132 44.67075718843262,68.24767203822557 44.38142571921344,68.05752205820318 44.12032171047758,68.181532967581 44.155606035958044,68.60316857734142 44.48727869577124,69.0 44.81895135555533,68.83465382046415 44.82600822066888,68.59490123445721 44.50139242596924,68.09059165341023 44.247345282288734,68.07405685756385 44.106207980250474,68.1980677405154 44.19089036149671,68.62797060067533" stroke="#4DD2FF" stroke-linecap="round" stroke-linejoin="round" stroke-width="0.5"><title>2025-10-02 5.0km</title><desc>1759403720000</desc></polyline><polyline fill="none" points="65.33923590742052,69.0 65.76382059443858,66.30598840441962 65.96903652648325,66.18315898112633 66.40777403640095,62.964961368226795 66.45730891652056,61.449989238630224 65.98318934938288,58.411770083192096 65.73551494861022,55.67645589262975 65.62936877686298,55.266969726624666 65.30385385017144,54.74282439627859 65.38877078756923,54.61178753072454 65.72136212571058,54.669116185636085 65.56568107378553,53.07208839061059 65.22601332416525,52.65439897367469 65.26847179286415,51.79444335276639 64.96418610055116,51.0 65.27554820434307,51.859964104201936 65.22601332416525,52.629828940516745 65.56568107378553,53.07208839061059 65.72136212571058,54.669116185636085 65.38169437609031,54.619977341055346 65.33923590742052,54.74282439627859 65.74966777150985,55.65188678137201 66.46438532799948,61.68747323912248 66.35116274480242,63.52999773333431 65.61521595393424,68.41043677189737 65.50199337076629,68.41862517959089 65.43830566771794,68.65608864113892" stroke="#4DD2FF" stroke-linecap="round" stroke-linejoin="round" stroke-width="0.5"><title>2025-09-30 5.0km</title><desc>1759224370000</desc></polyline><polyline fill="none" points="88.30180842548725,69.0 88.34382714953972,68.4327499938372 88.50489892504993,68.31929950841004 89.20521099248435,63.67579471338831 89.33827028531232,61.925293401713134 88.63095509717823,55.936019029832096 88.49789580435026,55.392990850079514 88.19676161534153,54.87427391026722 88.24578346009366,54.77701410824375 88.60294261449599,54.83374900717172 88.43486771828611,53.17221024011815 88.09871792589547,52.80747758188954 88.13373352927738,51.94832294592197 87.79758373688674,51.0 88.11272416723659,51.76190137755475 88.10572104656603,52.79937239275023 88.44187083895667,53.2046308400968 88.616948855808,54.801329069872736 88.53291140770307,54.86616893129394 88.24578346009366,54.76080412969168 88.2037647360412,54.85806395149848 88.616948855808,55.81444587815349 88.81303623470012,58.25397831849841 89.31025780260097,61.25263684258243 89.34527340598288,62.45206867228262 88.51890516639105,68.48137158103782 88.35783339085174,68.5299931385889 88.28079906344647,68.9108609805262" stroke="#4DD2FF" stroke-linecap="round" stroke-linejoin="round" stroke-width="0.5"><title>2025-09-28 5.0km</title><desc>1759056716000</desc></polyline><polyline fill="none" points="111.97286002113833,51.0 112.01821740384912,51.6298117194674 112.11541179535561,51.63730944564304 112.0570951604168,52.38707821701246 111.66831759433262,54.89125070165028 111.53224544622935,55.18364853528328 111.53224544622935,55.895894820583635 110.94907909707399,59.43453235110064 111.0009161058988,59.75689979613526 110.54086265264777,62.94301394087233 110.56678115707473,64.14245657841093 111.12402900180314,68.94003227640496 111.51280656791641,69.0 111.19530488891178,66.33138915974268 111.2536215238506,66.1664718422544 110.91020134044811,63.925059046312526 110.88428283605026,62.93551736311201 111.92750263842754,55.521029211471614 112.08301366484375,55.236130075099936 112.02469702993403,55.01870631001657 112.31628020451171,52.746964521342306" stroke="#4DD2FF" stroke-linecap="round" stroke-linejoin="round" stroke-width="0.5"><title>2025-09-27 5.0km</title><desc>1758971882000</desc></polyline><polyline fill="none" points="134.01209999699495,69.0 134.08225750693236,68.45608108815213 134.26466703272308,68.26124356216314 135.06446264588158,62.13985596117709 134.2997457876918,55.66886058036471 133.9138794830942,54.88126324179029 133.97000549102086,54.775708368979394 134.25063553074142,54.897502440617245 134.31377728967345,54.84066523029469 134.15943076784606,53.241087149319355 133.81565896919346,52.802618526271544 133.85073772419128,51.90131435039075 133.4999501745333,51.0 133.85775347513845,51.885074542224174 133.8367062221805,52.84321757399448 134.1874937718385,53.29792549823469 134.32780879168422,54.83254562551883 133.97000549102086,54.775708368979394 133.94895823809202,54.905622038779256 134.36288754662382,55.87996782517439 134.65754908829695,58.96531772155868 135.07147839688696,61.80698191402189 134.9802736339625,63.414507168505224 134.24361977976514,68.30995298819471" stroke="#4DD2FF" stroke-linecap="round" stroke-linejoin="round" stroke-width="0.5"><title>2025-09-25 5.0km</title><desc>1758803583000</desc></polyline><polyline fill="none" points="157.6774265677086,51.0 157.68390619708225,52.39457586595381 157.12017843997455,55.64848373136192 157.1136988106009,56.65311754227878 156.60180808859877,59.40454460914043 156.64068586495705,59.749402893707156 156.18063217811869,63.11543501838605 156.40093957746285,65.96407281215215 156.78323771158466,69.0 157.15257658693008,68.94003227636858 156.51109327710583,63.07045564542932 158.10508210759144,52.29710636640084" stroke="#4DD2FF" stroke-linecap="round" stroke-linejoin="round" stroke-width="0.5"><title>2025-09-23 5.1km</title><desc>1758638106000</desc></polyline><polyline fill="none" points="179.86069011726067,69.0 179.77710418761126,68.96776003399282 179.79800067003816,68.29877778245282 179.9512415410427,68.15369654965616 180.28558525966946,66.17089310484153 180.77316984932986,61.90689175949956 180.020896482456,55.65959484272025 179.63082881071023,54.85345615795086 179.71441474035964,54.756718964919855 180.0417929648538,54.78896470904874 179.88855209379108,53.19278463096998 179.5542083751934,52.813888680393575 179.5681393634586,51.84648654937337 179.20593366830144,51.0 179.58207035178202,51.91904211871588 179.561173869326,52.82195031522133 179.89551758795278,53.176661435914866 179.87462110555498,53.71678668488312 180.05572395314812,54.78090327423706 179.72138023449224,54.7405960879405 179.66565628140233,54.84539472969482 180.08358592967852,55.82082159604761 180.37613668345148,58.91631168380263 180.79406633172766,61.67313080356689 180.67565293141524,63.44647256533062 180.0487584589864,67.5975493656515" stroke="#4DD2FF" stroke-linecap="round" stroke-linejoin="round" stroke-width="0.5"><title>2025-09-21 5.0km</title><desc>1758459157000</desc></polyline><polyline fill="none" points="11.018311291991267,74.37475195724983 11.0,74.90446356074972 11.57680569688091,74.87268094040337 11.732451678544749,74.99981136353017 12.0620549339219,74.8832751482405 14.442522889119573,74.87268094040337 14.653102746699005,74.99981136353017 16.319430315401405,74.98921716754558 16.566632756905165,75.10575326441904 17.152594099752605,74.95743457304343 20.228891149628907,74.95743457304343 21.831129196332768,74.98921716754558 22.00508647004608,75.12694163167907 23.177009155682754,75.04218813683838 29.0,75.22228923106013 28.423194303235505,79.56580963526358 28.11190233984962,80.0425264659134 22.032553408003878,80.01074541168782 21.693794506660197,85.62524804275017 21.99593082407955,80.38152377513325 27.333672431355808,80.4133047163632 28.12105798581615,80.56161564741342 28.40488301118603,79.62937200527813 28.6246185147902,77.84961099945212" stroke="#4DD2FF" stroke-linecap="round" stroke-linejoin="round" stroke-width="0.5"><title>2025-09-20 5.0km</title><desc>1758380898000</desc></polyline><polyline fill="none" points="43.48150640953099,71.0 43.36564513176563,71.14151495879923 43.37208186942735,71.6479873094504 43.46863293420756,71.7075720618086 43.41070229536854,72.43748134750058 43.02449803616037,74.97721109895065 42.837832644203445,75.64750632859068 42.87001633248292,76.16139518770797 42.419444696744904,79.22231072484283 42.31002015664126,79.37870443778229 42.355077320185956,79.73617452901817 41.91737915974227,82.90119827391027 41.94956284802174,84.10014806473919 42.483812073245645,89.0 42.805648955953075,88.99255366486614 42.87645307011553,88.90319758416445 42.599673351011006,86.01395897911425 42.26496299303835,83.98099865214317 42.26496299303835,82.7522590429653 43.29484101757407,75.48365694951644 43.43644924595719,75.23043446155498 43.37851860708906,75.021897638253 43.79690655457671,72.2661767597092" stroke="#4DD2FF" stroke-linecap="round" stroke-linejoin="round" stroke-width="0.5"><title>2025-09-18 5.2km</title><desc>1758195038000</desc></polyline><polyline fill="none" points="65.3182524885633,88.8458937524847 65.30423361330759,89.0 65.465450678661,88.96755660420604 65.53554505488137,88.38357322482625 65.68975268260692,88.27813132595475 66.39770588258398,83.4276533905213 66.50284744697274,82.03247805531282 65.75283762119943,75.70521397983248 65.35329967664438,74.8858777071946 65.42339405292296,74.73174420068972 65.7598470588564,74.80475484616909 65.61965830638655,73.23906746844295 65.26217698756955,72.8172189821853 65.29722417567973,71.92483983356215 64.925723981607,71.0 65.3182524885633,71.95729015932011 65.29722417567973,72.8253314741014 65.61965830638655,73.21473011639318 65.76685649645515,74.8128671359882 65.42339405292296,74.74796879437054 65.37432798952796,74.87776542481879 65.71078099546139,75.46995987161063 65.83695087270462,76.07026208472962 66.06125287667965,78.60932824826159 66.49583800931578,81.46466715620772 66.50284744697274,82.73006877187436 66.14536612812662,85.33381282278424 65.99816793805803,86.22604202100047 65.82293199747801,86.38826443997095 65.64068661924102,88.05102522452944 65.47946955388761,88.45657138088427" stroke="#4DD2FF" stroke-linecap="round" stroke-linejoin="round" stroke-width="0.5"><title>2025-09-16 5.1km</title><desc>1758026219000</desc></polyline><polyline fill="none" points="89.32546298173838,71.0 89.16434451800887,71.07457414198143 89.14501030233805,71.55184685628774 89.26101559627568,71.68607924797107 89.2159024263965,72.41689574021439 88.83566285198322,74.97469615956652 88.7067680809414,75.19840624316566 88.56498383291182,77.1521119962199 88.13318635005271,79.40402892921702 88.16541004276951,79.80668229299772 87.72072308286442,83.25151525310503 88.32652850652812,89.0 88.68098912679125,88.92544406375237 88.05584948742762,82.97563631591038 88.42319958476583,80.26898528364109 88.60365226416616,79.61281243054691 88.95811288440018,76.52573871555069 89.14501030233805,75.39974473546317 89.25457085767994,75.22823420279019 89.20945768782985,74.84792680956889 89.42213406000519,73.4236208282091" stroke="#4DD2FF" stroke-linecap="round" stroke-linejoin="round" stroke-width="0.5"><title>2025-09-14 5.0km</title><desc>1757842188000</desc></polyline><polyline fill="none" points="111.92040924628964,71.0 112.03042560027097,71.97349012749328 111.59036018440383,74.92383551284001 111.40268522762926,75.59026773840014 111.45445762950112,75.8673220589917 111.12440856761532,78.34578870957921 110.88496120893979,79.39405768526922 110.91731896015699,79.79089847931755 110.47078199405223,83.10780496994994 110.6908147019858,85.98283569532214 111.07263616571436,89.0 111.45445762950112,88.91764727800182 110.79435950570041,83.14524098618858 112.38636086310726,72.16069829320622" stroke="#4DD2FF" stroke-linecap="round" stroke-linejoin="round" stroke-width="0.5"><title>2025-09-13 5.1km</title><desc>1757760467000</desc></polyline><polyline fill="none" points="134.97027450273163,71.0 134.93798392644385,72.4123634671414 134.57632947218372,74.88580239901785 134.43425093655242,75.18470177277777 134.27279805517173,76.97060022211372 133.85302056357614,79.42894181154406 133.8917692551331,79.72782272592303 133.43970118727884,82.93324419247801 133.45261741775903,83.76259623710939 134.02738967549521,89.0 134.40841847556294,88.9477025181186 134.15009386531892,86.09369786738534 133.79489752629888,83.99421540850017 133.7690650652803,83.14245099525579 134.80882162138005,75.62557613203535 134.96381638749153,75.19964670958143 134.91215146545437,75.00536229426507 135.1317273841414,73.4734864293714" stroke="#4DD2FF" stroke-linecap="round" stroke-linejoin="round" stroke-width="0.5"><title>2025-09-11 5.0km</title><desc>1757592265000</desc></polyline><polyline fill="none" points="156.7828443677863,88.92719921069511 156.92265515422332,88.85439835482248 156.94362677220488,88.32861241891078 157.10440917662345,88.21536576279323 157.20227672712645,87.64104095492803 157.418983446114,85.59446956736792 157.85239688406,83.15954731519741 157.90832119862898,81.476899708563 157.1743145697983,75.6278045622239 156.77585382843972,74.87540011727106 156.84575922167278,74.74595347390277 157.18829564846237,74.77022473557736 157.0345037833613,73.2411207896439 156.6919673565717,72.79613793038152 156.7409011318523,71.98707180973724 156.37739308708115,71.0 156.7339105925057,71.8818926097083 156.69895789591828,72.8365910204302 157.0345037833613,73.20875848379364 157.1813051091449,74.7944959898523 156.8387686823553,74.74595347390277 156.77585382843972,74.85112888769072 157.01353216537973,75.1666542948442 157.20926726644393,75.765340089456 157.5098604572995,78.98522156006948 157.90832119862898,81.59015595259552 157.85239688406,83.25662205327535 157.01353216537973,88.95146614787518 156.85974030030775,89.0" stroke="#4DD2FF" stroke-linecap="round" stroke-linejoin="round" stroke-width="0.5"><title>2025-09-09 5.2km</title><desc>1757417515000</desc></polyline><polyline fill="none" points="180.62966559786582,71.0 180.57800072830287,71.56793777661369 180.7265372283291,71.60530195025785 180.63612370658666,72.52445464474295 180.29384394569206,74.80360485976416 180.12593311956152,75.25942642801965 179.91281553261797,77.5683808144895 179.5382452282647,79.47377402829443 179.57053577172337,79.8697907370879 179.13784248908632,82.93324419442797 179.12492627170286,83.84478377026971 179.376792510855,86.18335414879402 179.7190722717496,88.95517358923826 180.09364257610287,89.0 180.0807263586903,88.70862784209021 180.2809277283086,88.52185021105834 180.2809277283086,88.41725453061372 179.97093851087266,88.1931204291177 179.4736641412601,83.12750767386751 180.45529666310176,76.04403070845001 180.66841425007442,75.30426118378819 180.6038331630989,75.02030726904195 180.87507372832624,73.05501723112684" stroke="#4DD2FF" stroke-linecap="round" stroke-linejoin="round" stroke-width="0.5"><title>2025-09-07 5.0km</title><desc>1757247375000</desc></polyline><polyline fill="none" points="19.525664460874395,108.94265544975497 19.688496063899947,109.0 19.730973873345647,108.4265526622039 19.9362832858169,108.11525097064441 20.615928237355547,103.56847084360197 20.743361665779958,101.83161506291071 19.971681460359832,95.51471545678942 19.561062635475537,94.73633428722678 19.631858984590508,94.62981838441192 19.971681460359832,94.68717311880027 19.82300912719802,93.08941881715145 19.49026628633146,92.65515191567101 19.525664460874395,91.83577402903029 19.256638334220042,91.0 19.525664460874395,91.75383578204492 19.49734592126333,92.6469581780475 19.830088762100786,93.04025664390065 19.992920365097234,94.6707860559909 19.617699714784976,94.60523777145136 19.582301540183835,94.71994723441458 19.844248031906318,95.11323558195 20.014159269834636,95.71135793098802 20.269026126654353,98.48888162234653 20.73628203087719,101.66775881198555 20.73628203087719,102.6426985995713 20.247787221946055,106.13272251950548 19.893805476342095,108.36101556386711 19.730973873345647,108.59039517493511" stroke="#4DD2FF" stroke-linecap="round" stroke-linejoin="round" stroke-width="0.5"><title>2025-09-04 5.0km</title><desc>1756985562000</desc></polyline><polyline fill="none" points="43.389137750607915,91.04504300308326 43.466990661778254,91.0 43.512404860026436,91.10510029779834 43.48645388963632,91.55552845207421 43.557819058245514,91.55552845207421 43.505917117436184,92.36629220977193 43.15557901689317,94.6483942812265 42.922020283178426,95.56421805726859 42.95445899615879,95.92453905446746 42.39651313229115,99.3625135467737 42.428951845358824,99.67777831109561 41.98778534831945,102.7853161730527 42.026711803948274,104.30901284753782 42.5587066973967,108.9924946582978 42.863630599720636,109.0 42.92850802576868,108.90993584925309 42.62358412341564,106.25299404140969 42.70143703467329,106.08036457510025 42.49382927134866,105.10462523026945 42.30568473585299,103.04802473708696 42.662510579044465,100.24825398997928 42.85065511454013,99.53515870333649 43.20099321511225,96.41997755683406 43.395625493169064,95.28646942276828 43.505917117436184,95.13633459104312 43.441039691417245,94.93365208435716 43.72650036594132,92.80920569004229" stroke="#4DD2FF" stroke-linecap="round" stroke-linejoin="round" stroke-width="0.5"><title>2025-09-02 5.1km</title><desc>1756811867000</desc></polyline><polyline fill="none" points="66.23679129290394,91.0 66.21066601396888,92.32256637187675 65.86450606811559,94.73335542801942 65.64897251690854,95.55708675743517 65.65550383663503,96.19943972120382 65.12646693829447,99.41867808219104 64.71499379511806,103.0533783902647 64.74111907399492,104.15659949354449 65.25709333296982,108.38042500505253 65.7665362721018,109.0 65.64897251690854,108.93955388607719 65.55753404065035,108.22175253045862 65.36159444868099,106.34788057651895 65.41384500652202,106.15897957621928 65.06768506069784,103.94502411117719 65.05462242121575,102.87958179371344 66.1061648982577,95.44372977629973 66.24985393238603,95.14144364873937 66.32822976916214,93.8340420017048 66.71357763343258,91.74819757926161" stroke="#4DD2FF" stroke-linecap="round" stroke-linejoin="round" stroke-width="0.5"><title>2025-08-31 5.1km</title><desc>1756640573000</desc></polyline><polyline fill="none" points="89.15063184671453,91.0 89.20887575147208,92.45274208266346 88.80763996302267,94.9612756864808 88.67173751853989,95.18591632167227 88.60702206878341,95.6351955381615 88.54877816402586,96.78084514540387 88.18637164539541,99.2592810823262 88.0892984707607,99.42400801015901 88.12812774060876,99.78341093871131 87.68806268231128,102.86821401750058 87.7139488622197,104.14103204247658 88.22520091527258,108.58074882145593 88.71703833335778,109.0 88.61349361378234,108.83529446410103 88.36110335975536,105.96786186834652 88.0439976559719,104.05867389396735 88.0439976559719,102.64359679102199 88.54230661905603,99.61868481394049 88.91118468262721,96.4588669893783 89.20887575147208,95.22335636096977 89.16357493665419,94.9388115853144 89.45479446052923,92.7672494843282" stroke="#4DD2FF" stroke-linecap="round" stroke-linejoin="round" stroke-width="0.5"><title>2025-08-30 5.0km</title><desc>1756550382000</desc></polyline><polyline fill="none" points="111.0647366369667,108.99190374834143 111.30962543899659,109.0 112.09326960562612,103.55103658699954 112.20521877225838,101.72923463044572 111.74342845982756,98.47417807111924 111.5475174181338,96.0125544224793 111.42857142860885,95.47001529365662 111.07173345985939,94.91127710370347 111.12071122028283,94.78171406496404 111.48454601192498,94.83839792034269 111.30962543899659,93.1945497326742 110.98777158482699,92.8625368664143 111.00876205362147,91.88268594590772 110.65192408487201,91.0 111.01575887651416,91.92317589218874 110.9737779390125,92.8220473977708 111.30962543899659,93.21884330269677 111.47055236608139,94.82220253721607 111.12071122028283,94.78981176106026 111.07173345985939,94.8950817353907 111.36560002234182,95.35664844168059 111.55451424108469,96.13401790019998 111.75742210567114,98.68470814086322 112.20521877225838,101.61587668731954 112.12125689731329,103.33242255208461 111.40758095981437,108.23085241995432" stroke="#4DD2FF" stroke-linecap="round" stroke-linejoin="round" stroke-width="0.5"><title>2025-08-28 5.0km</title><desc>1756381580000</desc></polyline><polyline fill="none" points="134.89474146009888,91.0 135.0429702962283,91.76811003351759 135.0171913682134,92.46909664043778 134.6176179839531,94.97469616110902 134.47583387984196,95.2356911924071 134.45649968384532,96.05595524932869 133.88936326748808,99.39657236682251 133.93447639152873,99.82159534034872 133.50267934723524,102.63265024788416 133.47045568720205,103.77344554387673 133.5735713992617,103.89274337471579 133.53490300723934,104.37738881937548 134.02470263955183,108.60485267570039 134.56606012789416,109.0 134.39205236377893,108.84343244656338 133.7926922873885,103.90765558993735 133.76691335940268,102.94581150582962 134.21159986767452,99.80668229520961 134.32116031178157,99.65009513837867 134.42427602381213,98.33773250403465 134.87540726413135,95.75767847098177 134.84318360409816,95.407201707676 134.96563351215445,95.2431481796666 134.91407565612462,95.0194382323898 135.1009728842473,93.7368213738664" stroke="#4DD2FF" stroke-linecap="round" stroke-linejoin="round" stroke-width="0.5"><title>2025-08-26 5.0km</title><desc>1756206850000</desc></polyline><polyline fill="none" points="157.7091175582318,91.0 157.72206065343926,91.61404911642603 157.82560541512794,91.63651423098781 157.76736148667987,92.40032405162492 157.40495482084225,94.88639532199886 157.28199541635695,95.16345228834689 157.13314982145675,96.84823574349866 156.68661303675617,99.38657010345196 156.61542601310066,100.56211127230199 156.2853770852962,102.77087996923365 156.34362101374427,104.440515442795 156.84193017927464,108.89518742878863 156.86134482207126,109.0 157.24963767835288,108.95508034485101 156.9713611313491,106.05021788403246 156.6283691083081,104.07364810892614 156.59601137027494,103.07036893548502 157.01019041697145,100.0080368784038 157.15903601187165,99.5812470061137 157.65734517737292,95.50041206009337 157.80619077230222,95.20089233903127 157.75441839147243,94.9612756858769 158.00033720041392,93.09673198908422" stroke="#4DD2FF" stroke-linecap="round" stroke-linejoin="round" stroke-width="0.5"><title>2025-08-24 5.0km</title><desc>1756042259000</desc></polyline><polyline fill="none" points="179.77052801739774,109.0 179.9713160021638,108.70957506886043 180.66690294942237,103.97135386590526 180.7959809396707,101.88844107749173 180.41591796846478,99.49012108822353 180.03585499728797,95.83026516121754 179.6199370288523,94.98374450433766 179.72033102123532,94.8675547093153 180.0286839978362,94.90075181049178 179.87092200978077,93.27407797389606 179.52671403589193,92.8840034078894 179.5840820315061,92.04575175572973 179.19684806087753,91.0 179.5625690331799,91.88805988865352 179.54105603476637,92.89230288613908 179.88526400868432,93.29897628714389 180.05019699619152,94.90905108365405 179.96414500274113,94.9920437690671 179.66296302553383,94.88415326158429 179.66296302553383,95.00034303295979 179.9426320043567,95.5065965349786 180.10039399238303,96.1207359124528 180.28683997827466,98.3780733771273 180.80315193909337,101.97142666717264 180.6884159478068,103.86347522555297 179.89960600761697,108.9336172496769" stroke="#4DD2FF" stroke-linecap="round" stroke-linejoin="round" stroke-width="0.5"><title>2025-08-23 5.0km</title><desc>1755956696000</desc></polyline><polyline fill="none" points="20.635470064764377,111.0 20.641987706447253,111.49775452424365 20.72671704844106,111.58825498821534 20.694128839997575,112.34242122989963 20.303070338559337,114.77078446850646 20.15968222139054,115.07998029737064 19.8272824951855,118.17940878979425 19.657823811285198,119.20498193983076 19.547023902530782,119.31055484219542 19.599165036081104,119.68005881842691 19.129894834390143,123.23172774412524 19.729517869855044,128.87936098423233 19.749070794932777,128.96984026442078 20.101023446186446,129.0 19.455776918883203,123.08091723063262 20.426905530679505,116.02264255887712 20.550740722799674,115.25343105212232 20.668058273207862,115.11014567511302 20.615917139715748,114.82357409142423 20.870105165580753,112.86279146892048" stroke="#4DD2FF" stroke-linecap="round" stroke-linejoin="round" stroke-width="0.5"><title>2025-08-21 5.0km</title><desc>1755781186000</desc></polyline><polyline fill="none" points="43.358896690944675,111.0 43.37831942003686,112.3934153112059 42.989864838978974,114.89550358931592 42.85390573559562,115.15769355411612 42.79563754843548,115.59966881306173 42.86685422164737,115.81690991843061 42.264749621012015,119.36758761899546 42.30359507913818,119.74212171293766 41.87629503998323,122.8132295452233 41.902192012028536,124.1090488804839 42.446028425503755,129.0 42.821534520509886,128.9325924638615 42.56256479982403,126.09393031309446 42.22590416291496,124.07159777406196 42.20648143385188,122.64095127178007 42.627307229995495,119.77957501771743 42.73736936127534,119.61478033440653 43.184092129493365,115.89182049604278 43.39774214907084,115.17267580965563 43.40421639208216,114.34864723412466 43.837990674277535,111.59183015047165" stroke="#4DD2FF" stroke-linecap="round" stroke-linejoin="round" stroke-width="0.5"><title>2025-08-19 5.3km</title><desc>1755607955000</desc></polyline><polyline fill="none" points="65.51925191807095,128.91134006194625 65.83269909056253,129.0 65.83269909056253,128.4035585078018 65.95111246680608,128.13757639637333 66.0973878139921,126.29985743787256 66.52228286999161,123.5190175207099 66.48048991366522,121.69731300375861 66.0068364086037,118.64223670910724 65.79090613423614,116.12715152443707 65.65856177249225,115.46612230624305 65.31725262920372,114.89376328713115 65.39387304909178,114.75671896518907 65.728216699732,114.82927187102177 65.58194135257509,113.32177007346036 65.21973573107971,112.83001194937242 65.24759770193486,111.87873347735876 64.90628855858813,111.0 65.27545967284823,111.91904211878864 65.23366671649273,112.82195031536685 65.56104487439734,113.17666143608949 65.728216699732,114.82121044032101 65.37994206367875,114.77284183888696 65.34511460005888,114.87764043802599 65.74911317790975,115.80469893578265 65.9580779595417,118.23112247014069 66.47352442095871,121.79404172927025 66.4665589282231,122.62429177048762 65.95111246680608,126.19507393342064 65.79787162694265,126.26761637432355 65.70035472884774,126.50942403145018 65.51925191807095,127.69427089524834" stroke="#4DD2FF" stroke-linecap="round" stroke-linejoin="round" stroke-width="0.5"><title>2025-08-17 5.0km</title><desc>1755429603000</desc></polyline><polyline fill="none" points="88.31254609717871,128.9595187335217 88.22158739005681,129.0 88.32653974444838,128.89474866437376 88.44548574613873,127.11355112918682 88.54344127691002,126.49012258402945 88.86529516379233,126.2229374284434 88.85829834014294,125.60759851037437 89.2921014050371,123.1623889988623 89.35507281770697,122.06121053561219 88.59241904228111,115.67245569921215 88.19360009551747,114.89508173525246 88.2705651554279,114.80600715063338 88.60641268955078,114.83030022904859 88.4594793933793,113.25933256946155 88.12363185922732,112.83824318762345 88.14462233014638,111.92317589215236 87.78778432516265,111.0 88.16561280103633,111.93937186490803 88.11663503560703,112.79775370663992 88.45248256972991,113.19454973259417 88.62040633682045,114.82220253706328 88.26356833180762,114.78171406481852 88.21459056640742,114.9031794198163 88.63439998406102,115.7696269111475 89.35507281770697,121.6806526743676 89.34807599405758,122.64418926530925 88.8792888110329,126.09339278801781 88.52944762964034,128.32800831341592 88.38251433349797,128.4413567061274 88.33353656809777,128.78140091669047" stroke="#4DD2FF" stroke-linecap="round" stroke-linejoin="round" stroke-width="0.5"><title>2025-08-16 5.1km</title><desc>1755350047000</desc></polyline><polyline fill="none" points="111.32357184623834,128.9514006132158 111.07157284856657,129.0 111.19057237522793,128.8785014774985 111.52657103881938,126.36749054866232 111.71557028702227,126.27028853527736 111.67357045406243,126.00298238729738 112.17756844940595,123.03015358735865 112.21256831020582,121.7421633565391 111.45657131719054,115.69076077497448 111.07857282072655,114.92923980825435 111.15557251442806,114.78341581407585 111.46357128937962,114.8320238417873 111.30957190191839,113.23604476632318 110.98057321051601,112.86337499705405 111.02957301560673,112.06131892801204 110.63757457479369,111.0 111.00157312699594,111.85067660131608 110.99457315483596,112.82286730838678 111.30957190191839,113.20363876863848 111.49157117801951,114.82392250589328 111.12757262581727,114.79151715409535 111.0925727650174,114.9049358277698 111.39357156777987,115.39101402905362 111.5195710666303,115.87708926485357 111.74357017566217,118.47754140741017 112.18456842159503,121.41003671350336 112.2195682823658,122.5846247303416 111.68757039841148,125.99488218698389 111.72957023134222,126.2378878378222 111.50557112233946,127.48530518261396 111.32357184623834,127.89840662368078" stroke="#4DD2FF" stroke-linecap="round" stroke-linejoin="round" stroke-width="0.5"><title>2025-08-14 4.9km</title><desc>1755170321000</desc></polyline><polyline fill="none" points="135.0209746416076,111.01505828869995 134.8648131500522,111.0 134.9103602517862,112.36276273598924 134.53296998058795,114.92258078528539 134.39632867553155,115.19361516665231 134.39632867553155,115.90131137813296 134.01243167553912,118.60404642499634 133.8888038281293,119.34182326922019 133.79120289592538,119.40204962618736 133.84976345524774,119.7784632484545 133.40079916713876,122.87251079228008 133.43983954002033,124.18988843089755 133.98640476030414,128.93978143978165 134.35728830264998,129.0 133.71962887898553,123.03812526767433 134.78022567549488,115.52487806438148 134.92988043819787,115.2162013203415 134.8648131500522,114.95269576551073 135.1706294043106,112.81450175839564" stroke="#4DD2FF" stroke-linecap="round" stroke-linejoin="round" stroke-width="0.5"><title>2025-08-12 5.0km</title><desc>1754999139000</desc></polyline><polyline fill="none" points="157.62821784248808,111.0603087970594 157.71291165583534,111.0 157.71942656458123,112.27401291723072 157.31550222393707,114.86720239714487 157.17868914082646,115.12350108713872 157.04187605771585,116.86480110110278 156.61189208217547,119.38999043372314 156.17539319794741,123.03063456433301 156.2144826502772,124.14615851492272 156.6705262606847,127.9222334161168 157.14611459724256,129.0 156.50765354264877,123.0758588343233 157.47186003322713,116.11853466997854 157.70639674711856,115.15365381597076 157.64776256863843,114.94258445667947 157.92138873488875,112.90724196774681 158.11032108779182,112.1383202746947" stroke="#4DD2FF" stroke-linecap="round" stroke-linejoin="round" stroke-width="0.5"><title>2025-08-10 5.0km</title><desc>1754830447000</desc></polyline><polyline fill="none" points="179.74404029466677,129.0 180.71879095339682,123.19791846448061 180.78190430541872,121.83457099948282 180.2629723000573,118.23944193188072 180.01753148669377,115.6180606555863 179.62482618531794,114.92009323348611 179.68092694267398,114.77400625642622 180.03856927069137,114.84704977838555 179.8842921880132,113.24007685336983 179.5476876439934,112.842386640099 179.5687254279619,111.93337299676932 179.21108309994452,111.0 179.58275061732274,111.965837948017 179.55470023863018,112.85050278672134 179.8842921880132,113.24819295953057 180.052594459994,114.82270194516605 179.6949521319766,114.80647005221545 179.6528765639814,114.89574542255286 180.052594459994,115.75603023749863 180.37517381471116,118.94549585680943 180.75385392672615,121.26650268438243 180.78891690005548,122.55682344923116 179.97545591866947,128.3183787094531 179.75105288930354,128.55370100304572" stroke="#4DD2FF" stroke-linecap="round" stroke-linejoin="round" stroke-width="0.5"><title>2025-08-09 5.0km</title><desc>1754735080000</desc></polyline><polyline fill="none" points="20.540510777151212,131.0 20.579583845392335,132.2659443807861 20.325608901912346,134.2552418919222 20.0,135.62662046950572 19.928366041596746,136.86988133261912 19.492050113040023,139.41661731127533 19.518098825210473,139.80841508629237 19.075270718632964,142.79203795787907 19.062246362533187,143.8166888406122 19.62229367380496,148.5781161152554 20.05860960233258,149.0 19.420416154607665,144.08791758801817 19.452977044828003,142.48313307743229 20.384218504244927,136.07871773993975 20.501437708939193,135.34782577912847 20.61214473558357,135.2046605308933 20.560047311271774,134.8957240536838 20.937753637466813,132.34129753154411" stroke="#4DD2FF" stroke-linecap="round" stroke-linejoin="round" stroke-width="0.5"><title>2025-08-07 5.0km</title><desc>1754570205000</desc></polyline><polyline fill="none" points="43.16909834835678,131.0 43.209350669785636,131.51234840384132 43.343525074626086,131.56668818454636 43.29656403296394,131.93153999677452 43.65883492596913,131.9858794793181 43.69908724739798,132.31967830981012 43.3301076341595,134.1671896489861 43.22276811028132,135.15302826082916 43.29656403296394,135.41695140008233 43.18251578885247,135.52562536891492 42.96783674112521,136.7908894878783 42.02190718712518,143.66797101492557 42.60556584812002,149.0 42.01519846689189,143.54378541283222 42.43113912185072,140.4002701623176 42.585439687391045,139.97336305776844 42.95441930065863,136.7908894878783 43.14226346742362,135.6187743620394 43.26302043173928,135.4091889678093 43.21605939004803,135.10645349458355 43.585039003315615,132.38954299677425" stroke="#4DD2FF" stroke-linecap="round" stroke-linejoin="round" stroke-width="0.5"><title>2025-08-05 5.0km</title><desc>1754406000000</desc></polyline><polyline fill="none" points="65.44171990867471,149.0 65.75322368647903,146.41945485727047 65.94437373193796,146.27199263979128 66.24171824712539,144.27303374537587 66.46118681784719,142.66727676208393 66.47534608049318,141.66775881296053 65.95853299458395,138.12018929852638 65.76030331783113,135.76051847534836 65.58331253493088,135.14600952499313 65.31428654506453,134.76091486085352 65.37800322685507,134.63801192102983 65.72490516124526,134.6707860566603 65.5620736410201,133.0566440387338 65.2293309692759,132.7043143242554 65.25764949456789,131.7046727940251 64.95322534805746,131.0 65.26472912583267,131.8111925638441 65.2293309692759,132.62237696052762 65.5762329036661,133.0484503419284 65.73198479253915,134.6625925240005 65.63994958548574,134.74452781302534 65.30012728244765,134.6789795884688 65.75322368647903,135.63761706018704 66.04348857034347,138.7428686880594 66.47534608049318,141.69233727183018 66.46826644917019,142.70824034805264 65.63994958548574,148.37739984357904 65.59747179760598,148.51666608552478 65.41340138344094,148.52485820989386 65.3426050702692,148.83615831973293 65.14437539351638,148.81977413339337" stroke="#4DD2FF" stroke-linecap="round" stroke-linejoin="round" stroke-width="0.5"><title>2025-08-03 5.0km</title><desc>1754221111000</desc></polyline><polyline fill="none" points="97.57142857143481,139.02613251820185 97.51608652684081,139.25560136774948 97.37311957834754,139.2689425182507 94.56451081584964,139.21290964059153 94.48841550455836,139.16488136458065 94.37773141539947,139.210241405337 94.02031404414447,139.2075731698169 93.99033710331423,139.17822256117142 93.35159767212463,139.2155778755714 93.03799275282654,139.16754960444086 92.02569452070748,139.16488136458065 91.58757000109472,139.09550703303648 91.2901065114711,139.0181277546926 91.27165916327795,138.98877693430404 90.8588997474435,138.9754356414578 89.9526737674314,138.8153395986228 88.61985286044364,138.80466649439222 85.8389151202282,139.1515401612105 85.4630504007946,139.32497527635496 85.05951465904946,139.44771328106253 83.97573295267648,140.10675319219808 83.40155924014107,140.39757931046734 83.048753705938,140.49896747536695 82.84122103876143,140.50163557968153 82.57834632700542,140.4376010012711 82.29933018557495,140.5523295102048 82.20478752607596,140.36556191392992 82.09179751839838,140.44026911182118 81.99956077743263,140.26684136219774 80.42923026243807,141.19533350560596 80.30932249917532,140.89384396581227 79.82507960908697,139.96800932215774 79.77896123861137,139.9359914018969 79.57142857143481,140.03738134880223 79.70747776434291,139.93332324011863 79.77434940155945,139.92531875314307 79.79510266827128,139.8586146001253 79.87811573516228,139.86395093859755 79.98879982432118,139.78924210125479 80.02108268365555,139.82659654649797 80.10409575051744,139.77323303703452 80.076424728235,139.82392837359657" stroke="#4DD2FF" stroke-linecap="round" stroke-linejoin="round" stroke-width="0.5"><title>2025-08-02 8.3km</title><desc>1754134728000</desc></polyline><polyline fill="none" points="111.90970096623641,131.0 111.81282924726838,131.02241867959674 111.7547062158701,131.62772044508893 112.23906481079757,131.62772044508893 112.23906481079757,132.1134528267794 110.62453616099083,142.7987537910376 110.63099427559064,143.92697120822413 111.30263819391257,149.0 110.66328484858968,144.0689311148817 110.61807804636192,142.97060259394493 111.57387900707545,136.14117160694877 111.81282924726838,135.21459164348926 111.74824810127029,135.00536229442514 112.05177948740311,132.80094548353372" stroke="#4DD2FF" stroke-linecap="round" stroke-linejoin="round" stroke-width="0.5"><title>2025-07-31 5.0km</title><desc>1753965181000</desc></polyline><polyline fill="none" points="133.92932817238034,149.0 134.00695683073718,148.34671299291222 134.20455705199856,148.1098951413369 134.9243864293967,143.15289233152726 135.00201508775353,141.3235422143116 134.63504324827227,139.1021325003312 134.24689995654626,135.43503868585685 133.87287096629734,134.71630134607403 133.9504996246833,134.61012369384116 134.26101425805246,134.6509612689988 134.12692839364172,133.02560974576772 133.7670137049281,132.6335602336112 133.8093566095049,131.72693840696593 133.52707057911903,131.0 133.81641376024345,131.7432740259319 133.78818515717285,132.64989566816075 134.12692839364172,133.07461580021481 134.28924286109395,134.63462624143722 134.1974999012309,134.71630134607403 133.91521387087414,134.60195617630234 133.88698526783264,134.7244688519786 134.3104143133678,135.66372649071127 134.55741458991542,138.4079293676914 135.04435799230123,141.91155215155595 134.53624313764158,146.141830134271 134.16221414745087,148.48553692626592 134.02812828301103,148.54269965266576" stroke="#4DD2FF" stroke-linecap="round" stroke-linejoin="round" stroke-width="0.5"><title>2025-07-29 5.0km</title><desc>1753797916000</desc></polyline><polyline fill="none" points="157.91489765007282,131.0 157.90192217935692,132.37379924071865 157.60348635303671,134.47573770905728 157.3699278802669,135.17386832929333 157.2142222317343,137.0955701637431 156.7795439629699,139.39253882277262 156.8314458458044,139.79787882238452 156.4032553123543,142.6427025637895 156.4292062538152,144.15139051205188 156.9612005529052,149.0 156.4616449305613,144.78938361408655 156.3708166356373,143.19063756865944 156.7860316983424,139.51263979514624 157.36344014492352,135.84196564968443 157.3050505267165,135.654298473135 157.58402314700652,134.51327178114298 157.90192217935692,131.9759255856843" stroke="#4DD2FF" stroke-linecap="round" stroke-linejoin="round" stroke-width="0.5"><title>2025-07-27 5.0km</title><desc>1753616848000</desc></polyline><polyline fill="none" points="180.51411547977477,131.0 180.5332750628586,132.58145924651035 180.1820160394418,135.07920801223372 180.04151243006345,135.3452353709945 179.84353007140453,137.51775571887993 179.48588452025433,139.49809189040388 179.51143063104246,139.87494080296165 179.04521410903544,142.94877276403713 179.6263881296327,149.0 180.009579791571,148.94089398662618 179.7349591005186,145.97814355786977 179.42201924326946,143.9019298557323 179.40924618788995,142.79360647435533 180.29058701029862,136.57929400511057 180.58436728446395,135.33784573528828 180.52050200747908,135.04964935674798 180.95478589099366,132.41888090982684" stroke="#4DD2FF" stroke-linecap="round" stroke-linejoin="round" stroke-width="0.5"><title>2025-07-26 5.2km</title><desc>1753529066000</desc></polyline><polyline fill="none" points="20.621268633112777,151.0 20.543610053980956,151.38939759416826 20.647154826147016,151.8911183840828 20.524195409176173,153.07426731954183 20.252390382200247,154.91634747653734 20.110016320453724,155.17842831074086 20.09060167564894,155.9646652222582 19.51463388040429,159.41652042942587 19.559934718185104,159.74597321430338 19.132812532945536,162.88318847393384 19.191056467301678,164.55282140445343 19.70230877996073,169.0 20.07118703087326,168.96256695595366 19.779967359121656,166.24487719286117 19.844682841736358,166.10262620994035 19.475804590823827,163.99128988495067 19.469333042536164,162.9880095908302 20.867187467054464,153.20156702262466" stroke="#4DD2FF" stroke-linecap="round" stroke-linejoin="round" stroke-width="0.5"><title>2025-07-24 5.0km</title><desc>1753356656000</desc></polyline><polyline fill="none" points="42.541433741513174,168.96752733306494 42.63263859713334,169.0 42.941331954614725,166.43461864534038 43.14478894023341,166.30472372732038 43.09567863336997,166.05305172260705 43.621860492712585,162.79748109682987 43.65693928336259,161.81510080776206 43.13075742399087,158.34825727638236 42.913268922129646,155.78253377995134 42.49232343467884,154.89750243924937 42.55546525775571,154.76758875626547 42.899237405858,154.83254562417278 42.71682769461768,153.2004883030313 42.41515009524301,152.87569679656008 42.44321312775719,151.99875312977383 42.05734643089818,151.0 42.40813433713629,151.80387545137637 42.40111857900047,152.84321757326688 42.7238434527535,153.18424875907658 42.906253163993824,154.78382797820086 42.81504830837366,154.8731436397793 42.56949677399825,154.77570836765517 42.49232343467884,154.8731436397793 42.73787496899604,155.22228572196036 42.913268922129646,155.80689230201097 43.22897803771775,159.03839035103738 43.635892008955125,161.6770794685508 43.62887625084841,162.75688710931718 42.8641586152371,168.07452382013435" stroke="#4DD2FF" stroke-linecap="round" stroke-linejoin="round" stroke-width="0.5"><title>2025-07-22 5.0km</title><desc>1753184035000</desc></polyline><polyline fill="none" points="56.714285714318976,162.9687195509905 56.714285714318976,160.0803347924666 58.627999119577,151.99271693307674 74.10411622282118,154.81698797398712 74.71428571431898,155.49095801229123 72.63416244788095,167.9751905600715 58.73893902718555,165.792892441008 58.23970944317989,165.15103718347382 59.95927801018115,152.6666929986677 60.56944750167895,152.2815639944747 64.25819942785893,152.89135136760888 74.68655073747505,155.2021138863638 72.85604226298165,167.71845038753236 72.27360774821136,168.00728306692326 58.46158925828058,165.66452149386168 58.627999119577,161.55662363601732 59.9870129871415,152.7308811204275 60.43077261722647,152.3457521944656 67.25357693166006,153.5011375633767 60.2920977328904,152.4099403814471 59.51551838009618,155.94027057220228 60.20889280224219,156.6142382133403" stroke="#4DD2FF" stroke-linecap="round" stroke-linejoin="round" stroke-width="0.5"><title>2025-07-20 4.9km</title><desc>1753020627000</desc></polyline><polyline fill="none" points="89.60601567701087,151.0 89.47022611941793,151.920306203785 88.96586490544723,153.21470115546254 88.539097724366,155.15999181925145 88.42270667498815,156.69374246137158 88.02180417158525,159.2598977211528 87.93127779982751,159.34219276600925 87.97654098572093,159.7087786668635 87.55623997404473,162.7386535058031 87.53684146582964,163.74110317716259 88.11233054331387,168.99251961675327 88.04766884923447,167.96021944504173 88.11879671274801,169.0 88.48736836909666,168.92519613334298 87.86661610574811,163.06781758857687 88.85594002547441,155.84083141246083 89.06285744658089,155.18991896658554 89.08872212423012,154.31454488242161" stroke="#4DD2FF" stroke-linecap="round" stroke-linejoin="round" stroke-width="0.5"><title>2025-07-20 5.0km</title><desc>1752942252000</desc></polyline><polyline fill="none" points="112.20471741602523,151.00805460508855 112.09334220708115,151.0 111.91931844304781,151.88600165282696 112.11422505875817,152.00681929278653 112.10030315761105,152.26456297602272 111.85666988801677,153.9076592583515 111.72441182736657,154.1895596098475 111.38332524994621,157.4031527761981 111.09792627696879,158.71593657314224 111.12577007923392,159.1025190702785 110.63154258942814,162.79911902814638 111.29979384317994,169.0 110.68026924334117,163.8299484225281 110.66634734225227,162.26759238619707 111.12577007923392,159.15084174990625 111.1048872274987,158.72399039437732 111.61303661842248,155.66347941254207 111.71745087680756,154.18150532800064 111.85666988801677,153.89155063656654 112.22560026770225,151.25774695668224" stroke="#4DD2FF" stroke-linecap="round" stroke-linejoin="round" stroke-width="0.5"><title>2025-07-17 5.0km</title><desc>1752765839000</desc></polyline><polyline fill="none" points="142.00868725869805,168.62017024712986 142.4140926641412,168.05724069090502 143.28571428568102,160.71557535391185 130.2519305018941,160.12917028802622 127.9005791505333,160.3168200712389 128.18436293432023,160.12917028802622 127.75868725858163,157.4786008035735 125.34652509645093,153.67861622768396 125.28571428568102,151.54402954618854 125.56949806946795,151.3798297528847 136.9005791505333,151.5674866499321 136.0897683397634,158.9563556866633 135.58301158295944,159.28474437574914 128.50868725858163,159.05018107409705 127.7384169884026,156.58725201355992 125.7519305018941,154.05392613090225 125.50868725858163,152.7168818149512 128.3262548261555,152.50576884645852 136.53571428568102,152.7872527615691 136.65733590733726,154.54651945258956 135.9276061776327,160.26990763975482 134.83301158295944,160.34027628338663" stroke="#4DD2FF" stroke-linecap="round" stroke-linejoin="round" stroke-width="0.5"><title>2025-07-15 4.1km</title><desc>1752589649000</desc></polyline><polyline fill="none" points="157.86622401393834,151.0 157.92107647811645,152.277351380224 157.49596988086705,154.94306086831784 157.3451256044209,155.25246768275247 157.33826904639136,156.03787947543606 156.73489194066497,159.71889615291002 156.76231817275402,160.1314130735118 156.30292878538603,163.5504598454063 156.85145342699252,169.0 156.53605175807024,166.84244003838103 156.2960722273856,163.37594136077678 157.32455593036138,155.9823455677979 157.26284690818284,155.7284757727757 157.4685436487489,154.99859551501868 157.87308057196788,152.35668928601808 157.8250846658193,152.07900626306218 157.98964205829543,151.2380173692436 157.83879778187838,151.04760353190068" stroke="#4DD2FF" stroke-linecap="round" stroke-linejoin="round" stroke-width="0.5"><title>2025-07-13 5.0km</title><desc>1752418082000</desc></polyline><polyline fill="none" points="179.8436788309191,169.0 179.75130723105394,168.9917779814714 179.80815129252733,168.34223587893212 180.12079363066005,166.3689114317458 180.30553683047765,166.20446555533272 180.62528467629454,163.96796845112112 180.7958168606856,161.65740467171418 180.32685335350106,158.44223992175102 180.08526609223918,155.75324440772238 179.94315593852662,155.2269473625929 179.64472461576224,154.74998770706588 179.7086741849489,154.62663561422232 180.0497385537892,154.6759764739545 179.90052289242158,153.11350129892526 179.55945852352306,152.68587125244812 179.5807750466338,151.7072478293776 179.3391877853428,151.0328953850185 179.18997212394606,151.0328953850185 179.31787126226118,151.0 179.55945852352306,151.60033867062884 179.552353015868,152.69409492853447 179.8649953539716,152.98192306394049 179.90052289242158,153.14639582422387 180.0497385537892,154.65130604784645 179.70156867726473,154.63485909293377 179.62340809270972,154.72531730357878 179.93605043087155,155.17760683902452 180.078160584555,155.67923409270588 180.3694863996352,158.8780625799991 180.81002787605394,161.59984530091606 180.80292236839887,162.65235303719965 179.93605043087155,168.57245392954792" stroke="#4DD2FF" stroke-linecap="round" stroke-linejoin="round" stroke-width="0.5"><title>2025-07-12 5.1km</title><desc>1752325602000</desc></polyline><polyline fill="none" points="19.891549178690184,189.0 19.716628499067156,188.99190374835598 20.108450821368024,186.29580619558692 20.269377846620046,186.21484089404112 20.71717478634673,183.2109700501387 20.787143058230868,181.69684666195826 20.374330254358938,178.98430766406818 20.05947303105495,175.68865090863255 19.63966340001207,174.83839791952778 19.695638017496094,174.74932327152783 20.045479376713047,174.8060071499567 19.88455235149013,173.16215829394787 19.56969512818614,172.81394950112735 19.555701473844238,171.72072595467762 19.205860114627285,171.0 19.57669195535709,171.8098039904653 19.56969512818614,172.8058516041201 19.891549178690184,173.1702561547354 20.066469858255005,174.78171406413458 19.73062215340906,174.7412255713134 19.653657054441283,174.87078867589298 20.07346668545506,175.75343171659915 20.38132708152989,178.96811312399223 20.794139885372715,181.6401676875248 20.724171613546787,183.1704858420635 20.052476203883998,187.6398181816039" stroke="#4DD2FF" stroke-linecap="round" stroke-linejoin="round" stroke-width="0.5"><title>2025-07-10 5.0km</title><desc>1752149320000</desc></polyline><polyline fill="none" points="40.33284215419553,171.0 40.37500166485552,172.1220300960049 40.680658117402345,171.96348300139653 41.33413053321419,172.1830096919948 42.040302337380126,172.1220300960049 42.83079316292424,172.4147318742689 46.90972582268296,172.95134994727414 47.02566447708523,173.109895737005 46.08761536417296,179.09789494444703 45.63440062414156,179.1344805796034 45.550081602763385,179.29301820299588 45.39198343764292,180.35399537060584 45.50792209204519,180.81740774305945 44.791210410243366,184.85389776057855 39.54235132865142,184.6953674802644 39.363173408200964,184.57342096840148 38.68862123711733,189.0 39.39479304122506,184.646588890384 41.439529309922364,184.68317283462966 42.1246213587001,184.4148903177629 42.21948025783058,184.6953674802644 44.82283004326746,184.78072996492847 46.63568900316022,173.42698668821686 46.58298961480614,173.01232912197884 41.154952612763736,172.0610504689903" stroke="#4DD2FF" stroke-linecap="round" stroke-linejoin="round" stroke-width="0.5"><title>2025-07-08 5.1km</title><desc>1751976330000</desc></polyline><polyline fill="none" points="56.87460856884718,188.83610268475604 56.83597924414789,189.0 57.08063163422048,188.89570172964886 57.157890283619054,188.06131289622863 57.608565739006735,187.68881634827994 57.69870083004935,187.30141893458494 58.99922142975265,178.2866900825029 59.11510940390872,175.55981166484708 58.80607480602339,173.54814753265237 59.51427909301128,173.51834489352768 59.694549275096506,173.7865684274002 62.17970250028884,174.1441990424064 64.1755509453942,174.11439652449917 65.63058884401107,174.6955445312342 70.26610781310592,175.3809981931845 71.11595295747975,171.0 74.59259218437364,171.77487996006676 71.48936976329423,171.04470472445246 70.90992989216466,173.62265410390683 70.81979480106384,175.4108004536247 62.141073175531346,174.24850780746783 59.694549275096506,173.8014697204635 59.475649768311996,173.47364092349017 58.7674454813241,173.59285147994524 59.05072719603777,174.78495171236864 59.1022329624393,177.3628353163076 57.64719506370602,187.34611868843785" stroke="#4DD2FF" stroke-linecap="round" stroke-linejoin="round" stroke-width="0.5"><title>2025-07-06 5.0km</title><desc>1751807521000</desc></polyline><polyline fill="none" points="82.31116282445146,187.88428805598232 83.09103737957776,182.33842899363663 80.56707972841104,182.15793925551407 79.77302563597914,182.43687785667134 80.80813186365413,182.33842899363663 80.66633649007417,182.17434742185287 83.27537136530736,182.32202084397431 83.45970535109518,182.15793925551407 83.37462812691228,181.64928527163283 84.4380934292567,174.93818426875805 84.33883666776819,171.590733765217 86.1679969879915,171.4102320107486 97.36983150691958,173.24805862178619 97.35565196955577,172.70655831242038 85.03363399865339,171.0 85.23214752180502,175.05304653466737 83.94180962146493,184.17613120531314 84.29629805567674,184.7340009524487 83.97016869625077,185.34109231071488 84.04106638306985,186.65371447143843 83.54478257521987,186.76856840281107 83.31790997739881,189.0 82.16936745075509,188.86874017144146 82.24026513763238,187.90069564041914" stroke="#4DD2FF" stroke-linecap="round" stroke-linejoin="round" stroke-width="0.5"><title>2025-07-05 4.8km</title><desc>1751729502000</desc></polyline><polyline fill="none" points="114.32568108820124,189.0 114.5038205171586,188.86981198194553 114.53194779535988,188.13207688097464 114.77571754023666,187.05801225300092 114.90697817201726,187.01461547528015 115.0757418415742,185.4414703723014 111.40981990972068,185.28957927314332 111.64421389513882,184.4758732763221 111.9911169934785,180.80869462042756 112.02862003119662,178.12875362045452 111.89735939935781,177.77069972742174 112.03799579053884,175.578949717652 112.02862003119662,171.0 107.10634633753216,172.7686697420213 107.00321298395284,173.01823427827185 107.04071602167096,172.80122167114314 109.69405593647389,171.79210725105077 109.74093473359244,174.02733710464236 110.00345599721186,174.59156248300133 111.96298971521901,174.59156248300133 111.97236547467764,177.4560453147351 112.17863218183629,177.55369678345596 112.25363825715613,177.90090128205338 115.6851662035915,178.11790352014214 115.85392987314845,178.97505804750836 115.83517835423118,180.53744859182916 114.65383266779827,188.59858643445477" stroke="#4DD2FF" stroke-linecap="round" stroke-linejoin="round" stroke-width="0.5"><title>2025-07-03 5.2km</title><desc>1751545471000</desc></polyline><polyline fill="none" points="133.97028968881932,189.0 134.39786525347154,186.36393109844357 134.57310114061693,186.2422642780657 135.02170501174987,182.9166326980121 135.05675218914985,181.76479627827212 134.2927237211843,175.6484285694387 133.9212236404419,174.87776542525535 133.99832743074512,174.77230567908555 134.31375202763593,174.82909171356732 134.16655388241634,173.25529236594593 133.82309154362883,172.81721898241085 133.830100979103,171.81937618378288 133.50065751129296,171.0 133.8581387210579,171.89238949473656 133.82309154362883,172.83344396545 134.13851614049054,173.14171801602788 134.18758218886796,173.39320385919564 134.31375202763593,174.82097942539258 133.97028968881932,174.7966425559498 133.9212236404419,174.90210226994532 134.29973315668758,175.6484285694387 134.6642238019558,179.12037652645813 135.0707710601273,181.74046152670053 134.9516106568626,183.55743590315979 134.1805727533938,188.72423071540106" stroke="#4DD2FF" stroke-linecap="round" stroke-linejoin="round" stroke-width="0.5"><title>2025-07-01 5.0km</title><desc>1751376396000</desc></polyline><polyline fill="none" points="156.51028713199776,189.0 156.64026727122837,188.83956882237544 156.61427124336478,188.24797660073818 156.82223946609884,188.04743605965632 156.96955029055243,187.26532405517355 157.19484919850947,184.50782842640183 157.50680153261055,183.43489111880626 157.8534152372158,180.6171216954681 157.76676181107177,179.00263390867622 157.2815026246244,176.12456840601953 156.95221960532945,172.63467598475108 156.43229904849431,171.34097759509314 156.89156220699078,171.43123617296078 156.90889289224287,171.0 156.90889289224287,171.4111787183283 156.51028713199776,171.33094885912578 156.4409643910767,171.43123617296078 156.77024741040077,171.92264253658504 156.96955029055243,172.6146187748891 157.33349468035158,176.50564113540895 157.8534152372158,179.96531303638767 157.81008852412924,181.5797850687668 156.7182553547318,188.6590834358285" stroke="#4DD2FF" stroke-linecap="round" stroke-linejoin="round" stroke-width="0.5"><title>2025-06-30 4.1km</title><desc>1751292736000</desc></polyline><polyline fill="none" points="171.2020905923273,181.10960229374177 171.0,179.64897324027697 171.06968641115236,179.49564597582503 176.49128919860232,179.2374099119188 177.35540069683339,179.31810877237876 178.76306620208197,179.1809206606922 180.87456445992575,179.20513034473697 189.0,178.68865547961468 186.57491289198515,178.85812416609406 186.01045296169468,179.04373231128557 184.96515679440927,178.99531283708347 179.67595818816335,179.26968946598936 174.75609756095218,179.35845817174413 174.60975609754678,179.4875761115909 174.9512195121788,181.31134452038532 174.79094076654292,181.2952051611719 174.5958188153163,180.34297714474087" stroke="#4DD2FF" stroke-linecap="round" stroke-linejoin="round" stroke-width="0.5"><title>2025-06-26 5.0km</title><desc>1750950176000</desc></polyline><polyline fill="none" points="29.0,200.73669080522814 28.709364908514544,199.26330919477186 20.9655543595145,199.97382686247875 20.13885898818262,199.98130595921975 17.1550053821411,199.60735018770356 11.0,199.86911942786537 16.9483315392863,199.59987105282198 20.14531754577183,199.9887850552259 25.65446716902079,199.48768393830687" stroke="#4DD2FF" stroke-linecap="round" stroke-linejoin="round" stroke-width="0.5"><title>2025-06-24 5.0km</title><desc>1750769966000</desc></polyline><polyline fill="none" points="51.857142857130384,200.7208387669234 51.61074516258668,199.27916123308387 43.946480032929685,200.00751226317516 43.012762453668984,200.0375472026135 39.99114862081478,199.64709203488746 33.857142857130384,199.91740737140208 39.82904487440828,199.64709203488746 43.00627830380108,200.0375472026135 49.496912309579784,199.45937246764515" stroke="#4DD2FF" stroke-linecap="round" stroke-linejoin="round" stroke-width="0.5"><title>2025-06-22 5.0km</title><desc>1750563938000</desc></polyline><polyline fill="none" points="66.32941278697399,209.0 65.3991145993059,203.44209893125299 65.38607303591562,201.9266568681196 65.46866960397165,201.2922719613307 65.4165033504687,199.6609590561493 65.4338921016315,199.37899827560614 65.52953023306327,199.21787710654826 65.4338921016315,199.14235137752257 65.42954491382989,198.1101548334409 64.3731782801915,191.75537669678306 64.10799982480239,191.0 64.37752546794945,191.6596962881231 65.4165033504687,198.00441640774807 65.47301679177326,201.09591307632945 65.3991145993059,201.93169163636412 65.39476741148974,203.39175276577225 66.10770620954281,207.66092523296174 66.20769152876164,207.95290703645878 67.3205716037628,207.89249714976904" stroke="#4DD2FF" stroke-linecap="round" stroke-linejoin="round" stroke-width="0.5"><title>2025-06-21 8.0km</title><desc>1750517001000</desc></polyline><polyline fill="none" points="90.39758054917911,209.0 88.8728322959505,199.62387523600773 86.18974816042464,199.56912221983657 81.35546881484333,199.10372068098513 81.45002684602514,198.6109408227785 81.26091078360332,197.66644103945873 81.5209453694406,191.49280779338733 81.48548610770376,191.05475651082816 81.24909102974925,191.0 80.95359718217514,198.597252467589 81.40274783043424,198.65200588002335 81.42638733820058,199.11740898460266 88.90829155768733,199.6101869840786 89.81841260800138,205.46863131743157 90.10208670166321,206.24882541317493 96.18925996072358,206.05719921311538" stroke="#4DD2FF" stroke-linecap="round" stroke-linejoin="round" stroke-width="0.5"><title>2025-06-19 5.0km</title><desc>1750345525000</desc></polyline><polyline fill="none" points="120.42857142856519,200.4506187684019 120.26335403729172,199.4688246300284 115.16770186336362,199.95217187507296 114.51118012421648,199.9672764002571 112.32857142857392,199.7155337105869 104.24161490683036,200.0830776067378 103.54161490683327,200.19887854175613 102.42857142856519,200.53117536997524 103.99813664595422,200.10825174613638 106.84161490683618,199.98238092085376" stroke="#4DD2FF" stroke-linecap="round" stroke-linejoin="round" stroke-width="0.5"><title>2025-06-17 5.1km</title><desc>1750166247000</desc></polyline><polyline fill="none" points="125.9064039408695,206.7925256237504 125.28571428573923,202.8033731077594 139.31330049264943,202.39007737179054 137.03226600994822,193.38717765365436 139.7943349754205,193.54891044675605 143.28571428573923,193.2074743762496 137.77709359611617,193.53094014374074 139.8098522168002,201.63536091908463 133.78916256158845,201.9228723296692" stroke="#4DD2FF" stroke-linecap="round" stroke-linejoin="round" stroke-width="0.5"><title>2025-06-16 3.2km</title><desc>1750084948000</desc></polyline><polyline fill="none" points="166.14285714286962,200.8320885070425 165.86705069130403,199.1679114929575 157.01947004607064,199.98319432727294 156.2210829493415,199.99159926299035 152.72269585254253,199.5629464501617 148.14285714286962,199.7814756135267 152.57753456220962,199.5545414707667 156.2138248848205,199.97478939073335 163.71866359451087,199.34441670769593" stroke="#4DD2FF" stroke-linecap="round" stroke-linejoin="round" stroke-width="0.5"><title>2025-06-15 4.6km</title><desc>1749956754000</desc></polyline><polyline fill="none" points="189.0,200.7239137209981 188.7808807733527,199.27608627899463 181.07303974224487,199.98507752069418 180.26745435016346,200.00000357831595 176.8775510204141,199.61938815854228 171.0,199.8880580719997 176.99355531684705,199.61938815854228 180.21589688508539,200.00000357831595 181.89795918369782,199.917910223754 182.21374865731923,199.81342763937573 186.2996777658409,199.44773741994868" stroke="#4DD2FF" stroke-linecap="round" stroke-linejoin="round" stroke-width="0.5"><title>2025-06-14 5.1km</title><desc>1749906363000</desc></polyline><polyline fill="none" points="29.0,221.06875192149164 28.783592644991586,219.60935958814662 21.323903818964027,220.33168876736454 20.318246110342443,220.33905943610444 17.263083451223793,219.97052507959597 11.509193776524626,220.2432406840744 11.432814710075036,220.0737148887274 11.464639321085997,218.93861888996616 11.0,218.93124807850836 11.483734087727498,218.9533605106335 11.432814710075036,220.06634419295006 11.528288543166127,220.2432406840744 17.42220650636591,219.96315437331214 20.458274398901267,220.3464301040949 26.50495049508754,219.80099864498334 26.498585572873708,219.50616911642283 28.439886845852016,219.4029784974773" stroke="#4DD2FF" stroke-linecap="round" stroke-linejoin="round" stroke-width="0.5"><title>2025-06-12 5.9km</title><desc>1749735885000</desc></polyline><polyline fill="none" points="51.85714285715949,225.66263633829658 51.283338283363264,222.7736221528321 35.5161865161499,224.1748013872275 34.03177903179312,220.11567708935763 33.85714285715949,215.0452197203267 36.80100980098359,214.91520560727804 39.30828630825272,215.07411172923457 39.44550044555217,214.6118388796749 39.18354618351441,214.51071649281948 33.931986931944266,214.33736366170342 34.04425304423785,219.97122212506656 34.48084348079283,221.61799998933566 35.34155034151627,223.66922284850443 42.32699732697802,223.06252622140164 42.46421146416105,223.61144232923107 51.245916245970875,222.7591769339051 51.7822987823165,225.61930156052404" stroke="#4DD2FF" stroke-linecap="round" stroke-linejoin="round" stroke-width="0.5"><title>2025-06-10 5.3km</title><desc>1749559786000</desc></polyline><polyline fill="none" points="57.18690386880189,215.2075754171383 56.754795841814484,213.45622788878973 56.71428571426077,212.0957923520764 68.96184760477627,211.78304684518662 69.51548601430841,213.83151832780277 69.11038473906228,213.8158812445472 68.98885435645934,214.0973484999995 69.24541849741945,215.55158776117605 69.17790161824087,216.5367097521812 69.62351302109892,218.506934759891 70.77129996789154,218.4600249346695 72.47272532415809,225.0116249951243 72.49973207589937,225.30870762854465 72.06762404885376,225.43379488112987 72.45922194834566,225.3243435407203 72.59425570670282,225.57451791832864 72.24316793476464,225.63706144907337 72.36469831736758,226.21558789956907 73.17490086803446,228.2795023326762 73.74204265349545,228.2169598788605 74.71428571426077,227.68534799250483 73.6880291501293,227.90424722757598 71.86507341114338,220.6334984426794 71.64901939767879,220.00804159529798 71.16289786732523,220.00804159529798 70.7983067195164,218.41311509505613 70.4067088200245,218.56948117123102 69.61000964528648,218.4600249346695 69.16439824242843,216.66180415557756 69.06987461150857,214.34754118253477 68.32718894007849,211.7204976673238 56.754795841814484,212.12706686770252 57.24091737216804,215.30139704197063" stroke="#4DD2FF" stroke-linecap="round" stroke-linejoin="round" stroke-width="0.5"><title>2025-06-08 5.0km</title><desc>1749355299000</desc></polyline><polyline fill="none" points="97.57142857142026,220.74069638492801 97.25484565683291,219.2593036150647 91.45297918157303,219.7456227194125 89.7085427135462,219.992521954744 88.73941134242341,219.992521954744 85.67049533379031,219.61843188016064 79.57142857142026,219.8877769260289 85.37975592244766,219.61843188016064 88.7071069633821,220.00000373677904 95.70423546302482,219.37153138663416" stroke="#4DD2FF" stroke-linecap="round" stroke-linejoin="round" stroke-width="0.5"><title>2025-06-07 5.3km</title><desc>1749293029000</desc></polyline><polyline fill="none" points="120.42857142857974,220.71307294099097 120.16281701737898,219.28692705900903 111.95035752866534,220.0375335972858 108.6187046658888,219.65472521866468 102.42857142857974,219.9099310255042 108.59277740624384,219.6397130848345 111.55496681929799,220.0375335972858 117.90066361438949,219.45956724023563" stroke="#4DD2FF" stroke-linecap="round" stroke-linejoin="round" stroke-width="0.5"><title>2025-06-05 5.1km</title><desc>1749128617000</desc></polyline><polyline fill="none" points="125.5376827896398,219.8860670675931 125.28571428571013,218.23566990168183 125.38020247468376,218.16272346800542 132.44319460069528,217.91652881528717 133.77390326210298,222.79470398727426 140.75028121485957,222.70352558211016 143.28571428571013,222.5485220800765 141.1991001125134,222.6214649379981 140.813273340842,217.20529601272574 134.13610798650188,217.5973865904234 132.70303712037276,217.5517947510598 132.8290213723085,217.91652881528717 129.12823397075408,218.02594874459464" stroke="#4DD2FF" stroke-linecap="round" stroke-linejoin="round" stroke-width="0.5"><title>2025-06-03 5.2km</title><desc>1748952979000</desc></polyline><polyline fill="none" points="163.02827305710525,214.6340175164878 162.63341288111405,214.04958133533364 162.3535119968874,213.43620620635193 162.17357571417233,213.2683948762351 161.72873323739623,213.22788861886875 161.38885359224514,212.8343977591212 161.23390845992253,212.31938354665908 161.00398987642257,211.96639358167886 160.729087222222,211.0 159.9343686401844,211.3414223644104 159.56449961458566,211.38192996643556 158.60483944002772,211.740710323862 158.1949845738127,212.26730319790295 158.1949845738127,212.40039732762307 156.53557218864444,214.5125015776648 156.52557572847581,214.6340175164878 156.0707367915893,215.25895252669943 155.6758766155981,215.6234947761368 155.60590139456326,215.5598447106022 155.3260005102784,215.80287185012276 155.14106599747902,215.69293113000458 155.1360677674238,215.7970855017411 155.11107661700225,215.6466402368642 155.37098458097898,215.83180358324535 155.3309987403627,216.04011162691313 154.731211131264,216.70553498535446 153.70657396572642,216.93698476231657 153.70657396572642,216.83283247932923 153.63659874466248,216.96012968818104 153.35669786043582,217.02377818571767 153.11178458671202,216.9543434575935 152.701929720497,216.98906083225302 152.63195449940395,216.92541229585186 152.46701290694182,217.01799196162392 151.97218812943902,216.8444049646314 151.90721113843028,216.08640219959852 151.7172783955466,215.91859869421023 150.7826093713811,216.15583798797525 150.4327332660905,216.36993113478093 150.83259167216602,218.1000056258963 151.46236866168329,220.03253494010642 152.79189786183997,225.2280515268867 152.97683237466845,225.76609014944552 154.54627661846462,228.94214991849003 154.74620582148782,229.0 155.43596157198772,228.78016937724533 155.90579519909807,228.91900986941982 156.7654907721444,228.73967416986488 156.75049608189147,228.39835627621142 156.98041466536233,228.3347205101927 157.39526776166167,228.52562759469583 157.7101562564494,228.37521600590844 157.84011023843777,228.5661229544785 158.6498235106992,228.74545920124 159.12465536792297,228.65868366858558 159.60448545517283,228.30001006234306 159.6894553664606,227.62315209528606 160.04932793194894,227.12562742731097 159.95436156049254,226.62809840687987 160.06932085222797,226.38511753593048 159.82440757850418,226.11320913992677 159.66946244618157,225.70823677836233 159.60948368525715,225.10655823017805 159.9343686401844,224.84621457745016 160.4291934176872,225.04870418813516 160.70409607185866,225.03134796403174 160.7740712929226,224.65529514124137 160.65911200118717,224.1924574838522 160.56414562973077,224.1519590095886 160.65911200118717,224.10567500370234 160.54915093950694,224.0709619745503 160.63911908084992,224.12303151032393 160.64911554104765,223.8511122978598 160.51916155905928,223.55026399437338 159.9293704101001,223.50976506273219 159.65446775592864,223.30148438722608 159.76942704766407,222.5146393944342 160.23926067480352,221.7104262748653 160.59913324026274,221.31120834312242 160.76407483275398,221.2533504392959 161.118949168158,220.7615558794496 161.74372792762006,220.165610888409 162.29853146604728,219.47129816576853 162.13858810361126,219.1472826598947 161.64376332610846,219.14149665194054 161.57878633512883,218.95055805890297 161.7687190780125,218.49346003390747 161.98864120134385,218.28516098064938 162.19356863445137,218.3140914503565 162.27853854573914,218.20994169052938 162.1036004931084,217.81069917671994 162.33851730663446,217.31887483397077 162.5584394299949,217.1915784284829 162.74337394279428,217.26679906617574 162.71838279240183,217.12793011885879 163.27318633082905,216.87333616760588 163.32316863158485,216.71710749659178 163.80799694894813,216.42200772422075 163.85298101961962,215.99960734488195 163.21820579998894,214.790251913244 163.11824119844823,214.74396028490082" stroke="#4DD2FF" stroke-linecap="round" stroke-linejoin="round" stroke-width="0.5"><title>2025-06-02 11.5km</title><desc>1748829019000</desc></polyline><polyline fill="none" points="189.0,220.8417534750406 188.67027477102238,219.1582465249594 179.16069941714522,220.04339350415103 175.21898417980992,219.59214325279754 171.0,219.77437921910314 175.27144046625472,219.57478742613603 178.72606161530712,220.02603776947217 188.6552872605971,219.1669244812001 188.99250624480192,220.7896867485979" stroke="#4DD2FF" stroke-linecap="round" stroke-linejoin="round" stroke-width="0.5"><title>2025-06-01 4.9km</title><desc>1748740054000</desc></polyline><polyline fill="none" points="29.0,248.67410667186778 28.934821967442986,248.81247984978108 28.80446590221254,248.7118448267065 28.369945684971754,246.29657965675142 14.639106819580775,247.49163864280126 13.368135184107814,243.93158671310812 13.313820156967267,239.4530716523077 13.009656004840508,237.7672963525838 11.0,231.18752015021892 12.325286662671715,235.59085089842847 12.683765841939021,236.27020793587872 13.270368135243189,238.79889292705775 13.856970428547356,238.9624379334782 13.248642124352045,238.9498575560865 13.368135184107814,243.51645029734937 13.780929390457459,245.2147268062472 14.497887748933863,246.98845732213522 14.682558841304854,247.1016732981443 20.570307785179466,246.4978535594273 20.733252866601106,246.97587776285945 25.41520820761798,246.5230127741961" stroke="#4DD2FF" stroke-linecap="round" stroke-linejoin="round" stroke-width="0.5"><title>2025-05-31 5.5km</title><desc>1748696141000</desc></polyline><polyline fill="none" points="50.594805194821674,244.96756412692775 50.185714285762515,242.32819520025805 35.37662337668007,243.65465383294213 34.009090909094084,239.75645194278331 33.85714285715949,235.0595080771891 38.883116883109324,235.11365246893547 33.927272727305535,235.0324358730868 34.02077922079479,239.68877381607308 34.38311688316753,241.13707819906995 35.29480519477511,243.22152594024374 48.40909090911737,241.96273998371908 49.57792207796592,241.89506298136257 49.63636363641126,242.395871981862 51.85714285715949,242.2199122779857" stroke="#4DD2FF" stroke-linecap="round" stroke-linejoin="round" stroke-width="0.5"><title>2025-05-29 5.0km</title><desc>1748526381000</desc></polyline><polyline fill="none" points="67.62553769524675,238.23286041124084 67.22617160965456,234.9625264027418 73.98686891555553,234.632185964394 74.71428571426077,237.2914073854481 73.92981661757221,234.69825410589692 67.1976454607211,235.01207741038525 67.38306542899227,236.6472521640244 67.12633008830016,235.02859440956672 57.513017885386944,235.92050986597314 58.95358840835979,243.13823769203736 59.509848313289694,244.82287846862164 59.13900837668916,245.05410230671987 59.723794430552516,246.6065966768656 58.93932533392217,244.55862224975135 56.99954720394453,235.95354367756227 60.36563278239919,235.47455275138782 66.45596558746183,235.09466238951427 66.3846502150991,234.61566892477276 57.44170251302421,235.22679826857348 56.94249490601942,233.39340332311986 56.71428571426077,233.59160918208363 56.8283903101692,235.3589340398612 63.574824541516136,234.69825410589692" stroke="#4DD2FF" stroke-linecap="round" stroke-linejoin="round" stroke-width="0.5"><title>2025-05-27 6.0km</title><desc>1748352132000</desc></polyline><polyline fill="none" points="95.17279531402164,241.34136010772636 95.2445493003761,241.2938794083384 95.01391148712719,240.14246059575817 88.95069964203867,240.72410799600402 88.24853563294164,240.73597829062055 85.72177025707788,240.43922019933234 79.68418483567075,240.70630254955176 79.57142857142026,238.7357995008242 80.28896843476105,238.65863989227728 81.27814838921768,238.7298641499583 81.28327367393649,240.43922019933234 85.8704035144765,240.2552294232628 88.65855841196026,240.52824778550348 95.00366091766045,239.8991165923253 97.46379759191768,239.81008804430166 97.57142857142026,240.0059506702637 97.49967458509491,240.02969154986204 95.22917344613234,240.12465497143785" stroke="#4DD2FF" stroke-linecap="round" stroke-linejoin="round" stroke-width="0.5"><title>2025-05-25 7.6km</title><desc>1748179850000</desc></polyline><polyline fill="none" points="120.41677588468883,240.9937263310785 120.36959370906698,240.60443612185918 120.13958060290315,240.60443612185918 119.99213630406302,239.87365716575005 119.87418086500838,239.70974303461117 114.18283093057107,240.19465451112046 113.25098296202486,240.3653971534659 109.51179554392002,240.01708170158236 102.52883355179802,240.3312486598079 102.42857142857974,239.14287024004443 104.16251638272661,239.0062736689215 104.15072083880659,240.00342223521875 104.38073394497042,240.03074116517382 109.28178243775619,239.81901916660718 112.83224115334451,240.12635733236675 120.20445609439048,239.4160625469376 120.42857142857974,240.9186003264549" stroke="#4DD2FF" stroke-linecap="round" stroke-linejoin="round" stroke-width="0.5"><title>2025-05-24 6.6km</title><desc>1748094255000</desc></polyline><polyline fill="none" points="143.28571428571013,240.80202481051674 143.0899044549442,239.19797518949053 135.6781397490704,239.82784132943198 134.64832508345717,240.00420298581594 133.47346609877422,240.02099931432895 130.08668124786345,239.60948827948596 125.28571428571013,239.8026467762611 130.06492459998117,239.60109007370193 133.42995280303876,240.02939747733035 141.110049499257,239.38273642289278" stroke="#4DD2FF" stroke-linecap="round" stroke-linejoin="round" stroke-width="0.5"><title>2025-05-18 4.7km</title><desc>1747565909000</desc></polyline><polyline fill="none" points="163.80332092757453,240.64448349435042 163.6075007157342,239.4927689701035 158.38734612081316,239.9343616728147 157.51646149443695,240.08951507498568 156.8156312625215,240.08354764403703 154.4297165760072,239.77324039691666 148.17892928715446,240.05967791419607 148.14285714286962,239.88065463010207 151.6624677927466,239.6538910178133 154.0483824792609,239.61211867765087 156.83624391639023,240.05967791419607 163.67449184082216,239.4509965149773 165.9779559118033,239.35551650564958 166.07071285429993,239.3674515153325 166.08617234468693,239.4509965149773 166.14285714286962,239.41519152972978" stroke="#4DD2FF" stroke-linecap="round" stroke-linejoin="round" stroke-width="0.5"><title>2025-05-17 5.7km</title><desc>1747487200000</desc></polyline><polyline fill="none" points="188.01635420823004,239.2558608284089 185.63262863981072,239.38057809575548 184.46948544075713,239.58843978426012 179.1276426007098,239.9958471573991 175.78181092938758,239.5634964096098 171.0,239.7547287537309 175.71719186278642,239.58012532689463 178.9984044674784,239.9875327415284 188.53330674112658,239.1560868772649 188.84922217793064,240.76908412746707 189.0,240.84391312272783" stroke="#4DD2FF" stroke-linecap="round" stroke-linejoin="round" stroke-width="0.5"><title>2025-05-11 5.0km</title><desc>1746965499000</desc></polyline><polyline fill="none" points="29.0,260.64671074700163 28.709469153458485,259.35328925299837 20.542324246722274,260.09345810143714 17.22381635577767,259.7121599303937 11.0,259.9738353591529 17.068866571004037,259.71963638415764 20.167862266825978,260.09345810143714 28.76111908175517,259.3682422329366" stroke="#4DD2FF" stroke-linecap="round" stroke-linejoin="round" stroke-width="0.5"><title>2025-05-10 5.3km</title><desc>1746870058000</desc></polyline><polyline fill="none" points="51.81784154707566,259.69658927550336 51.77199001869303,259.5676388092543 51.857142857130384,259.66624800941645 51.509981285082176,259.72693052919203 43.485963817860465,260.4323611907457 40.08640049904352,260.03034238589316 33.857142857130384,260.28824149152933 40.0536494073458,260.03034238589316 41.645352464111056,260.1592920504336 43.09295071740053,260.42477595036326 49.66281971303397,259.83312481975736" stroke="#4DD2FF" stroke-linecap="round" stroke-linejoin="round" stroke-width="0.5"><title>2025-05-05 5.4km</title><desc>1746434825000</desc></polyline></svg>