<?xml version="1.0" encoding="utf-8" ?>
<svg baseProfile="full" height="300mm" version="1.1" viewBox="0,0,200,300" width="200mm" xmlns="http://www.w3.org/2000/svg" xmlns:ev="http://www.w3.org/2001/xml-events" xmlns:xlink="http://www.w3.org/1999/xlink"><defs /><rect fill="#222222" height="300" width="200" x="0" y="0" /><text fill="#FFFFFF" style="font-size:12px; font-family:Arial; font-weight:bold;" x="10" y="20">Over 3km Runs</text><text fill="#FFFFFF" style="font-size:4px; font-family:Arial" x="10" y="280">Runner</text><text fill="#FFFFFF" style="font-size:9px; font-family:Arial" x="10" y="290">tang-hi</text><text fill="#FFFFFF" style="font-size:4px; font-family:Arial" x="65" y="280">SPECIAL TRACKS</text><rect fill="yellow" height="2.6" width="2.6" x="65" y="283" /><text fill="#FFFFFF" style="font-size:3px; font-family:Arial" x="70" y="285.5">Over 20.0 km</text><rect fill="red" height="2.6" width="2.6" x="65" y="287" /><text fill="#FFFFFF" style="font-size:3px; font-family:Arial" x="70" y="289.5">Over 40.0 km</text><text fill="#FFFFFF" style="font-size:4px; font-family:Arial" x="120" y="280">STATISTICS</text><text fill="#FFFFFF" style="font-size:3px; font-family:Arial" x="120" y="285">Number: 36</text><text fill="#FFFFFF" style="font-size:3px; font-family:Arial" x="120" y="290">Weekly: 3.6</text><text fill="#FFFFFF" style="font-size:3px; font-family:Arial" x="141" y="285">Total: 195.6 km</text><text fill="#FFFFFF" style="font-size:3px; font-family:Arial" x="141" y="290">Avg: 5.4 km</text><text fill="#FFFFFF" style="font-size:3px; font-family:Arial" x="167" y="285">Min: 3.2 km</text><text fill="#FFFFFF" style="font-size:3px; font-family:Arial" x="167" y="290">Max: 11.5 km</text><polyline fill="none" points="26.085050306632183,31.5 26.167329002870247,33.416027070335986 25.529669106996153,37.414591302476765 25.303402692370582,37.87870152412506 25.293117855326273,39.05681921314681 24.388052196707577,44.57834422936139 24.429191544884816,45.19711961026769 23.74010746384738,50.3256897681058 24.562894426228013,58.5 24.089791922830045,55.26366005757882 23.72982262680307,50.06391204116517 25.27254818129586,38.97351835169684 25.179984648013487,38.59271365915629 25.48852975887712,37.49789327252802 26.095335143676493,33.535033929023484 26.023341284424532,33.11850939458964 26.27017737319693,31.85702605386905 26.04391095857136,31.57140529784374" stroke="#4DD2FF" stroke-linecap="round" stroke-linejoin="round" stroke-width="0.5"><title>2025-07-13 5.0km</title><desc>1752418082000</desc></polyline><polyline fill="none" points="62.265518246393185,58.5 62.126960846595466,58.48766697220708 62.21222693880554,57.513353818394535 62.68119044601917,54.55336714761506 62.958305245731026,54.306698332999076 63.43792701442726,50.95195267667441 63.69372529105749,47.48610700756399 62.99028003029525,42.6633598826229 62.62789913837332,38.629866611583566 62.41473390778992,37.84042104388209 61.96708692365792,37.124981560598826 62.063011277408805,36.93995342133712 62.574607830669265,37.01396471092448 62.35078433866147,34.670251948387886 61.839187785284594,34.02880687867582 61.87116256990703,32.56087174406275 61.508781678043306,31.5493430775241 61.284958185919095,31.5493430775241 61.476806893362664,31.5 61.839187785284594,32.400508005943266 61.82852952380199,34.04114239279443 62.29749303095741,34.47288459591073 62.35078433866147,34.719593736328534 62.574607830669265,36.976959071762394 62.05235301586799,36.95228863939701 61.93511213903548,37.08797595536453 62.40407564630732,37.76641025853314 62.61724087683251,38.51885113905155 63.05422959942371,43.31709386999137 63.715041814080905,47.39976795137045 63.7043835525983,48.978529555788555 62.40407564630732,57.85868089432188" stroke="#4DD2FF" stroke-linecap="round" stroke-linejoin="round" stroke-width="0.5"><title>2025-07-12 5.1km</title><desc>1752325602000</desc></polyline><polyline fill="none" points="99.83732376794796,58.5 99.57494274852797,58.48785562253761 100.16267623199383,54.44370929338038 100.40406676987186,54.322261341061676 101.07576217950555,49.81645507521898 101.18071458727354,47.54526999294467 100.56149538146565,43.476461496102274 100.08920954656787,38.532976362956106 99.4594951000181,37.257596879295306 99.54345702618593,37.12398490729538 100.06821906502591,37.20901072494598 99.82682852714788,34.743237440918165 99.3545426922501,34.22092425169103 99.33355221070815,32.581088932020066 98.80879017192638,31.5 99.36503793299198,32.714705985701585 99.3545426922501,34.20877740618016 99.83732376794796,34.755384232106735 100.09970478736795,37.172571096198226 99.59593323006993,37.11183835697011 99.48048558161827,37.30618301384675 100.11020002810983,38.63014757489873 100.57199062226573,43.45216968598834 101.19120982801542,47.46025153128721 101.08625742030563,49.75572876309889 100.07871430576779,56.45972727240587" stroke="#4DD2FF" stroke-linecap="round" stroke-linejoin="round" stroke-width="0.5"><title>2025-07-10 5.0km</title><desc>1752149320000</desc></polyline><polyline fill="none" points="133.71354894561227,31.5 133.77678821166046,33.1830451440037 134.2352728904225,32.94522450209479 135.21548151422758,33.27451453798858 136.27473922038916,33.1830451440037 137.46047545870533,33.622097811399726 143.57887444837252,34.42702492090757 143.75278242997592,34.66484360549657 142.34570876054931,43.646842416666914 141.66588665056042,43.70172086940147 141.53940811846405,43.93952730449382 141.30226087081246,45.53099305590149 141.47616885241587,46.22611161459645 140.40110132971313,52.280846640860545 132.52781270735431,52.04305122040387 132.25904582662042,51.86013145260222 131.24721756996587,58.5 132.30647527612746,51.96988333557965 135.37357967923163,52.02475925194449 136.40121775242733,51.62233547664073 136.54350610106485,52.04305122040387 140.44853077922016,52.1710949473927 143.1678192190593,35.14048003232165 143.0887701365864,34.51849368296098 134.94671463343548,33.091575703481794" stroke="#4DD2FF" stroke-linecap="round" stroke-linejoin="round" stroke-width="0.5"><title>2025-07-08 5.1km</title><desc>1751976330000</desc></polyline><polyline fill="none" points="161.7404842817923,58.254154027134064 161.6825402948307,58.5 162.04951887985226,58.34355259449512 162.16540685400832,57.09196934434294 162.84142003708985,56.53322452242719 162.97662267368287,55.952128401899245 164.92740357317962,42.43003512376163 165.10123553453013,38.33971749727789 164.63768363767304,35.3222212989931 165.69999006809667,35.277517340306076 165.9703953412827,35.67985264111485 169.6981251790421,36.2162985636096 172.69189784664195,36.17159478676331 174.87445469456725,37.04331679685856 181.82773314823862,38.07149728978402 183.10250086477026,31.5 188.3174597051693,32.66231994012196 183.6626260735793,31.56705708669324 182.79346626682673,35.43398115586024 182.6582636302337,38.11620068043703 169.64018119184766,36.3727617112163 165.9703953412827,35.702204580709804 165.64204608101863,35.21046138522797 164.579739650595,35.38927721993241 165.0046622226946,37.17742756856023 165.0819208722096,41.044252974461415 162.89936402416788,56.019178032671334" stroke="#4DD2FF" stroke-linecap="round" stroke-linejoin="round" stroke-width="0.5"><title>2025-07-06 5.0km</title><desc>1751807521000</desc></polyline><polyline fill="none" points="15.609601379488595,86.82643208399531 16.779413212207146,78.50764349047677 12.993476735427976,78.23690888327837 11.802395596751012,78.65531678503612 13.355054938234389,78.50764349047677 13.142361877835356,78.26152113279386 17.055914190714248,78.48303126599058 17.33241516945418,78.23690888327837 17.204799333121628,77.47392790745653 18.799997286638245,67.4072764031589 18.651112144463696,62.386100647825515 21.39485262474045,62.115348016130156 38.19760440313257,64.8720879327011 38.17633509717416,64.0598374686524 19.69330814073328,61.5 19.99107842554804,67.57956980200834 18.055571575067006,81.26419680798426 18.587304226239212,82.1010014286876 18.098110187100247,83.0116384660796 18.20445671735797,84.9805717071722 17.4600310055539,85.15285260422388 17.11972210893873,88.5 15.396908318973146,88.30311025716946 15.50325484923087,86.85104346064327" stroke="#4DD2FF" stroke-linecap="round" stroke-linejoin="round" stroke-width="0.5"><title>2025-07-05 4.8km</title><desc>1751729502000</desc></polyline><polyline fill="none" points="66.84566448954865,88.5 67.1128736329265,88.3047179729183 67.15506455022842,87.19811532145832 67.52071916748537,85.58701837950503 67.71761011524359,85.52192321291659 67.97075561952079,83.16220555844484 62.47187272174051,82.93436890971498 62.82346369989682,81.7138099144795 63.343818347435445,76.21304193063406 63.40007290401263,72.19313043069269 63.20318195625441,71.65604959113989 63.414136543055065,68.36842457647435 63.40007290401263,61.5 56.01666236348683,64.15300461303559 55.86196233308874,64.52735141740413 55.91821688966593,64.20183250671835 59.89822676189942,62.68816087656887 59.96854495751904,66.04100565695262 60.36232685303548,66.88734372450563 63.301627430075314,66.88734372450563 63.31569106923416,71.18406797210628 63.625091129913926,71.3305451751803 63.73760024289368,71.85135192307644 68.88489216263406,72.17685528020957 69.13803766691126,73.46258707126253 69.10991038853535,75.80617288773647 67.3378918589442,87.89787965167488" stroke="#4DD2FF" stroke-linecap="round" stroke-linejoin="round" stroke-width="0.5"><title>2025-07-03 5.2km</title><desc>1751545471000</desc></polyline><polyline fill="none" points="99.52686310466379,88.5 100.16822645161301,84.54589664766536 100.43108028237475,84.36339641709492 101.10398608905962,79.37494904701452 101.15655685518868,77.64719441740453 100.0105141531676,68.4726428541544 99.4532640320831,67.31664813787938 99.56891971756704,67.15845851862105 100.04205661290325,67.24363757034735 99.82125939504476,64.88293854891526 99.30606588686351,64.22582847361628 99.31658004008932,62.729064275677956 98.82241483835969,61.5 99.35863665299257,62.83858424209757 99.30606588686351,64.25016594817134 99.77920278214151,64.71257702404546 99.8528018547222,65.08980578878982 100.04205661290325,67.23146913808887 99.52686310466379,67.19496383392107 99.4532640320831,67.35315340491798 100.02102830645163,68.4726428541544 100.56776427431032,73.68056478968356 101.1775851615821,77.61069229005079 100.99884455668507,80.33615385473968 99.84228770149639,88.08634607310523" stroke="#4DD2FF" stroke-linecap="round" stroke-linejoin="round" stroke-width="0.5"><title>2025-07-01 5.0km</title><desc>1751376396000</desc></polyline><polyline fill="none" points="136.55114498367766,88.5 136.74611519253813,88.25935323357407 136.70712115080096,87.37196490111819 137.01907348487293,87.07115408949903 137.24003972153878,85.8979860827676 137.57798808347434,81.7617426396173 138.0459165846114,80.15233667822031 138.56583714153385,75.9256825432094 138.43585700233234,73.50395086301432 137.70796822267585,69.18685260904022 137.2140436937334,63.9520139771339 136.43416285846615,62.01146639265062 137.12305759621086,62.146854259452084 137.14905362407444,61.5 137.14905362407444,62.11676807749609 136.55114498367766,61.99642328869959 136.44716087233974,62.146854259452084 136.9410854013404,62.88396380489576 137.24003972153878,63.92192816233728 137.7859563062666,69.75846170312434 138.56583714153385,74.94796955458878 138.5008470718749,77.36967760315747 136.86309731780784,87.98862515375367" stroke="#4DD2FF" stroke-linecap="round" stroke-linejoin="round" stroke-width="0.5"><title>2025-06-30 4.1km</title><desc>1751292736000</desc></polyline><polyline fill="none" points="161.8031358884764,76.66440344061994 161.5,74.4734598604191 161.604529616714,74.24346896374482 169.73693379794713,73.85611486788548 171.03310104529373,73.97716315856815 173.1445993031375,73.77138099104195 176.31184668990318,73.80769551710546 188.5,73.03298321942566 184.86236933799228,73.28718624914472 184.01567944255657,73.56559846693563 182.4477351916139,73.49296925563249 174.51393728225958,73.90453419898404 167.13414634147193,74.03768725762347 166.91463414632017,74.23136416738998 167.42682926828275,76.96701678057434 167.18641114985803,76.94280774176877 166.893728222989,75.51446571711858" stroke="#4DD2FF" stroke-linecap="round" stroke-linejoin="round" stroke-width="0.5"><title>2025-06-26 5.0km</title><desc>1750950176000</desc></polyline><polyline fill="none" points="38.5,106.10503620783857 38.06404736277182,103.89496379215416 26.4483315392863,104.96074029371084 25.20828848227393,104.97195893882599 20.73250807315344,104.41102528154443 11.5,104.80367914179078 20.42249730892945,104.3998065792257 25.21797631861409,104.9831775828352 33.48170075350208,104.23152590745303" stroke="#4DD2FF" stroke-linecap="round" stroke-linejoin="round" stroke-width="0.5"><title>2025-06-24 5.0km</title><desc>1750769966000</desc></polyline><polyline fill="none" points="76.0,106.08125815037783 75.630403458199,103.91874184961489 64.1340057636844,105.01126839474455 62.733429394837,105.05632080390933 58.2010086455266,104.47063805232028 49.0,104.8761110570922 57.9578530259314,104.47063805232028 62.7237031700206,105.05632080390933 72.459654178645,104.18905870145682" stroke="#4DD2FF" stroke-linecap="round" stroke-linejoin="round" stroke-width="0.5"><title>2025-06-22 5.0km</title><desc>1750563938000</desc></polyline><polyline fill="none" points="100.92269060903345,118.5 99.52724332752405,110.1631483968813 99.50768098243861,107.88998530217941 99.63157583452994,106.93840794199059 99.55332645427552,104.4914385842203 99.579409581027,104.06849741340557 99.72286677817465,103.82681565982057 99.579409581027,103.71352706628386 99.57288879930275,102.16523225016135 97.98833884883788,92.63306504517823 97.59057116578333,91.5 97.99485963050392,92.48954443218827 99.55332645427552,102.00662461162574 99.63809661622508,106.64386961449054 99.52724332752405,107.89753745454072 99.5207225457998,110.08762914865656 100.59013074287213,116.4913878494408 100.74010872171493,116.92936055468454 102.40942883418757,116.8387457246572" stroke="#4DD2FF" stroke-linecap="round" stroke-linejoin="round" stroke-width="0.5"><title>2025-06-21 8.0km</title><desc>1750517001000</desc></polyline><polyline fill="none" points="140.23922796652187,118.5 137.95210558676627,104.43581285400433 133.92747938341927,104.35368332975486 126.6760603650473,103.65558102146315 126.81789741187822,102.91641123416775 126.53422331821639,101.49966155918082 126.9242751969723,92.23921169007372 126.87108630430885,91.58213476624223 126.51649368740618,91.5 126.07325291610323,102.89587870138348 126.74697888852097,102.97800882003503 126.78243815014139,103.67611347688944 138.0052944793133,104.41528047611064 139.37047605484258,113.20294697614736 139.79598719533533,114.37323811976239 148.92674708389677,114.0857988196658" stroke="#4DD2FF" stroke-linecap="round" stroke-linejoin="round" stroke-width="0.5"><title>2025-06-19 5.0km</title><desc>1750345525000</desc></polyline><polyline fill="none" points="188.5,105.67592815259559 188.2521739130898,104.20323694503895 180.60869565219036,104.92825781260763 179.62391304346966,104.95091460038384 176.35000000000582,104.5733005658767 164.2195652173832,105.12461641010304 163.16956521739485,105.29831781263056 161.5,105.79676305496105 163.854347826069,105.1623776191991 168.1195652174065,104.973571381277" stroke="#4DD2FF" stroke-linecap="round" stroke-linejoin="round" stroke-width="0.5"><title>2025-06-17 5.1km</title><desc>1750166247000</desc></polyline><polyline fill="none" points="12.431034482666291,145.1887884356256 11.5,139.20505966164637 32.54137931042351,138.5851160576858 29.11982758634258,125.08076648047427 33.262931034551,125.32336567013408 38.5,124.81121156437439 30.237068965565413,125.2964102156111 33.286206896649674,137.4530413786124 24.25517241389025,137.88430849451106" stroke="#4DD2FF" stroke-linecap="round" stroke-linejoin="round" stroke-width="0.5"><title>2025-06-16 3.2km</title><desc>1750084948000</desc></polyline><polyline fill="none" points="76.0,136.24813276056375 75.58629032265162,133.75186723943625 62.31491935480153,134.97479149090213 61.11733870970784,134.9873988944746 55.86975806450937,134.34441967524617 49.0,134.6722134202937 55.65201612905366,134.3318122061537 61.106451612955425,134.96218408609275 72.36370967747644,134.0166250615439" stroke="#4DD2FF" stroke-linecap="round" stroke-linejoin="round" stroke-width="0.5"><title>2025-06-15 4.6km</title><desc>1749956754000</desc></polyline><polyline fill="none" points="113.5,136.08587058149715 113.17132116004359,133.91412941849558 101.60955961339641,134.97761628103763 100.40118152525974,135.0000053674812 95.31632653065026,134.42908223781706 86.5,134.83208710800682 95.49033297528513,134.42908223781706 100.32384532765718,135.0000053674812 102.84693877556128,134.876865335631 103.32062298600795,134.72014145906724 109.4495166487759,134.17160612992302" stroke="#4DD2FF" stroke-linecap="round" stroke-linejoin="round" stroke-width="0.5"><title>2025-06-14 5.1km</title><desc>1749906363000</desc></polyline><polyline fill="none" points="151.0,136.6031278822411 150.67538896744372,134.4140393822163 139.48585572838783,135.49753315105045 137.97736916545546,135.5085891541603 133.39462517679203,134.95578761938668 124.76379066478694,135.36486102611525 124.64922206505435,135.1105723330984 124.696958981629,133.40792833494925 124.0,133.39687211776618 124.72560113156214,133.4300407659539 124.64922206505435,135.09951628942508 124.79243281472009,135.36486102611525 133.63330975954887,134.9447315599682 138.18741159827914,135.51964515614236 147.2574257425731,134.70149796747137 147.24787835928146,134.2592536746306 150.15983026870526,134.1044677462196" stroke="#4DD2FF" stroke-linecap="round" stroke-linejoin="round" stroke-width="0.5"><title>2025-06-12 5.9km</title><desc>1749735885000</desc></polyline><polyline fill="none" points="188.5,143.49395450744487 187.63929313933477,139.16043322924816 163.98856548860203,141.26220208083396 161.76195426192135,135.17351563402917 161.5,127.56782958049735 165.91580041579437,127.37280841091706 169.67671517666895,127.61116759384458 169.88253638264723,126.91775831952691 169.4896049896488,126.7660747392365 161.61226611223537,126.50604549255513 161.78066528064664,134.95683318760712 162.43555093556643,137.42699998401804 163.72661122656427,140.50383427276392 174.2047817048151,139.59378933210974 174.41060291056056,140.41716349385388 187.5831600832753,139.13876540087222 188.38773388788104,143.42895234079333" stroke="#4DD2FF" stroke-linecap="round" stroke-linejoin="round" stroke-width="0.5"><title>2025-06-10 5.3km</title><desc>1749559786000</desc></polyline><polyline fill="none" points="12.20892723184079,157.81136312570015 11.560765191330574,155.1843418331846 11.5,153.14368852811458 29.87134283571504,152.6745702677872 30.701800450100563,155.74727749169688 30.094148537144065,155.72382186680625 29.911852963268757,156.14602274999197 30.29669917479623,158.32738164174953 30.19542385591194,159.80506462824997 30.863840960199013,162.76040213982924 32.58552138041705,162.69003740198968 35.13765941490419,172.5174374926719 35.17816954245791,172.96306144281698 34.53000750183128,173.15069232168025 35.117404351127334,172.98651531108771 35.319954988663085,173.36177687748568 34.79332333081402,173.45559217360278 34.97561890468933,174.32338184933178 36.190922730602324,177.4192534990143 37.04163540888112,177.3254398182762 38.5,176.52802198873542 36.96061515377369,176.85637084134214 34.22618154541124,165.95024766400456 33.90210052521434,165.01206239295425 33.17291822959669,165.01206239295425 32.62603150785435,162.6196726425842 32.03863465867471,162.85422175684653 30.84358589653857,162.69003740198968 30.175168792251498,159.99270623335906 30.03338334581349,156.5213117737876 28.91935483866837,152.5807465009857 11.560765191330574,153.1906003015465 12.289947486831807,157.95209556295595" stroke="#4DD2FF" stroke-linecap="round" stroke-linejoin="round" stroke-width="0.5"><title>2025-06-08 5.0km</title><desc>1749355299000</desc></polyline><polyline fill="none" points="76.0,166.11104457739566 75.52512562810443,163.88895542260434 66.8223259152146,164.61843407912238 64.2056712131598,164.988782932116 62.751974156475626,164.988782932116 58.148600143555086,164.4276478202446 49.0,164.83166538903606 57.712491026555654,164.4276478202446 62.703517587971874,165.00000560516492 73.19921033742139,164.05729707995488" stroke="#4DD2FF" stroke-linecap="round" stroke-linejoin="round" stroke-width="0.5"><title>2025-06-07 5.3km</title><desc>1749293029000</desc></polyline><polyline fill="none" points="113.5,166.06960941148282 113.10136838321341,163.9303905885099 100.78267915017204,165.05630039593234 95.78519985597814,164.48208782799338 86.5,164.86489653825993 95.74630896648159,164.45956962725177 100.18959308607737,165.05630039593234 109.70813827874372,164.18935086035344" stroke="#4DD2FF" stroke-linecap="round" stroke-linejoin="round" stroke-width="0.5"><title>2025-06-05 5.1km</title><desc>1749128617000</desc></polyline><polyline fill="none" points="124.37795275589451,164.8291006013751 124.0,162.3535048525082 124.14173228346044,162.24408520200814 134.73622047243407,161.87479322293075 136.73228346457472,169.19205598090775 147.19685039372416,169.05528837315796 151.0,168.8227831201075 147.87007874023402,168.93219740698987 147.2913385826978,160.80794401909225 137.27559055120219,161.39607988562784 135.12598425202304,161.32769212657877 135.3149606299121,161.87479322293075 129.76377952756593,162.03892311688105" stroke="#4DD2FF" stroke-linecap="round" stroke-linejoin="round" stroke-width="0.5"><title>2025-06-03 5.2km</title><desc>1748952979000</desc></polyline><polyline fill="none" points="183.82812387138256,156.95102627472806 183.2358336073812,156.07437200300046 182.81598228102666,155.15430930953153 182.54607785696862,154.9025923143563 181.87881414181902,154.84183292830858 181.3689946740924,154.25159663868544 181.13657697557937,153.479075319985 180.79169910034398,152.9495903725183 180.3793451190868,151.5 179.18726724601584,152.0121335466174 178.6324637075886,152.07289494965516 177.1929734457517,152.6110654857912 176.57819114642916,153.4009547968526 176.57819114642916,153.60059599143278 174.08907256869134,156.76875236649357 174.0740778784384,156.95102627472806 173.39181947309407,157.88842879005097 172.79952920912183,158.43524216420337 172.69456637755502,158.3397670659033 172.27471505114227,158.7043077751805 171.99731328192865,158.53939669500687 171.9898159368604,158.695628252608 171.95232921125717,158.46996035530174 172.34219115716405,158.7477053748662 172.28221239626873,159.06016744037333 171.38253098263522,160.05830247803533 169.84557523432886,160.40547714347485 169.84557523432886,160.24924871899566 169.74061240273295,160.44019453226792 169.3207610763493,160.53566727857833 168.9533911657636,160.43151518639206 168.33860886647017,160.48359124838316 168.23364603484515,160.38811844377778 167.9862336461083,160.52698794243042 167.24399647986866,160.26660744694527 167.1465309933701,159.1296032993996 166.86163187905913,158.8778980413117 165.45962834282545,159.2337569819574 164.9348141848459,159.55489670216775 165.5346017939446,162.15000843884627 166.4792672782496,165.0488024101578 168.47356107848464,172.8420772903337 168.75096284769825,173.64913522416464 171.1051292134216,178.4132248777314 171.4050230179564,178.5 172.4396566436917,178.17025406586617 173.14440708435723,178.37851480412792 174.43395044392673,178.10951125479914 174.41145840854733,177.5975344143153 174.75633628378273,177.50208076529088 175.37861592823174,177.7884413920401 175.85094867038424,177.56282400886266 176.04587964335224,177.84918443171773 177.2604495517735,178.11818880186183 177.97269733759458,177.98802550288383 178.69244246848393,177.45001509351277 178.81989733543014,176.4347281429291 179.35970618363353,175.68844114096282 179.2172566264635,174.94214761032345 179.3896955640812,174.57767630389571 179.0223256534955,174.1698137098865 178.78990795501159,173.56235516754532 178.6999398136104,172.65983734526526 179.18726724601584,172.2693218661734 179.92950441225548,172.5730562821991 180.34185839351267,172.5470219460476 180.44682122510858,171.98294271186023 180.27438228749088,171.28868622577284 180.13193273032084,171.22793851438473 180.27438228749088,171.15851250554988 180.10944069499965,171.10644296182727 180.24439290701412,171.18454726548953 180.25938759726705,170.77666844679334 180.06445662429905,170.32539599156007 179.17976990086026,170.26464759409282 178.76741591963219,169.95222658084094 178.93985485722078,168.77195909165312 179.6446052979445,167.5656394122998 180.1844141461188,166.96681251468544 180.43182653485565,166.88002565894567 180.96413803796167,166.14233381917438 181.90130617716932,165.2484163326153 182.73351148478105,164.20694724864734 182.49359644114156,163.7209239898366 181.75135927490192,163.71224497790536 181.65389378840337,163.42583708835446 181.93879290271434,162.74019005086302 182.2686760877259,162.42774147097953 182.57606723741628,162.47113717553293 182.70352210430428,162.3149125357886 182.4411150253727,161.71604876507627 182.79349024567637,160.97831225095433 183.12337343071704,160.78736764272617 183.40077519993065,160.90019859925815 183.36328847432742,160.69189517828636 184.19549378196825,160.3100042514052 184.2704672330874,160.0756612448895 184.99770970913232,159.63301158633112 185.0651858151541,158.9994110173211 184.11302298569353,157.18537786986417 183.96307608339703,157.11594042734941" stroke="#4DD2FF" stroke-linecap="round" stroke-linejoin="round" stroke-width="0.5"><title>2025-06-02 11.5km</title><desc>1748829019000</desc></polyline><polyline fill="none" points="38.5,196.26263021256455 38.005412156519014,193.73736978744273 23.74104912573239,195.06509025622654 17.828476269729435,194.3882148791963 11.5,194.66156882866198 17.907160699367523,194.3621811392004 23.08909242291702,195.0390566542119 37.982930890866555,193.7503867218038 38.488759367202874,196.18453012289683" stroke="#4DD2FF" stroke-linecap="round" stroke-linejoin="round" stroke-width="0.5"><title>2025-06-01 4.9km</title><desc>1748740054000</desc></polyline><polyline fill="none" points="76.0,208.0111600077944 75.90223295113537,208.218719774668 75.70669885334792,208.06776724004885 75.05491852742853,204.44486948511621 54.45866022934206,206.23745796419098 52.55220277613262,200.8973800696549 52.47073023539269,194.17960747845063 52.01448400726076,191.65094452886842 49.0,181.78128022531746 50.987929993949365,188.38627634763543 51.52564876287943,189.40531190379988 52.40555220283568,193.19833939056844 53.28545564279193,193.44365690021368 52.37296318652807,193.4247863341152 52.55220277613262,200.2746754460095 53.17139408568619,202.82209020935989 54.2468316234299,205.48268598319555 54.52383826189907,205.65250994720554 63.35546167771099,204.7467803391337 63.59987929993076,205.46381664427463 70.62281231139787,204.78451916128688" stroke="#4DD2FF" stroke-linecap="round" stroke-linejoin="round" stroke-width="0.5"><title>2025-05-31 5.5km</title><desc>1748696141000</desc></polyline><polyline fill="none" points="111.60649350646418,202.45134619038436 110.99285714281723,198.4922928003798 88.77922077919357,200.48198074942047 86.72792207787279,194.63467791416042 86.5,187.58926211578364 94.03896103880834,187.67047870339593 86.60519480518997,187.54865380961564 86.74545454536565,194.53316072409507 87.28896103892475,196.70561729859037 88.65649350639433,199.83228891035833 108.32792207784951,197.94410997556406 110.08116883109324,197.84259447203658 110.16883116879035,198.59380797277845 113.5,198.32986841695674" stroke="#4DD2FF" stroke-linecap="round" stroke-linejoin="round" stroke-width="0.5"><title>2025-05-29 5.0km</title><desc>1748526381000</desc></polyline><polyline fill="none" points="140.36687797133345,192.34929061686853 139.76782884297427,187.44378960411996 149.90887480182573,186.9482789465983 151.0,190.937111078194 149.82329635485075,187.04738115885993 139.7250396196032,187.51811611559242 140.00316957198083,189.97087824605114 139.6180665610591,187.54289161435736 125.19809825660195,188.88076479898882 127.35895404114854,199.7073565380706 128.19334389851429,202.23431770293973 127.63708399352618,202.58115346009436 128.51426307437941,204.90989501531294 127.33755942934658,201.83793337465613 124.42789223440923,188.93031551635067 129.47702060220763,188.211829127089 138.6125198097434,187.64199358428596 138.5055467511993,186.92350338718097 125.09112519805785,187.8401974028675 124.34231378755067,185.0901049847016 124.0,185.38741377313272 124.17115689371713,188.03840105980635 134.29080824076664,187.04738115885993" stroke="#4DD2FF" stroke-linecap="round" stroke-linejoin="round" stroke-width="0.5"><title>2025-05-27 6.0km</title><desc>1748352132000</desc></polyline><polyline fill="none" points="184.90205011388753,197.0120401615859 185.0096810934192,196.94081911250396 184.6637243735895,195.21369089363725 175.56890660591307,196.08616199400421 174.51566059229663,196.1039674359272 170.72551252850099,195.65883029899123 161.6691343963612,196.059453824324 161.5,193.10369925123814 162.57630979499663,192.9879598384141 164.06007972668158,193.09479622493382 164.0677676537598,195.65883029899123 170.94846241458436,195.382844134896 175.13069476082455,195.7923716782534 184.64834851937485,194.8486748884825 188.33855353077524,194.71513206644886 188.5,195.00892600539373 188.39236902049743,195.04453732479305 184.98661731209722,195.18698245715495" stroke="#4DD2FF" stroke-linecap="round" stroke-linejoin="round" stroke-width="0.5"><title>2025-05-25 7.6km</title><desc>1748179850000</desc></polyline><polyline fill="none" points="38.48230668413453,226.49058949661412 38.41153342067264,225.90665418278513 38.06651376141235,225.90665418278513 37.84534731321037,224.8104857486178 37.668414154613856,224.5646145519131 29.131389252957888,225.29198176666978 27.733617300109472,225.5480957301843 22.124836172966752,225.02562255236262 11.650393184798304,225.49687298970093 11.5,223.7143053600521 14.10091743117664,223.5094105033786 14.083224115311168,225.0051333528172 14.428243774571456,225.04611174775346 21.779816513764672,224.7285287499035 27.105504587118048,225.18953599854285 38.16382699867245,224.12409382039914 38.5,226.37790048967872" stroke="#4DD2FF" stroke-linecap="round" stroke-linejoin="round" stroke-width="0.5"><title>2025-05-24 6.6km</title><desc>1748094255000</desc></polyline><polyline fill="none" points="76.0,226.2030372157751 75.70628525386564,223.79696278423216 64.5886381950113,224.74176199414796 63.04391619662056,225.0063044787239 61.28162771958159,225.03149897148978 56.20145044318633,224.41423241922166 49.0,224.703970164388 56.16881547140656,224.40163511056016 61.21635777596384,225.04409621599916 72.73650282033486,224.07410463433916" stroke="#4DD2FF" stroke-linecap="round" stroke-linejoin="round" stroke-width="0.5"><title>2025-05-18 4.7km</title><desc>1747565909000</desc></polyline><polyline fill="none" points="109.99069567702827,225.96672524152382 109.69696535929688,224.2391534551498 101.86673346691532,224.90154250922205 100.56040652733645,225.13427261247125 99.50916117947781,225.12532146604644 95.93028914972092,224.6598605953768 86.55410821642727,225.08951687128865 86.5,224.8209819451513 91.77941597480094,224.4808365267163 95.35828800458694,224.41817801647267 99.54008016031003,225.08951687128865 109.79745204694336,224.17649477245868 113.25264815342962,224.0332747584689 113.39178356711636,224.05117727299512 113.41497280274052,224.17649477245868 113.5,224.12278729458922" stroke="#4DD2FF" stroke-linecap="round" stroke-linejoin="round" stroke-width="0.5"><title>2025-05-17 5.7km</title><desc>1747487200000</desc></polyline><polyline fill="none" points="149.52453131228685,223.883791242617 145.94894295971608,224.07086714363686 144.20422816107748,224.38265967639018 136.19146390102105,224.99377073609503 131.1727163940668,224.3452446144147 124.0,224.6320931306036 131.07578779413598,224.37018799035286 135.9976067012176,224.98129911229626 150.2999601116171,223.73413031590462 150.77383326686686,226.15362619120424 151.0,226.26586968409538" stroke="#4DD2FF" stroke-linecap="round" stroke-linejoin="round" stroke-width="0.5"><title>2025-05-11 5.0km</title><desc>1746965499000</desc></polyline><polyline fill="none" points="188.5,225.9700661204988 188.06420373020228,224.0299338795012 175.8134863700834,225.14018715215934 170.83572453365196,224.56823989559052 161.5,224.9607530387293 170.60329985647695,224.5794545762401 175.25179340026807,225.14018715215934 188.14167862263275,224.05236334940855" stroke="#4DD2FF" stroke-linecap="round" stroke-linejoin="round" stroke-width="0.5"><title>2025-05-10 5.3km</title><desc>1746870058000</desc></polyline><polyline fill="none" points="38.441048034932464,254.5448839132514 38.372270742373075,254.35145821388141 38.5,254.49937201412104 37.97925764194224,254.5903957937844 25.94323144108057,255.6485417861113 20.84388646291336,255.0455135788361 11.5,255.43236223729036 20.794759825337678,255.0455135788361 23.182314410456456,255.2389380756431 25.353711790405214,255.6371639255376 35.20851528388448,254.7496872296324" stroke="#4DD2FF" stroke-linecap="round" stroke-linejoin="round" stroke-width="0.5"><title>2025-05-05 5.4km</title><desc>1746434825000</desc></polyline></svg>