<?xml version="1.0" encoding="utf-8" ?>
<svg baseProfile="full" height="300mm" version="1.1" viewBox="0,0,200,300" width="200mm" xmlns="http://www.w3.org/2000/svg" xmlns:ev="http://www.w3.org/2001/xml-events" xmlns:xlink="http://www.w3.org/1999/xlink"><defs /><rect fill="#222222" height="300" width="200" x="0" y="0" /><text fill="#FFFFFF" style="font-size:12px; font-family:Arial; font-weight:bold;" x="10" y="20">Over 3km Runs</text><text fill="#FFFFFF" style="font-size:4px; font-family:Arial" x="10" y="280">Runner</text><text fill="#FFFFFF" style="font-size:9px; font-family:Arial" x="10" y="290">tang-hi</text><text fill="#FFFFFF" style="font-size:4px; font-family:Arial" x="65" y="280">SPECIAL TRACKS</text><rect fill="yellow" height="2.6" width="2.6" x="65" y="283" /><text fill="#FFFFFF" style="font-size:3px; font-family:Arial" x="70" y="285.5">Over 20.0 km</text><rect fill="red" height="2.6" width="2.6" x="65" y="287" /><text fill="#FFFFFF" style="font-size:3px; font-family:Arial" x="70" y="289.5">Over 40.0 km</text><text fill="#FFFFFF" style="font-size:4px; font-family:Arial" x="120" y="280">STATISTICS</text><text fill="#FFFFFF" style="font-size:3px; font-family:Arial" x="120" y="285">Number: 17</text><text fill="#FFFFFF" style="font-size:3px; font-family:Arial" x="120" y="290">Weekly: 2.8</text><text fill="#FFFFFF" style="font-size:3px; font-family:Arial" x="141" y="285">Total: 99.2 km</text><text fill="#FFFFFF" style="font-size:3px; font-family:Arial" x="141" y="290">Avg: 5.8 km</text><text fill="#FFFFFF" style="font-size:3px; font-family:Arial" x="167" y="285">Min: 4.7 km</text><text fill="#FFFFFF" style="font-size:3px; font-family:Arial" x="167" y="290">Max: 11.5 km</text><polyline fill="none" points="52.75,65.24093176116003 51.45893970900215,58.740649843850406 15.98284823272843,61.893303121236386 12.64293139288202,52.76027345104376 12.25,41.35174437070964 18.87370062363334,41.05921261635376 24.515072764945216,41.4167513907596 24.82380457385443,40.37663747926126 24.234407484414987,40.149112108832924 12.418399168294854,39.75906823881087 12.67099792091176,52.43524978138157 13.653326403233223,56.140499975997955 15.58991683984641,60.75575140910223 31.30717255710624,59.39068399815005 31.615904365782626,60.625745240744436 51.37474012479652,58.7081481012865 52.581600831705146,65.14342851116089" stroke="#4DD2FF" stroke-linecap="round" stroke-linejoin="round" stroke-width="0.5"><title>2025-06-10 5.3km</title><desc>1749559786000</desc></polyline><polyline fill="none" points="58.3133908478776,41.71704468855751 57.341147787170485,37.77651274978416 57.25,34.71553279217915 84.80701425380539,34.011855401680805 86.05270067520905,38.62091623755987 85.14122280583251,38.58573280021665 84.86777944501955,39.219034125009784 85.44504876225255,42.49107246263884 85.29313578410074,44.70759694240405 86.29576144053135,49.14060320975841 88.87828207074199,49.0350561029918 92.70648912235629,63.776156239036936 92.76725431380328,64.4445921642473 91.79501125297975,64.72603848253493 92.67610652674921,64.47977296664612 92.97993248316925,65.04266531625763 92.18998499622103,65.183388260426 92.4634283571504,66.48507277402678 94.28638409613632,71.12888024852145 95.56245311337989,70.98815972742159 97.75,69.79203298312495 95.44092273083515,70.28455626204959 91.33927231817506,53.925371496006846 90.85315078787971,52.51809358943137 89.75937734451145,52.51809358943137 88.93904726195615,48.92950896389084 88.05795198807027,49.28133263529162 86.26537884492427,49.0350561029918 85.26275318849366,44.98905935004586 85.05007501889486,39.78196766070323 83.37903225817718,33.87111975150765 57.341147787170485,34.78590045234887 58.43492123042233,41.928143344441196" stroke="#4DD2FF" stroke-linecap="round" stroke-linejoin="round" stroke-width="0.5"><title>2025-06-08 5.0km</title><desc>1749355299000</desc></polyline><polyline fill="none" points="142.75,54.166566866100766 142.03768844215665,50.833433133913786 128.98348887288012,51.92765111869085 125.05850681976881,52.48317439817765 122.87796123477165,52.48317439817765 115.97290021536173,51.64147173038509 102.25,52.247498083568644 115.31873653980438,51.64147173038509 122.80527638195781,52.500008407761925 138.54881550610298,51.085945619939594" stroke="#4DD2FF" stroke-linecap="round" stroke-linejoin="round" stroke-width="0.5"><title>2025-06-07 5.3km</title><desc>1749293029000</desc></polyline><polyline fill="none" points="187.75,54.1044141172315 187.152052574791,50.89558588278305 168.67401872522896,52.58445059390215 161.1777997838799,51.72313174200826 147.25,52.29734480740444 161.1194634497515,51.68935444088129 167.78438962914515,52.58445059390215 182.06220741808647,51.28402629053744" stroke="#4DD2FF" stroke-linecap="round" stroke-linejoin="round" stroke-width="0.5"><title>2025-06-05 5.1km</title><desc>1749128617000</desc></polyline><polyline fill="none" points="12.816929133841768,100.99365090206265 12.25,97.28025727876229 12.462598425103351,97.11612780300493 28.354330708622,96.56218983438157 31.348425196832977,107.53808397136163 47.04527559049893,107.33293255974422 52.75,106.98417468016851 48.05511811026372,107.14829611047753 47.18700787401758,94.96191602862382 32.16338582674507,95.84411982844176 28.938976377947256,95.74153818987543 29.22244094486814,96.56218983438157 20.895669291261584,96.80838467532885" stroke="#4DD2FF" stroke-linecap="round" stroke-linejoin="round" stroke-width="0.5"><title>2025-06-03 5.2km</title><desc>1748952979000</desc></polyline><polyline fill="none" points="90.74218580703018,89.17653941209574 89.8537504110136,87.86155800450797 89.22397342149634,86.48146396429365 88.81911678542383,86.10388847153808 87.81822121271398,86.01274939245923 87.05349201109493,85.12739495802816 86.70486546336906,83.96861297998112 86.18754865048686,83.1743855587847 85.56901767855743,81.0 83.78090086899465,81.76820031992975 82.94869556138292,81.85934242448275 80.78946016856935,82.66659822868678 79.86728671961464,83.85143219528254 79.86728671961464,84.15089398715645 76.1336088529788,88.90312854974763 76.1111168176285,89.17653941209574 75.08772920962656,90.58264318508009 74.19929381366819,91.4028632463087 74.04184956627432,91.25965059885493 73.41207257669885,91.80646166277438 72.99596992286388,91.55909504251758 72.98472390527604,91.79344237891928 72.92849381681299,91.4549405329526 73.51328673574608,91.87155806230294 73.4233185944031,92.34025116056 72.07379647390917,93.837453717053 69.76836285146419,94.35821571521228 69.76836285146419,94.12387307848985 69.61091860407032,94.4102917984128 68.98114161449485,94.55350091787113 68.4300867486163,94.39727277959173 67.5079132996616,94.47538687257475 67.35046905220952,94.33217766566668 66.97935046913335,94.54048191365291 65.86599471978843,94.14991117042518 65.71979649004061,92.44440494909941 65.2924478185596,92.0668470619712 63.18944251420908,92.60063547294703 62.40222127723973,93.08234505326254 63.30190269090235,96.97501265827304 64.71890091738896,101.32320361524035 67.71034161769785,113.01311593550054 68.12644427153282,114.22370283625787 71.6576938200742,121.36983731660439 72.10753452690551,121.5 73.6594849654939,121.0053810988029 74.71661062655039,121.31777220619551 76.650925665861,120.91426688219508 76.61718761280645,120.1463016214766 77.13450442563044,120.00312114793633 78.0679238922894,120.43266208806745 78.77642300556181,120.09423601329036 79.06881946499925,120.52377664758387 80.89067432761658,120.92728320279275 81.95904600637732,120.73203825432574 83.0386637027259,119.9250226402728 83.22984600311611,118.40209221439727 84.03955927543575,117.28266171144787 83.82588493963704,116.1632214154888 84.08454334607814,115.61651445584721 83.5334884801996,115.00472056483704 83.18486193247372,114.09353275131434 83.04990972037194,112.73975601790153 83.78090086899465,112.1539827992674 84.89425661833957,112.60958442330593 85.512787590269,112.57053291907505 85.67023183760466,111.72441406780126 85.41157343122177,110.68302933866653 85.19789909542305,110.59190777158074 85.41157343122177,110.48776875832846 85.16416104248492,110.4096644427409 85.36658936046297,110.52682089823793 85.38908139587147,109.91500267019 85.09668493643403,109.23809398734011 83.7696548512904,109.14697139115015 83.15112387941917,108.67833987126505 83.40978228580207,106.90793863747967 84.46690794685856,105.09845911844604 85.27662121911999,104.20021877202817 85.64773980225436,104.0700384884185 86.44620705692796,102.96350072876521 87.85195926571032,101.62262449892296 89.10026722715702,100.06042087297828 88.74039466166869,99.33138598476216 87.62703891232377,99.31836746686167 87.48084068257594,98.88875563253532 87.90818935405696,97.8602850762909 88.40301413153065,97.39161220646929 88.86410085606622,97.45670576330303 89.05528315645643,97.22236880369019 88.66167253802996,96.32407314762531 89.1902353685,95.21746837643877 89.6850601460319,94.93105146408925 90.10116279986687,95.10029789889813 90.04493271146202,94.78784276743681 91.29324067290872,94.21500637711142 91.405700849602,93.86349186733423 92.49656456365483,93.19951737950032 92.59777872270206,92.2491165259853 91.1695344785112,89.52806680480717 90.94461412506644,89.42391064102412" stroke="#4DD2FF" stroke-linecap="round" stroke-linejoin="round" stroke-width="0.5"><title>2025-06-02 11.5km</title><desc>1748829019000</desc></polyline><polyline fill="none" points="142.75,103.14394531885046 142.00811823480763,99.3560546811641 120.61157368862769,101.34763538434345 111.74271440459415,100.33232231879083 102.25,100.74235324299661 111.86074104905128,100.29327170881152 119.63363863446284,101.30858498132147 141.97439633635804,99.37558008272026 142.73313905083342,103.02679518434161" stroke="#4DD2FF" stroke-linecap="round" stroke-linejoin="round" stroke-width="0.5"><title>2025-06-01 4.9km</title><desc>1748740054000</desc></polyline><polyline fill="none" points="187.75,120.76674001172069 187.60334942664485,121.07807966202381 187.31004827993456,120.85165086010238 186.33237779105548,115.4173042277107 155.4379903440131,118.10618694633013 152.57830416411161,110.09607010451145 152.45609535300173,100.01941121771233 151.77172601083294,96.22641679336084 147.25,81.4219203380053 150.23189499089494,91.32941452148953 151.03847314429004,92.85796785575803 152.3583283041371,98.54750908591086 153.67818346410058,98.9154853503569 152.309444779763,98.88717950120918 152.57830416411161,109.1620131690579 153.50709112850018,112.98313531407621 155.12024743505754,116.97402897482971 155.5357573928777,117.2287649208447 168.78319251653738,115.8701705087442 169.14981894986704,116.94572496644105 179.68421846698038,115.9267787419667" stroke="#4DD2FF" stroke-linecap="round" stroke-linejoin="round" stroke-width="0.5"><title>2025-05-31 5.5km</title><desc>1748696141000</desc></polyline><polyline fill="none" points="49.90974025975447,161.17701928556198 48.98928571434226,155.23843920056242 15.668831168906763,158.22297112413798 12.591883116983809,149.4520168712479 12.25,138.88389317368274 23.55844155838713,139.0057180550939 12.407792207901366,138.82298071443802 12.618181818164885,149.2997410861426 13.433441558503546,152.55842594790738 15.484740259707905,157.24843336554477 44.991883116890676,154.41616496336064 47.62175324675627,154.2638917080476 47.753246753360145,155.3907119591604 52.75,154.9948026254424" stroke="#4DD2FF" stroke-linecap="round" stroke-linejoin="round" stroke-width="0.5"><title>2025-05-29 5.0km</title><desc>1748526381000</desc></polyline><polyline fill="none" points="81.80031695705839,146.0239359253028 80.90174326463602,138.66568440617993 96.11331220285501,137.9224184198829 97.75,143.90566661726916 95.98494453239255,138.0710717382899 80.837559429463,138.77717417338863 81.25475435808767,142.45631736906944 80.67709984153043,138.81433742152876 59.047147384961136,140.82114719846868 62.288431061664596,157.06103480709135 63.54001584777143,160.8514765544096 62.70562599040568,161.3717301901197 64.02139461156912,164.8648425229767 62.2563391441945,160.25690006196965 57.89183835173026,140.89547327451874 65.46553090331145,139.81774369062623 79.1687797147315,138.96299037642893 79.00832012679894,137.88525508076418 58.88668779714499,139.26029610430123 57.763470681384206,135.13515747705242 57.25,135.58112065971363 57.5067353406921,139.55760158970952 72.68621236132458,138.0710717382899" stroke="#4DD2FF" stroke-linecap="round" stroke-linejoin="round" stroke-width="0.5"><title>2025-05-27 6.0km</title><desc>1748352132000</desc></polyline><polyline fill="none" points="137.3530751708313,153.01806024237885 137.51452164014336,152.91122866875958 136.9955865603406,150.32053634045587 123.35335990891326,151.62924299100996 121.77349088841584,151.65595115389442 116.08826879278058,150.9882454484905 102.50370159454178,151.58918073649693 102.25,147.1555488768645 103.8644646924804,146.98193975762115 106.09011958999326,147.14219433740072 106.10165148065425,150.9882454484905 116.42269362189109,150.57426620234037 122.69604214123683,151.1885575173801 136.97252277907683,149.77301233273465 142.5078302961192,149.5726980996842 142.75,150.0133890080906 142.58855353074614,150.06680598719686 137.4799259681604,150.28047368573607" stroke="#4DD2FF" stroke-linecap="round" stroke-linejoin="round" stroke-width="0.5"><title>2025-05-25 7.6km</title><desc>1748179850000</desc></polyline><polyline fill="none" points="187.7234600262018,152.23588424491754 187.61730013106717,151.35998127417406 187.09977064217674,151.35998127417406 186.76802096981555,149.7157286229194 186.5026212319499,149.3469218278624 173.69708387943683,150.43797265000467 171.6004259501933,150.8221435952728 163.18725425947923,150.03843382853665 147.47558977722656,150.74530948455504 147.25,148.07145804008178 151.15137614682317,147.7641157550679 151.12483617296675,150.00770002922218 151.64236566185718,150.0691676216229 162.669724770647,149.59279312484432 170.65825688070618,150.28430399781791 187.24574049806688,148.6861407305987 187.75,152.0668507345108" stroke="#4DD2FF" stroke-linecap="round" stroke-linejoin="round" stroke-width="0.5"><title>2025-05-24 6.6km</title><desc>1748094255000</desc></polyline><polyline fill="none" points="52.75,200.55455582366267 52.30942788079847,196.94544417633733 35.63295729254605,198.36264299121103 33.31587429490173,198.75945671807858 30.672441579401493,198.79724845722376 23.0521756648086,197.8713486288325 12.25,198.3059552465711 23.003223207080737,197.85245266582933 30.574536663945764,198.81614432398055 47.85475423047319,197.3611569515051" stroke="#4DD2FF" stroke-linecap="round" stroke-linejoin="round" stroke-width="0.5"><title>2025-05-18 4.7km</title><desc>1747565909000</desc></polyline><polyline fill="none" points="92.48604351555696,200.200087862293 92.04544803895988,197.6087301827356 80.30010020040208,198.60231376384036 78.34060979104834,198.95140891871415 76.76374176924583,198.9379821990733 71.39543372456683,198.2397908930725 57.3311623246409,198.88427530694753 57.25,198.48147291773057 65.16912396223051,197.97125479007082 70.5374320068513,197.87726702471264 76.81012024049414,198.88427530694753 92.19617807044415,197.51474215870257 97.37897223012988,197.299912137707 97.5876753507182,197.32676590949995 97.62245920411078,197.51474215870257 97.75,197.43418094189838" stroke="#4DD2FF" stroke-linecap="round" stroke-linejoin="round" stroke-width="0.5"><title>2025-05-17 5.7km</title><desc>1747487200000</desc></polyline><polyline fill="none" points="140.5367969684885,197.0756868639437 135.17341443960322,197.35630071547348 132.55634224170353,197.82398951459618 120.53719585156068,198.7406561041571 113.00907459110022,197.76786692164023 102.25,198.19813969591632 112.86368169129128,197.80528198553657 120.24641005182639,198.72194866846257 141.69994016748387,196.8511954738642 142.4107499003294,200.48043928682455 142.75,200.64880452615034" stroke="#4DD2FF" stroke-linecap="round" stroke-linejoin="round" stroke-width="0.5"><title>2025-05-11 5.0km</title><desc>1746965499000</desc></polyline><polyline fill="none" points="187.75,200.20509918074822 187.09630559530342,197.29490081923723 168.72022955515422,198.96028072823538 161.25358680053614,198.10235984338215 147.25,198.69112955809396 160.90494978474453,198.11918186434195 167.8776901003439,198.96028072823538 187.21251793397823,197.3285450241092" stroke="#4DD2FF" stroke-linecap="round" stroke-linejoin="round" stroke-width="0.5"><title>2025-05-10 5.3km</title><desc>1746870058000</desc></polyline><polyline fill="none" points="52.6615720523987,246.81732586988073 52.55840611353051,246.52718732082576 52.75,246.74905802118883 51.96888646291336,246.88559369067661 33.914847161620855,248.47281267917424 26.265829694340937,247.5682703682687 12.25,248.14854335594282 26.192139738006517,247.5682703682687 29.773471615742892,247.85840711346827 33.03056768566603,248.4557458883064 47.81277292576851,247.1245308444486" stroke="#4DD2FF" stroke-linecap="round" stroke-linejoin="round" stroke-width="0.5"><title>2025-05-05 5.4km</title><desc>1746434825000</desc></polyline></svg>