<?xml version="1.0" encoding="utf-8" ?>
<svg baseProfile="full" height="300mm" version="1.1" viewBox="0,0,200,300" width="200mm" xmlns="http://www.w3.org/2000/svg" xmlns:ev="http://www.w3.org/2001/xml-events" xmlns:xlink="http://www.w3.org/1999/xlink"><defs /><rect fill="#222222" height="300" width="200" x="0" y="0" /><text fill="#FFFFFF" style="font-size:12px; font-family:Arial; font-weight:bold;" x="10" y="20">Over 3km Runs</text><text fill="#FFFFFF" style="font-size:4px; font-family:Arial" x="10" y="280">Runner</text><text fill="#FFFFFF" style="font-size:9px; font-family:Arial" x="10" y="290">tang-hi</text><text fill="#FFFFFF" style="font-size:4px; font-family:Arial" x="65" y="280">SPECIAL TRACKS</text><rect fill="yellow" height="2.6" width="2.6" x="65" y="283" /><text fill="#FFFFFF" style="font-size:3px; font-family:Arial" x="70" y="285.5">Over 20.0 km</text><rect fill="red" height="2.6" width="2.6" x="65" y="287" /><text fill="#FFFFFF" style="font-size:3px; font-family:Arial" x="70" y="289.5">Over 40.0 km</text><text fill="#FFFFFF" style="font-size:4px; font-family:Arial" x="120" y="280">STATISTICS</text><text fill="#FFFFFF" style="font-size:3px; font-family:Arial" x="120" y="285">Number: 35</text><text fill="#FFFFFF" style="font-size:3px; font-family:Arial" x="120" y="290">Weekly: 3.5</text><text fill="#FFFFFF" style="font-size:3px; font-family:Arial" x="141" y="285">Total: 190.6 km</text><text fill="#FFFFFF" style="font-size:3px; font-family:Arial" x="141" y="290">Avg: 5.4 km</text><text fill="#FFFFFF" style="font-size:3px; font-family:Arial" x="167" y="285">Min: 3.2 km</text><text fill="#FFFFFF" style="font-size:3px; font-family:Arial" x="167" y="290">Max: 11.5 km</text><polyline fill="none" points="26.87487799586961,62.57142857143481 26.71652668179013,62.55733368253277 26.81397364428267,61.443832935314276 27.34993193828268,58.060991025864496 27.66663456649985,57.77908380914596 28.21477373072412,53.945088773354655 28.507114618318155,49.98412229437963 27.70317717740545,44.47241129443864 27.28902758663753,39.862704698956804 27.04541018034797,38.960481193018495 26.533813627029303,38.142836069266195 26.643441459862515,37.93137533868139 27.22812323505059,38.01595966964669 26.97232495842036,35.337430798172136 26.387643183174077,34.60435071849497 26.42418579419609,32.9267105646577 26.01003620342817,31.77067780289508 25.754237926739734,31.77067780289508 25.973493592406157,31.714285714289872 26.387643183174077,32.74343772108841 26.375462312891614,34.61844844892039 26.911420606833417,35.11186810962681 26.97232495842036,35.39382141295937 27.22812323505059,37.97366751059599 26.63126058958005,37.94547273074568 26.497271016065497,38.100543948996346 27.0332293100073,38.87589743833814 27.276846716355067,39.73582987321424 27.776262399333064,45.2195358514291 28.53147635894129,49.88544908729091 28.519295488658827,51.68974806377082 27.0332293100073,61.83849245066813" stroke="#4DD2FF" stroke-linecap="round" stroke-linejoin="round" stroke-width="0.5"><title>2025-07-12 5.1km</title><desc>1752325602000</desc></polyline><polyline fill="none" points="63.38551287772134,62.57142857143481 63.085648855543695,62.55754928290844 63.75734426523559,57.935667763871606 64.03321916563436,57.79687010408088 64.80087106232531,52.64737722883001 64.92081667121965,50.05173713481054 64.21313757891767,45.40167028128053 63.67338233895134,39.75197298625426 62.95370868575992,38.29439643349906 63.049665172817186,38.14169703691732 63.64939321723068,38.23886939995282 63.373518316831905,35.42084278963739 62.83376307686558,34.82391343051859 62.80977395514492,32.94981592231488 62.21004591078963,31.714285714304424 62.845757637755014,33.102521126536885 62.83376307686558,34.810031321365386 63.38551287772134,35.43472483671212 63.68537689989898,38.19722410995746 63.109637977264356,38.12781526512117 62.977697807596996,38.34992344441707 63.69737146073021,39.86302579990297 64.2251321397489,45.373908212568494 64.93281123205088,49.954573178634746 64.81286562321475,52.57797572927666 63.66138777806191,60.239688311339705" stroke="#4DD2FF" stroke-linecap="round" stroke-linejoin="round" stroke-width="0.5"><title>2025-07-10 5.0km</title><desc>1752149320000</desc></polyline><polyline fill="none" points="95.67262736649718,31.714285714289872 95.74490081332624,33.637765878869686 96.26888330338988,33.36597085955145 97.38912173057906,33.742302329148515 98.59970196615905,33.637765878869686 99.95482909574639,34.13954035589995 106.94728508393746,35.059457052484504 107.14603706286289,35.331249834867776 105.53795286919922,45.596391333354404 104.76101331494283,45.65910956503649 104.6164664211683,45.93088834801165 104.3454409952974,47.74970634962665 104.54419297422282,48.54412755955127 103.31554437684827,55.46382473243284 94.31750023702625,55.1920585376065 94.0103380875662,54.98300737440877 92.85396293713711,62.57142857143481 94.0645431727171,55.10843809781363 97.56980534770992,55.17115343079786 98.74424885993358,54.71124054475513 98.90686411550269,55.1920585376065 103.36974946199916,55.338394225604134 106.47750767902471,35.87483432266163 106.38716587040108,35.16399278055178 97.08195958111901,33.53322937543271" stroke="#4DD2FF" stroke-linecap="round" stroke-linejoin="round" stroke-width="0.5"><title>2025-07-08 5.1km</title><desc>1751976330000</desc></polyline><polyline fill="none" points="121.2748391792411,62.29046174528776 121.20861747977324,62.57142857143481 121.6280215770239,62.39263153655338 121.76046497607604,60.962250679251156 122.53305147099309,60.32368516847782 122.68756877002306,59.65957531644381 124.91703265509568,44.20575442715199 125.11569775373209,39.53110571116849 124.58592415740713,36.082538627422764 125.79998864920344,36.03144838892331 126.10902324714698,36.49126016125956 130.36928591888864,37.104341215555905 133.79074039624538,37.05325118487235 136.2850910795387,38.04950491068303 144.23169502650853,39.22456833117758 145.68857241701335,31.714285714289872 151.64852537738625,33.04265136012691 146.32871551264543,31.79092238478188 145.33539001934696,36.21026417812391 145.18087272031698,39.275657920501544 130.30306421930436,37.28315624137758 126.10902324714698,36.51680523509276 125.73376694973558,35.95481301168911 124.51970245782286,36.159173965628725 125.00532825454138,38.20277436406468 125.09362385398708,42.62200339937408 122.59927317046095,59.73620346590178" stroke="#4DD2FF" stroke-linecap="round" stroke-linejoin="round" stroke-width="0.5"><title>2025-07-06 5.0km</title><desc>1751807521000</desc></polyline><polyline fill="none" points="162.12525871943217,60.65877952455776 163.46218652825337,51.15159256051993 159.13540198339615,50.842181580897886 157.7741663963534,51.320362040016335 159.54863421525806,51.15159256051993 159.30555643187836,50.870309866033494 163.77818764664698,51.12346430396428 164.094188765157,50.842181580897886 163.9483420951292,49.97020332279499 165.77142547059339,38.46545874644653 165.6012710222276,32.72697216895176 168.73697442829143,32.41754058984225 187.94011931796558,35.568100494507235 187.9158115396276,34.639814249880146 166.79235216090456,31.714285714289872 167.13266105775256,38.66236548798042 164.920653228648,54.30193920910824 165.52834768721368,55.25828734706738 164.96926878532395,56.299015389813576 165.0908076770138,58.54922480817186 164.24003543506842,58.74611726196599 163.8511109816609,62.571428571420256 161.88218093605246,62.34641172247939 162.00371982774232,60.68690681215958" stroke="#4DD2FF" stroke-linecap="round" stroke-linejoin="round" stroke-width="0.5"><title>2025-07-05 4.8km</title><desc>1751729502000</desc></polyline><polyline fill="none" points="32.10933084518183,96.85714285714494 32.414712723344564,96.63396339761675 32.46293091453845,95.36927465310146 32.88082190568093,93.52802100514236 33.10584013169864,93.45362652905169 33.39514927944401,90.75680635251047 27.110711681947578,90.4964216110966 27.512529942730907,89.1014970451215 28.10722096846439,82.81490506358386 28.171511890250258,78.22072049220151 27.94649366423255,77.60691381843935 28.187584620609414,73.8496280873951 28.171511890250258,66.0 19.733328415371943,69.03200527203444 19.55652838066453,69.45983019132109 19.6208193024504,69.0878085791046 24.169402013591025,67.35789814464806 24.24976566573605,71.18972075080092 24.69980211771326,72.15696425655915 28.0590027772123,72.15696425655915 28.07507550768787,77.0675062538212 28.428675577044487,77.2349087716284 28.5572574204416,77.83011648351385 34.439876757212915,78.20212032023119 34.729185904958285,79.67152808143874 34.69704044406535,82.3499118717009 32.671876410197,96.16900531620195" stroke="#4DD2FF" stroke-linecap="round" stroke-linejoin="round" stroke-width="0.5"><title>2025-07-03 5.2km</title><desc>1751545471000</desc></polyline><polyline fill="none" points="63.03070069110254,96.85714285714494 63.763687373371795,92.338167597336 64.06409175129374,92.12959590526589 64.83312695898348,86.42851319660258 64.89320783450967,84.45393647704623 63.58344474656042,73.96873469046841 62.946587465296034,72.64759787186631 63.07876539154677,72.46680973557523 63.61949327192269,72.56415722325619 63.367153594386764,69.86621548447874 62.77836101362482,69.11523254128406 62.79037718870677,67.40464488649741 62.22561695816694,66.0 62.83844188920921,67.5298105624097 62.77836101362482,69.14304679792258 63.319088893942535,69.67151659891533 63.40320211974904,70.10263518719876 63.61949327192269,72.55025044354261 63.03070069110254,72.5085300959181 62.946587465296034,72.68931817705743 63.59546092170058,73.96873469046841 64.22030202788301,79.92064547393238 64.91724018473178,84.41221976006636 64.7129652077565,87.52703297685366 63.391185944667086,96.3843955121265" stroke="#4DD2FF" stroke-linecap="round" stroke-linejoin="round" stroke-width="0.5"><title>2025-07-01 5.0km</title><desc>1751376396000</desc></polyline><polyline fill="none" points="98.91559426713502,96.85714285714494 99.13841736293398,96.5821179812192 99.09385274379747,95.56795988699014 99.45036969706416,95.22417610227421 99.70290253893472,93.8834126660222 100.08912923833122,89.15627730241977 100.62390466820216,87.31695620367827 101.21809959033271,82.48649433509854 101.06955085980007,79.71880098630209 100.23767796880566,74.7849744103296 99.67319279286312,68.80230168816342 98.78190040966729,66.58453302017006 99.56920868140878,66.7392620108003 99.59891842753859,66.0 99.59891842753859,66.70487780285475 98.91559426713502,66.56734090136888 98.79675528273219,66.7392620108003 99.36124045873294,67.58167291987047 99.70290253893472,68.76791789982235 100.32680720719509,75.43824194642366 101.21809959033271,81.36910806238302 101.1438252250664,84.13677440361062 99.27211122040171,96.27271446143277" stroke="#4DD2FF" stroke-linecap="round" stroke-linejoin="round" stroke-width="0.5"><title>2025-06-30 4.1km</title><desc>1751292736000</desc></polyline><polyline fill="none" points="121.34644101542654,83.33074678927369 121.0,80.82681126905663 121.11946241912665,80.5639645299816 130.4136386262253,80.12127413472626 131.89497262315126,80.25961503836152 134.3081134893,80.02443541833782 137.92782478843583,80.06593773383065 151.8571428571595,79.18055225076387 147.69985067198286,79.47106999901007 146.73220507719088,79.78925539077318 144.94026879046578,79.70625057785946 135.87307117972523,80.17661051312461 127.43902439024532,80.32878543727566 127.18815331009682,80.55013047701505 127.77351916371845,83.67659060636652 127.49875559977954,83.64892313344171 127.16426082624821,82.01653224813344" stroke="#4DD2FF" stroke-linecap="round" stroke-linejoin="round" stroke-width="0.5"><title>2025-06-26 5.0km</title><desc>1750950176000</desc></polyline><polyline fill="none" points="188.28571428573923,82.69146995181654 187.78748270036886,80.16567290532839 174.51237890205812,81.38370319281239 173.09518683690112,81.39652450152062 167.9800092265359,80.7554574646274 157.42857142857974,81.2042047334835 167.62571121024666,80.74263609055197 173.10625864990288,81.40934580896283 182.55051514692605,80.55031532281282" stroke="#4DD2FF" stroke-linecap="round" stroke-linejoin="round" stroke-width="0.5"><title>2025-06-24 5.0km</title><desc>1750769966000</desc></polyline><polyline fill="none" points="42.571428571420256,116.95000931472168 42.149032523622736,114.47856211385078 29.010292301303707,115.72716387971741 27.409633594041225,115.77865234733326 22.229724166274536,115.10930063122214 11.714285714260768,115.57269835097395 21.951832029561047,115.10930063122214 27.398517908528447,115.77865234733326 38.52531906130025,114.78749565881299" stroke="#4DD2FF" stroke-linecap="round" stroke-linejoin="round" stroke-width="0.5"><title>2025-06-22 5.0km</title><desc>1750563938000</desc></polyline><polyline fill="none" points="64.62593212461798,131.14285714285506 63.03113523146021,121.61502673928771 63.00877826567739,119.01712605963257 63.15037238234072,117.92960907655652 63.06094451918034,115.13307266768243 63.090753806900466,114.64971132960636 63.25470488934661,114.37350361122662 63.090753806900466,114.24403093288856 63.083301484934054,112.47455114303739 61.2723872558272,101.58064576591278 60.81779561802978,100.28571428571013 61.2798395777354,101.41662220820581 63.06094451918034,112.29328527042526 63.15782470427803,117.59299384512997 63.03113523146021,119.0257570909016 63.023682909522904,121.52871902703191 64.24586370616453,128.84730039935675 64.41726711054798,129.34784063392726 66.32506152481074,129.2442808281703" stroke="#4DD2FF" stroke-linecap="round" stroke-linejoin="round" stroke-width="0.5"><title>2025-06-21 8.0km</title><desc>1750517001000</desc></polyline><polyline fill="none" points="103.13054624758661,131.14285714285506 100.51669209916145,115.06950040458469 95.9171192953363,114.97563809114217 87.62978327448945,114.1778068816784 87.7918827565154,113.3330414104712 87.46768379234709,111.713898924776 87.91345736803487,101.13052764580061 87.85267006221693,100.37958258998697 87.44742135703564,100.28571428571013 86.94086047552992,113.30957565872814 87.71083301550243,113.4034386514686 87.7513578858925,114.20127254501858 100.57747940497939,115.04603482985112 102.13768691988662,125.08908225844789 102.62398536608089,126.42655785115494 113.05913952447008,126.09805579390377" stroke="#4DD2FF" stroke-linecap="round" stroke-linejoin="round" stroke-width="0.5"><title>2025-06-19 5.0km</title><desc>1750345525000</desc></polyline><polyline fill="none" points="151.85714285713038,116.48677503153885 151.5739130435104,114.8036993657588 142.838509316789,115.6322946429791 141.71304347823025,115.65818811472127 137.97142857141444,115.22662921815208 124.10807453413145,115.85670446869335 122.90807453414891,116.05522035729518 121.0,116.62487206281367 123.69068322979729,115.89986013623275 128.56521739129676,115.68408157859812" stroke="#4DD2FF" stroke-linecap="round" stroke-linejoin="round" stroke-width="0.5"><title>2025-06-17 5.1km</title><desc>1750166247000</desc></polyline><polyline fill="none" points="158.4926108372165,127.35861535501317 157.42857142852154,120.52006818476366 181.4758620688226,119.81156120880041 177.56551724136807,104.378018834861 182.30049261066597,104.65527505162754 188.2857142855646,104.06995607359568 178.8423645319417,104.62446881787037 182.32709359598812,118.51776157561108 172.00591132999398,119.010638279462" stroke="#4DD2FF" stroke-linecap="round" stroke-linejoin="round" stroke-width="0.5"><title>2025-06-16 3.2km</title><desc>1750084948000</desc></polyline><polyline fill="none" points="42.571428571420256,151.42643744064844 42.09861751156859,148.5735625593661 26.93133640551241,149.9711902753188 25.56267281109467,149.9855987365445 19.56543778802734,149.25076534313848 11.714285714260768,149.62538676605618 19.316589861758985,149.23635680702864 25.550230414781254,149.95678181268158 38.41566820285516,148.87614292748913" stroke="#4DD2FF" stroke-linecap="round" stroke-linejoin="round" stroke-width="0.5"><title>2025-06-15 4.6km</title><desc>1749956754000</desc></polyline><polyline fill="none" points="78.99999999994179,151.2409949502835 78.62436703999992,148.75900504970923 65.41092527238652,149.97441860690014 64.02992174308747,150.00000613426528 58.21865889208857,149.3475225575021 48.14285714284051,149.80809955200675 58.41752340027597,149.3475225575021 63.94153751723934,150.00000613426528 66.82507288630586,149.8592746692957 67.36642626969842,149.68016166750022 74.37087616999634,149.0532641484897" stroke="#4DD2FF" stroke-linecap="round" stroke-linejoin="round" stroke-width="0.5"><title>2025-06-14 5.1km</title><desc>1749906363000</desc></polyline><polyline fill="none" points="115.42857142852154,151.83214615112956 115.05758739134762,149.33033072252874 102.2695494038635,150.56860931548 100.5455647605122,150.5812447476128 95.30814305919921,149.9494715650144 85.44433218828635,150.41698402984184 85.31339664576808,150.12636838067556 85.36795312183676,148.18048952565732 84.57142857142026,148.16785384887044 85.40068700746633,148.20576087537484 85.31339664576808,150.11373290220217 85.47706607391592,150.41698402984184 95.58092543942621,149.936836068533 100.78561325516785,150.59388017844321 111.1513437058311,149.6588548199652 111.14043241058243,149.15343277100328 114.46837744995719,148.97653456710395" stroke="#4DD2FF" stroke-linecap="round" stroke-linejoin="round" stroke-width="0.5"><title>2025-06-12 5.9km</title><desc>1749735885000</desc></polyline><polyline fill="none" points="151.8571428571595,159.70737657994323 150.87347787350882,154.75478083342023 123.84407484403346,157.1568023781001 121.29937629937194,150.19830358175386 121.0,141.50609094914398 126.04662904655561,141.2832096124912 130.34481734468136,141.55562010726135 130.5800415800186,140.7631523651653 130.13097713096067,140.5897997019929 121.12830412818585,140.29262342007132 121.32076032063924,149.95066650010995 122.0692010690691,152.77371426744503 123.54469854466151,156.29009631172812 135.51975051965564,155.25004495098256 135.75497475487646,156.19104399297794 150.8093258093577,154.73001760100306 151.72883872885723,159.63308838946978" stroke="#4DD2FF" stroke-linecap="round" stroke-linejoin="round" stroke-width="0.5"><title>2025-06-10 5.3km</title><desc>1749559786000</desc></polyline><polyline fill="none" points="158.23877397924662,141.7844150007877 157.49801736150403,138.78210495220264 157.42857142852154,136.44992974642082 178.42439181229565,135.91379459176096 179.37348622863647,139.42545999051072 178.67902689962648,139.39865356206428 178.47068910091184,139.88116885712952 178.910513342591,142.37415044772206 178.79477012110874,144.0629310037184 179.55867538310122,147.44045958836796 181.52631014899816,147.36004274513107 184.44303933123592,158.59135713448632 184.48933661996853,159.10064164892538 183.74858000210952,159.31507693906315 184.41989068698604,159.1274460698187 184.65137712995056,159.55631643140805 184.04951237805653,159.66353391268058 184.25785017677117,160.65529354210594 185.64676883502398,164.1934325702896 186.6190118958475,164.08621693518944 188.28571428568102,163.17488227284048 186.52641731861513,163.55013810438686 183.40135033754632,151.08599733028677 183.03097202873323,150.01378559193108 182.19762083375826,150.01378559193108 181.57260743761435,147.27962587724323 180.90129675273784,147.54768200783292 179.53552673885133,147.36004274513107 178.77162147685885,144.27737855241867 178.6095809667604,140.3100705986144 177.33640552998986,135.8065674297104 157.49801736150403,136.50354320177576 158.331368556479,141.94525207194965" stroke="#4DD2FF" stroke-linecap="round" stroke-linejoin="round" stroke-width="0.5"><title>2025-06-08 5.0km</title><desc>1749355299000</desc></polyline><polyline fill="none" points="42.57142857136205,185.55547951702465 42.02871500351466,183.01594905440288 32.08265818882501,183.84963894756947 29.092195672157686,184.2728947795622 27.430827607400715,184.2728947795622 22.16982873546658,183.63159750885825 11.714285714260768,184.09333187319135 21.671418316022027,183.63159750885825 27.37544867192628,184.28572069162328 39.370526099868584,183.20833951995155" stroke="#4DD2FF" stroke-linecap="round" stroke-linejoin="round" stroke-width="0.5"><title>2025-06-07 5.3km</title><desc>1749293029000</desc></polyline><polyline fill="none" points="78.99999999994179,185.5081250416988 78.54442100931192,183.06330352972873 64.46591902867658,184.35005759535125 58.75451412104303,183.69381466056802 48.14285714284051,184.1313103294451 58.710067390231416,183.66807957400306 63.78810638404684,184.35005759535125 74.66644374706084,183.35925812611822" stroke="#4DD2FF" stroke-linecap="round" stroke-linejoin="round" stroke-width="0.5"><title>2025-06-05 5.1km</title><desc>1749128617000</desc></polyline><polyline fill="none" points="85.00337457814021,184.09040068730246 84.57142857142026,181.26114840288938 84.73340832395479,181.1360973737319 96.84139482566388,180.71404939763306 99.12260967376642,189.07663540676003 111.08211473567644,188.92032956934418 115.42857142857974,188.65460928012908 111.85151856025914,188.77965417942323 111.19010123738553,179.49479316467477 99.74353205849184,180.16694844073209 97.2868391451193,180.08879100182094 97.50281214847928,180.71404939763306 91.15860517433612,180.9016264193051" stroke="#4DD2FF" stroke-linecap="round" stroke-linejoin="round" stroke-width="0.5"><title>2025-06-03 5.2km</title><desc>1748952979000</desc></polyline><polyline fill="none" points="146.51785585298785,175.0868871711209 145.8409526941541,174.08499657485663 145.36112260687514,173.03349635374616 145.05266040793504,172.7458197878368 144.29007330493187,172.67638048949448 143.70742248467286,172.0018247299231 143.44180225781747,171.11894322284206 143.04765611467883,170.51381756859337 142.57639442180516,168.85714285714494 141.21401970970328,169.44243833899236 140.57995852295426,169.51187994245993 138.93482679512817,170.12693198375928 138.23221845304943,171.02966262497648 138.23221845304943,171.2578239902141 135.38751150705502,174.8785741331376 135.37037471821532,175.0868871711209 134.59065082640154,176.15820433148474 133.9137476675678,176.783133901954 133.79379014574806,176.6740195038874 133.31396005844,177.0906374573533 132.99692946506548,176.9021676514385 132.98836107068928,177.08071800298785 132.94551909854636,176.82281183463056 133.39107560820412,177.14023471413384 133.3225284528744,177.49733421756537 132.29432112298673,178.63805997489544 130.5378002677753,179.03483102111204 130.5378002677753,178.8562842502797 130.41784274598467,179.0745080368797 129.9380126586766,179.18361974694562 129.51816133229295,179.0645887844439 128.8155529902433,179.12410428386647 128.69559546839446,179.0149925071746 128.41283845269936,179.17370050564205 127.56456740555586,178.87612279650784 127.45317827811232,177.57668948502396 127.1275792903325,177.28902633293183 125.52528953464935,177.69572226509626 124.92550192555063,178.06273908820003 125.61097347878967,181.02858107296925 126.69059117513825,184.34148846875178 128.96978408971336,193.24808833180577 129.28681468308787,194.17044025619543 131.97729052961222,199.6151141459777 132.32002630623174,199.7142857142826 133.50246473564766,199.3374332181338 134.30789381070645,199.57544549043087 135.78165765019367,199.26801286262344 135.75595246689045,198.6828964735032 136.1500986100291,198.5738065889018 136.86127534654224,198.90107587661623 137.40108419474564,198.64322743869707 137.6238624495454,198.9704964933917 139.0119423448923,199.27793005927379 139.8259398143855,199.12917200328957 140.64850567828398,198.51430296401668 140.79416838334873,197.35397502048727 141.41109278128715,196.50107558967284 141.2482932873827,195.6481686975094 141.44536635893746,195.2316300616003 141.0255150325538,194.7655013827316 140.75989480572753,194.07126304862322 140.65707407268928,193.03981410887354 141.21401970970328,192.59351070420234 142.06229075684678,192.94063575108885 142.53355244972045,192.9108822240596 142.6535099715402,192.2662202421343 142.45643689998542,191.47278425803233 142.29363740608096,191.4033583021519 142.45643689998542,191.3240142920622 142.26793222286506,191.2645062420852 142.4221633222769,191.35376830341556 142.43930011117482,190.88762108204537 142.21652185634593,190.37188113321463 141.20545131526887,190.30245439325518 140.7341896224243,189.94540180667536 140.93126269394998,188.5965246761698 141.73669176906697,187.21787361405586 142.35361616697628,186.53350001678336 142.63637318270048,186.434315038794 143.2447291862336,185.59123865048605 144.31577848817687,184.56961866584606 145.2668702683295,183.3793682841715 144.9926816470106,182.8239131312439 144.14441059986711,182.81399426046846 144.03302147248178,182.48667095811834 144.3586204602616,181.7030743438445 144.73562981453142,181.34599025254283 145.08693398561445,181.39558534346725 145.232596690621,181.2170428980462 144.9327028861444,180.5326271600934 145.33541742363013,179.6894997153795 145.71242677795817,179.47127730597276 146.02945737133268,179.60022697058594 145.98661539924797,179.3621659180426 146.9377071793715,178.92571914446307 147.02339112354093,178.65789856558695 147.85452538184472,178.15201324151712 147.93164093160885,177.42789830551192 146.84345484076766,175.35471756556217 146.6720869524579,175.2753604883983" stroke="#4DD2FF" stroke-linecap="round" stroke-linejoin="round" stroke-width="0.5"><title>2025-06-02 11.5km</title><desc>1748829019000</desc></polyline><polyline fill="none" points="188.28571428568102,185.72872024292883 187.72047103603836,182.84270832849143 171.41834185796324,184.3601031499711 164.661115736817,183.586531290508 157.42857142857974,183.89893580417265 164.75104079925222,183.55677844479214 170.67324848339194,184.33035046195437 187.69477816100698,182.85758482491656 188.27286784822354,185.6394629975839" stroke="#4DD2FF" stroke-linecap="round" stroke-linejoin="round" stroke-width="0.5"><title>2025-06-01 4.9km</title><desc>1748740054000</desc></polyline><polyline fill="none" points="42.57142857136205,233.44132572320814 42.45969480124768,233.67853688534524 42.236227260902524,233.50601970292337 41.491335459868424,229.36556512585958 17.952754547819495,231.41423767337983 15.773946029832587,225.31129150818742 15.680834554717876,217.63383711825009 15.159410293912515,214.74393660444184 11.714285714318976,203.46432025752438 13.98620570730418,211.01288725444465 14.600741443224251,212.17749931865546 15.606345374602824,216.51238787495822 16.611949305981398,216.79275074310135 15.569100784487091,216.7711843818688 15.773946029832587,224.5996290811745 16.481593240750954,227.51096023927676 17.71066471247468,230.55164112366037 18.02724372781813,230.74572565396375 28.12052763160318,229.71060610187124 28.399862056947313,230.53007616489776 36.42607121297624,229.75373618434242" stroke="#4DD2FF" stroke-linecap="round" stroke-linejoin="round" stroke-width="0.5"><title>2025-05-31 5.5km</title><desc>1748696141000</desc></polyline><polyline fill="none" points="76.83599257888272,227.08725278900238 76.13469387753867,222.5626203432912 50.7476808904903,224.83654942789872 48.40333951765206,218.15391761618957 48.14285714284051,210.1020138465974 56.75881261588074,210.19483280387067 48.26307977735996,210.05560435383813 48.423376623308286,218.03789797039644 49.04452690167818,220.5207054841012 50.607421150198206,224.0940444689768 73.08905380335636,221.93612568636308 75.09276437852532,221.82010796804389 75.19294990727212,222.67863768315874 79.0,222.376992476522" stroke="#4DD2FF" stroke-linecap="round" stroke-linejoin="round" stroke-width="0.5"><title>2025-05-29 5.0km</title><desc>1748526381000</desc></polyline><polyline fill="none" points="103.27643196738791,215.54204641925753 102.59180439217016,209.93575954754488 114.18157120223623,209.36946165323025 115.42857142863795,213.9281269464991 114.08376726286951,209.48272132439888 102.54290242260322,210.0207041320973 102.860765225254,212.82386085260077 102.42064749845304,210.04901898783282 85.94068372203037,211.5780169131176 88.41023318993393,223.95126461490872 89.36382159846835,226.8392202319228 88.72809599281754,227.23560395438108 89.73058637080248,229.89702287464752 88.38578220515046,226.38620957100648 85.0604482680792,211.6346463043883 90.83088068827055,210.81351900237496 101.27145121130161,210.1622783820203 101.14919628715143,209.3411467281985 85.81842879788019,210.38879703183193 84.96264432871249,207.2458342682221 84.57142857147846,207.58561574071064 84.76703645009547,210.61531549692154 96.33235227537807,209.48272132439888" stroke="#4DD2FF" stroke-linecap="round" stroke-linejoin="round" stroke-width="0.5"><title>2025-05-27 6.0km</title><desc>1748352132000</desc></polyline><polyline fill="none" points="147.74520013015717,220.87090304181038 147.8682069638744,220.7895075571505 147.4728278554976,218.81564673558023 137.07875040674116,219.81275656457728 135.87504067691043,219.83310564106068 131.54344288969878,219.3243774845614 121.19329645298421,219.78223294208874 121.0,216.40422771569865 122.23006833711406,216.2719541010374 123.92580540193012,216.39405282849475 123.93459160428029,219.3243774845614 131.7982427595416,219.00896472558816 136.5779368695221,219.47699620371714 147.45525545073906,218.39848558684025 151.67263260658365,218.24586521879974 151.8571428571595,218.58162972045102 151.73413602344226,218.6223283711879 147.84184835664928,218.78512280817085" stroke="#4DD2FF" stroke-linecap="round" stroke-linejoin="round" stroke-width="0.5"><title>2025-05-25 7.6km</title><desc>1748179850000</desc></polyline><polyline fill="none" points="188.26549335330492,220.27495942470705 188.18460962368408,219.60760478032898 187.79030144168064,219.60760478032898 187.53753978654277,218.35484085556527 187.33533046243247,218.07384520219057 177.57873057480901,218.9051220190595 175.98127691447735,219.1978236916475 169.57124134054175,218.60071148841962 157.60044935409678,219.1392834168073 157.42857142857974,217.10206326864136 160.40104849281488,216.8678977181553 160.38082756038057,218.57729526036564 160.775135742384,218.6241277117224 169.1769331585965,218.26117571417853 175.26343381387414,218.78804114119703 187.90151656995295,217.57039293760317 188.28571428573923,220.14617198820633" stroke="#4DD2FF" stroke-linecap="round" stroke-linejoin="round" stroke-width="0.5"><title>2025-05-24 6.6km</title><desc>1748094255000</desc></polyline><polyline fill="none" points="42.571428571420256,254.23204253231233 42.23575457581319,251.48224318197754 29.52987222286174,252.56201370758936 27.76447565323906,252.864347975672 25.750431679480243,252.89314168170677 19.944514792237896,252.18769419340242 11.714285714260768,252.51882304501487 19.90721768158255,252.17329726919706 25.67583745822776,252.90753853257047 38.84171750891255,251.7989767249528" stroke="#4DD2FF" stroke-linecap="round" stroke-linejoin="round" stroke-width="0.5"><title>2025-05-18 4.7km</title><desc>1747565909000</desc></polyline><polyline fill="none" points="74.98936648806557,253.96197170460073 74.6536746963393,251.98760394874262 65.70483824791154,252.74462001053325 64.2118931740988,253.0105972714009 63.01046991941985,253.00036738976632 58.92033045680728,252.46841210899584 48.20469510444673,252.9594478529034 48.14285714284051,252.65255079445342 54.17647539975587,252.26381317338382 58.26661486236844,252.19220344739733 63.04580589750549,252.9594478529034 74.76851662504487,251.915994025665 78.71731217531487,251.75231400968187 78.87632407672936,251.77277402627806 78.90282606024994,251.915994025665 79.0,251.8546140509643" stroke="#4DD2FF" stroke-linecap="round" stroke-linejoin="round" stroke-width="0.5"><title>2025-05-17 5.7km</title><desc>1747487200000</desc></polyline><polyline fill="none" points="113.74232149973977,251.58147570585425 109.65593481104588,251.79527673558914 107.66197504126467,252.15161105873995 98.50453017262043,252.8500236983964 92.76881873607635,252.10885098791914 84.57142857142026,252.43667786355945 92.65804319333984,252.13735770326457 98.28297908708919,252.83577041406534 114.62852584186476,251.41043464675022 115.17009516211692,254.1755727899581 115.42857142852154,254.30385106753965" stroke="#4DD2FF" stroke-linecap="round" stroke-linejoin="round" stroke-width="0.5"><title>2025-05-11 5.0km</title><desc>1746965499000</desc></polyline><polyline fill="none" points="151.8571428571595,253.96578985200176 151.35908997739898,251.7484958622881 137.35827013727976,253.01735674532392 131.66939946706407,252.36370273782086 121.0,252.8122891871244 131.40377126459498,252.37651951570297 136.71633531455882,253.01735674532392 151.44763271161355,251.77412954218744" stroke="#4DD2FF" stroke-linecap="round" stroke-linejoin="round" stroke-width="0.5"><title>2025-05-10 5.3km</title><desc>1746870058000</desc></polyline><polyline fill="none" points="188.21834061137633,252.3370101865803 188.13973799126688,252.11595224444318 188.28571428573923,252.28499658757937 187.6905801622197,252.38902376432816 173.93512164696585,253.5983334698467 168.1072988146916,252.90915837581997 157.42857142857974,253.35127112834016 168.05115408613347,252.90915837581997 170.7797878976562,253.13021494360146 173.26138490333688,253.58533020062168 184.52401746727992,252.57107111958612" stroke="#4DD2FF" stroke-linecap="round" stroke-linejoin="round" stroke-width="0.5"><title>2025-05-05 5.4km</title><desc>1746434825000</desc></polyline></svg>