<?xml version="1.0" encoding="utf-8" ?>
<svg baseProfile="full" height="300mm" version="1.1" viewBox="0,0,200,300" width="200mm" xmlns="http://www.w3.org/2000/svg" xmlns:ev="http://www.w3.org/2001/xml-events" xmlns:xlink="http://www.w3.org/1999/xlink"><defs /><rect fill="#222222" height="300" width="200" x="0" y="0" /><text fill="#FFFFFF" style="font-size:12px; font-family:Arial; font-weight:bold;" x="10" y="20">Over 3km Runs</text><text fill="#FFFFFF" style="font-size:4px; font-family:Arial" x="10" y="280">Runner</text><text fill="#FFFFFF" style="font-size:9px; font-family:Arial" x="10" y="290">tang-hi</text><text fill="#FFFFFF" style="font-size:4px; font-family:Arial" x="65" y="280">SPECIAL TRACKS</text><rect fill="yellow" height="2.6" width="2.6" x="65" y="283" /><text fill="#FFFFFF" style="font-size:3px; font-family:Arial" x="70" y="285.5">Over 20.0 km</text><rect fill="red" height="2.6" width="2.6" x="65" y="287" /><text fill="#FFFFFF" style="font-size:3px; font-family:Arial" x="70" y="289.5">Over 40.0 km</text><text fill="#FFFFFF" style="font-size:4px; font-family:Arial" x="120" y="280">STATISTICS</text><text fill="#FFFFFF" style="font-size:3px; font-family:Arial" x="120" y="285">Number: 24</text><text fill="#FFFFFF" style="font-size:3px; font-family:Arial" x="120" y="290">Weekly: 3.4</text><text fill="#FFFFFF" style="font-size:3px; font-family:Arial" x="141" y="285">Total: 136.2 km</text><text fill="#FFFFFF" style="font-size:3px; font-family:Arial" x="141" y="290">Avg: 5.7 km</text><text fill="#FFFFFF" style="font-size:3px; font-family:Arial" x="167" y="285">Min: 3.2 km</text><text fill="#FFFFFF" style="font-size:3px; font-family:Arial" x="167" y="290">Max: 11.5 km</text><polyline fill="none" points="31.23025414539734,68.0 29.369657770061167,56.88419786250597 29.34357464328059,53.853313736239215 29.508767779392656,52.584543922661396 29.404435272386763,49.32191811229859 29.43921277471236,48.75799655121227 29.6304890375759,48.435754213096516 29.43921277471236,48.284702755045146 29.430518399109133,46.2203096668818 27.317785131832352,33.51075339356612 26.787428221054142,32.0 27.326479507348267,33.31939257624617 29.404435272386763,46.008832815496135 29.517462154995883,52.191826152658905 29.369657770061167,53.86338327272824 29.360963394428836,56.783505531544506 30.786840990534984,65.32185046592349 30.986811628972646,65.90581407291756 33.21257177897496,65.78499429953808" stroke="#4DD2FF" stroke-linecap="round" stroke-linejoin="round" stroke-width="0.5"><title>2025-06-21 8.0km</title><desc>1750517001000</desc></polyline><polyline fill="none" points="80.31897062214557,68.0 77.26947411568835,49.24775047201547 71.90330584463663,49.138244439673144 62.23474715347402,48.20744136197027 62.42386321583763,47.221881645557005 62.04563109099399,45.332882078917464 62.56570026266854,32.98561558677466 62.49478173919488,32.10951302165631 62.02199158328585,32.0 61.43100388813764,47.194504935177974 62.32930518465582,47.304011760046706 62.37658420018852,48.234817969205324 77.34039263916202,49.22037396815722 79.16063473979011,60.937262634863146 79.72798292711377,62.497650826349854 91.9023294452345,62.114398426230764" stroke="#4DD2FF" stroke-linecap="round" stroke-linejoin="round" stroke-width="0.5"><title>2025-06-19 5.0km</title><desc>1750345525000</desc></polyline><polyline fill="none" points="141.33333333334303,50.90123753680382 141.0028985507961,48.93764926005679 130.8115942029399,49.90434375014593 129.4985507246456,49.93455280051421 125.1333333333605,49.43106742117379 108.95942028987338,50.16615521347558 107.5594202898792,50.39775708351226 105.33333333334303,51.06235073995049 108.47246376812109,50.21650349227275 114.15942028988502,49.964761841707514" stroke="#4DD2FF" stroke-linecap="round" stroke-linejoin="round" stroke-width="0.5"><title>2025-06-17 5.1km</title><desc>1750166247000</desc></polyline><polyline fill="none" points="153.24137931026053,63.585051247500814 152.0,55.6067462155188 180.0551724138204,54.78015474358108 175.49310344841797,36.774355307308724 181.01724137936253,37.09782089351211 188.0,36.414948752499186 176.98275862075388,37.06188028748147 181.04827586212195,53.270721838169266 169.00689655169845,53.84574465933838" stroke="#4DD2FF" stroke-linecap="round" stroke-linejoin="round" stroke-width="0.5"><title>2025-06-16 3.2km</title><desc>1750084948000</desc></polyline><polyline fill="none" points="48.0,91.664177014085 47.44838709686883,88.335822985915 29.753225806402043,89.96638865454588 28.156451612943783,89.9831985259807 21.159677419345826,89.12589290032338 12.0,89.56295122705342 20.86935483868001,89.10908294153342 28.14193548390176,89.9495787814667 43.15161290328251,88.68883341539185" stroke="#4DD2FF" stroke-linecap="round" stroke-linejoin="round" stroke-width="0.5"><title>2025-06-15 4.6km</title><desc>1749956754000</desc></polyline><polyline fill="none" points="94.66666666668607,91.4478274419962 94.22842821339145,88.55217255798925 78.81274615117582,89.97015504138835 77.20157536701299,90.00000715663191 70.42176870751427,89.23877631708456 58.66666666668607,89.77611614399939 70.65377730038017,89.23877631708456 77.09846043685684,90.00000715663191 80.46258503408171,89.83582044750801 81.09416398132453,89.62685527875146 89.26602219836786,88.89547483989736" stroke="#4DD2FF" stroke-linecap="round" stroke-linejoin="round" stroke-width="0.5"><title>2025-06-14 5.1km</title><desc>1749906363000</desc></polyline><polyline fill="none" points="141.33333333331393,92.13750384298328 140.9005186232971,89.21871917629323 125.98114097124198,90.66337753472908 123.96982555399882,90.67811887220887 117.85950023576152,89.94105015919195 106.35172088636318,90.48648136814882 106.198962753464,90.14742977745482 106.26261197548592,87.87723777993233 105.33333333331393,87.86249615701672 106.30080150876893,87.906721021267 106.198962753464,90.13268838590011 106.38991041964618,90.48648136814882 118.17774634604575,89.92630874662427 124.24988213111646,90.69286020818981 136.343234323489,89.60199728996668 136.33050447906135,89.01233823284565 140.21310702501796,88.80595699495461" stroke="#4DD2FF" stroke-linecap="round" stroke-linejoin="round" stroke-width="0.5"><title>2025-06-12 5.9km</title><desc>1749735885000</desc></polyline><polyline fill="none" points="188.0,101.32527267659316 186.85239085240755,95.54724430566421 155.31808731798083,98.34960277445498 152.34927234926727,90.23135417871526 152.0,80.09043944065343 157.8877338876482,79.83041121455608 162.90228690218646,80.14822345846915 163.17671517678536,79.22367775934981 162.65280665270984,79.02143298563897 152.14968814956956,78.67472732340684 152.37422037415672,89.94244425013312 153.24740124726668,93.23599997867132 154.96881496871356,97.33844569700886 168.93970893963706,96.12505244280328 169.21413721400313,97.22288465846214 186.77754677762277,95.51835386781022 187.85031185031403,101.23860312104807" stroke="#4DD2FF" stroke-linecap="round" stroke-linejoin="round" stroke-width="0.5"><title>2025-06-10 5.3km</title><desc>1749559786000</desc></polyline><polyline fill="none" points="12.945236309082247,120.41515083427657 12.081020255107433,116.91245577757945 12.0,114.19158470415277 36.495123781031,113.56609369037324 37.60240060009528,117.66303665560554 36.79219804960303,117.6317624890944 36.54913728439715,118.194696999999 37.062265566317365,121.1031755223521 36.9272318079602,123.07341950436239 37.818454613676295,127.01386951978202 40.11402850726154,126.92004986933898 43.516879219794646,140.0232499902486 43.57089272327721,140.6174152570893 42.70667666918598,140.86758976225974 43.48987246816978,140.64868708144058 43.75993998488411,141.14903583665728 43.05776444100775,141.27412289814674 43.30082520621363,142.43117579913815 44.921230307547376,146.5590046653524 46.055513878469355,146.43391975772101 48.0,145.37069598500966 45.947486871737055,145.80849445515196 42.30157539376523,131.26699688535882 41.869467366836034,130.01608319059596 40.89722430612892,130.01608319059596 40.16804201051127,126.82623019011226 39.384846211527474,127.13896234246204 37.79144786205143,126.92004986933898 36.90022505633533,123.32360831115511 36.7111777944956,118.69508236506954 35.225806451635435,113.4409953346476 12.081020255107433,114.25413373540505 13.053263315814547,120.60279408394126" stroke="#4DD2FF" stroke-linecap="round" stroke-linejoin="round" stroke-width="0.5"><title>2025-06-08 5.0km</title><desc>1749355299000</desc></polyline><polyline fill="none" points="94.66666666668607,131.48139276985603 94.03350083751138,128.51860723012942 82.42976788699161,129.491245438825 78.94089495093795,129.985043909488 77.00263220869238,129.985043909488 70.86480019142618,129.23686376032128 58.66666666668607,129.77555385205778 70.28332136874087,129.23686376032128 76.93802345060976,130.00000747355807 90.93228044989519,128.74306277326832" stroke="#4DD2FF" stroke-linecap="round" stroke-linejoin="round" stroke-width="0.5"><title>2025-06-07 5.3km</title><desc>1749293029000</desc></polyline><polyline fill="none" points="141.33333333331393,131.42614588198194 140.8018245109124,128.57385411801806 124.37690553348511,130.0750671945716 117.71359980793204,129.30945043732936 105.33333333331393,129.81986205100839 117.66174528864212,129.27942616966902 123.58612411475042,130.0750671945716 136.27751770493342,128.91913448047126" stroke="#4DD2FF" stroke-linecap="round" stroke-linejoin="round" stroke-width="0.5"><title>2025-06-05 5.1km</title><desc>1749128617000</desc></polyline><polyline fill="none" points="152.50393700785935,129.7721341351862 152.0,126.47133980336366 152.18897637794726,126.32544693601085 166.3149606299703,125.83305763057433 168.9763779527857,135.58940797454852 182.92913385829888,135.40705116422032 188.0,135.09704416015302 183.82677165360656,135.2429298759962 183.05511811026372,124.41059202545148 169.7007874015835,125.19477318084682 166.83464566932525,125.10358950211958 167.08661417319672,125.83305763057433 159.6850393700879,126.05189748918929" stroke="#4DD2FF" stroke-linecap="round" stroke-linejoin="round" stroke-width="0.5"><title>2025-06-03 5.2km</title><desc>1748952979000</desc></polyline><polyline fill="none" points="41.77083182847127,159.2680350329756 40.98111147648888,158.09916267066728 40.42130970803555,156.87241241270385 40.06143714260543,156.5367897524702 39.17175218905322,156.4557772377375 38.49199289875105,155.6687955182424 38.18210263410583,154.63876709331817 37.7222654671059,153.93278716335772 37.17246015870478,152.0 35.58302299462957,152.68284472882078 34.84328494343208,152.76385993287113 32.9239645943162,153.481420647724 32.10425486188615,154.5346063958059 32.10425486188615,154.80079465524614 28.785430091549642,159.0250031553296 28.765437171212398,159.2680350329756 27.855759297439363,160.51790505339886 27.066038945456967,161.2469895522736 26.92608850338729,161.11968942120438 26.36628673481755,161.6057437002455 25.996417709218804,161.38586226000916 25.98642124910839,161.5941710034822 25.936438948265277,161.29328047372837 26.456254876218736,161.6636071664907 26.376283194986172,162.08022325382626 25.176707976788748,163.41106997070892 23.12743364571361,163.87396952463314 23.12743364571361,163.66566495865845 22.987483203585725,163.92025937636208 22.4276814351324,164.04755637143535 21.937854887684807,163.908686915187 21.11814515525475,163.97812166450603 20.97819471306866,163.8508245917037 20.648311528144404,164.03598392324784 19.658661973138805,163.6888099292628 19.528707991121337,162.17280439919705 19.14884250535397,161.83719738842046 17.279504457022995,162.3116759759505 16.579752246441785,162.73986226956185 17.379469058592804,166.2000112517926 18.63902303762734,170.06506988021283 21.29808143794071,180.4561030537734 21.667950463597663,181.53218029889103 24.806838951190002,187.88429983698006 25.206697357236408,188.0 26.586208858236205,187.56033875449066 27.5258761124569,187.83801973883965 29.245267258549575,187.47934833972977 29.215277878043707,186.79671255242283 29.675115044985432,186.66944102038542 30.50482123758411,187.05125518939167 31.134598227159586,186.75043201181688 31.394506191136315,187.13224590895697 33.01393273565918,187.49091840248002 33.96359645010671,187.31736733717116 34.92325662460644,186.60002012468613 35.09319644718198,185.24630419057212 35.81294157815864,184.25125485462195 35.623008835245855,183.25619681375974 35.85292741871672,182.77023507186095 35.363100871269125,182.22641827985353 35.05321060662391,181.41647355672467 34.93325308477506,180.2131164603561 35.58302299462957,179.6924291549003 36.57267254963517,180.09740837627032 37.12247785797808,180.06269592806348 37.26242830010597,179.31059028248274 37.032509716635104,178.3849149677044 36.842576973722316,178.30391801917722 37.032509716635104,178.2113500074047 36.81258759327466,178.1419239491006 36.992523875960615,178.24606302064785 37.01251679635607,177.7022245957196 36.75260883237934,177.10052798874676 35.57302653446095,177.01953012546437 35.02322122611804,176.60296877445217 35.2531398095889,175.0292787888684 36.192807063867804,173.42085254973063 36.91255219478626,172.62241668624483 37.24243537976872,172.5067008785918 37.95218405057676,171.52311175889918 39.20174156950088,170.33122177681798 40.31134864635533,168.94259633153706 39.99146192148328,168.2945653197894 39.00181236647768,168.28299330388109 38.87185838451842,167.90111611780594 39.25172387028579,166.98692006781494 39.691568116948474,166.57032196129876 40.1014229831635,166.628182900713 40.271362805739045,166.41988338105875 39.921486700477544,165.62139835343987 40.391320327529684,164.63774966794153 40.83116457425058,164.3831568569658 41.201033599849325,164.53359813235147 41.15105129906442,164.25586023771757 42.260658375918865,163.74667233521177 42.36062297743047,163.43421499318356 43.33027961215703,162.8440154484415 43.42024775350001,161.9992146897639 42.15069731423864,159.58050382648798 41.95076811115723,159.48792056980164" stroke="#4DD2FF" stroke-linecap="round" stroke-linejoin="round" stroke-width="0.5"><title>2025-06-02 11.5km</title><desc>1748829019000</desc></polyline><polyline fill="none" points="94.66666666668607,171.6835069500812 94.00721620873082,168.3164930499188 74.98806550097652,170.08678700830205 67.10463502630591,169.18428650559508 58.66666666668607,169.54875843820628 67.2095475991955,169.14957485227205 74.1187898973003,170.05207553894434 93.97724118788028,168.33384896240022 94.6516791562899,171.57937349719577" stroke="#4DD2FF" stroke-linecap="round" stroke-linejoin="round" stroke-width="0.5"><title>2025-06-01 4.9km</title><desc>1748740054000</desc></polyline><polyline fill="none" points="141.33333333337214,187.34821334373555 141.2029772682581,187.62495969956217 140.94226513779722,187.42368965341302 140.07322470331565,182.59315931350284 112.61154697253369,184.98327728560253 110.06960370158777,177.86317342621624 109.96097364730667,168.9061433046154 109.35264534305315,165.5345927051676 105.33333333337214,152.37504030043783 107.98390665871557,161.18170179685694 108.70086501725018,162.54041587175743 109.87406960385852,167.5977858541155 111.04727419046685,167.92487586695643 109.83061758207623,167.899715112173 110.06960370158777,177.03290059469873 110.89519211428706,180.4294536124944 112.32910883123986,183.97691464427044 112.69845101598185,184.2033465962886 124.47394890373107,182.99570711885463 124.79983906657435,183.9517555257189 134.1637497486081,183.0460255483922" stroke="#4DD2FF" stroke-linecap="round" stroke-linejoin="round" stroke-width="0.5"><title>2025-05-31 5.5km</title><desc>1748696141000</desc></polyline><polyline fill="none" points="185.47532467532437,179.9351282538555 184.65714285720605,174.6563904005161 155.03896103904117,177.30930766588426 152.3038961038692,169.51290388556663 152.0,160.1190161543782 162.05194805189967,160.22730493787094 152.1402597402921,160.0648717461736 152.3272727272706,169.37754763214616 153.0519480520161,172.2741563981399 154.87532467523124,176.44305188048747 181.10389610391576,173.92547996743815 183.44155844161287,173.79012596272514 183.55844155850355,174.791743963724 188.0,174.43982455597143" stroke="#4DD2FF" stroke-linecap="round" stroke-linejoin="round" stroke-width="0.5"><title>2025-05-29 5.0km</title><desc>1748526381000</desc></polyline><polyline fill="none" points="33.82250396197196,206.46572082248167 33.02377179078758,199.92505280548357 46.54516640258953,199.26437192878802 48.0,204.58281477089622 46.43106180662289,199.39650821179384 32.966719492920674,200.0241548207705 33.337559429463,203.2945043280488 32.82408874807879,200.05718881913344 13.597464342252351,201.8410197319463 16.478605388198048,216.27647538407473 17.591125198057853,219.64575693724328 16.849445324856788,220.10820461343974 18.019017432583496,223.21319335373119 16.450079239322804,219.1172444995027 12.570522979367524,201.90708735512453 19.30269413627684,200.94910550277564 31.48335974640213,200.18932477902854 31.340729001676664,199.23133784954553 13.454833597526886,200.45359653714695 12.456418383517303,196.7868066462397 12.0,197.18321836416726 12.228209191816859,200.7178680797224 25.721077654510736,199.39650821179384" stroke="#4DD2FF" stroke-linecap="round" stroke-linejoin="round" stroke-width="0.5"><title>2025-05-27 6.0km</title><desc>1748352132000</desc></polyline><polyline fill="none" points="89.86940015188884,212.68272021545272 90.01290812459774,212.5877588166768 89.55163249809993,210.28492119151633 77.4252088079229,211.44821599200804 76.02088078972884,211.4719565812411 70.96735003800131,210.87844039866468 58.892179195187055,211.41260509910353 58.66666666668607,207.47159900164843 60.10174639336765,207.31727978455456 62.08010630228091,207.4597282999166 62.09035687171854,210.87844039866468 71.26461655279854,210.51045884652558 76.84092634776607,211.05649557100696 89.53113135916647,209.7982331846506 94.45140470768092,209.62017608860333 94.66666666668607,210.0119013405274 94.52315869403537,210.05938309972407 89.98215641611023,210.2493099428757" stroke="#4DD2FF" stroke-linecap="round" stroke-linejoin="round" stroke-width="0.5"><title>2025-05-25 7.6km</title><desc>1748179850000</desc></polyline><polyline fill="none" points="141.3097422455321,211.987452662157 141.2153778942884,211.20887224371836 140.75535168196075,211.20887224371836 140.4604630842805,209.7473143315001 140.2245522061712,209.41948606922233 128.8418523372966,210.38930902224092 126.97815640020417,210.73079430693178 119.49978156399447,210.0341634031647 105.53385757975047,210.6624973196158 105.33333333331393,208.28574048008886 108.80122324160766,208.012547337843 108.77763215376763,210.0068444704375 109.23765836609527,210.06148233034764 119.03975535166683,209.63803833321435 126.14067278284347,210.2527146647335 140.8851026649354,208.83212509387522 141.33333333331393,211.83720065290981" stroke="#4DD2FF" stroke-linecap="round" stroke-linejoin="round" stroke-width="0.5"><title>2025-05-24 6.6km</title><desc>1748094255000</desc></polyline><polyline fill="none" points="188.0,211.60404962103348 187.60838033846812,208.39595037898107 172.78485092672054,209.65568265886395 170.72522159549408,210.00840597163187 168.3755036261282,210.0419986286579 161.60193392430665,209.21897655897192 152.0,209.6052935525222 161.55842062854208,209.20218014740385 168.28847703465726,210.0587949546607 183.64867042709375,208.76547284578555" stroke="#4DD2FF" stroke-linecap="round" stroke-linejoin="round" stroke-width="0.5"><title>2025-05-18 4.7km</title><desc>1747565909000</desc></polyline><polyline fill="none" points="43.32092756940983,251.28896698870085 42.92928714572918,248.985537940207 32.488977955887094,249.8687233456294 30.747208703134675,250.17903014997137 29.345548239303753,250.16709528807405 24.573718866275158,249.54648079383333 12.072144288569689,250.11935582839214 12.0,249.76130926020414 19.03922129975399,249.3077820356266 23.811050672782585,249.22423735530174 29.38677354704123,250.11935582839214 43.06326939590508,248.9019930299546 47.67019753786735,248.71103301129915 47.85571142286062,248.734903030665 47.886630403634626,248.9019930299546 48.0,248.83038305945956" stroke="#4DD2FF" stroke-linecap="round" stroke-linejoin="round" stroke-width="0.5"><title>2025-05-17 5.7km</title><desc>1747487200000</desc></polyline><polyline fill="none" points="92.69937508314615,248.51172165681783 87.9319239463075,248.76115619151096 85.60563754820032,249.17687956852023 74.92195186810568,249.99169431479822 68.23028852546122,249.1269928192196 58.66666666668607,249.50945750746178 68.10105039225891,249.16025065378926 74.66347560164286,249.97506548305682 93.73328014893923,248.3121737545298 94.36511102254735,251.53816825493413 94.66666666668607,251.68782624545565" stroke="#4DD2FF" stroke-linecap="round" stroke-linejoin="round" stroke-width="0.5"><title>2025-05-11 5.0km</title><desc>1746965499000</desc></polyline><polyline fill="none" points="141.33333333331393,251.29342149400327 140.7522716402309,248.70657850599673 124.41798182675848,250.18691620287427 117.78096604486927,249.42431986078736 105.33333333331393,249.94767071830574 117.471066475322,249.43927276831528 123.66905786696589,250.18691620287427 140.85557149682427,248.73648446587322" stroke="#4DD2FF" stroke-linecap="round" stroke-linejoin="round" stroke-width="0.5"><title>2025-05-10 5.3km</title><desc>1746870058000</desc></polyline><polyline fill="none" points="187.92139737989055,249.3931785510067 187.8296943231253,249.13527761850855 188.0,249.3324960188329 187.30567685590358,249.45386105838406 171.25764192146016,250.86472238149145 164.45851528382627,250.06068477178633 152.0,250.57648298305867 164.39301310043084,250.06068477178633 167.57641921396134,250.31858410086716 170.47161572054029,250.8495519007265 183.61135371180717,249.66624963951472" stroke="#4DD2FF" stroke-linecap="round" stroke-linejoin="round" stroke-width="0.5"><title>2025-05-05 5.4km</title><desc>1746434825000</desc></polyline></svg>