<?xml version="1.0" encoding="utf-8" ?>
<svg baseProfile="full" height="200mm" version="1.1" viewBox="0,0,200,200" width="200mm" xmlns="http://www.w3.org/2000/svg" xmlns:ev="http://www.w3.org/2001/xml-events" xmlns:xlink="http://www.w3.org/1999/xlink"><defs /><rect fill="#1a1a1a" height="200" width="200" x="0" y="0" /><rect fill="#1a1a1a" height="200" width="180" x="10" y="0" /><text alignment-baseline="middle" fill="#e1ed5e" style="dominant-baseline: central; font-size:9.0px; font-family:Arial;" text-anchor="middle" x="100.0" y="100.0">2026</text><line stroke="#e1ed5e" stroke-width="0.3" x1="100.0" x2="100.0" y1="15.0" y2="10.0" /><path d="M 100.0 14.0 a86.0,86.0 0 0,1 42.46469731375804,11.215312516191453" fill="none" id="id13" stroke="none" /><text fill="#e1ed5e" style="font-size:6.75px; font-family:Arial;" text-anchor="middle"><textPath startOffset="22.20632615414155" xlink:href="#id13">January</textPath></text><path d="M 100.0 79.0 l 0.0 -46.18157968183087 a67.18157968183087,67.18157968183087 0 0,0 1.1564204581749418,0.009953675978480112 l -0.7949399789024134 46.17473738246095" fill="red" stroke="none" /><path d="M 100.36148047927253 79.00311137660856 l 0.6830498009675485 -39.67550508953654 a60.68138431481999,60.68138431481999 0 0,0 1.0442207633752318,0.026969141566646298 l -1.3658971995376483 39.657869155827534" fill="red" stroke="none" /><path d="M 100.72285384407766 79.0124445844662 l 1.3991722246833704 -40.62398622073741 a61.64807423946414,61.64807423946414 0 0,0 1.0602270084345504,0.04565560522994715 l -2.0982400655072526 40.593882888983266" fill="red" stroke="none" /><path d="M 101.08401301168833 79.027996857942 l 1.2591489044084307 -24.360293183606995 a45.392813284956745,45.392813284956745 0 0,0 0.7799737972928494,0.047050149468752744 l -1.678284750540892 24.335009764757938" fill="red" stroke="none" /><path d="M 101.44485096284872 79.0497635885617 l 2.601103300796858 -37.71581324541944 a58.805400502372315,58.805400502372315 0 0,0 1.009240155215795,0.07833646004553343 l -3.249933645374994 37.665451523185446" fill="red" stroke="none" /><path d="M 101.80526077348638 79.07773832637324 l 3.21063408067169 -37.20998503964012 a58.348241696902036,58.348241696902036 0 0,0 0.9999079078657302,0.09495330421373338 l -3.8506671156276644 37.14920619091121" fill="red" stroke="none" /><path d="M 102.16513564639614 79.11191278185805 l 3.892841551258095 -37.55608291075584 a58.757298353335194,58.757298353335194 0 0,0 1.0051227609681521,0.11293725355599102 l -4.538731015735973 37.48350970372925" fill="red" stroke="none" /><path d="M 102.52436894288641 79.15227682838746 l 4.581652635116934 -37.83798167639917 a59.11435947530003,59.11435947530003 0 0,0 1.0091251050279861,0.13101340071706988 l -5.2322924686527665 37.75350995251796" fill="red" stroke="none" /><path d="M 102.88285421437855 79.19881850522331 l 5.086845168988693 -36.70403764027002 a58.05485626569913,58.05485626569913 0 0,0 0.9886770208271343,0.1457052926878322 l -5.717891170244482 36.61103786342122" fill="red" stroke="none" /><path d="M 103.2404852339499 79.25152402106235 l 7.772028829728665 -49.76345881529451 a71.36671783421714,71.36671783421714 0 0,0 1.2121154240568153,0.20000943077509592 l -8.627473459924355 49.6223031215798" fill="red" stroke="none" /><path d="M 103.59715602781102 79.31037775812273 l 10.334075230433069 -59.43809806518436 a81.32976555958695,81.32976555958695 0 0,0 1.3772029253593514,0.2516750317498591 l -11.35567327689532 59.25140755208376" fill="red" stroke="none" /><path d="M 103.95276090670814 79.375362276772 l 6.894786933507513 -35.975482969665705 a57.63022606754117,57.63022606754117 0 0,0 0.9726708546828517,0.1951086230370629 l -7.51302419765749 35.851470390551434" fill="red" stroke="none" /><path d="M 104.307194497241 79.44645832069477 l 7.82453631672253 -37.337977983118535 a59.149023164945575,59.149023164945575 0 0,0 0.9947098995196214,0.21740505662611756 l -8.46608894039568 37.197759428396544" fill="red" stroke="none" /><path d="M 104.66035177308747 79.52364482259891 l 8.427124155625679 -37.02655845233097 a58.97344404130617,58.97344404130617 0 0,0 0.9878790815225058,0.23379906150335575 l -9.063226924110708 36.876013478686744" fill="red" stroke="none" /><path d="M 105.01212808612495 79.60689891045804 l 9.017843793918171 -36.69136082299378 a58.783296120569354,58.783296120569354 0 0,0 0.9805364821348331,0.2499605818516694 l -9.648089164738028 36.53069724497324" fill="red" stroke="none" /><path d="M 105.36241919743992 79.69619591428918 l 9.65815933515386 -36.56882607446318 a58.82273234719509,58.82273234719509 0 0,0 0.9767433776712205,0.2669808618123922 l -10.286200602048792 36.39715867182449" fill="red" stroke="none" /><path d="M 105.71112130821622 79.79150937346287 l 10.26970322400245 -36.33878360121755 a58.76207089031538,58.76207089031538 0 0,0 0.9710006393223276,0.28346171320888364 l -10.893694081048205 36.156623559089965" fill="red" stroke="none" /><path d="M 106.0581310904928 79.89281104454417 l 18.154139920657517 -60.254345152962316 a83.92979346915993,83.92979346915993 0 0,0 1.3797043986153543,0.42868087270666666 l -19.18862969198359 59.93292414537313" fill="red" stroke="none" /><path d="M 106.74666289553966 80.11325718540242 l 12.205283716367083 -35.97679949402199 a58.990775886128944,58.990775886128944 0 0,0 0.9587911144860044,0.334503393487131 l -12.82275683491636 35.76137524736265" fill="red" stroke="none" /><path d="M 107.08798089147638 80.2323363322302 l 12.759934054637458 -35.586168850753864 a58.804646943901766,58.804646943901766 0 0,0 0.9498845509559585,0.3498504965225658 l -13.370600931365992 35.361255086424976" fill="red" stroke="none" /><path d="M 107.4271985657038 80.35727306442388 l 13.572841881106726 -35.89612213162459 a59.37647222997488,59.37647222997488 0 0,0 0.9528986068776808,0.36970985530045475 l -14.188723652984073 35.65716957243358" fill="red" stroke="none" /><path d="M 107.76421540070413 80.48803036053334 l 13.975355547049888 -35.12096188238923 a58.79937203460787,58.79937203460787 0 0,0 0.9371951560979396,0.3823054357413042 l -14.577834572736215 34.87519556046435" fill="red" stroke="none" /><path d="M 108.09893153111575 80.62456947434976 l 22.179192498481516 -53.06025884011266 a78.50919620429808,78.50919620429808 0 0,0 1.2423752886435802,0.5319202616766382 l -23.08925154491541 52.670619050473235" fill="red" stroke="none" /><path d="M 108.43124777332544 80.76684994638697 l 16.2068644276881 -36.97069091273366 a61.36699692994698,61.36699692994698 0 0,0 0.963806329690034,0.4324318058517426 l -16.840852875844913 36.68623877636538" fill="red" stroke="none" /><path d="M 108.76106565485865 80.91482961587045 l 15.765097688891226 -34.342805700591505 a58.788445436784826,58.788445436784826 0 0,0 0.9160409652733675,0.4300935159641751 l -16.35391686546419 34.06634720198733" fill="red" stroke="none" /><path d="M 109.08828744355905 81.06846463323043 l 16.386637744063663 -34.13450706976051 a58.86405246999721,58.86405246999721 0 0,0 0.9096703031771265,0.4463712671142645 l -16.97177931425122 33.84738064251141" fill="red" stroke="none" /><path d="M 109.41281617654863 81.2277094730956 l 16.95770568853372 -33.819313145411655 a58.832654200390735,58.832654200390735 0 0,0 0.901370927442527,0.46171719847282405 l -17.537337103565 33.522403421626336" fill="red" stroke="none" /><path d="M 109.73455568895987 81.39251694778311 l 17.52150161566143 -33.49213408194568 a58.79849288305889,58.79849288305889 0 0,0 0.8927709863063414,0.4768873422676256 l -18.09541764849608 33.1855680131763" fill="red" stroke="none" /><path d="M 110.05341064243156 81.56283822128135 l 18.130711408994706 -33.25029398481284 a58.87221602009489,58.87221602009489 0 0,0 0.8855388030331144,0.4928013851354089 l -18.700374301099856 32.93327720211725" fill="red" stroke="none" /><path d="M 110.36928655335952 81.73862282372117 l 16.622196626627368 -29.273393163078072 a54.66346636896456,54.66346636896456 0 0,0 0.8142338521420833,0.4716568023192964 l -17.12362721123478 28.982932203368726" fill="red" stroke="none" /><line stroke="#e1ed5e" stroke-width="0.3" x1="143.23703022742887" x2="145.7803849466894" y1="26.81831364943548" y2="22.513508569990506" /><path d="M 143.74570117128098 25.957352633546492 a86.0,86.0 0 0,1 28.547481713284135,27.462654790039103" fill="none" id="id14" stroke="none" /><text fill="#e1ed5e" style="font-size:6.75px; font-family:Arial;" text-anchor="middle"><textPath startOffset="19.985693538727396" xlink:href="#id14">February</textPath></text><path d="M 110.68208982089419 81.91981866633111 l 31.52247184032993 -53.35398002775148 a82.97026234998604,82.97026234998604 0 0,0 1.2233685999728676,0.7370658931189596 l -32.43620250652044 52.80346752517391" fill="red" stroke="none" /><path d="M 110.99172775467656 82.1063720568725 l 19.744615733923876 -32.142609033647 a58.72263466368965,58.72263466368965 0 0,0 0.8567376468188167,0.5364890358406803 l -20.294972533114954 31.797975656483374" fill="red" stroke="none" /><path d="M 111.2981086023043 82.29822771554956 l 20.68444443206445 -32.40819663320423 a59.44655316773653,59.44655316773653 0 0,0 0.8578221815853392,0.5579514087794614 l -21.23923363943407 32.04734630026524" fill="red" stroke="none" /><path d="M 111.60114157652 82.49532879139004 l 21.188168449447716 -31.970295317392527 a59.35411666201507,59.35411666201507 0 0,0 0.8467721295041034,0.5717443217505082 l -21.73534527335836 31.60083908334335" fill="red" stroke="none" /><path d="M 111.90073688211348 82.69761687909136 l 21.408586274360413 -31.12576687186 a58.77751883896176,58.77751883896176 0 0,0 0.8286758581310427,0.5805403958061425 l -21.941193272075108 30.752641633289926" fill="red" stroke="none" /><path d="M 112.48926042617603 83.11751280151076 l 29.895722096057725 -40.41185213164943 a71.26800167457438,71.26800167457438 0 0,0 0.9799480760708265,0.7380765744423532 l -30.586916325886936 39.891258967701226" fill="red" stroke="none" /><path d="M 112.77801427241765 83.33499621200491 l 37.98785802804566 -49.54351939500707 a83.43106335473067,83.43106335473067 0 0,0 1.1321493783109184,0.8836605476275446 l -38.83503996151601 48.882280458156295" fill="red" stroke="none" /><path d="M 113.06298171725822 83.55741782278167 l 23.453289145963492 -29.52102685706793 a58.70341892269049,58.70341892269049 0 0,0 0.7857776929434874,0.6353775805179553 l -23.95797023747147 29.112943179285846" fill="red" stroke="none" /><path d="M 113.34407831869373 83.78471172551755 l 24.129632725790376 -29.321541830127586 a58.973569634384596,58.973569634384596 0 0,0 0.7782895401326834,0.6517951074521745 l -24.630779802882177 28.901845565281594" fill="red" stroke="none" /><path d="M 113.6212207817346 84.01681056812373 l 16.448108801075346 -19.300269996080342 a46.358247278816634,46.358247278816634 0 0,0 0.6028916578910282,0.5228217047300497 l -16.777894257613138 19.01428329793062" fill="red" stroke="none" /><path d="M 113.89432698308785 84.25364557470407 l 25.06321976598246 -28.403991208398597 a58.880756349427855,58.880756349427855 0 0,0 0.7542036428587494,0.6771314772762053 l -25.548434396437198 27.968360722353097" fill="red" stroke="none" /><path d="M 114.16331599549186 84.49514656593476 l 25.434420860314646 -27.84354791950083 a58.711708065866596,58.711708065866596 0 0,0 0.740304639275237,0.6880324808921099 l -25.90993338338473 27.401610852534077" fill="red" stroke="none" /><path d="M 114.42810811169701 84.74124197986012 l 34.64756482186668 -36.64228210040715 a71.42926318727324,71.42926318727324 0 0,0 0.8861199979382535,0.8524467359446456 l -35.27316806341735 36.040452277700204" fill="red" stroke="none" /><path d="M 114.68862486808459 84.99185889309783 l 43.987690663426484 -44.94453867345279 a83.88822216020095,83.88822216020095 0 0,0 1.0232933002406552,1.0188989536078819 l -44.75481976383446 44.18070386919479" fill="red" stroke="none" /><path d="M 114.94478906791727 85.2469230424477 l 36.20543631393121 -35.74099211395726 a71.87486742952834,71.87486742952834 0 0,0 0.8615939368387496,0.887948288157551 l -36.81529451447307 35.112479630249595" fill="red" stroke="none" /><path d="M 115.19652480421416 85.50635884689758 l 28.165617515948266 -26.862875452846005 a59.921922969578574,59.921922969578574 0 0,0 0.7054598804023116,0.7525354136454876 l -28.623844718321042 26.374070622322463" fill="red" stroke="none" /><path d="M 115.4437574822437 85.77008943001954 l 27.96307775710754 -25.76523855690856 a59.02343008651968,59.02343008651968 0 0,0 0.6820195553880387,0.7531030274987424 l -28.402440953111615 25.280082742140266" fill="red" stroke="none" /><path d="M 115.9244219780498 86.31012108654704 l 31.271384453327155 -26.883328463173008 a62.238487301144296,62.238487301144296 0 0,0 0.6914085009511333,0.818409583658738 l -31.729503567765406 26.341059929885162" fill="red" stroke="none" /><path d="M 116.15771136456269 86.58626213691792 l 29.08465352162641 -24.145369933597795 a58.80100474462741,58.80100474462741 0 0,0 0.6398151548366476,0.7843377272342528 l -29.49596716853947 23.641148036755443" fill="red" stroke="none" /><path d="M 116.38621287248628 86.86637796730983 l 29.435697317357825 -23.59284148468353 a58.723765001395485,58.723765001395485 0 0,0 0.62539668641529,0.7941902817195563 l -29.83744808436708 23.082658809010937" fill="red" stroke="none" /><path d="M 116.60985879189232 87.15038557335679 l 29.958043566445284 -23.175953126904627 a58.876234998604524,58.876234998604524 0 0,0 0.6132213877720912,0.8069274653049665 l -30.35254089444149 22.656840885718626" fill="red" stroke="none" /><path d="M 116.82858285166822 87.43820079747576 l 30.336035047858378 -22.644519994989306 a58.855637733742675,58.855637733742675 0 0,0 0.5990309641930757,0.8170775619548175 l -30.72132862456508 22.118979989362995" fill="red" stroke="none" /><path d="M 117.04232023915458 87.72973835380427 l 30.672405253996953 -22.083755762317576 a58.79535305609824,58.79535305609824 0 0,0 0.5842784855706148,0.826420482180777 l -31.047996359371453 21.552508779805006" fill="red" stroke="none" /><path d="M 117.2510076193507 88.02491185347247 l 31.10721695488304 -21.59361779018801 a58.86744348311471,58.86744348311471 0 0,0 0.5706652981805104,0.8373809086806503 l -31.474306718732283 21.05495885823695" fill="red" stroke="none" /><path d="M 117.45458315368197 88.32363383020206 l 21.05229001546706 -14.083077479940911 a46.3284817192297,46.3284817192297 0 0,0 0.4377012691359067,0.666649061851989 l -21.291587919960897 13.718610354111249" fill="red" stroke="none" /><path d="M 117.65298651832404 88.62581576622439 l 31.69556038785437 -20.422104943545982 a58.70505163271002,58.70505163271002 0 0,0 0.5400093303045657,0.854165077020644 l -32.042397314404894 19.873492218811133" fill="red" stroke="none" /><line stroke="#e1ed5e" stroke-width="0.3" x1="172.23445277983987" x2="176.4835382374775" y1="55.19839476539836" y2="52.563006222186495" /><path d="M 173.08426987136738 54.67131705675599 a86.0,86.0 0 0,1 12.851231095245387,41.99856678651699" fill="none" id="id15" stroke="none" /><text fill="#e1ed5e" style="font-size:6.75px; font-family:Arial;" text-anchor="middle"><textPath startOffset="22.20632615414155" xlink:href="#id15">March</textPath></text><path d="M 117.84615892207809 88.93136811851018 l 53.521399783094445 -33.19530407454977 a83.97990510745187,83.97990510745187 0 0,0 0.7513570205291552,1.2350333857234455 l -54.08487260190982 32.26910291561924" fill="red" stroke="none" /><path d="M 118.03404312379186 89.2402003453031 l 32.51121439946692 -19.397433568718707 a58.85814959531119,58.85814959531119 0 0,0 0.5116183708191561,0.8745216392614922 l -32.84029244475641 18.834932517103322" fill="red" stroke="none" /><path d="M 118.21658344932153 89.55222093294921 l 32.79442596236636 -18.80862665816292 a58.805274909293885,58.805274909293885 0 0,0 0.496043100089487,0.8824053250826771 l -33.113326703748285 18.241337823145447" fill="red" stroke="none" /><path d="M 118.3937258080291 89.86733742301442 l 23.312457875907217 -12.842274151637406 a47.61568518001674,47.61568518001674 0 0,0 0.38929654740820235,0.721307378448483 l -23.530062522533886 12.439085789856465" fill="red" stroke="none" /><path d="M 118.56541770881063 90.18545643968196 l 33.43562815023687 -17.675628638905472 a58.82022048562657,58.82022048562657 0 0,0 0.46549360876920076,0.8991854885022379 l -33.73493119216619 17.09747042814289" fill="red" stroke="none" /><path d="M 118.73160827565052 90.50648371742162 l 33.740532526326206 -17.100309285131022 a58.82650013954787,58.82650013954787 0 0,0 0.4499946771625383,0.9071618101122745 l -34.029887216442155 16.516987886519797" fill="red" stroke="none" /><path d="M 118.89224826269711 90.83032412892265 l 22.783572338192762 -11.058396577340213 a46.325467485347474,46.325467485347474 0 0,0 0.3420182928596795,0.7203777503017982 l -22.9705488248942 10.664576411397874" fill="red" stroke="none" /><path d="M 119.04729006885535 91.15688171328212 l 57.14187020656606 -26.529354860153646 a84.0,84.0 0 0,0 0.5975907321466121,1.3167119646317489 l -57.59006325567602 25.541820886679833" fill="red" stroke="none" /><path d="M 119.196687751892 91.48605970444005 l 34.55243063933205 -15.324379670693732 a58.79824169690204,58.79824169690204 0 0,0 0.40237397984572776,0.9287346222698136 l -34.81109532902046 14.727345903837316" fill="red" stroke="none" /><path d="M 119.34039704204932 91.81776055985345 l 29.032688078334736 -12.282705723752384 a52.52398827797935,52.52398827797935 0 0,0 0.345103395266892,0.8356952449945486 l -29.239813160487824 11.781135908304533" fill="red" stroke="none" /><line stroke="#e1ed5e" stroke-width="0.3" x1="184.98032266829074" x2="189.97916517819016" y1="98.17113171792111" y2="98.06355123074" /><path d="M 185.9800911702706 98.14961562048488 a86.0,86.0 0 0,1 -9.607161424134198,41.387399972396054" fill="none" id="id16" stroke="none" /><text fill="#e1ed5e" style="font-size:6.75px; font-family:Arial;" text-anchor="middle"><textPath startOffset="21.466115282336823" xlink:href="#id16">April</textPath></text><line stroke="#e1ed5e" stroke-width="0.3" x1="174.80103733775053" x2="179.2010983576182" y1="140.37084112569926" y2="142.7455964860345" /><path d="M 175.68104954172406 140.8457921977663 a86.0,86.0 0 0,1 -30.038265399797805,32.042727171017184" fill="none" id="id17" stroke="none" /><text fill="#e1ed5e" style="font-size:6.75px; font-family:Arial;" text-anchor="middle"><textPath startOffset="22.206326154141568" xlink:href="#id17">May</textPath></text><line stroke="#e1ed5e" stroke-width="0.3" x1="143.8653032363475" x2="146.44561519142675" y1="172.8068346515853" y2="177.08958963109032" /><path d="M 144.38136562736335 173.6633856474863 a86.0,86.0 0 0,1 -40.68145358897372,12.25698825130547" fill="none" id="id18" stroke="none" /><text fill="#e1ed5e" style="font-size:6.75px; font-family:Arial;" text-anchor="middle"><textPath startOffset="21.466115282336833" xlink:href="#id18">June</textPath></text><line stroke="#e1ed5e" stroke-width="0.3" x1="102.19456741930631" x2="102.32365962044197" y1="184.97166512339345" y2="189.96999836594603" /><path d="M 102.22038585953345 185.97133177190398 a86.0,86.0 0 0,1 -42.740103519485714,-10.115201625700543" fill="none" id="id19" stroke="none" /><text fill="#e1ed5e" style="font-size:6.75px; font-family:Arial;" text-anchor="middle"><textPath startOffset="22.20632615414155" xlink:href="#id19">July</textPath></text><line stroke="#e1ed5e" stroke-width="0.3" x1="58.666819895761336" x2="56.23545636021788" y1="174.27360380694188" y2="178.64263932499728" /><path d="M 58.180547188652646 175.14741091055294 a86.0,86.0 0 0,1 -31.652253787137756,-30.449443065178592" fill="none" id="id20" stroke="none" /><text fill="#e1ed5e" style="font-size:6.75px; font-family:Arial;" text-anchor="middle"><textPath startOffset="22.20632615414155" xlink:href="#id20">August</textPath></text><line stroke="#e1ed5e" stroke-width="0.3" x1="26.63291911575756" x2="22.317208475507996" y1="142.92168965132927" y2="145.44649492493687" /><path d="M 25.769776987707644 143.4266507060508 a86.0,86.0 0 0,1 -11.730757126820373,-40.83630448921669" fill="none" id="id21" stroke="none" /><text fill="#e1ed5e" style="font-size:6.75px; font-family:Arial;" text-anchor="middle"><textPath startOffset="21.46611528233685" xlink:href="#id21">September</textPath></text><line stroke="#e1ed5e" stroke-width="0.3" x1="15.007084014347285" x2="10.007500721073583" y1="101.09737516637583" y2="101.16192664675087" /><path d="M 14.007167355692545 101.11028546245083 a86.0,86.0 0 0,1 10.666146001902534,-42.60595125391555" fill="none" id="id22" stroke="none" /><text fill="#e1ed5e" style="font-size:6.75px; font-family:Arial;" text-anchor="middle"><textPath startOffset="22.20632615414155" xlink:href="#id22">October</textPath></text><line stroke="#e1ed5e" stroke-width="0.3" x1="26.266209847984243" x2="21.928928074336255" y1="57.711370442889674" y2="55.22380399835377" /><path d="M 25.398753493254645 57.213857153982495 a86.0,86.0 0 0,1 29.58750427330803,-30.492523968695096" fill="none" id="id23" stroke="none" /><text fill="#e1ed5e" style="font-size:6.75px; font-family:Arial;" text-anchor="middle"><textPath startOffset="21.46611528233685" xlink:href="#id23">November</textPath></text><line stroke="#e1ed5e" stroke-width="0.3" x1="56.762969772571076" x2="54.21961505331055" y1="26.818313649435495" y2="22.513508569990535" /><path d="M 56.25429882871897 25.957352633546506 a86.0,86.0 0 0,1 42.265352541879196,-11.944610805530505" fill="none" id="id24" stroke="none" /><text fill="#e1ed5e" style="font-size:6.75px; font-family:Arial;" text-anchor="middle"><textPath startOffset="22.20632615414155" xlink:href="#id24">December</textPath></text></svg>