<?xml version="1.0" encoding="utf-8" ?>
<svg baseProfile="full" height="200mm" version="1.1" viewBox="0,0,200,200" width="200mm" xmlns="http://www.w3.org/2000/svg" xmlns:ev="http://www.w3.org/2001/xml-events" xmlns:xlink="http://www.w3.org/1999/xlink"><defs /><rect fill="#1a1a1a" height="200" width="200" x="0" y="0" /><rect fill="#1a1a1a" height="200" width="180" x="10" y="0" /><text alignment-baseline="middle" fill="#e1ed5e" style="dominant-baseline: central; font-size:9.0px; font-family:Arial;" text-anchor="middle" x="100.0" y="100.0">2026</text><line stroke="#e1ed5e" stroke-width="0.3" x1="100.0" x2="100.0" y1="15.0" y2="10.0" /><path d="M 100.0 14.0 a86.0,86.0 0 0,1 42.46469731375804,11.215312516191453" fill="none" id="id13" stroke="none" /><text fill="#e1ed5e" style="font-size:6.75px; font-family:Arial;" text-anchor="middle"><textPath startOffset="22.20632615414155" xlink:href="#id13">January</textPath></text><path d="M 100.0 79.0 l 0.0 -44.621319053856226 a65.62131905385623,65.62131905385623 0 0,0 1.1295631362896879,0.009722506529854603 l -0.7680826570171596 44.61470792393493" fill="red" stroke="none" /><path d="M 100.36148047927253 79.00311137660856 l 0.6599727274083936 -38.33505443989005 a59.34073503351568,59.34073503351568 0 0,0 1.0211505280510167,0.026373305452045855 l -1.3197498906542782 38.31801434229564" fill="red" stroke="none" /><path d="M 100.72285384407766 79.0124445844662 l 1.351900707576994 -39.25149080831785 a60.274765005008085,60.274765005008085 0 0,0 1.0366087598636842,0.044638553764180036 l -2.02735029983001 39.22240452802947" fill="red" stroke="none" /><path d="M 101.08401301168833 79.027996857942 l 1.2166081235637505 -23.53727226049953 a44.56869365898759,44.56869365898759 0 0,0 0.7658131478954315,0.046195940426044406 l -1.6215833202987942 23.51284305069318" fill="red" stroke="none" /><path d="M 101.44485096284872 79.0497635885617 l 2.5132241269468367 -36.44157146191405 a57.52813198243316,57.52813198243316 0 0,0 0.9873191978155704,0.07663497185695126 l -3.140133514124748 36.39291122786864" fill="red" stroke="none" /><path d="M 101.80526077348638 79.07773832637324 l 3.102161698795233 -35.952832836860075 a57.086418445180676,57.086418445180676 0 0,0 0.9782841706110731,0.09289986980679697 l -3.72057099649655 35.8941074225381" fill="red" stroke="none" /><path d="M 102.16513564639614 79.11191278185805 l 3.7613205542454837 -36.28723767180319 a57.48165498112335,57.48165498112335 0 0,0 0.9833011622183601,0.11048534267833014 l -4.3853884199735695 36.21711637565426" fill="red" stroke="none" /><path d="M 102.52436894288641 79.15227682838746 l 4.426859917611828 -36.55961239023682 a57.826652669697204,57.826652669697204 0 0,0 0.9871430134180422,0.12815949433584567 l -5.055517659537716 36.47799457273684" fill="red" stroke="none" /><path d="M 102.88285421437855 79.19881850522331 l 4.914984347153301 -35.46397904521197 a56.8029451421527,56.8029451421527 0 0,0 0.9673569136115812,0.1425632630901591 l -5.524710241193538 35.37412129796084" fill="red" stroke="none" /><path d="M 103.2404852339499 79.25152402106235 l 7.5094481500279135 -48.08218316304805 a69.66506086755527,69.66506086755527 0 0,0 1.183213931619739,0.19524043688543527 l -8.335991287786527 47.94579646322299" fill="red" stroke="none" /><path d="M 103.59715602781102 79.31037775812273 l 9.984934927748354 -57.42996138272936 a79.29150358271053,79.29150358271053 0 0,0 1.3426878823380324,0.24536762825231595 l -10.972017931189287 57.24957827312631" fill="red" stroke="none" /><path d="M 103.95276090670814 79.375362276772 l 6.661844174408734 -34.760038845912064 a56.39266122197396,56.39266122197396 0 0,0 0.9517834950765828,0.19091881519812245 l -7.259194078952442 34.64021607463673" fill="red" stroke="none" /><path d="M 104.307194497241 79.44645832069477 l 7.560181653429301 -36.07650149451406 a57.86014523460975,57.86014523460975 0 0,0 0.9730348224350482,0.21266772430116251 l -8.180059200017876 35.94102027211703" fill="red" stroke="none" /><path d="M 104.66035177308747 79.52364482259891 l 8.14241085396593 -35.77560338018772 a57.69049811233531,57.69049811233531 0 0,0 0.9663881296787054,0.22871284754673407 l -8.757022670607158 35.63014462050012" fill="red" stroke="none" /><path d="M 105.01212808612495 79.60689891045804 l 8.71317282515069 -35.45173051858798 a57.50677440480776,57.50677440480776 0 0,0 0.9592434244952223,0.24453250734962717 l -9.322125138330936 35.29649501506949" fill="red" stroke="none" /><path d="M 105.36241919743992 79.69619591428918 l 9.33185508455944 -35.33333564887938 a57.544878264889434,57.544878264889434 0 0,0 0.9555247864443595,0.2611810192931639 l -9.93867776022751 35.16746808875992" fill="red" stroke="none" /><path d="M 105.71112130821622 79.79150937346287 l 9.922737751799268 -35.111065240085416 a57.48626627629247,57.48626627629247 0 0,0 0.9499188925918735,0.27730737323870513 l -10.52564686211457 34.93505953792801" fill="red" stroke="none" /><path d="M 106.0581310904928 79.89281104454417 l 17.540796030126014 -58.21863128058585 a81.8036886508976,81.8036886508976 0 0,0 1.3447538042146696,0.417821552895598 l -18.5403352070514 57.908069592807735" fill="red" stroke="none" /><path d="M 106.74666289553966 80.11325718540242 l 11.792923988373632 -34.761310891038036 a57.70724439479158,57.70724439479158 0 0,0 0.9379295718029118,0.3272252108721283 l -12.389535564239816 34.5531648269937" fill="red" stroke="none" /><path d="M 107.08798089147638 80.2323363322302 l 12.328835273301564 -34.38387783903835 a57.52740388319593,57.52740388319593 0 0,0 0.9292529595047323,0.34225170727391646 l -12.918870558578872 34.166562863958106" fill="red" stroke="none" /><path d="M 107.4271985657038 80.35727306442388 l 13.114278727946598 -34.68335924120796 a58.07990985438015,58.07990985438015 0 0,0 0.9320908283918022,0.3616367605161683 l -13.709352721338066 34.45247977680124" fill="red" stroke="none" /><path d="M 107.76421540070413 80.48803036053334 l 13.503193330593968 -33.93438804885601 a57.52230718853532,57.52230718853532 0 0,0 0.9168401940235535,0.3740021356285019 l -14.085317394205909 33.696925027043925" fill="red" stroke="none" /><path d="M 108.09893153111575 80.62456947434976 l 21.429860815718264 -51.26759965979141 a76.56622813776099,76.56622813776099 0 0,0 1.2116286292814362,0.5187561467404419 l -22.309173202790017 50.89112398508817" fill="red" stroke="none" /><path d="M 108.43124777332544 80.76684994638697 l 15.659309912583602 -35.721623344721195 a60.00318398952154,60.00318398952154 0 0,0 0.9423868108891431,0.42282149212976955 l -16.271878841939525 35.44678152207489" fill="red" stroke="none" /><path d="M 108.76106565485865 80.91482961587045 l 15.232468415713104 -33.182522142558575 a57.5117497495955,57.5117497495955 0 0,0 0.8961475059215495,0.4207532700563292 l -15.80139413293425 32.91540388986224" fill="red" stroke="none" /><path d="M 109.08828744355905 81.06846463323043 l 15.833009525343272 -32.981260952949505 a57.58480237306418,57.58480237306418 0 0,0 0.8899010930278666,0.43667060155075965 l -16.398381885381568 32.70383519126391" fill="red" stroke="none" /><path d="M 109.41281617654863 81.2277094730956 l 16.384783741972196 -32.67671596425263 a57.55446490484629,57.55446490484629 0 0,0 0.8817878797893012,0.4516860008551443 l -16.94483210935025 32.38983743808499" fill="red" stroke="none" /><path d="M 109.73455568895987 81.39251694778311 l 16.92953162887758 -32.36059075850526 a57.52145773942522,57.52145773942522 0 0,0 0.873381034815626,0.46652990169783026 l -17.484057710221517 32.064382130305674" fill="red" stroke="none" /><path d="M 110.05341064243156 81.56283822128135 l 17.51815905882565 -32.126921312623885 a57.592690114800824,57.592690114800824 0 0,0 0.8662925453716529,0.4820908635842866 l -18.068575693269338 31.820615051479418" fill="red" stroke="none" /><path d="M 110.36928655335952 81.73862282372117 l 16.060609969660256 -28.284381459402148 a53.52613452500193,53.52613452500193 0 0,0 0.797292846567667,0.4618434784243469 l -16.54509954869325 28.00373382358775" fill="red" stroke="none" /><line stroke="#e1ed5e" stroke-width="0.3" x1="143.23703022742887" x2="145.7803849466894" y1="26.81831364943548" y2="22.513508569990506" /><path d="M 143.74570117128098 25.957352633546492 a86.0,86.0 0 0,1 28.547481713284135,27.462654790039103" fill="none" id="id14" stroke="none" /><text fill="#e1ed5e" style="font-size:6.75px; font-family:Arial;" text-anchor="middle"><textPath startOffset="19.985693538727396" xlink:href="#id14">February</textPath></text><path d="M 110.68208982089419 81.91981866633111 l 30.45747423635546 -51.55139737560809 a80.87657562215887,80.87657562215887 0 0,0 1.1924978936684885,0.7184666379852617 l -31.340334196241585 51.019484128164216" fill="red" stroke="none" /><path d="M 110.99172775467656 82.1063720568725 l 19.0775370684392 -31.056659880302806 a57.4481624162108,57.4481624162108 0 0,0 0.8381436521778359,0.5248454781023144 l -19.609299872989297 30.72367006087755" fill="red" stroke="none" /><path d="M 111.2981086023043 82.29822771554956 l 19.985613329247567 -31.31327451103302 a58.147623083442475,58.147623083442475 0 0,0 0.8390784365023914,0.5457599555863226 l -20.52165879153424 30.964615631287167" fill="red" stroke="none" /><path d="M 111.60114157652 82.49532879139004 l 20.47231885663757 -30.890167842496414 a58.05830957700901,58.05830957700901 0 0,0 0.8282855714268387,0.559262115214522 l -21.00100912247095 30.53319381498322" fill="red" stroke="none" /><path d="M 111.90073688211348 82.69761687909136 l 20.685289789168404 -30.07417208232994 a57.50119231065567,57.50119231065567 0 0,0 0.8106815466665312,0.567934230684563 l -21.199902475418586 29.713653008881444" fill="red" stroke="none" /><path d="M 112.48926042617603 83.11751280151076 l 28.885684794330214 -39.04652374273439 a69.56967986747823,69.56967986747823 0 0,0 0.9565958401682061,0.7204881545031216 l -29.553526788256804 38.54351899872542" fill="red" stroke="none" /><path d="M 112.77801427241765 83.33499621200491 l 36.70442511755193 -47.869674472076895 a81.32180830572462,81.32180830572462 0 0,0 1.1035270439379505,0.8613203616494982 l -37.52298471664931 47.23077572120417" fill="red" stroke="none" /><path d="M 113.06298171725822 83.55741782278167 l 22.660911667690513 -28.52364876346871 a57.429595885661456,57.429595885661456 0 0,0 0.7687268678701961,0.6215903324474227 l -23.148541934125202 28.129352333757158" fill="red" stroke="none" /><path d="M 113.34407831869373 83.78471172551755 l 23.314404745956864 -28.330903407097228 a57.690619462208176,57.690619462208176 0 0,0 0.7613581129576502,0.6376155241148627 l -23.798620395873634 27.925386725588545" fill="red" stroke="none" /><path d="M 113.6212207817346 84.01681056812373 l 15.892403761451988 -18.648203704896023 a45.50151013175129,45.50151013175129 0 0,0 0.591749742281827,0.5131595453080101 l -16.211047302380578 18.371879166168345" fill="red" stroke="none" /><path d="M 113.89432698308785 84.25364557470407 l 24.216450225387394 -27.444352550190505 a57.600941906156095,57.600941906156095 0 0,0 0.7378104988989371,0.6624135507694672 l -24.685271711882322 27.02343999065174" fill="red" stroke="none" /><path d="M 114.16331599549186 84.49514656593476 l 24.57511016247598 -26.902844031473926 a57.43760497727097,57.43760497727097 0 0,0 0.7242392843660581,0.6731014843696566 l -25.034557330636886 26.475837961029626" fill="red" stroke="none" /><path d="M 114.42810811169701 84.74124197986012 l 33.47698487160945 -35.4043099376035 a69.72549310424532,69.72549310424532 0 0,0 0.864983776240128,0.8321137074172554 l -34.081451891461995 34.82281314342394" fill="red" stroke="none" /><path d="M 114.68862486808459 84.99185889309783 l 42.501551334055 -43.42607190341588 a81.76352184297713,81.76352184297713 0 0,0 0.9973755784956134,0.9930925307966382 l -43.24276271271793 42.68804352196913" fill="red" stroke="none" /><path d="M 114.94478906791727 85.2469230424477 l 34.98222313697929 -34.53347034479397 a70.15604245319362,70.15604245319362 0 0,0 0.840989666791935,0.866713776707839 l -35.57147706747433 33.926192372536015" fill="red" stroke="none" /><path d="M 115.19652480421416 85.50635884689758 l 27.21403239531159 -25.955303922984456 a58.606932352261346,58.606932352261346 0 0,0 0.6899785160259757,0.7360209735357276 l -27.65677823330803 25.483013532570673" fill="red" stroke="none" /><path d="M 115.4437574822437 85.77008943001954 l 27.018335512212577 -24.8947510688737 a57.73879536173819,57.73879536173819 0 0,0 0.6671755179854817,0.7367118706472209 l -27.442854670814096 24.425986410956927" fill="red" stroke="none" /><path d="M 115.9244219780498 86.31012108654704 l 30.21486992348788 -25.975065921289858 a60.8452307573773,60.8452307573773 0 0,0 0.675930788363016,0.8000888538762647 l -30.65751132533801 25.451118117784485" fill="red" stroke="none" /><path d="M 116.15771136456269 86.58626213691792 l 28.102018451957466 -23.32961026676039 a57.52388473688266,57.52388473688266 0 0,0 0.6259187811428827,0.767302416211418 l -28.49943572517676 22.842423680940872" fill="red" stroke="none" /><path d="M 116.38621287248628 86.86637796730983 l 28.441202111744026 -22.795749182423435 a57.449254565066646,57.449254565066646 0 0,0 0.6118233979236066,0.7769535837241457 l -28.8293795902616 22.30280320474625" fill="red" stroke="none" /><path d="M 116.60985879189232 87.15038557335679 l 28.945900712305033 -22.392945541871285 a57.596573310732715,57.596573310732715 0 0,0 0.5998931592239491,0.7893890788530008 l -29.327069811753095 21.891371687137248" fill="red" stroke="none" /><path d="M 116.82858285166822 87.43820079747576 l 29.31112162090053 -21.879467061958806 a57.576671931581785,57.576671931581785 0 0,0 0.5860136875626814,0.7993220112600692 l -29.683397920976837 21.371682607027246" fill="red" stroke="none" /><path d="M 117.04232023915458 87.72973835380427 l 29.636127443389224 -21.337648442664577 a57.51842399260343,57.51842399260343 0 0,0 0.5715890102869474,0.8084721192998338 l -29.999029073480052 20.82434982303295" fill="red" stroke="none" /><path d="M 117.2510076193507 88.02491185347247 l 30.05624888070812 -20.864069951294606 a57.58807881963171,57.58807881963171 0 0,0 0.5582630436579821,0.8191821305266678 l -30.410936390034838 20.343609797497532" fill="red" stroke="none" /><path d="M 117.45458315368197 88.32363383020206 l 20.341031122502862 -13.607275840758069 a45.47275021188073,45.47275021188073 0 0,0 0.42961650674122714,0.6543354140612264 l -20.572244264602016 13.255122362719169" fill="red" stroke="none" /><path d="M 117.65298651832404 88.62581576622439 l 30.624714927489613 -19.732137071002263 a57.43117343400878,57.43117343400878 0 0,0 0.5282913248887089,0.8356300065378462 l -30.959833848624278 19.20205941675021" fill="red" stroke="none" /><line stroke="#e1ed5e" stroke-width="0.3" x1="172.23445277983987" x2="176.4835382374775" y1="55.19839476539836" y2="52.563006222186495" /><path d="M 173.08426987136738 54.67131705675599 a86.0,86.0 0 0,1 12.851231095245387,41.99856678651699" fill="none" id="id15" stroke="none" /><text fill="#e1ed5e" style="font-size:6.75px; font-family:Arial;" text-anchor="middle"><textPath startOffset="22.20632615414155" xlink:href="#id15">March</textPath></text><path d="M 117.84615892207809 88.93136811851018 l 51.713160796663516 -32.073789255481266 a81.85210725017336,81.85210725017336 0 0,0 0.7323198966328193,1.2037413595125634 l -52.25759649158256 31.17888012276162" fill="red" stroke="none" /><path d="M 118.03404312379186 89.2402003453031 l 31.412811786463894 -18.742084572657134 a57.57909892903921,57.57909892903921 0 0,0 0.5005003553434307,0.85551734685581 l -31.730771816277652 18.19858781344743" fill="red" stroke="none" /><path d="M 118.21658344932153 89.55222093294921 l 31.686454948844695 -18.173170707041532 a57.52801063256028,57.52801063256028 0 0,0 0.4852689283431296,0.8632392757602977 l -31.99458151848026 17.62504792134644" fill="red" stroke="none" /><path d="M 118.3937258080291 89.86733742301442 l 22.52483843075849 -12.408393481671075 a46.71646505894136,46.71646505894136 0 0,0 0.3819446992268483,0.7076855203206656 l -22.735091229203803 12.018826978017952" fill="red" stroke="none" /><path d="M 118.56541770881063 90.18545643968196 l 32.30599389922533 -17.07845141738147 a57.54245126743201,57.54245126743201 0 0,0 0.45538155207099557,0.879652213564308 l -32.59518488445644 16.519826481556816" fill="red" stroke="none" /><path d="M 118.73160827565052 90.50648371742162 l 32.60059697560627 -16.522569426780613 a57.548518761075584,57.548518761075584 0 0,0 0.44021872896808245,0.8874540950886962 l -32.88017571752776 15.958955743192966" fill="red" stroke="none" /><path d="M 118.89224826269711 90.83032412892265 l 22.013821473696453 -10.684784827655053 a45.46983781493181,45.46983781493181 0 0,0 0.3357012276452115,0.7070723999076448 l -22.19448089518342 10.304270012106867" fill="red" stroke="none" /><path d="M 119.04729006885535 91.15688171328212 l 55.211312375794876 -25.63305143876699 a81.8715232298328,81.8715232298328 0 0,0 0.5824483751056445,1.2833477880874644 l -55.644363067863864 24.678881641837464" fill="red" stroke="none" /><path d="M 119.196687751892 91.48605970444005 l 33.385064830306156 -14.806640208054144 a57.52121503967948,57.52121503967948 0 0,0 0.39363490392089784,0.9085636301466502 l -33.634990444069736 14.22977743332089" fill="red" stroke="none" /><path d="M 119.34039704204932 91.81776055985345 l 28.051808679124488 -11.867730266485612 a51.45893944063487,51.45893944063487 0 0,0 0.33810560279257734,0.8187495354580756 l -28.251935968803263 11.383106160574233" fill="red" stroke="none" /><path d="M 119.47837535516314 92.15188598940014 l 33.85063695813893 -13.63890228701645 a57.49500346713922,57.49500346713922 0 0,0 0.36196239561570487,0.921154815716158 l -34.08039290363634 13.054198466404506" fill="red" stroke="none" /><path d="M 119.61058180528143 92.48833698450437 l 34.42126255886952 -13.184765626917322 a57.86002388473688,57.86002388473688 0 0,0 0.34824959658176713,0.9331357800328828 l -34.643116743952916 12.590306709855106" fill="red" stroke="none" /><path d="M 119.7369772167798 92.82701384747503 l 34.35810226249402 -12.48672423588662 a57.55677055243085,57.55677055243085 0 0,0 0.3303948270777245,0.9340706675946271 l -34.56795017038156 11.893455941865376" fill="red" stroke="none" /><path d="M 119.97218684219823 93.5106431181261 l 40.265715229763735 -13.083123961055543 a63.33787849603205,63.33787849603205 0 0,0 0.32798318839043533,1.0397963366862255 l -40.484953901922374 12.388077457942899" fill="red" stroke="none" /><path d="M 120.08093135843002 93.85539295169968 l 32.49833939421764 -9.944236237625274 a54.98573079590106,54.98573079590106 0 0,0 0.26915280327724256,0.9074494496250308 l -32.664698094606585 9.383357401253713" fill="red" stroke="none" /><path d="M 120.18372546131832 94.20196356495316 l 35.12203828883101 -10.089260184499741 a57.54245126743201,57.54245126743201 0 0,0 0.26527954936798886,0.9543516833339225 l -35.29050460876536 9.483197197746867" fill="red" stroke="none" /><path d="M 120.28053869075195 94.5502522615342 l 33.23600431721224 -8.931115791611703 a55.41506664612066,55.41506664612066 0 0,0 0.23961387243425708,0.9233299951393474 l -33.3848145215168 8.357689370923504" fill="red" stroke="none" /><path d="M 120.45610955862082 95.25157060432595 l 32.27806707285945 -7.492633048580436 a54.136281685800135,54.136281685800135 0 0,0 0.20289663026244123,0.90954580943537 l -32.40225809012393 6.935909069595102" fill="red" stroke="none" /><path d="M 120.53481517161879 95.60439243477599 l 37.0174890475452 -7.923828558626362 a58.85606364126666,58.85606364126666 0 0,0 0.20353184672859695,0.9924935675127634 l -37.14840019018879 7.285459334950187" fill="red" stroke="none" /><path d="M 120.6074358757038 95.95851677861258 l 60.456324710880175 -11.856556216867416 a82.60799560829031,82.60799560829031 0 0,0 0.2616481441496644,1.3977348484048515 l -60.651458578939696 10.814143291000002" fill="red" stroke="none" /><path d="M 120.67395015179393 96.31383870115 l 24.031615331986572 -4.2848323486903785 a45.41061907697049,45.41061907697049 0 0,0 0.13058394063202364,0.7707138095432482 l -24.10181113413882 3.8705327508312926" fill="red" stroke="none" /><path d="M 120.73433829027371 96.67025291283417 l 36.11335756262847 -5.799478404784573 a57.57606518221743,57.57606518221743 0 0,0 0.1487220102423818,0.9798922286236116 l -36.20783546631016 5.176987063768879" fill="red" stroke="none" /><path d="M 120.83666639777658 97.38593545837742 l 36.23704027125922 -4.546118858847596 a57.52109368980661,57.52109368980661 0 0,0 0.1147947014946326,0.9834908984632317 l -36.30992532575744 3.921684222059511" fill="red" stroke="none" /><path d="M 120.87857604477298 97.74499172005257 l 36.92860938052434 -3.9885057171259852 a58.14337583789197,58.14337583789197 0 0,0 0.09890707178418842,0.9959807150637271 l -36.99179357799076 3.3522494713578235" fill="red" stroke="none" /><path d="M 120.91429891909075 98.10471618934814 l 48.416062180287135 -4.387533102630129 a69.61445797056783,69.61445797056783 0 0,0 0.0978763240574811,1.194339065139062 l -48.48441298816412 3.5534801202832975" fill="red" stroke="none" /><path d="M 120.94382443527127 98.46500227214037 l 61.047682017859415 -4.474257004881061 a82.21142422374604,82.21142422374604 0 0,0 0.09129151550395409,1.4122393382649918 l -61.11565412436778 3.4227586023630336" fill="red" stroke="none" /><path d="M 120.98425023603335 99.18683210126433 l 36.507284272549846 -1.4147063300588387 a57.534684875568225,57.534684875568225 0 0,0 0.0298312013487316,0.9899523430494382 l -36.52622716835422 0.7860838395844014" fill="red" stroke="none" /><line stroke="#e1ed5e" stroke-width="0.3" x1="184.98032266829074" x2="189.97916517819016" y1="98.17113171792111" y2="98.06355123074" /><path d="M 185.9800911702706 98.14961562048488 a86.0,86.0 0 0,1 -9.607161424134198,41.387399972396054" fill="none" id="id16" stroke="none" /><text fill="#e1ed5e" style="font-size:6.75px; font-family:Arial;" text-anchor="middle"><textPath startOffset="21.466115282336823" xlink:href="#id16">April</textPath></text><path d="M 120.99513854157772 99.54816195383933 l 36.53556894546167 -0.786284884712422 a57.544028815779335,57.544028815779335 0 0,0 0.012788455852438731,0.990479999144198 l -36.54369040843182 0.1572686275077612" fill="red" stroke="none" /><path d="M 120.99980553446 99.90962569577887 l 36.60606366548964 -0.1575370556938868 a57.606402650435314,57.606402650435314 0 0,0 -0.004267544606917286,0.9916270739483096 l -36.60335182359322 -0.4725994964581075" fill="red" stroke="none" /><path d="M 120.99824983174949 100.27111621757518 l 36.53139734626314 0.4716704654251576 a57.53444217582248,57.53444217582248 0 0,0 -0.021309489747457642,0.9901682545322374 l -36.51786579383068 -1.1004285357475099" fill="red" stroke="none" /><path d="M 120.9904718944345 100.63252640178507 l 48.635217721486924 1.4655725426336057 a69.65729447569149,69.65729447569149 0 0,0 -0.04643112161977843,1.1981809369554923 l -48.60278446701594 -2.3025307266031043" fill="red" stroke="none" /><path d="M 120.95626037817324 101.35467743843564 l 48.90180253502802 3.161163652176953 a70.00386971261267,70.00386971261267 0 0,0 -0.08808300688669378,1.2018226466941422 l -48.840142969476986 -4.002459435367865" fill="red" stroke="none" /><path d="M 120.92983693683757 101.71520430193887 l 32.84125080030554 2.6913470383801577 a53.95134447954388,53.95134447954388 0 0,0 -0.08381830452570008,0.9249280059744348 l -32.79005789950276 -3.256256432903163" fill="red" stroke="none" /><path d="M 120.89721153311464 102.0752229133903 l 36.38327054904833 3.6130847691242227 a57.56223129671007,57.56223129671007 0 0,0 -0.10640158759059079,0.9851465546931415 l -36.31568665995669 -4.238827645702155" fill="red" stroke="none" /><path d="M 120.8583938346157 102.4346265915055 l 27.62379193812349 3.2242951659662165 a48.81132791432314,48.81132791432314 0 0,0 -0.10459219465722541,0.833702700596371 l -27.564198234219415 -3.6993156208499824" fill="red" stroke="none" /><path d="M 120.81339534386255 102.79330883721812 l 33.249555414855784 4.462331851168983 a54.54765775483473,54.54765775483473 0 0,0 -0.13290393684989352,0.929529824782407 l -33.16781742698929 -5.034007147931799" fill="red" stroke="none" /><path d="M 120.76222939487914 103.15116336523771 l 35.09451040325305 5.326428747144098 a56.49641536327914,56.49641536327914 0 0,0 -0.15420359111900533,0.9602259090968687 l -34.99762505777276 -5.929733885934171" fill="red" stroke="none" /><path d="M 120.70491114924044 103.5080841355445 l 48.32723915248466 8.188203260737774 a70.01600469989984,70.01600469989984 0 0,0 -0.21156021863832042,1.1865420581556767 l -48.179132491507154 -9.01886406962667" fill="red" stroke="none" /><path d="M 120.5718875245553 104.21870165774334 l 23.670231883582375 4.854082852982971 a45.16282263656676,45.16282263656676 0 0,0 -0.16272801851015742,0.7602111275326174 l -23.583169826347774 -5.260807799931758" fill="red" stroke="none" /><path d="M 120.49622156327973 104.57218783832717 l 35.69530923328669 7.9627192874492545 a57.572667385777024,57.572667385777024 0 0,0 -0.224093202380092,0.9653876507894358 l -35.552955464976044 -8.575975595587256" fill="red" stroke="none" /><path d="M 120.41448212921028 104.9243191809786 l 35.57666671531104 8.581695151150338 a57.59705871022421,57.59705871022421 0 0,0 -0.24077952784003812,0.9617945248699695 l -35.42367587317594 -9.192817515417703" fill="red" stroke="none" /><path d="M 120.32669344350535 105.2749913415812 l 35.57555052428033 9.232230589256199 a57.75396409584714,57.75396409584714 0 0,0 -0.25800049860568336,0.9601158338530517 l -35.41136194933287 -9.8432373562848" fill="red" stroke="none" /><path d="M 120.23288151984713 105.62410040840565 l 35.175774136736614 9.7777514040373 a57.509444102010946,57.509444102010946 0 0,0 -0.27332695095085596,0.9514869733871815 l -35.00225454889966 -10.381795852929063" fill="red" stroke="none" /><path d="M 120.13307415673323 105.97154293290107 l 46.63128043774653 13.831007176667365 a69.63921334463363,69.63921334463363 0 0,0 -0.35076020740932823,1.1463046526634615 l -46.38629345783107 -14.631638801882884" fill="red" stroke="none" /><path d="M 119.9155931802556 106.66101706037122 l 23.55012372163652 7.876630862252862 a45.832431235072036,45.832431235072036 0 0,0 -0.25668162635277797,0.746036956187152 l -23.41105126434051 -8.280840521529313" fill="red" stroke="none" /><path d="M 119.67450827220406 107.3425965602758 l 34.256746289472055 12.784739724686379 a57.564658294167494,57.564658294167494 0 0,0 -0.35444950527052116,0.9253558106387593 l -34.03160250460803 -13.372519102158282" fill="red" stroke="none" /><path d="M 119.54520255179757 107.68017299344265 l 34.152338818237 13.419961730230497 a57.6943813082672,57.6943813082672 0 0,0 -0.3711600041325743,0.921188691646655 l -33.91627619984703 -14.005849789719965" fill="red" stroke="none" /><path d="M 119.41010516605496 108.01547362559984 l 44.991431860760436 18.579375658848825 a69.67671045535096,69.67671045535096 0 0,0 -0.4673283953039892,1.1046262799223383 l -44.664952484264134 -19.351076464437327" fill="red" stroke="none" /><path d="M 119.26925614724726 108.34839909993367 l 38.812912500012295 16.81568200167374 a63.29904653671315,63.29904653671315 0 0,0 -0.4417637903793027,0.9960607250706494 l -38.51770762490172 -17.481291063237077" fill="red" stroke="none" /><path d="M 118.97047184881838 109.00673069616215 l 33.02190721689048 15.678019384357674 a57.55470760459203,57.55470760459203 0 0,0 -0.43261062675605666,0.8913060261525084 l -32.74714333351971 -16.244114366475458" fill="red" stroke="none" /><path d="M 118.81262510543309 109.33194174019688 l 38.90012843041188 19.29628269124129 a64.42311040912243,64.42311040912243 0 0,0 -0.5013385904554688,0.9891886009730401 l -38.562211170170144 -19.963025503917027" fill="red" stroke="none" /><line stroke="#e1ed5e" stroke-width="0.3" x1="174.80103733775053" x2="179.2010983576182" y1="140.37084112569926" y2="142.7455964860345" /><path d="M 175.68104954172406 140.8457921977663 a86.0,86.0 0 0,1 -30.038265399797805,32.042727171017184" fill="none" id="id17" stroke="none" /><text fill="#e1ed5e" style="font-size:6.75px; font-family:Arial;" text-anchor="middle"><textPath startOffset="22.206326154141568" xlink:href="#id17">May</textPath></text><path d="M 118.48025628344425 109.97397251340804 l 32.135911257787455 17.344061178720573 a57.51757454349334,57.51757454349334 0 0,0 -0.47773437483412184,0.8672266576534239 l -31.832600473501824 -17.894658354771803" fill="red" stroke="none" /><path d="M 117.94076556474637 110.91462005526583 l 20.83203625536211 12.673581842660596 a45.38428615455736,45.38428615455736 0 0,0 -0.41177672932718423,0.6639152002403925 l -20.61079488636696 -13.030293374266263" fill="red" stroke="none" /><path d="M 117.75023020441432 111.22182372390056 l 40.66257855491634 25.707175819559232 a69.1072155019647,69.1072155019647 0 0,0 -0.6443265095637526,1.0000090514581141 l -40.21404718197554 -26.403306470938798" fill="red" stroke="none" /><path d="M 117.55443506779139 111.5257021239791 l 20.406777167680833 13.398462214067665 a45.41219662531782,45.41219662531782 0 0,0 -0.43465288086507686,0.6497470824159827 l -20.173121181405037 -13.747746210689455" fill="red" stroke="none" /><path d="M 117.35343817320211 111.8261652097733 l 30.170133538680467 20.56059324199731 a57.50992950150243,57.50992950150243 0 0,0 -0.5645259379337719,0.8132417179276022 l -29.811746693584556 -21.07687622211193" fill="red" stroke="none" /><path d="M 117.14729908036423 112.12312394758627 l 29.896664071532808 21.136912726598492 a57.61392634255335,57.61392634255335 0 0,0 -0.5794869278157545,0.8048566593770939 l -29.52839735134145 -21.648402991426718" fill="red" stroke="none" /><path d="M 116.71984013943494 112.70617746262583 l 48.32051835412032 36.72098992414595 a81.69022651976269,81.69022651976269 0 0,0 -0.8604438669563458,1.1122396870415863 l -47.6812676699459 -37.54730760530079" fill="red" stroke="none" /><path d="M 116.498646956653 112.99209946851258 l 19.14063596724963 15.072572134578511 a45.36280722705909,45.36280722705909 0 0,0 -0.48836753204508004,0.609313586167084 l -18.878350523149695 -15.399813554323845" fill="red" stroke="none" /><path d="M 116.27256486870786 113.27417163493432 l 28.316350383725666 23.098761510628396 a57.54269396717774,57.54269396717774 0 0,0 -0.6327065816153814,0.7621358363008496 l -27.91454780221674 -23.58275860404302" fill="red" stroke="none" /><path d="M 116.0416608686014 113.55231037782055 l 27.908058957193234 23.57727670023814 a57.534199476076736,57.534199476076736 0 0,0 -0.6456364315422123,0.7510210313238787 l -27.49808001608024 -24.054174830723547" fill="red" stroke="none" /><path d="M 115.80600337817218 113.82643327865902 l 27.510319043274215 24.06488102183615 a57.55046035904152,57.55046035904152 0 0,0 -0.6586544688552259,0.7400052781069304 l -27.09200572477065 -24.53486046968395" fill="red" stroke="none" /><path d="M 115.56566222782051 114.09645910891815 l 27.08516973781491 24.528669714084838 a57.54123776870328,57.54123776870328 0 0,0 -0.6711872799912427,0.7284412313327528 l -26.658936049827943 -24.991262200218927" fill="red" stroke="none" /><path d="M 115.32070863581623 114.36230785411682 l 35.51458658197657 33.29293950604911 a69.67962285229987,69.67962285229987 0 0,0 -0.82783854304921,0.8679854027322168 l -34.9362414875484 -33.89933202536383" fill="red" stroke="none" /><path d="M 115.07121518719521 114.62390073753431 l 26.241001484158637 25.462167196966604 a57.5638088450574,57.5638088450574 0 0,0 -0.6961366149387338,0.7051827156224244 l -25.798824244164365 -25.910090406569694" fill="red" stroke="none" /><path d="M 114.81725581225074 114.88116024355365 l 17.243169036554782 17.317536039804466 a45.43816549811233,45.43816549811233 0 0,0 -0.5589977247806602,0.5470969271230878 l -16.942521359398327 -17.611783069850123" fill="red" stroke="none" /><path d="M 114.29624159901734 115.38237550388516 l 25.000716342952177 26.900105457076396 a57.723990677247855,57.723990677247855 0 0,0 -0.7336456723013333,0.6701679270762703 l -24.53397112118398 -27.32646615073925" fill="red" stroke="none" /><path d="M 113.75828350139079 115.86535959552629 l 41.27485050417237 47.59607878657886 a84.0,84.0 0 0,0 -1.100538093691811,0.9379024391082127 l -40.449446933903516 -48.299505615910014" fill="red" stroke="none" /><path d="M 113.48314897796784 116.09983520530334 l 27.0214086003059 32.26547642475579 a63.08583481007781,63.08583481007781 0 0,0 -0.8385305219613272,0.6900535327068859 l -26.462007949799883 -32.72582507631985" fill="red" stroke="none" /><path d="M 113.20401910651253 116.32954008644616 l 28.703099997703145 35.49740561845963 a66.65012327606132,66.65012327606132 0 0,0 -0.8983246667978111,0.7136834453411314 l -28.08781783818798 -35.98622297780589" fill="red" stroke="none" /><path d="M 112.92097659922987 116.55440617244103 l 15.001857122546413 19.220438504807976 a45.3819805069728,45.3819805069728 0 0,0 -0.6199422119770842,0.4753452524519589 l -14.668786182075834 -19.475823099087307" fill="red" stroke="none" /><path d="M 112.63410532772338 116.77436683061366 l 21.95970360247661 29.15601177640873 a57.50070691116418,57.50070691116418 0 0,0 -0.7957414114257829,0.5886704726824145 l -21.45457722063226 -29.52969219783091" fill="red" stroke="none" /><path d="M 112.34349029814194 116.9893568818739 l 21.53546279346969 29.641021637911305 a57.638317667000535,57.638317667000535 0 0,0 -0.8076848456268139,0.5762616919920226 l -21.02205061999399 -30.007327591747547" fill="red" stroke="none" /><path d="M 112.04921762599082 117.19931262002967 l 20.993921234519956 29.96717510138721 a57.58929231836043,57.58929231836043 0 0,0 -0.8167892493554251,0.5617950935886745 l -20.47497510054165 -30.324110984340976" fill="red" stroke="none" /><path d="M 111.7513745106137 117.40417183066458 l 29.60684971398438 43.848717383779174 a73.90818052238231,73.90818052238231 0 0,0 -1.0604954648327602,0.7028385670409439 l -28.84767955041166 -44.35185397191144" fill="red" stroke="none" /><path d="M 111.45004920935366 117.60387380957326 l 19.99588020093844 30.742658422909493 a57.67350913013329,57.67350913013329 0 0,0 -0.8368651319887676,0.5341269221385356 l -19.463733266902743 -31.08229977387184" fill="red" stroke="none" /><path d="M 111.1453310114006 117.79835938074945 l 19.41652511740342 31.00691146915216 a57.58455967331844,57.58455967331844 0 0,0 -0.8446305781962503,0.5188410868000634 l -18.87991533927486 -31.3365410227806" fill="red" stroke="none" /><line stroke="#e1ed5e" stroke-width="0.3" x1="143.8653032363475" x2="146.44561519142675" y1="172.8068346515853" y2="177.08958963109032" /><path d="M 144.38136562736335 173.6633856474863 a86.0,86.0 0 0,1 -40.68145358897372,12.25698825130547" fill="none" id="id18" stroke="none" /><text fill="#e1ed5e" style="font-size:6.75px; font-family:Arial;" text-anchor="middle"><textPath startOffset="21.466115282336833" xlink:href="#id18">June</textPath></text><path d="M 110.5260780823613 118.17145234162733 l 18.47870484589642 31.90028629987883 a57.86584867863471,57.86584867863471 0 0,0 -0.8662000421561964,0.4918509903687323 l -17.926856036819025 -32.21364045604219" fill="red" stroke="none" /><path d="M 110.21172684928248 118.3499491758327 l 11.901138605500272 21.385735416612214 a45.47420641035519,45.47420641035519 0 0,0 -0.6872607506201523,0.37474935824370165 l -11.531255043011472 -21.587425426615685" fill="red" stroke="none" /><path d="M 109.89434966115114 118.52300852407294 l 17.220010580238274 32.2372276790216 a57.548154711456974,57.548154711456974 0 0,0 -0.8777713093758277,0.4592084630313419 l -16.662548368335948 -32.52886556099766" fill="red" stroke="none" /><path d="M 109.57404056367764 118.69057910512821 l 17.029569239162495 33.245368961394945 a58.3531897680869,58.3531897680869 0 0,0 -0.8979335832287431,0.450242539426302 l -16.45478174825099 -33.53357934173055" fill="red" stroke="none" /><path d="M 109.2508944713604 118.85261126421891 l 21.462249799424477 43.73841400707367 a69.72039640958471,69.72039640958471 0 0,0 -1.0819520938993197,0.5194027551921407 l -20.706185037524925 -44.10137103876537" fill="red" stroke="none" /><path d="M 108.92500713936063 119.00905698771935 l 20.18467140669889 42.990617604796164 a68.49330649510748,68.49330649510748 0 0,0 -1.0715353933025755,0.4918893435730158 l -19.441668017628896 -43.33169401870325" fill="red" stroke="none" /><path d="M 108.2653958097858 119.30500536409082 l 14.422157261333506 33.68499581861162 a57.642564912551045,57.642564912551045 0 0,0 -0.9154971688621909,0.38267789083341464 l -13.840188632973854 -33.928258752465005" fill="red" stroke="none" /><path d="M 107.93186726928326 119.44442032107085 l 9.260144887983117 22.7006004164048 a45.51667886586023,45.51667886586023 0 0,0 -0.7280044342672886,0.28968798869418155 l -8.868019377673962 -22.85663524950505" fill="red" stroke="none" /><path d="M 107.59598834532513 119.57807347666477 l 13.254162751941774 34.161581144195736 a57.642686262423915,57.642686262423915 0 0,0 -0.9281289895570543,0.35093896700977933 l -12.664163541624445 -34.384668361312144" fill="red" stroke="none" /><path d="M 107.2578585660854 119.70592522655815 l 12.596346545122246 34.200537374190574 a57.446463517990594,57.446463517990594 0 0,0 -0.9308527545795119,0.3337706796375359 l -12.005774229913 -34.41229559486807" fill="red" stroke="none" /><path d="M 106.91757812671514 119.82793768551818 l 15.999544343019421 45.85968707818799 a69.57052931658833,69.57052931658833 0 0,0 -1.1340998990783888,0.3847482607021493 l -15.207774711003806 -46.12829832578826" fill="red" stroke="none" /><path d="M 106.57524785965236 119.94407469862006 l 14.829415525860005 44.98065735278075 a68.36212728253332,68.36212728253332 0 0,0 -1.1207438679786905,0.3588267946019265 l -14.052950312790376 -45.22925699404239" fill="red" stroke="none" /><path d="M 106.2309692047433 120.05430185196036 l 10.573864485251724 34.031859757473676 a56.636695816318664,56.636695816318664 0 0,0 -0.9334941803353961,0.28125413896552803 l -9.986495330476082 -34.208829265544935" fill="red" stroke="none" /><path d="M 105.88484417918355 120.15858648285463 l 6.841862486372295 23.436861272080396 a45.41510902226673,45.41510902226673 0 0,0 -0.75230956790371,0.21261019850675017 l -6.4374217503639795 -23.551160263925667" fill="red" stroke="none" /><path d="M 105.53697534728816 120.25689768951611 l 9.572975608859773 35.02251235196147 a57.30727521380691,57.30727521380691 0 0,0 -0.9537828754122525,0.2519027261940325 l -8.968702290636022 -35.18210642745908" fill="red" stroke="none" /><path d="M 104.83641907484287 120.43548508189849 l 14.002651735451952 59.16587793958807 a81.80029085445719,81.80029085445719 0 0,0 -1.3729978238095,0.31248983460190594 l -12.982133762249589 -59.39814450776766" fill="red" stroke="none" /><path d="M 104.48393922423573 120.51570834832081 l 7.815688479423918 35.759714252710964 a57.60385430310501,57.60385430310501 0 0,0 -0.9705112146198389,0.2033800611273777 l -7.198985803374701 -35.88895029456488" fill="red" stroke="none" /><path d="M 104.13013068566511 120.58985236759428 l 7.171706702286126 35.75295637406161 a57.46515139841282,57.46515139841282 0 0,0 -0.9715233228560315,0.1861947570703549 l -6.5552157648583895 -35.871108329480435" fill="red" stroke="none" /><path d="M 103.7750983002368 120.6578951692458 l 6.574674434731711 35.977589043466295 a57.57339548501425,57.57339548501425 0 0,0 -0.976420191325441,0.16976316608592226 l -5.95440527193422 -36.085430788073225" fill="red" stroke="none" /><path d="M 103.41894727170886 120.7198165907248 l 5.9505132197006505 36.06184381757257 a57.549489560058554,57.549489560058554 0 0,0 -0.9787911304042368,0.15286704471286341 l -5.328886225687897 -36.15892916963254" fill="red" stroke="none" /><path d="M 103.06178313531738 120.77559828337769 l 5.325117677603554 36.13335784806871 a57.523642037136916,57.523642037136916 0 0,0 -0.9808367402048608,0.13593503478766245 l -4.702352346211862 -36.21966744834898" fill="red" stroke="none" /><path d="M 102.34483914955558 120.86867818915974 l 4.086215091675853 36.36663426403171 a57.59548116187687,57.59548116187687 0 0,0 -0.9861646480298568,0.10221999795226765 l -3.459617847040393 -36.43158363043973" fill="red" stroke="none" /><path d="M 101.98527174616119 120.90594882070398 l 3.9924588794424403 42.04267811889361 a63.2318187071423,63.2318187071423 0 0,0 -1.0844428003292372,0.09357028790973551 l -3.268171761371661 -42.105172659082015" fill="red" stroke="none" /><path d="M 101.62511606390274 120.93702456842531 l 3.7621956505795997 48.46988133157885 a69.61567146929656,69.61567146929656 0 0,0 -1.1955239792956236,0.08245033319294383 l -2.9273089105050456 -48.52746000928808" fill="red" stroke="none" /><path d="M 101.26447882468166 120.96189622390904 l 1.4835072306974342 24.592839366153168 a45.63754333924031,45.63754333924031 0 0,0 -0.7845570320839372,0.04055263702898143 l -1.0599621302000173 -24.614731809944352" fill="red" stroke="none" /><path d="M 100.90346689309514 120.98055641714683 l 1.5681857509073107 36.416840363415304 a57.45058941366823,57.45058941366823 0 0,0 -0.9883680352120954,0.034041393553047444 l -0.9410973640205631 -36.43843855539444" fill="red" stroke="none" /><line stroke="#e1ed5e" stroke-width="0.3" x1="102.19456741930631" x2="102.32365962044197" y1="184.97166512339345" y2="189.96999836594603" /><path d="M 102.22038585953345 185.97133177190398 a86.0,86.0 0 0,1 -42.740103519485714,-10.115201625700543" fill="none" id="id19" stroke="none" /><text fill="#e1ed5e" style="font-size:6.75px; font-family:Arial;" text-anchor="middle"><textPath startOffset="22.20632615414155" xlink:href="#id19">July</textPath></text><path d="M 100.18074693466247 120.99922214144158 l 0.3149636145466229 36.59254814300041 a57.59390361352955,57.59390361352955 0 0,0 -0.9914210984181315,0.0 l 0.3149636145465977 -36.59254814300041" fill="red" stroke="none" /><path d="M 99.81925306533755 120.99922214144158 l -0.21151422963302477 24.573773837076093 a45.57468410509284,45.57468410509284 0 0,0 -0.7844060931423074,-0.013504262254241015 l 0.634480012668 -24.566492097542692" fill="red" stroke="none" /><path d="M 99.09653310690486 120.98055641714683 l -1.572304916744339 36.51249676421542 a57.5463344633639,57.5463344633639 0 0,0 -0.989281588587734,-0.05113455815301577 l 2.2005745737455618 -36.4800223993002" fill="red" stroke="none" /><path d="M 98.73552117531835 120.96189622390904 l -1.475571966018295 24.46129252529968 a45.50575737730179,45.50575737730179 0 0,0 -0.7814795575816169,-0.05389540571494119 l 1.896414284378842 -24.432268775068454" fill="red" stroke="none" /><path d="M 98.37488393609728 120.93702456842531 l -2.8327842734831874 36.49590035343884 a57.605674551198085,57.605674551198085 0 0,0 -0.9879529057116884,-0.085244733793831 l 3.4605814969364173 -36.441731367366344" fill="red" stroke="none" /><path d="M 98.01472825383883 120.90594882070398 l -3.335410258653241 35.12361282443526 a56.28162608829648,56.28162608829648 0 0,0 -0.963668483399222,-0.09988817850702582 l 3.9395113386580567 -35.06099527747248" fill="red" stroke="none" /><path d="M 97.65516085044442 120.86867818915974 l -4.080375125152276 36.31465953389345 a57.54317936666923,57.54317936666923 0 0,0 -0.983365193577748,-0.11907183023052578 l 4.704867741781414 -36.23904217493757" fill="red" stroke="none" /><path d="M 97.2962882734958 120.8252237178851 l -3.945077667594504 30.38679168592955 a51.641813699052314,51.641813699052314 0 0,0 -0.8805455707088986,-0.12203559255073426 l 4.467551829490234 -30.31438152788621" fill="red" stroke="none" /><path d="M 96.93821686468263 120.77559828337769 l -6.893452925680826 46.77522947897314 a68.28045881809075,68.28045881809075 0 0,0 -1.161301481246552,-0.1813714079994924 l 7.697590270535896 -46.649639763626546" fill="red" stroke="none" /><path d="M 96.58105272829116 120.7198165907248 l -8.596950685645286 52.100025911497966 a73.80454773094999,73.80454773094999 0 0,0 -1.251693599258001,-0.21762297652927007 l 9.492493256375337 -51.94432435644769" fill="red" stroke="none" /><path d="M 95.86986931433489 120.58985236759428 l -7.139558890242097 35.5926905727336 a57.30169311965482,57.30169311965482 0 0,0 -0.965420395251754,-0.20231323043169094 l 7.751170746923238 -35.46452136157537" fill="red" stroke="none" /><path d="M 95.51606077576429 120.51570834832081 l -7.831494028349757 35.83203058347109 a57.67787772555666,57.67787772555666 0 0,0 -0.9681090344781403,-0.22033846435480664 l 8.447123212220761 -35.6919153855386" fill="red" stroke="none" /><path d="M 95.16358092515715 120.4354850818985 l -8.444859459552632 35.68235027483111 a57.66804838585407,57.66804838585407 0 0,0 -0.96400852195827,-0.2369298404865298 l 9.05782126625411 -35.53169917603055" fill="red" stroke="none" /><path d="M 94.81253420990036 120.34920634021253 l -9.057731337923519 35.53134640837307 a57.66768433623546,57.66768433623546 0 0,0 -0.9597812769735463,-0.2534869585649941 l 9.668003057708555 -35.37016810050449" fill="red" stroke="none" /><path d="M 94.11515582081647 120.15858648285463 l -13.407120520050904 45.92621151219644 a68.84315817859618,68.84315817859618 0 0,0 -1.1346828516276573,-0.3418706352500501 l 14.19567834611881 -45.68862550784066" fill="red" stroke="none" /><path d="M 93.76903079525671 120.05430185196036 l -7.239126963871944 23.299045863946677 a45.3977559904461,45.3977559904461 0 0,0 -0.7442608746800232,-0.23828882908876794 l 7.6391091836429075 -23.170984188198204" fill="red" stroke="none" /><path d="M 93.08242187328487 119.8279376855182 l -11.872382068293161 34.02995203186299 a57.0415189922182,57.0415189922182 0 0,0 -0.9242911021438001,-0.33141790452649955 l 12.456392731066689 -33.82054658629654" fill="red" stroke="none" /><path d="M 92.7421414339146 119.70592522655815 l -8.486603005080976 23.042108457041767 a45.55526812543339,45.55526812543339 0 0,0 -0.7335044168789958,-0.27734860698562736 l 8.881977642720255 -22.892611599949507" fill="red" stroke="none" /><path d="M 92.40401165467489 119.57807347666478 l -13.243847681860363 34.134994847483654 a57.614169042299096,57.614169042299096 0 0,0 -0.9214945286985672,-0.3666816904488373 l 13.829463286600786 -33.90196631262875" fill="red" stroke="none" /><line stroke="#e1ed5e" stroke-width="0.3" x1="58.666819895761336" x2="56.23545636021788" y1="174.27360380694188" y2="178.64263932499728" /><path d="M 58.180547188652646 175.14741091055294 a86.0,86.0 0 0,1 -31.652253787137756,-30.449443065178592" fill="none" id="id20" stroke="none" /><text fill="#e1ed5e" style="font-size:6.75px; font-family:Arial;" text-anchor="middle"><textPath startOffset="22.20632615414155" xlink:href="#id20">August</textPath></text><line stroke="#e1ed5e" stroke-width="0.3" x1="26.63291911575756" x2="22.317208475507996" y1="142.92168965132927" y2="145.44649492493687" /><path d="M 25.769776987707644 143.4266507060508 a86.0,86.0 0 0,1 -11.730757126820373,-40.83630448921669" fill="none" id="id21" stroke="none" /><text fill="#e1ed5e" style="font-size:6.75px; font-family:Arial;" text-anchor="middle"><textPath startOffset="21.46611528233685" xlink:href="#id21">September</textPath></text><line stroke="#e1ed5e" stroke-width="0.3" x1="15.007084014347285" x2="10.007500721073583" y1="101.09737516637583" y2="101.16192664675087" /><path d="M 14.007167355692545 101.11028546245083 a86.0,86.0 0 0,1 10.666146001902534,-42.60595125391555" fill="none" id="id22" stroke="none" /><text fill="#e1ed5e" style="font-size:6.75px; font-family:Arial;" text-anchor="middle"><textPath startOffset="22.20632615414155" xlink:href="#id22">October</textPath></text><line stroke="#e1ed5e" stroke-width="0.3" x1="26.266209847984243" x2="21.928928074336255" y1="57.711370442889674" y2="55.22380399835377" /><path d="M 25.398753493254645 57.213857153982495 a86.0,86.0 0 0,1 29.58750427330803,-30.492523968695096" fill="none" id="id23" stroke="none" /><text fill="#e1ed5e" style="font-size:6.75px; font-family:Arial;" text-anchor="middle"><textPath startOffset="21.46611528233685" xlink:href="#id23">November</textPath></text><line stroke="#e1ed5e" stroke-width="0.3" x1="56.762969772571076" x2="54.21961505331055" y1="26.818313649435495" y2="22.513508569990535" /><path d="M 56.25429882871897 25.957352633546506 a86.0,86.0 0 0,1 42.265352541879196,-11.944610805530505" fill="none" id="id24" stroke="none" /><text fill="#e1ed5e" style="font-size:6.75px; font-family:Arial;" text-anchor="middle"><textPath startOffset="22.20632615414155" xlink:href="#id24">December</textPath></text></svg>