<?xml version="1.0" encoding="utf-8" ?>
<svg baseProfile="full" height="200mm" version="1.1" viewBox="0,0,200,200" width="200mm" xmlns="http://www.w3.org/2000/svg" xmlns:ev="http://www.w3.org/2001/xml-events" xmlns:xlink="http://www.w3.org/1999/xlink"><defs /><rect fill="#1a1a1a" height="200" width="200" x="0" y="0" /><rect fill="#1a1a1a" height="200" width="180" x="10" y="0" /><text alignment-baseline="middle" fill="#e1ed5e" style="dominant-baseline: central; font-size:9.0px; font-family:Arial;" text-anchor="middle" x="100.0" y="100.0">2026</text><line stroke="#e1ed5e" stroke-width="0.3" x1="100.0" x2="100.0" y1="15.0" y2="10.0" /><path d="M 100.0 14.0 a86.0,86.0 0 0,1 42.46469731375804,11.215312516191453" fill="none" id="id13" stroke="none" /><text fill="#e1ed5e" style="font-size:6.75px; font-family:Arial;" text-anchor="middle"><textPath startOffset="22.20632615414155" xlink:href="#id13">January</textPath></text><path d="M 100.0 79.0 l 0.0 -48.22560626531407 a69.22560626531407,69.22560626531407 0 0,0 1.1916050157484321,0.010256520573676405 l -0.8301245364759037 48.21846112134895" fill="red" stroke="none" /><path d="M 100.36148047927253 79.00311137660856 l 0.7132820269035068 -41.43156860392606 a62.43770804752279,62.43770804752279 0 0,0 1.0744440308501806,0.02774971939819973 l -1.4263526929485553 41.4131520923855" fill="red" stroke="none" /><path d="M 100.72285384407766 79.0124445844662 l 1.4611004922270059 -42.42203012339999 a63.44718429341388,63.44718429341388 0 0,0 1.0911682031738112,0.04698799816195177 l -2.1911095277901484 42.390594398713844" fill="red" stroke="none" /><path d="M 101.08401301168833 79.027996857942 l 1.3148796492401658 -25.438495514315203 a46.472454976382245,46.472454976382245 0 0,0 0.79852502090815,0.04816920993842187 l -1.7525667189879277 25.412093034996477" fill="red" stroke="none" /><path d="M 101.44485096284872 79.0497635885617 l 2.7162298150877153 -39.38513953140734 a60.47869197829124,60.47869197829124 0 0,0 1.0379578058813925,0.08056550244177672 l -3.3937778103314487 39.3325487667771" fill="red" stroke="none" /><path d="M 101.80526077348638 79.07773832637324 l 3.3527388214783795 -38.85692304210866 a60.00129902843498,60.00129902843498 0 0,0 1.0282361839180139,0.0976434153656539 l -4.021100132486637 38.79345408222783" fill="red" stroke="none" /><path d="M 102.16513564639614 79.11191278185805 l 4.065141235913319 -39.21833942882999 a60.42846079702889,60.42846079702889 0 0,0 1.0337102463785726,0.11614939063386896 l -4.739618185801616 39.142554084725525" fill="red" stroke="none" /><path d="M 102.52436894288641 79.15227682838746 l 4.784439543814848 -39.51271521615156 a60.80132567517211,60.80132567517211 0 0,0 1.0379228448450923,0.13475217384599705 l -5.463877117167787 39.42450471914143" fill="red" stroke="none" /><path d="M 102.88285421437855 79.19881850522331 l 5.311992225956228 -38.3285820836338 a59.69492816830745,59.69492816830745 0 0,0 1.0166075249557118,0.14982152295640708 l -5.970968731340596 38.231466076516426" fill="red" stroke="none" /><path d="M 103.2404852339499 79.25152402106235 l 8.11602385209498 -51.966021685714296 a73.5959813389569,73.5959813389569 0 0,0 1.2499779566263947,0.20625707306777424 l -9.00933101486025 51.818618349706895" fill="red" stroke="none" /><path d="M 103.59715602781102 79.31037775812273 l 10.791468083433088 -62.06886672563182 a84.0,84.0 0 0,0 1.4224195155883965,0.2599380745970459 l -11.858282720124386 61.87391316968404" fill="red" stroke="none" /><path d="M 103.95276090670814 79.375362276772 l 7.199954662213132 -37.56778111213427 a59.2515035629602,59.2515035629602 0 0,0 1.0000344358234,0.20059749999065077 l -7.845555507503658 37.43827965606641" fill="red" stroke="none" /><path d="M 104.307194497241 79.44645832069477 l 8.17085535442108 -38.99058103604163 a60.837523602139235,60.837523602139235 0 0,0 1.0231054335512828,0.2236112205409067 l -8.840803512125891 38.84415631740485" fill="red" stroke="none" /><path d="M 104.66035177308747 79.52364482259891 l 8.800114120782482 -38.66537787541871 a60.6541732329362,60.6541732329362 0 0,0 1.0160334014389854,0.24046227939799256 l -9.46437120918399 38.50816968387985" fill="red" stroke="none" /><path d="M 105.01212808612495 79.60689891045804 l 9.416979392298744 -38.3153441822265 a60.455609242254226,60.455609242254226 0 0,0 1.0084315498425287,0.25707165571995255 l -10.075119830826297 38.14756953033768" fill="red" stroke="none" /><path d="M 105.36241919743992 79.69619591428918 l 10.08563571349736 -38.187385966479695 a60.4967909417748,60.4967909417748 0 0,0 1.0045408903137505,0.27457897207471915 l -10.741474493034822 38.00812045357868" fill="red" stroke="none" /><path d="M 105.71112130821622 79.79150937346287 l 10.724246930366888 -37.94716166459408 a60.43344456958233,60.43344456958233 0 0,0 0.9986188782054333,0.2915242344808378 l -11.375856026295748 37.75693910119453" fill="red" stroke="none" /><line stroke="#e1ed5e" stroke-width="0.3" x1="143.23703022742887" x2="145.7803849466894" y1="26.81831364943548" y2="22.513508569990506" /><path d="M 143.74570117128098 25.957352633546492 a86.0,86.0 0 0,1 28.547481713284135,27.462654790039103" fill="none" id="id14" stroke="none" /><text fill="#e1ed5e" style="font-size:6.75px; font-family:Arial;" text-anchor="middle"><textPath startOffset="19.985693538727396" xlink:href="#id14">February</textPath></text><line stroke="#e1ed5e" stroke-width="0.3" x1="172.23445277983987" x2="176.4835382374775" y1="55.19839476539836" y2="52.563006222186495" /><path d="M 173.08426987136738 54.67131705675599 a86.0,86.0 0 0,1 12.851231095245387,41.99856678651699" fill="none" id="id15" stroke="none" /><text fill="#e1ed5e" style="font-size:6.75px; font-family:Arial;" text-anchor="middle"><textPath startOffset="22.20632615414155" xlink:href="#id15">March</textPath></text><line stroke="#e1ed5e" stroke-width="0.3" x1="184.98032266829074" x2="189.97916517819016" y1="98.17113171792111" y2="98.06355123074" /><path d="M 185.9800911702706 98.14961562048488 a86.0,86.0 0 0,1 -9.607161424134198,41.387399972396054" fill="none" id="id16" stroke="none" /><text fill="#e1ed5e" style="font-size:6.75px; font-family:Arial;" text-anchor="middle"><textPath startOffset="21.466115282336823" xlink:href="#id16">April</textPath></text><line stroke="#e1ed5e" stroke-width="0.3" x1="174.80103733775053" x2="179.2010983576182" y1="140.37084112569926" y2="142.7455964860345" /><path d="M 175.68104954172406 140.8457921977663 a86.0,86.0 0 0,1 -30.038265399797805,32.042727171017184" fill="none" id="id17" stroke="none" /><text fill="#e1ed5e" style="font-size:6.75px; font-family:Arial;" text-anchor="middle"><textPath startOffset="22.206326154141568" xlink:href="#id17">May</textPath></text><line stroke="#e1ed5e" stroke-width="0.3" x1="143.8653032363475" x2="146.44561519142675" y1="172.8068346515853" y2="177.08958963109032" /><path d="M 144.38136562736335 173.6633856474863 a86.0,86.0 0 0,1 -40.68145358897372,12.25698825130547" fill="none" id="id18" stroke="none" /><text fill="#e1ed5e" style="font-size:6.75px; font-family:Arial;" text-anchor="middle"><textPath startOffset="21.466115282336833" xlink:href="#id18">June</textPath></text><line stroke="#e1ed5e" stroke-width="0.3" x1="102.19456741930631" x2="102.32365962044197" y1="184.97166512339345" y2="189.96999836594603" /><path d="M 102.22038585953345 185.97133177190398 a86.0,86.0 0 0,1 -42.740103519485714,-10.115201625700543" fill="none" id="id19" stroke="none" /><text fill="#e1ed5e" style="font-size:6.75px; font-family:Arial;" text-anchor="middle"><textPath startOffset="22.20632615414155" xlink:href="#id19">July</textPath></text><line stroke="#e1ed5e" stroke-width="0.3" x1="58.666819895761336" x2="56.23545636021788" y1="174.27360380694188" y2="178.64263932499728" /><path d="M 58.180547188652646 175.14741091055294 a86.0,86.0 0 0,1 -31.652253787137756,-30.449443065178592" fill="none" id="id20" stroke="none" /><text fill="#e1ed5e" style="font-size:6.75px; font-family:Arial;" text-anchor="middle"><textPath startOffset="22.20632615414155" xlink:href="#id20">August</textPath></text><line stroke="#e1ed5e" stroke-width="0.3" x1="26.63291911575756" x2="22.317208475507996" y1="142.92168965132927" y2="145.44649492493687" /><path d="M 25.769776987707644 143.4266507060508 a86.0,86.0 0 0,1 -11.730757126820373,-40.83630448921669" fill="none" id="id21" stroke="none" /><text fill="#e1ed5e" style="font-size:6.75px; font-family:Arial;" text-anchor="middle"><textPath startOffset="21.46611528233685" xlink:href="#id21">September</textPath></text><line stroke="#e1ed5e" stroke-width="0.3" x1="15.007084014347285" x2="10.007500721073583" y1="101.09737516637583" y2="101.16192664675087" /><path d="M 14.007167355692545 101.11028546245083 a86.0,86.0 0 0,1 10.666146001902534,-42.60595125391555" fill="none" id="id22" stroke="none" /><text fill="#e1ed5e" style="font-size:6.75px; font-family:Arial;" text-anchor="middle"><textPath startOffset="22.20632615414155" xlink:href="#id22">October</textPath></text><line stroke="#e1ed5e" stroke-width="0.3" x1="26.266209847984243" x2="21.928928074336255" y1="57.711370442889674" y2="55.22380399835377" /><path d="M 25.398753493254645 57.213857153982495 a86.0,86.0 0 0,1 29.58750427330803,-30.492523968695096" fill="none" id="id23" stroke="none" /><text fill="#e1ed5e" style="font-size:6.75px; font-family:Arial;" text-anchor="middle"><textPath startOffset="21.46611528233685" xlink:href="#id23">November</textPath></text><line stroke="#e1ed5e" stroke-width="0.3" x1="56.762969772571076" x2="54.21961505331055" y1="26.818313649435495" y2="22.513508569990535" /><path d="M 56.25429882871897 25.957352633546506 a86.0,86.0 0 0,1 42.265352541879196,-11.944610805530505" fill="none" id="id24" stroke="none" /><text fill="#e1ed5e" style="font-size:6.75px; font-family:Arial;" text-anchor="middle"><textPath startOffset="22.20632615414155" xlink:href="#id24">December</textPath></text></svg>