<?xml version="1.0" encoding="utf-8" ?>
<svg baseProfile="full" height="200mm" version="1.1" viewBox="0,0,200,200" width="200mm" xmlns="http://www.w3.org/2000/svg" xmlns:ev="http://www.w3.org/2001/xml-events" xmlns:xlink="http://www.w3.org/1999/xlink"><defs /><rect fill="#1a1a1a" height="200" width="200" x="0" y="0" /><rect fill="#1a1a1a" height="200" width="180" x="10" y="0" /><text alignment-baseline="middle" fill="#e1ed5e" style="dominant-baseline: central; font-size:9.0px; font-family:Arial;" text-anchor="middle" x="100.0" y="100.0">2026</text><line stroke="#e1ed5e" stroke-width="0.3" x1="100.0" x2="100.0" y1="15.0" y2="10.0" /><path d="M 100.0 14.0 a86.0,86.0 0 0,1 42.46469731375804,11.215312516191453" fill="none" id="id13" stroke="none" /><text fill="#e1ed5e" style="font-size:6.75px; font-family:Arial;" text-anchor="middle"><textPath startOffset="22.20632615414155" xlink:href="#id13">January</textPath></text><path d="M 100.0 79.0 l 0.0 -33.8954936922226 a54.8954936922226,54.8954936922226 0 0,0 0.9449356842746041,0.008133359761393922 l -0.5834552050020756 33.890471709069764" fill="red" stroke="none" /><path d="M 100.36148047927253 79.00311137660856 l 0.5013321410761142 -29.120286524698976 a50.12460164871342,50.12460164871342 0 0,0 0.8625569503482118,0.022277301236612618 l -1.0025157266191937 29.107342431320003" fill="red" stroke="none" /><path d="M 100.72285384407766 79.0124445844662 l 1.0269383083651171 -29.816434998209502 a50.834114672495986,50.834114672495986 0 0,0 0.8742479305401866,0.03764695491843338 l -1.5400270712946351 29.794340316766874" fill="red" stroke="none" /><path d="M 101.08401301168833 79.027996857942 l 0.9241666058412519 -17.879513209256878 a38.903381706128684,38.903381706128684 0 0,0 0.6684674546690474,0.04032378237107187 l -1.2317961093499112 17.860956157505502" fill="red" stroke="none" /><path d="M 101.44485096284872 79.0497635885617 l 1.9091092407925172 -27.681948490387327 a48.74770207274355,48.74770207274355 0 0,0 0.8366261939551672,0.06493829449523073 l -2.385325624110026 27.644984933703633" fill="red" stroke="none" /><path d="M 101.80526077348638 79.07773832637324 l 2.356481263291593 -27.31069014720236 a48.41216518738971,48.41216518738971 0 0,0 0.8296343711475227,0.07878378019620422 l -2.82624076152936 27.266080822490977" fill="red" stroke="none" /><path d="M 102.16513564639614 79.11191278185805 l 2.857195166439999 -27.564712601352195 a48.712396955410995,48.712396955410995 0 0,0 0.8332911875350054,0.09362997415556058 l -3.3312530574847297 27.511446673726034" fill="red" stroke="none" /><path d="M 102.52436894288641 79.15227682838746 l 3.3627558663754304 -27.77161539459874 a48.97446601174643,48.97446601174643 0 0,0 0.8360297497335325,0.1085406557298892 l -3.840300344616809 27.709616415704716" fill="red" stroke="none" /><path d="M 102.88285421437855 79.19881850522331 l 3.733547650961029 -26.93934432053085 a48.19683162579999,48.19683162579999 0 0,0 0.820794382592536,0.12096375584022447 l -4.19671101398222 26.871086080529658" fill="red" stroke="none" /><path d="M 103.2404852339499 79.25152402106235 l 5.704368624650654 -36.5244544685987 a57.96722326108141,57.96722326108141 0 0,0 0.9845340732597603,0.1624565579013218 l -6.33223190404929 36.42085164775775" fill="red" stroke="none" /><path d="M 103.59715602781102 79.31037775812273 l 7.58481161106551 -43.62526556965737 a65.27971503068292,65.27971503068292 0 0,0 1.105418340853483,0.2020081361347566 l -8.334625073021893 43.488241952171876" fill="red" stroke="none" /><path d="M 103.95276090670814 79.375362276772 l 5.060506994867214 -26.404613364767904 a47.88516948036556,47.88516948036556 0 0,0 0.8081958358191045,0.16211648155363778 l -5.514269240153443 26.31359292713706" fill="red" stroke="none" /><path d="M 104.307194497241 79.44645832069477 l 5.742907089693573 -27.404632018359887 a48.999907819536986,48.999907819536986 0 0,0 0.8240320934417108,0.18010149896261235 l -6.213781907288812 27.301717021301403" fill="red" stroke="none" /><path d="M 104.66035177308747 79.52364482259891 l 6.185183261995828 -27.176062125035127 a48.871039532249995,48.871039532249995 0 0,0 0.8186511476649363,0.19374827709452488 l -6.652058096623287 27.065567935799734" fill="red" stroke="none" /><path d="M 105.01212808612495 79.60689891045804 l 6.618748633980984 -26.930040026849586 a48.73147831125391,48.73147831125391 0 0,0 0.812866842555749,0.20721785740270351 l -7.081324365221758 26.812119173278013" fill="red" stroke="none" /><path d="M 105.36241919743992 79.69619591428918 l 7.088715480903835 -26.840104259720967 a48.760422976638836,48.760422976638836 0 0,0 0.8096601149666014,0.2213106945084057 l -7.5496734850941465 26.71410702438627" fill="red" stroke="none" /><path d="M 105.71112130821622 79.79150937346287 l 7.537565047544793 -26.67126197986478 a48.71589981300534,48.71589981300534 0 0,0 0.8049949422627772,0.23500009806126007 l -7.995550207530997 26.53756355288482" fill="red" stroke="none" /><path d="M 106.0581310904928 79.89281104454417 l 13.324436699822693 -44.224359368650084 a67.18803497590139,67.18803497590139 0 0,0 1.1044901167859535,0.34317045566779397 l -14.083712189319364 43.988448778099766" fill="red" stroke="none" /><path d="M 106.74666289553966 80.11325718540242 l 8.958206282031329 -26.40557964273678 a48.88376043614527,48.88376043614527 0 0,0 0.7945193879007684,0.2771922136414466 l -9.41140767399537 26.247466575923124" fill="red" stroke="none" /><path d="M 107.08798089147638 80.2323363322302 l 9.365298182563027 -26.118871855863624 a48.747148989965496,48.747148989965496 0 0,0 0.7874235478854188,0.2900147380268813 l -9.81350405622102 25.95379385003042" fill="red" stroke="none" /><path d="M 107.4271985657038 80.35727306442388 l 9.96194109288097 -26.346365578447806 a49.16684663804683,49.16684663804683 0 0,0 0.7890502400429192,0.3061392345056744 l -10.413974497923556 26.170983640051585" fill="red" stroke="none" /><path d="M 107.76421540070413 80.48803036053334 l 10.257370558893314 -25.777427930159526 a48.743277410519106,48.743277410519106 0 0,0 0.7769124380204152,0.3169220905781065 l -10.699566866502117 25.597044953397837" fill="red" stroke="none" /><path d="M 108.09893153111575 80.62456947434976 l 16.278669647297498 -38.94417820294526 a63.209526192420135,63.209526192420135 0 0,0 1.0002643912437954,0.42826101066218447 l -16.94661779633161 38.658197664320284" fill="red" stroke="none" /><path d="M 108.43124777332544 80.76684994638697 l 11.895211787125906 -27.13505751131106 a50.62781479628118,50.62781479628118 0 0,0 0.7951408867983646,0.35675653810590274 l -12.36053479239105 26.926280642688628" fill="red" stroke="none" /><path d="M 108.76106565485865 80.91482961587045 l 11.570972083514938 -25.2062913832201 a48.735257710237306,48.735257710237306 0 0,0 0.7593922952723291,0.35654486496934473 l -12.003142590086865 25.003381535610753" fill="red" stroke="none" /><path d="M 109.08828744355905 81.06846463323043 l 12.027158449696117 -25.053408242884206 a48.7907503489689,48.7907503489689 0 0,0 0.7540000186838671,0.3699845345820449 l -12.456629735390417 24.842668548167328" fill="red" stroke="none" /><path d="M 109.41281617654863 81.2277094730956 l 12.44630023832642 -24.822068090637387 a48.767705233216574,48.767705233216574 0 0,0 0.747166557292876,0.38272773075194166 l -12.871727283208052 24.604147834572945" fill="red" stroke="none" /><path d="M 109.73455568895987 81.39251694778311 l 12.860104647428876 -24.581931309731612 a48.742632147278044,48.742632147278044 0 0,0 0.7400871288289517,0.39532891338004456 l -13.28133682278614 24.356923669849813" fill="red" stroke="none" /><path d="M 110.05341064243156 81.56283822128135 l 13.307241078218672 -24.404430030144212 a48.7967420790645,48.7967420790645 0 0,0 0.733986445454355,0.40846266222508537 l -13.725351612745062 24.171751970358947" fill="red" stroke="none" /><path d="M 110.36928655335952 81.73862282372117 l 12.200049560677892 -21.485538609659958 a45.70768258315995,45.70768258315995 0 0,0 0.6808339268309541,0.39438295520970595 l -12.568080219974174 21.272351497060203" fill="red" stroke="none" /><line stroke="#e1ed5e" stroke-width="0.3" x1="143.23703022742887" x2="145.7803849466894" y1="26.81831364943548" y2="22.513508569990506" /><path d="M 143.74570117128098 25.957352633546492 a86.0,86.0 0 0,1 28.547481713284135,27.462654790039103" fill="none" id="id14" stroke="none" /><text fill="#e1ed5e" style="font-size:6.75px; font-family:Arial;" text-anchor="middle"><textPath startOffset="19.985693538727396" xlink:href="#id14">February</textPath></text><path d="M 110.68208982089419 81.91981866633111 l 23.136275389200986 -39.15975819677558 a66.48377623851036,66.48377623851036 0 0,0 0.9802809097400607,0.590608279680424 l -23.806918365158683 38.755703307636544" fill="red" stroke="none" /><path d="M 110.99172775467656 82.1063720568725 l 14.491784444694492 -23.591432109027547 a48.686955147620424,48.686955147620424 0 0,0 0.7103214565019784,0.44480323089652324 l -14.895725053568734 23.338484536808078" fill="red" stroke="none" /><path d="M 111.2981086023043 82.29822771554956 l 15.181582366919457 -23.78636313710293 a49.21828333640601,49.21828333640601 0 0,0 0.7102267992963388,0.46195126650603807 l -15.588776192000077 23.521512946437365" fill="red" stroke="none" /><path d="M 111.60114157652 82.49532879139004 l 15.551296317188529 -23.46496050449115 a49.15043851563117,49.15043851563117 0 0,0 0.701201935578238,0.47345467700042004 l -15.952902947173309 23.193793915192057" fill="red" stroke="none" /><path d="M 111.90073688211348 82.69761687909136 l 15.713074477343607 -22.84510928251763 a48.727238009955485,48.727238009955485 0 0,0 0.6869818013735108,0.4812746539768596 l -16.10398741830077 22.571249785776832" fill="red" stroke="none" /><path d="M 112.48926042617603 83.11751280151076 l 21.94230398164654 -29.660736779826212 a57.8947694171561,57.8947694171561 0 0,0 0.7960636831654936,0.5995786620293179 l -22.449613818570416 29.278641528291047" fill="red" stroke="none" /><path d="M 112.77801427241765 83.33499621200491 l 27.881618841142718 -36.363027438939135 a66.82198635729146,66.82198635729146 0 0,0 0.9067662243527979,0.7077454209948816 l -28.503417620654947 35.87770362872103" fill="red" stroke="none" /><path d="M 113.06298171725822 83.55741782278167 l 17.213807318540862 -21.667292165307973 a48.67285153678,48.67285153678 0 0,0 0.6515130071030449,0.5268115420513492 l -17.5842237242084 21.367774525992495" fill="red" stroke="none" /><path d="M 113.34407831869373 83.78471172551755 l 17.710217352622415 -21.520877869414814 a48.871131712713,48.871131712713 0 0,0 0.644965038783651,0.5401396717797571 l -18.078039928365182 21.212837040241237" fill="red" stroke="none" /><path d="M 113.6212207817346 84.01681056812373 l 12.072275828520072 -14.16565185551052 a39.61197292528115,39.61197292528115 0 0,0 0.515155973987179,0.4467381842104174 l -12.314325601154014 13.955748677880432" fill="red" stroke="none" /><path d="M 113.89432698308785 84.25364557470407 l 18.395434139271686 -20.847431193805622 a48.80301035054913,48.80301035054913 0 0,0 0.6251177884065184,0.5612369226047549 l -18.751562915274196 20.52769526243157" fill="red" stroke="none" /><path d="M 114.16331599549186 84.49514656593476 l 18.667881388546547 -20.436087491520865 a48.67893544733862,48.67893544733862 0 0,0 0.6137999205578494,0.5704601318266025 l -19.016889192899246 20.111722773619622" fill="red" stroke="none" /><path d="M 114.42810811169701 84.74124197986012 l 25.42997279351395 -26.894018142294787 a58.01312913166004,58.01312913166004 0 0,0 0.7196853442511428,0.6923367309636485 l -25.889141381377513 26.452298324568837" fill="red" stroke="none" /><path d="M 114.68862486808459 84.99185889309783 l 32.28526398814821 -32.98755342717799 a67.15752324264531,67.15752324264531 0 0,0 0.8192072954379369,0.8156893589681052 l -32.84830708375347 32.42692821755977" fill="red" stroke="none" /><path d="M 114.94478906791727 85.2469230424477 l 26.57339022739921 -26.232506144198393 a58.34018541441703,58.34018541441703 0 0,0 0.6993480729045433,0.7207396635592747 l -27.02100256400686 25.771202285089004" fill="red" stroke="none" /><path d="M 115.19652480421416 85.50635884689758 l 20.67247412121287 -19.716311822593006 a49.567186388896204,49.567186388896204 0 0,0 0.5835537253960014,0.6224944271456067 l -21.008795168579333 19.357547978569343" fill="red" stroke="none" /><path d="M 115.4437574822437 85.77008943001954 l 20.523817770228174 -18.91068878546602 a48.907727356527694,48.907727356527694 0 0,0 0.565131955527549,0.6240328202934486 l -20.846293366371757 18.554603177903026" fill="red" stroke="none" /><path d="M 115.9244219780498 86.31012108654704 l 22.951986956432247 -19.731323541276133 a51.26745502910269,51.26745502910269 0 0,0 0.5695311015150559,0.6741451848370933 l -23.28822867143442 19.333319406809935" fill="red" stroke="none" /><path d="M 116.15771136456269 86.58626213691792 l 21.347011011202476 -17.721767854611407 a48.744475756538236,48.744475756538236 0 0,0 0.5303898196816151,0.6501952049314526 l -21.6488993229605 17.351688480071854" fill="red" stroke="none" /><path d="M 116.38621287248628 86.86637796730983 l 21.604663582766396 -17.316233338815806 a48.68778477178751,48.68778477178751 0 0,0 0.5185154471014102,0.6584619617507184 l -21.899533110461768 16.941778983112048" fill="red" stroke="none" /><path d="M 116.60985879189232 87.15038557335679 l 21.988045531003774 -17.01025340485059 a48.799691853880795,48.799691853880795 0 0,0 0.5082698437187173,0.6688235356124381 l -22.277591314946605 16.629245093357117" fill="red" stroke="none" /><path d="M 116.82858285166822 87.43820079747576 l 22.26547666181873 -16.620202035997984 a48.78457425794727,48.78457425794727 0 0,0 0.49652797388231634,0.677263598366119 l -22.548267248214675 16.23447599396037" fill="red" stroke="none" /><path d="M 117.04232023915458 87.72973835380427 l 22.512359386034152 -16.20862277339371 a48.74032763570281,48.74032763570281 0 0,0 0.4843567278188203,0.6850882420574008 l -22.788028733656855 15.818708031004515" fill="red" stroke="none" /><path d="M 117.2510076193507 88.02491185347247 l 22.83149436076277 -15.848880454982437 a48.793239221470145,48.793239221470145 0 0,0 0.4730052260125762,0.6940768033941664 l -23.10092405244408 15.453525628317864" fill="red" stroke="none" /><path d="M 117.45458315368197 88.32363383020206 l 15.451566800926177 -10.33643429213885 a39.59012615554795,39.59012615554795 0 0,0 0.3740387731364254,0.5696867128119812 l -15.627202209420528 10.068929515349195" fill="red" stroke="none" /><path d="M 117.65298651832404 88.62581576622439 l 23.263315689927616 -14.989035326745409 a48.674049882799125,48.674049882799125 0 0,0 0.44773729601450313,0.7082128779507304 l -23.517880582188074 14.586374801080472" fill="red" stroke="none" /><line stroke="#e1ed5e" stroke-width="0.3" x1="172.23445277983987" x2="176.4835382374775" y1="55.19839476539836" y2="52.563006222186495" /><path d="M 173.08426987136738 54.67131705675599 a86.0,86.0 0 0,1 12.851231095245387,41.99856678651699" fill="none" id="id15" stroke="none" /><text fill="#e1ed5e" style="font-size:6.75px; font-family:Arial;" text-anchor="middle"><textPath startOffset="22.20632615414155" xlink:href="#id15">March</textPath></text><path d="M 117.84615892207809 88.93136811851018 l 39.28263782324738 -24.364069562414446 a67.22481498064211,67.22481498064211 0 0,0 0.6014514618092494,0.9886280622006501 l -39.696205083342846 23.684273727006712" fill="red" stroke="none" /><path d="M 118.03404312379186 89.2402003453031 l 23.861974193948573 -14.236966160611551 a48.78641786720746,48.78641786720746 0 0,0 0.42407088566222334,0.7248746081940235 l -24.103504754081122 13.824112140063633" fill="red" stroke="none" /><path d="M 118.21658344932153 89.55222093294921 l 24.069840529616574 -13.804804656821911 a48.747609892280536,48.747609892280536 0 0,0 0.4112031713178524,0.7314845584915887 l -24.303901342226858 13.388436588395528" fill="red" stroke="none" /><path d="M 118.3937258080291 89.86733742301442 l 17.110442612120085 -9.425732629754032 a40.534883720930225,40.534883720930225 0 0,0 0.3314052968573818,0.6140436833350215 l -17.270156008195933 9.12980796308655" fill="red" stroke="none" /><path d="M 118.56541770881063 90.18545643968196 l 24.540458140883672 -12.973227922556358 a48.75857936737865,48.75857936737865 0 0,0 0.38586742587486256,0.7453730476553565 l -24.76013499991865 12.548882152640658" fill="red" stroke="none" /><path d="M 118.73160827565052 90.50648371742162 l 24.764246162594265 -12.550965763894263 a48.763188390529116,48.763188390529116 0 0,0 0.3730151405431008,0.7519757616424848 l -24.976621316090775 12.122830413752828" fill="red" stroke="none" /><path d="M 118.89224826269711 90.83032412892265 l 16.722261078898068 -8.116435470933009 a39.587913824435724,39.587913824435724 0 0,0 0.29227531720844874,0.6156063575399137 l -16.859494589948273 7.827386697752555" fill="red" stroke="none" /><path d="M 119.04729006885535 91.15688171328212 l 41.939923114203786 -19.471520604455492 a67.23956385472358,67.23956385472358 0 0,0 0.4783540499186088,1.0539897407635122 l -42.26887948108575 18.746708854849917" fill="red" stroke="none" /><path d="M 119.196687751892 91.48605970444005 l 25.36014798227464 -11.247502100270966 a48.742447786352024,48.742447786352024 0 0,0 0.3335591700908022,0.7699005536036103 l -25.549997862208123 10.809302402080752" fill="red" stroke="none" /><path d="M 119.34039704204932 91.81776055985345 l 21.308870385276688 -9.015031041622654 a44.13738839579657,44.13738839579657 0 0,0 0.29000011410003507,0.7022582788959487 l -21.460892186262917 8.646898192273403" fill="red" stroke="none" /><path d="M 119.47837535516314 92.15188598940014 l 25.713808462440717 -10.360458548534417 a48.72253680634201,48.72253680634201 0 0,0 0.30673493485355574,0.7806069520235972 l -25.888336947175972 9.916302591615036" fill="red" stroke="none" /><path d="M 119.61058180528143 92.48833698450437 l 26.14727024394565 -10.015484741748965 a48.99981563907398,48.99981563907398 0 0,0 0.29492151719263116,0.7902430403229805 l -26.315796349639903 9.563918564396651" fill="red" stroke="none" /><path d="M 119.7369772167798 92.82701384747503 l 26.09929206954855 -9.48523467141747 a48.76945666201375,48.76945666201375 0 0,0 0.27995275005644127,0.7914641232523163 l -26.258697900414802 9.034572921738539" fill="red" stroke="none" /><path d="M 119.97218684219823 93.5106431181261 l 30.586865774541426 -9.93827513618068 a53.16093391977666,53.16093391977666 0 0,0 0.27528381150173675,0.872724910545673 l -30.75340506981137 9.41030005920859" fill="red" stroke="none" /><path d="M 120.08093135843002 93.85539295169968 l 24.68656869185978 -7.5538958465027575 a46.816429192235766,46.816429192235766 0 0,0 0.22916442091663752,0.7726285035948005 l -24.81293900988812 7.127837956161428" fill="red" stroke="none" /><path d="M 120.18372546131832 94.20196356495316 l 26.679597387970748 -7.664059740819097 a48.75857936737865,48.75857936737865 0 0,0 0.22478454910248685,0.8086696216670426 l -26.8075687076396 7.203678815733102" fill="red" stroke="none" /><path d="M 120.28053869075195 94.5502522615342 l 25.246917809154112 -6.784303678107478 a47.14256367036266,47.14256367036266 0 0,0 0.20384370030032078,0.7854929303357524 l -25.359957841324736 6.348714322222875" fill="red" stroke="none" /><path d="M 120.45610955862082 95.25157060432595 l 24.519244210255906 -5.691595444091846 a46.17116595117069,46.17116595117069 0 0,0 0.17304428185797807,0.7757235849954489 l -24.61358287911592 5.268693689546434" fill="red" stroke="none" /><path d="M 120.53481517161879 95.60439243477599 l 28.119430198793122 -6.019142567323142 a49.756432879454294,49.756432879454294 0 0,0 0.1720641518316271,0.8390459116707617 l -28.218873646539745 5.534220999488968" fill="red" stroke="none" /><path d="M 120.6074358757038 95.95851677861258 l 45.9241684545295 -9.006542948119794 a67.79900708472701,67.79900708472701 0 0,0 0.2147429464700447,1.1471654068321204 l -46.0723971249094 8.21469946382511" fill="red" stroke="none" /><path d="M 120.67395015179393 96.31383870115 l 18.255028833103836 -3.2548680972871105 a39.54292975848719,39.54292975848719 0 0,0 0.11371066276912468,0.6711267684549241 l -18.308351357393185 2.9401555405163484" fill="red" stroke="none" /><path d="M 120.73433829027371 96.67025291283417 l 27.432628829094792 -4.405431929304841 a48.78411335563223,48.78411335563223 0 0,0 0.12601193539677086,0.8302612102127732 l -27.50439665793086 3.9325716066999856" fill="red" stroke="none" /><path d="M 120.83666639777658 97.38593545837742 l 27.52658137373316 -3.4533480043066094 a48.74235560588902,48.74235560588902 0 0,0 0.09727499605792132,0.8333927613852937 l -27.58194672279467 2.9790115045964627" fill="red" stroke="none" /><path d="M 120.87857604477298 97.74499172005257 l 28.05191493351743 -3.029770819035305 a49.21505702020069,49.21505702020069 0 0,0 0.08371920459402755,0.8430409651401269 l -28.099911263793686 2.546454323190743" fill="red" stroke="none" /><path d="M 120.91429891909075 98.10471618934814 l 36.778077498189866 -3.3328822132111546 a57.92878400800653,57.92878400800653 0 0,0 0.08144653569263766,0.9938540319600915 l -36.829998517701995 2.6993142640432946" fill="red" stroke="none" /><path d="M 120.94382443527127 98.46500227214037 l 46.37337856963999 -3.3987599045040424 a67.49776133161262,67.49776133161262 0 0,0 0.07495275727515344,1.159485980171011 l -46.42501191791956 2.600014860079996" fill="red" stroke="none" /><path d="M 120.98425023603335 99.18683210126433 l 27.731865619814084 -1.07464706341335 a48.752679817746056,48.752679817746056 0 0,0 0.02527781304579645,0.8388475529134479 l -27.746255127315525 0.597129363074903" fill="red" stroke="none" /><line stroke="#e1ed5e" stroke-width="0.3" x1="184.98032266829074" x2="189.97916517819016" y1="98.17113171792111" y2="98.06355123074" /><path d="M 185.9800911702706 98.14961562048488 a86.0,86.0 0 0,1 -9.607161424134198,41.387399972396054" fill="none" id="id16" stroke="none" /><text fill="#e1ed5e" style="font-size:6.75px; font-family:Arial;" text-anchor="middle"><textPath startOffset="21.466115282336823" xlink:href="#id16">April</textPath></text><path d="M 120.99513854157772 99.54816195383933 l 27.753351379818454 -0.5972820820893375 a48.759777713397774,48.759777713397774 0 0,0 0.010836263596676157,0.8392805575440387 l -27.759520650532846 0.11946526648483603" fill="red" stroke="none" /><path d="M 120.99980553446 99.90962569577887 l 27.806900969761305 -0.11966917139133722 a48.807158471384554,48.807158471384554 0 0,0 -0.003615687082170901,0.8401583420579167 l -27.80484098538963 -0.3589986488702643" fill="red" stroke="none" /><path d="M 120.99824983174949 100.27111621757518 l 27.750182526514283 0.3582929331678838 a48.752495456820036,48.752495456820036 0 0,0 -0.01805685017202881,0.8390308744638533 l -27.739903613657248 -0.8359136234218519" fill="red" stroke="none" /><path d="M 120.9904718944345 100.63252640178507 l 36.94455364506009 1.1132863377340914 a57.96132371144881,57.96132371144881 0 0,0 -0.03863499567053651,0.9969975675124715 l -36.91991651653835 -1.7490611522605692" fill="red" stroke="none" /><path d="M 120.95626037817324 101.35467743843564 l 37.14705827866176 2.4013006541362505 a58.22459111380336,58.22459111380336 0 0,0 -0.07326162226611947,0.9995966291913119 l -37.1002200977313 -3.0403704198243324" fill="red" stroke="none" /><path d="M 120.92983693683757 101.71520430193887 l 24.947052954730065 2.0444159540172286 a46.030682925544525,46.030682925544525 0 0,0 -0.07151283876608691,0.7891382167150268 l -24.908165519686904 -2.473535559280826" fill="red" stroke="none" /><path d="M 120.89721153311464 102.0752229133903 l 27.637661627824944 2.7445914777530964 a48.77360478284917,48.77360478284917 0 0,0 -0.09015614691273775,0.8347339501854057 l -27.586323179411153 -3.2199217498232935" fill="red" stroke="none" /><path d="M 120.8583938346157 102.4346265915055 l 20.98373793620555 2.449256964545669 a42.12619505385973,42.12619505385973 0 0,0 -0.09026739040936092,0.7195199164402688 l -20.93846903654934 -2.810094635273333" fill="red" stroke="none" /><path d="M 120.81339534386255 102.79330883721812 l 25.25721156905272 3.3897012531464106 a46.48365772077221,46.48365772077221 0 0,0 -0.113256212357276,0.7921136854424352 l -25.195121305678843 -3.823960410569255" fill="red" stroke="none" /><path d="M 120.76222939487914 103.15116336523771 l 26.658686502955412 4.046091326502219 a47.96398377623851,47.96398377623851 0 0,0 -0.1309148287570293,0.8152067636379843 l -26.585089919837092 -4.5043773198334085" fill="red" stroke="none" /><path d="M 120.70491114924044 103.5080841355445 l 36.71060525751115 6.219968343831111 a58.23380916010429,58.23380916010429 0 0,0 -0.17595916034996945,0.986872416831489 l -36.59809965482199 -6.850959511395819" fill="red" stroke="none" /><path d="M 120.5718875245553 104.21870165774334 l 17.980512735068416 3.6872853204143725 a39.3546972530222,39.3546972530222 0 0,0 -0.1418005237313545,0.6624448390478002 l -17.91437817261262 -3.9962439788783417" fill="red" stroke="none" /><path d="M 120.49622156327973 104.57218783832717 l 27.115068640137892 6.048684958302468 a48.78153230266797,48.78153230266797 0 0,0 -0.1898749925457398,0.8179764983968011 l -27.0069330816616 -6.514530114047834" fill="red" stroke="none" /><path d="M 120.41448212921028 104.9243191809786 l 27.02494475306007 6.518874834545155 a48.800060575732836,48.800060575732836 0 0,0 -0.20400443715547625,0.8148963180776282 l -26.90872900160953 -6.983098992020179" fill="red" stroke="none" /><path d="M 120.32669344350535 105.2749913415812 l 27.024096865842864 7.013038169615342 a48.919249914403856,48.919249914403856 0 0,0 -0.21853375897083693,0.8132454136842701 l -26.899375030530248 -7.47717451647516" fill="red" stroke="none" /><path d="M 120.23288151984713 105.62410040840565 l 26.720416510586386 7.427429714474681 a48.73350628144013,48.73350628144013 0 0,0 -0.23161727415453573,0.8062901166636605 l -26.588606599545752 -7.886277306642924" fill="red" stroke="none" /><path d="M 120.13307415673323 105.97154293290107 l 35.422311698813495 10.50638632954754 a57.947588822460425,57.947588822460425 0 0,0 -0.29187159501138993,0.9538532600746891 l -35.23621333129597 -11.114566562174286" fill="red" stroke="none" /><path d="M 119.9155931802556 106.66101706037122 l 17.889275507394654 5.983289991611866 a39.863349047907505,39.863349047907505 0 0,0 -0.22325215987354066,0.6488752786120922 l -17.783632516577885 -6.290337973313258" fill="red" stroke="none" /><path d="M 119.67450827220406 107.3425965602758 l 26.02229948355869 9.711614848762853 a48.775448392109354,48.775448392109354 0 0,0 -0.30033069011863966,0.7840686616343974 l -25.851274513846544 -10.158107077230396" fill="red" stroke="none" /><path d="M 119.54520255179757 107.68017299344265 l 25.94298890158334 10.194145709316174 a48.87398930706629,48.87398930706629 0 0,0 -0.31441658029508623,0.7803561671763285 l -25.763669707030864 -10.639201244335316" fill="red" stroke="none" /><path d="M 119.41010516605496 108.01547362559984 l 34.17664083394405 14.11336831369444 a57.976072585530304,57.976072585530304 0 0,0 -0.3888510922854962,0.919129117407172 l -33.92863876046624 -14.699571956767775" fill="red" stroke="none" /><path d="M 119.26925614724726 108.34839909993367 l 29.483279712845253 12.773621562603614 a53.131436171613686,53.131436171613686 0 0,0 -0.3708040786657768,0.8360653079734441 l -29.259034549448202 -13.279235207069746" fill="red" stroke="none" /><path d="M 118.97047184881838 109.00673069616215 l 25.084284183179935 11.909423979771699 a48.76788959414259,48.76788959414259 0 0,0 -0.36656440734326523,0.7552312519181567 l -24.875566519221955 -12.33944418765513" fill="red" stroke="none" /><path d="M 118.81262510543309 109.33194174019688 l 29.549531161287472 14.657949207079502 a53.985303800468806,53.985303800468806 0 0,0 -0.4201119123364284,0.8289206590672237 l -29.292840579164775 -15.16442407784942" fill="red" stroke="none" /><line stroke="#e1ed5e" stroke-width="0.3" x1="174.80103733775053" x2="179.2010983576182" y1="140.37084112569926" y2="142.7455964860345" /><path d="M 175.68104954172406 140.8457921977663 a86.0,86.0 0 0,1 -30.038265399797805,32.042727171017184" fill="none" id="id17" stroke="none" /><text fill="#e1ed5e" style="font-size:6.75px; font-family:Arial;" text-anchor="middle"><textPath startOffset="22.206326154141568" xlink:href="#id17">May</textPath></text><path d="M 118.48025628344425 109.97397251340804 l 24.411259022115896 13.174991881600153 a48.73968237246174,48.73968237246174 0 0,0 -0.4048262095998926,0.7348771601451525 l -24.180856403064496 -13.59323956014311" fill="red" stroke="none" /><path d="M 117.94076556474637 110.91462005526583 l 15.824546841332245 9.627176482328675 a39.522926598014166,39.522926598014166 0 0,0 -0.358595955272823,0.5781708593376649 l -15.656486246391458 -9.898143673031614" fill="red" stroke="none" /><path d="M 117.75023020441432 111.22182372390056 l 30.888333293198798 19.527827377425407 a57.54346967262767,57.54346967262767 0 0,0 -0.5365110241100332,0.8326770237660234 l -30.547617405711716 -20.056626001112882" fill="red" stroke="none" /><path d="M 117.55443506779139 111.5257021239791 l 15.501509176160058 10.17781412768804 a39.544128104506306,39.544128104506306 0 0,0 -0.3784879499164951,0.5657881312057543 l -15.324018120832841 -10.4431391730996" fill="red" stroke="none" /><path d="M 117.35343817320211 111.8261652097733 l 22.91800405585456 15.618351795054043 a48.73387500329216,48.73387500329216 0 0,0 -0.47837889445964255,0.6891404766530095 l -22.64576425423278 -16.010533533894073" fill="red" stroke="none" /><path d="M 117.14729908036423 112.12312394758627 l 22.710269663522254 16.05613879618296 a48.81287366009113,48.81287366009113 0 0,0 -0.4909650147251389,0.6819074644395419 l -22.430524856421513 -16.444679866073635" fill="red" stroke="none" /><path d="M 116.71984013943494 112.70617746262583 l 36.70549996740778 27.894201891337687 a67.1018462429877,67.1018462429877 0 0,0 -0.7067843305252499,0.9136140226904355 l -36.21990881966446 -28.521893908141376" fill="red" stroke="none" /><path d="M 116.498646956653 112.99209946851258 l 14.539715979932927 11.449510784218385 a39.506610656061525,39.506610656061525 0 0,0 -0.4253208107027784,0.5306531074159931 l -14.340477257175296 -11.698091725212628" fill="red" stroke="none" /><path d="M 116.27256486870786 113.27417163493432 l 21.509823021141546 17.54640924300503 a48.75876372830467,48.75876372830467 0 0,0 -0.5361235040529121,0.6457952975274928 l -21.20460351719509 -17.91406579764629" fill="red" stroke="none" /><path d="M 116.0416608686014 113.55231037782055 l 21.199674424774066 17.90990160349471 a48.752311095894015,48.752311095894015 0 0,0 -0.5470879659753838,0.6363869019136236 l -20.888243949227903 -18.272165604569864" fill="red" stroke="none" /><path d="M 115.80600337817218 113.82643327865902 l 20.89754102689949 18.28029830080161 a48.76466327793726,48.76466327793726 0 0,0 -0.5581026318443274,0.6270342232824804 l -20.579779545406826 -18.63730669382496" fill="red" stroke="none" /><path d="M 115.56566222782051 114.09645910891815 l 20.574586755107223 18.63260403774466 a48.757657562748555,48.757657562748555 0 0,0 -0.5687315884623719,0.6172458134229958 l -20.25080875864913 -18.98400110596899" fill="red" stroke="none" /><path d="M 115.32070863581623 114.36230785411682 l 26.977787098098972 25.290167232860217 a57.97828491664252,57.97828491664252 0 0,0 -0.6888191547136242,0.7222241298545453 l -26.538461392006383 -25.75079847929727" fill="red" stroke="none" /><path d="M 115.07121518719521 114.62390073753431 l 19.933334987483644 19.341712569577492 a48.774803128868285,48.774803128868285 0 0,0 -0.5898485007450808,0.5975134171010946 l -19.597445861683028 -19.681966480659252" fill="red" stroke="none" /><path d="M 114.81725581225074 114.88116024355365 l 13.09835163337603 13.15484270856179 a39.563854723590296,39.563854723590296 0 0,0 -0.4867297024779386,0.47636745689743426 l -12.869971978522297 -13.378360268381796" fill="red" stroke="none" /><path d="M 114.29624159901734 115.38237550388516 l 18.99118271427137 20.434007200458538 a48.89648134004056,48.89648134004056 0 0,0 -0.6214520428162812,0.5676817066269552 l -18.636631121988227 -20.757881673672077" fill="red" stroke="none" /><path d="M 113.75828350139079 115.86535959552629 l 31.35343070479445 36.15519716792395 a68.85640917590666,68.85640917590666 0 0,0 -0.9021321582489957,0.7688165965989997 l -30.726433069968408 -36.6895381547459" fill="red" stroke="none" /><path d="M 113.48314897796784 116.09983520530334 l 20.526152166438134 24.509680032360045 a52.969475098106344,52.969475098106344 0 0,0 -0.704064894056648,0.5793974753146747 l -20.101217143836795 -24.859372626531897" fill="red" stroke="none" /><path d="M 113.20401910651253 116.32954008644616 l 21.80360790646107 26.964735999367186 a55.676999657615426,55.676999657615426 0 0,0 -0.7504265514793645,0.5961842377593296 l -21.336223862264355 -27.33605415113164" fill="red" stroke="none" /><path d="M 112.92097659922987 116.55440617244103 l 11.395793854842392 14.60033602581654 a39.52117516921699,39.52117516921699 0 0,0 -0.5398804653440304,0.41395731914174827 l -11.142784661004868 -14.79433268678566" fill="red" stroke="none" /><path d="M 112.63410532772338 116.77436683061366 l 16.68115176161511 22.14765126205348 a48.726869288103444,48.726869288103444 0 0,0 -0.6743219314082349,0.4988472440952349 l -16.29744485978831 -22.431508454888483" fill="red" stroke="none" /><path d="M 112.34349029814194 116.9893568818739 l 16.358887606933322 22.516077141202963 a48.831401933155995,48.831401933155995 0 0,0 -0.6842736729407123,0.48821109705035165 l -15.968886606143727 -22.794332500097532" fill="red" stroke="none" /><path d="M 112.04921762599082 117.19931262002967 l 15.947518806443533 22.76383164282585 a48.79416102610024,48.79416102610024 0 0,0 -0.6920478539155422,0.4759968243523516 l -15.553314067905108 -23.034969256543295" fill="red" stroke="none" /><path d="M 111.7513745106137 117.40417183066458 l 22.49011927495257 33.308605729473456 a61.1904053306645,61.1904053306645 0 0,0 -0.8780103485945802,0.5818973826075257 l -21.913434227618026 -33.6908011331723" fill="red" stroke="none" /><path d="M 111.45004920935366 117.60387380957326 l 15.189381344897159 23.352908581617307 a48.858134267428696,48.858134267428696 0 0,0 -0.7089506013961899,0.4524858166478051 l -14.785148941454038 -23.61090882708892" fill="red" stroke="none" /><path d="M 111.1453310114006 117.79835938074945 l 14.749288425281383 23.553641945219983 a48.79056598804288,48.79056598804288 0 0,0 -0.7156432938758311,0.4396065616623229 l -14.341665931473244 -23.804036973710687" fill="red" stroke="none" /><line stroke="#e1ed5e" stroke-width="0.3" x1="143.8653032363475" x2="146.44561519142675" y1="172.8068346515853" y2="177.08958963109032" /><path d="M 144.38136562736335 173.6633856474863 a86.0,86.0 0 0,1 -40.68145358897372,12.25698825130547" fill="none" id="id18" stroke="none" /><text fill="#e1ed5e" style="font-size:6.75px; font-family:Arial;" text-anchor="middle"><textPath startOffset="21.466115282336833" xlink:href="#id18">June</textPath></text><path d="M 110.5260780823613 118.17145234162733 l 14.036896192794101 24.23227228564398 a49.004240301298424,49.004240301298424 0 0,0 -0.7335496840382395,0.4165286550676691 l -13.617697741834661 -24.470304106506276" fill="red" stroke="none" /><path d="M 110.21172684928248 118.3499491758327 l 9.040408869269845 16.24515086706465 a39.59123232110406,39.59123232110406 0 0,0 -0.5983501899393847,0.32626823150084655 l -8.759435867461812 -16.398359750325266" fill="red" stroke="none" /><path d="M 109.89434966115114 118.52300852407294 l 13.080759878433726 24.488221563557488 a48.762911849140096,48.762911849140096 0 0,0 -0.743771632598958,0.38910616535752196 l -12.657297343308272 -24.709757147859726" fill="red" stroke="none" /><path d="M 109.57404056367764 118.69057910512821 l 12.936095771409425 25.254031432071486 a49.37443704074376,49.37443704074376 0 0,0 -0.7597693519085672,0.38096412559997334 l -12.499472511818098 -25.47296339858076" fill="red" stroke="none" /><path d="M 109.2508944713604 118.85261126421891 l 16.30327314661553 33.22481646710675 a58.00925755221365,58.00925755221365 0 0,0 -0.9002134369037265,0.43215715559425827 l -15.728947041711574 -33.50052789920056" fill="red" stroke="none" /><path d="M 108.92500713936063 119.00905698771935 l 15.332791966987392 32.656771219366064 a57.077128710263636,57.077128710263636 0 0,0 -0.8929363567154228,0.4099032856054273 l -14.768387614504551 -32.91586157530556" fill="red" stroke="none" /><path d="M 108.2653958097858 119.30500536409082 l 10.955439033296027 25.58798322197115 a48.83462824936132,48.83462824936132 0 0,0 -0.7756067755235018,0.32420369507239577 l -10.513360798275064 -25.77277196006352" fill="red" stroke="none" /><path d="M 107.93186726928326 119.44442032107085 l 7.03424258392858 17.243955905813102 a39.62349548315731,39.62349548315731 0 0,0 -0.6337474774448977,0.25218120033265956 l -6.736374030441816 -17.36248395055183" fill="red" stroke="none" /><path d="M 107.59598834532513 119.57807347666477 l 10.06820057049185 25.95000960845347 a48.83472042982433,48.83472042982433 0 0,0 -0.7863082494366761,0.2973144982145954 l -9.6200221002949 -26.119472356774697" fill="red" stroke="none" /><path d="M 107.2578585660854 119.70592522655815 l 9.568506577537915 25.97960175579608 a48.6856646211383,48.6856646211383 0 0,0 -0.7888942546816341,0.282869412215662 l -9.119892762226547 -26.1404587090517" fill="red" stroke="none" /><path d="M 106.91757812671514 119.82793768551818 l 12.153662550914287 34.83618967448895 a57.89541468039717,57.89541468039717 0 0,0 -0.9437787032976358,0.3201809777750422 l -11.552214114679424 -35.04023363916211" fill="red" stroke="none" /><path d="M 106.57524785965236 119.94407469862006 l 11.264802813414278 34.16845624247508 a56.977481629750585,56.977481629750585 0 0,0 -0.9341014635998184,0.2990697906926795 l -10.674980004723519 -34.35729887982747" fill="red" stroke="none" /><path d="M 106.2309692047433 120.05430185196036 l 8.0321775456634 25.85146992969416 a48.070544391477256,48.070544391477256 0 0,0 -0.7923056383891125,0.2387151894643828 l -7.585996932834041 -25.985900488264267" fill="red" stroke="none" /><path d="M 105.88484417918355 120.15858648285463 l 5.197253502747917 17.80323845770857 a39.54634043561853,39.54634043561853 0 0,0 -0.6550923453845817,0.18513564034625593 l -4.890029989258729 -17.890062891393345" fill="red" stroke="none" /><path d="M 105.53697534728816 120.25689768951611 l 7.271876789977263 26.603994944185928 a48.579933630066634,48.579933630066634 0 0,0 -0.8085310043472111,0.2135403868720426 l -6.812855342818555 -26.725226680361555" fill="red" stroke="none" /><path d="M 104.83641907484287 120.43548508189849 l 10.636771920627114 44.94391212585201 a67.18545392293713,67.18545392293713 0 0,0 -1.1276913696061728,0.25665888427447586 l -9.86156040162808 -45.120347743704166" fill="red" stroke="none" /><path d="M 104.48393922423573 120.51570834832081 l 5.936996600995727 27.16399233795614 a48.80522268166135,48.80522268166135 0 0,0 -0.822271643410113,0.17231501767402613 l -5.468533496156235 -27.262163336356707" fill="red" stroke="none" /><path d="M 104.13013068566511 120.58985236759428 l 5.447811594193604 27.15885888072115 a48.69986041244173,48.69986041244173 0 0,0 -0.8233346482025814,0.15779404488100293 l -4.979509331419318 -27.248610123950623" fill="red" stroke="none" /><path d="M 103.7750983002368 120.6578951692458 l 4.994290634077677 27.329495594075233 a48.782085385446024,48.782085385446024 0 0,0 -0.8273233277983277,0.14384076522745085 l -4.523118334807299 -27.41141493782369" fill="red" stroke="none" /><path d="M 103.41894727170886 120.7198165907248 l 4.520161832518034 27.393497672561796 a48.76392583423319,48.76392583423319 0 0,0 -0.8293678789353437,0.12953020587779643 l -4.047958089974173 -27.4672461857867" fill="red" stroke="none" /><path d="M 103.06178313531738 120.77559828337769 l 4.045095404591261 27.447821556771974 a48.74429139561221,48.74429139561221 0 0,0 -0.8311398615060248,0.11518841144106902 l -3.5720269518984056 -27.513384533705647" fill="red" stroke="none" /><path d="M 102.34483914955558 120.86867818915974 l 3.103993355682612 27.625024280794424 a48.798862229713706,48.798862229713706 0 0,0 -0.8355466752637661,0.08660782923532702 l -2.628014083813243 -27.67436147848551" fill="red" stroke="none" /><path d="M 101.98527174616119 120.90594882070398 l 3.032773742104432 31.936692173154135 a53.08036819510653,53.08036819510653 0 0,0 -0.9103426772304173,0.0785481967136566 l -2.4825867471324727 -31.984164622146455" fill="red" stroke="none" /><path d="M 101.62511606390274 120.93702456842531 l 2.8578599119675188 36.81895990018535 a57.92970581263663,57.92970581263663 0 0,0 -0.994838532055144,0.06860988977356434 l -2.2236586191334444 -36.862698134475195" fill="red" stroke="none" /><path d="M 101.26447882468166 120.96189622390904 l 1.1269099848836917 18.681348944507477 a39.71530722431457,39.71530722431457 0 0,0 -0.6827476083143758,0.035290252728772814 l -0.8051743081558361 -18.69797900399845" fill="red" stroke="none" /><path d="M 100.90346689309514 120.98055641714683 l 1.1912339517340749 27.663162116274226 a48.688798756880615,48.688798756880615 0 0,0 -0.8376320043937836,0.028849739872534277 l -0.7148815956656389 -27.679568654572854" fill="red" stroke="none" /><line stroke="#e1ed5e" stroke-width="0.3" x1="102.19456741930631" x2="102.32365962044197" y1="184.97166512339345" y2="189.96999836594603" /><path d="M 102.22038585953345 185.97133177190398 a86.0,86.0 0 0,1 -42.740103519485714,-10.115201625700543" fill="none" id="id19" stroke="none" /><text fill="#e1ed5e" style="font-size:6.75px; font-family:Arial;" text-anchor="middle"><textPath startOffset="22.20632615414155" xlink:href="#id19">July</textPath></text><path d="M 100.18074693466247 120.99922214144158 l 0.23925440655977356 27.79663423365859 a48.7976638836946,48.7976638836946 0 0,0 -0.840002682444439,0.0 l 0.23925440655975444 -27.79663423365859" fill="red" stroke="none" /><path d="M 99.81925306533755 120.99922214144158 l -0.1606716114261066 18.666866281639738 a39.66755774447576,39.66755774447576 0 0,0 -0.6827359224935152,-0.011753918064059362 l 0.4819672238122897 -18.66133488629652" fill="red" stroke="none" /><path d="M 99.09653310690486 120.98055641714683 l -1.1943629753175702 27.735825161623186 a48.761529142194945,48.761529142194945 0 0,0 -0.8382616106064642,-0.043328550303041974 l 1.6716126543375234 -27.71115680455794" fill="red" stroke="none" /><path d="M 98.73552117531835 120.96189622390904 l -1.1208821551471206 18.58142260416332 a39.61519924148648,39.61519924148648 0 0,0 -0.6803198136020147,-0.04691883749776062 l 1.4405647295280655 -18.559375422149273" fill="red" stroke="none" /><path d="M 98.37488393609728 120.93702456842531 l -2.1518552904584904 27.7232181040839 a48.80660538860649,48.80660538860649 0 0,0 -0.8370464886882343,-0.07222389315196011 l 2.6287460968882663 -27.682069958653276" fill="red" stroke="none" /><path d="M 98.01472825383883 120.90594882070398 l -2.5336628271051778 26.68079344543328 a47.800824356712056,47.800824356712056 0 0,0 -0.8184580140026221,-0.08483651962428157 l 2.992553437713393 -26.63322755735324" fill="red" stroke="none" /><path d="M 97.65516085044442 120.86867818915974 l -3.099557167944106 27.585542948218166 a48.7591324501567,48.7591324501567 0 0,0 -0.8332531196269695,-0.10089534859201227 l 3.573937710622465 -27.528102070900804" fill="red" stroke="none" /><path d="M 97.2962882734958 120.8252237178851 l -2.9967817633513345 23.082583118490206 a44.27630435355158,44.27630435355158 0 0,0 -0.7549561274722314,-0.10463004009174601 l 3.393666482010397 -23.027578512905855" fill="red" stroke="none" /><path d="M 96.93821686468263 120.77559828337769 l -5.236442918194168 35.53165906734397 a56.91544417814533,56.91544417814533 0 0,0 -0.968007403201187,-0.15118284830229814 l 5.847286185003872 -35.436257911694575" fill="red" stroke="none" /><path d="M 96.58105272829116 120.7198165907248 l -6.530463328211622 39.57651044596803 a61.11168321525455,61.11168321525455 0 0,0 -1.0364280396279604,-0.18019629969821568 l 7.210740339311632 -39.458235567748815" fill="red" stroke="none" /><path d="M 95.86986931433489 120.58985236759428 l -5.423391295030284 27.03711688444722 a48.5756933287682,48.5756933287682 0 0,0 -0.8184045269859888,-0.1715046258280864 l 5.88798728344566 -26.93975627789259" fill="red" stroke="none" /><path d="M 95.51606077576429 120.51570834832081 l -5.949002899672628 27.21892566993959 a48.861452764097024,48.861452764097024 0 0,0 -0.8201275033684103,-0.18665834966073477 l 6.416650552433901 -27.112490586701167" fill="red" stroke="none" /><path d="M 95.16358092515715 120.4354850818985 l -6.4149309480853445 27.10522468429116 a48.85398614659327,48.85398614659327 0 0,0 -0.8166681601886793,-0.2007171643367562 l 6.880552393017234 -26.990786261640373" fill="red" stroke="none" /><path d="M 94.81253420990036 120.34920634021253 l -6.880484081160323 26.990518290317187 a48.853709605204244,48.853709605204244 0 0,0 -0.8130875433871918,-0.2147438102462408 l 7.344062067359005 -26.868083130767364" fill="red" stroke="none" /><path d="M 94.11515582081647 120.15858648285463 l -10.184391198067473 34.88672333376045 a57.34288498511944,57.34288498511944 0 0,0 -0.9451336919592623,-0.2847610283374291 l 10.78339986446698 -34.70624693631729" fill="red" stroke="none" /><path d="M 93.76903079525671 120.05430185196036 l -5.49902574697452 17.698550353543624 a39.533158629408206,39.533158629408206 0 0,0 -0.6481153655828162,-0.2075060732509487 l 5.802862457648277 -17.60127143363297" fill="red" stroke="none" /><path d="M 93.08242187328487 119.8279376855182 l -9.018564669094198 25.850020772592245 a48.37805841607627,48.37805841607627 0 0,0 -0.7839098558906278,-0.2810821841456205 l 9.462194085614554 -25.690951047406667" fill="red" stroke="none" /><path d="M 92.7421414339146 119.70592522655815 l -6.4466404115021305 17.50337413644143 a39.65280887039427,39.65280887039427 0 0,0 -0.6384664528371956,-0.24141338106033922 l 6.746977085099609 -17.389812505274456" fill="red" stroke="none" /><path d="M 92.40401165467489 119.57807347666478 l -10.060364979785593 25.92981397839116 a48.81305802101714,48.81305802101714 0 0,0 -0.7807274953907422,-0.31066758279517637 l 10.505213551218192 -25.752799551189916" fill="red" stroke="none" /><path d="M 92.06813273071674 119.44442032107085 l -13.947460250038104 34.191227652461095 a57.92657167689431,57.92657167689431 0 0,0 -0.9200078527481047,-0.38456335706355527 l 14.53393956228367 -33.946079252377565" fill="red" stroke="none" /><path d="M 91.7346041902142 119.30500536409082 l -10.693560364930448 24.976328412705662 a48.16926966736021,48.16926966736021 0 0,0 -0.7594213954142309,-0.3329080224120151 l 11.121902435002422 -24.788555836999198" fill="red" stroke="none" /><path d="M 90.7491055286396 118.85261126421891 l -20.13318422741313 41.02988061591266 a66.7033501013985,66.7033501013985 0 0,0 -1.0264250918921747,-0.5146708493101105 l 20.836463226988066 -40.677241925693245" fill="red" stroke="none" /><path d="M 90.42595943632237 118.69057910512821 l -24.46802918530966 47.766836999795125 a74.6689404514209,74.6689404514209 0 0,0 -1.1389114726332128,-0.5958246542012829 l 25.28663156046937 -47.338582926649124" fill="red" stroke="none" /><line stroke="#e1ed5e" stroke-width="0.3" x1="58.666819895761336" x2="56.23545636021788" y1="174.27360380694188" y2="178.64263932499728" /><path d="M 58.180547188652646 175.14741091055294 a86.0,86.0 0 0,1 -31.652253787137756,-30.449443065178592" fill="none" id="id20" stroke="none" /><text fill="#e1ed5e" style="font-size:6.75px; font-family:Arial;" text-anchor="middle"><textPath startOffset="22.20632615414155" xlink:href="#id20">August</textPath></text><path d="M 89.4739219176387 118.17145234162733 l -31.57823424708386 54.51435702488198 a84.0,84.0 0 0,0 -1.2449285158864716,-0.735525710825002 l 32.511930633998716 -53.962712741763234" fill="red" stroke="none" /><path d="M 88.8546689885994 117.79835938074946 l -18.99946897439349 30.340900284051706 a56.79874371197556,56.79874371197556 0 0,0 -0.8241719442815157,-0.5260255291863775 l 19.518922720721932 -30.009360326041524" fill="red" stroke="none" /><path d="M 88.54995079064634 117.60387380957326 l -24.633231794558444 37.872352869813795 a66.17865890594959,66.17865890594959 0 0,0 -0.9495859205628843,-0.6293337688114655 l 25.28149241386129 -37.44272107991101" fill="red" stroke="none" /><path d="M 87.95078237400918 117.19931262002967 l -25.81399453682208 36.847451493684176 a65.98996549816957,65.98996549816957 0 0,0 -0.9247163563002913,-0.6597605674782235 l 26.444438220971257 -36.39764666436174" fill="red" stroke="none" /><path d="M 87.36589467227662 116.77436683061367 l -26.613177700527146 35.33445334647953 a65.23556058890148,65.23556058890148 0 0,0 -0.8911527720751596,-0.6832979449235934 l 27.217459201095792 -34.871116059728564" fill="red" stroke="none" /><path d="M 86.79598089348748 116.32954008644616 l -34.493698819721864 42.65869604267939 a75.85963549211198,75.85963549211198 0 0,0 -1.0083185858838086,-0.8297775502025322 l 35.22288753415036 -42.058623373619675" fill="red" stroke="none" /><line stroke="#e1ed5e" stroke-width="0.3" x1="26.63291911575756" x2="22.317208475507996" y1="142.92168965132927" y2="145.44649492493687" /><path d="M 25.769776987707644 143.4266507060508 a86.0,86.0 0 0,1 -11.730757126820373,-40.83630448921669" fill="none" id="id21" stroke="none" /><text fill="#e1ed5e" style="font-size:6.75px; font-family:Arial;" text-anchor="middle"><textPath startOffset="21.46611528233685" xlink:href="#id21">September</textPath></text><line stroke="#e1ed5e" stroke-width="0.3" x1="15.007084014347285" x2="10.007500721073583" y1="101.09737516637583" y2="101.16192664675087" /><path d="M 14.007167355692545 101.11028546245083 a86.0,86.0 0 0,1 10.666146001902534,-42.60595125391555" fill="none" id="id22" stroke="none" /><text fill="#e1ed5e" style="font-size:6.75px; font-family:Arial;" text-anchor="middle"><textPath startOffset="22.20632615414155" xlink:href="#id22">October</textPath></text><line stroke="#e1ed5e" stroke-width="0.3" x1="26.266209847984243" x2="21.928928074336255" y1="57.711370442889674" y2="55.22380399835377" /><path d="M 25.398753493254645 57.213857153982495 a86.0,86.0 0 0,1 29.58750427330803,-30.492523968695096" fill="none" id="id23" stroke="none" /><text fill="#e1ed5e" style="font-size:6.75px; font-family:Arial;" text-anchor="middle"><textPath startOffset="21.46611528233685" xlink:href="#id23">November</textPath></text><line stroke="#e1ed5e" stroke-width="0.3" x1="56.762969772571076" x2="54.21961505331055" y1="26.818313649435495" y2="22.513508569990535" /><path d="M 56.25429882871897 25.957352633546506 a86.0,86.0 0 0,1 42.265352541879196,-11.944610805530505" fill="none" id="id24" stroke="none" /><text fill="#e1ed5e" style="font-size:6.75px; font-family:Arial;" text-anchor="middle"><textPath startOffset="22.20632615414155" xlink:href="#id24">December</textPath></text></svg>