<?xml version="1.0" encoding="utf-8" ?>
<svg baseProfile="full" height="200mm" version="1.1" viewBox="0,0,200,200" width="200mm" xmlns="http://www.w3.org/2000/svg" xmlns:ev="http://www.w3.org/2001/xml-events" xmlns:xlink="http://www.w3.org/1999/xlink"><defs /><rect fill="#1a1a1a" height="200" width="200" x="0" y="0" /><rect fill="#1a1a1a" height="200" width="180" x="10" y="0" /><text alignment-baseline="middle" fill="#e1ed5e" style="dominant-baseline: central; font-size:9.0px; font-family:Arial;" text-anchor="middle" x="100.0" y="100.0">2026</text><line stroke="#e1ed5e" stroke-width="0.3" x1="100.0" x2="100.0" y1="15.0" y2="10.0" /><path d="M 100.0 14.0 a86.0,86.0 0 0,1 42.46469731375804,11.215312516191453" fill="none" id="id13" stroke="none" /><text fill="#e1ed5e" style="font-size:6.75px; font-family:Arial;" text-anchor="middle"><textPath startOffset="22.20632615414155" xlink:href="#id13">January</textPath></text><path d="M 100.0 79.0 l 0.0 -46.233101358916386 a67.23310135891639,67.23310135891639 0 0,0 1.1573073191523606,0.00996130947090476 l -0.7958268398798323 46.22625142605404" fill="red" stroke="none" /><path d="M 100.36148047927253 79.00311137660856 l 0.6838118336117592 -39.71976837752952 a60.72565416186852,60.72565416186852 0 0,0 1.0449825702127242,0.026988816789709626 l -1.367421039019351 39.70211276859745" fill="red" stroke="none" /><path d="M 100.72285384407766 79.0124445844662 l 1.400733186868809 -40.66930766522699 a61.69342255733334,61.69342255733334 0 0,0 1.0610069113266547,0.04568918948905046 l -2.1005809305847953 40.63917074921374" fill="red" stroke="none" /><path d="M 101.08401301168833 79.027996857942 l 1.2605536520091503 -24.387470321499656 a45.42002670333552,45.42002670333552 0 0,0 0.7804413989181765,0.04707835647575712 l -1.6801570997669388 24.362158695643593" fill="red" stroke="none" /><path d="M 101.44485096284872 79.0497635885617 l 2.6040051765068926 -37.75789023725116 a58.847577440670904,58.847577440670904 0 0,0 1.0099640115179602,0.07839264522603802 l -3.2535593773871936 37.707472329836655" fill="red" stroke="none" /><path d="M 101.80526077348638 79.07773832637324 l 3.214215968807258 -37.25149771302153 a58.389908613921264,58.389908613921264 0 0,0 1.0006219496022462,0.09502111108044116 l -3.854963045499748 37.19065105742591" fill="red" stroke="none" /><path d="M 102.16513564639614 79.11191278185805 l 3.8971845323066168 -37.59798170221459 a58.799421627306856,58.799421627306856 0 0,0 1.0058433363285235,0.11301821859363687 l -4.543794572144866 37.525327530150356" fill="red" stroke="none" /><path d="M 102.52436894288641 79.15227682838746 l 4.586764076284838 -37.880194963318544 a59.15688109830939,59.15688109830939 0 0,0 1.009850980055072,0.13110764012833837 l -5.2381297848477555 37.79562900002607" fill="red" stroke="none" /><path d="M 102.88285421437855 79.19881850522331 l 5.092520219430585 -36.74498586222486 a58.096195872358855,58.096195872358855 0 0,0 0.9893810363356293,0.14580904627324096 l -5.72427023619487 36.65188233179065" fill="red" stroke="none" /><path d="M 103.2404852339499 79.25152402106235 l 7.780699558673479 -49.8189765536093 a71.42290858797631,71.42290858797631 0 0,0 1.2130697859973363,0.20016690867257053 l -8.637098550809691 49.67766338199711" fill="red" stroke="none" /><path d="M 103.59715602781102 79.31037775812273 l 10.345604261935842 -59.504409146706244 a81.39707141445852,81.39707141445852 0 0,0 1.3783426534722405,0.2518833097775308 l -11.368342036510985 59.31751035557797" fill="red" stroke="none" /><path d="M 103.95276090670814 79.375362276772 l 6.902478982770638 -36.01561839225904 a57.67109194289718,57.67109194289718 0 0,0 0.9733605803463136,0.19524697551655118 l -7.521405972584077 35.89146746066528" fill="red" stroke="none" /><path d="M 104.307194497241 79.44645832069477 l 7.833265624733029 -37.37963344960378 a59.1915834598981,59.1915834598981 0 0,0 0.9954256365588907,0.21756148902075534 l -8.475533985445447 37.23925846248716" fill="red" stroke="none" /><path d="M 104.66035177308747 79.52364482259891 l 8.43652573029023 -37.067866489026805 a59.015808454459645,59.015808454459645 0 0,0 0.9885887385255118,0.23396701438786907 l -9.073338155778266 36.917153562498065" fill="red" stroke="none" /><path d="M 105.01212808612495 79.60689891045804 l 9.027904394684946 -36.73229490227765 a58.82544839849839,58.82544839849839 0 0,0 0.9812396044338911,0.25013982338137036 l -9.658852887803862 36.57145208272741" fill="red" stroke="none" /><path d="M 105.36241919743992 79.69619591428918 l 9.668934292830372 -36.60962344998357 a58.86492862146525,58.86492862146525 0 0,0 0.9774440410000252,0.26717237956786516 l -10.297676223054108 36.437764529589415" fill="red" stroke="none" /><path d="M 105.71112130821622 79.79150937346287 l 10.281160439994549 -36.37932433384907 a58.80419948868501,58.80419948868501 0 0,0 0.9716967838817496,0.2836649368953197 l -10.905847441599725 36.196961068035044" fill="red" stroke="none" /><path d="M 106.0581310904928 79.89281104454417 l 18.174393271478365 -60.321566866367476 a84.0,84.0 0 0,0 1.380858509157127,0.4290394604699177 l -19.21003715334621 59.99978727101504" fill="red" stroke="none" /><path d="M 106.74666289553966 80.11325718540242 l 12.218900329109738 -36.01693638537286 a59.03315963525399,59.03315963525399 0 0,0 0.9594799876437018,0.3347437278054726 l -12.837062320816715 35.80127180439518" fill="red" stroke="none" /><path d="M 107.08798089147638 80.2323363322302 l 12.774169453394379 -35.625869941813775 a58.84682304150593,58.84682304150593 0 0,0 0.9505658308482096,0.3501014176564394 l -13.385517610015166 35.40070525635101" fill="red" stroke="none" /><path d="M 107.4271985657038 80.35727306442388 l 13.587984186358062 -35.93616901667767 a59.41928627452546,59.41928627452546 0 0,0 0.9535857046771093,0.36997643857192825 l -14.204553056034838 35.69694987421519" fill="red" stroke="none" /><path d="M 107.76421540070413 80.48803036053334 l 13.99094690967999 -35.16014397337667 a58.84154224735112,58.84154224735112 0 0,0 0.9378673013564184,0.3825796206688001 l -14.594098080624795 34.91410346652429" fill="red" stroke="none" /><path d="M 108.09893153111575 80.62456947434976 l 22.203936329285856 -53.119454596101704 a78.5733553399686,78.5733553399686 0 0,0 1.2433905802087921,0.5323549565389573 l -23.115010667284963 52.72938011159996" fill="red" stroke="none" /><path d="M 108.43124777332544 80.76684994638697 l 16.22494533443414 -37.0119366217795 a61.41203166879882,61.41203166879882 0 0,0 0.9645136278882966,0.43274914993605545 l -16.859641080789217 36.72716714132691" fill="red" stroke="none" /><path d="M 108.76106565485865 80.91482961587045 l 15.78268574624969 -34.381119655153185 a58.830603459459034,58.830603459459034 0 0,0 0.9166978711584879,0.43040194208538535 l -16.372161828707775 34.1043527304278" fill="red" stroke="none" /><path d="M 109.08828744355905 81.06846463323043 l 16.404919211787018 -34.17258863957336 a58.90629484234455,58.90629484234455 0 0,0 0.910323106204572,0.44669159472473957 l -16.99071358500202 33.88514188471379" fill="red" stroke="none" /><path d="M 109.41281617654863 81.2277094730956 l 16.97662425828848 -33.857043074598494 a58.87486154380405,58.87486154380405 0 0,0 0.9020175831610971,0.46204844064812006 l -17.556902329038337 33.559802108637875" fill="red" stroke="none" /><path d="M 109.73455568895987 81.39251694778311 l 17.54104917454778 -33.52949899949426 a58.840662114991986,58.840662114991986 0 0,0 0.8934112657580541,0.47722935737644884 l -18.115605486834145 33.22259091561605" fill="red" stroke="none" /><path d="M 110.05341064243156 81.56283822128135 l 18.150938622203533 -33.287389097658405 a58.91446749996507,58.91446749996507 0 0,0 0.8861743375422595,0.49315505940166954 l -18.721237048817827 32.97001864069655" fill="red" stroke="none" /><path d="M 110.36928655335952 81.73862282372117 l 16.640740891525823 -29.30605151561032 a54.701022430402695,54.701022430402695 0 0,0 0.81479326446273,0.4719808500429818 l -17.14273088845388 29.015266508177287" fill="red" stroke="none" /><line stroke="#e1ed5e" stroke-width="0.3" x1="143.23703022742887" x2="145.7803849466894" y1="26.81831364943548" y2="22.513508569990506" /><path d="M 143.74570117128098 25.957352633546492 a86.0,86.0 0 0,1 28.547481713284135,27.462654790039103" fill="none" id="id14" stroke="none" /><text fill="#e1ed5e" style="font-size:6.75px; font-family:Arial;" text-anchor="middle"><textPath startOffset="19.985693538727396" xlink:href="#id14">February</textPath></text><path d="M 110.68208982089419 81.91981866633111 l 31.557639338416482 -53.41350346868085 a83.03939839660241,83.03939839660241 0 0,0 1.224387987716876,0.7376800628287173 l -32.472389392351 52.86237679639352" fill="red" stroke="none" /><path d="M 110.99172775467656 82.1063720568725 l 19.766643471455364 -32.178468377019975 a58.76471926571815,58.76471926571815 0 0,0 0.8573516428207961,0.5368735200807917 l -20.317614266648423 31.833450515616242" fill="red" stroke="none" /><path d="M 111.2981086023043 82.29822771554956 l 20.7075206731559 -32.44435227476875 a59.48944539686784,59.48944539686784 0 0,0 0.8584411225265013,0.5583539851845555 l -21.262928821466684 32.083099365424665" fill="red" stroke="none" /><path d="M 111.60114157652 82.49532879139004 l 21.211806661488247 -32.00596242196148 a59.396905765964625,59.396905765964625 0 0,0 0.8473825778219052,0.5721564991796705 l -21.759593933716694 31.636094010483138" fill="red" stroke="none" /><path d="M 111.90073688211348 82.69761687909136 l 21.43247039171812 -31.160491792940217 a58.81966467156694,58.81966467156694 0 0,0 0.8292700518753624,0.580956666496459 l -21.965671583177134 30.786950283679822" fill="red" stroke="none" /><path d="M 112.48926042617603 83.11751280151076 l 29.929074739052677 -40.45693691242779 a71.32408229736498,71.32408229736498 0 0,0 0.980719194905608,0.7386573651617407 l -30.62104008771667 39.935762957760204" fill="red" stroke="none" /><path d="M 112.77801427241765 83.33499621200491 l 38.03023852191303 -49.5987917617285 a83.50071348598274,83.50071348598274 0 0,0 1.133094522117381,0.8843982473601113 l -38.87836559918984 48.936815125145166" fill="red" stroke="none" /><path d="M 113.06298171725822 83.55741782278167 l 23.47945440055843 -29.553961477828878 a58.74548208701137,58.74548208701137 0 0,0 0.7863407316356885,0.6358328519836656 l -23.98469853075861 29.145422528581083" fill="red" stroke="none" /><path d="M 113.34407831869373 83.78471172551755 l 24.15655253135041 -29.354253898883766 a59.0159341876538,59.0159341876538 0 0,0 0.7788486361630954,0.6522633342989035 l -24.658258704472622 28.934089407191045" fill="red" stroke="none" /><path d="M 113.6212207817346 84.01681056812373 l 16.46645884791555 -19.321802007008767 a46.38653776685872,46.38653776685872 0 0,0 0.6032595773064379,0.5231407608215549 l -16.796612223868753 19.03549625276754" fill="red" stroke="none" /><path d="M 113.89432698308785 84.25364557470407 l 25.091181111705204 -28.43567962774374 a58.92301735716809,58.92301735716809 0 0,0 0.7547449641318563,0.6776174808599994 l -25.57693706343305 27.999563138114443" fill="red" stroke="none" /><path d="M 114.16331599549186 84.49514656593476 l 25.462796330089613 -27.874611090026974 a58.753780477826055,58.753780477826055 0 0,0 0.7408351365607895,0.688525520303348 l -25.93883935044525 27.432180983648983" fill="red" stroke="none" /><path d="M 114.42810811169701 84.74124197986012 l 34.6862187756476 -36.68316142586678 a71.48552371866899,71.48552371866899 0 0,0 0.8868179413264374,0.8531181569310987 l -35.31251996058646 36.08066018217338" fill="red" stroke="none" /><path d="M 114.68862486808459 84.99185889309783 l 44.03676476634181 -44.99468026722772 a83.9583823127324,83.9583823127324 0 0,0 1.0241491344946245,1.0197511126375813 l -44.80474970100376 44.22999330394002" fill="red" stroke="none" /><path d="M 114.94478906791727 85.2469230424477 l 36.245828279978234 -35.78086593090111 a71.93162509155573,71.93162509155573 0 0,0 0.8622743145454618,0.8886494771912068 l -36.8563668582268 35.15165225815979" fill="red" stroke="none" /><path d="M 115.19652480421416 85.50635884689758 l 28.197039997824557 -26.892844553171397 a59.96534553677098,59.96534553677098 0 0,0 0.7059710936201161,0.7530807402629307 l -28.655778413415135 26.40349439603041" fill="red" stroke="none" /><path d="M 115.4437574822437 85.77008943001954 l 27.994274279020484 -25.79398309769962 a59.06585026573611,59.06585026573611 0 0,0 0.6825097233048518,0.7536442831551503 l -28.434127642941373 25.30828602727492" fill="red" stroke="none" /><path d="M 115.9244219780498 86.31012108654704 l 31.306271830132395 -26.91332038154405 a62.28449430308885,62.28449430308885 0 0,0 0.6919195935825114,0.8190145561273754 l -31.764902037202024 26.370446875787568" fill="red" stroke="none" /><line stroke="#e1ed5e" stroke-width="0.3" x1="172.23445277983987" x2="176.4835382374775" y1="55.19839476539836" y2="52.563006222186495" /><path d="M 173.08426987136738 54.67131705675599 a86.0,86.0 0 0,1 12.851231095245387,41.99856678651699" fill="none" id="id15" stroke="none" /><text fill="#e1ed5e" style="font-size:6.75px; font-family:Arial;" text-anchor="middle"><textPath startOffset="22.20632615414155" xlink:href="#id15">March</textPath></text><line stroke="#e1ed5e" stroke-width="0.3" x1="184.98032266829074" x2="189.97916517819016" y1="98.17113171792111" y2="98.06355123074" /><path d="M 185.9800911702706 98.14961562048488 a86.0,86.0 0 0,1 -9.607161424134198,41.387399972396054" fill="none" id="id16" stroke="none" /><text fill="#e1ed5e" style="font-size:6.75px; font-family:Arial;" text-anchor="middle"><textPath startOffset="21.466115282336823" xlink:href="#id16">April</textPath></text><line stroke="#e1ed5e" stroke-width="0.3" x1="174.80103733775053" x2="179.2010983576182" y1="140.37084112569926" y2="142.7455964860345" /><path d="M 175.68104954172406 140.8457921977663 a86.0,86.0 0 0,1 -30.038265399797805,32.042727171017184" fill="none" id="id17" stroke="none" /><text fill="#e1ed5e" style="font-size:6.75px; font-family:Arial;" text-anchor="middle"><textPath startOffset="22.206326154141568" xlink:href="#id17">May</textPath></text><line stroke="#e1ed5e" stroke-width="0.3" x1="143.8653032363475" x2="146.44561519142675" y1="172.8068346515853" y2="177.08958963109032" /><path d="M 144.38136562736335 173.6633856474863 a86.0,86.0 0 0,1 -40.68145358897372,12.25698825130547" fill="none" id="id18" stroke="none" /><text fill="#e1ed5e" style="font-size:6.75px; font-family:Arial;" text-anchor="middle"><textPath startOffset="21.466115282336833" xlink:href="#id18">June</textPath></text><line stroke="#e1ed5e" stroke-width="0.3" x1="102.19456741930631" x2="102.32365962044197" y1="184.97166512339345" y2="189.96999836594603" /><path d="M 102.22038585953345 185.97133177190398 a86.0,86.0 0 0,1 -42.740103519485714,-10.115201625700543" fill="none" id="id19" stroke="none" /><text fill="#e1ed5e" style="font-size:6.75px; font-family:Arial;" text-anchor="middle"><textPath startOffset="22.20632615414155" xlink:href="#id19">July</textPath></text><line stroke="#e1ed5e" stroke-width="0.3" x1="58.666819895761336" x2="56.23545636021788" y1="174.27360380694188" y2="178.64263932499728" /><path d="M 58.180547188652646 175.14741091055294 a86.0,86.0 0 0,1 -31.652253787137756,-30.449443065178592" fill="none" id="id20" stroke="none" /><text fill="#e1ed5e" style="font-size:6.75px; font-family:Arial;" text-anchor="middle"><textPath startOffset="22.20632615414155" xlink:href="#id20">August</textPath></text><line stroke="#e1ed5e" stroke-width="0.3" x1="26.63291911575756" x2="22.317208475507996" y1="142.92168965132927" y2="145.44649492493687" /><path d="M 25.769776987707644 143.4266507060508 a86.0,86.0 0 0,1 -11.730757126820373,-40.83630448921669" fill="none" id="id21" stroke="none" /><text fill="#e1ed5e" style="font-size:6.75px; font-family:Arial;" text-anchor="middle"><textPath startOffset="21.46611528233685" xlink:href="#id21">September</textPath></text><line stroke="#e1ed5e" stroke-width="0.3" x1="15.007084014347285" x2="10.007500721073583" y1="101.09737516637583" y2="101.16192664675087" /><path d="M 14.007167355692545 101.11028546245083 a86.0,86.0 0 0,1 10.666146001902534,-42.60595125391555" fill="none" id="id22" stroke="none" /><text fill="#e1ed5e" style="font-size:6.75px; font-family:Arial;" text-anchor="middle"><textPath startOffset="22.20632615414155" xlink:href="#id22">October</textPath></text><line stroke="#e1ed5e" stroke-width="0.3" x1="26.266209847984243" x2="21.928928074336255" y1="57.711370442889674" y2="55.22380399835377" /><path d="M 25.398753493254645 57.213857153982495 a86.0,86.0 0 0,1 29.58750427330803,-30.492523968695096" fill="none" id="id23" stroke="none" /><text fill="#e1ed5e" style="font-size:6.75px; font-family:Arial;" text-anchor="middle"><textPath startOffset="21.46611528233685" xlink:href="#id23">November</textPath></text><line stroke="#e1ed5e" stroke-width="0.3" x1="56.762969772571076" x2="54.21961505331055" y1="26.818313649435495" y2="22.513508569990535" /><path d="M 56.25429882871897 25.957352633546506 a86.0,86.0 0 0,1 42.265352541879196,-11.944610805530505" fill="none" id="id24" stroke="none" /><text fill="#e1ed5e" style="font-size:6.75px; font-family:Arial;" text-anchor="middle"><textPath startOffset="22.20632615414155" xlink:href="#id24">December</textPath></text></svg>