<?xml version="1.0" encoding="utf-8" ?>
<svg baseProfile="full" height="200mm" version="1.1" viewBox="0,0,200,200" width="200mm" xmlns="http://www.w3.org/2000/svg" xmlns:ev="http://www.w3.org/2001/xml-events" xmlns:xlink="http://www.w3.org/1999/xlink"><defs /><rect fill="#1a1a1a" height="200" width="200" x="0" y="0" /><text alignment-baseline="middle" fill="#e1ed5e" style="dominant-baseline: central; font-size:9.0px; font-family:Arial;" text-anchor="middle" x="100.0" y="100.0">2025</text><line stroke="#e1ed5e" stroke-width="0.3" x1="100.0" x2="100.0" y1="15.0" y2="10.0" /><path d="M 100.0 14.0 a86.0,86.0 0 0,1 42.46469731375804,11.215312516191453" fill="none" id="id1" stroke="none" /><text fill="#e1ed5e" style="font-size:6.75px; font-family:Arial;" text-anchor="middle"><textPath startOffset="22.20632615414155" xlink:href="#id1">January</textPath></text><line stroke="#e1ed5e" stroke-width="0.3" x1="143.23703022742887" x2="145.7803849466894" y1="26.81831364943548" y2="22.513508569990506" /><path d="M 143.74570117128098 25.957352633546492 a86.0,86.0 0 0,1 28.547481713284135,27.462654790039103" fill="none" id="id2" stroke="none" /><text fill="#e1ed5e" style="font-size:6.75px; font-family:Arial;" text-anchor="middle"><textPath startOffset="19.985693538727396" xlink:href="#id2">February</textPath></text><line stroke="#e1ed5e" stroke-width="0.3" x1="172.23445277983987" x2="176.4835382374775" y1="55.19839476539836" y2="52.563006222186495" /><path d="M 173.08426987136738 54.67131705675599 a86.0,86.0 0 0,1 12.851231095245387,41.99856678651699" fill="none" id="id3" stroke="none" /><text fill="#e1ed5e" style="font-size:6.75px; font-family:Arial;" text-anchor="middle"><textPath startOffset="22.20632615414155" xlink:href="#id3">March</textPath></text><line stroke="#e1ed5e" stroke-width="0.3" x1="184.98032266829074" x2="189.97916517819016" y1="98.17113171792111" y2="98.06355123074" /><path d="M 185.9800911702706 98.14961562048488 a86.0,86.0 0 0,1 -9.607161424134198,41.387399972396054" fill="none" id="id4" stroke="none" /><text fill="#e1ed5e" style="font-size:6.75px; font-family:Arial;" text-anchor="middle"><textPath startOffset="21.466115282336823" xlink:href="#id4">April</textPath></text><line stroke="#e1ed5e" stroke-width="0.3" x1="174.80103733775053" x2="179.2010983576182" y1="140.37084112569926" y2="142.7455964860345" /><path d="M 175.68104954172406 140.8457921977663 a86.0,86.0 0 0,1 -30.038265399797805,32.042727171017184" fill="none" id="id5" stroke="none" /><text fill="#e1ed5e" style="font-size:6.75px; font-family:Arial;" text-anchor="middle"><textPath startOffset="22.206326154141568" xlink:href="#id5">May</textPath></text><path d="M 117.75023020441432 111.22182372390056 l 37.69825402143587 23.83310844172439 a65.60017280526725,65.60017280526725 0 0,0 -0.6116283236617337,0.9492607408067059 l -37.28242083439709 -24.47849078245255" fill="red" stroke="none" /><path d="M 117.35343817320211 111.8261652097733 l 36.47247417177058 24.855564693262057 a65.13661142896459,65.13661142896459 0 0,0 -0.6393905709761519,0.9210898054933275 l -36.03922269363229 -25.479695760942406" fill="red" stroke="none" /><path d="M 116.93607887273984 112.41649034213515 l 34.10283821705015 25.00210140394195 a63.28603373539888,63.28603373539888 0 0,0 -0.6516615128968727,0.873007089527812 l -33.66741543745818 -25.585421372979077" fill="red" stroke="none" /><path d="M 116.71984013943494 112.70617746262583 l 35.010729875915814 26.606267954095195 a64.9732270920552,64.9732270920552 0 0,0 -0.6843635664811863,0.8846321628140751 l -34.54755949221656 -27.204978111022523" fill="red" stroke="none" /><path d="M 116.498646956653 112.99209946851258 l 32.824877241350684 25.848426921419335 a62.78054260324652,62.78054260324652 0 0,0 -0.6758836263843414,0.8432687457728905 l -32.37507570291149 -26.409623500770476" fill="red" stroke="none" /><path d="M 116.0416608686014 113.55231037782055 l 34.08637493173051 28.796839461539435 a65.62217967513668,65.62217967513668 0 0,0 -0.7363980085113409,0.8565972500900898 l -33.58563441364839 -29.379313810791054" fill="red" stroke="none" /><path d="M 115.56566222782051 114.09645910891815 l 32.06755363285778 29.04077911318737 a64.26308874198824,64.26308874198824 0 0,0 -0.7495940200304619,0.8135362621260972 l -31.562913204831595 -29.5884666301148" fill="red" stroke="none" /><path d="M 115.07121518719521 114.62390073753431 l 34.31297664360202 33.294565714362534 a68.81117518167048,68.81117518167048 0 0,0 -0.832154430396718,0.8429680445641188 l -33.734781588149765 -33.88027425290732" fill="red" stroke="none" /><path d="M 114.81725581225074 114.88116024355365 l 27.929838263024113 28.05029514472992 a60.584023584081805,60.584023584081805 0 0,0 -0.7453278751530257,0.7294601965605503 l -27.442860435495295 -28.52690544421304" fill="red" stroke="none" /><path d="M 114.29624159901734 115.38237550388516 l 27.863733604772573 29.980635839163217 a61.929526942272986,61.929526942272986 0 0,0 -0.787096125818888,0.7189936490665356 l -27.34353792948682 -30.455822254816336" fill="red" stroke="none" /><path d="M 113.75828350139079 115.86535959552629 l 26.601919787565745 30.675994088827498 a61.60392529943209,61.60392529943209 0 0,0 -0.8071126965829729,0.6878389499640177 l -26.069941614405725 -31.129357429014462" fill="red" stroke="none" /><path d="M 113.20401910651253 116.32954008644616 l 34.52220534683143 42.69395034467681 a75.90497298098347,75.90497298098347 0 0,0 -1.0230635175123468,0.8127835324657342 l -33.78218433660173 -43.28186779114767" fill="red" stroke="none" /><path d="M 112.92097659922987 116.55440617244103 l 38.762929797689644 49.6632185173231 a84.0,84.0 0 0,0 -1.147485086026025,0.8798426326905142 l -37.90231598317012 -50.32310049184099" fill="red" stroke="none" /><path d="M 112.34349029814194 116.9893568818739 l 29.25909130023624 40.27168427506055 a70.77853933238418,70.77853933238418 0 0,0 -0.9918185666806437,0.7076362129104133 l -28.561545405706713 -40.76936474981518" fill="red" stroke="none" /><path d="M 111.7513745106137 117.40417183066458 l 23.507709152258904 34.81568977838949 a63.00886387814185,63.00886387814185 0 0,0 -0.904103090006366,0.5991902288215558 l -22.904931363512574 -35.21517802830236" fill="red" stroke="none" /><path d="M 111.1453310114006 117.79835938074945 l 24.188938863785296 38.62814181976686 a66.5767276557232,66.5767276557232 0 0,0 -0.9765246151621262,0.5998611768232812 l -23.52043504869086 -39.03879146341852" fill="red" stroke="none" /><line stroke="#e1ed5e" stroke-width="0.3" x1="143.8653032363475" x2="146.44561519142675" y1="172.8068346515853" y2="177.08958963109032" /><path d="M 144.38136562736335 173.6633856474863 a86.0,86.0 0 0,1 -40.68145358897372,12.25698825130547" fill="none" id="id6" stroke="none" /><text fill="#e1ed5e" style="font-size:6.75px; font-family:Arial;" text-anchor="middle"><textPath startOffset="21.466115282336833" xlink:href="#id6">June</textPath></text><path d="M 110.8373102113329 117.98757091392108 l 21.261784985962993 35.28992505830591 a62.20002805108473,62.20002805108473 0 0,0 -0.9218403405920692,0.5446395219715375 l -20.65117677434254 -35.6506831525712" fill="red" stroke="none" /><line stroke="#e1ed5e" stroke-width="0.3" x1="102.19456741930631" x2="102.32365962044197" y1="184.97166512339345" y2="189.96999836594603" /><path d="M 102.22038585953345 185.97133177190398 a86.0,86.0 0 0,1 -42.740103519485714,-10.115201625700543" fill="none" id="id7" stroke="none" /><text fill="#e1ed5e" style="font-size:6.75px; font-family:Arial;" text-anchor="middle"><textPath startOffset="22.20632615414155" xlink:href="#id7">July</textPath></text><line stroke="#e1ed5e" stroke-width="0.3" x1="58.666819895761336" x2="56.23545636021788" y1="174.27360380694188" y2="178.64263932499728" /><path d="M 58.180547188652646 175.14741091055294 a86.0,86.0 0 0,1 -31.652253787137756,-30.449443065178592" fill="none" id="id8" stroke="none" /><text fill="#e1ed5e" style="font-size:6.75px; font-family:Arial;" text-anchor="middle"><textPath startOffset="22.20632615414155" xlink:href="#id8">August</textPath></text><line stroke="#e1ed5e" stroke-width="0.3" x1="26.63291911575756" x2="22.317208475507996" y1="142.92168965132927" y2="145.44649492493687" /><path d="M 25.769776987707644 143.4266507060508 a86.0,86.0 0 0,1 -11.730757126820373,-40.83630448921669" fill="none" id="id9" stroke="none" /><text fill="#e1ed5e" style="font-size:6.75px; font-family:Arial;" text-anchor="middle"><textPath startOffset="21.46611528233685" xlink:href="#id9">September</textPath></text><line stroke="#e1ed5e" stroke-width="0.3" x1="15.007084014347285" x2="10.007500721073583" y1="101.09737516637583" y2="101.16192664675087" /><path d="M 14.007167355692545 101.11028546245083 a86.0,86.0 0 0,1 10.666146001902534,-42.60595125391555" fill="none" id="id10" stroke="none" /><text fill="#e1ed5e" style="font-size:6.75px; font-family:Arial;" text-anchor="middle"><textPath startOffset="22.20632615414155" xlink:href="#id10">October</textPath></text><line stroke="#e1ed5e" stroke-width="0.3" x1="26.266209847984243" x2="21.928928074336255" y1="57.711370442889674" y2="55.22380399835377" /><path d="M 25.398753493254645 57.213857153982495 a86.0,86.0 0 0,1 29.58750427330803,-30.492523968695096" fill="none" id="id11" stroke="none" /><text fill="#e1ed5e" style="font-size:6.75px; font-family:Arial;" text-anchor="middle"><textPath startOffset="21.46611528233685" xlink:href="#id11">November</textPath></text><line stroke="#e1ed5e" stroke-width="0.3" x1="56.762969772571076" x2="54.21961505331055" y1="26.818313649435495" y2="22.513508569990535" /><path d="M 56.25429882871897 25.957352633546506 a86.0,86.0 0 0,1 42.265352541879196,-11.944610805530505" fill="none" id="id12" stroke="none" /><text fill="#e1ed5e" style="font-size:6.75px; font-family:Arial;" text-anchor="middle"><textPath startOffset="22.20632615414155" xlink:href="#id12">December</textPath></text></svg>