<?xml version="1.0" encoding="utf-8" ?>
<svg baseProfile="full" height="200mm" version="1.1" viewBox="0,0,200,200" width="200mm" xmlns="http://www.w3.org/2000/svg" xmlns:ev="http://www.w3.org/2001/xml-events" xmlns:xlink="http://www.w3.org/1999/xlink"><defs /><rect fill="#1a1a1a" height="200" width="200" x="0" y="0" /><rect fill="#1a1a1a" height="200" width="180" x="10" y="0" /><text alignment-baseline="middle" fill="#e1ed5e" style="dominant-baseline: central; font-size:9.0px; font-family:Arial;" text-anchor="middle" x="100.0" y="100.0">2026</text><line stroke="#e1ed5e" stroke-width="0.3" x1="100.0" x2="100.0" y1="15.0" y2="10.0" /><path d="M 100.0 14.0 a86.0,86.0 0 0,1 42.46469731375804,11.215312516191453" fill="none" id="id13" stroke="none" /><text fill="#e1ed5e" style="font-size:6.75px; font-family:Arial;" text-anchor="middle"><textPath startOffset="22.20632615414155" xlink:href="#id13">January</textPath></text><path d="M 100.0 79.0 l 0.0 -45.62951728321866 a66.62951728321866,66.62951728321866 0 0,0 1.1469176114873854,0.009871881976884544 l -0.7854371322148571 45.622756777850334" fill="red" stroke="none" /><path d="M 100.36148047927253 79.00311137660856 l 0.6748845083532273 -39.20121740477599 a60.20702634880803,60.20702634880803 0 0,0 1.0360578903133337,0.026758318638278815 l -1.349569033861429 39.18379229399535" fill="red" stroke="none" /><path d="M 100.72285384407766 79.0124445844662 l 1.382446283739991 -40.13836023243815 a61.162160298923155,61.162160298923155 0 0,0 1.0518702334680647,0.045295744920947165 l -2.073157349597387 40.108616760993016" fill="red" stroke="none" /><path d="M 101.08401301168833 79.027996857942 l 1.2440968258704774 -24.069086127059947 a45.10121747762902,45.10121747762902 0 0,0 0.7749633766412735,0.04674790721218439 l -1.658222251351363 24.04410495046746" fill="red" stroke="none" /><path d="M 101.44485096284872 79.0497635885617 l 2.5700092728928925 -37.26495204774439 a58.353468363506,58.353468363506 0 0,0 1.001483927759134,0.0777344275172767 l -3.211083390014368 37.21519235803864" fill="red" stroke="none" /><path d="M 101.80526077348638 79.07773832637324 l 3.1722536189409913 -36.76517059771686 a57.90177451156121,57.90177451156121 0 0,0 0.9922568449332108,0.09422674359702558 l -3.8046355909644465 36.70511830960466" fill="red" stroke="none" /><path d="M 102.16513564639614 79.11191278185805 l 3.84630586627263 -37.10713115646261 a58.30594123567774,58.30594123567774 0 0,0 0.9974016892886075,0.11206970118939574 l -4.484474259070963 37.03542550180261" fill="red" stroke="none" /><path d="M 102.52436894288641 79.15227682838746 l 4.526882786169006 -37.385660056679086 a58.65873398872144,58.65873398872144 0 0,0 1.0013472466348972,0.13000361147161638 l -5.169744761311749 37.30219812204333" fill="red" stroke="none" /><path d="M 102.88285421437855 79.19881850522331 l 5.026036163218245 -36.265271378958865 a57.611896259324105,57.611896259324105 0 0,0 0.9811333904124091,0.1445935576577343 l -5.64953853405931 36.17338333714016" fill="red" stroke="none" /><path d="M 103.2404852339499 79.25152402106235 l 7.679120685239374 -49.16857802892722 a70.76462558771216,70.76462558771216 0 0,0 1.2018892945549793,0.19832203178643426 l -8.524339185933227 49.029109734201164" fill="red" stroke="none" /><path d="M 103.59715602781102 79.31037775812273 l 10.21053995081602 -58.72756500821915 a80.60857335888703,80.60857335888703 0 0,0 1.3649905698740454,0.2494433018443312 l -11.219925641792965 58.54310622502408" fill="red" stroke="none" /><path d="M 103.95276090670814 79.375362276772 l 6.812365486717336 -35.54542597386137 a57.19234216222924,57.19234216222924 0 0,0 0.9652803420735058,0.19362615573396094 l -7.4232122382579675 35.422895862050204" fill="red" stroke="none" /><path d="M 104.307194497241 79.44645832069477 l 7.731000488870856 -36.89163349194472 a58.69298330277,58.69298330277 0 0,0 0.987040671167082,0.21572886035515693 l -8.364883884191466 36.75309113349368" fill="red" stroke="none" /><path d="M 104.66035177308747 79.52364482259891 l 8.32638489103556 -36.583936722793396 a58.519503081610985,58.519503081610985 0 0,0 0.9802750016587788,0.23199942147757852 l -8.954883579656862 36.435191389174946" fill="red" stroke="none" /><path d="M 105.01212808612495 79.60689891045804 l 8.910042967062969 -36.25274610249609 a58.33162822121416,58.33162822121416 0 0,0 0.9730024225914792,0.2480399823212351 l -9.532754278339475 36.09400312400599" fill="red" stroke="none" /><path d="M 105.36241919743992 79.69619591428918 l 9.542704068238388 -36.13167615503235 a58.370593020530286,58.370593020530286 0 0,0 0.9692356663582211,0.2649287207051116 l -10.16323762382032 35.96206089350095" fill="red" stroke="none" /><path d="M 105.71112130821622 79.79150937346287 l 10.146937458215774 -35.904383648341295 a58.310656720945296,58.310656720945296 0 0,0 0.9635413472923432,0.28128414131807583 l -10.763469023231544 35.72440117810452" fill="red" stroke="none" /><path d="M 106.0581310904928 79.89281104454417 l 17.937122267766725 -59.534054540533575 a83.17752009596425,83.17752009596425 0 0,0 1.3673379332750022,0.4248385517285505 l -18.959245573752444 59.2164758539225" fill="red" stroke="none" /><path d="M 106.74666289553966 80.11325718540242 l 12.059379694663573 -35.54672676026329 a58.53662773863526,58.53662773863526 0 0,0 0.9514097366021511,0.3319281756806086 l -12.669471435328997 35.33387773141047" fill="red" stroke="none" /><path d="M 107.08798089147638 80.2323363322302 l 12.607399649169553 -35.16076578164024 a58.352723813200605,58.352723813200605 0 0,0 0.9425845360356716,0.34716183942006396 l -13.2107665109778 34.93854067441385" fill="red" stroke="none" /><path d="M 107.4271985657038 80.35727306442388 l 13.410589838268615 -35.4670138286737 a58.91771340328429,58.91771340328429 0 0,0 0.9455362522205508,0.3668533760745306 l -14.019109255488834 35.23091774870862" fill="red" stroke="none" /><path d="M 107.76421540070413 80.48803036053334 l 13.80829178790788 -34.7011199758988 a58.34751196106277,58.34751196106277 0 0,0 0.9299930201310576,0.37936750364554844 l -14.403568677627325 34.45829158606967" fill="red" stroke="none" /><path d="M 108.09893153111575 80.62456947434976 l 21.914058687677493 -52.4259675497742 a77.82172156576172,77.82172156576172 0 0,0 1.231496289191539,0.5272624418630876 l -22.813238734659347 52.04098557994832" fill="red" stroke="none" /><path d="M 108.43124777332544 80.76684994638697 l 16.0131248347254 -36.528737033194446 a60.884443035007656,60.884443035007656 0 0,0 0.9562275247683916,0.42903141700026254 l -16.63953447796057 36.247685285677655" fill="red" stroke="none" /><path d="M 108.76106565485865 80.91482961587045 l 15.57663905009093 -33.93226600444506 a58.33671598163443,58.33671598163443 0 0,0 0.9090021214484642,0.4267886844077916 l -16.158419382838993 33.65911233739727" fill="red" stroke="none" /><path d="M 109.08828744355905 81.06846463323043 l 16.190749110532654 -33.72645741060623 a58.41141919560991,58.41141919560991 0 0,0 0.902675422079706,0.4429389093381953 l -16.768895799622793 33.4427633411332" fill="red" stroke="none" /><path d="M 109.41281617654863 81.2277094730956 l 16.75499041240264 -33.41503136763136 a58.3803962662181,58.3803962662181 0 0,0 0.8944419156699165,0.4581678895186156 l -17.327692815661315 33.121670952800244" fill="red" stroke="none" /><path d="M 109.73455568895987 81.39251694778311 l 17.312046627853043 -33.091763457915356 a58.3466433190398,58.3466433190398 0 0,0 0.8859102971772219,0.4732225997355609 l -17.879101971558576 32.788862131678044" fill="red" stroke="none" /><path d="M 110.05341064243156 81.56283822128135 l 17.913973824486888 -32.8528143581244 a58.41948515725178,58.41948515725178 0 0,0 0.8787289566661729,0.4890117130050702 l -18.476826870225096 32.53958724755915" fill="red" stroke="none" /><path d="M 110.36928655335952 81.73862282372117 l 16.423492082453667 -28.923454080082927 a54.261047609855645,54.261047609855645 0 0,0 0.8082396662960587,0.46818458297935395 l -16.91892848121505 28.63646533971352" fill="red" stroke="none" /><line stroke="#e1ed5e" stroke-width="0.3" x1="143.23703022742887" x2="145.7803849466894" y1="26.81831364943548" y2="22.513508569990506" /><path d="M 143.74570117128098 25.957352633546492 a86.0,86.0 0 0,1 28.547481713284135,27.462654790039103" fill="none" id="id14" stroke="none" /><text fill="#e1ed5e" style="font-size:6.75px; font-family:Arial;" text-anchor="middle"><textPath startOffset="19.985693538727396" xlink:href="#id14">February</textPath></text><path d="M 110.68208982089419 81.91981866633111 l 31.14564689119973 -52.716177544758104 a82.22945937375046,82.22945937375046 0 0,0 1.2124457093585148,0.7304849737408693 l -32.04845466677588 52.172245961558616" fill="red" stroke="none" /><path d="M 110.99172775467656 82.1063720568725 l 19.508585264701214 -31.75837085983349 a58.271691921629184,58.271691921629184 0 0,0 0.85015858874529,0.5323692302786018 l -20.052363005818766 31.417857288231943" fill="red" stroke="none" /><path d="M 111.2981086023043 82.29822771554956 l 20.437179091948355 -32.02078358039647 a58.98695658168681,58.98695658168681 0 0,0 0.8511901377562898,0.5536377429907466 l -20.985336255488924 31.664246913246192" fill="red" stroke="none" /><path d="M 111.60114157652 82.49532879139004 l 20.93488150740308 -31.588117010828363 a58.89562507755733,58.89562507755733 0 0,0 0.8402310853918346,0.5673277795673124 l -21.47551728720146 31.22307731896238" fill="red" stroke="none" /><path d="M 111.90073688211348 82.69761687909136 l 21.15266442043194 -30.753684200883644 a58.325920002206075,58.325920002206075 0 0,0 0.8223089841803949,0.5760799937236042 l -21.678904544195987 30.385019364396104" fill="red" stroke="none" /><path d="M 112.48926042617603 83.11751280151076 l 29.5383435879534 -39.92876203005774 a70.6670894977043,70.6670894977043 0 0,0 0.9716854235791761,0.7318533158883928 l -30.221275165290958 39.4143921246635" fill="red" stroke="none" /><path d="M 112.77801427241765 83.33499621200491 l 37.53374476112002 -48.95126780159397 a82.6847518855047,82.6847518855047 0 0,0 1.1220220224804167,0.8757559857643816 l -38.370799338759866 48.29793342660636" fill="red" stroke="none" /><path d="M 113.06298171725822 83.55741782278167 l 23.17292456877775 -29.168127519096167 a58.2527058888414,58.2527058888414 0 0,0 0.7797446499893128,0.6304992793523609 l -23.671572617331552 28.764922142479676" fill="red" stroke="none" /><path d="M 113.34407831869373 83.78471172551755 l 23.841183023289787 -28.971027169839406 a58.51962717332855,58.51962717332855 0 0,0 0.7722987433833542,0.6467779874607026 l -24.336339303632258 28.556348024984885" fill="red" stroke="none" /><path d="M 113.6212207817346 84.01681056812373 l 16.251485332152978 -19.069551310810002 a46.055110510568475,46.055110510568475 0 0,0 0.5989493468783258,0.5194029714680121 l -16.57732847767807 18.78698334592232" fill="red" stroke="none" /><path d="M 113.89432698308785 84.25364557470407 l 24.763609806421098 -28.064445103118057 a58.42792339404635,58.42792339404635 0 0,0 0.7484033052657942,0.6719238769149405 l -25.24302409928288 27.63402221743382" fill="red" stroke="none" /><path d="M 114.16331599549186 84.49514656593476 l 25.130373500215743 -27.510701447894288 a58.26089594220083,58.26089594220083 0 0,0 0.7346202823115991,0.68274949059801 l -25.60020166632219 27.07404737122164" fill="red" stroke="none" /><path d="M 114.42810811169701 84.74124197986012 l 34.23338198374351 -36.20425407524337 a70.82642326306065,70.82642326306065 0 0,0 0.8786414311917392,0.8452523606597596 l -34.85150665854767 35.60961862782131" fill="red" stroke="none" /><path d="M 114.68862486808459 84.99185889309783 l 43.46185438445187 -44.40726407185773 a83.13644573744949,83.13644573744949 0 0,0 1.0141229094888837,1.009767943428339 l -44.219813094108076 43.65256027777928" fill="red" stroke="none" /><path d="M 114.94478906791727 85.2469230424477 l 35.77263041703517 -35.31373826142232 a71.26670067698926,71.26670067698926 0 0,0 0.8543035889700965,0.8804349438392343 l -36.37519826970838 34.692739122032975" fill="red" stroke="none" /><path d="M 115.19652480421416 85.50635884689758 l 27.828920970022917 -26.541752105435826 a59.45664373267886,59.45664373267886 0 0,0 0.6999821550799185,0.7466921581949116 l -28.2816704470733 26.05879053036286" fill="red" stroke="none" /><path d="M 115.4437574822437 85.77008943001954 l 27.628802405646532 -25.457236546225086 a58.56889158520275,58.56889158520275 0 0,0 0.6767673335818764,0.7473033929984305 l -28.062913379844442 24.97788036595711" fill="red" stroke="none" /><path d="M 115.9244219780498 86.31012108654704 l 30.8975610452028 -26.56196061702507 a61.7455154632068,61.7455154632068 0 0,0 0.6859320677301539,0.8119272140810556 l -31.35020372642007 26.02617445331491" fill="red" stroke="none" /><path d="M 116.15771136456269 86.58626213691792 l 28.736970664162985 -23.856732105858757 a58.34912515339116,58.34912515339116 0 0,0 0.6348982420748677,0.7783101735706196 l -29.14336739831426 23.358537762680037" fill="red" stroke="none" /><path d="M 116.38621287248628 86.86637796730983 l 29.083818023106723 -23.31080867528536 a58.27280874708729,58.27280874708729 0 0,0 0.6205940899340205,0.7880914718996527 l -29.480766193634707 22.80672480943267" fill="red" stroke="none" /><path d="M 116.60985879189232 87.15038557335679 l 29.599920056964564 -22.8989038713029 a58.42345609221393,58.42345609221393 0 0,0 0.6085055001251086,0.8007219099516737 l -29.989701497313785 22.385997185470192" fill="red" stroke="none" /><path d="M 116.82858285166822 87.43820079747576 l 29.97339296440679 -22.373823580748322 a58.40310505053291,58.40310505053291 0 0,0 0.5944250997425302,0.810795168020448 l -30.35408067666295 21.85456596905638" fill="red" stroke="none" /><path d="M 117.04232023915458 87.72973835380427 l 30.305742144324476 -21.819762818366637 a58.34354102610062,58.34354102610062 0 0,0 0.5797886061000769,0.8200698660814153 l -30.676843370228436 21.29486645195343" fill="red" stroke="none" /><path d="M 117.2510076193507 88.02491185347247 l 30.735356032745297 -21.33548403828743 a58.414769671984224,58.414769671984224 0 0,0 0.5662770451815266,0.8309416888866209 l -31.09805754359556 20.803264326130403" fill="red" stroke="none" /><path d="M 117.45458315368197 88.32363383020206 l 20.800627387157462 -13.914725994630489 a46.02570077350504,46.02570077350504 0 0,0 0.4348406615939408,0.6622921603105724 l -21.03706468410933 13.554615770342243" fill="red" stroke="none" /><path d="M 117.65298651832404 88.62581576622439 l 31.316666309011044 -20.177975653956526 a58.25431908116977,58.25431908116977 0 0,0 0.535863183141174,0.8476068679075536 l -31.659357088398174 19.63592113833477" fill="red" stroke="none" /><line stroke="#e1ed5e" stroke-width="0.3" x1="172.23445277983987" x2="176.4835382374775" y1="55.19839476539836" y2="52.563006222186495" /><path d="M 173.08426987136738 54.67131705675599 a86.0,86.0 0 0,1 12.851231095245387,41.99856678651699" fill="none" id="id15" stroke="none" /><text fill="#e1ed5e" style="font-size:6.75px; font-family:Arial;" text-anchor="middle"><textPath startOffset="22.20632615414155" xlink:href="#id15">March</textPath></text><path d="M 117.84615892207809 88.93136811851018 l 52.88159593608652 -32.798481806530475 a83.22703269127359,83.22703269127359 0 0,0 0.7446211713431563,1.2239614207339549 l -53.438332905715896 31.883352612589437" fill="red" stroke="none" /><path d="M 118.03404312379186 89.2402003453031 l 32.12256985489265 -19.165553373700586 a58.405586884884244,58.405586884884244 0 0,0 0.5076845163199215,0.8677974067446289 l -32.4477140456829 18.609776554602064" fill="red" stroke="none" /><path d="M 118.21658344932153 89.55222093294921 l 32.40239585896526 -18.58378516033966 a58.35334427178843,58.35334427178843 0 0,0 0.4922309067990141,0.8756238585948842 l -32.7174844070567 18.02327779180998" fill="red" stroke="none" /><path d="M 118.3937258080291 89.86733742301442 l 23.033776819494964 -12.68875543875159 a47.29751678685179,47.29751678685179 0 0,0 0.38669526473243576,0.716487596716658 l -23.248780183445863 12.290386858702472" fill="red" stroke="none" /><path d="M 118.56541770881063 90.18545643968196 l 33.03593300765196 -17.464331190645773 a58.368111186178936,58.368111186178936 0 0,0 0.4619156896859253,0.8922740876621209 l -33.331658130498006 16.89308438072331" fill="red" stroke="none" /><path d="M 118.73160827565052 90.50648371742162 l 33.337192505364015 -16.895889301535828 a58.3743157720573,58.3743157720573 0 0,0 0.4465356823560452,0.9001886876531084 l -33.623088200673465 16.319541025383767" fill="red" stroke="none" /><path d="M 118.89224826269711 90.83032412892265 l 22.51121366877016 -10.926202638082366 a46.02272257228343,46.02272257228343 0 0,0 0.3397831443774571,0.7156699575643073 l -22.695955006989372 10.537090264877518" fill="red" stroke="none" /><path d="M 119.04729006885535 91.15688171328212 l 56.45878664500838 -26.21221847420422 a83.24688736608434,83.24688736608434 0 0,0 0.5922329567860106,1.3049068168247002 l -56.90162191875774 25.23648964853746" fill="red" stroke="none" /><path d="M 119.196687751892 91.48605970444005 l 34.13938505128483 -15.141189449472787 a58.34639513560467,58.34639513560467 0 0,0 0.3992818584845816,0.9215975798461024 l -34.39495761961209 14.551292725040081" fill="red" stroke="none" /><path d="M 119.34039704204932 91.81776055985345 l 28.68562642455178 -12.135876186304353 a52.14714520109752,52.14714520109752 0 0,0 0.3426273870737125,0.8296993947595563 l -28.89027549851169 11.640302221091494" fill="red" stroke="none" /><path d="M 119.47837535516314 92.15188598940014 l 34.61547656771648 -13.947067025930167 a58.319591324610144,58.319591324610144 0 0,0 0.36715362577984223,0.9343659302493459 l -34.850423743378016 13.349152090785037" fill="red" stroke="none" /><path d="M 119.61058180528143 92.48833698450437 l 35.19899519206188 -13.482669356378407 a58.692859211052436,58.692859211052436 0 0,0 0.35326229009510224,0.946567306494202 l -35.4258620706586 12.874778912854872" fill="red" stroke="none" /><path d="M 119.7369772167798 92.82701384747503 l 35.13440781777111 -12.768856040416273 a58.382754008851876,58.382754008851876 0 0,0 0.3351362442669445,0.9474752924746573 l -35.348997142847864 12.162183121515001" fill="red" stroke="none" /><path d="M 119.97218684219823 93.5106431181261 l 41.17550058930593 -13.378731143715141 a64.2944834337557,64.2944834337557 0 0,0 0.3329367855893736,1.0555005934993633 l -41.399692858663514 12.66798038378936" fill="red" stroke="none" /><path d="M 120.08093135843002 93.85539295169968 l 33.23262446084519 -10.168921692464359 a55.75362278875453,55.75362278875453 0 0,0 0.27291160177821777,0.9201222495714906 l -33.4027419597351 9.595370056146338" fill="red" stroke="none" /><path d="M 120.18372546131832 94.20196356495316 l 35.91560462808827 -10.31722238887367 a58.368111186178936,58.368111186178936 0 0,0 0.2690859685655033,0.9680453984253312 l -36.08787736722013 9.697465687029387" fill="red" stroke="none" /><path d="M 120.28053869075195 94.5502522615342 l 33.98695658429453 -9.132910254847221 a56.19265928550747,56.19265928550747 0 0,0 0.24297617071839878,0.9362863019959354 l -34.13912908688323 8.546527527302436" fill="red" stroke="none" /><path d="M 120.45610955862082 95.25157060432595 l 33.007375187458685 -7.661925654290361 a54.88498076578377,54.88498076578377 0 0,0 0.2057026693120185,0.9221247322856598 l -33.134372243772745 7.092622752454737" fill="red" stroke="none" /><path d="M 120.53481517161879 95.60439243477599 l 37.85388222696093 -8.102863829030099 a59.71140402884443,59.71140402884443 0 0,0 0.2064897239275606,1.0069172272036162 l -37.987751246803484 7.450070945663072" fill="red" stroke="none" /><path d="M 120.6074358757038 95.95851677861258 l 61.822307627111385 -12.124449664162288 a84.0,84.0 0 0,0 0.26605710436056285,1.4212876901497489 l -62.02185045538181 11.058483896549978" fill="red" stroke="none" /><path d="M 120.67395015179393 96.31383870115 l 24.574598653416064 -4.3816461694976585 a45.962165814110605,45.962165814110605 0 0,0 0.1321699825720468,0.7800747188539513 l -24.646380497508336 3.9579856623278693" fill="red" stroke="none" /><path d="M 120.73433829027371 96.67025291283417 l 36.929322306006625 -5.930514958228282 a58.40248459194506,58.40248459194506 0 0,0 0.15085669512452926,0.9939571348413767 l -37.025934894570455 5.293958710994823" fill="red" stroke="none" /><path d="M 120.83666639777658 97.38593545837742 l 37.05579956868661 -4.648836328459583 a58.3462710438871,58.3462710438871 0 0,0 0.11644150585743954,0.9975997125572854 l -37.13033142754763 4.010292877577445" fill="red" stroke="none" /><path d="M 120.87857604477298 97.74499172005257 l 37.76299436464651 -4.078624173663654 a58.982613371571965,58.982613371571965 0 0,0 0.10033468973363636,1.0103566329882963 l -37.82760618006237 3.4279920099709225" fill="red" stroke="none" /><path d="M 120.91429891909075 98.10471618934814 l 49.51000088935918 -4.486667399848052 a70.71287934148661,70.71287934148661 0 0,0 0.09942067919843707,1.2131841095668525 l -49.579896052377116 3.633769373073431" fill="red" stroke="none" /><path d="M 120.94382443527127 98.46500227214037 l 62.42702638109531 -4.575350788876757 a83.59446826699022,83.59446826699022 0 0,0 0.09282731406125495,1.4359974621859048 l -62.49653428616098 3.500094262437817" fill="red" stroke="none" /><line stroke="#e1ed5e" stroke-width="0.3" x1="184.98032266829074" x2="189.97916517819016" y1="98.17113171792111" y2="98.06355123074" /><path d="M 185.9800911702706 98.14961562048488 a86.0,86.0 0 0,1 -9.607161424134198,41.387399972396054" fill="none" id="id16" stroke="none" /><text fill="#e1ed5e" style="font-size:6.75px; font-family:Arial;" text-anchor="middle"><textPath startOffset="21.466115282336823" xlink:href="#id16">April</textPath></text><line stroke="#e1ed5e" stroke-width="0.3" x1="174.80103733775053" x2="179.2010983576182" y1="140.37084112569926" y2="142.7455964860345" /><path d="M 175.68104954172406 140.8457921977663 a86.0,86.0 0 0,1 -30.038265399797805,32.042727171017184" fill="none" id="id17" stroke="none" /><text fill="#e1ed5e" style="font-size:6.75px; font-family:Arial;" text-anchor="middle"><textPath startOffset="22.206326154141568" xlink:href="#id17">May</textPath></text><line stroke="#e1ed5e" stroke-width="0.3" x1="143.8653032363475" x2="146.44561519142675" y1="172.8068346515853" y2="177.08958963109032" /><path d="M 144.38136562736335 173.6633856474863 a86.0,86.0 0 0,1 -40.68145358897372,12.25698825130547" fill="none" id="id18" stroke="none" /><text fill="#e1ed5e" style="font-size:6.75px; font-family:Arial;" text-anchor="middle"><textPath startOffset="21.466115282336833" xlink:href="#id18">June</textPath></text><line stroke="#e1ed5e" stroke-width="0.3" x1="102.19456741930631" x2="102.32365962044197" y1="184.97166512339345" y2="189.96999836594603" /><path d="M 102.22038585953345 185.97133177190398 a86.0,86.0 0 0,1 -42.740103519485714,-10.115201625700543" fill="none" id="id19" stroke="none" /><text fill="#e1ed5e" style="font-size:6.75px; font-family:Arial;" text-anchor="middle"><textPath startOffset="22.20632615414155" xlink:href="#id19">July</textPath></text><line stroke="#e1ed5e" stroke-width="0.3" x1="58.666819895761336" x2="56.23545636021788" y1="174.27360380694188" y2="178.64263932499728" /><path d="M 58.180547188652646 175.14741091055294 a86.0,86.0 0 0,1 -31.652253787137756,-30.449443065178592" fill="none" id="id20" stroke="none" /><text fill="#e1ed5e" style="font-size:6.75px; font-family:Arial;" text-anchor="middle"><textPath startOffset="22.20632615414155" xlink:href="#id20">August</textPath></text><line stroke="#e1ed5e" stroke-width="0.3" x1="26.63291911575756" x2="22.317208475507996" y1="142.92168965132927" y2="145.44649492493687" /><path d="M 25.769776987707644 143.4266507060508 a86.0,86.0 0 0,1 -11.730757126820373,-40.83630448921669" fill="none" id="id21" stroke="none" /><text fill="#e1ed5e" style="font-size:6.75px; font-family:Arial;" text-anchor="middle"><textPath startOffset="21.46611528233685" xlink:href="#id21">September</textPath></text><line stroke="#e1ed5e" stroke-width="0.3" x1="15.007084014347285" x2="10.007500721073583" y1="101.09737516637583" y2="101.16192664675087" /><path d="M 14.007167355692545 101.11028546245083 a86.0,86.0 0 0,1 10.666146001902534,-42.60595125391555" fill="none" id="id22" stroke="none" /><text fill="#e1ed5e" style="font-size:6.75px; font-family:Arial;" text-anchor="middle"><textPath startOffset="22.20632615414155" xlink:href="#id22">October</textPath></text><line stroke="#e1ed5e" stroke-width="0.3" x1="26.266209847984243" x2="21.928928074336255" y1="57.711370442889674" y2="55.22380399835377" /><path d="M 25.398753493254645 57.213857153982495 a86.0,86.0 0 0,1 29.58750427330803,-30.492523968695096" fill="none" id="id23" stroke="none" /><text fill="#e1ed5e" style="font-size:6.75px; font-family:Arial;" text-anchor="middle"><textPath startOffset="21.46611528233685" xlink:href="#id23">November</textPath></text><line stroke="#e1ed5e" stroke-width="0.3" x1="56.762969772571076" x2="54.21961505331055" y1="26.818313649435495" y2="22.513508569990535" /><path d="M 56.25429882871897 25.957352633546506 a86.0,86.0 0 0,1 42.265352541879196,-11.944610805530505" fill="none" id="id24" stroke="none" /><text fill="#e1ed5e" style="font-size:6.75px; font-family:Arial;" text-anchor="middle"><textPath startOffset="22.20632615414155" xlink:href="#id24">December</textPath></text></svg>