<?xml version="1.0" encoding="utf-8" ?>
<svg baseProfile="full" height="200mm" version="1.1" viewBox="0,0,200,200" width="200mm" xmlns="http://www.w3.org/2000/svg" xmlns:ev="http://www.w3.org/2001/xml-events" xmlns:xlink="http://www.w3.org/1999/xlink"><defs /><rect fill="#1a1a1a" height="200" width="200" x="0" y="0" /><text alignment-baseline="middle" fill="#e1ed5e" style="dominant-baseline: central; font-size:9.0px; font-family:Arial;" text-anchor="middle" x="100.0" y="100.0">2025</text><line stroke="#e1ed5e" stroke-width="0.3" x1="100.0" x2="100.0" y1="15.0" y2="10.0" /><path d="M 100.0 14.0 a86.0,86.0 0 0,1 42.46469731375804,11.215312516191453" fill="none" id="id1" stroke="none" /><text fill="#e1ed5e" style="font-size:6.75px; font-family:Arial;" text-anchor="middle"><textPath startOffset="22.20632615414155" xlink:href="#id1">January</textPath></text><line stroke="#e1ed5e" stroke-width="0.3" x1="143.23703022742887" x2="145.7803849466894" y1="26.81831364943548" y2="22.513508569990506" /><path d="M 143.74570117128098 25.957352633546492 a86.0,86.0 0 0,1 28.547481713284135,27.462654790039103" fill="none" id="id2" stroke="none" /><text fill="#e1ed5e" style="font-size:6.75px; font-family:Arial;" text-anchor="middle"><textPath startOffset="19.985693538727396" xlink:href="#id2">February</textPath></text><line stroke="#e1ed5e" stroke-width="0.3" x1="172.23445277983987" x2="176.4835382374775" y1="55.19839476539836" y2="52.563006222186495" /><path d="M 173.08426987136738 54.67131705675599 a86.0,86.0 0 0,1 12.851231095245387,41.99856678651699" fill="none" id="id3" stroke="none" /><text fill="#e1ed5e" style="font-size:6.75px; font-family:Arial;" text-anchor="middle"><textPath startOffset="22.20632615414155" xlink:href="#id3">March</textPath></text><line stroke="#e1ed5e" stroke-width="0.3" x1="184.98032266829074" x2="189.97916517819016" y1="98.17113171792111" y2="98.06355123074" /><path d="M 185.9800911702706 98.14961562048488 a86.0,86.0 0 0,1 -9.607161424134198,41.387399972396054" fill="none" id="id4" stroke="none" /><text fill="#e1ed5e" style="font-size:6.75px; font-family:Arial;" text-anchor="middle"><textPath startOffset="21.466115282336823" xlink:href="#id4">April</textPath></text><line stroke="#e1ed5e" stroke-width="0.3" x1="174.80103733775053" x2="179.2010983576182" y1="140.37084112569926" y2="142.7455964860345" /><path d="M 175.68104954172406 140.8457921977663 a86.0,86.0 0 0,1 -30.038265399797805,32.042727171017184" fill="none" id="id5" stroke="none" /><text fill="#e1ed5e" style="font-size:6.75px; font-family:Arial;" text-anchor="middle"><textPath startOffset="22.206326154141568" xlink:href="#id5">May</textPath></text><path d="M 117.75023020441432 111.22182372390056 l 24.824719698816985 15.694367072832986 a50.36971000778959,50.36971000778959 0 0,0 -0.46962591679207233,0.7288698518851181 l -24.55088891864786 -16.119358524639555" fill="red" stroke="none" /><path d="M 117.35343817320211 111.8261652097733 l 24.017530029950727 16.36766589018121 a50.064449683972796,50.064449683972796 0 0,0 -0.49144001148957284,0.7079559898787633 l -23.732229111299016 -16.778663142246995" fill="red" stroke="none" /><path d="M 116.93607887273984 112.41649034213515 l 22.45709838951655 16.464161944511638 a48.84582368348137,48.84582368348137 0 0,0 -0.5029694781214706,0.6738098100411154 l -22.170367644699986 -16.848284634062068" fill="red" stroke="none" /><path d="M 116.71984013943494 112.70617746262583 l 23.054955147960012 17.520523465528722 a49.9568592803258,49.9568592803258 0 0,0 -0.5261960336192543,0.6801793053920343 l -22.74995229712269 -17.91478076503401" fill="red" stroke="none" /><path d="M 116.498646956653 112.99209946851258 l 21.6155468685966 17.02147671387432 a48.512952148932726,48.512952148932726 0 0,0 -0.5222814054387462,0.6516263577221015 l -21.319347551102997 -17.39103090517467" fill="red" stroke="none" /><path d="M 116.0416608686014 113.55231037782055 l 22.446257132965265 18.963039175184576 a50.38420177644407,50.38420177644407 0 0,0 -0.56540069275792,0.6576887403518926 l -22.116513930636565 -19.346605014697996" fill="red" stroke="none" /><path d="M 115.56566222782051 114.09645910891815 l 21.11684084652346 19.12367614983448 a49.48922527590299,49.48922527590299 0 0,0 -0.5772649284210164,0.626507068592994 l -20.784529510106722 -19.48433447322881" fill="red" stroke="none" /><path d="M 115.07121518719521 114.62390073753431 l 22.595476881372804 21.924841953765647 a52.48419079783146,52.48419079783146 0 0,0 -0.6347072518801566,0.6429550951654603 l -22.214729004437114 -22.31053754291177" fill="red" stroke="none" /><path d="M 114.81725581225074 114.88116024355365 l 18.392109239823572 18.4714314366139 a47.066519936637725,47.066519936637725 0 0,0 -0.5790303651017137,0.566703081989122 l -18.071428922346065 -18.785284621525598" fill="red" stroke="none" /><path d="M 114.29624159901734 115.38237550388516 l 18.348578586893396 19.74258226060904 a47.95254886789592,47.95254886789592 0 0,0 -0.6094550903358879,0.5567227749811137 l -18.006023947090647 -20.05549780217674" fill="red" stroke="none" /><path d="M 113.75828350139079 115.86535959552629 l 17.517660149491967 20.200483404475285 a47.73813656348513,47.73813656348513 0 0,0 -0.625448069166396,0.5330204133496863 l -17.167346603748523 -20.499028208047918" fill="red" stroke="none" /><path d="M 113.20401910651253 116.32954008644616 l 22.73325631029978 28.114441309116195 a57.155535573318836,57.155535573318836 0 0,0 -0.7703545758930855,0.612016265586333 l -22.24594424168934 -28.501591488707653" fill="red" stroke="none" /><path d="M 112.92097659922987 116.55440617244103 l 25.5258205429195 32.70378193994366 a62.48620092952253,62.48620092952253 0 0,0 -0.8535950434411029,0.654500280150709 l -24.959096770984907 -33.138321561921735" fill="red" stroke="none" /><path d="M 112.34349029814194 116.9893568818739 l 19.26743715391818 26.51935215246754 a53.77972197970525,53.77972197970525 0 0,0 -0.7536144045005685,0.5376838679076991 l -18.80809542156873 -26.84708028221946" fill="red" stroke="none" /><path d="M 111.7513745106137 117.40417183066458 l 15.48008802037125 22.92651907374905 a48.66330424872308,48.66330424872308 0 0,0 -0.6982611815740603,0.4627694361288215 l -15.083152140057225 -23.18958653096919" fill="red" stroke="none" /><path d="M 111.1453310114006 117.79835938074945 l 15.928685364681485 25.437061159824456 a51.012782241832696,51.012782241832696 0 0,0 -0.7482379999908677,0.4596288923489167 l -15.48846816475831 -25.70747851900175" fill="red" stroke="none" /><line stroke="#e1ed5e" stroke-width="0.3" x1="143.8653032363475" x2="146.44561519142675" y1="172.8068346515853" y2="177.08958963109032" /><path d="M 144.38136562736335 173.6633856474863 a86.0,86.0 0 0,1 -40.68145358897372,12.25698825130547" fill="none" id="id6" stroke="none" /><text fill="#e1ed5e" style="font-size:6.75px; font-family:Arial;" text-anchor="middle"><textPath startOffset="21.466115282336833" xlink:href="#id6">June</textPath></text><path d="M 110.8373102113329 117.98757091392108 l 14.001121969015335 23.23880828185192 a48.13067685760739,48.13067685760739 0 0,0 -0.7133244298684823,0.42144464652595415 l -13.59902966811847 -23.476371500671625" fill="red" stroke="none" /><path d="M 110.5260780823613 118.17145234162733 l 31.578234247083873 54.514357024881974 a84.0,84.0 0 0,0 -1.2574049323152037,0.7139873368214862 l -30.635180547847472 -55.049847527498095" fill="red" stroke="none" /><path d="M 110.21172684928248 118.3499491758327 l 13.995646221759989 25.149458132076425 a49.781475943768584,49.781475943768584 0 0,0 -0.75235737409818,0.4102452276792979 l -13.56066603579316 -25.386644011515493" fill="red" stroke="none" /><path d="M 109.57404056367764 118.69057910512821 l 12.864674358034744 25.114601526004034 a49.21777907894668,49.21777907894668 0 0,0 -0.757358713423562,0.37975538141955767 l -12.430461736928422 -25.332324748332894" fill="red" stroke="none" /><path d="M 108.92500713936063 119.00905698771935 l 12.261648967575756 26.11565238532182 a49.85091566857137,49.85091566857137 0 0,0 -0.7798867255916717,0.3580077446907735 l -11.810294246216664 -26.322847200346665" fill="red" stroke="none" /><path d="M 108.59647513512805 119.15986991738527 l 11.259602290045942 25.09546201293819 a48.505651371542385,48.505651371542385 0 0,0 -0.7647246824464977,0.33523282759772655 l -10.825956932941692 -25.28555939383037" fill="red" stroke="none" /><path d="M 107.93186726928326 119.44442032107085 l 11.087409479561767 27.1800123316871 a50.354449736251894,50.354449736251894 0 0,0 -0.8053808759007722,0.3204776716879075 l -10.617907527619128 -27.366836847781073" fill="red" stroke="none" /><path d="M 107.2578585660854 119.70592522655815 l 11.28299321791572 30.63463122896484 a53.6463867294713,53.6463867294713 0 0,0 -0.8692769546157932,0.31169178853257357 l -10.753996702670193 -30.824310558537373" fill="red" stroke="none" /><path d="M 106.57524785965236 119.94407469862006 l 8.806069845881312 26.71061510627344 a49.12479023008035,49.12479023008035 0 0,0 -0.8053627001477036,0.2578517040714674 l -8.34498580064267 -26.858239657004614" fill="red" stroke="none" /><path d="M 106.2309692047433 120.05430185196036 l 7.559489719387463 24.330129663292514 a46.47746247667045,46.47746247667045 0 0,0 -0.7660482327471465,0.23080404853724132 l -7.13956651220007 -24.456649080935478" fill="red" stroke="none" /><path d="M 105.88484417918355 120.15858648285463 l 4.981801593827529 17.06520601256228 a38.777502731583375,38.777502731583375 0 0,0 -0.6423564085264938,0.1815363373743255 l -4.68731401719643 -17.148431143275126" fill="red" stroke="none" /><path d="M 105.53697534728816 120.25689768951611 l 7.399051463853206 27.069260580353927 a49.06226703122631,49.06226703122631 0 0,0 -0.8165586297499037,0.21566055570284562 l -6.932002391291804 -27.192612485360357" fill="red" stroke="none" /><path d="M 104.83641907484287 120.43548508189849 l 6.3264015595716945 26.731158464990365 a48.46958662909541,48.46958662909541 0 0,0 -0.8135501263815847,0.18516136007263934 l -5.865331283797247 -26.83609655864069" fill="red" stroke="none" /><path d="M 104.13013068566511 120.58985236759428 l 8.65340768238353 43.139648649686876 a64.99898578531061,64.99898578531061 0 0,0 -1.098892617798986,0.21060538558764902 l -7.909547450012841 -43.282211233622995" fill="red" stroke="none" /><path d="M 103.7750983002368 120.6578951692458 l 4.945583829072892 27.062964767115147 a48.51114067785091,48.51114067785091 0 0,0 -0.8227282213086037,0.14304184706380801 l -4.4790066362922385 -27.14408519269996" fill="red" stroke="none" /><path d="M 103.06178313531738 120.77559828337769 l 4.015352003737461 27.245998984626944 a48.540288894349146,48.540288894349146 0 0,0 -0.8276614108856117,0.114706329880794 l -3.5457620016650186 -27.311079880000342" fill="red" stroke="none" /><path d="M 102.34483914955558 120.86867818915974 l 3.07265120390411 27.346084346110494 a48.51816698992582,48.51816698992582 0 0,0 -0.830740539143971,0.08610965357540526 l -2.6014780681545364 -27.394923368141658" fill="red" stroke="none" /><path d="M 100.90346689309514 120.98055641714683 l 0.9626467825616112 22.35484806989144 a43.37556526785201,43.37556526785201 0 0,0 -0.7462242364706068,0.02570147152428609 l -0.5777021944163522 -22.36810633984182" fill="red" stroke="none" /><line stroke="#e1ed5e" stroke-width="0.3" x1="102.19456741930631" x2="102.32365962044197" y1="184.97166512339345" y2="189.96999836594603" /><path d="M 102.22038585953345 185.97133177190398 a86.0,86.0 0 0,1 -42.740103519485714,-10.115201625700543" fill="none" id="id7" stroke="none" /><text fill="#e1ed5e" style="font-size:6.75px; font-family:Arial;" text-anchor="middle"><textPath startOffset="22.20632615414155" xlink:href="#id7">July</textPath></text><path d="M 100.54218724476979 120.99299961872073 l 0.7112584733936846 27.53928463792099 a48.54846796074884,48.54846796074884 0 0,0 -0.8355892054747112,0.014385425949892805 l -0.23710957802630553 -27.547447541150042" fill="red" stroke="none" /><path d="M 99.81925306533755 120.99922214144158 l -0.24463404642992873 28.421642081707127 a49.422694883443725,49.422694883443725 0 0,0 -0.8506359126196168,-0.014644468658923248 l 0.7338296489422135 -28.413220135769045" fill="red" stroke="none" /><path d="M 99.09653310690486 120.98055641714683 l -1.1274336913489376 26.181574940618933 a47.205838530747954,47.205838530747954 0 0,0 -0.8115176642926795,-0.041946193758859635 l 1.577939424055106 -26.158288940097872" fill="red" stroke="none" /><path d="M 98.73552117531835 120.96189622390904 l -1.6610080033230394 27.535358214880215 a48.58541099220518,48.58541099220518 0 0,0 -0.8343670707928524,-0.05754283827299139 l 2.134737834894822 -27.50268703209094" fill="red" stroke="none" /><path d="M 98.01472825383883 120.90594882070398 l -2.6722875917777977 28.140584650910217 a49.26718283572336,49.26718283572336 0 0,0 -0.8435653811808824,-0.08743900089013877 l 3.1562855695642735 -28.09041628156432" fill="red" stroke="none" /><path d="M 97.2962882734958 120.8252237178851 l -3.545012859191338 27.305309642198118 a48.53447022966212,48.53447022966212 0 0,0 -0.8275621967207583,-0.11469257970158164 l 4.014503647098927 -27.24024249700393" fill="red" stroke="none" /><path d="M 96.58105272829116 120.7198165907248 l -4.523432342158626 27.41331791386017 a48.78401409444743,48.78401409444743 0 0,0 -0.8273560378790221,-0.14384645229425974 l 4.994637351509698 -27.331392883044902" fill="red" stroke="none" /><path d="M 96.22490169976321 120.6578951692458 l -4.945228583285763 27.061020809727605 a48.50916452757984,48.50916452757984 0 0,0 -0.8201106855886088,-0.15717616477293528 l 5.410306883446067 -26.9718874466062" fill="red" stroke="none" /><path d="M 95.51606077576429 120.51570834832081 l -4.752345935396251 21.74376999892005 a43.25705114465106,43.25705114465106 0 0,0 -0.7260589964367574,-0.16524866374385583 l 5.125925081225871 -21.65874460159851" fill="red" stroke="none" /><path d="M 94.81253420990036 120.34920634021253 l -6.796689105812819 26.661810340691048 a48.514489154699106,48.514489154699106 0 0,0 -0.8074417915088424,-0.21325271586172842 l 7.25462134013315 -26.540866275525737" fill="red" stroke="none" /><path d="M 93.76903079525671 120.05430185196036 l -16.147338067308514 51.970019601596846 a75.4207631704142,75.4207631704142 0 0,0 -1.2364647093583307,-0.395876953667962 l 17.039524121757786 -51.68436980126918" fill="red" stroke="none" /><path d="M 93.08242187328487 119.8279376855182 l -9.067936260578628 25.99153516122019 a48.52793795515498,48.52793795515498 0 0,0 -0.7863384785292143,-0.28195300181756294 l 9.51399429973757 -25.831594618362672" fill="red" stroke="none" /><path d="M 92.40401165467489 119.57807347666478 l -9.958742160729292 25.667889008533287 a48.532109827949455,48.532109827949455 0 0,0 -0.7762339441157156,-0.308879506006514 l 10.399097180886866 -25.492662658120704" fill="red" stroke="none" /><path d="M 91.7346041902142 119.30500536409082 l -11.227190368524758 26.22269704633253 a49.52507044609762,49.52507044609762 0 0,0 -0.7807965195629398,-0.34227824868181433 l 11.676907562745441 -26.025554244356265" fill="red" stroke="none" /><path d="M 91.40352486487194 119.15986991738527 l -11.273691483195625 25.12686408224513 a48.54006932209681,48.54006932209681 0 0,0 -0.759379345713184,-0.34859381241202575 l 11.704538824676229 -24.929083199499033" fill="red" stroke="none" /><path d="M 90.7491055286396 118.85261126421891 l -12.12746847642124 24.714847792595886 a48.52996899848913,48.52996899848913 0 0,0 -0.7467747543875496,-0.37444836463951564 l 12.551097138491551 -24.502431587047067" fill="red" stroke="none" /><path d="M 90.10565033884886 118.52300852407294 l -12.9948785472623 24.32744488961469 a48.580635295716775,48.580635295716775 0 0,0 -0.7342088298947459,-0.40034919435110766 l 13.411710189025687 -24.10015504350382" fill="red" stroke="none" /><line stroke="#e1ed5e" stroke-width="0.3" x1="58.666819895761336" x2="56.23545636021788" y1="174.27360380694188" y2="178.64263932499728" /><path d="M 58.180547188652646 175.14741091055294 a86.0,86.0 0 0,1 -31.652253787137756,-30.449443065178592" fill="none" id="id8" stroke="none" /><text fill="#e1ed5e" style="font-size:6.75px; font-family:Arial;" text-anchor="middle"><textPath startOffset="22.20632615414155" xlink:href="#id8">August</textPath></text><line stroke="#e1ed5e" stroke-width="0.3" x1="26.63291911575756" x2="22.317208475507996" y1="142.92168965132927" y2="145.44649492493687" /><path d="M 25.769776987707644 143.4266507060508 a86.0,86.0 0 0,1 -11.730757126820373,-40.83630448921669" fill="none" id="id9" stroke="none" /><text fill="#e1ed5e" style="font-size:6.75px; font-family:Arial;" text-anchor="middle"><textPath startOffset="21.46611528233685" xlink:href="#id9">September</textPath></text><line stroke="#e1ed5e" stroke-width="0.3" x1="15.007084014347285" x2="10.007500721073583" y1="101.09737516637583" y2="101.16192664675087" /><path d="M 14.007167355692545 101.11028546245083 a86.0,86.0 0 0,1 10.666146001902534,-42.60595125391555" fill="none" id="id10" stroke="none" /><text fill="#e1ed5e" style="font-size:6.75px; font-family:Arial;" text-anchor="middle"><textPath startOffset="22.20632615414155" xlink:href="#id10">October</textPath></text><line stroke="#e1ed5e" stroke-width="0.3" x1="26.266209847984243" x2="21.928928074336255" y1="57.711370442889674" y2="55.22380399835377" /><path d="M 25.398753493254645 57.213857153982495 a86.0,86.0 0 0,1 29.58750427330803,-30.492523968695096" fill="none" id="id11" stroke="none" /><text fill="#e1ed5e" style="font-size:6.75px; font-family:Arial;" text-anchor="middle"><textPath startOffset="21.46611528233685" xlink:href="#id11">November</textPath></text><line stroke="#e1ed5e" stroke-width="0.3" x1="56.762969772571076" x2="54.21961505331055" y1="26.818313649435495" y2="22.513508569990535" /><path d="M 56.25429882871897 25.957352633546506 a86.0,86.0 0 0,1 42.265352541879196,-11.944610805530505" fill="none" id="id12" stroke="none" /><text fill="#e1ed5e" style="font-size:6.75px; font-family:Arial;" text-anchor="middle"><textPath startOffset="22.20632615414155" xlink:href="#id12">December</textPath></text></svg>