<?xml version="1.0" encoding="utf-8" ?>
<svg baseProfile="full" height="200mm" version="1.1" viewBox="0,0,200,200" width="200mm" xmlns="http://www.w3.org/2000/svg" xmlns:ev="http://www.w3.org/2001/xml-events" xmlns:xlink="http://www.w3.org/1999/xlink"><defs /><rect fill="#1a1a1a" height="200" width="200" x="0" y="0" /><rect fill="#1a1a1a" height="200" width="180" x="10" y="0" /><text alignment-baseline="middle" fill="#e1ed5e" style="dominant-baseline: central; font-size:9.0px; font-family:Arial;" text-anchor="middle" x="100.0" y="100.0">2025</text><line stroke="#e1ed5e" stroke-width="0.3" x1="100.0" x2="100.0" y1="15.0" y2="10.0" /><path d="M 100.0 14.0 a86.0,86.0 0 0,1 42.46469731375804,11.215312516191453" fill="none" id="id1" stroke="none" /><text fill="#e1ed5e" style="font-size:6.75px; font-family:Arial;" text-anchor="middle"><textPath startOffset="22.20632615414155" xlink:href="#id1">January</textPath></text><line stroke="#e1ed5e" stroke-width="0.3" x1="143.23703022742887" x2="145.7803849466894" y1="26.81831364943548" y2="22.513508569990506" /><path d="M 143.74570117128098 25.957352633546492 a86.0,86.0 0 0,1 28.547481713284135,27.462654790039103" fill="none" id="id2" stroke="none" /><text fill="#e1ed5e" style="font-size:6.75px; font-family:Arial;" text-anchor="middle"><textPath startOffset="19.985693538727396" xlink:href="#id2">February</textPath></text><line stroke="#e1ed5e" stroke-width="0.3" x1="172.23445277983987" x2="176.4835382374775" y1="55.19839476539836" y2="52.563006222186495" /><path d="M 173.08426987136738 54.67131705675599 a86.0,86.0 0 0,1 12.851231095245387,41.99856678651699" fill="none" id="id3" stroke="none" /><text fill="#e1ed5e" style="font-size:6.75px; font-family:Arial;" text-anchor="middle"><textPath startOffset="22.20632615414155" xlink:href="#id3">March</textPath></text><line stroke="#e1ed5e" stroke-width="0.3" x1="184.98032266829074" x2="189.97916517819016" y1="98.17113171792111" y2="98.06355123074" /><path d="M 185.9800911702706 98.14961562048488 a86.0,86.0 0 0,1 -9.607161424134198,41.387399972396054" fill="none" id="id4" stroke="none" /><text fill="#e1ed5e" style="font-size:6.75px; font-family:Arial;" text-anchor="middle"><textPath startOffset="21.466115282336823" xlink:href="#id4">April</textPath></text><line stroke="#e1ed5e" stroke-width="0.3" x1="174.80103733775053" x2="179.2010983576182" y1="140.37084112569926" y2="142.7455964860345" /><path d="M 175.68104954172406 140.8457921977663 a86.0,86.0 0 0,1 -30.038265399797805,32.042727171017184" fill="none" id="id5" stroke="none" /><text fill="#e1ed5e" style="font-size:6.75px; font-family:Arial;" text-anchor="middle"><textPath startOffset="22.206326154141568" xlink:href="#id5">May</textPath></text><path d="M 117.75023020441432 111.22182372390056 l 24.824719698816985 15.694367072832986 a50.36971000778959,50.36971000778959 0 0,0 -0.46962591679207233,0.7288698518851181 l -24.55088891864786 -16.119358524639555" fill="red" stroke="none" /><path d="M 117.35343817320211 111.8261652097733 l 24.017530029950727 16.36766589018121 a50.064449683972796,50.064449683972796 0 0,0 -0.49144001148957284,0.7079559898787633 l -23.732229111299016 -16.778663142246995" fill="red" stroke="none" /><path d="M 116.93607887273984 112.41649034213515 l 22.45709838951655 16.464161944511638 a48.84582368348137,48.84582368348137 0 0,0 -0.5029694781214706,0.6738098100411154 l -22.170367644699986 -16.848284634062068" fill="red" stroke="none" /><path d="M 116.71984013943494 112.70617746262583 l 23.054955147960012 17.520523465528722 a49.9568592803258,49.9568592803258 0 0,0 -0.5261960336192543,0.6801793053920343 l -22.74995229712269 -17.91478076503401" fill="red" stroke="none" /><path d="M 116.498646956653 112.99209946851258 l 21.6155468685966 17.02147671387432 a48.512952148932726,48.512952148932726 0 0,0 -0.5222814054387462,0.6516263577221015 l -21.319347551102997 -17.39103090517467" fill="red" stroke="none" /><path d="M 116.0416608686014 113.55231037782055 l 22.446257132965265 18.963039175184576 a50.38420177644407,50.38420177644407 0 0,0 -0.56540069275792,0.6576887403518926 l -22.116513930636565 -19.346605014697996" fill="red" stroke="none" /><path d="M 115.56566222782051 114.09645910891815 l 21.11684084652346 19.12367614983448 a49.48922527590299,49.48922527590299 0 0,0 -0.5772649284210164,0.626507068592994 l -20.784529510106722 -19.48433447322881" fill="red" stroke="none" /><path d="M 115.07121518719521 114.62390073753431 l 22.595476881372804 21.924841953765647 a52.48419079783146,52.48419079783146 0 0,0 -0.6347072518801566,0.6429550951654603 l -22.214729004437114 -22.31053754291177" fill="red" stroke="none" /><path d="M 114.81725581225074 114.88116024355365 l 18.392109239823572 18.4714314366139 a47.066519936637725,47.066519936637725 0 0,0 -0.5790303651017137,0.566703081989122 l -18.071428922346065 -18.785284621525598" fill="red" stroke="none" /><path d="M 114.29624159901734 115.38237550388516 l 18.348578586893396 19.74258226060904 a47.95254886789592,47.95254886789592 0 0,0 -0.6094550903358879,0.5567227749811137 l -18.006023947090647 -20.05549780217674" fill="red" stroke="none" /><path d="M 113.75828350139079 115.86535959552629 l 17.517660149491967 20.200483404475285 a47.73813656348513,47.73813656348513 0 0,0 -0.625448069166396,0.5330204133496863 l -17.167346603748523 -20.499028208047918" fill="red" stroke="none" /><path d="M 113.20401910651253 116.32954008644616 l 22.73325631029978 28.114441309116195 a57.155535573318836,57.155535573318836 0 0,0 -0.7703545758930855,0.612016265586333 l -22.24594424168934 -28.501591488707653" fill="red" stroke="none" /><path d="M 112.92097659922987 116.55440617244103 l 25.5258205429195 32.70378193994366 a62.48620092952253,62.48620092952253 0 0,0 -0.8535950434411029,0.654500280150709 l -24.959096770984907 -33.138321561921735" fill="red" stroke="none" /><path d="M 112.34349029814194 116.9893568818739 l 19.26743715391818 26.51935215246754 a53.77972197970525,53.77972197970525 0 0,0 -0.7536144045005685,0.5376838679076991 l -18.80809542156873 -26.84708028221946" fill="red" stroke="none" /><path d="M 111.7513745106137 117.40417183066458 l 15.48008802037125 22.92651907374905 a48.66330424872308,48.66330424872308 0 0,0 -0.6982611815740603,0.4627694361288215 l -15.083152140057225 -23.18958653096919" fill="red" stroke="none" /><path d="M 111.1453310114006 117.79835938074945 l 15.928685364681485 25.437061159824456 a51.012782241832696,51.012782241832696 0 0,0 -0.7482379999908677,0.4596288923489167 l -15.48846816475831 -25.70747851900175" fill="red" stroke="none" /><line stroke="#e1ed5e" stroke-width="0.3" x1="143.8653032363475" x2="146.44561519142675" y1="172.8068346515853" y2="177.08958963109032" /><path d="M 144.38136562736335 173.6633856474863 a86.0,86.0 0 0,1 -40.68145358897372,12.25698825130547" fill="none" id="id6" stroke="none" /><text fill="#e1ed5e" style="font-size:6.75px; font-family:Arial;" text-anchor="middle"><textPath startOffset="21.466115282336833" xlink:href="#id6">June</textPath></text><path d="M 110.8373102113329 117.98757091392108 l 14.001121969015335 23.23880828185192 a48.13067685760739,48.13067685760739 0 0,0 -0.7133244298684823,0.42144464652595415 l -13.59902966811847 -23.476371500671625" fill="red" stroke="none" /><path d="M 110.5260780823613 118.17145234162733 l 31.578234247083873 54.514357024881974 a84.0,84.0 0 0,0 -1.2574049323152037,0.7139873368214862 l -30.635180547847472 -55.049847527498095" fill="red" stroke="none" /><path d="M 110.21172684928248 118.3499491758327 l 13.995646221759989 25.149458132076425 a49.781475943768584,49.781475943768584 0 0,0 -0.75235737409818,0.4102452276792979 l -13.56066603579316 -25.386644011515493" fill="red" stroke="none" /><path d="M 109.57404056367764 118.69057910512821 l 12.864674358034744 25.114601526004034 a49.21777907894668,49.21777907894668 0 0,0 -0.757358713423562,0.37975538141955767 l -12.430461736928422 -25.332324748332894" fill="red" stroke="none" /><path d="M 108.92500713936063 119.00905698771935 l 12.261648967575756 26.11565238532182 a49.85091566857137,49.85091566857137 0 0,0 -0.7798867255916717,0.3580077446907735 l -11.810294246216664 -26.322847200346665" fill="red" stroke="none" /><path d="M 108.59647513512805 119.15986991738527 l 11.259602290045942 25.09546201293819 a48.505651371542385,48.505651371542385 0 0,0 -0.7647246824464977,0.33523282759772655 l -10.825956932941692 -25.28555939383037" fill="red" stroke="none" /><path d="M 107.93186726928326 119.44442032107085 l 11.087409479561767 27.1800123316871 a50.354449736251894,50.354449736251894 0 0,0 -0.8053808759007722,0.3204776716879075 l -10.617907527619128 -27.366836847781073" fill="red" stroke="none" /><path d="M 107.2578585660854 119.70592522655815 l 11.28299321791572 30.63463122896484 a53.6463867294713,53.6463867294713 0 0,0 -0.8692769546157932,0.31169178853257357 l -10.753996702670193 -30.824310558537373" fill="red" stroke="none" /><path d="M 106.57524785965236 119.94407469862006 l 8.806069845881312 26.71061510627344 a49.12479023008035,49.12479023008035 0 0,0 -0.8053627001477036,0.2578517040714674 l -8.34498580064267 -26.858239657004614" fill="red" stroke="none" /><path d="M 106.2309692047433 120.05430185196036 l 7.559489719387463 24.330129663292514 a46.47746247667045,46.47746247667045 0 0,0 -0.7660482327471465,0.23080404853724132 l -7.13956651220007 -24.456649080935478" fill="red" stroke="none" /><path d="M 105.88484417918355 120.15858648285463 l 4.981801593827529 17.06520601256228 a38.777502731583375,38.777502731583375 0 0,0 -0.6423564085264938,0.1815363373743255 l -4.68731401719643 -17.148431143275126" fill="red" stroke="none" /><path d="M 105.53697534728816 120.25689768951611 l 7.399051463853206 27.069260580353927 a49.06226703122631,49.06226703122631 0 0,0 -0.8165586297499037,0.21566055570284562 l -6.932002391291804 -27.192612485360357" fill="red" stroke="none" /><path d="M 104.83641907484287 120.43548508189849 l 6.3264015595716945 26.731158464990365 a48.46958662909541,48.46958662909541 0 0,0 -0.8135501263815847,0.18516136007263934 l -5.865331283797247 -26.83609655864069" fill="red" stroke="none" /><path d="M 104.13013068566511 120.58985236759428 l 8.65340768238353 43.139648649686876 a64.99898578531061,64.99898578531061 0 0,0 -1.098892617798986,0.21060538558764902 l -7.909547450012841 -43.282211233622995" fill="red" stroke="none" /><path d="M 103.7750983002368 120.6578951692458 l 4.945583829072892 27.062964767115147 a48.51114067785091,48.51114067785091 0 0,0 -0.8227282213086037,0.14304184706380801 l -4.4790066362922385 -27.14408519269996" fill="red" stroke="none" /><path d="M 103.06178313531738 120.77559828337769 l 4.015352003737461 27.245998984626944 a48.540288894349146,48.540288894349146 0 0,0 -0.8276614108856117,0.114706329880794 l -3.5457620016650186 -27.311079880000342" fill="red" stroke="none" /><path d="M 102.34483914955558 120.86867818915974 l 3.07265120390411 27.346084346110494 a48.51816698992582,48.51816698992582 0 0,0 -0.830740539143971,0.08610965357540526 l -2.6014780681545364 -27.394923368141658" fill="red" stroke="none" /><path d="M 100.90346689309514 120.98055641714683 l 0.9626467825616112 22.35484806989144 a43.37556526785201,43.37556526785201 0 0,0 -0.7462242364706068,0.02570147152428609 l -0.5777021944163522 -22.36810633984182" fill="red" stroke="none" /><line stroke="#e1ed5e" stroke-width="0.3" x1="102.19456741930631" x2="102.32365962044197" y1="184.97166512339345" y2="189.96999836594603" /><path d="M 102.22038585953345 185.97133177190398 a86.0,86.0 0 0,1 -42.740103519485714,-10.115201625700543" fill="none" id="id7" stroke="none" /><text fill="#e1ed5e" style="font-size:6.75px; font-family:Arial;" text-anchor="middle"><textPath startOffset="22.20632615414155" xlink:href="#id7">July</textPath></text><path d="M 100.54218724476979 120.99299961872073 l 0.7112584733936846 27.53928463792099 a48.54846796074884,48.54846796074884 0 0,0 -0.8355892054747112,0.014385425949892805 l -0.23710957802630553 -27.547447541150042" fill="red" stroke="none" /><path d="M 99.81925306533755 120.99922214144158 l -0.24463404642992873 28.421642081707127 a49.422694883443725,49.422694883443725 0 0,0 -0.8506359126196168,-0.014644468658923248 l 0.7338296489422135 -28.413220135769045" fill="red" stroke="none" /><path d="M 99.09653310690486 120.98055641714683 l -1.1274336913489376 26.181574940618933 a47.205838530747954,47.205838530747954 0 0,0 -0.8115176642926795,-0.041946193758859635 l 1.577939424055106 -26.158288940097872" fill="red" stroke="none" /><path d="M 98.73552117531835 120.96189622390904 l -1.6610080033230394 27.535358214880215 a48.58541099220518,48.58541099220518 0 0,0 -0.8343670707928524,-0.05754283827299139 l 2.134737834894822 -27.50268703209094" fill="red" stroke="none" /><path d="M 98.01472825383883 120.90594882070398 l -2.6722875917777977 28.140584650910217 a49.26718283572336,49.26718283572336 0 0,0 -0.8435653811808824,-0.08743900089013877 l 3.1562855695642735 -28.09041628156432" fill="red" stroke="none" /><path d="M 97.2962882734958 120.8252237178851 l -3.545012859191338 27.305309642198118 a48.53447022966212,48.53447022966212 0 0,0 -0.8275621967207583,-0.11469257970158164 l 4.014503647098927 -27.24024249700393" fill="red" stroke="none" /><path d="M 96.58105272829116 120.7198165907248 l -4.523432342158626 27.41331791386017 a48.78401409444743,48.78401409444743 0 0,0 -0.8273560378790221,-0.14384645229425974 l 4.994637351509698 -27.331392883044902" fill="red" stroke="none" /><path d="M 96.22490169976321 120.6578951692458 l -4.945228583285763 27.061020809727605 a48.50916452757984,48.50916452757984 0 0,0 -0.8201106855886088,-0.15717616477293528 l 5.410306883446067 -26.9718874466062" fill="red" stroke="none" /><path d="M 95.51606077576429 120.51570834832081 l -4.752345935396251 21.74376999892005 a43.25705114465106,43.25705114465106 0 0,0 -0.7260589964367574,-0.16524866374385583 l 5.125925081225871 -21.65874460159851" fill="red" stroke="none" /><path d="M 94.81253420990036 120.34920634021253 l -6.796689105812819 26.661810340691048 a48.514489154699106,48.514489154699106 0 0,0 -0.8074417915088424,-0.21325271586172842 l 7.25462134013315 -26.540866275525737" fill="red" stroke="none" /><path d="M 93.76903079525671 120.05430185196036 l -16.147338067308514 51.970019601596846 a75.4207631704142,75.4207631704142 0 0,0 -1.2364647093583307,-0.395876953667962 l 17.039524121757786 -51.68436980126918" fill="red" stroke="none" /><path d="M 93.08242187328487 119.8279376855182 l -9.067936260578628 25.99153516122019 a48.52793795515498,48.52793795515498 0 0,0 -0.7863384785292143,-0.28195300181756294 l 9.51399429973757 -25.831594618362672" fill="red" stroke="none" /><path d="M 92.40401165467489 119.57807347666478 l -9.958742160729292 25.667889008533287 a48.532109827949455,48.532109827949455 0 0,0 -0.7762339441157156,-0.308879506006514 l 10.399097180886866 -25.492662658120704" fill="red" stroke="none" /><path d="M 91.7346041902142 119.30500536409082 l -11.227190368524758 26.22269704633253 a49.52507044609762,49.52507044609762 0 0,0 -0.7807965195629398,-0.34227824868181433 l 11.676907562745441 -26.025554244356265" fill="red" stroke="none" /><path d="M 91.40352486487194 119.15986991738527 l -11.273691483195625 25.12686408224513 a48.54006932209681,48.54006932209681 0 0,0 -0.759379345713184,-0.34859381241202575 l 11.704538824676229 -24.929083199499033" fill="red" stroke="none" /><path d="M 90.7491055286396 118.85261126421891 l -12.12746847642124 24.714847792595886 a48.52996899848913,48.52996899848913 0 0,0 -0.7467747543875496,-0.37444836463951564 l 12.551097138491551 -24.502431587047067" fill="red" stroke="none" /><path d="M 90.10565033884886 118.52300852407294 l -12.9948785472623 24.32744488961469 a48.580635295716775,48.580635295716775 0 0,0 -0.7342088298947459,-0.40034919435110766 l 13.411710189025687 -24.10015504350382" fill="red" stroke="none" /><line stroke="#e1ed5e" stroke-width="0.3" x1="58.666819895761336" x2="56.23545636021788" y1="174.27360380694188" y2="178.64263932499728" /><path d="M 58.180547188652646 175.14741091055294 a86.0,86.0 0 0,1 -31.652253787137756,-30.449443065178592" fill="none" id="id8" stroke="none" /><text fill="#e1ed5e" style="font-size:6.75px; font-family:Arial;" text-anchor="middle"><textPath startOffset="22.20632615414155" xlink:href="#id8">August</textPath></text><path d="M 89.4739219176387 118.17145234162733 l -22.814637690968603 39.38552405265172 a66.51623004898552,66.51623004898552 0 0,0 -0.9858089471100794,-0.5824333022402313 l 23.489214509107065 -38.98697217811774" fill="red" stroke="none" /><path d="M 89.1626897886671 117.98757091392108 l -14.258172467647277 23.665456036916257 a48.62877651204249,48.62877651204249 0 0,0 -0.7132702213120135,-0.43814882667160543 l 14.6634218888916 -23.416518743416272" fill="red" stroke="none" /><path d="M 88.54995079064634 117.60387380957326 l -15.039663969509208 23.122725659671694 a48.58354462806028,48.58354462806028 0 0,0 -0.697116724825275,-0.46201095260104214 l 15.435455393074445 -22.860416685979335" fill="red" stroke="none" /><path d="M 87.95078237400918 117.19931262002967 l -15.855176944237549 22.63202088089136 a48.63322285015239,48.63322285015239 0 0,0 -0.6814965925445198,-0.4862297239237299 l 16.242400864630955 -22.35574689512341" fill="red" stroke="none" /><path d="M 87.36589467227662 116.77436683061367 l -16.567876732389202 21.997255421295822 a48.53858720939351,48.53858720939351 0 0,0 -0.6630631538042142,-0.508408551873712 l 16.944068614686902 -21.708807527594743" fill="red" stroke="none" /><path d="M 87.07902340077011 116.55440617244103 l -16.91806197528882 21.67548771864147 a48.4963195508179,48.4963195508179 0 0,0 -0.6536438037925574,-0.5192941696451848 l 17.288663271798736 -21.381059634991157" fill="red" stroke="none" /><path d="M 86.51685102203217 116.09983520530335 l -17.648009047382565 21.07297322226766 a48.486768157841084,48.486768157841084 0 0,0 -0.6352563737822073,-0.5413792633299127 l 18.00813089774183 -20.766069568714794" fill="red" stroke="none" /><path d="M 85.97065885151581 115.62618273729859 l -17.861242607453615 19.89423722363822 a47.73583105483555,47.73583105483555 0 0,0 -0.6067007054814153,-0.5542067097223841 l 18.201042862401884 -19.583837747329262" fill="red" stroke="none" /><path d="M 85.44109423537348 115.13401014063109 l -19.52906247872835 20.300497466519236 a49.16903403892702,49.16903403892702 0 0,0 -0.604896299313952,-0.5920183426733031 l 19.875608730418094 -19.961329020923362" fill="red" stroke="none" /><path d="M 85.18274418774928 114.88116024355367 l -19.423416767787124 19.507186827387436 a48.528157527407316,48.528157527407316 0 0,0 -0.5868657406127133,-0.5944918968347284 l 19.75632313345537 -19.169954436572045" fill="red" stroke="none" /><path d="M 84.67929136418377 114.36230785411682 l -21.224292742027032 19.8965879185424 a50.092006001641565,50.092006001641565 0 0,0 -0.5842960381334097,-0.6341379495247594 l 21.56363518815617 -19.528298714216298" fill="red" stroke="none" /><path d="M 84.19399662182784 113.82643327865904 l -20.70602060059484 18.11276421059269 a48.51020749577846,48.51020749577846 0 0,0 -0.5443711313645689,-0.633226609477089 l 21.014734241530185 -17.75366050195407" fill="red" stroke="none" /><path d="M 83.72743513129214 113.27417163493432 l -21.339254286112098 17.407269612430355 a48.53864210245659,48.53864210245659 0 0,0 -0.5225579786926295,-0.6519714253814014 l 21.63573017685959 -17.037370353470696" fill="red" stroke="none" /><path d="M 83.50135304334701 112.99209946851258 l -21.629519928163283 17.03248000282566 a48.53073750137233,48.53073750137233 0 0,0 -0.5111746805087138,-0.6607621815978841 l 21.919501425890065 -16.657639827114526" fill="red" stroke="none" /><path d="M 83.06392112726016 112.41649034213515 l -22.198117985280035 16.2742934565241 a48.524699264432954,48.524699264432954 0 0,0 -0.48806652635927317,-0.6778817176083096 l 22.474964304014915 -15.889778133464652" fill="red" stroke="none" /><path d="M 82.6465618267979 111.8261652097733 l -22.756990056312166 15.508622637023846 a48.539026353898194,48.539026353898194 0 0,0 -0.4645806458819169,-0.6944850304636778 l 23.020573807604812 -15.114600692354347" fill="red" stroke="none" /><path d="M 82.24976979558568 111.22182372390057 l -23.288425262102486 14.723110635125982 a48.55214579597555,48.55214579597555 0 0,0 -0.4405190759109591,-0.7102570146958216 l 23.538408977681403 -14.320057289064897" fill="red" stroke="none" /><path d="M 82.05923443525364 110.91462005526583 l -23.989176797298466 14.594290819763753 a49.07977791835049,49.07977791835049 0 0,0 -0.43288159461724446,-0.725534451881305 l 24.23683926761394 -14.179194273996337" fill="red" stroke="none" /><line stroke="#e1ed5e" stroke-width="0.3" x1="26.63291911575756" x2="22.317208475507996" y1="142.92168965132927" y2="145.44649492493687" /><path d="M 25.769776987707644 143.4266507060508 a86.0,86.0 0 0,1 -11.730757126820373,-40.83630448921669" fill="none" id="id9" stroke="none" /><text fill="#e1ed5e" style="font-size:6.75px; font-family:Arial;" text-anchor="middle"><textPath startOffset="21.46611528233685" xlink:href="#id9">September</textPath></text><path d="M 81.69416730710424 110.29060199501025 l -24.31046469276351 13.666098705472473 a48.888365807372395,48.888365807372395 0 0,0 -0.4060611571509334,-0.7371189486650448 l 24.54210225936596 -13.245609238409607" fill="red" stroke="none" /><path d="M 81.35079622478065 109.6543875284942 l -24.468031072831394 12.666699172982435 a48.55231047516481,48.55231047516481 0 0,0 -0.37783253156198143,-0.7454994297533573 l 24.682442274179643 -12.243645531526393" fill="red" stroke="none" /><path d="M 81.02952815118164 109.00673069616217 l -15.452651878651377 7.3365530979782365 a38.10583121167288,38.10583121167288 0 0,0 -0.276222607468276,-0.5949589225698892 l 15.57664910295948 -7.06947410812952" fill="red" stroke="none" /><path d="M 80.87730276802145 108.67885076344099 l -25.071516501999522 11.378726938693926 a48.532823437769565,48.532823437769565 0 0,0 -0.3387103789508487,-0.7637024876055825 l 25.26366796568165 -10.945476114595648" fill="red" stroke="none" /><path d="M 80.58989483394504 108.01547362559985 l -26.28889560550851 10.856095192137952 a49.442236813902056,49.442236813902056 0 0,0 -0.31807223518215755,-0.7894292028079561 l 26.471870454948053 -10.40196662148719" fill="red" stroke="none" /><path d="M 80.32549172779594 107.34259656027581 l -25.78856015383627 9.624382498420191 a48.52596180488392,48.52596180488392 0 0,0 -0.2853228092519189,-0.7850858297907776 l 25.95040722409341 -9.179048871623296" fill="red" stroke="none" /><path d="M 80.0844068197444 106.66101706037122 l -26.578452899607118 8.88949310222272 a49.02565335814848,49.02565335814848 0 0,0 -0.26078787519506785,-0.8026225501827783 l 26.727533025818435 -8.43067165206214" fill="red" stroke="none" /><path d="M 79.97269907076064 106.31721596034903 l -26.23303047570213 8.274690603339431 a48.50713348424569,48.50713348424569 0 0,0 -0.24432171738593433,-0.7984575087771972 l 26.371578965594196 -7.821906122010186" fill="red" stroke="none" /><path d="M 79.76711848015287 105.62410040840567 l -27.174570443797993 7.553670127573988 a49.20487920912166,49.20487920912166 0 0,0 -0.21980973199896708,-0.8179937839955613 l 27.300568252138735 -7.084785410402889" fill="red" stroke="none" /><path d="M 79.58551787078972 104.9243191809786 l -27.705460082577662 6.6830266689577735 a49.50009410239386,49.50009410239386 0 0,0 -0.19267188944352087,-0.8300254570308511 l 27.81639253795174 -6.205132554578348" fill="red" stroke="none" /><path d="M 79.4281124754447 104.21870165774334 l -26.954215582528686 5.52753333039834 a48.51514787145613,48.51514787145613 0 0,0 -0.16072390900536457,-0.8195277493651139 l 27.04536942450972 -5.062741853965271" fill="red" stroke="none" /><path d="M 79.35854240842038 103.8639653848113 l -27.045477336208165 5.06276205443152 a48.515257657582296,48.515257657582296 0 0,0 -0.1465936047240245,-0.8221747858895433 l 27.12861738327138 -4.596468517808764" fill="red" stroke="none" /><path d="M 79.29508885075956 103.50808413554451 l -7.302751112732864 1.237323122989977 a28.406830788212105,28.406830788212105 0 0,0 -0.07753474785409475,-0.4828089489001523 l 7.322967614948249 -1.1114349443966112" fill="red" stroke="none" /><path d="M 79.23777060512086 103.15116336523772 l -27.604568239795224 4.189651433670321 a48.920697821529586,48.920697821529586 0 0,0 -0.11919399661755993,-0.8336425347291865 l 27.672596287429382 -3.713863426960734" fill="red" stroke="none" /><path d="M 79.1416061653843 102.43462659150553 l -27.319631389237262 3.188793038320332 a48.50510244091154,48.50510244091154 0 0,0 -0.08965983058151888,-0.8301386773628116 l 27.370473521319834 -2.718058039072738" fill="red" stroke="none" /><path d="M 79.07016306316243 101.71520430193888 l -27.450079502213548 2.2495394776771236 a48.54210036543096,48.54210036543096 0 0,0 -0.06107854006266242,-0.8333681520289654 l 27.484734600940545 -1.7766981891513978" fill="red" stroke="none" /><path d="M 79.04373962182676 101.35467743843564 l -27.463097002722797 1.7752994679292635 a48.52041760551231,48.52041760551231 0 0,0 -0.046703556965155164,-0.833923383287875 l 27.489586910575483 -1.302304368305951" fill="red" stroke="none" /><path d="M 79.0095281055655 100.63252640178507 l -27.505846070585086 0.8288605387520784 a48.51833166911507,48.51833166911507 0 0,0 -0.017970121064304505,-0.8350009136233574 l 27.516038254334397 -0.35526980933859226" fill="red" stroke="none" /><line stroke="#e1ed5e" stroke-width="0.3" x1="15.007084014347285" x2="10.007500721073583" y1="101.09737516637583" y2="101.16192664675087" /><path d="M 14.007167355692545 101.11028546245083 a86.0,86.0 0 0,1 10.666146001902534,-42.60595125391555" fill="none" id="id10" stroke="none" /><text fill="#e1ed5e" style="font-size:6.75px; font-family:Arial;" text-anchor="middle"><textPath startOffset="22.20632615414155" xlink:href="#id10">October</textPath></text><path d="M 79.00019446554 99.90962569577889 l -27.537124558606262 -0.11850816752329317 a48.53737956200564,48.53737956200564 0 0,0 0.010786838330505666,-0.8354525162105585 l 27.53100471315804 0.5924969417943237" fill="red" stroke="none" /><path d="M 79.01574976396665 99.18683210126434 l -27.522870248962903 -1.0665482119104688 a48.543527585071175,48.543527585071175 0 0,0 0.0395430762189612,-0.8346918407766086 l 27.500433564510445 1.5401511593100865" fill="red" stroke="none" /><path d="M 79.05617556472873 98.46500227214037 l -27.47132605609681 -2.013406061902637 a48.545009697774475,48.545009697774475 0 0,0 0.0682531652054434,-0.8328614944343607 l 27.43259840707187 2.485981473544776" fill="red" stroke="none" /><path d="M 79.08570108090925 98.10471618934814 l -16.493705329302443 -1.4946832695287957 a37.5612920258677,37.5612920258677 0 0,0 0.06389511020253229,-0.6434150400029129 l 16.465533093417683 1.7783738402361389" fill="red" stroke="none" /><path d="M 79.12142395522702 97.74499172005258 l -27.462584425222204 -2.9661196786040005 a48.622299130598435,48.622299130598435 0 0,0 0.0970353996532041,-0.8313400457087142 l 27.40745867256541 3.4384034626375763" fill="red" stroke="none" /><path d="M 79.21141760316559 97.0276538004421 l -27.248789708761006 -3.896024990415964 a48.525906911820826,48.525906911820826 0 0,0 0.1253449745466338,-0.8258667715363561 l 27.177688840775073 4.364490874344413" fill="red" stroke="none" /><path d="M 79.26566170972629 96.67025291283419 l -27.17514150491934 -4.36408179525894 a48.52332693785583,48.52332693785583 0 0,0 0.13953492317251096,-0.8235430151832969 l 27.095994720226603 4.831210598758065" fill="red" stroke="none" /><path d="M 79.32604984820605 96.31383870115002 l -27.11517919830829 -4.83463118747595 a48.54281397525107,48.54281397525107 0 0,0 0.15375191099724178,-0.821348856526805 l 27.02794156340119 5.300658121465328" fill="red" stroke="none" /><path d="M 79.46518482838121 95.60439243477599 l -26.879984063032627 -5.753831252587442 a48.48890898730141,48.48890898730141 0 0,0 0.18173091930704602,-0.814664077401196 l 26.776958756723545 6.215673499538598" fill="red" stroke="none" /><path d="M 79.62865764111835 94.90015583598534 l -24.453204249294373 -6.121713963923015 a46.20782775079595,46.20782775079595 0 0,0 0.19980191695606084,-0.7699182903631384 l 24.344206000468006 6.541728679835018" fill="red" stroke="none" /><path d="M 79.81627453868168 94.20196356495316 l -26.454913773890244 -7.59951646394519 a48.52480905055913,48.52480905055913 0 0,0 0.23752686734180709,-0.8008225157456839 l 26.320181009436727 8.053768366437414" fill="red" stroke="none" /><path d="M 79.91906864156998 93.8553929516997 l -26.343329389905946 -8.06085158878647 a48.549016891379694,48.549016891379694 0 0,0 0.2514018740658278,-0.797012642545921 l 26.200672032071914 8.513114397758805" fill="red" stroke="none" /><path d="M 80.14247586403 93.16781622104843 l -26.377885827377256 -9.075580744046272 a48.895501905573475,48.895501905573475 0 0,0 0.2806762912845223,-0.7935096717372192 l 26.217756455282924 9.528288042210102" fill="red" stroke="none" /><path d="M 80.38941819471856 92.48833698450439 l -26.485065664527458 -10.144874343382522 a49.361544011166814,49.361544011166814 0 0,0 0.31075783362262066,-0.7908447905923164 l 26.306514281023144 10.599268138870602" fill="red" stroke="none" /><path d="M 80.65960295795068 91.81776055985345 l -25.335100124038973 -10.718386753088486 a48.509109634516754,48.509109634516754 0 0,0 0.3319623672257133,-0.7662149124338878 l 25.14684704697058 11.152900810108974" fill="red" stroke="none" /><path d="M 80.803312248108 91.48605970444005 l -25.70629589904121 -11.401022474976886 a49.12111239485364,49.12111239485364 0 0,0 0.3494562085701868,-0.7699804334086081 l 25.50623737350767 11.841824917227564" fill="red" stroke="none" /><path d="M 81.10775173730289 90.83032412892265 l -25.029233839157648 -12.148366801829802 a48.821670735723885,48.821670735723885 0 0,0 0.37346250259902053,-0.752877616248811 l 24.816411323605216 12.577404006577575" fill="red" stroke="none" /><path d="M 81.43458229118936 90.18545643968196 l -23.797542030770764 -12.580487902443318 a47.918240703467674,47.918240703467674 0 0,0 0.391770182308817,-0.7258906482392865 l 23.577463749243478 12.988259534015079" fill="red" stroke="none" /><line stroke="#e1ed5e" stroke-width="0.3" x1="26.266209847984243" x2="21.928928074336255" y1="57.711370442889674" y2="55.22380399835377" /><path d="M 25.398753493254645 57.213857153982495 a86.0,86.0 0 0,1 29.58750427330803,-30.492523968695096" fill="none" id="id11" stroke="none" /><text fill="#e1ed5e" style="font-size:6.75px; font-family:Arial;" text-anchor="middle"><textPath startOffset="21.46611528233685" xlink:href="#id11">November</textPath></text><path d="M 81.78341655067845 89.55222093294921 l -23.88795106702675 -13.700485374062325 a48.53792849263648,48.53792849263648 0 0,0 0.42191091750390247,-0.7211825224474864 l 23.648580475052526 14.109647308863703" fill="red" stroke="none" /><path d="M 81.96595687620814 89.24020034530311 l -23.64108518577476 -14.105175332700114 a48.52920049560594,48.52920049560594 0 0,0 0.4341842902345261,-0.7136848120732537 l 23.394785097254015 14.510027917980441" fill="red" stroke="none" /><path d="M 82.34701348167596 88.62581576622439 l -23.120926207738684 -14.897290839109399 a48.504663296406854,48.504663296406854 0 0,0 0.45826135232563386,-0.6979634790961724 l 22.86106822005513 15.293072382183238" fill="red" stroke="none" /><path d="M 82.7489923806493 88.02491185347247 l -22.690620150449654 -15.751090162189335 a48.621750199967586,48.621750199967586 0 0,0 0.48317836522769025,-0.6834215317389575 l 22.416129165418084 16.139338194260077" fill="red" stroke="none" /><path d="M 83.17141714833178 87.43820079747576 l -22.06826423458329 -16.47299160639673 a48.53847742326734,48.53847742326734 0 0,0 0.505549182731308,-0.6652434646653057 l 21.781439111627872 16.85041984694306" fill="red" stroke="none" /><path d="M 83.39014120810768 87.1503855733568 l -14.19980067927489 -10.985160436940786 a38.95294096120367,38.95294096120367 0 0,0 0.4148412521351029,-0.526806262422844 l 14.008605346545815 11.227959093316677" fill="red" stroke="none" /><path d="M 83.6137871275137 86.86637796730984 l -17.179733869542147 -13.76963261862817 a43.0169488867164,43.0169488867164 0 0,0 0.4680684612803545,-0.5737965884918689 l 16.9401669161854 14.063313376728122" fill="red" stroke="none" /><path d="M 83.84228863543731 86.58626213691792 l -16.96293187042942 -14.08221228646877 a43.046536247719324,43.046536247719324 0 0,0 0.47820476346355767,-0.5660436063939785 l 16.718016493478736 14.372114842491865" fill="red" stroke="none" /><path d="M 84.07557802195018 86.31012108654704 l -16.69316593351487 -14.350751357066413 a43.01376508905746,43.01376508905746 0 0,0 0.48750600330223703,-0.55730363570826 l 16.44366806663479 14.635970548977616" fill="red" stroke="none" /><path d="M 84.31358615837235 86.03803664274999 l -16.44965459018098 -14.64129895757585 a43.021779476267895,43.021779476267895 0 0,0 0.4971194467585963,-0.548931709398562 l 16.19519150280634 14.922283454243969" fill="red" stroke="none" /><path d="M 84.5562425177563 85.77008943001954 l -13.03718244722591 -12.012487279850195 a38.72760493723893,38.72760493723893 0 0,0 0.45593949915732257,-0.486364468238787 l 12.82847562609813 12.235121164967032" fill="red" stroke="none" /><path d="M 84.80347519578584 85.50635884689758 l -15.964887525257849 -15.226464854422622 a43.061796519257015,43.061796519257015 0 0,0 0.51619966919246,-0.5319891343347776 l 15.70042359236227 15.499018184307522" fill="red" stroke="none" /><path d="M 85.05521093208273 85.24692304244772 l -19.60223697713017 -19.350779013977803 a48.54451566020671,48.54451566020671 0 0,0 0.5921603338267708,-0.5896174091653843 l 19.26624084313608 19.685332273793296" fill="red" stroke="none" /><path d="M 85.31137513191541 84.99185889309783 l -11.462412141348336 -11.711749764718268 a37.38755548120305,37.38755548120305 0 0,0 0.4638135563439726,-0.44618827372389774 l 11.259115341391936 11.907321125204481" fill="red" stroke="none" /><path d="M 85.57189188830299 84.74124197986013 l -11.383233533464317 -12.038585005684714 a37.56820855181644,37.56820855181644 0 0,0 0.4737031164034123,-0.4402554206663445 l 11.174322533266048 12.232745012425708" fill="red" stroke="none" /><path d="M 85.83668400450813 84.49514656593479 l -11.162993716774551 -12.220343139916613 a37.55141127451237,37.55141127451237 0 0,0 0.48099604919564704,-0.4318430021384389 l 10.950986679982933 12.41068515082433" fill="red" stroke="none" /><path d="M 86.10567301691215 84.25364557470407 l -10.945211934999602 -12.404140668221185 a37.542683277481814,37.542683277481814 0 0,0 0.4882447437390646,-0.4234010305269168 l 10.730073392613763 12.590706692167783" fill="red" stroke="none" /><path d="M 86.37877921826538 84.01681056812374 l -10.806375472107437 -12.680239826542113 a37.6603191116734,37.6603191116734 0 0,0 0.49701302845309786,-0.4162341179999564 l 10.586504906695229 12.864375101935883" fill="red" stroke="none" /><path d="M 86.65592168130627 83.78471172551755 l -11.100404107006064 -13.48884863079643 a38.46905861010764,38.46905861010764 0 0,0 0.5149296017011571,-0.4163705936221963 l 10.866571106740405 13.677925321682759" fill="red" stroke="none" /><path d="M 86.93701828274178 83.55741782278169 l -17.12923010266498 -21.56083348286776 a48.536885524437864,48.536885524437864 0 0,0 0.6586396308770723,-0.5140786790682648 l 16.755557916628483 21.852490551159246" fill="red" stroke="none" /><path d="M 87.22198572758235 83.33499621200491 l -10.082006305049063 -13.14888758787116 a37.56925152001506,37.56925152001506 0 0,0 0.5165840893725144,-0.3890804262040591 l 9.854176061918158 13.320484603581074" fill="red" stroke="none" /><path d="M 87.51073957382395 83.11751280151077 l -6.209045670283113 -8.393141824770538 a31.440166561237135,31.440166561237135 0 0,0 0.43784876025957226,-0.3181157451630037 l 6.06365159366976 8.49877680475021" fill="red" stroke="none" /><path d="M 87.80319425747018 82.90503203632743 l -9.607325451194002 -13.465568303022922 a37.54153052315703,37.54153052315703 0 0,0 0.5292799123941112,-0.3707944026829935 l 9.37411439921623 13.628947548469858" fill="red" stroke="none" /><path d="M 88.09926311788651 82.69761687909137 l -9.38997947679811 -13.652013653811384 a37.569525985330486,37.569525985330486 0 0,0 0.535983505646502,-0.36189845559133815 l 9.15359127674507 13.811624021701387" fill="red" stroke="none" /><line stroke="#e1ed5e" stroke-width="0.3" x1="56.762969772571076" x2="54.21961505331055" y1="26.818313649435495" y2="22.513508569990535" /><path d="M 56.25429882871897 25.957352633546506 a86.0,86.0 0 0,1 42.265352541879196,-11.944610805530505" fill="none" id="id12" stroke="none" /><text fill="#e1ed5e" style="font-size:6.75px; font-family:Arial;" text-anchor="middle"><textPath startOffset="22.20632615414155" xlink:href="#id12">December</textPath></text></svg>