<?xml version="1.0" encoding="utf-8" ?>
<svg baseProfile="full" height="200mm" version="1.1" viewBox="0,0,200,200" width="200mm" xmlns="http://www.w3.org/2000/svg" xmlns:ev="http://www.w3.org/2001/xml-events" xmlns:xlink="http://www.w3.org/1999/xlink"><defs /><rect fill="#1a1a1a" height="200" width="200" x="0" y="0" /><rect fill="#1a1a1a" height="200" width="180" x="10" y="0" /><text alignment-baseline="middle" fill="#e1ed5e" style="dominant-baseline: central; font-size:9.0px; font-family:Arial;" text-anchor="middle" x="100.0" y="100.0">2026</text><line stroke="#e1ed5e" stroke-width="0.3" x1="100.0" x2="100.0" y1="15.0" y2="10.0" /><path d="M 100.0 14.0 a86.0,86.0 0 0,1 42.46469731375804,11.215312516191453" fill="none" id="id13" stroke="none" /><text fill="#e1ed5e" style="font-size:6.75px; font-family:Arial;" text-anchor="middle"><textPath startOffset="22.20632615414155" xlink:href="#id13">January</textPath></text><path d="M 100.0 79.0 l 0.0 -46.196314760898176 a67.19631476089818,67.19631476089818 0 0,0 1.1566740983389117,0.009955859139448459 l -0.7951936190663833 46.18947027836729" fill="red" stroke="none" /><path d="M 100.36148047927253 79.00311137660856 l 0.6832677405203639 -39.68816428631061 a60.69404538746859,60.69404538746859 0 0,0 1.044438638347854,0.026974768634395352 l -1.3663330140630858 39.67052272553385" fill="red" stroke="none" /><path d="M 100.72285384407766 79.0124445844662 l 1.399618656215196 -40.636948047793034 a61.661043752243444,61.661043752243444 0 0,0 1.0604500588364405,0.04566521024945151 l -2.098909547440968 40.606835111019386" fill="red" stroke="none" /><path d="M 101.08401301168833 79.027996857942 l 1.2595506589346246 -24.36806578144007 a45.40059625892394,45.40059625892394 0 0,0 0.7801075302633379,0.047058216606741504 l -1.6788202380375743 24.342774295453022" fill="red" stroke="none" /><path d="M 101.44485096284872 79.0497635885617 l 2.6019332304585006 -37.7278471666081 a58.81746300801659,58.81746300801659 0 0,0 1.0094471764241315,0.07835252887566432 l -3.250970596244973 37.67746937554397" fill="red" stroke="none" /><path d="M 101.80526077348638 79.07773832637324 l 3.2116584922955633 -37.2218575670727 a58.36015833765405,58.36015833765405 0 0,0 1.0001121221312608,0.0949726968189195 l -3.851895741517068 37.161059325738606" fill="red" stroke="none" /><path d="M 102.16513564639614 79.11191278185805 l 3.894083633673844 -37.56806586705489 a58.769345511107566,58.769345511107566 0 0,0 1.0053288438348142,0.1129604093672706 l -4.540179181018384 37.49546950421702" fill="red" stroke="none" /><path d="M 102.52436894288641 79.15227682838746 l 4.5831144953283545 -37.85005457766392 a59.1265205599649,59.1265205599649 0 0,0 1.0093327035869255,0.13104035296813873 l -5.233961927423126 37.76555590153164" fill="red" stroke="none" /><path d="M 102.88285421437855 79.19881850522331 l 5.088468220133426 -36.71574873591562 a58.066679296454346,58.066679296454346 0 0,0 0.9888783676149159,0.1457349659704386 l -5.719715568176998 36.622719285784214" fill="red" stroke="none" /><path d="M 103.2404852339499 79.25152402106235 l 7.774508637914274 -49.779336758521175 a71.3827882582858,71.3827882582858 0 0,0 1.212388369338256,0.20005446908521907 l -8.630226213391406 49.63813602649633" fill="red" stroke="none" /><path d="M 103.59715602781102 79.31037775812273 l 10.337372506460802 -59.45706287930796 a81.34901487656043,81.34901487656043 0 0,0 1.377528884932266,0.2517345987783281 l -11.35929651249597 59.270312799178896" fill="red" stroke="none" /><path d="M 103.95276090670814 79.375362276772 l 6.89698684159462 -35.986961606596154 a57.641913612252225,57.641913612252225 0 0,0 0.9728681146083971,0.19514819152240226 l -7.515421365670142 35.86290945899654" fill="red" stroke="none" /><path d="M 104.307194497241 79.44645832069477 l 7.8270328783838305 -37.349891349044626 a59.161195309695685,59.161195309695685 0 0,0 0.9949145986377718,0.21744979592487623 l -8.46879020117513 37.20962805502388" fill="red" stroke="none" /><path d="M 104.66035177308747 79.52364482259891 l 8.429812983976692 -37.03837245415039 a58.985560164320184,58.985560164320184 0 0,0 0.9880820417645142,0.2338470956352567 l -9.06611871270373 36.88777944637427" fill="red" stroke="none" /><path d="M 105.01212808612495 79.60689891045804 l 9.020721102192063 -36.70306787386858 a58.79535157340565,58.79535157340565 0 0,0 0.9807375734668059,0.25001184450967456 l -9.651167564343893 36.54235303319003" fill="red" stroke="none" /><path d="M 105.36241919743992 79.69619591428918 l 9.661240947832088 -36.580494028381565 a58.83480038288199,58.83480038288199 0 0,0 0.9769437657434559,0.26703563544223746 l -10.289482602799255 36.408771852113034" fill="red" stroke="none" /><path d="M 105.71112130821622 79.79150937346287 l 10.272979960962207 -36.35037815587035 a58.7741195708531,58.7741195708531 0 0,0 0.971199735037095,0.28351983470758824 l -10.897169913722728 36.16815999224406" fill="red" stroke="none" /><path d="M 106.0581310904928 79.89281104454417 l 18.15993233159219 -60.27357040567333 a83.94987237267179,83.94987237267179 0 0,0 1.3800344715292698,0.4287834279677328 l -19.19475217583218 59.95204684282308" fill="red" stroke="none" /><path d="M 106.74666289553966 80.11325718540242 l 12.209178035743738 -35.98827855101366 a59.002897539185575,59.002897539185575 0 0,0 0.9589881305968964,0.33457212853970847 l -12.826848170403908 35.772785569301746" fill="red" stroke="none" /><path d="M 107.08798089147638 80.2323363322302 l 12.76400534536601 -35.59752326988224 a58.8167092091094,58.8167092091094 0 0,0 0.9500793954107035,0.3499222593796084 l -13.37486706654929 35.37253774269631" fill="red" stroke="none" /><path d="M 107.4271985657038 80.35727306442388 l 13.577172544970198 -35.907575447025735 a59.38871694651617,59.38871694651617 0 0,0 0.9530951152402628,0.369786097492196 l -14.193250825210129 35.66854664564299" fill="red" stroke="none" /><path d="M 107.76421540070413 80.48803036053334 l 13.97981464027273 -35.13216786871153 a58.811432616759056,58.811432616759056 0 0,0 0.9373873880688042,0.3823838519888772 l -14.582485897929923 34.886323130539076" fill="red" stroke="none" /><path d="M 108.09893153111575 80.62456947434976 l 22.186269176182144 -53.07718868778629 a78.52754556694453,78.52754556694453 0 0,0 1.2426656596550854,0.53204458338992 l -23.096618593627543 52.68742457643358" fill="red" stroke="none" /><path d="M 108.43124777332544 80.76684994638697 l 16.212035524701676 -36.98248708899105 a61.379876759861205,61.379876759861205 0 0,0 0.9640086153194063,0.4325225655171574 l -16.846226258487864 36.697944192957365" fill="red" stroke="none" /><path d="M 108.76106565485865 80.91482961587045 l 15.7701278321334 -34.353763401927786 a58.800502532604796,58.800502532604796 0 0,0 0.9162288388191172,0.4301817251130138 l -16.359134882252114 34.07721669417477" fill="red" stroke="none" /><path d="M 109.08828744355905 81.06846463323043 l 16.391866201047364 -34.145398309602484 a58.876133689626286,58.876133689626286 0 0,0 0.9098570033151833,0.4464628800611791 l -16.977194471372982 33.858180269406475" fill="red" stroke="none" /><path d="M 109.41281617654863 81.2277094730956 l 16.96311635520736 -33.830103816857566 a58.844725401826665,58.844725401826665 0 0,0 0.9015558694646324,0.46181193295973355 l -17.54293271226075 33.53309935858533" fill="red" stroke="none" /><path d="M 109.73455568895987 81.39251694778311 l 17.527092171754642 -33.5028203609173 a58.810553184700666,58.810553184700666 0 0,0 0.8929541047310483,0.4769851577883113 l -18.101191323014003 33.19615647662723" fill="red" stroke="none" /><path d="M 110.05341064243156 81.56283822128135 l 18.13649634463352 -33.260903100270845 a58.88429984445419,58.88429984445419 0 0,0 0.8857205644153519,0.4929025351478352 l -18.706340998120908 32.94378516756283" fill="red" stroke="none" /><path d="M 110.36928655335952 81.73862282372117 l 16.627500242988113 -29.282733375470066 a54.67420731464125,54.67420731464125 0 0,0 0.8143938427565633,0.4717494792098828 l -17.129090818210003 28.992179738870135" fill="red" stroke="none" /><line stroke="#e1ed5e" stroke-width="0.3" x1="143.23703022742887" x2="145.7803849466894" y1="26.81831364943548" y2="22.513508569990506" /><path d="M 143.74570117128098 25.957352633546492 a86.0,86.0 0 0,1 28.547481713284135,27.462654790039103" fill="none" id="id14" stroke="none" /><text fill="#e1ed5e" style="font-size:6.75px; font-family:Arial;" text-anchor="middle"><textPath startOffset="19.985693538727396" xlink:href="#id14">February</textPath></text><path d="M 110.68208982089419 81.91981866633111 l 31.53252966247816 -53.37100359255114 a82.99003509751525,82.99003509751525 0 0,0 1.223660142481922,0.7372415442185736 l -32.44655187117772 52.820315438873955" fill="red" stroke="none" /><path d="M 110.99172775467656 82.1063720568725 l 19.750915615305097 -32.152864721927976 a58.734670761376776,58.734670761376776 0 0,0 0.8569132482384125,0.5365989974335215 l -20.30144801591577 31.808121383171514" fill="red" stroke="none" /><path d="M 111.2981086023043 82.29822771554956 l 20.691044183009947 -32.41853706207454 a59.458820244884926,59.458820244884926 0 0,0 0.8579991972459683,0.5580665446891455 l -21.246010406040195 32.05757159322587" fill="red" stroke="none" /><path d="M 111.60114157652 82.49532879139004 l 21.19492892276944 -31.98049602582547 a59.36635424560284,59.36635424560284 0 0,0 0.8469467162943274,0.571862203530606 l -21.74228033347031 31.610921909996193" fill="red" stroke="none" /><path d="M 111.90073688211348 82.69761687909136 l 21.41541707602734 -31.13569811802021 a58.78957244845052,58.78957244845052 0 0,0 0.8288457961512923,0.5806594482493507 l -21.948194011762283 30.762453827006922" fill="red" stroke="none" /><path d="M 112.48926042617603 83.11751280151076 l 29.90526087389717 -40.424746273437535 a71.28404060144378,71.28404060144378 0 0,0 0.9801686142528802,0.73824267922884 l -30.596675641908433 39.90398700470284" fill="red" stroke="none" /><path d="M 112.77801427241765 83.33499621200491 l 37.99997875010621 -49.559327162532284 a83.45098312926254,83.45098312926254 0 0,0 1.132419687227592,0.8838715280245775 l -38.84743099249324 48.897877245284484" fill="red" stroke="none" /><path d="M 113.06298171725822 83.55741782278167 l 23.460772347541592 -29.530446081526772 a58.71544888924341,58.71544888924341 0 0,0 0.7859387206917451,0.6355077870916505 l -23.965614466797827 29.12223219717099" fill="red" stroke="none" /><path d="M 113.34407831869373 83.78471172551755 l 24.13733172717857 -29.33089740523391 a58.985685797471376,58.985685797471376 0 0,0 0.7784494402888965,0.6519290192345206 l -24.638638704426587 28.91106722860557" fill="red" stroke="none" /><path d="M 113.6212207817346 84.01681056812373 l 16.45335687152597 -19.306428100813264 a46.36633829218681,46.36633829218681 0 0,0 0.6029968819827723,0.5229129540255149 l -16.78324755215551 19.020350153368078" fill="red" stroke="none" /><path d="M 113.89432698308785 84.25364557470407 l 25.071216645419618 -28.413054022169078 a58.892842898735694,58.892842898735694 0 0,0 0.7543584594759727,0.6772704731637482 l -25.55658609249158 27.97728454023603" fill="red" stroke="none" /><path d="M 114.16331599549186 84.49514656593476 l 25.442536178261538 -27.852431913572374 a58.72374067722251,58.72374067722251 0 0,0 0.7404563602573516,0.6881734890098354 l -25.918200422313735 27.4103538384879" fill="red" stroke="none" /><path d="M 114.42810811169701 84.74124197986012 l 34.658619762183946 -36.653973491816366 a71.44535356758266,71.44535356758266 0 0,0 0.886319608113837,0.852638760775406 l -35.2844226139102 36.05195164427866" fill="red" stroke="none" /><path d="M 114.68862486808459 84.99185889309783 l 44.00172574200931 -44.958879051923155 a83.9082877996251,83.9082877996251 0 0,0 1.0235380668343321,1.019142669096019 l -44.76909960901097 44.19480053217702" fill="red" stroke="none" /><path d="M 114.94478906791727 85.2469230424477 l 36.216988321689 -35.7523959322842 a71.89109998803494,71.89109998803494 0 0,0 0.861788523270542,0.8881488265801434 l -36.827041108662655 35.123682910153946" fill="red" stroke="none" /><path d="M 115.19652480421416 85.50635884689758 l 28.174604272225036 -26.87144654540065 a59.93434172217126,59.93434172217126 0 0,0 0.7056060861861818,0.7526913757818169 l -28.632977680381682 26.382485752740777" fill="red" stroke="none" /><path d="M 115.4437574822437 85.77008943001954 l 27.971999889363623 -25.773459428302296 a59.035562158497186,59.035562158497186 0 0,0 0.682159742265079,0.7532578253497432 l -28.411503272244737 25.288148815683" fill="red" stroke="none" /><path d="M 115.9244219780498 86.31012108654704 l 31.281362161444513 -26.89190608163531 a62.251645196027596,62.251645196027596 0 0,0 0.6915546722475678,0.8185826043689163 l -31.7396274471792 26.349464527637284" fill="red" stroke="none" /><path d="M 116.15771136456269 86.58626213691792 l 29.093933513177998 -24.153073956230457 a58.813065847724644,58.813065847724644 0 0,0 0.6399463919911685,0.7844986084680396 l -29.505378397245575 23.648691178154316" fill="red" stroke="none" /><path d="M 116.38621287248628 86.86637796730983 l 29.445089315863736 -23.600369212991964 a58.735801459737566,58.735801459737566 0 0,0 0.6255248723577808,0.7943530648490333 l -29.84696826881548 23.090023754189893" fill="red" stroke="none" /><path d="M 116.60985879189232 87.15038557335679 l 29.967602229091614 -23.183347839344908 a58.88832010529254,58.88832010529254 0 0,0 0.6133472593719783,0.8070930975759147 l -30.362225428687708 22.664069965887958" fill="red" stroke="none" /><path d="M 116.82858285166822 87.43820079747576 l 30.345714315611847 -22.651745143952727 a58.86771626849599,58.86771626849599 0 0,0 0.5991538991674965,0.8172452451217703 l -30.731130827292972 22.126037455159462" fill="red" stroke="none" /><path d="M 117.04232023915458 87.72973835380427 l 30.682191846827163 -22.090801989179077 a58.807412355920704,58.807412355920704 0 0,0 0.5843983247938028,0.8265899862632601 l -31.057902791424848 21.559385502584025" fill="red" stroke="none" /><path d="M 117.2510076193507 88.02491185347247 l 31.117142282352386 -21.600507629549927 a58.87952578470865,58.87952578470865 0 0,0 0.5707824248949359,0.8375527776813924 l -31.484349172916055 21.061676828598127" fill="red" stroke="none" /><path d="M 117.45458315368197 88.32363383020206 l 21.05900713428506 -14.087570943819964 a46.33656323535277,46.33656323535277 0 0,0 0.4377776215163936,0.6667653517657064 l -21.29838139115938 13.722987528076583" fill="red" stroke="none" /><path d="M 117.65298651832404 88.62581576622439 l 31.705673437074758 -20.42862099027148 a58.717082120208985,58.717082120208985 0 0,0 0.5401199949802089,0.8543401219613324 l -32.05262102830092 19.879833220595938" fill="red" stroke="none" /><line stroke="#e1ed5e" stroke-width="0.3" x1="172.23445277983987" x2="176.4835382374775" y1="55.19839476539836" y2="52.563006222186495" /><path d="M 173.08426987136738 54.67131705675599 a86.0,86.0 0 0,1 12.851231095245387,41.99856678651699" fill="none" id="id15" stroke="none" /><text fill="#e1ed5e" style="font-size:6.75px; font-family:Arial;" text-anchor="middle"><textPath startOffset="22.20632615414155" xlink:href="#id15">March</textPath></text><path d="M 117.84615892207809 88.93136811851018 l 53.538476766234254 -33.20589564446945 a84.0,84.0 0 0,0 0.7515368068551043,1.2353289071716742 l -54.10212937137558 32.279398964090696" fill="red" stroke="none" /><path d="M 118.03404312379186 89.2402003453031 l 32.52158769804291 -19.403622675269567 a58.870228931519954,58.870228931519954 0 0,0 0.5117233691983814,0.8747011155273128 l -32.850770741711614 18.840942147388358" fill="red" stroke="none" /><path d="M 118.21658344932153 89.55222093294921 l 32.80488962478007 -18.814627895081724 a58.81733737486539,58.81733737486539 0 0,0 0.49614485121344726,0.8825863289785069 l -33.12389211728595 18.247158056168423" fill="red" stroke="none" /><path d="M 118.3937258080291 89.86733742301442 l 23.319896142688506 -12.846371714482423 a47.624177401986195,47.624177401986195 0 0,0 0.3893659781573354,0.7214360230819233 l -23.537570220064307 12.443054708068042" fill="red" stroke="none" /><path d="M 118.56541770881063 90.18545643968196 l 33.44629639995577 -17.681268372049143 a58.832287719858016,58.832287719858016 0 0,0 0.46558910688811095,0.8993699604715316 l -33.74569494000399 17.102925689317267" fill="red" stroke="none" /><path d="M 118.73160827565052 90.50648371742162 l 33.751298061372296 -17.10576545209473 a58.83856937741794,58.83856937741794 0 0,0 0.4500870010775436,0.9073479294912435 l -34.040745075403244 16.522257934104537" fill="red" stroke="none" /><line stroke="#e1ed5e" stroke-width="0.3" x1="184.98032266829074" x2="189.97916517819016" y1="98.17113171792111" y2="98.06355123074" /><path d="M 185.9800911702706 98.14961562048488 a86.0,86.0 0 0,1 -9.607161424134198,41.387399972396054" fill="none" id="id16" stroke="none" /><text fill="#e1ed5e" style="font-size:6.75px; font-family:Arial;" text-anchor="middle"><textPath startOffset="21.466115282336823" xlink:href="#id16">April</textPath></text><line stroke="#e1ed5e" stroke-width="0.3" x1="174.80103733775053" x2="179.2010983576182" y1="140.37084112569926" y2="142.7455964860345" /><path d="M 175.68104954172406 140.8457921977663 a86.0,86.0 0 0,1 -30.038265399797805,32.042727171017184" fill="none" id="id17" stroke="none" /><text fill="#e1ed5e" style="font-size:6.75px; font-family:Arial;" text-anchor="middle"><textPath startOffset="22.206326154141568" xlink:href="#id17">May</textPath></text><line stroke="#e1ed5e" stroke-width="0.3" x1="143.8653032363475" x2="146.44561519142675" y1="172.8068346515853" y2="177.08958963109032" /><path d="M 144.38136562736335 173.6633856474863 a86.0,86.0 0 0,1 -40.68145358897372,12.25698825130547" fill="none" id="id18" stroke="none" /><text fill="#e1ed5e" style="font-size:6.75px; font-family:Arial;" text-anchor="middle"><textPath startOffset="21.466115282336833" xlink:href="#id18">June</textPath></text><line stroke="#e1ed5e" stroke-width="0.3" x1="102.19456741930631" x2="102.32365962044197" y1="184.97166512339345" y2="189.96999836594603" /><path d="M 102.22038585953345 185.97133177190398 a86.0,86.0 0 0,1 -42.740103519485714,-10.115201625700543" fill="none" id="id19" stroke="none" /><text fill="#e1ed5e" style="font-size:6.75px; font-family:Arial;" text-anchor="middle"><textPath startOffset="22.20632615414155" xlink:href="#id19">July</textPath></text><line stroke="#e1ed5e" stroke-width="0.3" x1="58.666819895761336" x2="56.23545636021788" y1="174.27360380694188" y2="178.64263932499728" /><path d="M 58.180547188652646 175.14741091055294 a86.0,86.0 0 0,1 -31.652253787137756,-30.449443065178592" fill="none" id="id20" stroke="none" /><text fill="#e1ed5e" style="font-size:6.75px; font-family:Arial;" text-anchor="middle"><textPath startOffset="22.20632615414155" xlink:href="#id20">August</textPath></text><line stroke="#e1ed5e" stroke-width="0.3" x1="26.63291911575756" x2="22.317208475507996" y1="142.92168965132927" y2="145.44649492493687" /><path d="M 25.769776987707644 143.4266507060508 a86.0,86.0 0 0,1 -11.730757126820373,-40.83630448921669" fill="none" id="id21" stroke="none" /><text fill="#e1ed5e" style="font-size:6.75px; font-family:Arial;" text-anchor="middle"><textPath startOffset="21.46611528233685" xlink:href="#id21">September</textPath></text><line stroke="#e1ed5e" stroke-width="0.3" x1="15.007084014347285" x2="10.007500721073583" y1="101.09737516637583" y2="101.16192664675087" /><path d="M 14.007167355692545 101.11028546245083 a86.0,86.0 0 0,1 10.666146001902534,-42.60595125391555" fill="none" id="id22" stroke="none" /><text fill="#e1ed5e" style="font-size:6.75px; font-family:Arial;" text-anchor="middle"><textPath startOffset="22.20632615414155" xlink:href="#id22">October</textPath></text><line stroke="#e1ed5e" stroke-width="0.3" x1="26.266209847984243" x2="21.928928074336255" y1="57.711370442889674" y2="55.22380399835377" /><path d="M 25.398753493254645 57.213857153982495 a86.0,86.0 0 0,1 29.58750427330803,-30.492523968695096" fill="none" id="id23" stroke="none" /><text fill="#e1ed5e" style="font-size:6.75px; font-family:Arial;" text-anchor="middle"><textPath startOffset="21.46611528233685" xlink:href="#id23">November</textPath></text><line stroke="#e1ed5e" stroke-width="0.3" x1="56.762969772571076" x2="54.21961505331055" y1="26.818313649435495" y2="22.513508569990535" /><path d="M 56.25429882871897 25.957352633546506 a86.0,86.0 0 0,1 42.265352541879196,-11.944610805530505" fill="none" id="id24" stroke="none" /><text fill="#e1ed5e" style="font-size:6.75px; font-family:Arial;" text-anchor="middle"><textPath startOffset="22.20632615414155" xlink:href="#id24">December</textPath></text></svg>